G75*
G70*
%OFA0B0*%
%FSLAX24Y24*%
%IPPOS*%
%LPD*%
%AMOC8*
5,1,8,0,0,1.08239X$1,22.5*
%
%ADD10C,0.0060*%
%ADD11C,0.0030*%
%ADD12C,0.0160*%
%ADD13C,0.0040*%
%ADD14C,0.0050*%
%ADD15C,0.0000*%
%ADD16C,0.0230*%
%ADD17R,0.0059X0.0118*%
%ADD18R,0.0118X0.0118*%
%ADD19C,0.0080*%
%ADD20C,0.0020*%
%ADD21C,0.0010*%
%ADD22R,0.0079X0.0079*%
%ADD23R,0.0118X0.0059*%
%ADD24R,0.0300X0.0340*%
D10*
X002452Y003978D02*
X002879Y003978D01*
X002985Y004085D01*
X002985Y004405D01*
X002345Y004405D01*
X002345Y004085D01*
X002452Y003978D01*
X002345Y004623D02*
X002985Y004623D01*
X002985Y005050D02*
X002345Y004623D01*
X002345Y005050D02*
X002985Y005050D01*
X002879Y005267D02*
X002985Y005374D01*
X002985Y005588D01*
X002879Y005694D01*
X002452Y005694D01*
X002345Y005588D01*
X002345Y005374D01*
X002452Y005267D01*
X002665Y005267D01*
X002665Y005481D01*
X002508Y006061D02*
X002508Y006488D01*
X002295Y006275D02*
X002722Y006275D01*
X003408Y007111D02*
X003408Y007538D01*
X003195Y007325D02*
X003622Y007325D01*
X005045Y006325D02*
X005472Y006325D01*
X005258Y006538D02*
X005258Y006111D01*
X005386Y005964D02*
X005486Y005864D01*
X006286Y005864D01*
X006386Y005964D01*
X006486Y005864D01*
X007286Y005864D01*
X007386Y005964D01*
X007386Y006764D01*
X007286Y006864D01*
X006486Y006864D01*
X006386Y006764D01*
X006286Y006864D01*
X005486Y006864D01*
X005386Y006764D01*
X005386Y005964D01*
X010012Y008102D02*
X017912Y008102D01*
X017912Y013802D01*
X010012Y013802D01*
X010012Y011452D01*
X010056Y011450D01*
X010099Y011444D01*
X010141Y011435D01*
X010183Y011422D01*
X010223Y011405D01*
X010262Y011385D01*
X010299Y011362D01*
X010333Y011335D01*
X010366Y011306D01*
X010395Y011273D01*
X010422Y011239D01*
X010445Y011202D01*
X010465Y011163D01*
X010482Y011123D01*
X010495Y011081D01*
X010504Y011039D01*
X010510Y010996D01*
X010512Y010952D01*
X010510Y010908D01*
X010504Y010865D01*
X010495Y010823D01*
X010482Y010781D01*
X010465Y010741D01*
X010445Y010702D01*
X010422Y010665D01*
X010395Y010631D01*
X010366Y010598D01*
X010333Y010569D01*
X010299Y010542D01*
X010262Y010519D01*
X010223Y010499D01*
X010183Y010482D01*
X010141Y010469D01*
X010099Y010460D01*
X010056Y010454D01*
X010012Y010452D01*
X010012Y008102D01*
X015931Y011096D02*
X015931Y012596D01*
X016181Y012846D01*
X016681Y012846D01*
X016931Y012596D01*
X016931Y011096D01*
X017181Y010846D01*
X017681Y010846D01*
X017931Y011096D01*
X018181Y010846D01*
X018681Y010846D01*
X018931Y011096D01*
X018931Y012596D01*
X018681Y012846D01*
X018181Y012846D01*
X017931Y012596D01*
X017931Y011096D01*
X016931Y011096D02*
X016681Y010846D01*
X016181Y010846D01*
X015931Y011096D01*
X016931Y012596D02*
X017181Y012846D01*
X017681Y012846D01*
X017931Y012596D01*
X017893Y014421D02*
X009993Y014421D01*
X009993Y016771D01*
X010037Y016773D01*
X010080Y016779D01*
X010122Y016788D01*
X010164Y016801D01*
X010204Y016818D01*
X010243Y016838D01*
X010280Y016861D01*
X010314Y016888D01*
X010347Y016917D01*
X010376Y016950D01*
X010403Y016984D01*
X010426Y017021D01*
X010446Y017060D01*
X010463Y017100D01*
X010476Y017142D01*
X010485Y017184D01*
X010491Y017227D01*
X010493Y017271D01*
X010491Y017315D01*
X010485Y017358D01*
X010476Y017400D01*
X010463Y017442D01*
X010446Y017482D01*
X010426Y017521D01*
X010403Y017558D01*
X010376Y017592D01*
X010347Y017625D01*
X010314Y017654D01*
X010280Y017681D01*
X010243Y017704D01*
X010204Y017724D01*
X010164Y017741D01*
X010122Y017754D01*
X010080Y017763D01*
X010037Y017769D01*
X009993Y017771D01*
X009993Y020121D01*
X017893Y020121D01*
X017893Y014421D01*
X017661Y017165D02*
X017161Y017165D01*
X016911Y017415D01*
X016911Y018915D01*
X017161Y019165D01*
X017661Y019165D01*
X017911Y018915D01*
X018161Y019165D01*
X018661Y019165D01*
X018911Y018915D01*
X018911Y017415D01*
X018661Y017165D01*
X018161Y017165D01*
X017911Y017415D01*
X017911Y018915D01*
X016911Y018915D02*
X016661Y019165D01*
X016161Y019165D01*
X015911Y018915D01*
X015911Y017415D01*
X016161Y017165D01*
X016661Y017165D01*
X016911Y017415D01*
X017661Y017165D02*
X017911Y017415D01*
X022604Y014235D02*
X023071Y014235D01*
X022838Y014002D02*
X022838Y014469D01*
X026777Y014078D02*
X027244Y014078D01*
X027415Y014324D02*
X027415Y013824D01*
X027665Y013574D01*
X028165Y013574D01*
X028415Y013824D01*
X028415Y014324D01*
X028665Y014574D01*
X028415Y014824D01*
X028415Y015324D01*
X028665Y015574D01*
X028415Y015824D01*
X028415Y016324D01*
X028665Y016574D01*
X029165Y016574D01*
X029415Y016324D01*
X029415Y015824D01*
X029165Y015574D01*
X029415Y015324D01*
X029415Y014824D01*
X029165Y014574D01*
X029415Y014324D01*
X029415Y013824D01*
X029165Y013574D01*
X028665Y013574D01*
X028415Y013824D01*
X028415Y014324D01*
X028165Y014574D01*
X028415Y014824D01*
X028415Y015324D01*
X028165Y015574D01*
X028415Y015824D01*
X028415Y016324D01*
X028165Y016574D01*
X027665Y016574D01*
X027415Y016324D01*
X027415Y015824D01*
X027665Y015574D01*
X027415Y015324D01*
X027415Y014824D01*
X027665Y014574D01*
X027415Y014324D01*
X027011Y014311D02*
X027011Y013844D01*
X026942Y015187D02*
X027369Y015187D01*
X027035Y015758D02*
X026801Y015758D01*
X026684Y015875D01*
X026801Y016109D02*
X027035Y016109D01*
X027151Y015992D01*
X027151Y015875D01*
X027035Y015758D01*
X026801Y016109D02*
X026684Y016225D01*
X026684Y016342D01*
X026801Y016459D01*
X027035Y016459D01*
X027151Y016342D01*
X029415Y016324D02*
X029415Y015824D01*
X029665Y015574D01*
X029415Y015324D01*
X029415Y014824D01*
X029665Y014574D01*
X029415Y014324D01*
X029415Y013824D01*
X029665Y013574D01*
X030165Y013574D01*
X030415Y013824D01*
X030415Y014324D01*
X030665Y014574D01*
X030415Y014824D01*
X030415Y015324D01*
X030665Y015574D01*
X030415Y015824D01*
X030415Y016324D01*
X030665Y016574D01*
X031165Y016574D01*
X031415Y016324D01*
X031415Y015824D01*
X031165Y015574D01*
X031415Y015324D01*
X031415Y014824D01*
X031165Y014574D01*
X031415Y014324D01*
X031415Y013824D01*
X031165Y013574D01*
X030665Y013574D01*
X030415Y013824D01*
X030415Y014324D01*
X030165Y014574D01*
X030415Y014824D01*
X030415Y015324D01*
X030165Y015574D01*
X030415Y015824D01*
X030415Y016324D01*
X030165Y016574D01*
X029665Y016574D01*
X029415Y016324D01*
X034415Y014117D02*
X034882Y014117D01*
X034649Y013884D02*
X034649Y014351D01*
X034665Y011574D02*
X034165Y011574D01*
X033915Y011324D01*
X033665Y011574D01*
X033165Y011574D01*
X032915Y011324D01*
X032665Y011574D01*
X032165Y011574D01*
X031915Y011324D01*
X031915Y009824D01*
X032165Y009574D01*
X032665Y009574D01*
X032915Y009824D01*
X033165Y009574D01*
X033665Y009574D01*
X033915Y009824D01*
X034165Y009574D01*
X034665Y009574D01*
X034915Y009824D01*
X035165Y009574D01*
X035665Y009574D01*
X035915Y009824D01*
X036165Y009574D01*
X036665Y009574D01*
X036915Y009824D01*
X036915Y011324D01*
X036665Y011574D01*
X036165Y011574D01*
X035915Y011324D01*
X035665Y011574D01*
X035165Y011574D01*
X034915Y011324D01*
X034665Y011574D01*
X030915Y011324D02*
X030915Y009824D01*
X030665Y009574D01*
X030165Y009574D01*
X029915Y009824D01*
X029665Y009574D01*
X029165Y009574D01*
X028915Y009824D01*
X028665Y009574D01*
X028165Y009574D01*
X027915Y009824D01*
X027665Y009574D01*
X027165Y009574D01*
X026915Y009824D01*
X026915Y011324D01*
X027165Y011574D01*
X027665Y011574D01*
X027915Y011324D01*
X028165Y011574D01*
X028665Y011574D01*
X028915Y011324D01*
X029165Y011574D01*
X029665Y011574D01*
X029915Y011324D01*
X030165Y011574D01*
X030665Y011574D01*
X030915Y011324D01*
X019581Y024521D02*
X019081Y024521D01*
X018831Y024771D01*
X018831Y025271D01*
X018581Y025521D01*
X018831Y025771D01*
X018831Y026271D01*
X018581Y026521D01*
X018831Y026771D01*
X018831Y027271D01*
X018581Y027521D01*
X018081Y027521D01*
X017831Y027271D01*
X017831Y026771D01*
X018081Y026521D01*
X017831Y026271D01*
X017831Y025771D01*
X018081Y025521D01*
X017831Y025271D01*
X017831Y024771D01*
X018081Y024521D01*
X018581Y024521D01*
X018831Y024771D01*
X018831Y025271D01*
X019081Y025521D01*
X018831Y025771D01*
X018831Y026271D01*
X019081Y026521D01*
X018831Y026771D01*
X018831Y027271D01*
X019081Y027521D01*
X019581Y027521D01*
X019831Y027271D01*
X019831Y026771D01*
X019581Y026521D01*
X019831Y026271D01*
X019831Y025771D01*
X019581Y025521D01*
X019831Y025271D01*
X019831Y024771D01*
X019581Y024521D01*
X020354Y024857D02*
X020354Y025151D01*
X020354Y025881D02*
X020354Y026174D01*
X020501Y026028D02*
X020207Y026028D01*
X020207Y026865D02*
X020134Y026939D01*
X020134Y027085D01*
X020207Y027159D01*
X020354Y027085D02*
X020428Y027159D01*
X020501Y027159D01*
X020574Y027085D01*
X020574Y026939D01*
X020501Y026865D01*
X020354Y026939D02*
X020281Y026865D01*
X020207Y026865D01*
X020354Y026939D02*
X020354Y027085D01*
X019551Y027627D02*
X019551Y027774D01*
X019477Y027847D01*
X019330Y028014D02*
X019404Y028087D01*
X019404Y028234D01*
X019330Y028307D01*
X019184Y028307D01*
X019110Y028234D01*
X019110Y028087D01*
X019184Y028014D01*
X019330Y028014D01*
X019110Y027847D02*
X019404Y027553D01*
X019477Y027553D01*
X019551Y027627D01*
X019110Y027553D02*
X019110Y027847D01*
X018606Y027700D02*
X018165Y027700D01*
X018165Y027847D02*
X018165Y027553D01*
X018459Y027847D02*
X018606Y027700D01*
X018386Y028014D02*
X018459Y028087D01*
X018459Y028234D01*
X018386Y028307D01*
X018239Y028307D01*
X018165Y028234D01*
X018165Y028087D01*
X018239Y028014D01*
X018386Y028014D01*
X018459Y028474D02*
X018165Y028621D01*
X018459Y028768D01*
X018459Y028931D02*
X018459Y029005D01*
X018312Y029151D01*
X018165Y029151D02*
X018459Y029151D01*
X018386Y029318D02*
X018312Y029318D01*
X018312Y029612D01*
X018239Y029612D02*
X018386Y029612D01*
X018459Y029538D01*
X018459Y029392D01*
X018386Y029318D01*
X018165Y029392D02*
X018165Y029538D01*
X018239Y029612D01*
X018239Y029778D02*
X018165Y029852D01*
X018165Y029999D01*
X018239Y030072D01*
X018386Y029999D02*
X018459Y030072D01*
X018532Y030072D01*
X018606Y029999D01*
X018606Y029852D01*
X018532Y029778D01*
X018386Y029852D02*
X018312Y029778D01*
X018239Y029778D01*
X018386Y029852D02*
X018386Y029999D01*
X017937Y030352D02*
X017937Y029552D01*
X017837Y029452D01*
X017937Y029352D01*
X017937Y028552D01*
X017837Y028452D01*
X017037Y028452D01*
X016937Y028552D01*
X016937Y029352D01*
X017037Y029452D01*
X016937Y029552D01*
X016937Y030352D01*
X017037Y030452D01*
X016937Y030552D01*
X016937Y031352D01*
X017037Y031452D01*
X017837Y031452D01*
X017937Y031352D01*
X017937Y030552D01*
X017837Y030452D01*
X017937Y030352D01*
X019110Y029999D02*
X019184Y030072D01*
X019110Y029999D02*
X019110Y029852D01*
X019184Y029778D01*
X019257Y029778D01*
X019330Y029852D01*
X019330Y029999D01*
X019404Y030072D01*
X019477Y030072D01*
X019551Y029999D01*
X019551Y029852D01*
X019477Y029778D01*
X019330Y029612D02*
X019404Y029538D01*
X019404Y029392D01*
X019330Y029318D01*
X019257Y029318D01*
X019257Y029612D01*
X019184Y029612D02*
X019330Y029612D01*
X019184Y029612D02*
X019110Y029538D01*
X019110Y029392D01*
X019110Y029151D02*
X019404Y029151D01*
X019404Y029005D02*
X019404Y028931D01*
X019404Y029005D02*
X019257Y029151D01*
X019404Y028768D02*
X019110Y028621D01*
X019404Y028474D01*
X020415Y029324D02*
X020415Y030824D01*
X020665Y031074D01*
X021165Y031074D01*
X021415Y030824D01*
X021415Y029324D01*
X021165Y029074D01*
X020665Y029074D01*
X020415Y029324D01*
X021415Y029324D02*
X021665Y029074D01*
X022165Y029074D01*
X022415Y029324D01*
X022415Y030824D01*
X022665Y031074D01*
X023165Y031074D01*
X023415Y030824D01*
X023415Y029324D01*
X023165Y029074D01*
X022665Y029074D01*
X022415Y029324D01*
X023415Y029324D02*
X023665Y029074D01*
X024165Y029074D01*
X024415Y029324D01*
X024415Y030824D01*
X024665Y031074D01*
X025165Y031074D01*
X025415Y030824D01*
X025415Y029324D01*
X025165Y029074D01*
X024665Y029074D01*
X024415Y029324D01*
X025415Y029324D02*
X025665Y029074D01*
X026165Y029074D01*
X026415Y029324D01*
X026415Y030824D01*
X026665Y031074D01*
X027165Y031074D01*
X027415Y030824D01*
X027415Y029324D01*
X027165Y029074D01*
X026665Y029074D01*
X026415Y029324D01*
X027415Y029324D02*
X027665Y029074D01*
X028165Y029074D01*
X028415Y029324D01*
X028415Y030824D01*
X028665Y031074D01*
X029165Y031074D01*
X029415Y030824D01*
X029415Y029324D01*
X029165Y029074D01*
X028665Y029074D01*
X028415Y029324D01*
X029415Y029324D02*
X029665Y029074D01*
X030165Y029074D01*
X030415Y029324D01*
X030415Y030824D01*
X030665Y031074D01*
X031165Y031074D01*
X031415Y030824D01*
X031415Y029324D01*
X031165Y029074D01*
X030665Y029074D01*
X030415Y029324D01*
X031415Y029324D02*
X031665Y029074D01*
X032165Y029074D01*
X032415Y029324D01*
X032415Y030824D01*
X032665Y031074D01*
X033165Y031074D01*
X033415Y030824D01*
X033415Y029324D01*
X033165Y029074D01*
X032665Y029074D01*
X032415Y029324D01*
X033415Y029324D02*
X033665Y029074D01*
X034165Y029074D01*
X034415Y029324D01*
X034415Y030824D01*
X034165Y031074D01*
X033665Y031074D01*
X033415Y030824D01*
X034415Y030824D02*
X034665Y031074D01*
X035165Y031074D01*
X035415Y030824D01*
X035415Y029324D01*
X035165Y029074D01*
X034665Y029074D01*
X034415Y029324D01*
X035415Y029324D02*
X035665Y029074D01*
X036165Y029074D01*
X036415Y029324D01*
X036415Y030824D01*
X036165Y031074D01*
X035665Y031074D01*
X035415Y030824D01*
X036415Y030824D02*
X036665Y031074D01*
X037165Y031074D01*
X037415Y030824D01*
X037415Y029324D01*
X037165Y029074D01*
X036665Y029074D01*
X036415Y029324D01*
X037415Y029324D02*
X037665Y029074D01*
X038165Y029074D01*
X038415Y029324D01*
X038415Y030824D01*
X038165Y031074D01*
X037665Y031074D01*
X037415Y030824D01*
X038415Y030824D02*
X038665Y031074D01*
X039165Y031074D01*
X039415Y030824D01*
X039415Y029324D01*
X039165Y029074D01*
X038665Y029074D01*
X038415Y029324D01*
X039415Y029324D02*
X039665Y029074D01*
X040165Y029074D01*
X040415Y029324D01*
X040415Y030824D01*
X040165Y031074D01*
X039665Y031074D01*
X039415Y030824D01*
X032415Y030824D02*
X032165Y031074D01*
X031665Y031074D01*
X031415Y030824D01*
X030415Y030824D02*
X030165Y031074D01*
X029665Y031074D01*
X029415Y030824D01*
X028415Y030824D02*
X028165Y031074D01*
X027665Y031074D01*
X027415Y030824D01*
X026415Y030824D02*
X026165Y031074D01*
X025665Y031074D01*
X025415Y030824D01*
X024415Y030824D02*
X024165Y031074D01*
X023665Y031074D01*
X023415Y030824D01*
X022415Y030824D02*
X022165Y031074D01*
X021665Y031074D01*
X021415Y030824D01*
X015952Y030552D02*
X015852Y030452D01*
X015952Y030352D01*
X015952Y029552D01*
X015852Y029452D01*
X015952Y029352D01*
X015952Y028552D01*
X015852Y028452D01*
X015052Y028452D01*
X014952Y028552D01*
X014952Y029352D01*
X015052Y029452D01*
X014952Y029552D01*
X014952Y030352D01*
X015052Y030452D01*
X014952Y030552D01*
X014952Y031352D01*
X015052Y031452D01*
X015852Y031452D01*
X015952Y031352D01*
X015952Y030552D01*
X010135Y028408D02*
X009111Y028408D01*
X009091Y028406D01*
X009071Y028402D01*
X009053Y028394D01*
X009036Y028384D01*
X009020Y028371D01*
X009007Y028355D01*
X008997Y028338D01*
X008989Y028320D01*
X008985Y028300D01*
X008983Y028280D01*
X008983Y027256D02*
X008985Y027236D01*
X008989Y027216D01*
X008997Y027198D01*
X009007Y027181D01*
X009020Y027165D01*
X009036Y027152D01*
X009053Y027142D01*
X009071Y027134D01*
X009091Y027130D01*
X009111Y027128D01*
X010135Y027128D01*
X010155Y027130D01*
X010175Y027134D01*
X010193Y027142D01*
X010210Y027152D01*
X010226Y027165D01*
X010239Y027181D01*
X010249Y027198D01*
X010257Y027216D01*
X010261Y027236D01*
X010263Y027256D01*
X010263Y028280D02*
X010261Y028300D01*
X010257Y028320D01*
X010249Y028338D01*
X010239Y028355D01*
X010226Y028371D01*
X010210Y028384D01*
X010193Y028394D01*
X010175Y028402D01*
X010155Y028406D01*
X010135Y028408D01*
X005615Y029924D02*
X005365Y029674D01*
X004865Y029674D01*
X004615Y029924D01*
X004615Y030424D01*
X004865Y030674D01*
X005365Y030674D01*
X005615Y030424D01*
X005615Y029924D01*
X011519Y023077D02*
X011602Y023077D01*
X011686Y022993D01*
X011769Y023077D01*
X011852Y023077D01*
X011936Y022993D01*
X011936Y022826D01*
X011852Y022743D01*
X011936Y022561D02*
X011936Y022227D01*
X011936Y022394D02*
X011435Y022394D01*
X011602Y022227D01*
X011519Y022045D02*
X011435Y021962D01*
X011435Y021712D01*
X011936Y021712D01*
X011936Y021962D01*
X011852Y022045D01*
X011519Y022045D01*
X011519Y022743D02*
X011435Y022826D01*
X011435Y022993D01*
X011519Y023077D01*
X011686Y022993D02*
X011686Y022910D01*
X006765Y021674D02*
X006765Y021174D01*
X006515Y020924D01*
X006015Y020924D01*
X005765Y021174D01*
X005765Y021674D01*
X006015Y021924D01*
X006515Y021924D01*
X006765Y021674D01*
X005241Y015510D02*
X005241Y015043D01*
X005007Y015277D02*
X005474Y015277D01*
D11*
X006297Y014725D02*
X006297Y014531D01*
X006588Y014531D01*
X006588Y014430D02*
X006394Y014430D01*
X006442Y014531D02*
X006442Y014628D01*
X006588Y014430D02*
X006588Y014285D01*
X006539Y014236D01*
X006394Y014236D01*
X006346Y014135D02*
X006539Y013942D01*
X006588Y013990D01*
X006588Y014087D01*
X006539Y014135D01*
X006346Y014135D01*
X006297Y014087D01*
X006297Y013990D01*
X006346Y013942D01*
X006539Y013942D01*
X006539Y013841D02*
X006588Y013792D01*
X006588Y013695D01*
X006539Y013647D01*
X006346Y013841D01*
X006539Y013841D01*
X006346Y013841D02*
X006297Y013792D01*
X006297Y013695D01*
X006346Y013647D01*
X006539Y013647D01*
X006588Y013546D02*
X006588Y013352D01*
X006588Y013449D02*
X006297Y013449D01*
X006394Y013352D01*
X008682Y013971D02*
X008731Y013922D01*
X008924Y013922D01*
X008972Y013971D01*
X008972Y014068D01*
X008924Y014116D01*
X008924Y014217D02*
X008972Y014265D01*
X008972Y014362D01*
X008924Y014411D01*
X008876Y014411D01*
X008827Y014362D01*
X008827Y014217D01*
X008924Y014217D01*
X008827Y014217D02*
X008731Y014314D01*
X008682Y014411D01*
X008731Y014116D02*
X008682Y014068D01*
X008682Y013971D01*
X009499Y012039D02*
X009499Y011749D01*
X009403Y011749D02*
X009596Y011749D01*
X009697Y011797D02*
X009891Y011991D01*
X009891Y011797D01*
X009842Y011749D01*
X009746Y011749D01*
X009697Y011797D01*
X009697Y011991D01*
X009746Y012039D01*
X009842Y012039D01*
X009891Y011991D01*
X009992Y011991D02*
X010040Y012039D01*
X010137Y012039D01*
X010185Y011991D01*
X009992Y011797D01*
X010040Y011749D01*
X010137Y011749D01*
X010185Y011797D01*
X010185Y011991D01*
X010287Y011942D02*
X010287Y011797D01*
X010335Y011749D01*
X010480Y011749D01*
X010480Y011942D01*
X010581Y011894D02*
X010678Y011894D01*
X010581Y012039D02*
X010775Y012039D01*
X010581Y012039D02*
X010581Y011749D01*
X009992Y011797D02*
X009992Y011991D01*
X009499Y012039D02*
X009403Y011942D01*
X008588Y010187D02*
X008442Y010042D01*
X008636Y010042D01*
X008588Y010187D02*
X008588Y009896D01*
X008341Y009945D02*
X008293Y009896D01*
X008196Y009896D01*
X008148Y009945D01*
X008148Y010138D01*
X008196Y010187D01*
X008293Y010187D01*
X008341Y010138D01*
X009898Y009013D02*
X010043Y009013D01*
X010091Y008965D01*
X010091Y008868D01*
X010043Y008819D01*
X009898Y008819D01*
X009898Y008723D02*
X009898Y009013D01*
X009994Y008819D02*
X010091Y008723D01*
X010192Y008723D02*
X010386Y008723D01*
X010289Y008723D02*
X010289Y009013D01*
X010192Y008916D01*
X010487Y008916D02*
X010535Y008868D01*
X010680Y008868D01*
X010680Y008965D02*
X010632Y009013D01*
X010535Y009013D01*
X010487Y008965D01*
X010487Y008916D01*
X010487Y008771D02*
X010535Y008723D01*
X010632Y008723D01*
X010680Y008771D01*
X010680Y008965D01*
X011027Y009244D02*
X011318Y009244D01*
X011318Y009148D02*
X011318Y009341D01*
X011269Y009442D02*
X011076Y009636D01*
X011269Y009636D01*
X011318Y009588D01*
X011318Y009491D01*
X011269Y009442D01*
X011076Y009442D01*
X011027Y009491D01*
X011027Y009588D01*
X011076Y009636D01*
X011027Y009737D02*
X011318Y009737D01*
X011221Y009737D02*
X011124Y009882D01*
X011221Y009737D02*
X011318Y009882D01*
X011027Y009244D02*
X011124Y009148D01*
X016221Y009812D02*
X016221Y010059D01*
X016221Y009936D02*
X016592Y009936D01*
X016468Y010059D01*
X016530Y010181D02*
X016592Y010242D01*
X016592Y010366D01*
X016530Y010427D01*
X016468Y010427D01*
X016406Y010366D01*
X016406Y010242D01*
X016345Y010181D01*
X016283Y010181D01*
X016221Y010242D01*
X016221Y010366D01*
X016283Y010427D01*
X016221Y010549D02*
X016592Y010549D01*
X016468Y010672D01*
X016592Y010796D01*
X016221Y010796D01*
X017245Y010796D02*
X017615Y010796D01*
X017492Y010672D01*
X017615Y010549D01*
X017245Y010549D01*
X017307Y010427D02*
X017245Y010366D01*
X017245Y010242D01*
X017307Y010181D01*
X017368Y010181D01*
X017430Y010242D01*
X017430Y010366D01*
X017492Y010427D01*
X017554Y010427D01*
X017615Y010366D01*
X017615Y010242D01*
X017554Y010181D01*
X017554Y010059D02*
X017615Y009997D01*
X017615Y009874D01*
X017554Y009812D01*
X017492Y009812D01*
X017245Y010059D01*
X017245Y009812D01*
X018269Y009874D02*
X018269Y009997D01*
X018330Y010059D01*
X018330Y010181D02*
X018269Y010242D01*
X018269Y010366D01*
X018330Y010427D01*
X018269Y010549D02*
X018639Y010549D01*
X018515Y010672D01*
X018639Y010796D01*
X018269Y010796D01*
X018515Y010427D02*
X018454Y010366D01*
X018454Y010242D01*
X018392Y010181D01*
X018330Y010181D01*
X018577Y010181D02*
X018639Y010242D01*
X018639Y010366D01*
X018577Y010427D01*
X018515Y010427D01*
X018577Y010059D02*
X018639Y009997D01*
X018639Y009874D01*
X018577Y009812D01*
X018515Y009812D01*
X018454Y009874D01*
X018392Y009812D01*
X018330Y009812D01*
X018269Y009874D01*
X018454Y009874D02*
X018454Y009936D01*
X020386Y011236D02*
X020386Y011333D01*
X020435Y011381D01*
X020483Y011381D01*
X020532Y011333D01*
X020532Y011236D01*
X020483Y011188D01*
X020435Y011188D01*
X020386Y011236D01*
X020532Y011236D02*
X020580Y011188D01*
X020628Y011188D01*
X020677Y011236D01*
X020677Y011333D01*
X020628Y011381D01*
X020580Y011381D01*
X020532Y011333D01*
X020532Y011482D02*
X020483Y011531D01*
X020483Y011676D01*
X020386Y011676D02*
X020677Y011676D01*
X020677Y011531D01*
X020628Y011482D01*
X020532Y011482D01*
X020483Y011579D02*
X020386Y011482D01*
X018538Y016111D02*
X018476Y016111D01*
X018414Y016173D01*
X018353Y016111D01*
X018291Y016111D01*
X018229Y016173D01*
X018229Y016297D01*
X018291Y016358D01*
X018291Y016480D02*
X018229Y016541D01*
X018229Y016665D01*
X018291Y016727D01*
X018229Y016848D02*
X018599Y016848D01*
X018476Y016971D01*
X018599Y017095D01*
X018229Y017095D01*
X018476Y016727D02*
X018414Y016665D01*
X018414Y016541D01*
X018353Y016480D01*
X018291Y016480D01*
X018538Y016480D02*
X018599Y016541D01*
X018599Y016665D01*
X018538Y016727D01*
X018476Y016727D01*
X018538Y016358D02*
X018599Y016297D01*
X018599Y016173D01*
X018538Y016111D01*
X018414Y016173D02*
X018414Y016235D01*
X017576Y016297D02*
X017514Y016358D01*
X017576Y016297D02*
X017576Y016173D01*
X017514Y016111D01*
X017452Y016111D01*
X017206Y016358D01*
X017206Y016111D01*
X017267Y016480D02*
X017206Y016541D01*
X017206Y016665D01*
X017267Y016727D01*
X017206Y016848D02*
X017576Y016848D01*
X017452Y016971D01*
X017576Y017095D01*
X017206Y017095D01*
X017452Y016727D02*
X017391Y016665D01*
X017391Y016541D01*
X017329Y016480D01*
X017267Y016480D01*
X017514Y016480D02*
X017576Y016541D01*
X017576Y016665D01*
X017514Y016727D01*
X017452Y016727D01*
X016592Y016665D02*
X016592Y016541D01*
X016530Y016480D01*
X016468Y016358D02*
X016592Y016235D01*
X016221Y016235D01*
X016221Y016358D02*
X016221Y016111D01*
X016283Y016480D02*
X016221Y016541D01*
X016221Y016665D01*
X016283Y016727D01*
X016221Y016848D02*
X016592Y016848D01*
X016468Y016971D01*
X016592Y017095D01*
X016221Y017095D01*
X016468Y016727D02*
X016406Y016665D01*
X016406Y016541D01*
X016345Y016480D01*
X016283Y016480D01*
X016468Y016727D02*
X016530Y016727D01*
X016592Y016665D01*
X020117Y017097D02*
X020117Y017193D01*
X020166Y017242D01*
X020263Y017242D02*
X020311Y017145D01*
X020311Y017097D01*
X020263Y017048D01*
X020166Y017048D01*
X020117Y017097D01*
X020263Y017242D02*
X020408Y017242D01*
X020408Y017048D01*
X020359Y017343D02*
X020263Y017343D01*
X020214Y017391D01*
X020214Y017536D01*
X020214Y017440D02*
X020117Y017343D01*
X020117Y017536D02*
X020408Y017536D01*
X020408Y017391D01*
X020359Y017343D01*
X024460Y019114D02*
X024460Y019260D01*
X024508Y019308D01*
X024605Y019308D01*
X024653Y019260D01*
X024653Y019114D01*
X024750Y019114D02*
X024460Y019114D01*
X024653Y019211D02*
X024750Y019308D01*
X024750Y019409D02*
X024750Y019603D01*
X024750Y019506D02*
X024460Y019506D01*
X024556Y019409D01*
X024556Y019704D02*
X024508Y019704D01*
X024460Y019752D01*
X024460Y019849D01*
X024508Y019897D01*
X024556Y019897D01*
X024605Y019849D01*
X024605Y019752D01*
X024556Y019704D01*
X024605Y019752D02*
X024653Y019704D01*
X024702Y019704D01*
X024750Y019752D01*
X024750Y019849D01*
X024702Y019897D01*
X024653Y019897D01*
X024605Y019849D01*
X031798Y016652D02*
X031798Y016405D01*
X031798Y016283D02*
X032168Y016283D01*
X031798Y016037D01*
X032168Y016037D01*
X032168Y015915D02*
X031798Y015915D01*
X031798Y015730D01*
X031859Y015668D01*
X032106Y015668D01*
X032168Y015730D01*
X032168Y015915D01*
X032168Y016405D02*
X032168Y016652D01*
X031798Y016652D01*
X031983Y016652D02*
X031983Y016528D01*
X032045Y015179D02*
X031983Y015117D01*
X031983Y014993D01*
X031921Y014932D01*
X031859Y014932D01*
X031798Y014993D01*
X031798Y015117D01*
X031859Y015179D01*
X032045Y015179D02*
X032106Y015179D01*
X032168Y015117D01*
X032168Y014993D01*
X032106Y014932D01*
X032168Y014810D02*
X032168Y014563D01*
X032168Y014687D02*
X031798Y014687D01*
X031859Y014442D02*
X031798Y014380D01*
X031798Y014257D01*
X031859Y014195D01*
X032106Y014195D01*
X032168Y014257D01*
X032168Y014380D01*
X032106Y014442D01*
X031859Y014442D01*
X031798Y014074D02*
X032168Y014074D01*
X032168Y013888D01*
X032106Y013827D01*
X031983Y013827D01*
X031921Y013888D01*
X031921Y014074D01*
X031859Y013705D02*
X031798Y013644D01*
X031798Y013520D01*
X031859Y013458D01*
X031921Y013458D01*
X031983Y013520D01*
X031983Y013644D01*
X032045Y013705D01*
X032106Y013705D01*
X032168Y013644D01*
X032168Y013520D01*
X032106Y013458D01*
X037038Y011422D02*
X037285Y011422D01*
X037408Y011299D01*
X037285Y011175D01*
X037038Y011175D01*
X037099Y011054D02*
X037038Y010992D01*
X037038Y010869D01*
X037099Y010807D01*
X037408Y010807D01*
X037408Y010686D02*
X037038Y010439D01*
X037223Y010317D02*
X037223Y010070D01*
X037346Y009949D02*
X037408Y009887D01*
X037408Y009764D01*
X037346Y009702D01*
X037285Y009702D01*
X037038Y009949D01*
X037038Y009702D01*
X037408Y010439D02*
X037038Y010686D01*
X037099Y011054D02*
X037408Y011054D01*
X037223Y011175D02*
X037223Y011422D01*
X037487Y015174D02*
X037487Y015368D01*
X037681Y015174D01*
X037729Y015174D01*
X037778Y015223D01*
X037778Y015319D01*
X037729Y015368D01*
X037729Y015469D02*
X037778Y015517D01*
X037778Y015614D01*
X037729Y015662D01*
X037729Y015763D02*
X037633Y015763D01*
X037584Y015812D01*
X037584Y015957D01*
X037487Y015957D02*
X037778Y015957D01*
X037778Y015812D01*
X037729Y015763D01*
X037584Y015860D02*
X037487Y015763D01*
X037487Y015662D02*
X037681Y015469D01*
X037729Y015469D01*
X037487Y015469D02*
X037487Y015662D01*
X036479Y019133D02*
X036479Y019326D01*
X036479Y019230D02*
X036769Y019230D01*
X036673Y019326D01*
X036673Y019428D02*
X036721Y019428D01*
X036769Y019476D01*
X036769Y019573D01*
X036721Y019621D01*
X036721Y019722D02*
X036624Y019722D01*
X036576Y019771D01*
X036576Y019916D01*
X036479Y019916D02*
X036769Y019916D01*
X036769Y019771D01*
X036721Y019722D01*
X036576Y019819D02*
X036479Y019722D01*
X036479Y019621D02*
X036673Y019428D01*
X036479Y019428D02*
X036479Y019621D01*
X026660Y011259D02*
X026537Y011136D01*
X026290Y011136D01*
X026351Y011014D02*
X026290Y010953D01*
X026290Y010829D01*
X026351Y010768D01*
X026660Y010768D01*
X026660Y010646D02*
X026290Y010399D01*
X026475Y010278D02*
X026475Y010031D01*
X026598Y009910D02*
X026660Y009848D01*
X026660Y009724D01*
X026598Y009663D01*
X026537Y009663D01*
X026475Y009724D01*
X026413Y009663D01*
X026351Y009663D01*
X026290Y009724D01*
X026290Y009848D01*
X026351Y009910D01*
X026475Y009786D02*
X026475Y009724D01*
X026660Y010399D02*
X026290Y010646D01*
X026351Y011014D02*
X026660Y011014D01*
X026475Y011136D02*
X026475Y011383D01*
X026537Y011383D02*
X026290Y011383D01*
X026537Y011383D02*
X026660Y011259D01*
X022527Y001961D02*
X022527Y001714D01*
X022404Y001838D02*
X022651Y001838D01*
X011133Y016890D02*
X011133Y017180D01*
X011327Y017180D01*
X011230Y017035D02*
X011133Y017035D01*
X011032Y017083D02*
X011032Y016890D01*
X010887Y016890D01*
X010839Y016938D01*
X010839Y017083D01*
X010738Y017131D02*
X010544Y016938D01*
X010592Y016890D01*
X010689Y016890D01*
X010738Y016938D01*
X010738Y017131D01*
X010689Y017180D01*
X010592Y017180D01*
X010544Y017131D01*
X010544Y016938D01*
X010443Y016938D02*
X010443Y017131D01*
X010249Y016938D01*
X010298Y016890D01*
X010395Y016890D01*
X010443Y016938D01*
X010443Y017131D02*
X010395Y017180D01*
X010298Y017180D01*
X010249Y017131D01*
X010249Y016938D01*
X010148Y016890D02*
X009955Y016890D01*
X010051Y016890D02*
X010051Y017180D01*
X009955Y017083D01*
X008171Y018149D02*
X007978Y018149D01*
X007978Y017859D01*
X007877Y017859D02*
X007877Y018004D01*
X007829Y018052D01*
X007683Y018052D01*
X007683Y017859D01*
X007582Y017907D02*
X007534Y017859D01*
X007437Y017859D01*
X007389Y017907D01*
X007582Y018101D01*
X007582Y017907D01*
X007389Y017907D02*
X007389Y018101D01*
X007437Y018149D01*
X007534Y018149D01*
X007582Y018101D01*
X007288Y018101D02*
X007288Y017907D01*
X007239Y017859D01*
X007142Y017859D01*
X007094Y017907D01*
X007288Y018101D01*
X007239Y018149D01*
X007142Y018149D01*
X007094Y018101D01*
X007094Y017907D01*
X006993Y017859D02*
X006799Y017859D01*
X006896Y017859D02*
X006896Y018149D01*
X006799Y018052D01*
X006973Y017699D02*
X006924Y017651D01*
X006924Y017457D01*
X006973Y017409D01*
X007070Y017409D01*
X007118Y017457D01*
X007219Y017409D02*
X007413Y017602D01*
X007413Y017651D01*
X007364Y017699D01*
X007267Y017699D01*
X007219Y017651D01*
X007118Y017651D02*
X007070Y017699D01*
X006973Y017699D01*
X007219Y017409D02*
X007413Y017409D01*
X007978Y018004D02*
X008075Y018004D01*
X011995Y018514D02*
X012043Y018465D01*
X012140Y018465D01*
X012188Y018514D01*
X012290Y018514D02*
X012338Y018465D01*
X012435Y018465D01*
X012483Y018514D01*
X012483Y018562D01*
X012435Y018611D01*
X012386Y018611D01*
X012435Y018611D02*
X012483Y018659D01*
X012483Y018707D01*
X012435Y018756D01*
X012338Y018756D01*
X012290Y018707D01*
X012188Y018707D02*
X012140Y018756D01*
X012043Y018756D01*
X011995Y018707D01*
X011995Y018514D01*
X015430Y020589D02*
X015623Y020589D01*
X015527Y020589D02*
X015527Y020880D01*
X015430Y020783D01*
X013656Y023571D02*
X013463Y023571D01*
X013656Y023764D01*
X013656Y023812D01*
X013608Y023861D01*
X013511Y023861D01*
X013463Y023812D01*
X013265Y023861D02*
X013265Y023571D01*
X013361Y023571D02*
X013168Y023571D01*
X013067Y023571D02*
X012970Y023667D01*
X013018Y023667D02*
X012873Y023667D01*
X012873Y023571D02*
X012873Y023861D01*
X013018Y023861D01*
X013067Y023812D01*
X013067Y023716D01*
X013018Y023667D01*
X013168Y023764D02*
X013265Y023861D01*
D12*
X001915Y001362D02*
X002702Y000574D01*
X040498Y000574D01*
X041285Y001362D01*
X041285Y031283D01*
X040498Y032071D01*
X002702Y032071D01*
X001915Y031283D01*
X001915Y001362D01*
X022427Y012622D02*
X022427Y016677D01*
X023411Y016677D01*
X024395Y016677D01*
X024395Y012622D01*
X023411Y012622D01*
X022427Y012622D01*
X023411Y012622D02*
X023411Y016677D01*
X026521Y015535D02*
X026521Y014551D01*
X026521Y013567D01*
X031443Y013567D01*
X031443Y014551D01*
X026521Y014551D01*
X026521Y015535D02*
X031443Y015535D01*
X031443Y014551D01*
X033411Y013645D02*
X033411Y017504D01*
X034395Y017504D01*
X034395Y013645D01*
X033411Y013645D01*
X020773Y024551D02*
X017820Y024551D01*
X017820Y025535D01*
X017820Y026480D01*
X020773Y026480D01*
X020773Y025535D01*
X020773Y024551D01*
X020773Y025535D02*
X017820Y025535D01*
X039435Y030102D02*
X039435Y031086D01*
X040419Y031086D01*
X040419Y030102D01*
X039435Y030102D01*
D13*
X039691Y031192D02*
X039691Y031499D01*
X039691Y031346D02*
X040151Y031346D01*
X039998Y031499D01*
X040191Y028783D02*
X040191Y028629D01*
X040191Y028706D02*
X039730Y028706D01*
X039730Y028783D02*
X039730Y028629D01*
X039730Y028476D02*
X039730Y028246D01*
X039807Y028169D01*
X040114Y028169D01*
X040191Y028246D01*
X040191Y028476D01*
X039730Y028476D01*
X039730Y027862D02*
X040191Y027862D01*
X040191Y027709D02*
X040191Y028016D01*
X040191Y027555D02*
X039730Y027555D01*
X039730Y027325D01*
X039807Y027248D01*
X040114Y027248D01*
X040191Y027325D01*
X040191Y027555D01*
X040191Y027095D02*
X039730Y027095D01*
X039730Y026865D01*
X039807Y026788D01*
X039884Y026788D01*
X039960Y026865D01*
X039960Y027095D01*
X039960Y026865D02*
X040037Y026788D01*
X040114Y026788D01*
X040191Y026865D01*
X040191Y027095D01*
X040114Y026635D02*
X039807Y026635D01*
X040114Y026328D01*
X039807Y026328D01*
X039730Y026404D01*
X039730Y026558D01*
X039807Y026635D01*
X040114Y026635D02*
X040191Y026558D01*
X040191Y026404D01*
X040114Y026328D01*
X040114Y026174D02*
X040191Y026097D01*
X040191Y025944D01*
X040114Y025867D01*
X040037Y025867D01*
X039730Y026174D01*
X039730Y025867D01*
X037610Y026023D02*
X037534Y025946D01*
X037227Y026253D01*
X037150Y026176D01*
X037150Y026023D01*
X037227Y025946D01*
X037534Y025946D01*
X037610Y026023D02*
X037610Y026176D01*
X037534Y026253D01*
X037227Y026253D01*
X037150Y026406D02*
X037150Y026713D01*
X037150Y026560D02*
X037610Y026560D01*
X037457Y026713D01*
X037534Y026866D02*
X037380Y026866D01*
X037303Y026943D01*
X037303Y027173D01*
X037303Y027020D02*
X037150Y026866D01*
X037150Y027173D02*
X037610Y027173D01*
X037610Y026943D01*
X037534Y026866D01*
X036681Y026904D02*
X036604Y026827D01*
X036451Y026827D01*
X036374Y026904D01*
X036374Y027134D01*
X036221Y027134D02*
X036681Y027134D01*
X036681Y026904D01*
X036528Y026674D02*
X036681Y026520D01*
X036221Y026520D01*
X036221Y026367D02*
X036221Y026674D01*
X036221Y026827D02*
X036374Y026981D01*
X035673Y026943D02*
X035597Y026866D01*
X035443Y026866D01*
X035366Y026943D01*
X035366Y027173D01*
X035366Y027020D02*
X035213Y026866D01*
X035213Y026713D02*
X035213Y026406D01*
X035213Y026560D02*
X035673Y026560D01*
X035520Y026713D01*
X035673Y026943D02*
X035673Y027173D01*
X035213Y027173D01*
X034665Y027173D02*
X034665Y026943D01*
X034589Y026866D01*
X034435Y026866D01*
X034358Y026943D01*
X034358Y027173D01*
X034205Y027173D02*
X034665Y027173D01*
X034358Y027020D02*
X034205Y026866D01*
X034205Y026713D02*
X034205Y026406D01*
X034205Y026560D02*
X034665Y026560D01*
X034512Y026713D01*
X034435Y026253D02*
X034435Y025946D01*
X034205Y026023D02*
X034665Y026023D01*
X034435Y026253D01*
X033658Y026292D02*
X033658Y025985D01*
X033504Y026062D02*
X033504Y026139D01*
X033427Y026292D01*
X033658Y026292D01*
X033504Y026062D02*
X033427Y025985D01*
X033274Y025985D01*
X033197Y026062D01*
X033197Y026215D01*
X033274Y026292D01*
X033197Y026446D02*
X033197Y026752D01*
X033197Y026599D02*
X033658Y026599D01*
X033504Y026752D01*
X033427Y026906D02*
X033351Y026983D01*
X033351Y027213D01*
X033351Y027059D02*
X033197Y026906D01*
X033427Y026906D02*
X033581Y026906D01*
X033658Y026983D01*
X033658Y027213D01*
X033197Y027213D01*
X032165Y027213D02*
X032165Y026983D01*
X032089Y026906D01*
X031935Y026906D01*
X031858Y026983D01*
X031858Y027213D01*
X031705Y027213D02*
X032165Y027213D01*
X031858Y027059D02*
X031705Y026906D01*
X031705Y026752D02*
X031705Y026446D01*
X031705Y026599D02*
X032165Y026599D01*
X032012Y026752D01*
X031935Y026292D02*
X031935Y026062D01*
X031858Y025985D01*
X031782Y025985D01*
X031705Y026062D01*
X031705Y026215D01*
X031782Y026292D01*
X031935Y026292D01*
X032089Y026139D01*
X032165Y025985D01*
X031197Y025985D02*
X031120Y025985D01*
X030813Y026292D01*
X030737Y026292D01*
X030737Y026446D02*
X030737Y026752D01*
X030737Y026599D02*
X031197Y026599D01*
X031043Y026752D01*
X030967Y026906D02*
X030890Y026983D01*
X030890Y027213D01*
X030737Y027213D02*
X031197Y027213D01*
X031197Y026983D01*
X031120Y026906D01*
X030967Y026906D01*
X030890Y027059D02*
X030737Y026906D01*
X031197Y026292D02*
X031197Y025985D01*
X030937Y025947D02*
X030937Y025717D01*
X030860Y025640D01*
X030707Y025640D01*
X030630Y025717D01*
X030630Y025947D01*
X030477Y025947D02*
X030937Y025947D01*
X030630Y025794D02*
X030477Y025640D01*
X030477Y025487D02*
X030784Y025180D01*
X030860Y025180D01*
X030937Y025256D01*
X030937Y025410D01*
X030860Y025487D01*
X030477Y025487D02*
X030477Y025180D01*
X030553Y025026D02*
X030860Y024719D01*
X030553Y024719D01*
X030477Y024796D01*
X030477Y024950D01*
X030553Y025026D01*
X030860Y025026D01*
X030937Y024950D01*
X030937Y024796D01*
X030860Y024719D01*
X028665Y024523D02*
X028665Y024293D01*
X028589Y024216D01*
X028435Y024216D01*
X028358Y024293D01*
X028358Y024523D01*
X028205Y024523D02*
X028665Y024523D01*
X028358Y024370D02*
X028205Y024216D01*
X028282Y024063D02*
X028205Y023986D01*
X028205Y023833D01*
X028282Y023756D01*
X028358Y023756D01*
X028435Y023833D01*
X028435Y023910D01*
X028435Y023833D02*
X028512Y023756D01*
X028589Y023756D01*
X028665Y023833D01*
X028665Y023986D01*
X028589Y024063D01*
X028589Y023603D02*
X028512Y023603D01*
X028435Y023526D01*
X028435Y023373D01*
X028358Y023296D01*
X028282Y023296D01*
X028205Y023373D01*
X028205Y023526D01*
X028282Y023603D01*
X028358Y023603D01*
X028435Y023526D01*
X028435Y023373D02*
X028512Y023296D01*
X028589Y023296D01*
X028665Y023373D01*
X028665Y023526D01*
X028589Y023603D01*
X027689Y026062D02*
X027229Y026062D01*
X027459Y025985D02*
X027459Y026292D01*
X027689Y026062D01*
X027612Y026446D02*
X027689Y026522D01*
X027689Y026676D01*
X027612Y026752D01*
X027612Y026906D02*
X027459Y026906D01*
X027382Y026983D01*
X027382Y027213D01*
X027229Y027213D02*
X027689Y027213D01*
X027689Y026983D01*
X027612Y026906D01*
X027382Y027059D02*
X027229Y026906D01*
X027229Y026752D02*
X027536Y026446D01*
X027612Y026446D01*
X027229Y026446D02*
X027229Y026752D01*
X026681Y026636D02*
X026604Y026713D01*
X026681Y026636D02*
X026681Y026483D01*
X026604Y026406D01*
X026528Y026406D01*
X026221Y026713D01*
X026221Y026406D01*
X026297Y026253D02*
X026221Y026176D01*
X026221Y026023D01*
X026297Y025946D01*
X026451Y025946D01*
X026528Y026023D01*
X026528Y026099D01*
X026451Y026253D01*
X026681Y026253D01*
X026681Y025946D01*
X026604Y026866D02*
X026451Y026866D01*
X026374Y026943D01*
X026374Y027173D01*
X026374Y027020D02*
X026221Y026866D01*
X026221Y027173D02*
X026681Y027173D01*
X026681Y026943D01*
X026604Y026866D01*
X025634Y026943D02*
X025557Y026866D01*
X025404Y026866D01*
X025327Y026943D01*
X025327Y027173D01*
X025327Y027020D02*
X025174Y026866D01*
X025174Y026713D02*
X025480Y026406D01*
X025557Y026406D01*
X025634Y026483D01*
X025634Y026636D01*
X025557Y026713D01*
X025634Y026943D02*
X025634Y027173D01*
X025174Y027173D01*
X024406Y027519D02*
X024329Y027442D01*
X024252Y027442D01*
X024175Y027519D01*
X024175Y027672D01*
X024252Y027749D01*
X024329Y027749D01*
X024406Y027672D01*
X024406Y027519D01*
X024175Y027519D02*
X024099Y027442D01*
X024022Y027442D01*
X023945Y027519D01*
X023945Y027672D01*
X024022Y027749D01*
X024099Y027749D01*
X024175Y027672D01*
X024252Y027902D02*
X024329Y027902D01*
X024406Y027979D01*
X024406Y028132D01*
X024329Y028209D01*
X024329Y028363D02*
X024175Y028363D01*
X024099Y028439D01*
X024099Y028669D01*
X024099Y028516D02*
X023945Y028363D01*
X023945Y028209D02*
X024252Y027902D01*
X023945Y027902D02*
X023945Y028209D01*
X024329Y028363D02*
X024406Y028439D01*
X024406Y028669D01*
X023945Y028669D01*
X021642Y027134D02*
X021642Y026904D01*
X021565Y026827D01*
X021412Y026827D01*
X021335Y026904D01*
X021335Y027134D01*
X021335Y026981D02*
X021181Y026827D01*
X021181Y026674D02*
X021488Y026367D01*
X021565Y026367D01*
X021642Y026444D01*
X021642Y026597D01*
X021565Y026674D01*
X021181Y026674D02*
X021181Y026367D01*
X021258Y026213D02*
X021181Y026137D01*
X021181Y025983D01*
X021258Y025906D01*
X021335Y025906D01*
X021412Y025983D01*
X021412Y026213D01*
X021258Y026213D01*
X021412Y026213D02*
X021565Y026060D01*
X021642Y025906D01*
X021642Y027134D02*
X021181Y027134D01*
X025174Y026713D02*
X025174Y026406D01*
X025174Y026253D02*
X025250Y026253D01*
X025557Y025946D01*
X025634Y025946D01*
X025634Y026253D01*
X028945Y027519D02*
X028945Y027672D01*
X029022Y027749D01*
X028945Y027902D02*
X028945Y028209D01*
X029252Y027902D01*
X029329Y027902D01*
X029406Y027979D01*
X029406Y028132D01*
X029329Y028209D01*
X029329Y028363D02*
X029175Y028363D01*
X029099Y028439D01*
X029099Y028669D01*
X029099Y028516D02*
X028945Y028363D01*
X028945Y028669D02*
X029406Y028669D01*
X029406Y028439D01*
X029329Y028363D01*
X029329Y027749D02*
X029406Y027672D01*
X029406Y027519D01*
X029329Y027442D01*
X029252Y027442D01*
X029175Y027519D01*
X029099Y027442D01*
X029022Y027442D01*
X028945Y027519D01*
X029175Y027519D02*
X029175Y027595D01*
X035213Y026176D02*
X035213Y026023D01*
X035290Y025946D01*
X035366Y025946D01*
X035443Y026023D01*
X035443Y026099D01*
X035443Y026023D02*
X035520Y025946D01*
X035597Y025946D01*
X035673Y026023D01*
X035673Y026176D01*
X035597Y026253D01*
X035290Y026253D02*
X035213Y026176D01*
X036221Y026213D02*
X036221Y025906D01*
X036221Y026060D02*
X036681Y026060D01*
X036528Y026213D01*
X033992Y023141D02*
X033532Y023141D01*
X033685Y023141D02*
X033685Y022911D01*
X033762Y022834D01*
X033915Y022834D01*
X033992Y022911D01*
X033992Y023141D01*
X033685Y022987D02*
X033532Y022834D01*
X033609Y022680D02*
X033532Y022604D01*
X033532Y022450D01*
X033609Y022373D01*
X033685Y022373D01*
X033762Y022450D01*
X033762Y022527D01*
X033762Y022450D02*
X033839Y022373D01*
X033915Y022373D01*
X033992Y022450D01*
X033992Y022604D01*
X033915Y022680D01*
X033992Y022220D02*
X033992Y021913D01*
X033915Y021913D01*
X033609Y022220D01*
X033532Y022220D01*
X034639Y017328D02*
X034563Y017251D01*
X034563Y017174D01*
X034639Y017097D01*
X034793Y017097D01*
X034870Y017021D01*
X034870Y016944D01*
X034793Y016867D01*
X034639Y016867D01*
X034563Y016944D01*
X034870Y017251D02*
X034793Y017328D01*
X034639Y017328D01*
X035023Y017251D02*
X035023Y016944D01*
X035100Y016867D01*
X035253Y016867D01*
X035330Y016944D01*
X035483Y016867D02*
X035790Y016867D01*
X035483Y016867D02*
X035483Y017328D01*
X035330Y017251D02*
X035253Y017328D01*
X035100Y017328D01*
X035023Y017251D01*
X034984Y016343D02*
X035214Y016343D01*
X035291Y016267D01*
X035291Y015960D01*
X035214Y015883D01*
X034984Y015883D01*
X034984Y016343D01*
X034830Y016267D02*
X034754Y016343D01*
X034600Y016343D01*
X034523Y016267D01*
X034523Y016190D01*
X034600Y016113D01*
X034754Y016113D01*
X034830Y016036D01*
X034830Y015960D01*
X034754Y015883D01*
X034600Y015883D01*
X034523Y015960D01*
X034521Y015320D02*
X034445Y015243D01*
X034445Y014936D01*
X034521Y014859D01*
X034675Y014859D01*
X034751Y014936D01*
X034751Y015090D01*
X034598Y015090D01*
X034751Y015243D02*
X034675Y015320D01*
X034521Y015320D01*
X034905Y015320D02*
X035212Y014859D01*
X035212Y015320D01*
X035365Y015320D02*
X035365Y014859D01*
X035595Y014859D01*
X035672Y014936D01*
X035672Y015243D01*
X035595Y015320D01*
X035365Y015320D01*
X034905Y015320D02*
X034905Y014859D01*
X035444Y015883D02*
X035444Y016190D01*
X035597Y016343D01*
X035751Y016190D01*
X035751Y015883D01*
X035751Y016113D02*
X035444Y016113D01*
X032568Y013202D02*
X032261Y013202D01*
X032184Y013126D01*
X032184Y012972D01*
X032261Y012895D01*
X032414Y012895D01*
X032414Y013049D01*
X032568Y013202D02*
X032644Y013126D01*
X032644Y012972D01*
X032568Y012895D01*
X032644Y012742D02*
X032184Y012435D01*
X032644Y012435D01*
X032644Y012282D02*
X032184Y012282D01*
X032184Y012051D01*
X032261Y011975D01*
X032568Y011975D01*
X032644Y012051D01*
X032644Y012282D01*
X033168Y012315D02*
X033168Y012468D01*
X033245Y012545D01*
X033399Y012468D02*
X033399Y012238D01*
X033552Y012238D02*
X033629Y012315D01*
X033629Y012468D01*
X033552Y012545D01*
X033475Y012545D01*
X033399Y012468D01*
X033399Y012699D02*
X033399Y013005D01*
X033475Y013005D02*
X033629Y012852D01*
X033475Y012699D01*
X033168Y012699D01*
X033168Y013005D02*
X033475Y013005D01*
X034192Y012966D02*
X034192Y012736D01*
X034269Y012659D01*
X034576Y012659D01*
X034652Y012736D01*
X034652Y012966D01*
X034192Y012966D01*
X034422Y012506D02*
X034422Y012199D01*
X034269Y012045D02*
X034576Y011739D01*
X034269Y011739D01*
X034192Y011815D01*
X034192Y011969D01*
X034269Y012045D01*
X034576Y012045D01*
X034652Y011969D01*
X034652Y011815D01*
X034576Y011739D01*
X035176Y011739D02*
X035176Y012045D01*
X035483Y011739D01*
X035560Y011739D01*
X035637Y011815D01*
X035637Y011969D01*
X035560Y012045D01*
X035406Y012199D02*
X035406Y012506D01*
X035637Y012276D01*
X035176Y012276D01*
X035253Y012659D02*
X035560Y012659D01*
X035637Y012736D01*
X035637Y012966D01*
X035176Y012966D01*
X035176Y012736D01*
X035253Y012659D01*
X034652Y012276D02*
X034422Y012506D01*
X034192Y012276D02*
X034652Y012276D01*
X033552Y012238D02*
X033245Y012238D01*
X033168Y012315D01*
X032644Y012742D02*
X032184Y012742D01*
X030597Y012572D02*
X030137Y012266D01*
X030597Y012266D01*
X030520Y012112D02*
X030214Y012112D01*
X030137Y012035D01*
X030137Y011882D01*
X030214Y011805D01*
X030520Y011805D02*
X030597Y011882D01*
X030597Y012035D01*
X030520Y012112D01*
X030597Y012572D02*
X030137Y012572D01*
X029613Y012496D02*
X029613Y012342D01*
X029536Y012266D01*
X029536Y012112D02*
X029459Y012112D01*
X029383Y012035D01*
X029383Y011882D01*
X029306Y011805D01*
X029229Y011805D01*
X029153Y011882D01*
X029153Y012035D01*
X029229Y012112D01*
X029229Y012266D02*
X029153Y012342D01*
X029153Y012496D01*
X029229Y012572D01*
X029383Y012496D02*
X029383Y012342D01*
X029306Y012266D01*
X029229Y012266D01*
X029383Y012496D02*
X029459Y012572D01*
X029536Y012572D01*
X029613Y012496D01*
X029536Y012112D02*
X029613Y012035D01*
X029613Y011882D01*
X029536Y011805D01*
X028629Y011865D02*
X028629Y012018D01*
X028629Y011941D02*
X028168Y011941D01*
X028168Y011865D02*
X028168Y012018D01*
X028245Y012172D02*
X028168Y012248D01*
X028168Y012402D01*
X028245Y012478D01*
X028245Y012632D02*
X028552Y012632D01*
X028629Y012709D01*
X028629Y012862D01*
X028552Y012939D01*
X028245Y012939D01*
X028168Y012862D01*
X028168Y012709D01*
X028245Y012632D01*
X028475Y012478D02*
X028399Y012402D01*
X028399Y012248D01*
X028322Y012172D01*
X028245Y012172D01*
X028552Y012172D02*
X028629Y012248D01*
X028629Y012402D01*
X028552Y012478D01*
X028475Y012478D01*
X028629Y013092D02*
X028168Y013092D01*
X028168Y013399D02*
X028629Y013399D01*
X028475Y013246D01*
X028629Y013092D01*
X027644Y012927D02*
X027644Y012697D01*
X027568Y012620D01*
X027261Y012620D01*
X027184Y012697D01*
X027184Y012927D01*
X027644Y012927D01*
X027414Y012466D02*
X027414Y012159D01*
X027491Y012006D02*
X027414Y011929D01*
X027414Y011699D01*
X027261Y011699D02*
X027568Y011699D01*
X027644Y011776D01*
X027644Y011929D01*
X027568Y012006D01*
X027491Y012006D01*
X027261Y012006D02*
X027184Y011929D01*
X027184Y011776D01*
X027261Y011699D01*
X027184Y012236D02*
X027644Y012236D01*
X027414Y012466D01*
X025926Y011972D02*
X025619Y011972D01*
X025619Y012433D01*
X025465Y012279D02*
X025312Y012433D01*
X025158Y012279D01*
X025158Y011972D01*
X025005Y011972D02*
X024851Y011972D01*
X024928Y011972D02*
X024928Y012433D01*
X024851Y012433D02*
X025005Y012433D01*
X025158Y012203D02*
X025465Y012203D01*
X025465Y012279D02*
X025465Y011972D01*
X024698Y011972D02*
X024545Y012126D01*
X024621Y012126D02*
X024391Y012126D01*
X024391Y011972D02*
X024391Y012433D01*
X024621Y012433D01*
X024698Y012356D01*
X024698Y012203D01*
X024621Y012126D01*
X024238Y011972D02*
X023931Y011972D01*
X023931Y012433D01*
X024238Y012433D01*
X024084Y012203D02*
X023931Y012203D01*
X023777Y012126D02*
X023777Y012049D01*
X023701Y011972D01*
X023547Y011972D01*
X023470Y012049D01*
X023547Y012203D02*
X023701Y012203D01*
X023777Y012126D01*
X023777Y012356D02*
X023701Y012433D01*
X023547Y012433D01*
X023470Y012356D01*
X023470Y012279D01*
X023547Y012203D01*
X023757Y013156D02*
X024064Y013156D01*
X024141Y013233D01*
X024141Y013463D01*
X023680Y013463D01*
X023680Y013233D01*
X023757Y013156D01*
X023680Y013616D02*
X024141Y013616D01*
X024141Y013923D02*
X023680Y013923D01*
X023757Y014077D02*
X023910Y014077D01*
X023910Y014230D01*
X023757Y014077D02*
X023680Y014153D01*
X023680Y014307D01*
X023757Y014383D01*
X024064Y014383D01*
X024141Y014307D01*
X024141Y014153D01*
X024064Y014077D01*
X024141Y013923D02*
X023680Y013616D01*
X024704Y013693D02*
X024704Y013846D01*
X024780Y013923D01*
X024704Y014077D02*
X025011Y014077D01*
X025164Y014230D01*
X025011Y014383D01*
X024704Y014383D01*
X024934Y014383D02*
X024934Y014077D01*
X025087Y013923D02*
X025164Y013846D01*
X025164Y013693D01*
X025087Y013616D01*
X025011Y013616D01*
X024934Y013693D01*
X024857Y013616D01*
X024780Y013616D01*
X024704Y013693D01*
X024934Y013693D02*
X024934Y013770D01*
X025688Y013772D02*
X026148Y013772D01*
X025918Y014002D01*
X025918Y013695D01*
X025918Y014155D02*
X025918Y014462D01*
X025995Y014462D02*
X026148Y014309D01*
X025995Y014155D01*
X025688Y014155D01*
X025688Y014462D02*
X025995Y014462D01*
X026111Y016687D02*
X025804Y016687D01*
X025727Y016764D01*
X025727Y016917D01*
X025804Y016994D01*
X026111Y016687D01*
X026188Y016764D01*
X026188Y016917D01*
X026111Y016994D01*
X025804Y016994D01*
X025804Y017147D02*
X026111Y017147D01*
X026188Y017224D01*
X026188Y017454D01*
X025727Y017454D01*
X025727Y017224D01*
X025804Y017147D01*
X025164Y017224D02*
X025164Y017454D01*
X024704Y017454D01*
X024704Y017224D01*
X024780Y017147D01*
X025087Y017147D01*
X025164Y017224D01*
X025011Y016994D02*
X025164Y016841D01*
X024704Y016841D01*
X024704Y016994D02*
X024704Y016687D01*
X024810Y017799D02*
X024964Y017799D01*
X025040Y017876D01*
X025040Y018260D01*
X025194Y018260D02*
X025501Y018260D01*
X025347Y018260D02*
X025347Y017799D01*
X024810Y017799D02*
X024733Y017876D01*
X024733Y018260D01*
X024580Y018183D02*
X024503Y018260D01*
X024350Y018260D01*
X024273Y018183D01*
X024273Y017876D01*
X024350Y017799D01*
X024503Y017799D01*
X024580Y017876D01*
X024580Y018183D01*
X024120Y018029D02*
X023813Y018029D01*
X023659Y018029D02*
X023352Y018029D01*
X023352Y018106D02*
X023506Y018260D01*
X023659Y018106D01*
X023659Y017799D01*
X023352Y017799D02*
X023352Y018106D01*
X028746Y017173D02*
X028976Y017173D01*
X029130Y017019D01*
X029206Y017019D01*
X028976Y016866D02*
X028976Y016559D01*
X028823Y016712D02*
X029130Y016712D01*
X028976Y017173D02*
X029130Y017326D01*
X029206Y017326D01*
X030675Y017405D02*
X031135Y017098D01*
X030905Y016945D02*
X030905Y016638D01*
X030752Y016791D02*
X031059Y016791D01*
X030675Y017098D02*
X031135Y017405D01*
X036239Y013005D02*
X036546Y013005D01*
X036700Y012852D01*
X036546Y012699D01*
X036239Y012699D01*
X036239Y012545D02*
X036239Y012238D01*
X036239Y012085D02*
X036239Y011778D01*
X036239Y011931D02*
X036700Y011931D01*
X036546Y012085D01*
X036700Y012392D02*
X036239Y012392D01*
X036546Y012545D02*
X036700Y012392D01*
X036469Y012699D02*
X036469Y013005D01*
X036430Y009423D02*
X036430Y009116D01*
X036507Y009116D02*
X036200Y009116D01*
X036200Y008962D02*
X036200Y008656D01*
X036200Y008809D02*
X036660Y008809D01*
X036507Y008962D01*
X036507Y009116D02*
X036660Y009269D01*
X036507Y009423D01*
X036200Y009423D01*
X035637Y009423D02*
X035637Y009193D01*
X035560Y009116D01*
X035253Y009116D01*
X035176Y009193D01*
X035176Y009423D01*
X035637Y009423D01*
X035406Y008962D02*
X035406Y008656D01*
X035406Y008502D02*
X035406Y008195D01*
X035176Y008272D02*
X035637Y008272D01*
X035406Y008502D01*
X035176Y008732D02*
X035637Y008732D01*
X035406Y008962D01*
X034652Y008809D02*
X034192Y008809D01*
X034192Y008962D02*
X034192Y008656D01*
X034269Y008502D02*
X034576Y008195D01*
X034269Y008195D01*
X034192Y008272D01*
X034192Y008425D01*
X034269Y008502D01*
X034576Y008502D01*
X034652Y008425D01*
X034652Y008272D01*
X034576Y008195D01*
X034652Y008809D02*
X034499Y008962D01*
X034499Y009116D02*
X034192Y009116D01*
X034422Y009116D02*
X034422Y009423D01*
X034499Y009423D02*
X034192Y009423D01*
X034499Y009423D02*
X034652Y009269D01*
X034499Y009116D01*
X033668Y009269D02*
X033515Y009116D01*
X033208Y009116D01*
X033284Y008962D02*
X033208Y008886D01*
X033208Y008732D01*
X033284Y008656D01*
X033438Y008656D01*
X033515Y008732D01*
X033515Y008809D01*
X033438Y008962D01*
X033668Y008962D01*
X033668Y008656D01*
X033438Y009116D02*
X033438Y009423D01*
X033515Y009423D02*
X033668Y009269D01*
X033515Y009423D02*
X033208Y009423D01*
X032644Y009423D02*
X032338Y009423D01*
X032184Y009269D01*
X032338Y009116D01*
X032644Y009116D01*
X032568Y008962D02*
X032261Y008962D01*
X032184Y008886D01*
X032184Y008732D01*
X032261Y008656D01*
X032261Y008502D02*
X032184Y008425D01*
X032184Y008272D01*
X032261Y008195D01*
X032568Y008195D02*
X032644Y008272D01*
X032644Y008425D01*
X032568Y008502D01*
X032261Y008502D01*
X032568Y008656D02*
X032644Y008732D01*
X032644Y008886D01*
X032568Y008962D01*
X032473Y007573D02*
X032473Y007113D01*
X032626Y007113D02*
X032319Y007113D01*
X032166Y007189D02*
X032089Y007113D01*
X031936Y007113D01*
X031859Y007189D01*
X031706Y007113D02*
X031552Y007266D01*
X031629Y007266D02*
X031399Y007266D01*
X031399Y007113D02*
X031399Y007573D01*
X031629Y007573D01*
X031706Y007496D01*
X031706Y007343D01*
X031629Y007266D01*
X031859Y007496D02*
X031936Y007573D01*
X032089Y007573D01*
X032166Y007496D01*
X032166Y007419D01*
X032089Y007343D01*
X032166Y007266D01*
X032166Y007189D01*
X032089Y007343D02*
X032013Y007343D01*
X032319Y007419D02*
X032473Y007573D01*
X033859Y007573D02*
X033859Y007113D01*
X033859Y007266D02*
X034090Y007266D01*
X034166Y007343D01*
X034166Y007496D01*
X034090Y007573D01*
X033859Y007573D01*
X034013Y007266D02*
X034166Y007113D01*
X034320Y007189D02*
X034396Y007113D01*
X034550Y007113D01*
X034627Y007189D01*
X034627Y007266D01*
X034550Y007343D01*
X034473Y007343D01*
X034550Y007343D02*
X034627Y007419D01*
X034627Y007496D01*
X034550Y007573D01*
X034396Y007573D01*
X034320Y007496D01*
X034780Y007343D02*
X035087Y007343D01*
X035010Y007113D02*
X035010Y007573D01*
X034780Y007343D01*
X036200Y008195D02*
X036200Y008502D01*
X036507Y008195D01*
X036583Y008195D01*
X036660Y008272D01*
X036660Y008425D01*
X036583Y008502D01*
X035050Y005573D02*
X034896Y005573D01*
X034819Y005496D01*
X034666Y005496D02*
X034666Y005419D01*
X034589Y005343D01*
X034666Y005266D01*
X034666Y005189D01*
X034589Y005113D01*
X034436Y005113D01*
X034359Y005189D01*
X034206Y005113D02*
X034052Y005266D01*
X034129Y005266D02*
X033899Y005266D01*
X033899Y005113D02*
X033899Y005573D01*
X034129Y005573D01*
X034206Y005496D01*
X034206Y005343D01*
X034129Y005266D01*
X034359Y005496D02*
X034436Y005573D01*
X034589Y005573D01*
X034666Y005496D01*
X034589Y005343D02*
X034513Y005343D01*
X034819Y005189D02*
X034896Y005113D01*
X035050Y005113D01*
X035126Y005189D01*
X035126Y005266D01*
X035050Y005343D01*
X034973Y005343D01*
X035050Y005343D02*
X035126Y005419D01*
X035126Y005496D01*
X035050Y005573D01*
X032548Y005536D02*
X032471Y005612D01*
X032317Y005612D01*
X032241Y005536D01*
X032087Y005536D02*
X032087Y005459D01*
X032011Y005382D01*
X032087Y005305D01*
X032087Y005229D01*
X032011Y005152D01*
X031857Y005152D01*
X031780Y005229D01*
X031627Y005152D02*
X031473Y005305D01*
X031550Y005305D02*
X031320Y005305D01*
X031320Y005152D02*
X031320Y005612D01*
X031550Y005612D01*
X031627Y005536D01*
X031627Y005382D01*
X031550Y005305D01*
X031780Y005536D02*
X031857Y005612D01*
X032011Y005612D01*
X032087Y005536D01*
X032011Y005382D02*
X031934Y005382D01*
X032241Y005152D02*
X032548Y005459D01*
X032548Y005536D01*
X032548Y005152D02*
X032241Y005152D01*
X029548Y005189D02*
X029471Y005113D01*
X029317Y005113D01*
X029241Y005189D01*
X029548Y005496D01*
X029548Y005189D01*
X029548Y005496D02*
X029471Y005573D01*
X029317Y005573D01*
X029241Y005496D01*
X029241Y005189D01*
X029087Y005189D02*
X029011Y005113D01*
X028857Y005113D01*
X028780Y005189D01*
X028627Y005113D02*
X028473Y005266D01*
X028550Y005266D02*
X028320Y005266D01*
X028320Y005113D02*
X028320Y005573D01*
X028550Y005573D01*
X028627Y005496D01*
X028627Y005343D01*
X028550Y005266D01*
X028780Y005496D02*
X028857Y005573D01*
X029011Y005573D01*
X029087Y005496D01*
X029087Y005419D01*
X029011Y005343D01*
X029087Y005266D01*
X029087Y005189D01*
X029011Y005343D02*
X028934Y005343D01*
X028820Y007113D02*
X029127Y007419D01*
X029127Y007496D01*
X029050Y007573D01*
X028896Y007573D01*
X028820Y007496D01*
X028666Y007496D02*
X028666Y007343D01*
X028590Y007266D01*
X028359Y007266D01*
X028359Y007113D02*
X028359Y007573D01*
X028590Y007573D01*
X028666Y007496D01*
X028513Y007266D02*
X028666Y007113D01*
X028820Y007113D02*
X029127Y007113D01*
X029280Y007189D02*
X029357Y007113D01*
X029510Y007113D01*
X029587Y007189D01*
X029587Y007496D01*
X029510Y007573D01*
X029357Y007573D01*
X029280Y007496D01*
X029280Y007419D01*
X029357Y007343D01*
X029587Y007343D01*
X029692Y008156D02*
X029385Y008463D01*
X029461Y008386D02*
X029231Y008156D01*
X029231Y008463D02*
X029692Y008463D01*
X029615Y008616D02*
X029692Y008693D01*
X029692Y008846D01*
X029615Y008923D01*
X029308Y008923D01*
X029231Y008846D01*
X029231Y008693D01*
X029308Y008616D01*
X029308Y009077D02*
X029231Y009153D01*
X029231Y009307D01*
X029308Y009383D01*
X029461Y009307D02*
X029461Y009153D01*
X029385Y009077D01*
X029308Y009077D01*
X029461Y009307D02*
X029538Y009383D01*
X029615Y009383D01*
X029692Y009307D01*
X029692Y009153D01*
X029615Y009077D01*
X030255Y009153D02*
X030332Y009077D01*
X030485Y009077D01*
X030485Y009230D01*
X030332Y009383D02*
X030255Y009307D01*
X030255Y009153D01*
X030255Y008923D02*
X030715Y008923D01*
X030255Y008616D01*
X030715Y008616D01*
X030715Y008463D02*
X030715Y008233D01*
X030639Y008156D01*
X030332Y008156D01*
X030255Y008233D01*
X030255Y008463D01*
X030715Y008463D01*
X030639Y009077D02*
X030715Y009153D01*
X030715Y009307D01*
X030639Y009383D01*
X030332Y009383D01*
X028668Y009383D02*
X028515Y009230D01*
X028668Y009077D01*
X028208Y009077D01*
X028208Y008923D02*
X028208Y008770D01*
X028208Y008846D02*
X028668Y008846D01*
X028668Y008770D02*
X028668Y008923D01*
X028591Y008616D02*
X028515Y008616D01*
X028438Y008539D01*
X028438Y008386D01*
X028361Y008309D01*
X028284Y008309D01*
X028208Y008386D01*
X028208Y008539D01*
X028284Y008616D01*
X028591Y008616D02*
X028668Y008539D01*
X028668Y008386D01*
X028591Y008309D01*
X028591Y008156D02*
X028284Y008156D01*
X028208Y008079D01*
X028208Y007926D01*
X028284Y007849D01*
X028591Y007849D01*
X028668Y007926D01*
X028668Y008079D01*
X028591Y008156D01*
X027605Y008233D02*
X027528Y008156D01*
X027605Y008233D02*
X027605Y008386D01*
X027528Y008463D01*
X027221Y008463D01*
X027145Y008386D01*
X027145Y008233D01*
X027221Y008156D01*
X027221Y008616D02*
X027145Y008693D01*
X027145Y008846D01*
X027221Y008923D01*
X027528Y008923D01*
X027605Y008846D01*
X027605Y008693D01*
X027528Y008616D01*
X027605Y009077D02*
X027298Y009077D01*
X027145Y009230D01*
X027298Y009383D01*
X027605Y009383D01*
X028208Y009383D02*
X028668Y009383D01*
X019770Y006235D02*
X019309Y006235D01*
X019309Y006542D01*
X019540Y006389D02*
X019540Y006235D01*
X019463Y006082D02*
X019770Y006082D01*
X019770Y005852D01*
X019693Y005775D01*
X019463Y005775D01*
X019386Y005622D02*
X019693Y005315D01*
X019770Y005391D01*
X019770Y005545D01*
X019693Y005622D01*
X019386Y005622D01*
X019309Y005545D01*
X019309Y005391D01*
X019386Y005315D01*
X019693Y005315D01*
X019770Y005161D02*
X019770Y004854D01*
X019770Y005008D02*
X019309Y005008D01*
X019463Y004854D01*
X017770Y005246D02*
X017693Y005169D01*
X017386Y005169D01*
X017309Y005246D01*
X017309Y005399D01*
X017386Y005476D01*
X017309Y005630D02*
X017540Y005630D01*
X017463Y005783D01*
X017463Y005860D01*
X017540Y005937D01*
X017693Y005937D01*
X017770Y005860D01*
X017770Y005706D01*
X017693Y005630D01*
X017693Y005476D02*
X017770Y005399D01*
X017770Y005246D01*
X017309Y005630D02*
X017309Y005937D01*
X016217Y006605D02*
X015910Y006605D01*
X016217Y006912D01*
X016217Y006989D01*
X016140Y007065D01*
X015987Y007065D01*
X015910Y006989D01*
X015757Y006989D02*
X015680Y007065D01*
X015526Y007065D01*
X015450Y006989D01*
X015450Y006682D01*
X015526Y006605D01*
X015680Y006605D01*
X015757Y006682D01*
X015296Y006605D02*
X015143Y006605D01*
X015220Y006605D02*
X015220Y007065D01*
X015296Y007065D02*
X015143Y007065D01*
X012316Y007921D02*
X012009Y007614D01*
X012009Y007537D01*
X011856Y007614D02*
X011779Y007537D01*
X011626Y007537D01*
X011549Y007614D01*
X011549Y007921D01*
X011626Y007998D01*
X011779Y007998D01*
X011856Y007921D01*
X012009Y007998D02*
X012316Y007998D01*
X012316Y007921D01*
X011321Y006538D02*
X010861Y006538D01*
X010861Y006845D01*
X011091Y006692D02*
X011091Y006538D01*
X011014Y006385D02*
X011321Y006385D01*
X011321Y006154D01*
X011245Y006078D01*
X011014Y006078D01*
X010938Y005924D02*
X011245Y005617D01*
X011321Y005694D01*
X011321Y005848D01*
X011245Y005924D01*
X010938Y005924D01*
X010861Y005848D01*
X010861Y005694D01*
X010938Y005617D01*
X011245Y005617D01*
X011321Y005464D02*
X011321Y005157D01*
X011321Y005311D02*
X010861Y005311D01*
X011014Y005157D01*
X009282Y005549D02*
X009282Y005702D01*
X009205Y005779D01*
X009282Y005932D02*
X009282Y006239D01*
X009282Y006086D02*
X008822Y006086D01*
X008975Y005932D01*
X008898Y005779D02*
X008822Y005702D01*
X008822Y005549D01*
X008898Y005472D01*
X009205Y005472D01*
X009282Y005549D01*
X012375Y003519D02*
X012375Y003059D01*
X012375Y003212D02*
X012606Y003212D01*
X012682Y003289D01*
X012682Y003443D01*
X012606Y003519D01*
X012375Y003519D01*
X012529Y003212D02*
X012682Y003059D01*
X012836Y003289D02*
X013143Y003289D01*
X013296Y003366D02*
X013450Y003519D01*
X013450Y003059D01*
X013603Y003059D02*
X013296Y003059D01*
X013066Y003059D02*
X013066Y003519D01*
X012836Y003289D01*
X012888Y002023D02*
X012964Y001947D01*
X012964Y001640D01*
X012888Y001563D01*
X012734Y001563D01*
X012658Y001640D01*
X012658Y001947D01*
X012734Y002023D01*
X012888Y002023D01*
X013118Y002023D02*
X013118Y001563D01*
X013271Y001716D01*
X013425Y001563D01*
X013425Y002023D01*
X013578Y002023D02*
X013578Y001563D01*
X013885Y001563D01*
X014039Y001563D02*
X014039Y002023D01*
X014269Y002023D01*
X014346Y001947D01*
X014346Y001793D01*
X014269Y001716D01*
X014039Y001716D01*
X014192Y001716D02*
X014346Y001563D01*
X013885Y002023D02*
X013578Y002023D01*
X013578Y001793D02*
X013732Y001793D01*
X012504Y001793D02*
X012427Y001716D01*
X012197Y001716D01*
X012197Y001563D02*
X012197Y002023D01*
X012427Y002023D01*
X012504Y001947D01*
X012504Y001793D01*
X013679Y023513D02*
X013679Y023973D01*
X013910Y023973D01*
X013986Y023896D01*
X013986Y023743D01*
X013910Y023666D01*
X013679Y023666D01*
X013833Y023666D02*
X013986Y023513D01*
X014140Y023589D02*
X014216Y023513D01*
X014370Y023513D01*
X014447Y023589D01*
X014447Y023666D01*
X014370Y023743D01*
X014293Y023743D01*
X014370Y023743D02*
X014447Y023819D01*
X014447Y023896D01*
X014370Y023973D01*
X014216Y023973D01*
X014140Y023896D01*
X014600Y023743D02*
X014830Y023743D01*
X014907Y023666D01*
X014907Y023589D01*
X014830Y023513D01*
X014677Y023513D01*
X014600Y023589D01*
X014600Y023743D01*
X014754Y023896D01*
X014907Y023973D01*
X015018Y023989D02*
X015248Y023989D01*
X015325Y023912D01*
X015325Y023759D01*
X015248Y023682D01*
X015018Y023682D01*
X015171Y023682D02*
X015325Y023528D01*
X015478Y023605D02*
X015555Y023528D01*
X015709Y023528D01*
X015785Y023605D01*
X015785Y023682D01*
X015709Y023759D01*
X015632Y023759D01*
X015709Y023759D02*
X015785Y023835D01*
X015785Y023912D01*
X015709Y023989D01*
X015555Y023989D01*
X015478Y023912D01*
X015018Y023989D02*
X015018Y023528D01*
X015939Y023605D02*
X016015Y023528D01*
X016169Y023528D01*
X016246Y023605D01*
X016246Y023759D01*
X016169Y023835D01*
X016092Y023835D01*
X015939Y023759D01*
X015939Y023989D01*
X016246Y023989D01*
X013264Y025477D02*
X012958Y025477D01*
X013264Y025784D01*
X013264Y025860D01*
X013188Y025937D01*
X013034Y025937D01*
X012958Y025860D01*
X012804Y025860D02*
X012804Y025707D01*
X012727Y025630D01*
X012497Y025630D01*
X012497Y025477D02*
X012497Y025937D01*
X012727Y025937D01*
X012804Y025860D01*
X012651Y025630D02*
X012804Y025477D01*
X012792Y026841D02*
X012639Y026994D01*
X012716Y026994D02*
X012485Y026994D01*
X012485Y026841D02*
X012485Y027301D01*
X012716Y027301D01*
X012792Y027225D01*
X012792Y027071D01*
X012716Y026994D01*
X012946Y026918D02*
X013022Y026841D01*
X013176Y026841D01*
X013253Y026918D01*
X013253Y027225D01*
X013176Y027301D01*
X013022Y027301D01*
X012946Y027225D01*
X012946Y027148D01*
X013022Y027071D01*
X013253Y027071D01*
X009401Y025359D02*
X009401Y025052D01*
X009401Y025205D02*
X008941Y025205D01*
X009094Y025052D01*
X009171Y024898D02*
X009247Y024821D01*
X009247Y024591D01*
X009247Y024745D02*
X009401Y024898D01*
X009171Y024898D02*
X009017Y024898D01*
X008941Y024821D01*
X008941Y024591D01*
X009401Y024591D01*
X007377Y025145D02*
X007300Y025069D01*
X007147Y025069D01*
X007070Y025145D01*
X007070Y025299D01*
X007300Y025299D01*
X007377Y025222D01*
X007377Y025145D01*
X007223Y025452D02*
X007070Y025299D01*
X006916Y025299D02*
X006840Y025222D01*
X006609Y025222D01*
X006609Y025069D02*
X006609Y025529D01*
X006840Y025529D01*
X006916Y025452D01*
X006916Y025299D01*
X006763Y025222D02*
X006916Y025069D01*
X007223Y025452D02*
X007377Y025529D01*
X006164Y026718D02*
X006164Y026795D01*
X006471Y027102D01*
X006471Y027178D01*
X006164Y027178D01*
X006011Y027102D02*
X006011Y026948D01*
X005934Y026872D01*
X005704Y026872D01*
X005857Y026872D02*
X006011Y026718D01*
X005704Y026718D02*
X005704Y027178D01*
X005934Y027178D01*
X006011Y027102D01*
X006413Y028368D02*
X006413Y028828D01*
X006643Y028828D01*
X006720Y028751D01*
X006720Y028598D01*
X006643Y028521D01*
X006413Y028521D01*
X006566Y028521D02*
X006720Y028368D01*
X006873Y028598D02*
X007180Y028598D01*
X007103Y028368D02*
X007103Y028828D01*
X006873Y028598D01*
X006454Y029689D02*
X006301Y029689D01*
X006224Y029766D01*
X006071Y029689D02*
X005917Y029842D01*
X005994Y029842D02*
X005764Y029842D01*
X005764Y029689D02*
X005764Y030149D01*
X005994Y030149D01*
X006071Y030073D01*
X006071Y029919D01*
X005994Y029842D01*
X006224Y030073D02*
X006301Y030149D01*
X006454Y030149D01*
X006531Y030073D01*
X006531Y029996D01*
X006454Y029919D01*
X006531Y029842D01*
X006531Y029766D01*
X006454Y029689D01*
X006454Y029919D02*
X006377Y029919D01*
X002667Y029785D02*
X002667Y029632D01*
X002590Y029555D01*
X002590Y029401D02*
X002514Y029401D01*
X002437Y029325D01*
X002437Y029171D01*
X002360Y029095D01*
X002283Y029095D01*
X002207Y029171D01*
X002207Y029325D01*
X002283Y029401D01*
X002283Y029555D02*
X002207Y029632D01*
X002207Y029785D01*
X002283Y029862D01*
X002207Y030015D02*
X002360Y030169D01*
X002360Y030092D02*
X002360Y030322D01*
X002207Y030322D02*
X002667Y030322D01*
X002667Y030092D01*
X002590Y030015D01*
X002437Y030015D01*
X002360Y030092D01*
X002514Y029862D02*
X002437Y029785D01*
X002437Y029632D01*
X002360Y029555D01*
X002283Y029555D01*
X002590Y029401D02*
X002667Y029325D01*
X002667Y029171D01*
X002590Y029095D01*
X002667Y028941D02*
X002667Y028788D01*
X002667Y028864D02*
X002207Y028864D01*
X002207Y028788D02*
X002207Y028941D01*
X002226Y028322D02*
X002687Y028322D01*
X002687Y028092D01*
X002610Y028015D01*
X002456Y028015D01*
X002380Y028092D01*
X002380Y028322D01*
X002380Y028169D02*
X002226Y028015D01*
X002226Y027862D02*
X002687Y027555D01*
X002687Y027862D02*
X002226Y027555D01*
X002683Y026511D02*
X002683Y026204D01*
X002683Y026051D02*
X002222Y025744D01*
X002222Y026051D02*
X002683Y025744D01*
X002679Y025204D02*
X002218Y025204D01*
X002372Y025204D02*
X002372Y024974D01*
X002449Y024897D01*
X002602Y024897D01*
X002679Y024974D01*
X002679Y025204D01*
X002679Y024744D02*
X002218Y024744D01*
X002372Y024590D01*
X002218Y024437D01*
X002679Y024437D01*
X002679Y024283D02*
X002679Y024053D01*
X002602Y023976D01*
X002449Y023976D01*
X002372Y024053D01*
X002372Y024283D01*
X002372Y024130D02*
X002218Y023976D01*
X002218Y024283D02*
X002679Y024283D01*
X002683Y026358D02*
X002222Y026358D01*
X002667Y029785D02*
X002590Y029862D01*
X002514Y029862D01*
D14*
X008649Y029699D02*
X008649Y029248D01*
X008949Y029248D01*
X009109Y029248D02*
X009109Y029699D01*
X009259Y029549D01*
X009409Y029699D01*
X009409Y029248D01*
X009569Y029398D02*
X009719Y029248D01*
X009870Y029398D01*
X009870Y029699D01*
X010030Y029624D02*
X010105Y029699D01*
X010255Y029699D01*
X010330Y029624D01*
X010330Y029549D01*
X010255Y029473D01*
X010330Y029398D01*
X010330Y029323D01*
X010255Y029248D01*
X010105Y029248D01*
X010030Y029323D01*
X010180Y029473D02*
X010255Y029473D01*
X010490Y029473D02*
X010640Y029549D01*
X010715Y029549D01*
X010790Y029473D01*
X010790Y029323D01*
X010715Y029248D01*
X010565Y029248D01*
X010490Y029323D01*
X010490Y029473D02*
X010490Y029699D01*
X010790Y029699D01*
X010950Y029624D02*
X010950Y029549D01*
X011025Y029473D01*
X011176Y029473D01*
X011251Y029398D01*
X011251Y029323D01*
X011176Y029248D01*
X011025Y029248D01*
X010950Y029323D01*
X010950Y029398D01*
X011025Y029473D01*
X011176Y029473D02*
X011251Y029549D01*
X011251Y029624D01*
X011176Y029699D01*
X011025Y029699D01*
X010950Y029624D01*
X011411Y029699D02*
X011411Y029248D01*
X011711Y029248D02*
X011711Y029699D01*
X011561Y029549D01*
X011411Y029699D01*
X011871Y029699D02*
X011871Y029248D01*
X012171Y029248D02*
X012171Y029699D01*
X012021Y029549D01*
X011871Y029699D01*
X012331Y029699D02*
X012632Y029248D01*
X012331Y029248D02*
X012632Y029699D01*
X014327Y029648D02*
X014777Y029648D01*
X014777Y029498D02*
X014777Y029798D01*
X014477Y029498D02*
X014327Y029648D01*
X014402Y029338D02*
X014552Y029338D01*
X014627Y029263D01*
X014627Y029038D01*
X014777Y029038D02*
X014327Y029038D01*
X014327Y029263D01*
X014402Y029338D01*
X014327Y028878D02*
X014327Y028728D01*
X014327Y028803D02*
X014702Y028803D01*
X014777Y028728D01*
X014777Y028652D01*
X014702Y028577D01*
X016137Y029091D02*
X016251Y028977D01*
X016311Y029038D02*
X016311Y029263D01*
X016386Y029338D01*
X016536Y029338D01*
X016611Y029263D01*
X016611Y029038D01*
X016477Y029091D02*
X016137Y029091D01*
X016311Y029038D02*
X016762Y029038D01*
X016687Y028803D02*
X016311Y028803D01*
X016311Y028728D02*
X016311Y028878D01*
X016477Y028977D02*
X016477Y029204D01*
X016386Y029498D02*
X016311Y029573D01*
X016311Y029723D01*
X016386Y029798D01*
X016461Y029798D01*
X016536Y029723D01*
X016611Y029798D01*
X016687Y029798D01*
X016762Y029723D01*
X016762Y029573D01*
X016687Y029498D01*
X016536Y029648D02*
X016536Y029723D01*
X016477Y029977D02*
X016251Y030204D01*
X016194Y030204D01*
X016137Y030148D01*
X016137Y030034D01*
X016194Y029977D01*
X016477Y029977D02*
X016477Y030204D01*
X016421Y030977D02*
X016477Y031034D01*
X016477Y031148D01*
X016421Y031204D01*
X016364Y031204D01*
X016307Y031148D01*
X016307Y031091D01*
X016307Y031148D02*
X016251Y031204D01*
X016194Y031204D01*
X016137Y031148D01*
X016137Y031034D01*
X016194Y030977D01*
X018121Y031034D02*
X018178Y030977D01*
X018121Y031034D02*
X018121Y031148D01*
X018178Y031204D01*
X018235Y031204D01*
X018291Y031148D01*
X018348Y031204D01*
X018405Y031204D01*
X018462Y031148D01*
X018462Y031034D01*
X018405Y030977D01*
X018291Y031091D02*
X018291Y031148D01*
X018235Y030204D02*
X018178Y030204D01*
X018121Y030148D01*
X018121Y030034D01*
X018178Y029977D01*
X018235Y030204D02*
X018462Y029977D01*
X018462Y030204D01*
X018462Y029204D02*
X018462Y028977D01*
X018462Y029091D02*
X018121Y029091D01*
X018235Y028977D01*
X016762Y028728D02*
X016762Y028652D01*
X016687Y028577D01*
X016762Y028728D02*
X016687Y028803D01*
X014871Y026823D02*
X014871Y026373D01*
X014721Y026373D02*
X015021Y026373D01*
X014721Y026673D02*
X014871Y026823D01*
X014561Y026748D02*
X014561Y026448D01*
X014486Y026373D01*
X014336Y026373D01*
X014261Y026448D01*
X014261Y026748D01*
X014336Y026823D01*
X014486Y026823D01*
X014561Y026748D01*
X014411Y026523D02*
X014561Y026373D01*
X014343Y024974D02*
X014185Y024974D01*
X014405Y024424D02*
X016055Y024424D01*
X016117Y024974D02*
X016275Y024974D01*
X015343Y024974D02*
X015117Y024974D01*
X014405Y024424D02*
X014370Y024472D01*
X014337Y024522D01*
X014306Y024574D01*
X014279Y024628D01*
X014255Y024683D01*
X014235Y024740D01*
X014217Y024797D01*
X014203Y024855D01*
X014192Y024914D01*
X014185Y024974D01*
X015540Y026077D02*
X015600Y026057D01*
X015659Y026033D01*
X015716Y026005D01*
X015771Y025974D01*
X015825Y025939D01*
X015876Y025902D01*
X015925Y025861D01*
X015971Y025817D01*
X016015Y025771D01*
X016056Y025722D01*
X016094Y025671D01*
X016128Y025618D01*
X016160Y025562D01*
X016187Y025505D01*
X016212Y025446D01*
X016232Y025386D01*
X016250Y025325D01*
X016263Y025263D01*
X016272Y025200D01*
X016278Y025137D01*
X016280Y025073D01*
X016278Y025009D01*
X016272Y024946D01*
X016263Y024883D01*
X016249Y024821D01*
X016232Y024760D01*
X016211Y024700D01*
X016187Y024641D01*
X016159Y024584D01*
X016127Y024528D01*
X016092Y024475D01*
X016055Y024424D01*
X016901Y024241D02*
X016901Y023631D01*
X016901Y023834D02*
X017206Y023834D01*
X017308Y023936D01*
X017308Y024140D01*
X017206Y024241D01*
X016901Y024241D01*
X017508Y023936D02*
X017508Y023733D01*
X017610Y023631D01*
X017814Y023631D01*
X017915Y023733D01*
X017915Y023936D01*
X017814Y024038D01*
X017610Y024038D01*
X017508Y023936D01*
X018105Y024196D02*
X018256Y024046D01*
X018218Y024241D02*
X018218Y023631D01*
X018116Y023631D02*
X018320Y023631D01*
X018521Y023733D02*
X018623Y023834D01*
X018928Y023834D01*
X018928Y023936D02*
X018928Y023631D01*
X018623Y023631D01*
X018521Y023733D01*
X018556Y024046D02*
X018556Y024347D01*
X018556Y024196D02*
X018105Y024196D01*
X018116Y024241D02*
X018218Y024241D01*
X018623Y024038D02*
X018826Y024038D01*
X018928Y023936D01*
X019129Y023834D02*
X019332Y024038D01*
X019434Y024038D01*
X019556Y024046D02*
X019556Y024347D01*
X019556Y024196D02*
X019105Y024196D01*
X019256Y024046D01*
X019129Y024038D02*
X019129Y023631D01*
X018988Y023211D02*
X019293Y023211D01*
X019395Y023109D01*
X019395Y022906D01*
X019293Y022804D01*
X018988Y022804D01*
X018786Y022804D02*
X018786Y022906D01*
X018684Y022906D01*
X018684Y022804D01*
X018786Y022804D01*
X018988Y022601D02*
X018988Y023211D01*
X019596Y023109D02*
X019596Y022906D01*
X019698Y022804D01*
X019901Y022804D01*
X020003Y022906D01*
X020003Y023109D01*
X019901Y023211D01*
X019698Y023211D01*
X019596Y023109D01*
X019635Y023631D02*
X019941Y023631D01*
X020042Y023733D01*
X019941Y023834D01*
X019737Y023834D01*
X019635Y023936D01*
X019737Y024038D01*
X020042Y024038D01*
X020243Y023936D02*
X020345Y024038D01*
X020548Y024038D01*
X020650Y023936D01*
X020650Y023631D01*
X020851Y023631D02*
X021054Y023631D01*
X020952Y023631D02*
X020952Y024038D01*
X020851Y024038D01*
X020952Y024241D02*
X020952Y024343D01*
X021358Y024038D02*
X021561Y024038D01*
X021663Y023936D01*
X021663Y023834D01*
X021256Y023834D01*
X021256Y023733D02*
X021256Y023936D01*
X021358Y024038D01*
X021256Y023733D02*
X021358Y023631D01*
X021561Y023631D01*
X021864Y023631D02*
X022067Y023631D01*
X021965Y023631D02*
X021965Y024241D01*
X021864Y024241D01*
X022269Y023936D02*
X022370Y024038D01*
X022676Y024038D01*
X022676Y024241D02*
X022676Y023631D01*
X022370Y023631D01*
X022269Y023733D01*
X022269Y023936D01*
X022331Y023211D02*
X022331Y022804D01*
X022130Y022804D02*
X021825Y022804D01*
X021723Y022906D01*
X021723Y023109D01*
X021825Y023211D01*
X022130Y023211D01*
X022130Y022702D01*
X022028Y022601D01*
X021926Y022601D01*
X021825Y022509D02*
X021723Y022407D01*
X021723Y022306D01*
X021825Y022204D01*
X022130Y022204D01*
X022130Y022407D02*
X022028Y022509D01*
X021825Y022509D01*
X021522Y022407D02*
X021115Y022000D01*
X021217Y021899D01*
X021420Y021899D01*
X021522Y022000D01*
X021522Y022407D01*
X021420Y022509D01*
X021217Y022509D01*
X021115Y022407D01*
X021115Y022000D01*
X020913Y022000D02*
X020913Y021899D01*
X020811Y021899D01*
X020811Y022000D01*
X020913Y022000D01*
X020611Y022000D02*
X020611Y022204D01*
X020509Y022306D01*
X020407Y022306D01*
X020204Y022204D01*
X020204Y022509D01*
X020611Y022509D01*
X020711Y022804D02*
X020609Y022906D01*
X020711Y023008D01*
X021016Y023008D01*
X021016Y023109D02*
X021016Y022804D01*
X020711Y022804D01*
X020407Y022804D02*
X020204Y022804D01*
X020305Y022804D02*
X020305Y023415D01*
X020204Y023415D01*
X020243Y023631D02*
X020243Y024241D01*
X020711Y023211D02*
X020914Y023211D01*
X021016Y023109D01*
X021216Y023008D02*
X021420Y023211D01*
X021522Y023211D01*
X021216Y023211D02*
X021216Y022804D01*
X021723Y022000D02*
X021825Y021899D01*
X022028Y021899D01*
X022130Y022000D01*
X022130Y022407D01*
X022331Y023008D02*
X022534Y023211D01*
X022636Y023211D01*
X022939Y023211D02*
X023142Y023211D01*
X023244Y023109D01*
X023244Y022804D01*
X022939Y022804D01*
X022837Y022906D01*
X022939Y023008D01*
X023244Y023008D01*
X023445Y023211D02*
X023445Y022601D01*
X023445Y022804D02*
X023750Y022804D01*
X023852Y022906D01*
X023852Y023109D01*
X023750Y023211D01*
X023445Y023211D01*
X023688Y023631D02*
X023891Y024038D01*
X024092Y024038D02*
X024295Y024241D01*
X024295Y023631D01*
X024092Y023631D02*
X024499Y023631D01*
X024700Y023631D02*
X024801Y023631D01*
X024801Y023733D01*
X024700Y023733D01*
X024700Y023631D01*
X025003Y023733D02*
X025003Y024140D01*
X025105Y024241D01*
X025309Y024241D01*
X025410Y024140D01*
X025003Y023733D01*
X025105Y023631D01*
X025309Y023631D01*
X025410Y023733D01*
X025410Y024140D01*
X025371Y023211D02*
X025066Y023211D01*
X024964Y023109D01*
X024964Y022906D01*
X025066Y022804D01*
X025371Y022804D01*
X025572Y022906D02*
X025674Y022804D01*
X025877Y022804D01*
X025979Y022906D01*
X025979Y023109D01*
X025877Y023211D01*
X025674Y023211D01*
X025572Y023109D01*
X025572Y022906D01*
X025369Y022509D02*
X025369Y022204D01*
X025573Y022306D01*
X025674Y022306D01*
X025776Y022204D01*
X025776Y022000D01*
X025674Y021899D01*
X025471Y021899D01*
X025369Y022000D01*
X025169Y021899D02*
X024762Y021899D01*
X024561Y021899D02*
X024154Y021899D01*
X023953Y021899D02*
X023546Y021899D01*
X023750Y021899D02*
X023750Y022509D01*
X023546Y022306D01*
X023345Y022306D02*
X023244Y022306D01*
X022938Y022306D01*
X022938Y022102D02*
X023345Y022102D01*
X023244Y021899D02*
X023244Y022509D01*
X023040Y022509D02*
X023040Y021899D01*
X024154Y022306D02*
X024357Y022509D01*
X024357Y021899D01*
X024762Y022306D02*
X024965Y022509D01*
X024965Y021899D01*
X025369Y022509D02*
X025776Y022509D01*
X025977Y022407D02*
X026079Y022509D01*
X026282Y022509D01*
X026384Y022407D01*
X026384Y022306D01*
X026282Y022204D01*
X026384Y022102D01*
X026384Y022000D01*
X026282Y021899D01*
X026079Y021899D01*
X025977Y022000D01*
X026180Y022204D02*
X026282Y022204D01*
X026281Y022804D02*
X026179Y022804D01*
X026179Y022906D01*
X026281Y022906D01*
X026281Y022804D01*
X026483Y022906D02*
X026585Y022804D01*
X026890Y022804D01*
X026890Y023211D01*
X027091Y023008D02*
X027396Y023211D01*
X027091Y023008D02*
X027396Y022804D01*
X027091Y022804D02*
X027091Y023415D01*
X026483Y023211D02*
X026483Y022906D01*
X027415Y021606D02*
X019415Y021606D01*
X019415Y020606D01*
X027415Y020606D01*
X027415Y021606D01*
X028415Y021606D02*
X036415Y021606D01*
X036415Y020606D01*
X028415Y020606D01*
X028415Y021606D01*
X024762Y022804D02*
X024660Y022804D01*
X024660Y022906D01*
X024762Y022906D01*
X024762Y022804D01*
X024459Y022804D02*
X024459Y023109D01*
X024358Y023211D01*
X024154Y023211D01*
X024052Y023109D01*
X024052Y022804D02*
X024052Y023415D01*
X023688Y023631D02*
X023484Y024038D01*
X020611Y022000D02*
X020509Y021899D01*
X020305Y021899D01*
X020204Y022000D01*
X020003Y022000D02*
X020003Y022407D01*
X019596Y022000D01*
X019698Y021899D01*
X019901Y021899D01*
X020003Y022000D01*
X019596Y022000D02*
X019596Y022407D01*
X019698Y022509D01*
X019901Y022509D01*
X020003Y022407D01*
X019394Y022000D02*
X019394Y021899D01*
X019292Y021899D01*
X019292Y022000D01*
X019394Y022000D01*
X019091Y021899D02*
X018684Y021899D01*
X019091Y022306D01*
X019091Y022407D01*
X018990Y022509D01*
X018786Y022509D01*
X018684Y022407D01*
X018280Y022509D02*
X018280Y021899D01*
X018077Y021899D02*
X018484Y021899D01*
X018915Y021606D02*
X010665Y021606D01*
X010665Y020606D01*
X018915Y020606D01*
X018915Y021606D01*
X018077Y022306D02*
X018280Y022509D01*
X018178Y022804D02*
X018280Y022906D01*
X018382Y022804D01*
X018484Y022906D01*
X018484Y023211D01*
X018077Y023211D02*
X018077Y022906D01*
X018178Y022804D01*
X017876Y022906D02*
X017876Y023211D01*
X017876Y022906D02*
X017774Y022804D01*
X017672Y022906D01*
X017571Y022804D01*
X017469Y022906D01*
X017469Y023211D01*
X017268Y023211D02*
X017268Y022906D01*
X017166Y022804D01*
X017065Y022906D01*
X016963Y022804D01*
X016861Y022906D01*
X016861Y023211D01*
X016963Y022509D02*
X016861Y022407D01*
X016963Y022509D02*
X017166Y022509D01*
X017268Y022407D01*
X017268Y022306D01*
X016861Y021899D01*
X017268Y021899D01*
X017469Y022000D02*
X017876Y022407D01*
X017876Y022000D01*
X017774Y021899D01*
X017571Y021899D01*
X017469Y022000D01*
X017469Y022407D01*
X017571Y022509D01*
X017774Y022509D01*
X017876Y022407D01*
X014185Y024974D02*
X014181Y025036D01*
X014180Y025099D01*
X014184Y025161D01*
X014191Y025223D01*
X014201Y025284D01*
X014216Y025345D01*
X014234Y025405D01*
X014255Y025464D01*
X014280Y025521D01*
X014308Y025576D01*
X014339Y025630D01*
X014374Y025682D01*
X014412Y025732D01*
X014452Y025779D01*
X014496Y025824D01*
X014541Y025867D01*
X014590Y025906D01*
X014640Y025943D01*
X014693Y025976D01*
X014747Y026007D01*
X014804Y026034D01*
X014861Y026057D01*
X014920Y026077D01*
X009716Y028592D02*
X009416Y028592D01*
X009566Y028592D02*
X009566Y029043D01*
X009416Y028893D01*
X009256Y028968D02*
X009181Y029043D01*
X009031Y029043D01*
X008956Y028968D01*
X008956Y028667D01*
X009031Y028592D01*
X009181Y028592D01*
X009256Y028667D01*
X008799Y028592D02*
X008649Y028592D01*
X008724Y028592D02*
X008724Y029043D01*
X008649Y029043D02*
X008799Y029043D01*
X009569Y029398D02*
X009569Y029699D01*
X007165Y021106D02*
X007167Y021160D01*
X007173Y021214D01*
X007183Y021267D01*
X007196Y021320D01*
X007213Y021371D01*
X007234Y021421D01*
X007259Y021469D01*
X007287Y021516D01*
X007318Y021560D01*
X007352Y021602D01*
X007389Y021641D01*
X007429Y021678D01*
X007472Y021711D01*
X007517Y021742D01*
X007564Y021769D01*
X007612Y021792D01*
X007663Y021812D01*
X007714Y021829D01*
X007767Y021841D01*
X007820Y021850D01*
X007874Y021855D01*
X007929Y021856D01*
X007983Y021853D01*
X008036Y021846D01*
X008089Y021835D01*
X008142Y021821D01*
X008193Y021803D01*
X008242Y021781D01*
X008290Y021756D01*
X008336Y021727D01*
X008380Y021695D01*
X008421Y021660D01*
X008459Y021622D01*
X008495Y021581D01*
X008528Y021538D01*
X008558Y021493D01*
X008584Y021445D01*
X008607Y021396D01*
X008626Y021345D01*
X008641Y021294D01*
X008653Y021241D01*
X008661Y021187D01*
X008665Y021133D01*
X008665Y021079D01*
X008661Y021025D01*
X008653Y020971D01*
X008641Y020918D01*
X008626Y020867D01*
X008607Y020816D01*
X008584Y020767D01*
X008558Y020719D01*
X008528Y020674D01*
X008495Y020631D01*
X008459Y020590D01*
X008421Y020552D01*
X008380Y020517D01*
X008336Y020485D01*
X008290Y020456D01*
X008242Y020431D01*
X008193Y020409D01*
X008142Y020391D01*
X008089Y020377D01*
X008036Y020366D01*
X007983Y020359D01*
X007929Y020356D01*
X007874Y020357D01*
X007820Y020362D01*
X007767Y020371D01*
X007714Y020383D01*
X007663Y020400D01*
X007612Y020420D01*
X007564Y020443D01*
X007517Y020470D01*
X007472Y020501D01*
X007429Y020534D01*
X007389Y020571D01*
X007352Y020610D01*
X007318Y020652D01*
X007287Y020696D01*
X007259Y020743D01*
X007234Y020791D01*
X007213Y020841D01*
X007196Y020892D01*
X007183Y020945D01*
X007173Y020998D01*
X007167Y021052D01*
X007165Y021106D01*
X014717Y019029D02*
X015328Y019029D01*
X015124Y018826D01*
X015328Y018622D01*
X014717Y018622D01*
X014819Y018421D02*
X014717Y018320D01*
X014717Y018116D01*
X014819Y018014D01*
X015226Y018014D01*
X015328Y018116D01*
X015328Y018320D01*
X015226Y018421D01*
X014819Y018421D01*
X015328Y017814D02*
X015328Y017407D01*
X015328Y017610D02*
X014717Y017610D01*
X014819Y017206D02*
X014717Y017104D01*
X014717Y016901D01*
X014819Y016799D01*
X015226Y016799D01*
X015328Y016901D01*
X015328Y017104D01*
X015226Y017206D01*
X014819Y017206D01*
X014921Y016598D02*
X014921Y016293D01*
X015022Y016191D01*
X015226Y016191D01*
X015328Y016293D01*
X015328Y016598D01*
X014717Y016598D01*
X014921Y016395D02*
X014717Y016191D01*
X014717Y015990D02*
X015124Y015990D01*
X015328Y015787D01*
X015124Y015583D01*
X014717Y015583D01*
X015022Y015583D02*
X015022Y015990D01*
X014717Y012690D02*
X015328Y012690D01*
X015124Y012487D01*
X015328Y012283D01*
X014717Y012283D01*
X014819Y012083D02*
X014717Y011981D01*
X014717Y011777D01*
X014819Y011676D01*
X015226Y011676D01*
X015328Y011777D01*
X015328Y011981D01*
X015226Y012083D01*
X014819Y012083D01*
X015328Y011475D02*
X015328Y011068D01*
X015328Y011271D02*
X014717Y011271D01*
X014819Y010867D02*
X014717Y010766D01*
X014717Y010562D01*
X014819Y010460D01*
X015226Y010460D01*
X015328Y010562D01*
X015328Y010766D01*
X015226Y010867D01*
X014819Y010867D01*
X014921Y010260D02*
X014921Y009954D01*
X015022Y009853D01*
X015226Y009853D01*
X015328Y009954D01*
X015328Y010260D01*
X014717Y010260D01*
X014921Y010056D02*
X014717Y009853D01*
X014717Y009652D02*
X014717Y009347D01*
X014819Y009245D01*
X014921Y009245D01*
X015022Y009347D01*
X015022Y009652D01*
X014717Y009652D02*
X015328Y009652D01*
X015328Y009347D01*
X015226Y009245D01*
X015124Y009245D01*
X015022Y009347D01*
X010566Y004242D02*
X010416Y004242D01*
X010341Y004167D01*
X010181Y004167D02*
X010106Y004242D01*
X009956Y004242D01*
X009881Y004167D01*
X009881Y004092D01*
X009956Y004017D01*
X010106Y004017D01*
X010181Y003942D01*
X010181Y003867D01*
X010106Y003792D01*
X009956Y003792D01*
X009881Y003867D01*
X010341Y003792D02*
X010641Y004092D01*
X010641Y004167D01*
X010566Y004242D01*
X010641Y003792D02*
X010341Y003792D01*
X006665Y002106D02*
X006667Y002160D01*
X006673Y002214D01*
X006683Y002267D01*
X006696Y002320D01*
X006713Y002371D01*
X006734Y002421D01*
X006759Y002469D01*
X006787Y002516D01*
X006818Y002560D01*
X006852Y002602D01*
X006889Y002641D01*
X006929Y002678D01*
X006972Y002711D01*
X007017Y002742D01*
X007064Y002769D01*
X007112Y002792D01*
X007163Y002812D01*
X007214Y002829D01*
X007267Y002841D01*
X007320Y002850D01*
X007374Y002855D01*
X007429Y002856D01*
X007483Y002853D01*
X007536Y002846D01*
X007589Y002835D01*
X007642Y002821D01*
X007693Y002803D01*
X007742Y002781D01*
X007790Y002756D01*
X007836Y002727D01*
X007880Y002695D01*
X007921Y002660D01*
X007959Y002622D01*
X007995Y002581D01*
X008028Y002538D01*
X008058Y002493D01*
X008084Y002445D01*
X008107Y002396D01*
X008126Y002345D01*
X008141Y002294D01*
X008153Y002241D01*
X008161Y002187D01*
X008165Y002133D01*
X008165Y002079D01*
X008161Y002025D01*
X008153Y001971D01*
X008141Y001918D01*
X008126Y001867D01*
X008107Y001816D01*
X008084Y001767D01*
X008058Y001719D01*
X008028Y001674D01*
X007995Y001631D01*
X007959Y001590D01*
X007921Y001552D01*
X007880Y001517D01*
X007836Y001485D01*
X007790Y001456D01*
X007742Y001431D01*
X007693Y001409D01*
X007642Y001391D01*
X007589Y001377D01*
X007536Y001366D01*
X007483Y001359D01*
X007429Y001356D01*
X007374Y001357D01*
X007320Y001362D01*
X007267Y001371D01*
X007214Y001383D01*
X007163Y001400D01*
X007112Y001420D01*
X007064Y001443D01*
X007017Y001470D01*
X006972Y001501D01*
X006929Y001534D01*
X006889Y001571D01*
X006852Y001610D01*
X006818Y001652D01*
X006787Y001696D01*
X006759Y001743D01*
X006734Y001791D01*
X006713Y001841D01*
X006696Y001892D01*
X006683Y001945D01*
X006673Y001998D01*
X006667Y002052D01*
X006665Y002106D01*
X006628Y001901D02*
X000880Y001901D01*
X000880Y005445D01*
X006628Y005445D01*
X006628Y001901D01*
X004902Y004236D02*
X004350Y004236D01*
X004350Y006991D01*
X002146Y006991D01*
X002146Y004236D01*
X004350Y004236D01*
X004902Y004236D02*
X004902Y006991D01*
X004350Y006991D01*
X004992Y007215D02*
X005292Y007215D01*
X005452Y007215D02*
X005753Y007666D01*
X005913Y007666D02*
X006213Y007666D01*
X006063Y007666D02*
X006063Y007215D01*
X005753Y007215D02*
X005452Y007666D01*
X005292Y007666D02*
X004992Y007666D01*
X004992Y007215D01*
X004992Y007440D02*
X005142Y007440D01*
X006373Y007140D02*
X006673Y007140D01*
X006833Y007215D02*
X006833Y007666D01*
X007059Y007666D01*
X007134Y007591D01*
X007134Y007440D01*
X007059Y007365D01*
X006833Y007365D01*
X007294Y007215D02*
X007294Y007666D01*
X007594Y007666D02*
X007594Y007215D01*
X007444Y007365D01*
X007294Y007215D01*
X007754Y007215D02*
X007754Y007666D01*
X007979Y007666D01*
X008054Y007591D01*
X008054Y007440D01*
X007979Y007365D01*
X007754Y007365D01*
X007904Y007365D02*
X008054Y007215D01*
X014415Y002606D02*
X020415Y002606D01*
X020415Y001606D01*
X014415Y001606D01*
X014415Y002606D01*
X021415Y002606D02*
X021415Y001606D01*
X029415Y001606D01*
X029415Y002606D01*
X021415Y002606D01*
X030415Y002606D02*
X030415Y001606D01*
X038415Y001606D01*
X038415Y002606D01*
X030415Y002606D01*
X038415Y003606D02*
X040415Y003606D01*
X040415Y021606D01*
X038415Y021606D01*
X038415Y003606D01*
X039165Y002106D02*
X039167Y002160D01*
X039173Y002214D01*
X039183Y002267D01*
X039196Y002320D01*
X039213Y002371D01*
X039234Y002421D01*
X039259Y002469D01*
X039287Y002516D01*
X039318Y002560D01*
X039352Y002602D01*
X039389Y002641D01*
X039429Y002678D01*
X039472Y002711D01*
X039517Y002742D01*
X039564Y002769D01*
X039612Y002792D01*
X039663Y002812D01*
X039714Y002829D01*
X039767Y002841D01*
X039820Y002850D01*
X039874Y002855D01*
X039929Y002856D01*
X039983Y002853D01*
X040036Y002846D01*
X040089Y002835D01*
X040142Y002821D01*
X040193Y002803D01*
X040242Y002781D01*
X040290Y002756D01*
X040336Y002727D01*
X040380Y002695D01*
X040421Y002660D01*
X040459Y002622D01*
X040495Y002581D01*
X040528Y002538D01*
X040558Y002493D01*
X040584Y002445D01*
X040607Y002396D01*
X040626Y002345D01*
X040641Y002294D01*
X040653Y002241D01*
X040661Y002187D01*
X040665Y002133D01*
X040665Y002079D01*
X040661Y002025D01*
X040653Y001971D01*
X040641Y001918D01*
X040626Y001867D01*
X040607Y001816D01*
X040584Y001767D01*
X040558Y001719D01*
X040528Y001674D01*
X040495Y001631D01*
X040459Y001590D01*
X040421Y001552D01*
X040380Y001517D01*
X040336Y001485D01*
X040290Y001456D01*
X040242Y001431D01*
X040193Y001409D01*
X040142Y001391D01*
X040089Y001377D01*
X040036Y001366D01*
X039983Y001359D01*
X039929Y001356D01*
X039874Y001357D01*
X039820Y001362D01*
X039767Y001371D01*
X039714Y001383D01*
X039663Y001400D01*
X039612Y001420D01*
X039564Y001443D01*
X039517Y001470D01*
X039472Y001501D01*
X039429Y001534D01*
X039389Y001571D01*
X039352Y001610D01*
X039318Y001652D01*
X039287Y001696D01*
X039259Y001743D01*
X039234Y001791D01*
X039213Y001841D01*
X039196Y001892D01*
X039183Y001945D01*
X039173Y001998D01*
X039167Y002052D01*
X039165Y002106D01*
X031140Y016639D02*
X031140Y016939D01*
X031140Y016789D02*
X030690Y016789D01*
X030840Y016639D01*
X030140Y016639D02*
X030140Y016939D01*
X030198Y016989D02*
X029747Y017290D01*
X029747Y016989D02*
X030198Y017290D01*
X030140Y016789D02*
X029690Y016789D01*
X029840Y016639D01*
X029973Y016529D02*
X029973Y016829D01*
X029140Y016789D02*
X028690Y016789D01*
X028840Y016639D01*
X029140Y016639D02*
X029140Y016939D01*
X028198Y016950D02*
X028123Y016950D01*
X027973Y017100D01*
X027747Y017100D01*
X027973Y017100D02*
X028123Y017250D01*
X028198Y017250D01*
X028140Y016939D02*
X028140Y016639D01*
X028140Y016789D02*
X027690Y016789D01*
X027840Y016639D01*
X027973Y016490D02*
X027973Y016790D01*
X033691Y017768D02*
X033766Y017693D01*
X033691Y017768D02*
X033691Y017918D01*
X033766Y017993D01*
X034067Y017993D01*
X034142Y017918D01*
X034142Y017768D01*
X034067Y017693D01*
X034067Y018153D02*
X034142Y018229D01*
X034142Y018379D01*
X034067Y018454D01*
X034142Y018610D02*
X034142Y018761D01*
X034142Y018686D02*
X033691Y018686D01*
X033691Y018761D02*
X033691Y018610D01*
X033691Y018454D02*
X033992Y018153D01*
X034067Y018153D01*
X033691Y018153D02*
X033691Y018454D01*
D15*
X039285Y027574D02*
X039287Y027624D01*
X039293Y027674D01*
X039303Y027723D01*
X039317Y027771D01*
X039334Y027818D01*
X039355Y027863D01*
X039380Y027907D01*
X039408Y027948D01*
X039440Y027987D01*
X039474Y028024D01*
X039511Y028058D01*
X039551Y028088D01*
X039593Y028115D01*
X039637Y028139D01*
X039683Y028160D01*
X039730Y028176D01*
X039778Y028189D01*
X039828Y028198D01*
X039877Y028203D01*
X039928Y028204D01*
X039978Y028201D01*
X040027Y028194D01*
X040076Y028183D01*
X040124Y028168D01*
X040170Y028150D01*
X040215Y028128D01*
X040258Y028102D01*
X040299Y028073D01*
X040338Y028041D01*
X040374Y028006D01*
X040406Y027968D01*
X040436Y027928D01*
X040463Y027885D01*
X040486Y027841D01*
X040505Y027795D01*
X040521Y027747D01*
X040533Y027698D01*
X040541Y027649D01*
X040545Y027599D01*
X040545Y027549D01*
X040541Y027499D01*
X040533Y027450D01*
X040521Y027401D01*
X040505Y027353D01*
X040486Y027307D01*
X040463Y027263D01*
X040436Y027220D01*
X040406Y027180D01*
X040374Y027142D01*
X040338Y027107D01*
X040299Y027075D01*
X040258Y027046D01*
X040215Y027020D01*
X040170Y026998D01*
X040124Y026980D01*
X040076Y026965D01*
X040027Y026954D01*
X039978Y026947D01*
X039928Y026944D01*
X039877Y026945D01*
X039828Y026950D01*
X039778Y026959D01*
X039730Y026972D01*
X039683Y026988D01*
X039637Y027009D01*
X039593Y027033D01*
X039551Y027060D01*
X039511Y027090D01*
X039474Y027124D01*
X039440Y027161D01*
X039408Y027200D01*
X039380Y027241D01*
X039355Y027285D01*
X039334Y027330D01*
X039317Y027377D01*
X039303Y027425D01*
X039293Y027474D01*
X039287Y027524D01*
X039285Y027574D01*
X011285Y030574D02*
X011287Y030624D01*
X011293Y030674D01*
X011303Y030723D01*
X011317Y030771D01*
X011334Y030818D01*
X011355Y030863D01*
X011380Y030907D01*
X011408Y030948D01*
X011440Y030987D01*
X011474Y031024D01*
X011511Y031058D01*
X011551Y031088D01*
X011593Y031115D01*
X011637Y031139D01*
X011683Y031160D01*
X011730Y031176D01*
X011778Y031189D01*
X011828Y031198D01*
X011877Y031203D01*
X011928Y031204D01*
X011978Y031201D01*
X012027Y031194D01*
X012076Y031183D01*
X012124Y031168D01*
X012170Y031150D01*
X012215Y031128D01*
X012258Y031102D01*
X012299Y031073D01*
X012338Y031041D01*
X012374Y031006D01*
X012406Y030968D01*
X012436Y030928D01*
X012463Y030885D01*
X012486Y030841D01*
X012505Y030795D01*
X012521Y030747D01*
X012533Y030698D01*
X012541Y030649D01*
X012545Y030599D01*
X012545Y030549D01*
X012541Y030499D01*
X012533Y030450D01*
X012521Y030401D01*
X012505Y030353D01*
X012486Y030307D01*
X012463Y030263D01*
X012436Y030220D01*
X012406Y030180D01*
X012374Y030142D01*
X012338Y030107D01*
X012299Y030075D01*
X012258Y030046D01*
X012215Y030020D01*
X012170Y029998D01*
X012124Y029980D01*
X012076Y029965D01*
X012027Y029954D01*
X011978Y029947D01*
X011928Y029944D01*
X011877Y029945D01*
X011828Y029950D01*
X011778Y029959D01*
X011730Y029972D01*
X011683Y029988D01*
X011637Y030009D01*
X011593Y030033D01*
X011551Y030060D01*
X011511Y030090D01*
X011474Y030124D01*
X011440Y030161D01*
X011408Y030200D01*
X011380Y030241D01*
X011355Y030285D01*
X011334Y030330D01*
X011317Y030377D01*
X011303Y030425D01*
X011293Y030474D01*
X011287Y030524D01*
X011285Y030574D01*
X007285Y021106D02*
X007287Y021156D01*
X007293Y021206D01*
X007303Y021255D01*
X007317Y021303D01*
X007334Y021350D01*
X007355Y021395D01*
X007380Y021439D01*
X007408Y021480D01*
X007440Y021519D01*
X007474Y021556D01*
X007511Y021590D01*
X007551Y021620D01*
X007593Y021647D01*
X007637Y021671D01*
X007683Y021692D01*
X007730Y021708D01*
X007778Y021721D01*
X007828Y021730D01*
X007877Y021735D01*
X007928Y021736D01*
X007978Y021733D01*
X008027Y021726D01*
X008076Y021715D01*
X008124Y021700D01*
X008170Y021682D01*
X008215Y021660D01*
X008258Y021634D01*
X008299Y021605D01*
X008338Y021573D01*
X008374Y021538D01*
X008406Y021500D01*
X008436Y021460D01*
X008463Y021417D01*
X008486Y021373D01*
X008505Y021327D01*
X008521Y021279D01*
X008533Y021230D01*
X008541Y021181D01*
X008545Y021131D01*
X008545Y021081D01*
X008541Y021031D01*
X008533Y020982D01*
X008521Y020933D01*
X008505Y020885D01*
X008486Y020839D01*
X008463Y020795D01*
X008436Y020752D01*
X008406Y020712D01*
X008374Y020674D01*
X008338Y020639D01*
X008299Y020607D01*
X008258Y020578D01*
X008215Y020552D01*
X008170Y020530D01*
X008124Y020512D01*
X008076Y020497D01*
X008027Y020486D01*
X007978Y020479D01*
X007928Y020476D01*
X007877Y020477D01*
X007828Y020482D01*
X007778Y020491D01*
X007730Y020504D01*
X007683Y020520D01*
X007637Y020541D01*
X007593Y020565D01*
X007551Y020592D01*
X007511Y020622D01*
X007474Y020656D01*
X007440Y020693D01*
X007408Y020732D01*
X007380Y020773D01*
X007355Y020817D01*
X007334Y020862D01*
X007317Y020909D01*
X007303Y020957D01*
X007293Y021006D01*
X007287Y021056D01*
X007285Y021106D01*
X006785Y002106D02*
X006787Y002156D01*
X006793Y002206D01*
X006803Y002255D01*
X006817Y002303D01*
X006834Y002350D01*
X006855Y002395D01*
X006880Y002439D01*
X006908Y002480D01*
X006940Y002519D01*
X006974Y002556D01*
X007011Y002590D01*
X007051Y002620D01*
X007093Y002647D01*
X007137Y002671D01*
X007183Y002692D01*
X007230Y002708D01*
X007278Y002721D01*
X007328Y002730D01*
X007377Y002735D01*
X007428Y002736D01*
X007478Y002733D01*
X007527Y002726D01*
X007576Y002715D01*
X007624Y002700D01*
X007670Y002682D01*
X007715Y002660D01*
X007758Y002634D01*
X007799Y002605D01*
X007838Y002573D01*
X007874Y002538D01*
X007906Y002500D01*
X007936Y002460D01*
X007963Y002417D01*
X007986Y002373D01*
X008005Y002327D01*
X008021Y002279D01*
X008033Y002230D01*
X008041Y002181D01*
X008045Y002131D01*
X008045Y002081D01*
X008041Y002031D01*
X008033Y001982D01*
X008021Y001933D01*
X008005Y001885D01*
X007986Y001839D01*
X007963Y001795D01*
X007936Y001752D01*
X007906Y001712D01*
X007874Y001674D01*
X007838Y001639D01*
X007799Y001607D01*
X007758Y001578D01*
X007715Y001552D01*
X007670Y001530D01*
X007624Y001512D01*
X007576Y001497D01*
X007527Y001486D01*
X007478Y001479D01*
X007428Y001476D01*
X007377Y001477D01*
X007328Y001482D01*
X007278Y001491D01*
X007230Y001504D01*
X007183Y001520D01*
X007137Y001541D01*
X007093Y001565D01*
X007051Y001592D01*
X007011Y001622D01*
X006974Y001656D01*
X006940Y001693D01*
X006908Y001732D01*
X006880Y001773D01*
X006855Y001817D01*
X006834Y001862D01*
X006817Y001909D01*
X006803Y001957D01*
X006793Y002006D01*
X006787Y002056D01*
X006785Y002106D01*
X039285Y002106D02*
X039287Y002156D01*
X039293Y002206D01*
X039303Y002255D01*
X039317Y002303D01*
X039334Y002350D01*
X039355Y002395D01*
X039380Y002439D01*
X039408Y002480D01*
X039440Y002519D01*
X039474Y002556D01*
X039511Y002590D01*
X039551Y002620D01*
X039593Y002647D01*
X039637Y002671D01*
X039683Y002692D01*
X039730Y002708D01*
X039778Y002721D01*
X039828Y002730D01*
X039877Y002735D01*
X039928Y002736D01*
X039978Y002733D01*
X040027Y002726D01*
X040076Y002715D01*
X040124Y002700D01*
X040170Y002682D01*
X040215Y002660D01*
X040258Y002634D01*
X040299Y002605D01*
X040338Y002573D01*
X040374Y002538D01*
X040406Y002500D01*
X040436Y002460D01*
X040463Y002417D01*
X040486Y002373D01*
X040505Y002327D01*
X040521Y002279D01*
X040533Y002230D01*
X040541Y002181D01*
X040545Y002131D01*
X040545Y002081D01*
X040541Y002031D01*
X040533Y001982D01*
X040521Y001933D01*
X040505Y001885D01*
X040486Y001839D01*
X040463Y001795D01*
X040436Y001752D01*
X040406Y001712D01*
X040374Y001674D01*
X040338Y001639D01*
X040299Y001607D01*
X040258Y001578D01*
X040215Y001552D01*
X040170Y001530D01*
X040124Y001512D01*
X040076Y001497D01*
X040027Y001486D01*
X039978Y001479D01*
X039928Y001476D01*
X039877Y001477D01*
X039828Y001482D01*
X039778Y001491D01*
X039730Y001504D01*
X039683Y001520D01*
X039637Y001541D01*
X039593Y001565D01*
X039551Y001592D01*
X039511Y001622D01*
X039474Y001656D01*
X039440Y001693D01*
X039408Y001732D01*
X039380Y001773D01*
X039355Y001817D01*
X039334Y001862D01*
X039317Y001909D01*
X039303Y001957D01*
X039293Y002006D01*
X039287Y002056D01*
X039285Y002106D01*
D16*
X006451Y010124D02*
X006239Y009912D01*
X006027Y009912D01*
X005815Y010124D01*
X005815Y010759D01*
X005180Y010759D02*
X005180Y010124D01*
X005392Y009912D01*
X005604Y009912D01*
X005815Y010124D01*
X005180Y010759D02*
X006451Y010759D01*
X006451Y010124D01*
X006127Y016162D02*
X005280Y016162D01*
X005915Y016162D02*
X005915Y017009D01*
X006127Y017009D02*
X006551Y016586D01*
X006127Y016162D01*
X006127Y017009D02*
X005280Y017009D01*
D17*
X012112Y022563D03*
X012584Y022563D03*
D18*
X012348Y022563D03*
X013076Y001165D03*
D19*
X011465Y002024D02*
X011465Y002817D01*
X011115Y003624D02*
X009415Y003624D01*
X009065Y002829D02*
X009065Y002024D01*
X009415Y001224D02*
X011115Y001224D01*
X009565Y002424D02*
X009567Y002476D01*
X009573Y002528D01*
X009583Y002580D01*
X009596Y002630D01*
X009613Y002680D01*
X009634Y002728D01*
X009659Y002774D01*
X009687Y002818D01*
X009718Y002860D01*
X009752Y002900D01*
X009789Y002937D01*
X009829Y002971D01*
X009871Y003002D01*
X009915Y003030D01*
X009961Y003055D01*
X010009Y003076D01*
X010059Y003093D01*
X010109Y003106D01*
X010161Y003116D01*
X010213Y003122D01*
X010265Y003124D01*
X010317Y003122D01*
X010369Y003116D01*
X010421Y003106D01*
X010471Y003093D01*
X010521Y003076D01*
X010569Y003055D01*
X010615Y003030D01*
X010659Y003002D01*
X010701Y002971D01*
X010741Y002937D01*
X010778Y002900D01*
X010812Y002860D01*
X010843Y002818D01*
X010871Y002774D01*
X010896Y002728D01*
X010917Y002680D01*
X010934Y002630D01*
X010947Y002580D01*
X010957Y002528D01*
X010963Y002476D01*
X010965Y002424D01*
X010963Y002372D01*
X010957Y002320D01*
X010947Y002268D01*
X010934Y002218D01*
X010917Y002168D01*
X010896Y002120D01*
X010871Y002074D01*
X010843Y002030D01*
X010812Y001988D01*
X010778Y001948D01*
X010741Y001911D01*
X010701Y001877D01*
X010659Y001846D01*
X010615Y001818D01*
X010569Y001793D01*
X010521Y001772D01*
X010471Y001755D01*
X010421Y001742D01*
X010369Y001732D01*
X010317Y001726D01*
X010265Y001724D01*
X010213Y001726D01*
X010161Y001732D01*
X010109Y001742D01*
X010059Y001755D01*
X010009Y001772D01*
X009961Y001793D01*
X009915Y001818D01*
X009871Y001846D01*
X009829Y001877D01*
X009789Y001911D01*
X009752Y001948D01*
X009718Y001988D01*
X009687Y002030D01*
X009659Y002074D01*
X009634Y002120D01*
X009613Y002168D01*
X009596Y002218D01*
X009583Y002268D01*
X009573Y002320D01*
X009567Y002372D01*
X009565Y002424D01*
X013265Y003834D02*
X013265Y006415D01*
X015625Y006414D01*
X015625Y003834D02*
X013265Y003834D01*
X011437Y009956D02*
X009193Y009956D01*
X008838Y010311D01*
X008838Y010823D01*
X008838Y011689D02*
X008838Y012200D01*
X009193Y012555D01*
X011437Y012555D01*
X011437Y011689D01*
X011437Y010823D02*
X011437Y009956D01*
X011298Y010882D02*
X011275Y010817D01*
X011249Y010754D01*
X011219Y010693D01*
X011185Y010633D01*
X011149Y010575D01*
X011109Y010519D01*
X011066Y010466D01*
X011020Y010415D01*
X010971Y010367D01*
X010920Y010322D01*
X010866Y010279D01*
X010810Y010240D01*
X010752Y010204D01*
X010691Y010171D01*
X010629Y010142D01*
X010566Y010116D01*
X010501Y010094D01*
X010435Y010075D01*
X010368Y010061D01*
X010301Y010050D01*
X010232Y010043D01*
X010164Y010039D01*
X010095Y010040D01*
X010027Y010044D01*
X009959Y010053D01*
X009892Y010065D01*
X009825Y010080D01*
X009759Y010100D01*
X009695Y010123D01*
X009632Y010150D01*
X009570Y010181D01*
X009511Y010214D01*
X009453Y010251D01*
X009398Y010292D01*
X009345Y010335D01*
X009294Y010381D01*
X009246Y010430D01*
X009201Y010482D01*
X009159Y010536D01*
X009120Y010592D01*
X009084Y010651D01*
X009052Y010711D01*
X009023Y010773D01*
X008997Y010837D01*
X008976Y010902D01*
X008976Y011630D02*
X008999Y011695D01*
X009025Y011758D01*
X009055Y011819D01*
X009089Y011879D01*
X009125Y011937D01*
X009165Y011993D01*
X009208Y012046D01*
X009254Y012097D01*
X009303Y012145D01*
X009354Y012190D01*
X009408Y012233D01*
X009464Y012272D01*
X009522Y012308D01*
X009583Y012341D01*
X009645Y012370D01*
X009708Y012396D01*
X009773Y012418D01*
X009839Y012437D01*
X009906Y012451D01*
X009973Y012462D01*
X010042Y012469D01*
X010110Y012473D01*
X010179Y012472D01*
X010247Y012468D01*
X010315Y012459D01*
X010382Y012447D01*
X010449Y012432D01*
X010515Y012412D01*
X010579Y012389D01*
X010642Y012362D01*
X010704Y012331D01*
X010763Y012298D01*
X010821Y012261D01*
X010876Y012220D01*
X010929Y012177D01*
X010980Y012131D01*
X011028Y012082D01*
X011073Y012030D01*
X011115Y011976D01*
X011154Y011920D01*
X011190Y011861D01*
X011222Y011801D01*
X011251Y011739D01*
X011277Y011675D01*
X011298Y011610D01*
X008505Y013267D02*
X008151Y012913D01*
X007639Y012913D01*
X006773Y012913D02*
X006261Y012913D01*
X005907Y013267D01*
X005907Y015511D01*
X006773Y015511D01*
X007639Y015511D02*
X008505Y015511D01*
X008505Y013267D01*
X006832Y013051D02*
X006767Y013074D01*
X006704Y013100D01*
X006643Y013130D01*
X006583Y013164D01*
X006525Y013200D01*
X006469Y013240D01*
X006416Y013283D01*
X006365Y013329D01*
X006317Y013378D01*
X006272Y013429D01*
X006229Y013483D01*
X006190Y013539D01*
X006154Y013597D01*
X006121Y013658D01*
X006092Y013720D01*
X006066Y013783D01*
X006044Y013848D01*
X006025Y013914D01*
X006011Y013981D01*
X006000Y014048D01*
X005993Y014117D01*
X005989Y014185D01*
X005990Y014254D01*
X005994Y014322D01*
X006003Y014390D01*
X006015Y014457D01*
X006030Y014524D01*
X006050Y014590D01*
X006073Y014654D01*
X006100Y014717D01*
X006131Y014779D01*
X006164Y014838D01*
X006201Y014896D01*
X006242Y014951D01*
X006285Y015004D01*
X006331Y015055D01*
X006380Y015103D01*
X006432Y015148D01*
X006486Y015190D01*
X006542Y015229D01*
X006601Y015265D01*
X006661Y015297D01*
X006723Y015326D01*
X006787Y015352D01*
X006852Y015373D01*
X007580Y015373D02*
X007645Y015350D01*
X007708Y015324D01*
X007769Y015294D01*
X007829Y015260D01*
X007887Y015224D01*
X007943Y015184D01*
X007996Y015141D01*
X008047Y015095D01*
X008095Y015046D01*
X008140Y014995D01*
X008183Y014941D01*
X008222Y014885D01*
X008258Y014827D01*
X008291Y014766D01*
X008320Y014704D01*
X008346Y014641D01*
X008368Y014576D01*
X008387Y014510D01*
X008401Y014443D01*
X008412Y014376D01*
X008419Y014307D01*
X008423Y014239D01*
X008422Y014170D01*
X008418Y014102D01*
X008409Y014034D01*
X008397Y013967D01*
X008382Y013900D01*
X008362Y013834D01*
X008339Y013770D01*
X008312Y013707D01*
X008281Y013645D01*
X008248Y013586D01*
X008211Y013528D01*
X008170Y013473D01*
X008127Y013420D01*
X008081Y013369D01*
X008032Y013321D01*
X007980Y013276D01*
X007926Y013234D01*
X007870Y013195D01*
X007811Y013159D01*
X007751Y013127D01*
X007689Y013098D01*
X007625Y013072D01*
X007560Y013051D01*
X004932Y013685D02*
X004617Y013685D01*
X004617Y019630D01*
X004932Y019630D01*
X004932Y013685D01*
X004617Y013685D02*
X002176Y013685D01*
X002176Y019630D01*
X004617Y019630D01*
X002655Y022130D02*
X010726Y022130D01*
X010726Y023114D01*
X002655Y023114D01*
X002655Y022130D01*
X009265Y018716D02*
X009265Y018204D01*
X009265Y018716D02*
X009620Y019071D01*
X011864Y019071D01*
X011864Y018204D01*
X011864Y017338D02*
X011864Y016472D01*
X009620Y016472D01*
X009265Y016826D01*
X009265Y017338D01*
X009403Y018145D02*
X009426Y018210D01*
X009452Y018273D01*
X009482Y018334D01*
X009516Y018394D01*
X009552Y018452D01*
X009592Y018508D01*
X009635Y018561D01*
X009681Y018612D01*
X009730Y018660D01*
X009781Y018705D01*
X009835Y018748D01*
X009891Y018787D01*
X009949Y018823D01*
X010010Y018856D01*
X010072Y018885D01*
X010135Y018911D01*
X010200Y018933D01*
X010266Y018952D01*
X010333Y018966D01*
X010400Y018977D01*
X010469Y018984D01*
X010537Y018988D01*
X010606Y018987D01*
X010674Y018983D01*
X010742Y018974D01*
X010809Y018962D01*
X010876Y018947D01*
X010942Y018927D01*
X011006Y018904D01*
X011069Y018877D01*
X011131Y018846D01*
X011190Y018813D01*
X011248Y018776D01*
X011303Y018735D01*
X011356Y018692D01*
X011407Y018646D01*
X011455Y018597D01*
X011500Y018545D01*
X011542Y018491D01*
X011581Y018435D01*
X011617Y018376D01*
X011649Y018316D01*
X011678Y018254D01*
X011704Y018190D01*
X011725Y018125D01*
X011726Y017397D02*
X011703Y017332D01*
X011677Y017269D01*
X011647Y017208D01*
X011613Y017148D01*
X011577Y017090D01*
X011537Y017034D01*
X011494Y016981D01*
X011448Y016930D01*
X011399Y016882D01*
X011348Y016837D01*
X011294Y016794D01*
X011238Y016755D01*
X011180Y016719D01*
X011119Y016686D01*
X011057Y016657D01*
X010994Y016631D01*
X010929Y016609D01*
X010863Y016590D01*
X010796Y016576D01*
X010729Y016565D01*
X010660Y016558D01*
X010592Y016554D01*
X010523Y016555D01*
X010455Y016559D01*
X010387Y016568D01*
X010320Y016580D01*
X010253Y016595D01*
X010187Y016615D01*
X010123Y016638D01*
X010060Y016665D01*
X009998Y016696D01*
X009939Y016729D01*
X009881Y016766D01*
X009826Y016807D01*
X009773Y016850D01*
X009722Y016896D01*
X009674Y016945D01*
X009629Y016997D01*
X009587Y017051D01*
X009548Y017107D01*
X009512Y017166D01*
X009480Y017226D01*
X009451Y017288D01*
X009425Y017352D01*
X009404Y017417D01*
X010726Y030791D02*
X002655Y030791D01*
X002655Y031775D01*
X010726Y031775D01*
X010726Y030791D01*
D20*
X009115Y028140D02*
X009117Y028167D01*
X009123Y028194D01*
X009132Y028220D01*
X009145Y028244D01*
X009161Y028267D01*
X009180Y028286D01*
X009202Y028303D01*
X009226Y028317D01*
X009251Y028327D01*
X009278Y028334D01*
X009305Y028337D01*
X009333Y028336D01*
X009360Y028331D01*
X009386Y028323D01*
X009410Y028311D01*
X009433Y028295D01*
X009454Y028277D01*
X009471Y028256D01*
X009486Y028232D01*
X009497Y028207D01*
X009505Y028181D01*
X009509Y028154D01*
X009509Y028126D01*
X009505Y028099D01*
X009497Y028073D01*
X009486Y028048D01*
X009471Y028024D01*
X009454Y028003D01*
X009433Y027985D01*
X009411Y027969D01*
X009386Y027957D01*
X009360Y027949D01*
X009333Y027944D01*
X009305Y027943D01*
X009278Y027946D01*
X009251Y027953D01*
X009226Y027963D01*
X009202Y027977D01*
X009180Y027994D01*
X009161Y028013D01*
X009145Y028036D01*
X009132Y028060D01*
X009123Y028086D01*
X009117Y028113D01*
X009115Y028140D01*
X010276Y019207D02*
X010276Y019134D01*
X010239Y019171D02*
X010386Y019171D01*
X010423Y019207D01*
X010386Y019060D02*
X010312Y019060D01*
X010276Y019023D01*
X010276Y018950D01*
X010312Y018913D01*
X010386Y018913D01*
X010423Y018950D01*
X010423Y019023D01*
X010386Y019060D01*
X010423Y018839D02*
X010312Y018839D01*
X010276Y018802D01*
X010312Y018765D01*
X010423Y018765D01*
X010423Y018692D02*
X010276Y018692D01*
X010276Y018729D01*
X010312Y018765D01*
X010349Y018618D02*
X010202Y018618D01*
X010202Y018471D02*
X010349Y018471D01*
X010423Y018544D01*
X010349Y018618D01*
X011202Y018655D02*
X011239Y018618D01*
X011386Y018618D01*
X011423Y018655D01*
X011423Y018728D01*
X011386Y018765D01*
X011312Y018765D01*
X011312Y018692D01*
X011239Y018765D02*
X011202Y018728D01*
X011202Y018655D01*
X011202Y018839D02*
X011423Y018986D01*
X011202Y018986D01*
X011202Y019060D02*
X011202Y019170D01*
X011239Y019207D01*
X011386Y019207D01*
X011423Y019170D01*
X011423Y019060D01*
X011202Y019060D01*
X011202Y018839D02*
X011423Y018839D01*
X012202Y018876D02*
X012239Y018839D01*
X012202Y018876D02*
X012202Y018949D01*
X012239Y018986D01*
X012276Y018986D01*
X012423Y018839D01*
X012423Y018986D01*
X012423Y019060D02*
X012423Y019170D01*
X012386Y019207D01*
X012349Y019207D01*
X012312Y019170D01*
X012312Y019060D01*
X012202Y019060D02*
X012202Y019170D01*
X012239Y019207D01*
X012276Y019207D01*
X012312Y019170D01*
X012202Y019060D02*
X012423Y019060D01*
X013202Y019134D02*
X013276Y019207D01*
X013423Y019207D01*
X013312Y019207D02*
X013312Y019060D01*
X013276Y019060D02*
X013202Y019134D01*
X013276Y019060D02*
X013423Y019060D01*
X013423Y018986D02*
X013423Y018839D01*
X013276Y018986D01*
X013239Y018986D01*
X013202Y018949D01*
X013202Y018876D01*
X013239Y018839D01*
X014202Y018913D02*
X014423Y018913D01*
X014423Y018986D02*
X014423Y018839D01*
X014276Y018839D02*
X014202Y018913D01*
X014276Y019060D02*
X014202Y019134D01*
X014276Y019207D01*
X014423Y019207D01*
X014312Y019207D02*
X014312Y019060D01*
X014276Y019060D02*
X014423Y019060D01*
X015202Y019060D02*
X015202Y019170D01*
X015239Y019207D01*
X015276Y019207D01*
X015312Y019170D01*
X015312Y019060D01*
X015202Y019060D02*
X015423Y019060D01*
X015423Y019170D01*
X015386Y019207D01*
X015349Y019207D01*
X015312Y019170D01*
X015423Y018986D02*
X015423Y018839D01*
X015423Y018913D02*
X015202Y018913D01*
X015276Y018839D01*
X016202Y018839D02*
X016202Y018949D01*
X016239Y018986D01*
X016386Y018986D01*
X016423Y018949D01*
X016423Y018839D01*
X016202Y018839D01*
X016202Y018765D02*
X016349Y018765D01*
X016423Y018692D01*
X016349Y018618D01*
X016202Y018618D01*
X016202Y019060D02*
X016202Y019170D01*
X016239Y019207D01*
X016386Y019207D01*
X016423Y019170D01*
X016423Y019060D01*
X016202Y019060D01*
X017202Y019060D02*
X017202Y019170D01*
X017239Y019207D01*
X017386Y019207D01*
X017423Y019170D01*
X017423Y019060D01*
X017202Y019060D01*
X017202Y018986D02*
X017423Y018986D01*
X017202Y018839D01*
X017423Y018839D01*
X017386Y018765D02*
X017312Y018765D01*
X017312Y018692D01*
X017239Y018765D02*
X017202Y018728D01*
X017202Y018655D01*
X017239Y018618D01*
X017386Y018618D01*
X017423Y018655D01*
X017423Y018728D01*
X017386Y018765D01*
X016572Y016091D02*
X016609Y016054D01*
X016609Y015944D01*
X016683Y015944D02*
X016462Y015944D01*
X016462Y016054D01*
X016499Y016091D01*
X016572Y016091D01*
X016462Y015870D02*
X016462Y015723D01*
X016683Y015723D01*
X016683Y015870D01*
X016572Y015797D02*
X016572Y015723D01*
X016462Y015649D02*
X016462Y015502D01*
X016462Y015576D02*
X016683Y015576D01*
X016646Y015428D02*
X016683Y015391D01*
X016683Y015318D01*
X016646Y015281D01*
X016572Y015318D02*
X016572Y015391D01*
X016609Y015428D01*
X016646Y015428D01*
X016572Y015318D02*
X016536Y015281D01*
X016499Y015281D01*
X016462Y015318D01*
X016462Y015391D01*
X016499Y015428D01*
X015683Y015391D02*
X015683Y015318D01*
X015646Y015281D01*
X015572Y015318D02*
X015572Y015391D01*
X015609Y015428D01*
X015646Y015428D01*
X015683Y015391D01*
X015683Y015502D02*
X015683Y015649D01*
X015683Y015723D02*
X015462Y015723D01*
X015462Y015833D01*
X015499Y015870D01*
X015572Y015870D01*
X015609Y015833D01*
X015609Y015723D01*
X015683Y015502D02*
X015462Y015502D01*
X015499Y015428D02*
X015462Y015391D01*
X015462Y015318D01*
X015499Y015281D01*
X015536Y015281D01*
X015572Y015318D01*
X014683Y015281D02*
X014462Y015281D01*
X014462Y015391D01*
X014499Y015428D01*
X014572Y015428D01*
X014609Y015391D01*
X014609Y015281D01*
X014609Y015355D02*
X014683Y015428D01*
X014646Y015502D02*
X014683Y015539D01*
X014683Y015612D01*
X014646Y015649D01*
X014609Y015649D01*
X014572Y015612D01*
X014572Y015539D01*
X014536Y015502D01*
X014499Y015502D01*
X014462Y015539D01*
X014462Y015612D01*
X014499Y015649D01*
X014462Y015723D02*
X014462Y015870D01*
X014462Y015797D02*
X014683Y015797D01*
X013683Y015833D02*
X013683Y015760D01*
X013646Y015723D01*
X013646Y015649D02*
X013683Y015612D01*
X013683Y015539D01*
X013646Y015502D01*
X013572Y015539D02*
X013572Y015612D01*
X013609Y015649D01*
X013646Y015649D01*
X013572Y015539D02*
X013536Y015502D01*
X013499Y015502D01*
X013462Y015539D01*
X013462Y015612D01*
X013499Y015649D01*
X013499Y015723D02*
X013462Y015760D01*
X013462Y015833D01*
X013499Y015870D01*
X013536Y015870D01*
X013572Y015833D01*
X013609Y015870D01*
X013646Y015870D01*
X013683Y015833D01*
X013572Y015833D02*
X013572Y015797D01*
X013462Y015428D02*
X013683Y015428D01*
X013683Y015281D02*
X013462Y015281D01*
X013536Y015355D01*
X013462Y015428D01*
X012683Y015428D02*
X012462Y015428D01*
X012536Y015355D01*
X012462Y015281D01*
X012683Y015281D01*
X012646Y015502D02*
X012683Y015539D01*
X012683Y015612D01*
X012646Y015649D01*
X012609Y015649D01*
X012572Y015612D01*
X012572Y015539D01*
X012536Y015502D01*
X012499Y015502D01*
X012462Y015539D01*
X012462Y015612D01*
X012499Y015649D01*
X012499Y015723D02*
X012462Y015760D01*
X012462Y015833D01*
X012499Y015870D01*
X012536Y015870D01*
X012683Y015723D01*
X012683Y015870D01*
X011683Y015870D02*
X011683Y015723D01*
X011683Y015797D02*
X011462Y015797D01*
X011536Y015723D01*
X011499Y015649D02*
X011462Y015612D01*
X011462Y015539D01*
X011499Y015502D01*
X011536Y015502D01*
X011572Y015539D01*
X011572Y015612D01*
X011609Y015649D01*
X011646Y015649D01*
X011683Y015612D01*
X011683Y015539D01*
X011646Y015502D01*
X011683Y015428D02*
X011462Y015428D01*
X011536Y015355D01*
X011462Y015281D01*
X011683Y015281D01*
X010683Y015281D02*
X010683Y015428D01*
X010683Y015502D02*
X010462Y015502D01*
X010683Y015649D01*
X010462Y015649D01*
X010462Y015428D02*
X010462Y015281D01*
X010683Y015281D01*
X010572Y015281D02*
X010572Y015355D01*
X010442Y012889D02*
X010406Y012852D01*
X010259Y012852D01*
X010295Y012815D02*
X010295Y012889D01*
X010332Y012741D02*
X010295Y012704D01*
X010295Y012631D01*
X010332Y012594D01*
X010406Y012594D01*
X010442Y012631D01*
X010442Y012704D01*
X010406Y012741D01*
X010332Y012741D01*
X010332Y012520D02*
X010442Y012520D01*
X010442Y012447D02*
X010332Y012447D01*
X010295Y012483D01*
X010332Y012520D01*
X010332Y012447D02*
X010295Y012410D01*
X010295Y012373D01*
X010442Y012373D01*
X010369Y012299D02*
X010222Y012299D01*
X010369Y012299D02*
X010442Y012226D01*
X010369Y012152D01*
X010222Y012152D01*
X011222Y012336D02*
X011259Y012299D01*
X011406Y012299D01*
X011442Y012336D01*
X011442Y012410D01*
X011406Y012446D01*
X011332Y012446D01*
X011332Y012373D01*
X011259Y012446D02*
X011222Y012410D01*
X011222Y012336D01*
X011222Y012520D02*
X011442Y012667D01*
X011222Y012667D01*
X011222Y012741D02*
X011222Y012852D01*
X011259Y012888D01*
X011406Y012888D01*
X011442Y012852D01*
X011442Y012741D01*
X011222Y012741D01*
X011222Y012520D02*
X011442Y012520D01*
X012222Y012557D02*
X012259Y012520D01*
X012222Y012557D02*
X012222Y012631D01*
X012259Y012667D01*
X012295Y012667D01*
X012442Y012520D01*
X012442Y012667D01*
X012442Y012741D02*
X012442Y012852D01*
X012406Y012888D01*
X012369Y012888D01*
X012332Y012852D01*
X012332Y012741D01*
X012222Y012741D02*
X012222Y012852D01*
X012259Y012888D01*
X012295Y012888D01*
X012332Y012852D01*
X012442Y012741D02*
X012222Y012741D01*
X013222Y012815D02*
X013295Y012888D01*
X013442Y012888D01*
X013332Y012888D02*
X013332Y012741D01*
X013295Y012741D02*
X013222Y012815D01*
X013295Y012741D02*
X013442Y012741D01*
X013442Y012667D02*
X013442Y012520D01*
X013295Y012667D01*
X013259Y012667D01*
X013222Y012631D01*
X013222Y012557D01*
X013259Y012520D01*
X014222Y012594D02*
X014442Y012594D01*
X014442Y012667D02*
X014442Y012520D01*
X014295Y012520D02*
X014222Y012594D01*
X014295Y012741D02*
X014222Y012815D01*
X014295Y012888D01*
X014442Y012888D01*
X014332Y012888D02*
X014332Y012741D01*
X014295Y012741D02*
X014442Y012741D01*
X015222Y012741D02*
X015222Y012852D01*
X015259Y012888D01*
X015295Y012888D01*
X015332Y012852D01*
X015332Y012741D01*
X015442Y012741D02*
X015222Y012741D01*
X015222Y012594D02*
X015442Y012594D01*
X015442Y012667D02*
X015442Y012520D01*
X015295Y012520D02*
X015222Y012594D01*
X015442Y012741D02*
X015442Y012852D01*
X015406Y012888D01*
X015369Y012888D01*
X015332Y012852D01*
X016222Y012852D02*
X016222Y012741D01*
X016442Y012741D01*
X016442Y012852D01*
X016406Y012888D01*
X016259Y012888D01*
X016222Y012852D01*
X016259Y012667D02*
X016222Y012631D01*
X016222Y012520D01*
X016442Y012520D01*
X016442Y012631D01*
X016406Y012667D01*
X016259Y012667D01*
X016222Y012446D02*
X016369Y012446D01*
X016442Y012373D01*
X016369Y012299D01*
X016222Y012299D01*
X017222Y012336D02*
X017259Y012299D01*
X017406Y012299D01*
X017442Y012336D01*
X017442Y012410D01*
X017406Y012446D01*
X017332Y012446D01*
X017332Y012373D01*
X017259Y012446D02*
X017222Y012410D01*
X017222Y012336D01*
X017222Y012520D02*
X017442Y012667D01*
X017222Y012667D01*
X017222Y012741D02*
X017222Y012852D01*
X017259Y012888D01*
X017406Y012888D01*
X017442Y012852D01*
X017442Y012741D01*
X017222Y012741D01*
X017222Y012520D02*
X017442Y012520D01*
X017462Y015281D02*
X017462Y015391D01*
X017499Y015428D01*
X017646Y015428D01*
X017683Y015391D01*
X017683Y015281D01*
X017462Y015281D01*
X017462Y015502D02*
X017462Y015576D01*
X017462Y015539D02*
X017683Y015539D01*
X017683Y015502D02*
X017683Y015576D01*
X017683Y015650D02*
X017462Y015650D01*
X017462Y015760D01*
X017499Y015796D01*
X017572Y015796D01*
X017609Y015760D01*
X017609Y015650D01*
X017609Y015723D02*
X017683Y015796D01*
X016592Y009772D02*
X016629Y009735D01*
X016629Y009625D01*
X016702Y009625D02*
X016482Y009625D01*
X016482Y009735D01*
X016519Y009772D01*
X016592Y009772D01*
X016482Y009551D02*
X016482Y009404D01*
X016702Y009404D01*
X016702Y009551D01*
X016592Y009478D02*
X016592Y009404D01*
X016482Y009330D02*
X016482Y009183D01*
X016482Y009257D02*
X016702Y009257D01*
X016666Y009109D02*
X016702Y009073D01*
X016702Y008999D01*
X016666Y008962D01*
X016592Y008999D02*
X016592Y009073D01*
X016629Y009109D01*
X016666Y009109D01*
X016592Y008999D02*
X016555Y008962D01*
X016519Y008962D01*
X016482Y008999D01*
X016482Y009073D01*
X016519Y009109D01*
X015702Y009073D02*
X015702Y008999D01*
X015666Y008962D01*
X015592Y008999D02*
X015592Y009073D01*
X015629Y009109D01*
X015666Y009109D01*
X015702Y009073D01*
X015702Y009183D02*
X015482Y009183D01*
X015519Y009109D02*
X015482Y009073D01*
X015482Y008999D01*
X015519Y008962D01*
X015555Y008962D01*
X015592Y008999D01*
X015702Y009183D02*
X015702Y009330D01*
X015702Y009404D02*
X015482Y009404D01*
X015482Y009514D01*
X015519Y009551D01*
X015592Y009551D01*
X015629Y009514D01*
X015629Y009404D01*
X014702Y009478D02*
X014482Y009478D01*
X014482Y009551D02*
X014482Y009404D01*
X014519Y009330D02*
X014482Y009294D01*
X014482Y009220D01*
X014519Y009183D01*
X014555Y009183D01*
X014592Y009220D01*
X014592Y009294D01*
X014629Y009330D01*
X014666Y009330D01*
X014702Y009294D01*
X014702Y009220D01*
X014666Y009183D01*
X014702Y009109D02*
X014629Y009036D01*
X014629Y009073D02*
X014629Y008962D01*
X014702Y008962D02*
X014482Y008962D01*
X014482Y009073D01*
X014519Y009109D01*
X014592Y009109D01*
X014629Y009073D01*
X013702Y009109D02*
X013482Y009109D01*
X013555Y009036D01*
X013482Y008962D01*
X013702Y008962D01*
X013666Y009183D02*
X013702Y009220D01*
X013702Y009294D01*
X013666Y009330D01*
X013629Y009330D01*
X013592Y009294D01*
X013592Y009220D01*
X013555Y009183D01*
X013519Y009183D01*
X013482Y009220D01*
X013482Y009294D01*
X013519Y009330D01*
X013519Y009404D02*
X013482Y009441D01*
X013482Y009514D01*
X013519Y009551D01*
X013555Y009551D01*
X013592Y009514D01*
X013629Y009551D01*
X013666Y009551D01*
X013702Y009514D01*
X013702Y009441D01*
X013666Y009404D01*
X013592Y009478D02*
X013592Y009514D01*
X012702Y009551D02*
X012702Y009404D01*
X012555Y009551D01*
X012519Y009551D01*
X012482Y009514D01*
X012482Y009441D01*
X012519Y009404D01*
X012519Y009330D02*
X012482Y009294D01*
X012482Y009220D01*
X012519Y009183D01*
X012555Y009183D01*
X012592Y009220D01*
X012592Y009294D01*
X012629Y009330D01*
X012666Y009330D01*
X012702Y009294D01*
X012702Y009220D01*
X012666Y009183D01*
X012702Y009109D02*
X012482Y009109D01*
X012555Y009036D01*
X012482Y008962D01*
X012702Y008962D01*
X011702Y008962D02*
X011482Y008962D01*
X011555Y009036D01*
X011482Y009109D01*
X011702Y009109D01*
X011666Y009183D02*
X011702Y009220D01*
X011702Y009294D01*
X011666Y009330D01*
X011629Y009330D01*
X011592Y009294D01*
X011592Y009220D01*
X011555Y009183D01*
X011519Y009183D01*
X011482Y009220D01*
X011482Y009294D01*
X011519Y009330D01*
X011555Y009404D02*
X011482Y009478D01*
X011702Y009478D01*
X011702Y009551D02*
X011702Y009404D01*
X010702Y009330D02*
X010482Y009330D01*
X010482Y009183D02*
X010702Y009330D01*
X010702Y009183D02*
X010482Y009183D01*
X010482Y009109D02*
X010482Y008962D01*
X010702Y008962D01*
X010702Y009109D01*
X010592Y009036D02*
X010592Y008962D01*
X017482Y009073D02*
X017482Y008962D01*
X017702Y008962D01*
X017702Y009073D01*
X017666Y009109D01*
X017519Y009109D01*
X017482Y009073D01*
X017482Y009183D02*
X017482Y009257D01*
X017482Y009220D02*
X017702Y009220D01*
X017702Y009183D02*
X017702Y009257D01*
X017702Y009331D02*
X017482Y009331D01*
X017482Y009441D01*
X017519Y009478D01*
X017592Y009478D01*
X017629Y009441D01*
X017629Y009331D01*
X017629Y009404D02*
X017702Y009478D01*
D21*
X002510Y014120D02*
X002510Y014145D01*
X002485Y014170D01*
X002360Y014170D01*
X002360Y014145D02*
X002360Y014195D01*
X002360Y014243D02*
X002360Y014318D01*
X002385Y014343D01*
X002435Y014343D01*
X002460Y014318D01*
X002460Y014243D01*
X002510Y014243D02*
X002360Y014243D01*
X002385Y014390D02*
X002360Y014415D01*
X002360Y014465D01*
X002385Y014490D01*
X002410Y014490D01*
X002510Y014390D01*
X002510Y014490D01*
X002510Y014120D02*
X002485Y014095D01*
X009866Y023457D02*
X010016Y023558D01*
X010016Y023605D02*
X010016Y023680D01*
X009991Y023705D01*
X009966Y023705D01*
X009941Y023680D01*
X009941Y023605D01*
X009941Y023680D02*
X009916Y023705D01*
X009891Y023705D01*
X009866Y023680D01*
X009866Y023605D01*
X010016Y023605D01*
X010016Y023752D02*
X010016Y023852D01*
X010016Y023899D02*
X010016Y023999D01*
X009941Y023949D02*
X009941Y023899D01*
X009866Y023899D02*
X010016Y023899D01*
X009941Y023802D02*
X009941Y023752D01*
X009866Y023752D02*
X010016Y023752D01*
X009866Y023752D02*
X009866Y023852D01*
X009866Y023899D02*
X009866Y023999D01*
X009866Y023558D02*
X010016Y023457D01*
X010366Y023457D02*
X010516Y023558D01*
X010516Y023605D02*
X010516Y023680D01*
X010491Y023705D01*
X010466Y023705D01*
X010441Y023680D01*
X010441Y023605D01*
X010441Y023680D02*
X010416Y023705D01*
X010391Y023705D01*
X010366Y023680D01*
X010366Y023605D01*
X010516Y023605D01*
X010516Y023752D02*
X010516Y023852D01*
X010516Y023899D02*
X010516Y023999D01*
X010441Y024047D02*
X010441Y024147D01*
X010416Y024194D02*
X010366Y024244D01*
X010516Y024244D01*
X010516Y024194D02*
X010516Y024294D01*
X010516Y024341D02*
X010516Y024416D01*
X010491Y024441D01*
X010466Y024441D01*
X010441Y024416D01*
X010441Y024341D01*
X010366Y024341D02*
X010366Y024416D01*
X010391Y024441D01*
X010416Y024441D01*
X010441Y024416D01*
X010416Y024489D02*
X010366Y024539D01*
X010516Y024539D01*
X010516Y024489D02*
X010516Y024589D01*
X010516Y024341D02*
X010366Y024341D01*
X010366Y023999D02*
X010366Y023899D01*
X010516Y023899D01*
X010441Y023899D02*
X010441Y023949D01*
X010366Y023852D02*
X010366Y023752D01*
X010516Y023752D01*
X010441Y023752D02*
X010441Y023802D01*
X010366Y023558D02*
X010516Y023457D01*
X015470Y028004D02*
X015495Y027979D01*
X015545Y027979D01*
X015570Y028004D01*
X015570Y028105D01*
X015545Y028130D01*
X015495Y028130D01*
X015470Y028105D01*
X015470Y028004D01*
X015520Y028030D02*
X015570Y027979D01*
X015617Y027979D02*
X015717Y028080D01*
X015717Y028105D01*
X015692Y028130D01*
X015642Y028130D01*
X015617Y028105D01*
X015617Y027979D02*
X015717Y027979D01*
D22*
X003545Y027846D03*
X003545Y026149D03*
X003466Y024452D03*
X003466Y029543D03*
D23*
X013076Y001401D03*
X013076Y000929D03*
D24*
X013075Y005124D03*
M02*
