%
M48
M72
T01C0.0197
T02C0.0236
T03C0.0315
T04C0.0320
T05C0.0354
T06C0.0360
T07C0.0394
T08C0.0400
T09C0.0472
T10C0.1181
T11C0.1260
%
T01
X28015Y20324
X19415Y30674
T02
X23415Y26574
X24915Y27074
X26415Y25474
X27415Y25124
X28415Y26674
X29915Y24074
X31615Y25124
X31915Y22724
X36365Y22724
X40415Y24074
X35415Y26874
X35915Y18024
X31415Y9874
X30165Y7924
X30815Y5974
X33165Y6574
X33715Y5574
X33315Y4574
X29915Y2074
X24415Y5974
X25415Y6574
X27515Y6574
X23415Y5574
X20965Y8024
X19465Y8024
X18465Y9024
X19315Y9174
X21015Y10724
X21915Y11324
X23365Y9574
X22915Y8574
X16915Y5074
X14265Y7117
X12465Y5074
X12545Y10220
X13332Y11008
X14120Y11795
X18265Y14274
X19565Y14924
X21365Y13874
X23915Y17574
X23115Y18024
X20565Y18524
X19715Y18524
X14710Y18094
X13923Y17307
X12742Y16519
X9915Y15574
X5705Y19416
X5765Y23474
X6443Y25331
X8214Y25028
X9815Y25974
X10515Y26574
X10970Y27346
X12065Y25674
X14315Y23574
X20015Y22674
X22915Y23324
X24015Y22724
X23415Y25074
X22115Y25124
X12954Y28921
X7427Y29111
X3096Y25378
X5705Y8195
X33915Y9274
X37815Y5574
X37315Y5274
X37515Y4574
X40715Y8924
T03
X10234Y22622
X9446Y22622
X8659Y22622
X7872Y22622
X7084Y22622
X6297Y22622
X5509Y22622
X4722Y22622
X3935Y22622
X3147Y22622
X3147Y31283
X3935Y31283
X4722Y31283
X5509Y31283
X6297Y31283
X7084Y31283
X7872Y31283
X8659Y31283
X9446Y31283
X10234Y31283
T04
X15230Y25824
X15730Y25074
X14730Y25074
T05
X36415Y10074
X35415Y10074
X34415Y10074
X33415Y10074
X32415Y10074
X32415Y11074
X33415Y11074
X34415Y11074
X35415Y11074
X36415Y11074
X30415Y11074
X30415Y10074
X29415Y10074
X28415Y10074
X27415Y10074
X27415Y11074
X28415Y11074
X29415Y11074
X17462Y13452
X16462Y13452
X15462Y13452
X14462Y13452
X13462Y13452
X12462Y13452
X11462Y13452
X10462Y13452
X10443Y14771
X11443Y14771
X12443Y14771
X13443Y14771
X14443Y14771
X15443Y14771
X16443Y14771
X17443Y14771
X17443Y19771
X16443Y19771
X15443Y19771
X14443Y19771
X13443Y19771
X12443Y19771
X11443Y19771
X10443Y19771
X10462Y8452
X11462Y8452
X12462Y8452
X13462Y8452
X14462Y8452
X15462Y8452
X16462Y8452
X17462Y8452
T06
X6886Y6364
X5886Y6364
X15452Y28952
X15452Y29952
X15452Y30952
X17437Y30952
X17437Y29952
X17437Y28952
T07
X37915Y2106
X36915Y2106
X35915Y2106
X34915Y2106
X33915Y2106
X32915Y2106
X31915Y2106
X30915Y2106
X28915Y2106
X27915Y2106
X26915Y2106
X25915Y2106
X24915Y2106
X23915Y2106
X22915Y2106
X21915Y2106
X19915Y2106
X18915Y2106
X17915Y2106
X16915Y2106
X15915Y2106
X14915Y2106
X3484Y4905
X3484Y6283
X11315Y21106
X12315Y21106
X13315Y21106
X14315Y21106
X15315Y21106
X16315Y21106
X17315Y21106
X18315Y21106
X19915Y21106
X20915Y21106
X21915Y21106
X22915Y21106
X23915Y21106
X24915Y21106
X25915Y21106
X26915Y21106
X28915Y21106
X29915Y21106
X30915Y21106
X31915Y21106
X32915Y21106
X33915Y21106
X34915Y21106
X35915Y21106
X38915Y21106
X39915Y21106
X39915Y20106
X38915Y20106
X38915Y19106
X39915Y19106
X39915Y18106
X38915Y18106
X38915Y17106
X39915Y17106
X39915Y16106
X38915Y16106
X38915Y15106
X39915Y15106
X39915Y14106
X38915Y14106
X38915Y13106
X39915Y13106
X39915Y12106
X38915Y12106
X38915Y11106
X39915Y11106
X39915Y10106
X38915Y10106
X38915Y9106
X39915Y9106
X39915Y8106
X38915Y8106
X38915Y7106
X39915Y7106
X39915Y6106
X38915Y6106
X38915Y5106
X39915Y5106
X39915Y4106
X38915Y4106
T08
X33915Y14074
X33915Y15074
X33915Y16074
X33915Y17074
X30915Y16074
X29915Y16074
X29915Y15074
X30915Y15074
X30915Y14074
X29915Y14074
X28915Y14074
X27915Y14074
X27915Y15074
X28915Y15074
X28915Y16074
X27915Y16074
X25915Y16074
X24915Y16074
X24915Y15074
X25915Y15074
X23915Y15074
X22915Y15074
X22915Y16074
X23915Y16074
X18411Y17665
X17411Y17665
X16411Y17665
X16411Y18665
X17411Y18665
X18411Y18665
X18331Y25021
X19331Y25021
X19331Y26021
X18331Y26021
X18331Y27021
X19331Y27021
X20915Y29574
X21915Y29574
X22915Y29574
X23915Y29574
X24915Y29574
X25915Y29574
X26915Y29574
X27915Y29574
X28915Y29574
X29915Y29574
X30915Y29574
X31915Y29574
X32915Y29574
X33915Y29574
X34915Y29574
X35915Y29574
X36915Y29574
X37915Y29574
X38915Y29574
X39915Y29574
X39915Y30574
X38915Y30574
X37915Y30574
X36915Y30574
X35915Y30574
X34915Y30574
X33915Y30574
X32915Y30574
X31915Y30574
X30915Y30574
X29915Y30574
X28915Y30574
X27915Y30574
X26915Y30574
X25915Y30574
X24915Y30574
X23915Y30574
X22915Y30574
X21915Y30574
X20915Y30574
X6265Y21424
X4365Y18140
X4365Y17140
X4365Y16140
X4365Y15140
X4315Y11743
X4315Y10743
X4315Y9743
X4315Y8743
X8985Y3314
X8985Y1534
X11545Y1534
X11545Y3314
X16431Y11346
X17431Y11346
X18431Y11346
X18431Y12346
X17431Y12346
X16431Y12346
X5115Y30174
T09
X3515Y18724
X3515Y17346
X3515Y15968
X3515Y14590
X3515Y12330
X3515Y10952
X3515Y9574
X3515Y8197
T10
X3946Y3752
X6269Y3752
X5088Y1901
T11
X39915Y2106
X7915Y21106
X11915Y30574
X39915Y27574
X7415Y2106
M30
