G75*
G70*
%OFA0B0*%
%FSLAX24Y24*%
%IPPOS*%
%LPD*%
%AMOC8*
5,1,8,0,0,1.08239X$1,22.5*
%
%ADD10C,0.0160*%
%ADD11C,0.0000*%
%ADD12C,0.0600*%
%ADD13C,0.0594*%
%ADD14R,0.0472X0.0472*%
%ADD15R,0.0630X0.1378*%
%ADD16OC8,0.0600*%
%ADD17R,0.0591X0.0512*%
%ADD18OC8,0.0560*%
%ADD19C,0.0554*%
%ADD20R,0.0512X0.0591*%
%ADD21R,0.1378X0.0630*%
%ADD22R,0.0866X0.0787*%
%ADD23C,0.1890*%
%ADD24C,0.0560*%
%ADD25R,0.0472X0.0118*%
%ADD26OC8,0.0520*%
%ADD27R,0.0800X0.0800*%
%ADD28C,0.0800*%
%ADD29C,0.0860*%
%ADD30C,0.0740*%
%ADD31R,0.2441X0.2126*%
%ADD32R,0.0630X0.0394*%
%ADD33OC8,0.0760*%
%ADD34R,0.0394X0.0551*%
%ADD35C,0.0320*%
%ADD36C,0.0591*%
%ADD37C,0.0827*%
%ADD38C,0.0197*%
%ADD39C,0.0400*%
%ADD40C,0.0180*%
%ADD41C,0.0236*%
%ADD42C,0.0433*%
%ADD43C,0.0356*%
%ADD44C,0.0500*%
%ADD45C,0.0860*%
%ADD46C,0.0660*%
%ADD47C,0.0060*%
%ADD48C,0.0160*%
%ADD49C,0.0240*%
%ADD50C,0.0400*%
D10*
X001915Y001362D02*
X002702Y000574D01*
X040498Y000574D01*
X041285Y001362D01*
X041285Y031283D01*
X040498Y032071D01*
X002702Y032071D01*
X001915Y031283D01*
X001915Y001362D01*
X002708Y001135D02*
X002868Y000974D01*
X004449Y000974D01*
X004436Y000982D01*
X004337Y001061D01*
X004248Y001151D01*
X004169Y001249D01*
X004102Y001356D01*
X004047Y001470D01*
X004006Y001589D01*
X003977Y001713D01*
X003965Y001821D01*
X005008Y001821D01*
X005008Y001981D01*
X003965Y001981D01*
X003977Y002090D01*
X003996Y002170D01*
X002708Y001135D01*
X002800Y001209D02*
X004202Y001209D01*
X004097Y001367D02*
X002997Y001367D01*
X003194Y001526D02*
X004028Y001526D01*
X003984Y001684D02*
X003391Y001684D01*
X003589Y001843D02*
X005008Y001843D01*
X005065Y001924D02*
X005865Y001124D01*
X007915Y001124D01*
X008365Y001574D01*
X008365Y002674D01*
X008965Y003274D01*
X008965Y003270D02*
X009005Y003270D01*
X009005Y003294D02*
X009005Y002764D01*
X009028Y002764D01*
X009114Y002778D01*
X009196Y002805D01*
X009273Y002844D01*
X009343Y002895D01*
X009404Y002956D01*
X009455Y003026D01*
X009495Y003103D01*
X009521Y003186D01*
X009535Y003271D01*
X009535Y003294D01*
X009005Y003294D01*
X008965Y003294D01*
X008965Y002764D01*
X008942Y002764D01*
X008856Y002778D01*
X008774Y002805D01*
X008697Y002844D01*
X008627Y002895D01*
X008565Y002956D01*
X008515Y003026D01*
X008475Y003103D01*
X008449Y003186D01*
X008435Y003271D01*
X008435Y003294D01*
X008965Y003294D01*
X008965Y003334D01*
X008435Y003334D01*
X008435Y003358D01*
X008449Y003443D01*
X008475Y003526D01*
X008515Y003603D01*
X008565Y003673D01*
X008627Y003734D01*
X008697Y003785D01*
X008774Y003824D01*
X008856Y003851D01*
X008942Y003864D01*
X008965Y003864D01*
X008965Y003335D01*
X009005Y003335D01*
X009005Y003864D01*
X009028Y003864D01*
X009114Y003851D01*
X009196Y003824D01*
X009273Y003785D01*
X009343Y003734D01*
X009404Y003673D01*
X009455Y003603D01*
X009495Y003526D01*
X009521Y003443D01*
X009535Y003358D01*
X009535Y003334D01*
X009005Y003334D01*
X009005Y003294D01*
X009005Y003428D02*
X008965Y003428D01*
X008965Y003587D02*
X009005Y003587D01*
X009005Y003745D02*
X008965Y003745D01*
X008642Y003745D02*
X007534Y003745D01*
X007534Y003587D02*
X008506Y003587D01*
X008446Y003428D02*
X007492Y003428D01*
X007534Y003585D02*
X007534Y003918D01*
X007448Y004240D01*
X007281Y004528D01*
X007124Y004685D01*
X008359Y005678D01*
X008359Y005487D01*
X008347Y005426D01*
X008359Y005369D01*
X008359Y005311D01*
X008383Y005253D01*
X008395Y005192D01*
X008428Y005144D01*
X008450Y005091D01*
X008494Y005046D01*
X008534Y004988D01*
X008556Y004935D01*
X008601Y004890D01*
X008636Y004838D01*
X008684Y004807D01*
X008725Y004766D01*
X008783Y004742D01*
X008835Y004707D01*
X008892Y004697D01*
X007139Y004697D01*
X007272Y004538D02*
X010394Y004538D01*
X010241Y004597D02*
X011478Y004126D01*
X011590Y004013D01*
X011590Y003966D01*
X011636Y003857D01*
X011588Y003864D01*
X011565Y003864D01*
X011565Y003335D01*
X011525Y003335D01*
X011525Y003864D01*
X011502Y003864D01*
X011416Y003851D01*
X011334Y003824D01*
X011257Y003785D01*
X011187Y003734D01*
X011125Y003673D01*
X011075Y003603D01*
X011035Y003526D01*
X011009Y003443D01*
X010995Y003358D01*
X010995Y003334D01*
X011525Y003334D01*
X011525Y003294D01*
X011565Y003294D01*
X011565Y002764D01*
X011588Y002764D01*
X011674Y002778D01*
X011756Y002805D01*
X011833Y002844D01*
X011903Y002895D01*
X011964Y002956D01*
X012015Y003026D01*
X012055Y003103D01*
X012081Y003186D01*
X012087Y003223D01*
X012169Y003141D01*
X012169Y002676D01*
X012169Y002449D01*
X012182Y002416D01*
X012182Y002184D01*
X012231Y002066D01*
X012321Y001976D01*
X012439Y001928D01*
X012977Y001928D01*
X012978Y001581D01*
X012760Y001581D01*
X012760Y001203D01*
X012684Y001203D01*
X012684Y001127D01*
X012306Y001127D01*
X012306Y000974D01*
X011961Y000974D01*
X012130Y001144D01*
X012235Y001397D01*
X012235Y001672D01*
X012130Y001925D01*
X011936Y002119D01*
X011682Y002224D01*
X011408Y002224D01*
X011154Y002119D01*
X010960Y001925D01*
X010855Y001672D01*
X010855Y001397D01*
X010960Y001144D01*
X011129Y000974D01*
X009401Y000974D01*
X009570Y001144D01*
X009675Y001397D01*
X009675Y001672D01*
X009570Y001925D01*
X009376Y002119D01*
X009122Y002224D01*
X008848Y002224D01*
X008594Y002119D01*
X008400Y001925D01*
X008295Y001672D01*
X008295Y001397D01*
X008400Y001144D01*
X008569Y000974D01*
X005727Y000974D01*
X005740Y000982D01*
X005839Y001061D01*
X005928Y001151D01*
X006007Y001249D01*
X006074Y001356D01*
X006129Y001470D01*
X006171Y001589D01*
X006199Y001713D01*
X006211Y001821D01*
X005168Y001821D01*
X005168Y001981D01*
X006211Y001981D01*
X006199Y002090D01*
X006171Y002213D01*
X006129Y002332D01*
X006074Y002446D01*
X006038Y002504D01*
X006103Y002487D01*
X006436Y002487D01*
X006558Y002520D01*
X006465Y002295D01*
X006465Y001917D01*
X006610Y001568D01*
X006877Y001301D01*
X007226Y001156D01*
X007604Y001156D01*
X007953Y001301D01*
X008220Y001568D01*
X008365Y001917D01*
X008365Y002295D01*
X008220Y002644D01*
X007953Y002911D01*
X007604Y003056D01*
X007328Y003056D01*
X007448Y003263D01*
X007534Y003585D01*
X007534Y003904D02*
X011616Y003904D01*
X011565Y003745D02*
X011525Y003745D01*
X011525Y003587D02*
X011565Y003587D01*
X011565Y003428D02*
X011525Y003428D01*
X011525Y003294D02*
X010995Y003294D01*
X010995Y003271D01*
X011009Y003186D01*
X011035Y003103D01*
X011075Y003026D01*
X011125Y002956D01*
X011187Y002895D01*
X011257Y002844D01*
X011334Y002805D01*
X011416Y002778D01*
X011502Y002764D01*
X011525Y002764D01*
X011525Y003294D01*
X011525Y003270D02*
X011565Y003270D01*
X011565Y003111D02*
X011525Y003111D01*
X011525Y002953D02*
X011565Y002953D01*
X011565Y002794D02*
X011525Y002794D01*
X011367Y002794D02*
X009163Y002794D01*
X009005Y002794D02*
X008965Y002794D01*
X008807Y002794D02*
X008070Y002794D01*
X008224Y002636D02*
X012169Y002636D01*
X012169Y002794D02*
X011723Y002794D01*
X011961Y002953D02*
X012169Y002953D01*
X012169Y003111D02*
X012057Y003111D01*
X012169Y002477D02*
X008289Y002477D01*
X008355Y002318D02*
X012182Y002318D01*
X012192Y002160D02*
X011838Y002160D01*
X012054Y002001D02*
X012296Y002001D01*
X012164Y001843D02*
X012977Y001843D01*
X012978Y001684D02*
X012230Y001684D01*
X012235Y001526D02*
X012356Y001526D01*
X012342Y001512D02*
X012318Y001471D01*
X012306Y001425D01*
X012306Y001203D01*
X012684Y001203D01*
X012684Y001581D01*
X012462Y001581D01*
X012416Y001569D01*
X012375Y001545D01*
X012342Y001512D01*
X012306Y001367D02*
X012222Y001367D01*
X012157Y001209D02*
X012306Y001209D01*
X012306Y001050D02*
X012036Y001050D01*
X012684Y001209D02*
X012760Y001209D01*
X012722Y001165D02*
X012722Y001267D01*
X012684Y001367D02*
X012760Y001367D01*
X012760Y001526D02*
X012684Y001526D01*
X011252Y002160D02*
X009278Y002160D01*
X009494Y002001D02*
X011036Y002001D01*
X010926Y001843D02*
X009604Y001843D01*
X009670Y001684D02*
X010860Y001684D01*
X010855Y001526D02*
X009675Y001526D01*
X009662Y001367D02*
X010867Y001367D01*
X010933Y001209D02*
X009597Y001209D01*
X009476Y001050D02*
X011054Y001050D01*
X011129Y002953D02*
X009401Y002953D01*
X009497Y003111D02*
X011033Y003111D01*
X010995Y003270D02*
X009535Y003270D01*
X009524Y003428D02*
X011006Y003428D01*
X011066Y003587D02*
X009463Y003587D01*
X009328Y003745D02*
X011202Y003745D01*
X011541Y004062D02*
X007496Y004062D01*
X007453Y004221D02*
X011228Y004221D01*
X010811Y004380D02*
X007367Y004380D01*
X007336Y004855D02*
X008625Y004855D01*
X008517Y005014D02*
X007533Y005014D01*
X007730Y005172D02*
X008409Y005172D01*
X008359Y005331D02*
X007927Y005331D01*
X008125Y005489D02*
X008359Y005489D01*
X008359Y005648D02*
X008322Y005648D01*
X008892Y004697D02*
X008946Y004674D01*
X009008Y004674D01*
X009070Y004663D01*
X009126Y004674D01*
X009408Y004674D01*
X009438Y004645D01*
X009555Y004597D01*
X010241Y004597D01*
X011269Y005489D02*
X013559Y005489D01*
X013559Y005331D02*
X011685Y005331D01*
X011921Y005241D02*
X010805Y005666D01*
X010805Y005768D01*
X010756Y005885D01*
X010666Y005975D01*
X010631Y005990D01*
X010653Y006028D01*
X010665Y006074D01*
X010665Y006411D01*
X010132Y006411D01*
X010132Y006571D01*
X010665Y006571D01*
X010665Y006909D01*
X010653Y006955D01*
X010629Y006996D01*
X010596Y007029D01*
X010554Y007053D01*
X010509Y007065D01*
X010132Y007065D01*
X010132Y006572D01*
X009972Y006572D01*
X009972Y006974D01*
X010721Y007577D01*
X010778Y007520D01*
X010932Y007456D01*
X011114Y007456D01*
X011109Y007436D01*
X011109Y007165D01*
X011496Y007165D01*
X011496Y007069D01*
X011109Y007069D01*
X011109Y006798D01*
X011121Y006753D01*
X011145Y006712D01*
X011178Y006678D01*
X011219Y006654D01*
X011265Y006642D01*
X011496Y006642D01*
X011496Y007069D01*
X011592Y007069D01*
X011592Y006642D01*
X011686Y006642D01*
X011687Y006641D01*
X011777Y006551D01*
X011894Y006502D01*
X012533Y006502D01*
X012570Y006517D01*
X014124Y006517D01*
X014134Y006507D01*
X013815Y006507D01*
X013697Y006459D01*
X013607Y006369D01*
X013559Y006251D01*
X013559Y003998D01*
X013580Y003947D01*
X012975Y003947D01*
X012860Y004062D01*
X012860Y004487D01*
X012811Y004605D01*
X012721Y004695D01*
X012604Y004744D01*
X012557Y004744D01*
X012313Y004987D01*
X012310Y004996D01*
X012229Y005072D01*
X012151Y005150D01*
X012142Y005153D01*
X012136Y005159D01*
X012032Y005199D01*
X011930Y005241D01*
X011921Y005241D01*
X012102Y005172D02*
X013559Y005172D01*
X013559Y005014D02*
X012290Y005014D01*
X012445Y004855D02*
X013559Y004855D01*
X013559Y004697D02*
X012717Y004697D01*
X012839Y004538D02*
X013559Y004538D01*
X013559Y004380D02*
X012860Y004380D01*
X012860Y004221D02*
X013559Y004221D01*
X013559Y004062D02*
X012860Y004062D01*
X012564Y005645D02*
X012610Y005658D01*
X012651Y005681D01*
X012684Y005715D01*
X012708Y005756D01*
X012720Y005802D01*
X012720Y006004D01*
X012244Y006004D01*
X012244Y006041D01*
X012207Y006041D01*
X012207Y006399D01*
X011886Y006399D01*
X011841Y006387D01*
X011800Y006363D01*
X011766Y006329D01*
X011743Y006288D01*
X011730Y006243D01*
X011730Y006041D01*
X012206Y006041D01*
X012206Y006004D01*
X011730Y006004D01*
X011730Y005802D01*
X011743Y005756D01*
X011766Y005715D01*
X011800Y005681D01*
X011841Y005658D01*
X011886Y005645D01*
X012207Y005645D01*
X012207Y006003D01*
X012244Y006003D01*
X012244Y005645D01*
X012564Y005645D01*
X012574Y005648D02*
X013559Y005648D01*
X013559Y005806D02*
X012720Y005806D01*
X012720Y005965D02*
X013559Y005965D01*
X013559Y006124D02*
X012720Y006124D01*
X012720Y006041D02*
X012720Y006243D01*
X012708Y006288D01*
X012684Y006329D01*
X012651Y006363D01*
X012610Y006387D01*
X012564Y006399D01*
X012244Y006399D01*
X012244Y006041D01*
X012720Y006041D01*
X012710Y006282D02*
X013572Y006282D01*
X013679Y006441D02*
X010132Y006441D01*
X010132Y006599D02*
X009972Y006599D01*
X009972Y006758D02*
X010132Y006758D01*
X010132Y006916D02*
X009972Y006916D01*
X010097Y007075D02*
X011496Y007075D01*
X011496Y006916D02*
X011592Y006916D01*
X011592Y006758D02*
X011496Y006758D01*
X011728Y006599D02*
X010665Y006599D01*
X010665Y006758D02*
X011119Y006758D01*
X011109Y006916D02*
X010663Y006916D01*
X010294Y007233D02*
X011109Y007233D01*
X011109Y007392D02*
X010491Y007392D01*
X010688Y007550D02*
X010747Y007550D01*
X010665Y006282D02*
X011741Y006282D01*
X011730Y006124D02*
X010665Y006124D01*
X010677Y005965D02*
X011730Y005965D01*
X011730Y005806D02*
X010789Y005806D01*
X010852Y005648D02*
X011877Y005648D01*
X012207Y005648D02*
X012244Y005648D01*
X012244Y005806D02*
X012207Y005806D01*
X012207Y005965D02*
X012244Y005965D01*
X012244Y006124D02*
X012207Y006124D01*
X012207Y006282D02*
X012244Y006282D01*
X012962Y008797D02*
X012800Y008959D01*
X012581Y009050D01*
X012553Y009050D01*
X016044Y011856D01*
X016054Y011846D01*
X015811Y011603D01*
X015811Y011089D01*
X016174Y010726D01*
X016687Y010726D01*
X016931Y010969D01*
X017174Y010726D01*
X017687Y010726D01*
X017931Y010969D01*
X018174Y010726D01*
X018687Y010726D01*
X019051Y011089D01*
X019051Y011405D01*
X019234Y011405D01*
X019262Y011338D01*
X019352Y011248D01*
X019353Y011248D01*
X019353Y011075D01*
X019780Y011075D01*
X019780Y010979D01*
X019353Y010979D01*
X019353Y010748D01*
X019365Y010702D01*
X019389Y010661D01*
X019423Y010627D01*
X019464Y010604D01*
X019509Y010591D01*
X019780Y010591D01*
X019780Y010979D01*
X019876Y010979D01*
X019876Y010591D01*
X020047Y010591D01*
X020047Y010091D01*
X020110Y009937D01*
X020228Y009820D01*
X020547Y009501D01*
X020547Y008310D01*
X020543Y008307D01*
X020467Y008124D01*
X020467Y007925D01*
X020543Y007742D01*
X020683Y007602D01*
X020866Y007526D01*
X021064Y007526D01*
X021247Y007602D01*
X021300Y007655D01*
X021300Y006956D01*
X021108Y006737D01*
X020466Y006046D01*
X020388Y005967D01*
X020383Y005957D01*
X020375Y005948D01*
X020337Y005844D01*
X020294Y005741D01*
X020294Y005730D01*
X020290Y005719D01*
X020294Y005608D01*
X020294Y002599D01*
X020264Y002629D01*
X020038Y002723D01*
X019792Y002723D01*
X019566Y002629D01*
X019392Y002455D01*
X019338Y002326D01*
X019323Y002356D01*
X019279Y002417D01*
X019226Y002470D01*
X019165Y002514D01*
X019098Y002548D01*
X019027Y002571D01*
X018952Y002583D01*
X018933Y002583D01*
X018933Y002125D01*
X018896Y002125D01*
X018896Y002583D01*
X018877Y002583D01*
X018803Y002571D01*
X018732Y002548D01*
X018665Y002514D01*
X018604Y002470D01*
X018551Y002417D01*
X018507Y002356D01*
X018473Y002289D01*
X018450Y002218D01*
X018438Y002144D01*
X018438Y002124D01*
X018896Y002124D01*
X018896Y002087D01*
X018438Y002087D01*
X018438Y002068D01*
X018450Y001994D01*
X018473Y001923D01*
X018507Y001856D01*
X018551Y001795D01*
X018566Y001780D01*
X018264Y001780D01*
X018279Y001795D01*
X018323Y001856D01*
X018357Y001923D01*
X018380Y001994D01*
X018392Y002068D01*
X018392Y002087D01*
X017934Y002087D01*
X017934Y002124D01*
X018392Y002124D01*
X018392Y002144D01*
X018380Y002218D01*
X018357Y002289D01*
X018323Y002356D01*
X018279Y002417D01*
X018226Y002470D01*
X018165Y002514D01*
X018098Y002548D01*
X018027Y002571D01*
X017952Y002583D01*
X017933Y002583D01*
X017933Y002125D01*
X017896Y002125D01*
X017896Y002583D01*
X017877Y002583D01*
X017803Y002571D01*
X017732Y002548D01*
X017665Y002514D01*
X017604Y002470D01*
X017572Y002437D01*
X017537Y002521D01*
X017330Y002728D01*
X017061Y002839D01*
X016769Y002839D01*
X016515Y002734D01*
X016515Y003774D01*
X017998Y003774D01*
X018049Y003763D01*
X018116Y003774D01*
X018184Y003774D01*
X018233Y003795D01*
X018284Y003803D01*
X018342Y003840D01*
X018405Y003866D01*
X018442Y003903D01*
X018486Y003931D01*
X018525Y003986D01*
X018574Y004035D01*
X018594Y004083D01*
X018770Y004333D01*
X019036Y004333D01*
X019154Y004382D01*
X019244Y004472D01*
X019293Y004590D01*
X019293Y005504D01*
X019244Y005622D01*
X019154Y005712D01*
X019118Y005727D01*
X019141Y005765D01*
X019153Y005811D01*
X019153Y006148D01*
X018620Y006148D01*
X018620Y006308D01*
X019153Y006308D01*
X019153Y006645D01*
X019141Y006691D01*
X019117Y006732D01*
X019083Y006766D01*
X019042Y006789D01*
X018997Y006802D01*
X018620Y006802D01*
X018620Y006308D01*
X018460Y006308D01*
X018460Y006802D01*
X018083Y006802D01*
X018037Y006789D01*
X017996Y006766D01*
X017963Y006732D01*
X017939Y006691D01*
X017927Y006645D01*
X017927Y006308D01*
X018460Y006308D01*
X018460Y006148D01*
X017927Y006148D01*
X017927Y005811D01*
X017939Y005765D01*
X017961Y005727D01*
X017925Y005712D01*
X017835Y005622D01*
X017787Y005504D01*
X017787Y005021D01*
X017754Y004974D01*
X017435Y004974D01*
X017435Y005178D01*
X017356Y005369D01*
X017333Y005391D01*
X017333Y007351D01*
X017338Y007356D01*
X019298Y007356D01*
X019452Y007420D01*
X019537Y007504D01*
X019568Y007504D01*
X019759Y007584D01*
X019906Y007730D01*
X019985Y007921D01*
X019985Y008128D01*
X019906Y008319D01*
X019759Y008465D01*
X019568Y008544D01*
X019361Y008544D01*
X019170Y008465D01*
X019024Y008319D01*
X018972Y008193D01*
X018001Y008193D01*
X018059Y008334D01*
X018059Y008571D01*
X018045Y008606D01*
X018148Y008606D01*
X018170Y008584D01*
X018361Y008504D01*
X018568Y008504D01*
X018759Y008584D01*
X018906Y008730D01*
X018940Y008814D01*
X019020Y008734D01*
X019211Y008654D01*
X019418Y008654D01*
X019609Y008734D01*
X019756Y008880D01*
X019835Y009071D01*
X019835Y009278D01*
X019756Y009469D01*
X019609Y009615D01*
X019418Y009694D01*
X019387Y009694D01*
X019152Y009929D01*
X018998Y009993D01*
X018832Y009993D01*
X016832Y009993D01*
X016678Y009929D01*
X016560Y009811D01*
X015735Y008986D01*
X015581Y009050D01*
X015343Y009050D01*
X015124Y008959D01*
X015036Y008871D01*
X014888Y008871D01*
X014800Y008959D01*
X014581Y009050D01*
X014343Y009050D01*
X014124Y008959D01*
X013962Y008797D01*
X013800Y008959D01*
X013581Y009050D01*
X013343Y009050D01*
X013124Y008959D01*
X012962Y008797D01*
X012940Y008819D02*
X012984Y008819D01*
X013169Y008977D02*
X012756Y008977D01*
X012660Y009136D02*
X015885Y009136D01*
X016043Y009294D02*
X012858Y009294D01*
X013055Y009453D02*
X016202Y009453D01*
X016360Y009611D02*
X013252Y009611D01*
X013449Y009770D02*
X016519Y009770D01*
X016560Y009811D02*
X016560Y009811D01*
X016677Y009929D02*
X013646Y009929D01*
X013844Y010087D02*
X020048Y010087D01*
X020047Y010246D02*
X014041Y010246D01*
X014238Y010404D02*
X020047Y010404D01*
X020047Y010563D02*
X014435Y010563D01*
X014633Y010721D02*
X019360Y010721D01*
X019353Y010880D02*
X018841Y010880D01*
X019000Y011038D02*
X019780Y011038D01*
X019780Y010880D02*
X019876Y010880D01*
X019876Y010721D02*
X019780Y010721D01*
X019353Y011197D02*
X019051Y011197D01*
X019051Y011355D02*
X019255Y011355D01*
X018020Y010880D02*
X017841Y010880D01*
X017020Y010880D02*
X016841Y010880D01*
X016020Y010880D02*
X014830Y010880D01*
X015027Y011038D02*
X015862Y011038D01*
X015811Y011197D02*
X015224Y011197D01*
X015421Y011355D02*
X015811Y011355D01*
X015811Y011514D02*
X015619Y011514D01*
X015816Y011673D02*
X015880Y011673D01*
X016013Y011831D02*
X016039Y011831D01*
X019153Y009929D02*
X020119Y009929D01*
X020278Y009770D02*
X019311Y009770D01*
X019613Y009611D02*
X020436Y009611D01*
X020547Y009453D02*
X019762Y009453D01*
X019828Y009294D02*
X020547Y009294D01*
X020547Y009136D02*
X019835Y009136D01*
X019796Y008977D02*
X020547Y008977D01*
X020547Y008819D02*
X019695Y008819D01*
X019432Y008660D02*
X020547Y008660D01*
X020547Y008502D02*
X019672Y008502D01*
X019882Y008343D02*
X020547Y008343D01*
X020492Y008185D02*
X019961Y008185D01*
X019985Y008026D02*
X020467Y008026D01*
X020491Y007867D02*
X019963Y007867D01*
X019885Y007709D02*
X020576Y007709D01*
X020808Y007550D02*
X019679Y007550D01*
X019385Y007392D02*
X021300Y007392D01*
X021300Y007550D02*
X021122Y007550D01*
X021300Y007233D02*
X017333Y007233D01*
X017333Y007075D02*
X021300Y007075D01*
X021265Y006916D02*
X017333Y006916D01*
X017333Y006758D02*
X017988Y006758D01*
X017927Y006599D02*
X017333Y006599D01*
X017333Y006441D02*
X017927Y006441D01*
X017927Y006124D02*
X017333Y006124D01*
X017333Y006282D02*
X018460Y006282D01*
X018460Y006441D02*
X018620Y006441D01*
X018620Y006599D02*
X018460Y006599D01*
X018460Y006758D02*
X018620Y006758D01*
X019091Y006758D02*
X021126Y006758D01*
X020980Y006599D02*
X019153Y006599D01*
X019153Y006441D02*
X020833Y006441D01*
X020686Y006282D02*
X018620Y006282D01*
X019153Y006124D02*
X020538Y006124D01*
X020387Y005965D02*
X019153Y005965D01*
X019152Y005806D02*
X020321Y005806D01*
X020293Y005648D02*
X019218Y005648D01*
X019293Y005489D02*
X020294Y005489D01*
X020294Y005331D02*
X019293Y005331D01*
X019293Y005172D02*
X020294Y005172D01*
X020294Y005014D02*
X019293Y005014D01*
X019293Y004855D02*
X020294Y004855D01*
X020294Y004697D02*
X019293Y004697D01*
X019271Y004538D02*
X020294Y004538D01*
X020294Y004380D02*
X019148Y004380D01*
X018691Y004221D02*
X020294Y004221D01*
X020294Y004062D02*
X018585Y004062D01*
X018443Y003904D02*
X020294Y003904D01*
X020294Y003745D02*
X016515Y003745D01*
X016515Y003587D02*
X020294Y003587D01*
X020294Y003428D02*
X016515Y003428D01*
X016515Y003270D02*
X020294Y003270D01*
X020294Y003111D02*
X016515Y003111D01*
X016515Y002953D02*
X020294Y002953D01*
X020294Y002794D02*
X017170Y002794D01*
X017422Y002636D02*
X019582Y002636D01*
X019414Y002477D02*
X019216Y002477D01*
X018933Y002477D02*
X018896Y002477D01*
X018896Y002318D02*
X018933Y002318D01*
X018933Y002160D02*
X018896Y002160D01*
X018614Y002477D02*
X018216Y002477D01*
X018342Y002318D02*
X018488Y002318D01*
X018441Y002160D02*
X018389Y002160D01*
X018381Y002001D02*
X018449Y002001D01*
X018517Y001843D02*
X018313Y001843D01*
X017933Y002160D02*
X017896Y002160D01*
X017896Y002318D02*
X017933Y002318D01*
X017933Y002477D02*
X017896Y002477D01*
X017614Y002477D02*
X017555Y002477D01*
X016660Y002794D02*
X016515Y002794D01*
X017435Y005014D02*
X017782Y005014D01*
X017787Y005172D02*
X017435Y005172D01*
X017372Y005331D02*
X017787Y005331D01*
X017787Y005489D02*
X017333Y005489D01*
X017333Y005648D02*
X017861Y005648D01*
X017928Y005806D02*
X017333Y005806D01*
X017333Y005965D02*
X017927Y005965D01*
X018059Y008343D02*
X019048Y008343D01*
X019258Y008502D02*
X018059Y008502D01*
X018836Y008660D02*
X019198Y008660D01*
X015169Y008977D02*
X014756Y008977D01*
X014169Y008977D02*
X013756Y008977D01*
X013940Y008819D02*
X013984Y008819D01*
X008435Y003270D02*
X007450Y003270D01*
X007360Y003111D02*
X008473Y003111D01*
X008569Y002953D02*
X007853Y002953D01*
X008365Y002160D02*
X008692Y002160D01*
X008476Y002001D02*
X008365Y002001D01*
X008366Y001843D02*
X008334Y001843D01*
X008300Y001684D02*
X008268Y001684D01*
X008295Y001526D02*
X008178Y001526D01*
X008307Y001367D02*
X008020Y001367D01*
X007731Y001209D02*
X008373Y001209D01*
X008494Y001050D02*
X005825Y001050D01*
X005975Y001209D02*
X007099Y001209D01*
X006810Y001367D02*
X006079Y001367D01*
X006149Y001526D02*
X006652Y001526D01*
X006561Y001684D02*
X006192Y001684D01*
X006209Y002001D02*
X006465Y002001D01*
X006465Y002160D02*
X006183Y002160D01*
X006134Y002318D02*
X006475Y002318D01*
X006540Y002477D02*
X006055Y002477D01*
X006496Y001843D02*
X005168Y001843D01*
X005168Y001981D02*
X005008Y001981D01*
X005008Y002984D01*
X005175Y003118D01*
X005233Y003017D01*
X005168Y003024D01*
X005168Y001981D01*
X005168Y002001D02*
X005008Y002001D01*
X005008Y002160D02*
X005168Y002160D01*
X005168Y002318D02*
X005008Y002318D01*
X005008Y002477D02*
X005168Y002477D01*
X005168Y002636D02*
X005008Y002636D01*
X005008Y002794D02*
X005168Y002794D01*
X005168Y002953D02*
X005008Y002953D01*
X005166Y003111D02*
X005178Y003111D01*
X003993Y002160D02*
X003983Y002160D01*
X003967Y002001D02*
X003786Y002001D01*
X004351Y001050D02*
X002792Y001050D01*
X008965Y002953D02*
X009005Y002953D01*
X009005Y003111D02*
X008965Y003111D01*
X020248Y002636D02*
X020294Y002636D01*
X021525Y001624D02*
X021566Y001583D01*
X021792Y001489D01*
X022038Y001489D01*
X022264Y001583D01*
X022415Y001734D01*
X022566Y001583D01*
X022792Y001489D01*
X023038Y001489D01*
X023264Y001583D01*
X023415Y001734D01*
X023566Y001583D01*
X023792Y001489D01*
X024038Y001489D01*
X024264Y001583D01*
X024415Y001734D01*
X024566Y001583D01*
X024792Y001489D01*
X025038Y001489D01*
X025264Y001583D01*
X025415Y001734D01*
X025566Y001583D01*
X025792Y001489D01*
X026038Y001489D01*
X026264Y001583D01*
X026415Y001734D01*
X026566Y001583D01*
X026792Y001489D01*
X027038Y001489D01*
X027264Y001583D01*
X027415Y001734D01*
X027566Y001583D01*
X027792Y001489D01*
X028038Y001489D01*
X028264Y001583D01*
X028415Y001734D01*
X028566Y001583D01*
X028792Y001489D01*
X029038Y001489D01*
X029264Y001583D01*
X029438Y001757D01*
X029532Y001983D01*
X029532Y002229D01*
X029438Y002455D01*
X029264Y002629D01*
X029038Y002723D01*
X028792Y002723D01*
X028566Y002629D01*
X028415Y002478D01*
X028264Y002629D01*
X028038Y002723D01*
X027792Y002723D01*
X027566Y002629D01*
X027415Y002478D01*
X027264Y002629D01*
X027038Y002723D01*
X026792Y002723D01*
X026566Y002629D01*
X026415Y002478D01*
X026315Y002578D01*
X026315Y009859D01*
X026826Y009348D01*
X026938Y009235D01*
X027085Y009174D01*
X027835Y009174D01*
X027995Y009174D01*
X028142Y009235D01*
X028381Y009474D01*
X028565Y009474D01*
X028576Y009448D01*
X028688Y009335D01*
X028850Y009174D01*
X028850Y007190D01*
X028261Y007190D01*
X028143Y007141D01*
X028053Y007051D01*
X028021Y006974D01*
X027819Y006974D01*
X027797Y006997D01*
X027614Y007073D01*
X027416Y007073D01*
X027233Y006997D01*
X027093Y006857D01*
X027017Y006674D01*
X027017Y006475D01*
X027093Y006292D01*
X027115Y006270D01*
X027115Y004895D01*
X027176Y004748D01*
X027288Y004635D01*
X027688Y004235D01*
X027835Y004174D01*
X027995Y004174D01*
X028021Y004174D01*
X028053Y004098D01*
X028143Y004008D01*
X028261Y003959D01*
X028900Y003959D01*
X029017Y004008D01*
X029107Y004098D01*
X029108Y004099D01*
X029202Y004099D01*
X029202Y004526D01*
X029298Y004526D01*
X029298Y004622D01*
X029685Y004622D01*
X029685Y004893D01*
X029673Y004939D01*
X029650Y004980D01*
X029616Y005014D01*
X029575Y005037D01*
X029529Y005050D01*
X029298Y005050D01*
X029298Y004623D01*
X029202Y004623D01*
X029202Y005050D01*
X029108Y005050D01*
X029107Y005051D01*
X029017Y005141D01*
X028900Y005190D01*
X028261Y005190D01*
X028143Y005141D01*
X028053Y005051D01*
X028039Y005016D01*
X027915Y005140D01*
X027915Y006174D01*
X028021Y006174D01*
X028053Y006098D01*
X028143Y006008D01*
X028261Y005959D01*
X028900Y005959D01*
X028915Y005965D01*
X028930Y005959D01*
X029569Y005959D01*
X029687Y006008D01*
X029777Y006098D01*
X029825Y006216D01*
X029825Y006933D01*
X029777Y007051D01*
X029687Y007141D01*
X029650Y007156D01*
X029650Y008974D01*
X031076Y007548D01*
X031188Y007435D01*
X031335Y007374D01*
X034149Y007374D01*
X034315Y007209D01*
X034315Y007190D01*
X033761Y007190D01*
X033643Y007141D01*
X033553Y007051D01*
X033515Y006960D01*
X033459Y007015D01*
X033268Y007094D01*
X033061Y007094D01*
X032870Y007015D01*
X032829Y006974D01*
X032809Y006974D01*
X032777Y007051D01*
X032687Y007141D01*
X032569Y007190D01*
X031930Y007190D01*
X031915Y007183D01*
X031900Y007190D01*
X031261Y007190D01*
X031143Y007141D01*
X031053Y007051D01*
X031004Y006933D01*
X031004Y006435D01*
X030914Y006473D01*
X030716Y006473D01*
X030533Y006397D01*
X030393Y006257D01*
X030317Y006074D01*
X030317Y005875D01*
X030393Y005692D01*
X030533Y005552D01*
X030715Y005477D01*
X030715Y005119D01*
X030715Y004960D01*
X030776Y004813D01*
X031004Y004585D01*
X031004Y004216D01*
X031053Y004098D01*
X031143Y004008D01*
X031261Y003959D01*
X031900Y003959D01*
X032017Y004008D01*
X032107Y004098D01*
X032108Y004099D01*
X032202Y004099D01*
X032202Y004526D01*
X032298Y004526D01*
X032298Y004622D01*
X032685Y004622D01*
X032685Y004838D01*
X032688Y004835D01*
X032835Y004774D01*
X032859Y004774D01*
X032817Y004674D01*
X032817Y004475D01*
X032893Y004292D01*
X033033Y004152D01*
X033216Y004076D01*
X033414Y004076D01*
X033540Y004129D01*
X033553Y004098D01*
X033643Y004008D01*
X033761Y003959D01*
X034400Y003959D01*
X034517Y004008D01*
X034607Y004098D01*
X034608Y004099D01*
X034702Y004099D01*
X034702Y004526D01*
X034798Y004526D01*
X034798Y004622D01*
X035185Y004622D01*
X035185Y004774D01*
X035349Y004774D01*
X035888Y004235D01*
X036035Y004174D01*
X036195Y004174D01*
X037211Y004174D01*
X037233Y004152D01*
X037416Y004076D01*
X037614Y004076D01*
X037797Y004152D01*
X037937Y004292D01*
X038013Y004475D01*
X038013Y004674D01*
X037937Y004857D01*
X037797Y004997D01*
X037748Y005017D01*
X037763Y005054D01*
X037918Y005054D01*
X038109Y005134D01*
X038256Y005280D01*
X038335Y005471D01*
X038335Y005678D01*
X038256Y005869D01*
X038109Y006015D01*
X037918Y006094D01*
X037861Y006094D01*
X035442Y008514D01*
X035295Y008574D01*
X035135Y008574D01*
X031681Y008574D01*
X030623Y009632D01*
X030865Y009874D01*
X030876Y009848D01*
X030895Y009829D01*
X030895Y009771D01*
X030974Y009580D01*
X031120Y009434D01*
X031311Y009354D01*
X031518Y009354D01*
X031709Y009434D01*
X031856Y009580D01*
X031916Y009725D01*
X032166Y009474D01*
X032663Y009474D01*
X032915Y009726D01*
X033166Y009474D01*
X033459Y009474D01*
X033417Y009374D01*
X033417Y009175D01*
X033493Y008992D01*
X033633Y008852D01*
X033816Y008776D01*
X034014Y008776D01*
X034197Y008852D01*
X034337Y008992D01*
X034413Y009175D01*
X034413Y009374D01*
X034371Y009474D01*
X034663Y009474D01*
X034915Y009726D01*
X035166Y009474D01*
X035663Y009474D01*
X035915Y009726D01*
X036166Y009474D01*
X036449Y009474D01*
X036515Y009409D01*
X036515Y009054D01*
X036515Y008895D01*
X036576Y008748D01*
X036976Y008348D01*
X037088Y008235D01*
X037235Y008174D01*
X038298Y008174D01*
X038298Y007983D01*
X038392Y007757D01*
X038543Y007606D01*
X038392Y007455D01*
X038298Y007229D01*
X038298Y006983D01*
X038392Y006757D01*
X038543Y006606D01*
X038392Y006455D01*
X038298Y006229D01*
X038298Y005983D01*
X038392Y005757D01*
X038543Y005606D01*
X038392Y005455D01*
X038298Y005229D01*
X038298Y004983D01*
X038392Y004757D01*
X038566Y004583D01*
X038695Y004529D01*
X038665Y004514D01*
X038604Y004470D01*
X038551Y004417D01*
X038507Y004356D01*
X038473Y004289D01*
X038450Y004218D01*
X038438Y004144D01*
X038438Y004124D01*
X038896Y004124D01*
X038896Y004087D01*
X038933Y004087D01*
X038933Y003629D01*
X038952Y003629D01*
X039027Y003641D01*
X039098Y003664D01*
X039165Y003698D01*
X039226Y003742D01*
X039279Y003795D01*
X039323Y003856D01*
X039357Y003923D01*
X039380Y003994D01*
X039392Y004068D01*
X039392Y004087D01*
X038934Y004087D01*
X038934Y004124D01*
X039392Y004124D01*
X039392Y004144D01*
X039380Y004218D01*
X039357Y004289D01*
X039323Y004356D01*
X039279Y004417D01*
X039226Y004470D01*
X039165Y004514D01*
X039134Y004529D01*
X039264Y004583D01*
X039415Y004734D01*
X039566Y004583D01*
X039695Y004529D01*
X039665Y004514D01*
X039604Y004470D01*
X039551Y004417D01*
X039507Y004356D01*
X039473Y004289D01*
X039450Y004218D01*
X039438Y004144D01*
X039438Y004124D01*
X039896Y004124D01*
X039896Y004087D01*
X039933Y004087D01*
X039933Y003629D01*
X039952Y003629D01*
X040027Y003641D01*
X040098Y003664D01*
X040165Y003698D01*
X040215Y003735D01*
X040215Y003540D01*
X040149Y003474D01*
X039479Y003474D01*
X039464Y003479D01*
X039400Y003474D01*
X039335Y003474D01*
X039321Y003468D01*
X039305Y003467D01*
X039248Y003438D01*
X039188Y003414D01*
X039177Y003402D01*
X039163Y003395D01*
X039121Y003346D01*
X039076Y003301D01*
X039070Y003286D01*
X038521Y002647D01*
X038476Y002601D01*
X038470Y002586D01*
X038459Y002574D01*
X038440Y002513D01*
X038422Y002471D01*
X038264Y002629D01*
X038038Y002723D01*
X037792Y002723D01*
X037566Y002629D01*
X037415Y002478D01*
X037264Y002629D01*
X037038Y002723D01*
X036792Y002723D01*
X036566Y002629D01*
X036415Y002478D01*
X036264Y002629D01*
X036038Y002723D01*
X035792Y002723D01*
X035566Y002629D01*
X035415Y002478D01*
X035264Y002629D01*
X035038Y002723D01*
X034792Y002723D01*
X034566Y002629D01*
X034415Y002478D01*
X034264Y002629D01*
X034038Y002723D01*
X033792Y002723D01*
X033566Y002629D01*
X033415Y002478D01*
X033264Y002629D01*
X033038Y002723D01*
X032792Y002723D01*
X032566Y002629D01*
X032415Y002478D01*
X032264Y002629D01*
X032038Y002723D01*
X031792Y002723D01*
X031566Y002629D01*
X031415Y002478D01*
X031264Y002629D01*
X031038Y002723D01*
X030792Y002723D01*
X030566Y002629D01*
X030392Y002455D01*
X030298Y002229D01*
X030298Y001983D01*
X030392Y001757D01*
X030566Y001583D01*
X030792Y001489D01*
X031038Y001489D01*
X031264Y001583D01*
X031415Y001734D01*
X031566Y001583D01*
X031792Y001489D01*
X032038Y001489D01*
X032264Y001583D01*
X032415Y001734D01*
X032566Y001583D01*
X032792Y001489D01*
X033038Y001489D01*
X033264Y001583D01*
X033415Y001734D01*
X033566Y001583D01*
X033792Y001489D01*
X034038Y001489D01*
X034264Y001583D01*
X034415Y001734D01*
X034566Y001583D01*
X034792Y001489D01*
X034952Y001489D01*
X035274Y001152D01*
X035276Y001148D01*
X035328Y001095D01*
X035381Y001040D01*
X035385Y001039D01*
X035388Y001035D01*
X035457Y001007D01*
X035527Y000976D01*
X035531Y000976D01*
X035535Y000974D01*
X035611Y000974D01*
X035614Y000974D01*
X021327Y000974D01*
X021389Y001068D01*
X021431Y001110D01*
X021455Y001169D01*
X021490Y001222D01*
X021502Y001281D01*
X021525Y001336D01*
X021525Y001400D01*
X021537Y001463D01*
X021525Y001521D01*
X021525Y001624D01*
X021525Y001526D02*
X021704Y001526D01*
X021525Y001367D02*
X035068Y001367D01*
X035220Y001209D02*
X021482Y001209D01*
X021377Y001050D02*
X035372Y001050D01*
X035615Y001374D02*
X034915Y002106D01*
X034464Y001684D02*
X034366Y001684D01*
X034126Y001526D02*
X034704Y001526D01*
X035615Y001374D02*
X038515Y001374D01*
X038815Y001674D01*
X038815Y002374D01*
X039415Y003074D01*
X040315Y003074D01*
X040615Y003374D01*
X040615Y008174D01*
X040315Y008574D01*
X037315Y008574D01*
X036915Y008974D01*
X036915Y009574D01*
X036415Y010074D01*
X036029Y009611D02*
X035800Y009611D01*
X035415Y010074D02*
X035915Y010574D01*
X036915Y010574D01*
X037215Y010274D01*
X037215Y009474D01*
X037515Y009174D01*
X038815Y009174D01*
X038915Y009106D01*
X038615Y009574D02*
X040315Y009574D01*
X040715Y008924D01*
X038915Y010106D02*
X037215Y012074D01*
X035915Y012074D01*
X035415Y011574D01*
X035415Y011074D01*
X036415Y011074D02*
X037115Y011074D01*
X038615Y009574D01*
X037211Y008185D02*
X035771Y008185D01*
X035929Y008026D02*
X038298Y008026D01*
X038346Y007867D02*
X036088Y007867D01*
X036246Y007709D02*
X038440Y007709D01*
X038487Y007550D02*
X036405Y007550D01*
X036563Y007392D02*
X038366Y007392D01*
X038300Y007233D02*
X036722Y007233D01*
X036880Y007075D02*
X038298Y007075D01*
X038326Y006916D02*
X037039Y006916D01*
X037197Y006758D02*
X038391Y006758D01*
X038536Y006599D02*
X037356Y006599D01*
X037514Y006441D02*
X038386Y006441D01*
X038320Y006282D02*
X037673Y006282D01*
X037832Y006124D02*
X038298Y006124D01*
X038306Y005965D02*
X038160Y005965D01*
X038282Y005806D02*
X038371Y005806D01*
X038335Y005648D02*
X038501Y005648D01*
X038426Y005489D02*
X038335Y005489D01*
X038340Y005331D02*
X038277Y005331D01*
X038298Y005172D02*
X038148Y005172D01*
X038298Y005014D02*
X037756Y005014D01*
X037938Y004855D02*
X038351Y004855D01*
X038452Y004697D02*
X038004Y004697D01*
X038013Y004538D02*
X038674Y004538D01*
X038524Y004380D02*
X037973Y004380D01*
X037866Y004221D02*
X038451Y004221D01*
X038438Y004087D02*
X038438Y004068D01*
X038450Y003994D01*
X038473Y003923D01*
X038507Y003856D01*
X038551Y003795D01*
X038604Y003742D01*
X038665Y003698D01*
X038732Y003664D01*
X038803Y003641D01*
X038877Y003629D01*
X038896Y003629D01*
X038896Y004087D01*
X038438Y004087D01*
X038439Y004062D02*
X034572Y004062D01*
X034702Y004221D02*
X034798Y004221D01*
X034798Y004099D02*
X035029Y004099D01*
X035075Y004111D01*
X035116Y004135D01*
X035150Y004169D01*
X035173Y004210D01*
X035185Y004255D01*
X035185Y004526D01*
X034798Y004526D01*
X034798Y004099D01*
X034798Y004380D02*
X034702Y004380D01*
X034798Y004538D02*
X035586Y004538D01*
X035744Y004380D02*
X035185Y004380D01*
X035176Y004221D02*
X035923Y004221D01*
X036115Y004574D02*
X035515Y005174D01*
X032915Y005174D01*
X032215Y005874D01*
X032215Y006540D01*
X032250Y006574D01*
X031580Y006574D02*
X031580Y006440D01*
X031115Y005974D01*
X031115Y005040D01*
X031580Y004574D01*
X031531Y005190D02*
X031515Y005206D01*
X031515Y005809D01*
X031665Y005959D01*
X031815Y005959D01*
X031815Y005795D01*
X031876Y005648D01*
X031515Y005648D01*
X031515Y005806D02*
X031815Y005806D01*
X031876Y005648D02*
X031988Y005535D01*
X032474Y005050D01*
X032298Y005050D01*
X032298Y004623D01*
X032202Y004623D01*
X032202Y005050D01*
X032108Y005050D01*
X032107Y005051D01*
X032017Y005141D01*
X031900Y005190D01*
X031531Y005190D01*
X031515Y005331D02*
X032193Y005331D01*
X032034Y005489D02*
X031515Y005489D01*
X031942Y005172D02*
X032351Y005172D01*
X032298Y005014D02*
X032202Y005014D01*
X032202Y004855D02*
X032298Y004855D01*
X032298Y004697D02*
X032202Y004697D01*
X032298Y004538D02*
X032817Y004538D01*
X032685Y004526D02*
X032298Y004526D01*
X032298Y004099D01*
X032529Y004099D01*
X032575Y004111D01*
X032616Y004135D01*
X032650Y004169D01*
X032673Y004210D01*
X032685Y004255D01*
X032685Y004526D01*
X032685Y004380D02*
X032857Y004380D01*
X032964Y004221D02*
X032676Y004221D01*
X032298Y004221D02*
X032202Y004221D01*
X032202Y004380D02*
X032298Y004380D01*
X032072Y004062D02*
X033589Y004062D01*
X033315Y004574D02*
X034080Y004574D01*
X035185Y004697D02*
X035427Y004697D01*
X036115Y004574D02*
X037515Y004574D01*
X037315Y005274D02*
X036050Y005274D01*
X034750Y006574D01*
X034715Y006609D01*
X034715Y007374D01*
X034315Y007774D01*
X031415Y007774D01*
X029415Y009774D01*
X029415Y010074D01*
X028915Y009674D02*
X028915Y010574D01*
X028415Y011074D01*
X028915Y010574D02*
X029615Y010574D01*
X029915Y010274D01*
X029915Y009774D01*
X031515Y008174D01*
X035215Y008174D01*
X037815Y005574D01*
X039156Y004538D02*
X039674Y004538D01*
X039524Y004380D02*
X039306Y004380D01*
X039379Y004221D02*
X039451Y004221D01*
X039438Y004087D02*
X039438Y004068D01*
X039450Y003994D01*
X039473Y003923D01*
X039507Y003856D01*
X039551Y003795D01*
X039604Y003742D01*
X039665Y003698D01*
X039732Y003664D01*
X039803Y003641D01*
X039877Y003629D01*
X039896Y003629D01*
X039896Y004087D01*
X039438Y004087D01*
X039439Y004062D02*
X039391Y004062D01*
X039347Y003904D02*
X039483Y003904D01*
X039601Y003745D02*
X039229Y003745D01*
X038933Y003745D02*
X038896Y003745D01*
X038896Y003904D02*
X038933Y003904D01*
X038933Y004062D02*
X038896Y004062D01*
X038601Y003745D02*
X026315Y003745D01*
X026315Y003587D02*
X040215Y003587D01*
X039933Y003745D02*
X039896Y003745D01*
X039896Y003904D02*
X039933Y003904D01*
X039933Y004062D02*
X039896Y004062D01*
X039452Y004697D02*
X039378Y004697D01*
X038483Y003904D02*
X026315Y003904D01*
X026315Y004062D02*
X028089Y004062D01*
X027723Y004221D02*
X026315Y004221D01*
X026315Y004380D02*
X027544Y004380D01*
X027386Y004538D02*
X026315Y004538D01*
X026315Y004697D02*
X027227Y004697D01*
X027131Y004855D02*
X026315Y004855D01*
X026315Y005014D02*
X027115Y005014D01*
X027115Y005172D02*
X026315Y005172D01*
X026315Y005331D02*
X027115Y005331D01*
X027115Y005489D02*
X026315Y005489D01*
X026315Y005648D02*
X027115Y005648D01*
X027115Y005806D02*
X026315Y005806D01*
X026315Y005965D02*
X027115Y005965D01*
X027115Y006124D02*
X026315Y006124D01*
X026315Y006282D02*
X027103Y006282D01*
X027031Y006441D02*
X026315Y006441D01*
X026315Y006599D02*
X027017Y006599D01*
X027052Y006758D02*
X026315Y006758D01*
X026315Y006916D02*
X027152Y006916D01*
X027515Y006574D02*
X027515Y004974D01*
X027915Y004574D01*
X028580Y004574D01*
X028219Y005172D02*
X027915Y005172D01*
X027915Y005331D02*
X030715Y005331D01*
X030715Y005172D02*
X028942Y005172D01*
X029202Y005014D02*
X029298Y005014D01*
X029298Y004855D02*
X029202Y004855D01*
X029202Y004697D02*
X029298Y004697D01*
X029298Y004538D02*
X031004Y004538D01*
X031004Y004380D02*
X029685Y004380D01*
X029685Y004255D02*
X029685Y004526D01*
X029298Y004526D01*
X029298Y004099D01*
X029529Y004099D01*
X029575Y004111D01*
X029616Y004135D01*
X029650Y004169D01*
X029673Y004210D01*
X029685Y004255D01*
X029676Y004221D02*
X031004Y004221D01*
X031089Y004062D02*
X029072Y004062D01*
X029202Y004221D02*
X029298Y004221D01*
X029298Y004380D02*
X029202Y004380D01*
X029685Y004697D02*
X030892Y004697D01*
X030758Y004855D02*
X029685Y004855D01*
X029616Y005014D02*
X030715Y005014D01*
X030685Y005489D02*
X027915Y005489D01*
X027915Y005648D02*
X030437Y005648D01*
X030345Y005806D02*
X027915Y005806D01*
X027915Y005965D02*
X028247Y005965D01*
X028042Y006124D02*
X027915Y006124D01*
X027515Y006574D02*
X028580Y006574D01*
X028077Y007075D02*
X026315Y007075D01*
X026315Y007233D02*
X028850Y007233D01*
X028850Y007392D02*
X026315Y007392D01*
X026315Y007550D02*
X028850Y007550D01*
X028850Y007709D02*
X026315Y007709D01*
X026315Y007867D02*
X028850Y007867D01*
X028850Y008026D02*
X026315Y008026D01*
X026315Y008185D02*
X028850Y008185D01*
X028850Y008343D02*
X026315Y008343D01*
X026315Y008502D02*
X028850Y008502D01*
X028850Y008660D02*
X026315Y008660D01*
X026315Y008819D02*
X028850Y008819D01*
X028850Y008977D02*
X026315Y008977D01*
X026315Y009136D02*
X028850Y009136D01*
X028729Y009294D02*
X028201Y009294D01*
X028359Y009453D02*
X028574Y009453D01*
X028915Y009674D02*
X029250Y009340D01*
X029250Y006574D01*
X029825Y006599D02*
X031004Y006599D01*
X030991Y006441D02*
X031004Y006441D01*
X031004Y006758D02*
X029825Y006758D01*
X029825Y006916D02*
X031004Y006916D01*
X031077Y007075D02*
X029753Y007075D01*
X029650Y007233D02*
X034290Y007233D01*
X034080Y006574D02*
X034080Y005940D01*
X033715Y005574D01*
X032826Y004697D02*
X032685Y004697D01*
X031115Y005974D02*
X030815Y005974D01*
X030317Y005965D02*
X029583Y005965D01*
X029787Y006124D02*
X030338Y006124D01*
X030418Y006282D02*
X029825Y006282D01*
X029825Y006441D02*
X030639Y006441D01*
X031293Y007392D02*
X029650Y007392D01*
X029650Y007550D02*
X031073Y007550D01*
X030915Y007709D02*
X029650Y007709D01*
X029650Y007867D02*
X030756Y007867D01*
X030598Y008026D02*
X029650Y008026D01*
X029650Y008185D02*
X030439Y008185D01*
X030281Y008343D02*
X029650Y008343D01*
X029650Y008502D02*
X030122Y008502D01*
X029964Y008660D02*
X029650Y008660D01*
X029650Y008819D02*
X029805Y008819D01*
X030644Y009611D02*
X030961Y009611D01*
X030895Y009770D02*
X030761Y009770D01*
X030802Y009453D02*
X031101Y009453D01*
X030961Y009294D02*
X033417Y009294D01*
X033433Y009136D02*
X031119Y009136D01*
X031278Y008977D02*
X033508Y008977D01*
X033714Y008819D02*
X031436Y008819D01*
X031595Y008660D02*
X036664Y008660D01*
X036546Y008819D02*
X034116Y008819D01*
X034322Y008977D02*
X036515Y008977D01*
X036515Y009136D02*
X034397Y009136D01*
X034413Y009294D02*
X036515Y009294D01*
X036471Y009453D02*
X034380Y009453D01*
X034800Y009611D02*
X035029Y009611D01*
X033915Y009274D02*
X033915Y010574D01*
X033415Y011074D01*
X032920Y010721D02*
X032712Y010721D01*
X032664Y010673D02*
X032816Y010825D01*
X033066Y010574D01*
X032915Y010423D01*
X032664Y010673D01*
X032775Y010563D02*
X033055Y010563D01*
X032424Y011083D02*
X032406Y011083D01*
X032406Y011534D01*
X032224Y011534D01*
X032195Y011505D01*
X032195Y012366D01*
X032292Y012282D01*
X032338Y012235D01*
X032352Y012230D01*
X032363Y012220D01*
X032425Y012200D01*
X032485Y012174D01*
X032500Y012174D01*
X032514Y012170D01*
X032579Y012174D01*
X033949Y012174D01*
X034015Y012109D01*
X034015Y011523D01*
X033915Y011423D01*
X033663Y011674D01*
X033166Y011674D01*
X032816Y011324D01*
X032605Y011534D01*
X032424Y011534D01*
X032424Y011083D01*
X032424Y011197D02*
X032406Y011197D01*
X032406Y011355D02*
X032424Y011355D01*
X032424Y011514D02*
X032406Y011514D01*
X032204Y011514D02*
X032195Y011514D01*
X032195Y011673D02*
X033165Y011673D01*
X033006Y011514D02*
X032626Y011514D01*
X032784Y011355D02*
X032847Y011355D01*
X032195Y011831D02*
X034015Y011831D01*
X034015Y011673D02*
X033665Y011673D01*
X033824Y011514D02*
X034006Y011514D01*
X034015Y011990D02*
X032195Y011990D01*
X032195Y012148D02*
X033976Y012148D01*
X034115Y012574D02*
X034415Y012274D01*
X034915Y012574D01*
X037715Y012574D01*
X038915Y011106D01*
X039915Y012106D02*
X040346Y012106D01*
X040715Y012474D01*
X040715Y021624D01*
X036415Y025924D01*
X036415Y027740D01*
X037415Y027740D02*
X037415Y025574D01*
X038915Y024074D01*
X040415Y024074D01*
X040885Y024298D02*
X040856Y024369D01*
X040709Y024515D01*
X040518Y024594D01*
X040311Y024594D01*
X040120Y024515D01*
X040080Y024474D01*
X039081Y024474D01*
X037815Y025740D01*
X037815Y027181D01*
X037891Y027213D01*
X037981Y027303D01*
X038030Y027420D01*
X038030Y028059D01*
X038024Y028074D01*
X038030Y028090D01*
X038030Y028729D01*
X037981Y028846D01*
X037891Y028936D01*
X037847Y028954D01*
X038172Y028954D01*
X038415Y029198D01*
X038658Y028954D01*
X039172Y028954D01*
X039415Y029198D01*
X039658Y028954D01*
X040172Y028954D01*
X040535Y029318D01*
X040535Y029831D01*
X040193Y030173D01*
X040395Y030376D01*
X040395Y030554D01*
X039935Y030554D01*
X039935Y030594D01*
X040395Y030594D01*
X040395Y030773D01*
X040114Y031054D01*
X039935Y031054D01*
X039935Y030595D01*
X039895Y030595D01*
X039895Y031030D01*
X040492Y031510D01*
X040885Y031117D01*
X040885Y024298D01*
X040885Y024356D02*
X040861Y024356D01*
X040885Y024515D02*
X040710Y024515D01*
X040885Y024673D02*
X038882Y024673D01*
X039041Y024515D02*
X040120Y024515D01*
X040885Y024832D02*
X038723Y024832D01*
X038565Y024990D02*
X040885Y024990D01*
X040885Y025149D02*
X038406Y025149D01*
X038248Y025307D02*
X040885Y025307D01*
X040885Y025466D02*
X038089Y025466D01*
X037931Y025624D02*
X040885Y025624D01*
X040885Y025783D02*
X037815Y025783D01*
X037815Y025941D02*
X040885Y025941D01*
X040885Y026100D02*
X037815Y026100D01*
X037815Y026259D02*
X040885Y026259D01*
X040885Y026417D02*
X037815Y026417D01*
X037815Y026576D02*
X040885Y026576D01*
X040885Y026734D02*
X040368Y026734D01*
X040453Y026769D02*
X040104Y026625D01*
X039726Y026625D01*
X039377Y026769D01*
X039110Y027036D01*
X038965Y027386D01*
X038965Y027763D01*
X039110Y028113D01*
X039377Y028380D01*
X039726Y028524D01*
X040104Y028524D01*
X040453Y028380D01*
X040720Y028113D01*
X040865Y027763D01*
X040865Y027386D01*
X040720Y027036D01*
X040453Y026769D01*
X040577Y026893D02*
X040885Y026893D01*
X040885Y027051D02*
X040726Y027051D01*
X040792Y027210D02*
X040885Y027210D01*
X040885Y027368D02*
X040858Y027368D01*
X040865Y027527D02*
X040885Y027527D01*
X040885Y027685D02*
X040865Y027685D01*
X040885Y027844D02*
X040831Y027844D01*
X040885Y028002D02*
X040766Y028002D01*
X040672Y028161D02*
X040885Y028161D01*
X040885Y028320D02*
X040513Y028320D01*
X040216Y028478D02*
X040885Y028478D01*
X040885Y028637D02*
X038030Y028637D01*
X038030Y028478D02*
X039614Y028478D01*
X039317Y028320D02*
X038030Y028320D01*
X038030Y028161D02*
X039158Y028161D01*
X039064Y028002D02*
X038030Y028002D01*
X038030Y027844D02*
X038998Y027844D01*
X038965Y027685D02*
X038030Y027685D01*
X038030Y027527D02*
X038965Y027527D01*
X038972Y027368D02*
X038009Y027368D01*
X037885Y027210D02*
X039038Y027210D01*
X039103Y027051D02*
X037815Y027051D01*
X037815Y026893D02*
X039253Y026893D01*
X039461Y026734D02*
X037815Y026734D01*
X036215Y025474D02*
X035015Y025474D01*
X034415Y026074D01*
X034415Y027740D01*
X033415Y027740D02*
X033415Y025474D01*
X033815Y025074D01*
X036165Y025074D01*
X038015Y023224D01*
X038015Y019974D01*
X038415Y019574D01*
X039415Y019574D01*
X039915Y020074D01*
X038915Y020106D02*
X038915Y020324D01*
X038365Y020874D01*
X038365Y023324D01*
X036215Y025474D01*
X036015Y024674D02*
X037665Y023024D01*
X037665Y019774D01*
X038365Y019074D01*
X038915Y019074D01*
X039415Y018574D02*
X038315Y018574D01*
X037215Y019674D01*
X037215Y022724D01*
X035715Y024224D01*
X033215Y024224D01*
X030915Y026524D01*
X030915Y027740D01*
X031915Y027740D02*
X031915Y026274D01*
X033515Y024674D01*
X036015Y024674D01*
X033815Y023824D02*
X035315Y022324D01*
X036265Y022324D01*
X036515Y022074D01*
X036515Y018106D01*
X037496Y017124D01*
X038915Y017124D01*
X038915Y017106D01*
X039415Y017624D02*
X037465Y017624D01*
X036815Y018274D01*
X036815Y022274D01*
X036665Y022424D01*
X036365Y022724D01*
X035415Y021674D02*
X034615Y021674D01*
X034415Y021474D01*
X034415Y017574D01*
X033915Y017074D01*
X033315Y016474D01*
X033315Y013724D01*
X033715Y013374D01*
X036915Y013374D01*
X036915Y015200D01*
X036915Y015949D02*
X036889Y015974D01*
X036395Y016454D02*
X036219Y016454D01*
X036043Y016381D01*
X035908Y016246D01*
X034263Y014601D01*
X034142Y014651D01*
X034166Y014664D01*
X034228Y014708D01*
X034281Y014762D01*
X034325Y014823D01*
X034360Y014890D01*
X034383Y014962D01*
X034395Y015037D01*
X034395Y015054D01*
X033935Y015054D01*
X033935Y015094D01*
X034395Y015094D01*
X034395Y015112D01*
X034383Y015187D01*
X034360Y015259D01*
X034325Y015326D01*
X034281Y015387D01*
X034228Y015441D01*
X034166Y015485D01*
X034142Y015497D01*
X034266Y015549D01*
X034441Y015723D01*
X034535Y015951D01*
X034535Y016129D01*
X034673Y016267D01*
X034697Y016277D01*
X035147Y016727D01*
X035262Y016842D01*
X035325Y016993D01*
X035325Y018820D01*
X035348Y018763D01*
X035395Y018717D01*
X035395Y017978D01*
X035395Y017771D01*
X035474Y017580D01*
X036395Y016659D01*
X036395Y016454D01*
X036395Y016587D02*
X035008Y016587D01*
X035166Y016746D02*
X036308Y016746D01*
X036150Y016904D02*
X035288Y016904D01*
X035325Y017063D02*
X035991Y017063D01*
X035833Y017222D02*
X035325Y017222D01*
X035325Y017380D02*
X035674Y017380D01*
X035515Y017539D02*
X035325Y017539D01*
X035325Y017697D02*
X035426Y017697D01*
X035395Y017856D02*
X035325Y017856D01*
X035325Y018014D02*
X035395Y018014D01*
X035395Y018173D02*
X035325Y018173D01*
X035325Y018331D02*
X035395Y018331D01*
X035395Y018490D02*
X035325Y018490D01*
X035325Y018648D02*
X035395Y018648D01*
X035330Y018807D02*
X035325Y018807D01*
X035915Y018024D02*
X035915Y017874D01*
X036158Y016429D02*
X034849Y016429D01*
X034681Y016270D02*
X035932Y016270D01*
X035773Y016112D02*
X034535Y016112D01*
X034535Y015953D02*
X035615Y015953D01*
X035456Y015795D02*
X034470Y015795D01*
X034353Y015636D02*
X035298Y015636D01*
X035139Y015478D02*
X034177Y015478D01*
X034329Y015319D02*
X034981Y015319D01*
X034822Y015160D02*
X034387Y015160D01*
X034389Y015002D02*
X034664Y015002D01*
X034505Y014843D02*
X034336Y014843D01*
X034347Y014685D02*
X034195Y014685D01*
X033915Y016074D02*
X034465Y016624D01*
X031915Y018074D02*
X031915Y021106D01*
X031415Y021324D02*
X031415Y018324D01*
X030415Y017324D01*
X030415Y015824D01*
X030665Y015574D01*
X030615Y015574D01*
X030665Y015574D02*
X031415Y015574D01*
X031815Y015174D01*
X031815Y013224D01*
X032565Y012574D01*
X034115Y012574D01*
X034415Y012274D02*
X034415Y011074D01*
X033029Y009611D02*
X032800Y009611D01*
X032029Y009611D02*
X031869Y009611D01*
X031729Y009453D02*
X033450Y009453D01*
X035453Y008502D02*
X036822Y008502D01*
X036981Y008343D02*
X035612Y008343D01*
X033577Y007075D02*
X033316Y007075D01*
X033014Y007075D02*
X032753Y007075D01*
X030424Y009831D02*
X030406Y009849D01*
X030406Y010066D01*
X030424Y010066D01*
X030424Y009831D01*
X030424Y009929D02*
X030406Y009929D01*
X028415Y010074D02*
X027915Y009574D01*
X027165Y009574D01*
X026415Y010324D01*
X026265Y010474D01*
X026265Y013074D01*
X026415Y013224D01*
X026415Y021324D01*
X022915Y024824D01*
X022915Y025424D01*
X023165Y025674D01*
X024315Y025674D01*
X024915Y026274D01*
X024915Y027074D01*
X024415Y026574D02*
X024415Y030824D01*
X024665Y031074D01*
X032165Y031074D01*
X032415Y030824D01*
X032415Y030324D01*
X031915Y029824D01*
X031915Y029574D01*
X031415Y029074D02*
X031415Y030074D01*
X031915Y030574D01*
X030915Y030574D02*
X030415Y030074D01*
X030415Y029124D01*
X030915Y028624D01*
X030915Y028409D01*
X031415Y029074D02*
X031915Y028574D01*
X031915Y028409D01*
X033415Y028409D02*
X033415Y030074D01*
X032915Y030574D01*
X033915Y030574D02*
X034415Y030074D01*
X034415Y028409D01*
X035415Y028409D02*
X035415Y030074D01*
X034915Y030574D01*
X035915Y030574D02*
X036415Y030074D01*
X036415Y028409D01*
X037415Y028409D02*
X037415Y030074D01*
X036915Y030574D01*
X038330Y029112D02*
X038500Y029112D01*
X038003Y028795D02*
X040885Y028795D01*
X040885Y028954D02*
X037849Y028954D01*
X039330Y029112D02*
X039500Y029112D01*
X040330Y029112D02*
X040885Y029112D01*
X040885Y029271D02*
X040488Y029271D01*
X040535Y029429D02*
X040885Y029429D01*
X040885Y029588D02*
X040535Y029588D01*
X040535Y029746D02*
X040885Y029746D01*
X040885Y029905D02*
X040461Y029905D01*
X040303Y030064D02*
X040885Y030064D01*
X040885Y030222D02*
X040241Y030222D01*
X040395Y030381D02*
X040885Y030381D01*
X040885Y030539D02*
X040395Y030539D01*
X040395Y030698D02*
X040885Y030698D01*
X040885Y030856D02*
X040312Y030856D01*
X040153Y031015D02*
X040885Y031015D01*
X040829Y031173D02*
X040073Y031173D01*
X039935Y031015D02*
X039895Y031015D01*
X039895Y030856D02*
X039935Y030856D01*
X039935Y030698D02*
X039895Y030698D01*
X040270Y031332D02*
X040671Y031332D01*
X040512Y031490D02*
X040467Y031490D01*
X035415Y027740D02*
X035415Y026874D01*
X032915Y023824D02*
X031615Y025124D01*
X030915Y024624D02*
X031965Y023574D01*
X032615Y023574D01*
X032915Y023274D01*
X032915Y022959D01*
X032915Y022290D02*
X032915Y021106D01*
X032415Y021324D02*
X032415Y020624D01*
X032665Y020374D01*
X033715Y020374D01*
X033915Y020574D01*
X033915Y021106D01*
X034915Y021106D02*
X034915Y019949D01*
X035915Y021106D02*
X035915Y021174D01*
X035415Y021674D01*
X033815Y023824D02*
X032915Y023824D01*
X031915Y022724D02*
X030965Y023674D01*
X029515Y023674D01*
X028915Y024274D01*
X028915Y026874D01*
X028415Y027374D01*
X028415Y027740D01*
X027415Y027724D02*
X027415Y025124D01*
X028415Y025090D02*
X028415Y023824D01*
X028915Y023324D01*
X030415Y023324D01*
X032415Y021324D01*
X031415Y021324D02*
X029815Y022924D01*
X027815Y022924D01*
X025415Y025324D01*
X025415Y027740D01*
X026415Y027740D02*
X026415Y025474D01*
X024415Y026574D02*
X023765Y025974D01*
X022065Y025974D01*
X019915Y023824D01*
X015565Y023824D01*
X015315Y023574D01*
X015365Y024474D02*
X016065Y024474D01*
X016715Y025174D01*
X016715Y028074D01*
X016615Y028174D01*
X015915Y028174D01*
X015815Y028074D01*
X015815Y027608D01*
X016189Y026741D02*
X016189Y025534D01*
X015730Y025074D01*
X015365Y024474D02*
X014765Y025074D01*
X014730Y025074D01*
X015230Y025824D02*
X015441Y026036D01*
X015441Y026741D01*
X014752Y026303D02*
X015230Y025824D01*
X014752Y026303D02*
X013612Y026303D01*
X012943Y026303D02*
X012943Y028909D01*
X012954Y028921D01*
X012267Y029277D02*
X012267Y029665D01*
X012555Y029952D01*
X015452Y029952D01*
X015452Y028952D02*
X017437Y028952D01*
X019415Y029174D02*
X019415Y030674D01*
X019415Y029174D02*
X020850Y027740D01*
X021415Y027740D01*
X021415Y028409D02*
X021415Y030074D01*
X021915Y030574D01*
X023415Y030074D02*
X023415Y028409D01*
X023415Y027740D02*
X023415Y026574D01*
X023415Y025074D02*
X023415Y024824D01*
X026365Y021874D01*
X027415Y021874D01*
X028015Y021274D01*
X028015Y020324D01*
X027546Y020551D02*
X027187Y020551D01*
X027264Y020583D02*
X027038Y020489D01*
X026815Y020489D01*
X026815Y013145D01*
X026754Y012998D01*
X026665Y012909D01*
X026665Y012753D01*
X026758Y012846D01*
X026893Y012981D01*
X027069Y013054D01*
X030435Y013054D01*
X030435Y013170D01*
X030435Y013594D01*
X030312Y013594D01*
X030266Y013549D01*
X030038Y013454D01*
X029792Y013454D01*
X029564Y013549D01*
X029518Y013594D01*
X029312Y013594D01*
X029266Y013549D01*
X029038Y013454D01*
X028792Y013454D01*
X028564Y013549D01*
X028518Y013594D01*
X028312Y013594D01*
X028266Y013549D01*
X028038Y013454D01*
X027792Y013454D01*
X027564Y013549D01*
X027389Y013723D01*
X027295Y013951D01*
X027295Y014198D01*
X027389Y014426D01*
X027564Y014600D01*
X027688Y014651D01*
X027663Y014664D01*
X027602Y014708D01*
X027549Y014762D01*
X027504Y014823D01*
X027470Y014890D01*
X027447Y014962D01*
X027435Y015037D01*
X027435Y015054D01*
X027895Y015054D01*
X027895Y015094D01*
X027435Y015094D01*
X027435Y015112D01*
X027447Y015187D01*
X027470Y015259D01*
X027504Y015326D01*
X027549Y015387D01*
X027602Y015441D01*
X027663Y015485D01*
X027688Y015497D01*
X027564Y015549D01*
X027389Y015723D01*
X027295Y015951D01*
X027295Y016198D01*
X027389Y016426D01*
X027515Y016551D01*
X027515Y017006D01*
X027511Y017016D01*
X027515Y017085D01*
X027515Y017154D01*
X027519Y017164D01*
X027520Y017175D01*
X027549Y017237D01*
X027576Y017301D01*
X027584Y017309D01*
X027588Y017319D01*
X027639Y017365D01*
X027688Y017414D01*
X027698Y017418D01*
X028515Y018153D01*
X028515Y020173D01*
X028456Y020030D01*
X028309Y019884D01*
X028118Y019804D01*
X027911Y019804D01*
X027720Y019884D01*
X027574Y020030D01*
X027495Y020221D01*
X027495Y020428D01*
X027574Y020619D01*
X027615Y020660D01*
X027615Y021109D01*
X027588Y021136D01*
X027532Y021091D01*
X027532Y020983D01*
X027438Y020757D01*
X027264Y020583D01*
X027391Y020709D02*
X027615Y020709D01*
X027615Y020868D02*
X027484Y020868D01*
X027532Y021027D02*
X027615Y021027D01*
X027495Y020392D02*
X026815Y020392D01*
X026815Y020234D02*
X027495Y020234D01*
X027555Y020075D02*
X026815Y020075D01*
X026815Y019917D02*
X027687Y019917D01*
X028343Y019917D02*
X028515Y019917D01*
X028515Y020075D02*
X028475Y020075D01*
X028515Y019758D02*
X026815Y019758D01*
X026815Y019600D02*
X028515Y019600D01*
X028515Y019441D02*
X026815Y019441D01*
X026815Y019283D02*
X028515Y019283D01*
X028515Y019124D02*
X026815Y019124D01*
X026815Y018966D02*
X028515Y018966D01*
X028515Y018807D02*
X026815Y018807D01*
X026815Y018648D02*
X028515Y018648D01*
X028515Y018490D02*
X026815Y018490D01*
X026815Y018331D02*
X028515Y018331D01*
X028515Y018173D02*
X026815Y018173D01*
X026815Y018014D02*
X028361Y018014D01*
X028185Y017856D02*
X026815Y017856D01*
X026815Y017697D02*
X028009Y017697D01*
X027833Y017539D02*
X026815Y017539D01*
X026815Y017380D02*
X027655Y017380D01*
X027542Y017222D02*
X026815Y017222D01*
X026815Y017063D02*
X027514Y017063D01*
X027515Y016904D02*
X026815Y016904D01*
X026815Y016746D02*
X027515Y016746D01*
X027515Y016587D02*
X026815Y016587D01*
X026815Y016429D02*
X027392Y016429D01*
X027325Y016270D02*
X026815Y016270D01*
X026815Y016112D02*
X027295Y016112D01*
X027295Y015953D02*
X026815Y015953D01*
X026815Y015795D02*
X027360Y015795D01*
X027476Y015636D02*
X026815Y015636D01*
X026815Y015478D02*
X027653Y015478D01*
X027501Y015319D02*
X026815Y015319D01*
X026815Y015160D02*
X027443Y015160D01*
X027440Y015002D02*
X026815Y015002D01*
X026815Y014843D02*
X027494Y014843D01*
X027635Y014685D02*
X026815Y014685D01*
X026815Y014526D02*
X027490Y014526D01*
X027365Y014368D02*
X026815Y014368D01*
X026815Y014209D02*
X027300Y014209D01*
X027295Y014051D02*
X026815Y014051D01*
X026815Y013892D02*
X027319Y013892D01*
X027385Y013734D02*
X026815Y013734D01*
X026815Y013575D02*
X027538Y013575D01*
X026815Y013416D02*
X030435Y013416D01*
X030435Y013258D02*
X026815Y013258D01*
X026796Y013099D02*
X030435Y013099D01*
X030435Y013575D02*
X030292Y013575D01*
X029538Y013575D02*
X029292Y013575D01*
X028538Y013575D02*
X028292Y013575D01*
X028312Y014554D02*
X028266Y014600D01*
X028142Y014651D01*
X028166Y014664D01*
X028228Y014708D01*
X028281Y014762D01*
X028325Y014823D01*
X028360Y014890D01*
X028383Y014962D01*
X028395Y015037D01*
X028395Y015054D01*
X027935Y015054D01*
X027935Y015094D01*
X028395Y015094D01*
X028395Y015112D01*
X028383Y015187D01*
X028360Y015259D01*
X028325Y015326D01*
X028281Y015387D01*
X028228Y015441D01*
X028166Y015485D01*
X028142Y015497D01*
X028266Y015549D01*
X028415Y015698D01*
X028564Y015549D01*
X028688Y015497D01*
X028663Y015485D01*
X028602Y015441D01*
X028549Y015387D01*
X028504Y015326D01*
X028470Y015259D01*
X028447Y015187D01*
X028435Y015112D01*
X028435Y015094D01*
X028895Y015094D01*
X028895Y015054D01*
X028435Y015054D01*
X028435Y015037D01*
X028447Y014962D01*
X028470Y014890D01*
X028504Y014823D01*
X028549Y014762D01*
X028602Y014708D01*
X028663Y014664D01*
X028688Y014651D01*
X028564Y014600D01*
X028518Y014554D01*
X028312Y014554D01*
X028195Y014685D02*
X028635Y014685D01*
X028494Y014843D02*
X028336Y014843D01*
X028389Y015002D02*
X028440Y015002D01*
X028443Y015160D02*
X028387Y015160D01*
X028329Y015319D02*
X028501Y015319D01*
X028653Y015478D02*
X028177Y015478D01*
X028353Y015636D02*
X028476Y015636D01*
X028935Y015094D02*
X029395Y015094D01*
X029395Y015112D01*
X029383Y015187D01*
X029360Y015259D01*
X029325Y015326D01*
X029281Y015387D01*
X029228Y015441D01*
X029166Y015485D01*
X029142Y015497D01*
X029266Y015549D01*
X029415Y015698D01*
X029564Y015549D01*
X029688Y015497D01*
X029663Y015485D01*
X029602Y015441D01*
X029549Y015387D01*
X029504Y015326D01*
X029470Y015259D01*
X029447Y015187D01*
X029435Y015112D01*
X029435Y015094D01*
X029895Y015094D01*
X029895Y015054D01*
X029435Y015054D01*
X029435Y015037D01*
X029447Y014962D01*
X029470Y014890D01*
X029504Y014823D01*
X029549Y014762D01*
X029602Y014708D01*
X029663Y014664D01*
X029688Y014651D01*
X029564Y014600D01*
X029518Y014554D01*
X029312Y014554D01*
X029266Y014600D01*
X029142Y014651D01*
X029166Y014664D01*
X029228Y014708D01*
X029281Y014762D01*
X029325Y014823D01*
X029360Y014890D01*
X029383Y014962D01*
X029395Y015037D01*
X029395Y015054D01*
X028935Y015054D01*
X028935Y015094D01*
X029177Y015478D02*
X029653Y015478D01*
X029501Y015319D02*
X029329Y015319D01*
X029387Y015160D02*
X029443Y015160D01*
X029440Y015002D02*
X029389Y015002D01*
X029336Y014843D02*
X029494Y014843D01*
X029635Y014685D02*
X029195Y014685D01*
X029935Y015054D02*
X029935Y015094D01*
X030395Y015094D01*
X030395Y015112D01*
X030383Y015187D01*
X030360Y015259D01*
X030354Y015270D01*
X030388Y015235D01*
X030454Y015208D01*
X030447Y015187D01*
X030435Y015112D01*
X030435Y015094D01*
X030895Y015094D01*
X030895Y015054D01*
X030435Y015054D01*
X030435Y015037D01*
X030447Y014962D01*
X030470Y014890D01*
X030504Y014823D01*
X030549Y014762D01*
X030602Y014708D01*
X030663Y014664D01*
X030688Y014651D01*
X030564Y014600D01*
X030518Y014554D01*
X030312Y014554D01*
X030266Y014600D01*
X030142Y014651D01*
X030166Y014664D01*
X030228Y014708D01*
X030281Y014762D01*
X030325Y014823D01*
X030360Y014890D01*
X030383Y014962D01*
X030395Y015037D01*
X030395Y015054D01*
X029935Y015054D01*
X030336Y014843D02*
X030494Y014843D01*
X030440Y015002D02*
X030389Y015002D01*
X030387Y015160D02*
X030443Y015160D01*
X030635Y014685D02*
X030195Y014685D01*
X029476Y015636D02*
X029353Y015636D01*
X028915Y016074D02*
X028915Y017224D01*
X029915Y018224D01*
X029915Y021106D01*
X030915Y021106D02*
X030915Y018524D01*
X029915Y017574D01*
X029915Y016074D01*
X030915Y016074D02*
X030915Y017074D01*
X031915Y018074D01*
X028915Y017974D02*
X028915Y021106D01*
X025915Y021106D02*
X025915Y021324D01*
X022115Y025124D01*
X022915Y023324D02*
X024415Y021824D01*
X024415Y005974D01*
X025415Y006574D02*
X025415Y021324D01*
X024015Y022724D01*
X023915Y021106D02*
X023915Y019949D01*
X022315Y019674D02*
X022315Y014474D01*
X023365Y013424D01*
X023365Y012024D01*
X023915Y013574D02*
X023415Y014074D01*
X023415Y016824D01*
X023115Y017124D01*
X023115Y018024D01*
X023707Y017098D02*
X023811Y017054D01*
X024015Y017054D01*
X024015Y016545D01*
X023953Y016554D01*
X023935Y016554D01*
X023935Y016095D01*
X023895Y016095D01*
X023895Y016554D01*
X023877Y016554D01*
X023815Y016545D01*
X023815Y016745D01*
X023815Y016904D01*
X023754Y017051D01*
X023707Y017098D01*
X023742Y017063D02*
X023791Y017063D01*
X023815Y016904D02*
X024015Y016904D01*
X024015Y016746D02*
X023815Y016746D01*
X023815Y016587D02*
X024015Y016587D01*
X023935Y016429D02*
X023895Y016429D01*
X023895Y016270D02*
X023935Y016270D01*
X023935Y016112D02*
X023895Y016112D01*
X023895Y016054D02*
X023935Y016054D01*
X023935Y015594D01*
X023953Y015594D01*
X024015Y015604D01*
X024015Y015545D01*
X023953Y015554D01*
X023935Y015554D01*
X023935Y015095D01*
X023895Y015095D01*
X023895Y015554D01*
X023877Y015554D01*
X023815Y015545D01*
X023815Y015604D01*
X023877Y015594D01*
X023895Y015594D01*
X023895Y016054D01*
X023895Y015953D02*
X023935Y015953D01*
X023935Y015795D02*
X023895Y015795D01*
X023895Y015636D02*
X023935Y015636D01*
X023935Y015478D02*
X023895Y015478D01*
X023895Y015319D02*
X023935Y015319D01*
X023935Y015160D02*
X023895Y015160D01*
X023895Y015054D02*
X023935Y015054D01*
X023935Y014594D01*
X023953Y014594D01*
X024015Y014604D01*
X024015Y014040D01*
X023815Y014240D01*
X023815Y014604D01*
X023877Y014594D01*
X023895Y014594D01*
X023895Y015054D01*
X023895Y015002D02*
X023935Y015002D01*
X023935Y014843D02*
X023895Y014843D01*
X023895Y014685D02*
X023935Y014685D01*
X024015Y014526D02*
X023815Y014526D01*
X023815Y014368D02*
X024015Y014368D01*
X024015Y014209D02*
X023846Y014209D01*
X024004Y014051D02*
X024015Y014051D01*
X023915Y013574D02*
X023915Y007024D01*
X023415Y006524D01*
X023415Y005574D01*
X026315Y003428D02*
X039224Y003428D01*
X039056Y003270D02*
X026315Y003270D01*
X026315Y003111D02*
X038920Y003111D01*
X038784Y002953D02*
X026315Y002953D01*
X026315Y002794D02*
X038648Y002794D01*
X038510Y002636D02*
X038248Y002636D01*
X038416Y002477D02*
X038425Y002477D01*
X037582Y002636D02*
X037248Y002636D01*
X036582Y002636D02*
X036248Y002636D01*
X035582Y002636D02*
X035248Y002636D01*
X034582Y002636D02*
X034248Y002636D01*
X033582Y002636D02*
X033248Y002636D01*
X032582Y002636D02*
X032248Y002636D01*
X031582Y002636D02*
X031248Y002636D01*
X030582Y002636D02*
X029248Y002636D01*
X029416Y002477D02*
X030414Y002477D01*
X030335Y002318D02*
X029495Y002318D01*
X029532Y002160D02*
X030298Y002160D01*
X030298Y002001D02*
X029532Y002001D01*
X029474Y001843D02*
X030356Y001843D01*
X030464Y001684D02*
X029366Y001684D01*
X029126Y001526D02*
X030704Y001526D01*
X031126Y001526D02*
X031704Y001526D01*
X031464Y001684D02*
X031366Y001684D01*
X032126Y001526D02*
X032704Y001526D01*
X032464Y001684D02*
X032366Y001684D01*
X033126Y001526D02*
X033704Y001526D01*
X033464Y001684D02*
X033366Y001684D01*
X028704Y001526D02*
X028126Y001526D01*
X028366Y001684D02*
X028464Y001684D01*
X027704Y001526D02*
X027126Y001526D01*
X027366Y001684D02*
X027464Y001684D01*
X026704Y001526D02*
X026126Y001526D01*
X026366Y001684D02*
X026464Y001684D01*
X025915Y002106D02*
X025915Y015074D01*
X027915Y016074D02*
X027915Y017074D01*
X028915Y017974D01*
X026853Y012941D02*
X026697Y012941D01*
X026694Y012782D02*
X026665Y012782D01*
X026404Y009770D02*
X026315Y009770D01*
X026315Y009611D02*
X026562Y009611D01*
X026721Y009453D02*
X026315Y009453D01*
X026315Y009294D02*
X026879Y009294D01*
X028914Y005965D02*
X028916Y005965D01*
X028582Y002636D02*
X028248Y002636D01*
X027582Y002636D02*
X027248Y002636D01*
X026582Y002636D02*
X026315Y002636D01*
X025464Y001684D02*
X025366Y001684D01*
X025126Y001526D02*
X025704Y001526D01*
X024704Y001526D02*
X024126Y001526D01*
X024366Y001684D02*
X024464Y001684D01*
X023704Y001526D02*
X023126Y001526D01*
X023366Y001684D02*
X023464Y001684D01*
X022704Y001526D02*
X022126Y001526D01*
X022366Y001684D02*
X022464Y001684D01*
X032195Y012307D02*
X032263Y012307D01*
X039415Y017624D02*
X039896Y018106D01*
X039915Y018106D01*
X039415Y018574D02*
X039915Y019074D01*
X039915Y019106D01*
X030915Y024624D02*
X030915Y025924D01*
X029915Y026924D01*
X029915Y029574D01*
X029415Y030074D02*
X029915Y030574D01*
X029415Y030074D02*
X029415Y026574D01*
X029915Y026074D01*
X029915Y025659D01*
X029915Y024990D02*
X029915Y024074D01*
X028415Y025759D02*
X028415Y026674D01*
X028415Y028409D02*
X028415Y030074D01*
X028915Y030574D01*
X027915Y030574D02*
X027415Y030074D01*
X027415Y028409D01*
X026415Y028409D02*
X026415Y030074D01*
X026915Y030574D01*
X025915Y030574D02*
X025415Y030074D01*
X025415Y028409D01*
X023415Y030074D02*
X023915Y030574D01*
X014315Y023574D02*
X014315Y022959D01*
X012843Y024447D02*
X012865Y025075D01*
X012843Y024447D02*
X009921Y024447D01*
X009165Y024447D01*
X008215Y023474D01*
X005765Y023474D01*
X006836Y024531D02*
X007718Y024531D01*
X008214Y025028D01*
X007820Y025771D02*
X008608Y025771D01*
X010183Y027346D01*
X010417Y027346D01*
X010455Y027384D01*
X010932Y027384D01*
X010970Y027346D01*
X011415Y027074D02*
X010915Y026574D01*
X010515Y026574D01*
X010380Y025574D02*
X010092Y025374D01*
X009921Y025195D01*
X010380Y025574D02*
X010770Y025565D01*
X011070Y025556D01*
X012264Y026749D01*
X012264Y028030D01*
X012267Y029277D01*
X009515Y029274D01*
X009283Y029042D01*
X009283Y027827D01*
X009095Y027640D01*
X008792Y027640D01*
X008792Y027896D02*
X008792Y027924D01*
X008805Y027937D01*
X008805Y028139D01*
X008792Y028152D01*
X008774Y028134D01*
X008017Y028134D01*
X008792Y027384D02*
X009224Y027384D01*
X009815Y027974D01*
X009815Y028224D01*
X010015Y028424D01*
X011265Y028424D01*
X011815Y027874D01*
X011415Y027774D02*
X011415Y027074D01*
X011415Y027774D02*
X011038Y028152D01*
X010455Y028152D01*
X010455Y027896D02*
X010339Y027896D01*
X010183Y027740D01*
X010355Y027740D01*
X010455Y027640D01*
X010183Y027740D02*
X009986Y027740D01*
X008427Y026181D01*
X006836Y026181D01*
X007380Y025331D02*
X007820Y025771D01*
X007380Y025331D02*
X006443Y025331D01*
X019065Y018174D02*
X019565Y017649D01*
D11*
X007285Y021106D02*
X007287Y021156D01*
X007293Y021206D01*
X007303Y021255D01*
X007317Y021303D01*
X007334Y021350D01*
X007355Y021395D01*
X007380Y021439D01*
X007408Y021480D01*
X007440Y021519D01*
X007474Y021556D01*
X007511Y021590D01*
X007551Y021620D01*
X007593Y021647D01*
X007637Y021671D01*
X007683Y021692D01*
X007730Y021708D01*
X007778Y021721D01*
X007828Y021730D01*
X007877Y021735D01*
X007928Y021736D01*
X007978Y021733D01*
X008027Y021726D01*
X008076Y021715D01*
X008124Y021700D01*
X008170Y021682D01*
X008215Y021660D01*
X008258Y021634D01*
X008299Y021605D01*
X008338Y021573D01*
X008374Y021538D01*
X008406Y021500D01*
X008436Y021460D01*
X008463Y021417D01*
X008486Y021373D01*
X008505Y021327D01*
X008521Y021279D01*
X008533Y021230D01*
X008541Y021181D01*
X008545Y021131D01*
X008545Y021081D01*
X008541Y021031D01*
X008533Y020982D01*
X008521Y020933D01*
X008505Y020885D01*
X008486Y020839D01*
X008463Y020795D01*
X008436Y020752D01*
X008406Y020712D01*
X008374Y020674D01*
X008338Y020639D01*
X008299Y020607D01*
X008258Y020578D01*
X008215Y020552D01*
X008170Y020530D01*
X008124Y020512D01*
X008076Y020497D01*
X008027Y020486D01*
X007978Y020479D01*
X007928Y020476D01*
X007877Y020477D01*
X007828Y020482D01*
X007778Y020491D01*
X007730Y020504D01*
X007683Y020520D01*
X007637Y020541D01*
X007593Y020565D01*
X007551Y020592D01*
X007511Y020622D01*
X007474Y020656D01*
X007440Y020693D01*
X007408Y020732D01*
X007380Y020773D01*
X007355Y020817D01*
X007334Y020862D01*
X007317Y020909D01*
X007303Y020957D01*
X007293Y021006D01*
X007287Y021056D01*
X007285Y021106D01*
X011285Y030574D02*
X011287Y030624D01*
X011293Y030674D01*
X011303Y030723D01*
X011317Y030771D01*
X011334Y030818D01*
X011355Y030863D01*
X011380Y030907D01*
X011408Y030948D01*
X011440Y030987D01*
X011474Y031024D01*
X011511Y031058D01*
X011551Y031088D01*
X011593Y031115D01*
X011637Y031139D01*
X011683Y031160D01*
X011730Y031176D01*
X011778Y031189D01*
X011828Y031198D01*
X011877Y031203D01*
X011928Y031204D01*
X011978Y031201D01*
X012027Y031194D01*
X012076Y031183D01*
X012124Y031168D01*
X012170Y031150D01*
X012215Y031128D01*
X012258Y031102D01*
X012299Y031073D01*
X012338Y031041D01*
X012374Y031006D01*
X012406Y030968D01*
X012436Y030928D01*
X012463Y030885D01*
X012486Y030841D01*
X012505Y030795D01*
X012521Y030747D01*
X012533Y030698D01*
X012541Y030649D01*
X012545Y030599D01*
X012545Y030549D01*
X012541Y030499D01*
X012533Y030450D01*
X012521Y030401D01*
X012505Y030353D01*
X012486Y030307D01*
X012463Y030263D01*
X012436Y030220D01*
X012406Y030180D01*
X012374Y030142D01*
X012338Y030107D01*
X012299Y030075D01*
X012258Y030046D01*
X012215Y030020D01*
X012170Y029998D01*
X012124Y029980D01*
X012076Y029965D01*
X012027Y029954D01*
X011978Y029947D01*
X011928Y029944D01*
X011877Y029945D01*
X011828Y029950D01*
X011778Y029959D01*
X011730Y029972D01*
X011683Y029988D01*
X011637Y030009D01*
X011593Y030033D01*
X011551Y030060D01*
X011511Y030090D01*
X011474Y030124D01*
X011440Y030161D01*
X011408Y030200D01*
X011380Y030241D01*
X011355Y030285D01*
X011334Y030330D01*
X011317Y030377D01*
X011303Y030425D01*
X011293Y030474D01*
X011287Y030524D01*
X011285Y030574D01*
X039285Y027574D02*
X039287Y027624D01*
X039293Y027674D01*
X039303Y027723D01*
X039317Y027771D01*
X039334Y027818D01*
X039355Y027863D01*
X039380Y027907D01*
X039408Y027948D01*
X039440Y027987D01*
X039474Y028024D01*
X039511Y028058D01*
X039551Y028088D01*
X039593Y028115D01*
X039637Y028139D01*
X039683Y028160D01*
X039730Y028176D01*
X039778Y028189D01*
X039828Y028198D01*
X039877Y028203D01*
X039928Y028204D01*
X039978Y028201D01*
X040027Y028194D01*
X040076Y028183D01*
X040124Y028168D01*
X040170Y028150D01*
X040215Y028128D01*
X040258Y028102D01*
X040299Y028073D01*
X040338Y028041D01*
X040374Y028006D01*
X040406Y027968D01*
X040436Y027928D01*
X040463Y027885D01*
X040486Y027841D01*
X040505Y027795D01*
X040521Y027747D01*
X040533Y027698D01*
X040541Y027649D01*
X040545Y027599D01*
X040545Y027549D01*
X040541Y027499D01*
X040533Y027450D01*
X040521Y027401D01*
X040505Y027353D01*
X040486Y027307D01*
X040463Y027263D01*
X040436Y027220D01*
X040406Y027180D01*
X040374Y027142D01*
X040338Y027107D01*
X040299Y027075D01*
X040258Y027046D01*
X040215Y027020D01*
X040170Y026998D01*
X040124Y026980D01*
X040076Y026965D01*
X040027Y026954D01*
X039978Y026947D01*
X039928Y026944D01*
X039877Y026945D01*
X039828Y026950D01*
X039778Y026959D01*
X039730Y026972D01*
X039683Y026988D01*
X039637Y027009D01*
X039593Y027033D01*
X039551Y027060D01*
X039511Y027090D01*
X039474Y027124D01*
X039440Y027161D01*
X039408Y027200D01*
X039380Y027241D01*
X039355Y027285D01*
X039334Y027330D01*
X039317Y027377D01*
X039303Y027425D01*
X039293Y027474D01*
X039287Y027524D01*
X039285Y027574D01*
X039285Y002106D02*
X039287Y002156D01*
X039293Y002206D01*
X039303Y002255D01*
X039317Y002303D01*
X039334Y002350D01*
X039355Y002395D01*
X039380Y002439D01*
X039408Y002480D01*
X039440Y002519D01*
X039474Y002556D01*
X039511Y002590D01*
X039551Y002620D01*
X039593Y002647D01*
X039637Y002671D01*
X039683Y002692D01*
X039730Y002708D01*
X039778Y002721D01*
X039828Y002730D01*
X039877Y002735D01*
X039928Y002736D01*
X039978Y002733D01*
X040027Y002726D01*
X040076Y002715D01*
X040124Y002700D01*
X040170Y002682D01*
X040215Y002660D01*
X040258Y002634D01*
X040299Y002605D01*
X040338Y002573D01*
X040374Y002538D01*
X040406Y002500D01*
X040436Y002460D01*
X040463Y002417D01*
X040486Y002373D01*
X040505Y002327D01*
X040521Y002279D01*
X040533Y002230D01*
X040541Y002181D01*
X040545Y002131D01*
X040545Y002081D01*
X040541Y002031D01*
X040533Y001982D01*
X040521Y001933D01*
X040505Y001885D01*
X040486Y001839D01*
X040463Y001795D01*
X040436Y001752D01*
X040406Y001712D01*
X040374Y001674D01*
X040338Y001639D01*
X040299Y001607D01*
X040258Y001578D01*
X040215Y001552D01*
X040170Y001530D01*
X040124Y001512D01*
X040076Y001497D01*
X040027Y001486D01*
X039978Y001479D01*
X039928Y001476D01*
X039877Y001477D01*
X039828Y001482D01*
X039778Y001491D01*
X039730Y001504D01*
X039683Y001520D01*
X039637Y001541D01*
X039593Y001565D01*
X039551Y001592D01*
X039511Y001622D01*
X039474Y001656D01*
X039440Y001693D01*
X039408Y001732D01*
X039380Y001773D01*
X039355Y001817D01*
X039334Y001862D01*
X039317Y001909D01*
X039303Y001957D01*
X039293Y002006D01*
X039287Y002056D01*
X039285Y002106D01*
X006785Y002106D02*
X006787Y002156D01*
X006793Y002206D01*
X006803Y002255D01*
X006817Y002303D01*
X006834Y002350D01*
X006855Y002395D01*
X006880Y002439D01*
X006908Y002480D01*
X006940Y002519D01*
X006974Y002556D01*
X007011Y002590D01*
X007051Y002620D01*
X007093Y002647D01*
X007137Y002671D01*
X007183Y002692D01*
X007230Y002708D01*
X007278Y002721D01*
X007328Y002730D01*
X007377Y002735D01*
X007428Y002736D01*
X007478Y002733D01*
X007527Y002726D01*
X007576Y002715D01*
X007624Y002700D01*
X007670Y002682D01*
X007715Y002660D01*
X007758Y002634D01*
X007799Y002605D01*
X007838Y002573D01*
X007874Y002538D01*
X007906Y002500D01*
X007936Y002460D01*
X007963Y002417D01*
X007986Y002373D01*
X008005Y002327D01*
X008021Y002279D01*
X008033Y002230D01*
X008041Y002181D01*
X008045Y002131D01*
X008045Y002081D01*
X008041Y002031D01*
X008033Y001982D01*
X008021Y001933D01*
X008005Y001885D01*
X007986Y001839D01*
X007963Y001795D01*
X007936Y001752D01*
X007906Y001712D01*
X007874Y001674D01*
X007838Y001639D01*
X007799Y001607D01*
X007758Y001578D01*
X007715Y001552D01*
X007670Y001530D01*
X007624Y001512D01*
X007576Y001497D01*
X007527Y001486D01*
X007478Y001479D01*
X007428Y001476D01*
X007377Y001477D01*
X007328Y001482D01*
X007278Y001491D01*
X007230Y001504D01*
X007183Y001520D01*
X007137Y001541D01*
X007093Y001565D01*
X007051Y001592D01*
X007011Y001622D01*
X006974Y001656D01*
X006940Y001693D01*
X006908Y001732D01*
X006880Y001773D01*
X006855Y001817D01*
X006834Y001862D01*
X006817Y001909D01*
X006803Y001957D01*
X006793Y002006D01*
X006787Y002056D01*
X006785Y002106D01*
D12*
X004315Y008743D03*
X004315Y009743D03*
X004315Y010743D03*
X004315Y011743D03*
X004365Y015140D03*
X004365Y016140D03*
X004365Y017140D03*
X004365Y018140D03*
X004722Y022622D03*
X003935Y022622D03*
X003147Y022622D03*
X005509Y022622D03*
X006297Y022622D03*
X007084Y022622D03*
X007872Y022622D03*
X008659Y022622D03*
X009446Y022622D03*
X010234Y022622D03*
X018331Y025021D03*
X019331Y025021D03*
X019331Y026021D03*
X018331Y026021D03*
X018331Y027021D03*
X019331Y027021D03*
X010234Y031283D03*
X009446Y031283D03*
X008659Y031283D03*
X007872Y031283D03*
X007084Y031283D03*
X006297Y031283D03*
X005509Y031283D03*
X004722Y031283D03*
X003935Y031283D03*
X003147Y031283D03*
X022915Y016074D03*
X023915Y016074D03*
X023915Y015074D03*
X022915Y015074D03*
X024915Y015074D03*
X025915Y015074D03*
X025915Y016074D03*
X024915Y016074D03*
X027915Y016074D03*
X028915Y016074D03*
X028915Y015074D03*
X027915Y015074D03*
X027915Y014074D03*
X028915Y014074D03*
X029915Y014074D03*
X030915Y014074D03*
X030915Y015074D03*
X029915Y015074D03*
X029915Y016074D03*
X030915Y016074D03*
X033915Y016074D03*
X033915Y015074D03*
X033915Y014074D03*
X033915Y017074D03*
D13*
X033915Y021106D03*
X034915Y021106D03*
X035915Y021106D03*
X038915Y021106D03*
X039915Y021106D03*
X039915Y020106D03*
X038915Y020106D03*
X038915Y019106D03*
X039915Y019106D03*
X039915Y018106D03*
X038915Y018106D03*
X038915Y017106D03*
X039915Y017106D03*
X039915Y016106D03*
X038915Y016106D03*
X038915Y015106D03*
X039915Y015106D03*
X039915Y014106D03*
X038915Y014106D03*
X038915Y013106D03*
X039915Y013106D03*
X039915Y012106D03*
X038915Y012106D03*
X038915Y011106D03*
X039915Y011106D03*
X039915Y010106D03*
X038915Y010106D03*
X038915Y009106D03*
X039915Y009106D03*
X039915Y008106D03*
X038915Y008106D03*
X038915Y007106D03*
X039915Y007106D03*
X039915Y006106D03*
X038915Y006106D03*
X038915Y005106D03*
X039915Y005106D03*
X039915Y004106D03*
X038915Y004106D03*
X037915Y002106D03*
X036915Y002106D03*
X035915Y002106D03*
X034915Y002106D03*
X033915Y002106D03*
X032915Y002106D03*
X031915Y002106D03*
X030915Y002106D03*
X028915Y002106D03*
X027915Y002106D03*
X026915Y002106D03*
X025915Y002106D03*
X024915Y002106D03*
X023915Y002106D03*
X022915Y002106D03*
X021915Y002106D03*
X019915Y002106D03*
X018915Y002106D03*
X017915Y002106D03*
X016915Y002106D03*
X015915Y002106D03*
X014915Y002106D03*
X015315Y021106D03*
X016315Y021106D03*
X017315Y021106D03*
X018315Y021106D03*
X019915Y021106D03*
X020915Y021106D03*
X021915Y021106D03*
X022915Y021106D03*
X023915Y021106D03*
X024915Y021106D03*
X025915Y021106D03*
X026915Y021106D03*
X028915Y021106D03*
X029915Y021106D03*
X030915Y021106D03*
X031915Y021106D03*
X032915Y021106D03*
X014315Y021106D03*
X013315Y021106D03*
X012315Y021106D03*
X011315Y021106D03*
D14*
X012348Y022208D03*
X012348Y023035D03*
X003919Y024452D03*
X003092Y024452D03*
X003092Y026149D03*
X003919Y026149D03*
X003919Y027846D03*
X003092Y027846D03*
X003092Y029543D03*
X003919Y029543D03*
X012722Y001165D03*
X013549Y001165D03*
D15*
X007206Y013149D03*
X007206Y015275D03*
D16*
X016411Y017665D03*
X017411Y017665D03*
X018411Y017665D03*
X018411Y018665D03*
X017411Y018665D03*
X016411Y018665D03*
X016431Y012346D03*
X017431Y012346D03*
X018431Y012346D03*
X018431Y011346D03*
X017431Y011346D03*
X016431Y011346D03*
X020915Y029574D03*
X021915Y029574D03*
X022915Y029574D03*
X023915Y029574D03*
X024915Y029574D03*
X025915Y029574D03*
X026915Y029574D03*
X027915Y029574D03*
X028915Y029574D03*
X029915Y029574D03*
X030915Y029574D03*
X031915Y029574D03*
X032915Y029574D03*
X033915Y029574D03*
X034915Y029574D03*
X035915Y029574D03*
X036915Y029574D03*
X037915Y029574D03*
X038915Y029574D03*
X039915Y029574D03*
X039915Y030574D03*
X038915Y030574D03*
X037915Y030574D03*
X036915Y030574D03*
X035915Y030574D03*
X034915Y030574D03*
X033915Y030574D03*
X032915Y030574D03*
X031915Y030574D03*
X030915Y030574D03*
X029915Y030574D03*
X028915Y030574D03*
X027915Y030574D03*
X026915Y030574D03*
X025915Y030574D03*
X024915Y030574D03*
X023915Y030574D03*
X022915Y030574D03*
X021915Y030574D03*
X020915Y030574D03*
D17*
X021415Y028409D03*
X021415Y027740D03*
X023415Y027740D03*
X023415Y028409D03*
X025415Y028409D03*
X026415Y028409D03*
X026415Y027740D03*
X025415Y027740D03*
X027415Y027740D03*
X028415Y027740D03*
X028415Y028409D03*
X027415Y028409D03*
X030915Y028409D03*
X031915Y028409D03*
X031915Y027740D03*
X030915Y027740D03*
X029915Y025659D03*
X029915Y024990D03*
X028415Y025090D03*
X028415Y025759D03*
X032915Y022959D03*
X032915Y022290D03*
X035915Y019949D03*
X035915Y019200D03*
X036915Y015949D03*
X036915Y015200D03*
X023915Y019200D03*
X023915Y019949D03*
X019565Y017649D03*
X019565Y016900D03*
X019828Y011775D03*
X019828Y011027D03*
X015315Y022290D03*
X015315Y022959D03*
X014315Y022959D03*
X014315Y022290D03*
X013315Y022250D03*
X013315Y022999D03*
X009921Y024447D03*
X009921Y025195D03*
X033415Y027740D03*
X034415Y027740D03*
X034415Y028409D03*
X033415Y028409D03*
X035415Y028409D03*
X036415Y028409D03*
X037415Y028409D03*
X037415Y027740D03*
X036415Y027740D03*
X035415Y027740D03*
D18*
X035415Y011074D03*
X036415Y011074D03*
X036415Y010074D03*
X035415Y010074D03*
X034415Y010074D03*
X033415Y010074D03*
X032415Y010074D03*
X032415Y011074D03*
X033415Y011074D03*
X034415Y011074D03*
X030415Y011074D03*
X030415Y010074D03*
X029415Y010074D03*
X028415Y010074D03*
X027415Y010074D03*
X027415Y011074D03*
X028415Y011074D03*
X029415Y011074D03*
D19*
X017462Y013452D03*
X016462Y013452D03*
X015462Y013452D03*
X014462Y013452D03*
X013462Y013452D03*
X012462Y013452D03*
X011462Y013452D03*
X010462Y013452D03*
X010443Y014771D03*
X011443Y014771D03*
X012443Y014771D03*
X013443Y014771D03*
X014443Y014771D03*
X015443Y014771D03*
X016443Y014771D03*
X017443Y014771D03*
X017443Y019771D03*
X016443Y019771D03*
X015443Y019771D03*
X014443Y019771D03*
X013443Y019771D03*
X012443Y019771D03*
X011443Y019771D03*
X010443Y019771D03*
X010462Y008452D03*
X011462Y008452D03*
X012462Y008452D03*
X013462Y008452D03*
X014462Y008452D03*
X015462Y008452D03*
X016462Y008452D03*
X017462Y008452D03*
D20*
X012214Y007117D03*
X011544Y007117D03*
X010557Y009433D03*
X009809Y009433D03*
X012758Y002543D03*
X013506Y002543D03*
X028580Y004574D03*
X029250Y004574D03*
X029250Y006574D03*
X028580Y006574D03*
X031580Y006574D03*
X032250Y006574D03*
X034080Y006574D03*
X034750Y006574D03*
X034750Y004574D03*
X034080Y004574D03*
X032250Y004574D03*
X031580Y004574D03*
X007844Y016869D03*
X007175Y016869D03*
X006836Y024531D03*
X006167Y024531D03*
X006167Y026181D03*
X006836Y026181D03*
X006836Y027830D03*
X006167Y027830D03*
X005827Y029111D03*
X005158Y029111D03*
X012943Y026303D03*
X013612Y026303D03*
X013613Y025075D03*
X012865Y025075D03*
D21*
X011628Y017771D03*
X009502Y017771D03*
X009074Y011256D03*
X011200Y011256D03*
D22*
X010052Y006491D03*
X010052Y005310D03*
X018540Y005047D03*
X018540Y006228D03*
D23*
X006269Y003752D03*
X003946Y003752D03*
X005088Y001901D03*
D24*
X005088Y002610D01*
X003946Y003752D01*
X003946Y004456D01*
X003484Y004905D01*
X002765Y004924D01*
X002515Y005174D01*
X002515Y020974D01*
X002515Y022024D01*
X002415Y022124D01*
X002415Y023124D01*
X003065Y023774D01*
X003065Y024425D01*
X003092Y024452D01*
X015172Y028952D02*
X015732Y028952D01*
X015732Y029952D02*
X015172Y029952D01*
X015172Y030952D02*
X015732Y030952D01*
X017157Y030952D02*
X017717Y030952D01*
X017717Y029952D02*
X017157Y029952D01*
X017157Y028952D02*
X017717Y028952D01*
X011200Y011256D02*
X010896Y011256D01*
X010015Y010374D01*
X009365Y010374D01*
X008015Y009024D01*
X008015Y004284D01*
X008985Y003314D01*
X011545Y003314D01*
X011265Y003284D01*
X011465Y002724D01*
X012722Y001267D01*
X015915Y002106D02*
X015915Y004574D01*
X016115Y004374D01*
X018065Y004374D01*
X018540Y005047D01*
X015915Y004574D02*
X015649Y004574D01*
X015099Y005124D01*
X014915Y005309D01*
X014915Y006574D01*
X014372Y007117D01*
X014265Y007117D01*
X012214Y007117D01*
X011544Y007117D02*
X011544Y006045D01*
X011565Y006024D01*
X011565Y005974D01*
X012465Y005074D01*
X011811Y004641D02*
X012225Y004227D01*
X012253Y004199D01*
X012253Y003863D01*
X011811Y004641D02*
X010052Y005310D01*
X009685Y005274D01*
X009065Y005274D01*
X008959Y005431D01*
X008959Y008581D01*
X009809Y009433D01*
X010557Y009433D02*
X010615Y009374D01*
X010615Y008574D01*
X010493Y008452D01*
X010462Y008452D01*
X011501Y007161D02*
X011544Y007117D01*
X011501Y007161D02*
X010052Y006491D01*
X011565Y006024D02*
X012223Y006024D01*
X012225Y006022D01*
X006886Y006084D02*
X006886Y006644D01*
X005886Y006644D02*
X005886Y006084D01*
X005886Y006364D02*
X005565Y006343D01*
X003566Y006364D02*
X003484Y006283D01*
X006269Y003770D02*
X006269Y003752D01*
D25*
X008792Y027384D03*
X008792Y027640D03*
X008792Y027896D03*
X008792Y028152D03*
X010455Y028152D03*
X010455Y027896D03*
X010455Y027640D03*
X010455Y027384D03*
D26*
X014730Y025074D03*
X015730Y025074D03*
X015230Y025824D03*
D27*
X003515Y014590D03*
X003515Y008197D03*
D28*
X003515Y009574D03*
X003515Y010952D03*
X003515Y012330D03*
X003515Y015968D03*
X003515Y017346D03*
X003515Y018724D03*
D29*
X003484Y006283D03*
X003484Y004905D03*
D30*
X008985Y003314D03*
X008985Y001534D03*
X011545Y001534D03*
X011545Y003314D03*
D31*
X015099Y005124D03*
D32*
X012225Y004227D03*
X012225Y006022D03*
D33*
X006265Y021424D03*
X005115Y030174D03*
D34*
X015441Y026741D03*
X016189Y026741D03*
X015815Y027608D03*
D35*
X018765Y028774D02*
X020465Y027024D01*
X020465Y025574D01*
X019912Y025021D01*
X019331Y025021D01*
X018331Y025021D01*
X018331Y025021D01*
X018765Y028774D02*
X018765Y031074D01*
X019265Y031524D01*
X038965Y031524D01*
X039915Y030574D01*
X023915Y019200D02*
X023915Y017574D01*
X019565Y016900D02*
X018941Y016900D01*
X018665Y016624D01*
X018665Y016074D01*
X018465Y015874D01*
X012115Y015874D01*
X011890Y016099D01*
X011615Y016374D01*
X011615Y017759D01*
X011628Y017771D01*
X011443Y017956D01*
X011443Y019771D02*
X011415Y019799D01*
X011415Y020274D01*
X011165Y020524D01*
X010315Y020524D01*
X010234Y020606D01*
X010234Y022224D01*
X010234Y022622D01*
X010315Y020524D02*
X009915Y020524D01*
X007190Y017799D01*
X007175Y017784D01*
X007175Y016869D01*
X007175Y015306D01*
X007206Y015275D01*
X010443Y014811D02*
X010443Y014771D01*
X011342Y011397D02*
X011415Y011324D01*
X016431Y011350D02*
X016826Y011845D01*
X016431Y011350D02*
X016431Y011346D01*
X016431Y013421D02*
X016462Y013452D01*
X019759Y011845D02*
X019828Y011775D01*
X019828Y011027D02*
X019828Y010674D01*
X019828Y010238D02*
X019815Y010224D01*
X026765Y010724D02*
X026765Y012174D01*
X027165Y012574D01*
X031415Y012574D01*
X031715Y012274D01*
X031715Y010774D01*
X032415Y010074D01*
X031415Y012574D02*
X030915Y013074D01*
X030915Y014074D01*
X029915Y014074D01*
X028915Y014074D01*
X027915Y014074D01*
X026765Y010724D02*
X027415Y010074D01*
X033915Y014074D02*
X034415Y014074D01*
X036315Y015974D01*
X036889Y015974D01*
X016446Y017665D02*
X016411Y017665D01*
X016411Y018665D02*
X016411Y019740D01*
X016443Y019771D01*
X005705Y019416D02*
X005705Y008195D01*
X003092Y024452D02*
X003070Y024474D01*
X002615Y024474D01*
X002515Y024574D01*
X002515Y029324D01*
X002733Y029543D01*
X003092Y029543D01*
D36*
X002515Y020974D02*
X002915Y020574D01*
X005965Y020574D01*
X006515Y019924D01*
X006515Y018474D01*
X007190Y017799D01*
X011462Y013452D02*
X011462Y011517D01*
X011415Y011324D02*
X011415Y009724D01*
X011815Y009324D01*
X015265Y009324D01*
X016165Y010224D01*
X019815Y010224D01*
X019828Y010238D02*
X019828Y011027D01*
X019828Y010674D02*
X019828Y009911D01*
X020315Y009424D01*
X020315Y007324D01*
X019214Y006223D01*
X018540Y006228D01*
X019214Y006223D02*
X019565Y005872D01*
X019565Y003224D01*
X018915Y002574D01*
X018915Y002106D01*
X017915Y002106D01*
X016915Y001598D02*
X016482Y001165D01*
X014907Y001165D01*
X014217Y001456D01*
X016915Y001519D02*
X017269Y001165D01*
X020716Y001165D01*
X020909Y001459D01*
X020909Y005619D01*
X021565Y006324D01*
X021915Y006724D01*
X021915Y011324D01*
X021915Y013324D01*
X021365Y013874D01*
X021365Y018924D01*
X020615Y019674D01*
X019463Y019684D01*
X019431Y019685D01*
X018411Y018665D01*
X029915Y003824D02*
X029915Y002074D01*
D37*
X016915Y002106D02*
X016915Y001598D01*
X006269Y003770D02*
X005565Y004474D01*
X005565Y006343D01*
X005886Y006364D02*
X003566Y006364D01*
X009084Y012053D02*
X010462Y013452D01*
X008475Y013176D02*
X008478Y012676D01*
X008475Y013176D02*
X008455Y015826D01*
X011443Y017956D02*
X011443Y019771D01*
D38*
X016446Y017665D02*
X016915Y018174D01*
X019065Y018174D01*
X019715Y018524D02*
X019765Y018524D01*
X020115Y018124D01*
X020115Y013024D01*
X020465Y012674D01*
X020465Y010174D01*
X020965Y009674D01*
X020965Y008024D01*
X019465Y008024D02*
X019215Y007774D01*
X017165Y007774D01*
X016915Y007524D01*
X016915Y005074D01*
X015665Y007874D02*
X015965Y008174D01*
X015965Y008624D01*
X016915Y009574D01*
X018915Y009574D01*
X019315Y009174D01*
X018465Y009024D02*
X016965Y009024D01*
X016462Y008427D01*
X016462Y008452D01*
X015665Y007874D02*
X011015Y007874D01*
X010557Y008333D01*
X010557Y009433D01*
X014462Y008452D02*
X015462Y008452D01*
X015694Y014157D02*
X010576Y014157D01*
X010443Y014291D01*
X010443Y014771D01*
X014443Y014771D02*
X015443Y014771D01*
X015941Y014404D02*
X015941Y015151D01*
X016215Y015424D01*
X019065Y015424D01*
X019565Y014924D01*
X021965Y014274D02*
X021965Y019424D01*
X021015Y020374D01*
X020615Y020374D01*
X019915Y021074D01*
X019915Y021106D01*
X020915Y021074D02*
X020915Y021106D01*
X020915Y021074D02*
X022315Y019674D01*
X024915Y015074D02*
X024915Y002106D01*
X022915Y008574D02*
X022915Y013324D01*
X021965Y014274D01*
X023365Y012024D02*
X023365Y009574D01*
X015941Y014404D02*
X015694Y014157D01*
X008015Y023974D02*
X003215Y023974D01*
X003115Y024074D01*
X003115Y024430D01*
X003092Y024452D01*
X008015Y023974D02*
X009215Y025174D01*
X009215Y025724D01*
X009465Y025974D01*
X009815Y025974D01*
X010815Y025974D01*
X011815Y026974D01*
X011815Y027874D01*
D39*
X009815Y025974D03*
X012065Y025674D03*
X019415Y030674D03*
X023415Y026574D03*
X024915Y027074D03*
X026415Y025474D03*
X027415Y025124D03*
X028415Y026674D03*
X029915Y024074D03*
X031615Y025124D03*
X031915Y022724D03*
X028015Y020324D03*
X024015Y022724D03*
X022915Y023324D03*
X023415Y025074D03*
X022115Y025124D03*
X020015Y022674D03*
X020565Y018524D03*
X023115Y018024D03*
X023915Y017574D03*
X019565Y014924D03*
X018265Y014274D03*
X021365Y013874D03*
X021915Y011324D03*
X021015Y010724D03*
X019315Y009174D03*
X018465Y009024D03*
X019465Y008024D03*
X022915Y008574D03*
X023365Y009574D03*
X016915Y005074D03*
X014265Y007117D03*
X012465Y005074D03*
X029915Y002074D03*
X033165Y006574D03*
X030165Y007924D03*
X031415Y009874D03*
X037815Y005574D03*
X040715Y008924D03*
X035915Y018024D03*
X036365Y022724D03*
X040415Y024074D03*
X035415Y026874D03*
D40*
X034915Y019949D02*
X034915Y019924D01*
X035391Y019924D01*
X035915Y019949D01*
X034915Y019924D02*
X034915Y017074D01*
X034465Y016624D01*
X031465Y014524D02*
X030915Y015074D01*
X029915Y015074D01*
X028915Y015074D01*
X027915Y015074D01*
X031465Y014524D02*
X031465Y013174D01*
X032415Y012224D01*
X032415Y011074D01*
X032915Y010574D01*
X032915Y009574D01*
X031865Y008524D01*
X031715Y008524D01*
X030415Y009874D01*
X030415Y010074D01*
X030165Y007924D02*
X030165Y004974D01*
X029765Y004574D01*
X029250Y004574D01*
X029250Y003990D01*
X029415Y003824D01*
X029915Y003824D01*
X032115Y003824D01*
X032265Y003974D01*
X032265Y004559D01*
X032250Y004574D01*
X032615Y004574D01*
X032765Y004424D01*
X032765Y003974D01*
X032915Y003824D01*
X034615Y003824D01*
X034765Y003974D01*
X034765Y004559D01*
X034750Y004574D01*
X035165Y004574D01*
X035365Y004374D01*
X035365Y004324D01*
X035615Y004074D01*
X038883Y004074D01*
X038915Y004106D01*
X039915Y004106D01*
X015315Y021106D02*
X015315Y022290D01*
X015315Y022959D02*
X015315Y023574D01*
X015730Y025074D02*
X015480Y025324D01*
X015115Y025324D01*
X014815Y025624D01*
X013765Y025624D01*
X013615Y025474D01*
X013415Y025674D01*
X012065Y025674D01*
X013613Y025473D02*
X013613Y025075D01*
X013613Y025473D02*
X013615Y025474D01*
X013315Y022999D02*
X012494Y022996D01*
X012415Y023074D01*
X012348Y022208D02*
X010250Y022208D01*
X010234Y022224D01*
X013315Y022250D02*
X013315Y021106D01*
X014315Y021106D02*
X014315Y022290D01*
D41*
X016443Y014771D02*
X016443Y014747D01*
X016915Y014274D01*
X018265Y014274D01*
X019828Y010674D02*
X019778Y010624D01*
D42*
X016431Y012346D02*
X016431Y013421D01*
X011462Y011517D02*
X011342Y011397D01*
X011200Y011256D01*
D43*
X012545Y010220D03*
X013332Y011008D03*
X014120Y011795D03*
X009915Y015574D03*
X012742Y016519D03*
X013923Y017307D03*
X014710Y018094D03*
X019715Y018524D03*
X014315Y023574D03*
X010515Y026574D03*
X010970Y027346D03*
X012954Y028921D03*
X008214Y025028D03*
X006443Y025331D03*
X005765Y023474D03*
X003096Y025378D03*
X007427Y029111D03*
X005705Y019416D03*
X005705Y008195D03*
X020965Y008024D03*
X023415Y005574D03*
X024415Y005974D03*
X025415Y006574D03*
X027515Y006574D03*
X030815Y005974D03*
X033315Y004574D03*
X033715Y005574D03*
X037315Y005274D03*
X037515Y004574D03*
X033915Y009274D03*
D44*
X016915Y002106D02*
X016915Y001519D01*
X014217Y001456D02*
X014217Y003084D01*
X013923Y003377D01*
X012739Y003377D01*
X012739Y002563D01*
X012758Y002543D01*
X013506Y002543D02*
X013546Y002504D01*
X013549Y001165D01*
X012739Y003377D02*
X012253Y003863D01*
X012545Y010220D02*
X012545Y013370D01*
X012462Y013452D01*
X013332Y013386D02*
X013462Y013452D01*
X013332Y013386D02*
X013332Y011008D01*
X014120Y011795D02*
X014120Y013204D01*
X014462Y013452D01*
X011890Y016099D02*
X011365Y015574D01*
X009915Y015574D01*
X008062Y016869D02*
X007844Y016869D01*
X009502Y017771D02*
X009814Y017853D01*
X012443Y019771D02*
X012742Y019472D01*
X012742Y016519D01*
X013923Y017307D02*
X013923Y019291D01*
X013443Y019771D01*
X014443Y019771D02*
X014710Y019448D01*
X014710Y018094D01*
X006167Y024531D02*
X006088Y024452D01*
X003950Y026181D02*
X003919Y026149D01*
X003092Y026149D02*
X003092Y027846D01*
X003092Y026149D02*
X003092Y025382D01*
X003096Y025378D01*
X006151Y027846D02*
X006167Y027830D01*
X006836Y027830D02*
X007714Y027830D01*
X008017Y028134D01*
X007427Y029111D02*
X005827Y029111D01*
X003950Y029511D02*
X003919Y029543D01*
X008828Y011279D02*
X008805Y011256D01*
D45*
X009074Y011256D01*
X009084Y012053D01*
X008828Y011279D02*
X008478Y012676D01*
X008448Y013149D02*
X008475Y013176D01*
X008448Y013149D02*
X007206Y013149D01*
X008265Y011256D02*
X006877Y009867D01*
X006886Y006364D01*
X008265Y011256D02*
X008805Y011256D01*
X008455Y015826D02*
X008062Y016869D01*
X008455Y015826D02*
X009534Y016855D01*
X009534Y017771D01*
X009502Y017771D02*
X009543Y018719D01*
X010443Y019771D01*
D46*
X009534Y017771D02*
X009502Y017771D01*
D47*
X012348Y023035D02*
X012415Y023074D01*
X013315Y022999D02*
X013415Y023074D01*
X038915Y019106D02*
X038915Y019074D01*
X039915Y020074D02*
X039915Y020106D01*
D48*
X031215Y011474D02*
X030965Y011724D01*
X030015Y011724D01*
X029415Y011124D01*
X029415Y011074D01*
X031215Y011474D02*
X031215Y010074D01*
X031415Y009874D01*
X032250Y006574D02*
X033165Y006574D01*
X021015Y010724D02*
X021015Y012774D01*
X020565Y013224D01*
X020565Y018524D01*
X019463Y019684D02*
X019165Y019983D01*
X019165Y021774D01*
X020015Y022624D01*
X020015Y022674D01*
X017315Y021106D02*
X016696Y021724D01*
X016115Y021724D01*
X015815Y021424D01*
X015815Y020624D01*
X015565Y020374D01*
X014015Y020374D01*
X013815Y020574D01*
X013815Y023874D01*
X014165Y024224D01*
X017015Y024224D01*
X017615Y024824D01*
X017615Y026324D01*
X018312Y027021D01*
X018331Y027021D01*
D49*
X006167Y026181D02*
X003950Y026181D01*
X003919Y027846D02*
X006151Y027846D01*
X005158Y029111D02*
X004665Y029124D01*
X004265Y029524D01*
X003950Y029511D01*
X003919Y024452D02*
X006088Y024452D01*
X016826Y011845D02*
X019759Y011845D01*
D50*
X035915Y017874D02*
X036915Y016874D01*
X036915Y015949D01*
X035915Y018024D02*
X035915Y019200D01*
M02*
