G75*
G70*
%OFA0B0*%
%FSLAX24Y24*%
%IPPOS*%
%LPD*%
%AMOC8*
5,1,8,0,0,1.08239X$1,22.5*
%
%ADD10C,0.0160*%
%ADD11C,0.0000*%
%ADD12C,0.1300*%
%ADD13C,0.0640*%
%ADD14C,0.0634*%
%ADD15OC8,0.0640*%
%ADD16OC8,0.0600*%
%ADD17C,0.0594*%
%ADD18C,0.1930*%
%ADD19C,0.0600*%
%ADD20OC8,0.0560*%
%ADD21R,0.0840X0.0840*%
%ADD22C,0.0840*%
%ADD23C,0.0900*%
%ADD24C,0.0780*%
%ADD25OC8,0.0800*%
D10*
X001915Y001362D02*
X002702Y000574D01*
X040498Y000574D01*
X041285Y001362D01*
X041285Y031283D01*
X040498Y032071D01*
X002702Y032071D01*
X001915Y031283D01*
X001915Y001362D01*
D11*
X006785Y002106D02*
X006787Y002156D01*
X006793Y002206D01*
X006803Y002255D01*
X006817Y002303D01*
X006834Y002350D01*
X006855Y002395D01*
X006880Y002439D01*
X006908Y002480D01*
X006940Y002519D01*
X006974Y002556D01*
X007011Y002590D01*
X007051Y002620D01*
X007093Y002647D01*
X007137Y002671D01*
X007183Y002692D01*
X007230Y002708D01*
X007278Y002721D01*
X007328Y002730D01*
X007377Y002735D01*
X007428Y002736D01*
X007478Y002733D01*
X007527Y002726D01*
X007576Y002715D01*
X007624Y002700D01*
X007670Y002682D01*
X007715Y002660D01*
X007758Y002634D01*
X007799Y002605D01*
X007838Y002573D01*
X007874Y002538D01*
X007906Y002500D01*
X007936Y002460D01*
X007963Y002417D01*
X007986Y002373D01*
X008005Y002327D01*
X008021Y002279D01*
X008033Y002230D01*
X008041Y002181D01*
X008045Y002131D01*
X008045Y002081D01*
X008041Y002031D01*
X008033Y001982D01*
X008021Y001933D01*
X008005Y001885D01*
X007986Y001839D01*
X007963Y001795D01*
X007936Y001752D01*
X007906Y001712D01*
X007874Y001674D01*
X007838Y001639D01*
X007799Y001607D01*
X007758Y001578D01*
X007715Y001552D01*
X007670Y001530D01*
X007624Y001512D01*
X007576Y001497D01*
X007527Y001486D01*
X007478Y001479D01*
X007428Y001476D01*
X007377Y001477D01*
X007328Y001482D01*
X007278Y001491D01*
X007230Y001504D01*
X007183Y001520D01*
X007137Y001541D01*
X007093Y001565D01*
X007051Y001592D01*
X007011Y001622D01*
X006974Y001656D01*
X006940Y001693D01*
X006908Y001732D01*
X006880Y001773D01*
X006855Y001817D01*
X006834Y001862D01*
X006817Y001909D01*
X006803Y001957D01*
X006793Y002006D01*
X006787Y002056D01*
X006785Y002106D01*
X007285Y021106D02*
X007287Y021156D01*
X007293Y021206D01*
X007303Y021255D01*
X007317Y021303D01*
X007334Y021350D01*
X007355Y021395D01*
X007380Y021439D01*
X007408Y021480D01*
X007440Y021519D01*
X007474Y021556D01*
X007511Y021590D01*
X007551Y021620D01*
X007593Y021647D01*
X007637Y021671D01*
X007683Y021692D01*
X007730Y021708D01*
X007778Y021721D01*
X007828Y021730D01*
X007877Y021735D01*
X007928Y021736D01*
X007978Y021733D01*
X008027Y021726D01*
X008076Y021715D01*
X008124Y021700D01*
X008170Y021682D01*
X008215Y021660D01*
X008258Y021634D01*
X008299Y021605D01*
X008338Y021573D01*
X008374Y021538D01*
X008406Y021500D01*
X008436Y021460D01*
X008463Y021417D01*
X008486Y021373D01*
X008505Y021327D01*
X008521Y021279D01*
X008533Y021230D01*
X008541Y021181D01*
X008545Y021131D01*
X008545Y021081D01*
X008541Y021031D01*
X008533Y020982D01*
X008521Y020933D01*
X008505Y020885D01*
X008486Y020839D01*
X008463Y020795D01*
X008436Y020752D01*
X008406Y020712D01*
X008374Y020674D01*
X008338Y020639D01*
X008299Y020607D01*
X008258Y020578D01*
X008215Y020552D01*
X008170Y020530D01*
X008124Y020512D01*
X008076Y020497D01*
X008027Y020486D01*
X007978Y020479D01*
X007928Y020476D01*
X007877Y020477D01*
X007828Y020482D01*
X007778Y020491D01*
X007730Y020504D01*
X007683Y020520D01*
X007637Y020541D01*
X007593Y020565D01*
X007551Y020592D01*
X007511Y020622D01*
X007474Y020656D01*
X007440Y020693D01*
X007408Y020732D01*
X007380Y020773D01*
X007355Y020817D01*
X007334Y020862D01*
X007317Y020909D01*
X007303Y020957D01*
X007293Y021006D01*
X007287Y021056D01*
X007285Y021106D01*
X011285Y030574D02*
X011287Y030624D01*
X011293Y030674D01*
X011303Y030723D01*
X011317Y030771D01*
X011334Y030818D01*
X011355Y030863D01*
X011380Y030907D01*
X011408Y030948D01*
X011440Y030987D01*
X011474Y031024D01*
X011511Y031058D01*
X011551Y031088D01*
X011593Y031115D01*
X011637Y031139D01*
X011683Y031160D01*
X011730Y031176D01*
X011778Y031189D01*
X011828Y031198D01*
X011877Y031203D01*
X011928Y031204D01*
X011978Y031201D01*
X012027Y031194D01*
X012076Y031183D01*
X012124Y031168D01*
X012170Y031150D01*
X012215Y031128D01*
X012258Y031102D01*
X012299Y031073D01*
X012338Y031041D01*
X012374Y031006D01*
X012406Y030968D01*
X012436Y030928D01*
X012463Y030885D01*
X012486Y030841D01*
X012505Y030795D01*
X012521Y030747D01*
X012533Y030698D01*
X012541Y030649D01*
X012545Y030599D01*
X012545Y030549D01*
X012541Y030499D01*
X012533Y030450D01*
X012521Y030401D01*
X012505Y030353D01*
X012486Y030307D01*
X012463Y030263D01*
X012436Y030220D01*
X012406Y030180D01*
X012374Y030142D01*
X012338Y030107D01*
X012299Y030075D01*
X012258Y030046D01*
X012215Y030020D01*
X012170Y029998D01*
X012124Y029980D01*
X012076Y029965D01*
X012027Y029954D01*
X011978Y029947D01*
X011928Y029944D01*
X011877Y029945D01*
X011828Y029950D01*
X011778Y029959D01*
X011730Y029972D01*
X011683Y029988D01*
X011637Y030009D01*
X011593Y030033D01*
X011551Y030060D01*
X011511Y030090D01*
X011474Y030124D01*
X011440Y030161D01*
X011408Y030200D01*
X011380Y030241D01*
X011355Y030285D01*
X011334Y030330D01*
X011317Y030377D01*
X011303Y030425D01*
X011293Y030474D01*
X011287Y030524D01*
X011285Y030574D01*
X039285Y027574D02*
X039287Y027624D01*
X039293Y027674D01*
X039303Y027723D01*
X039317Y027771D01*
X039334Y027818D01*
X039355Y027863D01*
X039380Y027907D01*
X039408Y027948D01*
X039440Y027987D01*
X039474Y028024D01*
X039511Y028058D01*
X039551Y028088D01*
X039593Y028115D01*
X039637Y028139D01*
X039683Y028160D01*
X039730Y028176D01*
X039778Y028189D01*
X039828Y028198D01*
X039877Y028203D01*
X039928Y028204D01*
X039978Y028201D01*
X040027Y028194D01*
X040076Y028183D01*
X040124Y028168D01*
X040170Y028150D01*
X040215Y028128D01*
X040258Y028102D01*
X040299Y028073D01*
X040338Y028041D01*
X040374Y028006D01*
X040406Y027968D01*
X040436Y027928D01*
X040463Y027885D01*
X040486Y027841D01*
X040505Y027795D01*
X040521Y027747D01*
X040533Y027698D01*
X040541Y027649D01*
X040545Y027599D01*
X040545Y027549D01*
X040541Y027499D01*
X040533Y027450D01*
X040521Y027401D01*
X040505Y027353D01*
X040486Y027307D01*
X040463Y027263D01*
X040436Y027220D01*
X040406Y027180D01*
X040374Y027142D01*
X040338Y027107D01*
X040299Y027075D01*
X040258Y027046D01*
X040215Y027020D01*
X040170Y026998D01*
X040124Y026980D01*
X040076Y026965D01*
X040027Y026954D01*
X039978Y026947D01*
X039928Y026944D01*
X039877Y026945D01*
X039828Y026950D01*
X039778Y026959D01*
X039730Y026972D01*
X039683Y026988D01*
X039637Y027009D01*
X039593Y027033D01*
X039551Y027060D01*
X039511Y027090D01*
X039474Y027124D01*
X039440Y027161D01*
X039408Y027200D01*
X039380Y027241D01*
X039355Y027285D01*
X039334Y027330D01*
X039317Y027377D01*
X039303Y027425D01*
X039293Y027474D01*
X039287Y027524D01*
X039285Y027574D01*
X039285Y002106D02*
X039287Y002156D01*
X039293Y002206D01*
X039303Y002255D01*
X039317Y002303D01*
X039334Y002350D01*
X039355Y002395D01*
X039380Y002439D01*
X039408Y002480D01*
X039440Y002519D01*
X039474Y002556D01*
X039511Y002590D01*
X039551Y002620D01*
X039593Y002647D01*
X039637Y002671D01*
X039683Y002692D01*
X039730Y002708D01*
X039778Y002721D01*
X039828Y002730D01*
X039877Y002735D01*
X039928Y002736D01*
X039978Y002733D01*
X040027Y002726D01*
X040076Y002715D01*
X040124Y002700D01*
X040170Y002682D01*
X040215Y002660D01*
X040258Y002634D01*
X040299Y002605D01*
X040338Y002573D01*
X040374Y002538D01*
X040406Y002500D01*
X040436Y002460D01*
X040463Y002417D01*
X040486Y002373D01*
X040505Y002327D01*
X040521Y002279D01*
X040533Y002230D01*
X040541Y002181D01*
X040545Y002131D01*
X040545Y002081D01*
X040541Y002031D01*
X040533Y001982D01*
X040521Y001933D01*
X040505Y001885D01*
X040486Y001839D01*
X040463Y001795D01*
X040436Y001752D01*
X040406Y001712D01*
X040374Y001674D01*
X040338Y001639D01*
X040299Y001607D01*
X040258Y001578D01*
X040215Y001552D01*
X040170Y001530D01*
X040124Y001512D01*
X040076Y001497D01*
X040027Y001486D01*
X039978Y001479D01*
X039928Y001476D01*
X039877Y001477D01*
X039828Y001482D01*
X039778Y001491D01*
X039730Y001504D01*
X039683Y001520D01*
X039637Y001541D01*
X039593Y001565D01*
X039551Y001592D01*
X039511Y001622D01*
X039474Y001656D01*
X039440Y001693D01*
X039408Y001732D01*
X039380Y001773D01*
X039355Y001817D01*
X039334Y001862D01*
X039317Y001909D01*
X039303Y001957D01*
X039293Y002006D01*
X039287Y002056D01*
X039285Y002106D01*
D12*
X039915Y002106D03*
X007915Y021106D03*
X011915Y030574D03*
X039915Y027574D03*
X007415Y002106D03*
D13*
X004315Y008743D03*
X004315Y009743D03*
X004315Y010743D03*
X004315Y011743D03*
X004365Y015140D03*
X004365Y016140D03*
X004365Y017140D03*
X004365Y018140D03*
X004722Y022622D03*
X003935Y022622D03*
X003147Y022622D03*
X005509Y022622D03*
X006297Y022622D03*
X007084Y022622D03*
X007872Y022622D03*
X008659Y022622D03*
X009446Y022622D03*
X010234Y022622D03*
X018331Y025021D03*
X019331Y025021D03*
X019331Y026021D03*
X018331Y026021D03*
X018331Y027021D03*
X019331Y027021D03*
X010234Y031283D03*
X009446Y031283D03*
X008659Y031283D03*
X007872Y031283D03*
X007084Y031283D03*
X006297Y031283D03*
X005509Y031283D03*
X004722Y031283D03*
X003935Y031283D03*
X003147Y031283D03*
X022915Y016074D03*
X023915Y016074D03*
X023915Y015074D03*
X022915Y015074D03*
X024915Y015074D03*
X025915Y015074D03*
X025915Y016074D03*
X024915Y016074D03*
X027915Y016074D03*
X028915Y016074D03*
X028915Y015074D03*
X027915Y015074D03*
X027915Y014074D03*
X028915Y014074D03*
X029915Y014074D03*
X030915Y014074D03*
X030915Y015074D03*
X029915Y015074D03*
X029915Y016074D03*
X030915Y016074D03*
X033915Y016074D03*
X033915Y015074D03*
X033915Y014074D03*
X033915Y017074D03*
D14*
X033915Y021106D03*
X034915Y021106D03*
X035915Y021106D03*
X038915Y021106D03*
X039915Y021106D03*
X039915Y020106D03*
X038915Y020106D03*
X038915Y019106D03*
X039915Y019106D03*
X039915Y018106D03*
X038915Y018106D03*
X038915Y017106D03*
X039915Y017106D03*
X039915Y016106D03*
X038915Y016106D03*
X038915Y015106D03*
X039915Y015106D03*
X039915Y014106D03*
X038915Y014106D03*
X038915Y013106D03*
X039915Y013106D03*
X039915Y012106D03*
X038915Y012106D03*
X038915Y011106D03*
X039915Y011106D03*
X039915Y010106D03*
X038915Y010106D03*
X038915Y009106D03*
X039915Y009106D03*
X039915Y008106D03*
X038915Y008106D03*
X038915Y007106D03*
X039915Y007106D03*
X039915Y006106D03*
X038915Y006106D03*
X038915Y005106D03*
X039915Y005106D03*
X039915Y004106D03*
X038915Y004106D03*
X037915Y002106D03*
X036915Y002106D03*
X035915Y002106D03*
X034915Y002106D03*
X033915Y002106D03*
X032915Y002106D03*
X031915Y002106D03*
X030915Y002106D03*
X028915Y002106D03*
X027915Y002106D03*
X026915Y002106D03*
X025915Y002106D03*
X024915Y002106D03*
X023915Y002106D03*
X022915Y002106D03*
X021915Y002106D03*
X019915Y002106D03*
X018915Y002106D03*
X017915Y002106D03*
X016915Y002106D03*
X015915Y002106D03*
X014915Y002106D03*
X015315Y021106D03*
X016315Y021106D03*
X017315Y021106D03*
X018315Y021106D03*
X019915Y021106D03*
X020915Y021106D03*
X021915Y021106D03*
X022915Y021106D03*
X023915Y021106D03*
X024915Y021106D03*
X025915Y021106D03*
X026915Y021106D03*
X028915Y021106D03*
X029915Y021106D03*
X030915Y021106D03*
X031915Y021106D03*
X032915Y021106D03*
X014315Y021106D03*
X013315Y021106D03*
X012315Y021106D03*
X011315Y021106D03*
D15*
X016411Y018665D03*
X017411Y018665D03*
X018411Y018665D03*
X018411Y017665D03*
X017411Y017665D03*
X016411Y017665D03*
X016431Y012346D03*
X017431Y012346D03*
X018431Y012346D03*
X018431Y011346D03*
X017431Y011346D03*
X016431Y011346D03*
X020915Y029574D03*
X021915Y029574D03*
X022915Y029574D03*
X023915Y029574D03*
X024915Y029574D03*
X025915Y029574D03*
X026915Y029574D03*
X027915Y029574D03*
X028915Y029574D03*
X029915Y029574D03*
X030915Y029574D03*
X031915Y029574D03*
X032915Y029574D03*
X033915Y029574D03*
X034915Y029574D03*
X035915Y029574D03*
X036915Y029574D03*
X037915Y029574D03*
X038915Y029574D03*
X039915Y029574D03*
X039915Y030574D03*
X038915Y030574D03*
X037915Y030574D03*
X036915Y030574D03*
X035915Y030574D03*
X034915Y030574D03*
X033915Y030574D03*
X032915Y030574D03*
X031915Y030574D03*
X030915Y030574D03*
X029915Y030574D03*
X028915Y030574D03*
X027915Y030574D03*
X026915Y030574D03*
X025915Y030574D03*
X024915Y030574D03*
X023915Y030574D03*
X022915Y030574D03*
X021915Y030574D03*
X020915Y030574D03*
D16*
X027415Y011074D03*
X028415Y011074D03*
X029415Y011074D03*
X029415Y010074D03*
X028415Y010074D03*
X027415Y010074D03*
X030415Y010074D03*
X030415Y011074D03*
X032415Y011074D03*
X033415Y011074D03*
X034415Y011074D03*
X034415Y010074D03*
X033415Y010074D03*
X032415Y010074D03*
X035415Y010074D03*
X036415Y010074D03*
X036415Y011074D03*
X035415Y011074D03*
D17*
X017462Y013452D03*
X016462Y013452D03*
X015462Y013452D03*
X014462Y013452D03*
X013462Y013452D03*
X012462Y013452D03*
X011462Y013452D03*
X010462Y013452D03*
X010443Y014771D03*
X011443Y014771D03*
X012443Y014771D03*
X013443Y014771D03*
X014443Y014771D03*
X015443Y014771D03*
X016443Y014771D03*
X017443Y014771D03*
X017443Y019771D03*
X016443Y019771D03*
X015443Y019771D03*
X014443Y019771D03*
X013443Y019771D03*
X012443Y019771D03*
X011443Y019771D03*
X010443Y019771D03*
X010462Y008452D03*
X011462Y008452D03*
X012462Y008452D03*
X013462Y008452D03*
X014462Y008452D03*
X015462Y008452D03*
X016462Y008452D03*
X017462Y008452D03*
D18*
X006269Y003752D03*
X003946Y003752D03*
X005088Y001901D03*
D19*
X005886Y006084D02*
X005886Y006644D01*
X006886Y006644D02*
X006886Y006084D01*
X015172Y028952D02*
X015732Y028952D01*
X015732Y029952D02*
X015172Y029952D01*
X015172Y030952D02*
X015732Y030952D01*
X017157Y030952D02*
X017717Y030952D01*
X017717Y029952D02*
X017157Y029952D01*
X017157Y028952D02*
X017717Y028952D01*
D20*
X015230Y025824D03*
X015730Y025074D03*
X014730Y025074D03*
D21*
X003515Y014590D03*
X003515Y008197D03*
D22*
X003515Y009574D03*
X003515Y010952D03*
X003515Y012330D03*
X003515Y015968D03*
X003515Y017346D03*
X003515Y018724D03*
D23*
X003484Y006283D03*
X003484Y004905D03*
D24*
X008985Y003314D03*
X008985Y001534D03*
X011545Y001534D03*
X011545Y003314D03*
D25*
X006265Y021424D03*
X005115Y030174D03*
M02*
