G75*
G70*
%OFA0B0*%
%FSLAX24Y24*%
%IPPOS*%
%LPD*%
%AMOC8*
5,1,8,0,0,1.08239X$1,22.5*
%
%ADD10C,0.0160*%
%ADD11C,0.0000*%
%ADD12C,0.0600*%
%ADD13C,0.0594*%
%ADD14OC8,0.0600*%
%ADD15OC8,0.0560*%
%ADD16C,0.0554*%
%ADD17C,0.1890*%
%ADD18C,0.0560*%
%ADD19OC8,0.0520*%
%ADD20R,0.0800X0.0800*%
%ADD21C,0.0800*%
%ADD22C,0.0860*%
%ADD23C,0.0740*%
%ADD24OC8,0.0760*%
%ADD25C,0.0591*%
%ADD26C,0.0320*%
%ADD27C,0.0400*%
%ADD28C,0.0180*%
%ADD29C,0.0630*%
%ADD30C,0.0197*%
%ADD31C,0.0060*%
%ADD32C,0.0500*%
%ADD33C,0.0356*%
%ADD34C,0.0860*%
%ADD35C,0.0160*%
%ADD36C,0.0433*%
%ADD37C,0.0400*%
D10*
X001971Y000587D02*
X002124Y000587D01*
X001952Y000759D01*
X001971Y000587D01*
X001955Y000733D02*
X001978Y000733D01*
X001915Y001362D02*
X002702Y000574D01*
X040498Y000574D01*
X041285Y001362D01*
X041285Y031283D01*
X040498Y032071D01*
X002702Y032071D01*
X001915Y031283D01*
X001915Y001362D01*
X002446Y001396D02*
X003807Y002487D01*
X003966Y002487D01*
X003909Y002389D01*
X003823Y002068D01*
X003823Y001735D01*
X003909Y001413D01*
X004076Y001125D01*
X004226Y000974D01*
X002868Y000974D01*
X002446Y001396D01*
X002475Y001367D02*
X003936Y001367D01*
X003879Y001526D02*
X002608Y001526D01*
X002805Y001684D02*
X003837Y001684D01*
X003823Y001843D02*
X003003Y001843D01*
X003201Y002001D02*
X003823Y002001D01*
X003848Y002160D02*
X003399Y002160D01*
X003597Y002318D02*
X003890Y002318D01*
X003960Y002477D02*
X003795Y002477D01*
X005069Y003166D02*
X005108Y003234D01*
X005147Y003166D01*
X005069Y003166D01*
X006211Y002487D02*
X006436Y002487D01*
X006558Y002520D01*
X006465Y002295D01*
X006465Y001917D01*
X006610Y001568D01*
X006877Y001301D01*
X007226Y001156D01*
X007604Y001156D01*
X007953Y001301D01*
X008220Y001568D01*
X008365Y001917D01*
X008365Y002295D01*
X008220Y002644D01*
X007953Y002911D01*
X007604Y003056D01*
X007328Y003056D01*
X007448Y003263D01*
X007534Y003585D01*
X007534Y003918D01*
X007448Y004240D01*
X007281Y004528D01*
X007046Y004764D01*
X006815Y004897D01*
X007497Y005444D01*
X007734Y005345D01*
X007867Y005290D01*
X008008Y005231D01*
X008009Y005231D01*
X008010Y005230D01*
X008157Y005230D01*
X008176Y005230D01*
X011872Y005211D01*
X011865Y005194D01*
X011865Y004692D01*
X011284Y003953D01*
X011154Y003899D01*
X010960Y003705D01*
X010855Y003452D01*
X010855Y003177D01*
X010960Y002924D01*
X011154Y002730D01*
X011408Y002624D01*
X011682Y002624D01*
X011936Y002730D01*
X012130Y002924D01*
X012235Y003177D01*
X012235Y003221D01*
X012915Y004086D01*
X012974Y004145D01*
X012988Y004179D01*
X013010Y004207D01*
X013033Y004288D01*
X013065Y004365D01*
X013065Y004402D01*
X013075Y004437D01*
X013065Y004520D01*
X013065Y005194D01*
X013060Y005205D01*
X016399Y005187D01*
X016395Y005178D01*
X016395Y004971D01*
X016474Y004780D01*
X016497Y004758D01*
X016497Y003798D01*
X016176Y003477D01*
X015779Y003477D01*
X015625Y003413D01*
X015507Y003296D01*
X015489Y003250D01*
X014964Y002723D01*
X014792Y002723D01*
X014566Y002629D01*
X014392Y002455D01*
X014298Y002229D01*
X014298Y002081D01*
X014202Y001984D01*
X012071Y001984D01*
X011936Y002119D01*
X011682Y002224D01*
X011408Y002224D01*
X011154Y002119D01*
X010969Y001934D01*
X009561Y001934D01*
X009376Y002119D01*
X009122Y002224D01*
X008848Y002224D01*
X008594Y002119D01*
X008400Y001925D01*
X008295Y001672D01*
X008295Y001397D01*
X008400Y001144D01*
X008569Y000974D01*
X005950Y000974D01*
X006100Y001125D01*
X006267Y001413D01*
X006353Y001735D01*
X006353Y002068D01*
X006267Y002389D01*
X006211Y002487D01*
X006216Y002477D02*
X006540Y002477D01*
X006475Y002318D02*
X006286Y002318D01*
X006328Y002160D02*
X006465Y002160D01*
X006465Y002001D02*
X006353Y002001D01*
X006353Y001843D02*
X006496Y001843D01*
X006561Y001684D02*
X006340Y001684D01*
X006297Y001526D02*
X006652Y001526D01*
X006810Y001367D02*
X006240Y001367D01*
X006149Y001209D02*
X007099Y001209D01*
X007731Y001209D02*
X008373Y001209D01*
X008307Y001367D02*
X008020Y001367D01*
X008178Y001526D02*
X008295Y001526D01*
X008300Y001684D02*
X008268Y001684D01*
X008334Y001843D02*
X008366Y001843D01*
X008365Y002001D02*
X008476Y002001D01*
X008365Y002160D02*
X008692Y002160D01*
X008355Y002318D02*
X014335Y002318D01*
X014298Y002160D02*
X011838Y002160D01*
X012054Y002001D02*
X014219Y002001D01*
X014414Y002477D02*
X008289Y002477D01*
X008224Y002636D02*
X008821Y002636D01*
X008848Y002624D02*
X008594Y002730D01*
X008400Y002924D01*
X008295Y003177D01*
X008295Y003452D01*
X008400Y003705D01*
X008594Y003899D01*
X008848Y004004D01*
X009122Y004004D01*
X009376Y003899D01*
X009570Y003705D01*
X009675Y003452D01*
X009675Y003177D01*
X009570Y002924D01*
X009376Y002730D01*
X009122Y002624D01*
X008848Y002624D01*
X009149Y002636D02*
X011381Y002636D01*
X011709Y002636D02*
X014582Y002636D01*
X015035Y002794D02*
X012000Y002794D01*
X012142Y002953D02*
X015193Y002953D01*
X015350Y003111D02*
X012208Y003111D01*
X012273Y003270D02*
X015497Y003270D01*
X015661Y003428D02*
X012398Y003428D01*
X012522Y003587D02*
X016286Y003587D01*
X016444Y003745D02*
X012647Y003745D01*
X012772Y003904D02*
X016497Y003904D01*
X016497Y004062D02*
X012896Y004062D01*
X013014Y004221D02*
X016497Y004221D01*
X016497Y004380D02*
X013065Y004380D01*
X013065Y004538D02*
X016497Y004538D01*
X016497Y004697D02*
X013065Y004697D01*
X013065Y004855D02*
X016443Y004855D01*
X016395Y005014D02*
X013065Y005014D01*
X013065Y005172D02*
X016395Y005172D01*
X017333Y004758D02*
X017356Y004780D01*
X017425Y004947D01*
X019028Y002759D01*
X018789Y002759D01*
X018620Y002690D01*
X018117Y002690D01*
X018038Y002723D01*
X017792Y002723D01*
X017566Y002629D01*
X017415Y002478D01*
X017264Y002629D01*
X017038Y002723D01*
X016792Y002723D01*
X016566Y002629D01*
X016415Y002478D01*
X016264Y002629D01*
X016237Y002640D01*
X016266Y002640D01*
X016432Y002640D01*
X016586Y002704D01*
X017152Y003270D01*
X017270Y003387D01*
X017333Y003541D01*
X017333Y004758D01*
X017333Y004697D02*
X017609Y004697D01*
X017493Y004855D02*
X017387Y004855D01*
X017333Y004538D02*
X017725Y004538D01*
X017841Y004380D02*
X017333Y004380D01*
X017333Y004221D02*
X017957Y004221D01*
X018074Y004062D02*
X017333Y004062D01*
X017333Y003904D02*
X018190Y003904D01*
X018306Y003745D02*
X017333Y003745D01*
X017333Y003587D02*
X018422Y003587D01*
X018538Y003428D02*
X017287Y003428D01*
X017152Y003270D02*
X018654Y003270D01*
X018771Y003111D02*
X016993Y003111D01*
X016835Y002953D02*
X018887Y002953D01*
X019003Y002794D02*
X016676Y002794D01*
X016582Y002636D02*
X016248Y002636D01*
X015862Y003059D02*
X014915Y002106D01*
X015366Y001684D02*
X015464Y001684D01*
X015415Y001734D02*
X015566Y001583D01*
X015792Y001489D01*
X016038Y001489D01*
X016264Y001583D01*
X016415Y001734D01*
X016566Y001583D01*
X016792Y001489D01*
X017038Y001489D01*
X017264Y001583D01*
X017400Y001719D01*
X017566Y001553D01*
X017793Y001459D01*
X018296Y001459D01*
X018300Y001431D01*
X018300Y001352D01*
X018317Y001311D01*
X018323Y001266D01*
X018363Y001199D01*
X018393Y001126D01*
X018425Y001094D01*
X018448Y001056D01*
X018511Y001008D01*
X018545Y000974D01*
X011961Y000974D01*
X012130Y001144D01*
X012147Y001184D01*
X014266Y001184D01*
X014310Y001166D01*
X014477Y001166D01*
X014630Y001230D01*
X014890Y001489D01*
X015038Y001489D01*
X015264Y001583D01*
X015415Y001734D01*
X015126Y001526D02*
X015704Y001526D01*
X016126Y001526D02*
X016704Y001526D01*
X016464Y001684D02*
X016366Y001684D01*
X017126Y001526D02*
X017632Y001526D01*
X017435Y001684D02*
X017366Y001684D01*
X018300Y001367D02*
X014768Y001367D01*
X014580Y001209D02*
X018357Y001209D01*
X018455Y001050D02*
X012036Y001050D01*
X011545Y001534D02*
X008985Y001534D01*
X009476Y001050D02*
X011054Y001050D01*
X011129Y000974D02*
X010969Y001134D01*
X009561Y001134D01*
X009401Y000974D01*
X011129Y000974D01*
X011395Y001584D02*
X011545Y001534D01*
X011395Y001584D02*
X014393Y001584D01*
X017248Y002636D02*
X017582Y002636D01*
X019701Y004380D02*
X032857Y004380D01*
X032893Y004292D02*
X033033Y004152D01*
X033216Y004076D01*
X033251Y004076D01*
X032749Y003574D01*
X027840Y003574D01*
X027786Y003581D01*
X027761Y003574D01*
X027735Y003574D01*
X027685Y003554D01*
X027632Y003539D01*
X027612Y003523D01*
X027588Y003514D01*
X027550Y003475D01*
X026712Y002823D01*
X026688Y002814D01*
X026650Y002775D01*
X026607Y002741D01*
X026594Y002719D01*
X026576Y002701D01*
X026555Y002651D01*
X026528Y002603D01*
X026526Y002590D01*
X026415Y002478D01*
X026264Y002629D01*
X026038Y002723D01*
X025792Y002723D01*
X025566Y002629D01*
X025415Y002478D01*
X025264Y002629D01*
X025038Y002723D01*
X024792Y002723D01*
X024566Y002629D01*
X024415Y002478D01*
X024264Y002629D01*
X024038Y002723D01*
X023792Y002723D01*
X023566Y002629D01*
X023415Y002478D01*
X023264Y002629D01*
X023038Y002723D01*
X022792Y002723D01*
X022566Y002629D01*
X022415Y002478D01*
X022264Y002629D01*
X022038Y002723D01*
X021792Y002723D01*
X021566Y002629D01*
X021392Y002455D01*
X021298Y002229D01*
X021298Y001983D01*
X021378Y001790D01*
X020598Y001790D01*
X020642Y001868D01*
X020677Y002165D01*
X020597Y002452D01*
X020578Y002476D01*
X020578Y002879D01*
X020592Y002970D01*
X020578Y003027D01*
X020578Y003086D01*
X020543Y003171D01*
X020521Y003260D01*
X020487Y003307D01*
X020464Y003361D01*
X020399Y003426D01*
X018294Y006299D01*
X018273Y006352D01*
X018207Y006418D01*
X018151Y006494D01*
X018103Y006524D01*
X018063Y006564D01*
X017976Y006600D01*
X017896Y006649D01*
X017840Y006657D01*
X017788Y006680D01*
X017694Y006680D01*
X017601Y006694D01*
X017546Y006681D01*
X014579Y006696D01*
X014706Y006823D01*
X014785Y007014D01*
X014785Y007221D01*
X014706Y007412D01*
X014559Y007558D01*
X014368Y007637D01*
X014161Y007637D01*
X014082Y007604D01*
X010194Y007604D01*
X010507Y007855D01*
X010581Y007855D01*
X010800Y007946D01*
X010962Y008108D01*
X011124Y007946D01*
X011343Y007855D01*
X011581Y007855D01*
X011800Y007946D01*
X011962Y008108D01*
X012124Y007946D01*
X012343Y007855D01*
X012581Y007855D01*
X012800Y007946D01*
X012962Y008108D01*
X013124Y007946D01*
X013343Y007855D01*
X013581Y007855D01*
X013800Y007946D01*
X013962Y008108D01*
X014124Y007946D01*
X014343Y007855D01*
X014581Y007855D01*
X014800Y007946D01*
X014962Y008108D01*
X015124Y007946D01*
X015343Y007855D01*
X015581Y007855D01*
X015800Y007946D01*
X015962Y008108D01*
X016124Y007946D01*
X016343Y007855D01*
X016581Y007855D01*
X016800Y007946D01*
X016962Y008108D01*
X017124Y007946D01*
X017343Y007855D01*
X017581Y007855D01*
X017800Y007946D01*
X017968Y008114D01*
X018059Y008334D01*
X018059Y008571D01*
X017968Y008791D01*
X017865Y008894D01*
X017865Y009163D01*
X018985Y010325D01*
X020679Y010325D01*
X020720Y010284D01*
X020911Y010204D01*
X021118Y010204D01*
X021309Y010284D01*
X021456Y010430D01*
X021535Y010621D01*
X021535Y010828D01*
X021456Y011019D01*
X021309Y011165D01*
X021118Y011244D01*
X020911Y011244D01*
X020720Y011165D01*
X020679Y011124D01*
X019051Y011124D01*
X019051Y011603D01*
X018844Y011810D01*
X021134Y011810D01*
X021460Y011021D01*
X021610Y010870D01*
X021808Y010788D01*
X022021Y010788D01*
X022158Y010844D01*
X023579Y010844D01*
X023588Y010841D01*
X023674Y010844D01*
X023760Y010844D01*
X023769Y010848D01*
X023779Y010849D01*
X023857Y010885D01*
X023937Y010918D01*
X023944Y010924D01*
X023952Y010928D01*
X024011Y010992D01*
X024072Y011053D01*
X024076Y011061D01*
X024308Y011312D01*
X025928Y009732D01*
X025993Y009668D01*
X025996Y009666D01*
X025998Y009664D01*
X026084Y009630D01*
X026169Y009594D01*
X026173Y009594D01*
X026176Y009593D01*
X026268Y009594D01*
X027046Y009594D01*
X027166Y009474D01*
X027663Y009474D01*
X027915Y009726D01*
X028166Y009474D01*
X028663Y009474D01*
X028915Y009726D01*
X029166Y009474D01*
X029663Y009474D01*
X029755Y009566D01*
X029755Y008250D01*
X029724Y008219D01*
X029645Y008028D01*
X029645Y007821D01*
X029724Y007630D01*
X029870Y007484D01*
X030061Y007404D01*
X030268Y007404D01*
X030459Y007484D01*
X030606Y007630D01*
X030685Y007821D01*
X030685Y008028D01*
X030606Y008219D01*
X030575Y008250D01*
X030575Y009474D01*
X030663Y009474D01*
X030914Y009725D01*
X030974Y009580D01*
X031120Y009434D01*
X031311Y009354D01*
X031333Y009354D01*
X032765Y007677D01*
X032765Y006910D01*
X032724Y006869D01*
X032645Y006678D01*
X032645Y006471D01*
X032724Y006280D01*
X032870Y006134D01*
X033061Y006054D01*
X033268Y006054D01*
X033459Y006134D01*
X033606Y006280D01*
X033685Y006471D01*
X033685Y006678D01*
X033606Y006869D01*
X033565Y006910D01*
X033565Y007809D01*
X033570Y007872D01*
X033565Y007888D01*
X033565Y007904D01*
X033541Y007963D01*
X033521Y008024D01*
X033510Y008036D01*
X033504Y008051D01*
X033459Y008096D01*
X032282Y009474D01*
X032663Y009474D01*
X032915Y009726D01*
X033015Y009626D01*
X033015Y008695D01*
X033076Y008548D01*
X033188Y008435D01*
X033335Y008374D01*
X033495Y008374D01*
X033849Y008374D01*
X035915Y006309D01*
X035915Y004474D01*
X033895Y004474D01*
X033813Y004474D01*
X033813Y004475D01*
X033813Y004674D01*
X033737Y004857D01*
X033715Y004879D01*
X033715Y005009D01*
X033782Y005076D01*
X033814Y005076D01*
X033997Y005152D01*
X034137Y005292D01*
X034213Y005475D01*
X034213Y005674D01*
X034137Y005857D01*
X033997Y005997D01*
X033814Y006073D01*
X033616Y006073D01*
X033433Y005997D01*
X033411Y005974D01*
X031313Y005974D01*
X031313Y006074D01*
X031237Y006257D01*
X031097Y006397D01*
X030914Y006473D01*
X030716Y006473D01*
X030533Y006397D01*
X030511Y006374D01*
X027971Y006374D01*
X028013Y006475D01*
X028013Y006674D01*
X027937Y006857D01*
X027797Y006997D01*
X027614Y007073D01*
X027416Y007073D01*
X027233Y006997D01*
X027211Y006974D01*
X025719Y006974D01*
X025697Y006997D01*
X025514Y007073D01*
X025316Y007073D01*
X025133Y006997D01*
X024993Y006857D01*
X024917Y006674D01*
X024917Y006475D01*
X024959Y006374D01*
X024719Y006374D01*
X024697Y006397D01*
X024514Y006473D01*
X024316Y006473D01*
X024133Y006397D01*
X023993Y006257D01*
X023917Y006074D01*
X023917Y005974D01*
X023719Y005974D01*
X023697Y005997D01*
X023514Y006073D01*
X023316Y006073D01*
X023133Y005997D01*
X022993Y005857D01*
X022917Y005674D01*
X022917Y005475D01*
X022993Y005292D01*
X023133Y005152D01*
X023316Y005076D01*
X023514Y005076D01*
X023697Y005152D01*
X023719Y005174D01*
X032915Y005174D01*
X032915Y005095D01*
X032915Y004879D01*
X032893Y004857D01*
X032817Y004674D01*
X032817Y004475D01*
X032893Y004292D01*
X032964Y004221D02*
X019817Y004221D01*
X019933Y004062D02*
X033237Y004062D01*
X033079Y003904D02*
X020049Y003904D01*
X020166Y003745D02*
X032920Y003745D01*
X032762Y003587D02*
X020282Y003587D01*
X020398Y003428D02*
X027490Y003428D01*
X027286Y003270D02*
X020514Y003270D01*
X020568Y003111D02*
X027082Y003111D01*
X026878Y002953D02*
X020590Y002953D01*
X020578Y002794D02*
X026669Y002794D01*
X026546Y002636D02*
X026248Y002636D01*
X026915Y002474D02*
X027815Y003174D01*
X032915Y003174D01*
X033815Y004074D01*
X036115Y004074D01*
X036315Y004274D01*
X036315Y006474D01*
X034015Y008774D01*
X033415Y008774D01*
X033415Y010074D01*
X033015Y009611D02*
X032800Y009611D01*
X033015Y009453D02*
X032301Y009453D01*
X032436Y009294D02*
X033015Y009294D01*
X033015Y009136D02*
X032571Y009136D01*
X032707Y008977D02*
X033015Y008977D01*
X033015Y008819D02*
X032842Y008819D01*
X032977Y008660D02*
X033029Y008660D01*
X033113Y008502D02*
X033122Y008502D01*
X033248Y008343D02*
X033881Y008343D01*
X034039Y008185D02*
X033383Y008185D01*
X033519Y008026D02*
X034198Y008026D01*
X034356Y007867D02*
X033569Y007867D01*
X033565Y007709D02*
X034515Y007709D01*
X034673Y007550D02*
X033565Y007550D01*
X033565Y007392D02*
X034832Y007392D01*
X034990Y007233D02*
X033565Y007233D01*
X033565Y007075D02*
X035149Y007075D01*
X035308Y006916D02*
X033565Y006916D01*
X033652Y006758D02*
X035466Y006758D01*
X035625Y006599D02*
X033685Y006599D01*
X033672Y006441D02*
X035783Y006441D01*
X035915Y006282D02*
X033607Y006282D01*
X033435Y006124D02*
X035915Y006124D01*
X035915Y005965D02*
X034029Y005965D01*
X034158Y005806D02*
X035915Y005806D01*
X035915Y005648D02*
X034213Y005648D01*
X034213Y005489D02*
X035915Y005489D01*
X035915Y005331D02*
X034153Y005331D01*
X034017Y005172D02*
X035915Y005172D01*
X035915Y005014D02*
X033720Y005014D01*
X033738Y004855D02*
X035915Y004855D01*
X035915Y004697D02*
X033804Y004697D01*
X033813Y004538D02*
X035915Y004538D01*
X036615Y003974D02*
X036415Y003774D01*
X034115Y003774D01*
X033115Y002774D01*
X032515Y002774D01*
X032415Y002674D01*
X031915Y002106D01*
X032366Y001684D02*
X032464Y001684D01*
X032415Y001734D02*
X032566Y001583D01*
X032792Y001489D01*
X033038Y001489D01*
X033264Y001583D01*
X033415Y001734D01*
X033566Y001583D01*
X033792Y001489D01*
X034038Y001489D01*
X034264Y001583D01*
X034415Y001734D01*
X034566Y001583D01*
X034792Y001489D01*
X035038Y001489D01*
X035264Y001583D01*
X035415Y001734D01*
X035566Y001583D01*
X035792Y001489D01*
X036038Y001489D01*
X036264Y001583D01*
X036415Y001734D01*
X036566Y001583D01*
X036792Y001489D01*
X037038Y001489D01*
X037264Y001583D01*
X037415Y001734D01*
X037566Y001583D01*
X037792Y001489D01*
X038038Y001489D01*
X038264Y001583D01*
X038438Y001757D01*
X038532Y001983D01*
X038532Y002229D01*
X038438Y002455D01*
X038319Y002574D01*
X039081Y002574D01*
X038965Y002295D01*
X038965Y001917D01*
X039110Y001568D01*
X039377Y001301D01*
X039726Y001156D01*
X040104Y001156D01*
X040453Y001301D01*
X040720Y001568D01*
X040865Y001917D01*
X040865Y002295D01*
X040726Y002629D01*
X040742Y002635D01*
X040854Y002748D01*
X040885Y002779D01*
X040885Y001528D01*
X040332Y000974D01*
X030498Y000974D01*
X030530Y001052D01*
X030530Y001618D01*
X030566Y001583D01*
X030792Y001489D01*
X031038Y001489D01*
X031264Y001583D01*
X031415Y001734D01*
X031566Y001583D01*
X031792Y001489D01*
X032038Y001489D01*
X032264Y001583D01*
X032415Y001734D01*
X032126Y001526D02*
X032704Y001526D01*
X033126Y001526D02*
X033704Y001526D01*
X033464Y001684D02*
X033366Y001684D01*
X032915Y002106D02*
X034315Y003374D01*
X036515Y003374D01*
X036915Y003774D01*
X036915Y006674D01*
X034415Y009174D01*
X034415Y010074D01*
X034915Y010274D02*
X034915Y009774D01*
X038115Y006574D01*
X038115Y006274D01*
X038315Y006074D01*
X038883Y006074D01*
X038915Y006106D01*
X039415Y006478D02*
X039287Y006606D01*
X039415Y006734D01*
X039543Y006606D01*
X039415Y006478D01*
X039294Y006599D02*
X039536Y006599D01*
X039915Y007106D02*
X039446Y007574D01*
X038415Y007574D01*
X037915Y008074D01*
X037915Y010474D01*
X036815Y011574D01*
X027915Y011574D01*
X027415Y011074D01*
X027910Y010721D02*
X027920Y010721D01*
X027915Y010726D02*
X028066Y010574D01*
X027915Y010423D01*
X027763Y010574D01*
X027915Y010726D01*
X027775Y010563D02*
X028055Y010563D01*
X028415Y010074D02*
X028915Y010574D01*
X034615Y010574D01*
X034915Y010274D01*
X035722Y009533D02*
X035915Y009726D01*
X036166Y009474D01*
X036663Y009474D01*
X037015Y009826D01*
X037015Y010323D01*
X036763Y010574D01*
X037006Y010817D01*
X037515Y010309D01*
X037515Y007995D01*
X037576Y007848D01*
X037688Y007735D01*
X037688Y007735D01*
X038076Y007348D01*
X038188Y007235D01*
X038298Y007190D01*
X038298Y006983D01*
X038317Y006938D01*
X035722Y009533D01*
X035800Y009611D02*
X036029Y009611D01*
X035802Y009453D02*
X037515Y009453D01*
X037515Y009611D02*
X036800Y009611D01*
X036959Y009770D02*
X037515Y009770D01*
X037515Y009929D02*
X037015Y009929D01*
X037015Y010087D02*
X037515Y010087D01*
X037515Y010246D02*
X037015Y010246D01*
X036934Y010404D02*
X037420Y010404D01*
X037261Y010563D02*
X036775Y010563D01*
X036910Y010721D02*
X037102Y010721D01*
X037600Y011355D02*
X038318Y011355D01*
X038326Y011348D02*
X038341Y011333D01*
X038298Y011229D01*
X038298Y010983D01*
X038392Y010757D01*
X038543Y010606D01*
X038392Y010455D01*
X038315Y010269D01*
X038315Y010554D01*
X038254Y010701D01*
X038142Y010814D01*
X037042Y011914D01*
X036895Y011974D01*
X036735Y011974D01*
X027835Y011974D01*
X027688Y011914D01*
X027576Y011801D01*
X027449Y011674D01*
X027166Y011674D01*
X026815Y011323D01*
X026815Y010826D01*
X027066Y010574D01*
X027046Y010554D01*
X026460Y010554D01*
X024689Y012281D01*
X024686Y012287D01*
X024626Y012342D01*
X023395Y013618D01*
X023395Y014678D01*
X023415Y014698D01*
X023564Y014549D01*
X023792Y014454D01*
X024038Y014454D01*
X024266Y014549D01*
X024415Y014698D01*
X024564Y014549D01*
X024792Y014454D01*
X025038Y014454D01*
X025266Y014549D01*
X025415Y014698D01*
X025564Y014549D01*
X025792Y014454D01*
X026038Y014454D01*
X026266Y014549D01*
X026441Y014723D01*
X026535Y014951D01*
X026535Y015156D01*
X027242Y015156D01*
X027295Y015103D01*
X027295Y014951D01*
X027389Y014723D01*
X027538Y014574D01*
X027389Y014426D01*
X027295Y014198D01*
X027295Y013951D01*
X027389Y013723D01*
X027564Y013549D01*
X027792Y013454D01*
X028038Y013454D01*
X028266Y013549D01*
X028415Y013698D01*
X028564Y013549D01*
X028792Y013454D01*
X029038Y013454D01*
X029266Y013549D01*
X029415Y013698D01*
X029564Y013549D01*
X029792Y013454D01*
X030038Y013454D01*
X030266Y013549D01*
X030415Y013698D01*
X030564Y013549D01*
X030792Y013454D01*
X031038Y013454D01*
X031266Y013549D01*
X031312Y013594D01*
X033518Y013594D01*
X033564Y013549D01*
X033792Y013454D01*
X034038Y013454D01*
X034266Y013549D01*
X034441Y013723D01*
X034535Y013951D01*
X034535Y014198D01*
X034441Y014426D01*
X034292Y014574D01*
X034441Y014723D01*
X034535Y014951D01*
X034535Y015139D01*
X038326Y011348D01*
X038298Y011197D02*
X037758Y011197D01*
X037917Y011038D02*
X038298Y011038D01*
X038341Y010880D02*
X038075Y010880D01*
X038234Y010721D02*
X038427Y010721D01*
X038499Y010563D02*
X038311Y010563D01*
X038315Y010404D02*
X038371Y010404D01*
X038315Y009943D02*
X038392Y009757D01*
X038543Y009606D01*
X038392Y009455D01*
X038315Y009269D01*
X038315Y009943D01*
X038315Y009929D02*
X038321Y009929D01*
X038315Y009770D02*
X038386Y009770D01*
X038315Y009611D02*
X038537Y009611D01*
X038391Y009453D02*
X038315Y009453D01*
X038315Y009294D02*
X038325Y009294D01*
X038315Y008943D02*
X038392Y008757D01*
X038543Y008606D01*
X038392Y008455D01*
X038315Y008269D01*
X038315Y008943D01*
X038315Y008819D02*
X038366Y008819D01*
X038315Y008660D02*
X038488Y008660D01*
X038438Y008502D02*
X038315Y008502D01*
X038315Y008343D02*
X038346Y008343D01*
X037515Y008343D02*
X036912Y008343D01*
X037070Y008185D02*
X037515Y008185D01*
X037515Y008026D02*
X037229Y008026D01*
X037388Y007867D02*
X037568Y007867D01*
X037546Y007709D02*
X037715Y007709D01*
X037705Y007550D02*
X037873Y007550D01*
X037863Y007392D02*
X038032Y007392D01*
X038022Y007233D02*
X038193Y007233D01*
X038180Y007075D02*
X038298Y007075D01*
X038515Y006634D02*
X038543Y006606D01*
X038515Y006578D01*
X038515Y006634D01*
X038515Y006599D02*
X038536Y006599D01*
X037715Y006409D02*
X037276Y006848D01*
X037315Y006754D01*
X037315Y006595D01*
X037315Y005773D01*
X037334Y005773D01*
X037374Y005869D01*
X037520Y006015D01*
X037711Y006094D01*
X037757Y006094D01*
X037715Y006195D01*
X037715Y006354D01*
X037715Y006409D01*
X037683Y006441D02*
X037315Y006441D01*
X037315Y006599D02*
X037525Y006599D01*
X037366Y006758D02*
X037313Y006758D01*
X037315Y006282D02*
X037715Y006282D01*
X037745Y006124D02*
X037315Y006124D01*
X037315Y005965D02*
X037470Y005965D01*
X037348Y005806D02*
X037315Y005806D01*
X037315Y005274D02*
X037483Y005106D01*
X038915Y005106D01*
X039415Y004574D02*
X037515Y004574D01*
X037315Y004118D02*
X037416Y004076D01*
X037614Y004076D01*
X037797Y004152D01*
X037819Y004174D01*
X038298Y004174D01*
X038298Y003983D01*
X038392Y003757D01*
X038566Y003583D01*
X038792Y003489D01*
X039038Y003489D01*
X039264Y003583D01*
X039415Y003734D01*
X039566Y003583D01*
X039792Y003489D01*
X040038Y003489D01*
X040264Y003583D01*
X040438Y003757D01*
X040515Y003943D01*
X040515Y003540D01*
X040349Y003374D01*
X037081Y003374D01*
X037142Y003435D01*
X037254Y003548D01*
X037315Y003695D01*
X037315Y004118D01*
X037315Y004062D02*
X038298Y004062D01*
X038331Y003904D02*
X037315Y003904D01*
X037315Y003745D02*
X038403Y003745D01*
X038562Y003587D02*
X037270Y003587D01*
X037134Y003428D02*
X040403Y003428D01*
X040515Y003587D02*
X040268Y003587D01*
X040427Y003745D02*
X040515Y003745D01*
X040499Y003904D02*
X040515Y003904D01*
X040915Y003374D02*
X040515Y002974D01*
X034715Y002974D01*
X033915Y002106D01*
X034366Y001684D02*
X034464Y001684D01*
X034704Y001526D02*
X034126Y001526D01*
X035126Y001526D02*
X035704Y001526D01*
X035464Y001684D02*
X035366Y001684D01*
X036126Y001526D02*
X036704Y001526D01*
X036464Y001684D02*
X036366Y001684D01*
X037126Y001526D02*
X037704Y001526D01*
X037464Y001684D02*
X037366Y001684D01*
X038126Y001526D02*
X039152Y001526D01*
X039061Y001684D02*
X038366Y001684D01*
X038474Y001843D02*
X038996Y001843D01*
X038965Y002001D02*
X038532Y002001D01*
X038532Y002160D02*
X038965Y002160D01*
X038975Y002318D02*
X038495Y002318D01*
X038416Y002477D02*
X039041Y002477D01*
X039268Y003587D02*
X039562Y003587D01*
X040742Y002636D02*
X040885Y002636D01*
X040885Y002477D02*
X040789Y002477D01*
X040855Y002318D02*
X040885Y002318D01*
X040885Y002160D02*
X040865Y002160D01*
X040865Y002001D02*
X040885Y002001D01*
X040885Y001843D02*
X040834Y001843D01*
X040885Y001684D02*
X040768Y001684D01*
X040678Y001526D02*
X040883Y001526D01*
X040725Y001367D02*
X040520Y001367D01*
X040566Y001209D02*
X040231Y001209D01*
X040408Y001050D02*
X030529Y001050D01*
X030530Y001209D02*
X039599Y001209D01*
X039310Y001367D02*
X030530Y001367D01*
X030530Y001526D02*
X030704Y001526D01*
X031126Y001526D02*
X031704Y001526D01*
X031464Y001684D02*
X031366Y001684D01*
X031415Y002478D02*
X031264Y002629D01*
X031038Y002723D01*
X030792Y002723D01*
X030566Y002629D01*
X030398Y002461D01*
X030263Y002596D01*
X030037Y002690D01*
X029793Y002690D01*
X029566Y002596D01*
X029432Y002461D01*
X029264Y002629D01*
X029038Y002723D01*
X028792Y002723D01*
X028566Y002629D01*
X028415Y002478D01*
X028264Y002629D01*
X028038Y002723D01*
X027886Y002723D01*
X027952Y002774D01*
X031970Y002774D01*
X031925Y002723D01*
X031792Y002723D01*
X031566Y002629D01*
X031415Y002478D01*
X031248Y002636D02*
X031582Y002636D01*
X030582Y002636D02*
X030168Y002636D01*
X030383Y002477D02*
X030414Y002477D01*
X029662Y002636D02*
X029248Y002636D01*
X029416Y002477D02*
X029447Y002477D01*
X028582Y002636D02*
X028248Y002636D01*
X026915Y002474D02*
X026915Y002106D01*
X025582Y002636D02*
X025248Y002636D01*
X024582Y002636D02*
X024248Y002636D01*
X023582Y002636D02*
X023248Y002636D01*
X022582Y002636D02*
X022248Y002636D01*
X021582Y002636D02*
X020578Y002636D01*
X020578Y002477D02*
X021414Y002477D01*
X021335Y002318D02*
X020634Y002318D01*
X020677Y002160D02*
X021298Y002160D01*
X021298Y002001D02*
X020658Y002001D01*
X020627Y001843D02*
X021356Y001843D01*
X019585Y004538D02*
X032817Y004538D01*
X032826Y004697D02*
X019468Y004697D01*
X019352Y004855D02*
X032892Y004855D01*
X032915Y005014D02*
X019236Y005014D01*
X019120Y005172D02*
X023113Y005172D01*
X022977Y005331D02*
X019004Y005331D01*
X018888Y005489D02*
X022917Y005489D01*
X022917Y005648D02*
X018771Y005648D01*
X018655Y005806D02*
X022972Y005806D01*
X023101Y005965D02*
X018539Y005965D01*
X018423Y006124D02*
X023938Y006124D01*
X024018Y006282D02*
X018307Y006282D01*
X018191Y006441D02*
X024239Y006441D01*
X024591Y006441D02*
X024931Y006441D01*
X024917Y006599D02*
X017979Y006599D01*
X019045Y007709D02*
X010324Y007709D01*
X010610Y007867D02*
X011314Y007867D01*
X011610Y007867D02*
X012314Y007867D01*
X012610Y007867D02*
X013314Y007867D01*
X013610Y007867D02*
X014314Y007867D01*
X014610Y007867D02*
X015314Y007867D01*
X015610Y007867D02*
X016314Y007867D01*
X016610Y007867D02*
X017314Y007867D01*
X017610Y007867D02*
X018967Y007867D01*
X018945Y007921D02*
X019024Y007730D01*
X019170Y007584D01*
X019361Y007504D01*
X019568Y007504D01*
X019759Y007584D01*
X019782Y007606D01*
X020679Y007606D01*
X020683Y007602D01*
X020866Y007526D01*
X021064Y007526D01*
X021247Y007602D01*
X021387Y007742D01*
X021463Y007925D01*
X021463Y008124D01*
X021450Y008156D01*
X022598Y008156D01*
X022620Y008134D01*
X022811Y008054D01*
X023018Y008054D01*
X023209Y008134D01*
X023356Y008280D01*
X023435Y008471D01*
X023435Y008678D01*
X023356Y008869D01*
X023209Y009015D01*
X023018Y009094D01*
X022811Y009094D01*
X022620Y009015D01*
X022598Y008993D01*
X022575Y008993D01*
X022738Y009156D01*
X023048Y009156D01*
X023070Y009134D01*
X023261Y009054D01*
X023468Y009054D01*
X023659Y009134D01*
X023806Y009280D01*
X023885Y009471D01*
X023885Y009678D01*
X023806Y009869D01*
X023659Y010015D01*
X023468Y010094D01*
X023261Y010094D01*
X023070Y010015D01*
X023048Y009993D01*
X022482Y009993D01*
X022328Y009929D01*
X022210Y009811D01*
X021992Y009593D01*
X021432Y009593D01*
X019632Y009593D01*
X019609Y009615D01*
X019418Y009694D01*
X019211Y009694D01*
X019020Y009615D01*
X018874Y009469D01*
X018839Y009385D01*
X018759Y009465D01*
X018568Y009544D01*
X018361Y009544D01*
X018170Y009465D01*
X018024Y009319D01*
X017945Y009128D01*
X017945Y008921D01*
X018024Y008730D01*
X018170Y008584D01*
X018361Y008504D01*
X018393Y008504D01*
X018560Y008337D01*
X018678Y008220D01*
X018832Y008156D01*
X018957Y008156D01*
X018945Y008128D01*
X018945Y007921D01*
X018945Y008026D02*
X017880Y008026D01*
X017998Y008185D02*
X018763Y008185D01*
X018555Y008343D02*
X018059Y008343D01*
X018059Y008502D02*
X018396Y008502D01*
X018094Y008660D02*
X018022Y008660D01*
X017987Y008819D02*
X017940Y008819D01*
X017945Y008977D02*
X017865Y008977D01*
X017865Y009136D02*
X017948Y009136D01*
X017991Y009294D02*
X018014Y009294D01*
X018144Y009453D02*
X018158Y009453D01*
X018297Y009611D02*
X019017Y009611D01*
X018867Y009453D02*
X018772Y009453D01*
X018450Y009770D02*
X022169Y009770D01*
X022327Y009929D02*
X018603Y009929D01*
X018756Y010087D02*
X023244Y010087D01*
X023486Y010087D02*
X025564Y010087D01*
X025402Y010246D02*
X021218Y010246D01*
X021430Y010404D02*
X025239Y010404D01*
X025076Y010563D02*
X021511Y010563D01*
X021535Y010721D02*
X024914Y010721D01*
X024751Y010880D02*
X023847Y010880D01*
X024058Y011038D02*
X024588Y011038D01*
X024426Y011197D02*
X024201Y011197D01*
X023480Y011831D02*
X022286Y011831D01*
X022297Y011804D02*
X022030Y012452D01*
X022030Y012453D01*
X021986Y012557D01*
X021949Y012649D01*
X021948Y012650D01*
X021880Y012718D01*
X021798Y012801D01*
X021797Y012801D01*
X021718Y012834D01*
X021601Y012883D01*
X021600Y012883D01*
X021494Y012883D01*
X021387Y012883D01*
X021387Y012883D01*
X018771Y012883D01*
X018687Y012966D01*
X018174Y012966D01*
X018090Y012883D01*
X017771Y012883D01*
X017748Y012905D01*
X017811Y012931D01*
X017984Y013104D01*
X018077Y013330D01*
X018077Y013355D01*
X018077Y013600D01*
X017984Y013826D01*
X017980Y013830D01*
X018161Y013754D01*
X018368Y013754D01*
X018559Y013834D01*
X018706Y013980D01*
X018785Y014171D01*
X018785Y014267D01*
X019102Y014684D01*
X019124Y014630D01*
X019270Y014484D01*
X019461Y014404D01*
X019668Y014404D01*
X019859Y014484D01*
X019882Y014506D01*
X020362Y014506D01*
X020441Y014505D01*
X020445Y014506D01*
X020448Y014506D01*
X020522Y014537D01*
X020596Y014566D01*
X020599Y014568D01*
X020602Y014570D01*
X020658Y014626D01*
X022149Y016068D01*
X022152Y016070D01*
X022208Y016126D01*
X022266Y016182D01*
X022267Y016185D01*
X022270Y016187D01*
X022300Y016261D01*
X022332Y016334D01*
X022332Y016338D01*
X022333Y016341D01*
X022333Y016421D01*
X022335Y016501D01*
X022333Y016504D01*
X022333Y017332D01*
X022743Y017661D01*
X022820Y017584D01*
X023011Y017504D01*
X023218Y017504D01*
X023395Y017578D01*
X023395Y017471D01*
X023435Y017374D01*
X023435Y017223D01*
X022906Y016694D01*
X022792Y016694D01*
X022564Y016600D01*
X022389Y016426D01*
X022295Y016198D01*
X022295Y015951D01*
X022389Y015723D01*
X022435Y015678D01*
X022435Y015471D01*
X022389Y015426D01*
X022295Y015198D01*
X022295Y014951D01*
X022389Y014723D01*
X022435Y014678D01*
X022435Y013429D01*
X022433Y013338D01*
X022435Y013333D01*
X022435Y013329D01*
X022470Y013245D01*
X022503Y013160D01*
X022506Y013157D01*
X022508Y013153D01*
X022573Y013088D01*
X023630Y011993D01*
X023455Y011804D01*
X022297Y011804D01*
X022221Y011990D02*
X023627Y011990D01*
X023479Y012148D02*
X022155Y012148D01*
X022090Y012307D02*
X023326Y012307D01*
X023174Y012465D02*
X022025Y012465D01*
X021959Y012624D02*
X023021Y012624D01*
X022868Y012782D02*
X021816Y012782D01*
X021797Y012801D02*
X021797Y012801D01*
X021600Y012883D02*
X021600Y012883D01*
X021948Y012650D02*
X021948Y012650D01*
X022715Y012941D02*
X018713Y012941D01*
X018149Y012941D02*
X017821Y012941D01*
X017979Y013099D02*
X022561Y013099D01*
X022464Y013258D02*
X018048Y013258D01*
X018077Y013416D02*
X021112Y013416D01*
X021070Y013434D02*
X021261Y013354D01*
X021468Y013354D01*
X021659Y013434D01*
X021806Y013580D01*
X021885Y013771D01*
X021885Y013978D01*
X021806Y014169D01*
X021659Y014315D01*
X021468Y014394D01*
X021261Y014394D01*
X021070Y014315D01*
X020924Y014169D01*
X020845Y013978D01*
X020845Y013771D01*
X020924Y013580D01*
X021070Y013434D01*
X020929Y013575D02*
X018077Y013575D01*
X018022Y013734D02*
X020860Y013734D01*
X020845Y013892D02*
X018618Y013892D01*
X018735Y014051D02*
X020875Y014051D01*
X020964Y014209D02*
X018785Y014209D01*
X018861Y014368D02*
X021197Y014368D01*
X021533Y014368D02*
X022435Y014368D01*
X022435Y014526D02*
X020497Y014526D01*
X020719Y014685D02*
X022428Y014685D01*
X022340Y014843D02*
X020883Y014843D01*
X021047Y015002D02*
X022295Y015002D01*
X022295Y015160D02*
X021210Y015160D01*
X021374Y015319D02*
X022345Y015319D01*
X022435Y015478D02*
X021538Y015478D01*
X021702Y015636D02*
X022435Y015636D01*
X022360Y015795D02*
X021866Y015795D01*
X022030Y015953D02*
X022295Y015953D01*
X022295Y016112D02*
X022194Y016112D01*
X022304Y016270D02*
X022325Y016270D01*
X022333Y016429D02*
X022392Y016429D01*
X022333Y016587D02*
X022551Y016587D01*
X022333Y016746D02*
X022958Y016746D01*
X023116Y016904D02*
X022333Y016904D01*
X022333Y017063D02*
X023275Y017063D01*
X023433Y017222D02*
X022333Y017222D01*
X022393Y017380D02*
X023433Y017380D01*
X023395Y017539D02*
X023301Y017539D01*
X022929Y017539D02*
X022591Y017539D01*
X023115Y018024D02*
X023365Y018274D01*
X024065Y018274D01*
X024415Y018574D01*
X024415Y029074D01*
X024915Y029574D01*
X024915Y028574D02*
X025915Y029574D01*
X026915Y029324D02*
X025915Y027324D01*
X025915Y026674D01*
X024915Y025674D01*
X024915Y021106D01*
X024915Y020106D02*
X025915Y021106D01*
X026915Y021106D02*
X026915Y023674D01*
X026015Y024574D01*
X026015Y025924D01*
X027415Y027324D01*
X027415Y029824D01*
X027165Y030074D01*
X020665Y030074D01*
X019515Y028824D01*
X018865Y028824D01*
X018415Y029224D01*
X018415Y030074D01*
X017965Y030474D01*
X017437Y030952D01*
X015452Y030952D01*
X014815Y031474D02*
X014465Y031124D01*
X014465Y028374D01*
X013915Y027824D01*
X010665Y027824D01*
X009215Y026374D01*
X009215Y025074D01*
X009715Y024574D01*
X011315Y024574D01*
X012065Y023824D01*
X014065Y023824D01*
X014315Y023574D01*
X011315Y023274D02*
X011315Y022674D01*
X010115Y021474D01*
X010115Y021074D01*
X008515Y019424D01*
X006014Y019424D01*
X005705Y019416D01*
X004722Y022622D02*
X005468Y023461D01*
X005765Y023474D01*
X003935Y022622D02*
X003935Y024445D01*
X004771Y025331D01*
X006443Y025331D01*
X008214Y025028D02*
X008214Y030838D01*
X008659Y031283D01*
X009446Y031283D02*
X011415Y028921D01*
X012954Y028921D01*
X013815Y028174D02*
X009915Y028174D01*
X008815Y027074D01*
X008815Y024474D01*
X009315Y023974D01*
X010615Y023974D01*
X011315Y023274D01*
X010515Y026574D02*
X017778Y026574D01*
X018331Y026021D01*
X016515Y028029D02*
X015832Y027346D01*
X010970Y027346D01*
X013815Y028174D02*
X014115Y028474D01*
X014115Y031374D01*
X014565Y031774D01*
X019415Y031774D01*
X019615Y031624D01*
X030615Y031624D01*
X031415Y030824D01*
X031415Y029074D01*
X033615Y026874D01*
X035415Y026874D01*
X035935Y026893D02*
X037965Y026893D01*
X037967Y026882D02*
X038004Y026819D01*
X038032Y026752D01*
X038061Y026722D01*
X038082Y026686D01*
X038141Y026643D01*
X038192Y026591D01*
X038230Y026575D01*
X038230Y026576D02*
X035851Y026576D01*
X035856Y026580D02*
X035935Y026771D01*
X035935Y026978D01*
X035856Y027169D01*
X035709Y027315D01*
X035518Y027394D01*
X035311Y027394D01*
X035120Y027315D01*
X035080Y027274D01*
X034741Y027274D01*
X036837Y028954D01*
X037172Y028954D01*
X037415Y029198D01*
X037658Y028954D01*
X038172Y028954D01*
X038415Y029198D01*
X038499Y029114D01*
X038032Y028647D01*
X037945Y028438D01*
X037945Y028211D01*
X037945Y027146D01*
X037935Y027106D01*
X037945Y027034D01*
X037945Y026961D01*
X037961Y026923D01*
X037967Y026882D01*
X038049Y026734D02*
X035920Y026734D01*
X035856Y026580D02*
X035709Y026434D01*
X035518Y026354D01*
X035311Y026354D01*
X035120Y026434D01*
X035080Y026474D01*
X033742Y026474D01*
X032135Y025187D01*
X032135Y025021D01*
X032056Y024830D01*
X031909Y024684D01*
X031718Y024604D01*
X031511Y024604D01*
X031444Y024633D01*
X030460Y023845D01*
X031419Y022886D01*
X031474Y023019D01*
X031620Y023165D01*
X031811Y023244D01*
X032018Y023244D01*
X032209Y023165D01*
X032250Y023124D01*
X036030Y023124D01*
X036070Y023165D01*
X036261Y023244D01*
X036468Y023244D01*
X036659Y023165D01*
X036806Y023019D01*
X036885Y022828D01*
X036885Y022621D01*
X036806Y022430D01*
X036659Y022284D01*
X036468Y022204D01*
X036261Y022204D01*
X036070Y022284D01*
X036030Y022324D01*
X032250Y022324D01*
X032209Y022284D01*
X032076Y022229D01*
X032642Y021664D01*
X032644Y021661D01*
X032792Y021723D01*
X033038Y021723D01*
X033264Y021629D01*
X033415Y021478D01*
X033566Y021629D01*
X033792Y021723D01*
X034038Y021723D01*
X034264Y021629D01*
X034415Y021478D01*
X034566Y021629D01*
X034792Y021723D01*
X035038Y021723D01*
X035264Y021629D01*
X035415Y021478D01*
X035566Y021629D01*
X035792Y021723D01*
X036038Y021723D01*
X036264Y021629D01*
X036438Y021455D01*
X036532Y021229D01*
X036532Y020983D01*
X036438Y020757D01*
X036264Y020583D01*
X036038Y020489D01*
X035792Y020489D01*
X035566Y020583D01*
X035415Y020734D01*
X035264Y020583D01*
X035038Y020489D01*
X034792Y020489D01*
X034566Y020583D01*
X034415Y020734D01*
X034264Y020583D01*
X034038Y020489D01*
X033792Y020489D01*
X033566Y020583D01*
X033415Y020734D01*
X033264Y020583D01*
X033038Y020489D01*
X032815Y020489D01*
X032815Y019940D01*
X034249Y018506D01*
X034754Y018506D01*
X034913Y018506D01*
X035060Y018445D01*
X035395Y018110D01*
X035395Y018128D01*
X035474Y018319D01*
X035620Y018465D01*
X035811Y018544D01*
X036018Y018544D01*
X036200Y018544D01*
X037245Y019590D01*
X037245Y020059D01*
X037324Y020251D01*
X037470Y020397D01*
X038298Y021224D01*
X038298Y021229D01*
X038392Y021455D01*
X038395Y021458D01*
X038395Y021790D01*
X038345Y021911D01*
X038345Y026489D01*
X038230Y026575D01*
X038345Y026417D02*
X035669Y026417D01*
X035160Y026417D02*
X033671Y026417D01*
X033473Y026259D02*
X038345Y026259D01*
X038345Y026100D02*
X033275Y026100D01*
X033077Y025941D02*
X038345Y025941D01*
X038345Y025783D02*
X032879Y025783D01*
X032681Y025624D02*
X038345Y025624D01*
X038345Y025466D02*
X032483Y025466D01*
X032286Y025307D02*
X038345Y025307D01*
X038345Y025149D02*
X032135Y025149D01*
X032122Y024990D02*
X038345Y024990D01*
X038345Y024832D02*
X032056Y024832D01*
X031884Y024673D02*
X038345Y024673D01*
X038345Y024515D02*
X031296Y024515D01*
X031098Y024356D02*
X038345Y024356D01*
X038345Y024197D02*
X030901Y024197D01*
X030703Y024039D02*
X038345Y024039D01*
X038345Y023880D02*
X030505Y023880D01*
X030583Y023722D02*
X038345Y023722D01*
X038345Y023563D02*
X030742Y023563D01*
X030900Y023405D02*
X038345Y023405D01*
X038345Y023246D02*
X031059Y023246D01*
X031217Y023088D02*
X031543Y023088D01*
X031437Y022929D02*
X031376Y022929D01*
X031915Y022724D02*
X036365Y022724D01*
X036843Y022929D02*
X038345Y022929D01*
X038345Y022771D02*
X036885Y022771D01*
X036881Y022612D02*
X038345Y022612D01*
X038345Y022453D02*
X036815Y022453D01*
X036671Y022295D02*
X038345Y022295D01*
X038345Y022136D02*
X032169Y022136D01*
X032221Y022295D02*
X036059Y022295D01*
X036187Y021661D02*
X038395Y021661D01*
X038383Y021819D02*
X032486Y021819D01*
X032327Y021978D02*
X038345Y021978D01*
X038395Y021502D02*
X036391Y021502D01*
X036484Y021344D02*
X038346Y021344D01*
X038259Y021185D02*
X036532Y021185D01*
X036532Y021027D02*
X038100Y021027D01*
X037942Y020868D02*
X036484Y020868D01*
X036391Y020709D02*
X037783Y020709D01*
X037625Y020551D02*
X036187Y020551D01*
X035643Y020551D02*
X035187Y020551D01*
X035391Y020709D02*
X035439Y020709D01*
X035439Y021502D02*
X035391Y021502D01*
X035187Y021661D02*
X035642Y021661D01*
X034642Y021661D02*
X034187Y021661D01*
X034391Y021502D02*
X034439Y021502D01*
X034439Y020709D02*
X034391Y020709D01*
X034187Y020551D02*
X034643Y020551D01*
X033643Y020551D02*
X033187Y020551D01*
X033391Y020709D02*
X033439Y020709D01*
X032815Y020392D02*
X037466Y020392D01*
X037317Y020234D02*
X032815Y020234D01*
X032815Y020075D02*
X037252Y020075D01*
X037245Y019917D02*
X032838Y019917D01*
X032997Y019758D02*
X037245Y019758D01*
X037245Y019600D02*
X033155Y019600D01*
X033314Y019441D02*
X037096Y019441D01*
X036938Y019283D02*
X033472Y019283D01*
X033631Y019124D02*
X036779Y019124D01*
X036621Y018966D02*
X033790Y018966D01*
X033948Y018807D02*
X036462Y018807D01*
X036304Y018648D02*
X034107Y018648D01*
X034083Y018106D02*
X032415Y019774D01*
X032415Y021324D01*
X029915Y023824D01*
X029915Y024074D01*
X029832Y023341D02*
X030399Y022774D01*
X029681Y022774D01*
X029433Y023022D01*
X029832Y023341D01*
X029928Y023246D02*
X029713Y023246D01*
X029516Y023088D02*
X030086Y023088D01*
X030245Y022929D02*
X029526Y022929D01*
X029515Y022374D02*
X030365Y022374D01*
X031415Y021324D01*
X030555Y021619D02*
X030415Y021478D01*
X030264Y021629D01*
X030038Y021723D01*
X029792Y021723D01*
X029566Y021629D01*
X029415Y021478D01*
X029264Y021629D01*
X029038Y021723D01*
X028792Y021723D01*
X028566Y021629D01*
X028392Y021455D01*
X028298Y021229D01*
X028298Y020983D01*
X028392Y020757D01*
X028424Y020724D01*
X028350Y020724D01*
X028309Y020765D01*
X028118Y020844D01*
X027911Y020844D01*
X027720Y020765D01*
X027574Y020619D01*
X027495Y020428D01*
X027495Y020221D01*
X027574Y020030D01*
X027720Y019884D01*
X027911Y019804D01*
X028118Y019804D01*
X028309Y019884D01*
X028350Y019924D01*
X028749Y019924D01*
X033189Y015484D01*
X031382Y015484D01*
X031292Y015574D01*
X031441Y015723D01*
X031535Y015951D01*
X031535Y016198D01*
X031441Y016426D01*
X031266Y016600D01*
X031038Y016694D01*
X030792Y016694D01*
X030564Y016600D01*
X030415Y016451D01*
X030266Y016600D01*
X030038Y016694D01*
X029792Y016694D01*
X029564Y016600D01*
X029415Y016451D01*
X029266Y016600D01*
X029038Y016694D01*
X028792Y016694D01*
X028564Y016600D01*
X028415Y016451D01*
X028266Y016600D01*
X028038Y016694D01*
X027792Y016694D01*
X027564Y016600D01*
X027389Y016426D01*
X027295Y016198D01*
X027295Y015993D01*
X026535Y015993D01*
X026535Y016198D01*
X026441Y016426D01*
X026315Y016551D01*
X026315Y019940D01*
X026864Y020489D01*
X027038Y020489D01*
X027264Y020583D01*
X027438Y020757D01*
X027532Y020983D01*
X027532Y021229D01*
X027448Y021431D01*
X028805Y022518D01*
X029176Y022148D01*
X029288Y022035D01*
X029435Y021974D01*
X030199Y021974D01*
X030555Y021619D01*
X030513Y021661D02*
X030187Y021661D01*
X030354Y021819D02*
X027933Y021819D01*
X028131Y021978D02*
X029427Y021978D01*
X029187Y022136D02*
X028328Y022136D01*
X028526Y022295D02*
X029029Y022295D01*
X028870Y022453D02*
X028724Y022453D01*
X029515Y022374D02*
X026415Y025474D01*
X027415Y025124D02*
X031615Y025124D01*
X034858Y027368D02*
X035248Y027368D01*
X035055Y027527D02*
X037945Y027527D01*
X037945Y027685D02*
X035253Y027685D01*
X035451Y027844D02*
X037945Y027844D01*
X037945Y028002D02*
X035649Y028002D01*
X035847Y028161D02*
X037945Y028161D01*
X037945Y028320D02*
X036045Y028320D01*
X036243Y028478D02*
X037962Y028478D01*
X038027Y028637D02*
X036440Y028637D01*
X036638Y028795D02*
X038180Y028795D01*
X038338Y028954D02*
X036836Y028954D01*
X037330Y029112D02*
X037500Y029112D01*
X038330Y029112D02*
X038497Y029112D01*
X038415Y029951D02*
X038292Y030074D01*
X038415Y030198D01*
X038538Y030074D01*
X038415Y029951D01*
X038303Y030064D02*
X038527Y030064D01*
X039292Y030074D02*
X039415Y029951D01*
X039538Y030074D01*
X039415Y030198D01*
X039292Y030074D01*
X039303Y030064D02*
X039527Y030064D01*
X040885Y028589D02*
X040885Y024298D01*
X040856Y024369D01*
X040709Y024515D01*
X040518Y024594D01*
X040311Y024594D01*
X040120Y024515D01*
X039974Y024369D01*
X039895Y024178D01*
X039895Y023971D01*
X039974Y023780D01*
X040120Y023634D01*
X040311Y023554D01*
X040315Y023554D01*
X040315Y021578D01*
X040264Y021629D01*
X040038Y021723D01*
X039792Y021723D01*
X039566Y021629D01*
X039523Y021586D01*
X039435Y021586D01*
X039435Y021790D01*
X039485Y021911D01*
X039485Y026703D01*
X039490Y026722D01*
X039726Y026625D01*
X040104Y026625D01*
X040453Y026769D01*
X040720Y027036D01*
X040865Y027386D01*
X040865Y027763D01*
X040720Y028113D01*
X040534Y028298D01*
X040638Y028341D01*
X040885Y028589D01*
X040885Y028478D02*
X040775Y028478D01*
X040885Y028320D02*
X040585Y028320D01*
X040672Y028161D02*
X040885Y028161D01*
X040885Y028002D02*
X040766Y028002D01*
X040831Y027844D02*
X040885Y027844D01*
X040885Y027685D02*
X040865Y027685D01*
X040865Y027527D02*
X040885Y027527D01*
X040885Y027368D02*
X040858Y027368D01*
X040885Y027210D02*
X040792Y027210D01*
X040726Y027051D02*
X040885Y027051D01*
X040885Y026893D02*
X040577Y026893D01*
X040368Y026734D02*
X040885Y026734D01*
X040885Y026576D02*
X039485Y026576D01*
X039485Y026417D02*
X040885Y026417D01*
X040885Y026259D02*
X039485Y026259D01*
X039485Y026100D02*
X040885Y026100D01*
X040885Y025941D02*
X039485Y025941D01*
X039485Y025783D02*
X040885Y025783D01*
X040885Y025624D02*
X039485Y025624D01*
X039485Y025466D02*
X040885Y025466D01*
X040885Y025307D02*
X039485Y025307D01*
X039485Y025149D02*
X040885Y025149D01*
X040885Y024990D02*
X039485Y024990D01*
X039485Y024832D02*
X040885Y024832D01*
X040885Y024673D02*
X039485Y024673D01*
X039485Y024515D02*
X040120Y024515D01*
X039969Y024356D02*
X039485Y024356D01*
X039485Y024197D02*
X039903Y024197D01*
X039895Y024039D02*
X039485Y024039D01*
X039485Y023880D02*
X039933Y023880D01*
X040032Y023722D02*
X039485Y023722D01*
X039485Y023563D02*
X040290Y023563D01*
X040315Y023405D02*
X039485Y023405D01*
X039485Y023246D02*
X040315Y023246D01*
X040315Y023088D02*
X039485Y023088D01*
X039485Y022929D02*
X040315Y022929D01*
X040315Y022771D02*
X039485Y022771D01*
X039485Y022612D02*
X040315Y022612D01*
X040315Y022453D02*
X039485Y022453D01*
X039485Y022295D02*
X040315Y022295D01*
X040315Y022136D02*
X039485Y022136D01*
X039485Y021978D02*
X040315Y021978D01*
X040315Y021819D02*
X039447Y021819D01*
X039435Y021661D02*
X039642Y021661D01*
X040187Y021661D02*
X040315Y021661D01*
X040315Y020634D02*
X040315Y020578D01*
X040287Y020606D01*
X040315Y020634D01*
X039543Y020606D02*
X039415Y020478D01*
X039287Y020606D01*
X039307Y020626D01*
X039523Y020626D01*
X039543Y020606D01*
X039488Y020551D02*
X039342Y020551D01*
X039415Y019734D02*
X039543Y019606D01*
X039415Y019478D01*
X039287Y019606D01*
X039415Y019734D01*
X039294Y019600D02*
X039536Y019600D01*
X040287Y019606D02*
X040315Y019578D01*
X040315Y019634D01*
X040287Y019606D01*
X040294Y019600D02*
X040315Y019600D01*
X040315Y018634D02*
X040315Y018578D01*
X040287Y018606D01*
X040315Y018634D01*
X039543Y018606D02*
X039415Y018478D01*
X039287Y018606D01*
X039415Y018734D01*
X039543Y018606D01*
X039500Y018648D02*
X039330Y018648D01*
X039403Y018490D02*
X039427Y018490D01*
X038915Y018106D02*
X038015Y017174D01*
X037815Y016974D01*
X035965Y016974D01*
X034833Y018106D01*
X034083Y018106D01*
X034015Y017774D02*
X034565Y017774D01*
X035865Y016574D01*
X039433Y016574D01*
X039915Y017106D01*
X039475Y017539D02*
X039355Y017539D01*
X039415Y017478D02*
X039287Y017606D01*
X039415Y017734D01*
X039543Y017606D01*
X039415Y017478D01*
X039451Y017697D02*
X039378Y017697D01*
X040287Y017606D02*
X040315Y017578D01*
X040315Y017634D01*
X040287Y017606D01*
X040315Y016634D02*
X040315Y016578D01*
X040287Y016606D01*
X040315Y016634D01*
X040306Y016587D02*
X040315Y016587D01*
X039415Y015734D02*
X039543Y015606D01*
X039415Y015478D01*
X039287Y015606D01*
X039415Y015734D01*
X039512Y015636D02*
X039317Y015636D01*
X038543Y015606D02*
X038392Y015455D01*
X038298Y015229D01*
X038298Y014983D01*
X038392Y014757D01*
X038543Y014606D01*
X038392Y014455D01*
X038298Y014229D01*
X038298Y013983D01*
X038392Y013757D01*
X038543Y013606D01*
X038392Y013455D01*
X038298Y013229D01*
X038298Y012983D01*
X038392Y012757D01*
X038543Y012606D01*
X038392Y012455D01*
X038380Y012425D01*
X034892Y015914D01*
X034745Y015974D01*
X034585Y015974D01*
X034535Y015974D01*
X034535Y016198D01*
X034441Y016426D01*
X034292Y016574D01*
X034441Y016723D01*
X034535Y016951D01*
X034535Y017198D01*
X034495Y017295D01*
X035588Y016286D01*
X035638Y016235D01*
X035646Y016232D01*
X035652Y016227D01*
X035720Y016202D01*
X035785Y016174D01*
X035794Y016174D01*
X035801Y016172D01*
X035873Y016174D01*
X038298Y016174D01*
X038298Y015983D01*
X038392Y015757D01*
X038543Y015606D01*
X038512Y015636D02*
X035169Y015636D01*
X035328Y015478D02*
X038414Y015478D01*
X038336Y015319D02*
X035486Y015319D01*
X035645Y015160D02*
X038298Y015160D01*
X038298Y015002D02*
X035803Y015002D01*
X035962Y014843D02*
X038356Y014843D01*
X038464Y014685D02*
X036120Y014685D01*
X036279Y014526D02*
X038463Y014526D01*
X038356Y014368D02*
X036437Y014368D01*
X036596Y014209D02*
X038298Y014209D01*
X038298Y014051D02*
X036754Y014051D01*
X036913Y013892D02*
X038336Y013892D01*
X038415Y013734D02*
X037071Y013734D01*
X037230Y013575D02*
X038512Y013575D01*
X038376Y013416D02*
X037389Y013416D01*
X037547Y013258D02*
X038310Y013258D01*
X038298Y013099D02*
X037706Y013099D01*
X037864Y012941D02*
X038316Y012941D01*
X038381Y012782D02*
X038023Y012782D01*
X038181Y012624D02*
X038525Y012624D01*
X038402Y012465D02*
X038340Y012465D01*
X038915Y012106D02*
X039383Y012574D01*
X040215Y012574D01*
X040715Y013074D01*
X040715Y023724D01*
X040415Y024074D01*
X040861Y024356D02*
X040885Y024356D01*
X040885Y024515D02*
X040710Y024515D01*
X038345Y023088D02*
X036737Y023088D01*
X033642Y021661D02*
X033187Y021661D01*
X033391Y021502D02*
X033439Y021502D01*
X032015Y020489D02*
X031818Y020489D01*
X032015Y020296D01*
X032015Y020489D01*
X032015Y020392D02*
X031917Y020392D01*
X031415Y020324D02*
X034015Y017774D01*
X033604Y017617D02*
X033564Y017600D01*
X033389Y017426D01*
X033295Y017198D01*
X033295Y016951D01*
X033389Y016723D01*
X033538Y016574D01*
X033389Y016426D01*
X033386Y016419D01*
X029234Y020571D01*
X029264Y020583D01*
X029415Y020734D01*
X029566Y020583D01*
X029792Y020489D01*
X030038Y020489D01*
X030264Y020583D01*
X030415Y020734D01*
X030566Y020583D01*
X030792Y020489D01*
X031038Y020489D01*
X031053Y020495D01*
X031014Y020400D01*
X031016Y020241D01*
X031078Y020095D01*
X033604Y017617D01*
X033523Y017697D02*
X032108Y017697D01*
X032266Y017539D02*
X033502Y017539D01*
X033370Y017380D02*
X032425Y017380D01*
X032584Y017222D02*
X033305Y017222D01*
X033295Y017063D02*
X032742Y017063D01*
X032901Y016904D02*
X033314Y016904D01*
X033380Y016746D02*
X033059Y016746D01*
X033218Y016587D02*
X033525Y016587D01*
X033393Y016429D02*
X033376Y016429D01*
X032879Y015795D02*
X031470Y015795D01*
X031535Y015953D02*
X032721Y015953D01*
X032562Y016112D02*
X031535Y016112D01*
X031505Y016270D02*
X032403Y016270D01*
X032245Y016429D02*
X031437Y016429D01*
X031279Y016587D02*
X032086Y016587D01*
X031928Y016746D02*
X026315Y016746D01*
X026315Y016904D02*
X031769Y016904D01*
X031611Y017063D02*
X026315Y017063D01*
X026315Y017222D02*
X031452Y017222D01*
X031294Y017380D02*
X026315Y017380D01*
X026315Y017539D02*
X031135Y017539D01*
X030977Y017697D02*
X026315Y017697D01*
X026315Y017856D02*
X030818Y017856D01*
X030659Y018014D02*
X026315Y018014D01*
X026315Y018173D02*
X030501Y018173D01*
X030342Y018331D02*
X026315Y018331D01*
X026315Y018490D02*
X030184Y018490D01*
X030025Y018648D02*
X026315Y018648D01*
X026315Y018807D02*
X029867Y018807D01*
X029708Y018966D02*
X026315Y018966D01*
X026315Y019124D02*
X029550Y019124D01*
X029391Y019283D02*
X026315Y019283D01*
X026315Y019441D02*
X029233Y019441D01*
X029074Y019600D02*
X026315Y019600D01*
X026315Y019758D02*
X028916Y019758D01*
X028757Y019917D02*
X028343Y019917D01*
X028015Y020324D02*
X028915Y020324D01*
X033665Y015574D01*
X034665Y015574D01*
X038665Y011574D01*
X039665Y011574D01*
X039915Y011324D01*
X039915Y011106D01*
X040379Y011514D02*
X040885Y011514D01*
X040885Y011673D02*
X040354Y011673D01*
X040287Y011606D02*
X040438Y011757D01*
X040532Y011983D01*
X040532Y012229D01*
X040503Y012297D01*
X040554Y012348D01*
X040885Y012679D01*
X040885Y009417D01*
X040818Y009444D01*
X040611Y009444D01*
X040467Y009385D01*
X040438Y009455D01*
X040287Y009606D01*
X040438Y009757D01*
X040532Y009983D01*
X040532Y010229D01*
X040438Y010455D01*
X040287Y010606D01*
X040438Y010757D01*
X040532Y010983D01*
X040532Y011229D01*
X040438Y011455D01*
X040287Y011606D01*
X040469Y011831D02*
X040885Y011831D01*
X040885Y011990D02*
X040532Y011990D01*
X040532Y012148D02*
X040885Y012148D01*
X040885Y012307D02*
X040513Y012307D01*
X040671Y012465D02*
X040885Y012465D01*
X040885Y012624D02*
X040830Y012624D01*
X040315Y013578D02*
X040287Y013606D01*
X040315Y013634D01*
X040315Y013578D01*
X039543Y013606D02*
X039415Y013478D01*
X039287Y013606D01*
X039415Y013734D01*
X039543Y013606D01*
X039512Y013575D02*
X039318Y013575D01*
X039415Y013734D02*
X039415Y013734D01*
X039415Y014478D02*
X039287Y014606D01*
X039415Y014734D01*
X039543Y014606D01*
X039415Y014478D01*
X039367Y014526D02*
X039463Y014526D01*
X039464Y014685D02*
X039366Y014685D01*
X040287Y014606D02*
X040315Y014578D01*
X040315Y014634D01*
X040287Y014606D01*
X040315Y015578D02*
X040287Y015606D01*
X040315Y015634D01*
X040315Y015578D01*
X038376Y015795D02*
X035010Y015795D01*
X034796Y015953D02*
X038311Y015953D01*
X038298Y016112D02*
X034535Y016112D01*
X034505Y016270D02*
X035603Y016270D01*
X035433Y016429D02*
X034437Y016429D01*
X034305Y016587D02*
X035261Y016587D01*
X035090Y016746D02*
X034450Y016746D01*
X034516Y016904D02*
X034918Y016904D01*
X034746Y017063D02*
X034535Y017063D01*
X034525Y017222D02*
X034574Y017222D01*
X035332Y018173D02*
X035414Y018173D01*
X035486Y018331D02*
X035174Y018331D01*
X034952Y018490D02*
X035680Y018490D01*
X036001Y017504D02*
X036018Y017504D01*
X036518Y017504D01*
X036709Y017584D01*
X036856Y017730D01*
X038206Y019080D01*
X038285Y019271D01*
X038285Y019478D01*
X038285Y019741D01*
X038365Y019821D01*
X038392Y019757D01*
X038543Y019606D01*
X038392Y019455D01*
X038298Y019229D01*
X038298Y018983D01*
X038392Y018757D01*
X038543Y018606D01*
X038392Y018455D01*
X038298Y018229D01*
X038298Y018043D01*
X037729Y017455D01*
X037649Y017374D01*
X036131Y017374D01*
X036001Y017504D01*
X036125Y017380D02*
X037655Y017380D01*
X037811Y017539D02*
X036601Y017539D01*
X036823Y017697D02*
X037964Y017697D01*
X038117Y017856D02*
X036982Y017856D01*
X037140Y018014D02*
X038270Y018014D01*
X038298Y018173D02*
X037299Y018173D01*
X037457Y018331D02*
X038341Y018331D01*
X038427Y018490D02*
X037616Y018490D01*
X037774Y018648D02*
X038500Y018648D01*
X038371Y018807D02*
X037933Y018807D01*
X038091Y018966D02*
X038305Y018966D01*
X038298Y019124D02*
X038224Y019124D01*
X038285Y019283D02*
X038320Y019283D01*
X038285Y019441D02*
X038386Y019441D01*
X038285Y019600D02*
X038536Y019600D01*
X038391Y019758D02*
X038303Y019758D01*
X033361Y017856D02*
X031949Y017856D01*
X031791Y018014D02*
X033199Y018014D01*
X033038Y018173D02*
X031632Y018173D01*
X031474Y018331D02*
X032876Y018331D01*
X032714Y018490D02*
X031315Y018490D01*
X031157Y018648D02*
X032553Y018648D01*
X032391Y018807D02*
X030998Y018807D01*
X030840Y018966D02*
X032229Y018966D01*
X032068Y019124D02*
X030681Y019124D01*
X030522Y019283D02*
X031906Y019283D01*
X031744Y019441D02*
X030364Y019441D01*
X030205Y019600D02*
X031583Y019600D01*
X031421Y019758D02*
X030047Y019758D01*
X029888Y019917D02*
X031259Y019917D01*
X031098Y020075D02*
X029730Y020075D01*
X029571Y020234D02*
X031019Y020234D01*
X031014Y020392D02*
X029413Y020392D01*
X029254Y020551D02*
X029643Y020551D01*
X029439Y020709D02*
X029391Y020709D01*
X029391Y021502D02*
X029439Y021502D01*
X029642Y021661D02*
X029187Y021661D01*
X028642Y021661D02*
X027735Y021661D01*
X027537Y021502D02*
X028439Y021502D01*
X028346Y021344D02*
X027484Y021344D01*
X027532Y021185D02*
X028298Y021185D01*
X028298Y021027D02*
X027532Y021027D01*
X027484Y020868D02*
X028346Y020868D01*
X027665Y020709D02*
X027391Y020709D01*
X027546Y020551D02*
X027187Y020551D01*
X027495Y020392D02*
X026767Y020392D01*
X026609Y020234D02*
X027495Y020234D01*
X027555Y020075D02*
X026450Y020075D01*
X026315Y019917D02*
X027687Y019917D01*
X026915Y021106D02*
X025915Y020106D01*
X025915Y016074D01*
X025515Y016551D02*
X025415Y016451D01*
X025315Y016551D01*
X025315Y019722D01*
X025515Y019882D01*
X025515Y016551D01*
X025515Y016587D02*
X025315Y016587D01*
X025315Y016746D02*
X025515Y016746D01*
X025515Y016904D02*
X025315Y016904D01*
X025315Y017063D02*
X025515Y017063D01*
X025515Y017222D02*
X025315Y017222D01*
X025315Y017380D02*
X025515Y017380D01*
X025515Y017539D02*
X025315Y017539D01*
X025315Y017697D02*
X025515Y017697D01*
X025515Y017856D02*
X025315Y017856D01*
X025315Y018014D02*
X025515Y018014D01*
X025515Y018173D02*
X025315Y018173D01*
X025315Y018331D02*
X025515Y018331D01*
X025515Y018490D02*
X025315Y018490D01*
X025315Y018648D02*
X025515Y018648D01*
X025515Y018807D02*
X025315Y018807D01*
X025315Y018966D02*
X025515Y018966D01*
X025515Y019124D02*
X025315Y019124D01*
X025315Y019283D02*
X025515Y019283D01*
X025515Y019441D02*
X025315Y019441D01*
X025315Y019600D02*
X025515Y019600D01*
X025515Y019758D02*
X025361Y019758D01*
X024915Y020106D02*
X024915Y016074D01*
X024515Y016551D02*
X024515Y018133D01*
X024337Y017981D01*
X024292Y017935D01*
X024290Y017935D01*
X024356Y017869D01*
X024435Y017678D01*
X024435Y017471D01*
X024395Y017374D01*
X024395Y016929D01*
X024322Y016753D01*
X024198Y016628D01*
X024266Y016600D01*
X024415Y016451D01*
X024515Y016551D01*
X024515Y016587D02*
X024279Y016587D01*
X024315Y016746D02*
X024515Y016746D01*
X024515Y016904D02*
X024385Y016904D01*
X024395Y017063D02*
X024515Y017063D01*
X024515Y017222D02*
X024395Y017222D01*
X024397Y017380D02*
X024515Y017380D01*
X024515Y017539D02*
X024435Y017539D01*
X024427Y017697D02*
X024515Y017697D01*
X024515Y017856D02*
X024361Y017856D01*
X024376Y018014D02*
X024515Y018014D01*
X026315Y016587D02*
X027551Y016587D01*
X027392Y016429D02*
X026437Y016429D01*
X026505Y016270D02*
X027325Y016270D01*
X027295Y016112D02*
X026535Y016112D01*
X026535Y015002D02*
X027295Y015002D01*
X027340Y014843D02*
X026490Y014843D01*
X026402Y014685D02*
X027428Y014685D01*
X027490Y014526D02*
X026212Y014526D01*
X025618Y014526D02*
X025212Y014526D01*
X025402Y014685D02*
X025428Y014685D01*
X024618Y014526D02*
X024212Y014526D01*
X024402Y014685D02*
X024428Y014685D01*
X023618Y014526D02*
X023395Y014526D01*
X023395Y014368D02*
X027365Y014368D01*
X027300Y014209D02*
X023395Y014209D01*
X023395Y014051D02*
X027295Y014051D01*
X027319Y013892D02*
X023395Y013892D01*
X023395Y013734D02*
X027385Y013734D01*
X027538Y013575D02*
X023437Y013575D01*
X023590Y013416D02*
X036257Y013416D01*
X036416Y013258D02*
X023743Y013258D01*
X023896Y013099D02*
X036574Y013099D01*
X036733Y012941D02*
X024049Y012941D01*
X024202Y012782D02*
X036891Y012782D01*
X037050Y012624D02*
X024355Y012624D01*
X024508Y012465D02*
X037209Y012465D01*
X037367Y012307D02*
X024665Y012307D01*
X024825Y012148D02*
X037526Y012148D01*
X037684Y011990D02*
X024988Y011990D01*
X025150Y011831D02*
X027606Y011831D01*
X027164Y011673D02*
X025313Y011673D01*
X025476Y011514D02*
X027006Y011514D01*
X026847Y011355D02*
X025638Y011355D01*
X025801Y011197D02*
X026815Y011197D01*
X026815Y011038D02*
X025964Y011038D01*
X026126Y010880D02*
X026815Y010880D01*
X026920Y010721D02*
X026289Y010721D01*
X026452Y010563D02*
X027055Y010563D01*
X027800Y009611D02*
X028029Y009611D01*
X028800Y009611D02*
X029029Y009611D01*
X029755Y009453D02*
X023877Y009453D01*
X023885Y009611D02*
X026129Y009611D01*
X025890Y009770D02*
X023847Y009770D01*
X023746Y009929D02*
X025727Y009929D01*
X023812Y009294D02*
X029755Y009294D01*
X029755Y009136D02*
X023662Y009136D01*
X023377Y008819D02*
X029755Y008819D01*
X029755Y008977D02*
X023247Y008977D01*
X023068Y009136D02*
X022718Y009136D01*
X023435Y008660D02*
X029755Y008660D01*
X029755Y008502D02*
X023435Y008502D01*
X023382Y008343D02*
X029755Y008343D01*
X029710Y008185D02*
X023260Y008185D01*
X021463Y008026D02*
X029645Y008026D01*
X029645Y007867D02*
X021439Y007867D01*
X021354Y007709D02*
X029691Y007709D01*
X029804Y007550D02*
X021122Y007550D01*
X020808Y007550D02*
X019679Y007550D01*
X019251Y007550D02*
X014567Y007550D01*
X014714Y007392D02*
X032765Y007392D01*
X032765Y007550D02*
X030526Y007550D01*
X030638Y007709D02*
X032738Y007709D01*
X032602Y007867D02*
X030685Y007867D01*
X030685Y008026D02*
X032467Y008026D01*
X032332Y008185D02*
X030620Y008185D01*
X030575Y008343D02*
X032196Y008343D01*
X032061Y008502D02*
X030575Y008502D01*
X030575Y008660D02*
X031926Y008660D01*
X031790Y008819D02*
X030575Y008819D01*
X030575Y008977D02*
X031655Y008977D01*
X031520Y009136D02*
X030575Y009136D01*
X030575Y009294D02*
X031384Y009294D01*
X031101Y009453D02*
X030575Y009453D01*
X030800Y009611D02*
X030961Y009611D01*
X031015Y010974D02*
X031015Y011174D01*
X031815Y011174D01*
X031815Y010974D01*
X031015Y010974D01*
X031015Y011038D02*
X031815Y011038D01*
X033915Y009274D02*
X036615Y006574D01*
X036615Y003974D01*
X036511Y002574D02*
X036415Y002478D01*
X036319Y002574D01*
X036511Y002574D01*
X037319Y002574D02*
X037511Y002574D01*
X037415Y002478D01*
X037319Y002574D01*
X035511Y002574D02*
X035415Y002478D01*
X035319Y002574D01*
X035511Y002574D01*
X033315Y004574D02*
X033315Y005174D01*
X033715Y005574D01*
X023415Y005574D01*
X023717Y005172D02*
X032915Y005172D01*
X032895Y006124D02*
X031292Y006124D01*
X031212Y006282D02*
X032723Y006282D01*
X032658Y006441D02*
X030991Y006441D01*
X030639Y006441D02*
X027999Y006441D01*
X028013Y006599D02*
X032645Y006599D01*
X032678Y006758D02*
X027978Y006758D01*
X027878Y006916D02*
X032765Y006916D01*
X032765Y007075D02*
X014785Y007075D01*
X014780Y007233D02*
X032765Y007233D01*
X030815Y005974D02*
X024415Y005974D01*
X024952Y006758D02*
X014641Y006758D01*
X014744Y006916D02*
X025052Y006916D01*
X025415Y006574D02*
X027515Y006574D01*
X022010Y009611D02*
X019613Y009611D01*
X018909Y010246D02*
X020812Y010246D01*
X021513Y010880D02*
X021601Y010880D01*
X021453Y011038D02*
X021436Y011038D01*
X021387Y011197D02*
X021233Y011197D01*
X021322Y011355D02*
X019051Y011355D01*
X019051Y011197D02*
X020797Y011197D01*
X021256Y011514D02*
X019051Y011514D01*
X018981Y011673D02*
X021191Y011673D01*
X021618Y013416D02*
X022435Y013416D01*
X022435Y013575D02*
X021801Y013575D01*
X021869Y013734D02*
X022435Y013734D01*
X022435Y013892D02*
X021885Y013892D01*
X021855Y014051D02*
X022435Y014051D01*
X022435Y014209D02*
X021766Y014209D01*
X023402Y014685D02*
X023428Y014685D01*
X023415Y015451D02*
X023435Y015471D01*
X023435Y015529D01*
X023435Y015678D01*
X023415Y015698D01*
X023395Y015678D01*
X023395Y015471D01*
X023415Y015451D01*
X023395Y015478D02*
X023435Y015478D01*
X023435Y015636D02*
X023395Y015636D01*
X019228Y014526D02*
X018982Y014526D01*
X017131Y012924D02*
X017090Y012883D01*
X016780Y012883D01*
X016992Y013052D01*
X017114Y012931D01*
X017131Y012924D01*
X017104Y012941D02*
X016853Y012941D01*
X016844Y011810D02*
X017017Y011810D01*
X016931Y011723D01*
X016844Y011810D01*
X016054Y011846D02*
X015892Y011684D01*
X015285Y011684D01*
X015784Y012084D01*
X015811Y012095D01*
X015811Y012089D01*
X016054Y011846D01*
X016039Y011831D02*
X015468Y011831D01*
X015666Y011990D02*
X015910Y011990D01*
X017844Y011810D02*
X017931Y011723D01*
X018017Y011810D01*
X017844Y011810D01*
X017121Y009543D02*
X017094Y009474D01*
X017065Y009404D01*
X017065Y009400D01*
X017064Y009397D01*
X017065Y009320D01*
X017065Y008900D01*
X016962Y008797D01*
X016800Y008959D01*
X016581Y009050D01*
X016343Y009050D01*
X016124Y008959D01*
X015962Y008797D01*
X015800Y008959D01*
X015581Y009050D01*
X015343Y009050D01*
X015124Y008959D01*
X014962Y008797D01*
X014800Y008959D01*
X014581Y009050D01*
X014415Y009050D01*
X014909Y009543D01*
X017012Y009543D01*
X017121Y009543D01*
X017085Y009453D02*
X014819Y009453D01*
X014660Y009294D02*
X017065Y009294D01*
X017065Y009136D02*
X014502Y009136D01*
X014756Y008977D02*
X015169Y008977D01*
X014984Y008819D02*
X014940Y008819D01*
X015756Y008977D02*
X016169Y008977D01*
X015984Y008819D02*
X015940Y008819D01*
X016756Y008977D02*
X017065Y008977D01*
X016984Y008819D02*
X016940Y008819D01*
X016880Y008026D02*
X017044Y008026D01*
X016044Y008026D02*
X015880Y008026D01*
X015044Y008026D02*
X014880Y008026D01*
X014044Y008026D02*
X013880Y008026D01*
X013044Y008026D02*
X012880Y008026D01*
X012044Y008026D02*
X011880Y008026D01*
X011044Y008026D02*
X010880Y008026D01*
X012184Y008983D02*
X012350Y009150D01*
X012370Y009150D01*
X012219Y008998D01*
X012184Y008983D01*
X012336Y009136D02*
X012357Y009136D01*
X009638Y006723D02*
X009097Y006725D01*
X009396Y006965D01*
X009508Y006853D01*
X009638Y006723D01*
X009603Y006758D02*
X009137Y006758D01*
X009335Y006916D02*
X009444Y006916D01*
X007767Y005331D02*
X007356Y005331D01*
X007158Y005172D02*
X011865Y005172D01*
X011865Y005014D02*
X006960Y005014D01*
X006888Y004855D02*
X011865Y004855D01*
X011865Y004697D02*
X007113Y004697D01*
X007272Y004538D02*
X011744Y004538D01*
X011619Y004380D02*
X007367Y004380D01*
X007453Y004221D02*
X011495Y004221D01*
X011370Y004062D02*
X007496Y004062D01*
X007534Y003904D02*
X008605Y003904D01*
X008440Y003745D02*
X007534Y003745D01*
X007534Y003587D02*
X008351Y003587D01*
X008295Y003428D02*
X007492Y003428D01*
X007450Y003270D02*
X008295Y003270D01*
X008322Y003111D02*
X007360Y003111D01*
X007853Y002953D02*
X008388Y002953D01*
X008530Y002794D02*
X008070Y002794D01*
X009278Y002160D02*
X011252Y002160D01*
X011036Y002001D02*
X009494Y002001D01*
X009440Y002794D02*
X011090Y002794D01*
X010948Y002953D02*
X009582Y002953D01*
X009648Y003111D02*
X010882Y003111D01*
X010855Y003270D02*
X009675Y003270D01*
X009675Y003428D02*
X010855Y003428D01*
X010911Y003587D02*
X009619Y003587D01*
X009530Y003745D02*
X011000Y003745D01*
X011165Y003904D02*
X009365Y003904D01*
X007734Y005345D02*
X007734Y005345D01*
X008494Y001050D02*
X006026Y001050D01*
X004151Y001050D02*
X002792Y001050D01*
X002634Y001209D02*
X004027Y001209D01*
X028292Y013575D02*
X028538Y013575D01*
X029292Y013575D02*
X029538Y013575D01*
X030292Y013575D02*
X030538Y013575D01*
X031292Y013575D02*
X033538Y013575D01*
X034292Y013575D02*
X036099Y013575D01*
X035940Y013734D02*
X034445Y013734D01*
X034510Y013892D02*
X035782Y013892D01*
X035623Y014051D02*
X034535Y014051D01*
X034530Y014209D02*
X035465Y014209D01*
X035306Y014368D02*
X034465Y014368D01*
X034340Y014526D02*
X035147Y014526D01*
X034989Y014685D02*
X034402Y014685D01*
X034490Y014843D02*
X034830Y014843D01*
X034672Y015002D02*
X034535Y015002D01*
X033538Y014574D02*
X033518Y014554D01*
X031312Y014554D01*
X031292Y014574D01*
X031382Y014665D01*
X033448Y014665D01*
X033538Y014574D01*
X033038Y015636D02*
X031353Y015636D01*
X030538Y015574D02*
X030415Y015451D01*
X030292Y015574D01*
X030415Y015698D01*
X030538Y015574D01*
X030476Y015636D02*
X030353Y015636D01*
X030389Y015478D02*
X030441Y015478D01*
X030415Y014698D02*
X030538Y014574D01*
X030415Y014451D01*
X030292Y014574D01*
X030415Y014698D01*
X030402Y014685D02*
X030428Y014685D01*
X030490Y014526D02*
X030340Y014526D01*
X029538Y014574D02*
X029415Y014451D01*
X029292Y014574D01*
X029415Y014698D01*
X029538Y014574D01*
X029490Y014526D02*
X029340Y014526D01*
X029402Y014685D02*
X029428Y014685D01*
X028538Y014574D02*
X028415Y014451D01*
X028292Y014574D01*
X028415Y014698D01*
X028538Y014574D01*
X028490Y014526D02*
X028340Y014526D01*
X028402Y014685D02*
X028428Y014685D01*
X028415Y015451D02*
X028292Y015574D01*
X028415Y015698D01*
X028538Y015574D01*
X028415Y015451D01*
X028389Y015478D02*
X028441Y015478D01*
X028476Y015636D02*
X028353Y015636D01*
X029292Y015574D02*
X029415Y015698D01*
X029538Y015574D01*
X029415Y015451D01*
X029292Y015574D01*
X029353Y015636D02*
X029477Y015636D01*
X029441Y015478D02*
X029389Y015478D01*
X029279Y016587D02*
X029551Y016587D01*
X030279Y016587D02*
X030551Y016587D01*
X028551Y016587D02*
X028279Y016587D01*
X030187Y020551D02*
X030643Y020551D01*
X030439Y020709D02*
X030391Y020709D01*
X030391Y021502D02*
X030439Y021502D01*
X024165Y022874D02*
X024015Y022724D01*
X024165Y022874D02*
X024165Y023124D01*
X024165Y027324D01*
X023915Y027574D01*
X023915Y029574D01*
X022915Y029574D02*
X022915Y023324D01*
X023415Y025074D02*
X023415Y026574D01*
X024915Y027074D02*
X024915Y028574D01*
X027915Y029524D02*
X028415Y029024D01*
X028415Y026674D01*
X027915Y029524D02*
X027915Y029574D01*
X029915Y031324D02*
X020615Y031324D01*
X019965Y030674D01*
X019965Y029974D01*
X019415Y029424D01*
X019115Y029424D01*
X018865Y029674D01*
X018865Y030224D01*
X018515Y030574D01*
X018515Y031024D01*
X018015Y031474D01*
X014815Y031474D01*
X016515Y029524D02*
X016943Y029952D01*
X017437Y029952D01*
X016515Y029524D02*
X016515Y028029D01*
X017437Y028952D02*
X018115Y028924D01*
X018715Y028424D01*
X019165Y028424D01*
X022115Y025174D01*
X022115Y025124D01*
X019415Y030674D02*
X019415Y031774D01*
X029915Y031324D02*
X030415Y030824D01*
X030415Y030074D01*
X030915Y029574D01*
X035581Y027368D02*
X037945Y027368D01*
X037945Y027210D02*
X035815Y027210D01*
X035905Y027051D02*
X037942Y027051D01*
X039085Y028053D02*
X039085Y028088D01*
X039251Y028254D01*
X039252Y028254D01*
X039110Y028113D01*
X039085Y028053D01*
X039158Y028161D02*
X039158Y028161D01*
X037843Y011831D02*
X037124Y011831D01*
X037283Y011673D02*
X038001Y011673D01*
X038160Y011514D02*
X037441Y011514D01*
X036066Y010574D02*
X035915Y010423D01*
X035763Y010574D01*
X035915Y010726D01*
X036066Y010574D01*
X036055Y010563D02*
X035775Y010563D01*
X035910Y010721D02*
X035920Y010721D01*
X035961Y009294D02*
X037515Y009294D01*
X037515Y009136D02*
X036119Y009136D01*
X036278Y008977D02*
X037515Y008977D01*
X037515Y008819D02*
X036436Y008819D01*
X036595Y008660D02*
X037515Y008660D01*
X037515Y008502D02*
X036753Y008502D01*
X039287Y008606D02*
X039415Y008478D01*
X039543Y008606D01*
X039415Y008734D01*
X039287Y008606D01*
X039341Y008660D02*
X039488Y008660D01*
X039438Y008502D02*
X039392Y008502D01*
X040287Y008606D02*
X040293Y008611D01*
X040420Y008484D01*
X040515Y008444D01*
X040515Y008269D01*
X040438Y008455D01*
X040287Y008606D01*
X040392Y008502D02*
X040402Y008502D01*
X040484Y008343D02*
X040515Y008343D01*
X040515Y007943D02*
X040515Y007269D01*
X040438Y007455D01*
X040287Y007606D01*
X040438Y007757D01*
X040515Y007943D01*
X040515Y007867D02*
X040484Y007867D01*
X040515Y007709D02*
X040390Y007709D01*
X040343Y007550D02*
X040515Y007550D01*
X040515Y007392D02*
X040464Y007392D01*
X040515Y006943D02*
X040515Y006269D01*
X040438Y006455D01*
X040287Y006606D01*
X040438Y006757D01*
X040515Y006943D01*
X040515Y006916D02*
X040504Y006916D01*
X040515Y006758D02*
X040438Y006758D01*
X040515Y006599D02*
X040294Y006599D01*
X040444Y006441D02*
X040515Y006441D01*
X040510Y006282D02*
X040515Y006282D01*
X040515Y005943D02*
X040515Y005303D01*
X040510Y005304D01*
X040500Y005304D01*
X040438Y005455D01*
X040287Y005606D01*
X040438Y005757D01*
X040515Y005943D01*
X040515Y005806D02*
X040459Y005806D01*
X040515Y005648D02*
X040329Y005648D01*
X040404Y005489D02*
X040515Y005489D01*
X040515Y005331D02*
X040489Y005331D01*
X039915Y005106D02*
X039915Y005074D01*
X039415Y004574D01*
X039415Y005574D02*
X037815Y005574D01*
X039415Y005574D02*
X039915Y006074D01*
X039915Y006106D01*
X040915Y008324D02*
X040915Y008724D01*
X040715Y008924D01*
X040885Y009453D02*
X040439Y009453D01*
X040293Y009611D02*
X040885Y009611D01*
X040885Y009770D02*
X040443Y009770D01*
X040509Y009929D02*
X040885Y009929D01*
X040885Y010087D02*
X040532Y010087D01*
X040525Y010246D02*
X040885Y010246D01*
X040885Y010404D02*
X040459Y010404D01*
X040331Y010563D02*
X040885Y010563D01*
X040885Y010721D02*
X040403Y010721D01*
X040489Y010880D02*
X040885Y010880D01*
X040885Y011038D02*
X040532Y011038D01*
X040532Y011197D02*
X040885Y011197D01*
X040885Y011355D02*
X040479Y011355D01*
X039543Y010606D02*
X039415Y010478D01*
X039287Y010606D01*
X039415Y010734D01*
X039543Y010606D01*
X039499Y010563D02*
X039331Y010563D01*
X039403Y010721D02*
X039427Y010721D01*
X039415Y009734D02*
X039543Y009606D01*
X039415Y009478D01*
X039287Y009606D01*
X039415Y009734D01*
X039293Y009611D02*
X039537Y009611D01*
X040915Y008324D02*
X040915Y003374D01*
X041266Y000777D02*
X041266Y000587D01*
X041076Y000587D01*
X041266Y000777D01*
X041266Y000733D02*
X041222Y000733D01*
D11*
X039285Y002106D02*
X039287Y002156D01*
X039293Y002206D01*
X039303Y002255D01*
X039317Y002303D01*
X039334Y002350D01*
X039355Y002395D01*
X039380Y002439D01*
X039408Y002480D01*
X039440Y002519D01*
X039474Y002556D01*
X039511Y002590D01*
X039551Y002620D01*
X039593Y002647D01*
X039637Y002671D01*
X039683Y002692D01*
X039730Y002708D01*
X039778Y002721D01*
X039828Y002730D01*
X039877Y002735D01*
X039928Y002736D01*
X039978Y002733D01*
X040027Y002726D01*
X040076Y002715D01*
X040124Y002700D01*
X040170Y002682D01*
X040215Y002660D01*
X040258Y002634D01*
X040299Y002605D01*
X040338Y002573D01*
X040374Y002538D01*
X040406Y002500D01*
X040436Y002460D01*
X040463Y002417D01*
X040486Y002373D01*
X040505Y002327D01*
X040521Y002279D01*
X040533Y002230D01*
X040541Y002181D01*
X040545Y002131D01*
X040545Y002081D01*
X040541Y002031D01*
X040533Y001982D01*
X040521Y001933D01*
X040505Y001885D01*
X040486Y001839D01*
X040463Y001795D01*
X040436Y001752D01*
X040406Y001712D01*
X040374Y001674D01*
X040338Y001639D01*
X040299Y001607D01*
X040258Y001578D01*
X040215Y001552D01*
X040170Y001530D01*
X040124Y001512D01*
X040076Y001497D01*
X040027Y001486D01*
X039978Y001479D01*
X039928Y001476D01*
X039877Y001477D01*
X039828Y001482D01*
X039778Y001491D01*
X039730Y001504D01*
X039683Y001520D01*
X039637Y001541D01*
X039593Y001565D01*
X039551Y001592D01*
X039511Y001622D01*
X039474Y001656D01*
X039440Y001693D01*
X039408Y001732D01*
X039380Y001773D01*
X039355Y001817D01*
X039334Y001862D01*
X039317Y001909D01*
X039303Y001957D01*
X039293Y002006D01*
X039287Y002056D01*
X039285Y002106D01*
X007285Y021106D02*
X007287Y021156D01*
X007293Y021206D01*
X007303Y021255D01*
X007317Y021303D01*
X007334Y021350D01*
X007355Y021395D01*
X007380Y021439D01*
X007408Y021480D01*
X007440Y021519D01*
X007474Y021556D01*
X007511Y021590D01*
X007551Y021620D01*
X007593Y021647D01*
X007637Y021671D01*
X007683Y021692D01*
X007730Y021708D01*
X007778Y021721D01*
X007828Y021730D01*
X007877Y021735D01*
X007928Y021736D01*
X007978Y021733D01*
X008027Y021726D01*
X008076Y021715D01*
X008124Y021700D01*
X008170Y021682D01*
X008215Y021660D01*
X008258Y021634D01*
X008299Y021605D01*
X008338Y021573D01*
X008374Y021538D01*
X008406Y021500D01*
X008436Y021460D01*
X008463Y021417D01*
X008486Y021373D01*
X008505Y021327D01*
X008521Y021279D01*
X008533Y021230D01*
X008541Y021181D01*
X008545Y021131D01*
X008545Y021081D01*
X008541Y021031D01*
X008533Y020982D01*
X008521Y020933D01*
X008505Y020885D01*
X008486Y020839D01*
X008463Y020795D01*
X008436Y020752D01*
X008406Y020712D01*
X008374Y020674D01*
X008338Y020639D01*
X008299Y020607D01*
X008258Y020578D01*
X008215Y020552D01*
X008170Y020530D01*
X008124Y020512D01*
X008076Y020497D01*
X008027Y020486D01*
X007978Y020479D01*
X007928Y020476D01*
X007877Y020477D01*
X007828Y020482D01*
X007778Y020491D01*
X007730Y020504D01*
X007683Y020520D01*
X007637Y020541D01*
X007593Y020565D01*
X007551Y020592D01*
X007511Y020622D01*
X007474Y020656D01*
X007440Y020693D01*
X007408Y020732D01*
X007380Y020773D01*
X007355Y020817D01*
X007334Y020862D01*
X007317Y020909D01*
X007303Y020957D01*
X007293Y021006D01*
X007287Y021056D01*
X007285Y021106D01*
X011285Y030574D02*
X011287Y030624D01*
X011293Y030674D01*
X011303Y030723D01*
X011317Y030771D01*
X011334Y030818D01*
X011355Y030863D01*
X011380Y030907D01*
X011408Y030948D01*
X011440Y030987D01*
X011474Y031024D01*
X011511Y031058D01*
X011551Y031088D01*
X011593Y031115D01*
X011637Y031139D01*
X011683Y031160D01*
X011730Y031176D01*
X011778Y031189D01*
X011828Y031198D01*
X011877Y031203D01*
X011928Y031204D01*
X011978Y031201D01*
X012027Y031194D01*
X012076Y031183D01*
X012124Y031168D01*
X012170Y031150D01*
X012215Y031128D01*
X012258Y031102D01*
X012299Y031073D01*
X012338Y031041D01*
X012374Y031006D01*
X012406Y030968D01*
X012436Y030928D01*
X012463Y030885D01*
X012486Y030841D01*
X012505Y030795D01*
X012521Y030747D01*
X012533Y030698D01*
X012541Y030649D01*
X012545Y030599D01*
X012545Y030549D01*
X012541Y030499D01*
X012533Y030450D01*
X012521Y030401D01*
X012505Y030353D01*
X012486Y030307D01*
X012463Y030263D01*
X012436Y030220D01*
X012406Y030180D01*
X012374Y030142D01*
X012338Y030107D01*
X012299Y030075D01*
X012258Y030046D01*
X012215Y030020D01*
X012170Y029998D01*
X012124Y029980D01*
X012076Y029965D01*
X012027Y029954D01*
X011978Y029947D01*
X011928Y029944D01*
X011877Y029945D01*
X011828Y029950D01*
X011778Y029959D01*
X011730Y029972D01*
X011683Y029988D01*
X011637Y030009D01*
X011593Y030033D01*
X011551Y030060D01*
X011511Y030090D01*
X011474Y030124D01*
X011440Y030161D01*
X011408Y030200D01*
X011380Y030241D01*
X011355Y030285D01*
X011334Y030330D01*
X011317Y030377D01*
X011303Y030425D01*
X011293Y030474D01*
X011287Y030524D01*
X011285Y030574D01*
X039285Y027574D02*
X039287Y027624D01*
X039293Y027674D01*
X039303Y027723D01*
X039317Y027771D01*
X039334Y027818D01*
X039355Y027863D01*
X039380Y027907D01*
X039408Y027948D01*
X039440Y027987D01*
X039474Y028024D01*
X039511Y028058D01*
X039551Y028088D01*
X039593Y028115D01*
X039637Y028139D01*
X039683Y028160D01*
X039730Y028176D01*
X039778Y028189D01*
X039828Y028198D01*
X039877Y028203D01*
X039928Y028204D01*
X039978Y028201D01*
X040027Y028194D01*
X040076Y028183D01*
X040124Y028168D01*
X040170Y028150D01*
X040215Y028128D01*
X040258Y028102D01*
X040299Y028073D01*
X040338Y028041D01*
X040374Y028006D01*
X040406Y027968D01*
X040436Y027928D01*
X040463Y027885D01*
X040486Y027841D01*
X040505Y027795D01*
X040521Y027747D01*
X040533Y027698D01*
X040541Y027649D01*
X040545Y027599D01*
X040545Y027549D01*
X040541Y027499D01*
X040533Y027450D01*
X040521Y027401D01*
X040505Y027353D01*
X040486Y027307D01*
X040463Y027263D01*
X040436Y027220D01*
X040406Y027180D01*
X040374Y027142D01*
X040338Y027107D01*
X040299Y027075D01*
X040258Y027046D01*
X040215Y027020D01*
X040170Y026998D01*
X040124Y026980D01*
X040076Y026965D01*
X040027Y026954D01*
X039978Y026947D01*
X039928Y026944D01*
X039877Y026945D01*
X039828Y026950D01*
X039778Y026959D01*
X039730Y026972D01*
X039683Y026988D01*
X039637Y027009D01*
X039593Y027033D01*
X039551Y027060D01*
X039511Y027090D01*
X039474Y027124D01*
X039440Y027161D01*
X039408Y027200D01*
X039380Y027241D01*
X039355Y027285D01*
X039334Y027330D01*
X039317Y027377D01*
X039303Y027425D01*
X039293Y027474D01*
X039287Y027524D01*
X039285Y027574D01*
X006785Y002106D02*
X006787Y002156D01*
X006793Y002206D01*
X006803Y002255D01*
X006817Y002303D01*
X006834Y002350D01*
X006855Y002395D01*
X006880Y002439D01*
X006908Y002480D01*
X006940Y002519D01*
X006974Y002556D01*
X007011Y002590D01*
X007051Y002620D01*
X007093Y002647D01*
X007137Y002671D01*
X007183Y002692D01*
X007230Y002708D01*
X007278Y002721D01*
X007328Y002730D01*
X007377Y002735D01*
X007428Y002736D01*
X007478Y002733D01*
X007527Y002726D01*
X007576Y002715D01*
X007624Y002700D01*
X007670Y002682D01*
X007715Y002660D01*
X007758Y002634D01*
X007799Y002605D01*
X007838Y002573D01*
X007874Y002538D01*
X007906Y002500D01*
X007936Y002460D01*
X007963Y002417D01*
X007986Y002373D01*
X008005Y002327D01*
X008021Y002279D01*
X008033Y002230D01*
X008041Y002181D01*
X008045Y002131D01*
X008045Y002081D01*
X008041Y002031D01*
X008033Y001982D01*
X008021Y001933D01*
X008005Y001885D01*
X007986Y001839D01*
X007963Y001795D01*
X007936Y001752D01*
X007906Y001712D01*
X007874Y001674D01*
X007838Y001639D01*
X007799Y001607D01*
X007758Y001578D01*
X007715Y001552D01*
X007670Y001530D01*
X007624Y001512D01*
X007576Y001497D01*
X007527Y001486D01*
X007478Y001479D01*
X007428Y001476D01*
X007377Y001477D01*
X007328Y001482D01*
X007278Y001491D01*
X007230Y001504D01*
X007183Y001520D01*
X007137Y001541D01*
X007093Y001565D01*
X007051Y001592D01*
X007011Y001622D01*
X006974Y001656D01*
X006940Y001693D01*
X006908Y001732D01*
X006880Y001773D01*
X006855Y001817D01*
X006834Y001862D01*
X006817Y001909D01*
X006803Y001957D01*
X006793Y002006D01*
X006787Y002056D01*
X006785Y002106D01*
D12*
X004315Y008743D03*
X004315Y009743D03*
X004315Y010743D03*
X004315Y011743D03*
X004365Y015140D03*
X004365Y016140D03*
X004365Y017140D03*
X004365Y018140D03*
X004722Y022622D03*
X003935Y022622D03*
X003147Y022622D03*
X005509Y022622D03*
X006297Y022622D03*
X007084Y022622D03*
X007872Y022622D03*
X008659Y022622D03*
X009446Y022622D03*
X010234Y022622D03*
X018331Y025021D03*
X019331Y025021D03*
X019331Y026021D03*
X018331Y026021D03*
X018331Y027021D03*
X019331Y027021D03*
X010234Y031283D03*
X009446Y031283D03*
X008659Y031283D03*
X007872Y031283D03*
X007084Y031283D03*
X006297Y031283D03*
X005509Y031283D03*
X004722Y031283D03*
X003935Y031283D03*
X003147Y031283D03*
X022915Y016074D03*
X023915Y016074D03*
X023915Y015074D03*
X022915Y015074D03*
X024915Y015074D03*
X025915Y015074D03*
X025915Y016074D03*
X024915Y016074D03*
X027915Y016074D03*
X028915Y016074D03*
X028915Y015074D03*
X027915Y015074D03*
X027915Y014074D03*
X028915Y014074D03*
X029915Y014074D03*
X030915Y014074D03*
X030915Y015074D03*
X029915Y015074D03*
X029915Y016074D03*
X030915Y016074D03*
X033915Y016074D03*
X033915Y015074D03*
X033915Y014074D03*
X033915Y017074D03*
D13*
X033915Y021106D03*
X034915Y021106D03*
X035915Y021106D03*
X038915Y021106D03*
X039915Y021106D03*
X039915Y020106D03*
X038915Y020106D03*
X038915Y019106D03*
X039915Y019106D03*
X039915Y018106D03*
X038915Y018106D03*
X038915Y017106D03*
X039915Y017106D03*
X039915Y016106D03*
X038915Y016106D03*
X038915Y015106D03*
X039915Y015106D03*
X039915Y014106D03*
X038915Y014106D03*
X038915Y013106D03*
X039915Y013106D03*
X039915Y012106D03*
X038915Y012106D03*
X038915Y011106D03*
X039915Y011106D03*
X039915Y010106D03*
X038915Y010106D03*
X038915Y009106D03*
X039915Y009106D03*
X039915Y008106D03*
X038915Y008106D03*
X038915Y007106D03*
X039915Y007106D03*
X039915Y006106D03*
X038915Y006106D03*
X038915Y005106D03*
X039915Y005106D03*
X039915Y004106D03*
X038915Y004106D03*
X037915Y002106D03*
X036915Y002106D03*
X035915Y002106D03*
X034915Y002106D03*
X033915Y002106D03*
X032915Y002106D03*
X031915Y002106D03*
X030915Y002106D03*
X028915Y002106D03*
X027915Y002106D03*
X026915Y002106D03*
X025915Y002106D03*
X024915Y002106D03*
X023915Y002106D03*
X022915Y002106D03*
X021915Y002106D03*
X019915Y002106D03*
X018915Y002106D03*
X017915Y002106D03*
X016915Y002106D03*
X015915Y002106D03*
X014915Y002106D03*
X015315Y021106D03*
X016315Y021106D03*
X017315Y021106D03*
X018315Y021106D03*
X019915Y021106D03*
X020915Y021106D03*
X021915Y021106D03*
X022915Y021106D03*
X023915Y021106D03*
X024915Y021106D03*
X025915Y021106D03*
X026915Y021106D03*
X028915Y021106D03*
X029915Y021106D03*
X030915Y021106D03*
X031915Y021106D03*
X032915Y021106D03*
X014315Y021106D03*
X013315Y021106D03*
X012315Y021106D03*
X011315Y021106D03*
D14*
X016411Y018665D03*
X017411Y018665D03*
X018411Y018665D03*
X018411Y017665D03*
X017411Y017665D03*
X016411Y017665D03*
X016431Y012346D03*
X017431Y012346D03*
X018431Y012346D03*
X018431Y011346D03*
X017431Y011346D03*
X016431Y011346D03*
X020915Y029574D03*
X021915Y029574D03*
X022915Y029574D03*
X023915Y029574D03*
X024915Y029574D03*
X025915Y029574D03*
X026915Y029574D03*
X027915Y029574D03*
X028915Y029574D03*
X029915Y029574D03*
X030915Y029574D03*
X031915Y029574D03*
X032915Y029574D03*
X033915Y029574D03*
X034915Y029574D03*
X035915Y029574D03*
X036915Y029574D03*
X037915Y029574D03*
X038915Y029574D03*
X039915Y029574D03*
X039915Y030574D03*
X038915Y030574D03*
X037915Y030574D03*
X036915Y030574D03*
X035915Y030574D03*
X034915Y030574D03*
X033915Y030574D03*
X032915Y030574D03*
X031915Y030574D03*
X030915Y030574D03*
X029915Y030574D03*
X028915Y030574D03*
X027915Y030574D03*
X026915Y030574D03*
X025915Y030574D03*
X024915Y030574D03*
X023915Y030574D03*
X022915Y030574D03*
X021915Y030574D03*
X020915Y030574D03*
D15*
X027415Y011074D03*
X028415Y011074D03*
X029415Y011074D03*
X029415Y010074D03*
X028415Y010074D03*
X027415Y010074D03*
X030415Y010074D03*
X030415Y011074D03*
X032415Y011074D03*
X033415Y011074D03*
X034415Y011074D03*
X034415Y010074D03*
X033415Y010074D03*
X032415Y010074D03*
X035415Y010074D03*
X036415Y010074D03*
X036415Y011074D03*
X035415Y011074D03*
D16*
X017462Y013452D03*
X016462Y013452D03*
X015462Y013452D03*
X014462Y013452D03*
X013462Y013452D03*
X012462Y013452D03*
X011462Y013452D03*
X010462Y013452D03*
X010443Y014771D03*
X011443Y014771D03*
X012443Y014771D03*
X013443Y014771D03*
X014443Y014771D03*
X015443Y014771D03*
X016443Y014771D03*
X017443Y014771D03*
X017443Y019771D03*
X016443Y019771D03*
X015443Y019771D03*
X014443Y019771D03*
X013443Y019771D03*
X012443Y019771D03*
X011443Y019771D03*
X010443Y019771D03*
X010462Y008452D03*
X011462Y008452D03*
X012462Y008452D03*
X013462Y008452D03*
X014462Y008452D03*
X015462Y008452D03*
X016462Y008452D03*
X017462Y008452D03*
D17*
X006269Y003752D03*
X003946Y003752D03*
X005088Y001901D03*
D18*
X005886Y006084D02*
X005886Y006644D01*
X006886Y006644D02*
X006886Y006084D01*
X006886Y006364D02*
X007765Y006336D01*
X007215Y006374D01*
X011545Y003314D02*
X012465Y004484D01*
X012465Y005074D01*
X015172Y028952D02*
X015732Y028952D01*
X015732Y029952D02*
X015172Y029952D01*
X015172Y030952D02*
X015732Y030952D01*
X017157Y030952D02*
X017717Y030952D01*
X017717Y029952D02*
X017157Y029952D01*
X017157Y028952D02*
X017717Y028952D01*
D19*
X015230Y025824D03*
X015730Y025074D03*
X014730Y025074D03*
D20*
X003515Y014590D03*
X003515Y008197D03*
D21*
X003515Y009574D03*
X003515Y010952D03*
X003515Y012330D03*
X003515Y015968D03*
X003515Y017346D03*
X003515Y018724D03*
D22*
X003484Y006283D03*
X003484Y004905D03*
D23*
X008985Y003314D03*
X008985Y001534D03*
X011545Y001534D03*
X011545Y003314D03*
D24*
X006265Y021424D03*
X005115Y030174D03*
D25*
X012028Y020406D02*
X011443Y019771D01*
X012028Y020406D02*
X016876Y020406D01*
X016876Y020338D01*
X017443Y019771D01*
X016815Y014124D02*
X011815Y014124D01*
X011465Y013774D01*
X011465Y013455D01*
X011462Y013452D01*
X016815Y014124D02*
X017462Y013477D01*
X017462Y013452D01*
X017915Y002074D02*
X018865Y002074D01*
X018915Y002106D02*
X018915Y002124D01*
X018915Y002106D02*
X018915Y001474D01*
X019315Y001174D01*
X029915Y001174D01*
X029915Y002074D01*
D26*
X039915Y004106D02*
X039915Y004324D01*
X040415Y004824D01*
X033915Y014074D02*
X030915Y014074D01*
X027415Y010074D02*
X026265Y010074D01*
X024290Y011999D01*
X023665Y011324D01*
X021915Y011324D01*
X022915Y013424D02*
X024290Y011999D01*
X022915Y013424D02*
X022915Y015074D01*
X022915Y016074D01*
X022965Y016074D02*
X023915Y017024D01*
X023915Y017574D01*
X023915Y016074D02*
X023915Y015624D01*
X023915Y015074D01*
X018411Y017665D02*
X017265Y016519D01*
X015694Y016519D01*
X013553Y014968D01*
X013443Y014771D01*
X013135Y015338D02*
X012939Y015338D01*
X012443Y014842D01*
X012443Y014771D01*
X013135Y015338D02*
X015498Y017110D01*
X016856Y017110D01*
X017411Y017665D01*
X016411Y017665D02*
X016376Y017700D01*
X015301Y017700D01*
X012939Y015929D01*
X012348Y015929D01*
X011443Y014826D01*
X011443Y014771D01*
X014317Y011204D02*
X016289Y011204D01*
X016431Y011346D01*
X016698Y010614D02*
X017431Y011346D01*
X018431Y011346D02*
X017108Y010023D01*
X014710Y010023D01*
X013462Y008775D01*
X013462Y008452D01*
X012462Y008452D02*
X012462Y008563D01*
X014513Y010614D01*
X016698Y010614D01*
X014317Y011204D02*
X012742Y009630D01*
X012151Y009630D01*
X011462Y008941D01*
X011462Y008452D01*
X009915Y007124D02*
X014258Y007124D01*
X014265Y007117D01*
X009915Y007124D02*
X009230Y007810D01*
X009230Y007811D01*
X008795Y008195D01*
X005705Y008195D01*
X005705Y019416D02*
X003147Y022374D01*
X003147Y022622D01*
X015730Y025074D02*
X015783Y025021D01*
X018331Y025021D01*
X038915Y021106D02*
X039915Y021106D01*
D27*
X036365Y022724D03*
X040415Y024074D03*
X035415Y026874D03*
X031615Y025124D03*
X029915Y024074D03*
X031915Y022724D03*
X028015Y020324D03*
X024015Y022724D03*
X022915Y023324D03*
X023415Y025074D03*
X022115Y025124D03*
X023415Y026574D03*
X024915Y027074D03*
X026415Y025474D03*
X027415Y025124D03*
X028415Y026674D03*
X020015Y022674D03*
X020565Y018524D03*
X023115Y018024D03*
X023915Y017574D03*
X019565Y014924D03*
X018265Y014274D03*
X021365Y013874D03*
X021915Y011324D03*
X021015Y010724D03*
X019315Y009174D03*
X018465Y009024D03*
X019465Y008024D03*
X022915Y008574D03*
X023365Y009574D03*
X016915Y005074D03*
X014265Y007117D03*
X012465Y005074D03*
X029915Y002074D03*
X033165Y006574D03*
X030165Y007924D03*
X031415Y009874D03*
X037815Y005574D03*
X040715Y008924D03*
X035915Y018024D03*
X019415Y030674D03*
X012065Y025674D03*
X009815Y025974D03*
D28*
X010115Y025674D01*
X012065Y025674D01*
X014730Y025074D02*
X015430Y024374D01*
X017115Y024374D01*
X017815Y023624D01*
X030915Y015074D02*
X033915Y015074D01*
X030415Y010074D02*
X030165Y009824D01*
X030165Y007924D01*
D29*
X018915Y002124D02*
X018865Y002074D01*
D30*
X016915Y003624D02*
X016915Y005074D01*
X016915Y003624D02*
X016349Y003059D01*
X015862Y003059D01*
X014915Y002106D02*
X014393Y001584D01*
X019465Y008024D02*
X020965Y008024D01*
X021515Y009174D02*
X019315Y009174D01*
X018915Y008574D02*
X022915Y008574D01*
X022165Y009174D02*
X022565Y009574D01*
X023365Y009574D01*
X022165Y009174D02*
X021515Y009174D01*
X018915Y008574D02*
X018465Y009024D01*
X018265Y014274D02*
X019215Y015524D01*
X020515Y015524D01*
X021515Y016524D01*
X021515Y019674D01*
X022915Y021074D01*
X022915Y021106D01*
X023915Y021106D02*
X021915Y019056D01*
X021915Y016424D01*
X020365Y014924D01*
X019565Y014924D01*
X020365Y015874D02*
X018546Y015874D01*
X017443Y014771D01*
X020365Y015874D02*
X021165Y016674D01*
X021165Y020374D01*
X021915Y021106D01*
X019715Y018524D02*
X018715Y019524D01*
X017815Y020474D01*
X017815Y023624D01*
X020015Y025474D02*
X019468Y026021D01*
X019331Y026021D01*
X019331Y026021D01*
X018331Y026021D01*
X006297Y022622D02*
X006297Y021456D01*
X006265Y021424D01*
X005815Y030174D02*
X005115Y030174D01*
X005815Y030174D02*
X006297Y030656D01*
X006297Y031283D01*
X022915Y016074D02*
X022965Y016074D01*
X023915Y015624D02*
X023965Y015574D01*
X027415Y015574D01*
X027915Y015074D01*
D31*
X031415Y020324D02*
X031415Y021324D01*
X038915Y021324D02*
X038915Y021106D01*
X026915Y029324D02*
X026915Y029574D01*
X018915Y002324D02*
X018915Y002124D01*
X024915Y002106D02*
X024915Y002074D01*
D32*
X013332Y011008D02*
X005852Y011008D01*
X004315Y009743D01*
X003515Y009574D01*
X004315Y008743D02*
X003818Y008197D01*
X003515Y008197D01*
X004315Y008743D02*
X004319Y008743D01*
X006246Y010220D01*
X012545Y010220D01*
X014120Y011795D02*
X005458Y011795D01*
X004315Y010743D01*
X003515Y010952D01*
X004315Y011743D02*
X005065Y012582D01*
X015498Y012582D01*
X015498Y013417D01*
X015462Y013452D01*
X011815Y014124D02*
X009465Y014124D01*
X009465Y015124D01*
X009915Y015574D01*
X008017Y016519D02*
X012742Y016519D01*
X013923Y017307D02*
X007624Y017307D01*
X006246Y016126D01*
X005458Y016126D01*
X005423Y016090D01*
X004365Y016140D01*
X003515Y015968D01*
X004365Y015140D02*
X005407Y015090D01*
X005458Y015141D01*
X006443Y015141D01*
X008017Y016519D01*
X007033Y018094D02*
X014710Y018094D01*
X014553Y018882D02*
X015443Y019771D01*
X014553Y018882D02*
X006639Y018882D01*
X005848Y018090D01*
X005454Y018090D01*
X004365Y018140D01*
X003515Y018724D01*
X003515Y017346D02*
X004365Y017140D01*
X005439Y017090D01*
X005458Y017110D01*
X006049Y017110D01*
X007033Y018094D01*
X005458Y018094D02*
X005454Y018090D01*
X004365Y015140D02*
X003515Y014590D01*
X003515Y012330D02*
X004315Y011743D01*
X003147Y022622D02*
X003096Y022673D01*
X003096Y025378D01*
X007033Y024000D02*
X007033Y022673D01*
X007084Y022622D01*
X007033Y024000D02*
X007427Y024393D01*
X007427Y029111D01*
X038515Y028324D02*
X038515Y027074D01*
X038915Y026774D01*
X038915Y022024D01*
X038515Y028324D02*
X039015Y028824D01*
X040315Y028824D01*
X040715Y029224D01*
X040715Y030974D01*
X040265Y031424D01*
X039165Y031424D01*
X038915Y031174D01*
X038915Y030574D01*
D33*
X019715Y018524D03*
X014710Y018094D03*
X013923Y017307D03*
X012742Y016519D03*
X009915Y015574D03*
X014120Y011795D03*
X013332Y011008D03*
X012545Y010220D03*
X005705Y008195D03*
X005705Y019416D03*
X005765Y023474D03*
X006443Y025331D03*
X008214Y025028D03*
X010515Y026574D03*
X010970Y027346D03*
X012954Y028921D03*
X007427Y029111D03*
X003096Y025378D03*
X014315Y023574D03*
X033915Y009274D03*
X030815Y005974D03*
X033315Y004574D03*
X033715Y005574D03*
X037315Y005274D03*
X037515Y004574D03*
X027515Y006574D03*
X025415Y006574D03*
X024415Y005974D03*
X023415Y005574D03*
X020965Y008024D03*
D34*
X017635Y005930D02*
X019828Y002937D01*
X019828Y002216D01*
X019915Y002106D01*
X017635Y005930D02*
X008170Y005980D01*
X008159Y005980D01*
X007215Y006374D01*
D35*
X017462Y008452D02*
X017465Y008500D01*
X017465Y009324D01*
X018815Y010724D01*
X021015Y010724D01*
X020565Y018524D02*
X018315Y020774D01*
X018315Y021106D01*
X016315Y021106D02*
X016315Y021974D01*
X017065Y022724D01*
X017065Y023674D01*
X016715Y024024D01*
X014915Y024024D01*
X014215Y024724D01*
X014215Y025574D01*
X013665Y026124D01*
X010365Y026124D01*
X010065Y026424D01*
X010065Y026674D01*
X010365Y026974D01*
X016565Y026974D01*
X017665Y028074D01*
X019015Y028074D01*
X019315Y027774D01*
X019315Y027037D01*
X019331Y027021D01*
X020015Y025474D02*
X020015Y022674D01*
X031415Y009874D02*
X033165Y007824D01*
X033165Y006574D01*
D36*
X021915Y011324D02*
X021493Y012346D01*
X018431Y012346D01*
X017431Y012346D01*
X016431Y012346D01*
X016411Y018665D02*
X017411Y018665D01*
X018411Y018665D01*
D37*
X035915Y018024D02*
X036415Y018024D01*
X037765Y019374D01*
X037765Y019956D01*
X038915Y021106D01*
X038915Y021324D02*
X038915Y022024D01*
M02*
