G75*
G70*
%OFA0B0*%
%FSLAX24Y24*%
%IPPOS*%
%LPD*%
%AMOC8*
5,1,8,0,0,1.08239X$1,22.5*
%
%ADD10C,0.0160*%
%ADD11C,0.0634*%
%ADD12C,0.0000*%
%ADD13C,0.1300*%
%ADD14R,0.0512X0.0512*%
%ADD15R,0.0670X0.1418*%
%ADD16R,0.0631X0.0552*%
%ADD17C,0.0740*%
%ADD18C,0.0594*%
%ADD19C,0.0640*%
%ADD20R,0.1418X0.0670*%
%ADD21C,0.1930*%
%ADD22C,0.0600*%
%ADD23R,0.0552X0.0631*%
%ADD24R,0.0840X0.0840*%
%ADD25C,0.0840*%
%ADD26C,0.0900*%
%ADD27C,0.0780*%
%ADD28R,0.0473X0.0335*%
%ADD29OC8,0.0740*%
%ADD30C,0.0700*%
%ADD31OC8,0.0640*%
%ADD32R,0.0290X0.0540*%
%ADD33C,0.0790*%
D10*
X003160Y001147D02*
X003947Y000359D01*
X041743Y000359D01*
X042530Y001147D01*
X042530Y031068D01*
X041743Y031855D01*
X003947Y031855D01*
X003160Y031068D01*
X003160Y001147D01*
D11*
X016160Y001891D03*
X017160Y001891D03*
X018160Y001891D03*
X019160Y001891D03*
X020160Y001891D03*
X021160Y001891D03*
X023160Y001891D03*
X024160Y001891D03*
X025160Y001891D03*
X026160Y001891D03*
X027160Y001891D03*
X028160Y001891D03*
X029160Y001891D03*
X030160Y001891D03*
X032160Y001891D03*
X033160Y001891D03*
X034160Y001891D03*
X035160Y001891D03*
X036160Y001891D03*
X037160Y001891D03*
X038160Y001891D03*
X039160Y001891D03*
X040160Y003891D03*
X041160Y003891D03*
X041160Y004891D03*
X040160Y004891D03*
X040160Y005891D03*
X041160Y005891D03*
X041160Y006891D03*
X040160Y006891D03*
X040160Y007891D03*
X041160Y007891D03*
X041160Y008891D03*
X040160Y008891D03*
X040160Y009891D03*
X041160Y009891D03*
X041160Y010891D03*
X040160Y010891D03*
X040160Y011891D03*
X041160Y011891D03*
X041160Y012891D03*
X040160Y012891D03*
X040160Y013891D03*
X041160Y013891D03*
X041160Y014891D03*
X040160Y014891D03*
X040160Y015891D03*
X041160Y015891D03*
X041160Y016891D03*
X040160Y016891D03*
X040160Y017891D03*
X041160Y017891D03*
X041160Y018891D03*
X040160Y018891D03*
X040160Y019891D03*
X041160Y019891D03*
X041160Y020891D03*
X040160Y020891D03*
X037160Y020891D03*
X036160Y020891D03*
X035160Y020891D03*
X034160Y020891D03*
X033160Y020891D03*
X032160Y020891D03*
X031160Y020891D03*
X030160Y020891D03*
X028160Y020891D03*
X027160Y020891D03*
X026160Y020891D03*
X025160Y020891D03*
X024160Y020891D03*
X023160Y020891D03*
X022160Y020891D03*
X021160Y020891D03*
X019560Y020891D03*
X018560Y020891D03*
X017560Y020891D03*
X016560Y020891D03*
X015560Y020891D03*
X014560Y020891D03*
X013560Y020891D03*
X012560Y020891D03*
D12*
X008530Y020891D02*
X008532Y020941D01*
X008538Y020991D01*
X008548Y021040D01*
X008562Y021088D01*
X008579Y021135D01*
X008600Y021180D01*
X008625Y021224D01*
X008653Y021265D01*
X008685Y021304D01*
X008719Y021341D01*
X008756Y021375D01*
X008796Y021405D01*
X008838Y021432D01*
X008882Y021456D01*
X008928Y021477D01*
X008975Y021493D01*
X009023Y021506D01*
X009073Y021515D01*
X009122Y021520D01*
X009173Y021521D01*
X009223Y021518D01*
X009272Y021511D01*
X009321Y021500D01*
X009369Y021485D01*
X009415Y021467D01*
X009460Y021445D01*
X009503Y021419D01*
X009544Y021390D01*
X009583Y021358D01*
X009619Y021323D01*
X009651Y021285D01*
X009681Y021245D01*
X009708Y021202D01*
X009731Y021158D01*
X009750Y021112D01*
X009766Y021064D01*
X009778Y021015D01*
X009786Y020966D01*
X009790Y020916D01*
X009790Y020866D01*
X009786Y020816D01*
X009778Y020767D01*
X009766Y020718D01*
X009750Y020670D01*
X009731Y020624D01*
X009708Y020580D01*
X009681Y020537D01*
X009651Y020497D01*
X009619Y020459D01*
X009583Y020424D01*
X009544Y020392D01*
X009503Y020363D01*
X009460Y020337D01*
X009415Y020315D01*
X009369Y020297D01*
X009321Y020282D01*
X009272Y020271D01*
X009223Y020264D01*
X009173Y020261D01*
X009122Y020262D01*
X009073Y020267D01*
X009023Y020276D01*
X008975Y020289D01*
X008928Y020305D01*
X008882Y020326D01*
X008838Y020350D01*
X008796Y020377D01*
X008756Y020407D01*
X008719Y020441D01*
X008685Y020478D01*
X008653Y020517D01*
X008625Y020558D01*
X008600Y020602D01*
X008579Y020647D01*
X008562Y020694D01*
X008548Y020742D01*
X008538Y020791D01*
X008532Y020841D01*
X008530Y020891D01*
X008030Y001891D02*
X008032Y001941D01*
X008038Y001991D01*
X008048Y002040D01*
X008062Y002088D01*
X008079Y002135D01*
X008100Y002180D01*
X008125Y002224D01*
X008153Y002265D01*
X008185Y002304D01*
X008219Y002341D01*
X008256Y002375D01*
X008296Y002405D01*
X008338Y002432D01*
X008382Y002456D01*
X008428Y002477D01*
X008475Y002493D01*
X008523Y002506D01*
X008573Y002515D01*
X008622Y002520D01*
X008673Y002521D01*
X008723Y002518D01*
X008772Y002511D01*
X008821Y002500D01*
X008869Y002485D01*
X008915Y002467D01*
X008960Y002445D01*
X009003Y002419D01*
X009044Y002390D01*
X009083Y002358D01*
X009119Y002323D01*
X009151Y002285D01*
X009181Y002245D01*
X009208Y002202D01*
X009231Y002158D01*
X009250Y002112D01*
X009266Y002064D01*
X009278Y002015D01*
X009286Y001966D01*
X009290Y001916D01*
X009290Y001866D01*
X009286Y001816D01*
X009278Y001767D01*
X009266Y001718D01*
X009250Y001670D01*
X009231Y001624D01*
X009208Y001580D01*
X009181Y001537D01*
X009151Y001497D01*
X009119Y001459D01*
X009083Y001424D01*
X009044Y001392D01*
X009003Y001363D01*
X008960Y001337D01*
X008915Y001315D01*
X008869Y001297D01*
X008821Y001282D01*
X008772Y001271D01*
X008723Y001264D01*
X008673Y001261D01*
X008622Y001262D01*
X008573Y001267D01*
X008523Y001276D01*
X008475Y001289D01*
X008428Y001305D01*
X008382Y001326D01*
X008338Y001350D01*
X008296Y001377D01*
X008256Y001407D01*
X008219Y001441D01*
X008185Y001478D01*
X008153Y001517D01*
X008125Y001558D01*
X008100Y001602D01*
X008079Y001647D01*
X008062Y001694D01*
X008048Y001742D01*
X008038Y001791D01*
X008032Y001841D01*
X008030Y001891D01*
X040530Y001891D02*
X040532Y001941D01*
X040538Y001991D01*
X040548Y002040D01*
X040562Y002088D01*
X040579Y002135D01*
X040600Y002180D01*
X040625Y002224D01*
X040653Y002265D01*
X040685Y002304D01*
X040719Y002341D01*
X040756Y002375D01*
X040796Y002405D01*
X040838Y002432D01*
X040882Y002456D01*
X040928Y002477D01*
X040975Y002493D01*
X041023Y002506D01*
X041073Y002515D01*
X041122Y002520D01*
X041173Y002521D01*
X041223Y002518D01*
X041272Y002511D01*
X041321Y002500D01*
X041369Y002485D01*
X041415Y002467D01*
X041460Y002445D01*
X041503Y002419D01*
X041544Y002390D01*
X041583Y002358D01*
X041619Y002323D01*
X041651Y002285D01*
X041681Y002245D01*
X041708Y002202D01*
X041731Y002158D01*
X041750Y002112D01*
X041766Y002064D01*
X041778Y002015D01*
X041786Y001966D01*
X041790Y001916D01*
X041790Y001866D01*
X041786Y001816D01*
X041778Y001767D01*
X041766Y001718D01*
X041750Y001670D01*
X041731Y001624D01*
X041708Y001580D01*
X041681Y001537D01*
X041651Y001497D01*
X041619Y001459D01*
X041583Y001424D01*
X041544Y001392D01*
X041503Y001363D01*
X041460Y001337D01*
X041415Y001315D01*
X041369Y001297D01*
X041321Y001282D01*
X041272Y001271D01*
X041223Y001264D01*
X041173Y001261D01*
X041122Y001262D01*
X041073Y001267D01*
X041023Y001276D01*
X040975Y001289D01*
X040928Y001305D01*
X040882Y001326D01*
X040838Y001350D01*
X040796Y001377D01*
X040756Y001407D01*
X040719Y001441D01*
X040685Y001478D01*
X040653Y001517D01*
X040625Y001558D01*
X040600Y001602D01*
X040579Y001647D01*
X040562Y001694D01*
X040548Y001742D01*
X040538Y001791D01*
X040532Y001841D01*
X040530Y001891D01*
D13*
X041160Y001891D03*
X009160Y020891D03*
X008660Y001891D03*
D14*
X013747Y002359D03*
X014573Y002359D03*
X014573Y001359D03*
X013747Y001359D03*
X013747Y003359D03*
X014573Y003359D03*
X014573Y004359D03*
X013747Y004359D03*
X010773Y008459D03*
X009947Y008459D03*
X009597Y019509D03*
X010423Y019509D03*
X009210Y022846D03*
X009210Y023673D03*
D15*
X009551Y015160D03*
X009551Y013034D03*
D16*
X009866Y016919D03*
X009866Y017588D03*
X018060Y017735D03*
X018060Y018483D03*
X018060Y016383D03*
X018060Y015635D03*
X018123Y012160D03*
X018123Y011412D03*
X018118Y010115D03*
X018118Y009367D03*
X009210Y024635D03*
X009210Y025383D03*
X018660Y025135D03*
X018660Y025883D03*
X018660Y027085D03*
X018660Y027833D03*
D17*
X006960Y024409D03*
X006960Y023409D03*
X006960Y022409D03*
X006960Y021409D03*
X006960Y017925D03*
X006960Y016925D03*
X006960Y015925D03*
X006960Y014925D03*
X006960Y011528D03*
X006960Y010528D03*
X006960Y009528D03*
X006960Y008528D03*
X036660Y008909D03*
X036660Y007909D03*
X037660Y012909D03*
X038660Y012909D03*
X038660Y013909D03*
X037660Y013909D03*
X037660Y014909D03*
X038660Y014909D03*
X038660Y015909D03*
X037660Y015909D03*
D18*
X018688Y014556D03*
X017688Y014556D03*
X016688Y014556D03*
X015688Y014556D03*
X014688Y014556D03*
X013688Y014556D03*
X012688Y014556D03*
X011688Y014556D03*
X011707Y013237D03*
X012707Y013237D03*
X013707Y013237D03*
X014707Y013237D03*
X015707Y013237D03*
X016707Y013237D03*
X017707Y013237D03*
X018707Y013237D03*
X018707Y008237D03*
X017707Y008237D03*
X016707Y008237D03*
X015707Y008237D03*
X014707Y008237D03*
X013707Y008237D03*
X012707Y008237D03*
X011707Y008237D03*
X011688Y019556D03*
X012688Y019556D03*
X013688Y019556D03*
X014688Y019556D03*
X015688Y019556D03*
X016688Y019556D03*
X017688Y019556D03*
X018688Y019556D03*
X018660Y023859D03*
X017660Y023859D03*
X016660Y023859D03*
X015660Y023859D03*
X014660Y023859D03*
X013660Y023859D03*
X012660Y023859D03*
X011660Y023859D03*
X011660Y028859D03*
X012660Y028859D03*
X013660Y028859D03*
X014660Y028859D03*
X015660Y028859D03*
X016660Y028859D03*
X017660Y028859D03*
X018660Y028859D03*
D19*
X006126Y028406D03*
X005126Y028406D03*
X005126Y029406D03*
X006126Y029406D03*
X006126Y027406D03*
X005126Y027406D03*
D20*
X011497Y026359D03*
X013623Y026359D03*
X013673Y017056D03*
X011547Y017056D03*
X011519Y010740D03*
X013645Y010740D03*
D21*
X007514Y003536D03*
X006333Y001686D03*
X005191Y003536D03*
D22*
X008681Y005869D02*
X008681Y006429D01*
X009681Y006429D02*
X009681Y005869D01*
D23*
X008784Y019509D03*
X008036Y019509D03*
X021975Y030859D03*
X022645Y030859D03*
X034925Y030659D03*
X035595Y030659D03*
D24*
X004760Y020909D03*
X004760Y014375D03*
X004760Y007981D03*
D25*
X004760Y009359D03*
X004760Y010737D03*
X004760Y012115D03*
X004760Y015753D03*
X004760Y017131D03*
X004760Y018509D03*
X004760Y022287D03*
X004760Y023665D03*
X004760Y025043D03*
D26*
X004729Y006067D03*
X004729Y004690D03*
D27*
X010230Y002999D03*
X012790Y002999D03*
X012790Y001219D03*
X010230Y001219D03*
D28*
X015739Y004959D03*
X015739Y005459D03*
X015739Y005959D03*
X015739Y006459D03*
X016581Y006459D03*
X016581Y005959D03*
X016581Y005459D03*
X016581Y004959D03*
X027739Y010609D03*
X027739Y011109D03*
X027739Y011609D03*
X027739Y012109D03*
X028581Y012109D03*
X028581Y011609D03*
X028581Y011109D03*
X028581Y010609D03*
X033739Y010609D03*
X033739Y011109D03*
X033739Y011609D03*
X033739Y012109D03*
X034581Y012109D03*
X034581Y011609D03*
X034581Y011109D03*
X034581Y010609D03*
X034581Y015609D03*
X034581Y016109D03*
X034581Y016609D03*
X034581Y017109D03*
X033739Y017109D03*
X033739Y016609D03*
X033739Y016109D03*
X033739Y015609D03*
X033581Y023609D03*
X033581Y024109D03*
X033581Y024609D03*
X033581Y025109D03*
X032739Y025109D03*
X032739Y024609D03*
X032739Y024109D03*
X032739Y023609D03*
X037739Y023609D03*
X037739Y024109D03*
X037739Y024609D03*
X037739Y025109D03*
X038581Y025109D03*
X038581Y024609D03*
X038581Y024109D03*
X038581Y023609D03*
D29*
X037160Y021909D03*
X036160Y021909D03*
X035160Y021909D03*
X034160Y021909D03*
X033160Y021909D03*
X032160Y021909D03*
X031160Y021909D03*
X030160Y021909D03*
X028160Y021909D03*
X027160Y021909D03*
X026160Y021909D03*
X025160Y021909D03*
X024160Y021909D03*
X023160Y021909D03*
X022160Y021909D03*
X021160Y021909D03*
X019560Y021909D03*
X018560Y021909D03*
X017560Y021909D03*
X016560Y021909D03*
X015560Y021909D03*
X014560Y021909D03*
X013560Y021909D03*
X012560Y021909D03*
X016160Y002859D03*
X017160Y002859D03*
X018160Y002859D03*
X019160Y002859D03*
X020160Y002859D03*
X021160Y002859D03*
X023160Y002909D03*
X024160Y002909D03*
X025160Y002909D03*
X026160Y002909D03*
X027160Y002909D03*
X028160Y002909D03*
X029160Y002909D03*
X030160Y002909D03*
X032160Y002909D03*
X033160Y002909D03*
X034160Y002909D03*
X035160Y002909D03*
X036160Y002909D03*
X037160Y002909D03*
X038160Y002909D03*
X039160Y002909D03*
D30*
X038660Y007909D03*
X037660Y007909D03*
X037660Y008909D03*
X038660Y008909D03*
X038660Y009909D03*
X037660Y009909D03*
D31*
X037617Y027973D03*
X036617Y027973D03*
X035617Y027973D03*
X034617Y027973D03*
X033617Y027973D03*
X032617Y027973D03*
X031617Y027973D03*
X030617Y027973D03*
X029617Y027973D03*
X028617Y027973D03*
X027617Y027973D03*
X026617Y027973D03*
X025617Y027973D03*
X024617Y027973D03*
X023617Y027973D03*
X022617Y027973D03*
X021617Y027973D03*
X021617Y028973D03*
X022617Y028973D03*
X023617Y028973D03*
X024617Y028973D03*
X025617Y028973D03*
X026617Y028973D03*
X027617Y028973D03*
X028617Y028973D03*
X029617Y028973D03*
X030617Y028973D03*
X031617Y028973D03*
X032617Y028973D03*
X033617Y028973D03*
X034617Y028973D03*
X035617Y028973D03*
X036617Y028973D03*
X037617Y028973D03*
X038617Y028973D03*
X039617Y028973D03*
X040617Y028973D03*
X040617Y027973D03*
X039617Y027973D03*
X038617Y027973D03*
X009110Y028409D03*
X008110Y028409D03*
X008110Y027409D03*
X009110Y027409D03*
X009110Y029409D03*
X008110Y029409D03*
D32*
X017460Y027709D03*
X017860Y027709D03*
X017860Y026459D03*
X017460Y026459D03*
X017483Y025259D03*
X017837Y025259D03*
X017310Y018059D03*
X016910Y018059D03*
X016910Y017009D03*
X017310Y017009D03*
X017287Y015959D03*
X016933Y015959D03*
X016860Y011859D03*
X017260Y011859D03*
X017260Y010709D03*
X016860Y010709D03*
X016883Y009609D03*
X017237Y009609D03*
D33*
X011510Y003359D03*
M02*
