G75*
G70*
%OFA0B0*%
%FSLAX24Y24*%
%IPPOS*%
%LPD*%
%AMOC8*
5,1,8,0,0,1.08239X$1,22.5*
%
%ADD10C,0.0160*%
%ADD11C,0.0280*%
%ADD12C,0.0230*%
%ADD13C,0.0060*%
%ADD14C,0.0100*%
%ADD15C,0.0000*%
D10*
X003160Y001147D02*
X003947Y000359D01*
X041743Y000359D01*
X042530Y001147D01*
X042530Y031068D01*
X041743Y031855D01*
X003947Y031855D01*
X003160Y031068D01*
X003160Y001147D01*
D11*
X009953Y016704D02*
X009616Y017041D01*
X009616Y017378D01*
X009953Y017715D01*
X010964Y017715D01*
X010964Y017041D01*
X010627Y016704D01*
X009953Y016704D01*
X010964Y017715D02*
X010290Y018389D01*
X009616Y018726D01*
X011686Y017041D02*
X011686Y016704D01*
X012023Y016704D01*
X012023Y017041D01*
X011686Y017041D01*
X012793Y016704D02*
X014140Y016704D01*
X013466Y016704D02*
X013466Y018726D01*
X014140Y018052D01*
X014910Y018052D02*
X015584Y016704D01*
X016258Y018052D01*
X019146Y018052D02*
X020157Y018052D01*
X020494Y017715D01*
X020494Y017041D01*
X020157Y016704D01*
X019146Y016704D01*
X019146Y018726D01*
X021569Y018726D02*
X021569Y016704D01*
X021906Y016704D02*
X021232Y016704D01*
X022676Y017378D02*
X024023Y017378D01*
X024023Y017041D02*
X024023Y017715D01*
X023687Y018052D01*
X023013Y018052D01*
X022676Y017715D01*
X022676Y017378D01*
X023013Y016704D02*
X023687Y016704D01*
X024023Y017041D01*
X024761Y016704D02*
X025435Y016704D01*
X025098Y016704D02*
X025098Y018052D01*
X025435Y018052D01*
X025098Y018726D02*
X025098Y019063D01*
X026205Y017715D02*
X026542Y018052D01*
X027216Y018052D01*
X027553Y017715D01*
X028323Y018052D02*
X029334Y018052D01*
X029671Y017715D01*
X029334Y017378D01*
X028660Y017378D01*
X028323Y017041D01*
X028660Y016704D01*
X029671Y016704D01*
X030425Y018052D02*
X030762Y018052D01*
X031436Y017378D01*
X031436Y016704D02*
X031436Y018052D01*
X032206Y017715D02*
X032206Y016704D01*
X033217Y016704D01*
X033554Y017041D01*
X033217Y017378D01*
X032206Y017378D01*
X032206Y017715D02*
X032543Y018052D01*
X033217Y018052D01*
X034629Y018726D02*
X034629Y016704D01*
X034965Y016704D02*
X034292Y016704D01*
X035735Y017041D02*
X035735Y017715D01*
X036072Y018052D01*
X036746Y018052D01*
X037083Y017715D01*
X037083Y017041D01*
X036746Y016704D01*
X036072Y016704D01*
X035735Y017041D01*
X034965Y018726D02*
X034629Y018726D01*
X037853Y018389D02*
X037853Y017715D01*
X038190Y017378D01*
X039201Y017378D01*
X039201Y016704D02*
X039201Y018726D01*
X038190Y018726D01*
X037853Y018389D01*
X027553Y018726D02*
X027553Y016704D01*
X026205Y016704D02*
X026205Y017715D01*
X021906Y018726D02*
X021569Y018726D01*
D12*
X018512Y011359D02*
X018512Y010088D01*
X019046Y010300D02*
X019046Y010724D01*
X019258Y010936D01*
X019893Y010936D01*
X019893Y009665D01*
X019893Y010088D02*
X019258Y010088D01*
X019046Y010300D01*
X018512Y010724D02*
X018300Y010936D01*
X017877Y010936D01*
X017665Y010724D01*
X017665Y010088D01*
X017131Y010088D02*
X016919Y010088D01*
X016919Y010300D01*
X017131Y010300D01*
X017131Y010088D01*
X016440Y010300D02*
X016440Y010724D01*
X016228Y010936D01*
X015593Y010936D01*
X015059Y010724D02*
X015059Y010300D01*
X014847Y010088D01*
X014424Y010088D01*
X014212Y010300D01*
X014212Y010724D01*
X014424Y010936D01*
X014847Y010936D01*
X015059Y010724D01*
X015593Y010088D02*
X016228Y010088D01*
X016440Y010300D01*
X013678Y010300D02*
X013466Y010300D01*
X013466Y010088D01*
X013678Y010088D01*
X013678Y010300D01*
X012987Y010300D02*
X012775Y010088D01*
X012140Y010088D01*
X012140Y010936D01*
X011606Y011359D02*
X011606Y010088D01*
X011606Y010512D02*
X010971Y010936D01*
X011606Y010512D02*
X010971Y010088D01*
X012987Y010300D02*
X012987Y010936D01*
X020427Y010724D02*
X020427Y010088D01*
X021063Y010088D01*
X021274Y010300D01*
X021063Y010512D01*
X020427Y010512D01*
X020427Y010724D02*
X020639Y010936D01*
X021063Y010936D01*
X021790Y010936D02*
X022002Y010936D01*
X022425Y010512D01*
X022425Y010088D02*
X022425Y010936D01*
X022959Y010936D02*
X023595Y010936D01*
X023807Y010724D01*
X023807Y010300D01*
X023595Y010088D01*
X022959Y010088D01*
X022959Y009877D02*
X022959Y010936D01*
X022959Y009877D02*
X023171Y009665D01*
X023383Y009665D01*
X024322Y010936D02*
X024534Y010936D01*
X024958Y010512D01*
X024958Y010088D02*
X024958Y010936D01*
X025491Y010724D02*
X025491Y010088D01*
X026127Y010088D01*
X026339Y010300D01*
X026127Y010512D01*
X025491Y010512D01*
X025491Y010724D02*
X025703Y010936D01*
X026127Y010936D01*
X026836Y010088D02*
X027260Y010088D01*
X027048Y010088D02*
X027048Y011359D01*
X027260Y011359D01*
X027793Y010724D02*
X028005Y010936D01*
X028429Y010936D01*
X028641Y010724D01*
X028641Y010300D01*
X028429Y010088D01*
X028005Y010088D01*
X027793Y010300D01*
X027793Y010724D01*
X029175Y010724D02*
X029175Y010300D01*
X029386Y010088D01*
X030022Y010088D01*
X030501Y010088D02*
X030712Y010088D01*
X030712Y010300D01*
X030501Y010300D01*
X030501Y010088D01*
X030022Y009665D02*
X030022Y010936D01*
X029386Y010936D01*
X029175Y010724D01*
X031246Y010936D02*
X031246Y010300D01*
X031458Y010088D01*
X031670Y010300D01*
X031882Y010088D01*
X032094Y010300D01*
X032094Y010936D01*
X032627Y010936D02*
X032627Y010300D01*
X032839Y010088D01*
X033051Y010300D01*
X033263Y010088D01*
X033475Y010300D01*
X033475Y010936D01*
X034009Y010936D02*
X034009Y010300D01*
X034220Y010088D01*
X034432Y010300D01*
X034644Y010088D01*
X034856Y010300D01*
X034856Y010936D01*
D13*
X006717Y006109D02*
X006290Y006109D01*
X006504Y005896D02*
X006504Y006323D01*
X004867Y007109D02*
X004440Y007109D01*
X004654Y006896D02*
X004654Y007323D01*
X003754Y006273D02*
X003754Y005846D01*
X003540Y006059D02*
X003967Y006059D01*
X004124Y005422D02*
X003697Y005422D01*
X003590Y005315D01*
X003590Y004995D01*
X004231Y004995D01*
X004231Y005315D01*
X004124Y005422D01*
X004231Y004777D02*
X003590Y004777D01*
X004231Y004350D01*
X003590Y004350D01*
X003697Y004133D02*
X003910Y004133D01*
X003910Y003919D01*
X003697Y003706D02*
X003590Y003812D01*
X003590Y004026D01*
X003697Y004133D01*
X004124Y004133D02*
X004231Y004026D01*
X004231Y003812D01*
X004124Y003706D01*
X003697Y003706D01*
D14*
X003160Y000891D02*
X042160Y000891D01*
X042160Y001391D01*
X043160Y002391D01*
X043160Y015891D01*
X042160Y016891D01*
X042160Y021391D01*
X041660Y021891D01*
X003160Y021891D01*
X003160Y018151D01*
X002058Y018151D01*
X002058Y013347D01*
X003160Y013347D01*
X003160Y000891D01*
X003121Y002521D02*
X002105Y002521D01*
X002105Y006064D01*
X003121Y006064D01*
X003160Y013347D02*
X003160Y018151D01*
D15*
X008530Y020891D02*
X008532Y020941D01*
X008538Y020991D01*
X008548Y021040D01*
X008562Y021088D01*
X008579Y021135D01*
X008600Y021180D01*
X008625Y021224D01*
X008653Y021265D01*
X008685Y021304D01*
X008719Y021341D01*
X008756Y021375D01*
X008796Y021405D01*
X008838Y021432D01*
X008882Y021456D01*
X008928Y021477D01*
X008975Y021493D01*
X009023Y021506D01*
X009073Y021515D01*
X009122Y021520D01*
X009173Y021521D01*
X009223Y021518D01*
X009272Y021511D01*
X009321Y021500D01*
X009369Y021485D01*
X009415Y021467D01*
X009460Y021445D01*
X009503Y021419D01*
X009544Y021390D01*
X009583Y021358D01*
X009619Y021323D01*
X009651Y021285D01*
X009681Y021245D01*
X009708Y021202D01*
X009731Y021158D01*
X009750Y021112D01*
X009766Y021064D01*
X009778Y021015D01*
X009786Y020966D01*
X009790Y020916D01*
X009790Y020866D01*
X009786Y020816D01*
X009778Y020767D01*
X009766Y020718D01*
X009750Y020670D01*
X009731Y020624D01*
X009708Y020580D01*
X009681Y020537D01*
X009651Y020497D01*
X009619Y020459D01*
X009583Y020424D01*
X009544Y020392D01*
X009503Y020363D01*
X009460Y020337D01*
X009415Y020315D01*
X009369Y020297D01*
X009321Y020282D01*
X009272Y020271D01*
X009223Y020264D01*
X009173Y020261D01*
X009122Y020262D01*
X009073Y020267D01*
X009023Y020276D01*
X008975Y020289D01*
X008928Y020305D01*
X008882Y020326D01*
X008838Y020350D01*
X008796Y020377D01*
X008756Y020407D01*
X008719Y020441D01*
X008685Y020478D01*
X008653Y020517D01*
X008625Y020558D01*
X008600Y020602D01*
X008579Y020647D01*
X008562Y020694D01*
X008548Y020742D01*
X008538Y020791D01*
X008532Y020841D01*
X008530Y020891D01*
X008030Y001891D02*
X008032Y001941D01*
X008038Y001991D01*
X008048Y002040D01*
X008062Y002088D01*
X008079Y002135D01*
X008100Y002180D01*
X008125Y002224D01*
X008153Y002265D01*
X008185Y002304D01*
X008219Y002341D01*
X008256Y002375D01*
X008296Y002405D01*
X008338Y002432D01*
X008382Y002456D01*
X008428Y002477D01*
X008475Y002493D01*
X008523Y002506D01*
X008573Y002515D01*
X008622Y002520D01*
X008673Y002521D01*
X008723Y002518D01*
X008772Y002511D01*
X008821Y002500D01*
X008869Y002485D01*
X008915Y002467D01*
X008960Y002445D01*
X009003Y002419D01*
X009044Y002390D01*
X009083Y002358D01*
X009119Y002323D01*
X009151Y002285D01*
X009181Y002245D01*
X009208Y002202D01*
X009231Y002158D01*
X009250Y002112D01*
X009266Y002064D01*
X009278Y002015D01*
X009286Y001966D01*
X009290Y001916D01*
X009290Y001866D01*
X009286Y001816D01*
X009278Y001767D01*
X009266Y001718D01*
X009250Y001670D01*
X009231Y001624D01*
X009208Y001580D01*
X009181Y001537D01*
X009151Y001497D01*
X009119Y001459D01*
X009083Y001424D01*
X009044Y001392D01*
X009003Y001363D01*
X008960Y001337D01*
X008915Y001315D01*
X008869Y001297D01*
X008821Y001282D01*
X008772Y001271D01*
X008723Y001264D01*
X008673Y001261D01*
X008622Y001262D01*
X008573Y001267D01*
X008523Y001276D01*
X008475Y001289D01*
X008428Y001305D01*
X008382Y001326D01*
X008338Y001350D01*
X008296Y001377D01*
X008256Y001407D01*
X008219Y001441D01*
X008185Y001478D01*
X008153Y001517D01*
X008125Y001558D01*
X008100Y001602D01*
X008079Y001647D01*
X008062Y001694D01*
X008048Y001742D01*
X008038Y001791D01*
X008032Y001841D01*
X008030Y001891D01*
X040530Y001891D02*
X040532Y001941D01*
X040538Y001991D01*
X040548Y002040D01*
X040562Y002088D01*
X040579Y002135D01*
X040600Y002180D01*
X040625Y002224D01*
X040653Y002265D01*
X040685Y002304D01*
X040719Y002341D01*
X040756Y002375D01*
X040796Y002405D01*
X040838Y002432D01*
X040882Y002456D01*
X040928Y002477D01*
X040975Y002493D01*
X041023Y002506D01*
X041073Y002515D01*
X041122Y002520D01*
X041173Y002521D01*
X041223Y002518D01*
X041272Y002511D01*
X041321Y002500D01*
X041369Y002485D01*
X041415Y002467D01*
X041460Y002445D01*
X041503Y002419D01*
X041544Y002390D01*
X041583Y002358D01*
X041619Y002323D01*
X041651Y002285D01*
X041681Y002245D01*
X041708Y002202D01*
X041731Y002158D01*
X041750Y002112D01*
X041766Y002064D01*
X041778Y002015D01*
X041786Y001966D01*
X041790Y001916D01*
X041790Y001866D01*
X041786Y001816D01*
X041778Y001767D01*
X041766Y001718D01*
X041750Y001670D01*
X041731Y001624D01*
X041708Y001580D01*
X041681Y001537D01*
X041651Y001497D01*
X041619Y001459D01*
X041583Y001424D01*
X041544Y001392D01*
X041503Y001363D01*
X041460Y001337D01*
X041415Y001315D01*
X041369Y001297D01*
X041321Y001282D01*
X041272Y001271D01*
X041223Y001264D01*
X041173Y001261D01*
X041122Y001262D01*
X041073Y001267D01*
X041023Y001276D01*
X040975Y001289D01*
X040928Y001305D01*
X040882Y001326D01*
X040838Y001350D01*
X040796Y001377D01*
X040756Y001407D01*
X040719Y001441D01*
X040685Y001478D01*
X040653Y001517D01*
X040625Y001558D01*
X040600Y001602D01*
X040579Y001647D01*
X040562Y001694D01*
X040548Y001742D01*
X040538Y001791D01*
X040532Y001841D01*
X040530Y001891D01*
M02*
