G75*
G70*
%OFA0B0*%
%FSLAX24Y24*%
%IPPOS*%
%LPD*%
%AMOC8*
5,1,8,0,0,1.08239X$1,22.5*
%
%ADD10C,0.0060*%
%ADD11C,0.0030*%
%ADD12C,0.0160*%
%ADD13C,0.0040*%
%ADD14C,0.0050*%
%ADD15C,0.0000*%
%ADD16C,0.0230*%
%ADD17R,0.0118X0.0059*%
%ADD18R,0.0118X0.0118*%
%ADD19C,0.0080*%
%ADD20C,0.0020*%
%ADD21R,0.0079X0.0079*%
%ADD22C,0.0010*%
%ADD23R,0.0059X0.0118*%
%ADD24R,0.0300X0.0340*%
D10*
X002452Y006589D02*
X002879Y006589D01*
X002985Y006696D01*
X002985Y007016D01*
X002345Y007016D01*
X002345Y006696D01*
X002452Y006589D01*
X002345Y007233D02*
X002985Y007233D01*
X002985Y007660D02*
X002345Y007233D01*
X002345Y007660D02*
X002985Y007660D01*
X002879Y007878D02*
X002985Y007985D01*
X002985Y008198D01*
X002879Y008305D01*
X002452Y008305D01*
X002345Y008198D01*
X002345Y007985D01*
X002452Y007878D01*
X002665Y007878D01*
X002665Y008091D01*
X002508Y008672D02*
X002508Y009099D01*
X002295Y008885D02*
X002722Y008885D01*
X003408Y009722D02*
X003408Y010149D01*
X003195Y009935D02*
X003622Y009935D01*
X005045Y008935D02*
X005472Y008935D01*
X005258Y008722D02*
X005258Y009149D01*
X005386Y009375D02*
X005386Y008575D01*
X005486Y008475D01*
X006286Y008475D01*
X006386Y008575D01*
X006486Y008475D01*
X007286Y008475D01*
X007386Y008575D01*
X007386Y009375D01*
X007286Y009475D01*
X006486Y009475D01*
X006386Y009375D01*
X006286Y009475D01*
X005486Y009475D01*
X005386Y009375D01*
X010012Y010713D02*
X017912Y010713D01*
X017912Y016413D01*
X010012Y016413D01*
X010012Y014063D01*
X010056Y014061D01*
X010099Y014055D01*
X010141Y014046D01*
X010183Y014033D01*
X010223Y014016D01*
X010262Y013996D01*
X010299Y013973D01*
X010333Y013946D01*
X010366Y013917D01*
X010395Y013884D01*
X010422Y013850D01*
X010445Y013813D01*
X010465Y013774D01*
X010482Y013734D01*
X010495Y013692D01*
X010504Y013650D01*
X010510Y013607D01*
X010512Y013563D01*
X010510Y013519D01*
X010504Y013476D01*
X010495Y013434D01*
X010482Y013392D01*
X010465Y013352D01*
X010445Y013313D01*
X010422Y013276D01*
X010395Y013242D01*
X010366Y013209D01*
X010333Y013180D01*
X010299Y013153D01*
X010262Y013130D01*
X010223Y013110D01*
X010183Y013093D01*
X010141Y013080D01*
X010099Y013071D01*
X010056Y013065D01*
X010012Y013063D01*
X010012Y010713D01*
X013058Y005749D02*
X013058Y005322D01*
X012845Y005535D02*
X013272Y005535D01*
X016181Y013457D02*
X015931Y013707D01*
X015931Y015207D01*
X016181Y015457D01*
X016681Y015457D01*
X016931Y015207D01*
X016931Y013707D01*
X017181Y013457D01*
X017681Y013457D01*
X017931Y013707D01*
X018181Y013457D01*
X018681Y013457D01*
X018931Y013707D01*
X018931Y015207D01*
X018681Y015457D01*
X018181Y015457D01*
X017931Y015207D01*
X017931Y013707D01*
X016931Y013707D02*
X016681Y013457D01*
X016181Y013457D01*
X016931Y015207D02*
X017181Y015457D01*
X017681Y015457D01*
X017931Y015207D01*
X017893Y017032D02*
X009993Y017032D01*
X009993Y019382D01*
X010037Y019384D01*
X010080Y019390D01*
X010122Y019399D01*
X010164Y019412D01*
X010204Y019429D01*
X010243Y019449D01*
X010280Y019472D01*
X010314Y019499D01*
X010347Y019528D01*
X010376Y019561D01*
X010403Y019595D01*
X010426Y019632D01*
X010446Y019671D01*
X010463Y019711D01*
X010476Y019753D01*
X010485Y019795D01*
X010491Y019838D01*
X010493Y019882D01*
X010491Y019926D01*
X010485Y019969D01*
X010476Y020011D01*
X010463Y020053D01*
X010446Y020093D01*
X010426Y020132D01*
X010403Y020169D01*
X010376Y020203D01*
X010347Y020236D01*
X010314Y020265D01*
X010280Y020292D01*
X010243Y020315D01*
X010204Y020335D01*
X010164Y020352D01*
X010122Y020365D01*
X010080Y020374D01*
X010037Y020380D01*
X009993Y020382D01*
X009993Y022732D01*
X017893Y022732D01*
X017893Y017032D01*
X017661Y019775D02*
X017161Y019775D01*
X016911Y020025D01*
X016911Y021525D01*
X017161Y021775D01*
X017661Y021775D01*
X017911Y021525D01*
X018161Y021775D01*
X018661Y021775D01*
X018911Y021525D01*
X018911Y020025D01*
X018661Y019775D01*
X018161Y019775D01*
X017911Y020025D01*
X017911Y021525D01*
X016911Y021525D02*
X016661Y021775D01*
X016161Y021775D01*
X015911Y021525D01*
X015911Y020025D01*
X016161Y019775D01*
X016661Y019775D01*
X016911Y020025D01*
X017661Y019775D02*
X017911Y020025D01*
X018115Y026085D02*
X018615Y026085D01*
X018865Y026335D01*
X018865Y026835D01*
X019115Y027085D01*
X018865Y027335D01*
X018865Y027835D01*
X019115Y028085D01*
X018865Y028335D01*
X018865Y028835D01*
X019115Y029085D01*
X019615Y029085D01*
X019865Y028835D01*
X019865Y028335D01*
X019615Y028085D01*
X019865Y027835D01*
X019865Y027335D01*
X019615Y027085D01*
X019865Y026835D01*
X019865Y026335D01*
X019615Y026085D01*
X019115Y026085D01*
X018865Y026335D01*
X018865Y026835D01*
X018615Y027085D01*
X018865Y027335D01*
X018865Y027835D01*
X018615Y028085D01*
X018865Y028335D01*
X018865Y028835D01*
X018615Y029085D01*
X018115Y029085D01*
X017865Y028835D01*
X017615Y029085D01*
X017115Y029085D01*
X016865Y028835D01*
X016865Y028335D01*
X017115Y028085D01*
X016865Y027835D01*
X016865Y027335D01*
X017115Y027085D01*
X016865Y026835D01*
X016865Y026335D01*
X017115Y026085D01*
X017615Y026085D01*
X017865Y026335D01*
X017865Y026835D01*
X017615Y027085D01*
X017865Y027335D01*
X017865Y027835D01*
X017615Y028085D01*
X017865Y028335D01*
X017865Y028835D01*
X017865Y028335D01*
X018115Y028085D01*
X017865Y027835D01*
X017865Y027335D01*
X018115Y027085D01*
X017865Y026835D01*
X017865Y026335D01*
X018115Y026085D01*
X016865Y026335D02*
X016615Y026085D01*
X016115Y026085D01*
X015865Y026335D01*
X015865Y026835D01*
X016115Y027085D01*
X015865Y027335D01*
X015865Y027835D01*
X016115Y028085D01*
X015865Y028335D01*
X015865Y028835D01*
X016115Y029085D01*
X016615Y029085D01*
X016865Y028835D01*
X016865Y028335D01*
X016615Y028085D01*
X016865Y027835D01*
X016865Y027335D01*
X016615Y027085D01*
X016865Y026835D01*
X016865Y026335D01*
X015694Y026588D02*
X015227Y026588D01*
X015461Y026822D02*
X015461Y026355D01*
X015392Y027698D02*
X015819Y027698D01*
X015485Y028269D02*
X015251Y028269D01*
X015134Y028385D01*
X015251Y028619D02*
X015134Y028736D01*
X015134Y028852D01*
X015251Y028969D01*
X015485Y028969D01*
X015601Y028852D01*
X015485Y028619D02*
X015601Y028502D01*
X015601Y028385D01*
X015485Y028269D01*
X015485Y028619D02*
X015251Y028619D01*
X013922Y028835D02*
X013495Y028835D01*
X013708Y029049D02*
X013708Y028622D01*
X013758Y027849D02*
X013758Y027422D01*
X013545Y027635D02*
X013972Y027635D01*
X012372Y028535D02*
X011945Y028535D01*
X012372Y028535D01*
X012158Y028322D02*
X012158Y028749D01*
X012158Y028322D01*
X013658Y029622D02*
X013658Y030049D01*
X013445Y029835D02*
X013872Y029835D01*
X013773Y030958D02*
X013773Y031398D01*
X013993Y031398D01*
X014067Y031325D01*
X014067Y031178D01*
X013993Y031105D01*
X013773Y031105D01*
X014234Y030958D02*
X014234Y031398D01*
X014527Y031398D02*
X014527Y030958D01*
X014380Y031105D01*
X014234Y030958D01*
X014694Y030958D02*
X014694Y031398D01*
X014914Y031398D01*
X014988Y031325D01*
X014988Y031178D01*
X014914Y031105D01*
X014694Y031105D01*
X014841Y031105D02*
X014988Y030958D01*
X014984Y032839D02*
X014984Y033479D01*
X015202Y033266D02*
X015415Y033479D01*
X015415Y032839D01*
X015202Y032839D02*
X015629Y032839D01*
X014984Y032839D02*
X014771Y033052D01*
X014557Y032839D01*
X014557Y033479D01*
X014340Y033372D02*
X014233Y033479D01*
X014019Y033479D01*
X013913Y033372D01*
X013913Y033266D01*
X014019Y033159D01*
X014233Y033159D01*
X014340Y033052D01*
X014340Y032945D01*
X014233Y032839D01*
X014019Y032839D01*
X013913Y032945D01*
X012122Y031185D02*
X011695Y031185D01*
X011908Y031399D02*
X011908Y030972D01*
X016881Y030932D02*
X017131Y030682D01*
X017631Y030682D01*
X017881Y030932D01*
X018131Y030682D01*
X018631Y030682D01*
X018881Y030932D01*
X018881Y031432D01*
X018631Y031682D01*
X018881Y031932D01*
X018881Y032432D01*
X018631Y032682D01*
X018881Y032932D01*
X018881Y033432D01*
X018631Y033682D01*
X018131Y033682D01*
X017881Y033432D01*
X017881Y032932D01*
X018131Y032682D01*
X017881Y032432D01*
X017881Y031932D01*
X018131Y031682D01*
X017881Y031432D01*
X017881Y030932D01*
X017881Y031432D01*
X017631Y031682D01*
X017881Y031932D01*
X017881Y032432D01*
X017631Y032682D01*
X017881Y032932D01*
X017881Y033432D01*
X017631Y033682D01*
X017131Y033682D01*
X016881Y033432D01*
X016881Y032932D01*
X017131Y032682D01*
X016881Y032432D01*
X016881Y031932D01*
X017131Y031682D01*
X016881Y031432D01*
X016881Y030932D01*
X019257Y032188D02*
X019551Y032188D01*
X019404Y032335D02*
X019404Y032041D01*
X019404Y031311D02*
X019404Y031018D01*
X020415Y031935D02*
X020415Y033435D01*
X020665Y033685D01*
X021165Y033685D01*
X021415Y033435D01*
X021415Y031935D01*
X021165Y031685D01*
X020665Y031685D01*
X020415Y031935D01*
X021415Y031935D02*
X021665Y031685D01*
X022165Y031685D01*
X022415Y031935D01*
X022415Y033435D01*
X022665Y033685D01*
X023165Y033685D01*
X023415Y033435D01*
X023415Y031935D01*
X023165Y031685D01*
X022665Y031685D01*
X022415Y031935D01*
X023415Y031935D02*
X023665Y031685D01*
X024165Y031685D01*
X024415Y031935D01*
X024415Y033435D01*
X024665Y033685D01*
X025165Y033685D01*
X025415Y033435D01*
X025415Y031935D01*
X025165Y031685D01*
X024665Y031685D01*
X024415Y031935D01*
X025415Y031935D02*
X025665Y031685D01*
X026165Y031685D01*
X026415Y031935D01*
X026415Y033435D01*
X026665Y033685D01*
X027165Y033685D01*
X027415Y033435D01*
X027415Y031935D01*
X027165Y031685D01*
X026665Y031685D01*
X026415Y031935D01*
X027415Y031935D02*
X027665Y031685D01*
X028165Y031685D01*
X028415Y031935D01*
X028415Y033435D01*
X028665Y033685D01*
X029165Y033685D01*
X029415Y033435D01*
X029415Y031935D01*
X029165Y031685D01*
X028665Y031685D01*
X028415Y031935D01*
X029415Y031935D02*
X029665Y031685D01*
X030165Y031685D01*
X030415Y031935D01*
X030415Y033435D01*
X030665Y033685D01*
X031165Y033685D01*
X031415Y033435D01*
X031415Y031935D01*
X031165Y031685D01*
X030665Y031685D01*
X030415Y031935D01*
X031415Y031935D02*
X031665Y031685D01*
X032165Y031685D01*
X032415Y031935D01*
X032415Y033435D01*
X032665Y033685D01*
X033165Y033685D01*
X033415Y033435D01*
X033415Y031935D01*
X033165Y031685D01*
X032665Y031685D01*
X032415Y031935D01*
X033415Y031935D02*
X033665Y031685D01*
X034165Y031685D01*
X034415Y031935D01*
X034415Y033435D01*
X034165Y033685D01*
X033665Y033685D01*
X033415Y033435D01*
X034415Y033435D02*
X034665Y033685D01*
X035165Y033685D01*
X035415Y033435D01*
X035415Y031935D01*
X035165Y031685D01*
X034665Y031685D01*
X034415Y031935D01*
X035415Y031935D02*
X035665Y031685D01*
X036165Y031685D01*
X036415Y031935D01*
X036415Y033435D01*
X036165Y033685D01*
X035665Y033685D01*
X035415Y033435D01*
X036415Y033435D02*
X036665Y033685D01*
X037165Y033685D01*
X037415Y033435D01*
X037415Y031935D01*
X037165Y031685D01*
X036665Y031685D01*
X036415Y031935D01*
X037415Y031935D02*
X037665Y031685D01*
X038165Y031685D01*
X038415Y031935D01*
X038415Y033435D01*
X038165Y033685D01*
X037665Y033685D01*
X037415Y033435D01*
X038415Y033435D02*
X038665Y033685D01*
X039165Y033685D01*
X039415Y033435D01*
X039415Y031935D01*
X039165Y031685D01*
X038665Y031685D01*
X038415Y031935D01*
X039415Y031935D02*
X039665Y031685D01*
X040165Y031685D01*
X040415Y031935D01*
X040415Y033435D01*
X040165Y033685D01*
X039665Y033685D01*
X039415Y033435D01*
X032415Y033435D02*
X032165Y033685D01*
X031665Y033685D01*
X031415Y033435D01*
X030415Y033435D02*
X030165Y033685D01*
X029665Y033685D01*
X029415Y033435D01*
X028415Y033435D02*
X028165Y033685D01*
X027665Y033685D01*
X027415Y033435D01*
X026415Y033435D02*
X026165Y033685D01*
X025665Y033685D01*
X025415Y033435D01*
X024415Y033435D02*
X024165Y033685D01*
X023665Y033685D01*
X023415Y033435D01*
X022415Y033435D02*
X022165Y033685D01*
X021665Y033685D01*
X021415Y033435D01*
X019624Y033246D02*
X019624Y033099D01*
X019551Y033025D01*
X019404Y033099D02*
X019331Y033025D01*
X019257Y033025D01*
X019184Y033099D01*
X019184Y033246D01*
X019257Y033319D01*
X019404Y033246D02*
X019404Y033099D01*
X019404Y033246D02*
X019478Y033319D01*
X019551Y033319D01*
X019624Y033246D01*
X018601Y033752D02*
X018601Y033899D01*
X018527Y033972D01*
X018527Y034139D02*
X018601Y034212D01*
X018601Y034359D01*
X018527Y034432D01*
X018454Y034432D01*
X018380Y034359D01*
X018380Y034212D01*
X018307Y034139D01*
X018234Y034139D01*
X018160Y034212D01*
X018160Y034359D01*
X018234Y034432D01*
X018160Y033972D02*
X018454Y033679D01*
X018527Y033679D01*
X018601Y033752D01*
X018160Y033679D02*
X018160Y033972D01*
X017656Y033825D02*
X017215Y033825D01*
X017215Y033679D02*
X017215Y033972D01*
X017289Y034139D02*
X017215Y034212D01*
X017215Y034359D01*
X017289Y034432D01*
X017436Y034359D02*
X017436Y034212D01*
X017362Y034139D01*
X017289Y034139D01*
X017436Y034359D02*
X017509Y034432D01*
X017582Y034432D01*
X017656Y034359D01*
X017656Y034212D01*
X017582Y034139D01*
X017509Y033972D02*
X017656Y033825D01*
X004426Y029825D02*
X003403Y029825D01*
X003383Y029823D01*
X003363Y029819D01*
X003345Y029811D01*
X003328Y029801D01*
X003312Y029788D01*
X003299Y029772D01*
X003289Y029755D01*
X003281Y029737D01*
X003277Y029717D01*
X003275Y029697D01*
X003275Y028673D02*
X003277Y028653D01*
X003281Y028633D01*
X003289Y028615D01*
X003299Y028598D01*
X003312Y028582D01*
X003328Y028569D01*
X003345Y028559D01*
X003363Y028551D01*
X003383Y028547D01*
X003403Y028545D01*
X003403Y028546D02*
X004426Y028546D01*
X004426Y028545D02*
X004446Y028547D01*
X004466Y028551D01*
X004484Y028559D01*
X004501Y028569D01*
X004517Y028582D01*
X004530Y028598D01*
X004540Y028615D01*
X004548Y028633D01*
X004552Y028653D01*
X004554Y028673D01*
X004554Y029697D02*
X004552Y029717D01*
X004548Y029737D01*
X004540Y029755D01*
X004530Y029772D01*
X004517Y029788D01*
X004501Y029801D01*
X004484Y029811D01*
X004466Y029819D01*
X004446Y029823D01*
X004426Y029825D01*
X005241Y018121D02*
X005241Y017654D01*
X005474Y017887D02*
X005007Y017887D01*
X026915Y013935D02*
X026915Y012435D01*
X027165Y012185D01*
X027665Y012185D01*
X027915Y012435D01*
X028165Y012185D01*
X028665Y012185D01*
X028915Y012435D01*
X029165Y012185D01*
X029665Y012185D01*
X029915Y012435D01*
X030165Y012185D01*
X030665Y012185D01*
X030915Y012435D01*
X030915Y013935D01*
X030665Y014185D01*
X030165Y014185D01*
X029915Y013935D01*
X029665Y014185D01*
X029165Y014185D01*
X028915Y013935D01*
X028665Y014185D01*
X028165Y014185D01*
X027915Y013935D01*
X027665Y014185D01*
X027165Y014185D01*
X026915Y013935D01*
X034415Y016728D02*
X034882Y016728D01*
X034649Y016961D02*
X034649Y016494D01*
D11*
X034779Y020493D02*
X034779Y020687D01*
X034779Y020590D02*
X035069Y020590D01*
X034973Y020687D01*
X034973Y020788D02*
X035021Y020788D01*
X035069Y020836D01*
X035069Y020933D01*
X035021Y020982D01*
X035021Y021083D02*
X034924Y021083D01*
X034876Y021131D01*
X034876Y021276D01*
X034876Y021179D02*
X034779Y021083D01*
X034779Y020982D02*
X034973Y020788D01*
X034779Y020788D02*
X034779Y020982D01*
X035021Y021083D02*
X035069Y021131D01*
X035069Y021276D01*
X034779Y021276D01*
X035887Y021267D02*
X036178Y021267D01*
X036178Y021122D01*
X036129Y021074D01*
X036033Y021074D01*
X035984Y021122D01*
X035984Y021267D01*
X035984Y021171D02*
X035887Y021074D01*
X035887Y020973D02*
X036081Y020779D01*
X036129Y020779D01*
X036178Y020828D01*
X036178Y020924D01*
X036129Y020973D01*
X035887Y020973D02*
X035887Y020779D01*
X035887Y020678D02*
X036081Y020485D01*
X036129Y020485D01*
X036178Y020533D01*
X036178Y020630D01*
X036129Y020678D01*
X035887Y020678D02*
X035887Y020485D01*
X026660Y013870D02*
X026537Y013746D01*
X026290Y013746D01*
X026351Y013625D02*
X026290Y013563D01*
X026290Y013440D01*
X026351Y013378D01*
X026660Y013378D01*
X026660Y013257D02*
X026290Y013010D01*
X026475Y012888D02*
X026475Y012641D01*
X026598Y012520D02*
X026660Y012458D01*
X026660Y012335D01*
X026598Y012273D01*
X026537Y012273D01*
X026475Y012335D01*
X026413Y012273D01*
X026351Y012273D01*
X026290Y012335D01*
X026290Y012458D01*
X026351Y012520D01*
X026475Y012397D02*
X026475Y012335D01*
X026660Y013010D02*
X026290Y013257D01*
X026351Y013625D02*
X026660Y013625D01*
X026475Y013746D02*
X026475Y013993D01*
X026537Y013993D02*
X026290Y013993D01*
X026537Y013993D02*
X026660Y013870D01*
X018639Y013406D02*
X018515Y013283D01*
X018639Y013159D01*
X018269Y013159D01*
X018330Y013038D02*
X018269Y012976D01*
X018269Y012853D01*
X018330Y012791D01*
X018392Y012791D01*
X018454Y012853D01*
X018454Y012976D01*
X018515Y013038D01*
X018577Y013038D01*
X018639Y012976D01*
X018639Y012853D01*
X018577Y012791D01*
X018577Y012669D02*
X018639Y012608D01*
X018639Y012484D01*
X018577Y012423D01*
X018515Y012423D01*
X018454Y012484D01*
X018392Y012423D01*
X018330Y012423D01*
X018269Y012484D01*
X018269Y012608D01*
X018330Y012669D01*
X018454Y012546D02*
X018454Y012484D01*
X017615Y012484D02*
X017615Y012608D01*
X017554Y012669D01*
X017554Y012791D02*
X017615Y012853D01*
X017615Y012976D01*
X017554Y013038D01*
X017492Y013038D01*
X017430Y012976D01*
X017430Y012853D01*
X017368Y012791D01*
X017307Y012791D01*
X017245Y012853D01*
X017245Y012976D01*
X017307Y013038D01*
X017245Y013159D02*
X017615Y013159D01*
X017492Y013283D01*
X017615Y013406D01*
X017245Y013406D01*
X016592Y013406D02*
X016468Y013283D01*
X016592Y013159D01*
X016221Y013159D01*
X016283Y013038D02*
X016221Y012976D01*
X016221Y012853D01*
X016283Y012791D01*
X016345Y012791D01*
X016406Y012853D01*
X016406Y012976D01*
X016468Y013038D01*
X016530Y013038D01*
X016592Y012976D01*
X016592Y012853D01*
X016530Y012791D01*
X016468Y012669D02*
X016592Y012546D01*
X016221Y012546D01*
X016221Y012669D02*
X016221Y012423D01*
X016221Y013406D02*
X016592Y013406D01*
X017245Y012669D02*
X017492Y012423D01*
X017554Y012423D01*
X017615Y012484D01*
X017245Y012423D02*
X017245Y012669D01*
X018269Y013406D02*
X018639Y013406D01*
X014877Y013343D02*
X014877Y013246D01*
X014828Y013198D01*
X014780Y013198D01*
X014732Y013246D01*
X014732Y013343D01*
X014780Y013391D01*
X014828Y013391D01*
X014877Y013343D01*
X014732Y013343D02*
X014683Y013391D01*
X014635Y013391D01*
X014586Y013343D01*
X014586Y013246D01*
X014635Y013198D01*
X014683Y013198D01*
X014732Y013246D01*
X014732Y013493D02*
X014683Y013541D01*
X014683Y013686D01*
X014586Y013686D02*
X014877Y013686D01*
X014877Y013541D01*
X014828Y013493D01*
X014732Y013493D01*
X014683Y013589D02*
X014586Y013493D01*
X010775Y014649D02*
X010581Y014649D01*
X010581Y014359D01*
X010480Y014359D02*
X010480Y014553D01*
X010581Y014504D02*
X010678Y014504D01*
X010480Y014359D02*
X010335Y014359D01*
X010287Y014408D01*
X010287Y014553D01*
X010185Y014601D02*
X009992Y014408D01*
X010040Y014359D01*
X010137Y014359D01*
X010185Y014408D01*
X010185Y014601D01*
X010137Y014649D01*
X010040Y014649D01*
X009992Y014601D01*
X009992Y014408D01*
X009891Y014408D02*
X009842Y014359D01*
X009746Y014359D01*
X009697Y014408D01*
X009891Y014601D01*
X009891Y014408D01*
X009891Y014601D02*
X009842Y014649D01*
X009746Y014649D01*
X009697Y014601D01*
X009697Y014408D01*
X009596Y014359D02*
X009403Y014359D01*
X009499Y014359D02*
X009499Y014649D01*
X009403Y014553D01*
X008588Y012797D02*
X008442Y012652D01*
X008636Y012652D01*
X008588Y012507D02*
X008588Y012797D01*
X008341Y012749D02*
X008293Y012797D01*
X008196Y012797D01*
X008148Y012749D01*
X008148Y012555D01*
X008196Y012507D01*
X008293Y012507D01*
X008341Y012555D01*
X006588Y015963D02*
X006588Y016156D01*
X006588Y016060D02*
X006297Y016060D01*
X006394Y015963D01*
X006346Y016258D02*
X006297Y016306D01*
X006297Y016403D01*
X006346Y016451D01*
X006539Y016258D01*
X006588Y016306D01*
X006588Y016403D01*
X006539Y016451D01*
X006346Y016451D01*
X006346Y016552D02*
X006297Y016601D01*
X006297Y016697D01*
X006346Y016746D01*
X006539Y016552D01*
X006588Y016601D01*
X006588Y016697D01*
X006539Y016746D01*
X006346Y016746D01*
X006394Y016847D02*
X006539Y016847D01*
X006588Y016895D01*
X006588Y017040D01*
X006394Y017040D01*
X006442Y017141D02*
X006442Y017238D01*
X006297Y017141D02*
X006588Y017141D01*
X006297Y017141D02*
X006297Y017335D01*
X006346Y016552D02*
X006539Y016552D01*
X006539Y016258D02*
X006346Y016258D01*
X008682Y016581D02*
X008731Y016533D01*
X008924Y016533D01*
X008972Y016581D01*
X008972Y016678D01*
X008924Y016726D01*
X008924Y016827D02*
X008972Y016876D01*
X008972Y016973D01*
X008924Y017021D01*
X008876Y017021D01*
X008827Y016973D01*
X008827Y016827D01*
X008924Y016827D01*
X008827Y016827D02*
X008731Y016924D01*
X008682Y017021D01*
X008731Y016726D02*
X008682Y016678D01*
X008682Y016581D01*
X009505Y019300D02*
X009698Y019300D01*
X009601Y019300D02*
X009601Y019590D01*
X009505Y019493D01*
X009799Y019542D02*
X009799Y019348D01*
X009993Y019542D01*
X009993Y019348D01*
X009945Y019300D01*
X009848Y019300D01*
X009799Y019348D01*
X009799Y019542D02*
X009848Y019590D01*
X009945Y019590D01*
X009993Y019542D01*
X010094Y019542D02*
X010142Y019590D01*
X010239Y019590D01*
X010288Y019542D01*
X010094Y019348D01*
X010142Y019300D01*
X010239Y019300D01*
X010288Y019348D01*
X010288Y019542D01*
X010389Y019493D02*
X010389Y019348D01*
X010437Y019300D01*
X010582Y019300D01*
X010582Y019493D01*
X010683Y019445D02*
X010780Y019445D01*
X010683Y019300D02*
X010683Y019590D01*
X010877Y019590D01*
X010094Y019542D02*
X010094Y019348D01*
X011593Y020876D02*
X011690Y020876D01*
X011738Y020924D01*
X011840Y020924D02*
X011888Y020876D01*
X011985Y020876D01*
X012033Y020924D01*
X012033Y020973D01*
X011985Y021021D01*
X011936Y021021D01*
X011985Y021021D02*
X012033Y021069D01*
X012033Y021118D01*
X011985Y021166D01*
X011888Y021166D01*
X011840Y021118D01*
X011738Y021118D02*
X011690Y021166D01*
X011593Y021166D01*
X011545Y021118D01*
X011545Y020924D01*
X011593Y020876D01*
X014567Y019747D02*
X014858Y019747D01*
X014858Y019602D01*
X014809Y019553D01*
X014713Y019553D01*
X014664Y019602D01*
X014664Y019747D01*
X014664Y019650D02*
X014567Y019553D01*
X014616Y019452D02*
X014567Y019404D01*
X014567Y019307D01*
X014616Y019259D01*
X014713Y019259D01*
X014761Y019307D01*
X014761Y019355D01*
X014713Y019452D01*
X014858Y019452D01*
X014858Y019259D01*
X016221Y019275D02*
X016283Y019337D01*
X016221Y019275D02*
X016221Y019152D01*
X016283Y019090D01*
X016345Y019090D01*
X016406Y019152D01*
X016406Y019275D01*
X016468Y019337D01*
X016530Y019337D01*
X016592Y019275D01*
X016592Y019152D01*
X016530Y019090D01*
X016468Y018969D02*
X016592Y018845D01*
X016221Y018845D01*
X016221Y018722D02*
X016221Y018969D01*
X016221Y019458D02*
X016592Y019458D01*
X016468Y019582D01*
X016592Y019705D01*
X016221Y019705D01*
X017206Y019705D02*
X017576Y019705D01*
X017452Y019582D01*
X017576Y019458D01*
X017206Y019458D01*
X017267Y019337D02*
X017206Y019275D01*
X017206Y019152D01*
X017267Y019090D01*
X017329Y019090D01*
X017391Y019152D01*
X017391Y019275D01*
X017452Y019337D01*
X017514Y019337D01*
X017576Y019275D01*
X017576Y019152D01*
X017514Y019090D01*
X017514Y018969D02*
X017576Y018907D01*
X017576Y018784D01*
X017514Y018722D01*
X017452Y018722D01*
X017206Y018969D01*
X017206Y018722D01*
X018229Y018784D02*
X018291Y018722D01*
X018353Y018722D01*
X018414Y018784D01*
X018414Y018845D01*
X018414Y018784D02*
X018476Y018722D01*
X018538Y018722D01*
X018599Y018784D01*
X018599Y018907D01*
X018538Y018969D01*
X018538Y019090D02*
X018599Y019152D01*
X018599Y019275D01*
X018538Y019337D01*
X018476Y019337D01*
X018414Y019275D01*
X018414Y019152D01*
X018353Y019090D01*
X018291Y019090D01*
X018229Y019152D01*
X018229Y019275D01*
X018291Y019337D01*
X018229Y019458D02*
X018599Y019458D01*
X018476Y019582D01*
X018599Y019705D01*
X018229Y019705D01*
X018291Y018969D02*
X018229Y018907D01*
X018229Y018784D01*
X021463Y021818D02*
X021512Y021769D01*
X021705Y021769D01*
X021753Y021818D01*
X021753Y021915D01*
X021705Y021963D01*
X021657Y021963D01*
X021608Y021915D01*
X021608Y021769D01*
X021463Y021818D02*
X021463Y021915D01*
X021512Y021963D01*
X021463Y022064D02*
X021463Y022258D01*
X021463Y022161D02*
X021753Y022161D01*
X021657Y022258D01*
X021705Y022359D02*
X021608Y022359D01*
X021560Y022407D01*
X021560Y022552D01*
X021560Y022455D02*
X021463Y022359D01*
X021463Y022552D02*
X021753Y022552D01*
X021753Y022407D01*
X021705Y022359D01*
X024430Y022301D02*
X024527Y022398D01*
X024527Y022350D02*
X024527Y022495D01*
X024430Y022495D02*
X024720Y022495D01*
X024720Y022350D01*
X024672Y022301D01*
X024575Y022301D01*
X024527Y022350D01*
X024623Y022200D02*
X024720Y022104D01*
X024430Y022104D01*
X024430Y022200D02*
X024430Y022007D01*
X024478Y021906D02*
X024527Y021906D01*
X024575Y021857D01*
X024575Y021760D01*
X024527Y021712D01*
X024478Y021712D01*
X024430Y021760D01*
X024430Y021857D01*
X024478Y021906D01*
X024575Y021857D02*
X024623Y021906D01*
X024672Y021906D01*
X024720Y021857D01*
X024720Y021760D01*
X024672Y021712D01*
X024623Y021712D01*
X024575Y021760D01*
X020556Y025969D02*
X020618Y026031D01*
X020618Y026154D01*
X020556Y026216D01*
X020495Y026216D01*
X020433Y026154D01*
X020433Y026031D01*
X020371Y025969D01*
X020309Y025969D01*
X020248Y026031D01*
X020248Y026154D01*
X020309Y026216D01*
X020433Y026337D02*
X020371Y026399D01*
X020371Y026584D01*
X020248Y026584D02*
X020618Y026584D01*
X020618Y026399D01*
X020556Y026337D01*
X020433Y026337D01*
X020556Y026705D02*
X020618Y026767D01*
X020618Y026891D01*
X020556Y026952D01*
X020309Y026952D01*
X020248Y026891D01*
X020248Y026767D01*
X020309Y026705D01*
X020556Y026705D01*
X020618Y027074D02*
X020618Y027321D01*
X020618Y027197D02*
X020248Y027197D01*
X020309Y027442D02*
X020248Y027504D01*
X020248Y027627D01*
X020309Y027689D01*
X020433Y027627D02*
X020433Y027504D01*
X020371Y027442D01*
X020309Y027442D01*
X020433Y027627D02*
X020495Y027689D01*
X020556Y027689D01*
X020618Y027627D01*
X020618Y027504D01*
X020556Y027442D01*
X020556Y028179D02*
X020618Y028240D01*
X020618Y028426D01*
X020248Y028426D01*
X020248Y028240D01*
X020309Y028179D01*
X020556Y028179D01*
X020618Y028547D02*
X020248Y028547D01*
X020618Y028794D01*
X020248Y028794D01*
X020248Y028915D02*
X020248Y029162D01*
X020618Y029162D01*
X020618Y028915D01*
X020433Y029039D02*
X020433Y029162D01*
X015527Y023490D02*
X015527Y023200D01*
X015623Y023200D02*
X015430Y023200D01*
X015430Y023393D02*
X015527Y023490D01*
X007921Y021509D02*
X007728Y021509D01*
X007728Y021219D01*
X007627Y021219D02*
X007627Y021364D01*
X007579Y021413D01*
X007433Y021413D01*
X007433Y021219D01*
X007332Y021268D02*
X007284Y021219D01*
X007187Y021219D01*
X007139Y021268D01*
X007332Y021461D01*
X007332Y021268D01*
X007332Y021461D02*
X007284Y021509D01*
X007187Y021509D01*
X007139Y021461D01*
X007139Y021268D01*
X007038Y021268D02*
X006989Y021219D01*
X006892Y021219D01*
X006844Y021268D01*
X007038Y021461D01*
X007038Y021268D01*
X007038Y021461D02*
X006989Y021509D01*
X006892Y021509D01*
X006844Y021461D01*
X006844Y021268D01*
X006743Y021219D02*
X006549Y021219D01*
X006646Y021219D02*
X006646Y021509D01*
X006549Y021413D01*
X006723Y021059D02*
X006674Y021011D01*
X006674Y020818D01*
X006723Y020769D01*
X006820Y020769D01*
X006868Y020818D01*
X006969Y020769D02*
X007163Y020963D01*
X007163Y021011D01*
X007114Y021059D01*
X007017Y021059D01*
X006969Y021011D01*
X006868Y021011D02*
X006820Y021059D01*
X006723Y021059D01*
X006969Y020769D02*
X007163Y020769D01*
X007728Y021364D02*
X007825Y021364D01*
X022527Y004572D02*
X022527Y004325D01*
X022404Y004448D02*
X022651Y004448D01*
D12*
X040498Y003185D02*
X002702Y003185D01*
X001915Y003972D01*
X001915Y033894D01*
X002702Y034681D01*
X040498Y034681D01*
X041285Y033894D01*
X041285Y003972D01*
X040498Y003185D01*
X034395Y016256D02*
X033411Y016256D01*
X033411Y020114D01*
X034395Y020114D01*
X034395Y016256D01*
X019893Y026077D02*
X019893Y027061D01*
X014971Y027061D01*
X014971Y026077D01*
X019893Y026077D01*
X019893Y027061D02*
X019893Y028046D01*
X014971Y028046D01*
X014971Y027061D01*
X016870Y030711D02*
X016870Y031696D01*
X016870Y032640D01*
X019823Y032640D01*
X019823Y031696D01*
X019823Y030711D01*
X016870Y030711D01*
X016870Y031696D02*
X019823Y031696D01*
X039435Y032712D02*
X039435Y033697D01*
X040419Y033697D01*
X040419Y032712D01*
X039435Y032712D01*
D13*
X039691Y033803D02*
X039691Y034110D01*
X039691Y033956D02*
X040151Y033956D01*
X039998Y034110D01*
X039191Y031393D02*
X039191Y031240D01*
X039191Y031317D02*
X038730Y031317D01*
X038730Y031393D02*
X038730Y031240D01*
X038730Y031086D02*
X038730Y030856D01*
X038807Y030779D01*
X039114Y030779D01*
X039191Y030856D01*
X039191Y031086D01*
X038730Y031086D01*
X038730Y030473D02*
X039191Y030473D01*
X039191Y030626D02*
X039191Y030319D01*
X039191Y030166D02*
X039191Y029935D01*
X039114Y029859D01*
X038807Y029859D01*
X038730Y029935D01*
X038730Y030166D01*
X039191Y030166D01*
X039191Y029705D02*
X038730Y029705D01*
X038730Y029475D01*
X038807Y029398D01*
X038884Y029398D01*
X038960Y029475D01*
X038960Y029705D01*
X038960Y029475D02*
X039037Y029398D01*
X039114Y029398D01*
X039191Y029475D01*
X039191Y029705D01*
X039114Y029245D02*
X039191Y029168D01*
X039191Y029015D01*
X039114Y028938D01*
X038807Y029245D01*
X038730Y029168D01*
X038730Y029015D01*
X038807Y028938D01*
X039114Y028938D01*
X039114Y028785D02*
X039191Y028708D01*
X039191Y028554D01*
X039114Y028478D01*
X039037Y028478D01*
X038730Y028785D01*
X038730Y028478D01*
X038163Y028855D02*
X037856Y028855D01*
X038163Y029162D01*
X038163Y029239D01*
X038086Y029315D01*
X037932Y029315D01*
X037856Y029239D01*
X037702Y029315D02*
X037702Y028855D01*
X037395Y029315D01*
X037395Y028855D01*
X037242Y028855D02*
X037088Y029008D01*
X037165Y029008D02*
X036935Y029008D01*
X036935Y028855D02*
X036935Y029315D01*
X037165Y029315D01*
X037242Y029239D01*
X037242Y029085D01*
X037165Y029008D01*
X037889Y029771D02*
X037889Y030598D01*
X038807Y029245D02*
X039114Y029245D01*
X035941Y029771D02*
X035941Y030598D01*
X034889Y030598D02*
X034889Y029771D01*
X034932Y029315D02*
X035086Y029315D01*
X035163Y029239D01*
X035163Y029162D01*
X035086Y029085D01*
X035163Y029008D01*
X035163Y028932D01*
X035086Y028855D01*
X034932Y028855D01*
X034856Y028932D01*
X034702Y028855D02*
X034702Y029315D01*
X034856Y029239D02*
X034932Y029315D01*
X035009Y029085D02*
X035086Y029085D01*
X034702Y028855D02*
X034395Y029315D01*
X034395Y028855D01*
X034242Y028855D02*
X034088Y029008D01*
X034165Y029008D02*
X033935Y029008D01*
X033935Y028855D02*
X033935Y029315D01*
X034165Y029315D01*
X034242Y029239D01*
X034242Y029085D01*
X034165Y029008D01*
X032941Y029771D02*
X032941Y030598D01*
X031889Y030598D02*
X031889Y029771D01*
X032028Y029315D02*
X031875Y029162D01*
X032028Y029315D02*
X032028Y028855D01*
X031875Y028855D02*
X032181Y028855D01*
X031721Y028855D02*
X031721Y029315D01*
X031414Y029315D02*
X031414Y028855D01*
X031261Y028855D02*
X031107Y029008D01*
X031184Y029008D02*
X030954Y029008D01*
X030954Y028855D02*
X030954Y029315D01*
X031184Y029315D01*
X031261Y029239D01*
X031261Y029085D01*
X031184Y029008D01*
X031414Y029315D02*
X031721Y028855D01*
X029941Y029771D02*
X029941Y030598D01*
X028889Y030598D02*
X028889Y029771D01*
X028752Y029315D02*
X028752Y028855D01*
X028445Y029315D01*
X028445Y028855D01*
X028292Y028855D02*
X028138Y029008D01*
X028215Y029008D02*
X027985Y029008D01*
X027985Y028855D02*
X027985Y029315D01*
X028215Y029315D01*
X028292Y029239D01*
X028292Y029085D01*
X028215Y029008D01*
X028906Y029085D02*
X029213Y029085D01*
X029136Y028855D02*
X029136Y029315D01*
X028906Y029085D01*
X026941Y029771D02*
X026941Y030598D01*
X025889Y030598D02*
X025889Y029771D01*
X025925Y029315D02*
X025925Y029085D01*
X026078Y029162D01*
X026155Y029162D01*
X026231Y029085D01*
X026231Y028932D01*
X026155Y028855D01*
X026001Y028855D01*
X025925Y028932D01*
X025771Y028855D02*
X025771Y029315D01*
X025925Y029315D02*
X026231Y029315D01*
X025771Y028855D02*
X025464Y029315D01*
X025464Y028855D01*
X025311Y028855D02*
X025157Y029008D01*
X025234Y029008D02*
X025004Y029008D01*
X025004Y028855D02*
X025004Y029315D01*
X025234Y029315D01*
X025311Y029239D01*
X025311Y029085D01*
X025234Y029008D01*
X023941Y029771D02*
X023941Y030598D01*
X023173Y029284D02*
X022713Y029284D01*
X022866Y029284D02*
X022866Y029054D01*
X022943Y028977D01*
X023097Y028977D01*
X023173Y029054D01*
X023173Y029284D01*
X022866Y029130D02*
X022713Y028977D01*
X022713Y028823D02*
X022713Y028517D01*
X022713Y028670D02*
X023173Y028670D01*
X023020Y028823D01*
X023097Y028363D02*
X023173Y028286D01*
X023173Y028133D01*
X023097Y028056D01*
X023020Y028056D01*
X022943Y028133D01*
X022866Y028056D01*
X022790Y028056D01*
X022713Y028133D01*
X022713Y028286D01*
X022790Y028363D01*
X022943Y028210D02*
X022943Y028133D01*
X022142Y028017D02*
X022065Y028170D01*
X021912Y028324D01*
X021912Y028094D01*
X021835Y028017D01*
X021758Y028017D01*
X021681Y028094D01*
X021681Y028247D01*
X021758Y028324D01*
X021912Y028324D01*
X021988Y028477D02*
X022065Y028477D01*
X022142Y028554D01*
X022142Y028707D01*
X022065Y028784D01*
X022065Y028938D02*
X021912Y028938D01*
X021835Y029014D01*
X021835Y029244D01*
X021835Y029091D02*
X021681Y028938D01*
X021681Y028784D02*
X021988Y028477D01*
X021681Y028477D02*
X021681Y028784D01*
X022065Y028938D02*
X022142Y029014D01*
X022142Y029244D01*
X021681Y029244D01*
X019585Y029608D02*
X019125Y029915D01*
X019125Y029608D02*
X019585Y029915D01*
X019355Y029455D02*
X019355Y029148D01*
X019202Y029301D02*
X019509Y029301D01*
X017656Y029680D02*
X017580Y029680D01*
X017426Y029833D01*
X017196Y029833D01*
X017426Y029833D02*
X017580Y029987D01*
X017656Y029987D01*
X017426Y029526D02*
X017426Y029219D01*
X017580Y029373D02*
X017273Y029373D01*
X015070Y028396D02*
X014917Y028396D01*
X014994Y028396D02*
X014994Y027936D01*
X015070Y027936D02*
X014917Y027936D01*
X014763Y028013D02*
X014687Y027936D01*
X014533Y027936D01*
X014456Y028013D01*
X014303Y028013D02*
X014226Y027936D01*
X014073Y027936D01*
X013996Y028013D01*
X014073Y028166D02*
X014226Y028166D01*
X014303Y028089D01*
X014303Y028013D01*
X014456Y028243D02*
X014456Y028320D01*
X014533Y028396D01*
X014687Y028396D01*
X014763Y028320D01*
X014687Y028166D02*
X014763Y028089D01*
X014763Y028013D01*
X014687Y028166D02*
X014533Y028166D01*
X014456Y028243D01*
X014303Y028320D02*
X014226Y028396D01*
X014073Y028396D01*
X013996Y028320D01*
X013996Y028243D01*
X014073Y028166D01*
X013843Y028166D02*
X013843Y028320D01*
X013766Y028396D01*
X013536Y028396D01*
X013536Y027936D01*
X013536Y028089D02*
X013766Y028089D01*
X013843Y028166D01*
X013689Y028089D02*
X013843Y027936D01*
X013925Y027297D02*
X013745Y027297D01*
X013745Y026937D01*
X013925Y026937D01*
X013985Y026997D01*
X013985Y027237D01*
X013925Y027297D01*
X014113Y027177D02*
X014233Y027297D01*
X014233Y026937D01*
X014113Y026937D02*
X014354Y026937D01*
X014482Y026997D02*
X014542Y026937D01*
X014662Y026937D01*
X014722Y026997D01*
X014722Y027057D01*
X014662Y027117D01*
X014602Y027117D01*
X014662Y027117D02*
X014722Y027177D01*
X014722Y027237D01*
X014662Y027297D01*
X014542Y027297D01*
X014482Y027237D01*
X014337Y025634D02*
X014244Y025634D01*
X014197Y025587D01*
X014337Y025634D02*
X014384Y025587D01*
X014384Y025541D01*
X014197Y025354D01*
X014384Y025354D01*
X014089Y025354D02*
X013902Y025354D01*
X013996Y025354D02*
X013996Y025634D01*
X013902Y025541D01*
X013795Y025587D02*
X013795Y025494D01*
X013748Y025447D01*
X013608Y025447D01*
X013701Y025447D02*
X013795Y025354D01*
X013608Y025354D02*
X013608Y025634D01*
X013748Y025634D01*
X013795Y025587D01*
X010145Y028824D02*
X009685Y028824D01*
X009685Y029054D01*
X009761Y029131D01*
X009915Y029131D01*
X009992Y029054D01*
X009992Y028824D01*
X009992Y028977D02*
X010145Y029131D01*
X010145Y029284D02*
X009685Y029284D01*
X010145Y029591D01*
X009685Y029591D01*
X009915Y029744D02*
X009915Y029975D01*
X009992Y030051D01*
X010068Y030051D01*
X010145Y029975D01*
X010145Y029821D01*
X010068Y029744D01*
X009915Y029744D01*
X009761Y029898D01*
X009685Y030051D01*
X009328Y030159D02*
X008502Y030159D01*
X008502Y028210D02*
X009328Y028210D01*
X013803Y029462D02*
X014110Y029462D01*
X014263Y029462D02*
X014570Y029002D01*
X014263Y029002D02*
X014570Y029462D01*
X014556Y029956D02*
X014249Y030416D01*
X014096Y030339D02*
X014019Y030416D01*
X013789Y030416D01*
X013789Y029956D01*
X013789Y030109D02*
X014019Y030109D01*
X014096Y030186D01*
X014096Y030339D01*
X013942Y030109D02*
X014096Y029956D01*
X014249Y029956D02*
X014556Y030416D01*
X013956Y029462D02*
X013956Y029002D01*
X003352Y031205D02*
X003045Y031205D01*
X002892Y031205D02*
X002738Y031358D01*
X002815Y031358D02*
X002585Y031358D01*
X002585Y031205D02*
X002585Y031665D01*
X002815Y031665D01*
X002892Y031589D01*
X002892Y031435D01*
X002815Y031358D01*
X003045Y031512D02*
X003199Y031665D01*
X003199Y031205D01*
X003217Y026633D02*
X003063Y026633D01*
X002986Y026557D01*
X002833Y026557D02*
X002833Y026403D01*
X002756Y026326D01*
X002526Y026326D01*
X002526Y026173D02*
X002526Y026633D01*
X002756Y026633D01*
X002833Y026557D01*
X002679Y026326D02*
X002833Y026173D01*
X002986Y026173D02*
X003293Y026480D01*
X003293Y026557D01*
X003217Y026633D01*
X003293Y026173D02*
X002986Y026173D01*
X016143Y010776D02*
X016296Y010776D01*
X016220Y010776D02*
X016220Y010316D01*
X016296Y010316D02*
X016143Y010316D01*
X016450Y010392D02*
X016450Y010699D01*
X016526Y010776D01*
X016680Y010776D01*
X016757Y010699D01*
X016910Y010699D02*
X016987Y010776D01*
X017140Y010776D01*
X017217Y010699D01*
X017217Y010622D01*
X016910Y010316D01*
X017217Y010316D01*
X016757Y010392D02*
X016680Y010316D01*
X016526Y010316D01*
X016450Y010392D01*
X017309Y009197D02*
X017309Y008890D01*
X017540Y008890D01*
X017463Y009043D01*
X017463Y009120D01*
X017540Y009197D01*
X017693Y009197D01*
X017770Y009120D01*
X017770Y008967D01*
X017693Y008890D01*
X017693Y008737D02*
X017770Y008660D01*
X017770Y008506D01*
X017693Y008430D01*
X017386Y008430D01*
X017309Y008506D01*
X017309Y008660D01*
X017386Y008737D01*
X019309Y008805D02*
X019386Y008882D01*
X019693Y008575D01*
X019770Y008652D01*
X019770Y008805D01*
X019693Y008882D01*
X019386Y008882D01*
X019309Y008805D02*
X019309Y008652D01*
X019386Y008575D01*
X019693Y008575D01*
X019770Y008422D02*
X019770Y008115D01*
X019770Y008268D02*
X019309Y008268D01*
X019463Y008115D01*
X019463Y009035D02*
X019693Y009035D01*
X019770Y009112D01*
X019770Y009342D01*
X019463Y009342D01*
X019540Y009496D02*
X019540Y009649D01*
X019770Y009496D02*
X019309Y009496D01*
X019309Y009803D01*
X013637Y007501D02*
X013637Y007040D01*
X013484Y007040D02*
X013791Y007040D01*
X013484Y007347D02*
X013637Y007501D01*
X013254Y007501D02*
X013024Y007270D01*
X013331Y007270D01*
X013254Y007040D02*
X013254Y007501D01*
X012870Y007424D02*
X012870Y007270D01*
X012793Y007194D01*
X012563Y007194D01*
X012563Y007040D02*
X012563Y007501D01*
X012793Y007501D01*
X012870Y007424D01*
X012717Y007194D02*
X012870Y007040D01*
X012676Y005715D02*
X012523Y005562D01*
X012523Y005639D02*
X012523Y005409D01*
X012676Y005409D02*
X012216Y005409D01*
X012216Y005639D01*
X012293Y005715D01*
X012446Y005715D01*
X012523Y005639D01*
X012676Y005255D02*
X012676Y004948D01*
X012216Y004948D01*
X012216Y005255D01*
X012446Y005102D02*
X012446Y004948D01*
X012676Y004795D02*
X012216Y004795D01*
X012216Y004488D02*
X012676Y004488D01*
X012523Y004641D01*
X012676Y004795D01*
X012600Y004334D02*
X012293Y004334D01*
X012216Y004258D01*
X012216Y004104D01*
X012293Y004027D01*
X012600Y004027D01*
X012676Y004104D01*
X012676Y004258D01*
X012600Y004334D01*
X012446Y003874D02*
X012523Y003797D01*
X012523Y003567D01*
X012676Y003567D02*
X012216Y003567D01*
X012216Y003797D01*
X012293Y003874D01*
X012446Y003874D01*
X011321Y007767D02*
X011321Y008074D01*
X011321Y007921D02*
X010861Y007921D01*
X011014Y007767D01*
X010938Y008228D02*
X010861Y008305D01*
X010861Y008458D01*
X010938Y008535D01*
X011245Y008228D01*
X011321Y008305D01*
X011321Y008458D01*
X011245Y008535D01*
X010938Y008535D01*
X011014Y008688D02*
X011245Y008688D01*
X011321Y008765D01*
X011321Y008995D01*
X011014Y008995D01*
X011091Y009149D02*
X011091Y009302D01*
X010861Y009149D02*
X010861Y009455D01*
X010861Y009149D02*
X011321Y009149D01*
X011245Y008228D02*
X010938Y008228D01*
X009282Y008159D02*
X009282Y008313D01*
X009205Y008389D01*
X009282Y008543D02*
X009282Y008850D01*
X009282Y008696D02*
X008822Y008696D01*
X008975Y008543D01*
X008898Y008389D02*
X008822Y008313D01*
X008822Y008159D01*
X008898Y008082D01*
X009205Y008082D01*
X009282Y008159D01*
X011549Y010224D02*
X011626Y010148D01*
X011779Y010148D01*
X011856Y010224D01*
X012009Y010224D02*
X012009Y010148D01*
X012009Y010224D02*
X012316Y010531D01*
X012316Y010608D01*
X012009Y010608D01*
X011856Y010531D02*
X011779Y010608D01*
X011626Y010608D01*
X011549Y010531D01*
X011549Y010224D01*
X001996Y009232D02*
X001996Y008925D01*
X001996Y009079D02*
X001535Y009079D01*
X001689Y008925D01*
X001535Y008772D02*
X001535Y008618D01*
X001535Y008695D02*
X001919Y008695D01*
X001996Y008618D01*
X001996Y008542D01*
X001919Y008465D01*
X027145Y010843D02*
X027221Y010766D01*
X027145Y010843D02*
X027145Y010996D01*
X027221Y011073D01*
X027528Y011073D01*
X027605Y010996D01*
X027605Y010843D01*
X027528Y010766D01*
X027528Y011227D02*
X027605Y011303D01*
X027605Y011457D01*
X027528Y011533D01*
X027221Y011533D01*
X027145Y011457D01*
X027145Y011303D01*
X027221Y011227D01*
X027298Y011687D02*
X027605Y011687D01*
X027605Y011994D02*
X027298Y011994D01*
X027145Y011840D01*
X027298Y011687D01*
X028208Y011687D02*
X028668Y011687D01*
X028515Y011840D01*
X028668Y011994D01*
X028208Y011994D01*
X028208Y011533D02*
X028208Y011380D01*
X028208Y011457D02*
X028668Y011457D01*
X028668Y011533D02*
X028668Y011380D01*
X028591Y011227D02*
X028515Y011227D01*
X028438Y011150D01*
X028438Y010996D01*
X028361Y010920D01*
X028284Y010920D01*
X028208Y010996D01*
X028208Y011150D01*
X028284Y011227D01*
X028591Y011227D02*
X028668Y011150D01*
X028668Y010996D01*
X028591Y010920D01*
X028591Y010766D02*
X028284Y010766D01*
X028208Y010690D01*
X028208Y010536D01*
X028284Y010459D01*
X028591Y010459D01*
X028668Y010536D01*
X028668Y010690D01*
X028591Y010766D01*
X029231Y010766D02*
X029461Y010996D01*
X029385Y011073D02*
X029692Y010766D01*
X029692Y011073D02*
X029231Y011073D01*
X029308Y011227D02*
X029231Y011303D01*
X029231Y011457D01*
X029308Y011533D01*
X029615Y011533D01*
X029692Y011457D01*
X029692Y011303D01*
X029615Y011227D01*
X030255Y011227D02*
X030715Y011227D01*
X030715Y011073D02*
X030715Y010843D01*
X030639Y010766D01*
X030332Y010766D01*
X030255Y010843D01*
X030255Y011073D01*
X030715Y011073D01*
X030715Y011533D02*
X030255Y011533D01*
X030332Y011687D02*
X030255Y011764D01*
X030255Y011917D01*
X030332Y011994D01*
X030639Y011994D01*
X030715Y011917D01*
X030715Y011764D01*
X030639Y011687D01*
X030485Y011687D02*
X030485Y011840D01*
X030485Y011687D02*
X030332Y011687D01*
X030715Y011533D02*
X030255Y011227D01*
X029692Y011764D02*
X029692Y011917D01*
X029615Y011994D01*
X029538Y011994D01*
X029461Y011917D01*
X029461Y011764D01*
X029385Y011687D01*
X029308Y011687D01*
X029231Y011764D01*
X029231Y011917D01*
X029308Y011994D01*
X029615Y011687D02*
X029692Y011764D01*
X029536Y014416D02*
X029613Y014492D01*
X029613Y014646D01*
X029536Y014722D01*
X029459Y014722D01*
X029383Y014646D01*
X029383Y014492D01*
X029306Y014416D01*
X029229Y014416D01*
X029153Y014492D01*
X029153Y014646D01*
X029229Y014722D01*
X029229Y014876D02*
X029153Y014953D01*
X029153Y015106D01*
X029229Y015183D01*
X029383Y015106D02*
X029383Y014953D01*
X029306Y014876D01*
X029229Y014876D01*
X029383Y015106D02*
X029459Y015183D01*
X029536Y015183D01*
X029613Y015106D01*
X029613Y014953D01*
X029536Y014876D01*
X030137Y014876D02*
X030597Y014876D01*
X030520Y014722D02*
X030214Y014722D01*
X030137Y014646D01*
X030137Y014492D01*
X030214Y014416D01*
X030520Y014416D02*
X030597Y014492D01*
X030597Y014646D01*
X030520Y014722D01*
X030137Y014876D02*
X030597Y015183D01*
X030137Y015183D01*
X028629Y015119D02*
X028552Y015042D01*
X028245Y015042D01*
X028168Y015119D01*
X028168Y015273D01*
X028245Y015349D01*
X028552Y015349D01*
X028629Y015273D01*
X028629Y015119D01*
X028552Y014889D02*
X028629Y014812D01*
X028629Y014659D01*
X028552Y014582D01*
X028399Y014659D02*
X028322Y014582D01*
X028245Y014582D01*
X028168Y014659D01*
X028168Y014812D01*
X028245Y014889D01*
X028399Y014812D02*
X028475Y014889D01*
X028552Y014889D01*
X028399Y014812D02*
X028399Y014659D01*
X028629Y014429D02*
X028629Y014275D01*
X028629Y014352D02*
X028168Y014352D01*
X028168Y014429D02*
X028168Y014275D01*
X027644Y014386D02*
X027644Y014540D01*
X027568Y014616D01*
X027491Y014616D01*
X027414Y014540D01*
X027414Y014310D01*
X027261Y014310D02*
X027568Y014310D01*
X027644Y014386D01*
X027261Y014310D02*
X027184Y014386D01*
X027184Y014540D01*
X027261Y014616D01*
X027414Y014770D02*
X027414Y015077D01*
X027644Y014847D01*
X027184Y014847D01*
X027261Y015230D02*
X027568Y015230D01*
X027644Y015307D01*
X027644Y015537D01*
X027184Y015537D01*
X027184Y015307D01*
X027261Y015230D01*
X028168Y015503D02*
X028629Y015503D01*
X028475Y015656D01*
X028629Y015810D01*
X028168Y015810D01*
X034445Y017546D02*
X034521Y017470D01*
X034675Y017470D01*
X034751Y017546D01*
X034751Y017700D01*
X034598Y017700D01*
X034445Y017853D02*
X034521Y017930D01*
X034675Y017930D01*
X034751Y017853D01*
X034905Y017930D02*
X035212Y017470D01*
X035212Y017930D01*
X035365Y017930D02*
X035365Y017470D01*
X035595Y017470D01*
X035672Y017546D01*
X035672Y017853D01*
X035595Y017930D01*
X035365Y017930D01*
X034905Y017930D02*
X034905Y017470D01*
X034445Y017546D02*
X034445Y017853D01*
X034600Y018493D02*
X034523Y018570D01*
X034600Y018493D02*
X034754Y018493D01*
X034830Y018570D01*
X034830Y018647D01*
X034754Y018724D01*
X034600Y018724D01*
X034523Y018800D01*
X034523Y018877D01*
X034600Y018954D01*
X034754Y018954D01*
X034830Y018877D01*
X034984Y018954D02*
X034984Y018493D01*
X035214Y018493D01*
X035291Y018570D01*
X035291Y018877D01*
X035214Y018954D01*
X034984Y018954D01*
X035444Y018800D02*
X035444Y018493D01*
X035444Y018724D02*
X035751Y018724D01*
X035751Y018800D02*
X035751Y018493D01*
X035751Y018800D02*
X035597Y018954D01*
X035444Y018800D01*
X035483Y019478D02*
X035790Y019478D01*
X035483Y019478D02*
X035483Y019938D01*
X035330Y019861D02*
X035253Y019938D01*
X035100Y019938D01*
X035023Y019861D01*
X035023Y019554D01*
X035100Y019478D01*
X035253Y019478D01*
X035330Y019554D01*
X034870Y019554D02*
X034793Y019478D01*
X034639Y019478D01*
X034563Y019554D01*
X034639Y019708D02*
X034793Y019708D01*
X034870Y019631D01*
X034870Y019554D01*
X034639Y019708D02*
X034563Y019785D01*
X034563Y019861D01*
X034639Y019938D01*
X034793Y019938D01*
X034870Y019861D01*
D14*
X034142Y020379D02*
X034142Y020529D01*
X034067Y020604D01*
X033766Y020604D01*
X033691Y020529D01*
X033691Y020379D01*
X033766Y020304D01*
X034067Y020304D02*
X034142Y020379D01*
X034067Y020764D02*
X034142Y020839D01*
X034142Y020989D01*
X034067Y021064D01*
X034142Y021221D02*
X034142Y021371D01*
X034142Y021296D02*
X033691Y021296D01*
X033691Y021371D02*
X033691Y021221D01*
X033691Y021064D02*
X033992Y020764D01*
X034067Y020764D01*
X033691Y020764D02*
X033691Y021064D01*
X036415Y023216D02*
X036415Y024216D01*
X028415Y024216D01*
X028415Y023216D01*
X036415Y023216D01*
X038415Y024216D02*
X038415Y006216D01*
X040415Y006216D01*
X040415Y024216D01*
X038415Y024216D01*
X038499Y025309D02*
X038194Y025309D01*
X038092Y025411D01*
X038194Y025513D01*
X038499Y025513D01*
X038499Y025614D02*
X038499Y025309D01*
X038499Y025614D02*
X038398Y025716D01*
X038194Y025716D01*
X037892Y025716D02*
X037790Y025614D01*
X037892Y025513D01*
X037892Y025411D01*
X037790Y025309D01*
X037586Y025309D01*
X037485Y025411D01*
X037284Y025411D02*
X037284Y025818D01*
X037182Y025920D01*
X036979Y025920D01*
X036877Y025818D01*
X036877Y025716D01*
X036979Y025614D01*
X037284Y025614D01*
X037284Y025411D02*
X037182Y025309D01*
X036979Y025309D01*
X036877Y025411D01*
X036676Y025411D02*
X036574Y025309D01*
X036371Y025309D01*
X036269Y025411D01*
X036269Y025513D01*
X036371Y025614D01*
X036574Y025614D01*
X036676Y025513D01*
X036676Y025411D01*
X036574Y025614D02*
X036676Y025716D01*
X036676Y025818D01*
X036574Y025920D01*
X036371Y025920D01*
X036269Y025818D01*
X036269Y025716D01*
X036371Y025614D01*
X036069Y025818D02*
X035662Y025411D01*
X035662Y025309D01*
X035461Y025411D02*
X035359Y025309D01*
X035156Y025309D01*
X035054Y025411D01*
X034853Y025411D02*
X034853Y025513D01*
X034751Y025614D01*
X034650Y025614D01*
X034751Y025614D02*
X034853Y025716D01*
X034853Y025818D01*
X034751Y025920D01*
X034548Y025920D01*
X034446Y025818D01*
X034345Y026011D02*
X034345Y026622D01*
X034650Y026622D01*
X034752Y026520D01*
X034752Y026316D01*
X034650Y026215D01*
X034345Y026215D01*
X034144Y026215D02*
X033839Y026215D01*
X033737Y026316D01*
X033839Y026418D01*
X034144Y026418D01*
X034144Y026520D02*
X034144Y026215D01*
X034144Y025920D02*
X034144Y025309D01*
X033940Y025309D02*
X033940Y025920D01*
X033838Y025716D02*
X034144Y025716D01*
X034245Y025716D01*
X034245Y025513D02*
X033838Y025513D01*
X034446Y025411D02*
X034548Y025309D01*
X034751Y025309D01*
X034853Y025411D01*
X035257Y025614D02*
X035359Y025614D01*
X035461Y025513D01*
X035461Y025411D01*
X035359Y025614D02*
X035461Y025716D01*
X035461Y025818D01*
X035359Y025920D01*
X035156Y025920D01*
X035054Y025818D01*
X034952Y026215D02*
X034952Y026825D01*
X035054Y026622D02*
X035258Y026622D01*
X035359Y026520D01*
X035359Y026215D01*
X035560Y026215D02*
X035662Y026215D01*
X035662Y026316D01*
X035560Y026316D01*
X035560Y026215D01*
X035662Y025920D02*
X036069Y025920D01*
X036069Y025818D01*
X035966Y026215D02*
X036271Y026215D01*
X036472Y026316D02*
X036574Y026215D01*
X036777Y026215D01*
X036879Y026316D01*
X036879Y026520D01*
X036777Y026622D01*
X036574Y026622D01*
X036472Y026520D01*
X036472Y026316D01*
X036271Y026622D02*
X035966Y026622D01*
X035864Y026520D01*
X035864Y026316D01*
X035966Y026215D01*
X035903Y027091D02*
X036310Y027498D01*
X036310Y027600D01*
X036209Y027702D01*
X036005Y027702D01*
X035903Y027600D01*
X035701Y027193D02*
X035701Y027091D01*
X035600Y027091D01*
X035600Y027193D01*
X035701Y027193D01*
X035903Y027091D02*
X036310Y027091D01*
X035399Y027091D02*
X034992Y027091D01*
X035195Y027091D02*
X035195Y027702D01*
X034992Y027498D01*
X034791Y027498D02*
X034588Y027091D01*
X034384Y027498D01*
X033576Y027498D02*
X033270Y027498D01*
X033169Y027397D01*
X033169Y027193D01*
X033270Y027091D01*
X033576Y027091D01*
X033576Y027702D01*
X032865Y027702D02*
X032865Y027091D01*
X032764Y027091D02*
X032967Y027091D01*
X032563Y027295D02*
X032156Y027295D01*
X032156Y027397D02*
X032258Y027498D01*
X032461Y027498D01*
X032563Y027397D01*
X032563Y027295D01*
X032461Y027091D02*
X032258Y027091D01*
X032156Y027193D01*
X032156Y027397D01*
X031852Y027498D02*
X031852Y027091D01*
X031751Y027091D02*
X031954Y027091D01*
X031550Y027091D02*
X031550Y027397D01*
X031448Y027498D01*
X031245Y027498D01*
X031143Y027397D01*
X030942Y027498D02*
X030637Y027498D01*
X030535Y027397D01*
X030637Y027295D01*
X030841Y027295D01*
X030942Y027193D01*
X030841Y027091D01*
X030535Y027091D01*
X030334Y027498D02*
X030232Y027498D01*
X030029Y027295D01*
X029828Y027295D02*
X029523Y027295D01*
X029421Y027193D01*
X029523Y027091D01*
X029828Y027091D01*
X029828Y027397D01*
X029726Y027498D01*
X029523Y027498D01*
X029118Y027702D02*
X029118Y027091D01*
X029016Y027091D02*
X029220Y027091D01*
X028815Y027193D02*
X028815Y027397D01*
X028714Y027498D01*
X028510Y027498D01*
X028408Y027397D01*
X028408Y027193D01*
X028510Y027091D01*
X028714Y027091D01*
X028815Y027193D01*
X028776Y026622D02*
X028776Y026316D01*
X028674Y026215D01*
X028572Y026316D01*
X028471Y026215D01*
X028369Y026316D01*
X028369Y026622D01*
X028168Y026622D02*
X028168Y026316D01*
X028066Y026215D01*
X027965Y026316D01*
X027863Y026215D01*
X027761Y026316D01*
X027761Y026622D01*
X027801Y027091D02*
X027801Y027702D01*
X028106Y027702D01*
X028208Y027600D01*
X028208Y027397D01*
X028106Y027295D01*
X027801Y027295D01*
X029016Y027702D02*
X029118Y027702D01*
X030029Y027498D02*
X030029Y027091D01*
X029888Y026622D02*
X030193Y026622D01*
X030295Y026520D01*
X030295Y026316D01*
X030193Y026215D01*
X029888Y026215D01*
X029686Y026215D02*
X029584Y026215D01*
X029584Y026316D01*
X029686Y026316D01*
X029686Y026215D01*
X029888Y026011D02*
X029888Y026622D01*
X029384Y026622D02*
X029384Y026316D01*
X029282Y026215D01*
X029180Y026316D01*
X029078Y026215D01*
X028977Y026316D01*
X028977Y026622D01*
X029180Y025920D02*
X029180Y025309D01*
X028977Y025309D02*
X029384Y025309D01*
X029584Y025309D02*
X029991Y025716D01*
X029991Y025818D01*
X029890Y025920D01*
X029686Y025920D01*
X029584Y025818D01*
X029180Y025920D02*
X028977Y025716D01*
X028776Y025818D02*
X028369Y025411D01*
X028471Y025309D01*
X028674Y025309D01*
X028776Y025411D01*
X028776Y025818D01*
X028674Y025920D01*
X028471Y025920D01*
X028369Y025818D01*
X028369Y025411D01*
X028168Y025309D02*
X027761Y025309D01*
X028168Y025716D01*
X028168Y025818D01*
X028066Y025920D01*
X027863Y025920D01*
X027761Y025818D01*
X027415Y024216D02*
X019415Y024216D01*
X019415Y023216D01*
X027415Y023216D01*
X027415Y024216D01*
X029584Y025309D02*
X029991Y025309D01*
X030192Y025309D02*
X030294Y025309D01*
X030294Y025411D01*
X030192Y025411D01*
X030192Y025309D01*
X030496Y025309D02*
X030903Y025309D01*
X031104Y025309D02*
X031511Y025309D01*
X031711Y025309D02*
X031813Y025309D01*
X031813Y025411D01*
X031711Y025411D01*
X031711Y025309D01*
X032015Y025411D02*
X032422Y025818D01*
X032422Y025411D01*
X032320Y025309D01*
X032117Y025309D01*
X032015Y025411D01*
X032015Y025818D01*
X032117Y025920D01*
X032320Y025920D01*
X032422Y025818D01*
X032623Y025818D02*
X032725Y025920D01*
X032928Y025920D01*
X033030Y025818D01*
X033030Y025716D01*
X032623Y025309D01*
X033030Y025309D01*
X032928Y026011D02*
X032826Y026011D01*
X032928Y026011D02*
X033030Y026113D01*
X033030Y026622D01*
X032725Y026622D01*
X032623Y026520D01*
X032623Y026316D01*
X032725Y026215D01*
X033030Y026215D01*
X033231Y026215D02*
X033231Y026622D01*
X033434Y026622D02*
X033231Y026418D01*
X033434Y026622D02*
X033536Y026622D01*
X033839Y026622D02*
X034042Y026622D01*
X034144Y026520D01*
X034952Y026520D02*
X035054Y026622D01*
X037079Y026316D02*
X037181Y026316D01*
X037181Y026215D01*
X037079Y026215D01*
X037079Y026316D01*
X037383Y026316D02*
X037485Y026215D01*
X037790Y026215D01*
X037790Y026622D01*
X037991Y026825D02*
X037991Y026215D01*
X037991Y026418D02*
X038296Y026622D01*
X037991Y026418D02*
X038296Y026215D01*
X037892Y025818D02*
X037790Y025920D01*
X037586Y025920D01*
X037485Y025818D01*
X037688Y025614D02*
X037790Y025614D01*
X037892Y025716D02*
X037892Y025818D01*
X037383Y026316D02*
X037383Y026622D01*
X032865Y027702D02*
X032764Y027702D01*
X031852Y027702D02*
X031852Y027804D01*
X031852Y027498D02*
X031751Y027498D01*
X031143Y027702D02*
X031143Y027091D01*
X031104Y026825D02*
X031205Y026825D01*
X031205Y026215D01*
X031104Y026215D02*
X031307Y026215D01*
X031509Y026316D02*
X031611Y026418D01*
X031916Y026418D01*
X031916Y026520D02*
X031916Y026215D01*
X031611Y026215D01*
X031509Y026316D01*
X031611Y026622D02*
X031814Y026622D01*
X031916Y026520D01*
X032116Y026622D02*
X032116Y026215D01*
X032116Y026418D02*
X032320Y026622D01*
X032422Y026622D01*
X031307Y025920D02*
X031307Y025309D01*
X031104Y025716D02*
X031307Y025920D01*
X030903Y026316D02*
X030903Y026520D01*
X030801Y026622D01*
X030598Y026622D01*
X030496Y026520D01*
X030496Y026316D01*
X030598Y026215D01*
X030801Y026215D01*
X030903Y026316D01*
X030699Y025920D02*
X030699Y025309D01*
X030496Y025716D02*
X030699Y025920D01*
X019590Y029150D02*
X019590Y029450D01*
X019590Y029300D02*
X019140Y029300D01*
X019290Y029150D01*
X018590Y029150D02*
X018590Y029450D01*
X018590Y029300D02*
X018140Y029300D01*
X018290Y029150D01*
X018423Y029189D02*
X018423Y029490D01*
X018648Y029650D02*
X018197Y029950D01*
X018306Y030207D02*
X018155Y030357D01*
X018606Y030357D01*
X018606Y030207D02*
X018606Y030507D01*
X018648Y029950D02*
X018197Y029650D01*
X017590Y029450D02*
X017590Y029150D01*
X017590Y029300D02*
X017140Y029300D01*
X017290Y029150D01*
X016590Y029150D02*
X016590Y029450D01*
X016590Y029300D02*
X016140Y029300D01*
X016290Y029150D01*
X016423Y029200D02*
X016423Y029500D01*
X016573Y029660D02*
X016648Y029660D01*
X016573Y029660D02*
X016423Y029811D01*
X016197Y029811D01*
X016423Y029811D02*
X016573Y029961D01*
X016648Y029961D01*
X017155Y030357D02*
X017606Y030357D01*
X017606Y030207D02*
X017606Y030507D01*
X017306Y030207D02*
X017155Y030357D01*
X018915Y024216D02*
X010665Y024216D01*
X010665Y023216D01*
X018915Y023216D01*
X018915Y024216D01*
X015556Y020994D02*
X015556Y020587D01*
X015556Y020892D02*
X015149Y020892D01*
X015149Y020994D02*
X015353Y021198D01*
X015556Y020994D01*
X015149Y020994D02*
X015149Y020587D01*
X014948Y020587D02*
X014745Y020791D01*
X014847Y020791D02*
X014541Y020791D01*
X014541Y020587D02*
X014541Y021198D01*
X014847Y021198D01*
X014948Y021096D01*
X014948Y020892D01*
X014847Y020791D01*
X014341Y020689D02*
X014341Y021096D01*
X014239Y021198D01*
X014035Y021198D01*
X013934Y021096D01*
X013934Y020689D01*
X014035Y020587D01*
X014239Y020587D01*
X014341Y020689D01*
X013733Y021198D02*
X013326Y021198D01*
X013529Y021198D02*
X013529Y020587D01*
X013125Y020689D02*
X013125Y021096D01*
X013023Y021198D01*
X012820Y021198D01*
X012718Y021096D01*
X012718Y020689D01*
X012820Y020587D01*
X013023Y020587D01*
X013125Y020689D01*
X012517Y020587D02*
X012517Y021198D01*
X012314Y020994D01*
X012110Y021198D01*
X012110Y020587D01*
X007165Y023716D02*
X007167Y023770D01*
X007173Y023824D01*
X007183Y023877D01*
X007196Y023930D01*
X007213Y023981D01*
X007234Y024031D01*
X007259Y024079D01*
X007287Y024126D01*
X007318Y024170D01*
X007352Y024212D01*
X007389Y024251D01*
X007429Y024288D01*
X007472Y024321D01*
X007517Y024352D01*
X007564Y024379D01*
X007612Y024402D01*
X007663Y024422D01*
X007714Y024439D01*
X007767Y024451D01*
X007820Y024460D01*
X007874Y024465D01*
X007929Y024466D01*
X007983Y024463D01*
X008036Y024456D01*
X008089Y024445D01*
X008142Y024431D01*
X008193Y024413D01*
X008242Y024391D01*
X008290Y024366D01*
X008336Y024337D01*
X008380Y024305D01*
X008421Y024270D01*
X008459Y024232D01*
X008495Y024191D01*
X008528Y024148D01*
X008558Y024103D01*
X008584Y024055D01*
X008607Y024006D01*
X008626Y023955D01*
X008641Y023904D01*
X008653Y023851D01*
X008661Y023797D01*
X008665Y023743D01*
X008665Y023689D01*
X008661Y023635D01*
X008653Y023581D01*
X008641Y023528D01*
X008626Y023477D01*
X008607Y023426D01*
X008584Y023377D01*
X008558Y023329D01*
X008528Y023284D01*
X008495Y023241D01*
X008459Y023200D01*
X008421Y023162D01*
X008380Y023127D01*
X008336Y023095D01*
X008290Y023066D01*
X008242Y023041D01*
X008193Y023019D01*
X008142Y023001D01*
X008089Y022987D01*
X008036Y022976D01*
X007983Y022969D01*
X007929Y022966D01*
X007874Y022967D01*
X007820Y022972D01*
X007767Y022981D01*
X007714Y022993D01*
X007663Y023010D01*
X007612Y023030D01*
X007564Y023053D01*
X007517Y023080D01*
X007472Y023111D01*
X007429Y023144D01*
X007389Y023181D01*
X007352Y023220D01*
X007318Y023262D01*
X007287Y023306D01*
X007259Y023353D01*
X007234Y023401D01*
X007213Y023451D01*
X007196Y023502D01*
X007183Y023555D01*
X007173Y023608D01*
X007167Y023662D01*
X007165Y023716D01*
X004007Y030010D02*
X003707Y030010D01*
X003857Y030010D02*
X003857Y030460D01*
X003707Y030310D01*
X003547Y030385D02*
X003472Y030460D01*
X003322Y030460D01*
X003247Y030385D01*
X003247Y030085D01*
X003322Y030010D01*
X003472Y030010D01*
X003547Y030085D01*
X003090Y030010D02*
X002940Y030010D01*
X003015Y030010D02*
X003015Y030460D01*
X002940Y030460D02*
X003090Y030460D01*
X002940Y030666D02*
X003240Y030666D01*
X003400Y030666D02*
X003400Y031116D01*
X003550Y030966D01*
X003701Y031116D01*
X003701Y030666D01*
X003861Y030816D02*
X004011Y030666D01*
X004161Y030816D01*
X004161Y031116D01*
X004321Y031041D02*
X004396Y031116D01*
X004546Y031116D01*
X004621Y031041D01*
X004621Y030966D01*
X004546Y030891D01*
X004621Y030816D01*
X004621Y030741D01*
X004546Y030666D01*
X004396Y030666D01*
X004321Y030741D01*
X004471Y030891D02*
X004546Y030891D01*
X004781Y030891D02*
X004931Y030966D01*
X005007Y030966D01*
X005082Y030891D01*
X005082Y030741D01*
X005007Y030666D01*
X004856Y030666D01*
X004781Y030741D01*
X004781Y030891D02*
X004781Y031116D01*
X005082Y031116D01*
X005242Y031041D02*
X005242Y030966D01*
X005317Y030891D01*
X005467Y030891D01*
X005542Y030816D01*
X005542Y030741D01*
X005467Y030666D01*
X005317Y030666D01*
X005242Y030741D01*
X005242Y030816D01*
X005317Y030891D01*
X005467Y030891D02*
X005542Y030966D01*
X005542Y031041D01*
X005467Y031116D01*
X005317Y031116D01*
X005242Y031041D01*
X005702Y031116D02*
X005702Y030666D01*
X006002Y030666D02*
X006002Y031116D01*
X005852Y030966D01*
X005702Y031116D01*
X006162Y031116D02*
X006162Y030666D01*
X006463Y030666D02*
X006463Y031116D01*
X006313Y030966D01*
X006162Y031116D01*
X006623Y031116D02*
X006923Y030666D01*
X006623Y030666D02*
X006923Y031116D01*
X003861Y031116D02*
X003861Y030816D01*
X002940Y030666D02*
X002940Y031116D01*
X011849Y015048D02*
X012053Y014844D01*
X012256Y015048D01*
X012256Y014437D01*
X012457Y014539D02*
X012558Y014437D01*
X012762Y014437D01*
X012864Y014539D01*
X012864Y014946D01*
X012762Y015048D01*
X012558Y015048D01*
X012457Y014946D01*
X012457Y014539D01*
X011849Y014437D02*
X011849Y015048D01*
X013064Y015048D02*
X013471Y015048D01*
X013268Y015048D02*
X013268Y014437D01*
X013672Y014539D02*
X013774Y014437D01*
X013977Y014437D01*
X014079Y014539D01*
X014079Y014946D01*
X013977Y015048D01*
X013774Y015048D01*
X013672Y014946D01*
X013672Y014539D01*
X014280Y014641D02*
X014585Y014641D01*
X014687Y014742D01*
X014687Y014946D01*
X014585Y015048D01*
X014280Y015048D01*
X014280Y014437D01*
X014483Y014641D02*
X014687Y014437D01*
X014888Y014437D02*
X015193Y014437D01*
X015295Y014539D01*
X015295Y014641D01*
X015193Y014742D01*
X014888Y014742D01*
X015193Y014742D02*
X015295Y014844D01*
X015295Y014946D01*
X015193Y015048D01*
X014888Y015048D01*
X014888Y014437D01*
X008054Y010201D02*
X008054Y010051D01*
X007979Y009976D01*
X007754Y009976D01*
X007904Y009976D02*
X008054Y009826D01*
X007754Y009826D02*
X007754Y010276D01*
X007979Y010276D01*
X008054Y010201D01*
X007594Y010276D02*
X007594Y009826D01*
X007444Y009976D01*
X007294Y009826D01*
X007294Y010276D01*
X007134Y010201D02*
X007134Y010051D01*
X007059Y009976D01*
X006833Y009976D01*
X006833Y009826D02*
X006833Y010276D01*
X007059Y010276D01*
X007134Y010201D01*
X006673Y009751D02*
X006373Y009751D01*
X006063Y009826D02*
X006063Y010276D01*
X005913Y010276D02*
X006213Y010276D01*
X005753Y010276D02*
X005452Y009826D01*
X005292Y009826D02*
X004992Y009826D01*
X004992Y010276D01*
X005292Y010276D01*
X005452Y010276D02*
X005753Y009826D01*
X005142Y010051D02*
X004992Y010051D01*
X004902Y009602D02*
X004350Y009602D01*
X004350Y006846D01*
X004902Y006846D01*
X004902Y009602D01*
X004350Y009602D02*
X002146Y009602D01*
X002146Y006846D01*
X004350Y006846D01*
X006628Y008055D02*
X006628Y004512D01*
X000880Y004512D01*
X000880Y008055D01*
X006628Y008055D01*
X006665Y004716D02*
X006667Y004770D01*
X006673Y004824D01*
X006683Y004877D01*
X006696Y004930D01*
X006713Y004981D01*
X006734Y005031D01*
X006759Y005079D01*
X006787Y005126D01*
X006818Y005170D01*
X006852Y005212D01*
X006889Y005251D01*
X006929Y005288D01*
X006972Y005321D01*
X007017Y005352D01*
X007064Y005379D01*
X007112Y005402D01*
X007163Y005422D01*
X007214Y005439D01*
X007267Y005451D01*
X007320Y005460D01*
X007374Y005465D01*
X007429Y005466D01*
X007483Y005463D01*
X007536Y005456D01*
X007589Y005445D01*
X007642Y005431D01*
X007693Y005413D01*
X007742Y005391D01*
X007790Y005366D01*
X007836Y005337D01*
X007880Y005305D01*
X007921Y005270D01*
X007959Y005232D01*
X007995Y005191D01*
X008028Y005148D01*
X008058Y005103D01*
X008084Y005055D01*
X008107Y005006D01*
X008126Y004955D01*
X008141Y004904D01*
X008153Y004851D01*
X008161Y004797D01*
X008165Y004743D01*
X008165Y004689D01*
X008161Y004635D01*
X008153Y004581D01*
X008141Y004528D01*
X008126Y004477D01*
X008107Y004426D01*
X008084Y004377D01*
X008058Y004329D01*
X008028Y004284D01*
X007995Y004241D01*
X007959Y004200D01*
X007921Y004162D01*
X007880Y004127D01*
X007836Y004095D01*
X007790Y004066D01*
X007742Y004041D01*
X007693Y004019D01*
X007642Y004001D01*
X007589Y003987D01*
X007536Y003976D01*
X007483Y003969D01*
X007429Y003966D01*
X007374Y003967D01*
X007320Y003972D01*
X007267Y003981D01*
X007214Y003993D01*
X007163Y004010D01*
X007112Y004030D01*
X007064Y004053D01*
X007017Y004080D01*
X006972Y004111D01*
X006929Y004144D01*
X006889Y004181D01*
X006852Y004220D01*
X006818Y004262D01*
X006787Y004306D01*
X006759Y004353D01*
X006734Y004401D01*
X006713Y004451D01*
X006696Y004502D01*
X006683Y004555D01*
X006673Y004608D01*
X006667Y004662D01*
X006665Y004716D01*
X009779Y003493D02*
X009779Y003418D01*
X009854Y003343D01*
X010004Y003343D01*
X010079Y003267D01*
X010079Y003192D01*
X010004Y003117D01*
X009854Y003117D01*
X009779Y003192D01*
X009779Y003493D02*
X009854Y003568D01*
X010004Y003568D01*
X010079Y003493D01*
X010239Y003493D02*
X010314Y003568D01*
X010464Y003568D01*
X010539Y003493D01*
X010539Y003418D01*
X010239Y003117D01*
X010539Y003117D01*
X014415Y004216D02*
X020415Y004216D01*
X020415Y005216D01*
X014415Y005216D01*
X014415Y004216D01*
X021415Y004216D02*
X029415Y004216D01*
X029415Y005216D01*
X021415Y005216D01*
X021415Y004216D01*
X030415Y004216D02*
X038415Y004216D01*
X038415Y005216D01*
X030415Y005216D01*
X030415Y004216D01*
X039165Y004716D02*
X039167Y004770D01*
X039173Y004824D01*
X039183Y004877D01*
X039196Y004930D01*
X039213Y004981D01*
X039234Y005031D01*
X039259Y005079D01*
X039287Y005126D01*
X039318Y005170D01*
X039352Y005212D01*
X039389Y005251D01*
X039429Y005288D01*
X039472Y005321D01*
X039517Y005352D01*
X039564Y005379D01*
X039612Y005402D01*
X039663Y005422D01*
X039714Y005439D01*
X039767Y005451D01*
X039820Y005460D01*
X039874Y005465D01*
X039929Y005466D01*
X039983Y005463D01*
X040036Y005456D01*
X040089Y005445D01*
X040142Y005431D01*
X040193Y005413D01*
X040242Y005391D01*
X040290Y005366D01*
X040336Y005337D01*
X040380Y005305D01*
X040421Y005270D01*
X040459Y005232D01*
X040495Y005191D01*
X040528Y005148D01*
X040558Y005103D01*
X040584Y005055D01*
X040607Y005006D01*
X040626Y004955D01*
X040641Y004904D01*
X040653Y004851D01*
X040661Y004797D01*
X040665Y004743D01*
X040665Y004689D01*
X040661Y004635D01*
X040653Y004581D01*
X040641Y004528D01*
X040626Y004477D01*
X040607Y004426D01*
X040584Y004377D01*
X040558Y004329D01*
X040528Y004284D01*
X040495Y004241D01*
X040459Y004200D01*
X040421Y004162D01*
X040380Y004127D01*
X040336Y004095D01*
X040290Y004066D01*
X040242Y004041D01*
X040193Y004019D01*
X040142Y004001D01*
X040089Y003987D01*
X040036Y003976D01*
X039983Y003969D01*
X039929Y003966D01*
X039874Y003967D01*
X039820Y003972D01*
X039767Y003981D01*
X039714Y003993D01*
X039663Y004010D01*
X039612Y004030D01*
X039564Y004053D01*
X039517Y004080D01*
X039472Y004111D01*
X039429Y004144D01*
X039389Y004181D01*
X039352Y004220D01*
X039318Y004262D01*
X039287Y004306D01*
X039259Y004353D01*
X039234Y004401D01*
X039213Y004451D01*
X039196Y004502D01*
X039183Y004555D01*
X039173Y004608D01*
X039167Y004662D01*
X039165Y004716D01*
D15*
X039285Y004716D02*
X039287Y004766D01*
X039293Y004816D01*
X039303Y004865D01*
X039317Y004913D01*
X039334Y004960D01*
X039355Y005005D01*
X039380Y005049D01*
X039408Y005090D01*
X039440Y005129D01*
X039474Y005166D01*
X039511Y005200D01*
X039551Y005230D01*
X039593Y005257D01*
X039637Y005281D01*
X039683Y005302D01*
X039730Y005318D01*
X039778Y005331D01*
X039828Y005340D01*
X039877Y005345D01*
X039928Y005346D01*
X039978Y005343D01*
X040027Y005336D01*
X040076Y005325D01*
X040124Y005310D01*
X040170Y005292D01*
X040215Y005270D01*
X040258Y005244D01*
X040299Y005215D01*
X040338Y005183D01*
X040374Y005148D01*
X040406Y005110D01*
X040436Y005070D01*
X040463Y005027D01*
X040486Y004983D01*
X040505Y004937D01*
X040521Y004889D01*
X040533Y004840D01*
X040541Y004791D01*
X040545Y004741D01*
X040545Y004691D01*
X040541Y004641D01*
X040533Y004592D01*
X040521Y004543D01*
X040505Y004495D01*
X040486Y004449D01*
X040463Y004405D01*
X040436Y004362D01*
X040406Y004322D01*
X040374Y004284D01*
X040338Y004249D01*
X040299Y004217D01*
X040258Y004188D01*
X040215Y004162D01*
X040170Y004140D01*
X040124Y004122D01*
X040076Y004107D01*
X040027Y004096D01*
X039978Y004089D01*
X039928Y004086D01*
X039877Y004087D01*
X039828Y004092D01*
X039778Y004101D01*
X039730Y004114D01*
X039683Y004130D01*
X039637Y004151D01*
X039593Y004175D01*
X039551Y004202D01*
X039511Y004232D01*
X039474Y004266D01*
X039440Y004303D01*
X039408Y004342D01*
X039380Y004383D01*
X039355Y004427D01*
X039334Y004472D01*
X039317Y004519D01*
X039303Y004567D01*
X039293Y004616D01*
X039287Y004666D01*
X039285Y004716D01*
X039285Y030185D02*
X039287Y030235D01*
X039293Y030285D01*
X039303Y030334D01*
X039317Y030382D01*
X039334Y030429D01*
X039355Y030474D01*
X039380Y030518D01*
X039408Y030559D01*
X039440Y030598D01*
X039474Y030635D01*
X039511Y030669D01*
X039551Y030699D01*
X039593Y030726D01*
X039637Y030750D01*
X039683Y030771D01*
X039730Y030787D01*
X039778Y030800D01*
X039828Y030809D01*
X039877Y030814D01*
X039928Y030815D01*
X039978Y030812D01*
X040027Y030805D01*
X040076Y030794D01*
X040124Y030779D01*
X040170Y030761D01*
X040215Y030739D01*
X040258Y030713D01*
X040299Y030684D01*
X040338Y030652D01*
X040374Y030617D01*
X040406Y030579D01*
X040436Y030539D01*
X040463Y030496D01*
X040486Y030452D01*
X040505Y030406D01*
X040521Y030358D01*
X040533Y030309D01*
X040541Y030260D01*
X040545Y030210D01*
X040545Y030160D01*
X040541Y030110D01*
X040533Y030061D01*
X040521Y030012D01*
X040505Y029964D01*
X040486Y029918D01*
X040463Y029874D01*
X040436Y029831D01*
X040406Y029791D01*
X040374Y029753D01*
X040338Y029718D01*
X040299Y029686D01*
X040258Y029657D01*
X040215Y029631D01*
X040170Y029609D01*
X040124Y029591D01*
X040076Y029576D01*
X040027Y029565D01*
X039978Y029558D01*
X039928Y029555D01*
X039877Y029556D01*
X039828Y029561D01*
X039778Y029570D01*
X039730Y029583D01*
X039683Y029599D01*
X039637Y029620D01*
X039593Y029644D01*
X039551Y029671D01*
X039511Y029701D01*
X039474Y029735D01*
X039440Y029772D01*
X039408Y029811D01*
X039380Y029852D01*
X039355Y029896D01*
X039334Y029941D01*
X039317Y029988D01*
X039303Y030036D01*
X039293Y030085D01*
X039287Y030135D01*
X039285Y030185D01*
X011285Y033185D02*
X011287Y033235D01*
X011293Y033285D01*
X011303Y033334D01*
X011317Y033382D01*
X011334Y033429D01*
X011355Y033474D01*
X011380Y033518D01*
X011408Y033559D01*
X011440Y033598D01*
X011474Y033635D01*
X011511Y033669D01*
X011551Y033699D01*
X011593Y033726D01*
X011637Y033750D01*
X011683Y033771D01*
X011730Y033787D01*
X011778Y033800D01*
X011828Y033809D01*
X011877Y033814D01*
X011928Y033815D01*
X011978Y033812D01*
X012027Y033805D01*
X012076Y033794D01*
X012124Y033779D01*
X012170Y033761D01*
X012215Y033739D01*
X012258Y033713D01*
X012299Y033684D01*
X012338Y033652D01*
X012374Y033617D01*
X012406Y033579D01*
X012436Y033539D01*
X012463Y033496D01*
X012486Y033452D01*
X012505Y033406D01*
X012521Y033358D01*
X012533Y033309D01*
X012541Y033260D01*
X012545Y033210D01*
X012545Y033160D01*
X012541Y033110D01*
X012533Y033061D01*
X012521Y033012D01*
X012505Y032964D01*
X012486Y032918D01*
X012463Y032874D01*
X012436Y032831D01*
X012406Y032791D01*
X012374Y032753D01*
X012338Y032718D01*
X012299Y032686D01*
X012258Y032657D01*
X012215Y032631D01*
X012170Y032609D01*
X012124Y032591D01*
X012076Y032576D01*
X012027Y032565D01*
X011978Y032558D01*
X011928Y032555D01*
X011877Y032556D01*
X011828Y032561D01*
X011778Y032570D01*
X011730Y032583D01*
X011683Y032599D01*
X011637Y032620D01*
X011593Y032644D01*
X011551Y032671D01*
X011511Y032701D01*
X011474Y032735D01*
X011440Y032772D01*
X011408Y032811D01*
X011380Y032852D01*
X011355Y032896D01*
X011334Y032941D01*
X011317Y032988D01*
X011303Y033036D01*
X011293Y033085D01*
X011287Y033135D01*
X011285Y033185D01*
X007285Y023716D02*
X007287Y023766D01*
X007293Y023816D01*
X007303Y023865D01*
X007317Y023913D01*
X007334Y023960D01*
X007355Y024005D01*
X007380Y024049D01*
X007408Y024090D01*
X007440Y024129D01*
X007474Y024166D01*
X007511Y024200D01*
X007551Y024230D01*
X007593Y024257D01*
X007637Y024281D01*
X007683Y024302D01*
X007730Y024318D01*
X007778Y024331D01*
X007828Y024340D01*
X007877Y024345D01*
X007928Y024346D01*
X007978Y024343D01*
X008027Y024336D01*
X008076Y024325D01*
X008124Y024310D01*
X008170Y024292D01*
X008215Y024270D01*
X008258Y024244D01*
X008299Y024215D01*
X008338Y024183D01*
X008374Y024148D01*
X008406Y024110D01*
X008436Y024070D01*
X008463Y024027D01*
X008486Y023983D01*
X008505Y023937D01*
X008521Y023889D01*
X008533Y023840D01*
X008541Y023791D01*
X008545Y023741D01*
X008545Y023691D01*
X008541Y023641D01*
X008533Y023592D01*
X008521Y023543D01*
X008505Y023495D01*
X008486Y023449D01*
X008463Y023405D01*
X008436Y023362D01*
X008406Y023322D01*
X008374Y023284D01*
X008338Y023249D01*
X008299Y023217D01*
X008258Y023188D01*
X008215Y023162D01*
X008170Y023140D01*
X008124Y023122D01*
X008076Y023107D01*
X008027Y023096D01*
X007978Y023089D01*
X007928Y023086D01*
X007877Y023087D01*
X007828Y023092D01*
X007778Y023101D01*
X007730Y023114D01*
X007683Y023130D01*
X007637Y023151D01*
X007593Y023175D01*
X007551Y023202D01*
X007511Y023232D01*
X007474Y023266D01*
X007440Y023303D01*
X007408Y023342D01*
X007380Y023383D01*
X007355Y023427D01*
X007334Y023472D01*
X007317Y023519D01*
X007303Y023567D01*
X007293Y023616D01*
X007287Y023666D01*
X007285Y023716D01*
X006785Y004716D02*
X006787Y004766D01*
X006793Y004816D01*
X006803Y004865D01*
X006817Y004913D01*
X006834Y004960D01*
X006855Y005005D01*
X006880Y005049D01*
X006908Y005090D01*
X006940Y005129D01*
X006974Y005166D01*
X007011Y005200D01*
X007051Y005230D01*
X007093Y005257D01*
X007137Y005281D01*
X007183Y005302D01*
X007230Y005318D01*
X007278Y005331D01*
X007328Y005340D01*
X007377Y005345D01*
X007428Y005346D01*
X007478Y005343D01*
X007527Y005336D01*
X007576Y005325D01*
X007624Y005310D01*
X007670Y005292D01*
X007715Y005270D01*
X007758Y005244D01*
X007799Y005215D01*
X007838Y005183D01*
X007874Y005148D01*
X007906Y005110D01*
X007936Y005070D01*
X007963Y005027D01*
X007986Y004983D01*
X008005Y004937D01*
X008021Y004889D01*
X008033Y004840D01*
X008041Y004791D01*
X008045Y004741D01*
X008045Y004691D01*
X008041Y004641D01*
X008033Y004592D01*
X008021Y004543D01*
X008005Y004495D01*
X007986Y004449D01*
X007963Y004405D01*
X007936Y004362D01*
X007906Y004322D01*
X007874Y004284D01*
X007838Y004249D01*
X007799Y004217D01*
X007758Y004188D01*
X007715Y004162D01*
X007670Y004140D01*
X007624Y004122D01*
X007576Y004107D01*
X007527Y004096D01*
X007478Y004089D01*
X007428Y004086D01*
X007377Y004087D01*
X007328Y004092D01*
X007278Y004101D01*
X007230Y004114D01*
X007183Y004130D01*
X007137Y004151D01*
X007093Y004175D01*
X007051Y004202D01*
X007011Y004232D01*
X006974Y004266D01*
X006940Y004303D01*
X006908Y004342D01*
X006880Y004383D01*
X006855Y004427D01*
X006834Y004472D01*
X006817Y004519D01*
X006803Y004567D01*
X006793Y004616D01*
X006787Y004666D01*
X006785Y004716D01*
D16*
X006239Y012523D02*
X006027Y012523D01*
X005815Y012734D01*
X005815Y013370D01*
X005180Y013370D02*
X005180Y012734D01*
X005392Y012523D01*
X005604Y012523D01*
X005815Y012734D01*
X006239Y012523D02*
X006451Y012734D01*
X006451Y013370D01*
X005180Y013370D01*
X005280Y018773D02*
X006127Y018773D01*
X006551Y019196D01*
X006127Y019620D01*
X005280Y019620D01*
X005915Y019620D02*
X005915Y018773D01*
D17*
X012856Y026949D03*
X012856Y027421D03*
D18*
X012856Y027185D03*
X013074Y004446D03*
D19*
X011465Y004530D02*
X011465Y005335D01*
X011115Y006135D02*
X009415Y006135D01*
X009065Y005335D02*
X009065Y004542D01*
X009415Y003735D02*
X011115Y003735D01*
X009565Y004935D02*
X009567Y004987D01*
X009573Y005039D01*
X009583Y005091D01*
X009596Y005141D01*
X009613Y005191D01*
X009634Y005239D01*
X009659Y005285D01*
X009687Y005329D01*
X009718Y005371D01*
X009752Y005411D01*
X009789Y005448D01*
X009829Y005482D01*
X009871Y005513D01*
X009915Y005541D01*
X009961Y005566D01*
X010009Y005587D01*
X010059Y005604D01*
X010109Y005617D01*
X010161Y005627D01*
X010213Y005633D01*
X010265Y005635D01*
X010317Y005633D01*
X010369Y005627D01*
X010421Y005617D01*
X010471Y005604D01*
X010521Y005587D01*
X010569Y005566D01*
X010615Y005541D01*
X010659Y005513D01*
X010701Y005482D01*
X010741Y005448D01*
X010778Y005411D01*
X010812Y005371D01*
X010843Y005329D01*
X010871Y005285D01*
X010896Y005239D01*
X010917Y005191D01*
X010934Y005141D01*
X010947Y005091D01*
X010957Y005039D01*
X010963Y004987D01*
X010965Y004935D01*
X010963Y004883D01*
X010957Y004831D01*
X010947Y004779D01*
X010934Y004729D01*
X010917Y004679D01*
X010896Y004631D01*
X010871Y004585D01*
X010843Y004541D01*
X010812Y004499D01*
X010778Y004459D01*
X010741Y004422D01*
X010701Y004388D01*
X010659Y004357D01*
X010615Y004329D01*
X010569Y004304D01*
X010521Y004283D01*
X010471Y004266D01*
X010421Y004253D01*
X010369Y004243D01*
X010317Y004237D01*
X010265Y004235D01*
X010213Y004237D01*
X010161Y004243D01*
X010109Y004253D01*
X010059Y004266D01*
X010009Y004283D01*
X009961Y004304D01*
X009915Y004329D01*
X009871Y004357D01*
X009829Y004388D01*
X009789Y004422D01*
X009752Y004459D01*
X009718Y004499D01*
X009687Y004541D01*
X009659Y004585D01*
X009634Y004631D01*
X009613Y004679D01*
X009596Y004729D01*
X009583Y004779D01*
X009573Y004831D01*
X009567Y004883D01*
X009565Y004935D01*
X014265Y007545D02*
X014265Y010125D01*
X016625Y010125D01*
X016625Y007545D02*
X014265Y007545D01*
X011437Y012567D02*
X009193Y012567D01*
X008838Y012921D01*
X008838Y013433D01*
X008838Y014299D02*
X008838Y014811D01*
X009193Y015165D01*
X011437Y015165D01*
X011437Y014299D01*
X011437Y013433D02*
X011437Y012567D01*
X011298Y013492D02*
X011275Y013427D01*
X011249Y013364D01*
X011219Y013303D01*
X011185Y013243D01*
X011149Y013185D01*
X011109Y013129D01*
X011066Y013076D01*
X011020Y013025D01*
X010971Y012977D01*
X010920Y012932D01*
X010866Y012889D01*
X010810Y012850D01*
X010752Y012814D01*
X010691Y012781D01*
X010629Y012752D01*
X010566Y012726D01*
X010501Y012704D01*
X010435Y012685D01*
X010368Y012671D01*
X010301Y012660D01*
X010232Y012653D01*
X010164Y012649D01*
X010095Y012650D01*
X010027Y012654D01*
X009959Y012663D01*
X009892Y012675D01*
X009825Y012690D01*
X009759Y012710D01*
X009695Y012733D01*
X009632Y012760D01*
X009570Y012791D01*
X009511Y012824D01*
X009453Y012861D01*
X009398Y012902D01*
X009345Y012945D01*
X009294Y012991D01*
X009246Y013040D01*
X009201Y013092D01*
X009159Y013146D01*
X009120Y013202D01*
X009084Y013261D01*
X009052Y013321D01*
X009023Y013383D01*
X008997Y013447D01*
X008976Y013512D01*
X008976Y014240D02*
X008999Y014305D01*
X009025Y014368D01*
X009055Y014429D01*
X009089Y014489D01*
X009125Y014547D01*
X009165Y014603D01*
X009208Y014656D01*
X009254Y014707D01*
X009303Y014755D01*
X009354Y014800D01*
X009408Y014843D01*
X009464Y014882D01*
X009522Y014918D01*
X009583Y014951D01*
X009645Y014980D01*
X009708Y015006D01*
X009773Y015028D01*
X009839Y015047D01*
X009906Y015061D01*
X009973Y015072D01*
X010042Y015079D01*
X010110Y015083D01*
X010179Y015082D01*
X010247Y015078D01*
X010315Y015069D01*
X010382Y015057D01*
X010449Y015042D01*
X010515Y015022D01*
X010579Y014999D01*
X010642Y014972D01*
X010704Y014941D01*
X010763Y014908D01*
X010821Y014871D01*
X010876Y014830D01*
X010929Y014787D01*
X010980Y014741D01*
X011028Y014692D01*
X011073Y014640D01*
X011115Y014586D01*
X011154Y014530D01*
X011190Y014471D01*
X011222Y014411D01*
X011251Y014349D01*
X011277Y014285D01*
X011298Y014220D01*
X008505Y015878D02*
X008151Y015523D01*
X007639Y015523D01*
X006773Y015523D02*
X006261Y015523D01*
X005907Y015878D01*
X005907Y018122D01*
X006773Y018122D01*
X007639Y018122D02*
X008505Y018122D01*
X008505Y015878D01*
X006832Y015662D02*
X006767Y015685D01*
X006704Y015711D01*
X006643Y015741D01*
X006583Y015775D01*
X006525Y015811D01*
X006469Y015851D01*
X006416Y015894D01*
X006365Y015940D01*
X006317Y015989D01*
X006272Y016040D01*
X006229Y016094D01*
X006190Y016150D01*
X006154Y016208D01*
X006121Y016269D01*
X006092Y016331D01*
X006066Y016394D01*
X006044Y016459D01*
X006025Y016525D01*
X006011Y016592D01*
X006000Y016659D01*
X005993Y016728D01*
X005989Y016796D01*
X005990Y016865D01*
X005994Y016933D01*
X006003Y017001D01*
X006015Y017068D01*
X006030Y017135D01*
X006050Y017201D01*
X006073Y017265D01*
X006100Y017328D01*
X006131Y017390D01*
X006164Y017449D01*
X006201Y017507D01*
X006242Y017562D01*
X006285Y017615D01*
X006331Y017666D01*
X006380Y017714D01*
X006432Y017759D01*
X006486Y017801D01*
X006542Y017840D01*
X006601Y017876D01*
X006661Y017908D01*
X006723Y017937D01*
X006787Y017963D01*
X006852Y017984D01*
X007580Y017984D02*
X007645Y017961D01*
X007708Y017935D01*
X007769Y017905D01*
X007829Y017871D01*
X007887Y017835D01*
X007943Y017795D01*
X007996Y017752D01*
X008047Y017706D01*
X008095Y017657D01*
X008140Y017606D01*
X008183Y017552D01*
X008222Y017496D01*
X008258Y017438D01*
X008291Y017377D01*
X008320Y017315D01*
X008346Y017252D01*
X008368Y017187D01*
X008387Y017121D01*
X008401Y017054D01*
X008412Y016987D01*
X008419Y016918D01*
X008423Y016850D01*
X008422Y016781D01*
X008418Y016713D01*
X008409Y016645D01*
X008397Y016578D01*
X008382Y016511D01*
X008362Y016445D01*
X008339Y016381D01*
X008312Y016318D01*
X008281Y016256D01*
X008248Y016197D01*
X008211Y016139D01*
X008170Y016084D01*
X008127Y016031D01*
X008081Y015980D01*
X008032Y015932D01*
X007980Y015887D01*
X007926Y015845D01*
X007870Y015806D01*
X007811Y015770D01*
X007751Y015738D01*
X007689Y015709D01*
X007625Y015683D01*
X007560Y015662D01*
X004932Y016295D02*
X004617Y016295D01*
X004617Y022240D01*
X004932Y022240D01*
X004932Y016295D01*
X004617Y016295D02*
X002176Y016295D01*
X002176Y022240D01*
X004617Y022240D01*
X004615Y021251D02*
X004115Y021251D01*
X003865Y021001D01*
X003865Y020501D01*
X004115Y020251D01*
X003865Y020001D01*
X003865Y019501D01*
X004115Y019251D01*
X003865Y019001D01*
X003865Y018501D01*
X004115Y018251D01*
X003865Y018001D01*
X003865Y017501D01*
X004115Y017251D01*
X004615Y017251D01*
X004865Y017501D01*
X004865Y018001D01*
X004615Y018251D01*
X004865Y018501D01*
X004865Y019001D01*
X004615Y019251D01*
X004865Y019501D01*
X004865Y020001D01*
X004615Y020251D01*
X004865Y020501D01*
X004865Y021001D01*
X004615Y021251D01*
X002655Y024740D02*
X010726Y024740D01*
X011021Y024740D01*
X011021Y034386D01*
X010726Y034386D01*
X010726Y033401D01*
X002655Y033401D01*
X002655Y034386D01*
X010726Y034386D01*
X012993Y033804D02*
X012993Y032505D01*
X013426Y032505D01*
X013426Y033804D02*
X012993Y033804D01*
X014096Y033922D02*
X014096Y034592D01*
X015434Y034592D01*
X015434Y033962D01*
X016104Y033804D02*
X016537Y033804D01*
X016537Y032505D01*
X016104Y032505D01*
X010726Y025724D02*
X002655Y025724D01*
X002655Y024740D01*
X000391Y027319D02*
X000155Y027594D01*
X000155Y031531D01*
X000391Y031807D01*
X010726Y025724D02*
X010726Y024740D01*
X011414Y021481D02*
X009170Y021481D01*
X008815Y021127D01*
X008815Y020615D01*
X008815Y019749D02*
X008815Y019237D01*
X009170Y018883D01*
X011414Y018883D01*
X011414Y019749D01*
X011414Y020615D02*
X011414Y021481D01*
X011276Y019808D02*
X011253Y019743D01*
X011227Y019680D01*
X011197Y019619D01*
X011163Y019559D01*
X011127Y019501D01*
X011087Y019445D01*
X011044Y019392D01*
X010998Y019341D01*
X010949Y019293D01*
X010898Y019248D01*
X010844Y019205D01*
X010788Y019166D01*
X010730Y019130D01*
X010669Y019097D01*
X010607Y019068D01*
X010544Y019042D01*
X010479Y019020D01*
X010413Y019001D01*
X010346Y018987D01*
X010279Y018976D01*
X010210Y018969D01*
X010142Y018965D01*
X010073Y018966D01*
X010005Y018970D01*
X009937Y018979D01*
X009870Y018991D01*
X009803Y019006D01*
X009737Y019026D01*
X009673Y019049D01*
X009610Y019076D01*
X009548Y019107D01*
X009489Y019140D01*
X009431Y019177D01*
X009376Y019218D01*
X009323Y019261D01*
X009272Y019307D01*
X009224Y019356D01*
X009179Y019408D01*
X009137Y019462D01*
X009098Y019518D01*
X009062Y019577D01*
X009030Y019637D01*
X009001Y019699D01*
X008975Y019763D01*
X008954Y019828D01*
X008953Y020556D02*
X008976Y020621D01*
X009002Y020684D01*
X009032Y020745D01*
X009066Y020805D01*
X009102Y020863D01*
X009142Y020919D01*
X009185Y020972D01*
X009231Y021023D01*
X009280Y021071D01*
X009331Y021116D01*
X009385Y021159D01*
X009441Y021198D01*
X009499Y021234D01*
X009560Y021267D01*
X009622Y021296D01*
X009685Y021322D01*
X009750Y021344D01*
X009816Y021363D01*
X009883Y021377D01*
X009950Y021388D01*
X010019Y021395D01*
X010087Y021399D01*
X010156Y021398D01*
X010224Y021394D01*
X010292Y021385D01*
X010359Y021373D01*
X010426Y021358D01*
X010492Y021338D01*
X010556Y021315D01*
X010619Y021288D01*
X010681Y021257D01*
X010740Y021224D01*
X010798Y021187D01*
X010853Y021146D01*
X010906Y021103D01*
X010957Y021057D01*
X011005Y021008D01*
X011050Y020956D01*
X011092Y020902D01*
X011131Y020846D01*
X011167Y020787D01*
X011199Y020727D01*
X011228Y020665D01*
X011254Y020601D01*
X011275Y020536D01*
X004815Y014604D02*
X004565Y014854D01*
X004065Y014854D01*
X003815Y014604D01*
X003815Y014104D01*
X004065Y013854D01*
X003815Y013604D01*
X003815Y013104D01*
X004065Y012854D01*
X003815Y012604D01*
X003815Y012104D01*
X004065Y011854D01*
X003815Y011604D01*
X003815Y011104D01*
X004065Y010854D01*
X004565Y010854D01*
X004815Y011104D01*
X004815Y011604D01*
X004565Y011854D01*
X004815Y012104D01*
X004815Y012604D01*
X004565Y012854D01*
X004815Y013104D01*
X004815Y013604D01*
X004565Y013854D01*
X004815Y014104D01*
X004815Y014604D01*
D20*
X010222Y014763D02*
X010369Y014763D01*
X010442Y014836D01*
X010369Y014909D01*
X010222Y014909D01*
X010295Y014984D02*
X010295Y015020D01*
X010332Y015057D01*
X010295Y015094D01*
X010332Y015130D01*
X010442Y015130D01*
X010442Y015057D02*
X010332Y015057D01*
X010295Y014984D02*
X010442Y014984D01*
X010406Y015205D02*
X010442Y015241D01*
X010442Y015315D01*
X010406Y015351D01*
X010332Y015351D01*
X010295Y015315D01*
X010295Y015241D01*
X010332Y015205D01*
X010406Y015205D01*
X010295Y015426D02*
X010295Y015499D01*
X010259Y015462D02*
X010406Y015462D01*
X010442Y015499D01*
X011222Y015462D02*
X011222Y015352D01*
X011442Y015352D01*
X011442Y015462D01*
X011406Y015499D01*
X011259Y015499D01*
X011222Y015462D01*
X011222Y015278D02*
X011442Y015278D01*
X011222Y015131D01*
X011442Y015131D01*
X011406Y015057D02*
X011332Y015057D01*
X011332Y014983D01*
X011259Y014910D02*
X011406Y014910D01*
X011442Y014947D01*
X011442Y015020D01*
X011406Y015057D01*
X011259Y015057D02*
X011222Y015020D01*
X011222Y014947D01*
X011259Y014910D01*
X012222Y015168D02*
X012259Y015131D01*
X012222Y015168D02*
X012222Y015241D01*
X012259Y015278D01*
X012295Y015278D01*
X012442Y015131D01*
X012442Y015278D01*
X012442Y015352D02*
X012442Y015462D01*
X012406Y015499D01*
X012369Y015499D01*
X012332Y015462D01*
X012332Y015352D01*
X012332Y015462D02*
X012295Y015499D01*
X012259Y015499D01*
X012222Y015462D01*
X012222Y015352D01*
X012442Y015352D01*
X013222Y015425D02*
X013295Y015499D01*
X013442Y015499D01*
X013332Y015499D02*
X013332Y015352D01*
X013295Y015352D02*
X013222Y015425D01*
X013295Y015352D02*
X013442Y015352D01*
X013442Y015278D02*
X013442Y015131D01*
X013295Y015278D01*
X013259Y015278D01*
X013222Y015241D01*
X013222Y015168D01*
X013259Y015131D01*
X014222Y015204D02*
X014442Y015204D01*
X014442Y015131D02*
X014442Y015278D01*
X014442Y015352D02*
X014295Y015352D01*
X014222Y015425D01*
X014295Y015499D01*
X014442Y015499D01*
X014332Y015499D02*
X014332Y015352D01*
X014222Y015204D02*
X014295Y015131D01*
X015222Y015204D02*
X015442Y015204D01*
X015442Y015131D02*
X015442Y015278D01*
X015442Y015352D02*
X015442Y015462D01*
X015406Y015499D01*
X015369Y015499D01*
X015332Y015462D01*
X015332Y015352D01*
X015332Y015462D02*
X015295Y015499D01*
X015259Y015499D01*
X015222Y015462D01*
X015222Y015352D01*
X015442Y015352D01*
X015295Y015131D02*
X015222Y015204D01*
X016222Y015241D02*
X016222Y015131D01*
X016442Y015131D01*
X016442Y015241D01*
X016406Y015278D01*
X016259Y015278D01*
X016222Y015241D01*
X016222Y015352D02*
X016222Y015462D01*
X016259Y015499D01*
X016406Y015499D01*
X016442Y015462D01*
X016442Y015352D01*
X016222Y015352D01*
X016222Y015057D02*
X016369Y015057D01*
X016442Y014983D01*
X016369Y014910D01*
X016222Y014910D01*
X017222Y014947D02*
X017259Y014910D01*
X017406Y014910D01*
X017442Y014947D01*
X017442Y015020D01*
X017406Y015057D01*
X017332Y015057D01*
X017332Y014983D01*
X017259Y015057D02*
X017222Y015020D01*
X017222Y014947D01*
X017222Y015131D02*
X017442Y015278D01*
X017222Y015278D01*
X017222Y015352D02*
X017222Y015462D01*
X017259Y015499D01*
X017406Y015499D01*
X017442Y015462D01*
X017442Y015352D01*
X017222Y015352D01*
X017222Y015131D02*
X017442Y015131D01*
X016592Y012383D02*
X016629Y012346D01*
X016629Y012236D01*
X016702Y012236D02*
X016482Y012236D01*
X016482Y012346D01*
X016519Y012383D01*
X016592Y012383D01*
X016482Y012162D02*
X016482Y012015D01*
X016702Y012015D01*
X016702Y012162D01*
X016592Y012088D02*
X016592Y012015D01*
X016482Y011941D02*
X016482Y011794D01*
X016482Y011867D02*
X016702Y011867D01*
X016666Y011720D02*
X016702Y011683D01*
X016702Y011610D01*
X016666Y011573D01*
X016592Y011610D02*
X016592Y011683D01*
X016629Y011720D01*
X016666Y011720D01*
X016592Y011610D02*
X016555Y011573D01*
X016519Y011573D01*
X016482Y011610D01*
X016482Y011683D01*
X016519Y011720D01*
X015702Y011683D02*
X015702Y011610D01*
X015666Y011573D01*
X015592Y011610D02*
X015592Y011683D01*
X015629Y011720D01*
X015666Y011720D01*
X015702Y011683D01*
X015702Y011794D02*
X015702Y011941D01*
X015702Y012015D02*
X015482Y012015D01*
X015482Y012125D01*
X015519Y012162D01*
X015592Y012162D01*
X015629Y012125D01*
X015629Y012015D01*
X015702Y011794D02*
X015482Y011794D01*
X015519Y011720D02*
X015482Y011683D01*
X015482Y011610D01*
X015519Y011573D01*
X015555Y011573D01*
X015592Y011610D01*
X014702Y011573D02*
X014482Y011573D01*
X014482Y011683D01*
X014519Y011720D01*
X014592Y011720D01*
X014629Y011683D01*
X014629Y011573D01*
X014629Y011646D02*
X014702Y011720D01*
X014666Y011794D02*
X014702Y011831D01*
X014702Y011904D01*
X014666Y011941D01*
X014629Y011941D01*
X014592Y011904D01*
X014592Y011831D01*
X014555Y011794D01*
X014519Y011794D01*
X014482Y011831D01*
X014482Y011904D01*
X014519Y011941D01*
X014482Y012015D02*
X014482Y012162D01*
X014482Y012088D02*
X014702Y012088D01*
X013702Y012051D02*
X013666Y012015D01*
X013702Y012051D02*
X013702Y012125D01*
X013666Y012162D01*
X013629Y012162D01*
X013592Y012125D01*
X013592Y012088D01*
X013592Y012125D02*
X013555Y012162D01*
X013519Y012162D01*
X013482Y012125D01*
X013482Y012051D01*
X013519Y012015D01*
X013519Y011941D02*
X013482Y011904D01*
X013482Y011831D01*
X013519Y011794D01*
X013555Y011794D01*
X013592Y011831D01*
X013592Y011904D01*
X013629Y011941D01*
X013666Y011941D01*
X013702Y011904D01*
X013702Y011831D01*
X013666Y011794D01*
X013702Y011720D02*
X013482Y011720D01*
X013555Y011646D01*
X013482Y011573D01*
X013702Y011573D01*
X012702Y011573D02*
X012482Y011573D01*
X012555Y011646D01*
X012482Y011720D01*
X012702Y011720D01*
X012666Y011794D02*
X012702Y011831D01*
X012702Y011904D01*
X012666Y011941D01*
X012629Y011941D01*
X012592Y011904D01*
X012592Y011831D01*
X012555Y011794D01*
X012519Y011794D01*
X012482Y011831D01*
X012482Y011904D01*
X012519Y011941D01*
X012519Y012015D02*
X012482Y012051D01*
X012482Y012125D01*
X012519Y012162D01*
X012555Y012162D01*
X012702Y012015D01*
X012702Y012162D01*
X011702Y012162D02*
X011702Y012015D01*
X011702Y012088D02*
X011482Y012088D01*
X011555Y012015D01*
X011519Y011941D02*
X011482Y011904D01*
X011482Y011831D01*
X011519Y011794D01*
X011555Y011794D01*
X011592Y011831D01*
X011592Y011904D01*
X011629Y011941D01*
X011666Y011941D01*
X011702Y011904D01*
X011702Y011831D01*
X011666Y011794D01*
X011702Y011720D02*
X011482Y011720D01*
X011555Y011646D01*
X011482Y011573D01*
X011702Y011573D01*
X010702Y011573D02*
X010702Y011720D01*
X010702Y011794D02*
X010482Y011794D01*
X010702Y011941D01*
X010482Y011941D01*
X010482Y011720D02*
X010482Y011573D01*
X010702Y011573D01*
X010592Y011573D02*
X010592Y011646D01*
X017482Y011683D02*
X017482Y011573D01*
X017702Y011573D01*
X017702Y011683D01*
X017666Y011720D01*
X017519Y011720D01*
X017482Y011683D01*
X017482Y011794D02*
X017482Y011867D01*
X017482Y011831D02*
X017702Y011831D01*
X017702Y011867D02*
X017702Y011794D01*
X017702Y011941D02*
X017482Y011941D01*
X017482Y012051D01*
X017519Y012088D01*
X017592Y012088D01*
X017629Y012051D01*
X017629Y011941D01*
X017629Y012015D02*
X017702Y012088D01*
X017683Y017892D02*
X017462Y017892D01*
X017462Y018002D01*
X017499Y018039D01*
X017646Y018039D01*
X017683Y018002D01*
X017683Y017892D01*
X017683Y018113D02*
X017683Y018186D01*
X017683Y018149D02*
X017462Y018149D01*
X017462Y018113D02*
X017462Y018186D01*
X017462Y018260D02*
X017462Y018370D01*
X017499Y018407D01*
X017572Y018407D01*
X017609Y018370D01*
X017609Y018260D01*
X017609Y018333D02*
X017683Y018407D01*
X017683Y018260D02*
X017462Y018260D01*
X016683Y018334D02*
X016683Y018480D01*
X016683Y018555D02*
X016462Y018555D01*
X016462Y018665D01*
X016499Y018701D01*
X016572Y018701D01*
X016609Y018665D01*
X016609Y018555D01*
X016572Y018407D02*
X016572Y018334D01*
X016462Y018334D02*
X016683Y018334D01*
X016683Y018186D02*
X016462Y018186D01*
X016462Y018113D02*
X016462Y018259D01*
X016462Y018334D02*
X016462Y018480D01*
X016499Y018039D02*
X016462Y018002D01*
X016462Y017928D01*
X016499Y017892D01*
X016536Y017892D01*
X016572Y017928D01*
X016572Y018002D01*
X016609Y018039D01*
X016646Y018039D01*
X016683Y018002D01*
X016683Y017928D01*
X016646Y017892D01*
X015683Y017928D02*
X015646Y017892D01*
X015683Y017928D02*
X015683Y018002D01*
X015646Y018039D01*
X015609Y018039D01*
X015572Y018002D01*
X015572Y017928D01*
X015536Y017892D01*
X015499Y017892D01*
X015462Y017928D01*
X015462Y018002D01*
X015499Y018039D01*
X015462Y018113D02*
X015683Y018113D01*
X015683Y018259D01*
X015683Y018334D02*
X015462Y018334D01*
X015462Y018444D01*
X015499Y018480D01*
X015572Y018480D01*
X015609Y018444D01*
X015609Y018334D01*
X014683Y018407D02*
X014462Y018407D01*
X014462Y018334D02*
X014462Y018480D01*
X014499Y018259D02*
X014462Y018223D01*
X014462Y018149D01*
X014499Y018113D01*
X014536Y018113D01*
X014572Y018149D01*
X014572Y018223D01*
X014609Y018259D01*
X014646Y018259D01*
X014683Y018223D01*
X014683Y018149D01*
X014646Y018113D01*
X014683Y018039D02*
X014609Y017965D01*
X014609Y018002D02*
X014609Y017892D01*
X014683Y017892D02*
X014462Y017892D01*
X014462Y018002D01*
X014499Y018039D01*
X014572Y018039D01*
X014609Y018002D01*
X013683Y018039D02*
X013462Y018039D01*
X013536Y017965D01*
X013462Y017892D01*
X013683Y017892D01*
X013646Y018113D02*
X013683Y018149D01*
X013683Y018223D01*
X013646Y018259D01*
X013609Y018259D01*
X013572Y018223D01*
X013572Y018149D01*
X013536Y018113D01*
X013499Y018113D01*
X013462Y018149D01*
X013462Y018223D01*
X013499Y018259D01*
X013499Y018334D02*
X013462Y018370D01*
X013462Y018444D01*
X013499Y018480D01*
X013536Y018480D01*
X013572Y018444D01*
X013609Y018480D01*
X013646Y018480D01*
X013683Y018444D01*
X013683Y018370D01*
X013646Y018334D01*
X013572Y018407D02*
X013572Y018444D01*
X012683Y018480D02*
X012683Y018334D01*
X012536Y018480D01*
X012499Y018480D01*
X012462Y018444D01*
X012462Y018370D01*
X012499Y018334D01*
X012499Y018259D02*
X012462Y018223D01*
X012462Y018149D01*
X012499Y018113D01*
X012536Y018113D01*
X012572Y018149D01*
X012572Y018223D01*
X012609Y018259D01*
X012646Y018259D01*
X012683Y018223D01*
X012683Y018149D01*
X012646Y018113D01*
X012683Y018039D02*
X012462Y018039D01*
X012536Y017965D01*
X012462Y017892D01*
X012683Y017892D01*
X011683Y017892D02*
X011462Y017892D01*
X011536Y017965D01*
X011462Y018039D01*
X011683Y018039D01*
X011646Y018113D02*
X011683Y018149D01*
X011683Y018223D01*
X011646Y018259D01*
X011609Y018259D01*
X011572Y018223D01*
X011572Y018149D01*
X011536Y018113D01*
X011499Y018113D01*
X011462Y018149D01*
X011462Y018223D01*
X011499Y018259D01*
X011536Y018334D02*
X011462Y018407D01*
X011683Y018407D01*
X011683Y018334D02*
X011683Y018480D01*
X010683Y018259D02*
X010462Y018259D01*
X010462Y018113D02*
X010683Y018259D01*
X010683Y018113D02*
X010462Y018113D01*
X010462Y018039D02*
X010462Y017892D01*
X010683Y017892D01*
X010683Y018039D01*
X010572Y017965D02*
X010572Y017892D01*
X010349Y021081D02*
X010423Y021155D01*
X010349Y021228D01*
X010202Y021228D01*
X010276Y021302D02*
X010276Y021339D01*
X010312Y021376D01*
X010276Y021413D01*
X010312Y021449D01*
X010423Y021449D01*
X010423Y021376D02*
X010312Y021376D01*
X010276Y021302D02*
X010423Y021302D01*
X010386Y021523D02*
X010423Y021560D01*
X010423Y021634D01*
X010386Y021670D01*
X010312Y021670D01*
X010276Y021634D01*
X010276Y021560D01*
X010312Y021523D01*
X010386Y021523D01*
X010276Y021744D02*
X010276Y021818D01*
X010239Y021781D02*
X010386Y021781D01*
X010423Y021818D01*
X010349Y021081D02*
X010202Y021081D01*
X011202Y021265D02*
X011239Y021229D01*
X011386Y021229D01*
X011423Y021265D01*
X011423Y021339D01*
X011386Y021376D01*
X011312Y021376D01*
X011312Y021302D01*
X011239Y021376D02*
X011202Y021339D01*
X011202Y021265D01*
X011202Y021450D02*
X011423Y021597D01*
X011202Y021597D01*
X011202Y021671D02*
X011202Y021781D01*
X011239Y021818D01*
X011386Y021818D01*
X011423Y021781D01*
X011423Y021671D01*
X011202Y021671D01*
X011202Y021450D02*
X011423Y021450D01*
X012202Y021486D02*
X012239Y021450D01*
X012202Y021486D02*
X012202Y021560D01*
X012239Y021597D01*
X012276Y021597D01*
X012423Y021450D01*
X012423Y021597D01*
X012423Y021671D02*
X012423Y021781D01*
X012386Y021818D01*
X012349Y021818D01*
X012312Y021781D01*
X012312Y021671D01*
X012202Y021671D02*
X012423Y021671D01*
X012312Y021781D02*
X012276Y021818D01*
X012239Y021818D01*
X012202Y021781D01*
X012202Y021671D01*
X013202Y021744D02*
X013276Y021818D01*
X013423Y021818D01*
X013312Y021818D02*
X013312Y021671D01*
X013276Y021671D02*
X013202Y021744D01*
X013276Y021671D02*
X013423Y021671D01*
X013423Y021597D02*
X013423Y021450D01*
X013276Y021597D01*
X013239Y021597D01*
X013202Y021560D01*
X013202Y021486D01*
X013239Y021450D01*
X014202Y021523D02*
X014423Y021523D01*
X014423Y021450D02*
X014423Y021597D01*
X014423Y021671D02*
X014276Y021671D01*
X014202Y021744D01*
X014276Y021818D01*
X014423Y021818D01*
X014312Y021818D02*
X014312Y021671D01*
X014202Y021523D02*
X014276Y021450D01*
X015202Y021523D02*
X015423Y021523D01*
X015423Y021450D02*
X015423Y021597D01*
X015423Y021671D02*
X015423Y021781D01*
X015386Y021818D01*
X015349Y021818D01*
X015312Y021781D01*
X015312Y021671D01*
X015202Y021671D02*
X015202Y021781D01*
X015239Y021818D01*
X015276Y021818D01*
X015312Y021781D01*
X015202Y021671D02*
X015423Y021671D01*
X015276Y021450D02*
X015202Y021523D01*
X016202Y021560D02*
X016202Y021450D01*
X016423Y021450D01*
X016423Y021560D01*
X016386Y021597D01*
X016239Y021597D01*
X016202Y021560D01*
X016202Y021671D02*
X016202Y021781D01*
X016239Y021818D01*
X016386Y021818D01*
X016423Y021781D01*
X016423Y021671D01*
X016202Y021671D01*
X016202Y021376D02*
X016349Y021376D01*
X016423Y021302D01*
X016349Y021229D01*
X016202Y021229D01*
X017202Y021265D02*
X017239Y021229D01*
X017386Y021229D01*
X017423Y021265D01*
X017423Y021339D01*
X017386Y021376D01*
X017312Y021376D01*
X017312Y021302D01*
X017239Y021376D02*
X017202Y021339D01*
X017202Y021265D01*
X017202Y021450D02*
X017423Y021597D01*
X017202Y021597D01*
X017202Y021671D02*
X017202Y021781D01*
X017239Y021818D01*
X017386Y021818D01*
X017423Y021781D01*
X017423Y021671D01*
X017202Y021671D01*
X017202Y021450D02*
X017423Y021450D01*
X003407Y029557D02*
X003409Y029584D01*
X003415Y029611D01*
X003424Y029637D01*
X003437Y029661D01*
X003453Y029684D01*
X003472Y029703D01*
X003494Y029720D01*
X003518Y029734D01*
X003543Y029744D01*
X003570Y029751D01*
X003597Y029754D01*
X003625Y029753D01*
X003652Y029748D01*
X003678Y029740D01*
X003702Y029728D01*
X003725Y029712D01*
X003746Y029694D01*
X003763Y029673D01*
X003778Y029649D01*
X003789Y029624D01*
X003797Y029598D01*
X003801Y029571D01*
X003801Y029543D01*
X003797Y029516D01*
X003789Y029490D01*
X003778Y029465D01*
X003763Y029441D01*
X003746Y029420D01*
X003725Y029402D01*
X003703Y029386D01*
X003678Y029374D01*
X003652Y029366D01*
X003625Y029361D01*
X003597Y029360D01*
X003570Y029363D01*
X003543Y029370D01*
X003518Y029380D01*
X003494Y029394D01*
X003472Y029411D01*
X003453Y029430D01*
X003437Y029453D01*
X003424Y029477D01*
X003415Y029503D01*
X003409Y029530D01*
X003407Y029557D01*
D21*
X012876Y029185D03*
X012876Y030185D03*
X012954Y031185D03*
X012954Y028185D03*
D22*
X002510Y017100D02*
X002510Y017000D01*
X002410Y017100D01*
X002385Y017100D01*
X002360Y017075D01*
X002360Y017025D01*
X002385Y017000D01*
X002385Y016953D02*
X002435Y016953D01*
X002460Y016928D01*
X002460Y016853D01*
X002510Y016853D02*
X002360Y016853D01*
X002360Y016928D01*
X002385Y016953D01*
X002360Y016806D02*
X002360Y016756D01*
X002360Y016781D02*
X002485Y016781D01*
X002510Y016756D01*
X002510Y016731D01*
X002485Y016706D01*
D23*
X012838Y004446D03*
X013311Y004446D03*
D24*
X014075Y008835D03*
M02*
