G75*
G70*
%OFA0B0*%
%FSLAX24Y24*%
%IPPOS*%
%LPD*%
%AMOC8*
5,1,8,0,0,1.08239X$1,22.5*
%
%ADD10C,0.0160*%
%ADD11C,0.0030*%
%ADD12C,0.0060*%
%ADD13C,0.0040*%
%ADD14C,0.0050*%
%ADD15C,0.0230*%
%ADD16C,0.0000*%
%ADD17R,0.0118X0.0059*%
%ADD18R,0.0118X0.0118*%
%ADD19C,0.0080*%
%ADD20C,0.0020*%
%ADD21C,0.0010*%
%ADD22R,0.0059X0.0118*%
D10*
X002220Y002007D02*
X003007Y001220D01*
X040803Y001220D01*
X041590Y002007D01*
X041590Y031929D01*
X040803Y032716D01*
X003007Y032716D01*
X002220Y031929D01*
X002220Y002007D01*
X016326Y027746D02*
X016326Y028731D01*
X016326Y029676D01*
X019628Y029676D01*
X019628Y028731D01*
X019628Y027746D01*
X016326Y027746D01*
X016326Y028731D02*
X019628Y028731D01*
D11*
X014255Y028523D02*
X014255Y028330D01*
X014255Y028426D02*
X013965Y028426D01*
X014062Y028330D01*
X014110Y028228D02*
X014158Y028180D01*
X014158Y028035D01*
X014158Y028132D02*
X014255Y028228D01*
X014110Y028228D02*
X014013Y028228D01*
X013965Y028180D01*
X013965Y028035D01*
X014255Y028035D01*
X013647Y027940D02*
X013523Y027817D01*
X013647Y027694D01*
X013276Y027694D01*
X013338Y027572D02*
X013276Y027510D01*
X013276Y027387D01*
X013338Y027325D01*
X013400Y027325D01*
X013461Y027387D01*
X013461Y027510D01*
X013523Y027572D01*
X013585Y027572D01*
X013647Y027510D01*
X013647Y027387D01*
X013585Y027325D01*
X013585Y027204D02*
X013647Y027142D01*
X013647Y027019D01*
X013585Y026957D01*
X013523Y026957D01*
X013461Y027019D01*
X013400Y026957D01*
X013338Y026957D01*
X013276Y027019D01*
X013276Y027142D01*
X013338Y027204D01*
X013461Y027080D02*
X013461Y027019D01*
X012647Y026969D02*
X012647Y027092D01*
X012585Y027154D01*
X012585Y027275D02*
X012647Y027337D01*
X012647Y027460D01*
X012585Y027522D01*
X012523Y027522D01*
X012461Y027460D01*
X012461Y027337D01*
X012400Y027275D01*
X012338Y027275D01*
X012276Y027337D01*
X012276Y027460D01*
X012338Y027522D01*
X012276Y027644D02*
X012647Y027644D01*
X012523Y027767D01*
X012647Y027890D01*
X012276Y027890D01*
X011547Y027840D02*
X011423Y027717D01*
X011547Y027594D01*
X011176Y027594D01*
X011238Y027472D02*
X011176Y027410D01*
X011176Y027287D01*
X011238Y027225D01*
X011300Y027225D01*
X011361Y027287D01*
X011361Y027410D01*
X011423Y027472D01*
X011485Y027472D01*
X011547Y027410D01*
X011547Y027287D01*
X011485Y027225D01*
X011423Y027104D02*
X011547Y026980D01*
X011176Y026980D01*
X011176Y026857D02*
X011176Y027104D01*
X011176Y027840D02*
X011547Y027840D01*
X011418Y028136D02*
X011225Y028136D01*
X011322Y028136D02*
X011322Y028426D01*
X011225Y028329D01*
X011124Y028378D02*
X011075Y028426D01*
X010979Y028426D01*
X010930Y028378D01*
X010930Y028184D01*
X010979Y028136D01*
X011075Y028136D01*
X011124Y028184D01*
X012276Y027154D02*
X012523Y026907D01*
X012585Y026907D01*
X012647Y026969D01*
X012276Y026907D02*
X012276Y027154D01*
X013276Y027940D02*
X013647Y027940D01*
X014013Y026323D02*
X013965Y026275D01*
X013965Y026178D01*
X014013Y026130D01*
X014013Y026028D02*
X014110Y026028D01*
X014158Y025980D01*
X014158Y025835D01*
X014158Y025932D02*
X014255Y026028D01*
X014255Y026130D02*
X014062Y026323D01*
X014013Y026323D01*
X014255Y026323D02*
X014255Y026130D01*
X014013Y026028D02*
X013965Y025980D01*
X013965Y025835D01*
X014255Y025835D01*
X015832Y021525D02*
X015832Y021235D01*
X015928Y021235D02*
X015735Y021235D01*
X015735Y021428D02*
X015832Y021525D01*
X018484Y020090D02*
X018855Y020090D01*
X018731Y019967D01*
X018855Y019844D01*
X018484Y019844D01*
X018546Y019722D02*
X018484Y019660D01*
X018484Y019537D01*
X018546Y019475D01*
X018608Y019475D01*
X018669Y019537D01*
X018669Y019660D01*
X018731Y019722D01*
X018793Y019722D01*
X018855Y019660D01*
X018855Y019537D01*
X018793Y019475D01*
X018793Y019354D02*
X018855Y019292D01*
X018855Y019169D01*
X018793Y019107D01*
X018731Y019107D01*
X018669Y019169D01*
X018608Y019107D01*
X018546Y019107D01*
X018484Y019169D01*
X018484Y019292D01*
X018546Y019354D01*
X018669Y019230D02*
X018669Y019169D01*
X017881Y018090D02*
X017757Y017967D01*
X017881Y017844D01*
X017511Y017844D01*
X017572Y017722D02*
X017511Y017660D01*
X017511Y017537D01*
X017572Y017475D01*
X017634Y017475D01*
X017696Y017537D01*
X017696Y017660D01*
X017757Y017722D01*
X017819Y017722D01*
X017881Y017660D01*
X017881Y017537D01*
X017819Y017475D01*
X017819Y017354D02*
X017881Y017292D01*
X017881Y017169D01*
X017819Y017107D01*
X017757Y017107D01*
X017511Y017354D01*
X017511Y017107D01*
X016897Y017230D02*
X016526Y017230D01*
X016526Y017107D02*
X016526Y017354D01*
X016588Y017475D02*
X016526Y017537D01*
X016526Y017660D01*
X016588Y017722D01*
X016526Y017844D02*
X016897Y017844D01*
X016773Y017967D01*
X016897Y018090D01*
X016526Y018090D01*
X016773Y017722D02*
X016711Y017660D01*
X016711Y017537D01*
X016650Y017475D01*
X016588Y017475D01*
X016773Y017354D02*
X016897Y017230D01*
X016835Y017475D02*
X016897Y017537D01*
X016897Y017660D01*
X016835Y017722D01*
X016773Y017722D01*
X017511Y018090D02*
X017881Y018090D01*
X015163Y018032D02*
X015163Y017887D01*
X015114Y017838D01*
X015018Y017838D01*
X014969Y017887D01*
X014969Y018032D01*
X014873Y018032D02*
X015163Y018032D01*
X014969Y017935D02*
X014873Y017838D01*
X014921Y017737D02*
X014873Y017689D01*
X014873Y017592D01*
X014921Y017544D01*
X015018Y017544D01*
X015066Y017592D01*
X015066Y017640D01*
X015018Y017737D01*
X015163Y017737D01*
X015163Y017544D01*
X012338Y018959D02*
X012290Y018911D01*
X012193Y018911D01*
X012145Y018959D01*
X012043Y018959D02*
X011995Y018911D01*
X011898Y018911D01*
X011850Y018959D01*
X011850Y019153D01*
X011898Y019201D01*
X011995Y019201D01*
X012043Y019153D01*
X012145Y019153D02*
X012193Y019201D01*
X012290Y019201D01*
X012338Y019153D01*
X012338Y019104D01*
X012290Y019056D01*
X012338Y019008D01*
X012338Y018959D01*
X012290Y019056D02*
X012241Y019056D01*
X008286Y019578D02*
X008286Y019675D01*
X008237Y019723D01*
X008286Y019824D02*
X008092Y020018D01*
X008044Y020018D01*
X007995Y019969D01*
X007995Y019873D01*
X008044Y019824D01*
X008044Y019723D02*
X007995Y019675D01*
X007995Y019578D01*
X008044Y019529D01*
X008237Y019529D01*
X008286Y019578D01*
X008286Y019824D02*
X008286Y020018D01*
X009886Y014527D02*
X009837Y014479D01*
X009837Y014382D01*
X009886Y014334D01*
X009886Y014233D02*
X009837Y014184D01*
X009837Y014087D01*
X009886Y014039D01*
X009934Y014039D01*
X009983Y014087D01*
X009983Y014233D01*
X009886Y014233D01*
X009983Y014233D02*
X010079Y014136D01*
X010128Y014039D01*
X010079Y014334D02*
X010128Y014382D01*
X010128Y014479D01*
X010079Y014527D01*
X009886Y014527D01*
X008893Y010832D02*
X008747Y010687D01*
X008941Y010687D01*
X008893Y010542D02*
X008893Y010832D01*
X008646Y010784D02*
X008598Y010832D01*
X008501Y010832D01*
X008453Y010784D01*
X008453Y010590D01*
X008501Y010542D01*
X008598Y010542D01*
X008646Y010590D01*
X014941Y010681D02*
X014990Y010633D01*
X015038Y010633D01*
X015087Y010681D01*
X015087Y010778D01*
X015135Y010826D01*
X015183Y010826D01*
X015232Y010778D01*
X015232Y010681D01*
X015183Y010633D01*
X015135Y010633D01*
X015087Y010681D01*
X015087Y010778D02*
X015038Y010826D01*
X014990Y010826D01*
X014941Y010778D01*
X014941Y010681D01*
X014941Y010928D02*
X015038Y011024D01*
X015038Y010976D02*
X015038Y011121D01*
X014941Y011121D02*
X015232Y011121D01*
X015232Y010976D01*
X015183Y010928D01*
X015087Y010928D01*
X015038Y010976D01*
X016526Y010981D02*
X016897Y010981D01*
X016773Y011105D01*
X016835Y011226D02*
X016897Y011288D01*
X016897Y011411D01*
X016835Y011473D01*
X016773Y011473D01*
X016711Y011411D01*
X016711Y011288D01*
X016650Y011226D01*
X016588Y011226D01*
X016526Y011288D01*
X016526Y011411D01*
X016588Y011473D01*
X016526Y011594D02*
X016897Y011594D01*
X016773Y011718D01*
X016897Y011841D01*
X016526Y011841D01*
X016526Y011105D02*
X016526Y010858D01*
X017550Y010858D02*
X017550Y011105D01*
X017797Y010858D01*
X017859Y010858D01*
X017920Y010919D01*
X017920Y011043D01*
X017859Y011105D01*
X017859Y011226D02*
X017920Y011288D01*
X017920Y011411D01*
X017859Y011473D01*
X017797Y011473D01*
X017735Y011411D01*
X017735Y011288D01*
X017673Y011226D01*
X017612Y011226D01*
X017550Y011288D01*
X017550Y011411D01*
X017612Y011473D01*
X017550Y011594D02*
X017920Y011594D01*
X017797Y011718D01*
X017920Y011841D01*
X017550Y011841D01*
X018585Y012908D02*
X018524Y012969D01*
X018524Y013093D01*
X018585Y013155D01*
X018585Y013276D02*
X018524Y013338D01*
X018524Y013461D01*
X018585Y013523D01*
X018524Y013644D02*
X018894Y013644D01*
X018770Y013768D01*
X018894Y013891D01*
X018524Y013891D01*
X018770Y013523D02*
X018709Y013461D01*
X018709Y013338D01*
X018647Y013276D01*
X018585Y013276D01*
X018832Y013276D02*
X018894Y013338D01*
X018894Y013461D01*
X018832Y013523D01*
X018770Y013523D01*
X018832Y013155D02*
X018894Y013093D01*
X018894Y012969D01*
X018832Y012908D01*
X018770Y012908D01*
X018709Y012969D01*
X018647Y012908D01*
X018585Y012908D01*
X018709Y012969D02*
X018709Y013031D01*
X021817Y019804D02*
X022010Y019804D01*
X022059Y019853D01*
X022059Y019950D01*
X022010Y019998D01*
X021962Y019998D01*
X021913Y019950D01*
X021913Y019804D01*
X021817Y019804D02*
X021768Y019853D01*
X021768Y019950D01*
X021817Y019998D01*
X021768Y020099D02*
X021768Y020293D01*
X021768Y020196D02*
X022059Y020196D01*
X021962Y020293D01*
X022010Y020394D02*
X021913Y020394D01*
X021865Y020442D01*
X021865Y020587D01*
X021865Y020491D02*
X021768Y020394D01*
X021768Y020587D02*
X022059Y020587D01*
X022059Y020442D01*
X022010Y020394D01*
X024735Y020337D02*
X024832Y020433D01*
X024832Y020385D02*
X024832Y020530D01*
X024735Y020530D02*
X025025Y020530D01*
X025025Y020385D01*
X024977Y020337D01*
X024880Y020337D01*
X024832Y020385D01*
X024928Y020235D02*
X025025Y020139D01*
X024735Y020139D01*
X024735Y020235D02*
X024735Y020042D01*
X024783Y019941D02*
X024735Y019892D01*
X024735Y019796D01*
X024783Y019747D01*
X024832Y019747D01*
X024880Y019796D01*
X024880Y019892D01*
X024928Y019941D01*
X024977Y019941D01*
X025025Y019892D01*
X025025Y019796D01*
X024977Y019747D01*
X024928Y019747D01*
X024880Y019796D01*
X024880Y019892D02*
X024832Y019941D01*
X024783Y019941D01*
X022832Y002607D02*
X022832Y002360D01*
X022709Y002483D02*
X022956Y002483D01*
D12*
X018217Y008748D02*
X010317Y008748D01*
X010317Y011098D01*
X010361Y011100D01*
X010404Y011106D01*
X010446Y011115D01*
X010488Y011128D01*
X010528Y011145D01*
X010567Y011165D01*
X010604Y011188D01*
X010638Y011215D01*
X010671Y011244D01*
X010700Y011277D01*
X010727Y011311D01*
X010750Y011348D01*
X010770Y011387D01*
X010787Y011427D01*
X010800Y011469D01*
X010809Y011511D01*
X010815Y011554D01*
X010817Y011598D01*
X010815Y011642D01*
X010809Y011685D01*
X010800Y011727D01*
X010787Y011769D01*
X010770Y011809D01*
X010750Y011848D01*
X010727Y011885D01*
X010700Y011919D01*
X010671Y011952D01*
X010638Y011981D01*
X010604Y012008D01*
X010567Y012031D01*
X010528Y012051D01*
X010488Y012068D01*
X010446Y012081D01*
X010404Y012090D01*
X010361Y012096D01*
X010317Y012098D01*
X010317Y014448D01*
X018217Y014448D01*
X018217Y008748D01*
X013364Y003784D02*
X013364Y003357D01*
X013150Y003570D02*
X013577Y003570D01*
X007691Y006610D02*
X007591Y006510D01*
X006791Y006510D01*
X006691Y006610D01*
X006591Y006510D01*
X005791Y006510D01*
X005691Y006610D01*
X005691Y007410D01*
X005791Y007510D01*
X006591Y007510D01*
X006691Y007410D01*
X006791Y007510D01*
X007591Y007510D01*
X007691Y007410D01*
X007691Y006610D01*
X005777Y006970D02*
X005350Y006970D01*
X005564Y006757D02*
X005564Y007184D01*
X003927Y007970D02*
X003500Y007970D01*
X003714Y007757D02*
X003714Y008184D01*
X002814Y007134D02*
X002814Y006707D01*
X002600Y006920D02*
X003027Y006920D01*
X003184Y006340D02*
X002757Y006340D01*
X002650Y006233D01*
X002650Y006020D01*
X002757Y005913D01*
X002970Y005913D01*
X002970Y006126D01*
X003184Y005913D02*
X003291Y006020D01*
X003291Y006233D01*
X003184Y006340D01*
X003291Y005695D02*
X002650Y005695D01*
X002650Y005268D02*
X003291Y005268D01*
X003291Y005051D02*
X002650Y005051D01*
X002650Y004731D01*
X002757Y004624D01*
X003184Y004624D01*
X003291Y004731D01*
X003291Y005051D01*
X003291Y005695D02*
X002650Y005268D01*
X007546Y012989D02*
X007546Y013456D01*
X007312Y013222D02*
X007780Y013222D01*
X010298Y015067D02*
X018198Y015067D01*
X018198Y020767D01*
X010298Y020767D01*
X010298Y018417D01*
X010342Y018415D01*
X010385Y018409D01*
X010427Y018400D01*
X010469Y018387D01*
X010509Y018370D01*
X010548Y018350D01*
X010585Y018327D01*
X010619Y018300D01*
X010652Y018271D01*
X010681Y018238D01*
X010708Y018204D01*
X010731Y018167D01*
X010751Y018128D01*
X010768Y018088D01*
X010781Y018046D01*
X010790Y018004D01*
X010796Y017961D01*
X010798Y017917D01*
X010796Y017873D01*
X010790Y017830D01*
X010781Y017788D01*
X010768Y017746D01*
X010751Y017706D01*
X010731Y017667D01*
X010708Y017630D01*
X010681Y017596D01*
X010652Y017563D01*
X010619Y017534D01*
X010585Y017507D01*
X010548Y017484D01*
X010509Y017464D01*
X010469Y017447D01*
X010427Y017434D01*
X010385Y017425D01*
X010342Y017419D01*
X010298Y017417D01*
X010298Y015067D01*
X014014Y023507D02*
X014014Y023934D01*
X014227Y023720D02*
X013800Y023720D01*
X015170Y024370D02*
X007270Y024370D01*
X007270Y026720D01*
X007314Y026722D01*
X007357Y026728D01*
X007399Y026737D01*
X007441Y026750D01*
X007481Y026767D01*
X007520Y026787D01*
X007557Y026810D01*
X007591Y026837D01*
X007624Y026866D01*
X007653Y026899D01*
X007680Y026933D01*
X007703Y026970D01*
X007723Y027009D01*
X007740Y027049D01*
X007753Y027091D01*
X007762Y027133D01*
X007768Y027176D01*
X007770Y027220D01*
X007768Y027264D01*
X007762Y027307D01*
X007753Y027349D01*
X007740Y027391D01*
X007723Y027431D01*
X007703Y027470D01*
X007680Y027507D01*
X007653Y027541D01*
X007624Y027574D01*
X007591Y027603D01*
X007557Y027630D01*
X007520Y027653D01*
X007481Y027673D01*
X007441Y027690D01*
X007399Y027703D01*
X007357Y027712D01*
X007314Y027718D01*
X007270Y027720D01*
X007270Y030070D01*
X015170Y030070D01*
X015170Y024370D01*
X015765Y024274D02*
X016206Y024568D01*
X016470Y024470D02*
X016720Y024720D01*
X018220Y024720D01*
X018470Y024970D01*
X018470Y025470D01*
X018220Y025720D01*
X018470Y025970D01*
X018470Y026470D01*
X018220Y026720D01*
X016720Y026720D01*
X016470Y026470D01*
X016470Y025970D01*
X016720Y025720D01*
X018220Y025720D01*
X018665Y026010D02*
X018812Y025864D01*
X019106Y025864D01*
X019106Y026157D02*
X018812Y026157D01*
X018665Y026010D01*
X018886Y026324D02*
X018886Y026618D01*
X019032Y026471D02*
X018739Y026471D01*
X018431Y026865D02*
X018211Y026865D01*
X018050Y026865D02*
X017977Y026939D01*
X017977Y027232D01*
X017904Y027159D02*
X018050Y027159D01*
X018211Y027086D02*
X018284Y027159D01*
X018504Y027159D01*
X018431Y027012D02*
X018284Y027012D01*
X018211Y027086D01*
X018431Y027012D02*
X018504Y026939D01*
X018431Y026865D01*
X017743Y026865D02*
X017597Y026865D01*
X017670Y026865D02*
X017670Y027159D01*
X017597Y027159D01*
X017670Y027306D02*
X017670Y027379D01*
X017686Y027717D02*
X017436Y027967D01*
X017436Y028467D01*
X017686Y028717D01*
X017436Y028967D01*
X017436Y029467D01*
X017686Y029717D01*
X017436Y029967D01*
X017436Y030467D01*
X017686Y030717D01*
X018186Y030717D01*
X018436Y030467D01*
X018436Y029967D01*
X018186Y029717D01*
X018436Y029467D01*
X018436Y028967D01*
X018186Y028717D01*
X018436Y028467D01*
X018436Y027967D01*
X018186Y027717D01*
X017686Y027717D01*
X017436Y027967D02*
X017436Y028467D01*
X017186Y028717D01*
X017436Y028967D01*
X017436Y029467D01*
X017186Y029717D01*
X017436Y029967D01*
X017436Y030467D01*
X017186Y030717D01*
X016686Y030717D01*
X016436Y030467D01*
X016436Y029967D01*
X016686Y029717D01*
X016436Y029467D01*
X016436Y028967D01*
X016686Y028717D01*
X016436Y028467D01*
X016436Y027967D01*
X016686Y027717D01*
X017186Y027717D01*
X017436Y027967D01*
X016903Y027379D02*
X016903Y027306D01*
X016903Y027159D02*
X016903Y026865D01*
X016976Y026865D02*
X016829Y026865D01*
X016669Y026865D02*
X016522Y026865D01*
X016596Y026865D02*
X016596Y027306D01*
X016522Y027306D01*
X016829Y027159D02*
X016903Y027159D01*
X017136Y027159D02*
X017210Y027159D01*
X017283Y027086D01*
X017356Y027159D01*
X017430Y027086D01*
X017430Y026865D01*
X017283Y026865D02*
X017283Y027086D01*
X017136Y027159D02*
X017136Y026865D01*
X016206Y026894D02*
X016206Y026747D01*
X016132Y026674D01*
X015986Y026674D02*
X015986Y026821D01*
X015986Y026674D02*
X015839Y026674D01*
X015765Y026747D01*
X015765Y026894D01*
X015839Y026968D01*
X016132Y026968D01*
X016206Y026894D01*
X016206Y026507D02*
X015765Y026214D01*
X016206Y026214D01*
X016206Y026047D02*
X015765Y026047D01*
X015765Y025827D01*
X015839Y025753D01*
X016132Y025753D01*
X016206Y025827D01*
X016206Y026047D01*
X016206Y026507D02*
X015765Y026507D01*
X015765Y025518D02*
X016206Y025224D01*
X015986Y025057D02*
X015986Y024764D01*
X016132Y024910D02*
X015839Y024910D01*
X015765Y025224D02*
X016206Y025518D01*
X016470Y025470D02*
X016720Y025720D01*
X016470Y025470D02*
X016470Y024970D01*
X016720Y024720D01*
X016470Y024470D02*
X016470Y023970D01*
X016720Y023720D01*
X018220Y023720D01*
X018470Y023970D01*
X018470Y024470D01*
X018220Y024720D01*
X018665Y024421D02*
X018886Y024421D01*
X019032Y024274D01*
X019106Y024274D01*
X018886Y024421D02*
X019032Y024568D01*
X019106Y024568D01*
X018886Y024814D02*
X018886Y025107D01*
X019032Y024960D02*
X018739Y024960D01*
X019032Y025274D02*
X019106Y025274D01*
X019032Y025274D02*
X018886Y025421D01*
X018665Y025421D01*
X018886Y025421D02*
X019032Y025568D01*
X019106Y025568D01*
X018886Y024107D02*
X018886Y023814D01*
X019032Y023960D02*
X018739Y023960D01*
X016206Y024274D02*
X015765Y024568D01*
X015986Y024107D02*
X015986Y023814D01*
X019259Y028003D02*
X019259Y028296D01*
X019259Y028976D02*
X019259Y029270D01*
X019406Y029123D02*
X019112Y029123D01*
X019112Y030061D02*
X019039Y030134D01*
X019039Y030281D01*
X019112Y030354D01*
X019259Y030281D02*
X019259Y030134D01*
X019186Y030061D01*
X019112Y030061D01*
X019259Y030281D02*
X019333Y030354D01*
X019406Y030354D01*
X019479Y030281D01*
X019479Y030134D01*
X019406Y030061D01*
X020177Y030084D02*
X020177Y028584D01*
X020427Y028334D01*
X020927Y028334D01*
X021177Y028584D01*
X021177Y030084D01*
X020927Y030334D01*
X020427Y030334D01*
X020177Y030084D01*
X021177Y030084D02*
X021427Y030334D01*
X021927Y030334D01*
X022177Y030084D01*
X022177Y028584D01*
X021927Y028334D01*
X021427Y028334D01*
X021177Y028584D01*
X022177Y028584D02*
X022427Y028334D01*
X022927Y028334D01*
X023177Y028584D01*
X023177Y030084D01*
X023427Y030334D01*
X023927Y030334D01*
X024177Y030084D01*
X024177Y028584D01*
X023927Y028334D01*
X023427Y028334D01*
X023177Y028584D01*
X024177Y028584D02*
X024427Y028334D01*
X024927Y028334D01*
X025177Y028584D01*
X025177Y030084D01*
X025427Y030334D01*
X025927Y030334D01*
X026177Y030084D01*
X026177Y028584D01*
X025927Y028334D01*
X025427Y028334D01*
X025177Y028584D01*
X026177Y028584D02*
X026427Y028334D01*
X026927Y028334D01*
X027177Y028584D01*
X027177Y030084D01*
X027427Y030334D01*
X027927Y030334D01*
X028177Y030084D01*
X028177Y028584D01*
X027927Y028334D01*
X027427Y028334D01*
X027177Y028584D01*
X028177Y028584D02*
X028427Y028334D01*
X028927Y028334D01*
X029177Y028584D01*
X029177Y030084D01*
X029427Y030334D01*
X029927Y030334D01*
X030177Y030084D01*
X030177Y028584D01*
X029927Y028334D01*
X029427Y028334D01*
X029177Y028584D01*
X030177Y028584D02*
X030427Y028334D01*
X030927Y028334D01*
X031177Y028584D01*
X031177Y030084D01*
X031427Y030334D01*
X031927Y030334D01*
X032177Y030084D01*
X032177Y028584D01*
X031927Y028334D01*
X031427Y028334D01*
X031177Y028584D01*
X032177Y028584D02*
X032427Y028334D01*
X032927Y028334D01*
X033177Y028584D01*
X033177Y030084D01*
X033427Y030334D01*
X033927Y030334D01*
X034177Y030084D01*
X034177Y028584D01*
X033927Y028334D01*
X033427Y028334D01*
X033177Y028584D01*
X034177Y028584D02*
X034427Y028334D01*
X034927Y028334D01*
X035177Y028584D01*
X035177Y030084D01*
X034927Y030334D01*
X034427Y030334D01*
X034177Y030084D01*
X035177Y030084D02*
X035427Y030334D01*
X035927Y030334D01*
X036177Y030084D01*
X036177Y028584D01*
X035927Y028334D01*
X035427Y028334D01*
X035177Y028584D01*
X036177Y028584D02*
X036427Y028334D01*
X036927Y028334D01*
X037177Y028584D01*
X037177Y030084D01*
X036927Y030334D01*
X036427Y030334D01*
X036177Y030084D01*
X037177Y030084D02*
X037427Y030334D01*
X037927Y030334D01*
X038177Y030084D01*
X038177Y028584D01*
X037927Y028334D01*
X037427Y028334D01*
X037177Y028584D01*
X038177Y028584D02*
X038427Y028334D01*
X038927Y028334D01*
X039177Y028584D01*
X039177Y030084D01*
X038927Y030334D01*
X038427Y030334D01*
X038177Y030084D01*
X039177Y030084D02*
X039427Y030334D01*
X039927Y030334D01*
X040177Y030084D01*
X040177Y028584D01*
X039927Y028334D01*
X039427Y028334D01*
X039177Y028584D01*
X033177Y030084D02*
X032927Y030334D01*
X032427Y030334D01*
X032177Y030084D01*
X031177Y030084D02*
X030927Y030334D01*
X030427Y030334D01*
X030177Y030084D01*
X029177Y030084D02*
X028927Y030334D01*
X028427Y030334D01*
X028177Y030084D01*
X027177Y030084D02*
X026927Y030334D01*
X026427Y030334D01*
X026177Y030084D01*
X025177Y030084D02*
X024927Y030334D01*
X024427Y030334D01*
X024177Y030084D01*
X023177Y030084D02*
X022927Y030334D01*
X022427Y030334D01*
X022177Y030084D01*
X018156Y030987D02*
X018156Y031134D01*
X018082Y031207D01*
X018082Y031374D02*
X018156Y031447D01*
X018156Y031594D01*
X018082Y031668D01*
X018009Y031668D01*
X017936Y031594D01*
X017936Y031447D01*
X017862Y031374D01*
X017789Y031374D01*
X017715Y031447D01*
X017715Y031594D01*
X017789Y031668D01*
X017715Y031207D02*
X018009Y030914D01*
X018082Y030914D01*
X018156Y030987D01*
X017715Y030914D02*
X017715Y031207D01*
X017211Y031397D02*
X017211Y031544D01*
X017137Y031618D01*
X017064Y031618D01*
X016991Y031544D01*
X016991Y031397D01*
X016917Y031324D01*
X016844Y031324D01*
X016770Y031397D01*
X016770Y031544D01*
X016844Y031618D01*
X017137Y031324D02*
X017211Y031397D01*
X017064Y031157D02*
X017211Y031010D01*
X016770Y031010D01*
X016770Y030864D02*
X016770Y031157D01*
X016109Y031134D02*
X016109Y030987D01*
X016036Y030914D01*
X015962Y030914D01*
X015962Y031207D01*
X015889Y031207D02*
X016036Y031207D01*
X016109Y031134D01*
X015889Y031207D02*
X015815Y031134D01*
X015815Y030987D01*
X015815Y030747D02*
X016109Y030747D01*
X015962Y030747D02*
X016109Y030600D01*
X016109Y030527D01*
X016109Y030363D02*
X015815Y030216D01*
X016109Y030070D01*
X016036Y029903D02*
X015889Y029903D01*
X015815Y029829D01*
X015815Y029683D01*
X015889Y029609D01*
X016036Y029609D01*
X016109Y029683D01*
X016109Y029829D01*
X016036Y029903D01*
X016109Y031374D02*
X016109Y031594D01*
X016036Y031668D01*
X015962Y031594D01*
X015962Y031447D01*
X015889Y031374D01*
X015815Y031447D01*
X015815Y031668D01*
D13*
X018135Y029022D02*
X017981Y028868D01*
X017751Y028868D01*
X017981Y028868D02*
X018135Y028715D01*
X018211Y028715D01*
X017981Y028561D02*
X017981Y028254D01*
X018135Y028408D02*
X017828Y028408D01*
X018135Y029022D02*
X018211Y029022D01*
X022960Y031286D02*
X022960Y031747D01*
X023191Y031747D01*
X023267Y031670D01*
X023267Y031517D01*
X023191Y031440D01*
X022960Y031440D01*
X023114Y031440D02*
X023267Y031286D01*
X023421Y031286D02*
X023728Y031593D01*
X023728Y031670D01*
X023651Y031747D01*
X023498Y031747D01*
X023421Y031670D01*
X023421Y031286D02*
X023728Y031286D01*
X023881Y031363D02*
X023958Y031286D01*
X024111Y031286D01*
X024188Y031363D01*
X024188Y031440D01*
X024111Y031517D01*
X023881Y031517D01*
X023881Y031363D01*
X023881Y031517D02*
X024035Y031670D01*
X024188Y031747D01*
X024140Y026800D02*
X024370Y026800D01*
X024447Y026724D01*
X024447Y026570D01*
X024370Y026493D01*
X024140Y026493D01*
X024140Y026340D02*
X024140Y026800D01*
X024293Y026493D02*
X024447Y026340D01*
X024600Y026340D02*
X024600Y026800D01*
X024907Y026340D01*
X024907Y026800D01*
X025061Y026647D02*
X025214Y026800D01*
X025214Y026340D01*
X025061Y026340D02*
X025368Y026340D01*
X025633Y026194D02*
X024807Y026194D01*
X024807Y024246D02*
X025633Y024246D01*
X032609Y020900D02*
X032609Y020440D01*
X032609Y020593D02*
X032839Y020593D01*
X032916Y020670D01*
X032916Y020824D01*
X032839Y020900D01*
X032609Y020900D01*
X032762Y020593D02*
X032916Y020440D01*
X033069Y020440D02*
X033069Y020900D01*
X033376Y020440D01*
X033376Y020900D01*
X033530Y020824D02*
X033606Y020900D01*
X033760Y020900D01*
X033837Y020824D01*
X033837Y020747D01*
X033760Y020670D01*
X033837Y020593D01*
X033837Y020517D01*
X033760Y020440D01*
X033606Y020440D01*
X033530Y020517D01*
X033683Y020670D02*
X033760Y020670D01*
X033633Y020194D02*
X032807Y020194D01*
X032807Y018246D02*
X033633Y018246D01*
X033760Y013900D02*
X033530Y013670D01*
X033837Y013670D01*
X033760Y013440D02*
X033760Y013900D01*
X033376Y013900D02*
X033376Y013440D01*
X033069Y013900D01*
X033069Y013440D01*
X032916Y013440D02*
X032762Y013593D01*
X032839Y013593D02*
X032609Y013593D01*
X032609Y013440D02*
X032609Y013900D01*
X032839Y013900D01*
X032916Y013824D01*
X032916Y013670D01*
X032839Y013593D01*
X032807Y013194D02*
X033633Y013194D01*
X033633Y011246D02*
X032807Y011246D01*
X027633Y015246D02*
X026807Y015246D01*
X026807Y017194D02*
X027633Y017194D01*
X027688Y017690D02*
X027611Y017767D01*
X027688Y017690D02*
X027841Y017690D01*
X027918Y017767D01*
X027918Y017920D01*
X027841Y017997D01*
X027764Y017997D01*
X027611Y017920D01*
X027611Y018150D01*
X027918Y018150D01*
X027457Y018150D02*
X027457Y017690D01*
X027150Y018150D01*
X027150Y017690D01*
X026997Y017690D02*
X026843Y017843D01*
X026920Y017843D02*
X026690Y017843D01*
X026690Y017690D02*
X026690Y018150D01*
X026920Y018150D01*
X026997Y018074D01*
X026997Y017920D01*
X026920Y017843D01*
X036807Y024246D02*
X037633Y024246D01*
X037633Y026194D02*
X036807Y026194D01*
X036947Y026440D02*
X036793Y026593D01*
X036870Y026593D02*
X036640Y026593D01*
X036640Y026440D02*
X036640Y026900D01*
X036870Y026900D01*
X036947Y026824D01*
X036947Y026670D01*
X036870Y026593D01*
X037100Y026440D02*
X037100Y026900D01*
X037407Y026440D01*
X037407Y026900D01*
X037561Y026824D02*
X037638Y026900D01*
X037791Y026900D01*
X037868Y026824D01*
X037868Y026747D01*
X037561Y026440D01*
X037868Y026440D01*
X033272Y031368D02*
X033119Y031368D01*
X033042Y031445D01*
X032888Y031368D02*
X032581Y031368D01*
X032428Y031368D02*
X032275Y031521D01*
X032351Y031521D02*
X032121Y031521D01*
X032121Y031368D02*
X032121Y031828D01*
X032351Y031828D01*
X032428Y031752D01*
X032428Y031598D01*
X032351Y031521D01*
X032581Y031675D02*
X032735Y031828D01*
X032735Y031368D01*
X033042Y031752D02*
X033119Y031828D01*
X033272Y031828D01*
X033349Y031752D01*
X033349Y031675D01*
X033272Y031598D01*
X033349Y031521D01*
X033349Y031445D01*
X033272Y031368D01*
X033272Y031598D02*
X033195Y031598D01*
X010677Y023773D02*
X010677Y023712D01*
X010617Y023652D01*
X010677Y023592D01*
X010677Y023532D01*
X010617Y023472D01*
X010497Y023472D01*
X010437Y023532D01*
X010309Y023472D02*
X010068Y023472D01*
X010189Y023472D02*
X010189Y023833D01*
X010068Y023712D01*
X009940Y023773D02*
X009880Y023833D01*
X009700Y023833D01*
X009700Y023472D01*
X009880Y023472D01*
X009940Y023532D01*
X009940Y023773D01*
X010437Y023773D02*
X010497Y023833D01*
X010617Y023833D01*
X010677Y023773D01*
X010617Y023652D02*
X010557Y023652D01*
X002301Y007267D02*
X002301Y006960D01*
X002301Y007114D02*
X001840Y007114D01*
X001994Y006960D01*
X001840Y006807D02*
X001840Y006653D01*
X001840Y006730D02*
X002224Y006730D01*
X002301Y006653D01*
X002301Y006577D01*
X002224Y006500D01*
X012868Y005536D02*
X012868Y005075D01*
X012868Y005229D02*
X013099Y005229D01*
X013175Y005306D01*
X013175Y005459D01*
X013099Y005536D01*
X012868Y005536D01*
X013022Y005229D02*
X013175Y005075D01*
X013329Y005306D02*
X013636Y005306D01*
X013789Y005382D02*
X013943Y005536D01*
X013943Y005075D01*
X014096Y005075D02*
X013789Y005075D01*
X013559Y005075D02*
X013559Y005536D01*
X013329Y005306D01*
X013921Y003764D02*
X014382Y003764D01*
X014382Y003534D01*
X014305Y003457D01*
X014152Y003457D01*
X014075Y003534D01*
X014075Y003764D01*
X013998Y003304D02*
X013921Y003227D01*
X013921Y003074D01*
X013998Y002997D01*
X014305Y002997D01*
X014382Y003074D01*
X014382Y003227D01*
X014305Y003304D01*
X013998Y003304D01*
X013921Y002843D02*
X014075Y002690D01*
X013921Y002536D01*
X014382Y002536D01*
X014382Y002383D02*
X013921Y002383D01*
X013921Y002076D01*
X013921Y001923D02*
X014382Y001923D01*
X014382Y001692D01*
X014305Y001616D01*
X014152Y001616D01*
X014075Y001692D01*
X014075Y001923D01*
X014075Y001769D02*
X013921Y001616D01*
X014382Y002076D02*
X014382Y002383D01*
X014152Y002383D02*
X014152Y002230D01*
X014382Y002843D02*
X013921Y002843D01*
D14*
X014720Y003251D02*
X020720Y003251D01*
X020720Y002251D01*
X014720Y002251D01*
X014720Y003251D01*
X010844Y001528D02*
X010769Y001603D01*
X010619Y001603D01*
X010544Y001528D01*
X010384Y001528D02*
X010309Y001603D01*
X010159Y001603D01*
X010084Y001528D01*
X010084Y001453D01*
X010159Y001378D01*
X010309Y001378D01*
X010384Y001303D01*
X010384Y001228D01*
X010309Y001152D01*
X010159Y001152D01*
X010084Y001228D01*
X010544Y001152D02*
X010844Y001453D01*
X010844Y001528D01*
X010844Y001152D02*
X010544Y001152D01*
X006970Y002751D02*
X006972Y002805D01*
X006978Y002859D01*
X006988Y002912D01*
X007001Y002965D01*
X007018Y003016D01*
X007039Y003066D01*
X007064Y003114D01*
X007092Y003161D01*
X007123Y003205D01*
X007157Y003247D01*
X007194Y003286D01*
X007234Y003323D01*
X007277Y003356D01*
X007322Y003387D01*
X007369Y003414D01*
X007417Y003437D01*
X007468Y003457D01*
X007519Y003474D01*
X007572Y003486D01*
X007625Y003495D01*
X007679Y003500D01*
X007734Y003501D01*
X007788Y003498D01*
X007841Y003491D01*
X007894Y003480D01*
X007947Y003466D01*
X007998Y003448D01*
X008047Y003426D01*
X008095Y003401D01*
X008141Y003372D01*
X008185Y003340D01*
X008226Y003305D01*
X008264Y003267D01*
X008300Y003226D01*
X008333Y003183D01*
X008363Y003138D01*
X008389Y003090D01*
X008412Y003041D01*
X008431Y002990D01*
X008446Y002939D01*
X008458Y002886D01*
X008466Y002832D01*
X008470Y002778D01*
X008470Y002724D01*
X008466Y002670D01*
X008458Y002616D01*
X008446Y002563D01*
X008431Y002512D01*
X008412Y002461D01*
X008389Y002412D01*
X008363Y002364D01*
X008333Y002319D01*
X008300Y002276D01*
X008264Y002235D01*
X008226Y002197D01*
X008185Y002162D01*
X008141Y002130D01*
X008095Y002101D01*
X008047Y002076D01*
X007998Y002054D01*
X007947Y002036D01*
X007894Y002022D01*
X007841Y002011D01*
X007788Y002004D01*
X007734Y002001D01*
X007679Y002002D01*
X007625Y002007D01*
X007572Y002016D01*
X007519Y002028D01*
X007468Y002045D01*
X007417Y002065D01*
X007369Y002088D01*
X007322Y002115D01*
X007277Y002146D01*
X007234Y002179D01*
X007194Y002216D01*
X007157Y002255D01*
X007123Y002297D01*
X007092Y002341D01*
X007064Y002388D01*
X007039Y002436D01*
X007018Y002486D01*
X007001Y002537D01*
X006988Y002590D01*
X006978Y002643D01*
X006972Y002697D01*
X006970Y002751D01*
X006933Y002547D02*
X001185Y002547D01*
X001185Y006090D01*
X006933Y006090D01*
X006933Y002547D01*
X005207Y004881D02*
X004655Y004881D01*
X004655Y007637D01*
X002451Y007637D01*
X002451Y004881D01*
X004655Y004881D01*
X005207Y004881D02*
X005207Y007637D01*
X004655Y007637D01*
X005297Y007861D02*
X005297Y008311D01*
X005597Y008311D01*
X005757Y008311D02*
X006058Y007861D01*
X005757Y007861D02*
X006058Y008311D01*
X006218Y008311D02*
X006518Y008311D01*
X006368Y008311D02*
X006368Y007861D01*
X006678Y007786D02*
X006978Y007786D01*
X007139Y007861D02*
X007139Y008311D01*
X007364Y008311D01*
X007439Y008236D01*
X007439Y008086D01*
X007364Y008011D01*
X007139Y008011D01*
X007599Y007861D02*
X007749Y008011D01*
X007899Y007861D01*
X007899Y008311D01*
X008059Y008311D02*
X008285Y008311D01*
X008360Y008236D01*
X008360Y008086D01*
X008285Y008011D01*
X008059Y008011D01*
X008059Y007861D02*
X008059Y008311D01*
X008209Y008011D02*
X008360Y007861D01*
X007599Y007861D02*
X007599Y008311D01*
X005597Y007861D02*
X005297Y007861D01*
X005297Y008086D02*
X005447Y008086D01*
X012154Y012472D02*
X012154Y013083D01*
X012358Y012879D01*
X012561Y013083D01*
X012561Y012472D01*
X012762Y012574D02*
X012762Y012981D01*
X012864Y013083D01*
X013067Y013083D01*
X013169Y012981D01*
X013169Y012574D01*
X013067Y012472D01*
X012864Y012472D01*
X012762Y012574D01*
X013369Y013083D02*
X013777Y013083D01*
X013573Y013083D02*
X013573Y012472D01*
X013977Y012574D02*
X013977Y012981D01*
X014079Y013083D01*
X014282Y013083D01*
X014384Y012981D01*
X014384Y012574D01*
X014282Y012472D01*
X014079Y012472D01*
X013977Y012574D01*
X014585Y012676D02*
X014890Y012676D01*
X014992Y012777D01*
X014992Y012981D01*
X014890Y013083D01*
X014585Y013083D01*
X014585Y012472D01*
X014788Y012676D02*
X014992Y012472D01*
X015193Y012472D02*
X015498Y012472D01*
X015600Y012574D01*
X015600Y012676D01*
X015498Y012777D01*
X015193Y012777D01*
X015193Y012472D02*
X015193Y013083D01*
X015498Y013083D01*
X015600Y012981D01*
X015600Y012879D01*
X015498Y012777D01*
X015454Y018622D02*
X015454Y019029D01*
X015658Y019233D01*
X015861Y019029D01*
X015861Y018622D01*
X015861Y018927D02*
X015454Y018927D01*
X015253Y018927D02*
X015152Y018826D01*
X014846Y018826D01*
X014846Y018622D02*
X014846Y019233D01*
X015152Y019233D01*
X015253Y019131D01*
X015253Y018927D01*
X015050Y018826D02*
X015253Y018622D01*
X014646Y018724D02*
X014646Y019131D01*
X014544Y019233D01*
X014340Y019233D01*
X014239Y019131D01*
X014239Y018724D01*
X014340Y018622D01*
X014544Y018622D01*
X014646Y018724D01*
X014038Y019233D02*
X013631Y019233D01*
X013834Y019233D02*
X013834Y018622D01*
X013430Y018724D02*
X013430Y019131D01*
X013328Y019233D01*
X013125Y019233D01*
X013023Y019131D01*
X013023Y018724D01*
X013125Y018622D01*
X013328Y018622D01*
X013430Y018724D01*
X012822Y018622D02*
X012822Y019233D01*
X012619Y019029D01*
X012415Y019233D01*
X012415Y018622D01*
X010970Y021251D02*
X010970Y022251D01*
X019220Y022251D01*
X019220Y021251D01*
X010970Y021251D01*
X007470Y021751D02*
X007472Y021805D01*
X007478Y021859D01*
X007488Y021912D01*
X007501Y021965D01*
X007518Y022016D01*
X007539Y022066D01*
X007564Y022114D01*
X007592Y022161D01*
X007623Y022205D01*
X007657Y022247D01*
X007694Y022286D01*
X007734Y022323D01*
X007777Y022356D01*
X007822Y022387D01*
X007869Y022414D01*
X007917Y022437D01*
X007968Y022457D01*
X008019Y022474D01*
X008072Y022486D01*
X008125Y022495D01*
X008179Y022500D01*
X008234Y022501D01*
X008288Y022498D01*
X008341Y022491D01*
X008394Y022480D01*
X008447Y022466D01*
X008498Y022448D01*
X008547Y022426D01*
X008595Y022401D01*
X008641Y022372D01*
X008685Y022340D01*
X008726Y022305D01*
X008764Y022267D01*
X008800Y022226D01*
X008833Y022183D01*
X008863Y022138D01*
X008889Y022090D01*
X008912Y022041D01*
X008931Y021990D01*
X008946Y021939D01*
X008958Y021886D01*
X008966Y021832D01*
X008970Y021778D01*
X008970Y021724D01*
X008966Y021670D01*
X008958Y021616D01*
X008946Y021563D01*
X008931Y021512D01*
X008912Y021461D01*
X008889Y021412D01*
X008863Y021364D01*
X008833Y021319D01*
X008800Y021276D01*
X008764Y021235D01*
X008726Y021197D01*
X008685Y021162D01*
X008641Y021130D01*
X008595Y021101D01*
X008547Y021076D01*
X008498Y021054D01*
X008447Y021036D01*
X008394Y021022D01*
X008341Y021011D01*
X008288Y021004D01*
X008234Y021001D01*
X008179Y021002D01*
X008125Y021007D01*
X008072Y021016D01*
X008019Y021028D01*
X007968Y021045D01*
X007917Y021065D01*
X007869Y021088D01*
X007822Y021115D01*
X007777Y021146D01*
X007734Y021179D01*
X007694Y021216D01*
X007657Y021255D01*
X007623Y021297D01*
X007592Y021341D01*
X007564Y021388D01*
X007539Y021436D01*
X007518Y021486D01*
X007501Y021537D01*
X007488Y021590D01*
X007478Y021643D01*
X007472Y021697D01*
X007470Y021751D01*
X010854Y027972D02*
X010854Y028583D01*
X011058Y028379D01*
X011261Y028583D01*
X011261Y027972D01*
X011462Y028074D02*
X011462Y028481D01*
X011564Y028583D01*
X011767Y028583D01*
X011869Y028481D01*
X011869Y028074D01*
X011767Y027972D01*
X011564Y027972D01*
X011462Y028074D01*
X012069Y028583D02*
X012477Y028583D01*
X012273Y028583D02*
X012273Y027972D01*
X012677Y028074D02*
X012677Y028481D01*
X012779Y028583D01*
X012982Y028583D01*
X013084Y028481D01*
X013084Y028074D01*
X012982Y027972D01*
X012779Y027972D01*
X012677Y028074D01*
X013285Y028176D02*
X013590Y028176D01*
X013692Y028277D01*
X013692Y028481D01*
X013590Y028583D01*
X013285Y028583D01*
X013285Y027972D01*
X013488Y028176D02*
X013692Y027972D01*
X013893Y028074D02*
X013994Y027972D01*
X014198Y027972D01*
X014300Y028074D01*
X014300Y028481D02*
X014198Y028583D01*
X013994Y028583D01*
X013893Y028481D01*
X013893Y028074D01*
X016710Y027392D02*
X017161Y027392D01*
X017161Y027242D02*
X017161Y027542D01*
X016861Y027242D02*
X016710Y027392D01*
X017710Y027392D02*
X018161Y027392D01*
X018161Y027242D02*
X018161Y027542D01*
X017861Y027242D02*
X017710Y027392D01*
X019787Y030732D02*
X019787Y001204D01*
X040653Y001204D01*
X040653Y030732D01*
X019787Y030732D01*
X020196Y030945D02*
X020196Y031395D01*
X020046Y031395D02*
X020346Y031395D01*
X020507Y031395D02*
X020807Y031395D01*
X020967Y031395D02*
X021267Y031395D01*
X021117Y031395D02*
X021117Y030945D01*
X020657Y031170D02*
X020507Y031170D01*
X020507Y030945D02*
X020507Y031395D01*
X019720Y022251D02*
X027720Y022251D01*
X027720Y021251D01*
X019720Y021251D01*
X019720Y022251D01*
X028720Y022251D02*
X028720Y021251D01*
X036720Y021251D01*
X036720Y022251D01*
X028720Y022251D01*
X038720Y022251D02*
X038720Y004251D01*
X040720Y004251D01*
X040720Y022251D01*
X038720Y022251D01*
X034514Y008737D02*
X034209Y008432D01*
X034616Y008432D01*
X034514Y008737D02*
X034514Y008126D01*
X034576Y007657D02*
X034271Y007657D01*
X034169Y007555D01*
X034169Y007351D01*
X034271Y007250D01*
X034576Y007250D01*
X034777Y007351D02*
X034879Y007250D01*
X035082Y007250D01*
X035184Y007351D01*
X035184Y007555D01*
X035082Y007657D01*
X034879Y007657D01*
X034777Y007555D01*
X034777Y007351D01*
X034880Y006955D02*
X034574Y006649D01*
X034981Y006649D01*
X035182Y006751D02*
X035284Y006649D01*
X035589Y006649D01*
X035589Y006446D02*
X035589Y006853D01*
X035487Y006955D01*
X035284Y006955D01*
X035182Y006853D01*
X035182Y006751D01*
X035182Y006446D02*
X035284Y006344D01*
X035487Y006344D01*
X035589Y006446D01*
X035790Y006446D02*
X035892Y006344D01*
X036095Y006344D01*
X036197Y006446D01*
X036197Y006853D01*
X036095Y006955D01*
X035892Y006955D01*
X035790Y006853D01*
X035790Y006751D01*
X035892Y006649D01*
X036197Y006649D01*
X036296Y007250D02*
X036296Y007860D01*
X036095Y007657D02*
X036095Y007250D01*
X035790Y007250D01*
X035688Y007351D01*
X035688Y007657D01*
X035486Y007351D02*
X035486Y007250D01*
X035385Y007250D01*
X035385Y007351D01*
X035486Y007351D01*
X034880Y006955D02*
X034880Y006344D01*
X034374Y006446D02*
X034374Y006853D01*
X034272Y006955D01*
X034068Y006955D01*
X033967Y006853D01*
X033967Y006751D01*
X034068Y006649D01*
X034374Y006649D01*
X034374Y006446D02*
X034272Y006344D01*
X034068Y006344D01*
X033967Y006446D01*
X033766Y006446D02*
X033766Y006548D01*
X033664Y006649D01*
X033562Y006649D01*
X033664Y006649D02*
X033766Y006751D01*
X033766Y006853D01*
X033664Y006955D01*
X033461Y006955D01*
X033359Y006853D01*
X033158Y006853D02*
X033158Y006751D01*
X033056Y006649D01*
X033158Y006548D01*
X033158Y006446D01*
X033056Y006344D01*
X032853Y006344D01*
X032751Y006446D01*
X032550Y006548D02*
X032143Y006548D01*
X032143Y006751D02*
X032449Y006751D01*
X032550Y006751D01*
X032751Y006853D02*
X032853Y006955D01*
X033056Y006955D01*
X033158Y006853D01*
X033056Y006649D02*
X032955Y006649D01*
X033359Y006446D02*
X033461Y006344D01*
X033664Y006344D01*
X033766Y006446D01*
X032650Y007046D02*
X032650Y007657D01*
X032955Y007657D01*
X033057Y007555D01*
X033057Y007351D01*
X032955Y007250D01*
X032650Y007250D01*
X032449Y007250D02*
X032144Y007250D01*
X032042Y007351D01*
X032144Y007453D01*
X032449Y007453D01*
X032449Y007555D02*
X032449Y007250D01*
X032449Y006955D02*
X032449Y006344D01*
X032245Y006344D02*
X032245Y006955D01*
X032449Y007555D02*
X032347Y007657D01*
X032144Y007657D01*
X031841Y007657D02*
X031739Y007657D01*
X031536Y007453D01*
X031536Y007250D02*
X031536Y007657D01*
X031335Y007657D02*
X031030Y007657D01*
X030928Y007555D01*
X030928Y007351D01*
X031030Y007250D01*
X031335Y007250D01*
X031335Y007148D02*
X031233Y007046D01*
X031132Y007046D01*
X031132Y006955D02*
X031132Y006344D01*
X031335Y006344D02*
X030928Y006344D01*
X030727Y006344D02*
X030320Y006344D01*
X030118Y006344D02*
X030016Y006344D01*
X030016Y006446D01*
X030118Y006446D01*
X030118Y006344D01*
X029816Y006446D02*
X029816Y006548D01*
X029714Y006649D01*
X029510Y006649D01*
X029409Y006751D01*
X029409Y006853D01*
X029510Y006955D01*
X029714Y006955D01*
X029816Y006853D01*
X029816Y006751D01*
X029714Y006649D01*
X029510Y006649D02*
X029409Y006548D01*
X029409Y006446D01*
X029510Y006344D01*
X029714Y006344D01*
X029816Y006446D01*
X030320Y006751D02*
X030524Y006955D01*
X030524Y006344D01*
X030928Y006751D02*
X031132Y006955D01*
X031335Y007148D02*
X031335Y007657D01*
X031272Y008126D02*
X031069Y008126D01*
X031170Y008126D02*
X031170Y008737D01*
X031069Y008737D01*
X030766Y008534D02*
X030868Y008432D01*
X030868Y008330D01*
X030461Y008330D01*
X030461Y008228D02*
X030461Y008432D01*
X030563Y008534D01*
X030766Y008534D01*
X030766Y008126D02*
X030563Y008126D01*
X030461Y008228D01*
X030259Y008126D02*
X030056Y008126D01*
X030158Y008126D02*
X030158Y008534D01*
X030056Y008534D01*
X029855Y008432D02*
X029855Y008126D01*
X029855Y008432D02*
X029753Y008534D01*
X029550Y008534D01*
X029448Y008432D01*
X029247Y008534D02*
X028942Y008534D01*
X028840Y008432D01*
X028942Y008330D01*
X029146Y008330D01*
X029247Y008228D01*
X029146Y008126D01*
X028840Y008126D01*
X028639Y008534D02*
X028537Y008534D01*
X028334Y008330D01*
X028133Y008330D02*
X027828Y008330D01*
X027726Y008228D01*
X027828Y008126D01*
X028133Y008126D01*
X028133Y008432D01*
X028031Y008534D01*
X027828Y008534D01*
X027423Y008737D02*
X027423Y008126D01*
X027321Y008126D02*
X027525Y008126D01*
X027120Y008228D02*
X027120Y008432D01*
X027019Y008534D01*
X026815Y008534D01*
X026713Y008432D01*
X026713Y008228D01*
X026815Y008126D01*
X027019Y008126D01*
X027120Y008228D01*
X027081Y007657D02*
X027081Y007351D01*
X026979Y007250D01*
X026877Y007351D01*
X026776Y007250D01*
X026674Y007351D01*
X026674Y007657D01*
X026473Y007657D02*
X026473Y007351D01*
X026372Y007250D01*
X026270Y007351D01*
X026168Y007250D01*
X026066Y007351D01*
X026066Y007657D01*
X026106Y008126D02*
X026106Y008737D01*
X026411Y008737D01*
X026513Y008635D01*
X026513Y008432D01*
X026411Y008330D01*
X026106Y008330D01*
X027321Y008737D02*
X027423Y008737D01*
X028334Y008534D02*
X028334Y008126D01*
X028193Y007657D02*
X028499Y007657D01*
X028600Y007555D01*
X028600Y007351D01*
X028499Y007250D01*
X028193Y007250D01*
X027991Y007250D02*
X027889Y007250D01*
X027889Y007351D01*
X027991Y007351D01*
X027991Y007250D01*
X028193Y007046D02*
X028193Y007657D01*
X027689Y007657D02*
X027689Y007351D01*
X027587Y007250D01*
X027485Y007351D01*
X027383Y007250D01*
X027282Y007351D01*
X027282Y007657D01*
X027485Y006955D02*
X027485Y006344D01*
X027282Y006344D02*
X027689Y006344D01*
X027889Y006446D02*
X027991Y006344D01*
X028195Y006344D01*
X028296Y006446D01*
X028296Y006548D01*
X028195Y006649D01*
X028093Y006649D01*
X028195Y006649D02*
X028296Y006751D01*
X028296Y006853D01*
X028195Y006955D01*
X027991Y006955D01*
X027889Y006853D01*
X027485Y006955D02*
X027282Y006751D01*
X027081Y006853D02*
X026674Y006446D01*
X026776Y006344D01*
X026979Y006344D01*
X027081Y006446D01*
X027081Y006853D01*
X026979Y006955D01*
X026776Y006955D01*
X026674Y006853D01*
X026674Y006446D01*
X026473Y006344D02*
X026066Y006344D01*
X026473Y006751D01*
X026473Y006853D01*
X026372Y006955D01*
X026168Y006955D01*
X026066Y006853D01*
X028497Y006446D02*
X028599Y006446D01*
X028599Y006344D01*
X028497Y006344D01*
X028497Y006446D01*
X028801Y006446D02*
X028801Y006853D01*
X028903Y006955D01*
X029106Y006955D01*
X029208Y006853D01*
X028801Y006446D01*
X028903Y006344D01*
X029106Y006344D01*
X029208Y006446D01*
X029208Y006853D01*
X029106Y007250D02*
X028903Y007250D01*
X028801Y007351D01*
X028801Y007555D01*
X028903Y007657D01*
X029106Y007657D01*
X029208Y007555D01*
X029208Y007351D01*
X029106Y007250D01*
X029409Y007250D02*
X029612Y007250D01*
X029510Y007250D02*
X029510Y007860D01*
X029409Y007860D01*
X029448Y008126D02*
X029448Y008737D01*
X030158Y008737D02*
X030158Y008839D01*
X030119Y007657D02*
X029916Y007657D01*
X030119Y007657D02*
X030221Y007555D01*
X030221Y007250D01*
X029916Y007250D01*
X029814Y007351D01*
X029916Y007453D01*
X030221Y007453D01*
X030422Y007453D02*
X030625Y007657D01*
X030727Y007657D01*
X030422Y007657D02*
X030422Y007250D01*
X031474Y008228D02*
X031474Y008432D01*
X031576Y008534D01*
X031881Y008534D01*
X031881Y008737D02*
X031881Y008126D01*
X031576Y008126D01*
X031474Y008228D01*
X032689Y008534D02*
X032893Y008126D01*
X033096Y008534D01*
X033297Y008534D02*
X033500Y008737D01*
X033500Y008126D01*
X033297Y008126D02*
X033704Y008126D01*
X033905Y008126D02*
X034006Y008126D01*
X034006Y008228D01*
X033905Y008228D01*
X033905Y008126D01*
X033563Y007657D02*
X033665Y007555D01*
X033665Y007250D01*
X033865Y007250D02*
X033967Y007250D01*
X033967Y007351D01*
X033865Y007351D01*
X033865Y007250D01*
X033563Y007657D02*
X033359Y007657D01*
X033258Y007555D01*
X033258Y007860D02*
X033258Y007250D01*
X036296Y007453D02*
X036601Y007657D01*
X036296Y007453D02*
X036601Y007250D01*
X038720Y003251D02*
X038720Y002251D01*
X030720Y002251D01*
X030720Y003251D01*
X038720Y003251D01*
X039470Y002751D02*
X039472Y002805D01*
X039478Y002859D01*
X039488Y002912D01*
X039501Y002965D01*
X039518Y003016D01*
X039539Y003066D01*
X039564Y003114D01*
X039592Y003161D01*
X039623Y003205D01*
X039657Y003247D01*
X039694Y003286D01*
X039734Y003323D01*
X039777Y003356D01*
X039822Y003387D01*
X039869Y003414D01*
X039917Y003437D01*
X039968Y003457D01*
X040019Y003474D01*
X040072Y003486D01*
X040125Y003495D01*
X040179Y003500D01*
X040234Y003501D01*
X040288Y003498D01*
X040341Y003491D01*
X040394Y003480D01*
X040447Y003466D01*
X040498Y003448D01*
X040547Y003426D01*
X040595Y003401D01*
X040641Y003372D01*
X040685Y003340D01*
X040726Y003305D01*
X040764Y003267D01*
X040800Y003226D01*
X040833Y003183D01*
X040863Y003138D01*
X040889Y003090D01*
X040912Y003041D01*
X040931Y002990D01*
X040946Y002939D01*
X040958Y002886D01*
X040966Y002832D01*
X040970Y002778D01*
X040970Y002724D01*
X040966Y002670D01*
X040958Y002616D01*
X040946Y002563D01*
X040931Y002512D01*
X040912Y002461D01*
X040889Y002412D01*
X040863Y002364D01*
X040833Y002319D01*
X040800Y002276D01*
X040764Y002235D01*
X040726Y002197D01*
X040685Y002162D01*
X040641Y002130D01*
X040595Y002101D01*
X040547Y002076D01*
X040498Y002054D01*
X040447Y002036D01*
X040394Y002022D01*
X040341Y002011D01*
X040288Y002004D01*
X040234Y002001D01*
X040179Y002002D01*
X040125Y002007D01*
X040072Y002016D01*
X040019Y002028D01*
X039968Y002045D01*
X039917Y002065D01*
X039869Y002088D01*
X039822Y002115D01*
X039777Y002146D01*
X039734Y002179D01*
X039694Y002216D01*
X039657Y002255D01*
X039623Y002297D01*
X039592Y002341D01*
X039564Y002388D01*
X039539Y002436D01*
X039518Y002486D01*
X039501Y002537D01*
X039488Y002590D01*
X039478Y002643D01*
X039472Y002697D01*
X039470Y002751D01*
X029720Y002251D02*
X021720Y002251D01*
X021720Y003251D01*
X029720Y003251D01*
X029720Y002251D01*
D15*
X007956Y010619D02*
X007744Y010408D01*
X007532Y010408D01*
X007321Y010619D01*
X007321Y011255D01*
X007956Y011255D02*
X006685Y011255D01*
X006685Y010619D01*
X006897Y010408D01*
X007109Y010408D01*
X007321Y010619D01*
X007956Y010619D02*
X007956Y011255D01*
X007482Y016858D02*
X006635Y016858D01*
X007271Y016858D02*
X007271Y017705D01*
X007482Y017705D02*
X006635Y017705D01*
X007482Y017705D02*
X007906Y017281D01*
X007482Y016858D01*
X007794Y023358D02*
X008006Y023569D01*
X008006Y023993D01*
X007794Y024205D01*
X006947Y024205D01*
X006735Y023993D01*
X006735Y023569D01*
X006947Y023358D01*
D16*
X007590Y021751D02*
X007592Y021801D01*
X007598Y021851D01*
X007608Y021900D01*
X007622Y021948D01*
X007639Y021995D01*
X007660Y022040D01*
X007685Y022084D01*
X007713Y022125D01*
X007745Y022164D01*
X007779Y022201D01*
X007816Y022235D01*
X007856Y022265D01*
X007898Y022292D01*
X007942Y022316D01*
X007988Y022337D01*
X008035Y022353D01*
X008083Y022366D01*
X008133Y022375D01*
X008182Y022380D01*
X008233Y022381D01*
X008283Y022378D01*
X008332Y022371D01*
X008381Y022360D01*
X008429Y022345D01*
X008475Y022327D01*
X008520Y022305D01*
X008563Y022279D01*
X008604Y022250D01*
X008643Y022218D01*
X008679Y022183D01*
X008711Y022145D01*
X008741Y022105D01*
X008768Y022062D01*
X008791Y022018D01*
X008810Y021972D01*
X008826Y021924D01*
X008838Y021875D01*
X008846Y021826D01*
X008850Y021776D01*
X008850Y021726D01*
X008846Y021676D01*
X008838Y021627D01*
X008826Y021578D01*
X008810Y021530D01*
X008791Y021484D01*
X008768Y021440D01*
X008741Y021397D01*
X008711Y021357D01*
X008679Y021319D01*
X008643Y021284D01*
X008604Y021252D01*
X008563Y021223D01*
X008520Y021197D01*
X008475Y021175D01*
X008429Y021157D01*
X008381Y021142D01*
X008332Y021131D01*
X008283Y021124D01*
X008233Y021121D01*
X008182Y021122D01*
X008133Y021127D01*
X008083Y021136D01*
X008035Y021149D01*
X007988Y021165D01*
X007942Y021186D01*
X007898Y021210D01*
X007856Y021237D01*
X007816Y021267D01*
X007779Y021301D01*
X007745Y021338D01*
X007713Y021377D01*
X007685Y021418D01*
X007660Y021462D01*
X007639Y021507D01*
X007622Y021554D01*
X007608Y021602D01*
X007598Y021651D01*
X007592Y021701D01*
X007590Y021751D01*
X007090Y002751D02*
X007092Y002801D01*
X007098Y002851D01*
X007108Y002900D01*
X007122Y002948D01*
X007139Y002995D01*
X007160Y003040D01*
X007185Y003084D01*
X007213Y003125D01*
X007245Y003164D01*
X007279Y003201D01*
X007316Y003235D01*
X007356Y003265D01*
X007398Y003292D01*
X007442Y003316D01*
X007488Y003337D01*
X007535Y003353D01*
X007583Y003366D01*
X007633Y003375D01*
X007682Y003380D01*
X007733Y003381D01*
X007783Y003378D01*
X007832Y003371D01*
X007881Y003360D01*
X007929Y003345D01*
X007975Y003327D01*
X008020Y003305D01*
X008063Y003279D01*
X008104Y003250D01*
X008143Y003218D01*
X008179Y003183D01*
X008211Y003145D01*
X008241Y003105D01*
X008268Y003062D01*
X008291Y003018D01*
X008310Y002972D01*
X008326Y002924D01*
X008338Y002875D01*
X008346Y002826D01*
X008350Y002776D01*
X008350Y002726D01*
X008346Y002676D01*
X008338Y002627D01*
X008326Y002578D01*
X008310Y002530D01*
X008291Y002484D01*
X008268Y002440D01*
X008241Y002397D01*
X008211Y002357D01*
X008179Y002319D01*
X008143Y002284D01*
X008104Y002252D01*
X008063Y002223D01*
X008020Y002197D01*
X007975Y002175D01*
X007929Y002157D01*
X007881Y002142D01*
X007832Y002131D01*
X007783Y002124D01*
X007733Y002121D01*
X007682Y002122D01*
X007633Y002127D01*
X007583Y002136D01*
X007535Y002149D01*
X007488Y002165D01*
X007442Y002186D01*
X007398Y002210D01*
X007356Y002237D01*
X007316Y002267D01*
X007279Y002301D01*
X007245Y002338D01*
X007213Y002377D01*
X007185Y002418D01*
X007160Y002462D01*
X007139Y002507D01*
X007122Y002554D01*
X007108Y002602D01*
X007098Y002651D01*
X007092Y002701D01*
X007090Y002751D01*
X039590Y002751D02*
X039592Y002801D01*
X039598Y002851D01*
X039608Y002900D01*
X039622Y002948D01*
X039639Y002995D01*
X039660Y003040D01*
X039685Y003084D01*
X039713Y003125D01*
X039745Y003164D01*
X039779Y003201D01*
X039816Y003235D01*
X039856Y003265D01*
X039898Y003292D01*
X039942Y003316D01*
X039988Y003337D01*
X040035Y003353D01*
X040083Y003366D01*
X040133Y003375D01*
X040182Y003380D01*
X040233Y003381D01*
X040283Y003378D01*
X040332Y003371D01*
X040381Y003360D01*
X040429Y003345D01*
X040475Y003327D01*
X040520Y003305D01*
X040563Y003279D01*
X040604Y003250D01*
X040643Y003218D01*
X040679Y003183D01*
X040711Y003145D01*
X040741Y003105D01*
X040768Y003062D01*
X040791Y003018D01*
X040810Y002972D01*
X040826Y002924D01*
X040838Y002875D01*
X040846Y002826D01*
X040850Y002776D01*
X040850Y002726D01*
X040846Y002676D01*
X040838Y002627D01*
X040826Y002578D01*
X040810Y002530D01*
X040791Y002484D01*
X040768Y002440D01*
X040741Y002397D01*
X040711Y002357D01*
X040679Y002319D01*
X040643Y002284D01*
X040604Y002252D01*
X040563Y002223D01*
X040520Y002197D01*
X040475Y002175D01*
X040429Y002157D01*
X040381Y002142D01*
X040332Y002131D01*
X040283Y002124D01*
X040233Y002121D01*
X040182Y002122D01*
X040133Y002127D01*
X040083Y002136D01*
X040035Y002149D01*
X039988Y002165D01*
X039942Y002186D01*
X039898Y002210D01*
X039856Y002237D01*
X039816Y002267D01*
X039779Y002301D01*
X039745Y002338D01*
X039713Y002377D01*
X039685Y002418D01*
X039660Y002462D01*
X039639Y002507D01*
X039622Y002554D01*
X039608Y002602D01*
X039598Y002651D01*
X039592Y002701D01*
X039590Y002751D01*
D17*
X012961Y023484D03*
X012961Y023956D03*
D18*
X012961Y023720D03*
X013379Y002481D03*
D19*
X011770Y002565D02*
X011770Y003370D01*
X011420Y004170D02*
X009720Y004170D01*
X009370Y003370D02*
X009370Y002577D01*
X009720Y001770D02*
X011420Y001770D01*
X009870Y002970D02*
X009872Y003022D01*
X009878Y003074D01*
X009888Y003126D01*
X009901Y003176D01*
X009918Y003226D01*
X009939Y003274D01*
X009964Y003320D01*
X009992Y003364D01*
X010023Y003406D01*
X010057Y003446D01*
X010094Y003483D01*
X010134Y003517D01*
X010176Y003548D01*
X010220Y003576D01*
X010266Y003601D01*
X010314Y003622D01*
X010364Y003639D01*
X010414Y003652D01*
X010466Y003662D01*
X010518Y003668D01*
X010570Y003670D01*
X010622Y003668D01*
X010674Y003662D01*
X010726Y003652D01*
X010776Y003639D01*
X010826Y003622D01*
X010874Y003601D01*
X010920Y003576D01*
X010964Y003548D01*
X011006Y003517D01*
X011046Y003483D01*
X011083Y003446D01*
X011117Y003406D01*
X011148Y003364D01*
X011176Y003320D01*
X011201Y003274D01*
X011222Y003226D01*
X011239Y003176D01*
X011252Y003126D01*
X011262Y003074D01*
X011268Y003022D01*
X011270Y002970D01*
X011268Y002918D01*
X011262Y002866D01*
X011252Y002814D01*
X011239Y002764D01*
X011222Y002714D01*
X011201Y002666D01*
X011176Y002620D01*
X011148Y002576D01*
X011117Y002534D01*
X011083Y002494D01*
X011046Y002457D01*
X011006Y002423D01*
X010964Y002392D01*
X010920Y002364D01*
X010874Y002339D01*
X010826Y002318D01*
X010776Y002301D01*
X010726Y002288D01*
X010674Y002278D01*
X010622Y002272D01*
X010570Y002270D01*
X010518Y002272D01*
X010466Y002278D01*
X010414Y002288D01*
X010364Y002301D01*
X010314Y002318D01*
X010266Y002339D01*
X010220Y002364D01*
X010176Y002392D01*
X010134Y002423D01*
X010094Y002457D01*
X010057Y002494D01*
X010023Y002534D01*
X009992Y002576D01*
X009964Y002620D01*
X009939Y002666D01*
X009918Y002714D01*
X009901Y002764D01*
X009888Y002814D01*
X009878Y002866D01*
X009872Y002918D01*
X009870Y002970D01*
X005237Y007937D02*
X004922Y007937D01*
X004922Y013881D01*
X005237Y013881D01*
X005237Y007937D01*
X004922Y007937D02*
X002481Y007937D01*
X002481Y013881D01*
X004922Y013881D01*
X004922Y014330D02*
X004922Y020275D01*
X005237Y020275D01*
X005237Y014330D01*
X004922Y014330D01*
X002481Y014330D01*
X002481Y020275D01*
X004922Y020275D01*
X004922Y020864D02*
X004922Y026809D01*
X005237Y026809D01*
X005237Y020864D01*
X004922Y020864D01*
X002481Y020864D01*
X002481Y026809D01*
X004922Y026809D01*
X005620Y025770D02*
X006120Y025770D01*
X006370Y025520D01*
X006370Y025020D01*
X006120Y024770D01*
X006370Y024520D01*
X006370Y024020D01*
X006120Y023770D01*
X006370Y023520D01*
X006370Y023020D01*
X006120Y022770D01*
X006370Y022520D01*
X006370Y022020D01*
X006120Y021770D01*
X005620Y021770D01*
X005370Y022020D01*
X005370Y022520D01*
X005620Y022770D01*
X005370Y023020D01*
X005370Y023520D01*
X005620Y023770D01*
X005370Y024020D01*
X005370Y024520D01*
X005620Y024770D01*
X005370Y025020D01*
X005370Y025520D01*
X005620Y025770D01*
X007921Y026275D02*
X008275Y025921D01*
X010519Y025921D01*
X010519Y026787D01*
X010995Y026670D02*
X011645Y026670D01*
X011662Y026668D01*
X011679Y026664D01*
X011695Y026657D01*
X011709Y026647D01*
X011722Y026634D01*
X011732Y026620D01*
X011739Y026604D01*
X011743Y026587D01*
X011745Y026570D01*
X011995Y026570D02*
X011997Y026587D01*
X012001Y026604D01*
X012008Y026620D01*
X012018Y026634D01*
X012031Y026647D01*
X012045Y026657D01*
X012061Y026664D01*
X012078Y026668D01*
X012095Y026670D01*
X012745Y026670D01*
X012762Y026668D01*
X012779Y026664D01*
X012795Y026657D01*
X012809Y026647D01*
X012822Y026634D01*
X012832Y026620D01*
X012839Y026604D01*
X012843Y026587D01*
X012845Y026570D01*
X013155Y026664D02*
X013785Y026664D01*
X013785Y026663D02*
X013801Y026658D01*
X013817Y026650D01*
X013831Y026640D01*
X013843Y026628D01*
X013853Y026613D01*
X013860Y026597D01*
X013864Y026580D01*
X013865Y026563D01*
X013863Y026545D01*
X013155Y026663D02*
X013139Y026658D01*
X013123Y026650D01*
X013109Y026640D01*
X013097Y026628D01*
X013087Y026613D01*
X013080Y026597D01*
X013076Y026580D01*
X013075Y026563D01*
X013077Y026545D01*
X013077Y025995D02*
X013075Y025977D01*
X013076Y025960D01*
X013080Y025943D01*
X013087Y025927D01*
X013097Y025912D01*
X013109Y025900D01*
X013123Y025890D01*
X013139Y025882D01*
X013155Y025877D01*
X013155Y025876D02*
X013785Y025876D01*
X013785Y025877D02*
X013801Y025882D01*
X013817Y025890D01*
X013831Y025900D01*
X013843Y025912D01*
X013853Y025927D01*
X013860Y025943D01*
X013864Y025960D01*
X013865Y025977D01*
X013863Y025995D01*
X012845Y025970D02*
X012843Y025953D01*
X012839Y025936D01*
X012832Y025920D01*
X012822Y025906D01*
X012809Y025893D01*
X012795Y025883D01*
X012779Y025876D01*
X012762Y025872D01*
X012745Y025870D01*
X012095Y025870D01*
X012078Y025872D01*
X012061Y025876D01*
X012045Y025883D01*
X012031Y025893D01*
X012018Y025906D01*
X012008Y025920D01*
X012001Y025936D01*
X011997Y025953D01*
X011995Y025970D01*
X011745Y025970D02*
X011743Y025953D01*
X011739Y025936D01*
X011732Y025920D01*
X011722Y025906D01*
X011709Y025893D01*
X011695Y025883D01*
X011679Y025876D01*
X011662Y025872D01*
X011645Y025870D01*
X010995Y025870D01*
X010978Y025872D01*
X010961Y025876D01*
X010945Y025883D01*
X010931Y025893D01*
X010918Y025906D01*
X010908Y025920D01*
X010901Y025936D01*
X010897Y025953D01*
X010895Y025970D01*
X010895Y026570D02*
X010897Y026587D01*
X010901Y026604D01*
X010908Y026620D01*
X010918Y026634D01*
X010931Y026647D01*
X010945Y026657D01*
X010961Y026664D01*
X010978Y026668D01*
X010995Y026670D01*
X010519Y027653D02*
X010519Y028519D01*
X008275Y028519D01*
X007921Y028165D01*
X007921Y027653D01*
X007921Y026787D02*
X007921Y026275D01*
X008059Y027594D02*
X008082Y027659D01*
X008108Y027722D01*
X008138Y027783D01*
X008172Y027843D01*
X008208Y027901D01*
X008248Y027957D01*
X008291Y028010D01*
X008337Y028061D01*
X008386Y028109D01*
X008437Y028154D01*
X008491Y028197D01*
X008547Y028236D01*
X008605Y028272D01*
X008666Y028305D01*
X008728Y028334D01*
X008791Y028360D01*
X008856Y028382D01*
X008922Y028401D01*
X008989Y028415D01*
X009056Y028426D01*
X009125Y028433D01*
X009193Y028437D01*
X009262Y028436D01*
X009330Y028432D01*
X009398Y028423D01*
X009465Y028411D01*
X009532Y028396D01*
X009598Y028376D01*
X009662Y028353D01*
X009725Y028326D01*
X009787Y028295D01*
X009846Y028262D01*
X009904Y028225D01*
X009959Y028184D01*
X010012Y028141D01*
X010063Y028095D01*
X010111Y028046D01*
X010156Y027994D01*
X010198Y027940D01*
X010237Y027884D01*
X010273Y027825D01*
X010305Y027765D01*
X010334Y027703D01*
X010360Y027639D01*
X010381Y027574D01*
X010381Y026846D02*
X010358Y026781D01*
X010332Y026718D01*
X010302Y026657D01*
X010268Y026597D01*
X010232Y026539D01*
X010192Y026483D01*
X010149Y026430D01*
X010103Y026379D01*
X010054Y026331D01*
X010003Y026286D01*
X009949Y026243D01*
X009893Y026204D01*
X009835Y026168D01*
X009774Y026135D01*
X009712Y026106D01*
X009649Y026080D01*
X009584Y026058D01*
X009518Y026039D01*
X009451Y026025D01*
X009384Y026014D01*
X009315Y026007D01*
X009247Y026003D01*
X009178Y026004D01*
X009110Y026008D01*
X009042Y026017D01*
X008975Y026029D01*
X008908Y026044D01*
X008842Y026064D01*
X008778Y026087D01*
X008715Y026114D01*
X008653Y026145D01*
X008594Y026178D01*
X008536Y026215D01*
X008481Y026256D01*
X008428Y026299D01*
X008377Y026345D01*
X008329Y026394D01*
X008284Y026446D01*
X008242Y026500D01*
X008203Y026556D01*
X008167Y026615D01*
X008135Y026675D01*
X008106Y026737D01*
X008080Y026801D01*
X008059Y026866D01*
X009475Y019516D02*
X009120Y019162D01*
X009120Y018650D01*
X009475Y019516D02*
X011719Y019516D01*
X011719Y018650D01*
X011719Y017784D02*
X011719Y016918D01*
X009475Y016918D01*
X009120Y017272D01*
X009120Y017784D01*
X009259Y018591D02*
X009282Y018656D01*
X009308Y018719D01*
X009338Y018780D01*
X009372Y018840D01*
X009408Y018898D01*
X009448Y018954D01*
X009491Y019007D01*
X009537Y019058D01*
X009586Y019106D01*
X009637Y019151D01*
X009691Y019194D01*
X009747Y019233D01*
X009805Y019269D01*
X009866Y019302D01*
X009928Y019331D01*
X009991Y019357D01*
X010056Y019379D01*
X010122Y019398D01*
X010189Y019412D01*
X010256Y019423D01*
X010325Y019430D01*
X010393Y019434D01*
X010462Y019433D01*
X010530Y019429D01*
X010598Y019420D01*
X010665Y019408D01*
X010732Y019393D01*
X010798Y019373D01*
X010862Y019350D01*
X010925Y019323D01*
X010987Y019292D01*
X011046Y019259D01*
X011104Y019222D01*
X011159Y019181D01*
X011212Y019138D01*
X011263Y019092D01*
X011311Y019043D01*
X011356Y018991D01*
X011398Y018937D01*
X011437Y018881D01*
X011473Y018822D01*
X011505Y018762D01*
X011534Y018700D01*
X011560Y018636D01*
X011581Y018571D01*
X011581Y017843D02*
X011558Y017778D01*
X011532Y017715D01*
X011502Y017654D01*
X011468Y017594D01*
X011432Y017536D01*
X011392Y017480D01*
X011349Y017427D01*
X011303Y017376D01*
X011254Y017328D01*
X011203Y017283D01*
X011149Y017240D01*
X011093Y017201D01*
X011035Y017165D01*
X010974Y017132D01*
X010912Y017103D01*
X010849Y017077D01*
X010784Y017055D01*
X010718Y017036D01*
X010651Y017022D01*
X010584Y017011D01*
X010515Y017004D01*
X010447Y017000D01*
X010378Y017001D01*
X010310Y017005D01*
X010242Y017014D01*
X010175Y017026D01*
X010108Y017041D01*
X010042Y017061D01*
X009978Y017084D01*
X009915Y017111D01*
X009853Y017142D01*
X009794Y017175D01*
X009736Y017212D01*
X009681Y017253D01*
X009628Y017296D01*
X009577Y017342D01*
X009529Y017391D01*
X009484Y017443D01*
X009442Y017497D01*
X009403Y017553D01*
X009367Y017612D01*
X009335Y017672D01*
X009306Y017734D01*
X009280Y017798D01*
X009259Y017863D01*
X009610Y016257D02*
X008744Y016257D01*
X009610Y016257D02*
X009610Y014013D01*
X009256Y013659D01*
X008744Y013659D01*
X009498Y013200D02*
X009143Y012846D01*
X009143Y012334D01*
X009143Y011468D02*
X009143Y010956D01*
X009498Y010602D01*
X011742Y010602D01*
X011742Y011468D01*
X011742Y012334D02*
X011742Y013200D01*
X009498Y013200D01*
X007878Y013659D02*
X007366Y013659D01*
X007012Y014013D01*
X007012Y016257D01*
X007878Y016257D01*
X008685Y016119D02*
X008750Y016096D01*
X008813Y016070D01*
X008874Y016040D01*
X008934Y016006D01*
X008992Y015970D01*
X009048Y015930D01*
X009101Y015887D01*
X009152Y015841D01*
X009200Y015792D01*
X009245Y015741D01*
X009288Y015687D01*
X009327Y015631D01*
X009363Y015573D01*
X009396Y015512D01*
X009425Y015450D01*
X009451Y015387D01*
X009473Y015322D01*
X009492Y015256D01*
X009506Y015189D01*
X009517Y015122D01*
X009524Y015053D01*
X009528Y014985D01*
X009527Y014916D01*
X009523Y014848D01*
X009514Y014780D01*
X009502Y014713D01*
X009487Y014646D01*
X009467Y014580D01*
X009444Y014516D01*
X009417Y014453D01*
X009386Y014391D01*
X009353Y014332D01*
X009316Y014274D01*
X009275Y014219D01*
X009232Y014166D01*
X009186Y014115D01*
X009137Y014067D01*
X009085Y014022D01*
X009031Y013980D01*
X008975Y013941D01*
X008916Y013905D01*
X008856Y013873D01*
X008794Y013844D01*
X008730Y013818D01*
X008665Y013797D01*
X007937Y013797D02*
X007872Y013820D01*
X007809Y013846D01*
X007748Y013876D01*
X007688Y013910D01*
X007630Y013946D01*
X007574Y013986D01*
X007521Y014029D01*
X007470Y014075D01*
X007422Y014124D01*
X007377Y014175D01*
X007334Y014229D01*
X007295Y014285D01*
X007259Y014343D01*
X007226Y014404D01*
X007197Y014466D01*
X007171Y014529D01*
X007149Y014594D01*
X007130Y014660D01*
X007116Y014727D01*
X007105Y014794D01*
X007098Y014863D01*
X007094Y014931D01*
X007095Y015000D01*
X007099Y015068D01*
X007108Y015136D01*
X007120Y015203D01*
X007135Y015270D01*
X007155Y015336D01*
X007178Y015400D01*
X007205Y015463D01*
X007236Y015525D01*
X007269Y015584D01*
X007306Y015642D01*
X007347Y015697D01*
X007390Y015750D01*
X007436Y015801D01*
X007485Y015849D01*
X007537Y015894D01*
X007591Y015936D01*
X007647Y015975D01*
X007706Y016011D01*
X007766Y016043D01*
X007828Y016072D01*
X007892Y016098D01*
X007957Y016119D01*
X006370Y016036D02*
X006370Y015536D01*
X006120Y015286D01*
X005620Y015286D01*
X005370Y015536D01*
X005370Y016036D01*
X005620Y016286D01*
X005370Y016536D01*
X005370Y017036D01*
X005620Y017286D01*
X005370Y017536D01*
X005370Y018036D01*
X005620Y018286D01*
X005370Y018536D01*
X005370Y019036D01*
X005620Y019286D01*
X006120Y019286D01*
X006370Y019036D01*
X006370Y018536D01*
X006120Y018286D01*
X006370Y018036D01*
X006370Y017536D01*
X006120Y017286D01*
X006370Y017036D01*
X006370Y016536D01*
X006120Y016286D01*
X006370Y016036D01*
X006120Y012889D02*
X005620Y012889D01*
X005370Y012639D01*
X005370Y012139D01*
X005620Y011889D01*
X005370Y011639D01*
X005370Y011139D01*
X005620Y010889D01*
X005370Y010639D01*
X005370Y010139D01*
X005620Y009889D01*
X005370Y009639D01*
X005370Y009139D01*
X005620Y008889D01*
X006120Y008889D01*
X006370Y009139D01*
X006370Y009639D01*
X006120Y009889D01*
X006370Y010139D01*
X006370Y010639D01*
X006120Y010889D01*
X006370Y011139D01*
X006370Y011639D01*
X006120Y011889D01*
X006370Y012139D01*
X006370Y012639D01*
X006120Y012889D01*
X009281Y012275D02*
X009304Y012340D01*
X009330Y012403D01*
X009360Y012464D01*
X009394Y012524D01*
X009430Y012582D01*
X009470Y012638D01*
X009513Y012691D01*
X009559Y012742D01*
X009608Y012790D01*
X009659Y012835D01*
X009713Y012878D01*
X009769Y012917D01*
X009827Y012953D01*
X009888Y012986D01*
X009950Y013015D01*
X010013Y013041D01*
X010078Y013063D01*
X010144Y013082D01*
X010211Y013096D01*
X010278Y013107D01*
X010347Y013114D01*
X010415Y013118D01*
X010484Y013117D01*
X010552Y013113D01*
X010620Y013104D01*
X010687Y013092D01*
X010754Y013077D01*
X010820Y013057D01*
X010884Y013034D01*
X010947Y013007D01*
X011009Y012976D01*
X011068Y012943D01*
X011126Y012906D01*
X011181Y012865D01*
X011234Y012822D01*
X011285Y012776D01*
X011333Y012727D01*
X011378Y012675D01*
X011420Y012621D01*
X011459Y012565D01*
X011495Y012506D01*
X011527Y012446D01*
X011556Y012384D01*
X011582Y012320D01*
X011603Y012255D01*
X011604Y011527D02*
X011581Y011462D01*
X011555Y011399D01*
X011525Y011338D01*
X011491Y011278D01*
X011455Y011220D01*
X011415Y011164D01*
X011372Y011111D01*
X011326Y011060D01*
X011277Y011012D01*
X011226Y010967D01*
X011172Y010924D01*
X011116Y010885D01*
X011058Y010849D01*
X010997Y010816D01*
X010935Y010787D01*
X010872Y010761D01*
X010807Y010739D01*
X010741Y010720D01*
X010674Y010706D01*
X010607Y010695D01*
X010538Y010688D01*
X010470Y010684D01*
X010401Y010685D01*
X010333Y010689D01*
X010265Y010698D01*
X010198Y010710D01*
X010131Y010725D01*
X010065Y010745D01*
X010001Y010768D01*
X009938Y010795D01*
X009876Y010826D01*
X009817Y010859D01*
X009759Y010896D01*
X009704Y010937D01*
X009651Y010980D01*
X009600Y011026D01*
X009552Y011075D01*
X009507Y011127D01*
X009465Y011181D01*
X009426Y011237D01*
X009390Y011296D01*
X009358Y011356D01*
X009329Y011418D01*
X009303Y011482D01*
X009282Y011547D01*
X016320Y012095D02*
X016320Y012745D01*
X016322Y012762D01*
X016326Y012779D01*
X016333Y012795D01*
X016343Y012809D01*
X016356Y012822D01*
X016370Y012832D01*
X016386Y012839D01*
X016403Y012843D01*
X016420Y012845D01*
X017020Y012845D02*
X017037Y012843D01*
X017054Y012839D01*
X017070Y012832D01*
X017084Y012822D01*
X017097Y012809D01*
X017107Y012795D01*
X017114Y012779D01*
X017118Y012762D01*
X017120Y012745D01*
X017120Y012095D01*
X017118Y012078D01*
X017114Y012061D01*
X017107Y012045D01*
X017097Y012031D01*
X017084Y012018D01*
X017070Y012008D01*
X017054Y012001D01*
X017037Y011997D01*
X017020Y011995D01*
X017320Y012095D02*
X017320Y012745D01*
X017322Y012762D01*
X017326Y012779D01*
X017333Y012795D01*
X017343Y012809D01*
X017356Y012822D01*
X017370Y012832D01*
X017386Y012839D01*
X017403Y012843D01*
X017420Y012845D01*
X018020Y012845D02*
X018037Y012843D01*
X018054Y012839D01*
X018070Y012832D01*
X018084Y012822D01*
X018097Y012809D01*
X018107Y012795D01*
X018114Y012779D01*
X018118Y012762D01*
X018120Y012745D01*
X018120Y012095D01*
X018118Y012078D01*
X018114Y012061D01*
X018107Y012045D01*
X018097Y012031D01*
X018084Y012018D01*
X018070Y012008D01*
X018054Y012001D01*
X018037Y011997D01*
X018020Y011995D01*
X018326Y012105D02*
X018326Y012735D01*
X018327Y012735D02*
X018333Y012753D01*
X018342Y012771D01*
X018354Y012786D01*
X018370Y012798D01*
X018387Y012807D01*
X018406Y012813D01*
X018425Y012815D01*
X018445Y012813D01*
X018995Y012813D02*
X019013Y012815D01*
X019030Y012814D01*
X019047Y012810D01*
X019063Y012803D01*
X019078Y012793D01*
X019090Y012781D01*
X019100Y012767D01*
X019108Y012751D01*
X019113Y012735D01*
X019114Y012735D02*
X019114Y012105D01*
X019113Y012105D02*
X019108Y012089D01*
X019100Y012073D01*
X019090Y012059D01*
X019078Y012047D01*
X019063Y012037D01*
X019047Y012030D01*
X019030Y012026D01*
X019013Y012025D01*
X018995Y012027D01*
X018445Y012027D02*
X018425Y012025D01*
X018406Y012027D01*
X018387Y012033D01*
X018370Y012042D01*
X018354Y012054D01*
X018342Y012069D01*
X018333Y012087D01*
X018327Y012105D01*
X017420Y011995D02*
X017403Y011997D01*
X017386Y012001D01*
X017370Y012008D01*
X017356Y012018D01*
X017343Y012031D01*
X017333Y012045D01*
X017326Y012061D01*
X017322Y012078D01*
X017320Y012095D01*
X016420Y011995D02*
X016403Y011997D01*
X016386Y012001D01*
X016370Y012008D01*
X016356Y012018D01*
X016343Y012031D01*
X016333Y012045D01*
X016326Y012061D01*
X016322Y012078D01*
X016320Y012095D01*
X016320Y018345D02*
X016320Y018995D01*
X016322Y019012D01*
X016326Y019029D01*
X016333Y019045D01*
X016343Y019059D01*
X016356Y019072D01*
X016370Y019082D01*
X016386Y019089D01*
X016403Y019093D01*
X016420Y019095D01*
X017020Y019095D02*
X017037Y019093D01*
X017054Y019089D01*
X017070Y019082D01*
X017084Y019072D01*
X017097Y019059D01*
X017107Y019045D01*
X017114Y019029D01*
X017118Y019012D01*
X017120Y018995D01*
X017120Y018345D01*
X017118Y018328D01*
X017114Y018311D01*
X017107Y018295D01*
X017097Y018281D01*
X017084Y018268D01*
X017070Y018258D01*
X017054Y018251D01*
X017037Y018247D01*
X017020Y018245D01*
X017320Y018345D02*
X017320Y018995D01*
X017322Y019012D01*
X017326Y019029D01*
X017333Y019045D01*
X017343Y019059D01*
X017356Y019072D01*
X017370Y019082D01*
X017386Y019089D01*
X017403Y019093D01*
X017420Y019095D01*
X018020Y019095D02*
X018037Y019093D01*
X018054Y019089D01*
X018070Y019082D01*
X018084Y019072D01*
X018097Y019059D01*
X018107Y019045D01*
X018114Y019029D01*
X018118Y019012D01*
X018120Y018995D01*
X018120Y018345D01*
X018118Y018328D01*
X018114Y018311D01*
X018107Y018295D01*
X018097Y018281D01*
X018084Y018268D01*
X018070Y018258D01*
X018054Y018251D01*
X018037Y018247D01*
X018020Y018245D01*
X018276Y018355D02*
X018276Y018985D01*
X018277Y018985D02*
X018283Y019003D01*
X018292Y019021D01*
X018304Y019036D01*
X018320Y019048D01*
X018337Y019057D01*
X018356Y019063D01*
X018375Y019065D01*
X018395Y019063D01*
X018945Y019063D02*
X018963Y019065D01*
X018980Y019064D01*
X018997Y019060D01*
X019013Y019053D01*
X019028Y019043D01*
X019040Y019031D01*
X019050Y019017D01*
X019058Y019001D01*
X019063Y018985D01*
X019064Y018985D02*
X019064Y018355D01*
X019063Y018355D02*
X019058Y018339D01*
X019050Y018323D01*
X019040Y018309D01*
X019028Y018297D01*
X019013Y018287D01*
X018997Y018280D01*
X018980Y018276D01*
X018963Y018275D01*
X018945Y018277D01*
X018395Y018277D02*
X018375Y018275D01*
X018356Y018277D01*
X018337Y018283D01*
X018320Y018292D01*
X018304Y018304D01*
X018292Y018319D01*
X018283Y018337D01*
X018277Y018355D01*
X017420Y018245D02*
X017403Y018247D01*
X017386Y018251D01*
X017370Y018258D01*
X017356Y018268D01*
X017343Y018281D01*
X017333Y018295D01*
X017326Y018311D01*
X017322Y018328D01*
X017320Y018345D01*
X016420Y018245D02*
X016403Y018247D01*
X016386Y018251D01*
X016370Y018258D01*
X016356Y018268D01*
X016343Y018281D01*
X016333Y018295D01*
X016326Y018311D01*
X016322Y018328D01*
X016320Y018345D01*
D20*
X016507Y019264D02*
X016654Y019264D01*
X016728Y019337D01*
X016654Y019411D01*
X016507Y019411D01*
X016507Y019485D02*
X016507Y019595D01*
X016544Y019632D01*
X016691Y019632D01*
X016728Y019595D01*
X016728Y019485D01*
X016507Y019485D01*
X016507Y019706D02*
X016507Y019816D01*
X016544Y019853D01*
X016691Y019853D01*
X016728Y019816D01*
X016728Y019706D01*
X016507Y019706D01*
X015728Y019706D02*
X015728Y019816D01*
X015691Y019853D01*
X015654Y019853D01*
X015618Y019816D01*
X015618Y019706D01*
X015728Y019706D02*
X015507Y019706D01*
X015507Y019816D01*
X015544Y019853D01*
X015581Y019853D01*
X015618Y019816D01*
X015728Y019632D02*
X015728Y019485D01*
X015728Y019558D02*
X015507Y019558D01*
X015581Y019485D01*
X014728Y019485D02*
X014728Y019632D01*
X014728Y019558D02*
X014507Y019558D01*
X014581Y019485D01*
X014581Y019706D02*
X014507Y019779D01*
X014581Y019853D01*
X014728Y019853D01*
X014618Y019853D02*
X014618Y019706D01*
X014581Y019706D02*
X014728Y019706D01*
X013728Y019706D02*
X013581Y019706D01*
X013507Y019779D01*
X013581Y019853D01*
X013728Y019853D01*
X013618Y019853D02*
X013618Y019706D01*
X013581Y019632D02*
X013544Y019632D01*
X013507Y019595D01*
X013507Y019522D01*
X013544Y019485D01*
X013581Y019632D02*
X013728Y019485D01*
X013728Y019632D01*
X012728Y019632D02*
X012728Y019485D01*
X012581Y019632D01*
X012544Y019632D01*
X012507Y019595D01*
X012507Y019522D01*
X012544Y019485D01*
X012507Y019706D02*
X012507Y019816D01*
X012544Y019853D01*
X012581Y019853D01*
X012618Y019816D01*
X012618Y019706D01*
X012728Y019706D02*
X012728Y019816D01*
X012691Y019853D01*
X012654Y019853D01*
X012618Y019816D01*
X012728Y019706D02*
X012507Y019706D01*
X011728Y019706D02*
X011728Y019816D01*
X011691Y019853D01*
X011544Y019853D01*
X011507Y019816D01*
X011507Y019706D01*
X011728Y019706D01*
X011728Y019632D02*
X011507Y019632D01*
X011507Y019485D02*
X011728Y019632D01*
X011728Y019485D02*
X011507Y019485D01*
X011544Y019411D02*
X011507Y019374D01*
X011507Y019301D01*
X011544Y019264D01*
X011691Y019264D01*
X011728Y019301D01*
X011728Y019374D01*
X011691Y019411D01*
X011618Y019411D01*
X011618Y019337D01*
X010728Y019338D02*
X010581Y019338D01*
X010581Y019374D01*
X010618Y019411D01*
X010581Y019448D01*
X010618Y019484D01*
X010728Y019484D01*
X010728Y019411D02*
X010618Y019411D01*
X010618Y019559D02*
X010691Y019559D01*
X010728Y019595D01*
X010728Y019669D01*
X010691Y019705D01*
X010618Y019705D01*
X010581Y019669D01*
X010581Y019595D01*
X010618Y019559D01*
X010581Y019780D02*
X010581Y019853D01*
X010544Y019816D02*
X010691Y019816D01*
X010728Y019853D01*
X010654Y019263D02*
X010507Y019263D01*
X010507Y019117D02*
X010654Y019117D01*
X010728Y019190D01*
X010654Y019263D01*
X010767Y016295D02*
X010988Y016295D01*
X010767Y016148D01*
X010988Y016148D01*
X010988Y016074D02*
X010988Y015927D01*
X010767Y015927D01*
X010767Y016074D01*
X010878Y016000D02*
X010878Y015927D01*
X011767Y015927D02*
X011841Y016000D01*
X011767Y016074D01*
X011988Y016074D01*
X011951Y016148D02*
X011988Y016185D01*
X011988Y016258D01*
X011951Y016295D01*
X011914Y016295D01*
X011878Y016258D01*
X011878Y016185D01*
X011841Y016148D01*
X011804Y016148D01*
X011767Y016185D01*
X011767Y016258D01*
X011804Y016295D01*
X011841Y016369D02*
X011767Y016442D01*
X011988Y016442D01*
X011988Y016369D02*
X011988Y016516D01*
X011988Y015927D02*
X011767Y015927D01*
X012767Y015927D02*
X012841Y016000D01*
X012767Y016074D01*
X012988Y016074D01*
X012951Y016148D02*
X012988Y016185D01*
X012988Y016258D01*
X012951Y016295D01*
X012914Y016295D01*
X012878Y016258D01*
X012878Y016185D01*
X012841Y016148D01*
X012804Y016148D01*
X012767Y016185D01*
X012767Y016258D01*
X012804Y016295D01*
X012804Y016369D02*
X012767Y016406D01*
X012767Y016479D01*
X012804Y016516D01*
X012841Y016516D01*
X012988Y016369D01*
X012988Y016516D01*
X012988Y015927D02*
X012767Y015927D01*
X013767Y015927D02*
X013841Y016000D01*
X013767Y016074D01*
X013988Y016074D01*
X013951Y016148D02*
X013988Y016185D01*
X013988Y016258D01*
X013951Y016295D01*
X013914Y016295D01*
X013878Y016258D01*
X013878Y016185D01*
X013841Y016148D01*
X013804Y016148D01*
X013767Y016185D01*
X013767Y016258D01*
X013804Y016295D01*
X013804Y016369D02*
X013767Y016406D01*
X013767Y016479D01*
X013804Y016516D01*
X013841Y016516D01*
X013878Y016479D01*
X013914Y016516D01*
X013951Y016516D01*
X013988Y016479D01*
X013988Y016406D01*
X013951Y016369D01*
X013878Y016442D02*
X013878Y016479D01*
X013988Y015927D02*
X013767Y015927D01*
X014767Y015927D02*
X014767Y016037D01*
X014804Y016074D01*
X014878Y016074D01*
X014914Y016037D01*
X014914Y015927D01*
X014914Y016000D02*
X014988Y016074D01*
X014951Y016148D02*
X014988Y016185D01*
X014988Y016258D01*
X014951Y016295D01*
X014914Y016295D01*
X014878Y016258D01*
X014878Y016185D01*
X014841Y016148D01*
X014804Y016148D01*
X014767Y016185D01*
X014767Y016258D01*
X014804Y016295D01*
X014767Y016369D02*
X014767Y016516D01*
X014767Y016442D02*
X014988Y016442D01*
X014988Y015927D02*
X014767Y015927D01*
X015767Y015964D02*
X015804Y015927D01*
X015841Y015927D01*
X015878Y015964D01*
X015878Y016037D01*
X015914Y016074D01*
X015951Y016074D01*
X015988Y016037D01*
X015988Y015964D01*
X015951Y015927D01*
X015767Y015964D02*
X015767Y016037D01*
X015804Y016074D01*
X015767Y016148D02*
X015988Y016148D01*
X015988Y016295D01*
X015988Y016369D02*
X015767Y016369D01*
X015767Y016479D01*
X015804Y016516D01*
X015878Y016516D01*
X015914Y016479D01*
X015914Y016369D01*
X016767Y016369D02*
X016988Y016369D01*
X016988Y016516D01*
X016988Y016590D02*
X016767Y016590D01*
X016767Y016700D01*
X016804Y016737D01*
X016878Y016737D01*
X016914Y016700D01*
X016914Y016590D01*
X016878Y016442D02*
X016878Y016369D01*
X016767Y016369D02*
X016767Y016516D01*
X016767Y016295D02*
X016767Y016148D01*
X016767Y016221D02*
X016988Y016221D01*
X016951Y016074D02*
X016914Y016074D01*
X016878Y016037D01*
X016878Y015964D01*
X016841Y015927D01*
X016804Y015927D01*
X016767Y015964D01*
X016767Y016037D01*
X016804Y016074D01*
X016951Y016074D02*
X016988Y016037D01*
X016988Y015964D01*
X016951Y015927D01*
X017767Y015927D02*
X017767Y016037D01*
X017804Y016074D01*
X017951Y016074D01*
X017988Y016037D01*
X017988Y015927D01*
X017767Y015927D01*
X017767Y016148D02*
X017767Y016221D01*
X017767Y016185D02*
X017988Y016185D01*
X017988Y016221D02*
X017988Y016148D01*
X017988Y016295D02*
X017767Y016295D01*
X017767Y016405D01*
X017804Y016442D01*
X017878Y016442D01*
X017914Y016405D01*
X017914Y016295D01*
X017914Y016369D02*
X017988Y016442D01*
X017691Y019264D02*
X017728Y019301D01*
X017728Y019374D01*
X017691Y019411D01*
X017618Y019411D01*
X017618Y019337D01*
X017544Y019264D02*
X017691Y019264D01*
X017544Y019264D02*
X017507Y019301D01*
X017507Y019374D01*
X017544Y019411D01*
X017507Y019485D02*
X017728Y019632D01*
X017507Y019632D01*
X017507Y019706D02*
X017507Y019816D01*
X017544Y019853D01*
X017691Y019853D01*
X017728Y019816D01*
X017728Y019706D01*
X017507Y019706D01*
X017507Y019485D02*
X017728Y019485D01*
X017711Y013534D02*
X017564Y013534D01*
X017527Y013497D01*
X017527Y013387D01*
X017747Y013387D01*
X017747Y013497D01*
X017711Y013534D01*
X017747Y013313D02*
X017527Y013313D01*
X017527Y013166D02*
X017747Y013313D01*
X017747Y013166D02*
X017527Y013166D01*
X017564Y013092D02*
X017527Y013055D01*
X017527Y012982D01*
X017564Y012945D01*
X017711Y012945D01*
X017747Y012982D01*
X017747Y013055D01*
X017711Y013092D01*
X017637Y013092D01*
X017637Y013018D01*
X016747Y013018D02*
X016674Y013092D01*
X016527Y013092D01*
X016527Y013166D02*
X016527Y013276D01*
X016564Y013313D01*
X016711Y013313D01*
X016747Y013276D01*
X016747Y013166D01*
X016527Y013166D01*
X016527Y013387D02*
X016527Y013497D01*
X016564Y013534D01*
X016711Y013534D01*
X016747Y013497D01*
X016747Y013387D01*
X016527Y013387D01*
X016747Y013018D02*
X016674Y012945D01*
X016527Y012945D01*
X015747Y013166D02*
X015747Y013313D01*
X015747Y013239D02*
X015527Y013239D01*
X015600Y013166D01*
X015637Y013387D02*
X015637Y013497D01*
X015674Y013534D01*
X015711Y013534D01*
X015747Y013497D01*
X015747Y013387D01*
X015527Y013387D01*
X015527Y013497D01*
X015564Y013534D01*
X015600Y013534D01*
X015637Y013497D01*
X014747Y013534D02*
X014600Y013534D01*
X014527Y013460D01*
X014600Y013387D01*
X014747Y013387D01*
X014747Y013313D02*
X014747Y013166D01*
X014747Y013239D02*
X014527Y013239D01*
X014600Y013166D01*
X014637Y013387D02*
X014637Y013534D01*
X013747Y013534D02*
X013600Y013534D01*
X013527Y013460D01*
X013600Y013387D01*
X013747Y013387D01*
X013747Y013313D02*
X013747Y013166D01*
X013600Y013313D01*
X013564Y013313D01*
X013527Y013276D01*
X013527Y013203D01*
X013564Y013166D01*
X013637Y013387D02*
X013637Y013534D01*
X012747Y013497D02*
X012747Y013387D01*
X012527Y013387D01*
X012527Y013497D01*
X012564Y013534D01*
X012600Y013534D01*
X012637Y013497D01*
X012637Y013387D01*
X012600Y013313D02*
X012564Y013313D01*
X012527Y013276D01*
X012527Y013203D01*
X012564Y013166D01*
X012600Y013313D02*
X012747Y013166D01*
X012747Y013313D01*
X012747Y013497D02*
X012711Y013534D01*
X012674Y013534D01*
X012637Y013497D01*
X011747Y013497D02*
X011747Y013387D01*
X011527Y013387D01*
X011527Y013497D01*
X011564Y013534D01*
X011711Y013534D01*
X011747Y013497D01*
X011747Y013313D02*
X011527Y013313D01*
X011527Y013166D02*
X011747Y013313D01*
X011747Y013166D02*
X011527Y013166D01*
X011564Y013092D02*
X011527Y013055D01*
X011527Y012982D01*
X011564Y012945D01*
X011711Y012945D01*
X011747Y012982D01*
X011747Y013055D01*
X011711Y013092D01*
X011637Y013092D01*
X011637Y013018D01*
X010747Y013019D02*
X010600Y013019D01*
X010600Y013055D01*
X010637Y013092D01*
X010600Y013129D01*
X010637Y013165D01*
X010747Y013165D01*
X010747Y013092D02*
X010637Y013092D01*
X010637Y013240D02*
X010711Y013240D01*
X010747Y013276D01*
X010747Y013350D01*
X010711Y013386D01*
X010637Y013386D01*
X010600Y013350D01*
X010600Y013276D01*
X010637Y013240D01*
X010600Y013461D02*
X010600Y013534D01*
X010564Y013497D02*
X010711Y013497D01*
X010747Y013534D01*
X010674Y012944D02*
X010527Y012944D01*
X010527Y012798D02*
X010674Y012798D01*
X010747Y012871D01*
X010674Y012944D01*
X011787Y010123D02*
X012007Y010123D01*
X012007Y010050D02*
X012007Y010197D01*
X011860Y010050D02*
X011787Y010123D01*
X011824Y009976D02*
X011787Y009939D01*
X011787Y009866D01*
X011824Y009829D01*
X011860Y009829D01*
X011897Y009866D01*
X011897Y009939D01*
X011934Y009976D01*
X011971Y009976D01*
X012007Y009939D01*
X012007Y009866D01*
X011971Y009829D01*
X012007Y009755D02*
X011787Y009755D01*
X011860Y009681D01*
X011787Y009608D01*
X012007Y009608D01*
X012787Y009608D02*
X012860Y009681D01*
X012787Y009755D01*
X013007Y009755D01*
X012971Y009829D02*
X013007Y009866D01*
X013007Y009939D01*
X012971Y009976D01*
X012934Y009976D01*
X012897Y009939D01*
X012897Y009866D01*
X012860Y009829D01*
X012824Y009829D01*
X012787Y009866D01*
X012787Y009939D01*
X012824Y009976D01*
X012824Y010050D02*
X012787Y010087D01*
X012787Y010160D01*
X012824Y010197D01*
X012860Y010197D01*
X013007Y010050D01*
X013007Y010197D01*
X013007Y009608D02*
X012787Y009608D01*
X013787Y009608D02*
X013860Y009681D01*
X013787Y009755D01*
X014007Y009755D01*
X013971Y009829D02*
X014007Y009866D01*
X014007Y009939D01*
X013971Y009976D01*
X013934Y009976D01*
X013897Y009939D01*
X013897Y009866D01*
X013860Y009829D01*
X013824Y009829D01*
X013787Y009866D01*
X013787Y009939D01*
X013824Y009976D01*
X013824Y010050D02*
X013787Y010087D01*
X013787Y010160D01*
X013824Y010197D01*
X013860Y010197D01*
X013897Y010160D01*
X013934Y010197D01*
X013971Y010197D01*
X014007Y010160D01*
X014007Y010087D01*
X013971Y010050D01*
X013897Y010123D02*
X013897Y010160D01*
X014007Y009608D02*
X013787Y009608D01*
X014787Y009608D02*
X014787Y009718D01*
X014824Y009755D01*
X014897Y009755D01*
X014934Y009718D01*
X014934Y009608D01*
X015007Y009608D02*
X014787Y009608D01*
X014934Y009681D02*
X015007Y009755D01*
X014971Y009829D02*
X015007Y009866D01*
X015007Y009939D01*
X014971Y009976D01*
X014934Y009976D01*
X014897Y009939D01*
X014897Y009866D01*
X014860Y009829D01*
X014824Y009829D01*
X014787Y009866D01*
X014787Y009939D01*
X014824Y009976D01*
X014787Y010050D02*
X014787Y010197D01*
X014787Y010123D02*
X015007Y010123D01*
X015787Y010160D02*
X015824Y010197D01*
X015897Y010197D01*
X015934Y010160D01*
X015934Y010050D01*
X016007Y010050D02*
X015787Y010050D01*
X015787Y010160D01*
X016007Y009976D02*
X016007Y009829D01*
X015787Y009829D01*
X015824Y009755D02*
X015787Y009718D01*
X015787Y009645D01*
X015824Y009608D01*
X015860Y009608D01*
X015897Y009645D01*
X015897Y009718D01*
X015934Y009755D01*
X015971Y009755D01*
X016007Y009718D01*
X016007Y009645D01*
X015971Y009608D01*
X016787Y009645D02*
X016824Y009608D01*
X016860Y009608D01*
X016897Y009645D01*
X016897Y009718D01*
X016934Y009755D01*
X016971Y009755D01*
X017007Y009718D01*
X017007Y009645D01*
X016971Y009608D01*
X016787Y009645D02*
X016787Y009718D01*
X016824Y009755D01*
X016787Y009829D02*
X016787Y009976D01*
X016787Y009902D02*
X017007Y009902D01*
X017007Y010050D02*
X016787Y010050D01*
X016787Y010197D01*
X016787Y010271D02*
X016787Y010381D01*
X016824Y010418D01*
X016897Y010418D01*
X016934Y010381D01*
X016934Y010271D01*
X017007Y010271D02*
X016787Y010271D01*
X016897Y010123D02*
X016897Y010050D01*
X017007Y010050D02*
X017007Y010197D01*
X017787Y010086D02*
X017787Y009976D01*
X018007Y009976D01*
X017934Y009976D02*
X017934Y010086D01*
X017897Y010123D01*
X017824Y010123D01*
X017787Y010086D01*
X017934Y010050D02*
X018007Y010123D01*
X018007Y009902D02*
X018007Y009829D01*
X018007Y009866D02*
X017787Y009866D01*
X017787Y009902D02*
X017787Y009829D01*
X017824Y009755D02*
X017787Y009718D01*
X017787Y009608D01*
X018007Y009608D01*
X018007Y009718D01*
X017971Y009755D01*
X017824Y009755D01*
X011007Y009755D02*
X011007Y009608D01*
X010787Y009608D01*
X010787Y009755D01*
X010787Y009829D02*
X011007Y009976D01*
X010787Y009976D01*
X010787Y009829D02*
X011007Y009829D01*
X010897Y009681D02*
X010897Y009608D01*
X010960Y025230D02*
X010740Y025230D01*
X010813Y025303D01*
X010740Y025377D01*
X010960Y025377D01*
X010923Y025451D02*
X010960Y025488D01*
X010960Y025561D01*
X010923Y025598D01*
X010887Y025598D01*
X010850Y025561D01*
X010850Y025488D01*
X010813Y025451D01*
X010777Y025451D01*
X010740Y025488D01*
X010740Y025561D01*
X010777Y025598D01*
X010777Y025672D02*
X010740Y025709D01*
X010740Y025782D01*
X010777Y025819D01*
X010813Y025819D01*
X010850Y025782D01*
X010887Y025819D01*
X010923Y025819D01*
X010960Y025782D01*
X010960Y025709D01*
X010923Y025672D01*
X010850Y025745D02*
X010850Y025782D01*
X009960Y025819D02*
X009960Y025672D01*
X009813Y025819D01*
X009777Y025819D01*
X009740Y025782D01*
X009740Y025709D01*
X009777Y025672D01*
X009777Y025598D02*
X009740Y025561D01*
X009740Y025488D01*
X009777Y025451D01*
X009813Y025451D01*
X009850Y025488D01*
X009850Y025561D01*
X009887Y025598D01*
X009923Y025598D01*
X009960Y025561D01*
X009960Y025488D01*
X009923Y025451D01*
X009960Y025377D02*
X009740Y025377D01*
X009813Y025303D01*
X009740Y025230D01*
X009960Y025230D01*
X008960Y025230D02*
X008740Y025230D01*
X008813Y025303D01*
X008740Y025377D01*
X008960Y025377D01*
X008923Y025451D02*
X008960Y025488D01*
X008960Y025561D01*
X008923Y025598D01*
X008887Y025598D01*
X008850Y025561D01*
X008850Y025488D01*
X008813Y025451D01*
X008777Y025451D01*
X008740Y025488D01*
X008740Y025561D01*
X008777Y025598D01*
X008813Y025672D02*
X008740Y025745D01*
X008960Y025745D01*
X008960Y025672D02*
X008960Y025819D01*
X007960Y025598D02*
X007740Y025598D01*
X007740Y025451D02*
X007960Y025598D01*
X007960Y025451D02*
X007740Y025451D01*
X007740Y025377D02*
X007740Y025230D01*
X007960Y025230D01*
X007960Y025377D01*
X007850Y025303D02*
X007850Y025230D01*
X007627Y028420D02*
X007700Y028493D01*
X007627Y028566D01*
X007480Y028566D01*
X007553Y028641D02*
X007553Y028677D01*
X007590Y028714D01*
X007553Y028751D01*
X007590Y028787D01*
X007700Y028787D01*
X007700Y028714D02*
X007590Y028714D01*
X007553Y028641D02*
X007700Y028641D01*
X007663Y028862D02*
X007700Y028898D01*
X007700Y028972D01*
X007663Y029008D01*
X007590Y029008D01*
X007553Y028972D01*
X007553Y028898D01*
X007590Y028862D01*
X007663Y028862D01*
X007553Y029083D02*
X007553Y029156D01*
X007517Y029119D02*
X007663Y029119D01*
X007700Y029156D01*
X007627Y028420D02*
X007480Y028420D01*
X008480Y028604D02*
X008517Y028567D01*
X008663Y028567D01*
X008700Y028604D01*
X008700Y028677D01*
X008663Y028714D01*
X008590Y028714D01*
X008590Y028640D01*
X008517Y028714D02*
X008480Y028677D01*
X008480Y028604D01*
X008480Y028788D02*
X008700Y028935D01*
X008480Y028935D01*
X008480Y029009D02*
X008480Y029119D01*
X008517Y029156D01*
X008663Y029156D01*
X008700Y029119D01*
X008700Y029009D01*
X008480Y029009D01*
X008480Y028788D02*
X008700Y028788D01*
X009480Y028825D02*
X009517Y028788D01*
X009480Y028825D02*
X009480Y028898D01*
X009517Y028935D01*
X009553Y028935D01*
X009700Y028788D01*
X009700Y028935D01*
X009700Y029009D02*
X009700Y029119D01*
X009663Y029156D01*
X009627Y029156D01*
X009590Y029119D01*
X009590Y029009D01*
X009700Y029009D02*
X009480Y029009D01*
X009480Y029119D01*
X009517Y029156D01*
X009553Y029156D01*
X009590Y029119D01*
X010480Y029082D02*
X010553Y029156D01*
X010700Y029156D01*
X010590Y029156D02*
X010590Y029009D01*
X010553Y029009D02*
X010480Y029082D01*
X010553Y029009D02*
X010700Y029009D01*
X010700Y028935D02*
X010700Y028788D01*
X010553Y028935D01*
X010517Y028935D01*
X010480Y028898D01*
X010480Y028825D01*
X010517Y028788D01*
X011480Y028861D02*
X011700Y028861D01*
X011700Y028788D02*
X011700Y028935D01*
X011700Y029009D02*
X011553Y029009D01*
X011480Y029082D01*
X011553Y029156D01*
X011700Y029156D01*
X011590Y029156D02*
X011590Y029009D01*
X011480Y028861D02*
X011553Y028788D01*
X012480Y028861D02*
X012700Y028861D01*
X012700Y028788D02*
X012700Y028935D01*
X012700Y029009D02*
X012700Y029119D01*
X012663Y029156D01*
X012627Y029156D01*
X012590Y029119D01*
X012590Y029009D01*
X012700Y029009D02*
X012480Y029009D01*
X012480Y029119D01*
X012517Y029156D01*
X012553Y029156D01*
X012590Y029119D01*
X012480Y028861D02*
X012553Y028788D01*
X013480Y028788D02*
X013480Y028898D01*
X013517Y028935D01*
X013663Y028935D01*
X013700Y028898D01*
X013700Y028788D01*
X013480Y028788D01*
X013480Y028714D02*
X013627Y028714D01*
X013700Y028640D01*
X013627Y028567D01*
X013480Y028567D01*
X013480Y029009D02*
X013480Y029119D01*
X013517Y029156D01*
X013663Y029156D01*
X013700Y029119D01*
X013700Y029009D01*
X013480Y029009D01*
X014480Y029009D02*
X014480Y029119D01*
X014517Y029156D01*
X014663Y029156D01*
X014700Y029119D01*
X014700Y029009D01*
X014480Y029009D01*
X014480Y028935D02*
X014700Y028935D01*
X014480Y028788D01*
X014700Y028788D01*
X014663Y028714D02*
X014590Y028714D01*
X014590Y028640D01*
X014663Y028567D02*
X014700Y028604D01*
X014700Y028677D01*
X014663Y028714D01*
X014517Y028714D02*
X014480Y028677D01*
X014480Y028604D01*
X014517Y028567D01*
X014663Y028567D01*
X013850Y026040D02*
X013887Y026003D01*
X013887Y025893D01*
X013960Y025893D02*
X013740Y025893D01*
X013740Y026003D01*
X013777Y026040D01*
X013850Y026040D01*
X013960Y025819D02*
X013960Y025672D01*
X013740Y025672D01*
X013740Y025819D01*
X013850Y025745D02*
X013850Y025672D01*
X013740Y025598D02*
X013740Y025451D01*
X013740Y025524D02*
X013960Y025524D01*
X013923Y025377D02*
X013887Y025377D01*
X013850Y025340D01*
X013850Y025267D01*
X013813Y025230D01*
X013777Y025230D01*
X013740Y025267D01*
X013740Y025340D01*
X013777Y025377D01*
X013923Y025377D02*
X013960Y025340D01*
X013960Y025267D01*
X013923Y025230D01*
X014740Y025230D02*
X014740Y025340D01*
X014777Y025377D01*
X014923Y025377D01*
X014960Y025340D01*
X014960Y025230D01*
X014740Y025230D01*
X014740Y025451D02*
X014740Y025524D01*
X014740Y025488D02*
X014960Y025488D01*
X014960Y025524D02*
X014960Y025451D01*
X014960Y025598D02*
X014740Y025598D01*
X014740Y025708D01*
X014777Y025745D01*
X014850Y025745D01*
X014887Y025708D01*
X014887Y025598D01*
X014887Y025672D02*
X014960Y025745D01*
X012960Y025672D02*
X012740Y025672D01*
X012740Y025782D01*
X012777Y025819D01*
X012850Y025819D01*
X012887Y025782D01*
X012887Y025672D01*
X012960Y025598D02*
X012960Y025451D01*
X012740Y025451D01*
X012777Y025377D02*
X012740Y025340D01*
X012740Y025267D01*
X012777Y025230D01*
X012813Y025230D01*
X012850Y025267D01*
X012850Y025340D01*
X012887Y025377D01*
X012923Y025377D01*
X012960Y025340D01*
X012960Y025267D01*
X012923Y025230D01*
X011960Y025230D02*
X011740Y025230D01*
X011740Y025340D01*
X011777Y025377D01*
X011850Y025377D01*
X011887Y025340D01*
X011887Y025230D01*
X011887Y025303D02*
X011960Y025377D01*
X011923Y025451D02*
X011960Y025488D01*
X011960Y025561D01*
X011923Y025598D01*
X011887Y025598D01*
X011850Y025561D01*
X011850Y025488D01*
X011813Y025451D01*
X011777Y025451D01*
X011740Y025488D01*
X011740Y025561D01*
X011777Y025598D01*
X011740Y025672D02*
X011740Y025819D01*
X011740Y025745D02*
X011960Y025745D01*
D21*
X002815Y021645D02*
X002815Y021595D01*
X002790Y021570D01*
X002740Y021570D02*
X002715Y021620D01*
X002715Y021645D01*
X002740Y021670D01*
X002790Y021670D01*
X002815Y021645D01*
X002740Y021570D02*
X002665Y021570D01*
X002665Y021670D01*
X002690Y021522D02*
X002740Y021522D01*
X002765Y021497D01*
X002765Y021422D01*
X002815Y021422D02*
X002665Y021422D01*
X002665Y021497D01*
X002690Y021522D01*
X002665Y021375D02*
X002665Y021325D01*
X002665Y021350D02*
X002790Y021350D01*
X002815Y021325D01*
X002815Y021300D01*
X002790Y021275D01*
X002815Y015135D02*
X002815Y015035D01*
X002715Y015135D01*
X002690Y015135D01*
X002665Y015110D01*
X002665Y015060D01*
X002690Y015035D01*
X002690Y014988D02*
X002740Y014988D01*
X002765Y014963D01*
X002765Y014888D01*
X002815Y014888D02*
X002665Y014888D01*
X002665Y014963D01*
X002690Y014988D01*
X002665Y014841D02*
X002665Y014791D01*
X002665Y014816D02*
X002790Y014816D01*
X002815Y014791D01*
X002815Y014766D01*
X002790Y014741D01*
X002690Y008742D02*
X002790Y008642D01*
X002815Y008642D01*
X002765Y008569D02*
X002765Y008494D01*
X002815Y008494D02*
X002665Y008494D01*
X002665Y008569D01*
X002690Y008594D01*
X002740Y008594D01*
X002765Y008569D01*
X002665Y008642D02*
X002665Y008742D01*
X002690Y008742D01*
X002665Y008447D02*
X002665Y008397D01*
X002665Y008422D02*
X002790Y008422D01*
X002815Y008397D01*
X002815Y008372D01*
X002790Y008347D01*
D22*
X013143Y002481D03*
X013616Y002481D03*
M02*
