G75*
G70*
%OFA0B0*%
%FSLAX24Y24*%
%IPPOS*%
%LPD*%
%AMOC8*
5,1,8,0,0,1.08239X$1,22.5*
%
%ADD10C,0.0160*%
%ADD11C,0.0000*%
%ADD12R,0.0472X0.0472*%
%ADD13R,0.0630X0.1378*%
%ADD14R,0.0591X0.0512*%
%ADD15R,0.1378X0.0630*%
%ADD16R,0.0512X0.0591*%
%ADD17R,0.0433X0.0295*%
D10*
X002220Y002007D02*
X003007Y001220D01*
X040803Y001220D01*
X041590Y002007D01*
X041590Y031929D01*
X040803Y032716D01*
X003007Y032716D01*
X002220Y031929D01*
X002220Y002007D01*
D11*
X007090Y002751D02*
X007092Y002801D01*
X007098Y002851D01*
X007108Y002900D01*
X007122Y002948D01*
X007139Y002995D01*
X007160Y003040D01*
X007185Y003084D01*
X007213Y003125D01*
X007245Y003164D01*
X007279Y003201D01*
X007316Y003235D01*
X007356Y003265D01*
X007398Y003292D01*
X007442Y003316D01*
X007488Y003337D01*
X007535Y003353D01*
X007583Y003366D01*
X007633Y003375D01*
X007682Y003380D01*
X007733Y003381D01*
X007783Y003378D01*
X007832Y003371D01*
X007881Y003360D01*
X007929Y003345D01*
X007975Y003327D01*
X008020Y003305D01*
X008063Y003279D01*
X008104Y003250D01*
X008143Y003218D01*
X008179Y003183D01*
X008211Y003145D01*
X008241Y003105D01*
X008268Y003062D01*
X008291Y003018D01*
X008310Y002972D01*
X008326Y002924D01*
X008338Y002875D01*
X008346Y002826D01*
X008350Y002776D01*
X008350Y002726D01*
X008346Y002676D01*
X008338Y002627D01*
X008326Y002578D01*
X008310Y002530D01*
X008291Y002484D01*
X008268Y002440D01*
X008241Y002397D01*
X008211Y002357D01*
X008179Y002319D01*
X008143Y002284D01*
X008104Y002252D01*
X008063Y002223D01*
X008020Y002197D01*
X007975Y002175D01*
X007929Y002157D01*
X007881Y002142D01*
X007832Y002131D01*
X007783Y002124D01*
X007733Y002121D01*
X007682Y002122D01*
X007633Y002127D01*
X007583Y002136D01*
X007535Y002149D01*
X007488Y002165D01*
X007442Y002186D01*
X007398Y002210D01*
X007356Y002237D01*
X007316Y002267D01*
X007279Y002301D01*
X007245Y002338D01*
X007213Y002377D01*
X007185Y002418D01*
X007160Y002462D01*
X007139Y002507D01*
X007122Y002554D01*
X007108Y002602D01*
X007098Y002651D01*
X007092Y002701D01*
X007090Y002751D01*
X007590Y021751D02*
X007592Y021801D01*
X007598Y021851D01*
X007608Y021900D01*
X007622Y021948D01*
X007639Y021995D01*
X007660Y022040D01*
X007685Y022084D01*
X007713Y022125D01*
X007745Y022164D01*
X007779Y022201D01*
X007816Y022235D01*
X007856Y022265D01*
X007898Y022292D01*
X007942Y022316D01*
X007988Y022337D01*
X008035Y022353D01*
X008083Y022366D01*
X008133Y022375D01*
X008182Y022380D01*
X008233Y022381D01*
X008283Y022378D01*
X008332Y022371D01*
X008381Y022360D01*
X008429Y022345D01*
X008475Y022327D01*
X008520Y022305D01*
X008563Y022279D01*
X008604Y022250D01*
X008643Y022218D01*
X008679Y022183D01*
X008711Y022145D01*
X008741Y022105D01*
X008768Y022062D01*
X008791Y022018D01*
X008810Y021972D01*
X008826Y021924D01*
X008838Y021875D01*
X008846Y021826D01*
X008850Y021776D01*
X008850Y021726D01*
X008846Y021676D01*
X008838Y021627D01*
X008826Y021578D01*
X008810Y021530D01*
X008791Y021484D01*
X008768Y021440D01*
X008741Y021397D01*
X008711Y021357D01*
X008679Y021319D01*
X008643Y021284D01*
X008604Y021252D01*
X008563Y021223D01*
X008520Y021197D01*
X008475Y021175D01*
X008429Y021157D01*
X008381Y021142D01*
X008332Y021131D01*
X008283Y021124D01*
X008233Y021121D01*
X008182Y021122D01*
X008133Y021127D01*
X008083Y021136D01*
X008035Y021149D01*
X007988Y021165D01*
X007942Y021186D01*
X007898Y021210D01*
X007856Y021237D01*
X007816Y021267D01*
X007779Y021301D01*
X007745Y021338D01*
X007713Y021377D01*
X007685Y021418D01*
X007660Y021462D01*
X007639Y021507D01*
X007622Y021554D01*
X007608Y021602D01*
X007598Y021651D01*
X007592Y021701D01*
X007590Y021751D01*
X039590Y002751D02*
X039592Y002801D01*
X039598Y002851D01*
X039608Y002900D01*
X039622Y002948D01*
X039639Y002995D01*
X039660Y003040D01*
X039685Y003084D01*
X039713Y003125D01*
X039745Y003164D01*
X039779Y003201D01*
X039816Y003235D01*
X039856Y003265D01*
X039898Y003292D01*
X039942Y003316D01*
X039988Y003337D01*
X040035Y003353D01*
X040083Y003366D01*
X040133Y003375D01*
X040182Y003380D01*
X040233Y003381D01*
X040283Y003378D01*
X040332Y003371D01*
X040381Y003360D01*
X040429Y003345D01*
X040475Y003327D01*
X040520Y003305D01*
X040563Y003279D01*
X040604Y003250D01*
X040643Y003218D01*
X040679Y003183D01*
X040711Y003145D01*
X040741Y003105D01*
X040768Y003062D01*
X040791Y003018D01*
X040810Y002972D01*
X040826Y002924D01*
X040838Y002875D01*
X040846Y002826D01*
X040850Y002776D01*
X040850Y002726D01*
X040846Y002676D01*
X040838Y002627D01*
X040826Y002578D01*
X040810Y002530D01*
X040791Y002484D01*
X040768Y002440D01*
X040741Y002397D01*
X040711Y002357D01*
X040679Y002319D01*
X040643Y002284D01*
X040604Y002252D01*
X040563Y002223D01*
X040520Y002197D01*
X040475Y002175D01*
X040429Y002157D01*
X040381Y002142D01*
X040332Y002131D01*
X040283Y002124D01*
X040233Y002121D01*
X040182Y002122D01*
X040133Y002127D01*
X040083Y002136D01*
X040035Y002149D01*
X039988Y002165D01*
X039942Y002186D01*
X039898Y002210D01*
X039856Y002237D01*
X039816Y002267D01*
X039779Y002301D01*
X039745Y002338D01*
X039713Y002377D01*
X039685Y002418D01*
X039660Y002462D01*
X039639Y002507D01*
X039622Y002554D01*
X039608Y002602D01*
X039598Y002651D01*
X039592Y002701D01*
X039590Y002751D01*
D12*
X013379Y002954D03*
X013379Y002127D03*
X013433Y023720D03*
X012607Y023720D03*
D13*
X008311Y016021D03*
X008311Y013895D03*
D14*
X007976Y018180D03*
X007976Y018849D03*
X015720Y017944D03*
X015720Y017196D03*
X021212Y019814D03*
X021212Y020562D03*
X024220Y020594D03*
X024220Y019846D03*
X014720Y025846D03*
X014720Y026594D03*
X014720Y027846D03*
X014720Y028594D03*
X015733Y011921D03*
X015733Y011173D03*
D15*
X011505Y011901D03*
X009379Y011901D03*
X009357Y018217D03*
X011483Y018217D03*
X010283Y027220D03*
X008157Y027220D03*
D16*
X021685Y031520D03*
X022355Y031520D03*
X033985Y031520D03*
X034655Y031520D03*
X013827Y004451D03*
X013079Y004451D03*
D17*
X026799Y015470D03*
X026799Y015970D03*
X026799Y016470D03*
X026799Y016970D03*
X027641Y016970D03*
X027641Y016470D03*
X027641Y015970D03*
X027641Y015470D03*
X032799Y012970D03*
X032799Y012470D03*
X032799Y011970D03*
X032799Y011470D03*
X033641Y011470D03*
X033641Y011970D03*
X033641Y012470D03*
X033641Y012970D03*
X033641Y018470D03*
X033641Y018970D03*
X033641Y019470D03*
X033641Y019970D03*
X032799Y019970D03*
X032799Y019470D03*
X032799Y018970D03*
X032799Y018470D03*
X036799Y024470D03*
X036799Y024970D03*
X036799Y025470D03*
X036799Y025970D03*
X037641Y025970D03*
X037641Y025470D03*
X037641Y024970D03*
X037641Y024470D03*
X025641Y024470D03*
X025641Y024970D03*
X025641Y025470D03*
X025641Y025970D03*
X024799Y025970D03*
X024799Y025470D03*
X024799Y024970D03*
X024799Y024470D03*
M02*
