%
M48
M72
T01C0.0236
T02C0.0276
T03C0.0315
T04C0.0354
T05C0.0360
T06C0.0394
T07C0.0400
T08C0.0472
T09C0.1181
T10C0.1260
%
T01
X29915Y2689
X29915Y4189
X28415Y11189
X27315Y11189
X25915Y11189
X28915Y13789
X28915Y14489
X26915Y14489
X27865Y16939
X26915Y17389
X25815Y19389
X26215Y20789
X23315Y19389
X23315Y17889
X21415Y18639
X20265Y18689
X19165Y17189
X18415Y17939
X17015Y17789
X15415Y19439
X14465Y18289
X14615Y17189
X13415Y17239
X10415Y16239
X14465Y12189
X14765Y11539
X13465Y11189
X15465Y13289
X16915Y11589
X18415Y10889
X20715Y11239
X19165Y13839
X20915Y8189
X14165Y4439
X12215Y5939
X9215Y8389
X10665Y10189
X4515Y8039
X5915Y22139
X4915Y25189
X3315Y26039
X5865Y27589
X7115Y26439
X11615Y26689
X13328Y27689
X14715Y27789
X15015Y27289
X16215Y23889
X16815Y23489
X18415Y23889
X19015Y23489
X24715Y28089
X23915Y28889
X24915Y29889
X28815Y27589
X30815Y24389
X29915Y23689
X32815Y27289
X35815Y29489
X36515Y30389
X37915Y29389
X38315Y29889
X40815Y31389
X39215Y27489
X37815Y27289
X37715Y20989
X34815Y19889
X31515Y11989
X31215Y11489
X7465Y30889
X3915Y30189
T02
X13781Y30509
X14765Y30509
X15749Y30509
X15749Y31809
X14765Y31809
X13781Y31809
T03
X10234Y23237
X9446Y23237
X8659Y23237
X7872Y23237
X7084Y23237
X6297Y23237
X5509Y23237
X4722Y23237
X3935Y23237
X3147Y23237
X3147Y31898
X3935Y31898
X4722Y31898
X5509Y31898
X6297Y31898
X7084Y31898
X7872Y31898
X8659Y31898
X9446Y31898
X10234Y31898
T04
X10443Y20386
X11443Y20386
X12443Y20386
X13443Y20386
X14443Y20386
X15443Y20386
X16443Y20386
X17443Y20386
X17443Y15386
X16443Y15386
X15443Y15386
X14443Y15386
X13443Y15386
X12443Y15386
X11443Y15386
X10443Y15386
X10462Y14067
X11462Y14067
X12462Y14067
X13462Y14067
X14462Y14067
X15462Y14067
X16462Y14067
X17462Y14067
X17462Y9067
X16462Y9067
X15462Y9067
X14462Y9067
X13462Y9067
X12462Y9067
X11462Y9067
X10462Y9067
T05
X6886Y6979
X5886Y6979
T06
X3484Y6898
X3484Y5520
X14915Y2721
X15915Y2721
X16915Y2721
X17915Y2721
X18915Y2721
X19915Y2721
X21915Y2721
X22915Y2721
X23915Y2721
X24915Y2721
X25915Y2721
X26915Y2721
X27915Y2721
X28915Y2721
X30915Y2721
X31915Y2721
X32915Y2721
X33915Y2721
X34915Y2721
X35915Y2721
X36915Y2721
X37915Y2721
X38915Y4721
X39915Y4721
X39915Y5721
X38915Y5721
X38915Y6721
X39915Y6721
X39915Y7721
X38915Y7721
X38915Y8721
X39915Y8721
X39915Y9721
X38915Y9721
X38915Y10721
X39915Y10721
X39915Y11721
X38915Y11721
X38915Y12721
X39915Y12721
X39915Y13721
X38915Y13721
X38915Y14721
X39915Y14721
X39915Y15721
X38915Y15721
X38915Y16721
X39915Y16721
X39915Y17721
X38915Y17721
X38915Y18721
X39915Y18721
X39915Y19721
X38915Y19721
X38915Y20721
X39915Y20721
X39915Y21721
X38915Y21721
X35915Y21721
X34915Y21721
X33915Y21721
X32915Y21721
X31915Y21721
X30915Y21721
X29915Y21721
X28915Y21721
X26915Y21721
X25915Y21721
X24915Y21721
X23915Y21721
X22915Y21721
X21915Y21721
X20915Y21721
X19915Y21721
X18315Y21721
X17315Y21721
X16315Y21721
X15315Y21721
X14315Y21721
X13315Y21721
X12315Y21721
X11315Y21721
T07
X11315Y22739
X12315Y22739
X13315Y22739
X14315Y22739
X15315Y22739
X16315Y22739
X17315Y22739
X18315Y22739
X19915Y22739
X20915Y22739
X21915Y22739
X22915Y22739
X23915Y22739
X24915Y22739
X25915Y22739
X26915Y22739
X28915Y22739
X29915Y22739
X30915Y22739
X31915Y22739
X32915Y22739
X33915Y22739
X34915Y22739
X35915Y22739
X36302Y25247
X37302Y25247
X38302Y25247
X39302Y25247
X40302Y25247
X40302Y26247
X39302Y26247
X38302Y26247
X37302Y26247
X36302Y26247
X35302Y26247
X34302Y26247
X33302Y26247
X33302Y25247
X34302Y25247
X35302Y25247
X32302Y25247
X31302Y25247
X30302Y25247
X29302Y25247
X28302Y25247
X27302Y25247
X26302Y25247
X25302Y25247
X24302Y25247
X23302Y25247
X22302Y25247
X21302Y25247
X21302Y26247
X22302Y26247
X23302Y26247
X24302Y26247
X25302Y26247
X26302Y26247
X27302Y26247
X28302Y26247
X29302Y26247
X30302Y26247
X31302Y26247
X32302Y26247
X31915Y28689
X30915Y28689
X30915Y29689
X31915Y29689
X32915Y29689
X32915Y28689
X36415Y16739
X37415Y16739
X37415Y15739
X36415Y15739
X36415Y14739
X37415Y14739
X37415Y13739
X36415Y13739
X36415Y10739
X37415Y10739
X37415Y9739
X36415Y9739
X35415Y9739
X35415Y8739
X36415Y8739
X37415Y8739
X36915Y3739
X35915Y3739
X34915Y3739
X33915Y3739
X32915Y3739
X31915Y3739
X30915Y3739
X28915Y3739
X27915Y3739
X26915Y3739
X25915Y3739
X24915Y3739
X23915Y3739
X22915Y3739
X21915Y3739
X19915Y3689
X18915Y3689
X17915Y3689
X16915Y3689
X15915Y3689
X14915Y3689
X11545Y3829
X11545Y2049
X8985Y2049
X8985Y3829
X4315Y9358
X4315Y10358
X4315Y11358
X4315Y12358
X4365Y15755
X4365Y16755
X4365Y17755
X4365Y18755
X16381Y27186
X17381Y27186
X17381Y28186
X17381Y29186
X16381Y29186
X16381Y28186
X37915Y3739
T08
X3515Y8811
X3515Y10189
X3515Y11567
X3515Y12945
X3515Y15205
X3515Y16583
X3515Y17961
X3515Y19339
T09
X5088Y2516
X3946Y4366
X6269Y4366
T10
X39915Y2721
X7915Y21721
X11915Y31189
X39915Y28189
X7415Y2721
M30
