G75*
G70*
%OFA0B0*%
%FSLAX24Y24*%
%IPPOS*%
%LPD*%
%AMOC8*
5,1,8,0,0,1.08239X$1,22.5*
%
%ADD10C,0.0160*%
%ADD11C,0.0000*%
D10*
X003160Y001147D02*
X003947Y000359D01*
X041743Y000359D01*
X042530Y001147D01*
X042530Y031068D01*
X041743Y031855D01*
X003947Y031855D01*
X003160Y031068D01*
X003160Y001147D01*
D11*
X008030Y001891D02*
X008032Y001941D01*
X008038Y001991D01*
X008048Y002040D01*
X008062Y002088D01*
X008079Y002135D01*
X008100Y002180D01*
X008125Y002224D01*
X008153Y002265D01*
X008185Y002304D01*
X008219Y002341D01*
X008256Y002375D01*
X008296Y002405D01*
X008338Y002432D01*
X008382Y002456D01*
X008428Y002477D01*
X008475Y002493D01*
X008523Y002506D01*
X008573Y002515D01*
X008622Y002520D01*
X008673Y002521D01*
X008723Y002518D01*
X008772Y002511D01*
X008821Y002500D01*
X008869Y002485D01*
X008915Y002467D01*
X008960Y002445D01*
X009003Y002419D01*
X009044Y002390D01*
X009083Y002358D01*
X009119Y002323D01*
X009151Y002285D01*
X009181Y002245D01*
X009208Y002202D01*
X009231Y002158D01*
X009250Y002112D01*
X009266Y002064D01*
X009278Y002015D01*
X009286Y001966D01*
X009290Y001916D01*
X009290Y001866D01*
X009286Y001816D01*
X009278Y001767D01*
X009266Y001718D01*
X009250Y001670D01*
X009231Y001624D01*
X009208Y001580D01*
X009181Y001537D01*
X009151Y001497D01*
X009119Y001459D01*
X009083Y001424D01*
X009044Y001392D01*
X009003Y001363D01*
X008960Y001337D01*
X008915Y001315D01*
X008869Y001297D01*
X008821Y001282D01*
X008772Y001271D01*
X008723Y001264D01*
X008673Y001261D01*
X008622Y001262D01*
X008573Y001267D01*
X008523Y001276D01*
X008475Y001289D01*
X008428Y001305D01*
X008382Y001326D01*
X008338Y001350D01*
X008296Y001377D01*
X008256Y001407D01*
X008219Y001441D01*
X008185Y001478D01*
X008153Y001517D01*
X008125Y001558D01*
X008100Y001602D01*
X008079Y001647D01*
X008062Y001694D01*
X008048Y001742D01*
X008038Y001791D01*
X008032Y001841D01*
X008030Y001891D01*
X008530Y020891D02*
X008532Y020941D01*
X008538Y020991D01*
X008548Y021040D01*
X008562Y021088D01*
X008579Y021135D01*
X008600Y021180D01*
X008625Y021224D01*
X008653Y021265D01*
X008685Y021304D01*
X008719Y021341D01*
X008756Y021375D01*
X008796Y021405D01*
X008838Y021432D01*
X008882Y021456D01*
X008928Y021477D01*
X008975Y021493D01*
X009023Y021506D01*
X009073Y021515D01*
X009122Y021520D01*
X009173Y021521D01*
X009223Y021518D01*
X009272Y021511D01*
X009321Y021500D01*
X009369Y021485D01*
X009415Y021467D01*
X009460Y021445D01*
X009503Y021419D01*
X009544Y021390D01*
X009583Y021358D01*
X009619Y021323D01*
X009651Y021285D01*
X009681Y021245D01*
X009708Y021202D01*
X009731Y021158D01*
X009750Y021112D01*
X009766Y021064D01*
X009778Y021015D01*
X009786Y020966D01*
X009790Y020916D01*
X009790Y020866D01*
X009786Y020816D01*
X009778Y020767D01*
X009766Y020718D01*
X009750Y020670D01*
X009731Y020624D01*
X009708Y020580D01*
X009681Y020537D01*
X009651Y020497D01*
X009619Y020459D01*
X009583Y020424D01*
X009544Y020392D01*
X009503Y020363D01*
X009460Y020337D01*
X009415Y020315D01*
X009369Y020297D01*
X009321Y020282D01*
X009272Y020271D01*
X009223Y020264D01*
X009173Y020261D01*
X009122Y020262D01*
X009073Y020267D01*
X009023Y020276D01*
X008975Y020289D01*
X008928Y020305D01*
X008882Y020326D01*
X008838Y020350D01*
X008796Y020377D01*
X008756Y020407D01*
X008719Y020441D01*
X008685Y020478D01*
X008653Y020517D01*
X008625Y020558D01*
X008600Y020602D01*
X008579Y020647D01*
X008562Y020694D01*
X008548Y020742D01*
X008538Y020791D01*
X008532Y020841D01*
X008530Y020891D01*
X040530Y001891D02*
X040532Y001941D01*
X040538Y001991D01*
X040548Y002040D01*
X040562Y002088D01*
X040579Y002135D01*
X040600Y002180D01*
X040625Y002224D01*
X040653Y002265D01*
X040685Y002304D01*
X040719Y002341D01*
X040756Y002375D01*
X040796Y002405D01*
X040838Y002432D01*
X040882Y002456D01*
X040928Y002477D01*
X040975Y002493D01*
X041023Y002506D01*
X041073Y002515D01*
X041122Y002520D01*
X041173Y002521D01*
X041223Y002518D01*
X041272Y002511D01*
X041321Y002500D01*
X041369Y002485D01*
X041415Y002467D01*
X041460Y002445D01*
X041503Y002419D01*
X041544Y002390D01*
X041583Y002358D01*
X041619Y002323D01*
X041651Y002285D01*
X041681Y002245D01*
X041708Y002202D01*
X041731Y002158D01*
X041750Y002112D01*
X041766Y002064D01*
X041778Y002015D01*
X041786Y001966D01*
X041790Y001916D01*
X041790Y001866D01*
X041786Y001816D01*
X041778Y001767D01*
X041766Y001718D01*
X041750Y001670D01*
X041731Y001624D01*
X041708Y001580D01*
X041681Y001537D01*
X041651Y001497D01*
X041619Y001459D01*
X041583Y001424D01*
X041544Y001392D01*
X041503Y001363D01*
X041460Y001337D01*
X041415Y001315D01*
X041369Y001297D01*
X041321Y001282D01*
X041272Y001271D01*
X041223Y001264D01*
X041173Y001261D01*
X041122Y001262D01*
X041073Y001267D01*
X041023Y001276D01*
X040975Y001289D01*
X040928Y001305D01*
X040882Y001326D01*
X040838Y001350D01*
X040796Y001377D01*
X040756Y001407D01*
X040719Y001441D01*
X040685Y001478D01*
X040653Y001517D01*
X040625Y001558D01*
X040600Y001602D01*
X040579Y001647D01*
X040562Y001694D01*
X040548Y001742D01*
X040538Y001791D01*
X040532Y001841D01*
X040530Y001891D01*
M02*
