G75*
G70*
%OFA0B0*%
%FSLAX24Y24*%
%IPPOS*%
%LPD*%
%AMOC8*
5,1,8,0,0,1.08239X$1,22.5*
%
%ADD10C,0.0160*%
%ADD11C,0.0000*%
%ADD12C,0.1300*%
%ADD13C,0.0640*%
%ADD14C,0.0634*%
%ADD15R,0.0512X0.0512*%
%ADD16R,0.0670X0.1418*%
%ADD17OC8,0.0640*%
%ADD18R,0.0631X0.0552*%
%ADD19C,0.0740*%
%ADD20OC8,0.0600*%
%ADD21C,0.0594*%
%ADD22R,0.0552X0.0631*%
%ADD23R,0.1418X0.0670*%
%ADD24R,0.0906X0.0827*%
%ADD25C,0.1930*%
%ADD26C,0.0600*%
%ADD27R,0.0512X0.0158*%
%ADD28R,0.0840X0.0840*%
%ADD29C,0.0840*%
%ADD30C,0.0900*%
%ADD31C,0.0780*%
%ADD32R,0.2481X0.2166*%
%ADD33R,0.0670X0.0434*%
%ADD34R,0.0335X0.0473*%
%ADD35R,0.0473X0.0335*%
%ADD36C,0.0516*%
%ADD37OC8,0.0740*%
%ADD38C,0.0700*%
D10*
X002702Y003185D02*
X040498Y003185D01*
X041285Y003972D01*
X041285Y033894D01*
X040498Y034681D01*
X002702Y034681D01*
X001915Y033894D01*
X001915Y003972D01*
X002702Y003185D01*
D11*
X006785Y004716D02*
X006787Y004766D01*
X006793Y004816D01*
X006803Y004865D01*
X006817Y004913D01*
X006834Y004960D01*
X006855Y005005D01*
X006880Y005049D01*
X006908Y005090D01*
X006940Y005129D01*
X006974Y005166D01*
X007011Y005200D01*
X007051Y005230D01*
X007093Y005257D01*
X007137Y005281D01*
X007183Y005302D01*
X007230Y005318D01*
X007278Y005331D01*
X007328Y005340D01*
X007377Y005345D01*
X007428Y005346D01*
X007478Y005343D01*
X007527Y005336D01*
X007576Y005325D01*
X007624Y005310D01*
X007670Y005292D01*
X007715Y005270D01*
X007758Y005244D01*
X007799Y005215D01*
X007838Y005183D01*
X007874Y005148D01*
X007906Y005110D01*
X007936Y005070D01*
X007963Y005027D01*
X007986Y004983D01*
X008005Y004937D01*
X008021Y004889D01*
X008033Y004840D01*
X008041Y004791D01*
X008045Y004741D01*
X008045Y004691D01*
X008041Y004641D01*
X008033Y004592D01*
X008021Y004543D01*
X008005Y004495D01*
X007986Y004449D01*
X007963Y004405D01*
X007936Y004362D01*
X007906Y004322D01*
X007874Y004284D01*
X007838Y004249D01*
X007799Y004217D01*
X007758Y004188D01*
X007715Y004162D01*
X007670Y004140D01*
X007624Y004122D01*
X007576Y004107D01*
X007527Y004096D01*
X007478Y004089D01*
X007428Y004086D01*
X007377Y004087D01*
X007328Y004092D01*
X007278Y004101D01*
X007230Y004114D01*
X007183Y004130D01*
X007137Y004151D01*
X007093Y004175D01*
X007051Y004202D01*
X007011Y004232D01*
X006974Y004266D01*
X006940Y004303D01*
X006908Y004342D01*
X006880Y004383D01*
X006855Y004427D01*
X006834Y004472D01*
X006817Y004519D01*
X006803Y004567D01*
X006793Y004616D01*
X006787Y004666D01*
X006785Y004716D01*
X007285Y023716D02*
X007287Y023766D01*
X007293Y023816D01*
X007303Y023865D01*
X007317Y023913D01*
X007334Y023960D01*
X007355Y024005D01*
X007380Y024049D01*
X007408Y024090D01*
X007440Y024129D01*
X007474Y024166D01*
X007511Y024200D01*
X007551Y024230D01*
X007593Y024257D01*
X007637Y024281D01*
X007683Y024302D01*
X007730Y024318D01*
X007778Y024331D01*
X007828Y024340D01*
X007877Y024345D01*
X007928Y024346D01*
X007978Y024343D01*
X008027Y024336D01*
X008076Y024325D01*
X008124Y024310D01*
X008170Y024292D01*
X008215Y024270D01*
X008258Y024244D01*
X008299Y024215D01*
X008338Y024183D01*
X008374Y024148D01*
X008406Y024110D01*
X008436Y024070D01*
X008463Y024027D01*
X008486Y023983D01*
X008505Y023937D01*
X008521Y023889D01*
X008533Y023840D01*
X008541Y023791D01*
X008545Y023741D01*
X008545Y023691D01*
X008541Y023641D01*
X008533Y023592D01*
X008521Y023543D01*
X008505Y023495D01*
X008486Y023449D01*
X008463Y023405D01*
X008436Y023362D01*
X008406Y023322D01*
X008374Y023284D01*
X008338Y023249D01*
X008299Y023217D01*
X008258Y023188D01*
X008215Y023162D01*
X008170Y023140D01*
X008124Y023122D01*
X008076Y023107D01*
X008027Y023096D01*
X007978Y023089D01*
X007928Y023086D01*
X007877Y023087D01*
X007828Y023092D01*
X007778Y023101D01*
X007730Y023114D01*
X007683Y023130D01*
X007637Y023151D01*
X007593Y023175D01*
X007551Y023202D01*
X007511Y023232D01*
X007474Y023266D01*
X007440Y023303D01*
X007408Y023342D01*
X007380Y023383D01*
X007355Y023427D01*
X007334Y023472D01*
X007317Y023519D01*
X007303Y023567D01*
X007293Y023616D01*
X007287Y023666D01*
X007285Y023716D01*
X011285Y033185D02*
X011287Y033235D01*
X011293Y033285D01*
X011303Y033334D01*
X011317Y033382D01*
X011334Y033429D01*
X011355Y033474D01*
X011380Y033518D01*
X011408Y033559D01*
X011440Y033598D01*
X011474Y033635D01*
X011511Y033669D01*
X011551Y033699D01*
X011593Y033726D01*
X011637Y033750D01*
X011683Y033771D01*
X011730Y033787D01*
X011778Y033800D01*
X011828Y033809D01*
X011877Y033814D01*
X011928Y033815D01*
X011978Y033812D01*
X012027Y033805D01*
X012076Y033794D01*
X012124Y033779D01*
X012170Y033761D01*
X012215Y033739D01*
X012258Y033713D01*
X012299Y033684D01*
X012338Y033652D01*
X012374Y033617D01*
X012406Y033579D01*
X012436Y033539D01*
X012463Y033496D01*
X012486Y033452D01*
X012505Y033406D01*
X012521Y033358D01*
X012533Y033309D01*
X012541Y033260D01*
X012545Y033210D01*
X012545Y033160D01*
X012541Y033110D01*
X012533Y033061D01*
X012521Y033012D01*
X012505Y032964D01*
X012486Y032918D01*
X012463Y032874D01*
X012436Y032831D01*
X012406Y032791D01*
X012374Y032753D01*
X012338Y032718D01*
X012299Y032686D01*
X012258Y032657D01*
X012215Y032631D01*
X012170Y032609D01*
X012124Y032591D01*
X012076Y032576D01*
X012027Y032565D01*
X011978Y032558D01*
X011928Y032555D01*
X011877Y032556D01*
X011828Y032561D01*
X011778Y032570D01*
X011730Y032583D01*
X011683Y032599D01*
X011637Y032620D01*
X011593Y032644D01*
X011551Y032671D01*
X011511Y032701D01*
X011474Y032735D01*
X011440Y032772D01*
X011408Y032811D01*
X011380Y032852D01*
X011355Y032896D01*
X011334Y032941D01*
X011317Y032988D01*
X011303Y033036D01*
X011293Y033085D01*
X011287Y033135D01*
X011285Y033185D01*
X039285Y030185D02*
X039287Y030235D01*
X039293Y030285D01*
X039303Y030334D01*
X039317Y030382D01*
X039334Y030429D01*
X039355Y030474D01*
X039380Y030518D01*
X039408Y030559D01*
X039440Y030598D01*
X039474Y030635D01*
X039511Y030669D01*
X039551Y030699D01*
X039593Y030726D01*
X039637Y030750D01*
X039683Y030771D01*
X039730Y030787D01*
X039778Y030800D01*
X039828Y030809D01*
X039877Y030814D01*
X039928Y030815D01*
X039978Y030812D01*
X040027Y030805D01*
X040076Y030794D01*
X040124Y030779D01*
X040170Y030761D01*
X040215Y030739D01*
X040258Y030713D01*
X040299Y030684D01*
X040338Y030652D01*
X040374Y030617D01*
X040406Y030579D01*
X040436Y030539D01*
X040463Y030496D01*
X040486Y030452D01*
X040505Y030406D01*
X040521Y030358D01*
X040533Y030309D01*
X040541Y030260D01*
X040545Y030210D01*
X040545Y030160D01*
X040541Y030110D01*
X040533Y030061D01*
X040521Y030012D01*
X040505Y029964D01*
X040486Y029918D01*
X040463Y029874D01*
X040436Y029831D01*
X040406Y029791D01*
X040374Y029753D01*
X040338Y029718D01*
X040299Y029686D01*
X040258Y029657D01*
X040215Y029631D01*
X040170Y029609D01*
X040124Y029591D01*
X040076Y029576D01*
X040027Y029565D01*
X039978Y029558D01*
X039928Y029555D01*
X039877Y029556D01*
X039828Y029561D01*
X039778Y029570D01*
X039730Y029583D01*
X039683Y029599D01*
X039637Y029620D01*
X039593Y029644D01*
X039551Y029671D01*
X039511Y029701D01*
X039474Y029735D01*
X039440Y029772D01*
X039408Y029811D01*
X039380Y029852D01*
X039355Y029896D01*
X039334Y029941D01*
X039317Y029988D01*
X039303Y030036D01*
X039293Y030085D01*
X039287Y030135D01*
X039285Y030185D01*
X039285Y004716D02*
X039287Y004766D01*
X039293Y004816D01*
X039303Y004865D01*
X039317Y004913D01*
X039334Y004960D01*
X039355Y005005D01*
X039380Y005049D01*
X039408Y005090D01*
X039440Y005129D01*
X039474Y005166D01*
X039511Y005200D01*
X039551Y005230D01*
X039593Y005257D01*
X039637Y005281D01*
X039683Y005302D01*
X039730Y005318D01*
X039778Y005331D01*
X039828Y005340D01*
X039877Y005345D01*
X039928Y005346D01*
X039978Y005343D01*
X040027Y005336D01*
X040076Y005325D01*
X040124Y005310D01*
X040170Y005292D01*
X040215Y005270D01*
X040258Y005244D01*
X040299Y005215D01*
X040338Y005183D01*
X040374Y005148D01*
X040406Y005110D01*
X040436Y005070D01*
X040463Y005027D01*
X040486Y004983D01*
X040505Y004937D01*
X040521Y004889D01*
X040533Y004840D01*
X040541Y004791D01*
X040545Y004741D01*
X040545Y004691D01*
X040541Y004641D01*
X040533Y004592D01*
X040521Y004543D01*
X040505Y004495D01*
X040486Y004449D01*
X040463Y004405D01*
X040436Y004362D01*
X040406Y004322D01*
X040374Y004284D01*
X040338Y004249D01*
X040299Y004217D01*
X040258Y004188D01*
X040215Y004162D01*
X040170Y004140D01*
X040124Y004122D01*
X040076Y004107D01*
X040027Y004096D01*
X039978Y004089D01*
X039928Y004086D01*
X039877Y004087D01*
X039828Y004092D01*
X039778Y004101D01*
X039730Y004114D01*
X039683Y004130D01*
X039637Y004151D01*
X039593Y004175D01*
X039551Y004202D01*
X039511Y004232D01*
X039474Y004266D01*
X039440Y004303D01*
X039408Y004342D01*
X039380Y004383D01*
X039355Y004427D01*
X039334Y004472D01*
X039317Y004519D01*
X039303Y004567D01*
X039293Y004616D01*
X039287Y004666D01*
X039285Y004716D01*
D12*
X039915Y004716D03*
X039915Y030185D03*
X011915Y033185D03*
X007915Y023716D03*
X007415Y004716D03*
D13*
X007084Y025232D03*
X006297Y025232D03*
X005509Y025232D03*
X004722Y025232D03*
X003935Y025232D03*
X003147Y025232D03*
X007872Y025232D03*
X008659Y025232D03*
X009446Y025232D03*
X010234Y025232D03*
X016365Y026585D03*
X016365Y027585D03*
X016365Y028585D03*
X017365Y028585D03*
X018365Y028585D03*
X019365Y028585D03*
X019365Y027585D03*
X018365Y027585D03*
X017365Y027585D03*
X017365Y026585D03*
X018365Y026585D03*
X019365Y026585D03*
X018381Y031182D03*
X018381Y032182D03*
X017381Y032182D03*
X017381Y031182D03*
X017381Y033182D03*
X018381Y033182D03*
X010234Y033894D03*
X009446Y033894D03*
X008659Y033894D03*
X007872Y033894D03*
X007084Y033894D03*
X006297Y033894D03*
X005509Y033894D03*
X004722Y033894D03*
X003935Y033894D03*
X003147Y033894D03*
X033915Y019685D03*
X033915Y018685D03*
X033915Y017685D03*
X033915Y016685D03*
D14*
X038915Y016716D03*
X039915Y016716D03*
X039915Y015716D03*
X038915Y015716D03*
X038915Y014716D03*
X039915Y014716D03*
X039915Y013716D03*
X038915Y013716D03*
X038915Y012716D03*
X038915Y011716D03*
X039915Y011716D03*
X039915Y012716D03*
X039915Y010716D03*
X038915Y010716D03*
X038915Y009716D03*
X039915Y009716D03*
X039915Y008716D03*
X038915Y008716D03*
X038915Y007716D03*
X039915Y007716D03*
X039915Y006716D03*
X038915Y006716D03*
X037915Y004716D03*
X036915Y004716D03*
X035915Y004716D03*
X034915Y004716D03*
X033915Y004716D03*
X032915Y004716D03*
X031915Y004716D03*
X030915Y004716D03*
X028915Y004716D03*
X027915Y004716D03*
X026915Y004716D03*
X025915Y004716D03*
X024915Y004716D03*
X023915Y004716D03*
X022915Y004716D03*
X021915Y004716D03*
X019915Y004716D03*
X018915Y004716D03*
X017915Y004716D03*
X016915Y004716D03*
X015915Y004716D03*
X014915Y004716D03*
X015315Y023716D03*
X016315Y023716D03*
X017315Y023716D03*
X018315Y023716D03*
X019915Y023716D03*
X020915Y023716D03*
X021915Y023716D03*
X022915Y023716D03*
X023915Y023716D03*
X024915Y023716D03*
X025915Y023716D03*
X026915Y023716D03*
X028915Y023716D03*
X029915Y023716D03*
X030915Y023716D03*
X031915Y023716D03*
X032915Y023716D03*
X033915Y023716D03*
X034915Y023716D03*
X035915Y023716D03*
X038915Y023716D03*
X039915Y023716D03*
X039915Y022716D03*
X038915Y022716D03*
X038915Y021716D03*
X039915Y021716D03*
X039915Y020716D03*
X038915Y020716D03*
X038915Y019716D03*
X039915Y019716D03*
X039915Y018716D03*
X039915Y017716D03*
X038915Y017716D03*
X038915Y018716D03*
X014315Y023716D03*
X013315Y023716D03*
X012315Y023716D03*
X011315Y023716D03*
D15*
X012502Y027185D03*
X013328Y027185D03*
X013328Y028185D03*
X012502Y028185D03*
X012502Y029185D03*
X013328Y029185D03*
X013328Y030185D03*
X012502Y030185D03*
X012502Y031185D03*
X013328Y031185D03*
X013074Y004919D03*
X013074Y004092D03*
D16*
X007206Y015760D03*
X007206Y017886D03*
D17*
X016411Y020275D03*
X017411Y020275D03*
X018411Y020275D03*
X018411Y021275D03*
X017411Y021275D03*
X016411Y021275D03*
X016431Y014957D03*
X017431Y014957D03*
X018431Y014957D03*
X018431Y013957D03*
X017431Y013957D03*
X016431Y013957D03*
X020915Y032185D03*
X020915Y033185D03*
X021915Y033185D03*
X022915Y033185D03*
X023915Y033185D03*
X023915Y032185D03*
X022915Y032185D03*
X021915Y032185D03*
X024915Y032185D03*
X024915Y033185D03*
X025915Y033185D03*
X026915Y033185D03*
X026915Y032185D03*
X025915Y032185D03*
X027915Y032185D03*
X027915Y033185D03*
X028915Y033185D03*
X028915Y032185D03*
X029915Y032185D03*
X029915Y033185D03*
X030915Y033185D03*
X031915Y033185D03*
X031915Y032185D03*
X030915Y032185D03*
X032915Y032185D03*
X032915Y033185D03*
X033915Y033185D03*
X034915Y033185D03*
X034915Y032185D03*
X033915Y032185D03*
X035915Y032185D03*
X035915Y033185D03*
X036915Y033185D03*
X036915Y032185D03*
X037915Y032185D03*
X037915Y033185D03*
X038915Y033185D03*
X039915Y033185D03*
X039915Y032185D03*
X038915Y032185D03*
D18*
X035915Y022559D03*
X035915Y021811D03*
X034915Y021811D03*
X034915Y022559D03*
X023915Y022559D03*
X023915Y021811D03*
X020907Y021779D03*
X020907Y022527D03*
X015415Y019909D03*
X015415Y019161D03*
X015428Y013886D03*
X015428Y013138D03*
X021915Y029850D03*
X021915Y030520D03*
X022915Y030520D03*
X022915Y029850D03*
D19*
X036415Y018735D03*
X037415Y018735D03*
X037415Y017735D03*
X036415Y017735D03*
X036415Y016735D03*
X037415Y016735D03*
X037415Y015735D03*
X036415Y015735D03*
X035415Y010735D03*
X004315Y011354D03*
X004315Y012354D03*
X004315Y013354D03*
X004315Y014354D03*
X004365Y017751D03*
X004365Y018751D03*
X004365Y019751D03*
X004365Y020751D03*
D20*
X027415Y013685D03*
X028415Y013685D03*
X029415Y013685D03*
X030415Y013685D03*
X030415Y012685D03*
X029415Y012685D03*
X028415Y012685D03*
X027415Y012685D03*
D21*
X017462Y011063D03*
X016462Y011063D03*
X015462Y011063D03*
X014462Y011063D03*
X013462Y011063D03*
X012462Y011063D03*
X011462Y011063D03*
X010462Y011063D03*
X010462Y016063D03*
X011462Y016063D03*
X012462Y016063D03*
X013462Y016063D03*
X014462Y016063D03*
X015462Y016063D03*
X016462Y016063D03*
X017462Y016063D03*
X017443Y017382D03*
X016443Y017382D03*
X015443Y017382D03*
X014443Y017382D03*
X013443Y017382D03*
X012443Y017382D03*
X011443Y017382D03*
X010443Y017382D03*
X010443Y022382D03*
X011443Y022382D03*
X012443Y022382D03*
X013443Y022382D03*
X014443Y022382D03*
X015443Y022382D03*
X016443Y022382D03*
X017443Y022382D03*
D22*
X013289Y026185D03*
X012541Y026185D03*
X007594Y020229D03*
X006925Y020229D03*
X003289Y027185D03*
X002541Y027185D03*
X002580Y032185D03*
X003250Y032185D03*
X011544Y009728D03*
X012214Y009728D03*
X012774Y006416D03*
X013522Y006416D03*
D23*
X011200Y013866D03*
X009074Y013866D03*
X009052Y020182D03*
X011178Y020182D03*
D24*
X018540Y009488D03*
X018540Y008307D03*
X010052Y007921D03*
X010052Y009102D03*
D25*
X006269Y006362D03*
X005088Y004512D03*
X003946Y006362D03*
D26*
X005886Y008695D02*
X005886Y009255D01*
X006886Y009255D02*
X006886Y008695D01*
D27*
X004746Y028801D03*
X004746Y029057D03*
X004746Y029313D03*
X004746Y029569D03*
X003083Y029569D03*
X003083Y029313D03*
X003083Y029057D03*
X003083Y028801D03*
D28*
X003515Y017201D03*
X003515Y010807D03*
D29*
X003515Y012185D03*
X003515Y013563D03*
X003515Y014941D03*
X003515Y018579D03*
X003515Y019957D03*
X003515Y021334D03*
D30*
X003484Y008893D03*
X003484Y007515D03*
D31*
X008985Y005825D03*
X008985Y004045D03*
X011545Y004045D03*
X011545Y005825D03*
D32*
X016099Y008835D03*
D33*
X013225Y009733D03*
X013225Y007937D03*
D34*
X024165Y029764D03*
X024665Y029764D03*
X025165Y029764D03*
X025665Y029764D03*
X025665Y030606D03*
X025165Y030606D03*
X024665Y030606D03*
X024165Y030606D03*
X027165Y030606D03*
X027665Y030606D03*
X028165Y030606D03*
X028665Y030606D03*
X028665Y029764D03*
X028165Y029764D03*
X027665Y029764D03*
X027165Y029764D03*
X030165Y029764D03*
X030665Y029764D03*
X031165Y029764D03*
X031665Y029764D03*
X031665Y030606D03*
X031165Y030606D03*
X030665Y030606D03*
X030165Y030606D03*
X033165Y030606D03*
X033665Y030606D03*
X034165Y030606D03*
X034665Y030606D03*
X034665Y029764D03*
X034165Y029764D03*
X033665Y029764D03*
X033165Y029764D03*
X036165Y029764D03*
X036665Y029764D03*
X037165Y029764D03*
X037665Y029764D03*
X037665Y030606D03*
X037165Y030606D03*
X036665Y030606D03*
X036165Y030606D03*
D35*
X009336Y029935D03*
X009336Y029435D03*
X009336Y028935D03*
X009336Y028435D03*
X008494Y028435D03*
X008494Y028935D03*
X008494Y029435D03*
X008494Y029935D03*
D36*
X013781Y032505D03*
X014765Y032505D03*
X015749Y032505D03*
X015749Y033804D03*
X014765Y033804D03*
X013781Y033804D03*
D37*
X013315Y024735D03*
X012315Y024735D03*
X011315Y024735D03*
X014315Y024735D03*
X015315Y024735D03*
X016315Y024735D03*
X017315Y024735D03*
X018315Y024735D03*
X019915Y024735D03*
X020915Y024735D03*
X021915Y024735D03*
X022915Y024735D03*
X023915Y024735D03*
X024915Y024735D03*
X025915Y024735D03*
X026915Y024735D03*
X028915Y024735D03*
X029915Y024735D03*
X030915Y024735D03*
X031915Y024735D03*
X032915Y024735D03*
X033915Y024735D03*
X034915Y024735D03*
X035915Y024735D03*
X035915Y005735D03*
X036915Y005735D03*
X037915Y005735D03*
X034915Y005735D03*
X033915Y005735D03*
X032915Y005735D03*
X031915Y005735D03*
X030915Y005735D03*
X028915Y005735D03*
X027915Y005735D03*
X026915Y005735D03*
X025915Y005735D03*
X024915Y005735D03*
X023915Y005735D03*
X022915Y005735D03*
X021915Y005735D03*
X019915Y005685D03*
X018915Y005685D03*
X017915Y005685D03*
X016915Y005685D03*
X015915Y005685D03*
X014915Y005685D03*
D38*
X036415Y010735D03*
X037415Y010735D03*
X037415Y011735D03*
X036415Y011735D03*
X036415Y012735D03*
X037415Y012735D03*
M02*
