G75*
G70*
%OFA0B0*%
%FSLAX24Y24*%
%IPPOS*%
%LPD*%
%AMOC8*
5,1,8,0,0,1.08239X$1,22.5*
%
%ADD10C,0.0160*%
%ADD11C,0.0030*%
%ADD12C,0.0060*%
%ADD13C,0.0050*%
%ADD14C,0.0230*%
%ADD15C,0.0120*%
%ADD16C,0.0000*%
%ADD17R,0.0118X0.0059*%
%ADD18R,0.0118X0.0118*%
%ADD19C,0.0040*%
%ADD20C,0.0080*%
%ADD21C,0.0020*%
%ADD22C,0.0010*%
%ADD23R,0.0059X0.0118*%
D10*
X003160Y001147D02*
X003947Y000359D01*
X041743Y000359D01*
X042530Y001147D01*
X042530Y031068D01*
X041743Y031855D01*
X003947Y031855D01*
X003160Y031068D01*
X003160Y001147D01*
X004516Y026936D02*
X004516Y027920D01*
X004516Y028865D01*
X007368Y028865D01*
X007368Y027920D01*
X007368Y026936D01*
X004516Y026936D01*
X004516Y027920D02*
X007368Y027920D01*
D11*
X009725Y025194D02*
X009725Y025001D01*
X009725Y025097D02*
X010015Y025097D01*
X009918Y025194D01*
X010175Y025194D02*
X010465Y025194D01*
X010465Y025049D01*
X010417Y025001D01*
X010320Y025001D01*
X010272Y025049D01*
X010272Y025194D01*
X010272Y025097D02*
X010175Y025001D01*
X010223Y024900D02*
X010175Y024851D01*
X010175Y024754D01*
X010223Y024706D01*
X010272Y024706D01*
X010320Y024754D01*
X010320Y024900D01*
X010223Y024900D01*
X010320Y024900D02*
X010417Y024803D01*
X010465Y024706D01*
X010015Y024900D02*
X009725Y024900D01*
X009822Y024900D02*
X009725Y024754D01*
X009822Y024900D02*
X009918Y024754D01*
X009965Y023944D02*
X009675Y023751D01*
X009627Y023650D02*
X009627Y023456D01*
X009723Y023355D02*
X009675Y023307D01*
X009675Y023210D01*
X009723Y023161D01*
X009772Y023161D01*
X009820Y023210D01*
X009820Y023307D01*
X009868Y023355D01*
X009917Y023355D01*
X009965Y023307D01*
X009965Y023210D01*
X009917Y023161D01*
X009965Y023060D02*
X009965Y022867D01*
X009965Y022963D02*
X009675Y022963D01*
X009675Y022766D02*
X009965Y022766D01*
X009965Y022620D01*
X009917Y022572D01*
X009820Y022572D01*
X009772Y022620D01*
X009772Y022766D01*
X010175Y023210D02*
X010223Y023161D01*
X010417Y023161D01*
X010465Y023210D01*
X010465Y023355D01*
X010175Y023355D01*
X010175Y023210D01*
X010175Y023456D02*
X010175Y023650D01*
X010465Y023650D01*
X010465Y023456D01*
X010320Y023553D02*
X010320Y023650D01*
X010175Y023751D02*
X010175Y023944D01*
X010465Y023944D01*
X009965Y023751D02*
X009675Y023944D01*
X012050Y027027D02*
X012244Y027027D01*
X012147Y027027D02*
X012147Y027318D01*
X012050Y027221D01*
X012345Y027269D02*
X012393Y027318D01*
X012490Y027318D01*
X012538Y027269D01*
X012345Y027076D01*
X012393Y027027D01*
X012490Y027027D01*
X012538Y027076D01*
X012538Y027269D01*
X012639Y027269D02*
X012688Y027318D01*
X012785Y027318D01*
X012833Y027269D01*
X012639Y027076D01*
X012688Y027027D01*
X012785Y027027D01*
X012833Y027076D01*
X012833Y027269D01*
X012934Y027221D02*
X012934Y027076D01*
X012982Y027027D01*
X013128Y027027D01*
X013128Y027221D01*
X013229Y027173D02*
X013326Y027173D01*
X013422Y027318D02*
X013229Y027318D01*
X013229Y027027D01*
X012639Y027076D02*
X012639Y027269D01*
X012345Y027269D02*
X012345Y027076D01*
X014270Y027323D02*
X014319Y027275D01*
X014415Y027275D01*
X014464Y027323D01*
X014565Y027275D02*
X014758Y027275D01*
X014662Y027275D02*
X014662Y027565D01*
X014565Y027469D01*
X014464Y027517D02*
X014415Y027565D01*
X014319Y027565D01*
X014270Y027517D01*
X014270Y027323D01*
X016290Y027516D02*
X016290Y027806D01*
X016386Y027709D01*
X016483Y027806D01*
X016483Y027516D01*
X016584Y027564D02*
X016633Y027516D01*
X016729Y027516D01*
X016778Y027564D01*
X016778Y027612D01*
X016729Y027661D01*
X016633Y027661D01*
X016584Y027709D01*
X016584Y027757D01*
X016633Y027806D01*
X016729Y027806D01*
X016778Y027757D01*
X016879Y027709D02*
X016976Y027806D01*
X016976Y027516D01*
X017072Y027516D02*
X016879Y027516D01*
X016924Y026540D02*
X016827Y026540D01*
X016779Y026492D01*
X016678Y026492D02*
X016629Y026540D01*
X016533Y026540D01*
X016484Y026492D01*
X016484Y026443D01*
X016533Y026395D01*
X016629Y026395D01*
X016678Y026347D01*
X016678Y026298D01*
X016629Y026250D01*
X016533Y026250D01*
X016484Y026298D01*
X016383Y026250D02*
X016383Y026540D01*
X016286Y026443D01*
X016190Y026540D01*
X016190Y026250D01*
X016779Y026250D02*
X016972Y026443D01*
X016972Y026492D01*
X016924Y026540D01*
X016972Y026250D02*
X016779Y026250D01*
X016877Y025364D02*
X016829Y025315D01*
X016877Y025364D02*
X016974Y025364D01*
X017022Y025315D01*
X017022Y025267D01*
X016974Y025219D01*
X017022Y025170D01*
X017022Y025122D01*
X016974Y025073D01*
X016877Y025073D01*
X016829Y025122D01*
X016728Y025122D02*
X016679Y025073D01*
X016583Y025073D01*
X016534Y025122D01*
X016583Y025219D02*
X016679Y025219D01*
X016728Y025170D01*
X016728Y025122D01*
X016583Y025219D02*
X016534Y025267D01*
X016534Y025315D01*
X016583Y025364D01*
X016679Y025364D01*
X016728Y025315D01*
X016926Y025219D02*
X016974Y025219D01*
X016433Y025364D02*
X016433Y025073D01*
X016240Y025073D02*
X016240Y025364D01*
X016336Y025267D01*
X016433Y025364D01*
X019275Y025305D02*
X019565Y025305D01*
X019517Y025406D02*
X019323Y025600D01*
X019275Y025551D01*
X019275Y025454D01*
X019323Y025406D01*
X019517Y025406D01*
X019565Y025454D01*
X019565Y025551D01*
X019517Y025600D01*
X019323Y025600D01*
X019275Y025701D02*
X019275Y025894D01*
X019275Y025797D02*
X019565Y025797D01*
X019468Y025894D01*
X019775Y025894D02*
X020065Y025894D01*
X020065Y025749D01*
X020017Y025701D01*
X019920Y025701D01*
X019872Y025749D01*
X019872Y025894D01*
X019872Y025797D02*
X019775Y025701D01*
X019775Y025600D02*
X019968Y025406D01*
X020017Y025406D01*
X020065Y025454D01*
X020065Y025551D01*
X020017Y025600D01*
X019775Y025600D02*
X019775Y025406D01*
X019468Y025160D02*
X019372Y025305D01*
X019275Y025160D01*
X019725Y027456D02*
X019725Y027650D01*
X019725Y027553D02*
X020015Y027553D01*
X019918Y027650D01*
X019870Y027751D02*
X019822Y027799D01*
X019822Y027944D01*
X019822Y027847D02*
X019725Y027751D01*
X019870Y027751D02*
X019967Y027751D01*
X020015Y027799D01*
X020015Y027944D01*
X019725Y027944D01*
X019565Y027847D02*
X019275Y027847D01*
X019275Y027751D02*
X019275Y027944D01*
X019468Y027944D02*
X019565Y027847D01*
X019565Y027650D02*
X019275Y027650D01*
X019372Y027650D02*
X019468Y027504D01*
X019372Y027650D02*
X019275Y027504D01*
X021445Y031271D02*
X021445Y031561D01*
X021591Y031561D01*
X021639Y031513D01*
X021639Y031416D01*
X021591Y031367D01*
X021445Y031367D01*
X021542Y031367D02*
X021639Y031271D01*
X021740Y031271D02*
X021934Y031464D01*
X021934Y031513D01*
X021885Y031561D01*
X021788Y031561D01*
X021740Y031513D01*
X021740Y031271D02*
X021934Y031271D01*
X022035Y031319D02*
X022083Y031271D01*
X022180Y031271D01*
X022228Y031319D01*
X022228Y031367D01*
X022180Y031416D01*
X022035Y031416D01*
X022035Y031319D01*
X022035Y031416D02*
X022132Y031513D01*
X022228Y031561D01*
X022675Y031468D02*
X022772Y031564D01*
X022772Y031274D01*
X022868Y031274D02*
X022675Y031274D01*
X022970Y031323D02*
X023163Y031516D01*
X023163Y031323D01*
X023115Y031274D01*
X023018Y031274D01*
X022970Y031323D01*
X022970Y031516D01*
X023018Y031564D01*
X023115Y031564D01*
X023163Y031516D01*
X034506Y031492D02*
X034506Y031202D01*
X034506Y031299D02*
X034651Y031299D01*
X034700Y031347D01*
X034700Y031444D01*
X034651Y031492D01*
X034506Y031492D01*
X034603Y031299D02*
X034700Y031202D01*
X034801Y031202D02*
X034994Y031202D01*
X034898Y031202D02*
X034898Y031492D01*
X034801Y031396D01*
X035095Y031444D02*
X035144Y031492D01*
X035241Y031492D01*
X035289Y031444D01*
X035289Y031396D01*
X035241Y031347D01*
X035289Y031299D01*
X035289Y031251D01*
X035241Y031202D01*
X035144Y031202D01*
X035095Y031251D01*
X035192Y031347D02*
X035241Y031347D01*
X035725Y031418D02*
X035822Y031514D01*
X035822Y031224D01*
X035918Y031224D02*
X035725Y031224D01*
X036020Y031273D02*
X036213Y031466D01*
X036213Y031273D01*
X036165Y031224D01*
X036068Y031224D01*
X036020Y031273D01*
X036020Y031466D01*
X036068Y031514D01*
X036165Y031514D01*
X036213Y031466D01*
X037872Y023214D02*
X037872Y022924D01*
X037968Y022924D02*
X037775Y022924D01*
X037775Y023118D02*
X037872Y023214D01*
X038070Y023166D02*
X038118Y023214D01*
X038215Y023214D01*
X038263Y023166D01*
X038070Y022973D01*
X038118Y022924D01*
X038215Y022924D01*
X038263Y022973D01*
X038263Y023166D01*
X038364Y023214D02*
X038364Y022924D01*
X038364Y023021D02*
X038558Y023214D01*
X038413Y023069D02*
X038558Y022924D01*
X038070Y022973D02*
X038070Y023166D01*
X033558Y023214D02*
X033364Y023021D01*
X033413Y023069D02*
X033558Y022924D01*
X033364Y022924D02*
X033364Y023214D01*
X033263Y023166D02*
X033070Y022973D01*
X033118Y022924D01*
X033215Y022924D01*
X033263Y022973D01*
X033263Y023166D01*
X033215Y023214D01*
X033118Y023214D01*
X033070Y023166D01*
X033070Y022973D01*
X032968Y022924D02*
X032775Y022924D01*
X032872Y022924D02*
X032872Y023214D01*
X032775Y023118D01*
X033872Y015164D02*
X033872Y014874D01*
X033968Y014874D02*
X033775Y014874D01*
X033775Y015068D02*
X033872Y015164D01*
X034070Y015116D02*
X034118Y015164D01*
X034215Y015164D01*
X034263Y015116D01*
X034070Y014923D01*
X034118Y014874D01*
X034215Y014874D01*
X034263Y014923D01*
X034263Y015116D01*
X034364Y015164D02*
X034364Y014874D01*
X034364Y014971D02*
X034558Y015164D01*
X034413Y015019D02*
X034558Y014874D01*
X034070Y014923D02*
X034070Y015116D01*
X034168Y010214D02*
X034120Y010166D01*
X034120Y009973D01*
X034313Y010166D01*
X034313Y009973D01*
X034265Y009924D01*
X034168Y009924D01*
X034120Y009973D01*
X034018Y009924D02*
X033825Y009924D01*
X033922Y009924D02*
X033922Y010214D01*
X033825Y010118D01*
X034168Y010214D02*
X034265Y010214D01*
X034313Y010166D01*
X034414Y010214D02*
X034414Y009924D01*
X034414Y010021D02*
X034608Y010214D01*
X034463Y010069D02*
X034608Y009924D01*
X028558Y009874D02*
X028413Y010019D01*
X028364Y009971D02*
X028558Y010164D01*
X028364Y010164D02*
X028364Y009874D01*
X028263Y009923D02*
X028215Y009874D01*
X028118Y009874D01*
X028070Y009923D01*
X028263Y010116D01*
X028263Y009923D01*
X028263Y010116D02*
X028215Y010164D01*
X028118Y010164D01*
X028070Y010116D01*
X028070Y009923D01*
X027968Y009874D02*
X027775Y009874D01*
X027872Y009874D02*
X027872Y010164D01*
X027775Y010068D01*
X019965Y015685D02*
X019917Y015636D01*
X019868Y015636D01*
X019820Y015685D01*
X019820Y015782D01*
X019868Y015830D01*
X019917Y015830D01*
X019965Y015782D01*
X019965Y015685D01*
X019820Y015685D02*
X019772Y015636D01*
X019723Y015636D01*
X019675Y015685D01*
X019675Y015782D01*
X019723Y015830D01*
X019772Y015830D01*
X019820Y015782D01*
X019615Y015805D02*
X019325Y015805D01*
X019422Y015805D02*
X019518Y015660D01*
X019422Y015805D02*
X019325Y015660D01*
X019373Y015906D02*
X019325Y015954D01*
X019325Y016051D01*
X019373Y016100D01*
X019567Y015906D01*
X019373Y015906D01*
X019373Y016100D02*
X019567Y016100D01*
X019615Y016051D01*
X019615Y015954D01*
X019567Y015906D01*
X019675Y015931D02*
X019675Y016125D01*
X019675Y016028D02*
X019965Y016028D01*
X019868Y016125D01*
X019820Y016226D02*
X019772Y016274D01*
X019772Y016419D01*
X019772Y016322D02*
X019675Y016226D01*
X019615Y016297D02*
X019325Y016297D01*
X019325Y016201D02*
X019325Y016394D01*
X019518Y016394D02*
X019615Y016297D01*
X019675Y016419D02*
X019965Y016419D01*
X019965Y016274D01*
X019917Y016226D01*
X019820Y016226D01*
X019503Y018133D02*
X019503Y018326D01*
X019358Y018326D01*
X019406Y018230D01*
X019406Y018181D01*
X019358Y018133D01*
X019261Y018133D01*
X019213Y018181D01*
X019213Y018278D01*
X019261Y018326D01*
X019213Y018428D02*
X019309Y018524D01*
X019309Y018476D02*
X019309Y018621D01*
X019213Y018621D02*
X019503Y018621D01*
X019503Y018476D01*
X019454Y018428D01*
X019358Y018428D01*
X019309Y018476D01*
X019065Y018497D02*
X018775Y018497D01*
X018775Y018401D02*
X018775Y018594D01*
X018968Y018594D02*
X019065Y018497D01*
X019065Y018300D02*
X018775Y018300D01*
X018872Y018300D02*
X018968Y018154D01*
X018872Y018300D02*
X018775Y018154D01*
X016722Y017916D02*
X016529Y017916D01*
X016626Y017916D02*
X016626Y018206D01*
X016529Y018109D01*
X016428Y018157D02*
X016379Y018206D01*
X016283Y018206D01*
X016234Y018157D01*
X016234Y018109D01*
X016283Y018061D01*
X016379Y018061D01*
X016428Y018012D01*
X016428Y017964D01*
X016379Y017916D01*
X016283Y017916D01*
X016234Y017964D01*
X016133Y017916D02*
X016133Y018206D01*
X016036Y018109D01*
X015940Y018206D01*
X015940Y017916D01*
X015940Y017140D02*
X016036Y017043D01*
X016133Y017140D01*
X016133Y016850D01*
X016234Y016898D02*
X016283Y016850D01*
X016379Y016850D01*
X016428Y016898D01*
X016428Y016947D01*
X016379Y016995D01*
X016283Y016995D01*
X016234Y017043D01*
X016234Y017092D01*
X016283Y017140D01*
X016379Y017140D01*
X016428Y017092D01*
X016529Y017092D02*
X016577Y017140D01*
X016674Y017140D01*
X016722Y017092D01*
X016722Y017043D01*
X016529Y016850D01*
X016722Y016850D01*
X016674Y016114D02*
X016722Y016065D01*
X016722Y016017D01*
X016674Y015969D01*
X016722Y015920D01*
X016722Y015872D01*
X016674Y015823D01*
X016577Y015823D01*
X016529Y015872D01*
X016428Y015872D02*
X016379Y015823D01*
X016283Y015823D01*
X016234Y015872D01*
X016283Y015969D02*
X016379Y015969D01*
X016428Y015920D01*
X016428Y015872D01*
X016283Y015969D02*
X016234Y016017D01*
X016234Y016065D01*
X016283Y016114D01*
X016379Y016114D01*
X016428Y016065D01*
X016529Y016065D02*
X016577Y016114D01*
X016674Y016114D01*
X016674Y015969D02*
X016626Y015969D01*
X016133Y016114D02*
X016133Y015823D01*
X015940Y015823D02*
X015940Y016114D01*
X016036Y016017D01*
X016133Y016114D01*
X015940Y016850D02*
X015940Y017140D01*
X013372Y016465D02*
X013178Y016465D01*
X013178Y016174D01*
X013077Y016174D02*
X013077Y016368D01*
X013178Y016319D02*
X013275Y016319D01*
X013077Y016174D02*
X012932Y016174D01*
X012884Y016223D01*
X012884Y016368D01*
X012783Y016416D02*
X012589Y016223D01*
X012637Y016174D01*
X012734Y016174D01*
X012783Y016223D01*
X012783Y016416D01*
X012734Y016465D01*
X012637Y016465D01*
X012589Y016416D01*
X012589Y016223D01*
X012488Y016223D02*
X012440Y016174D01*
X012343Y016174D01*
X012294Y016223D01*
X012488Y016416D01*
X012488Y016223D01*
X012488Y016416D02*
X012440Y016465D01*
X012343Y016465D01*
X012294Y016416D01*
X012294Y016223D01*
X012193Y016174D02*
X012000Y016174D01*
X012097Y016174D02*
X012097Y016465D01*
X012000Y016368D01*
X010685Y016603D02*
X010685Y016796D01*
X010394Y016796D01*
X010394Y016897D02*
X010539Y016897D01*
X010588Y016946D01*
X010588Y017091D01*
X010394Y017091D01*
X010443Y017192D02*
X010394Y017240D01*
X010394Y017337D01*
X010443Y017385D01*
X010636Y017192D01*
X010443Y017192D01*
X010636Y017192D02*
X010685Y017240D01*
X010685Y017337D01*
X010636Y017385D01*
X010443Y017385D01*
X010443Y017487D02*
X010394Y017535D01*
X010394Y017632D01*
X010443Y017680D01*
X010636Y017487D01*
X010443Y017487D01*
X010443Y017680D02*
X010636Y017680D01*
X010685Y017632D01*
X010685Y017535D01*
X010636Y017487D01*
X010394Y017781D02*
X010394Y017975D01*
X010394Y017878D02*
X010685Y017878D01*
X010588Y017975D01*
X010506Y018824D02*
X010506Y019114D01*
X010602Y019114D02*
X010409Y019114D01*
X010308Y019066D02*
X010259Y019114D01*
X010163Y019114D01*
X010114Y019066D01*
X010114Y019018D01*
X010163Y018969D01*
X010259Y018969D01*
X010308Y018921D01*
X010308Y018873D01*
X010259Y018824D01*
X010163Y018824D01*
X010114Y018873D01*
X010013Y018776D02*
X009820Y018776D01*
X009622Y018824D02*
X009622Y019114D01*
X009718Y019114D02*
X009525Y019114D01*
X008524Y018946D02*
X008524Y018898D01*
X008475Y018849D01*
X008524Y018801D01*
X008524Y018753D01*
X008475Y018704D01*
X008379Y018704D01*
X008330Y018753D01*
X008229Y018704D02*
X008132Y018801D01*
X008181Y018801D02*
X008036Y018801D01*
X008036Y018704D02*
X008036Y018994D01*
X008181Y018994D01*
X008229Y018946D01*
X008229Y018849D01*
X008181Y018801D01*
X008330Y018946D02*
X008379Y018994D01*
X008475Y018994D01*
X008524Y018946D01*
X008475Y018849D02*
X008427Y018849D01*
X008330Y018594D02*
X008330Y018304D01*
X008330Y018401D02*
X008524Y018594D01*
X008379Y018449D02*
X008524Y018304D01*
X008229Y018304D02*
X008036Y018304D01*
X008132Y018304D02*
X008132Y018594D01*
X008036Y018498D01*
X009144Y017951D02*
X009144Y017855D01*
X009193Y017806D01*
X009144Y017705D02*
X009338Y017512D01*
X009386Y017512D01*
X009435Y017560D01*
X009435Y017657D01*
X009386Y017705D01*
X009386Y017806D02*
X009435Y017855D01*
X009435Y017951D01*
X009386Y018000D01*
X009193Y018000D01*
X009144Y017951D01*
X009144Y017705D02*
X009144Y017512D01*
X010539Y016796D02*
X010539Y016699D01*
X012490Y017699D02*
X012538Y017650D01*
X012635Y017650D01*
X012683Y017699D01*
X012785Y017699D02*
X012833Y017650D01*
X012930Y017650D01*
X012978Y017699D01*
X012978Y017747D01*
X012930Y017795D01*
X012881Y017795D01*
X012930Y017795D02*
X012978Y017844D01*
X012978Y017892D01*
X012930Y017940D01*
X012833Y017940D01*
X012785Y017892D01*
X012683Y017892D02*
X012635Y017940D01*
X012538Y017940D01*
X012490Y017892D01*
X012490Y017699D01*
X010897Y018969D02*
X010849Y018921D01*
X010704Y018921D01*
X010704Y018824D02*
X010704Y019114D01*
X010849Y019114D01*
X010897Y019066D01*
X010897Y018969D01*
X010459Y019924D02*
X010508Y019973D01*
X010508Y020166D01*
X010459Y020214D01*
X010314Y020214D01*
X010314Y019924D01*
X010459Y019924D01*
X010213Y019924D02*
X010020Y019924D01*
X010020Y020214D01*
X010213Y020214D01*
X010116Y020069D02*
X010020Y020069D01*
X009918Y019924D02*
X009725Y019924D01*
X009725Y020214D01*
X008069Y015316D02*
X007876Y015316D01*
X007827Y015268D01*
X007827Y015171D01*
X007876Y015123D01*
X007876Y015022D02*
X007827Y014973D01*
X007827Y014877D01*
X007876Y014828D01*
X007924Y014828D01*
X007973Y014877D01*
X007973Y015022D01*
X007876Y015022D01*
X007973Y015022D02*
X008069Y014925D01*
X008118Y014828D01*
X008069Y015123D02*
X008118Y015171D01*
X008118Y015268D01*
X008069Y015316D01*
X008036Y014180D02*
X008133Y014084D01*
X007843Y014084D01*
X007843Y014180D02*
X007843Y013987D01*
X007891Y013886D02*
X008084Y013692D01*
X007891Y013692D01*
X007843Y013741D01*
X007843Y013837D01*
X007891Y013886D01*
X008084Y013886D01*
X008133Y013837D01*
X008133Y013741D01*
X008084Y013692D01*
X008084Y013591D02*
X007891Y013591D01*
X008084Y013398D01*
X007891Y013398D01*
X007843Y013446D01*
X007843Y013543D01*
X007891Y013591D01*
X008084Y013591D02*
X008133Y013543D01*
X008133Y013446D01*
X008084Y013398D01*
X008036Y013296D02*
X007891Y013296D01*
X007843Y013248D01*
X007843Y013103D01*
X008036Y013103D01*
X007988Y013002D02*
X007988Y012905D01*
X008133Y013002D02*
X008133Y012808D01*
X008133Y013002D02*
X007843Y013002D01*
X010593Y011873D02*
X010593Y011680D01*
X010641Y011631D01*
X010738Y011631D01*
X010786Y011680D01*
X010887Y011776D02*
X011081Y011776D01*
X011033Y011631D02*
X011033Y011921D01*
X010887Y011776D01*
X010786Y011873D02*
X010738Y011921D01*
X010641Y011921D01*
X010593Y011873D01*
X011848Y011427D02*
X011944Y011524D01*
X011944Y011234D01*
X011848Y011234D02*
X012041Y011234D01*
X012142Y011282D02*
X012336Y011475D01*
X012336Y011282D01*
X012287Y011234D01*
X012191Y011234D01*
X012142Y011282D01*
X012142Y011475D01*
X012191Y011524D01*
X012287Y011524D01*
X012336Y011475D01*
X012437Y011475D02*
X012437Y011282D01*
X012630Y011475D01*
X012630Y011282D01*
X012582Y011234D01*
X012485Y011234D01*
X012437Y011282D01*
X012437Y011475D02*
X012485Y011524D01*
X012582Y011524D01*
X012630Y011475D01*
X012732Y011427D02*
X012732Y011282D01*
X012780Y011234D01*
X012925Y011234D01*
X012925Y011427D01*
X013026Y011379D02*
X013123Y011379D01*
X013026Y011524D02*
X013220Y011524D01*
X013026Y011524D02*
X013026Y011234D01*
X015889Y010829D02*
X015889Y010539D01*
X016082Y010539D02*
X016082Y010829D01*
X015986Y010733D01*
X015889Y010829D01*
X016183Y010781D02*
X016183Y010733D01*
X016232Y010684D01*
X016329Y010684D01*
X016377Y010636D01*
X016377Y010588D01*
X016329Y010539D01*
X016232Y010539D01*
X016183Y010588D01*
X016183Y010781D02*
X016232Y010829D01*
X016329Y010829D01*
X016377Y010781D01*
X016478Y010781D02*
X016526Y010829D01*
X016623Y010829D01*
X016672Y010781D01*
X016672Y010733D01*
X016478Y010539D01*
X016672Y010539D01*
X016623Y009753D02*
X016672Y009705D01*
X016672Y009656D01*
X016623Y009608D01*
X016672Y009560D01*
X016672Y009511D01*
X016623Y009463D01*
X016526Y009463D01*
X016478Y009511D01*
X016377Y009511D02*
X016329Y009463D01*
X016232Y009463D01*
X016183Y009511D01*
X016232Y009608D02*
X016329Y009608D01*
X016377Y009560D01*
X016377Y009511D01*
X016232Y009608D02*
X016183Y009656D01*
X016183Y009705D01*
X016232Y009753D01*
X016329Y009753D01*
X016377Y009705D01*
X016478Y009705D02*
X016526Y009753D01*
X016623Y009753D01*
X016623Y009608D02*
X016575Y009608D01*
X016082Y009753D02*
X016082Y009463D01*
X015889Y009463D02*
X015889Y009753D01*
X015986Y009656D01*
X016082Y009753D01*
X018625Y009704D02*
X018625Y009801D01*
X018673Y009850D01*
X018867Y009656D01*
X018673Y009656D01*
X018625Y009704D01*
X018625Y009555D02*
X018915Y009555D01*
X018867Y009656D02*
X018915Y009704D01*
X018915Y009801D01*
X018867Y009850D01*
X018673Y009850D01*
X018625Y009951D02*
X018625Y010144D01*
X018625Y010047D02*
X018915Y010047D01*
X018818Y010144D01*
X019058Y010126D02*
X019349Y010126D01*
X019349Y009981D01*
X019300Y009933D01*
X019203Y009933D01*
X019155Y009981D01*
X019155Y010126D01*
X019155Y010030D02*
X019058Y009933D01*
X019058Y009832D02*
X019058Y009638D01*
X019058Y009735D02*
X019349Y009735D01*
X019252Y009832D01*
X019252Y009537D02*
X019203Y009489D01*
X019203Y009344D01*
X019107Y009344D02*
X019300Y009344D01*
X019349Y009392D01*
X019349Y009489D01*
X019300Y009537D01*
X019252Y009537D01*
X019107Y009537D02*
X019058Y009489D01*
X019058Y009392D01*
X019107Y009344D01*
X018818Y009410D02*
X018722Y009555D01*
X018625Y009410D01*
X018725Y011904D02*
X018822Y012050D01*
X018918Y011904D01*
X019015Y012050D02*
X018725Y012050D01*
X018725Y012151D02*
X018725Y012344D01*
X018725Y012247D02*
X019015Y012247D01*
X018918Y012344D01*
X019131Y012360D02*
X019422Y012360D01*
X019422Y012215D01*
X019373Y012167D01*
X019277Y012167D01*
X019228Y012215D01*
X019228Y012360D01*
X019228Y012264D02*
X019131Y012167D01*
X019180Y012066D02*
X019228Y012066D01*
X019277Y012017D01*
X019277Y011921D01*
X019228Y011872D01*
X019180Y011872D01*
X019131Y011921D01*
X019131Y012017D01*
X019180Y012066D01*
X019277Y012017D02*
X019325Y012066D01*
X019373Y012066D01*
X019422Y012017D01*
X019422Y011921D01*
X019373Y011872D01*
X019325Y011872D01*
X019277Y011921D01*
X016672Y011716D02*
X016478Y011716D01*
X016575Y011716D02*
X016575Y012006D01*
X016478Y011909D01*
X016377Y011957D02*
X016329Y012006D01*
X016232Y012006D01*
X016183Y011957D01*
X016183Y011909D01*
X016232Y011861D01*
X016329Y011861D01*
X016377Y011812D01*
X016377Y011764D01*
X016329Y011716D01*
X016232Y011716D01*
X016183Y011764D01*
X016082Y011716D02*
X016082Y012006D01*
X015986Y011909D01*
X015889Y012006D01*
X015889Y011716D01*
X010808Y009116D02*
X010808Y008923D01*
X010759Y008874D01*
X010614Y008874D01*
X010614Y009164D01*
X010759Y009164D01*
X010808Y009116D01*
X010513Y009164D02*
X010320Y009164D01*
X010320Y008874D01*
X010513Y008874D01*
X010416Y009019D02*
X010320Y009019D01*
X010218Y008874D02*
X010025Y008874D01*
X010025Y009164D01*
X009918Y008064D02*
X009918Y008016D01*
X009822Y007919D01*
X009822Y007774D01*
X009822Y007919D02*
X009725Y008016D01*
X009725Y008064D01*
X010020Y007726D02*
X010213Y007726D01*
X010314Y007823D02*
X010363Y007774D01*
X010459Y007774D01*
X010508Y007823D01*
X010508Y007871D01*
X010459Y007919D01*
X010363Y007919D01*
X010314Y007968D01*
X010314Y008016D01*
X010363Y008064D01*
X010459Y008064D01*
X010508Y008016D01*
X010609Y008064D02*
X010802Y008064D01*
X010706Y008064D02*
X010706Y007774D01*
X010904Y007774D02*
X010904Y008064D01*
X011049Y008064D01*
X011097Y008016D01*
X011097Y007919D01*
X011049Y007871D01*
X010904Y007871D01*
X013825Y005914D02*
X013825Y005624D01*
X014018Y005624D01*
X014120Y005624D02*
X014313Y005624D01*
X014414Y005624D02*
X014559Y005624D01*
X014608Y005673D01*
X014608Y005866D01*
X014559Y005914D01*
X014414Y005914D01*
X014414Y005624D01*
X014216Y005769D02*
X014120Y005769D01*
X014120Y005914D02*
X014120Y005624D01*
X014120Y005914D02*
X014313Y005914D01*
X014709Y005769D02*
X014757Y005818D01*
X014902Y005818D01*
X014854Y005721D02*
X014757Y005721D01*
X014709Y005769D01*
X014709Y005624D02*
X014854Y005624D01*
X014902Y005673D01*
X014854Y005721D01*
X014836Y003994D02*
X014836Y003704D01*
X015029Y003704D01*
X015130Y003704D02*
X015130Y003994D01*
X015275Y003994D01*
X015324Y003946D01*
X015324Y003753D01*
X015275Y003704D01*
X015130Y003704D01*
X014932Y003849D02*
X014836Y003849D01*
X014836Y003994D02*
X015029Y003994D01*
X014735Y003704D02*
X014541Y003704D01*
X014541Y003994D01*
X014440Y003656D02*
X014246Y003656D01*
X014145Y003704D02*
X013952Y003994D01*
X013851Y003946D02*
X013851Y003849D01*
X013802Y003801D01*
X013657Y003801D01*
X013657Y003704D02*
X013657Y003994D01*
X013802Y003994D01*
X013851Y003946D01*
X013754Y003801D02*
X013851Y003704D01*
X013952Y003704D02*
X014145Y003994D01*
X014045Y002994D02*
X013852Y002704D01*
X014045Y002704D02*
X013852Y002994D01*
X013751Y002994D02*
X013557Y002994D01*
X013654Y002994D02*
X013654Y002704D01*
X014146Y002656D02*
X014340Y002656D01*
X014441Y002704D02*
X014635Y002704D01*
X014736Y002704D02*
X014929Y002704D01*
X015030Y002704D02*
X015175Y002704D01*
X015224Y002753D01*
X015224Y002946D01*
X015175Y002994D01*
X015030Y002994D01*
X015030Y002704D01*
X014832Y002849D02*
X014736Y002849D01*
X014736Y002994D02*
X014736Y002704D01*
X014736Y002994D02*
X014929Y002994D01*
X014441Y002994D02*
X014441Y002704D01*
X014366Y001986D02*
X014414Y001938D01*
X014414Y001841D01*
X014366Y001793D01*
X014221Y001793D01*
X014317Y001793D02*
X014414Y001696D01*
X014221Y001696D02*
X014221Y001986D01*
X014366Y001986D01*
X014119Y001986D02*
X014119Y001696D01*
X014023Y001793D01*
X013926Y001696D01*
X013926Y001986D01*
X013825Y001938D02*
X013776Y001986D01*
X013631Y001986D01*
X013631Y001696D01*
X013631Y001793D02*
X013776Y001793D01*
X013825Y001841D01*
X013825Y001938D01*
X012150Y004024D02*
X012150Y004314D01*
X012054Y004314D02*
X012247Y004314D01*
X011952Y004314D02*
X011759Y004314D01*
X011759Y004024D01*
X011952Y004024D01*
X011856Y004169D02*
X011759Y004169D01*
X011658Y004121D02*
X011658Y004073D01*
X011609Y004024D01*
X011513Y004024D01*
X011464Y004073D01*
X011513Y004169D02*
X011609Y004169D01*
X011658Y004121D01*
X011658Y004266D02*
X011609Y004314D01*
X011513Y004314D01*
X011464Y004266D01*
X011464Y004218D01*
X011513Y004169D01*
X011363Y004024D02*
X011170Y004024D01*
X011170Y004314D01*
X011363Y004314D01*
X011266Y004169D02*
X011170Y004169D01*
X011068Y004169D02*
X011068Y004266D01*
X011020Y004314D01*
X010875Y004314D01*
X010875Y004024D01*
X010875Y004121D02*
X011020Y004121D01*
X011068Y004169D01*
X010972Y004121D02*
X011068Y004024D01*
X009953Y004467D02*
X009953Y004529D01*
X009892Y004591D01*
X009706Y004591D01*
X009706Y004467D01*
X009768Y004406D01*
X009892Y004406D01*
X009953Y004467D01*
X009830Y004714D02*
X009706Y004591D01*
X009584Y004467D02*
X009584Y004406D01*
X009522Y004406D01*
X009522Y004467D01*
X009584Y004467D01*
X009401Y004406D02*
X009154Y004406D01*
X009277Y004406D02*
X009277Y004776D01*
X009154Y004653D01*
X009033Y004653D02*
X008909Y004406D01*
X008786Y004653D01*
X008786Y005006D02*
X008786Y005376D01*
X008971Y005376D01*
X009033Y005314D01*
X009033Y005191D01*
X008971Y005129D01*
X008786Y005129D01*
X009154Y005067D02*
X009216Y005006D01*
X009339Y005006D01*
X009401Y005067D01*
X009401Y005191D01*
X009339Y005253D01*
X009216Y005253D01*
X009154Y005191D01*
X009154Y005067D01*
X009522Y005006D02*
X009646Y005006D01*
X009584Y005006D02*
X009584Y005376D01*
X009522Y005376D01*
X009830Y005253D02*
X009953Y005253D01*
X010015Y005191D01*
X010015Y005006D01*
X009830Y005006D01*
X009768Y005067D01*
X009830Y005129D01*
X010015Y005129D01*
X010136Y005129D02*
X010260Y005253D01*
X010321Y005253D01*
X010443Y005191D02*
X010505Y005253D01*
X010690Y005253D01*
X010811Y005191D02*
X010873Y005253D01*
X010997Y005253D01*
X011058Y005191D01*
X011058Y005006D01*
X011180Y005006D02*
X011303Y005006D01*
X011241Y005006D02*
X011241Y005253D01*
X011180Y005253D01*
X011241Y005376D02*
X011241Y005438D01*
X011487Y005253D02*
X011610Y005253D01*
X011672Y005191D01*
X011672Y005129D01*
X011425Y005129D01*
X011425Y005067D02*
X011425Y005191D01*
X011487Y005253D01*
X011425Y005067D02*
X011487Y005006D01*
X011610Y005006D01*
X011794Y005006D02*
X011917Y005006D01*
X011855Y005006D02*
X011855Y005376D01*
X011794Y005376D01*
X012039Y005191D02*
X012101Y005253D01*
X012286Y005253D01*
X012286Y005376D02*
X012286Y005006D01*
X012101Y005006D01*
X012039Y005067D01*
X012039Y005191D01*
X010811Y005376D02*
X010811Y005006D01*
X010690Y005067D02*
X010628Y005129D01*
X010505Y005129D01*
X010443Y005191D01*
X010443Y005006D02*
X010628Y005006D01*
X010690Y005067D01*
X010136Y005006D02*
X010136Y005253D01*
X009953Y004776D02*
X009830Y004714D01*
X017125Y005124D02*
X017318Y005124D01*
X017222Y005124D02*
X017222Y005414D01*
X017125Y005318D01*
X017420Y005414D02*
X017420Y005124D01*
X017420Y005221D02*
X017613Y005414D01*
X017468Y005269D02*
X017613Y005124D01*
X017613Y005674D02*
X017613Y005964D01*
X017714Y005819D02*
X017859Y005819D01*
X017908Y005771D01*
X017908Y005723D01*
X017859Y005674D01*
X017763Y005674D01*
X017714Y005723D01*
X017714Y005819D01*
X017811Y005916D01*
X017908Y005964D01*
X017613Y005674D02*
X017420Y005964D01*
X017420Y005674D01*
X017318Y005674D02*
X017222Y005771D01*
X017270Y005771D02*
X017125Y005771D01*
X017125Y005674D02*
X017125Y005964D01*
X017270Y005964D01*
X017318Y005916D01*
X017318Y005819D01*
X017270Y005771D01*
X023649Y001623D02*
X023896Y001623D01*
X023772Y001746D02*
X023772Y001499D01*
X016868Y020374D02*
X016675Y020374D01*
X016772Y020374D02*
X016772Y020664D01*
X016675Y020568D01*
D12*
X019138Y019906D02*
X011238Y019906D01*
X011238Y017556D01*
X011282Y017554D01*
X011325Y017548D01*
X011367Y017539D01*
X011409Y017526D01*
X011449Y017509D01*
X011488Y017489D01*
X011525Y017466D01*
X011559Y017439D01*
X011592Y017410D01*
X011621Y017377D01*
X011648Y017343D01*
X011671Y017306D01*
X011691Y017267D01*
X011708Y017227D01*
X011721Y017185D01*
X011730Y017143D01*
X011736Y017100D01*
X011738Y017056D01*
X011736Y017012D01*
X011730Y016969D01*
X011721Y016927D01*
X011708Y016885D01*
X011691Y016845D01*
X011671Y016806D01*
X011648Y016769D01*
X011621Y016735D01*
X011592Y016702D01*
X011559Y016673D01*
X011525Y016646D01*
X011488Y016623D01*
X011449Y016603D01*
X011409Y016586D01*
X011367Y016573D01*
X011325Y016564D01*
X011282Y016558D01*
X011238Y016556D01*
X011238Y014206D01*
X019138Y014206D01*
X019138Y019906D01*
X019110Y023509D02*
X011210Y023509D01*
X011210Y025859D01*
X011254Y025861D01*
X011297Y025867D01*
X011339Y025876D01*
X011381Y025889D01*
X011421Y025906D01*
X011460Y025926D01*
X011497Y025949D01*
X011531Y025976D01*
X011564Y026005D01*
X011593Y026038D01*
X011620Y026072D01*
X011643Y026109D01*
X011663Y026148D01*
X011680Y026188D01*
X011693Y026230D01*
X011702Y026272D01*
X011708Y026315D01*
X011710Y026359D01*
X011708Y026403D01*
X011702Y026446D01*
X011693Y026488D01*
X011680Y026530D01*
X011663Y026570D01*
X011643Y026609D01*
X011620Y026646D01*
X011593Y026680D01*
X011564Y026713D01*
X011531Y026742D01*
X011497Y026769D01*
X011460Y026792D01*
X011421Y026812D01*
X011381Y026829D01*
X011339Y026842D01*
X011297Y026851D01*
X011254Y026857D01*
X011210Y026859D01*
X011210Y029209D01*
X019110Y029209D01*
X019110Y023509D01*
X021367Y027473D02*
X021117Y027723D01*
X021117Y029223D01*
X021367Y029473D01*
X021867Y029473D01*
X022117Y029223D01*
X022117Y027723D01*
X021867Y027473D01*
X021367Y027473D01*
X022117Y027723D02*
X022367Y027473D01*
X022867Y027473D01*
X023117Y027723D01*
X023117Y029223D01*
X023367Y029473D01*
X023867Y029473D01*
X024117Y029223D01*
X024117Y027723D01*
X023867Y027473D01*
X023367Y027473D01*
X023117Y027723D01*
X024117Y027723D02*
X024367Y027473D01*
X024867Y027473D01*
X025117Y027723D01*
X025117Y029223D01*
X025367Y029473D01*
X025867Y029473D01*
X026117Y029223D01*
X026117Y027723D01*
X025867Y027473D01*
X025367Y027473D01*
X025117Y027723D01*
X026117Y027723D02*
X026367Y027473D01*
X026867Y027473D01*
X027117Y027723D01*
X027117Y029223D01*
X027367Y029473D01*
X027867Y029473D01*
X028117Y029223D01*
X028117Y027723D01*
X027867Y027473D01*
X027367Y027473D01*
X027117Y027723D01*
X028117Y027723D02*
X028367Y027473D01*
X028867Y027473D01*
X029117Y027723D01*
X029117Y029223D01*
X029367Y029473D01*
X029867Y029473D01*
X030117Y029223D01*
X030117Y027723D01*
X029867Y027473D01*
X029367Y027473D01*
X029117Y027723D01*
X030117Y027723D02*
X030367Y027473D01*
X030867Y027473D01*
X031117Y027723D01*
X031117Y029223D01*
X031367Y029473D01*
X031867Y029473D01*
X032117Y029223D01*
X032117Y027723D01*
X031867Y027473D01*
X031367Y027473D01*
X031117Y027723D01*
X032117Y027723D02*
X032367Y027473D01*
X032867Y027473D01*
X033117Y027723D01*
X033117Y029223D01*
X033367Y029473D01*
X033867Y029473D01*
X034117Y029223D01*
X034117Y027723D01*
X033867Y027473D01*
X033367Y027473D01*
X033117Y027723D01*
X034117Y027723D02*
X034367Y027473D01*
X034867Y027473D01*
X035117Y027723D01*
X035117Y029223D01*
X034867Y029473D01*
X034367Y029473D01*
X034117Y029223D01*
X033117Y029223D02*
X032867Y029473D01*
X032367Y029473D01*
X032117Y029223D01*
X031117Y029223D02*
X030867Y029473D01*
X030367Y029473D01*
X030117Y029223D01*
X029117Y029223D02*
X028867Y029473D01*
X028367Y029473D01*
X028117Y029223D01*
X027117Y029223D02*
X026867Y029473D01*
X026367Y029473D01*
X026117Y029223D01*
X025117Y029223D02*
X024867Y029473D01*
X024367Y029473D01*
X024117Y029223D01*
X023117Y029223D02*
X022867Y029473D01*
X022367Y029473D01*
X022117Y029223D01*
X011544Y030428D02*
X011471Y030501D01*
X011324Y030501D01*
X011251Y030575D01*
X011324Y030648D01*
X011544Y030648D01*
X011544Y030428D02*
X011471Y030355D01*
X011251Y030355D01*
X011090Y030355D02*
X011017Y030428D01*
X011017Y030722D01*
X010944Y030648D02*
X011090Y030648D01*
X010710Y030648D02*
X010710Y030355D01*
X010637Y030355D02*
X010783Y030355D01*
X010826Y030107D02*
X010826Y029813D01*
X010752Y029646D02*
X010605Y029500D01*
X010752Y029353D01*
X011046Y029353D01*
X011046Y029646D02*
X010752Y029646D01*
X010679Y029960D02*
X010972Y029960D01*
X010346Y029887D02*
X010346Y030033D01*
X010272Y030107D01*
X009979Y030107D01*
X009905Y030033D01*
X009905Y029887D01*
X009979Y029813D01*
X010126Y029813D01*
X010126Y029960D01*
X010272Y029813D02*
X010346Y029887D01*
X010346Y029646D02*
X009905Y029353D01*
X010346Y029353D01*
X010346Y029186D02*
X009905Y029186D01*
X009905Y028966D01*
X009979Y028892D01*
X010272Y028892D01*
X010346Y028966D01*
X010346Y029186D01*
X010346Y028707D02*
X009905Y028413D01*
X010126Y028246D02*
X010126Y027953D01*
X010272Y028100D02*
X009979Y028100D01*
X009610Y028159D02*
X009360Y027909D01*
X009610Y027659D01*
X009610Y027159D01*
X009360Y026909D01*
X007860Y026909D01*
X007610Y027159D01*
X007610Y027659D01*
X007860Y027909D01*
X009360Y027909D01*
X009610Y028159D02*
X009610Y028659D01*
X009360Y028909D01*
X007860Y028909D01*
X007610Y028659D01*
X007610Y028159D01*
X007860Y027909D01*
X007096Y028412D02*
X006802Y028412D01*
X006949Y028559D02*
X006949Y028266D01*
X006626Y028156D02*
X006376Y027906D01*
X006626Y027656D01*
X006626Y027156D01*
X006376Y026906D01*
X005876Y026906D01*
X005626Y027156D01*
X005626Y027656D01*
X005876Y027906D01*
X005626Y028156D01*
X005626Y028656D01*
X005876Y028906D01*
X005626Y029156D01*
X005626Y029656D01*
X005876Y029906D01*
X006376Y029906D01*
X006626Y029656D01*
X006626Y029156D01*
X006376Y028906D01*
X006626Y028656D01*
X006626Y028156D01*
X006949Y027585D02*
X006949Y027292D01*
X005626Y027156D02*
X005376Y026906D01*
X004876Y026906D01*
X004626Y027156D01*
X004626Y027656D01*
X004876Y027906D01*
X004626Y028156D01*
X004626Y028656D01*
X004876Y028906D01*
X004626Y029156D01*
X004626Y029656D01*
X004876Y029906D01*
X005376Y029906D01*
X005626Y029656D01*
X005626Y029156D01*
X005376Y028906D01*
X005626Y028656D01*
X005626Y028156D01*
X005376Y027906D01*
X005626Y027656D01*
X005626Y027156D01*
X004149Y027069D02*
X004149Y026922D01*
X004076Y026848D01*
X003929Y026848D01*
X003855Y026922D01*
X003855Y027069D01*
X003929Y027142D01*
X004076Y027142D01*
X004149Y027069D01*
X004149Y027309D02*
X003855Y027456D01*
X004149Y027602D01*
X004149Y027766D02*
X004149Y027839D01*
X004002Y027986D01*
X003855Y027986D02*
X004149Y027986D01*
X004076Y028153D02*
X004002Y028153D01*
X004002Y028446D01*
X003929Y028446D02*
X004076Y028446D01*
X004149Y028373D01*
X004149Y028226D01*
X004076Y028153D01*
X003855Y028226D02*
X003855Y028373D01*
X003929Y028446D01*
X003929Y028613D02*
X004002Y028687D01*
X004002Y028833D01*
X004076Y028907D01*
X004149Y028833D01*
X004149Y028613D01*
X003929Y028613D02*
X003855Y028687D01*
X003855Y028907D01*
X004886Y030210D02*
X004812Y030283D01*
X004886Y030210D02*
X005033Y030210D01*
X005106Y030283D01*
X005106Y030356D01*
X005033Y030430D01*
X004886Y030430D01*
X004812Y030503D01*
X004812Y030577D01*
X004886Y030650D01*
X005033Y030650D01*
X005106Y030577D01*
X005273Y030503D02*
X005420Y030650D01*
X005420Y030210D01*
X005566Y030210D02*
X005273Y030210D01*
X005812Y030278D02*
X005886Y030205D01*
X006033Y030205D01*
X006106Y030278D01*
X006106Y030351D01*
X006033Y030425D01*
X005886Y030425D01*
X005812Y030498D01*
X005812Y030572D01*
X005886Y030645D01*
X006033Y030645D01*
X006106Y030572D01*
X006273Y030572D02*
X006346Y030645D01*
X006493Y030645D01*
X006566Y030572D01*
X006566Y030498D01*
X006273Y030205D01*
X006566Y030205D01*
X006902Y029543D02*
X006829Y029470D01*
X006829Y029323D01*
X006902Y029250D01*
X006976Y029250D01*
X007049Y029323D01*
X007049Y029470D01*
X007123Y029543D01*
X007196Y029543D01*
X007269Y029470D01*
X007269Y029323D01*
X007196Y029250D01*
X007610Y029159D02*
X007860Y028909D01*
X007610Y029159D02*
X007610Y029659D01*
X007860Y029909D01*
X009360Y029909D01*
X009610Y029659D01*
X009610Y029159D01*
X009360Y028909D01*
X009905Y028707D02*
X010346Y028413D01*
X010605Y028560D02*
X010826Y028560D01*
X010972Y028413D01*
X011046Y028413D01*
X010826Y028560D02*
X010972Y028707D01*
X011046Y028707D01*
X010826Y028246D02*
X010826Y027953D01*
X010972Y028100D02*
X010679Y028100D01*
X010972Y027707D02*
X010826Y027560D01*
X010605Y027560D01*
X010826Y027560D02*
X010972Y027413D01*
X011046Y027413D01*
X010826Y027246D02*
X010826Y026953D01*
X010972Y027100D02*
X010679Y027100D01*
X010346Y027413D02*
X009905Y027707D01*
X009905Y027413D02*
X010346Y027707D01*
X010972Y027707D02*
X011046Y027707D01*
X010126Y027246D02*
X010126Y026953D01*
X009816Y024423D02*
X009816Y023996D01*
X010030Y024209D02*
X009603Y024209D01*
X009266Y019223D02*
X009266Y018796D01*
X009480Y019009D02*
X009053Y019009D01*
X011257Y013587D02*
X019157Y013587D01*
X019157Y007887D01*
X011257Y007887D01*
X011257Y010237D01*
X011301Y010239D01*
X011344Y010245D01*
X011386Y010254D01*
X011428Y010267D01*
X011468Y010284D01*
X011507Y010304D01*
X011544Y010327D01*
X011578Y010354D01*
X011611Y010383D01*
X011640Y010416D01*
X011667Y010450D01*
X011690Y010487D01*
X011710Y010526D01*
X011727Y010566D01*
X011740Y010608D01*
X011749Y010650D01*
X011755Y010693D01*
X011757Y010737D01*
X011755Y010781D01*
X011749Y010824D01*
X011740Y010866D01*
X011727Y010908D01*
X011710Y010948D01*
X011690Y010987D01*
X011667Y011024D01*
X011640Y011058D01*
X011611Y011091D01*
X011578Y011120D01*
X011544Y011147D01*
X011507Y011170D01*
X011468Y011190D01*
X011428Y011207D01*
X011386Y011220D01*
X011344Y011229D01*
X011301Y011235D01*
X011257Y011237D01*
X011257Y013587D01*
X008720Y012361D02*
X008252Y012361D01*
X008486Y012595D02*
X008486Y012128D01*
X009416Y009123D02*
X009416Y008696D01*
X009630Y008909D02*
X009203Y008909D01*
X009281Y006649D02*
X010081Y006649D01*
X010181Y006549D01*
X010181Y005749D01*
X010081Y005649D01*
X009281Y005649D01*
X009181Y005749D01*
X009081Y005649D01*
X008281Y005649D01*
X008181Y005749D01*
X008181Y006549D01*
X008281Y006649D01*
X009081Y006649D01*
X009181Y006549D01*
X009281Y006649D01*
X006717Y006109D02*
X006290Y006109D01*
X006504Y005896D02*
X006504Y006323D01*
X004867Y007109D02*
X004440Y007109D01*
X004654Y006896D02*
X004654Y007323D01*
X003754Y006273D02*
X003754Y005846D01*
X003540Y006059D02*
X003967Y006059D01*
X004124Y005479D02*
X003697Y005479D01*
X003590Y005372D01*
X003590Y005159D01*
X003697Y005052D01*
X003910Y005052D01*
X003910Y005266D01*
X004124Y005479D02*
X004231Y005372D01*
X004231Y005159D01*
X004124Y005052D01*
X004231Y004835D02*
X003590Y004835D01*
X003590Y004408D02*
X004231Y004408D01*
X004231Y004190D02*
X003590Y004190D01*
X003590Y003870D01*
X003697Y003763D01*
X004124Y003763D01*
X004231Y003870D01*
X004231Y004190D01*
X004231Y004835D02*
X003590Y004408D01*
X014940Y004359D02*
X015367Y004359D01*
X015154Y004573D02*
X015154Y004146D01*
X015154Y003573D02*
X015154Y003146D01*
X014940Y003359D02*
X015367Y003359D01*
X015154Y002573D02*
X015154Y002146D01*
X014940Y002359D02*
X015367Y002359D01*
X015154Y001573D02*
X015154Y001146D01*
X014940Y001359D02*
X015367Y001359D01*
X035367Y027473D02*
X035117Y027723D01*
X035367Y027473D02*
X035867Y027473D01*
X036117Y027723D01*
X036117Y029223D01*
X035867Y029473D01*
X035367Y029473D01*
X035117Y029223D01*
X036117Y029223D02*
X036367Y029473D01*
X036867Y029473D01*
X037117Y029223D01*
X037117Y027723D01*
X036867Y027473D01*
X036367Y027473D01*
X036117Y027723D01*
X037117Y027723D02*
X037367Y027473D01*
X037867Y027473D01*
X038117Y027723D01*
X038117Y029223D01*
X037867Y029473D01*
X037367Y029473D01*
X037117Y029223D01*
X038117Y029223D02*
X038367Y029473D01*
X038867Y029473D01*
X039117Y029223D01*
X039117Y027723D01*
X038867Y027473D01*
X038367Y027473D01*
X038117Y027723D01*
X039117Y027723D02*
X039367Y027473D01*
X039867Y027473D01*
X040117Y027723D01*
X040117Y029223D01*
X039867Y029473D01*
X039367Y029473D01*
X039117Y029223D01*
X040117Y029223D02*
X040367Y029473D01*
X040867Y029473D01*
X041117Y029223D01*
X041117Y027723D01*
X040867Y027473D01*
X040367Y027473D01*
X040117Y027723D01*
X010710Y030648D02*
X010637Y030648D01*
X010710Y030795D02*
X010710Y030868D01*
X010470Y030575D02*
X010470Y030355D01*
X010323Y030355D02*
X010323Y030575D01*
X010396Y030648D01*
X010470Y030575D01*
X010323Y030575D02*
X010250Y030648D01*
X010176Y030648D01*
X010176Y030355D01*
X010016Y030355D02*
X009869Y030355D01*
X009943Y030355D02*
X009943Y030648D01*
X009869Y030648D01*
X009943Y030795D02*
X009943Y030868D01*
X009636Y030795D02*
X009636Y030355D01*
X009709Y030355D02*
X009562Y030355D01*
X009562Y030795D02*
X009636Y030795D01*
X009905Y029646D02*
X010346Y029646D01*
D13*
X007873Y001686D02*
X002125Y001686D01*
X002125Y005229D01*
X007873Y005229D01*
X007873Y001686D01*
X007910Y001891D02*
X007912Y001945D01*
X007918Y001999D01*
X007928Y002052D01*
X007941Y002105D01*
X007958Y002156D01*
X007979Y002206D01*
X008004Y002254D01*
X008032Y002301D01*
X008063Y002345D01*
X008097Y002387D01*
X008134Y002426D01*
X008174Y002463D01*
X008217Y002496D01*
X008262Y002527D01*
X008309Y002554D01*
X008357Y002577D01*
X008408Y002597D01*
X008459Y002614D01*
X008512Y002626D01*
X008565Y002635D01*
X008619Y002640D01*
X008674Y002641D01*
X008728Y002638D01*
X008781Y002631D01*
X008834Y002620D01*
X008887Y002606D01*
X008938Y002588D01*
X008987Y002566D01*
X009035Y002541D01*
X009081Y002512D01*
X009125Y002480D01*
X009166Y002445D01*
X009204Y002407D01*
X009240Y002366D01*
X009273Y002323D01*
X009303Y002278D01*
X009329Y002230D01*
X009352Y002181D01*
X009371Y002130D01*
X009386Y002079D01*
X009398Y002026D01*
X009406Y001972D01*
X009410Y001918D01*
X009410Y001864D01*
X009406Y001810D01*
X009398Y001756D01*
X009386Y001703D01*
X009371Y001652D01*
X009352Y001601D01*
X009329Y001552D01*
X009303Y001504D01*
X009273Y001459D01*
X009240Y001416D01*
X009204Y001375D01*
X009166Y001337D01*
X009125Y001302D01*
X009081Y001270D01*
X009035Y001241D01*
X008987Y001216D01*
X008938Y001194D01*
X008887Y001176D01*
X008834Y001162D01*
X008781Y001151D01*
X008728Y001144D01*
X008674Y001141D01*
X008619Y001142D01*
X008565Y001147D01*
X008512Y001156D01*
X008459Y001168D01*
X008408Y001185D01*
X008357Y001205D01*
X008309Y001228D01*
X008262Y001255D01*
X008217Y001286D01*
X008174Y001319D01*
X008134Y001356D01*
X008097Y001395D01*
X008063Y001437D01*
X008032Y001481D01*
X008004Y001528D01*
X007979Y001576D01*
X007958Y001626D01*
X007941Y001677D01*
X007928Y001730D01*
X007918Y001783D01*
X007912Y001837D01*
X007910Y001891D01*
X006147Y004020D02*
X005595Y004020D01*
X005595Y006776D01*
X003391Y006776D01*
X003391Y004020D01*
X005595Y004020D01*
X006147Y004020D02*
X006147Y006776D01*
X005595Y006776D01*
X007687Y006950D02*
X007987Y006950D01*
X008147Y006950D02*
X008448Y007400D01*
X008608Y007400D02*
X008908Y007400D01*
X008758Y007400D02*
X008758Y006950D01*
X008448Y006950D02*
X008147Y007400D01*
X007987Y007400D02*
X007687Y007400D01*
X007687Y006950D01*
X007687Y007175D02*
X007837Y007175D01*
X009068Y006875D02*
X009368Y006875D01*
X009529Y006950D02*
X009529Y007400D01*
X009754Y007400D01*
X009829Y007325D01*
X009829Y007175D01*
X009754Y007100D01*
X009529Y007100D01*
X009989Y006950D02*
X009989Y007400D01*
X010289Y007400D02*
X010289Y006950D01*
X010139Y007100D01*
X009989Y006950D01*
X010449Y006950D02*
X010449Y007400D01*
X010675Y007400D01*
X010750Y007325D01*
X010750Y007175D01*
X010675Y007100D01*
X010449Y007100D01*
X010599Y007100D02*
X010750Y006950D01*
X015660Y002391D02*
X021660Y002391D01*
X021660Y001391D01*
X015660Y001391D01*
X015660Y002391D01*
X011784Y000667D02*
X011784Y000592D01*
X011484Y000292D01*
X011784Y000292D01*
X011324Y000367D02*
X011249Y000292D01*
X011099Y000292D01*
X011024Y000367D01*
X011099Y000517D02*
X011024Y000592D01*
X011024Y000667D01*
X011099Y000742D01*
X011249Y000742D01*
X011324Y000667D01*
X011484Y000667D02*
X011559Y000742D01*
X011709Y000742D01*
X011784Y000667D01*
X011324Y000442D02*
X011324Y000367D01*
X011324Y000442D02*
X011249Y000517D01*
X011099Y000517D01*
X020727Y000343D02*
X041593Y000343D01*
X041593Y029871D01*
X020727Y029871D01*
X020727Y000343D01*
X022660Y001391D02*
X030660Y001391D01*
X030660Y002391D01*
X022660Y002391D01*
X022660Y001391D01*
X026108Y004483D02*
X026108Y005094D01*
X026312Y005094D02*
X026312Y004483D01*
X026413Y004687D02*
X026006Y004687D01*
X026006Y004890D02*
X026312Y004890D01*
X026413Y004890D01*
X026614Y004687D02*
X026919Y004687D01*
X027021Y004789D01*
X027021Y004992D01*
X026919Y005094D01*
X026614Y005094D01*
X026614Y004483D01*
X027222Y004483D02*
X027425Y004483D01*
X027323Y004483D02*
X027323Y005094D01*
X027222Y005094D02*
X027425Y005094D01*
X027627Y005094D02*
X027627Y004483D01*
X028034Y004483D01*
X028235Y004483D02*
X028235Y005094D01*
X028642Y005094D01*
X028842Y004890D02*
X029046Y005094D01*
X029046Y004483D01*
X029249Y004483D02*
X028842Y004483D01*
X028438Y004789D02*
X028235Y004789D01*
X028034Y005094D02*
X027627Y005094D01*
X027627Y004789D02*
X027830Y004789D01*
X027931Y005473D02*
X027829Y005575D01*
X027931Y005473D02*
X028135Y005473D01*
X028236Y005575D01*
X028236Y005677D01*
X028135Y005779D01*
X028033Y005779D01*
X028135Y005779D02*
X028236Y005880D01*
X028236Y005982D01*
X028135Y006084D01*
X027931Y006084D01*
X027829Y005982D01*
X028133Y006185D02*
X028133Y006796D01*
X028439Y006796D01*
X028540Y006694D01*
X028540Y006491D01*
X028439Y006389D01*
X028133Y006389D01*
X027931Y006389D02*
X027829Y006389D01*
X027829Y006491D01*
X027931Y006491D01*
X027931Y006389D01*
X027629Y006491D02*
X027629Y006796D01*
X027629Y006491D02*
X027527Y006389D01*
X027425Y006491D01*
X027323Y006389D01*
X027222Y006491D01*
X027222Y006796D01*
X027021Y006796D02*
X027021Y006491D01*
X026919Y006389D01*
X026817Y006491D01*
X026716Y006389D01*
X026614Y006491D01*
X026614Y006796D01*
X026413Y006796D02*
X026413Y006491D01*
X026312Y006389D01*
X026210Y006491D01*
X026108Y006389D01*
X026006Y006491D01*
X026006Y006796D01*
X026046Y007266D02*
X026046Y007876D01*
X026351Y007876D01*
X026453Y007774D01*
X026453Y007571D01*
X026351Y007469D01*
X026046Y007469D01*
X026653Y007367D02*
X026755Y007266D01*
X026959Y007266D01*
X027060Y007367D01*
X027060Y007571D01*
X026959Y007673D01*
X026755Y007673D01*
X026653Y007571D01*
X026653Y007367D01*
X027261Y007266D02*
X027465Y007266D01*
X027363Y007266D02*
X027363Y007876D01*
X027261Y007876D01*
X027768Y007673D02*
X027971Y007673D01*
X028073Y007571D01*
X028073Y007266D01*
X027768Y007266D01*
X027666Y007367D01*
X027768Y007469D01*
X028073Y007469D01*
X028274Y007469D02*
X028477Y007673D01*
X028579Y007673D01*
X028780Y007571D02*
X028882Y007673D01*
X029187Y007673D01*
X029388Y007571D02*
X029490Y007673D01*
X029693Y007673D01*
X029795Y007571D01*
X029795Y007266D01*
X029996Y007266D02*
X030199Y007266D01*
X030098Y007266D02*
X030098Y007673D01*
X029996Y007673D01*
X030098Y007876D02*
X030098Y007978D01*
X030503Y007673D02*
X030706Y007673D01*
X030808Y007571D01*
X030808Y007469D01*
X030401Y007469D01*
X030401Y007367D02*
X030401Y007571D01*
X030503Y007673D01*
X030401Y007367D02*
X030503Y007266D01*
X030706Y007266D01*
X031009Y007266D02*
X031212Y007266D01*
X031110Y007266D02*
X031110Y007876D01*
X031009Y007876D01*
X031414Y007571D02*
X031516Y007673D01*
X031821Y007673D01*
X031821Y007876D02*
X031821Y007266D01*
X031516Y007266D01*
X031414Y007367D01*
X031414Y007571D01*
X031476Y006796D02*
X031476Y006389D01*
X031275Y006389D02*
X030970Y006389D01*
X030868Y006491D01*
X030868Y006694D01*
X030970Y006796D01*
X031275Y006796D01*
X031275Y006287D01*
X031173Y006185D01*
X031072Y006185D01*
X031173Y006084D02*
X030970Y006084D01*
X030868Y005982D01*
X030868Y005880D01*
X030970Y005779D01*
X031275Y005779D01*
X031275Y005982D02*
X031275Y005575D01*
X031173Y005473D01*
X030970Y005473D01*
X030868Y005575D01*
X030667Y005473D02*
X030260Y005473D01*
X030058Y005473D02*
X030058Y005575D01*
X029956Y005575D01*
X029956Y005473D01*
X030058Y005473D01*
X029756Y005575D02*
X029654Y005473D01*
X029450Y005473D01*
X029349Y005575D01*
X029756Y005982D01*
X029756Y005575D01*
X029756Y005982D02*
X029654Y006084D01*
X029450Y006084D01*
X029349Y005982D01*
X029349Y005575D01*
X029148Y005473D02*
X028741Y005473D01*
X028539Y005473D02*
X028437Y005473D01*
X028437Y005575D01*
X028539Y005575D01*
X028539Y005473D01*
X028945Y005473D02*
X028945Y006084D01*
X028741Y005880D01*
X028843Y006389D02*
X028741Y006491D01*
X028741Y006694D01*
X028843Y006796D01*
X029046Y006796D01*
X029148Y006694D01*
X029148Y006491D01*
X029046Y006389D01*
X028843Y006389D01*
X029349Y006389D02*
X029552Y006389D01*
X029450Y006389D02*
X029450Y006999D01*
X029349Y006999D01*
X029388Y007266D02*
X029388Y007876D01*
X029086Y007469D02*
X028882Y007469D01*
X028780Y007571D01*
X028780Y007266D02*
X029086Y007266D01*
X029187Y007367D01*
X029086Y007469D01*
X028274Y007266D02*
X028274Y007673D01*
X029856Y006796D02*
X030059Y006796D01*
X030161Y006694D01*
X030161Y006389D01*
X029856Y006389D01*
X029754Y006491D01*
X029856Y006592D01*
X030161Y006592D01*
X030362Y006592D02*
X030565Y006796D01*
X030667Y006796D01*
X030362Y006796D02*
X030362Y006389D01*
X030464Y006084D02*
X030464Y005473D01*
X030261Y005094D02*
X030058Y004890D01*
X029857Y004992D02*
X029450Y004585D01*
X029552Y004483D01*
X029755Y004483D01*
X029857Y004585D01*
X029857Y004992D01*
X029755Y005094D01*
X029552Y005094D01*
X029450Y004992D01*
X029450Y004585D01*
X030058Y004483D02*
X030465Y004483D01*
X030261Y004483D02*
X030261Y005094D01*
X030665Y004789D02*
X030971Y004789D01*
X031072Y004687D01*
X031072Y004585D01*
X030971Y004483D01*
X030767Y004483D01*
X030665Y004585D01*
X030665Y004789D01*
X030869Y004992D01*
X031072Y005094D01*
X031273Y004890D02*
X031477Y005094D01*
X031477Y004483D01*
X031680Y004483D02*
X031273Y004483D01*
X031881Y004585D02*
X031983Y004483D01*
X032186Y004483D01*
X032288Y004585D01*
X032288Y004687D01*
X032186Y004789D01*
X032084Y004789D01*
X032186Y004789D02*
X032288Y004890D01*
X032288Y004992D01*
X032186Y005094D01*
X031983Y005094D01*
X031881Y004992D01*
X032489Y004789D02*
X032896Y004789D01*
X033096Y004992D02*
X033096Y004585D01*
X033503Y004992D01*
X033503Y004585D01*
X033402Y004483D01*
X033198Y004483D01*
X033096Y004585D01*
X033096Y004992D02*
X033198Y005094D01*
X033402Y005094D01*
X033503Y004992D01*
X033704Y004992D02*
X033806Y005094D01*
X034009Y005094D01*
X034111Y004992D01*
X034111Y004890D01*
X034009Y004789D01*
X034111Y004687D01*
X034111Y004585D01*
X034009Y004483D01*
X033806Y004483D01*
X033704Y004585D01*
X033908Y004789D02*
X034009Y004789D01*
X033907Y006389D02*
X033805Y006389D01*
X033805Y006491D01*
X033907Y006491D01*
X033907Y006389D01*
X034109Y006491D02*
X034211Y006389D01*
X034516Y006389D01*
X034717Y006491D02*
X034717Y006694D01*
X034819Y006796D01*
X035022Y006796D01*
X035124Y006694D01*
X035124Y006491D01*
X035022Y006389D01*
X034819Y006389D01*
X034717Y006491D01*
X034516Y006796D02*
X034211Y006796D01*
X034109Y006694D01*
X034109Y006491D01*
X033605Y006389D02*
X033605Y006694D01*
X033503Y006796D01*
X033299Y006796D01*
X033198Y006694D01*
X032997Y006694D02*
X032997Y006491D01*
X032895Y006389D01*
X032590Y006389D01*
X032389Y006389D02*
X032084Y006389D01*
X031982Y006491D01*
X032084Y006592D01*
X032389Y006592D01*
X032389Y006694D02*
X032389Y006389D01*
X032590Y006185D02*
X032590Y006796D01*
X032895Y006796D01*
X032997Y006694D01*
X033198Y006999D02*
X033198Y006389D01*
X032389Y006694D02*
X032287Y006796D01*
X032084Y006796D01*
X031781Y006796D02*
X031679Y006796D01*
X031476Y006592D01*
X031173Y006084D02*
X031275Y005982D01*
X030464Y006084D02*
X030260Y005880D01*
X032833Y007266D02*
X032629Y007673D01*
X033036Y007673D02*
X032833Y007266D01*
X033237Y007266D02*
X033644Y007266D01*
X033845Y007266D02*
X033946Y007266D01*
X033946Y007367D01*
X033845Y007367D01*
X033845Y007266D01*
X034149Y007367D02*
X034149Y007571D01*
X034454Y007571D01*
X034556Y007469D01*
X034556Y007367D01*
X034454Y007266D01*
X034250Y007266D01*
X034149Y007367D01*
X034149Y007571D02*
X034352Y007774D01*
X034556Y007876D01*
X033440Y007876D02*
X033440Y007266D01*
X033237Y007673D02*
X033440Y007876D01*
X035325Y006491D02*
X035426Y006491D01*
X035426Y006389D01*
X035325Y006389D01*
X035325Y006491D01*
X035628Y006491D02*
X035628Y006796D01*
X035628Y006491D02*
X035730Y006389D01*
X036035Y006389D01*
X036035Y006796D01*
X036236Y006999D02*
X036236Y006389D01*
X036236Y006592D02*
X036541Y006796D01*
X036236Y006592D02*
X036541Y006389D01*
X039660Y003391D02*
X041660Y003391D01*
X041660Y021391D01*
X039660Y021391D01*
X039660Y003391D01*
X039660Y002391D02*
X039660Y001391D01*
X031660Y001391D01*
X031660Y002391D01*
X039660Y002391D01*
X040410Y001891D02*
X040412Y001945D01*
X040418Y001999D01*
X040428Y002052D01*
X040441Y002105D01*
X040458Y002156D01*
X040479Y002206D01*
X040504Y002254D01*
X040532Y002301D01*
X040563Y002345D01*
X040597Y002387D01*
X040634Y002426D01*
X040674Y002463D01*
X040717Y002496D01*
X040762Y002527D01*
X040809Y002554D01*
X040857Y002577D01*
X040908Y002597D01*
X040959Y002614D01*
X041012Y002626D01*
X041065Y002635D01*
X041119Y002640D01*
X041174Y002641D01*
X041228Y002638D01*
X041281Y002631D01*
X041334Y002620D01*
X041387Y002606D01*
X041438Y002588D01*
X041487Y002566D01*
X041535Y002541D01*
X041581Y002512D01*
X041625Y002480D01*
X041666Y002445D01*
X041704Y002407D01*
X041740Y002366D01*
X041773Y002323D01*
X041803Y002278D01*
X041829Y002230D01*
X041852Y002181D01*
X041871Y002130D01*
X041886Y002079D01*
X041898Y002026D01*
X041906Y001972D01*
X041910Y001918D01*
X041910Y001864D01*
X041906Y001810D01*
X041898Y001756D01*
X041886Y001703D01*
X041871Y001652D01*
X041852Y001601D01*
X041829Y001552D01*
X041803Y001504D01*
X041773Y001459D01*
X041740Y001416D01*
X041704Y001375D01*
X041666Y001337D01*
X041625Y001302D01*
X041581Y001270D01*
X041535Y001241D01*
X041487Y001216D01*
X041438Y001194D01*
X041387Y001176D01*
X041334Y001162D01*
X041281Y001151D01*
X041228Y001144D01*
X041174Y001141D01*
X041119Y001142D01*
X041065Y001147D01*
X041012Y001156D01*
X040959Y001168D01*
X040908Y001185D01*
X040857Y001205D01*
X040809Y001228D01*
X040762Y001255D01*
X040717Y001286D01*
X040674Y001319D01*
X040634Y001356D01*
X040597Y001395D01*
X040563Y001437D01*
X040532Y001481D01*
X040504Y001528D01*
X040479Y001576D01*
X040458Y001626D01*
X040441Y001677D01*
X040428Y001730D01*
X040418Y001783D01*
X040412Y001837D01*
X040410Y001891D01*
X027629Y005473D02*
X027222Y005473D01*
X027425Y005473D02*
X027425Y006084D01*
X027222Y005880D01*
X027021Y005982D02*
X026614Y005575D01*
X026716Y005473D01*
X026919Y005473D01*
X027021Y005575D01*
X027021Y005982D01*
X026919Y006084D01*
X026716Y006084D01*
X026614Y005982D01*
X026614Y005575D01*
X026413Y005473D02*
X026006Y005473D01*
X026413Y005880D01*
X026413Y005982D01*
X026312Y006084D01*
X026108Y006084D01*
X026006Y005982D01*
X020323Y009031D02*
X020221Y008930D01*
X020119Y008930D01*
X020017Y009031D01*
X020017Y009337D01*
X020017Y009537D02*
X019916Y009639D01*
X019916Y009944D01*
X019916Y009741D02*
X019712Y009537D01*
X019712Y009337D02*
X019712Y009031D01*
X019814Y008930D01*
X019916Y008930D01*
X020017Y009031D01*
X020323Y009031D02*
X020323Y009337D01*
X019712Y009337D01*
X020017Y009537D02*
X020221Y009537D01*
X020323Y009639D01*
X020323Y009944D01*
X019712Y009944D01*
X019814Y010145D02*
X020221Y010145D01*
X020323Y010247D01*
X020323Y010450D01*
X020221Y010552D01*
X019814Y010552D01*
X019712Y010450D01*
X019712Y010247D01*
X019814Y010145D01*
X020323Y010753D02*
X020323Y011160D01*
X020323Y010956D02*
X019712Y010956D01*
X019814Y011360D02*
X020221Y011360D01*
X020323Y011462D01*
X020323Y011666D01*
X020221Y011767D01*
X019814Y011767D01*
X019712Y011666D01*
X019712Y011462D01*
X019814Y011360D01*
X019712Y011968D02*
X020323Y011968D01*
X020119Y012172D01*
X020323Y012375D01*
X019712Y012375D01*
X020160Y020391D02*
X011910Y020391D01*
X011910Y021391D01*
X020160Y021391D01*
X020160Y020391D01*
X020660Y020391D02*
X020660Y021391D01*
X028660Y021391D01*
X028660Y020391D01*
X020660Y020391D01*
X021286Y026234D02*
X021286Y026685D01*
X021136Y026685D02*
X021436Y026685D01*
X021597Y026685D02*
X021897Y026685D01*
X022057Y026685D02*
X022357Y026685D01*
X022207Y026685D02*
X022207Y026234D01*
X021747Y026459D02*
X021597Y026459D01*
X021597Y026234D02*
X021597Y026685D01*
X017451Y029461D02*
X017451Y029868D01*
X017248Y030072D01*
X017044Y029868D01*
X017044Y029461D01*
X016843Y029461D02*
X016640Y029665D01*
X016742Y029665D02*
X016436Y029665D01*
X016436Y029461D02*
X016436Y030072D01*
X016742Y030072D01*
X016843Y029970D01*
X016843Y029767D01*
X016742Y029665D01*
X017044Y029767D02*
X017451Y029767D01*
X016236Y029970D02*
X016236Y029563D01*
X016134Y029461D01*
X015930Y029461D01*
X015829Y029563D01*
X015829Y029970D01*
X015930Y030072D01*
X016134Y030072D01*
X016236Y029970D01*
X015628Y030072D02*
X015221Y030072D01*
X015424Y030072D02*
X015424Y029461D01*
X015020Y029563D02*
X015020Y029970D01*
X014918Y030072D01*
X014715Y030072D01*
X014613Y029970D01*
X014613Y029563D01*
X014715Y029461D01*
X014918Y029461D01*
X015020Y029563D01*
X014412Y029461D02*
X014412Y030072D01*
X014209Y029868D01*
X014005Y030072D01*
X014005Y029461D01*
X006351Y026731D02*
X006351Y026431D01*
X006351Y026581D02*
X005900Y026581D01*
X006051Y026431D01*
X005351Y026431D02*
X005351Y026731D01*
X005351Y026581D02*
X004900Y026581D01*
X005051Y026431D01*
X008410Y020891D02*
X008412Y020945D01*
X008418Y020999D01*
X008428Y021052D01*
X008441Y021105D01*
X008458Y021156D01*
X008479Y021206D01*
X008504Y021254D01*
X008532Y021301D01*
X008563Y021345D01*
X008597Y021387D01*
X008634Y021426D01*
X008674Y021463D01*
X008717Y021496D01*
X008762Y021527D01*
X008809Y021554D01*
X008857Y021577D01*
X008908Y021597D01*
X008959Y021614D01*
X009012Y021626D01*
X009065Y021635D01*
X009119Y021640D01*
X009174Y021641D01*
X009228Y021638D01*
X009281Y021631D01*
X009334Y021620D01*
X009387Y021606D01*
X009438Y021588D01*
X009487Y021566D01*
X009535Y021541D01*
X009581Y021512D01*
X009625Y021480D01*
X009666Y021445D01*
X009704Y021407D01*
X009740Y021366D01*
X009773Y021323D01*
X009803Y021278D01*
X009829Y021230D01*
X009852Y021181D01*
X009871Y021130D01*
X009886Y021079D01*
X009898Y021026D01*
X009906Y020972D01*
X009910Y020918D01*
X009910Y020864D01*
X009906Y020810D01*
X009898Y020756D01*
X009886Y020703D01*
X009871Y020652D01*
X009852Y020601D01*
X009829Y020552D01*
X009803Y020504D01*
X009773Y020459D01*
X009740Y020416D01*
X009704Y020375D01*
X009666Y020337D01*
X009625Y020302D01*
X009581Y020270D01*
X009535Y020241D01*
X009487Y020216D01*
X009438Y020194D01*
X009387Y020176D01*
X009334Y020162D01*
X009281Y020151D01*
X009228Y020144D01*
X009174Y020141D01*
X009119Y020142D01*
X009065Y020147D01*
X009012Y020156D01*
X008959Y020168D01*
X008908Y020185D01*
X008857Y020205D01*
X008809Y020228D01*
X008762Y020255D01*
X008717Y020286D01*
X008674Y020319D01*
X008634Y020356D01*
X008597Y020395D01*
X008563Y020437D01*
X008532Y020481D01*
X008504Y020528D01*
X008479Y020576D01*
X008458Y020626D01*
X008441Y020677D01*
X008428Y020730D01*
X008418Y020783D01*
X008412Y020837D01*
X008410Y020891D01*
X029660Y021391D02*
X029660Y020391D01*
X037660Y020391D01*
X037660Y021391D01*
X029660Y021391D01*
D14*
X009896Y010394D02*
X009896Y009759D01*
X009684Y009547D01*
X009472Y009547D01*
X009261Y009759D01*
X009261Y010394D01*
X009896Y010394D02*
X008625Y010394D01*
X008625Y009759D01*
X008837Y009547D01*
X009049Y009547D01*
X009261Y009759D01*
X008984Y016047D02*
X009196Y016259D01*
X009196Y016682D01*
X008984Y016894D01*
X008137Y016894D01*
X007925Y016682D01*
X007925Y016259D01*
X008137Y016047D01*
X007875Y021597D02*
X008722Y021597D01*
X009146Y022020D01*
X008722Y022444D01*
X007875Y022444D01*
X008511Y022444D02*
X008511Y021597D01*
D15*
X013260Y006159D02*
X015210Y006159D01*
X015210Y004859D01*
X015560Y004509D01*
X015560Y000859D01*
X015510Y000859D02*
X013260Y000859D01*
X013260Y006159D01*
D16*
X008030Y001891D02*
X008032Y001941D01*
X008038Y001991D01*
X008048Y002040D01*
X008062Y002088D01*
X008079Y002135D01*
X008100Y002180D01*
X008125Y002224D01*
X008153Y002265D01*
X008185Y002304D01*
X008219Y002341D01*
X008256Y002375D01*
X008296Y002405D01*
X008338Y002432D01*
X008382Y002456D01*
X008428Y002477D01*
X008475Y002493D01*
X008523Y002506D01*
X008573Y002515D01*
X008622Y002520D01*
X008673Y002521D01*
X008723Y002518D01*
X008772Y002511D01*
X008821Y002500D01*
X008869Y002485D01*
X008915Y002467D01*
X008960Y002445D01*
X009003Y002419D01*
X009044Y002390D01*
X009083Y002358D01*
X009119Y002323D01*
X009151Y002285D01*
X009181Y002245D01*
X009208Y002202D01*
X009231Y002158D01*
X009250Y002112D01*
X009266Y002064D01*
X009278Y002015D01*
X009286Y001966D01*
X009290Y001916D01*
X009290Y001866D01*
X009286Y001816D01*
X009278Y001767D01*
X009266Y001718D01*
X009250Y001670D01*
X009231Y001624D01*
X009208Y001580D01*
X009181Y001537D01*
X009151Y001497D01*
X009119Y001459D01*
X009083Y001424D01*
X009044Y001392D01*
X009003Y001363D01*
X008960Y001337D01*
X008915Y001315D01*
X008869Y001297D01*
X008821Y001282D01*
X008772Y001271D01*
X008723Y001264D01*
X008673Y001261D01*
X008622Y001262D01*
X008573Y001267D01*
X008523Y001276D01*
X008475Y001289D01*
X008428Y001305D01*
X008382Y001326D01*
X008338Y001350D01*
X008296Y001377D01*
X008256Y001407D01*
X008219Y001441D01*
X008185Y001478D01*
X008153Y001517D01*
X008125Y001558D01*
X008100Y001602D01*
X008079Y001647D01*
X008062Y001694D01*
X008048Y001742D01*
X008038Y001791D01*
X008032Y001841D01*
X008030Y001891D01*
X008530Y020891D02*
X008532Y020941D01*
X008538Y020991D01*
X008548Y021040D01*
X008562Y021088D01*
X008579Y021135D01*
X008600Y021180D01*
X008625Y021224D01*
X008653Y021265D01*
X008685Y021304D01*
X008719Y021341D01*
X008756Y021375D01*
X008796Y021405D01*
X008838Y021432D01*
X008882Y021456D01*
X008928Y021477D01*
X008975Y021493D01*
X009023Y021506D01*
X009073Y021515D01*
X009122Y021520D01*
X009173Y021521D01*
X009223Y021518D01*
X009272Y021511D01*
X009321Y021500D01*
X009369Y021485D01*
X009415Y021467D01*
X009460Y021445D01*
X009503Y021419D01*
X009544Y021390D01*
X009583Y021358D01*
X009619Y021323D01*
X009651Y021285D01*
X009681Y021245D01*
X009708Y021202D01*
X009731Y021158D01*
X009750Y021112D01*
X009766Y021064D01*
X009778Y021015D01*
X009786Y020966D01*
X009790Y020916D01*
X009790Y020866D01*
X009786Y020816D01*
X009778Y020767D01*
X009766Y020718D01*
X009750Y020670D01*
X009731Y020624D01*
X009708Y020580D01*
X009681Y020537D01*
X009651Y020497D01*
X009619Y020459D01*
X009583Y020424D01*
X009544Y020392D01*
X009503Y020363D01*
X009460Y020337D01*
X009415Y020315D01*
X009369Y020297D01*
X009321Y020282D01*
X009272Y020271D01*
X009223Y020264D01*
X009173Y020261D01*
X009122Y020262D01*
X009073Y020267D01*
X009023Y020276D01*
X008975Y020289D01*
X008928Y020305D01*
X008882Y020326D01*
X008838Y020350D01*
X008796Y020377D01*
X008756Y020407D01*
X008719Y020441D01*
X008685Y020478D01*
X008653Y020517D01*
X008625Y020558D01*
X008600Y020602D01*
X008579Y020647D01*
X008562Y020694D01*
X008548Y020742D01*
X008538Y020791D01*
X008532Y020841D01*
X008530Y020891D01*
X040530Y001891D02*
X040532Y001941D01*
X040538Y001991D01*
X040548Y002040D01*
X040562Y002088D01*
X040579Y002135D01*
X040600Y002180D01*
X040625Y002224D01*
X040653Y002265D01*
X040685Y002304D01*
X040719Y002341D01*
X040756Y002375D01*
X040796Y002405D01*
X040838Y002432D01*
X040882Y002456D01*
X040928Y002477D01*
X040975Y002493D01*
X041023Y002506D01*
X041073Y002515D01*
X041122Y002520D01*
X041173Y002521D01*
X041223Y002518D01*
X041272Y002511D01*
X041321Y002500D01*
X041369Y002485D01*
X041415Y002467D01*
X041460Y002445D01*
X041503Y002419D01*
X041544Y002390D01*
X041583Y002358D01*
X041619Y002323D01*
X041651Y002285D01*
X041681Y002245D01*
X041708Y002202D01*
X041731Y002158D01*
X041750Y002112D01*
X041766Y002064D01*
X041778Y002015D01*
X041786Y001966D01*
X041790Y001916D01*
X041790Y001866D01*
X041786Y001816D01*
X041778Y001767D01*
X041766Y001718D01*
X041750Y001670D01*
X041731Y001624D01*
X041708Y001580D01*
X041681Y001537D01*
X041651Y001497D01*
X041619Y001459D01*
X041583Y001424D01*
X041544Y001392D01*
X041503Y001363D01*
X041460Y001337D01*
X041415Y001315D01*
X041369Y001297D01*
X041321Y001282D01*
X041272Y001271D01*
X041223Y001264D01*
X041173Y001261D01*
X041122Y001262D01*
X041073Y001267D01*
X041023Y001276D01*
X040975Y001289D01*
X040928Y001305D01*
X040882Y001326D01*
X040838Y001350D01*
X040796Y001377D01*
X040756Y001407D01*
X040719Y001441D01*
X040685Y001478D01*
X040653Y001517D01*
X040625Y001558D01*
X040600Y001602D01*
X040579Y001647D01*
X040562Y001694D01*
X040548Y001742D01*
X040538Y001791D01*
X040532Y001841D01*
X040530Y001891D01*
D17*
X014101Y002123D03*
X014101Y002595D03*
X014101Y003123D03*
X014101Y003595D03*
X014101Y004123D03*
X014101Y004595D03*
X014101Y001595D03*
X014101Y001123D03*
X010419Y008223D03*
X010419Y008695D03*
X010069Y019273D03*
X010069Y019745D03*
D18*
X010069Y019509D03*
X009210Y023200D03*
X010419Y008459D03*
X014101Y004359D03*
X014101Y003359D03*
X014101Y002359D03*
X014101Y001359D03*
D19*
X014078Y004761D02*
X014078Y005042D01*
X013985Y004948D01*
X013877Y004995D02*
X013830Y005042D01*
X013690Y005042D01*
X013690Y004761D01*
X013830Y004761D01*
X013877Y004808D01*
X013877Y004995D01*
X013985Y004761D02*
X014172Y004761D01*
X014279Y004808D02*
X014326Y004761D01*
X014420Y004761D01*
X014466Y004808D01*
X014466Y004855D01*
X014420Y004902D01*
X014373Y004902D01*
X014420Y004902D02*
X014466Y004948D01*
X014466Y004995D01*
X014420Y005042D01*
X014326Y005042D01*
X014279Y004995D01*
X015747Y004735D02*
X016573Y004735D01*
X016573Y006684D02*
X015747Y006684D01*
X027747Y010385D02*
X028573Y010385D01*
X028573Y012334D02*
X027747Y012334D01*
X027887Y012629D02*
X027733Y012783D01*
X027810Y012783D02*
X027580Y012783D01*
X027580Y012629D02*
X027580Y013090D01*
X027810Y013090D01*
X027887Y013013D01*
X027887Y012859D01*
X027810Y012783D01*
X028040Y012629D02*
X028040Y013090D01*
X028347Y012629D01*
X028347Y013090D01*
X028501Y013090D02*
X028501Y012859D01*
X028654Y012936D01*
X028731Y012936D01*
X028808Y012859D01*
X028808Y012706D01*
X028731Y012629D01*
X028578Y012629D01*
X028501Y012706D01*
X028501Y013090D02*
X028808Y013090D01*
X033549Y013040D02*
X033549Y012579D01*
X033549Y012733D02*
X033779Y012733D01*
X033856Y012809D01*
X033856Y012963D01*
X033779Y013040D01*
X033549Y013040D01*
X033702Y012733D02*
X033856Y012579D01*
X034009Y012579D02*
X034009Y013040D01*
X034316Y012579D01*
X034316Y013040D01*
X034470Y012809D02*
X034777Y012809D01*
X034700Y012579D02*
X034700Y013040D01*
X034470Y012809D01*
X034573Y012334D02*
X033747Y012334D01*
X033747Y010385D02*
X034573Y010385D01*
X034573Y015385D02*
X033747Y015385D01*
X033747Y017334D02*
X034573Y017334D01*
X034546Y017579D02*
X034470Y017656D01*
X034546Y017579D02*
X034700Y017579D01*
X034777Y017656D01*
X034777Y017733D01*
X034700Y017809D01*
X034623Y017809D01*
X034700Y017809D02*
X034777Y017886D01*
X034777Y017963D01*
X034700Y018040D01*
X034546Y018040D01*
X034470Y017963D01*
X034316Y018040D02*
X034316Y017579D01*
X034009Y018040D01*
X034009Y017579D01*
X033856Y017579D02*
X033702Y017733D01*
X033779Y017733D02*
X033549Y017733D01*
X033549Y017579D02*
X033549Y018040D01*
X033779Y018040D01*
X033856Y017963D01*
X033856Y017809D01*
X033779Y017733D01*
X033573Y023385D02*
X032747Y023385D01*
X032747Y025334D02*
X033573Y025334D01*
X033604Y025529D02*
X033604Y025990D01*
X033451Y025836D01*
X033297Y025990D02*
X033297Y025529D01*
X032990Y025990D01*
X032990Y025529D01*
X032837Y025529D02*
X032683Y025683D01*
X032760Y025683D02*
X032530Y025683D01*
X032530Y025529D02*
X032530Y025990D01*
X032760Y025990D01*
X032837Y025913D01*
X032837Y025759D01*
X032760Y025683D01*
X033451Y025529D02*
X033758Y025529D01*
X037580Y025579D02*
X037580Y026040D01*
X037810Y026040D01*
X037887Y025963D01*
X037887Y025809D01*
X037810Y025733D01*
X037580Y025733D01*
X037733Y025733D02*
X037887Y025579D01*
X038040Y025579D02*
X038040Y026040D01*
X038347Y025579D01*
X038347Y026040D01*
X038501Y025963D02*
X038578Y026040D01*
X038731Y026040D01*
X038808Y025963D01*
X038808Y025886D01*
X038501Y025579D01*
X038808Y025579D01*
X038573Y025334D02*
X037747Y025334D01*
X037747Y023385D02*
X038573Y023385D01*
X024891Y027096D02*
X024584Y027096D01*
X024814Y027327D01*
X024814Y026866D01*
X024431Y026866D02*
X024354Y026866D01*
X024354Y026943D01*
X024431Y026943D01*
X024431Y026866D01*
X024200Y026866D02*
X023894Y026866D01*
X024200Y027173D01*
X024200Y027250D01*
X024124Y027327D01*
X023970Y027327D01*
X023894Y027250D01*
X023740Y027096D02*
X023433Y027096D01*
X023280Y026866D02*
X022973Y026866D01*
X023126Y026866D02*
X023126Y027327D01*
X022973Y027173D01*
X022819Y027250D02*
X022512Y026943D01*
X022589Y026866D01*
X022743Y026866D01*
X022819Y026943D01*
X022819Y027250D01*
X022743Y027327D01*
X022589Y027327D01*
X022512Y027250D01*
X022512Y026943D01*
X022205Y026866D02*
X022205Y027327D01*
X022052Y027327D02*
X022359Y027327D01*
X021899Y027327D02*
X021592Y027327D01*
X021592Y026866D01*
X021592Y027096D02*
X021745Y027096D01*
X021438Y027327D02*
X021131Y027327D01*
X021285Y027327D02*
X021285Y026866D01*
X003241Y006406D02*
X003241Y006100D01*
X003241Y006253D02*
X002780Y006253D01*
X002934Y006100D01*
X002780Y005946D02*
X002780Y005793D01*
X002780Y005869D02*
X003164Y005869D01*
X003241Y005793D01*
X003241Y005716D01*
X003164Y005639D01*
D20*
X003421Y007076D02*
X005862Y007076D01*
X005862Y013021D01*
X006177Y013021D01*
X006177Y007076D01*
X005862Y007076D01*
X006710Y008028D02*
X006460Y008278D01*
X006460Y008778D01*
X006710Y009028D01*
X006460Y009278D01*
X006460Y009778D01*
X006710Y010028D01*
X006460Y010278D01*
X006460Y010778D01*
X006710Y011028D01*
X006460Y011278D01*
X006460Y011778D01*
X006710Y012028D01*
X007210Y012028D01*
X007460Y011778D01*
X007460Y011278D01*
X007210Y011028D01*
X007460Y010778D01*
X007460Y010278D01*
X007210Y010028D01*
X007460Y009778D01*
X007460Y009278D01*
X007210Y009028D01*
X007460Y008778D01*
X007460Y008278D01*
X007210Y008028D01*
X006710Y008028D01*
X003421Y007076D02*
X003421Y013021D01*
X005862Y013021D01*
X005862Y013469D02*
X005862Y019414D01*
X006177Y019414D01*
X006177Y013469D01*
X005862Y013469D01*
X003421Y013469D01*
X003421Y019414D01*
X005862Y019414D01*
X005862Y020004D02*
X005862Y025949D01*
X006177Y025949D01*
X006177Y020004D01*
X005862Y020004D01*
X003421Y020004D01*
X003421Y025949D01*
X005862Y025949D01*
X006710Y024909D02*
X007210Y024909D01*
X007460Y024659D01*
X007460Y024159D01*
X007210Y023909D01*
X007460Y023659D01*
X007460Y023159D01*
X007210Y022909D01*
X007460Y022659D01*
X007460Y022159D01*
X007210Y021909D01*
X007460Y021659D01*
X007460Y021159D01*
X007210Y020909D01*
X006710Y020909D01*
X006460Y021159D01*
X006460Y021659D01*
X006710Y021909D01*
X006460Y022159D01*
X006460Y022659D01*
X006710Y022909D01*
X006460Y023159D01*
X006460Y023659D01*
X006710Y023909D01*
X006460Y024159D01*
X006460Y024659D01*
X006710Y024909D01*
X011261Y025414D02*
X011615Y025060D01*
X013859Y025060D01*
X013859Y025926D01*
X013859Y026792D02*
X013859Y027658D01*
X011615Y027658D01*
X011261Y027304D01*
X011261Y026792D01*
X011261Y025926D02*
X011261Y025414D01*
X011399Y026733D02*
X011422Y026798D01*
X011448Y026861D01*
X011478Y026922D01*
X011512Y026982D01*
X011548Y027040D01*
X011588Y027096D01*
X011631Y027149D01*
X011677Y027200D01*
X011726Y027248D01*
X011777Y027293D01*
X011831Y027336D01*
X011887Y027375D01*
X011945Y027411D01*
X012006Y027444D01*
X012068Y027473D01*
X012131Y027499D01*
X012196Y027521D01*
X012262Y027540D01*
X012329Y027554D01*
X012396Y027565D01*
X012465Y027572D01*
X012533Y027576D01*
X012602Y027575D01*
X012670Y027571D01*
X012738Y027562D01*
X012805Y027550D01*
X012872Y027535D01*
X012938Y027515D01*
X013002Y027492D01*
X013065Y027465D01*
X013127Y027434D01*
X013186Y027401D01*
X013244Y027364D01*
X013299Y027323D01*
X013352Y027280D01*
X013403Y027234D01*
X013451Y027185D01*
X013496Y027133D01*
X013538Y027079D01*
X013577Y027023D01*
X013613Y026964D01*
X013645Y026904D01*
X013674Y026842D01*
X013700Y026778D01*
X013721Y026713D01*
X013721Y025985D02*
X013698Y025920D01*
X013672Y025857D01*
X013642Y025796D01*
X013608Y025736D01*
X013572Y025678D01*
X013532Y025622D01*
X013489Y025569D01*
X013443Y025518D01*
X013394Y025470D01*
X013343Y025425D01*
X013289Y025382D01*
X013233Y025343D01*
X013175Y025307D01*
X013114Y025274D01*
X013052Y025245D01*
X012989Y025219D01*
X012924Y025197D01*
X012858Y025178D01*
X012791Y025164D01*
X012724Y025153D01*
X012655Y025146D01*
X012587Y025142D01*
X012518Y025143D01*
X012450Y025147D01*
X012382Y025156D01*
X012315Y025168D01*
X012248Y025183D01*
X012182Y025203D01*
X012118Y025226D01*
X012055Y025253D01*
X011993Y025284D01*
X011934Y025317D01*
X011876Y025354D01*
X011821Y025395D01*
X011768Y025438D01*
X011717Y025484D01*
X011669Y025533D01*
X011624Y025585D01*
X011582Y025639D01*
X011543Y025695D01*
X011507Y025754D01*
X011475Y025814D01*
X011446Y025876D01*
X011420Y025940D01*
X011399Y026005D01*
X017335Y026059D02*
X017985Y026059D01*
X018002Y026061D01*
X018019Y026065D01*
X018035Y026072D01*
X018049Y026082D01*
X018062Y026095D01*
X018072Y026109D01*
X018079Y026125D01*
X018083Y026142D01*
X018085Y026159D01*
X017335Y026059D02*
X017318Y026061D01*
X017301Y026065D01*
X017285Y026072D01*
X017271Y026082D01*
X017258Y026095D01*
X017248Y026109D01*
X017241Y026125D01*
X017237Y026142D01*
X017235Y026159D01*
X017345Y025653D02*
X017975Y025653D01*
X017975Y025652D02*
X017991Y025647D01*
X018007Y025639D01*
X018021Y025629D01*
X018033Y025617D01*
X018043Y025602D01*
X018050Y025586D01*
X018054Y025569D01*
X018055Y025552D01*
X018053Y025534D01*
X017345Y025652D02*
X017329Y025647D01*
X017313Y025639D01*
X017299Y025629D01*
X017287Y025617D01*
X017277Y025602D01*
X017270Y025586D01*
X017266Y025569D01*
X017265Y025552D01*
X017267Y025534D01*
X017267Y024984D02*
X017265Y024966D01*
X017266Y024949D01*
X017270Y024932D01*
X017277Y024916D01*
X017287Y024901D01*
X017299Y024889D01*
X017313Y024879D01*
X017329Y024871D01*
X017345Y024866D01*
X017345Y024865D02*
X017975Y024865D01*
X017975Y024866D02*
X017991Y024871D01*
X018007Y024879D01*
X018021Y024889D01*
X018033Y024901D01*
X018043Y024916D01*
X018050Y024932D01*
X018054Y024949D01*
X018055Y024966D01*
X018053Y024984D01*
X018085Y026759D02*
X018083Y026776D01*
X018079Y026793D01*
X018072Y026809D01*
X018062Y026823D01*
X018049Y026836D01*
X018035Y026846D01*
X018019Y026853D01*
X018002Y026857D01*
X017985Y026859D01*
X017335Y026859D01*
X017318Y026857D01*
X017301Y026853D01*
X017285Y026846D01*
X017271Y026836D01*
X017258Y026823D01*
X017248Y026809D01*
X017241Y026793D01*
X017237Y026776D01*
X017235Y026759D01*
X017335Y027309D02*
X017985Y027309D01*
X018002Y027311D01*
X018019Y027315D01*
X018035Y027322D01*
X018049Y027332D01*
X018062Y027345D01*
X018072Y027359D01*
X018079Y027375D01*
X018083Y027392D01*
X018085Y027409D01*
X017335Y027309D02*
X017318Y027311D01*
X017301Y027315D01*
X017285Y027322D01*
X017271Y027332D01*
X017258Y027345D01*
X017248Y027359D01*
X017241Y027375D01*
X017237Y027392D01*
X017235Y027409D01*
X017235Y028009D02*
X017237Y028026D01*
X017241Y028043D01*
X017248Y028059D01*
X017258Y028073D01*
X017271Y028086D01*
X017285Y028096D01*
X017301Y028103D01*
X017318Y028107D01*
X017335Y028109D01*
X017985Y028109D01*
X018002Y028107D01*
X018019Y028103D01*
X018035Y028096D01*
X018049Y028086D01*
X018062Y028073D01*
X018072Y028059D01*
X018079Y028043D01*
X018083Y028026D01*
X018085Y028009D01*
X017435Y018459D02*
X016785Y018459D01*
X016768Y018457D01*
X016751Y018453D01*
X016735Y018446D01*
X016721Y018436D01*
X016708Y018423D01*
X016698Y018409D01*
X016691Y018393D01*
X016687Y018376D01*
X016685Y018359D01*
X016685Y017759D02*
X016687Y017742D01*
X016691Y017725D01*
X016698Y017709D01*
X016708Y017695D01*
X016721Y017682D01*
X016735Y017672D01*
X016751Y017665D01*
X016768Y017661D01*
X016785Y017659D01*
X017435Y017659D01*
X017452Y017661D01*
X017469Y017665D01*
X017485Y017672D01*
X017499Y017682D01*
X017512Y017695D01*
X017522Y017709D01*
X017529Y017725D01*
X017533Y017742D01*
X017535Y017759D01*
X017435Y017409D02*
X016785Y017409D01*
X016768Y017407D01*
X016751Y017403D01*
X016735Y017396D01*
X016721Y017386D01*
X016708Y017373D01*
X016698Y017359D01*
X016691Y017343D01*
X016687Y017326D01*
X016685Y017309D01*
X016685Y016709D02*
X016687Y016692D01*
X016691Y016675D01*
X016698Y016659D01*
X016708Y016645D01*
X016721Y016632D01*
X016735Y016622D01*
X016751Y016615D01*
X016768Y016611D01*
X016785Y016609D01*
X017435Y016609D01*
X017452Y016611D01*
X017469Y016615D01*
X017485Y016622D01*
X017499Y016632D01*
X017512Y016645D01*
X017522Y016659D01*
X017529Y016675D01*
X017533Y016692D01*
X017535Y016709D01*
X017425Y016353D02*
X016795Y016353D01*
X016795Y016352D02*
X016779Y016347D01*
X016763Y016339D01*
X016749Y016329D01*
X016737Y016317D01*
X016727Y016302D01*
X016720Y016286D01*
X016716Y016269D01*
X016715Y016252D01*
X016717Y016234D01*
X016717Y015684D02*
X016715Y015666D01*
X016716Y015649D01*
X016720Y015632D01*
X016727Y015616D01*
X016737Y015601D01*
X016749Y015589D01*
X016763Y015579D01*
X016779Y015571D01*
X016795Y015566D01*
X016795Y015565D02*
X017425Y015565D01*
X017425Y015566D02*
X017441Y015571D01*
X017457Y015579D01*
X017471Y015589D01*
X017483Y015601D01*
X017493Y015616D01*
X017500Y015632D01*
X017504Y015649D01*
X017505Y015666D01*
X017503Y015684D01*
X017503Y016234D02*
X017505Y016252D01*
X017504Y016269D01*
X017500Y016286D01*
X017493Y016302D01*
X017483Y016317D01*
X017471Y016329D01*
X017457Y016339D01*
X017441Y016347D01*
X017425Y016352D01*
X017535Y017309D02*
X017533Y017326D01*
X017529Y017343D01*
X017522Y017359D01*
X017512Y017373D01*
X017499Y017386D01*
X017485Y017396D01*
X017469Y017403D01*
X017452Y017407D01*
X017435Y017409D01*
X017535Y018359D02*
X017533Y018376D01*
X017529Y018393D01*
X017522Y018409D01*
X017512Y018423D01*
X017499Y018436D01*
X017485Y018446D01*
X017469Y018453D01*
X017452Y018457D01*
X017435Y018459D01*
X013909Y018355D02*
X013909Y017489D01*
X013909Y016623D02*
X013909Y015757D01*
X011665Y015757D01*
X011310Y016111D01*
X011310Y016623D01*
X011310Y017489D02*
X011310Y018001D01*
X011665Y018355D01*
X013909Y018355D01*
X013771Y016682D02*
X013748Y016617D01*
X013722Y016554D01*
X013692Y016493D01*
X013658Y016433D01*
X013622Y016375D01*
X013582Y016319D01*
X013539Y016266D01*
X013493Y016215D01*
X013444Y016167D01*
X013393Y016122D01*
X013339Y016079D01*
X013283Y016040D01*
X013225Y016004D01*
X013164Y015971D01*
X013102Y015942D01*
X013039Y015916D01*
X012974Y015894D01*
X012908Y015875D01*
X012841Y015861D01*
X012774Y015850D01*
X012705Y015843D01*
X012637Y015839D01*
X012568Y015840D01*
X012500Y015844D01*
X012432Y015853D01*
X012365Y015865D01*
X012298Y015880D01*
X012232Y015900D01*
X012168Y015923D01*
X012105Y015950D01*
X012043Y015981D01*
X011984Y016014D01*
X011926Y016051D01*
X011871Y016092D01*
X011818Y016135D01*
X011767Y016181D01*
X011719Y016230D01*
X011674Y016282D01*
X011632Y016336D01*
X011593Y016392D01*
X011557Y016451D01*
X011525Y016511D01*
X011496Y016573D01*
X011470Y016637D01*
X011449Y016702D01*
X011449Y017430D02*
X011472Y017495D01*
X011498Y017558D01*
X011528Y017619D01*
X011562Y017679D01*
X011598Y017737D01*
X011638Y017793D01*
X011681Y017846D01*
X011727Y017897D01*
X011776Y017945D01*
X011827Y017990D01*
X011881Y018033D01*
X011937Y018072D01*
X011995Y018108D01*
X012056Y018141D01*
X012118Y018170D01*
X012181Y018196D01*
X012246Y018218D01*
X012312Y018237D01*
X012379Y018251D01*
X012446Y018262D01*
X012515Y018269D01*
X012583Y018273D01*
X012652Y018272D01*
X012720Y018268D01*
X012788Y018259D01*
X012855Y018247D01*
X012922Y018232D01*
X012988Y018212D01*
X013052Y018189D01*
X013115Y018162D01*
X013177Y018131D01*
X013236Y018098D01*
X013294Y018061D01*
X013349Y018020D01*
X013402Y017977D01*
X013453Y017931D01*
X013501Y017882D01*
X013546Y017830D01*
X013588Y017776D01*
X013627Y017720D01*
X013663Y017661D01*
X013695Y017601D01*
X013724Y017539D01*
X013750Y017475D01*
X013771Y017410D01*
X010850Y015396D02*
X010850Y013152D01*
X010496Y012798D01*
X009984Y012798D01*
X009118Y012798D02*
X008606Y012798D01*
X008252Y013152D01*
X008252Y015396D01*
X009118Y015396D01*
X009984Y015396D02*
X010850Y015396D01*
X009925Y015258D02*
X009990Y015235D01*
X010053Y015209D01*
X010114Y015179D01*
X010174Y015145D01*
X010232Y015109D01*
X010288Y015069D01*
X010341Y015026D01*
X010392Y014980D01*
X010440Y014931D01*
X010485Y014880D01*
X010528Y014826D01*
X010567Y014770D01*
X010603Y014712D01*
X010636Y014651D01*
X010665Y014589D01*
X010691Y014526D01*
X010713Y014461D01*
X010732Y014395D01*
X010746Y014328D01*
X010757Y014261D01*
X010764Y014192D01*
X010768Y014124D01*
X010767Y014055D01*
X010763Y013987D01*
X010754Y013919D01*
X010742Y013852D01*
X010727Y013785D01*
X010707Y013719D01*
X010684Y013655D01*
X010657Y013592D01*
X010626Y013530D01*
X010593Y013471D01*
X010556Y013413D01*
X010515Y013358D01*
X010472Y013305D01*
X010426Y013254D01*
X010377Y013206D01*
X010325Y013161D01*
X010271Y013119D01*
X010215Y013080D01*
X010156Y013044D01*
X010096Y013012D01*
X010034Y012983D01*
X009970Y012957D01*
X009905Y012936D01*
X009177Y012936D02*
X009112Y012959D01*
X009049Y012985D01*
X008988Y013015D01*
X008928Y013049D01*
X008870Y013085D01*
X008814Y013125D01*
X008761Y013168D01*
X008710Y013214D01*
X008662Y013263D01*
X008617Y013314D01*
X008574Y013368D01*
X008535Y013424D01*
X008499Y013482D01*
X008466Y013543D01*
X008437Y013605D01*
X008411Y013668D01*
X008389Y013733D01*
X008370Y013799D01*
X008356Y013866D01*
X008345Y013933D01*
X008338Y014002D01*
X008334Y014070D01*
X008335Y014139D01*
X008339Y014207D01*
X008348Y014275D01*
X008360Y014342D01*
X008375Y014409D01*
X008395Y014475D01*
X008418Y014539D01*
X008445Y014602D01*
X008476Y014664D01*
X008509Y014723D01*
X008546Y014781D01*
X008587Y014836D01*
X008630Y014889D01*
X008676Y014940D01*
X008725Y014988D01*
X008777Y015033D01*
X008831Y015075D01*
X008887Y015114D01*
X008946Y015150D01*
X009006Y015182D01*
X009068Y015211D01*
X009132Y015237D01*
X009197Y015258D01*
X007460Y015175D02*
X007460Y014675D01*
X007210Y014425D01*
X006710Y014425D01*
X006460Y014675D01*
X006460Y015175D01*
X006710Y015425D01*
X006460Y015675D01*
X006460Y016175D01*
X006710Y016425D01*
X006460Y016675D01*
X006460Y017175D01*
X006710Y017425D01*
X006460Y017675D01*
X006460Y018175D01*
X006710Y018425D01*
X007210Y018425D01*
X007460Y018175D01*
X007460Y017675D01*
X007210Y017425D01*
X007460Y017175D01*
X007460Y016675D01*
X007210Y016425D01*
X007460Y016175D01*
X007460Y015675D01*
X007210Y015425D01*
X007460Y015175D01*
X011283Y011685D02*
X011638Y012040D01*
X013882Y012040D01*
X013882Y011173D01*
X013882Y010307D02*
X013882Y009441D01*
X011638Y009441D01*
X011283Y009795D01*
X011283Y010307D01*
X011283Y011173D02*
X011283Y011685D01*
X011421Y011114D02*
X011444Y011179D01*
X011470Y011242D01*
X011500Y011303D01*
X011534Y011363D01*
X011570Y011421D01*
X011610Y011477D01*
X011653Y011530D01*
X011699Y011581D01*
X011748Y011629D01*
X011799Y011674D01*
X011853Y011717D01*
X011909Y011756D01*
X011967Y011792D01*
X012028Y011825D01*
X012090Y011854D01*
X012153Y011880D01*
X012218Y011902D01*
X012284Y011921D01*
X012351Y011935D01*
X012418Y011946D01*
X012487Y011953D01*
X012555Y011957D01*
X012624Y011956D01*
X012692Y011952D01*
X012760Y011943D01*
X012827Y011931D01*
X012894Y011916D01*
X012960Y011896D01*
X013024Y011873D01*
X013087Y011846D01*
X013149Y011815D01*
X013208Y011782D01*
X013266Y011745D01*
X013321Y011704D01*
X013374Y011661D01*
X013425Y011615D01*
X013473Y011566D01*
X013518Y011514D01*
X013560Y011460D01*
X013599Y011404D01*
X013635Y011345D01*
X013667Y011285D01*
X013696Y011223D01*
X013722Y011159D01*
X013743Y011094D01*
X013744Y010366D02*
X013721Y010301D01*
X013695Y010238D01*
X013665Y010177D01*
X013631Y010117D01*
X013595Y010059D01*
X013555Y010003D01*
X013512Y009950D01*
X013466Y009899D01*
X013417Y009851D01*
X013366Y009806D01*
X013312Y009763D01*
X013256Y009724D01*
X013198Y009688D01*
X013137Y009655D01*
X013075Y009626D01*
X013012Y009600D01*
X012947Y009578D01*
X012881Y009559D01*
X012814Y009545D01*
X012747Y009534D01*
X012678Y009527D01*
X012610Y009523D01*
X012541Y009524D01*
X012473Y009528D01*
X012405Y009537D01*
X012338Y009549D01*
X012271Y009564D01*
X012205Y009584D01*
X012141Y009607D01*
X012078Y009634D01*
X012016Y009665D01*
X011957Y009698D01*
X011899Y009735D01*
X011844Y009776D01*
X011791Y009819D01*
X011740Y009865D01*
X011692Y009914D01*
X011647Y009966D01*
X011605Y010020D01*
X011566Y010076D01*
X011530Y010135D01*
X011498Y010195D01*
X011469Y010257D01*
X011443Y010321D01*
X011422Y010386D01*
X016635Y010409D02*
X016637Y010392D01*
X016641Y010375D01*
X016648Y010359D01*
X016658Y010345D01*
X016671Y010332D01*
X016685Y010322D01*
X016701Y010315D01*
X016718Y010311D01*
X016735Y010309D01*
X017385Y010309D01*
X017402Y010311D01*
X017419Y010315D01*
X017435Y010322D01*
X017449Y010332D01*
X017462Y010345D01*
X017472Y010359D01*
X017479Y010375D01*
X017483Y010392D01*
X017485Y010409D01*
X017375Y010003D02*
X016745Y010003D01*
X016745Y010002D02*
X016729Y009997D01*
X016713Y009989D01*
X016699Y009979D01*
X016687Y009967D01*
X016677Y009952D01*
X016670Y009936D01*
X016666Y009919D01*
X016665Y009902D01*
X016667Y009884D01*
X016667Y009334D02*
X016665Y009316D01*
X016666Y009299D01*
X016670Y009282D01*
X016677Y009266D01*
X016687Y009251D01*
X016699Y009239D01*
X016713Y009229D01*
X016729Y009221D01*
X016745Y009216D01*
X016745Y009215D02*
X017375Y009215D01*
X017375Y009216D02*
X017391Y009221D01*
X017407Y009229D01*
X017421Y009239D01*
X017433Y009251D01*
X017443Y009266D01*
X017450Y009282D01*
X017454Y009299D01*
X017455Y009316D01*
X017453Y009334D01*
X017453Y009884D02*
X017455Y009902D01*
X017454Y009919D01*
X017450Y009936D01*
X017443Y009952D01*
X017433Y009967D01*
X017421Y009979D01*
X017407Y009989D01*
X017391Y009997D01*
X017375Y010002D01*
X017485Y011009D02*
X017483Y011026D01*
X017479Y011043D01*
X017472Y011059D01*
X017462Y011073D01*
X017449Y011086D01*
X017435Y011096D01*
X017419Y011103D01*
X017402Y011107D01*
X017385Y011109D01*
X016735Y011109D01*
X016718Y011107D01*
X016701Y011103D01*
X016685Y011096D01*
X016671Y011086D01*
X016658Y011073D01*
X016648Y011059D01*
X016641Y011043D01*
X016637Y011026D01*
X016635Y011009D01*
X016735Y011459D02*
X017385Y011459D01*
X017402Y011461D01*
X017419Y011465D01*
X017435Y011472D01*
X017449Y011482D01*
X017462Y011495D01*
X017472Y011509D01*
X017479Y011525D01*
X017483Y011542D01*
X017485Y011559D01*
X017485Y012159D02*
X017483Y012176D01*
X017479Y012193D01*
X017472Y012209D01*
X017462Y012223D01*
X017449Y012236D01*
X017435Y012246D01*
X017419Y012253D01*
X017402Y012257D01*
X017385Y012259D01*
X016735Y012259D01*
X016718Y012257D01*
X016701Y012253D01*
X016685Y012246D01*
X016671Y012236D01*
X016658Y012223D01*
X016648Y012209D01*
X016641Y012193D01*
X016637Y012176D01*
X016635Y012159D01*
X016635Y011559D02*
X016637Y011542D01*
X016641Y011525D01*
X016648Y011509D01*
X016658Y011495D01*
X016671Y011482D01*
X016685Y011472D01*
X016701Y011465D01*
X016718Y011461D01*
X016735Y011459D01*
X012360Y003309D02*
X010660Y003309D01*
X010310Y002509D02*
X010310Y001716D01*
X010810Y002109D02*
X010812Y002161D01*
X010818Y002213D01*
X010828Y002265D01*
X010841Y002315D01*
X010858Y002365D01*
X010879Y002413D01*
X010904Y002459D01*
X010932Y002503D01*
X010963Y002545D01*
X010997Y002585D01*
X011034Y002622D01*
X011074Y002656D01*
X011116Y002687D01*
X011160Y002715D01*
X011206Y002740D01*
X011254Y002761D01*
X011304Y002778D01*
X011354Y002791D01*
X011406Y002801D01*
X011458Y002807D01*
X011510Y002809D01*
X011562Y002807D01*
X011614Y002801D01*
X011666Y002791D01*
X011716Y002778D01*
X011766Y002761D01*
X011814Y002740D01*
X011860Y002715D01*
X011904Y002687D01*
X011946Y002656D01*
X011986Y002622D01*
X012023Y002585D01*
X012057Y002545D01*
X012088Y002503D01*
X012116Y002459D01*
X012141Y002413D01*
X012162Y002365D01*
X012179Y002315D01*
X012192Y002265D01*
X012202Y002213D01*
X012208Y002161D01*
X012210Y002109D01*
X012208Y002057D01*
X012202Y002005D01*
X012192Y001953D01*
X012179Y001903D01*
X012162Y001853D01*
X012141Y001805D01*
X012116Y001759D01*
X012088Y001715D01*
X012057Y001673D01*
X012023Y001633D01*
X011986Y001596D01*
X011946Y001562D01*
X011904Y001531D01*
X011860Y001503D01*
X011814Y001478D01*
X011766Y001457D01*
X011716Y001440D01*
X011666Y001427D01*
X011614Y001417D01*
X011562Y001411D01*
X011510Y001409D01*
X011458Y001411D01*
X011406Y001417D01*
X011354Y001427D01*
X011304Y001440D01*
X011254Y001457D01*
X011206Y001478D01*
X011160Y001503D01*
X011116Y001531D01*
X011074Y001562D01*
X011034Y001596D01*
X010997Y001633D01*
X010963Y001673D01*
X010932Y001715D01*
X010904Y001759D01*
X010879Y001805D01*
X010858Y001853D01*
X010841Y001903D01*
X010828Y001953D01*
X010818Y002005D01*
X010812Y002057D01*
X010810Y002109D01*
X010660Y000909D02*
X012360Y000909D01*
X012710Y001704D02*
X012710Y002509D01*
D21*
X012727Y008747D02*
X012800Y008821D01*
X012727Y008894D01*
X012947Y008894D01*
X012911Y008968D02*
X012947Y009005D01*
X012947Y009078D01*
X012911Y009115D01*
X012874Y009115D01*
X012837Y009078D01*
X012837Y009005D01*
X012800Y008968D01*
X012764Y008968D01*
X012727Y009005D01*
X012727Y009078D01*
X012764Y009115D01*
X012800Y009189D02*
X012727Y009263D01*
X012947Y009263D01*
X012947Y009336D02*
X012947Y009189D01*
X013727Y009226D02*
X013764Y009189D01*
X013727Y009226D02*
X013727Y009299D01*
X013764Y009336D01*
X013800Y009336D01*
X013947Y009189D01*
X013947Y009336D01*
X013911Y009115D02*
X013947Y009078D01*
X013947Y009005D01*
X013911Y008968D01*
X013947Y008894D02*
X013727Y008894D01*
X013800Y008821D01*
X013727Y008747D01*
X013947Y008747D01*
X013800Y008968D02*
X013837Y009005D01*
X013837Y009078D01*
X013874Y009115D01*
X013911Y009115D01*
X013764Y009115D02*
X013727Y009078D01*
X013727Y009005D01*
X013764Y008968D01*
X013800Y008968D01*
X012947Y008747D02*
X012727Y008747D01*
X011947Y008747D02*
X011947Y008894D01*
X011947Y008968D02*
X011727Y008968D01*
X011947Y009115D01*
X011727Y009115D01*
X011727Y008894D02*
X011727Y008747D01*
X011947Y008747D01*
X011837Y008747D02*
X011837Y008821D01*
X014727Y008894D02*
X014947Y008894D01*
X014911Y008968D02*
X014947Y009005D01*
X014947Y009078D01*
X014911Y009115D01*
X014874Y009115D01*
X014837Y009078D01*
X014837Y009005D01*
X014800Y008968D01*
X014764Y008968D01*
X014727Y009005D01*
X014727Y009078D01*
X014764Y009115D01*
X014764Y009189D02*
X014727Y009226D01*
X014727Y009299D01*
X014764Y009336D01*
X014800Y009336D01*
X014837Y009299D01*
X014874Y009336D01*
X014911Y009336D01*
X014947Y009299D01*
X014947Y009226D01*
X014911Y009189D01*
X014837Y009263D02*
X014837Y009299D01*
X014727Y008894D02*
X014800Y008821D01*
X014727Y008747D01*
X014947Y008747D01*
X015727Y008747D02*
X015727Y008857D01*
X015764Y008894D01*
X015837Y008894D01*
X015874Y008857D01*
X015874Y008747D01*
X015947Y008747D02*
X015727Y008747D01*
X015874Y008821D02*
X015947Y008894D01*
X015911Y008968D02*
X015947Y009005D01*
X015947Y009078D01*
X015911Y009115D01*
X015874Y009115D01*
X015837Y009078D01*
X015837Y009005D01*
X015800Y008968D01*
X015764Y008968D01*
X015727Y009005D01*
X015727Y009078D01*
X015764Y009115D01*
X015727Y009189D02*
X015727Y009336D01*
X015727Y009263D02*
X015947Y009263D01*
X016727Y009299D02*
X016764Y009336D01*
X016837Y009336D01*
X016874Y009299D01*
X016874Y009189D01*
X016947Y009189D02*
X016727Y009189D01*
X016727Y009299D01*
X016947Y009115D02*
X016947Y008968D01*
X016727Y008968D01*
X016764Y008894D02*
X016727Y008857D01*
X016727Y008784D01*
X016764Y008747D01*
X016800Y008747D01*
X016837Y008784D01*
X016837Y008857D01*
X016874Y008894D01*
X016911Y008894D01*
X016947Y008857D01*
X016947Y008784D01*
X016911Y008747D01*
X017727Y008784D02*
X017727Y008857D01*
X017764Y008894D01*
X017837Y008857D02*
X017874Y008894D01*
X017911Y008894D01*
X017947Y008857D01*
X017947Y008784D01*
X017911Y008747D01*
X017837Y008784D02*
X017837Y008857D01*
X017837Y008784D02*
X017800Y008747D01*
X017764Y008747D01*
X017727Y008784D01*
X017727Y008968D02*
X017727Y009115D01*
X017727Y009042D02*
X017947Y009042D01*
X017947Y009189D02*
X017727Y009189D01*
X017727Y009336D01*
X017727Y009410D02*
X017727Y009520D01*
X017764Y009557D01*
X017837Y009557D01*
X017874Y009520D01*
X017874Y009410D01*
X017947Y009410D02*
X017727Y009410D01*
X017837Y009263D02*
X017837Y009189D01*
X017947Y009189D02*
X017947Y009336D01*
X018727Y009226D02*
X018764Y009262D01*
X018837Y009262D01*
X018874Y009226D01*
X018874Y009115D01*
X018947Y009115D02*
X018727Y009115D01*
X018727Y009226D01*
X018874Y009189D02*
X018947Y009262D01*
X018947Y009042D02*
X018947Y008968D01*
X018947Y009005D02*
X018727Y009005D01*
X018727Y008968D02*
X018727Y009042D01*
X018764Y008894D02*
X018727Y008857D01*
X018727Y008747D01*
X018947Y008747D01*
X018947Y008857D01*
X018911Y008894D01*
X018764Y008894D01*
X018651Y012084D02*
X018504Y012084D01*
X018467Y012121D01*
X018467Y012194D01*
X018504Y012231D01*
X018577Y012231D02*
X018577Y012158D01*
X018577Y012231D02*
X018651Y012231D01*
X018687Y012194D01*
X018687Y012121D01*
X018651Y012084D01*
X018687Y012305D02*
X018467Y012305D01*
X018687Y012452D01*
X018467Y012452D01*
X018467Y012526D02*
X018467Y012636D01*
X018504Y012673D01*
X018651Y012673D01*
X018687Y012636D01*
X018687Y012526D01*
X018467Y012526D01*
X017687Y012526D02*
X017687Y012636D01*
X017651Y012673D01*
X017504Y012673D01*
X017467Y012636D01*
X017467Y012526D01*
X017687Y012526D01*
X017651Y012452D02*
X017504Y012452D01*
X017467Y012415D01*
X017467Y012305D01*
X017687Y012305D01*
X017687Y012415D01*
X017651Y012452D01*
X017614Y012231D02*
X017467Y012231D01*
X017467Y012084D02*
X017614Y012084D01*
X017687Y012158D01*
X017614Y012231D01*
X016687Y012305D02*
X016687Y012452D01*
X016687Y012379D02*
X016467Y012379D01*
X016540Y012305D01*
X016577Y012526D02*
X016577Y012636D01*
X016614Y012673D01*
X016651Y012673D01*
X016687Y012636D01*
X016687Y012526D01*
X016467Y012526D01*
X016467Y012636D01*
X016504Y012673D01*
X016540Y012673D01*
X016577Y012636D01*
X015687Y012673D02*
X015540Y012673D01*
X015467Y012600D01*
X015540Y012526D01*
X015687Y012526D01*
X015687Y012452D02*
X015687Y012305D01*
X015687Y012379D02*
X015467Y012379D01*
X015540Y012305D01*
X015577Y012526D02*
X015577Y012673D01*
X014687Y012673D02*
X014540Y012673D01*
X014467Y012600D01*
X014540Y012526D01*
X014687Y012526D01*
X014687Y012452D02*
X014687Y012305D01*
X014540Y012452D01*
X014504Y012452D01*
X014467Y012415D01*
X014467Y012342D01*
X014504Y012305D01*
X014577Y012526D02*
X014577Y012673D01*
X013687Y012636D02*
X013687Y012526D01*
X013467Y012526D01*
X013467Y012636D01*
X013504Y012673D01*
X013540Y012673D01*
X013577Y012636D01*
X013577Y012526D01*
X013540Y012452D02*
X013504Y012452D01*
X013467Y012415D01*
X013467Y012342D01*
X013504Y012305D01*
X013540Y012452D02*
X013687Y012305D01*
X013687Y012452D01*
X013687Y012636D02*
X013651Y012673D01*
X013614Y012673D01*
X013577Y012636D01*
X012687Y012636D02*
X012651Y012673D01*
X012504Y012673D01*
X012467Y012636D01*
X012467Y012526D01*
X012687Y012526D01*
X012687Y012636D01*
X012687Y012452D02*
X012467Y012452D01*
X012467Y012305D02*
X012687Y012452D01*
X012687Y012305D02*
X012467Y012305D01*
X012504Y012231D02*
X012467Y012194D01*
X012467Y012121D01*
X012504Y012084D01*
X012651Y012084D01*
X012687Y012121D01*
X012687Y012194D01*
X012651Y012231D01*
X012577Y012231D01*
X012577Y012158D01*
X011687Y012158D02*
X011540Y012158D01*
X011540Y012195D01*
X011577Y012231D01*
X011540Y012268D01*
X011577Y012305D01*
X011687Y012305D01*
X011687Y012231D02*
X011577Y012231D01*
X011577Y012379D02*
X011651Y012379D01*
X011687Y012416D01*
X011687Y012489D01*
X011651Y012526D01*
X011577Y012526D01*
X011540Y012489D01*
X011540Y012416D01*
X011577Y012379D01*
X011540Y012600D02*
X011540Y012673D01*
X011504Y012637D02*
X011651Y012637D01*
X011687Y012673D01*
X011614Y012084D02*
X011467Y012084D01*
X011614Y012084D02*
X011687Y012010D01*
X011614Y011937D01*
X011467Y011937D01*
X011707Y015066D02*
X011928Y015066D01*
X011928Y015213D01*
X011928Y015287D02*
X011707Y015287D01*
X011928Y015434D01*
X011707Y015434D01*
X011707Y015213D02*
X011707Y015066D01*
X011818Y015066D02*
X011818Y015139D01*
X012707Y015066D02*
X012781Y015139D01*
X012707Y015213D01*
X012928Y015213D01*
X012891Y015287D02*
X012928Y015324D01*
X012928Y015397D01*
X012891Y015434D01*
X012854Y015434D01*
X012818Y015397D01*
X012818Y015324D01*
X012781Y015287D01*
X012744Y015287D01*
X012707Y015324D01*
X012707Y015397D01*
X012744Y015434D01*
X012781Y015508D02*
X012707Y015581D01*
X012928Y015581D01*
X012928Y015508D02*
X012928Y015655D01*
X013707Y015618D02*
X013707Y015545D01*
X013744Y015508D01*
X013744Y015434D02*
X013707Y015397D01*
X013707Y015324D01*
X013744Y015287D01*
X013781Y015287D01*
X013818Y015324D01*
X013818Y015397D01*
X013854Y015434D01*
X013891Y015434D01*
X013928Y015397D01*
X013928Y015324D01*
X013891Y015287D01*
X013928Y015213D02*
X013707Y015213D01*
X013781Y015139D01*
X013707Y015066D01*
X013928Y015066D01*
X013928Y015508D02*
X013781Y015655D01*
X013744Y015655D01*
X013707Y015618D01*
X013928Y015655D02*
X013928Y015508D01*
X014707Y015545D02*
X014707Y015618D01*
X014744Y015655D01*
X014781Y015655D01*
X014818Y015618D01*
X014854Y015655D01*
X014891Y015655D01*
X014928Y015618D01*
X014928Y015545D01*
X014891Y015508D01*
X014891Y015434D02*
X014928Y015397D01*
X014928Y015324D01*
X014891Y015287D01*
X014818Y015324D02*
X014781Y015287D01*
X014744Y015287D01*
X014707Y015324D01*
X014707Y015397D01*
X014744Y015434D01*
X014744Y015508D02*
X014707Y015545D01*
X014818Y015581D02*
X014818Y015618D01*
X014854Y015434D02*
X014891Y015434D01*
X014854Y015434D02*
X014818Y015397D01*
X014818Y015324D01*
X014707Y015213D02*
X014928Y015213D01*
X014928Y015066D02*
X014707Y015066D01*
X014781Y015139D01*
X014707Y015213D01*
X015707Y015176D02*
X015744Y015213D01*
X015818Y015213D01*
X015854Y015176D01*
X015854Y015066D01*
X015854Y015139D02*
X015928Y015213D01*
X015891Y015287D02*
X015928Y015324D01*
X015928Y015397D01*
X015891Y015434D01*
X015854Y015434D01*
X015818Y015397D01*
X015818Y015324D01*
X015781Y015287D01*
X015744Y015287D01*
X015707Y015324D01*
X015707Y015397D01*
X015744Y015434D01*
X015707Y015508D02*
X015707Y015655D01*
X015707Y015581D02*
X015928Y015581D01*
X015707Y015176D02*
X015707Y015066D01*
X015928Y015066D01*
X016707Y015103D02*
X016744Y015066D01*
X016781Y015066D01*
X016818Y015103D01*
X016818Y015176D01*
X016854Y015213D01*
X016891Y015213D01*
X016928Y015176D01*
X016928Y015103D01*
X016891Y015066D01*
X016707Y015103D02*
X016707Y015176D01*
X016744Y015213D01*
X016707Y015287D02*
X016928Y015287D01*
X016928Y015434D01*
X016928Y015508D02*
X016707Y015508D01*
X016707Y015618D01*
X016744Y015655D01*
X016818Y015655D01*
X016854Y015618D01*
X016854Y015508D01*
X017707Y015508D02*
X017707Y015655D01*
X017707Y015729D02*
X017707Y015839D01*
X017744Y015876D01*
X017818Y015876D01*
X017854Y015839D01*
X017854Y015729D01*
X017928Y015729D02*
X017707Y015729D01*
X017818Y015581D02*
X017818Y015508D01*
X017928Y015508D02*
X017928Y015655D01*
X017928Y015508D02*
X017707Y015508D01*
X017707Y015434D02*
X017707Y015287D01*
X017707Y015360D02*
X017928Y015360D01*
X017891Y015213D02*
X017928Y015176D01*
X017928Y015103D01*
X017891Y015066D01*
X017818Y015103D02*
X017818Y015176D01*
X017854Y015213D01*
X017891Y015213D01*
X017818Y015103D02*
X017781Y015066D01*
X017744Y015066D01*
X017707Y015103D01*
X017707Y015176D01*
X017744Y015213D01*
X018707Y015176D02*
X018707Y015066D01*
X018928Y015066D01*
X018928Y015176D01*
X018891Y015213D01*
X018744Y015213D01*
X018707Y015176D01*
X018707Y015287D02*
X018707Y015360D01*
X018707Y015324D02*
X018928Y015324D01*
X018928Y015360D02*
X018928Y015287D01*
X018928Y015434D02*
X018707Y015434D01*
X018707Y015544D01*
X018744Y015581D01*
X018818Y015581D01*
X018854Y015544D01*
X018854Y015434D01*
X018854Y015508D02*
X018928Y015581D01*
X018631Y018403D02*
X018484Y018403D01*
X018447Y018440D01*
X018447Y018513D01*
X018484Y018550D01*
X018558Y018550D02*
X018558Y018476D01*
X018558Y018550D02*
X018631Y018550D01*
X018668Y018513D01*
X018668Y018440D01*
X018631Y018403D01*
X018668Y018624D02*
X018447Y018624D01*
X018668Y018771D01*
X018447Y018771D01*
X018447Y018845D02*
X018447Y018955D01*
X018484Y018992D01*
X018631Y018992D01*
X018668Y018955D01*
X018668Y018845D01*
X018447Y018845D01*
X017668Y018845D02*
X017668Y018955D01*
X017631Y018992D01*
X017484Y018992D01*
X017447Y018955D01*
X017447Y018845D01*
X017668Y018845D01*
X017631Y018771D02*
X017484Y018771D01*
X017447Y018734D01*
X017447Y018624D01*
X017668Y018624D01*
X017668Y018734D01*
X017631Y018771D01*
X017594Y018550D02*
X017447Y018550D01*
X017447Y018403D02*
X017594Y018403D01*
X017668Y018476D01*
X017594Y018550D01*
X016668Y018624D02*
X016668Y018771D01*
X016668Y018697D02*
X016447Y018697D01*
X016521Y018624D01*
X016558Y018845D02*
X016558Y018955D01*
X016594Y018992D01*
X016631Y018992D01*
X016668Y018955D01*
X016668Y018845D01*
X016447Y018845D01*
X016447Y018955D01*
X016484Y018992D01*
X016521Y018992D01*
X016558Y018955D01*
X015668Y018992D02*
X015521Y018992D01*
X015447Y018918D01*
X015521Y018845D01*
X015668Y018845D01*
X015668Y018771D02*
X015668Y018624D01*
X015668Y018697D02*
X015447Y018697D01*
X015521Y018624D01*
X015558Y018845D02*
X015558Y018992D01*
X014668Y018992D02*
X014521Y018992D01*
X014447Y018918D01*
X014521Y018845D01*
X014668Y018845D01*
X014668Y018771D02*
X014668Y018624D01*
X014521Y018771D01*
X014484Y018771D01*
X014447Y018734D01*
X014447Y018661D01*
X014484Y018624D01*
X014558Y018845D02*
X014558Y018992D01*
X013668Y018955D02*
X013668Y018845D01*
X013447Y018845D01*
X013447Y018955D01*
X013484Y018992D01*
X013521Y018992D01*
X013558Y018955D01*
X013558Y018845D01*
X013521Y018771D02*
X013484Y018771D01*
X013447Y018734D01*
X013447Y018661D01*
X013484Y018624D01*
X013521Y018771D02*
X013668Y018624D01*
X013668Y018771D01*
X013668Y018955D02*
X013631Y018992D01*
X013594Y018992D01*
X013558Y018955D01*
X012668Y018955D02*
X012668Y018845D01*
X012447Y018845D01*
X012447Y018955D01*
X012484Y018992D01*
X012631Y018992D01*
X012668Y018955D01*
X012668Y018771D02*
X012447Y018771D01*
X012447Y018624D02*
X012668Y018771D01*
X012668Y018624D02*
X012447Y018624D01*
X012484Y018550D02*
X012447Y018513D01*
X012447Y018440D01*
X012484Y018403D01*
X012631Y018403D01*
X012668Y018440D01*
X012668Y018513D01*
X012631Y018550D01*
X012558Y018550D01*
X012558Y018476D01*
X011668Y018477D02*
X011521Y018477D01*
X011521Y018513D01*
X011558Y018550D01*
X011521Y018587D01*
X011558Y018624D01*
X011668Y018624D01*
X011668Y018550D02*
X011558Y018550D01*
X011558Y018698D02*
X011631Y018698D01*
X011668Y018734D01*
X011668Y018808D01*
X011631Y018845D01*
X011558Y018845D01*
X011521Y018808D01*
X011521Y018734D01*
X011558Y018698D01*
X011521Y018919D02*
X011521Y018992D01*
X011484Y018955D02*
X011631Y018955D01*
X011668Y018992D01*
X011594Y018403D02*
X011447Y018403D01*
X011594Y018403D02*
X011668Y018329D01*
X011594Y018256D01*
X011447Y018256D01*
X012707Y015066D02*
X012928Y015066D01*
X012900Y024369D02*
X012680Y024369D01*
X012753Y024443D01*
X012680Y024516D01*
X012900Y024516D01*
X012863Y024590D02*
X012900Y024627D01*
X012900Y024700D01*
X012863Y024737D01*
X012827Y024737D01*
X012790Y024700D01*
X012790Y024627D01*
X012753Y024590D01*
X012717Y024590D01*
X012680Y024627D01*
X012680Y024700D01*
X012717Y024737D01*
X012753Y024811D02*
X012680Y024885D01*
X012900Y024885D01*
X012900Y024958D02*
X012900Y024811D01*
X013680Y024848D02*
X013717Y024811D01*
X013680Y024848D02*
X013680Y024921D01*
X013717Y024958D01*
X013753Y024958D01*
X013900Y024811D01*
X013900Y024958D01*
X013863Y024737D02*
X013900Y024700D01*
X013900Y024627D01*
X013863Y024590D01*
X013790Y024627D02*
X013790Y024700D01*
X013827Y024737D01*
X013863Y024737D01*
X013790Y024627D02*
X013753Y024590D01*
X013717Y024590D01*
X013680Y024627D01*
X013680Y024700D01*
X013717Y024737D01*
X013680Y024516D02*
X013900Y024516D01*
X013900Y024369D02*
X013680Y024369D01*
X013753Y024443D01*
X013680Y024516D01*
X014680Y024516D02*
X014900Y024516D01*
X014863Y024590D02*
X014900Y024627D01*
X014900Y024700D01*
X014863Y024737D01*
X014827Y024737D01*
X014790Y024700D01*
X014790Y024627D01*
X014753Y024590D01*
X014717Y024590D01*
X014680Y024627D01*
X014680Y024700D01*
X014717Y024737D01*
X014717Y024811D02*
X014680Y024848D01*
X014680Y024921D01*
X014717Y024958D01*
X014753Y024958D01*
X014790Y024921D01*
X014827Y024958D01*
X014863Y024958D01*
X014900Y024921D01*
X014900Y024848D01*
X014863Y024811D01*
X014790Y024885D02*
X014790Y024921D01*
X014680Y024516D02*
X014753Y024443D01*
X014680Y024369D01*
X014900Y024369D01*
X015680Y024369D02*
X015680Y024479D01*
X015717Y024516D01*
X015790Y024516D01*
X015827Y024479D01*
X015827Y024369D01*
X015900Y024369D02*
X015680Y024369D01*
X015827Y024443D02*
X015900Y024516D01*
X015863Y024590D02*
X015900Y024627D01*
X015900Y024700D01*
X015863Y024737D01*
X015827Y024737D01*
X015790Y024700D01*
X015790Y024627D01*
X015753Y024590D01*
X015717Y024590D01*
X015680Y024627D01*
X015680Y024700D01*
X015717Y024737D01*
X015680Y024811D02*
X015680Y024958D01*
X015680Y024885D02*
X015900Y024885D01*
X016680Y024921D02*
X016717Y024958D01*
X016790Y024958D01*
X016827Y024921D01*
X016827Y024811D01*
X016900Y024811D02*
X016680Y024811D01*
X016680Y024921D01*
X016900Y024737D02*
X016900Y024590D01*
X016680Y024590D01*
X016717Y024516D02*
X016680Y024479D01*
X016680Y024406D01*
X016717Y024369D01*
X016753Y024369D01*
X016790Y024406D01*
X016790Y024479D01*
X016827Y024516D01*
X016863Y024516D01*
X016900Y024479D01*
X016900Y024406D01*
X016863Y024369D01*
X017680Y024406D02*
X017717Y024369D01*
X017753Y024369D01*
X017790Y024406D01*
X017790Y024479D01*
X017827Y024516D01*
X017863Y024516D01*
X017900Y024479D01*
X017900Y024406D01*
X017863Y024369D01*
X017680Y024406D02*
X017680Y024479D01*
X017717Y024516D01*
X017680Y024590D02*
X017680Y024737D01*
X017680Y024664D02*
X017900Y024664D01*
X017900Y024811D02*
X017680Y024811D01*
X017680Y024958D01*
X017680Y025032D02*
X017680Y025142D01*
X017717Y025179D01*
X017790Y025179D01*
X017827Y025142D01*
X017827Y025032D01*
X017900Y025032D02*
X017680Y025032D01*
X017790Y024885D02*
X017790Y024811D01*
X017900Y024811D02*
X017900Y024958D01*
X018680Y024848D02*
X018717Y024884D01*
X018790Y024884D01*
X018827Y024848D01*
X018827Y024737D01*
X018900Y024737D02*
X018680Y024737D01*
X018680Y024848D01*
X018827Y024811D02*
X018900Y024884D01*
X018900Y024664D02*
X018900Y024590D01*
X018900Y024627D02*
X018680Y024627D01*
X018680Y024590D02*
X018680Y024664D01*
X018717Y024516D02*
X018680Y024479D01*
X018680Y024369D01*
X018900Y024369D01*
X018900Y024479D01*
X018863Y024516D01*
X018717Y024516D01*
X018603Y027706D02*
X018640Y027743D01*
X018640Y027816D01*
X018603Y027853D01*
X018530Y027853D01*
X018530Y027780D01*
X018457Y027853D02*
X018420Y027816D01*
X018420Y027743D01*
X018457Y027706D01*
X018603Y027706D01*
X018640Y027927D02*
X018420Y027927D01*
X018640Y028074D01*
X018420Y028074D01*
X018420Y028148D02*
X018420Y028258D01*
X018457Y028295D01*
X018603Y028295D01*
X018640Y028258D01*
X018640Y028148D01*
X018420Y028148D01*
X017640Y028148D02*
X017640Y028258D01*
X017603Y028295D01*
X017457Y028295D01*
X017420Y028258D01*
X017420Y028148D01*
X017640Y028148D01*
X017603Y028074D02*
X017457Y028074D01*
X017420Y028037D01*
X017420Y027927D01*
X017640Y027927D01*
X017640Y028037D01*
X017603Y028074D01*
X017567Y027853D02*
X017420Y027853D01*
X017567Y027853D02*
X017640Y027780D01*
X017567Y027706D01*
X017420Y027706D01*
X016640Y027927D02*
X016640Y028074D01*
X016640Y028001D02*
X016420Y028001D01*
X016493Y027927D01*
X016530Y028148D02*
X016530Y028258D01*
X016567Y028295D01*
X016603Y028295D01*
X016640Y028258D01*
X016640Y028148D01*
X016420Y028148D01*
X016420Y028258D01*
X016457Y028295D01*
X016493Y028295D01*
X016530Y028258D01*
X015640Y028295D02*
X015493Y028295D01*
X015420Y028222D01*
X015493Y028148D01*
X015640Y028148D01*
X015640Y028074D02*
X015640Y027927D01*
X015640Y028001D02*
X015420Y028001D01*
X015493Y027927D01*
X015530Y028148D02*
X015530Y028295D01*
X014640Y028295D02*
X014493Y028295D01*
X014420Y028222D01*
X014493Y028148D01*
X014640Y028148D01*
X014640Y028074D02*
X014640Y027927D01*
X014493Y028074D01*
X014457Y028074D01*
X014420Y028037D01*
X014420Y027964D01*
X014457Y027927D01*
X014530Y028148D02*
X014530Y028295D01*
X013640Y028258D02*
X013640Y028148D01*
X013420Y028148D01*
X013420Y028258D01*
X013457Y028295D01*
X013493Y028295D01*
X013530Y028258D01*
X013530Y028148D01*
X013493Y028074D02*
X013457Y028074D01*
X013420Y028037D01*
X013420Y027964D01*
X013457Y027927D01*
X013493Y028074D02*
X013640Y027927D01*
X013640Y028074D01*
X013640Y028258D02*
X013603Y028295D01*
X013567Y028295D01*
X013530Y028258D01*
X012640Y028258D02*
X012603Y028295D01*
X012457Y028295D01*
X012420Y028258D01*
X012420Y028148D01*
X012640Y028148D01*
X012640Y028258D01*
X012640Y028074D02*
X012420Y028074D01*
X012420Y027927D02*
X012640Y028074D01*
X012640Y027927D02*
X012420Y027927D01*
X012457Y027853D02*
X012420Y027816D01*
X012420Y027743D01*
X012457Y027706D01*
X012603Y027706D01*
X012640Y027743D01*
X012640Y027816D01*
X012603Y027853D01*
X012530Y027853D01*
X012530Y027780D01*
X011640Y027780D02*
X011493Y027780D01*
X011493Y027817D01*
X011530Y027853D01*
X011493Y027890D01*
X011530Y027927D01*
X011640Y027927D01*
X011640Y027853D02*
X011530Y027853D01*
X011530Y028001D02*
X011493Y028038D01*
X011493Y028111D01*
X011530Y028148D01*
X011603Y028148D01*
X011640Y028111D01*
X011640Y028038D01*
X011603Y028001D01*
X011530Y028001D01*
X011493Y028222D02*
X011493Y028295D01*
X011457Y028259D02*
X011603Y028259D01*
X011640Y028295D01*
X011567Y027706D02*
X011420Y027706D01*
X011567Y027706D02*
X011640Y027632D01*
X011567Y027559D01*
X011420Y027559D01*
X011680Y024737D02*
X011900Y024737D01*
X011680Y024590D01*
X011900Y024590D01*
X011900Y024516D02*
X011900Y024369D01*
X011680Y024369D01*
X011680Y024516D01*
X011790Y024443D02*
X011790Y024369D01*
D22*
X003755Y020784D02*
X003755Y020734D01*
X003730Y020709D01*
X003680Y020709D02*
X003655Y020759D01*
X003655Y020784D01*
X003680Y020809D01*
X003730Y020809D01*
X003755Y020784D01*
X003680Y020709D02*
X003605Y020709D01*
X003605Y020809D01*
X003630Y020662D02*
X003680Y020662D01*
X003705Y020637D01*
X003705Y020562D01*
X003755Y020562D02*
X003605Y020562D01*
X003605Y020637D01*
X003630Y020662D01*
X003605Y020514D02*
X003605Y020464D01*
X003605Y020489D02*
X003730Y020489D01*
X003755Y020464D01*
X003755Y020439D01*
X003730Y020414D01*
X003755Y014275D02*
X003755Y014175D01*
X003655Y014275D01*
X003630Y014275D01*
X003605Y014250D01*
X003605Y014200D01*
X003630Y014175D01*
X003630Y014127D02*
X003680Y014127D01*
X003705Y014102D01*
X003705Y014027D01*
X003755Y014027D02*
X003605Y014027D01*
X003605Y014102D01*
X003630Y014127D01*
X003605Y013980D02*
X003605Y013930D01*
X003605Y013955D02*
X003730Y013955D01*
X003755Y013930D01*
X003755Y013905D01*
X003730Y013880D01*
X003630Y007881D02*
X003730Y007781D01*
X003755Y007781D01*
X003705Y007709D02*
X003705Y007634D01*
X003755Y007634D02*
X003605Y007634D01*
X003605Y007709D01*
X003630Y007734D01*
X003680Y007734D01*
X003705Y007709D01*
X003605Y007781D02*
X003605Y007881D01*
X003630Y007881D01*
X003605Y007586D02*
X003605Y007536D01*
X003605Y007561D02*
X003730Y007561D01*
X003755Y007536D01*
X003755Y007511D01*
X003730Y007486D01*
D23*
X008974Y023200D03*
X009446Y023200D03*
M02*
