G75*
G70*
%OFA0B0*%
%FSLAX24Y24*%
%IPPOS*%
%LPD*%
%AMOC8*
5,1,8,0,0,1.08239X$1,22.5*
%
%ADD10C,0.0160*%
%ADD11C,0.0594*%
%ADD12C,0.0000*%
%ADD13R,0.0472X0.0472*%
%ADD14R,0.0630X0.1378*%
%ADD15R,0.0591X0.0512*%
%ADD16C,0.0700*%
%ADD17C,0.0554*%
%ADD18C,0.0600*%
%ADD19R,0.1378X0.0630*%
%ADD20C,0.1890*%
%ADD21C,0.0560*%
%ADD22R,0.0512X0.0591*%
%ADD23R,0.0800X0.0800*%
%ADD24C,0.0800*%
%ADD25C,0.0860*%
%ADD26C,0.0740*%
%ADD27R,0.0433X0.0295*%
%ADD28OC8,0.0700*%
%ADD29C,0.0660*%
%ADD30OC8,0.0600*%
%ADD31C,0.0080*%
%ADD32R,0.0250X0.0500*%
%ADD33C,0.0700*%
%ADD34C,0.0500*%
%ADD35C,0.0120*%
%ADD36C,0.0600*%
%ADD37C,0.0320*%
%ADD38C,0.0240*%
%ADD39OC8,0.0591*%
%ADD40OC8,0.0240*%
%ADD41C,0.0240*%
%ADD42R,0.0356X0.0356*%
%ADD43OC8,0.0356*%
%ADD44C,0.0660*%
%ADD45C,0.0400*%
D10*
X003160Y001147D02*
X003947Y000359D01*
X041743Y000359D01*
X042530Y001147D01*
X042530Y031068D01*
X041743Y031855D01*
X003947Y031855D01*
X003160Y031068D01*
X003160Y001147D01*
X003480Y001279D02*
X003480Y030935D01*
X004080Y031535D01*
X005327Y031535D01*
X005300Y031508D01*
X005300Y031210D01*
X005340Y031170D01*
X005340Y029902D01*
X005233Y029946D01*
X005018Y029946D01*
X004820Y029864D01*
X004668Y029712D01*
X004586Y029513D01*
X004586Y029299D01*
X004668Y029100D01*
X004820Y028948D01*
X004922Y028906D01*
X004820Y028864D01*
X004668Y028712D01*
X004586Y028513D01*
X004586Y028299D01*
X004668Y028100D01*
X004820Y027948D01*
X005018Y027866D01*
X005233Y027866D01*
X005432Y027948D01*
X005570Y028086D01*
X005682Y028086D01*
X005820Y027948D01*
X006018Y027866D01*
X006233Y027866D01*
X006432Y027948D01*
X006570Y028086D01*
X006981Y028086D01*
X007570Y027497D01*
X007570Y027186D01*
X007886Y026869D01*
X008334Y026869D01*
X008650Y027186D01*
X008650Y027633D01*
X008374Y027909D01*
X008610Y028146D01*
X008886Y027869D01*
X009334Y027869D01*
X009650Y028186D01*
X009650Y028289D01*
X010724Y028289D01*
X010841Y028338D01*
X011177Y028674D01*
X011222Y028566D01*
X011367Y028421D01*
X011557Y028342D01*
X011763Y028342D01*
X011953Y028421D01*
X012098Y028566D01*
X012177Y028756D01*
X012177Y028962D01*
X012098Y029152D01*
X011953Y029298D01*
X011845Y029342D01*
X012293Y029789D01*
X018527Y029789D01*
X021139Y027178D01*
X021229Y027088D01*
X021346Y027039D01*
X023724Y027039D01*
X023841Y027088D01*
X024290Y027537D01*
X024393Y027433D01*
X024633Y027433D01*
X025340Y026727D01*
X025340Y022499D01*
X025244Y022499D01*
X025220Y022509D01*
X025100Y022509D01*
X025076Y022499D01*
X025020Y022499D01*
X025020Y022758D01*
X024809Y022969D01*
X024753Y022969D01*
X023520Y024202D01*
X023520Y024258D01*
X023309Y024469D01*
X023011Y024469D01*
X022882Y024340D01*
X022181Y025040D01*
X022091Y025130D01*
X021974Y025179D01*
X019781Y025179D01*
X019633Y025327D01*
X019466Y025327D01*
X019404Y025389D01*
X019294Y025435D01*
X019195Y025435D01*
X019195Y025439D01*
X019166Y025509D01*
X019195Y025580D01*
X019195Y026187D01*
X019159Y026275D01*
X019091Y026343D01*
X019003Y026379D01*
X018317Y026379D01*
X018229Y026343D01*
X018225Y026339D01*
X018225Y026757D01*
X018203Y026811D01*
X018235Y026843D01*
X018235Y026812D01*
X018244Y026779D01*
X018261Y026749D01*
X018285Y026725D01*
X018315Y026708D01*
X018348Y026699D01*
X018612Y026699D01*
X018612Y027037D01*
X018708Y027037D01*
X018708Y026699D01*
X018972Y026699D01*
X019005Y026708D01*
X019035Y026725D01*
X019059Y026749D01*
X019076Y026779D01*
X019085Y026812D01*
X019085Y027037D01*
X018708Y027037D01*
X018708Y027133D01*
X019085Y027133D01*
X019085Y027358D01*
X019082Y027370D01*
X019091Y027374D01*
X019159Y027441D01*
X019195Y027530D01*
X019195Y028137D01*
X019159Y028225D01*
X019091Y028293D01*
X019003Y028329D01*
X018588Y028329D01*
X018454Y028464D01*
X018344Y028509D01*
X018041Y028509D01*
X018098Y028566D01*
X018177Y028756D01*
X018177Y028962D01*
X018098Y029152D01*
X017953Y029298D01*
X017763Y029376D01*
X017557Y029376D01*
X017367Y029298D01*
X017222Y029152D01*
X017160Y029003D01*
X017098Y029152D01*
X016953Y029298D01*
X016763Y029376D01*
X016557Y029376D01*
X016447Y029331D01*
X016309Y029469D01*
X016011Y029469D01*
X015873Y029331D01*
X015763Y029376D01*
X015557Y029376D01*
X015367Y029298D01*
X015222Y029152D01*
X015181Y029053D01*
X015102Y029143D01*
X015098Y029152D01*
X015067Y029183D01*
X014985Y029278D01*
X014960Y029291D01*
X014953Y029298D01*
X014912Y029314D01*
X014799Y029371D01*
X014772Y029373D01*
X014763Y029376D01*
X014719Y029376D01*
X014593Y029385D01*
X014567Y029376D01*
X014557Y029376D01*
X014516Y029359D01*
X014397Y029319D01*
X014376Y029301D01*
X014367Y029298D01*
X014336Y029266D01*
X014241Y029184D01*
X014228Y029159D01*
X014222Y029152D01*
X014205Y029111D01*
X014156Y029013D01*
X014098Y029152D01*
X013953Y029298D01*
X013763Y029376D01*
X013557Y029376D01*
X013367Y029298D01*
X013222Y029152D01*
X013143Y028962D01*
X013143Y028756D01*
X013222Y028566D01*
X013367Y028421D01*
X013557Y028342D01*
X013763Y028342D01*
X013953Y028421D01*
X014098Y028566D01*
X014160Y028715D01*
X014200Y028596D01*
X014218Y028575D01*
X014222Y028566D01*
X014253Y028535D01*
X015212Y027432D01*
X015219Y027415D01*
X015279Y027354D01*
X015335Y027290D01*
X015352Y027282D01*
X015390Y027244D01*
X015390Y025929D01*
X014373Y025929D01*
X014392Y025940D01*
X014416Y025964D01*
X014433Y025994D01*
X014442Y026027D01*
X014442Y026282D01*
X013700Y026282D01*
X013700Y026437D01*
X013546Y026437D01*
X013546Y026804D01*
X012917Y026804D01*
X012884Y026795D01*
X012854Y026778D01*
X012830Y026754D01*
X012813Y026724D01*
X012804Y026691D01*
X012804Y026437D01*
X013546Y026437D01*
X013546Y026282D01*
X012804Y026282D01*
X012804Y026027D01*
X012813Y025994D01*
X012830Y025964D01*
X012854Y025940D01*
X012873Y025929D01*
X012398Y025929D01*
X012426Y025996D01*
X012426Y026722D01*
X012389Y026810D01*
X012322Y026878D01*
X012234Y026914D01*
X011340Y026914D01*
X010455Y027800D01*
X010263Y027879D01*
X010057Y027879D01*
X009865Y027800D01*
X009719Y027654D01*
X009640Y027463D01*
X009640Y028176D01*
X009650Y028199D02*
X014545Y028199D01*
X014440Y028320D02*
X014440Y026699D01*
X014442Y026691D02*
X014433Y026724D01*
X014416Y026754D01*
X014392Y026778D01*
X014362Y026795D01*
X014329Y026804D01*
X013700Y026804D01*
X013700Y026437D01*
X014442Y026437D01*
X014442Y026691D01*
X014411Y026759D02*
X015390Y026759D01*
X015390Y026519D02*
X014442Y026519D01*
X014440Y026437D02*
X014440Y026282D01*
X014442Y026279D02*
X015390Y026279D01*
X015390Y026039D02*
X014442Y026039D01*
X014440Y026020D02*
X014440Y025929D01*
X014680Y025929D02*
X014680Y028044D01*
X014754Y027959D02*
X009424Y027959D01*
X009400Y027936D02*
X009400Y027727D01*
X009408Y027719D02*
X009785Y027719D01*
X009880Y027806D02*
X009880Y028289D01*
X010120Y028289D02*
X010120Y027879D01*
X010360Y027839D02*
X010360Y028289D01*
X010600Y028289D02*
X010600Y027655D01*
X010535Y027719D02*
X014962Y027719D01*
X014920Y027768D02*
X014920Y025929D01*
X015160Y025929D02*
X015160Y027492D01*
X015171Y027479D02*
X010775Y027479D01*
X010840Y027415D02*
X010840Y028337D01*
X010943Y028439D02*
X011349Y028439D01*
X011320Y028468D02*
X011320Y026935D01*
X011255Y026999D02*
X015390Y026999D01*
X015390Y027239D02*
X011015Y027239D01*
X011080Y027175D02*
X011080Y028577D01*
X010660Y028609D02*
X012160Y030109D01*
X018660Y030109D01*
X021410Y027359D01*
X023660Y027359D01*
X024160Y027859D01*
X024160Y029359D01*
X024410Y029609D01*
X025660Y029609D01*
X026160Y029109D01*
X026160Y027609D01*
X026660Y027109D01*
X026910Y027109D01*
X027660Y027359D02*
X028160Y027859D01*
X028160Y028609D01*
X028410Y028859D01*
X028617Y028973D01*
X029160Y028609D02*
X029410Y028859D01*
X029617Y028973D01*
X029160Y028609D02*
X029160Y027859D01*
X028910Y027609D01*
X028910Y019609D01*
X032910Y015609D01*
X033739Y015609D01*
X033739Y016109D02*
X032910Y016109D01*
X029160Y019859D01*
X029160Y026859D01*
X030160Y027859D01*
X030160Y028609D01*
X030410Y028859D01*
X030617Y028973D01*
X031160Y028609D02*
X031410Y028859D01*
X031617Y028973D01*
X031160Y028609D02*
X031160Y027859D01*
X029410Y026109D01*
X029410Y020109D01*
X032910Y016609D01*
X033739Y016609D01*
X034160Y016859D02*
X034160Y017359D01*
X035660Y018859D01*
X037910Y018859D01*
X038910Y019859D01*
X038910Y019359D02*
X038160Y018609D01*
X037910Y018609D01*
X036410Y017109D01*
X034581Y017109D01*
X034160Y016859D02*
X034410Y016609D01*
X034581Y016609D01*
X034581Y016109D02*
X036410Y016109D01*
X038910Y018609D01*
X039660Y018609D01*
X040160Y018109D01*
X040160Y017891D01*
X040660Y017359D02*
X041160Y017859D01*
X041160Y017891D01*
X040660Y017359D02*
X039160Y017359D01*
X038910Y016859D02*
X040160Y016859D01*
X040160Y016891D01*
X040410Y016359D02*
X038910Y016359D01*
X038660Y016109D01*
X038660Y015909D01*
X038160Y016109D02*
X038910Y016859D01*
X038410Y016859D02*
X037660Y016109D01*
X037660Y015909D01*
X038160Y016109D02*
X038160Y012609D01*
X037660Y012109D01*
X034581Y012109D01*
X035410Y012609D02*
X028660Y019359D01*
X028660Y022109D01*
X028410Y022359D01*
X028410Y025109D01*
X029910Y023609D02*
X031410Y025109D01*
X032739Y025109D01*
X032739Y024609D02*
X031660Y024609D01*
X029910Y022859D01*
X031660Y023109D02*
X031660Y018359D01*
X032910Y017109D01*
X033160Y017109D01*
X033739Y017109D02*
X033910Y017109D01*
X033910Y017609D01*
X035660Y019359D01*
X035660Y024109D01*
X034410Y025359D01*
X034410Y026359D01*
X033160Y027609D01*
X033160Y028359D01*
X032660Y028859D01*
X032617Y028973D01*
X032680Y029929D02*
X032680Y030539D01*
X032440Y030539D02*
X032440Y029929D01*
X032200Y029929D02*
X032200Y030539D01*
X031960Y030539D02*
X031960Y029929D01*
X031720Y029929D02*
X031720Y030539D01*
X031480Y030539D02*
X031480Y029929D01*
X031240Y029929D02*
X031240Y030539D01*
X031000Y030539D02*
X031000Y029929D01*
X030760Y029929D02*
X030760Y030539D01*
X030520Y030539D02*
X030520Y029929D01*
X030280Y029929D02*
X030280Y030539D01*
X030040Y030539D02*
X030040Y029929D01*
X029800Y029929D02*
X029800Y030539D01*
X029560Y030539D02*
X029560Y029929D01*
X029320Y029929D02*
X029320Y030539D01*
X029080Y030539D02*
X029080Y029929D01*
X028840Y029929D02*
X028840Y030539D01*
X028600Y030539D02*
X028600Y029929D01*
X028360Y029929D02*
X028360Y030539D01*
X028120Y030539D02*
X028120Y029929D01*
X027880Y029929D02*
X027880Y030539D01*
X027640Y030539D02*
X027640Y029929D01*
X027400Y029929D02*
X027400Y030539D01*
X027160Y030539D02*
X027160Y029812D01*
X027227Y029879D02*
X025843Y029879D01*
X025841Y029880D02*
X025724Y029929D01*
X024346Y029929D01*
X024229Y029880D01*
X024139Y029790D01*
X023889Y029540D01*
X023867Y029487D01*
X023840Y029513D01*
X023393Y029513D01*
X023117Y029237D01*
X022840Y029513D01*
X022840Y030324D01*
X022948Y030324D02*
X023036Y030360D01*
X023104Y030428D01*
X023141Y030516D01*
X023141Y030539D01*
X023721Y030539D01*
X023761Y030499D01*
X024059Y030499D01*
X024099Y030539D01*
X034429Y030539D01*
X034429Y030316D01*
X034466Y030228D01*
X034533Y030160D01*
X034622Y030124D01*
X035229Y030124D01*
X035260Y030137D01*
X035291Y030124D01*
X035295Y030124D01*
X035295Y029415D01*
X035117Y029237D01*
X034840Y029513D01*
X034840Y030124D01*
X035080Y030124D02*
X035080Y029274D01*
X034955Y029399D02*
X035279Y029399D01*
X035295Y029639D02*
X034083Y029639D01*
X034120Y029602D02*
X034120Y030539D01*
X033880Y030539D02*
X033880Y029842D01*
X033843Y029879D02*
X035295Y029879D01*
X035295Y030119D02*
X022549Y030119D01*
X022600Y029972D02*
X022600Y030324D01*
X022478Y030324D02*
X022948Y030324D01*
X023033Y030359D02*
X034429Y030359D01*
X034360Y030539D02*
X034360Y029480D01*
X034393Y029513D02*
X034301Y029421D01*
X033931Y029790D01*
X033841Y029880D01*
X033724Y029929D01*
X027346Y029929D01*
X027229Y029880D01*
X026979Y029630D01*
X026889Y029540D01*
X026867Y029487D01*
X026840Y029513D01*
X026393Y029513D01*
X026301Y029421D01*
X025931Y029790D01*
X025931Y029790D01*
X025841Y029880D01*
X025720Y029929D02*
X025720Y030539D01*
X025960Y030539D02*
X025960Y029762D01*
X026083Y029639D02*
X026987Y029639D01*
X026920Y029572D02*
X026920Y030539D01*
X026680Y030539D02*
X026680Y029513D01*
X026440Y029513D02*
X026440Y030539D01*
X026200Y030539D02*
X026200Y029522D01*
X025480Y029929D02*
X025480Y030539D01*
X025240Y030539D02*
X025240Y029929D01*
X025000Y029929D02*
X025000Y030539D01*
X024760Y030539D02*
X024760Y029929D01*
X024520Y029929D02*
X024520Y030539D01*
X024280Y030539D02*
X024280Y029902D01*
X024227Y029879D02*
X022632Y029879D01*
X022715Y029639D02*
X023987Y029639D01*
X024040Y029692D02*
X024040Y030499D01*
X023800Y030499D02*
X023800Y029513D01*
X023560Y029513D02*
X023560Y030539D01*
X023320Y030539D02*
X023320Y029440D01*
X023279Y029399D02*
X022955Y029399D01*
X022840Y029513D02*
X022759Y029513D01*
X022478Y030324D01*
X022410Y030859D02*
X022645Y030859D01*
X023910Y030859D01*
X034910Y030859D01*
X034925Y030659D01*
X034840Y031194D02*
X034840Y031535D01*
X034600Y031535D02*
X034600Y031185D01*
X034585Y031179D02*
X024099Y031179D01*
X024059Y031219D01*
X023761Y031219D01*
X023721Y031179D01*
X023141Y031179D01*
X023141Y031202D01*
X023104Y031290D01*
X023036Y031358D01*
X022948Y031394D01*
X022730Y031394D01*
X022730Y031423D01*
X022683Y031535D01*
X041610Y031535D01*
X042210Y030935D01*
X042210Y023673D01*
X042210Y023674D01*
X042210Y023719D01*
X042204Y023733D01*
X042203Y023748D01*
X042181Y023788D01*
X042164Y023829D01*
X042153Y023840D01*
X042146Y023854D01*
X042112Y023882D01*
X042080Y023914D01*
X042066Y023919D01*
X041562Y024332D01*
X041530Y024364D01*
X041516Y024369D01*
X041504Y024379D01*
X041461Y024392D01*
X041420Y024409D01*
X041404Y024409D01*
X041390Y024414D01*
X041345Y024409D01*
X039601Y024409D01*
X039628Y024436D01*
X039628Y024691D01*
X039833Y024691D01*
X040078Y024936D01*
X040078Y025282D01*
X039833Y025527D01*
X039487Y025527D01*
X039369Y025409D01*
X038985Y025409D01*
X038934Y025460D01*
X038846Y025497D01*
X038317Y025497D01*
X038229Y025460D01*
X038161Y025393D01*
X038160Y025390D01*
X038159Y025393D01*
X038091Y025460D01*
X038003Y025497D01*
X037474Y025497D01*
X037386Y025460D01*
X037335Y025409D01*
X036901Y025409D01*
X036783Y025527D01*
X036437Y025527D01*
X036192Y025282D01*
X036192Y025030D01*
X035480Y025742D01*
X035480Y027433D01*
X035840Y027433D01*
X036117Y027710D01*
X036393Y027433D01*
X036840Y027433D01*
X037117Y027710D01*
X037393Y027433D01*
X037840Y027433D01*
X038117Y027710D01*
X038393Y027433D01*
X038840Y027433D01*
X039117Y027710D01*
X039393Y027433D01*
X039840Y027433D01*
X040117Y027710D01*
X040393Y027433D01*
X040840Y027433D01*
X040840Y024409D01*
X041080Y024409D02*
X041080Y027673D01*
X041126Y027719D02*
X042210Y027719D01*
X042210Y027479D02*
X040886Y027479D01*
X040840Y027433D02*
X041157Y027750D01*
X041157Y028197D01*
X040840Y028513D01*
X040840Y028589D01*
X040795Y028543D02*
X041047Y028795D01*
X041047Y028953D01*
X040637Y028953D01*
X040637Y028993D01*
X041047Y028993D01*
X041047Y029151D01*
X040795Y029403D01*
X040637Y029403D01*
X040637Y028993D01*
X040597Y028993D01*
X040597Y028953D01*
X040637Y028953D01*
X040637Y028543D01*
X040795Y028543D01*
X040840Y028513D02*
X040393Y028513D01*
X040117Y028237D01*
X039880Y028473D01*
X040157Y028750D01*
X040157Y029197D01*
X039840Y029513D01*
X039393Y029513D01*
X039117Y029237D01*
X038840Y029513D01*
X038393Y029513D01*
X038117Y029237D01*
X037840Y029513D01*
X037393Y029513D01*
X037117Y029237D01*
X036840Y029513D01*
X036393Y029513D01*
X036117Y029237D01*
X035895Y029459D01*
X035895Y030124D01*
X035898Y030124D01*
X035986Y030160D01*
X036054Y030228D01*
X036091Y030316D01*
X036091Y031002D01*
X036054Y031090D01*
X035986Y031158D01*
X035898Y031194D01*
X035291Y031194D01*
X035260Y031182D01*
X035229Y031194D01*
X034622Y031194D01*
X034585Y031179D01*
X034360Y031179D02*
X034360Y031535D01*
X034120Y031535D02*
X034120Y031179D01*
X033880Y031179D02*
X033880Y031535D01*
X033640Y031535D02*
X033640Y031179D01*
X033400Y031179D02*
X033400Y031535D01*
X033160Y031535D02*
X033160Y031179D01*
X032920Y031179D02*
X032920Y031535D01*
X032680Y031535D02*
X032680Y031179D01*
X032440Y031179D02*
X032440Y031535D01*
X032200Y031535D02*
X032200Y031179D01*
X031960Y031179D02*
X031960Y031535D01*
X031720Y031535D02*
X031720Y031179D01*
X031480Y031179D02*
X031480Y031535D01*
X031240Y031535D02*
X031240Y031179D01*
X031000Y031179D02*
X031000Y031535D01*
X030760Y031535D02*
X030760Y031179D01*
X030520Y031179D02*
X030520Y031535D01*
X030280Y031535D02*
X030280Y031179D01*
X030040Y031179D02*
X030040Y031535D01*
X029800Y031535D02*
X029800Y031179D01*
X029560Y031179D02*
X029560Y031535D01*
X029320Y031535D02*
X029320Y031179D01*
X029080Y031179D02*
X029080Y031535D01*
X028840Y031535D02*
X028840Y031179D01*
X028600Y031179D02*
X028600Y031535D01*
X028360Y031535D02*
X028360Y031179D01*
X028120Y031179D02*
X028120Y031535D01*
X027880Y031535D02*
X027880Y031179D01*
X027640Y031179D02*
X027640Y031535D01*
X027400Y031535D02*
X027400Y031179D01*
X027160Y031179D02*
X027160Y031535D01*
X026920Y031535D02*
X026920Y031179D01*
X026680Y031179D02*
X026680Y031535D01*
X026440Y031535D02*
X026440Y031179D01*
X026200Y031179D02*
X026200Y031535D01*
X025960Y031535D02*
X025960Y031179D01*
X025720Y031179D02*
X025720Y031535D01*
X025480Y031535D02*
X025480Y031179D01*
X025240Y031179D02*
X025240Y031535D01*
X025000Y031535D02*
X025000Y031179D01*
X024760Y031179D02*
X024760Y031535D01*
X024520Y031535D02*
X024520Y031179D01*
X024280Y031179D02*
X024280Y031535D01*
X024040Y031535D02*
X024040Y031219D01*
X023800Y031219D02*
X023800Y031535D01*
X023560Y031535D02*
X023560Y031179D01*
X023320Y031179D02*
X023320Y031535D01*
X023080Y031535D02*
X023080Y031314D01*
X023075Y031319D02*
X041826Y031319D01*
X041800Y031345D02*
X041800Y024137D01*
X041822Y024119D02*
X042210Y024119D01*
X042210Y023879D02*
X042115Y023879D01*
X042040Y023940D02*
X042040Y031105D01*
X042066Y031079D02*
X036059Y031079D01*
X036040Y031104D02*
X036040Y031535D01*
X036280Y031535D02*
X036280Y029400D01*
X036279Y029399D02*
X035955Y029399D01*
X036040Y029314D02*
X036040Y030214D01*
X036091Y030359D02*
X042210Y030359D01*
X042210Y030119D02*
X035895Y030119D01*
X035895Y029879D02*
X042210Y029879D01*
X042210Y029639D02*
X035895Y029639D01*
X036520Y029513D02*
X036520Y031535D01*
X036760Y031535D02*
X036760Y029513D01*
X036955Y029399D02*
X037279Y029399D01*
X037240Y029360D02*
X037240Y031535D01*
X037480Y031535D02*
X037480Y029513D01*
X037720Y029513D02*
X037720Y031535D01*
X037960Y031535D02*
X037960Y029394D01*
X037955Y029399D02*
X038279Y029399D01*
X038200Y029320D02*
X038200Y031535D01*
X038440Y031535D02*
X038440Y029513D01*
X038680Y029513D02*
X038680Y031535D01*
X038920Y031535D02*
X038920Y029434D01*
X038955Y029399D02*
X039279Y029399D01*
X039400Y029513D02*
X039400Y031535D01*
X039160Y031535D02*
X039160Y029280D01*
X039640Y029513D02*
X039640Y031535D01*
X039880Y031535D02*
X039880Y029474D01*
X039955Y029399D02*
X040434Y029399D01*
X040439Y029403D02*
X040187Y029151D01*
X040187Y028993D01*
X040597Y028993D01*
X040597Y029403D01*
X040439Y029403D01*
X040360Y029325D02*
X040360Y031535D01*
X040600Y031535D02*
X040600Y028993D01*
X040600Y028953D02*
X040600Y028513D01*
X040597Y028543D02*
X040597Y028953D01*
X040187Y028953D01*
X040187Y028795D01*
X040439Y028543D01*
X040597Y028543D01*
X040597Y028679D02*
X040637Y028679D01*
X040637Y028919D02*
X040597Y028919D01*
X040360Y028953D02*
X040360Y028993D01*
X040187Y028919D02*
X040157Y028919D01*
X040120Y028713D02*
X040120Y028240D01*
X040319Y028439D02*
X039915Y028439D01*
X040086Y028679D02*
X040303Y028679D01*
X040360Y028622D02*
X040360Y028480D01*
X040915Y028439D02*
X042210Y028439D01*
X042210Y028199D02*
X041155Y028199D01*
X041080Y028274D02*
X041080Y031535D01*
X040840Y031535D02*
X040840Y029358D01*
X040799Y029399D02*
X042210Y029399D01*
X042210Y029159D02*
X041039Y029159D01*
X041047Y028919D02*
X042210Y028919D01*
X042210Y028679D02*
X040931Y028679D01*
X040840Y028953D02*
X040840Y028993D01*
X040637Y029159D02*
X040597Y029159D01*
X040597Y029399D02*
X040637Y029399D01*
X040194Y029159D02*
X040157Y029159D01*
X040120Y029234D02*
X040120Y031535D01*
X041320Y031535D02*
X041320Y024409D01*
X041534Y024359D02*
X042210Y024359D01*
X042210Y024599D02*
X039628Y024599D01*
X039640Y024691D02*
X039640Y024409D01*
X039880Y024409D02*
X039880Y024738D01*
X039981Y024839D02*
X042210Y024839D01*
X042210Y025079D02*
X040078Y025079D01*
X040041Y025319D02*
X042210Y025319D01*
X042210Y025559D02*
X035663Y025559D01*
X035560Y025662D02*
X035560Y027433D01*
X035480Y027239D02*
X042210Y027239D01*
X042210Y026999D02*
X035480Y026999D01*
X035480Y026759D02*
X042210Y026759D01*
X042210Y026519D02*
X035480Y026519D01*
X035480Y026279D02*
X042210Y026279D01*
X042210Y026039D02*
X035480Y026039D01*
X035480Y025799D02*
X042210Y025799D01*
X040600Y024409D02*
X040600Y027433D01*
X040360Y027466D02*
X040360Y024409D01*
X040120Y024409D02*
X040120Y027706D01*
X040347Y027479D02*
X039886Y027479D01*
X039880Y027473D02*
X039880Y025480D01*
X039640Y025527D02*
X039640Y027433D01*
X039400Y027433D02*
X039400Y025440D01*
X039160Y025409D02*
X039160Y027666D01*
X039347Y027479D02*
X038886Y027479D01*
X038920Y027513D02*
X038920Y025466D01*
X038680Y025497D02*
X038680Y027433D01*
X038440Y027433D02*
X038440Y025497D01*
X038200Y025432D02*
X038200Y027626D01*
X038347Y027479D02*
X037886Y027479D01*
X037960Y027553D02*
X037960Y025497D01*
X037720Y025497D02*
X037720Y027433D01*
X037480Y027433D02*
X037480Y025497D01*
X037240Y025409D02*
X037240Y027586D01*
X037347Y027479D02*
X036886Y027479D01*
X036760Y027433D02*
X036760Y025527D01*
X036520Y025527D02*
X036520Y027433D01*
X036347Y027479D02*
X035886Y027479D01*
X035800Y027433D02*
X035800Y025422D01*
X035903Y025319D02*
X036229Y025319D01*
X036280Y025370D02*
X036280Y027546D01*
X036040Y027633D02*
X036040Y025182D01*
X036143Y025079D02*
X036192Y025079D01*
X037000Y025409D02*
X037000Y027593D01*
X035160Y028359D02*
X034660Y028859D01*
X034617Y028973D01*
X034160Y029109D02*
X033660Y029609D01*
X027410Y029609D01*
X027160Y029359D01*
X027160Y028609D01*
X026610Y028059D01*
X026617Y027973D01*
X027410Y027859D02*
X027617Y027973D01*
X027410Y027859D02*
X027410Y023359D01*
X026160Y022109D01*
X026160Y021909D01*
X026660Y021609D02*
X026660Y020359D01*
X030410Y016609D01*
X030660Y016859D02*
X027660Y019859D01*
X027660Y027359D01*
X025660Y026859D02*
X024660Y027859D01*
X024617Y027973D01*
X024520Y027433D02*
X024520Y023202D01*
X024563Y023159D02*
X025340Y023159D01*
X025340Y022919D02*
X024859Y022919D01*
X024760Y022969D02*
X024760Y027307D01*
X024827Y027239D02*
X023993Y027239D01*
X024040Y027287D02*
X024040Y023682D01*
X024083Y023639D02*
X025340Y023639D01*
X025340Y023399D02*
X024323Y023399D01*
X024280Y023442D02*
X024280Y027527D01*
X024233Y027479D02*
X024347Y027479D01*
X023800Y027071D02*
X023800Y023922D01*
X023843Y023879D02*
X025340Y023879D01*
X025340Y024119D02*
X023603Y024119D01*
X023560Y024162D02*
X023560Y027039D01*
X023320Y027039D02*
X023320Y024458D01*
X023419Y024359D02*
X025340Y024359D01*
X025340Y024599D02*
X022623Y024599D01*
X022600Y024622D02*
X022600Y027039D01*
X022360Y027039D02*
X022360Y024862D01*
X022383Y024839D02*
X025340Y024839D01*
X025340Y025079D02*
X022143Y025079D01*
X022120Y025102D02*
X022120Y027039D01*
X021880Y027039D02*
X021880Y025179D01*
X021640Y025179D02*
X021640Y027039D01*
X021400Y027039D02*
X021400Y025179D01*
X021160Y025179D02*
X021160Y027157D01*
X021077Y027239D02*
X019085Y027239D01*
X019000Y027133D02*
X019000Y027037D01*
X019085Y026999D02*
X025067Y026999D01*
X025000Y027067D02*
X025000Y022778D01*
X025020Y022679D02*
X025340Y022679D01*
X025240Y022501D02*
X025240Y026827D01*
X025307Y026759D02*
X019065Y026759D01*
X019000Y026707D02*
X019000Y026379D01*
X019155Y026279D02*
X025340Y026279D01*
X025340Y026039D02*
X019195Y026039D01*
X019195Y025799D02*
X025340Y025799D01*
X025340Y025559D02*
X019187Y025559D01*
X019240Y025435D02*
X019240Y029077D01*
X019157Y029159D02*
X018936Y029159D01*
X018925Y029170D02*
X018873Y029207D01*
X018816Y029237D01*
X018755Y029256D01*
X018692Y029266D01*
X018669Y029266D01*
X018669Y028868D01*
X019067Y028868D01*
X019067Y028891D01*
X019057Y028955D01*
X019037Y029015D01*
X019008Y029073D01*
X018971Y029124D01*
X018925Y029170D01*
X019000Y029084D02*
X019000Y029317D01*
X018917Y029399D02*
X016379Y029399D01*
X016360Y029418D02*
X016360Y029789D01*
X016120Y029789D02*
X016120Y029469D01*
X015941Y029399D02*
X011903Y029399D01*
X012040Y029537D02*
X012040Y029211D01*
X012091Y029159D02*
X012384Y029159D01*
X012395Y029170D02*
X012349Y029124D01*
X012312Y029073D01*
X012283Y029015D01*
X012263Y028955D01*
X012253Y028891D01*
X012253Y028868D01*
X012651Y028868D01*
X012651Y028851D01*
X012253Y028851D01*
X012253Y028827D01*
X012263Y028764D01*
X012283Y028703D01*
X012312Y028646D01*
X012349Y028594D01*
X012395Y028549D01*
X012447Y028511D01*
X012504Y028482D01*
X012565Y028462D01*
X012628Y028452D01*
X012651Y028452D01*
X012651Y028851D01*
X012669Y028851D01*
X012669Y028868D01*
X013067Y028868D01*
X013067Y028891D01*
X013057Y028955D01*
X013037Y029015D01*
X013008Y029073D01*
X012971Y029124D01*
X012925Y029170D01*
X012873Y029207D01*
X012816Y029237D01*
X012755Y029256D01*
X012692Y029266D01*
X012669Y029266D01*
X012669Y028868D01*
X012651Y028868D01*
X012651Y029266D01*
X012628Y029266D01*
X012565Y029256D01*
X012504Y029237D01*
X012447Y029207D01*
X012395Y029170D01*
X012520Y029242D02*
X012520Y029789D01*
X012760Y029789D02*
X012760Y029255D01*
X012669Y029159D02*
X012651Y029159D01*
X012651Y028919D02*
X012669Y028919D01*
X012669Y028851D02*
X013067Y028851D01*
X013067Y028827D01*
X013057Y028764D01*
X013037Y028703D01*
X013008Y028646D01*
X012971Y028594D01*
X012925Y028549D01*
X012873Y028511D01*
X012816Y028482D01*
X012755Y028462D01*
X012692Y028452D01*
X012669Y028452D01*
X012669Y028851D01*
X012760Y028851D02*
X012760Y028868D01*
X012669Y028679D02*
X012651Y028679D01*
X012520Y028851D02*
X012520Y028868D01*
X012280Y028851D02*
X012280Y028868D01*
X012257Y028919D02*
X012177Y028919D01*
X012280Y029007D02*
X012280Y029777D01*
X012143Y029639D02*
X018677Y029639D01*
X018760Y029557D02*
X018760Y029255D01*
X018651Y029266D02*
X018628Y029266D01*
X018565Y029256D01*
X018504Y029237D01*
X018447Y029207D01*
X018395Y029170D01*
X018349Y029124D01*
X018312Y029073D01*
X018283Y029015D01*
X018263Y028955D01*
X018253Y028891D01*
X018253Y028868D01*
X018651Y028868D01*
X018651Y028851D01*
X018253Y028851D01*
X018253Y028827D01*
X018263Y028764D01*
X018283Y028703D01*
X018312Y028646D01*
X018349Y028594D01*
X018395Y028549D01*
X018447Y028511D01*
X018504Y028482D01*
X018565Y028462D01*
X018628Y028452D01*
X018651Y028452D01*
X018651Y028851D01*
X018669Y028851D01*
X018669Y028868D01*
X018651Y028868D01*
X018651Y029266D01*
X018651Y029159D02*
X018669Y029159D01*
X018520Y029242D02*
X018520Y029789D01*
X018280Y029789D02*
X018280Y029007D01*
X018257Y028919D02*
X018177Y028919D01*
X018280Y028868D02*
X018280Y028851D01*
X018280Y028711D02*
X018280Y028509D01*
X018295Y028679D02*
X018145Y028679D01*
X018478Y028439D02*
X019877Y028439D01*
X019960Y028357D02*
X019960Y025179D01*
X020200Y025179D02*
X020200Y028117D01*
X020117Y028199D02*
X019169Y028199D01*
X019000Y028329D02*
X019000Y028634D01*
X019008Y028646D02*
X018971Y028594D01*
X018925Y028549D01*
X018873Y028511D01*
X018816Y028482D01*
X018755Y028462D01*
X018692Y028452D01*
X018669Y028452D01*
X018669Y028851D01*
X019067Y028851D01*
X019067Y028827D01*
X019057Y028764D01*
X019037Y028703D01*
X019008Y028646D01*
X019025Y028679D02*
X019637Y028679D01*
X019720Y028597D02*
X019720Y025240D01*
X019641Y025319D02*
X025340Y025319D01*
X025340Y026519D02*
X018225Y026519D01*
X018280Y026364D02*
X018280Y026730D01*
X018255Y026759D02*
X018224Y026759D01*
X018520Y026699D02*
X018520Y026379D01*
X018760Y026379D02*
X018760Y026699D01*
X018708Y026759D02*
X018612Y026759D01*
X018612Y026999D02*
X018708Y026999D01*
X018760Y027037D02*
X018760Y027133D01*
X019174Y027479D02*
X020837Y027479D01*
X020920Y027397D02*
X020920Y025179D01*
X020680Y025179D02*
X020680Y027637D01*
X020597Y027719D02*
X019195Y027719D01*
X019195Y027959D02*
X020357Y027959D01*
X020440Y027877D02*
X020440Y025179D01*
X019480Y025327D02*
X019480Y028837D01*
X019397Y028919D02*
X019063Y028919D01*
X019000Y028868D02*
X019000Y028851D01*
X018760Y028851D02*
X018760Y028868D01*
X018669Y028919D02*
X018651Y028919D01*
X018520Y028868D02*
X018520Y028851D01*
X018651Y028679D02*
X018669Y028679D01*
X018760Y028464D02*
X018760Y028329D01*
X018520Y028397D02*
X018520Y028477D01*
X018384Y029159D02*
X018091Y029159D01*
X018040Y029211D02*
X018040Y029789D01*
X017800Y029789D02*
X017800Y029361D01*
X017560Y029376D02*
X017560Y029789D01*
X017320Y029789D02*
X017320Y029251D01*
X017229Y029159D02*
X017091Y029159D01*
X017080Y029171D02*
X017080Y029789D01*
X016840Y029789D02*
X016840Y029344D01*
X016600Y029376D02*
X016600Y029789D01*
X015880Y029789D02*
X015880Y029338D01*
X015640Y029376D02*
X015640Y029789D01*
X015400Y029789D02*
X015400Y029311D01*
X015229Y029159D02*
X015091Y029159D01*
X015160Y029077D02*
X015160Y029789D01*
X014920Y029789D02*
X014920Y029311D01*
X014680Y029379D02*
X014680Y029789D01*
X014440Y029789D02*
X014440Y029334D01*
X014229Y029159D02*
X014091Y029159D01*
X014200Y029102D02*
X014200Y029789D01*
X013960Y029789D02*
X013960Y029291D01*
X013720Y029376D02*
X013720Y029789D01*
X013480Y029789D02*
X013480Y029344D01*
X013240Y029171D02*
X013240Y029789D01*
X013000Y029789D02*
X013000Y029084D01*
X012936Y029159D02*
X013229Y029159D01*
X013143Y028919D02*
X013063Y028919D01*
X013000Y028868D02*
X013000Y028851D01*
X013025Y028679D02*
X013175Y028679D01*
X013240Y028548D02*
X013240Y026804D01*
X013000Y026804D02*
X013000Y028634D01*
X012760Y028464D02*
X012760Y025929D01*
X012804Y026039D02*
X012426Y026039D01*
X012520Y025929D02*
X012520Y028477D01*
X012295Y028679D02*
X012145Y028679D01*
X012280Y028711D02*
X012280Y026895D01*
X012411Y026759D02*
X012835Y026759D01*
X012804Y026519D02*
X012426Y026519D01*
X012426Y026279D02*
X012804Y026279D01*
X013000Y026282D02*
X013000Y026437D01*
X013240Y026437D02*
X013240Y026282D01*
X013480Y026282D02*
X013480Y026437D01*
X013546Y026519D02*
X013700Y026519D01*
X013720Y026437D02*
X013720Y026282D01*
X013960Y026282D02*
X013960Y026437D01*
X014200Y026437D02*
X014200Y026282D01*
X014200Y026804D02*
X014200Y028596D01*
X014172Y028679D02*
X014145Y028679D01*
X013971Y028439D02*
X014336Y028439D01*
X013960Y028428D02*
X013960Y026804D01*
X013720Y026804D02*
X013720Y028342D01*
X013480Y028374D02*
X013480Y026804D01*
X013546Y026759D02*
X013700Y026759D01*
X012040Y026914D02*
X012040Y028508D01*
X011971Y028439D02*
X013349Y028439D01*
X011800Y028357D02*
X011800Y026914D01*
X011560Y026914D02*
X011560Y028342D01*
X010660Y028609D02*
X009160Y028609D01*
X009110Y028409D01*
X008680Y028076D02*
X008680Y027587D01*
X008680Y027429D01*
X008680Y027389D01*
X008680Y027231D01*
X008680Y025582D01*
X008657Y025559D02*
X006230Y025559D01*
X006230Y025546D02*
X006230Y025673D01*
X006181Y025790D01*
X006091Y025880D01*
X005974Y025929D01*
X005020Y025929D01*
X005020Y026008D01*
X004989Y026039D01*
X005974Y026039D01*
X009137Y026039D01*
X009160Y026062D02*
X009160Y026979D01*
X009130Y026979D02*
X009288Y026979D01*
X009540Y027231D01*
X009540Y027389D01*
X009130Y027389D01*
X009130Y026979D01*
X009130Y026999D02*
X009090Y026999D01*
X009090Y026979D02*
X009090Y027389D01*
X009130Y027389D01*
X009130Y027429D01*
X009540Y027429D01*
X009540Y027587D01*
X009288Y027839D01*
X009130Y027839D01*
X009130Y027429D01*
X009090Y027429D01*
X009090Y027389D01*
X008680Y027389D01*
X008680Y027429D02*
X009090Y027429D01*
X009090Y027839D01*
X008932Y027839D01*
X008680Y027587D01*
X008680Y027479D02*
X008650Y027479D01*
X008650Y027239D02*
X008680Y027239D01*
X008680Y027231D02*
X008932Y026979D01*
X009090Y026979D01*
X008920Y026991D02*
X008920Y025822D01*
X008897Y025799D02*
X006173Y025799D01*
X006040Y025902D02*
X006040Y026067D01*
X006091Y026088D02*
X006181Y026178D01*
X007003Y026999D01*
X007059Y026999D01*
X007756Y026999D01*
X007720Y027036D02*
X007720Y020039D01*
X007432Y020039D01*
X007431Y020040D02*
X005681Y021790D01*
X005656Y021816D01*
X006584Y021868D01*
X006460Y021743D01*
X006370Y021527D01*
X006370Y021292D01*
X006460Y021075D01*
X006626Y020909D01*
X006843Y020819D01*
X007077Y020819D01*
X007294Y020909D01*
X007460Y021075D01*
X007550Y021292D01*
X007550Y021527D01*
X007460Y021743D01*
X007294Y021909D01*
X007460Y022075D01*
X007550Y022292D01*
X007550Y022527D01*
X007460Y022743D01*
X007294Y022909D01*
X007460Y023075D01*
X007550Y023292D01*
X007550Y023527D01*
X007460Y023743D01*
X007294Y023909D01*
X007460Y024075D01*
X007550Y024292D01*
X007550Y024527D01*
X007460Y024743D01*
X007294Y024909D01*
X007077Y024999D01*
X006843Y024999D01*
X006821Y024990D01*
X005784Y025289D01*
X005974Y025289D01*
X006091Y025338D01*
X006181Y025428D01*
X006230Y025546D01*
X006046Y025319D02*
X008417Y025319D01*
X008440Y025342D02*
X008440Y026976D01*
X008464Y026999D02*
X008912Y026999D01*
X009090Y027239D02*
X009130Y027239D01*
X009160Y027389D02*
X009160Y027429D01*
X009130Y027479D02*
X009090Y027479D01*
X008920Y027429D02*
X008920Y027389D01*
X008812Y027719D02*
X008564Y027719D01*
X008440Y027843D02*
X008440Y027976D01*
X008424Y027959D02*
X008796Y027959D01*
X008920Y027869D02*
X008920Y027827D01*
X009090Y027719D02*
X009130Y027719D01*
X009160Y027839D02*
X009160Y027869D01*
X009400Y027429D02*
X009400Y027389D01*
X009540Y027479D02*
X009647Y027479D01*
X009640Y027463D02*
X009640Y027256D01*
X009640Y026542D01*
X009617Y026519D02*
X006523Y026519D01*
X006520Y026517D02*
X006520Y025077D01*
X006513Y025079D02*
X007951Y025079D01*
X007960Y025100D02*
X007960Y026869D01*
X008200Y026869D02*
X008200Y025244D01*
X008132Y025244D02*
X008044Y025208D01*
X007977Y025140D01*
X007940Y025052D01*
X007940Y024366D01*
X007977Y024278D01*
X008044Y024210D01*
X008132Y024174D01*
X008138Y024174D01*
X008110Y024167D01*
X008081Y024149D01*
X008056Y024125D01*
X008039Y024096D01*
X008030Y024063D01*
X008030Y023847D01*
X008358Y023847D01*
X008358Y023771D01*
X008030Y023771D01*
X008030Y023556D01*
X008039Y023523D01*
X008056Y023493D01*
X008081Y023469D01*
X008110Y023452D01*
X008143Y023443D01*
X008359Y023443D01*
X008359Y023771D01*
X008435Y023771D01*
X008435Y023443D01*
X008650Y023443D01*
X008683Y023452D01*
X008713Y023469D01*
X008737Y023493D01*
X008751Y023517D01*
X008784Y023437D01*
X008851Y023370D01*
X008939Y023333D01*
X009390Y023333D01*
X009390Y021737D01*
X009333Y021761D01*
X008987Y021761D01*
X008667Y021628D01*
X008423Y021383D01*
X008290Y021064D01*
X008290Y020718D01*
X008423Y020398D01*
X008667Y020153D01*
X008930Y020044D01*
X008480Y020044D01*
X008410Y020015D01*
X008340Y020044D01*
X007732Y020044D01*
X007644Y020008D01*
X007577Y019940D01*
X007540Y019852D01*
X007540Y019166D01*
X007577Y019078D01*
X007590Y019065D01*
X007590Y018242D01*
X007503Y018155D01*
X007460Y018259D01*
X007294Y018425D01*
X007077Y018515D01*
X006843Y018515D01*
X006730Y018468D01*
X006730Y018977D01*
X007341Y019588D01*
X007431Y019678D01*
X007480Y019796D01*
X007480Y019923D01*
X007431Y020040D01*
X007480Y019799D02*
X007540Y019799D01*
X007540Y019559D02*
X007313Y019559D01*
X007240Y019487D02*
X007240Y018448D01*
X007360Y018359D02*
X007590Y018359D01*
X007480Y018211D02*
X007480Y021123D01*
X007528Y021239D02*
X008363Y021239D01*
X008440Y021401D02*
X008440Y023443D01*
X008435Y023639D02*
X008359Y023639D01*
X008200Y023771D02*
X008200Y023847D01*
X008359Y023847D02*
X008359Y024174D01*
X008435Y024174D01*
X008435Y023847D01*
X008359Y023847D01*
X008359Y023879D02*
X008435Y023879D01*
X008435Y024119D02*
X008359Y024119D01*
X008053Y024119D02*
X007478Y024119D01*
X007480Y024123D02*
X007480Y023696D01*
X007503Y023639D02*
X008030Y023639D01*
X008030Y023879D02*
X007324Y023879D01*
X007550Y024359D02*
X007943Y024359D01*
X007960Y024318D02*
X007960Y020044D01*
X008200Y020044D02*
X008200Y023443D01*
X008680Y023451D02*
X008680Y021633D01*
X008518Y021479D02*
X007550Y021479D01*
X007480Y021696D02*
X007480Y022123D01*
X007512Y022199D02*
X009390Y022199D01*
X009390Y021959D02*
X007344Y021959D01*
X007470Y021719D02*
X008887Y021719D01*
X008920Y021733D02*
X008920Y023341D01*
X008822Y023399D02*
X007550Y023399D01*
X007495Y023159D02*
X009390Y023159D01*
X009390Y022919D02*
X007304Y022919D01*
X007480Y023123D02*
X007480Y022696D01*
X007487Y022679D02*
X009390Y022679D01*
X009390Y022439D02*
X007550Y022439D01*
X006520Y021864D02*
X006520Y021804D01*
X006450Y021719D02*
X005753Y021719D01*
X005800Y021672D02*
X005800Y021824D01*
X006040Y021837D02*
X006040Y021432D01*
X005993Y021479D02*
X006370Y021479D01*
X006392Y021239D02*
X006233Y021239D01*
X006280Y021192D02*
X006280Y021851D01*
X005410Y021609D02*
X005160Y021609D01*
X005410Y021609D02*
X007160Y019859D01*
X006410Y019109D01*
X006410Y007859D01*
X006160Y007609D01*
X006160Y007109D01*
X005910Y006850D02*
X006011Y006749D01*
X006309Y006749D01*
X006520Y006960D01*
X006520Y007258D01*
X006480Y007298D01*
X006480Y007477D01*
X006591Y007588D01*
X006681Y007678D01*
X006730Y007796D01*
X006730Y007985D01*
X006843Y007938D01*
X007077Y007938D01*
X007294Y008028D01*
X007390Y008124D01*
X007390Y007406D01*
X007469Y007215D01*
X007615Y007068D01*
X008055Y006629D01*
X007189Y006629D01*
X007270Y006710D01*
X007270Y007008D01*
X007059Y007219D01*
X006761Y007219D01*
X006550Y007008D01*
X006550Y006710D01*
X006631Y006629D01*
X005115Y006629D01*
X005109Y006635D01*
X004863Y006737D01*
X004596Y006737D01*
X004350Y006635D01*
X004161Y006447D01*
X004059Y006201D01*
X004059Y005934D01*
X004161Y005688D01*
X004350Y005499D01*
X004596Y005397D01*
X004863Y005397D01*
X005109Y005499D01*
X005199Y005589D01*
X007140Y005589D01*
X007140Y004663D01*
X007057Y004640D01*
X006787Y004484D01*
X006566Y004264D01*
X006410Y003994D01*
X006329Y003692D01*
X006329Y003380D01*
X006410Y003079D01*
X006566Y002809D01*
X006667Y002708D01*
X006631Y002720D01*
X006514Y002747D01*
X006413Y002759D01*
X006413Y001766D01*
X006253Y001766D01*
X006253Y001606D01*
X005261Y001606D01*
X005272Y001506D01*
X005299Y001388D01*
X005339Y001274D01*
X005391Y001165D01*
X005455Y001063D01*
X005530Y000969D01*
X005616Y000883D01*
X005710Y000808D01*
X005812Y000744D01*
X005921Y000691D01*
X005956Y000679D01*
X004080Y000679D01*
X003480Y001279D01*
X003480Y001319D02*
X005323Y001319D01*
X005320Y001327D02*
X005320Y000679D01*
X005560Y000679D02*
X005560Y000939D01*
X005671Y000839D02*
X003920Y000839D01*
X003880Y000879D02*
X003880Y013749D01*
X003838Y013749D02*
X003982Y013749D01*
X004114Y013804D01*
X004154Y013844D01*
X004157Y013839D01*
X004224Y013771D01*
X004312Y013735D01*
X005208Y013735D01*
X005296Y013771D01*
X005340Y013816D01*
X005340Y012387D01*
X005303Y012478D01*
X005123Y012658D01*
X004887Y012755D01*
X004633Y012755D01*
X004397Y012658D01*
X004217Y012478D01*
X004120Y012242D01*
X004120Y013810D01*
X004102Y013799D02*
X004196Y013799D01*
X004360Y013735D02*
X004360Y012620D01*
X004339Y012599D02*
X003480Y012599D01*
X003480Y012359D02*
X004168Y012359D01*
X004120Y012242D02*
X004120Y011988D01*
X004120Y010864D01*
X004120Y010610D01*
X004120Y009486D01*
X004120Y009232D01*
X004120Y008429D01*
X004120Y007533D01*
X004120Y006347D01*
X004125Y006359D02*
X003480Y006359D01*
X003480Y006119D02*
X004059Y006119D01*
X004082Y005879D02*
X003480Y005879D01*
X003480Y005639D02*
X004210Y005639D01*
X004120Y005788D02*
X004120Y003627D01*
X004120Y003616D02*
X004120Y003456D01*
X004119Y003456D02*
X004130Y003356D01*
X004157Y003238D01*
X004197Y003124D01*
X004249Y003016D01*
X004313Y002913D01*
X004389Y002819D01*
X004474Y002734D01*
X004569Y002658D01*
X004671Y002594D01*
X004780Y002542D01*
X004893Y002502D01*
X005011Y002475D01*
X005111Y002464D01*
X005111Y003456D01*
X004119Y003456D01*
X004120Y003446D02*
X004120Y000679D01*
X004360Y000679D02*
X004360Y002855D01*
X004449Y002759D02*
X003480Y002759D01*
X003480Y002519D02*
X004844Y002519D01*
X004840Y002521D02*
X004840Y000679D01*
X004600Y000679D02*
X004600Y002639D01*
X004260Y002999D02*
X003480Y002999D01*
X003480Y003239D02*
X004157Y003239D01*
X004360Y003456D02*
X004360Y003616D01*
X004600Y003616D02*
X004600Y003456D01*
X004840Y003456D02*
X004840Y003616D01*
X005080Y003616D02*
X005080Y003456D01*
X005111Y003456D02*
X005111Y003616D01*
X004119Y003616D01*
X004130Y003717D01*
X004157Y003834D01*
X004197Y003948D01*
X004249Y004057D01*
X004313Y004159D01*
X004384Y004248D01*
X004364Y004262D01*
X004302Y004325D01*
X004250Y004396D01*
X004210Y004475D01*
X004183Y004558D01*
X004169Y004645D01*
X004169Y004671D01*
X004711Y004671D01*
X004711Y004708D01*
X004711Y005249D01*
X004685Y005249D01*
X004598Y005236D01*
X004514Y005208D01*
X004436Y005168D01*
X004364Y005117D01*
X004302Y005054D01*
X004250Y004983D01*
X004210Y004904D01*
X004183Y004821D01*
X004169Y004734D01*
X004169Y004708D01*
X004711Y004708D01*
X004748Y004708D01*
X005289Y004708D01*
X005289Y004734D01*
X005276Y004821D01*
X005248Y004904D01*
X005208Y004983D01*
X005156Y005054D01*
X005094Y005117D01*
X005023Y005168D01*
X004944Y005208D01*
X004860Y005236D01*
X004773Y005249D01*
X004748Y005249D01*
X004748Y004708D01*
X004748Y004671D01*
X005289Y004671D01*
X005289Y004645D01*
X005283Y004608D01*
X005372Y004598D01*
X005490Y004571D01*
X005603Y004531D01*
X005712Y004479D01*
X005814Y004414D01*
X005909Y004339D01*
X005994Y004254D01*
X006070Y004159D01*
X006134Y004057D01*
X006186Y003948D01*
X006226Y003834D01*
X006253Y003717D01*
X006264Y003616D01*
X005272Y003616D01*
X005272Y003456D01*
X006264Y003456D01*
X006253Y003356D01*
X006226Y003238D01*
X006186Y003124D01*
X006134Y003016D01*
X006070Y002913D01*
X005994Y002819D01*
X005909Y002734D01*
X005814Y002658D01*
X005712Y002594D01*
X005603Y002542D01*
X005490Y002502D01*
X005372Y002475D01*
X005271Y002464D01*
X005271Y003456D01*
X005111Y003456D01*
X005111Y003479D02*
X003480Y003479D01*
X003480Y003719D02*
X004131Y003719D01*
X004202Y003959D02*
X003480Y003959D01*
X003480Y004199D02*
X004345Y004199D01*
X004360Y004218D02*
X004360Y004267D01*
X004228Y004439D02*
X003480Y004439D01*
X003480Y004679D02*
X004711Y004679D01*
X004748Y004679D02*
X007140Y004679D01*
X007000Y004608D02*
X007000Y005589D01*
X007140Y005399D02*
X004867Y005399D01*
X004840Y005397D02*
X004840Y005239D01*
X004748Y005159D02*
X004711Y005159D01*
X004600Y005236D02*
X004600Y005397D01*
X004592Y005399D02*
X003480Y005399D01*
X003480Y005159D02*
X004423Y005159D01*
X004360Y005112D02*
X004360Y005495D01*
X004218Y004919D02*
X003480Y004919D01*
X004360Y004708D02*
X004360Y004671D01*
X004600Y004671D02*
X004600Y004708D01*
X004711Y004919D02*
X004748Y004919D01*
X004840Y004708D02*
X004840Y004671D01*
X005080Y004671D02*
X005080Y004708D01*
X005320Y004604D02*
X005320Y005589D01*
X005560Y005589D02*
X005560Y004546D01*
X005775Y004439D02*
X006741Y004439D01*
X006760Y004458D02*
X006760Y005589D01*
X006520Y005589D02*
X006520Y004184D01*
X006529Y004199D02*
X006038Y004199D01*
X006040Y004196D02*
X006040Y005589D01*
X005800Y005589D02*
X005800Y004423D01*
X006181Y003959D02*
X006401Y003959D01*
X006337Y003719D02*
X006252Y003719D01*
X006040Y003616D02*
X006040Y003456D01*
X005800Y003456D02*
X005800Y003616D01*
X005560Y003616D02*
X005560Y003456D01*
X005320Y003456D02*
X005320Y003616D01*
X005272Y003479D02*
X006329Y003479D01*
X006367Y003239D02*
X006226Y003239D01*
X006123Y002999D02*
X006456Y002999D01*
X006520Y002889D02*
X006520Y002746D01*
X006616Y002759D02*
X005934Y002759D01*
X005921Y002681D02*
X005812Y002628D01*
X005710Y002564D01*
X005616Y002489D01*
X005530Y002403D01*
X005455Y002309D01*
X005391Y002207D01*
X005339Y002098D01*
X005299Y001984D01*
X005272Y001866D01*
X005261Y001766D01*
X006253Y001766D01*
X006253Y002759D01*
X006153Y002747D01*
X006035Y002720D01*
X005921Y002681D01*
X005800Y002649D02*
X005800Y002620D01*
X005654Y002519D02*
X005539Y002519D01*
X005560Y002527D02*
X005560Y002433D01*
X005437Y002279D02*
X003480Y002279D01*
X003480Y002039D02*
X005318Y002039D01*
X005320Y002045D02*
X005320Y002469D01*
X005271Y002519D02*
X005111Y002519D01*
X005080Y002467D02*
X005080Y000679D01*
X005445Y001079D02*
X003680Y001079D01*
X003640Y001119D02*
X003640Y013870D01*
X003605Y013905D02*
X003706Y013804D01*
X003838Y013749D01*
X003718Y013799D02*
X003480Y013799D01*
X003605Y013905D02*
X003550Y014038D01*
X003550Y014181D01*
X003590Y014277D01*
X003590Y025673D01*
X003639Y025790D01*
X004479Y026630D01*
X004596Y026679D01*
X005777Y026679D01*
X006077Y026978D01*
X006025Y026987D01*
X005961Y027008D01*
X005900Y027038D01*
X005846Y027078D01*
X005798Y027126D01*
X005758Y027181D01*
X005727Y027241D01*
X005706Y027305D01*
X005696Y027372D01*
X005696Y027386D01*
X006106Y027386D01*
X006106Y027426D01*
X006106Y027836D01*
X006092Y027836D01*
X006025Y027825D01*
X005961Y027805D01*
X005900Y027774D01*
X005846Y027734D01*
X005798Y027686D01*
X005758Y027631D01*
X005727Y027571D01*
X005706Y027507D01*
X005696Y027440D01*
X005696Y027426D01*
X006106Y027426D01*
X006146Y027426D01*
X006146Y027836D01*
X006160Y027836D01*
X006227Y027825D01*
X006291Y027805D01*
X006351Y027774D01*
X006406Y027734D01*
X006454Y027686D01*
X006494Y027631D01*
X006524Y027571D01*
X006545Y027507D01*
X006550Y027477D01*
X006550Y027508D01*
X006761Y027719D01*
X007059Y027719D01*
X007270Y027508D01*
X007270Y027210D01*
X007059Y026999D01*
X007000Y026997D02*
X007000Y024999D01*
X006760Y025008D02*
X006760Y026757D01*
X006763Y026759D02*
X009801Y026759D01*
X009800Y026758D02*
X009800Y026702D01*
X008389Y025290D01*
X008370Y025244D01*
X008132Y025244D01*
X007940Y024839D02*
X007364Y024839D01*
X007240Y024932D02*
X007240Y027180D01*
X007270Y027239D02*
X007570Y027239D01*
X007570Y027479D02*
X007270Y027479D01*
X007240Y027538D02*
X007240Y027827D01*
X007347Y027719D02*
X006421Y027719D01*
X006280Y027808D02*
X006280Y027885D01*
X006443Y027959D02*
X007107Y027959D01*
X007000Y028067D02*
X007000Y027719D01*
X006760Y027718D02*
X006760Y028086D01*
X006520Y028036D02*
X006520Y027580D01*
X006550Y027479D02*
X006550Y027479D01*
X006910Y027359D02*
X005910Y026359D01*
X004660Y026359D01*
X003910Y025609D01*
X003910Y014109D01*
X003590Y014279D02*
X003480Y014279D01*
X003480Y014039D02*
X003550Y014039D01*
X003590Y014519D02*
X003480Y014519D01*
X003480Y014759D02*
X003590Y014759D01*
X003590Y014999D02*
X003480Y014999D01*
X003480Y015239D02*
X003590Y015239D01*
X003590Y015479D02*
X003480Y015479D01*
X003480Y015719D02*
X003590Y015719D01*
X003590Y015959D02*
X003480Y015959D01*
X003480Y016199D02*
X003590Y016199D01*
X003590Y016439D02*
X003480Y016439D01*
X003480Y016679D02*
X003590Y016679D01*
X003590Y016919D02*
X003480Y016919D01*
X003480Y017159D02*
X003590Y017159D01*
X003590Y017399D02*
X003480Y017399D01*
X003480Y017639D02*
X003590Y017639D01*
X003590Y017879D02*
X003480Y017879D01*
X003480Y018119D02*
X003590Y018119D01*
X003590Y018359D02*
X003480Y018359D01*
X003480Y018599D02*
X003590Y018599D01*
X003590Y018839D02*
X003480Y018839D01*
X003480Y019079D02*
X003590Y019079D01*
X003590Y019319D02*
X003480Y019319D01*
X003480Y019559D02*
X003590Y019559D01*
X003590Y019799D02*
X003480Y019799D01*
X003480Y020039D02*
X003590Y020039D01*
X003590Y020279D02*
X003480Y020279D01*
X003480Y020519D02*
X003590Y020519D01*
X003590Y020759D02*
X003480Y020759D01*
X003480Y020999D02*
X003590Y020999D01*
X003590Y021239D02*
X003480Y021239D01*
X003480Y021479D02*
X003590Y021479D01*
X003590Y021719D02*
X003480Y021719D01*
X003480Y021959D02*
X003590Y021959D01*
X003590Y022199D02*
X003480Y022199D01*
X003480Y022439D02*
X003590Y022439D01*
X003590Y022679D02*
X003480Y022679D01*
X003480Y022919D02*
X003590Y022919D01*
X003590Y023159D02*
X003480Y023159D01*
X003480Y023399D02*
X003590Y023399D01*
X003590Y023639D02*
X003480Y023639D01*
X003480Y023879D02*
X003590Y023879D01*
X003590Y024119D02*
X003480Y024119D01*
X003480Y024359D02*
X003590Y024359D01*
X003590Y024599D02*
X003480Y024599D01*
X003480Y024839D02*
X003590Y024839D01*
X003590Y025079D02*
X003480Y025079D01*
X003480Y025319D02*
X003590Y025319D01*
X003590Y025559D02*
X003480Y025559D01*
X003480Y025799D02*
X003647Y025799D01*
X003640Y025792D02*
X003640Y031095D01*
X003624Y031079D02*
X005340Y031079D01*
X005320Y031190D02*
X005320Y029910D01*
X005340Y030119D02*
X003480Y030119D01*
X003480Y029879D02*
X004857Y029879D01*
X004840Y029872D02*
X004840Y031535D01*
X004600Y031535D02*
X004600Y029548D01*
X004638Y029639D02*
X003480Y029639D01*
X003480Y029399D02*
X004586Y029399D01*
X004600Y029264D02*
X004600Y028548D01*
X004586Y028439D02*
X003480Y028439D01*
X003480Y028199D02*
X004627Y028199D01*
X004600Y028264D02*
X004600Y026679D01*
X004840Y026679D02*
X004840Y027084D01*
X004846Y027078D02*
X004900Y027038D01*
X004961Y027008D01*
X005025Y026987D01*
X005092Y026976D01*
X005106Y026976D01*
X005106Y027386D01*
X005146Y027386D01*
X005146Y027426D01*
X005556Y027426D01*
X005556Y027440D01*
X005545Y027507D01*
X005524Y027571D01*
X005494Y027631D01*
X005454Y027686D01*
X005406Y027734D01*
X005351Y027774D01*
X005291Y027804D01*
X005227Y027825D01*
X005160Y027836D01*
X005146Y027836D01*
X005146Y027426D01*
X005106Y027426D01*
X005106Y027836D01*
X005092Y027836D01*
X005025Y027825D01*
X004961Y027804D01*
X004900Y027774D01*
X004846Y027734D01*
X004798Y027686D01*
X004758Y027631D01*
X004727Y027571D01*
X004706Y027507D01*
X004696Y027440D01*
X004696Y027426D01*
X005106Y027426D01*
X005106Y027386D01*
X004696Y027386D01*
X004696Y027372D01*
X004706Y027305D01*
X004727Y027241D01*
X004758Y027181D01*
X004798Y027126D01*
X004846Y027078D01*
X004986Y026999D02*
X003480Y026999D01*
X003480Y026759D02*
X005857Y026759D01*
X005800Y026702D02*
X005800Y027124D01*
X005728Y027239D02*
X005523Y027239D01*
X005524Y027241D02*
X005545Y027305D01*
X005556Y027372D01*
X005556Y027386D01*
X005146Y027386D01*
X005146Y026976D01*
X005160Y026976D01*
X005227Y026987D01*
X005291Y027008D01*
X005351Y027038D01*
X005406Y027078D01*
X005454Y027126D01*
X005494Y027181D01*
X005524Y027241D01*
X005550Y027479D02*
X005702Y027479D01*
X005800Y027426D02*
X005800Y027386D01*
X006040Y027386D02*
X006040Y027426D01*
X006106Y027479D02*
X006146Y027479D01*
X006146Y027719D02*
X006106Y027719D01*
X006040Y027828D02*
X006040Y027866D01*
X005809Y027959D02*
X005443Y027959D01*
X005320Y027902D02*
X005320Y027790D01*
X005421Y027719D02*
X005831Y027719D01*
X005800Y027688D02*
X005800Y027968D01*
X005560Y028076D02*
X005560Y026679D01*
X005320Y026679D02*
X005320Y027022D01*
X005265Y026999D02*
X005987Y026999D01*
X006040Y026984D02*
X006040Y026942D01*
X006283Y026279D02*
X009377Y026279D01*
X009400Y026302D02*
X009400Y027091D01*
X009308Y026999D02*
X009785Y026999D01*
X009719Y027065D02*
X009913Y026871D01*
X009800Y026758D01*
X009880Y026838D02*
X009880Y026904D01*
X009719Y027065D02*
X009640Y027256D01*
X009647Y027239D02*
X009540Y027239D01*
X010160Y026609D02*
X008660Y025109D01*
X008660Y024859D01*
X008436Y024709D01*
X009184Y024709D02*
X009410Y024609D01*
X009410Y023859D01*
X009223Y023809D01*
X009160Y023333D02*
X009160Y021761D01*
X008290Y020999D02*
X007384Y020999D01*
X007240Y020887D02*
X007240Y020232D01*
X007193Y020279D02*
X008541Y020279D01*
X008440Y020380D02*
X008440Y020028D01*
X008468Y020039D02*
X008352Y020039D01*
X008680Y020044D02*
X008680Y020148D01*
X008920Y020048D02*
X008920Y020044D01*
X009145Y020021D02*
X009333Y020021D01*
X009653Y020153D01*
X009897Y020398D01*
X010030Y020718D01*
X010030Y020904D01*
X011190Y019744D01*
X011190Y019736D01*
X011187Y019731D01*
X011182Y019694D01*
X011168Y019659D01*
X011168Y019602D01*
X010771Y019205D01*
X010781Y019223D01*
X010790Y019256D01*
X010790Y019471D01*
X010462Y019471D01*
X010462Y019547D01*
X010790Y019547D01*
X010790Y019763D01*
X010781Y019796D01*
X010764Y019825D01*
X010739Y019849D01*
X010710Y019867D01*
X010677Y019875D01*
X010461Y019875D01*
X010461Y019547D01*
X010385Y019547D01*
X010385Y019875D01*
X010170Y019875D01*
X010137Y019867D01*
X010107Y019849D01*
X010083Y019825D01*
X010069Y019801D01*
X010036Y019881D01*
X009969Y019949D01*
X009881Y019985D01*
X009313Y019985D01*
X009232Y019952D01*
X009176Y020008D01*
X009145Y020021D01*
X009160Y020021D02*
X009160Y020014D01*
X009378Y020039D02*
X010895Y020039D01*
X010840Y020094D02*
X010840Y019275D01*
X010885Y019319D02*
X010790Y019319D01*
X010727Y019162D02*
X010115Y018550D01*
X009969Y018404D01*
X009695Y018129D01*
X009307Y018129D01*
X009115Y018050D01*
X008615Y017550D01*
X008469Y017404D01*
X008390Y017213D01*
X008390Y014006D01*
X008469Y013815D01*
X009222Y013062D01*
X009246Y013007D01*
X009246Y012297D01*
X009282Y012209D01*
X009350Y012142D01*
X009438Y012105D01*
X010164Y012105D01*
X010252Y012142D01*
X010319Y012209D01*
X010356Y012297D01*
X010356Y012544D01*
X011140Y012544D01*
X011140Y011295D01*
X010783Y011295D01*
X010695Y011259D01*
X010665Y011229D01*
X008607Y011229D01*
X008415Y011150D01*
X008269Y011004D01*
X007469Y010204D01*
X007390Y010013D01*
X007390Y009933D01*
X007294Y010028D01*
X007460Y010194D01*
X007550Y010411D01*
X007550Y010645D01*
X007460Y010862D01*
X007294Y011028D01*
X007460Y011194D01*
X007550Y011411D01*
X007550Y011645D01*
X007460Y011862D01*
X007294Y012028D01*
X007077Y012118D01*
X006843Y012118D01*
X006730Y012071D01*
X006730Y014382D01*
X006843Y014335D01*
X007077Y014335D01*
X007294Y014425D01*
X007300Y014430D01*
X007300Y014210D01*
X007511Y013999D01*
X007809Y013999D01*
X008020Y014210D01*
X008020Y014508D01*
X007980Y014548D01*
X007980Y017727D01*
X008181Y017928D01*
X008230Y018046D01*
X008230Y018173D01*
X008230Y018974D01*
X008340Y018974D01*
X008410Y019003D01*
X008480Y018974D01*
X009088Y018974D01*
X009176Y019010D01*
X009232Y019066D01*
X009313Y019033D01*
X009881Y019033D01*
X009969Y019070D01*
X010036Y019137D01*
X010069Y019217D01*
X010083Y019193D01*
X010107Y019169D01*
X010137Y019152D01*
X010170Y019143D01*
X010385Y019143D01*
X010385Y019471D01*
X010461Y019471D01*
X010461Y019143D01*
X010677Y019143D01*
X010710Y019152D01*
X010727Y019162D01*
X010645Y019079D02*
X009978Y019079D01*
X009880Y019033D02*
X009880Y018315D01*
X009925Y018359D02*
X008230Y018359D01*
X008230Y018119D02*
X009282Y018119D01*
X009400Y018129D02*
X009400Y019033D01*
X009640Y019033D02*
X009640Y018129D01*
X009969Y018404D02*
X009969Y018404D01*
X010115Y018550D02*
X010115Y018550D01*
X010120Y018555D02*
X010120Y019162D01*
X010360Y019143D02*
X010360Y018795D01*
X010405Y018839D02*
X008230Y018839D01*
X008230Y018599D02*
X010165Y018599D01*
X010600Y019035D02*
X010600Y019143D01*
X010461Y019319D02*
X010385Y019319D01*
X010423Y019509D02*
X010960Y019509D01*
X011080Y019515D02*
X011080Y019854D01*
X011135Y019799D02*
X010779Y019799D01*
X010600Y019875D02*
X010600Y020334D01*
X010655Y020279D02*
X009779Y020279D01*
X009880Y020380D02*
X009880Y019985D01*
X009640Y019985D02*
X009640Y020148D01*
X009400Y020048D02*
X009400Y019985D01*
X009410Y019609D02*
X008910Y019609D01*
X008784Y019509D01*
X008680Y018974D02*
X008680Y017615D01*
X008705Y017639D02*
X007980Y017639D01*
X007980Y017399D02*
X008467Y017399D01*
X008440Y017333D02*
X008440Y018991D01*
X008920Y018974D02*
X008920Y017855D01*
X008945Y017879D02*
X008133Y017879D01*
X008200Y017973D02*
X008200Y010935D01*
X008185Y010919D02*
X007403Y010919D01*
X007480Y010815D02*
X007480Y011242D01*
X007426Y011159D02*
X008438Y011159D01*
X008440Y011160D02*
X008440Y013885D01*
X008485Y013799D02*
X006730Y013799D01*
X006730Y013559D02*
X008725Y013559D01*
X008680Y013604D02*
X008680Y011229D01*
X008920Y011229D02*
X008920Y013364D01*
X008965Y013319D02*
X006730Y013319D01*
X006730Y013079D02*
X009205Y013079D01*
X009160Y013124D02*
X009160Y011229D01*
X009400Y011229D02*
X009400Y012121D01*
X009404Y012119D02*
X006730Y012119D01*
X006760Y012084D02*
X006760Y014369D01*
X006730Y014279D02*
X007300Y014279D01*
X007240Y014402D02*
X007240Y012051D01*
X007000Y012118D02*
X007000Y014335D01*
X006730Y014039D02*
X007471Y014039D01*
X007480Y014030D02*
X007480Y011815D01*
X007443Y011879D02*
X011140Y011879D01*
X011140Y011639D02*
X007550Y011639D01*
X007545Y011399D02*
X011140Y011399D01*
X011080Y011295D02*
X011080Y012544D01*
X011140Y012359D02*
X010356Y012359D01*
X010360Y012544D02*
X010360Y011229D01*
X010600Y011229D02*
X010600Y012544D01*
X010840Y012544D02*
X010840Y011295D01*
X011519Y010740D02*
X011410Y010609D01*
X011320Y010185D02*
X011320Y008581D01*
X011269Y008530D02*
X011190Y008340D01*
X011190Y008134D01*
X011269Y007944D01*
X011414Y007799D01*
X008430Y007799D01*
X008430Y007725D02*
X008430Y009694D01*
X008925Y010189D01*
X010773Y010189D01*
X010783Y010185D01*
X012256Y010185D01*
X012344Y010222D01*
X012412Y010289D01*
X012448Y010378D01*
X012448Y011103D01*
X012412Y011191D01*
X012344Y011259D01*
X012256Y011295D01*
X012180Y011295D01*
X012180Y012844D01*
X012185Y012933D01*
X012180Y012947D01*
X012180Y012963D01*
X012167Y012995D01*
X012224Y013134D01*
X012224Y013340D01*
X012146Y013530D01*
X012000Y013676D01*
X011810Y013754D01*
X011604Y013754D01*
X011414Y013676D01*
X011269Y013530D01*
X011266Y013524D01*
X010356Y013524D01*
X010356Y013771D01*
X010319Y013859D01*
X010252Y013926D01*
X010164Y013963D01*
X009792Y013963D01*
X009430Y014325D01*
X009430Y014353D01*
X009436Y014350D01*
X009469Y014341D01*
X009723Y014341D01*
X009723Y015082D01*
X009878Y015082D01*
X009878Y014341D01*
X010133Y014341D01*
X010166Y014350D01*
X010196Y014367D01*
X010220Y014391D01*
X010237Y014421D01*
X010246Y014454D01*
X010246Y015082D01*
X009878Y015082D01*
X009878Y015237D01*
X010246Y015237D01*
X010246Y015866D01*
X010237Y015899D01*
X010220Y015929D01*
X010196Y015953D01*
X010166Y015970D01*
X010133Y015979D01*
X009878Y015979D01*
X009878Y015237D01*
X009723Y015237D01*
X009723Y015979D01*
X009469Y015979D01*
X009436Y015970D01*
X009430Y015967D01*
X009430Y016894D01*
X009503Y016967D01*
X009818Y016967D01*
X009818Y016871D01*
X009914Y016871D01*
X009914Y016967D01*
X010291Y016967D01*
X010291Y017126D01*
X010297Y017129D01*
X010364Y017196D01*
X010401Y017285D01*
X010401Y017365D01*
X010410Y017374D01*
X010618Y017166D01*
X010618Y016693D01*
X010654Y016605D01*
X010722Y016538D01*
X010810Y016501D01*
X012283Y016501D01*
X012372Y016538D01*
X012439Y016605D01*
X012476Y016693D01*
X012476Y017419D01*
X012439Y017507D01*
X012372Y017574D01*
X012283Y017611D01*
X011644Y017611D01*
X011145Y018109D01*
X012002Y018966D01*
X012056Y019006D01*
X012075Y019038D01*
X012101Y019065D01*
X012127Y019127D01*
X012161Y019185D01*
X012166Y019221D01*
X012180Y019256D01*
X012180Y019323D01*
X012187Y019370D01*
X012230Y019475D01*
X012230Y020063D01*
X012151Y020254D01*
X012005Y020400D01*
X011604Y020800D01*
X011614Y020804D01*
X011715Y020905D01*
X011770Y021038D01*
X011770Y021181D01*
X011730Y021277D01*
X011730Y021477D01*
X011970Y021717D01*
X011970Y021665D01*
X012160Y021475D01*
X012160Y021250D01*
X012105Y021195D01*
X012023Y020997D01*
X012023Y020784D01*
X012105Y020587D01*
X012256Y020436D01*
X012453Y020354D01*
X012667Y020354D01*
X012864Y020436D01*
X013015Y020587D01*
X013097Y020784D01*
X013097Y020997D01*
X013015Y021195D01*
X012960Y021250D01*
X012960Y021475D01*
X013138Y021653D01*
X013361Y021429D01*
X013540Y021429D01*
X013540Y021889D01*
X013580Y021889D01*
X013580Y021429D01*
X013759Y021429D01*
X013982Y021653D01*
X014160Y021475D01*
X014160Y021250D01*
X014105Y021195D01*
X014023Y020997D01*
X014023Y020784D01*
X014105Y020587D01*
X014256Y020436D01*
X014453Y020354D01*
X014667Y020354D01*
X014699Y020367D01*
X015139Y019928D01*
X015229Y019838D01*
X015242Y019832D01*
X015235Y019815D01*
X015010Y020039D01*
X014801Y020126D01*
X014574Y020126D01*
X014365Y020039D01*
X014204Y019879D01*
X014188Y019838D01*
X014171Y019879D01*
X014010Y020039D01*
X013801Y020126D01*
X013574Y020126D01*
X013365Y020039D01*
X013204Y019879D01*
X013118Y019669D01*
X013118Y018468D01*
X013204Y018259D01*
X013627Y017836D01*
X013787Y017676D01*
X013997Y017589D01*
X014174Y017589D01*
X014262Y017501D01*
X013750Y017501D01*
X013750Y017134D01*
X013595Y017134D01*
X013595Y017501D01*
X012967Y017501D01*
X012933Y017492D01*
X012904Y017475D01*
X012880Y017451D01*
X012862Y017421D01*
X012854Y017388D01*
X012854Y017134D01*
X013595Y017134D01*
X013595Y016979D01*
X012854Y016979D01*
X012854Y016724D01*
X012862Y016691D01*
X012880Y016661D01*
X012904Y016637D01*
X012933Y016620D01*
X012967Y016611D01*
X013595Y016611D01*
X013595Y016979D01*
X013750Y016979D01*
X013750Y016611D01*
X014379Y016611D01*
X014412Y016620D01*
X014440Y016636D01*
X014440Y015996D01*
X014440Y015909D01*
X014476Y015909D02*
X013681Y015909D01*
X013571Y015864D01*
X012780Y015073D01*
X012585Y015073D01*
X012395Y014994D01*
X012249Y014849D01*
X012188Y014700D01*
X012126Y014849D01*
X011981Y014994D01*
X011790Y015073D01*
X011585Y015073D01*
X011395Y014994D01*
X011249Y014849D01*
X011170Y014659D01*
X011170Y014453D01*
X011249Y014263D01*
X011395Y014118D01*
X011585Y014039D01*
X011790Y014039D01*
X011981Y014118D01*
X012126Y014263D01*
X012188Y014412D01*
X012249Y014263D01*
X012395Y014118D01*
X012585Y014039D01*
X012790Y014039D01*
X012981Y014118D01*
X013126Y014263D01*
X013188Y014412D01*
X013249Y014263D01*
X013395Y014118D01*
X013585Y014039D01*
X013790Y014039D01*
X013981Y014118D01*
X014126Y014263D01*
X014188Y014412D01*
X014249Y014263D01*
X014395Y014118D01*
X014585Y014039D01*
X014790Y014039D01*
X014981Y014118D01*
X015126Y014263D01*
X015188Y014412D01*
X015249Y014263D01*
X015395Y014118D01*
X015585Y014039D01*
X015790Y014039D01*
X015981Y014118D01*
X016119Y014256D01*
X016256Y014256D01*
X016395Y014118D01*
X016585Y014039D01*
X016790Y014039D01*
X016890Y014080D01*
X016890Y013746D01*
X016902Y013716D01*
X016810Y013754D01*
X016604Y013754D01*
X016414Y013676D01*
X016269Y013530D01*
X016207Y013381D01*
X016146Y013530D01*
X016000Y013676D01*
X015810Y013754D01*
X015604Y013754D01*
X015414Y013676D01*
X015269Y013530D01*
X015237Y013452D01*
X015193Y013557D01*
X015030Y013720D01*
X014821Y013807D01*
X014594Y013807D01*
X014384Y013720D01*
X014224Y013560D01*
X014219Y013548D01*
X014210Y013569D01*
X014041Y013737D01*
X013825Y013827D01*
X013590Y013827D01*
X013373Y013737D01*
X013207Y013571D01*
X013117Y013354D01*
X013117Y013120D01*
X013140Y013065D01*
X013140Y012246D01*
X013227Y012036D01*
X013387Y011876D01*
X014078Y011185D01*
X013723Y011185D01*
X013723Y010818D01*
X013568Y010818D01*
X013568Y011185D01*
X012939Y011185D01*
X012906Y011176D01*
X012877Y011159D01*
X012852Y011135D01*
X012835Y011105D01*
X012826Y011072D01*
X012826Y010818D01*
X013568Y010818D01*
X013568Y010663D01*
X012826Y010663D01*
X012826Y010408D01*
X012835Y010375D01*
X012852Y010346D01*
X012877Y010321D01*
X012906Y010304D01*
X012939Y010295D01*
X013568Y010295D01*
X013568Y010663D01*
X013723Y010663D01*
X013723Y010295D01*
X014240Y010295D01*
X014240Y009796D01*
X014327Y009586D01*
X014354Y009559D01*
X013650Y009559D01*
X013540Y009514D01*
X013456Y009429D01*
X013375Y009348D01*
X013361Y009315D01*
X012800Y008754D01*
X012604Y008754D01*
X012414Y008676D01*
X012269Y008530D01*
X012207Y008381D01*
X012146Y008530D01*
X012000Y008676D01*
X011810Y008754D01*
X011604Y008754D01*
X011414Y008676D01*
X011269Y008530D01*
X011264Y008519D02*
X011140Y008519D01*
X011140Y008497D02*
X011140Y008713D01*
X011131Y008746D01*
X011114Y008775D01*
X011089Y008799D01*
X011060Y008817D01*
X011027Y008825D01*
X010811Y008825D01*
X010811Y008497D01*
X010735Y008497D01*
X010735Y008825D01*
X010520Y008825D01*
X010487Y008817D01*
X010457Y008799D01*
X010433Y008775D01*
X010419Y008751D01*
X010386Y008831D01*
X010319Y008899D01*
X010231Y008935D01*
X009663Y008935D01*
X009574Y008899D01*
X009553Y008877D01*
X009287Y008877D01*
X009042Y008632D01*
X009042Y008286D01*
X009287Y008041D01*
X009553Y008041D01*
X009574Y008020D01*
X009663Y007983D01*
X010231Y007983D01*
X010319Y008020D01*
X010386Y008087D01*
X010419Y008167D01*
X010433Y008143D01*
X010457Y008119D01*
X010487Y008102D01*
X010520Y008093D01*
X010735Y008093D01*
X010735Y008421D01*
X010811Y008421D01*
X010811Y008093D01*
X011027Y008093D01*
X011060Y008102D01*
X011089Y008119D01*
X011114Y008143D01*
X011131Y008173D01*
X011140Y008206D01*
X011140Y008421D01*
X010812Y008421D01*
X010812Y008497D01*
X011140Y008497D01*
X011080Y008497D02*
X011080Y008421D01*
X011140Y008279D02*
X011190Y008279D01*
X011080Y008113D02*
X011080Y003179D01*
X011320Y003179D02*
X011320Y007893D01*
X011414Y007799D02*
X011604Y007720D01*
X011810Y007720D01*
X012000Y007799D01*
X012146Y007944D01*
X012207Y008093D01*
X012269Y007944D01*
X012414Y007799D01*
X012001Y007799D01*
X012040Y007839D02*
X012040Y003179D01*
X012204Y003179D02*
X010816Y003179D01*
X010747Y003345D01*
X010576Y003516D01*
X010351Y003609D01*
X010109Y003609D01*
X009884Y003516D01*
X009713Y003345D01*
X009620Y003121D01*
X009620Y002878D01*
X009713Y002654D01*
X009884Y002482D01*
X010109Y002389D01*
X010351Y002389D01*
X010576Y002482D01*
X010633Y002539D01*
X012387Y002539D01*
X012444Y002482D01*
X012669Y002389D01*
X012911Y002389D01*
X013136Y002482D01*
X013270Y002617D01*
X013270Y002075D01*
X013307Y001987D01*
X013374Y001920D01*
X013463Y001883D01*
X013684Y001883D01*
X013800Y001767D01*
X013800Y001725D01*
X013785Y001725D01*
X013785Y001397D01*
X013709Y001397D01*
X013709Y001725D01*
X013493Y001725D01*
X013460Y001717D01*
X013431Y001699D01*
X013406Y001675D01*
X013389Y001646D01*
X013380Y001613D01*
X013380Y001397D01*
X013708Y001397D01*
X013708Y001321D01*
X013380Y001321D01*
X013380Y001106D01*
X013389Y001073D01*
X013406Y001043D01*
X013431Y001019D01*
X013460Y001002D01*
X013493Y000993D01*
X013709Y000993D01*
X013709Y001321D01*
X013785Y001321D01*
X013785Y000993D01*
X014000Y000993D01*
X014033Y001002D01*
X014063Y001019D01*
X014087Y001043D01*
X014101Y001067D01*
X014134Y000987D01*
X014201Y000920D01*
X014289Y000883D01*
X014857Y000883D01*
X014946Y000920D01*
X015013Y000987D01*
X015050Y001075D01*
X015050Y001296D01*
X015431Y001678D01*
X015480Y001796D01*
X015480Y002477D01*
X015594Y002591D01*
X015847Y002337D01*
X015705Y002195D01*
X015623Y001997D01*
X015623Y001784D01*
X015705Y001587D01*
X015856Y001436D01*
X016053Y001354D01*
X016267Y001354D01*
X016464Y001436D01*
X016615Y001587D01*
X016660Y001695D01*
X016705Y001587D01*
X016856Y001436D01*
X017053Y001354D01*
X017267Y001354D01*
X017464Y001436D01*
X017570Y001541D01*
X017570Y001292D01*
X017660Y001075D01*
X018010Y000725D01*
X018056Y000679D01*
X006710Y000679D01*
X006745Y000691D01*
X006854Y000744D01*
X006956Y000808D01*
X007051Y000883D01*
X007136Y000969D01*
X007211Y001063D01*
X007275Y001165D01*
X007328Y001274D01*
X007368Y001388D01*
X007395Y001506D01*
X007406Y001606D01*
X006413Y001606D01*
X006413Y001766D01*
X007406Y001766D01*
X007395Y001866D01*
X007368Y001984D01*
X007328Y002098D01*
X007275Y002207D01*
X007211Y002309D01*
X007136Y002403D01*
X007125Y002414D01*
X007358Y002351D01*
X007670Y002351D01*
X007971Y002432D01*
X007923Y002383D01*
X007790Y002064D01*
X007790Y001718D01*
X007923Y001398D01*
X008167Y001153D01*
X008487Y001021D01*
X008833Y001021D01*
X009153Y001153D01*
X009397Y001398D01*
X009530Y001718D01*
X009530Y002064D01*
X009397Y002383D01*
X009153Y002628D01*
X008833Y002761D01*
X008487Y002761D01*
X008363Y002709D01*
X008462Y002809D01*
X008618Y003079D01*
X008699Y003380D01*
X008699Y003692D01*
X008618Y003994D01*
X008462Y004264D01*
X008242Y004484D01*
X008180Y004520D01*
X008180Y005589D01*
X008234Y005589D01*
X008240Y005574D01*
X008387Y005428D01*
X008578Y005349D01*
X008785Y005349D01*
X008976Y005428D01*
X009122Y005574D01*
X009181Y005717D01*
X009240Y005574D01*
X009387Y005428D01*
X009578Y005349D01*
X009785Y005349D01*
X009976Y005428D01*
X010122Y005574D01*
X010201Y005766D01*
X010201Y006532D01*
X010122Y006724D01*
X009976Y006870D01*
X009785Y006949D01*
X009578Y006949D01*
X009387Y006870D01*
X009240Y006724D01*
X009201Y006629D01*
X009201Y006841D01*
X009122Y007032D01*
X008430Y007725D01*
X008440Y007715D02*
X008440Y009704D01*
X008455Y009719D02*
X014272Y009719D01*
X014200Y009559D02*
X014200Y010295D01*
X014240Y010199D02*
X012290Y010199D01*
X012280Y010195D02*
X012280Y008541D01*
X012264Y008519D02*
X012150Y008519D01*
X012040Y008636D02*
X012040Y010185D01*
X011800Y010185D02*
X011800Y008754D01*
X011560Y008736D02*
X011560Y010185D01*
X011080Y010185D02*
X011080Y008805D01*
X011123Y008759D02*
X012805Y008759D01*
X012760Y008754D02*
X012760Y012833D01*
X012739Y012830D02*
X012803Y012840D01*
X012864Y012860D01*
X012921Y012889D01*
X012972Y012927D01*
X013018Y012972D01*
X013055Y013024D01*
X013085Y013081D01*
X013104Y013142D01*
X013114Y013205D01*
X013114Y013229D01*
X012716Y013229D01*
X012716Y013246D01*
X012699Y013246D01*
X012699Y013644D01*
X012675Y013644D01*
X012612Y013634D01*
X012551Y013614D01*
X012494Y013585D01*
X012442Y013548D01*
X012397Y013502D01*
X012359Y013451D01*
X012330Y013393D01*
X012310Y013332D01*
X012300Y013269D01*
X012300Y013246D01*
X012699Y013246D01*
X012699Y013229D01*
X012300Y013229D01*
X012300Y013205D01*
X012310Y013142D01*
X012330Y013081D01*
X012359Y013024D01*
X012397Y012972D01*
X012442Y012927D01*
X012494Y012889D01*
X012551Y012860D01*
X012612Y012840D01*
X012675Y012830D01*
X012699Y012830D01*
X012699Y013229D01*
X012716Y013229D01*
X012716Y012830D01*
X012739Y012830D01*
X012716Y012839D02*
X012699Y012839D01*
X012617Y012839D02*
X012180Y012839D01*
X012180Y012599D02*
X013140Y012599D01*
X013140Y012359D02*
X012180Y012359D01*
X012180Y012119D02*
X013192Y012119D01*
X013240Y012023D02*
X013240Y011185D01*
X013000Y011185D02*
X013000Y012954D01*
X013084Y013079D02*
X013134Y013079D01*
X013114Y013246D02*
X013114Y013269D01*
X013104Y013332D01*
X013085Y013393D01*
X013055Y013451D01*
X013018Y013502D01*
X012972Y013548D01*
X012921Y013585D01*
X012864Y013614D01*
X012803Y013634D01*
X012739Y013644D01*
X012716Y013644D01*
X012716Y013246D01*
X013114Y013246D01*
X013106Y013319D02*
X013117Y013319D01*
X013000Y013246D02*
X013000Y013229D01*
X012760Y013229D02*
X012760Y013246D01*
X012716Y013319D02*
X012699Y013319D01*
X012520Y013246D02*
X012520Y013229D01*
X012308Y013319D02*
X012224Y013319D01*
X012202Y013079D02*
X012331Y013079D01*
X012520Y012876D02*
X012520Y008719D01*
X013000Y008954D02*
X013000Y010295D01*
X012826Y010439D02*
X012448Y010439D01*
X012448Y010679D02*
X013568Y010679D01*
X013480Y010663D02*
X013480Y010818D01*
X013568Y010919D02*
X013723Y010919D01*
X013720Y010818D02*
X013720Y011543D01*
X013624Y011639D02*
X012180Y011639D01*
X012180Y011399D02*
X013864Y011399D01*
X013960Y011303D02*
X013960Y011185D01*
X013723Y011159D02*
X013568Y011159D01*
X013480Y011185D02*
X013480Y011783D01*
X013384Y011879D02*
X012180Y011879D01*
X012280Y011285D02*
X012280Y014232D01*
X012242Y014279D02*
X012133Y014279D01*
X012040Y014177D02*
X012040Y013636D01*
X012117Y013559D02*
X012458Y013559D01*
X012520Y013599D02*
X012520Y014066D01*
X012584Y014039D02*
X011791Y014039D01*
X011800Y014043D02*
X011800Y013754D01*
X011560Y013736D02*
X011560Y014049D01*
X011584Y014039D02*
X009715Y014039D01*
X009640Y014115D02*
X009640Y014341D01*
X009475Y014279D02*
X011242Y014279D01*
X011320Y014192D02*
X011320Y013581D01*
X011298Y013559D02*
X010356Y013559D01*
X010360Y013524D02*
X010360Y017192D01*
X010327Y017159D02*
X010618Y017159D01*
X010600Y017184D02*
X010600Y013524D01*
X010840Y013524D02*
X010840Y016501D01*
X011080Y016501D02*
X011080Y013524D01*
X010344Y013799D02*
X013522Y013799D01*
X013480Y013782D02*
X013480Y014082D01*
X013584Y014039D02*
X012791Y014039D01*
X012760Y014039D02*
X012760Y013641D01*
X012716Y013559D02*
X012699Y013559D01*
X012957Y013559D02*
X013202Y013559D01*
X013240Y013604D02*
X013240Y014285D01*
X013242Y014279D02*
X013133Y014279D01*
X013000Y014137D02*
X013000Y013520D01*
X012716Y013079D02*
X012699Y013079D01*
X012797Y012839D02*
X013140Y012839D01*
X013720Y013827D02*
X013720Y014039D01*
X013791Y014039D02*
X014584Y014039D01*
X014680Y014039D02*
X014680Y013807D01*
X014575Y013799D02*
X013892Y013799D01*
X013960Y013771D02*
X013960Y014109D01*
X014133Y014279D02*
X014242Y014279D01*
X014200Y014382D02*
X014200Y013579D01*
X014214Y013559D02*
X014224Y013559D01*
X014440Y013743D02*
X014440Y014099D01*
X014791Y014039D02*
X015584Y014039D01*
X015640Y014039D02*
X015640Y013754D01*
X015880Y013725D02*
X015880Y014076D01*
X015791Y014039D02*
X016584Y014039D01*
X016600Y014039D02*
X016600Y013752D01*
X016840Y013742D02*
X016840Y014059D01*
X016791Y014039D02*
X016890Y014039D01*
X016890Y013799D02*
X014840Y013799D01*
X014920Y013766D02*
X014920Y014093D01*
X015133Y014279D02*
X015242Y014279D01*
X015160Y014345D02*
X015160Y013590D01*
X015191Y013559D02*
X015298Y013559D01*
X015400Y013661D02*
X015400Y014115D01*
X016120Y014256D02*
X016120Y013556D01*
X016117Y013559D02*
X016298Y013559D01*
X016360Y013621D02*
X016360Y014152D01*
X017210Y013809D02*
X017210Y014959D01*
X017310Y015059D01*
X017310Y015936D01*
X017287Y015959D01*
X017310Y015982D01*
X017336Y016383D02*
X017310Y016409D01*
X017910Y015609D02*
X018060Y015635D01*
X017910Y015609D02*
X017910Y015109D01*
X018160Y014859D02*
X018160Y012609D01*
X018520Y012634D02*
X018520Y012758D01*
X018480Y012798D01*
X018480Y012899D01*
X018494Y012889D01*
X018551Y012860D01*
X018612Y012840D01*
X018675Y012830D01*
X018699Y012830D01*
X018699Y013229D01*
X018716Y013229D01*
X018716Y013246D01*
X018699Y013246D01*
X018699Y013644D01*
X018675Y013644D01*
X018612Y013634D01*
X018551Y013614D01*
X018494Y013585D01*
X018480Y013575D01*
X018480Y014082D01*
X018585Y014039D01*
X018790Y014039D01*
X018981Y014118D01*
X019126Y014263D01*
X019205Y014453D01*
X019205Y014659D01*
X019167Y014749D01*
X019309Y014749D01*
X019520Y014960D01*
X019520Y015258D01*
X019480Y015298D01*
X019480Y015920D01*
X019520Y015960D01*
X019520Y016258D01*
X019309Y016469D01*
X019020Y016469D01*
X019020Y016508D01*
X018809Y016719D01*
X018594Y016719D01*
X018680Y016755D01*
X018764Y016839D01*
X019964Y018039D01*
X019974Y018039D01*
X020091Y018088D01*
X020125Y018121D01*
X020560Y018121D01*
X020560Y016777D01*
X020237Y016777D01*
X019992Y016532D01*
X019992Y016186D01*
X020090Y016088D01*
X020090Y013280D01*
X019992Y013182D01*
X019992Y012836D01*
X020237Y012591D01*
X020560Y012591D01*
X020560Y012587D01*
X020438Y012465D01*
X020348Y012248D01*
X020348Y012013D01*
X020370Y011961D01*
X020370Y006892D01*
X020460Y006675D01*
X020626Y006509D01*
X021570Y005565D01*
X021570Y005208D01*
X021559Y005219D01*
X021261Y005219D01*
X021221Y005179D01*
X021096Y005179D01*
X020979Y005130D01*
X019817Y003969D01*
X019761Y003969D01*
X019550Y003758D01*
X019550Y003460D01*
X019761Y003249D01*
X019871Y003249D01*
X019680Y003058D01*
X019680Y002879D01*
X020140Y002879D01*
X020140Y002839D01*
X020180Y002839D01*
X020180Y002379D01*
X020359Y002379D01*
X020582Y002603D01*
X020847Y002337D01*
X020705Y002195D01*
X020623Y001997D01*
X020623Y001784D01*
X020679Y001649D01*
X020512Y001649D01*
X020525Y001667D01*
X020556Y001727D01*
X020576Y001791D01*
X020587Y001857D01*
X020587Y001872D01*
X020178Y001872D01*
X020178Y001909D01*
X020142Y001909D01*
X020142Y002318D01*
X020126Y002318D01*
X020060Y002307D01*
X019996Y002286D01*
X019936Y002256D01*
X019882Y002216D01*
X019834Y002169D01*
X019795Y002114D01*
X019764Y002055D01*
X019744Y001991D01*
X019733Y001924D01*
X019733Y001909D01*
X020142Y001909D01*
X020142Y001872D01*
X019733Y001872D01*
X019733Y001857D01*
X019744Y001791D01*
X019764Y001727D01*
X019795Y001667D01*
X019808Y001649D01*
X019512Y001649D01*
X019525Y001667D01*
X019556Y001727D01*
X019576Y001791D01*
X019587Y001857D01*
X019587Y001872D01*
X019178Y001872D01*
X019178Y001909D01*
X019142Y001909D01*
X019142Y002318D01*
X019126Y002318D01*
X019060Y002307D01*
X018996Y002286D01*
X018936Y002256D01*
X018882Y002216D01*
X018834Y002169D01*
X018795Y002114D01*
X018764Y002055D01*
X018750Y002010D01*
X018750Y002590D01*
X018961Y002379D01*
X019140Y002379D01*
X019140Y002839D01*
X019180Y002839D01*
X019180Y002379D01*
X019359Y002379D01*
X019640Y002660D01*
X019640Y002839D01*
X019180Y002839D01*
X019180Y002879D01*
X019640Y002879D01*
X019640Y003058D01*
X019359Y003339D01*
X019180Y003339D01*
X019180Y002879D01*
X019140Y002879D01*
X019140Y003339D01*
X018961Y003339D01*
X018738Y003116D01*
X018660Y003193D01*
X018660Y003193D01*
X018494Y003359D01*
X018480Y003374D01*
X018480Y003923D01*
X018431Y004040D01*
X018091Y004380D01*
X017974Y004429D01*
X017688Y004429D01*
X017688Y004705D01*
X017665Y004759D01*
X017688Y004814D01*
X017688Y004934D01*
X019003Y006249D01*
X019059Y006249D01*
X019270Y006460D01*
X019270Y006758D01*
X019059Y006969D01*
X018761Y006969D01*
X018550Y006758D01*
X018550Y006702D01*
X018480Y006632D01*
X018480Y007771D01*
X018604Y007720D01*
X018810Y007720D01*
X019000Y007799D01*
X019146Y007944D01*
X019224Y008134D01*
X019224Y008340D01*
X019146Y008530D01*
X019000Y008676D01*
X019000Y012954D01*
X019018Y012972D02*
X019055Y013024D01*
X019085Y013081D01*
X019104Y013142D01*
X019114Y013205D01*
X019114Y013229D01*
X018716Y013229D01*
X018716Y012830D01*
X018739Y012830D01*
X018803Y012840D01*
X018864Y012860D01*
X018921Y012889D01*
X018972Y012927D01*
X019018Y012972D01*
X019084Y013079D02*
X019992Y013079D01*
X019992Y012839D02*
X018797Y012839D01*
X018760Y012833D02*
X018760Y008754D01*
X018810Y008754D02*
X018604Y008754D01*
X018520Y008719D01*
X018520Y008896D01*
X018520Y008719D01*
X018520Y008759D02*
X020370Y008759D01*
X020370Y008519D02*
X019150Y008519D01*
X019000Y008676D02*
X018810Y008754D01*
X018617Y008976D02*
X018549Y008908D01*
X018520Y008896D01*
X018617Y008976D02*
X018654Y009064D01*
X018654Y009671D01*
X018624Y009741D01*
X018654Y009812D01*
X018654Y010419D01*
X018617Y010507D01*
X018549Y010575D01*
X018461Y010611D01*
X017775Y010611D01*
X017687Y010575D01*
X017625Y010513D01*
X017625Y011007D01*
X017617Y011025D01*
X017678Y011086D01*
X017678Y011432D01*
X017603Y011508D01*
X017625Y011561D01*
X017625Y011768D01*
X017692Y011701D01*
X017701Y011697D01*
X017698Y011685D01*
X017698Y011460D01*
X018075Y011460D01*
X018075Y011364D01*
X017698Y011364D01*
X017698Y011139D01*
X017707Y011106D01*
X017724Y011076D01*
X017748Y011052D01*
X017778Y011035D01*
X017811Y011026D01*
X018075Y011026D01*
X018075Y011364D01*
X018171Y011364D01*
X018171Y011026D01*
X018436Y011026D01*
X018469Y011035D01*
X018498Y011052D01*
X018523Y011076D01*
X018540Y011106D01*
X018549Y011139D01*
X018549Y011364D01*
X018171Y011364D01*
X018171Y011460D01*
X018549Y011460D01*
X018549Y011685D01*
X018545Y011697D01*
X018555Y011701D01*
X018622Y011768D01*
X018659Y011856D01*
X018659Y012464D01*
X018622Y012552D01*
X018555Y012619D01*
X018520Y012634D01*
X018520Y012876D01*
X018480Y012839D02*
X018617Y012839D01*
X018699Y012839D02*
X018716Y012839D01*
X018699Y013079D02*
X018716Y013079D01*
X018760Y013229D02*
X018760Y013246D01*
X018716Y013246D02*
X019114Y013246D01*
X019114Y013269D01*
X019104Y013332D01*
X019085Y013393D01*
X019055Y013451D01*
X019018Y013502D01*
X018972Y013548D01*
X018921Y013585D01*
X018864Y013614D01*
X018803Y013634D01*
X018739Y013644D01*
X018716Y013644D01*
X018716Y013246D01*
X018716Y013319D02*
X018699Y013319D01*
X018699Y013559D02*
X018716Y013559D01*
X018760Y013641D02*
X018760Y014039D01*
X018791Y014039D02*
X020090Y014039D01*
X020090Y013799D02*
X018480Y013799D01*
X018520Y013599D02*
X018520Y014066D01*
X018480Y014039D02*
X018584Y014039D01*
X019000Y014137D02*
X019000Y013520D01*
X018957Y013559D02*
X020090Y013559D01*
X020090Y013319D02*
X019106Y013319D01*
X019000Y013246D02*
X019000Y013229D01*
X018575Y012599D02*
X020229Y012599D01*
X020200Y012628D02*
X020200Y004352D01*
X020287Y004439D02*
X017688Y004439D01*
X017800Y004429D02*
X017800Y005047D01*
X017913Y005159D02*
X021048Y005159D01*
X021160Y005179D02*
X021160Y005975D01*
X021256Y005879D02*
X018633Y005879D01*
X018520Y005767D02*
X018520Y003334D01*
X018494Y003359D02*
X018494Y003359D01*
X018480Y003479D02*
X019550Y003479D01*
X019550Y003719D02*
X018480Y003719D01*
X018465Y003959D02*
X019751Y003959D01*
X019720Y003928D02*
X019720Y017795D01*
X019804Y017879D02*
X020560Y017879D01*
X020560Y017639D02*
X019564Y017639D01*
X019480Y017555D02*
X019480Y016298D01*
X019520Y016199D02*
X019992Y016199D01*
X019992Y016439D02*
X019339Y016439D01*
X019240Y016469D02*
X019240Y017315D01*
X019324Y017399D02*
X020560Y017399D01*
X020560Y017159D02*
X019084Y017159D01*
X019000Y017075D02*
X019000Y016528D01*
X018849Y016679D02*
X020139Y016679D01*
X020200Y016740D02*
X020200Y018121D01*
X020123Y018119D02*
X020560Y018119D01*
X020440Y018121D02*
X020440Y016777D01*
X020560Y016919D02*
X018844Y016919D01*
X018760Y016835D02*
X018760Y016719D01*
X018660Y016359D02*
X018660Y015359D01*
X018160Y014859D01*
X019160Y015109D02*
X019160Y016109D01*
X019480Y015920D02*
X019480Y015298D01*
X019520Y015239D02*
X020090Y015239D01*
X020090Y014999D02*
X019520Y014999D01*
X019480Y014920D02*
X019480Y003218D01*
X019459Y003239D02*
X019861Y003239D01*
X019720Y003290D02*
X019720Y003098D01*
X019680Y002999D02*
X019640Y002999D01*
X019720Y002879D02*
X019720Y002839D01*
X019680Y002839D02*
X019680Y002660D01*
X019961Y002379D01*
X020140Y002379D01*
X020140Y002839D01*
X019680Y002839D01*
X019680Y002759D02*
X019640Y002759D01*
X019720Y002620D02*
X019720Y001649D01*
X019742Y001799D02*
X019578Y001799D01*
X019587Y001909D02*
X019587Y001924D01*
X019576Y001991D01*
X019556Y002055D01*
X019525Y002114D01*
X019486Y002169D01*
X019438Y002216D01*
X019384Y002256D01*
X019324Y002286D01*
X019260Y002307D01*
X019194Y002318D01*
X019178Y002318D01*
X019178Y001909D01*
X019587Y001909D01*
X019480Y001909D02*
X019480Y001872D01*
X019561Y002039D02*
X019759Y002039D01*
X019960Y001909D02*
X019960Y001872D01*
X020178Y001909D02*
X020178Y002318D01*
X020194Y002318D01*
X020260Y002307D01*
X020324Y002286D01*
X020384Y002256D01*
X020438Y002216D01*
X020486Y002169D01*
X020525Y002114D01*
X020556Y002055D01*
X020576Y001991D01*
X020587Y001924D01*
X020587Y001909D01*
X020178Y001909D01*
X020200Y001909D02*
X020200Y001872D01*
X020178Y002039D02*
X020142Y002039D01*
X020142Y002279D02*
X020178Y002279D01*
X020200Y002317D02*
X020200Y002379D01*
X020180Y002519D02*
X020140Y002519D01*
X019960Y002380D02*
X019960Y002268D01*
X019982Y002279D02*
X019338Y002279D01*
X019240Y002310D02*
X019240Y002379D01*
X019178Y002279D02*
X019142Y002279D01*
X019000Y002288D02*
X019000Y002379D01*
X018982Y002279D02*
X018750Y002279D01*
X018760Y002041D02*
X018760Y002580D01*
X018750Y002519D02*
X018821Y002519D01*
X019140Y002519D02*
X019180Y002519D01*
X019180Y002759D02*
X019140Y002759D01*
X019240Y002839D02*
X019240Y002879D01*
X019180Y002999D02*
X019140Y002999D01*
X019140Y003239D02*
X019180Y003239D01*
X019240Y003339D02*
X019240Y006430D01*
X019169Y006359D02*
X020776Y006359D01*
X020680Y006455D02*
X020680Y004832D01*
X020767Y004919D02*
X017688Y004919D01*
X017688Y004679D02*
X020527Y004679D01*
X020440Y004592D02*
X020440Y006723D01*
X020392Y006839D02*
X019189Y006839D01*
X019240Y006788D02*
X019240Y014749D01*
X019319Y014759D02*
X020090Y014759D01*
X020090Y014519D02*
X019205Y014519D01*
X019133Y014279D02*
X020090Y014279D01*
X020090Y015479D02*
X019480Y015479D01*
X019480Y015719D02*
X020090Y015719D01*
X020090Y015959D02*
X019519Y015959D01*
X020410Y016359D02*
X020410Y013009D01*
X020440Y012591D02*
X020440Y012467D01*
X020394Y012359D02*
X018659Y012359D01*
X018659Y012119D02*
X020348Y012119D01*
X020370Y011879D02*
X018659Y011879D01*
X018549Y011639D02*
X020370Y011639D01*
X020370Y011399D02*
X018171Y011399D01*
X018075Y011399D02*
X017678Y011399D01*
X017800Y011364D02*
X017800Y011460D01*
X017698Y011639D02*
X017625Y011639D01*
X018040Y011460D02*
X018040Y011364D01*
X018075Y011159D02*
X018171Y011159D01*
X018280Y011026D02*
X018280Y010611D01*
X018040Y010611D02*
X018040Y011026D01*
X017800Y011029D02*
X017800Y010611D01*
X017625Y010679D02*
X020370Y010679D01*
X020370Y010439D02*
X018645Y010439D01*
X018520Y010587D02*
X018520Y011074D01*
X018549Y011159D02*
X020370Y011159D01*
X020370Y010919D02*
X017625Y010919D01*
X017678Y011159D02*
X017698Y011159D01*
X018280Y011364D02*
X018280Y011460D01*
X018520Y011460D02*
X018520Y011364D01*
X018654Y010199D02*
X020370Y010199D01*
X020370Y009959D02*
X018654Y009959D01*
X018634Y009719D02*
X020370Y009719D01*
X020370Y009479D02*
X018654Y009479D01*
X018654Y009239D02*
X020370Y009239D01*
X020370Y008999D02*
X018627Y008999D01*
X018160Y008859D02*
X018160Y006359D01*
X017410Y005609D01*
X017231Y005509D01*
X017410Y005109D02*
X017231Y005009D01*
X017410Y005109D02*
X018910Y006609D01*
X019270Y006599D02*
X020536Y006599D01*
X020370Y007079D02*
X018480Y007079D01*
X018480Y006839D02*
X018631Y006839D01*
X018760Y006968D02*
X018760Y007720D01*
X018520Y007755D02*
X018520Y006672D01*
X019000Y006969D02*
X019000Y007799D01*
X019001Y007799D02*
X020370Y007799D01*
X020370Y007559D02*
X018480Y007559D01*
X018480Y007319D02*
X020370Y007319D01*
X020370Y008039D02*
X019185Y008039D01*
X019224Y008279D02*
X020370Y008279D01*
X022560Y009759D02*
X022560Y012659D01*
X022160Y013059D01*
X022410Y013609D02*
X022410Y016109D01*
X023660Y017359D01*
X024160Y017359D02*
X024160Y017859D01*
X025160Y018859D01*
X024660Y017859D02*
X024660Y013609D01*
X025660Y013609D02*
X025660Y017609D01*
X036910Y006359D01*
X040410Y006359D01*
X040660Y006109D01*
X041160Y006109D01*
X041160Y005891D01*
X041160Y004891D02*
X041160Y004859D01*
X041660Y004359D01*
X041660Y003609D01*
X041410Y003359D01*
X039910Y003359D01*
X039660Y003609D01*
X034910Y003609D01*
X028160Y010359D01*
X028160Y010859D01*
X027910Y011109D01*
X027739Y011109D01*
X027160Y011109D01*
X027660Y011609D02*
X027739Y011609D01*
X027660Y011609D02*
X025660Y013609D01*
X027739Y012109D02*
X027910Y012109D01*
X028410Y012609D01*
X030160Y012609D01*
X037660Y005109D01*
X040160Y005109D01*
X040160Y004891D01*
X040653Y004679D02*
X040667Y004679D01*
X040660Y004695D02*
X040705Y004587D01*
X040856Y004436D01*
X041053Y004354D01*
X041213Y004354D01*
X041260Y004307D01*
X041194Y004318D01*
X041178Y004318D01*
X041178Y003909D01*
X041142Y003909D01*
X041142Y004318D01*
X041126Y004318D01*
X041060Y004307D01*
X040996Y004286D01*
X040936Y004256D01*
X040882Y004216D01*
X040834Y004169D01*
X040795Y004114D01*
X040764Y004055D01*
X040744Y003991D01*
X040733Y003924D01*
X040733Y003909D01*
X041142Y003909D01*
X041142Y003872D01*
X040733Y003872D01*
X040733Y003857D01*
X040744Y003791D01*
X040764Y003727D01*
X040789Y003679D01*
X040531Y003679D01*
X040556Y003727D01*
X040576Y003791D01*
X040587Y003857D01*
X040587Y003872D01*
X040178Y003872D01*
X040178Y003909D01*
X040142Y003909D01*
X040142Y004318D01*
X040126Y004318D01*
X040060Y004307D01*
X039996Y004286D01*
X039936Y004256D01*
X039882Y004216D01*
X039834Y004169D01*
X039795Y004114D01*
X039764Y004055D01*
X039744Y003991D01*
X039733Y003925D01*
X039724Y003929D01*
X035043Y003929D01*
X028750Y010222D01*
X028846Y010222D01*
X028934Y010258D01*
X029001Y010326D01*
X029038Y010414D01*
X029038Y010805D01*
X029001Y010893D01*
X028934Y010960D01*
X028928Y010963D01*
X028928Y011109D01*
X028581Y011109D01*
X028660Y011109D01*
X028660Y011609D01*
X028581Y011609D01*
X028235Y011609D01*
X028235Y011444D01*
X028244Y011411D01*
X028261Y011382D01*
X028283Y011359D01*
X028261Y011337D01*
X028244Y011307D01*
X028235Y011274D01*
X028235Y011237D01*
X028195Y011276D01*
X028195Y011305D01*
X028173Y011359D01*
X028195Y011414D01*
X028195Y011805D01*
X028173Y011859D01*
X028195Y011914D01*
X028195Y011942D01*
X028235Y011981D01*
X028235Y011944D01*
X028244Y011911D01*
X028261Y011882D01*
X028283Y011859D01*
X028261Y011837D01*
X028244Y011807D01*
X028235Y011774D01*
X028235Y011609D01*
X028581Y011609D01*
X028581Y011609D01*
X028581Y011609D01*
X028581Y011109D01*
X028581Y011109D01*
X028581Y011109D01*
X028581Y011332D01*
X028581Y011609D01*
X028581Y012109D01*
X028581Y012109D01*
X028581Y011887D01*
X028581Y011609D01*
X028581Y011609D01*
X028581Y011609D01*
X028928Y011609D01*
X028928Y011444D01*
X028919Y011411D01*
X028902Y011382D01*
X028879Y011359D01*
X028902Y011337D01*
X028919Y011307D01*
X028928Y011274D01*
X028928Y011109D01*
X028581Y011109D01*
X028600Y011109D02*
X028600Y011109D01*
X028581Y011159D02*
X028581Y011159D01*
X028581Y011399D02*
X028581Y011399D01*
X028581Y011609D02*
X028928Y011609D01*
X028928Y011774D01*
X028919Y011807D01*
X028902Y011837D01*
X028879Y011859D01*
X028902Y011882D01*
X028919Y011911D01*
X028928Y011944D01*
X028928Y012109D01*
X028581Y012109D01*
X028660Y012109D01*
X028660Y011609D01*
X028600Y011609D02*
X028600Y011609D01*
X028581Y011639D02*
X028581Y011639D01*
X028360Y011609D02*
X028360Y011609D01*
X028235Y011639D02*
X028195Y011639D01*
X028189Y011399D02*
X028251Y011399D01*
X028263Y011879D02*
X028181Y011879D01*
X028581Y011879D02*
X028581Y011879D01*
X028581Y012109D02*
X028581Y012109D01*
X028928Y012109D01*
X028928Y012274D01*
X028924Y012289D01*
X030027Y012289D01*
X037389Y004928D01*
X037389Y004928D01*
X037479Y004838D01*
X037596Y004789D01*
X039623Y004789D01*
X039623Y004784D01*
X039705Y004587D01*
X039856Y004436D01*
X040053Y004354D01*
X040267Y004354D01*
X040464Y004436D01*
X040615Y004587D01*
X040660Y004695D01*
X040600Y004571D02*
X040600Y003679D01*
X040552Y003719D02*
X040768Y003719D01*
X040840Y003872D02*
X040840Y003909D01*
X040739Y003959D02*
X040581Y003959D01*
X040576Y003991D02*
X040556Y004055D01*
X040525Y004114D01*
X040486Y004169D01*
X040438Y004216D01*
X040384Y004256D01*
X040324Y004286D01*
X040260Y004307D01*
X040194Y004318D01*
X040178Y004318D01*
X040178Y003909D01*
X040587Y003909D01*
X040587Y003924D01*
X040576Y003991D01*
X040360Y003909D02*
X040360Y003872D01*
X040178Y003959D02*
X040142Y003959D01*
X040142Y004199D02*
X040178Y004199D01*
X040120Y004317D02*
X040120Y004354D01*
X040360Y004392D02*
X040360Y004268D01*
X040455Y004199D02*
X040865Y004199D01*
X040840Y004174D02*
X040840Y004451D01*
X040852Y004439D02*
X040468Y004439D01*
X041080Y004354D02*
X041080Y004310D01*
X041142Y004199D02*
X041178Y004199D01*
X041178Y003959D02*
X041142Y003959D01*
X041080Y003909D02*
X041080Y003872D01*
X039880Y004214D02*
X039880Y004426D01*
X039852Y004439D02*
X034533Y004439D01*
X034600Y004372D02*
X034600Y007717D01*
X034517Y007799D02*
X031173Y007799D01*
X031240Y007732D02*
X031240Y011077D01*
X031157Y011159D02*
X028928Y011159D01*
X028840Y011109D02*
X028840Y011109D01*
X028975Y010919D02*
X031397Y010919D01*
X031480Y010837D02*
X031480Y007492D01*
X031413Y007559D02*
X034757Y007559D01*
X034840Y007477D02*
X034840Y004132D01*
X034773Y004199D02*
X039865Y004199D01*
X039739Y003959D02*
X035013Y003959D01*
X035080Y003929D02*
X035080Y007237D01*
X034997Y007319D02*
X031653Y007319D01*
X031720Y007252D02*
X031720Y010597D01*
X031637Y010679D02*
X029038Y010679D01*
X029038Y010439D02*
X031877Y010439D01*
X031960Y010357D02*
X031960Y007012D01*
X031893Y007079D02*
X035237Y007079D01*
X035320Y006997D02*
X035320Y003929D01*
X035560Y003929D02*
X035560Y006757D01*
X035477Y006839D02*
X032133Y006839D01*
X032200Y006772D02*
X032200Y010117D01*
X032117Y010199D02*
X028773Y010199D01*
X028840Y010222D02*
X028840Y010132D01*
X029013Y009959D02*
X032357Y009959D01*
X032440Y009877D02*
X032440Y006532D01*
X032373Y006599D02*
X035717Y006599D01*
X035800Y006517D02*
X035800Y003929D01*
X036040Y003929D02*
X036040Y006277D01*
X035957Y006359D02*
X032613Y006359D01*
X032680Y006292D02*
X032680Y009637D01*
X032597Y009719D02*
X029253Y009719D01*
X029320Y009652D02*
X029320Y012289D01*
X029560Y012289D02*
X029560Y009412D01*
X029493Y009479D02*
X032837Y009479D01*
X032920Y009397D02*
X032920Y006052D01*
X032853Y006119D02*
X036197Y006119D01*
X036280Y006037D02*
X036280Y003929D01*
X036520Y003929D02*
X036520Y005797D01*
X036437Y005879D02*
X033093Y005879D01*
X033160Y005812D02*
X033160Y009157D01*
X033077Y009239D02*
X029733Y009239D01*
X029800Y009172D02*
X029800Y012289D01*
X030040Y012277D02*
X030040Y008932D01*
X029973Y008999D02*
X033317Y008999D01*
X033400Y008917D02*
X033400Y005572D01*
X033333Y005639D02*
X036677Y005639D01*
X036760Y005557D02*
X036760Y003929D01*
X037000Y003929D02*
X037000Y005317D01*
X036917Y005399D02*
X033573Y005399D01*
X033640Y005332D02*
X033640Y008677D01*
X033557Y008759D02*
X030213Y008759D01*
X030280Y008692D02*
X030280Y012037D01*
X030197Y012119D02*
X028928Y012119D01*
X028840Y012109D02*
X028840Y012109D01*
X028899Y011879D02*
X030437Y011879D01*
X030520Y011797D02*
X030520Y008452D01*
X030453Y008519D02*
X033797Y008519D01*
X033880Y008437D02*
X033880Y005092D01*
X033813Y005159D02*
X037157Y005159D01*
X037240Y005077D02*
X037240Y003929D01*
X037480Y003929D02*
X037480Y004837D01*
X037397Y004919D02*
X034053Y004919D01*
X034120Y004852D02*
X034120Y008197D01*
X034037Y008279D02*
X030693Y008279D01*
X030760Y008212D02*
X030760Y011557D01*
X030677Y011639D02*
X028928Y011639D01*
X028840Y011609D02*
X028840Y011609D01*
X028912Y011399D02*
X030917Y011399D01*
X031000Y011317D02*
X031000Y007972D01*
X030933Y008039D02*
X034277Y008039D01*
X034360Y007957D02*
X034360Y004612D01*
X034293Y004679D02*
X039667Y004679D01*
X039640Y004743D02*
X039640Y003929D01*
X039400Y003929D02*
X039400Y004789D01*
X039160Y004789D02*
X039160Y003929D01*
X038920Y003929D02*
X038920Y004789D01*
X038680Y004789D02*
X038680Y003929D01*
X038440Y003929D02*
X038440Y004789D01*
X038200Y004789D02*
X038200Y003929D01*
X037960Y003929D02*
X037960Y004789D01*
X037720Y004789D02*
X037720Y003929D01*
X039160Y007359D02*
X038660Y007859D01*
X038660Y007909D01*
X039160Y008359D02*
X038660Y008859D01*
X038660Y008909D01*
X039160Y009359D02*
X038660Y009859D01*
X038660Y009909D01*
X039160Y009359D02*
X040660Y009359D01*
X041160Y009859D01*
X041160Y009891D01*
X040660Y010359D02*
X041160Y010859D01*
X041160Y010891D01*
X041410Y011359D02*
X042160Y012109D01*
X042160Y019109D01*
X041660Y019609D01*
X038910Y018109D02*
X035910Y015109D01*
X035910Y014609D01*
X035410Y015609D02*
X034581Y015609D01*
X036660Y016859D02*
X037660Y017859D01*
X037660Y019359D02*
X037660Y022609D01*
X034660Y025609D01*
X034660Y027109D01*
X034160Y027609D01*
X034160Y029109D01*
X034393Y029513D02*
X034840Y029513D01*
X034600Y029513D02*
X034600Y030133D01*
X033640Y029929D02*
X033640Y030539D01*
X033400Y030539D02*
X033400Y029929D01*
X033160Y029929D02*
X033160Y030539D01*
X032920Y030539D02*
X032920Y029929D01*
X033617Y028973D02*
X033617Y028952D01*
X032617Y027973D02*
X032410Y027859D01*
X034160Y026109D01*
X034160Y025109D01*
X033660Y024609D01*
X033581Y024609D01*
X033581Y024109D02*
X034160Y024109D01*
X034160Y023609D02*
X033581Y023609D01*
X033160Y023859D02*
X032910Y024109D01*
X032739Y024109D01*
X032739Y023609D02*
X032910Y023609D01*
X033910Y022609D01*
X034660Y022609D01*
X035160Y022109D01*
X035160Y021909D01*
X033660Y022109D02*
X031660Y024109D01*
X033410Y025109D02*
X033581Y025109D01*
X033410Y025109D02*
X033410Y026109D01*
X031660Y027859D01*
X031617Y027973D01*
X035160Y028359D02*
X035160Y025609D01*
X037160Y023609D01*
X037739Y023609D01*
X037739Y024109D02*
X037160Y024109D01*
X037160Y024609D02*
X037739Y024609D01*
X041560Y024333D02*
X041560Y031535D01*
X042210Y030839D02*
X036091Y030839D01*
X036091Y030599D02*
X042210Y030599D01*
X042210Y027959D02*
X041157Y027959D01*
X037000Y029354D02*
X037000Y031535D01*
X035800Y031535D02*
X035800Y031194D01*
X035560Y031194D02*
X035560Y031535D01*
X035320Y031535D02*
X035320Y031194D01*
X035080Y031194D02*
X035080Y031535D01*
X035595Y028995D02*
X035617Y028973D01*
X033660Y022109D02*
X033660Y017859D01*
X032660Y017859D02*
X032660Y020359D01*
X033160Y020859D01*
X033160Y020891D01*
X026160Y019859D02*
X026160Y017609D01*
X030160Y013609D01*
X031660Y013109D02*
X031660Y015359D01*
X031660Y015859D02*
X033660Y013859D01*
X033660Y012109D01*
X033739Y012109D01*
X033739Y011609D02*
X033660Y011609D01*
X033160Y012109D01*
X033660Y011109D02*
X031660Y013109D01*
X029080Y012289D02*
X029080Y009892D01*
X028600Y012109D02*
X028600Y012109D01*
X024160Y015359D02*
X023660Y015859D01*
X022910Y016109D02*
X024160Y017359D01*
X025660Y017609D02*
X025660Y026859D01*
X023080Y027039D02*
X023080Y024469D01*
X022901Y024359D02*
X022863Y024359D01*
X022840Y024382D02*
X022840Y027039D01*
X022617Y028973D02*
X022625Y028982D01*
X023080Y029274D02*
X023080Y030404D01*
X022410Y030859D02*
X022410Y031359D01*
X009410Y031359D01*
X007160Y029109D01*
X007113Y028406D02*
X008110Y027409D01*
X007480Y027587D02*
X007480Y024696D01*
X007520Y024599D02*
X007940Y024599D01*
X006280Y025146D02*
X006280Y026277D01*
X006091Y026088D02*
X005974Y026039D01*
X005800Y026039D02*
X005800Y025929D01*
X005560Y025929D02*
X005560Y026039D01*
X005320Y026039D02*
X005320Y025929D01*
X005080Y025929D02*
X005080Y026039D01*
X004660Y025859D02*
X004660Y025609D01*
X005910Y025609D01*
X006040Y025317D02*
X006040Y025215D01*
X005800Y025285D02*
X005800Y025289D01*
X004660Y025609D02*
X004410Y025609D01*
X004160Y025359D01*
X004160Y020359D01*
X005410Y020359D01*
X005660Y020609D01*
X005910Y020609D01*
X006660Y019859D01*
X007000Y020472D02*
X007000Y020819D01*
X006760Y020853D02*
X006760Y020712D01*
X006713Y020759D02*
X008290Y020759D01*
X008372Y020519D02*
X006953Y020519D01*
X006520Y020952D02*
X006520Y021015D01*
X006536Y020999D02*
X006473Y020999D01*
X005660Y020109D02*
X005660Y007109D01*
X005910Y006850D02*
X005809Y006749D01*
X005511Y006749D01*
X005300Y006960D01*
X005300Y007258D01*
X005340Y007298D01*
X005340Y007422D01*
X005296Y007378D01*
X005208Y007341D01*
X004312Y007341D01*
X004224Y007378D01*
X004157Y007445D01*
X004120Y007533D01*
X004120Y007559D02*
X003480Y007559D01*
X003480Y007319D02*
X005340Y007319D01*
X005320Y007278D02*
X005320Y007402D01*
X005080Y007341D02*
X005080Y006647D01*
X005320Y006629D02*
X005320Y006940D01*
X005300Y007079D02*
X003480Y007079D01*
X003480Y006839D02*
X005421Y006839D01*
X005560Y006749D02*
X005560Y006629D01*
X005800Y006629D02*
X005800Y006749D01*
X005899Y006839D02*
X005921Y006839D01*
X006040Y006749D02*
X006040Y006629D01*
X006280Y006629D02*
X006280Y006749D01*
X006399Y006839D02*
X006550Y006839D01*
X006520Y006629D02*
X006520Y007517D01*
X006563Y007559D02*
X007390Y007559D01*
X007390Y007799D02*
X006730Y007799D01*
X006760Y007972D02*
X006760Y007218D01*
X006621Y007079D02*
X006520Y007079D01*
X006480Y007319D02*
X007426Y007319D01*
X007480Y007204D02*
X007480Y006629D01*
X007240Y006629D02*
X007240Y006680D01*
X007270Y006839D02*
X007845Y006839D01*
X007960Y006724D02*
X007960Y006629D01*
X007720Y006629D02*
X007720Y006964D01*
X007605Y007079D02*
X007199Y007079D01*
X007240Y007038D02*
X007240Y008005D01*
X007306Y008039D02*
X007390Y008039D01*
X007000Y007938D02*
X007000Y007219D01*
X008595Y007559D02*
X012869Y007559D01*
X012937Y007627D02*
X012692Y007382D01*
X012692Y007036D01*
X012937Y006791D01*
X013283Y006791D01*
X013381Y006889D01*
X014050Y006889D01*
X014050Y006710D01*
X014090Y006670D01*
X014090Y004670D01*
X014087Y004675D01*
X014063Y004699D01*
X014033Y004717D01*
X014000Y004725D01*
X013785Y004725D01*
X013785Y004397D01*
X013709Y004397D01*
X013709Y004725D01*
X013493Y004725D01*
X013460Y004717D01*
X013431Y004699D01*
X013406Y004675D01*
X013389Y004646D01*
X013380Y004613D01*
X013380Y004397D01*
X013708Y004397D01*
X013708Y004321D01*
X013380Y004321D01*
X013380Y004106D01*
X013389Y004073D01*
X013406Y004043D01*
X013431Y004019D01*
X013460Y004002D01*
X013493Y003993D01*
X013709Y003993D01*
X013709Y004321D01*
X013785Y004321D01*
X013785Y003993D01*
X013841Y003993D01*
X013684Y003835D01*
X013463Y003835D01*
X013374Y003799D01*
X013307Y003731D01*
X013270Y003643D01*
X013270Y003381D01*
X013136Y003516D01*
X012911Y003609D01*
X012669Y003609D01*
X012444Y003516D01*
X012273Y003345D01*
X012204Y003179D01*
X012229Y003239D02*
X010791Y003239D01*
X010840Y003179D02*
X010840Y008093D01*
X010910Y008109D02*
X010910Y008359D01*
X010810Y008459D01*
X010773Y008459D01*
X010735Y008519D02*
X010811Y008519D01*
X010840Y008497D02*
X010840Y008421D01*
X010811Y008279D02*
X010735Y008279D01*
X010600Y008093D02*
X010600Y003492D01*
X010613Y003479D02*
X012407Y003479D01*
X012520Y003548D02*
X012520Y007755D01*
X012604Y007720D02*
X012810Y007720D01*
X013000Y007799D01*
X013146Y007944D01*
X013207Y008093D01*
X013269Y007944D01*
X013414Y007799D01*
X013001Y007799D01*
X013000Y007799D02*
X013000Y007627D01*
X012937Y007627D02*
X013283Y007627D01*
X013381Y007529D01*
X015040Y007529D01*
X015040Y007602D01*
X015077Y007690D01*
X015144Y007758D01*
X015232Y007794D01*
X015425Y007794D01*
X015414Y007799D01*
X015001Y007799D01*
X015000Y007799D02*
X015146Y007944D01*
X015207Y008093D01*
X015269Y007944D01*
X015414Y007799D01*
X015400Y007794D02*
X015400Y007813D01*
X015160Y007764D02*
X015160Y007979D01*
X015185Y008039D02*
X015229Y008039D01*
X015000Y007799D02*
X014810Y007720D01*
X014604Y007720D01*
X014414Y007799D01*
X014001Y007799D01*
X014000Y007799D02*
X014146Y007944D01*
X014207Y008093D01*
X014269Y007944D01*
X014414Y007799D01*
X014440Y007788D02*
X014440Y007529D01*
X014200Y007529D02*
X014200Y008075D01*
X014185Y008039D02*
X014229Y008039D01*
X014000Y007799D02*
X013810Y007720D01*
X013604Y007720D01*
X013414Y007799D01*
X013480Y007771D02*
X013480Y007529D01*
X013351Y007559D02*
X015040Y007559D01*
X014920Y007529D02*
X014920Y007765D01*
X014680Y007720D02*
X014680Y007529D01*
X015436Y007209D02*
X015536Y007259D01*
X015436Y007209D02*
X013110Y007209D01*
X012760Y006968D02*
X012760Y003609D01*
X013000Y003572D02*
X013000Y006791D01*
X012889Y006839D02*
X010006Y006839D01*
X009880Y006909D02*
X009880Y007983D01*
X010120Y007983D02*
X010120Y006726D01*
X010174Y006599D02*
X014090Y006599D01*
X014090Y006359D02*
X010201Y006359D01*
X010201Y006119D02*
X014090Y006119D01*
X014090Y005879D02*
X010201Y005879D01*
X010149Y005639D02*
X014090Y005639D01*
X014090Y005399D02*
X009906Y005399D01*
X009880Y005388D02*
X009880Y003512D01*
X009847Y003479D02*
X008699Y003479D01*
X008680Y003309D02*
X008680Y002761D01*
X008836Y002759D02*
X009669Y002759D01*
X009640Y002830D02*
X009640Y000679D01*
X009400Y000679D02*
X009400Y001404D01*
X009319Y001319D02*
X009740Y001319D01*
X009742Y001336D02*
X009730Y001259D01*
X009730Y001239D01*
X010210Y001239D01*
X010210Y001199D01*
X010250Y001199D01*
X010250Y000719D01*
X010269Y000719D01*
X010347Y000731D01*
X010422Y000756D01*
X010492Y000792D01*
X010556Y000838D01*
X010611Y000893D01*
X010658Y000957D01*
X010693Y001027D01*
X010718Y001102D01*
X010730Y001180D01*
X010730Y001199D01*
X010250Y001199D01*
X010250Y001239D01*
X010730Y001239D01*
X010730Y001259D01*
X010718Y001336D01*
X010693Y001411D01*
X010658Y001481D01*
X010611Y001545D01*
X010556Y001601D01*
X010492Y001647D01*
X010422Y001683D01*
X010347Y001707D01*
X010269Y001719D01*
X010250Y001719D01*
X010250Y001239D01*
X010210Y001239D01*
X010210Y001719D01*
X010191Y001719D01*
X010113Y001707D01*
X010038Y001683D01*
X009968Y001647D01*
X009904Y001601D01*
X009849Y001545D01*
X009802Y001481D01*
X009767Y001411D01*
X009742Y001336D01*
X009730Y001199D02*
X009730Y001180D01*
X009742Y001102D01*
X009767Y001027D01*
X009802Y000957D01*
X009849Y000893D01*
X009904Y000838D01*
X009968Y000792D01*
X010038Y000756D01*
X010113Y000731D01*
X010191Y000719D01*
X010210Y000719D01*
X010210Y001199D01*
X009730Y001199D01*
X009750Y001079D02*
X008974Y001079D01*
X008920Y001057D02*
X008920Y000679D01*
X009160Y000679D02*
X009160Y001160D01*
X008680Y001021D02*
X008680Y000679D01*
X008440Y000679D02*
X008440Y001040D01*
X008346Y001079D02*
X007221Y001079D01*
X007240Y001109D02*
X007240Y000679D01*
X007480Y000679D02*
X007480Y002351D01*
X007720Y002365D02*
X007720Y000679D01*
X007960Y000679D02*
X007960Y001360D01*
X008001Y001319D02*
X007344Y001319D01*
X007401Y001559D02*
X007856Y001559D01*
X007790Y001799D02*
X007402Y001799D01*
X007240Y001766D02*
X007240Y001606D01*
X007000Y001606D02*
X007000Y001766D01*
X006760Y001766D02*
X006760Y001606D01*
X006520Y001606D02*
X006520Y001766D01*
X006413Y001799D02*
X006253Y001799D01*
X006280Y001766D02*
X006280Y005589D01*
X007140Y005159D02*
X005036Y005159D01*
X005080Y005127D02*
X005080Y005488D01*
X005241Y004919D02*
X007140Y004919D01*
X008180Y004919D02*
X014090Y004919D01*
X013960Y004725D02*
X013960Y006889D01*
X014050Y006839D02*
X013331Y006839D01*
X013240Y006791D02*
X013240Y003412D01*
X013270Y003479D02*
X013173Y003479D01*
X013302Y003719D02*
X008692Y003719D01*
X008680Y003764D02*
X008680Y005349D01*
X008457Y005399D02*
X008180Y005399D01*
X008200Y005589D02*
X008200Y004509D01*
X008287Y004439D02*
X013380Y004439D01*
X013480Y004397D02*
X013480Y004321D01*
X013380Y004199D02*
X008500Y004199D01*
X008440Y004286D02*
X008440Y005406D01*
X008180Y005159D02*
X014090Y005159D01*
X014083Y004679D02*
X014090Y004679D01*
X013785Y004679D02*
X013709Y004679D01*
X013480Y004722D02*
X013480Y006889D01*
X013720Y006889D02*
X013720Y004397D01*
X013709Y004439D02*
X013785Y004439D01*
X013720Y004321D02*
X013720Y003872D01*
X013807Y003959D02*
X008628Y003959D01*
X008180Y004679D02*
X013410Y004679D01*
X013709Y004199D02*
X013785Y004199D01*
X013480Y003997D02*
X013480Y003835D01*
X013660Y003359D02*
X013747Y003359D01*
X013660Y003359D02*
X014160Y003859D01*
X014910Y003859D01*
X015160Y004109D01*
X015160Y004859D01*
X015910Y005609D01*
X016410Y005609D01*
X016389Y005509D01*
X016410Y005109D02*
X015910Y005109D01*
X016389Y005009D02*
X016410Y005109D01*
X016410Y004609D02*
X016389Y004509D01*
X016410Y004609D02*
X015910Y004609D01*
X015660Y004109D02*
X017160Y004109D01*
X017231Y004180D01*
X017231Y004509D01*
X017160Y004109D02*
X017910Y004109D01*
X018160Y003859D01*
X018160Y002859D01*
X018614Y003239D02*
X018861Y003239D01*
X018760Y003138D02*
X018760Y006007D01*
X018873Y006119D02*
X021016Y006119D01*
X020920Y006215D02*
X020920Y005072D01*
X021160Y004859D02*
X019910Y003609D01*
X020140Y003330D02*
X020270Y003460D01*
X020270Y003517D01*
X021257Y004503D01*
X021261Y004499D01*
X021559Y004499D01*
X021570Y004510D01*
X021570Y003284D01*
X021404Y003449D01*
X020916Y003449D01*
X020582Y003116D01*
X020359Y003339D01*
X020180Y003339D01*
X020180Y002879D01*
X020140Y002879D01*
X020140Y003330D01*
X020200Y003339D02*
X020200Y003390D01*
X020270Y003479D02*
X021570Y003479D01*
X021400Y003449D02*
X021400Y004499D01*
X021570Y004439D02*
X021193Y004439D01*
X021160Y004407D02*
X021160Y003449D01*
X020920Y003449D02*
X020920Y004167D01*
X020953Y004199D02*
X021570Y004199D01*
X021570Y003959D02*
X020713Y003959D01*
X020680Y003927D02*
X020680Y003214D01*
X020706Y003239D02*
X020459Y003239D01*
X020440Y003258D02*
X020440Y003687D01*
X020473Y003719D02*
X021570Y003719D01*
X021410Y004859D02*
X021160Y004859D01*
X021400Y005219D02*
X021400Y005735D01*
X021496Y005639D02*
X018393Y005639D01*
X018280Y005527D02*
X018280Y004192D01*
X018273Y004199D02*
X020047Y004199D01*
X019960Y004112D02*
X019960Y018035D01*
X019910Y018359D02*
X019885Y018384D01*
X019910Y018359D02*
X020160Y018609D01*
X020160Y022109D01*
X019660Y022609D01*
X019160Y022609D01*
X018160Y023609D01*
X018160Y024109D01*
X017910Y024359D01*
X017910Y025109D01*
X017837Y025259D01*
X019410Y024859D02*
X019460Y024909D01*
X019410Y024859D02*
X021910Y024859D01*
X024660Y022109D01*
X025160Y022109D01*
X025160Y021909D01*
X025160Y020891D01*
X025160Y020359D02*
X020660Y020359D01*
X019840Y020426D02*
X019840Y018769D01*
X019801Y018753D01*
X019711Y018663D01*
X019709Y018658D01*
X019704Y018655D01*
X019614Y018565D01*
X019594Y018517D01*
X018386Y017309D01*
X017674Y017309D01*
X017667Y017325D01*
X017705Y017363D01*
X017715Y017358D01*
X017748Y017349D01*
X018012Y017349D01*
X018012Y017687D01*
X018108Y017687D01*
X018108Y017349D01*
X018372Y017349D01*
X018405Y017358D01*
X018435Y017375D01*
X018459Y017399D01*
X018476Y017399D01*
X018459Y017399D02*
X018476Y017429D01*
X018485Y017462D01*
X018485Y017687D01*
X018108Y017687D01*
X018108Y017783D01*
X018485Y017783D01*
X018485Y018008D01*
X018482Y018020D01*
X018491Y018024D01*
X018559Y018091D01*
X018595Y018180D01*
X018595Y018787D01*
X018559Y018875D01*
X018491Y018943D01*
X018403Y018979D01*
X017717Y018979D01*
X017629Y018943D01*
X017561Y018875D01*
X017534Y018809D01*
X016950Y018809D01*
X016840Y018764D01*
X016756Y018679D01*
X016656Y018579D01*
X016652Y018570D01*
X016591Y018630D01*
X016480Y018742D01*
X016480Y019082D01*
X016585Y019039D01*
X016790Y019039D01*
X016981Y019118D01*
X017126Y019263D01*
X017188Y019412D01*
X017249Y019263D01*
X017395Y019118D01*
X017585Y019039D01*
X017790Y019039D01*
X017981Y019118D01*
X018126Y019263D01*
X018205Y019453D01*
X018205Y019659D01*
X018126Y019849D01*
X017981Y019994D01*
X017790Y020073D01*
X017585Y020073D01*
X017395Y019994D01*
X017249Y019849D01*
X017188Y019700D01*
X017126Y019849D01*
X016981Y019994D01*
X016790Y020073D01*
X016585Y020073D01*
X016442Y020014D01*
X016431Y020040D01*
X016341Y020130D01*
X016091Y020380D01*
X015974Y020429D01*
X015849Y020429D01*
X015864Y020436D01*
X016015Y020587D01*
X016060Y020695D01*
X016105Y020587D01*
X016256Y020436D01*
X016453Y020354D01*
X016667Y020354D01*
X016864Y020436D01*
X017015Y020587D01*
X017060Y020695D01*
X017105Y020587D01*
X017256Y020436D01*
X017453Y020354D01*
X017667Y020354D01*
X017864Y020436D01*
X018015Y020587D01*
X018060Y020695D01*
X018105Y020587D01*
X018256Y020436D01*
X018453Y020354D01*
X018667Y020354D01*
X018864Y020436D01*
X019015Y020587D01*
X019060Y020695D01*
X019105Y020587D01*
X019256Y020436D01*
X019453Y020354D01*
X019667Y020354D01*
X019840Y020426D01*
X019720Y020376D02*
X019720Y018672D01*
X019647Y018599D02*
X018595Y018599D01*
X018595Y018359D02*
X019436Y018359D01*
X019480Y018403D02*
X019480Y020354D01*
X019240Y020451D02*
X019240Y018163D01*
X019196Y018119D02*
X018570Y018119D01*
X018520Y018053D02*
X018520Y017443D01*
X018485Y017639D02*
X018716Y017639D01*
X018760Y017683D02*
X018760Y019155D01*
X018783Y019159D02*
X018844Y019179D01*
X018901Y019208D01*
X018953Y019245D01*
X018998Y019291D01*
X019036Y019343D01*
X019065Y019400D01*
X019085Y019461D01*
X019095Y019524D01*
X019095Y019547D01*
X018696Y019547D01*
X018696Y019149D01*
X018720Y019149D01*
X018783Y019159D01*
X018679Y019149D02*
X018679Y019547D01*
X018696Y019547D01*
X018696Y019565D01*
X018679Y019565D01*
X018679Y019963D01*
X018656Y019963D01*
X018592Y019953D01*
X018531Y019933D01*
X018474Y019904D01*
X018422Y019867D01*
X018377Y019821D01*
X018339Y019769D01*
X018310Y019712D01*
X018290Y019651D01*
X018280Y019588D01*
X018280Y019565D01*
X018679Y019565D01*
X018679Y019547D01*
X018280Y019547D01*
X018280Y019524D01*
X018290Y019461D01*
X018310Y019400D01*
X018339Y019343D01*
X018377Y019291D01*
X018422Y019245D01*
X018474Y019208D01*
X018531Y019179D01*
X018592Y019159D01*
X018656Y019149D01*
X018679Y019149D01*
X018520Y019184D02*
X018520Y018914D01*
X018574Y018839D02*
X019840Y018839D01*
X019840Y019079D02*
X017888Y019079D01*
X017800Y019043D02*
X017800Y018979D01*
X018040Y018979D02*
X018040Y019177D01*
X018149Y019319D02*
X018356Y019319D01*
X018520Y019547D02*
X018520Y019565D01*
X018679Y019559D02*
X018205Y019559D01*
X018147Y019799D02*
X018361Y019799D01*
X018520Y019928D02*
X018520Y020354D01*
X018760Y020392D02*
X018760Y019957D01*
X018783Y019953D02*
X018720Y019963D01*
X018696Y019963D01*
X018696Y019565D01*
X019095Y019565D01*
X019095Y019588D01*
X019085Y019651D01*
X019065Y019712D01*
X019036Y019769D01*
X018998Y019821D01*
X018953Y019867D01*
X018901Y019904D01*
X018844Y019933D01*
X018783Y019953D01*
X018696Y019799D02*
X018679Y019799D01*
X018696Y019559D02*
X019840Y019559D01*
X019840Y019319D02*
X019019Y019319D01*
X019000Y019293D02*
X019000Y017923D01*
X018956Y017879D02*
X018485Y017879D01*
X018280Y017783D02*
X018280Y017687D01*
X018108Y017639D02*
X018012Y017639D01*
X018040Y017687D02*
X018040Y017309D01*
X018012Y017399D02*
X018108Y017399D01*
X018280Y017349D02*
X018280Y017309D01*
X017800Y017309D02*
X017800Y017349D01*
X017310Y017559D02*
X017310Y018059D01*
X018034Y018509D02*
X018060Y018483D01*
X017546Y018839D02*
X016480Y018839D01*
X016600Y019039D02*
X016600Y018622D01*
X016623Y018599D02*
X016676Y018599D01*
X016840Y018763D02*
X016840Y019059D01*
X016888Y019079D02*
X017487Y019079D01*
X017560Y019049D02*
X017560Y018872D01*
X017320Y018809D02*
X017320Y019192D01*
X017226Y019319D02*
X017149Y019319D01*
X017080Y019217D02*
X017080Y018809D01*
X016487Y019079D02*
X016480Y019079D01*
X016160Y018609D02*
X016410Y018359D01*
X016410Y017609D01*
X016160Y018609D02*
X016160Y019859D01*
X015910Y020109D01*
X015410Y020109D01*
X014660Y020859D01*
X014560Y020891D01*
X014172Y020519D02*
X013771Y020519D01*
X013784Y020526D02*
X013838Y020565D01*
X013886Y020613D01*
X013925Y020667D01*
X013956Y020727D01*
X013976Y020791D01*
X013987Y020857D01*
X013987Y020872D01*
X013578Y020872D01*
X013578Y020464D01*
X013594Y020464D01*
X013660Y020474D01*
X013724Y020495D01*
X013784Y020526D01*
X013720Y020494D02*
X013720Y020126D01*
X013480Y020087D02*
X013480Y020471D01*
X013460Y020474D02*
X013526Y020464D01*
X013542Y020464D01*
X013542Y020872D01*
X013578Y020872D01*
X013578Y020909D01*
X013542Y020909D01*
X013542Y021318D01*
X013526Y021318D01*
X013460Y021307D01*
X013396Y021286D01*
X013336Y021256D01*
X013282Y021216D01*
X013234Y021169D01*
X013195Y021114D01*
X013164Y021055D01*
X013144Y020991D01*
X013133Y020924D01*
X013133Y020909D01*
X013542Y020909D01*
X013542Y020872D01*
X013133Y020872D01*
X013133Y020857D01*
X013144Y020791D01*
X013164Y020727D01*
X013195Y020667D01*
X013234Y020613D01*
X013282Y020565D01*
X013336Y020526D01*
X013396Y020495D01*
X013460Y020474D01*
X013542Y020519D02*
X013578Y020519D01*
X013349Y020519D02*
X012948Y020519D01*
X013000Y020571D02*
X013000Y019819D01*
X012998Y019821D02*
X012953Y019867D01*
X012901Y019904D01*
X012844Y019933D01*
X012783Y019953D01*
X012720Y019963D01*
X012696Y019963D01*
X012696Y019565D01*
X012679Y019565D01*
X012679Y019963D01*
X012656Y019963D01*
X012592Y019953D01*
X012531Y019933D01*
X012474Y019904D01*
X012422Y019867D01*
X012377Y019821D01*
X012339Y019769D01*
X012310Y019712D01*
X012290Y019651D01*
X012280Y019588D01*
X012280Y019565D01*
X012679Y019565D01*
X012679Y019547D01*
X012696Y019547D01*
X012696Y019149D01*
X012720Y019149D01*
X012783Y019159D01*
X012844Y019179D01*
X012901Y019208D01*
X012953Y019245D01*
X012998Y019291D01*
X013036Y019343D01*
X013065Y019400D01*
X013085Y019461D01*
X013095Y019524D01*
X013095Y019547D01*
X012696Y019547D01*
X012696Y019565D01*
X013095Y019565D01*
X013095Y019588D01*
X013085Y019651D01*
X013065Y019712D01*
X013036Y019769D01*
X012998Y019821D01*
X013014Y019799D02*
X013171Y019799D01*
X013240Y019915D02*
X013240Y020607D01*
X013154Y020759D02*
X013087Y020759D01*
X013240Y020872D02*
X013240Y020909D01*
X013146Y020999D02*
X013096Y020999D01*
X013240Y021174D02*
X013240Y021550D01*
X013311Y021479D02*
X012964Y021479D01*
X013000Y021515D02*
X013000Y021210D01*
X012971Y021239D02*
X013313Y021239D01*
X013480Y021310D02*
X013480Y021429D01*
X013540Y021479D02*
X013580Y021479D01*
X013720Y021429D02*
X013720Y021288D01*
X013724Y021286D02*
X013660Y021307D01*
X013594Y021318D01*
X013578Y021318D01*
X013578Y020909D01*
X013987Y020909D01*
X013987Y020924D01*
X013976Y020991D01*
X013956Y021055D01*
X013925Y021114D01*
X013886Y021169D01*
X013838Y021216D01*
X013784Y021256D01*
X013724Y021286D01*
X013807Y021239D02*
X014149Y021239D01*
X014156Y021479D02*
X013809Y021479D01*
X013960Y021630D02*
X013960Y021041D01*
X013974Y020999D02*
X014024Y020999D01*
X013960Y020909D02*
X013960Y020872D01*
X013966Y020759D02*
X014033Y020759D01*
X013960Y020740D02*
X013960Y020060D01*
X014011Y020039D02*
X014365Y020039D01*
X014440Y020070D02*
X014440Y020359D01*
X014680Y020359D02*
X014680Y020126D01*
X014787Y020279D02*
X012125Y020279D01*
X012040Y020365D02*
X012040Y020743D01*
X012033Y020759D02*
X011645Y020759D01*
X011800Y020605D02*
X011800Y021547D01*
X011733Y021479D02*
X012156Y021479D01*
X012040Y021595D02*
X012040Y021038D01*
X012024Y020999D02*
X011754Y020999D01*
X011746Y021239D02*
X012149Y021239D01*
X012172Y020519D02*
X011885Y020519D01*
X012280Y020426D02*
X012280Y017611D01*
X012040Y017611D02*
X012040Y018994D01*
X012107Y019079D02*
X013118Y019079D01*
X013118Y018839D02*
X011875Y018839D01*
X011800Y018764D02*
X011800Y017611D01*
X011615Y017639D02*
X013876Y017639D01*
X013960Y017604D02*
X013960Y017501D01*
X013750Y017399D02*
X013595Y017399D01*
X013480Y017501D02*
X013480Y017983D01*
X013584Y017879D02*
X011375Y017879D01*
X011320Y017935D02*
X011320Y018284D01*
X011395Y018359D02*
X013163Y018359D01*
X013240Y018223D02*
X013240Y017501D01*
X013000Y017501D02*
X013000Y019293D01*
X013019Y019319D02*
X013118Y019319D01*
X013118Y019559D02*
X012696Y019559D01*
X012679Y019559D02*
X012230Y019559D01*
X012280Y019547D02*
X012280Y019524D01*
X012290Y019461D01*
X012310Y019400D01*
X012339Y019343D01*
X012377Y019291D01*
X012422Y019245D01*
X012474Y019208D01*
X012531Y019179D01*
X012592Y019159D01*
X012656Y019149D01*
X012679Y019149D01*
X012679Y019547D01*
X012280Y019547D01*
X012520Y019547D02*
X012520Y019565D01*
X012760Y019547D02*
X012760Y019565D01*
X013000Y019547D02*
X013000Y019565D01*
X012696Y019799D02*
X012679Y019799D01*
X012760Y019957D02*
X012760Y020392D01*
X012520Y020354D02*
X012520Y019928D01*
X012361Y019799D02*
X012230Y019799D01*
X012230Y020039D02*
X013365Y020039D01*
X013542Y020759D02*
X013578Y020759D01*
X013480Y020872D02*
X013480Y020909D01*
X013542Y020999D02*
X013578Y020999D01*
X013720Y020909D02*
X013720Y020872D01*
X013578Y021239D02*
X013542Y021239D01*
X013540Y021719D02*
X013580Y021719D01*
X012410Y022609D02*
X017910Y022609D01*
X018410Y022109D01*
X018560Y021909D01*
X018040Y020647D02*
X018040Y019935D01*
X017873Y020039D02*
X019840Y020039D01*
X019840Y019799D02*
X019014Y019799D01*
X019000Y019819D02*
X019000Y020571D01*
X018948Y020519D02*
X019172Y020519D01*
X019840Y020279D02*
X016193Y020279D01*
X016120Y020352D02*
X016120Y020571D01*
X016172Y020519D02*
X015948Y020519D01*
X015880Y020451D02*
X015880Y020429D01*
X016360Y020392D02*
X016360Y020112D01*
X016432Y020039D02*
X016503Y020039D01*
X016600Y020073D02*
X016600Y020354D01*
X016840Y020426D02*
X016840Y020053D01*
X016873Y020039D02*
X017503Y020039D01*
X017560Y020063D02*
X017560Y020354D01*
X017320Y020409D02*
X017320Y019920D01*
X017229Y019799D02*
X017147Y019799D01*
X017080Y019895D02*
X017080Y020647D01*
X017172Y020519D02*
X016948Y020519D01*
X017800Y020409D02*
X017800Y020069D01*
X018280Y020426D02*
X018280Y018979D01*
X018679Y019319D02*
X018696Y019319D01*
X018760Y019547D02*
X018760Y019565D01*
X019000Y019547D02*
X019000Y019565D01*
X018172Y020519D02*
X017948Y020519D01*
X016560Y021909D02*
X016560Y022109D01*
X015560Y022209D02*
X015560Y021909D01*
X014200Y020491D02*
X014200Y019868D01*
X014920Y020077D02*
X014920Y020147D01*
X015011Y020039D02*
X015027Y020039D01*
X015160Y019907D02*
X015160Y019890D01*
X013118Y018599D02*
X011635Y018599D01*
X011560Y018524D02*
X011560Y017695D01*
X011155Y018119D02*
X013344Y018119D01*
X013720Y017743D02*
X013720Y017134D01*
X013750Y017159D02*
X013595Y017159D01*
X013480Y017134D02*
X013480Y016979D01*
X013595Y016919D02*
X013750Y016919D01*
X013720Y016979D02*
X013720Y015909D01*
X013960Y015909D02*
X013960Y016611D01*
X013750Y016679D02*
X013595Y016679D01*
X013480Y016611D02*
X013480Y015773D01*
X013426Y015719D02*
X010246Y015719D01*
X010246Y015479D02*
X013186Y015479D01*
X013240Y015533D02*
X013240Y016611D01*
X013000Y016611D02*
X013000Y015293D01*
X012946Y015239D02*
X010246Y015239D01*
X010120Y015237D02*
X010120Y015082D01*
X010246Y014999D02*
X011406Y014999D01*
X011320Y014920D02*
X011320Y016501D01*
X011560Y016501D02*
X011560Y015063D01*
X011800Y015069D02*
X011800Y016501D01*
X012040Y016501D02*
X012040Y014935D01*
X011969Y014999D02*
X012406Y014999D01*
X012520Y015046D02*
X012520Y019184D01*
X012679Y019319D02*
X012696Y019319D01*
X012760Y019155D02*
X012760Y015073D01*
X012280Y014880D02*
X012280Y016501D01*
X012470Y016679D02*
X012869Y016679D01*
X012854Y016919D02*
X012476Y016919D01*
X012476Y017159D02*
X012854Y017159D01*
X013000Y017134D02*
X013000Y016979D01*
X013240Y016979D02*
X013240Y017134D01*
X012857Y017399D02*
X012476Y017399D01*
X014200Y017501D02*
X014200Y017563D01*
X014200Y016611D02*
X014200Y015909D01*
X014440Y015996D02*
X014476Y015909D01*
X014455Y015959D02*
X010185Y015959D01*
X010120Y015979D02*
X010120Y016533D01*
X010178Y016533D02*
X010211Y016542D01*
X010241Y016559D01*
X010265Y016583D01*
X010282Y016613D01*
X010291Y016646D01*
X010291Y016871D01*
X009914Y016871D01*
X009914Y016533D01*
X010178Y016533D01*
X010291Y016679D02*
X010623Y016679D01*
X010618Y016919D02*
X009914Y016919D01*
X009866Y016919D02*
X009910Y016859D01*
X009880Y016871D02*
X009880Y015979D01*
X009878Y015959D02*
X009723Y015959D01*
X009640Y015979D02*
X009640Y016533D01*
X009553Y016533D02*
X009818Y016533D01*
X009818Y016871D01*
X009440Y016871D01*
X009440Y016646D01*
X009449Y016613D01*
X009466Y016583D01*
X009491Y016559D01*
X009520Y016542D01*
X009553Y016533D01*
X009430Y016439D02*
X014440Y016439D01*
X014440Y016199D02*
X009430Y016199D01*
X009723Y015719D02*
X009878Y015719D01*
X009878Y015479D02*
X009723Y015479D01*
X009660Y015359D02*
X009801Y015160D01*
X009880Y015237D02*
X009880Y015082D01*
X009878Y014999D02*
X009723Y014999D01*
X009723Y014759D02*
X009878Y014759D01*
X009878Y014519D02*
X009723Y014519D01*
X009880Y014341D02*
X009880Y013963D01*
X010120Y013963D02*
X010120Y014341D01*
X010246Y014519D02*
X011170Y014519D01*
X011212Y014759D02*
X010246Y014759D01*
X009878Y015239D02*
X009723Y015239D01*
X008390Y015239D02*
X007980Y015239D01*
X007980Y014999D02*
X008390Y014999D01*
X008390Y014759D02*
X007980Y014759D01*
X008009Y014519D02*
X008390Y014519D01*
X008390Y014279D02*
X008020Y014279D01*
X007960Y014150D02*
X007960Y010695D01*
X007945Y010679D02*
X007536Y010679D01*
X007550Y010439D02*
X007705Y010439D01*
X007720Y010455D02*
X007720Y013999D01*
X007849Y014039D02*
X008390Y014039D01*
X007660Y014359D02*
X007660Y017859D01*
X007910Y018109D01*
X007910Y019359D01*
X008036Y019509D01*
X007540Y019319D02*
X007073Y019319D01*
X007000Y019247D02*
X007000Y018515D01*
X006760Y018481D02*
X006760Y019007D01*
X006833Y019079D02*
X007576Y019079D01*
X007590Y018839D02*
X006730Y018839D01*
X006730Y018599D02*
X007590Y018599D01*
X009160Y019004D02*
X009160Y018068D01*
X009660Y017609D02*
X009866Y017588D01*
X009910Y017609D01*
X010120Y016967D02*
X010120Y016871D01*
X009914Y016679D02*
X009818Y016679D01*
X009818Y016919D02*
X009455Y016919D01*
X009640Y016871D02*
X009640Y016967D01*
X009440Y016679D02*
X009430Y016679D01*
X008390Y016679D02*
X007980Y016679D01*
X007980Y016439D02*
X008390Y016439D01*
X008390Y016199D02*
X007980Y016199D01*
X007980Y015959D02*
X008390Y015959D01*
X008390Y015719D02*
X007980Y015719D01*
X007980Y015479D02*
X008390Y015479D01*
X008390Y016919D02*
X007980Y016919D01*
X007980Y017159D02*
X008390Y017159D01*
X009597Y019509D02*
X009410Y019609D01*
X010120Y019857D02*
X010120Y020814D01*
X010175Y020759D02*
X010030Y020759D01*
X009948Y020519D02*
X010415Y020519D01*
X010360Y020574D02*
X010360Y019875D01*
X010385Y019799D02*
X010461Y019799D01*
X010461Y019559D02*
X010385Y019559D01*
X010600Y019547D02*
X010600Y019471D01*
X010790Y019559D02*
X011125Y019559D01*
X012180Y019319D02*
X012356Y019319D01*
X011410Y021109D02*
X011410Y021609D01*
X012410Y022609D01*
X018660Y023859D02*
X021410Y023859D01*
X023160Y022109D01*
X023160Y021909D01*
X022660Y022109D02*
X022660Y020859D01*
X023660Y021609D02*
X023660Y022609D01*
X023160Y023109D01*
X023160Y024109D02*
X024660Y022609D01*
X024160Y021909D02*
X024160Y020891D01*
X025160Y019859D02*
X022660Y019859D01*
X021160Y018450D02*
X021128Y018481D01*
X021510Y017859D02*
X021510Y012759D01*
X021960Y012309D01*
X021960Y010409D01*
X020937Y011736D02*
X020960Y011759D01*
X022410Y013609D02*
X022910Y013109D01*
X022910Y013609D02*
X022910Y016109D01*
X020105Y018481D02*
X019982Y018481D01*
X022660Y022109D02*
X021660Y023109D01*
X017160Y027359D02*
X016910Y027359D01*
X016160Y028109D01*
X016660Y028109D02*
X016160Y028609D01*
X016160Y029109D01*
X016660Y028109D02*
X017160Y028109D01*
X017460Y027709D02*
X017410Y027659D01*
X021660Y030359D02*
X011910Y030359D01*
X011160Y029609D01*
X009160Y029609D01*
X009110Y029409D01*
X008660Y029609D02*
X009910Y030859D01*
X021410Y030859D01*
X022840Y031394D02*
X022840Y031535D01*
X008660Y029609D02*
X008160Y029609D01*
X008110Y029409D01*
X007113Y028406D02*
X006126Y028406D01*
X006126Y028406D01*
X005710Y028406D01*
X005660Y028456D01*
X005660Y031359D01*
X005300Y031319D02*
X003864Y031319D01*
X003880Y031335D02*
X003880Y026032D01*
X003887Y026039D02*
X003480Y026039D01*
X003480Y026279D02*
X004127Y026279D01*
X004120Y026272D02*
X004120Y031535D01*
X004360Y031535D02*
X004360Y026512D01*
X004367Y026519D02*
X003480Y026519D01*
X003480Y027239D02*
X004728Y027239D01*
X004840Y027386D02*
X004840Y027426D01*
X004702Y027479D02*
X003480Y027479D01*
X003480Y027719D02*
X004831Y027719D01*
X004840Y027728D02*
X004840Y027940D01*
X004809Y027959D02*
X003480Y027959D01*
X003480Y028679D02*
X004654Y028679D01*
X004840Y028872D02*
X004840Y028940D01*
X004890Y028919D02*
X003480Y028919D01*
X003480Y029159D02*
X004644Y029159D01*
X005126Y028406D02*
X005710Y028406D01*
X005080Y027866D02*
X005080Y027834D01*
X005106Y027719D02*
X005146Y027719D01*
X005146Y027479D02*
X005106Y027479D01*
X005080Y027426D02*
X005080Y027386D01*
X005106Y027239D02*
X005146Y027239D01*
X005320Y027386D02*
X005320Y027426D01*
X005146Y026999D02*
X005106Y026999D01*
X005080Y026978D02*
X005080Y026679D01*
X006126Y029406D02*
X006126Y029425D01*
X007310Y030609D01*
X007910Y030609D01*
X005340Y030599D02*
X003480Y030599D01*
X003480Y030359D02*
X005340Y030359D01*
X005340Y030839D02*
X003480Y030839D01*
X005080Y031535D02*
X005080Y029946D01*
X005320Y031528D02*
X005320Y031535D01*
X012163Y014759D02*
X012212Y014759D01*
X009801Y013034D02*
X009660Y013109D01*
X009246Y012839D02*
X006730Y012839D01*
X006730Y012599D02*
X009246Y012599D01*
X009246Y012359D02*
X006730Y012359D01*
X005340Y012599D02*
X005181Y012599D01*
X005080Y012675D02*
X005080Y013735D01*
X004840Y013735D02*
X004840Y012755D01*
X004600Y012742D02*
X004600Y013735D01*
X005320Y013796D02*
X005320Y012436D01*
X005340Y012839D02*
X003480Y012839D01*
X003480Y013079D02*
X005340Y013079D01*
X005340Y013319D02*
X003480Y013319D01*
X003480Y013559D02*
X005340Y013559D01*
X005324Y013799D02*
X005340Y013799D01*
X004120Y012119D02*
X003480Y012119D01*
X003480Y011879D02*
X004165Y011879D01*
X004120Y011988D02*
X004217Y011753D01*
X004397Y011573D01*
X004633Y011475D01*
X004887Y011475D01*
X005123Y011573D01*
X005303Y011753D01*
X005340Y011843D01*
X005340Y011009D01*
X005303Y011100D01*
X005123Y011280D01*
X004887Y011377D01*
X004633Y011377D01*
X004397Y011280D01*
X004217Y011100D01*
X004120Y010864D01*
X004143Y010919D02*
X003480Y010919D01*
X003480Y010679D02*
X004120Y010679D01*
X004120Y010610D02*
X004217Y010375D01*
X004397Y010195D01*
X004633Y010097D01*
X004887Y010097D01*
X005123Y010195D01*
X005303Y010375D01*
X005340Y010465D01*
X005340Y009631D01*
X005303Y009722D01*
X005123Y009902D01*
X004887Y009999D01*
X004633Y009999D01*
X004397Y009902D01*
X004217Y009722D01*
X004120Y009486D01*
X004120Y009479D02*
X003480Y009479D01*
X003480Y009239D02*
X004120Y009239D01*
X004120Y009232D02*
X004217Y008997D01*
X004397Y008817D01*
X004633Y008719D01*
X004887Y008719D01*
X005123Y008817D01*
X005303Y008997D01*
X005340Y009087D01*
X005340Y008541D01*
X005296Y008585D01*
X005208Y008621D01*
X004312Y008621D01*
X004224Y008585D01*
X004157Y008517D01*
X004120Y008429D01*
X004159Y008519D02*
X003480Y008519D01*
X003480Y008279D02*
X004120Y008279D01*
X004120Y008039D02*
X003480Y008039D01*
X003480Y007799D02*
X004120Y007799D01*
X004360Y007341D02*
X004360Y006640D01*
X004314Y006599D02*
X003480Y006599D01*
X004600Y006737D02*
X004600Y007341D01*
X004840Y007341D02*
X004840Y006737D01*
X004840Y008621D02*
X004840Y008719D01*
X004984Y008759D02*
X005340Y008759D01*
X005320Y008561D02*
X005320Y009039D01*
X005304Y008999D02*
X005340Y008999D01*
X005080Y008799D02*
X005080Y008621D01*
X004600Y008621D02*
X004600Y008733D01*
X004536Y008759D02*
X003480Y008759D01*
X003480Y008999D02*
X004216Y008999D01*
X004360Y008854D02*
X004360Y008621D01*
X004216Y009719D02*
X003480Y009719D01*
X003480Y009959D02*
X004536Y009959D01*
X004600Y009986D02*
X004600Y010111D01*
X004393Y010199D02*
X003480Y010199D01*
X003480Y010439D02*
X004191Y010439D01*
X004360Y010232D02*
X004360Y009864D01*
X004840Y009999D02*
X004840Y010097D01*
X004984Y009959D02*
X005340Y009959D01*
X005340Y009719D02*
X005304Y009719D01*
X005320Y009680D02*
X005320Y010417D01*
X005329Y010439D02*
X005340Y010439D01*
X005340Y010199D02*
X005127Y010199D01*
X005080Y010177D02*
X005080Y009919D01*
X005320Y011058D02*
X005320Y011795D01*
X005340Y011639D02*
X005189Y011639D01*
X005080Y011555D02*
X005080Y011297D01*
X005243Y011159D02*
X005340Y011159D01*
X005340Y011399D02*
X003480Y011399D01*
X003480Y011159D02*
X004277Y011159D01*
X004360Y011242D02*
X004360Y011610D01*
X004331Y011639D02*
X003480Y011639D01*
X004600Y011489D02*
X004600Y011364D01*
X004840Y011377D02*
X004840Y011475D01*
X007480Y010242D02*
X007480Y010215D01*
X007467Y010199D02*
X007462Y010199D01*
X007390Y009959D02*
X007363Y009959D01*
X008430Y009479D02*
X013506Y009479D01*
X013480Y009453D02*
X013480Y010295D01*
X013568Y010439D02*
X013723Y010439D01*
X013720Y010663D02*
X013720Y009559D01*
X013960Y009559D02*
X013960Y010295D01*
X014240Y009959D02*
X008695Y009959D01*
X008680Y009944D02*
X008680Y007475D01*
X008835Y007319D02*
X012692Y007319D01*
X012760Y007450D02*
X012760Y007720D01*
X012604Y007720D02*
X012414Y007799D01*
X012280Y007933D02*
X012280Y003352D01*
X011800Y003179D02*
X011800Y007720D01*
X011560Y007738D02*
X011560Y003179D01*
X011560Y002539D02*
X011560Y000679D01*
X011800Y000679D02*
X011800Y002539D01*
X012040Y002539D02*
X012040Y000679D01*
X012280Y000679D02*
X012280Y002539D01*
X012407Y002519D02*
X010613Y002519D01*
X010600Y002507D02*
X010600Y001556D01*
X010597Y001559D02*
X012423Y001559D01*
X012409Y001545D02*
X012464Y001601D01*
X012528Y001647D01*
X012598Y001683D01*
X012673Y001707D01*
X012751Y001719D01*
X012770Y001719D01*
X012770Y001239D01*
X012770Y001199D01*
X012810Y001199D01*
X012810Y000719D01*
X012829Y000719D01*
X012907Y000731D01*
X012982Y000756D01*
X013052Y000792D01*
X013116Y000838D01*
X013171Y000893D01*
X013218Y000957D01*
X013253Y001027D01*
X013278Y001102D01*
X013290Y001180D01*
X013290Y001199D01*
X012810Y001199D01*
X012810Y001239D01*
X013290Y001239D01*
X013290Y001259D01*
X013278Y001336D01*
X013253Y001411D01*
X013218Y001481D01*
X013171Y001545D01*
X013116Y001601D01*
X013052Y001647D01*
X012982Y001683D01*
X012907Y001707D01*
X012829Y001719D01*
X012810Y001719D01*
X012810Y001239D01*
X012770Y001239D01*
X012290Y001239D01*
X012290Y001259D01*
X012302Y001336D01*
X012327Y001411D01*
X012362Y001481D01*
X012409Y001545D01*
X012520Y001641D02*
X012520Y002451D01*
X012760Y002389D02*
X012760Y001719D01*
X012770Y001559D02*
X012810Y001559D01*
X013000Y001673D02*
X013000Y002426D01*
X013173Y002519D02*
X013270Y002519D01*
X013240Y002587D02*
X013240Y001437D01*
X013280Y001319D02*
X013380Y001319D01*
X013480Y001321D02*
X013480Y001397D01*
X013380Y001559D02*
X013157Y001559D01*
X013240Y001239D02*
X013240Y001199D01*
X013270Y001079D02*
X013388Y001079D01*
X013480Y000997D02*
X013480Y000679D01*
X013720Y000679D02*
X013720Y001321D01*
X013709Y001319D02*
X013785Y001319D01*
X013720Y001397D02*
X013720Y001847D01*
X013767Y001799D02*
X009530Y001799D01*
X009530Y002039D02*
X013285Y002039D01*
X013270Y002279D02*
X009441Y002279D01*
X009400Y002377D02*
X009400Y005423D01*
X009457Y005399D02*
X008906Y005399D01*
X008920Y005405D02*
X008920Y002725D01*
X009160Y002621D02*
X009160Y005666D01*
X009149Y005639D02*
X009214Y005639D01*
X009640Y005349D02*
X009640Y003169D01*
X009669Y003239D02*
X008661Y003239D01*
X008572Y002999D02*
X009620Y002999D01*
X009847Y002519D02*
X009262Y002519D01*
X008484Y002759D02*
X008413Y002759D01*
X008440Y002741D02*
X008440Y002786D01*
X007960Y002429D02*
X007960Y002421D01*
X007879Y002279D02*
X007230Y002279D01*
X007240Y002263D02*
X007240Y002383D01*
X007348Y002039D02*
X007790Y002039D01*
X008200Y001140D02*
X008200Y000679D01*
X007000Y000679D02*
X007000Y000843D01*
X006995Y000839D02*
X009903Y000839D01*
X009880Y000862D02*
X009880Y000679D01*
X010120Y000679D02*
X010120Y000730D01*
X010210Y000839D02*
X010250Y000839D01*
X010360Y000736D02*
X010360Y000679D01*
X010600Y000679D02*
X010600Y000882D01*
X010557Y000839D02*
X012463Y000839D01*
X012464Y000838D02*
X012528Y000792D01*
X012598Y000756D01*
X012673Y000731D01*
X012751Y000719D01*
X012770Y000719D01*
X012770Y001199D01*
X012290Y001199D01*
X012290Y001180D01*
X012302Y001102D01*
X012327Y001027D01*
X012362Y000957D01*
X012409Y000893D01*
X012464Y000838D01*
X012520Y000797D02*
X012520Y000679D01*
X012760Y000679D02*
X012760Y000719D01*
X012770Y000839D02*
X012810Y000839D01*
X013000Y000765D02*
X013000Y000679D01*
X013117Y000839D02*
X017896Y000839D01*
X017800Y000935D02*
X017800Y000679D01*
X018040Y000679D02*
X018040Y000695D01*
X017560Y000679D02*
X017560Y001531D01*
X017570Y001319D02*
X015073Y001319D01*
X015160Y001407D02*
X015160Y000679D01*
X015400Y000679D02*
X015400Y001647D01*
X015313Y001559D02*
X015732Y001559D01*
X015880Y001426D02*
X015880Y000679D01*
X015640Y000679D02*
X015640Y001743D01*
X015623Y001799D02*
X015480Y001799D01*
X015480Y002039D02*
X015640Y002039D01*
X015640Y002038D02*
X015640Y002545D01*
X015666Y002519D02*
X015523Y002519D01*
X015480Y002279D02*
X015789Y002279D01*
X015160Y002609D02*
X015160Y001859D01*
X014660Y001359D01*
X014573Y001359D01*
X015050Y001079D02*
X017658Y001079D01*
X017320Y001376D02*
X017320Y000679D01*
X017080Y000679D02*
X017080Y001354D01*
X016840Y001451D02*
X016840Y000679D01*
X016600Y000679D02*
X016600Y001571D01*
X016588Y001559D02*
X016732Y001559D01*
X016360Y001392D02*
X016360Y000679D01*
X016120Y000679D02*
X016120Y001354D01*
X014920Y000909D02*
X014920Y000679D01*
X014680Y000679D02*
X014680Y000883D01*
X014440Y000883D02*
X014440Y000679D01*
X014200Y000679D02*
X014200Y000921D01*
X013960Y000993D02*
X013960Y000679D01*
X013785Y001079D02*
X013709Y001079D01*
X013240Y001001D02*
X013240Y000679D01*
X013000Y001199D02*
X013000Y001239D01*
X012810Y001319D02*
X012770Y001319D01*
X012760Y001239D02*
X012760Y001199D01*
X012770Y001079D02*
X012810Y001079D01*
X012520Y001199D02*
X012520Y001239D01*
X012300Y001319D02*
X010720Y001319D01*
X010600Y001239D02*
X010600Y001199D01*
X010710Y001079D02*
X012310Y001079D01*
X011320Y000679D02*
X011320Y002539D01*
X011080Y002539D02*
X011080Y000679D01*
X010840Y000679D02*
X010840Y002539D01*
X010360Y002393D02*
X010360Y001703D01*
X010250Y001559D02*
X010210Y001559D01*
X010120Y001708D02*
X010120Y002389D01*
X009880Y002487D02*
X009880Y001576D01*
X009863Y001559D02*
X009464Y001559D01*
X009880Y001239D02*
X009880Y001199D01*
X010120Y001199D02*
X010120Y001239D01*
X010210Y001319D02*
X010250Y001319D01*
X010360Y001239D02*
X010360Y001199D01*
X010250Y001079D02*
X010210Y001079D01*
X010410Y002859D02*
X010230Y002999D01*
X010410Y002859D02*
X012660Y002859D01*
X012790Y002999D01*
X013660Y002359D02*
X013747Y002359D01*
X013660Y002359D02*
X014160Y001859D01*
X013785Y001559D02*
X013709Y001559D01*
X013480Y001722D02*
X013480Y001883D01*
X014573Y002359D02*
X014660Y002359D01*
X014660Y003359D01*
X014573Y003359D01*
X014660Y003359D02*
X014910Y003359D01*
X015660Y004109D01*
X015910Y003859D02*
X015660Y003609D01*
X015910Y003359D02*
X015160Y002609D01*
X015910Y003359D02*
X016910Y003359D01*
X017160Y003609D02*
X016910Y003859D01*
X015910Y003859D01*
X017160Y003609D02*
X017660Y003609D01*
X018040Y004402D02*
X018040Y005287D01*
X018153Y005399D02*
X021570Y005399D01*
X019000Y006247D02*
X019000Y003339D01*
X019480Y002879D02*
X019480Y002839D01*
X019499Y002519D02*
X019821Y002519D01*
X019480Y002500D02*
X019480Y002174D01*
X019178Y002039D02*
X019142Y002039D01*
X019240Y001909D02*
X019240Y001872D01*
X018759Y002039D02*
X018750Y002039D01*
X019960Y002839D02*
X019960Y002879D01*
X020140Y002759D02*
X020180Y002759D01*
X020180Y002999D02*
X020140Y002999D01*
X020140Y003239D02*
X020180Y003239D01*
X020499Y002519D02*
X020666Y002519D01*
X020680Y002505D02*
X020680Y002135D01*
X020640Y002039D02*
X020561Y002039D01*
X020440Y001909D02*
X020440Y001872D01*
X020578Y001799D02*
X020623Y001799D01*
X020440Y002214D02*
X020440Y002460D01*
X020338Y002279D02*
X020789Y002279D01*
X016910Y006609D02*
X014410Y006609D01*
X014410Y004359D01*
X014573Y004359D01*
X014410Y006609D02*
X014410Y006859D01*
X013960Y007529D02*
X013960Y007782D01*
X013720Y007720D02*
X013720Y007529D01*
X013240Y007627D02*
X013240Y008014D01*
X013229Y008039D02*
X013185Y008039D01*
X012229Y008039D02*
X012185Y008039D01*
X011229Y008039D02*
X010338Y008039D01*
X010360Y008061D02*
X010360Y003606D01*
X010120Y003609D02*
X010120Y005572D01*
X009640Y006949D02*
X009640Y007992D01*
X009555Y008039D02*
X008430Y008039D01*
X008430Y008279D02*
X009049Y008279D01*
X009160Y008168D02*
X009160Y006941D01*
X009201Y006839D02*
X009356Y006839D01*
X009400Y006875D02*
X009400Y008041D01*
X009460Y008459D02*
X009947Y008459D01*
X010416Y008759D02*
X010424Y008759D01*
X010360Y008858D02*
X010360Y010189D01*
X010600Y010189D02*
X010600Y008825D01*
X010735Y008759D02*
X010811Y008759D01*
X010840Y008825D02*
X010840Y010185D01*
X010120Y010189D02*
X010120Y008935D01*
X009880Y008935D02*
X009880Y010189D01*
X009640Y010189D02*
X009640Y008926D01*
X009400Y008877D02*
X009400Y010189D01*
X009160Y010189D02*
X009160Y008750D01*
X009169Y008759D02*
X008430Y008759D01*
X008430Y008519D02*
X009042Y008519D01*
X008430Y008999D02*
X013045Y008999D01*
X013240Y009194D02*
X013240Y010295D01*
X013240Y010663D02*
X013240Y010818D01*
X013000Y010818D02*
X013000Y010663D01*
X012826Y010919D02*
X012448Y010919D01*
X012425Y011159D02*
X012877Y011159D01*
X011140Y012119D02*
X010198Y012119D01*
X010120Y012105D02*
X010120Y011229D01*
X009880Y011229D02*
X009880Y012105D01*
X009640Y012105D02*
X009640Y011229D01*
X008920Y010184D02*
X008920Y007235D01*
X009075Y007079D02*
X012692Y007079D01*
X013285Y009239D02*
X008430Y009239D01*
X015707Y008237D02*
X016707Y008237D01*
X016660Y007359D02*
X017660Y008359D01*
X017707Y008237D01*
X017660Y007609D02*
X017160Y007109D01*
X017160Y006859D01*
X016910Y006609D01*
X016660Y007359D02*
X016284Y007259D01*
X017237Y010686D02*
X017260Y010709D01*
X017707Y013237D02*
X017707Y013312D01*
X017210Y013809D01*
X005271Y003239D02*
X005111Y003239D01*
X005111Y002999D02*
X005271Y002999D01*
X005271Y002759D02*
X005111Y002759D01*
X006040Y002722D02*
X006040Y002876D01*
X006253Y002519D02*
X006413Y002519D01*
X006413Y002279D02*
X006253Y002279D01*
X006253Y002039D02*
X006413Y002039D01*
X006040Y001766D02*
X006040Y001606D01*
X005800Y001606D02*
X005800Y001766D01*
X005560Y001766D02*
X005560Y001606D01*
X005320Y001606D02*
X005320Y001766D01*
X005264Y001799D02*
X003480Y001799D01*
X003480Y001559D02*
X005266Y001559D01*
X005800Y000752D02*
X005800Y000679D01*
X006760Y000679D02*
X006760Y000698D01*
X033660Y011109D02*
X033739Y011109D01*
X034160Y010859D02*
X033910Y010609D01*
X033739Y010609D01*
X034581Y010609D02*
X039660Y010609D01*
X039910Y010359D01*
X040660Y010359D01*
X040160Y010891D02*
X040160Y011109D01*
X034581Y011109D01*
X034581Y011609D02*
X039660Y011609D01*
X039910Y011359D01*
X041410Y011359D01*
X041191Y011891D02*
X041760Y012459D01*
X041160Y012859D02*
X041160Y012891D01*
X041160Y012859D02*
X040660Y012359D01*
X039160Y012359D01*
X038660Y012859D01*
X038660Y012909D01*
X039160Y013359D02*
X038660Y013859D01*
X038660Y013909D01*
X039160Y013359D02*
X040660Y013359D01*
X041160Y013859D01*
X041160Y013891D01*
X041410Y014359D02*
X040660Y014359D01*
X040160Y014859D01*
X040160Y014891D01*
X040410Y015359D02*
X040660Y015109D01*
X041160Y015109D01*
X041160Y014891D01*
X040410Y015359D02*
X038910Y015359D01*
X038660Y015109D01*
X038660Y014909D01*
X040410Y016359D02*
X040660Y016109D01*
X041160Y016109D01*
X041160Y015891D01*
X041160Y011891D02*
X041191Y011891D01*
X041160Y008891D02*
X041160Y008859D01*
X040660Y008359D01*
X039160Y008359D01*
X039160Y007359D02*
X040660Y007359D01*
X041160Y007859D01*
X041160Y007891D01*
D11*
X041160Y007891D03*
X040160Y007891D03*
X040160Y008891D03*
X041160Y008891D03*
X041160Y009891D03*
X040160Y009891D03*
X040160Y010891D03*
X041160Y010891D03*
X041160Y011891D03*
X040160Y011891D03*
X040160Y012891D03*
X041160Y012891D03*
X041160Y013891D03*
X040160Y013891D03*
X040160Y014891D03*
X041160Y014891D03*
X041160Y015891D03*
X040160Y015891D03*
X040160Y016891D03*
X041160Y016891D03*
X041160Y017891D03*
X040160Y017891D03*
X040160Y018891D03*
X041160Y018891D03*
X041160Y019891D03*
X040160Y019891D03*
X040160Y020891D03*
X041160Y020891D03*
X037160Y020891D03*
X036160Y020891D03*
X035160Y020891D03*
X034160Y020891D03*
X033160Y020891D03*
X032160Y020891D03*
X031160Y020891D03*
X030160Y020891D03*
X028160Y020891D03*
X027160Y020891D03*
X026160Y020891D03*
X025160Y020891D03*
X024160Y020891D03*
X023160Y020891D03*
X022160Y020891D03*
X021160Y020891D03*
X019560Y020891D03*
X018560Y020891D03*
X017560Y020891D03*
X016560Y020891D03*
X015560Y020891D03*
X014560Y020891D03*
X013560Y020891D03*
X012560Y020891D03*
X016160Y001891D03*
X017160Y001891D03*
X018160Y001891D03*
X019160Y001891D03*
X020160Y001891D03*
X021160Y001891D03*
X023160Y001891D03*
X024160Y001891D03*
X025160Y001891D03*
X026160Y001891D03*
X027160Y001891D03*
X028160Y001891D03*
X029160Y001891D03*
X030160Y001891D03*
X032160Y001891D03*
X033160Y001891D03*
X034160Y001891D03*
X035160Y001891D03*
X036160Y001891D03*
X037160Y001891D03*
X038160Y001891D03*
X039160Y001891D03*
X040160Y003891D03*
X041160Y003891D03*
X041160Y004891D03*
X040160Y004891D03*
X040160Y005891D03*
X041160Y005891D03*
X041160Y006891D03*
X040160Y006891D03*
D12*
X040530Y001891D02*
X040532Y001941D01*
X040538Y001991D01*
X040548Y002040D01*
X040562Y002088D01*
X040579Y002135D01*
X040600Y002180D01*
X040625Y002224D01*
X040653Y002265D01*
X040685Y002304D01*
X040719Y002341D01*
X040756Y002375D01*
X040796Y002405D01*
X040838Y002432D01*
X040882Y002456D01*
X040928Y002477D01*
X040975Y002493D01*
X041023Y002506D01*
X041073Y002515D01*
X041122Y002520D01*
X041173Y002521D01*
X041223Y002518D01*
X041272Y002511D01*
X041321Y002500D01*
X041369Y002485D01*
X041415Y002467D01*
X041460Y002445D01*
X041503Y002419D01*
X041544Y002390D01*
X041583Y002358D01*
X041619Y002323D01*
X041651Y002285D01*
X041681Y002245D01*
X041708Y002202D01*
X041731Y002158D01*
X041750Y002112D01*
X041766Y002064D01*
X041778Y002015D01*
X041786Y001966D01*
X041790Y001916D01*
X041790Y001866D01*
X041786Y001816D01*
X041778Y001767D01*
X041766Y001718D01*
X041750Y001670D01*
X041731Y001624D01*
X041708Y001580D01*
X041681Y001537D01*
X041651Y001497D01*
X041619Y001459D01*
X041583Y001424D01*
X041544Y001392D01*
X041503Y001363D01*
X041460Y001337D01*
X041415Y001315D01*
X041369Y001297D01*
X041321Y001282D01*
X041272Y001271D01*
X041223Y001264D01*
X041173Y001261D01*
X041122Y001262D01*
X041073Y001267D01*
X041023Y001276D01*
X040975Y001289D01*
X040928Y001305D01*
X040882Y001326D01*
X040838Y001350D01*
X040796Y001377D01*
X040756Y001407D01*
X040719Y001441D01*
X040685Y001478D01*
X040653Y001517D01*
X040625Y001558D01*
X040600Y001602D01*
X040579Y001647D01*
X040562Y001694D01*
X040548Y001742D01*
X040538Y001791D01*
X040532Y001841D01*
X040530Y001891D01*
X008530Y020891D02*
X008532Y020941D01*
X008538Y020991D01*
X008548Y021040D01*
X008562Y021088D01*
X008579Y021135D01*
X008600Y021180D01*
X008625Y021224D01*
X008653Y021265D01*
X008685Y021304D01*
X008719Y021341D01*
X008756Y021375D01*
X008796Y021405D01*
X008838Y021432D01*
X008882Y021456D01*
X008928Y021477D01*
X008975Y021493D01*
X009023Y021506D01*
X009073Y021515D01*
X009122Y021520D01*
X009173Y021521D01*
X009223Y021518D01*
X009272Y021511D01*
X009321Y021500D01*
X009369Y021485D01*
X009415Y021467D01*
X009460Y021445D01*
X009503Y021419D01*
X009544Y021390D01*
X009583Y021358D01*
X009619Y021323D01*
X009651Y021285D01*
X009681Y021245D01*
X009708Y021202D01*
X009731Y021158D01*
X009750Y021112D01*
X009766Y021064D01*
X009778Y021015D01*
X009786Y020966D01*
X009790Y020916D01*
X009790Y020866D01*
X009786Y020816D01*
X009778Y020767D01*
X009766Y020718D01*
X009750Y020670D01*
X009731Y020624D01*
X009708Y020580D01*
X009681Y020537D01*
X009651Y020497D01*
X009619Y020459D01*
X009583Y020424D01*
X009544Y020392D01*
X009503Y020363D01*
X009460Y020337D01*
X009415Y020315D01*
X009369Y020297D01*
X009321Y020282D01*
X009272Y020271D01*
X009223Y020264D01*
X009173Y020261D01*
X009122Y020262D01*
X009073Y020267D01*
X009023Y020276D01*
X008975Y020289D01*
X008928Y020305D01*
X008882Y020326D01*
X008838Y020350D01*
X008796Y020377D01*
X008756Y020407D01*
X008719Y020441D01*
X008685Y020478D01*
X008653Y020517D01*
X008625Y020558D01*
X008600Y020602D01*
X008579Y020647D01*
X008562Y020694D01*
X008548Y020742D01*
X008538Y020791D01*
X008532Y020841D01*
X008530Y020891D01*
X008030Y001891D02*
X008032Y001941D01*
X008038Y001991D01*
X008048Y002040D01*
X008062Y002088D01*
X008079Y002135D01*
X008100Y002180D01*
X008125Y002224D01*
X008153Y002265D01*
X008185Y002304D01*
X008219Y002341D01*
X008256Y002375D01*
X008296Y002405D01*
X008338Y002432D01*
X008382Y002456D01*
X008428Y002477D01*
X008475Y002493D01*
X008523Y002506D01*
X008573Y002515D01*
X008622Y002520D01*
X008673Y002521D01*
X008723Y002518D01*
X008772Y002511D01*
X008821Y002500D01*
X008869Y002485D01*
X008915Y002467D01*
X008960Y002445D01*
X009003Y002419D01*
X009044Y002390D01*
X009083Y002358D01*
X009119Y002323D01*
X009151Y002285D01*
X009181Y002245D01*
X009208Y002202D01*
X009231Y002158D01*
X009250Y002112D01*
X009266Y002064D01*
X009278Y002015D01*
X009286Y001966D01*
X009290Y001916D01*
X009290Y001866D01*
X009286Y001816D01*
X009278Y001767D01*
X009266Y001718D01*
X009250Y001670D01*
X009231Y001624D01*
X009208Y001580D01*
X009181Y001537D01*
X009151Y001497D01*
X009119Y001459D01*
X009083Y001424D01*
X009044Y001392D01*
X009003Y001363D01*
X008960Y001337D01*
X008915Y001315D01*
X008869Y001297D01*
X008821Y001282D01*
X008772Y001271D01*
X008723Y001264D01*
X008673Y001261D01*
X008622Y001262D01*
X008573Y001267D01*
X008523Y001276D01*
X008475Y001289D01*
X008428Y001305D01*
X008382Y001326D01*
X008338Y001350D01*
X008296Y001377D01*
X008256Y001407D01*
X008219Y001441D01*
X008185Y001478D01*
X008153Y001517D01*
X008125Y001558D01*
X008100Y001602D01*
X008079Y001647D01*
X008062Y001694D01*
X008048Y001742D01*
X008038Y001791D01*
X008032Y001841D01*
X008030Y001891D01*
D13*
X013747Y002359D03*
X014573Y002359D03*
X014573Y001359D03*
X013747Y001359D03*
X013747Y003359D03*
X014573Y003359D03*
X014573Y004359D03*
X013747Y004359D03*
X010773Y008459D03*
X009947Y008459D03*
X009597Y019509D03*
X010423Y019509D03*
X009223Y023809D03*
X008397Y023809D03*
D14*
X009801Y015160D03*
X009801Y013034D03*
D15*
X009866Y016919D03*
X009866Y017588D03*
X018060Y017735D03*
X018060Y018483D03*
X018060Y016383D03*
X018060Y015635D03*
X018123Y012160D03*
X018123Y011412D03*
X018118Y010115D03*
X018118Y009367D03*
X018660Y025135D03*
X018660Y025883D03*
X018660Y027085D03*
X018660Y027833D03*
D16*
X006960Y024409D03*
X006960Y023409D03*
X006960Y022409D03*
X006960Y021409D03*
X006960Y017925D03*
X006960Y016925D03*
X006960Y015925D03*
X006960Y014925D03*
X006960Y011528D03*
X006960Y010528D03*
X006960Y009528D03*
X006960Y008528D03*
X036660Y008909D03*
X036660Y007909D03*
X037660Y012909D03*
X038660Y012909D03*
X038660Y013909D03*
X037660Y013909D03*
X037660Y014909D03*
X038660Y014909D03*
X038660Y015909D03*
X037660Y015909D03*
D17*
X018688Y014556D03*
X017688Y014556D03*
X016688Y014556D03*
X015688Y014556D03*
X014688Y014556D03*
X013688Y014556D03*
X012688Y014556D03*
X011688Y014556D03*
X011707Y013237D03*
X012707Y013237D03*
X013707Y013237D03*
X014707Y013237D03*
X015707Y013237D03*
X016707Y013237D03*
X017707Y013237D03*
X018707Y013237D03*
X018707Y008237D03*
X017707Y008237D03*
X016707Y008237D03*
X015707Y008237D03*
X014707Y008237D03*
X013707Y008237D03*
X012707Y008237D03*
X011707Y008237D03*
X011688Y019556D03*
X012688Y019556D03*
X013688Y019556D03*
X014688Y019556D03*
X015688Y019556D03*
X016688Y019556D03*
X017688Y019556D03*
X018688Y019556D03*
X018660Y023859D03*
X017660Y023859D03*
X016660Y023859D03*
X015660Y023859D03*
X014660Y023859D03*
X013660Y023859D03*
X012660Y023859D03*
X011660Y023859D03*
X011660Y028859D03*
X012660Y028859D03*
X013660Y028859D03*
X014660Y028859D03*
X015660Y028859D03*
X016660Y028859D03*
X017660Y028859D03*
X018660Y028859D03*
D18*
X006126Y028406D03*
X005126Y028406D03*
X005126Y029406D03*
X006126Y029406D03*
X006126Y027406D03*
X005126Y027406D03*
D19*
X011497Y026359D03*
X013623Y026359D03*
X013673Y017056D03*
X011547Y017056D03*
X011519Y010740D03*
X013645Y010740D03*
D20*
X007514Y003536D03*
X006333Y001686D03*
X005191Y003536D03*
D21*
X006333Y001686D02*
X007410Y000859D01*
X009110Y000859D01*
X009620Y001219D01*
X011510Y003359D02*
X011660Y003359D01*
X012660Y004359D01*
X012660Y006359D01*
X010910Y008109D01*
X010910Y008359D02*
X010910Y008609D01*
X011488Y010709D02*
X008710Y010709D01*
X007910Y009909D01*
X007910Y007509D01*
X008681Y006738D01*
X008681Y006149D01*
X008660Y006109D01*
X007660Y006109D01*
X007660Y003609D01*
X007514Y003536D01*
X007660Y006109D02*
X004910Y006109D01*
X004729Y006067D01*
X008681Y005869D02*
X008681Y006429D01*
X009681Y006429D02*
X009681Y005869D01*
X013660Y009859D02*
X013660Y010859D01*
X013410Y010859D02*
X013410Y011609D01*
X011660Y010859D02*
X011660Y012859D01*
X011504Y013034D01*
X011410Y013859D02*
X012160Y013859D01*
X012660Y013359D01*
X012707Y013237D01*
X011410Y013859D02*
X010910Y014359D01*
X010910Y015359D01*
X009910Y015609D02*
X009801Y015160D01*
X009910Y015609D02*
X009910Y016859D01*
X009410Y017609D02*
X008910Y017109D01*
X008910Y014109D01*
X009660Y013359D01*
X009801Y013034D01*
X011660Y010859D02*
X011519Y010740D01*
X011488Y010709D01*
X018707Y013237D02*
X019538Y013237D01*
X019660Y013359D01*
X019660Y017359D01*
X019660Y013359D02*
X019660Y011359D01*
X019660Y010109D01*
X019410Y010109D01*
X013673Y017056D02*
X013660Y017069D01*
X013660Y017459D01*
X012660Y018459D01*
X012660Y019359D01*
X012660Y019609D02*
X013410Y020359D01*
X013410Y020859D01*
X013560Y020891D01*
X013560Y020909D02*
X013560Y021909D01*
X011710Y019959D02*
X011710Y019578D01*
X011688Y019556D01*
X011660Y019359D01*
X010410Y018109D01*
X011410Y017109D01*
X011547Y017056D01*
X010410Y018109D02*
X009910Y017609D01*
X009660Y017609D02*
X009410Y017609D01*
X011710Y019959D02*
X010060Y021609D01*
X009910Y021609D01*
X009910Y024859D01*
X011160Y026109D01*
X011497Y026359D01*
X011160Y026359D01*
X010160Y027359D01*
X009910Y028109D02*
X009410Y027609D01*
X009160Y027609D01*
X009110Y027409D01*
X009160Y027359D01*
X009160Y026859D01*
X007660Y025359D01*
X007660Y024359D01*
X008160Y023859D01*
X008410Y023859D01*
X008397Y023809D01*
X008460Y023746D01*
X008460Y023109D01*
X006960Y023409D02*
X004760Y023665D01*
X004760Y022287D02*
X006960Y022409D01*
X006960Y024409D02*
X004760Y025043D01*
X005160Y027359D02*
X005126Y027406D01*
X005160Y027359D02*
X005910Y027359D01*
X006126Y027406D01*
X009910Y028109D02*
X011410Y028109D01*
X012660Y028359D02*
X012910Y028109D01*
X014160Y028109D01*
X014560Y027709D01*
X014560Y026359D01*
X013623Y026359D01*
X015610Y025409D02*
X011610Y025409D01*
X010610Y024409D01*
X010610Y022409D01*
X015610Y025409D02*
X015910Y025709D01*
X015910Y027459D01*
X015660Y027709D01*
X014660Y028859D01*
X012660Y028859D02*
X012660Y028359D01*
X022910Y029859D02*
X023660Y029859D01*
X020160Y003109D02*
X020160Y002859D01*
X013747Y001359D02*
X012910Y001359D01*
X012790Y001219D01*
D22*
X015536Y007259D03*
X016284Y007259D03*
X008784Y019509D03*
X008036Y019509D03*
X008436Y024709D03*
X009184Y024709D03*
X021975Y030859D03*
X022645Y030859D03*
X034925Y030659D03*
X035595Y030659D03*
D23*
X004760Y020909D03*
X004760Y014375D03*
X004760Y007981D03*
D24*
X004760Y009359D03*
X004760Y010737D03*
X004760Y012115D03*
X004760Y015753D03*
X004760Y017131D03*
X004760Y018509D03*
X004760Y022287D03*
X004760Y023665D03*
X004760Y025043D03*
D25*
X004729Y006067D03*
X004729Y004690D03*
D26*
X010230Y002999D03*
X012790Y002999D03*
X012790Y001219D03*
X010230Y001219D03*
D27*
X016389Y004509D03*
X016389Y005009D03*
X016389Y005509D03*
X016389Y006009D03*
X017231Y006009D03*
X017231Y005509D03*
X017231Y005009D03*
X017231Y004509D03*
X027739Y010609D03*
X027739Y011109D03*
X027739Y011609D03*
X027739Y012109D03*
X028581Y012109D03*
X028581Y011609D03*
X028581Y011109D03*
X028581Y010609D03*
X033739Y010609D03*
X033739Y011109D03*
X033739Y011609D03*
X033739Y012109D03*
X034581Y012109D03*
X034581Y011609D03*
X034581Y011109D03*
X034581Y010609D03*
X034581Y015609D03*
X034581Y016109D03*
X034581Y016609D03*
X034581Y017109D03*
X033739Y017109D03*
X033739Y016609D03*
X033739Y016109D03*
X033739Y015609D03*
X033581Y023609D03*
X033581Y024109D03*
X033581Y024609D03*
X033581Y025109D03*
X032739Y025109D03*
X032739Y024609D03*
X032739Y024109D03*
X032739Y023609D03*
X037739Y023609D03*
X037739Y024109D03*
X037739Y024609D03*
X037739Y025109D03*
X038581Y025109D03*
X038581Y024609D03*
X038581Y024109D03*
X038581Y023609D03*
D28*
X037160Y021909D03*
X036160Y021909D03*
X035160Y021909D03*
X034160Y021909D03*
X033160Y021909D03*
X032160Y021909D03*
X031160Y021909D03*
X030160Y021909D03*
X028160Y021909D03*
X027160Y021909D03*
X026160Y021909D03*
X025160Y021909D03*
X024160Y021909D03*
X023160Y021909D03*
X022160Y021909D03*
X021160Y021909D03*
X019560Y021909D03*
X018560Y021909D03*
X017560Y021909D03*
X016560Y021909D03*
X015560Y021909D03*
X014560Y021909D03*
X013560Y021909D03*
X012560Y021909D03*
X016160Y002859D03*
X017160Y002859D03*
X018160Y002859D03*
X019160Y002859D03*
X020160Y002859D03*
X021160Y002859D03*
X023160Y002909D03*
X024160Y002909D03*
X025160Y002909D03*
X026160Y002909D03*
X027160Y002909D03*
X028160Y002909D03*
X029160Y002909D03*
X030160Y002909D03*
X032160Y002909D03*
X033160Y002909D03*
X034160Y002909D03*
X035160Y002909D03*
X036160Y002909D03*
X037160Y002909D03*
X038160Y002909D03*
X039160Y002909D03*
D29*
X038660Y007909D03*
X037660Y007909D03*
X037660Y008909D03*
X038660Y008909D03*
X038660Y009909D03*
X037660Y009909D03*
D30*
X037617Y027973D03*
X036617Y027973D03*
X035617Y027973D03*
X034617Y027973D03*
X033617Y027973D03*
X032617Y027973D03*
X031617Y027973D03*
X030617Y027973D03*
X029617Y027973D03*
X028617Y027973D03*
X027617Y027973D03*
X026617Y027973D03*
X025617Y027973D03*
X024617Y027973D03*
X023617Y027973D03*
X022617Y027973D03*
X021617Y027973D03*
X021617Y028973D03*
X022617Y028973D03*
X023617Y028973D03*
X024617Y028973D03*
X025617Y028973D03*
X026617Y028973D03*
X027617Y028973D03*
X028617Y028973D03*
X029617Y028973D03*
X030617Y028973D03*
X031617Y028973D03*
X032617Y028973D03*
X033617Y028973D03*
X034617Y028973D03*
X035617Y028973D03*
X036617Y028973D03*
X037617Y028973D03*
X038617Y028973D03*
X039617Y028973D03*
X040617Y028973D03*
X040617Y027973D03*
X039617Y027973D03*
X038617Y027973D03*
X009110Y028409D03*
X008110Y028409D03*
X008110Y027409D03*
X009110Y027409D03*
X009110Y029409D03*
X008110Y029409D03*
D31*
X017510Y027709D02*
X017810Y027709D01*
X017810Y026459D02*
X017510Y026459D01*
X017260Y018059D02*
X016960Y018059D01*
X016960Y017009D02*
X017260Y017009D01*
X017210Y011859D02*
X016910Y011859D01*
X016910Y010709D02*
X017210Y010709D01*
D32*
X017260Y010709D03*
X016860Y010709D03*
X016883Y009609D03*
X017237Y009609D03*
X017260Y011859D03*
X016860Y011859D03*
X016933Y015959D03*
X017287Y015959D03*
X017310Y017009D03*
X016910Y017009D03*
X016910Y018059D03*
X017310Y018059D03*
X017483Y025259D03*
X017837Y025259D03*
X017860Y026459D03*
X017460Y026459D03*
X017460Y027709D03*
X017860Y027709D03*
D33*
X013707Y013237D02*
X013710Y013234D01*
X020938Y012131D02*
X020960Y012109D01*
X020960Y011759D01*
X020960Y009109D01*
X020960Y007009D01*
X022160Y005809D01*
X022160Y005359D01*
X022160Y001409D01*
X021810Y001059D01*
X018510Y001059D01*
X018160Y001409D01*
X018160Y001891D01*
X018160Y002859D01*
X010230Y001219D02*
X009620Y001219D01*
X006333Y001686D02*
X005191Y002828D01*
X005191Y003536D01*
X004729Y003999D01*
X004729Y004690D01*
D34*
X009801Y013034D02*
X011504Y013034D01*
X011707Y013237D01*
X019160Y001891D02*
X020160Y001891D01*
X040160Y003891D02*
X041160Y003891D01*
X018660Y028859D02*
X018660Y029409D01*
X018460Y029609D01*
X013060Y029609D01*
X012660Y029209D01*
X012660Y028859D01*
D35*
X016760Y025909D02*
X017110Y026259D01*
X017110Y026859D01*
X017410Y027159D01*
X017410Y027659D01*
X017460Y027709D02*
X017460Y028009D01*
X017660Y028209D01*
X018284Y028209D01*
X018660Y027833D01*
X019410Y028159D02*
X019410Y027359D01*
X019110Y027059D01*
X018686Y027059D01*
X018660Y027085D01*
X017860Y027059D02*
X017860Y026459D01*
X017860Y025809D01*
X017934Y025883D01*
X018660Y025883D01*
X018660Y025135D02*
X019234Y025135D01*
X019460Y024909D01*
X017860Y025282D02*
X017860Y025809D01*
X017460Y025959D02*
X017460Y026459D01*
X017460Y025959D02*
X017010Y025509D01*
X017010Y025109D01*
X016460Y024559D01*
X014660Y024559D01*
X013960Y023859D01*
X013660Y023859D01*
X013060Y023859D02*
X014060Y024859D01*
X016360Y024859D01*
X016760Y025259D01*
X016760Y025909D01*
X017460Y025236D02*
X017483Y025259D01*
X017460Y025236D02*
X017460Y024609D01*
X017160Y024309D01*
X015460Y024309D01*
X015010Y023859D01*
X014660Y023859D01*
X013060Y023859D02*
X012660Y023859D01*
X017837Y025182D02*
X017837Y025259D01*
X017860Y025282D01*
X017860Y027059D02*
X017860Y027709D01*
X018660Y028859D02*
X018710Y028859D01*
X019410Y028159D01*
X022625Y028982D02*
X021975Y030859D01*
X025160Y022209D02*
X025160Y022109D01*
X019982Y018481D02*
X019885Y018384D01*
X018510Y017009D01*
X017310Y017009D01*
X017310Y016409D01*
X017310Y015982D01*
X016933Y015959D02*
X016933Y015432D01*
X016610Y015109D01*
X015241Y015109D01*
X014688Y014556D01*
X015688Y014556D02*
X016688Y014556D01*
X016460Y015359D02*
X014491Y015359D01*
X013688Y014556D01*
X012688Y014556D02*
X013741Y015609D01*
X015860Y015609D01*
X016210Y015959D01*
X016210Y016459D01*
X016560Y016809D01*
X016560Y017409D01*
X016910Y017759D01*
X016910Y018059D01*
X016910Y018409D01*
X017010Y018509D01*
X018034Y018509D01*
X017310Y017559D02*
X017310Y017009D01*
X016910Y017009D02*
X016910Y016709D01*
X016560Y016359D01*
X016560Y015459D01*
X016460Y015359D01*
X017336Y016383D02*
X018060Y016383D01*
X018060Y016436D01*
X022160Y016359D02*
X022160Y013059D01*
X018123Y012160D02*
X017759Y012160D01*
X017510Y012409D01*
X017060Y012409D01*
X016860Y012209D01*
X016860Y011859D01*
X016860Y011359D01*
X016160Y010659D01*
X016160Y009909D01*
X015510Y009259D01*
X013710Y009259D01*
X013629Y009178D01*
X013629Y009159D01*
X012707Y008237D01*
X013707Y008237D02*
X014479Y009009D01*
X015810Y009009D01*
X016460Y009659D01*
X016460Y009859D01*
X016860Y010259D01*
X016860Y010709D01*
X017237Y010686D02*
X017237Y010009D01*
X017343Y010115D01*
X018118Y010115D01*
X017237Y010009D02*
X017237Y009609D01*
X016883Y009609D02*
X016883Y009232D01*
X016360Y008709D01*
X015179Y008709D01*
X014707Y008237D01*
X013788Y008237D02*
X013707Y008237D01*
X017260Y008909D02*
X017660Y008909D01*
X018118Y009367D01*
X017260Y010709D02*
X017260Y011259D01*
X017260Y011859D01*
X036610Y025109D02*
X037739Y025109D01*
X038581Y025109D02*
X039660Y025109D01*
X039210Y024609D02*
X038581Y024609D01*
X038581Y024109D02*
X041360Y024109D01*
X041910Y023659D01*
X041910Y020209D01*
X041491Y019891D01*
X041160Y019891D01*
X041460Y020409D02*
X040679Y020409D01*
X040160Y019891D01*
X039660Y019659D02*
X039660Y022909D01*
X039160Y022359D02*
X039160Y019059D01*
X039660Y019659D02*
X039960Y019359D01*
X041460Y019359D01*
X041760Y019059D01*
X041760Y012459D01*
X041460Y020409D02*
X041610Y020559D01*
X041610Y023409D01*
X041360Y023609D01*
X038581Y023609D01*
X035595Y028995D02*
X035595Y030659D01*
D36*
X032910Y030109D02*
X023910Y030109D01*
X023660Y029859D01*
X012910Y028109D02*
X011410Y028109D01*
X018688Y019556D02*
X018910Y019609D01*
X018910Y018109D01*
X018660Y017859D01*
X018160Y017859D01*
X018060Y017735D01*
X013673Y017056D02*
X013660Y016859D01*
X012160Y015359D01*
X010910Y015359D01*
X009910Y015359D01*
X009801Y015160D01*
X012707Y013237D02*
X012910Y013109D01*
X012910Y012109D01*
X013410Y011609D01*
X013410Y010859D02*
X013645Y010740D01*
X013660Y009859D02*
X012010Y009859D01*
X010910Y008609D01*
X019410Y010109D02*
X019410Y003609D01*
X019160Y003609D01*
X019660Y003109D01*
X020160Y003109D01*
X021410Y004359D01*
X030410Y011609D02*
X037910Y004109D01*
X040160Y004109D01*
X040160Y003891D01*
D37*
X039160Y002909D02*
X039160Y001891D01*
X038160Y001891D02*
X038160Y002909D01*
X037160Y002909D02*
X037160Y001891D01*
X036160Y001891D02*
X036160Y002909D01*
X035160Y002909D02*
X035160Y001891D01*
X034160Y001891D02*
X034160Y002909D01*
X033160Y002909D02*
X033160Y001891D01*
X032160Y001891D02*
X032160Y002909D01*
X030160Y002909D02*
X030160Y001891D01*
X029160Y001891D02*
X029160Y002909D01*
X028160Y002909D02*
X028160Y001891D01*
X027160Y001891D02*
X027160Y002909D01*
X026160Y002909D02*
X026160Y001891D01*
X025160Y001891D02*
X025160Y002909D01*
X024160Y002909D02*
X024160Y001891D01*
X023160Y001891D02*
X023160Y002909D01*
X020960Y009109D02*
X021010Y009159D01*
X019660Y011359D02*
X018160Y011359D01*
X020960Y012109D02*
X020960Y018400D01*
X021010Y018450D01*
X021160Y018450D01*
X021160Y020891D02*
X021160Y021909D01*
X022160Y021909D02*
X022160Y020891D01*
X023160Y020891D02*
X023160Y021909D01*
X026160Y021909D02*
X026160Y020891D01*
X027160Y020891D02*
X027160Y021909D01*
X028160Y021909D02*
X028160Y020891D01*
X030160Y020891D02*
X030160Y021909D01*
X031160Y021909D02*
X031160Y020891D01*
X032160Y020891D02*
X032160Y021909D01*
X033160Y021909D02*
X033160Y020891D01*
X034160Y020891D02*
X034160Y021909D01*
X035160Y021909D02*
X035160Y020891D01*
X036160Y020891D02*
X036160Y021909D01*
X037160Y021909D02*
X037160Y020891D01*
X040160Y020891D02*
X041160Y020891D01*
X030410Y011609D02*
X028660Y011609D01*
X019560Y020891D02*
X019560Y021909D01*
X018560Y021909D02*
X018560Y020891D01*
X017560Y020891D02*
X017560Y021909D01*
X016560Y021909D02*
X016560Y020891D01*
X015560Y020891D02*
X015560Y021909D01*
X014560Y021909D02*
X014560Y020891D01*
X012560Y020891D02*
X012560Y021909D01*
D38*
X011410Y021109D03*
X006660Y019859D03*
X003910Y014109D03*
X017910Y015109D03*
X023660Y015859D03*
X024160Y015359D03*
X024660Y013609D03*
X027160Y011109D03*
X033160Y012109D03*
X034160Y010859D03*
X035410Y012609D03*
X035910Y014609D03*
X035410Y015609D03*
X036660Y016859D03*
X037660Y017859D03*
X038410Y016859D03*
X039160Y017359D03*
X038910Y018109D03*
X038910Y019359D03*
X038910Y019859D03*
X037660Y019359D03*
X041660Y019609D03*
X037160Y024109D03*
X034160Y024109D03*
X034160Y023609D03*
X033160Y023859D03*
X031660Y024109D03*
X031660Y023109D03*
X029910Y022859D03*
X029910Y023609D03*
X028410Y025109D03*
X026910Y027109D03*
X026660Y021609D03*
X025160Y020359D03*
X024660Y017859D03*
X020660Y020359D03*
X030410Y016609D03*
X030660Y016859D03*
X031660Y015859D03*
X031660Y015359D03*
X033160Y017109D03*
X032660Y017859D03*
X033660Y017859D03*
X041410Y014359D03*
X021410Y004359D03*
D39*
X011510Y003359D03*
D40*
X014160Y001859D03*
X015660Y003609D03*
X015910Y004609D03*
X015910Y005109D03*
X017660Y003609D03*
X016910Y003359D03*
X019910Y003609D03*
X021410Y004859D03*
X018910Y006609D03*
X017660Y007609D03*
X018160Y008859D03*
X014410Y006859D03*
X018160Y012609D03*
X019160Y015109D03*
X019160Y016109D03*
X018660Y016359D03*
X019660Y017359D03*
X016410Y017609D03*
X022660Y019859D03*
X022660Y020859D03*
X023660Y021609D03*
X024660Y022609D03*
X023160Y023109D03*
X023160Y024109D03*
X021660Y023109D03*
X025160Y019859D03*
X026160Y019859D03*
X025160Y018859D03*
X023660Y017359D03*
X022910Y013609D03*
X022910Y013109D03*
X030160Y013609D03*
X017160Y027359D03*
X017160Y028109D03*
X016160Y028109D03*
X016160Y029109D03*
X021410Y030859D03*
X021660Y030359D03*
X022910Y029859D03*
X023910Y030859D03*
X032910Y030109D03*
X010160Y027359D03*
X010160Y026609D03*
X006910Y027359D03*
X007160Y029109D03*
X007910Y030609D03*
X005660Y031359D03*
X004660Y025859D03*
X005160Y021609D03*
X005660Y020109D03*
X007660Y014359D03*
X006160Y007109D03*
X005660Y007109D03*
X006910Y006859D03*
D41*
X012660Y004359D02*
X013747Y004359D01*
X018160Y011359D02*
X018123Y011412D01*
X020105Y018481D02*
X021128Y018481D01*
D42*
X010960Y019509D03*
X008460Y023109D03*
D43*
X010610Y022409D03*
X017310Y017559D03*
X015860Y016909D03*
X015010Y016109D03*
X020410Y016359D03*
X022160Y016359D03*
X021510Y017859D03*
X025160Y017409D03*
X020410Y013009D03*
X021960Y010409D03*
X022560Y009759D03*
X017260Y008909D03*
X015610Y010709D03*
X014810Y009909D03*
X017260Y011259D03*
X013110Y007209D03*
X009460Y008459D03*
X019460Y024909D03*
X017860Y027059D03*
X036610Y025109D03*
X037160Y024609D03*
X039210Y024609D03*
X039660Y025109D03*
X039660Y022909D03*
X039160Y022359D03*
X039160Y019059D03*
D44*
X015860Y018109D02*
X015860Y016909D01*
X015010Y017559D02*
X015010Y016109D01*
X015010Y017559D02*
X014410Y018159D01*
X014110Y018159D01*
X013688Y018582D01*
X013688Y019556D01*
X014688Y019556D02*
X014860Y019384D01*
X014860Y019059D01*
X015260Y018659D01*
X015310Y018659D01*
X015860Y018109D01*
X014707Y013237D02*
X014710Y013234D01*
X014710Y012509D01*
X015610Y011609D01*
X015610Y010709D01*
X014810Y011259D02*
X014810Y009909D01*
X014810Y011259D02*
X013710Y012359D01*
X013710Y013234D01*
D45*
X022160Y005359D02*
X025160Y008359D01*
X025160Y017409D01*
M02*
