G75*
G70*
%OFA0B0*%
%FSLAX24Y24*%
%IPPOS*%
%LPD*%
%AMOC8*
5,1,8,0,0,1.08239X$1,22.5*
%
%ADD10C,0.0160*%
%ADD11C,0.0634*%
%ADD12C,0.0000*%
%ADD13C,0.1300*%
%ADD14R,0.0512X0.0512*%
%ADD15R,0.0670X0.1418*%
%ADD16R,0.0631X0.0552*%
%ADD17C,0.0740*%
%ADD18C,0.0594*%
%ADD19C,0.0640*%
%ADD20R,0.1418X0.0670*%
%ADD21C,0.1930*%
%ADD22C,0.0600*%
%ADD23R,0.0552X0.0631*%
%ADD24R,0.0840X0.0840*%
%ADD25C,0.0840*%
%ADD26C,0.0900*%
%ADD27C,0.0780*%
%ADD28R,0.0473X0.0335*%
%ADD29OC8,0.0740*%
%ADD30C,0.0700*%
%ADD31OC8,0.0640*%
%ADD32R,0.0540X0.0290*%
%ADD33R,0.0290X0.0540*%
D10*
X002220Y002007D02*
X003007Y001220D01*
X040803Y001220D01*
X041590Y002007D01*
X041590Y031929D01*
X040803Y032716D01*
X003007Y032716D01*
X002220Y031929D01*
X002220Y002007D01*
D11*
X015220Y002751D03*
X016220Y002751D03*
X017220Y002751D03*
X018220Y002751D03*
X019220Y002751D03*
X020220Y002751D03*
X022220Y002751D03*
X023220Y002751D03*
X024220Y002751D03*
X025220Y002751D03*
X026220Y002751D03*
X027220Y002751D03*
X028220Y002751D03*
X029220Y002751D03*
X031220Y002751D03*
X032220Y002751D03*
X033220Y002751D03*
X034220Y002751D03*
X035220Y002751D03*
X036220Y002751D03*
X037220Y002751D03*
X038220Y002751D03*
X039220Y004751D03*
X040220Y004751D03*
X040220Y005751D03*
X039220Y005751D03*
X039220Y006751D03*
X040220Y006751D03*
X040220Y007751D03*
X039220Y007751D03*
X039220Y008751D03*
X040220Y008751D03*
X040220Y009751D03*
X039220Y009751D03*
X039220Y010751D03*
X040220Y010751D03*
X040220Y011751D03*
X039220Y011751D03*
X039220Y012751D03*
X040220Y012751D03*
X040220Y013751D03*
X039220Y013751D03*
X039220Y014751D03*
X040220Y014751D03*
X040220Y015751D03*
X039220Y015751D03*
X039220Y016751D03*
X040220Y016751D03*
X040220Y017751D03*
X039220Y017751D03*
X039220Y018751D03*
X040220Y018751D03*
X040220Y019751D03*
X039220Y019751D03*
X039220Y020751D03*
X040220Y020751D03*
X040220Y021751D03*
X039220Y021751D03*
X036220Y021751D03*
X035220Y021751D03*
X034220Y021751D03*
X033220Y021751D03*
X032220Y021751D03*
X031220Y021751D03*
X030220Y021751D03*
X029220Y021751D03*
X027220Y021751D03*
X026220Y021751D03*
X025220Y021751D03*
X024220Y021751D03*
X023220Y021751D03*
X022220Y021751D03*
X021220Y021751D03*
X020220Y021751D03*
X018620Y021751D03*
X017620Y021751D03*
X016620Y021751D03*
X015620Y021751D03*
X014620Y021751D03*
X013620Y021751D03*
X012620Y021751D03*
X011620Y021751D03*
D12*
X007590Y021751D02*
X007592Y021801D01*
X007598Y021851D01*
X007608Y021900D01*
X007622Y021948D01*
X007639Y021995D01*
X007660Y022040D01*
X007685Y022084D01*
X007713Y022125D01*
X007745Y022164D01*
X007779Y022201D01*
X007816Y022235D01*
X007856Y022265D01*
X007898Y022292D01*
X007942Y022316D01*
X007988Y022337D01*
X008035Y022353D01*
X008083Y022366D01*
X008133Y022375D01*
X008182Y022380D01*
X008233Y022381D01*
X008283Y022378D01*
X008332Y022371D01*
X008381Y022360D01*
X008429Y022345D01*
X008475Y022327D01*
X008520Y022305D01*
X008563Y022279D01*
X008604Y022250D01*
X008643Y022218D01*
X008679Y022183D01*
X008711Y022145D01*
X008741Y022105D01*
X008768Y022062D01*
X008791Y022018D01*
X008810Y021972D01*
X008826Y021924D01*
X008838Y021875D01*
X008846Y021826D01*
X008850Y021776D01*
X008850Y021726D01*
X008846Y021676D01*
X008838Y021627D01*
X008826Y021578D01*
X008810Y021530D01*
X008791Y021484D01*
X008768Y021440D01*
X008741Y021397D01*
X008711Y021357D01*
X008679Y021319D01*
X008643Y021284D01*
X008604Y021252D01*
X008563Y021223D01*
X008520Y021197D01*
X008475Y021175D01*
X008429Y021157D01*
X008381Y021142D01*
X008332Y021131D01*
X008283Y021124D01*
X008233Y021121D01*
X008182Y021122D01*
X008133Y021127D01*
X008083Y021136D01*
X008035Y021149D01*
X007988Y021165D01*
X007942Y021186D01*
X007898Y021210D01*
X007856Y021237D01*
X007816Y021267D01*
X007779Y021301D01*
X007745Y021338D01*
X007713Y021377D01*
X007685Y021418D01*
X007660Y021462D01*
X007639Y021507D01*
X007622Y021554D01*
X007608Y021602D01*
X007598Y021651D01*
X007592Y021701D01*
X007590Y021751D01*
X007090Y002751D02*
X007092Y002801D01*
X007098Y002851D01*
X007108Y002900D01*
X007122Y002948D01*
X007139Y002995D01*
X007160Y003040D01*
X007185Y003084D01*
X007213Y003125D01*
X007245Y003164D01*
X007279Y003201D01*
X007316Y003235D01*
X007356Y003265D01*
X007398Y003292D01*
X007442Y003316D01*
X007488Y003337D01*
X007535Y003353D01*
X007583Y003366D01*
X007633Y003375D01*
X007682Y003380D01*
X007733Y003381D01*
X007783Y003378D01*
X007832Y003371D01*
X007881Y003360D01*
X007929Y003345D01*
X007975Y003327D01*
X008020Y003305D01*
X008063Y003279D01*
X008104Y003250D01*
X008143Y003218D01*
X008179Y003183D01*
X008211Y003145D01*
X008241Y003105D01*
X008268Y003062D01*
X008291Y003018D01*
X008310Y002972D01*
X008326Y002924D01*
X008338Y002875D01*
X008346Y002826D01*
X008350Y002776D01*
X008350Y002726D01*
X008346Y002676D01*
X008338Y002627D01*
X008326Y002578D01*
X008310Y002530D01*
X008291Y002484D01*
X008268Y002440D01*
X008241Y002397D01*
X008211Y002357D01*
X008179Y002319D01*
X008143Y002284D01*
X008104Y002252D01*
X008063Y002223D01*
X008020Y002197D01*
X007975Y002175D01*
X007929Y002157D01*
X007881Y002142D01*
X007832Y002131D01*
X007783Y002124D01*
X007733Y002121D01*
X007682Y002122D01*
X007633Y002127D01*
X007583Y002136D01*
X007535Y002149D01*
X007488Y002165D01*
X007442Y002186D01*
X007398Y002210D01*
X007356Y002237D01*
X007316Y002267D01*
X007279Y002301D01*
X007245Y002338D01*
X007213Y002377D01*
X007185Y002418D01*
X007160Y002462D01*
X007139Y002507D01*
X007122Y002554D01*
X007108Y002602D01*
X007098Y002651D01*
X007092Y002701D01*
X007090Y002751D01*
X039590Y002751D02*
X039592Y002801D01*
X039598Y002851D01*
X039608Y002900D01*
X039622Y002948D01*
X039639Y002995D01*
X039660Y003040D01*
X039685Y003084D01*
X039713Y003125D01*
X039745Y003164D01*
X039779Y003201D01*
X039816Y003235D01*
X039856Y003265D01*
X039898Y003292D01*
X039942Y003316D01*
X039988Y003337D01*
X040035Y003353D01*
X040083Y003366D01*
X040133Y003375D01*
X040182Y003380D01*
X040233Y003381D01*
X040283Y003378D01*
X040332Y003371D01*
X040381Y003360D01*
X040429Y003345D01*
X040475Y003327D01*
X040520Y003305D01*
X040563Y003279D01*
X040604Y003250D01*
X040643Y003218D01*
X040679Y003183D01*
X040711Y003145D01*
X040741Y003105D01*
X040768Y003062D01*
X040791Y003018D01*
X040810Y002972D01*
X040826Y002924D01*
X040838Y002875D01*
X040846Y002826D01*
X040850Y002776D01*
X040850Y002726D01*
X040846Y002676D01*
X040838Y002627D01*
X040826Y002578D01*
X040810Y002530D01*
X040791Y002484D01*
X040768Y002440D01*
X040741Y002397D01*
X040711Y002357D01*
X040679Y002319D01*
X040643Y002284D01*
X040604Y002252D01*
X040563Y002223D01*
X040520Y002197D01*
X040475Y002175D01*
X040429Y002157D01*
X040381Y002142D01*
X040332Y002131D01*
X040283Y002124D01*
X040233Y002121D01*
X040182Y002122D01*
X040133Y002127D01*
X040083Y002136D01*
X040035Y002149D01*
X039988Y002165D01*
X039942Y002186D01*
X039898Y002210D01*
X039856Y002237D01*
X039816Y002267D01*
X039779Y002301D01*
X039745Y002338D01*
X039713Y002377D01*
X039685Y002418D01*
X039660Y002462D01*
X039639Y002507D01*
X039622Y002554D01*
X039608Y002602D01*
X039598Y002651D01*
X039592Y002701D01*
X039590Y002751D01*
D13*
X040220Y002751D03*
X008220Y021751D03*
X007720Y002751D03*
D14*
X013379Y002954D03*
X013379Y002127D03*
X013433Y023720D03*
X012607Y023720D03*
D15*
X008311Y016021D03*
X008311Y013895D03*
D16*
X007976Y018180D03*
X007976Y018849D03*
X015720Y017944D03*
X015720Y017196D03*
X021212Y019814D03*
X021212Y020562D03*
X024220Y020594D03*
X024220Y019846D03*
X014720Y025846D03*
X014720Y026594D03*
X014720Y027846D03*
X014720Y028594D03*
X015733Y011921D03*
X015733Y011173D03*
D17*
X005870Y011389D03*
X005870Y012389D03*
X005870Y010389D03*
X005870Y009389D03*
X005870Y015786D03*
X005870Y016786D03*
X005870Y017786D03*
X005870Y018786D03*
X005870Y022270D03*
X005870Y023270D03*
X005870Y024270D03*
X005870Y025270D03*
X035720Y009770D03*
X035720Y008770D03*
X036720Y013770D03*
X037720Y013770D03*
X037720Y014770D03*
X036720Y014770D03*
X036720Y015770D03*
X037720Y015770D03*
X037720Y016770D03*
X036720Y016770D03*
D18*
X017748Y015417D03*
X016748Y015417D03*
X015748Y015417D03*
X014748Y015417D03*
X013748Y015417D03*
X012748Y015417D03*
X011748Y015417D03*
X010748Y015417D03*
X010767Y014098D03*
X011767Y014098D03*
X012767Y014098D03*
X013767Y014098D03*
X014767Y014098D03*
X015767Y014098D03*
X016767Y014098D03*
X017767Y014098D03*
X017767Y009098D03*
X016767Y009098D03*
X015767Y009098D03*
X014767Y009098D03*
X013767Y009098D03*
X012767Y009098D03*
X011767Y009098D03*
X010767Y009098D03*
X010748Y020417D03*
X011748Y020417D03*
X012748Y020417D03*
X013748Y020417D03*
X014748Y020417D03*
X015748Y020417D03*
X016748Y020417D03*
X017748Y020417D03*
X014720Y024720D03*
X013720Y024720D03*
X012720Y024720D03*
X011720Y024720D03*
X010720Y024720D03*
X009720Y024720D03*
X008720Y024720D03*
X007720Y024720D03*
X007720Y029720D03*
X008720Y029720D03*
X009720Y029720D03*
X010720Y029720D03*
X011720Y029720D03*
X012720Y029720D03*
X013720Y029720D03*
X014720Y029720D03*
D19*
X016936Y030217D03*
X017936Y030217D03*
X017936Y029217D03*
X017936Y028217D03*
X016936Y028217D03*
X016936Y029217D03*
D20*
X010283Y027220D03*
X008157Y027220D03*
X009357Y018217D03*
X011483Y018217D03*
X011505Y011901D03*
X009379Y011901D03*
D21*
X006574Y004397D03*
X005393Y002547D03*
X004251Y004397D03*
D22*
X006191Y006730D02*
X006191Y007290D01*
X007191Y007290D02*
X007191Y006730D01*
D23*
X013079Y004451D03*
X013827Y004451D03*
X021685Y031520D03*
X022355Y031520D03*
X033985Y031520D03*
X034655Y031520D03*
D24*
X003820Y021770D03*
X003820Y015236D03*
X003820Y008842D03*
D25*
X003820Y010220D03*
X003820Y011598D03*
X003820Y012976D03*
X003820Y016614D03*
X003820Y017992D03*
X003820Y019370D03*
X003820Y023148D03*
X003820Y024526D03*
X003820Y025904D03*
D26*
X003789Y006928D03*
X003789Y005550D03*
D27*
X009290Y003860D03*
X009290Y002080D03*
X011850Y002080D03*
X011850Y003860D03*
D28*
X026799Y015470D03*
X026799Y015970D03*
X026799Y016470D03*
X026799Y016970D03*
X027641Y016970D03*
X027641Y016470D03*
X027641Y015970D03*
X027641Y015470D03*
X032799Y012970D03*
X032799Y012470D03*
X032799Y011970D03*
X032799Y011470D03*
X033641Y011470D03*
X033641Y011970D03*
X033641Y012470D03*
X033641Y012970D03*
X033641Y018470D03*
X033641Y018970D03*
X033641Y019470D03*
X033641Y019970D03*
X032799Y019970D03*
X032799Y019470D03*
X032799Y018970D03*
X032799Y018470D03*
X036799Y024470D03*
X036799Y024970D03*
X036799Y025470D03*
X036799Y025970D03*
X037641Y025970D03*
X037641Y025470D03*
X037641Y024970D03*
X037641Y024470D03*
X025641Y024470D03*
X025641Y024970D03*
X025641Y025470D03*
X025641Y025970D03*
X024799Y025970D03*
X024799Y025470D03*
X024799Y024970D03*
X024799Y024470D03*
D29*
X025220Y022770D03*
X026220Y022770D03*
X027220Y022770D03*
X029220Y022770D03*
X030220Y022770D03*
X031220Y022770D03*
X032220Y022770D03*
X033220Y022770D03*
X034220Y022770D03*
X035220Y022770D03*
X036220Y022770D03*
X024220Y022770D03*
X023220Y022770D03*
X022220Y022770D03*
X021220Y022770D03*
X020220Y022770D03*
X018620Y022770D03*
X017620Y022770D03*
X016620Y022770D03*
X015620Y022770D03*
X014620Y022770D03*
X013620Y022770D03*
X012620Y022770D03*
X011620Y022770D03*
X015220Y003720D03*
X016220Y003720D03*
X017220Y003720D03*
X018220Y003720D03*
X019220Y003720D03*
X020220Y003720D03*
X022220Y003770D03*
X023220Y003770D03*
X024220Y003770D03*
X025220Y003770D03*
X026220Y003770D03*
X027220Y003770D03*
X028220Y003770D03*
X029220Y003770D03*
X031220Y003770D03*
X032220Y003770D03*
X033220Y003770D03*
X034220Y003770D03*
X035220Y003770D03*
X036220Y003770D03*
X037220Y003770D03*
X038220Y003770D03*
D30*
X037720Y008770D03*
X036720Y008770D03*
X036720Y009770D03*
X037720Y009770D03*
X037720Y010770D03*
X036720Y010770D03*
D31*
X017970Y024220D03*
X016970Y024220D03*
X016970Y025220D03*
X017970Y025220D03*
X017970Y026220D03*
X016970Y026220D03*
X020677Y028834D03*
X021677Y028834D03*
X022677Y028834D03*
X023677Y028834D03*
X024677Y028834D03*
X025677Y028834D03*
X026677Y028834D03*
X027677Y028834D03*
X028677Y028834D03*
X029677Y028834D03*
X030677Y028834D03*
X031677Y028834D03*
X032677Y028834D03*
X033677Y028834D03*
X034677Y028834D03*
X035677Y028834D03*
X036677Y028834D03*
X037677Y028834D03*
X038677Y028834D03*
X039677Y028834D03*
X039677Y029834D03*
X038677Y029834D03*
X037677Y029834D03*
X036677Y029834D03*
X035677Y029834D03*
X034677Y029834D03*
X033677Y029834D03*
X032677Y029834D03*
X031677Y029834D03*
X030677Y029834D03*
X029677Y029834D03*
X028677Y029834D03*
X027677Y029834D03*
X026677Y029834D03*
X025677Y029834D03*
X024677Y029834D03*
X023677Y029834D03*
X022677Y029834D03*
X021677Y029834D03*
X020677Y029834D03*
D32*
X018670Y018847D03*
X018670Y018493D03*
X017720Y018470D03*
X017720Y018870D03*
X016720Y018870D03*
X016720Y018470D03*
X016720Y012620D03*
X016720Y012220D03*
X017720Y012220D03*
X017720Y012620D03*
X018720Y012597D03*
X018720Y012243D03*
D33*
X013647Y026270D03*
X013293Y026270D03*
X012620Y026270D03*
X012220Y026270D03*
X011520Y026270D03*
X011120Y026270D03*
M02*
