G75*
G70*
%OFA0B0*%
%FSLAX24Y24*%
%IPPOS*%
%LPD*%
%AMOC8*
5,1,8,0,0,1.08239X$1,22.5*
%
%ADD10C,0.0160*%
%ADD11C,0.0000*%
%ADD12C,0.0594*%
%ADD13C,0.0700*%
%ADD14C,0.0554*%
%ADD15C,0.0600*%
%ADD16C,0.1890*%
%ADD17C,0.0560*%
%ADD18OC8,0.0600*%
%ADD19R,0.0800X0.0800*%
%ADD20C,0.0800*%
%ADD21C,0.0860*%
%ADD22C,0.0740*%
%ADD23C,0.0476*%
%ADD24OC8,0.0700*%
%ADD25C,0.0660*%
%ADD26C,0.0700*%
%ADD27C,0.0320*%
%ADD28R,0.0356X0.0356*%
%ADD29C,0.0500*%
%ADD30C,0.0400*%
%ADD31C,0.1000*%
D10*
X001915Y001977D02*
X002702Y001189D01*
X040498Y001189D01*
X041285Y001977D01*
X041285Y031898D01*
X040498Y032685D01*
X002702Y032685D01*
X001915Y031898D01*
X001915Y001977D01*
X002315Y002142D02*
X002315Y022674D01*
X002738Y022250D01*
X002885Y022189D01*
X003045Y022189D01*
X004145Y022189D01*
X004292Y022250D01*
X004404Y022363D01*
X004658Y022617D01*
X004845Y022617D01*
X005073Y022711D01*
X005116Y022753D01*
X005158Y022711D01*
X005386Y022617D01*
X005623Y022617D01*
X005556Y022589D01*
X005466Y022499D01*
X005417Y022381D01*
X005417Y021897D01*
X005466Y021780D01*
X005556Y021690D01*
X005673Y021641D01*
X006157Y021641D01*
X006274Y021690D01*
X006364Y021780D01*
X006413Y021897D01*
X006413Y022072D01*
X006581Y022239D01*
X007102Y022239D01*
X006965Y021910D01*
X006965Y021532D01*
X007110Y021183D01*
X007377Y020915D01*
X007726Y020771D01*
X008104Y020771D01*
X008453Y020915D01*
X008720Y021183D01*
X008865Y021532D01*
X008865Y021910D01*
X008790Y022089D01*
X010345Y022089D01*
X010492Y022150D01*
X010604Y022263D01*
X010724Y022383D01*
X010914Y022192D01*
X010792Y022070D01*
X010698Y021843D01*
X010698Y021598D01*
X010792Y021371D01*
X010966Y021198D01*
X011192Y021104D01*
X011438Y021104D01*
X011664Y021198D01*
X011838Y021371D01*
X011892Y021501D01*
X011907Y021471D01*
X011951Y021410D01*
X012004Y021357D01*
X012065Y021313D01*
X012132Y021279D01*
X012203Y021256D01*
X012277Y021244D01*
X012296Y021244D01*
X012296Y021702D01*
X012333Y021702D01*
X012333Y021244D01*
X012352Y021244D01*
X012427Y021256D01*
X012498Y021279D01*
X012565Y021313D01*
X012626Y021357D01*
X012679Y021410D01*
X012723Y021471D01*
X012738Y021501D01*
X012792Y021371D01*
X012966Y021198D01*
X013192Y021104D01*
X013438Y021104D01*
X013664Y021198D01*
X013815Y021348D01*
X013966Y021198D01*
X014192Y021104D01*
X014438Y021104D01*
X014664Y021198D01*
X014815Y021348D01*
X014966Y021198D01*
X015192Y021104D01*
X015438Y021104D01*
X015456Y021111D01*
X015476Y021063D01*
X015555Y020983D01*
X015324Y020983D01*
X015104Y020892D01*
X014943Y020731D01*
X014781Y020892D01*
X014561Y020983D01*
X014324Y020983D01*
X014104Y020892D01*
X013943Y020731D01*
X013781Y020892D01*
X013561Y020983D01*
X013324Y020983D01*
X013104Y020892D01*
X012943Y020731D01*
X012781Y020892D01*
X012561Y020983D01*
X012324Y020983D01*
X012104Y020892D01*
X011936Y020724D01*
X011867Y020558D01*
X011866Y020562D01*
X011834Y020626D01*
X011791Y020684D01*
X011740Y020735D01*
X011682Y020777D01*
X011618Y020810D01*
X011550Y020832D01*
X011479Y020843D01*
X011451Y020843D01*
X011451Y020395D01*
X011434Y020395D01*
X011434Y020843D01*
X011407Y020843D01*
X011335Y020832D01*
X011267Y020810D01*
X011203Y020777D01*
X011145Y020735D01*
X011094Y020684D01*
X011052Y020626D01*
X011019Y020562D01*
X011018Y020558D01*
X010949Y020724D01*
X010781Y020892D01*
X010561Y020983D01*
X010324Y020983D01*
X010104Y020892D01*
X009936Y020724D01*
X009845Y020505D01*
X009845Y020267D01*
X009911Y020109D01*
X005183Y020109D01*
X004916Y020109D01*
X004670Y020007D01*
X004232Y019569D01*
X004175Y019626D01*
X004125Y019747D01*
X003923Y019949D01*
X003658Y020059D01*
X003372Y020059D01*
X003107Y019949D01*
X002905Y019747D01*
X002795Y019482D01*
X002795Y019196D01*
X002905Y018931D01*
X003107Y018729D01*
X003228Y018679D01*
X003268Y018638D01*
X003107Y018571D01*
X002905Y018369D01*
X002795Y018104D01*
X002795Y017818D01*
X002905Y017553D01*
X003107Y017351D01*
X003228Y017301D01*
X003256Y017272D01*
X003228Y017243D01*
X003107Y017193D01*
X002905Y016991D01*
X002795Y016726D01*
X002795Y016440D01*
X002905Y016175D01*
X003107Y015973D01*
X003222Y015925D01*
X003051Y015925D01*
X002934Y015876D01*
X002844Y015786D01*
X002795Y015669D01*
X002795Y014741D01*
X002844Y014624D01*
X002934Y014534D01*
X003051Y014485D01*
X003979Y014485D01*
X004096Y014534D01*
X004186Y014624D01*
X004235Y014741D01*
X004235Y014978D01*
X004342Y015085D01*
X004498Y015085D01*
X006197Y015085D01*
X006464Y015085D01*
X006710Y015187D01*
X007092Y015569D01*
X009872Y015569D01*
X009845Y015505D01*
X009845Y015267D01*
X009936Y015048D01*
X010104Y014880D01*
X010324Y014789D01*
X010336Y014789D01*
X010461Y014664D01*
X010343Y014664D01*
X010124Y014573D01*
X009956Y014405D01*
X009865Y014186D01*
X009865Y013959D01*
X005113Y013959D01*
X004867Y013857D01*
X004678Y013669D01*
X004208Y013199D01*
X004175Y013232D01*
X004125Y013353D01*
X003923Y013556D01*
X003658Y013665D01*
X003372Y013665D01*
X003107Y013556D01*
X002905Y013353D01*
X002795Y013088D01*
X002795Y012802D01*
X002905Y012537D01*
X003107Y012335D01*
X003228Y012285D01*
X003268Y012244D01*
X003107Y012178D01*
X002905Y011975D01*
X002795Y011710D01*
X002795Y011424D01*
X002905Y011159D01*
X003107Y010957D01*
X003228Y010907D01*
X003256Y010878D01*
X003228Y010850D01*
X003107Y010800D01*
X002905Y010597D01*
X002795Y010333D01*
X002795Y010046D01*
X002905Y009781D01*
X003107Y009579D01*
X003222Y009531D01*
X003051Y009531D01*
X002934Y009483D01*
X002844Y009393D01*
X002795Y009275D01*
X002315Y009275D01*
X002315Y009116D02*
X002795Y009116D01*
X002795Y008958D02*
X002315Y008958D01*
X002315Y008799D02*
X002795Y008799D01*
X002795Y008641D02*
X002315Y008641D01*
X002315Y008482D02*
X002795Y008482D01*
X002795Y008348D02*
X002844Y008230D01*
X002934Y008140D01*
X003051Y008091D01*
X003945Y008091D01*
X003945Y007926D01*
X004032Y007716D01*
X004064Y007684D01*
X004066Y007680D01*
X004156Y007590D01*
X004160Y007588D01*
X004192Y007556D01*
X004402Y007469D01*
X005324Y007469D01*
X005286Y007378D01*
X005286Y006580D01*
X004164Y006580D01*
X004120Y006473D02*
X004234Y006748D01*
X004234Y007047D01*
X004120Y007322D01*
X003909Y007533D01*
X003633Y007648D01*
X003335Y007648D01*
X003059Y007533D01*
X002848Y007322D01*
X002734Y007047D01*
X002734Y006748D01*
X002848Y006473D01*
X003059Y006262D01*
X003335Y006148D01*
X003633Y006148D01*
X003909Y006262D01*
X004120Y006473D01*
X004069Y006421D02*
X005352Y006421D01*
X005378Y006359D02*
X005546Y006190D01*
X005767Y006099D01*
X006006Y006099D01*
X006226Y006190D01*
X006386Y006351D01*
X006546Y006190D01*
X006767Y006099D01*
X007006Y006099D01*
X007150Y006159D01*
X007288Y006159D01*
X011717Y006159D01*
X011717Y005697D01*
X011766Y005580D01*
X011856Y005490D01*
X011973Y005441D01*
X012034Y005441D01*
X012793Y004682D01*
X012969Y004609D01*
X013160Y004609D01*
X013667Y004609D01*
X013667Y004197D01*
X013716Y004080D01*
X013806Y003990D01*
X013923Y003941D01*
X014245Y003941D01*
X014245Y003412D01*
X014245Y003201D01*
X012852Y003201D01*
X012235Y003818D01*
X012235Y003967D01*
X012130Y004220D01*
X011936Y004414D01*
X011682Y004519D01*
X011408Y004519D01*
X011154Y004414D01*
X011049Y004309D01*
X009481Y004309D01*
X009376Y004414D01*
X009122Y004519D01*
X008848Y004519D01*
X008594Y004414D01*
X008400Y004220D01*
X008295Y003967D01*
X008295Y003692D01*
X008400Y003438D01*
X008594Y003244D01*
X008848Y003139D01*
X009122Y003139D01*
X009376Y003244D01*
X009481Y003349D01*
X011049Y003349D01*
X011154Y003244D01*
X011408Y003139D01*
X011556Y003139D01*
X012382Y002314D01*
X012558Y002241D01*
X012749Y002241D01*
X014447Y002241D01*
X014535Y002153D01*
X014782Y002051D01*
X015048Y002051D01*
X015294Y002153D01*
X015415Y002273D01*
X015535Y002153D01*
X015782Y002051D01*
X016048Y002051D01*
X016294Y002153D01*
X016452Y002311D01*
X016566Y002198D01*
X016792Y002104D01*
X017038Y002104D01*
X017264Y002198D01*
X017438Y002371D01*
X017492Y002501D01*
X017507Y002471D01*
X017551Y002410D01*
X017604Y002357D01*
X017665Y002313D01*
X017732Y002279D01*
X017803Y002256D01*
X017877Y002244D01*
X017896Y002244D01*
X017896Y002702D01*
X017933Y002702D01*
X017933Y002244D01*
X017952Y002244D01*
X018027Y002256D01*
X018098Y002279D01*
X018165Y002313D01*
X018226Y002357D01*
X018279Y002410D01*
X018323Y002471D01*
X018357Y002538D01*
X018380Y002609D01*
X018392Y002683D01*
X018392Y002702D01*
X017934Y002702D01*
X017934Y002739D01*
X018392Y002739D01*
X018392Y002758D01*
X018380Y002832D01*
X018357Y002904D01*
X018323Y002971D01*
X018279Y003031D01*
X018226Y003084D01*
X018165Y003129D01*
X018105Y003159D01*
X018134Y003159D01*
X018415Y003440D01*
X018695Y003159D01*
X018725Y003159D01*
X018665Y003129D01*
X018604Y003084D01*
X018551Y003031D01*
X018507Y002971D01*
X018473Y002904D01*
X018450Y002832D01*
X018438Y002758D01*
X018438Y002739D01*
X018896Y002739D01*
X018896Y002702D01*
X018438Y002702D01*
X018438Y002683D01*
X018450Y002609D01*
X018473Y002538D01*
X018507Y002471D01*
X018551Y002410D01*
X018604Y002357D01*
X018665Y002313D01*
X018732Y002279D01*
X018803Y002256D01*
X018877Y002244D01*
X018896Y002244D01*
X018896Y002702D01*
X018933Y002702D01*
X018933Y002244D01*
X018952Y002244D01*
X019027Y002256D01*
X019098Y002279D01*
X019165Y002313D01*
X019189Y002331D01*
X019220Y002256D01*
X019450Y002026D01*
X019752Y001901D01*
X020078Y001901D01*
X020379Y002026D01*
X020610Y002256D01*
X020735Y002558D01*
X020735Y004352D01*
X020610Y004654D01*
X020379Y004884D01*
X017905Y007359D01*
X020469Y007359D01*
X020660Y007359D01*
X020837Y007432D01*
X021096Y007691D01*
X021157Y007691D01*
X021274Y007740D01*
X021364Y007830D01*
X021413Y007947D01*
X021413Y008431D01*
X021364Y008549D01*
X021274Y008639D01*
X021157Y008687D01*
X020673Y008687D01*
X020556Y008639D01*
X020466Y008549D01*
X020417Y008431D01*
X020417Y008370D01*
X020366Y008319D01*
X018274Y008319D01*
X020696Y010741D01*
X020957Y010741D01*
X021074Y010790D01*
X021164Y010880D01*
X021213Y010997D01*
X021213Y011481D01*
X021164Y011599D01*
X021074Y011689D01*
X020957Y011737D01*
X020473Y011737D01*
X020429Y011719D01*
X020419Y011719D01*
X020243Y011646D01*
X019645Y011048D01*
X019645Y013554D01*
X019663Y013597D01*
X019663Y014081D01*
X019651Y014109D01*
X020369Y014109D01*
X020560Y014109D01*
X020737Y014182D01*
X022187Y015632D01*
X022322Y015767D01*
X022395Y015944D01*
X022395Y017090D01*
X022856Y017552D01*
X022866Y017530D01*
X022956Y017440D01*
X023073Y017391D01*
X023557Y017391D01*
X023674Y017440D01*
X023724Y017489D01*
X024235Y017489D01*
X024395Y017489D01*
X024542Y017550D01*
X025883Y018891D01*
X026057Y018891D01*
X026174Y018940D01*
X026264Y019030D01*
X026277Y019061D01*
X026515Y018824D01*
X026515Y017798D01*
X026466Y017749D01*
X026417Y017631D01*
X026417Y017147D01*
X026466Y017030D01*
X026515Y016980D01*
X026515Y014898D01*
X026466Y014849D01*
X026417Y014731D01*
X026417Y014247D01*
X026466Y014130D01*
X026556Y014040D01*
X026673Y013991D01*
X027157Y013991D01*
X027274Y014040D01*
X027364Y014130D01*
X027413Y014247D01*
X027413Y014731D01*
X027364Y014849D01*
X027315Y014898D01*
X027315Y016980D01*
X027364Y017030D01*
X027413Y017147D01*
X027413Y017631D01*
X027364Y017749D01*
X027315Y017798D01*
X027315Y019069D01*
X027254Y019216D01*
X027142Y019328D01*
X026179Y020291D01*
X026457Y020291D01*
X026574Y020340D01*
X026664Y020430D01*
X026713Y020547D01*
X026713Y020953D01*
X026864Y021104D01*
X027038Y021104D01*
X027264Y021198D01*
X027438Y021371D01*
X027532Y021598D01*
X027532Y021843D01*
X027438Y022070D01*
X027316Y022192D01*
X027585Y022462D01*
X027585Y023017D01*
X027192Y023409D01*
X027043Y023409D01*
X027142Y023450D01*
X027254Y023563D01*
X028154Y024463D01*
X028215Y024610D01*
X028215Y024627D01*
X028559Y024627D01*
X028802Y024870D01*
X029045Y024627D01*
X029087Y024627D01*
X028576Y024116D01*
X028515Y023969D01*
X028515Y023810D01*
X028515Y023287D01*
X028245Y023017D01*
X028245Y022462D01*
X028514Y022192D01*
X028392Y022070D01*
X028298Y021843D01*
X028298Y021598D01*
X028392Y021371D01*
X028566Y021198D01*
X028792Y021104D01*
X029038Y021104D01*
X029264Y021198D01*
X029415Y021348D01*
X029566Y021198D01*
X029792Y021104D01*
X030038Y021104D01*
X030264Y021198D01*
X030415Y021348D01*
X030566Y021198D01*
X030792Y021104D01*
X031038Y021104D01*
X031264Y021198D01*
X031415Y021348D01*
X031566Y021198D01*
X031792Y021104D01*
X032038Y021104D01*
X032264Y021198D01*
X032415Y021348D01*
X032566Y021198D01*
X032792Y021104D01*
X033038Y021104D01*
X033264Y021198D01*
X033415Y021348D01*
X033566Y021198D01*
X033792Y021104D01*
X034038Y021104D01*
X034264Y021198D01*
X034415Y021348D01*
X034566Y021198D01*
X034792Y021104D01*
X035038Y021104D01*
X035264Y021198D01*
X035415Y021348D01*
X035566Y021198D01*
X035792Y021104D01*
X036038Y021104D01*
X036264Y021198D01*
X036415Y021348D01*
X036415Y018769D01*
X036415Y018610D01*
X036476Y018463D01*
X036976Y017963D01*
X036976Y017963D01*
X037088Y017850D01*
X037235Y017789D01*
X038298Y017789D01*
X038298Y017689D01*
X038267Y017689D01*
X036985Y017689D01*
X036838Y017628D01*
X036726Y017516D01*
X036598Y017388D01*
X036548Y017409D01*
X036282Y017409D01*
X036035Y017307D01*
X035847Y017119D01*
X035745Y016873D01*
X035745Y016606D01*
X035847Y016360D01*
X035967Y016239D01*
X035847Y016119D01*
X035745Y015873D01*
X035745Y015606D01*
X035847Y015360D01*
X035967Y015239D01*
X035847Y015119D01*
X035745Y014873D01*
X035745Y014606D01*
X035847Y014360D01*
X035967Y014239D01*
X035847Y014119D01*
X035745Y013873D01*
X035385Y013873D01*
X035385Y014031D02*
X035811Y014031D01*
X035745Y013873D02*
X035745Y013606D01*
X035847Y013360D01*
X036035Y013171D01*
X036282Y013069D01*
X036548Y013069D01*
X036794Y013171D01*
X036915Y013292D01*
X037035Y013171D01*
X037282Y013069D01*
X037548Y013069D01*
X037794Y013171D01*
X037983Y013360D01*
X038085Y013606D01*
X038085Y013839D01*
X038231Y013839D01*
X038298Y013772D01*
X038298Y013598D01*
X038392Y013371D01*
X038543Y013221D01*
X038392Y013070D01*
X038298Y012843D01*
X038298Y012598D01*
X038392Y012371D01*
X038543Y012221D01*
X038392Y012070D01*
X038298Y011843D01*
X038298Y011598D01*
X038345Y011485D01*
X038326Y011466D01*
X037999Y011139D01*
X037934Y011139D01*
X037783Y011290D01*
X037544Y011389D01*
X037286Y011389D01*
X037047Y011290D01*
X036915Y011159D01*
X036783Y011290D01*
X036544Y011389D01*
X036286Y011389D01*
X036047Y011290D01*
X035864Y011107D01*
X035765Y010869D01*
X035765Y010610D01*
X035864Y010371D01*
X035996Y010239D01*
X035929Y010173D01*
X035794Y010307D01*
X035548Y010409D01*
X035357Y010409D01*
X035385Y010476D01*
X035385Y020003D01*
X035298Y020212D01*
X035266Y020244D01*
X035264Y020249D01*
X035174Y020339D01*
X035170Y020341D01*
X035138Y020372D01*
X034928Y020459D01*
X034702Y020459D01*
X034492Y020372D01*
X034460Y020341D01*
X034456Y020339D01*
X034366Y020249D01*
X034364Y020244D01*
X034332Y020212D01*
X034245Y020003D01*
X034245Y011159D01*
X031676Y011159D01*
X031713Y011247D01*
X031713Y011491D01*
X031757Y011491D01*
X031874Y011540D01*
X031964Y011630D01*
X032013Y011747D01*
X032013Y012231D01*
X031964Y012349D01*
X031874Y012439D01*
X031757Y012487D01*
X031583Y012487D01*
X029413Y014657D01*
X029413Y014731D01*
X029364Y014849D01*
X029274Y014939D01*
X029157Y014987D01*
X028673Y014987D01*
X028556Y014939D01*
X028466Y014849D01*
X028417Y014731D01*
X028417Y014247D01*
X028462Y014139D01*
X028417Y014031D01*
X028417Y013547D01*
X028466Y013430D01*
X028556Y013340D01*
X028673Y013291D01*
X028847Y013291D01*
X030379Y011759D01*
X030302Y011759D01*
X028302Y011759D01*
X028092Y011672D01*
X028060Y011641D01*
X028056Y011639D01*
X027966Y011549D01*
X027964Y011544D01*
X027932Y011512D01*
X027865Y011351D01*
X027798Y011512D01*
X027766Y011544D01*
X027764Y011549D01*
X027674Y011639D01*
X027670Y011641D01*
X027638Y011672D01*
X027428Y011759D01*
X025802Y011759D01*
X025592Y011672D01*
X025560Y011641D01*
X025556Y011639D01*
X025466Y011549D01*
X025464Y011544D01*
X025432Y011512D01*
X025345Y011303D01*
X025345Y011076D01*
X025432Y010866D01*
X025464Y010834D01*
X025466Y010830D01*
X025556Y010740D01*
X025560Y010738D01*
X025592Y010706D01*
X025802Y010619D01*
X027428Y010619D01*
X027638Y010706D01*
X027670Y010738D01*
X027674Y010740D01*
X027764Y010830D01*
X027766Y010834D01*
X027798Y010866D01*
X027865Y011028D01*
X027932Y010866D01*
X027964Y010834D01*
X027966Y010830D01*
X028056Y010740D01*
X028060Y010738D01*
X028092Y010706D01*
X028302Y010619D01*
X030179Y010619D01*
X030532Y010266D01*
X030692Y010106D01*
X030902Y010019D01*
X034702Y010019D01*
X034806Y010019D01*
X034745Y009873D01*
X034745Y009606D01*
X034847Y009360D01*
X034967Y009239D01*
X034847Y009119D01*
X034745Y008873D01*
X034745Y008606D01*
X034847Y008360D01*
X035035Y008171D01*
X035282Y008069D01*
X035519Y008069D01*
X036094Y007494D01*
X036207Y007382D01*
X036354Y007321D01*
X038443Y007321D01*
X038543Y007221D01*
X038392Y007070D01*
X038298Y006843D01*
X038298Y006598D01*
X038392Y006371D01*
X038543Y006221D01*
X038392Y006070D01*
X038298Y005843D01*
X038298Y005598D01*
X038392Y005371D01*
X038566Y005198D01*
X038695Y005144D01*
X038665Y005129D01*
X038604Y005084D01*
X038551Y005031D01*
X038507Y004971D01*
X038473Y004904D01*
X038450Y004832D01*
X038438Y004758D01*
X038438Y004739D01*
X038896Y004739D01*
X038896Y004702D01*
X038438Y004702D01*
X038438Y004683D01*
X038450Y004609D01*
X038473Y004538D01*
X038507Y004471D01*
X038551Y004410D01*
X038604Y004357D01*
X038665Y004313D01*
X038732Y004279D01*
X038803Y004256D01*
X038877Y004244D01*
X038896Y004244D01*
X038896Y004702D01*
X038933Y004702D01*
X038933Y004244D01*
X038952Y004244D01*
X039027Y004256D01*
X039098Y004279D01*
X039165Y004313D01*
X039226Y004357D01*
X039279Y004410D01*
X039323Y004471D01*
X039357Y004538D01*
X039380Y004609D01*
X039392Y004683D01*
X039392Y004702D01*
X038934Y004702D01*
X038934Y004739D01*
X039392Y004739D01*
X039392Y004758D01*
X039380Y004832D01*
X039357Y004904D01*
X039323Y004971D01*
X039279Y005031D01*
X039226Y005084D01*
X039165Y005129D01*
X039134Y005144D01*
X039264Y005198D01*
X039415Y005348D01*
X039566Y005198D01*
X039695Y005144D01*
X039665Y005129D01*
X039604Y005084D01*
X039551Y005031D01*
X039507Y004971D01*
X039473Y004904D01*
X039450Y004832D01*
X039438Y004758D01*
X039438Y004739D01*
X039896Y004739D01*
X039896Y004702D01*
X039438Y004702D01*
X039438Y004683D01*
X039450Y004609D01*
X039473Y004538D01*
X039507Y004471D01*
X039551Y004410D01*
X039604Y004357D01*
X039665Y004313D01*
X039732Y004279D01*
X039803Y004256D01*
X039877Y004244D01*
X039896Y004244D01*
X039896Y004702D01*
X039933Y004702D01*
X039933Y004244D01*
X039952Y004244D01*
X040027Y004256D01*
X040098Y004279D01*
X040165Y004313D01*
X040226Y004357D01*
X040279Y004410D01*
X040323Y004471D01*
X040357Y004538D01*
X040380Y004609D01*
X040392Y004683D01*
X040392Y004702D01*
X039934Y004702D01*
X039934Y004739D01*
X040392Y004739D01*
X040392Y004758D01*
X040380Y004832D01*
X040357Y004904D01*
X040323Y004971D01*
X040279Y005031D01*
X040226Y005084D01*
X040165Y005129D01*
X040134Y005144D01*
X040264Y005198D01*
X040438Y005371D01*
X040532Y005598D01*
X040532Y005843D01*
X040438Y006070D01*
X040287Y006221D01*
X040438Y006371D01*
X040532Y006598D01*
X040532Y006843D01*
X040438Y007070D01*
X040287Y007221D01*
X040438Y007371D01*
X040532Y007598D01*
X040532Y007843D01*
X040438Y008070D01*
X040287Y008221D01*
X040438Y008371D01*
X040532Y008598D01*
X040532Y008843D01*
X040438Y009070D01*
X040287Y009221D01*
X040438Y009371D01*
X040532Y009598D01*
X040532Y009843D01*
X040438Y010070D01*
X040287Y010221D01*
X040438Y010371D01*
X040532Y010598D01*
X040532Y010843D01*
X040438Y011070D01*
X040287Y011221D01*
X040438Y011371D01*
X040532Y011598D01*
X040532Y011843D01*
X040438Y012070D01*
X040287Y012221D01*
X040438Y012371D01*
X040532Y012598D01*
X040532Y012843D01*
X040445Y013053D01*
X040742Y013350D01*
X040854Y013463D01*
X040885Y013538D01*
X040885Y002142D01*
X040332Y001589D01*
X011847Y001589D01*
X011903Y001630D01*
X011964Y001691D01*
X012015Y001761D01*
X012055Y001838D01*
X012081Y001920D01*
X012095Y002006D01*
X012095Y002029D01*
X011565Y002029D01*
X011565Y002069D01*
X012095Y002069D01*
X012095Y002093D01*
X012081Y002178D01*
X012055Y002260D01*
X012015Y002338D01*
X011964Y002408D01*
X011903Y002469D01*
X011833Y002520D01*
X011756Y002559D01*
X011674Y002586D01*
X011588Y002599D01*
X011565Y002599D01*
X011565Y002070D01*
X011525Y002070D01*
X011525Y002599D01*
X011502Y002599D01*
X011416Y002586D01*
X011334Y002559D01*
X011257Y002520D01*
X011187Y002469D01*
X011125Y002408D01*
X011075Y002338D01*
X011035Y002260D01*
X011009Y002178D01*
X010995Y002093D01*
X010995Y002069D01*
X011525Y002069D01*
X011525Y002029D01*
X010995Y002029D01*
X010995Y002006D01*
X011009Y001920D01*
X011035Y001838D01*
X011075Y001761D01*
X011125Y001691D01*
X011187Y001630D01*
X011242Y001589D01*
X009287Y001589D01*
X009343Y001630D01*
X009404Y001691D01*
X009455Y001761D01*
X009495Y001838D01*
X009521Y001920D01*
X009535Y002006D01*
X009535Y002029D01*
X009005Y002029D01*
X009005Y002069D01*
X009535Y002069D01*
X009535Y002093D01*
X009521Y002178D01*
X009495Y002260D01*
X009455Y002338D01*
X009404Y002408D01*
X009343Y002469D01*
X009273Y002520D01*
X009196Y002559D01*
X009114Y002586D01*
X009028Y002599D01*
X009005Y002599D01*
X009005Y002070D01*
X008965Y002070D01*
X008965Y002599D01*
X008942Y002599D01*
X008856Y002586D01*
X008774Y002559D01*
X008697Y002520D01*
X008627Y002469D01*
X008565Y002408D01*
X008515Y002338D01*
X008475Y002260D01*
X008449Y002178D01*
X008435Y002093D01*
X008435Y002069D01*
X008965Y002069D01*
X008965Y002029D01*
X008435Y002029D01*
X008435Y002006D01*
X008449Y001920D01*
X008475Y001838D01*
X008515Y001761D01*
X008565Y001691D01*
X008627Y001630D01*
X008682Y001589D01*
X005727Y001589D01*
X005740Y001597D01*
X005839Y001676D01*
X005928Y001765D01*
X006007Y001864D01*
X006074Y001971D01*
X006129Y002085D01*
X006171Y002204D01*
X006199Y002327D01*
X006211Y002436D01*
X005168Y002436D01*
X005168Y002596D01*
X005008Y002596D01*
X005008Y002436D01*
X003965Y002436D01*
X003977Y002327D01*
X004006Y002204D01*
X004047Y002085D01*
X004102Y001971D01*
X004169Y001864D01*
X004248Y001765D01*
X004337Y001676D01*
X004436Y001597D01*
X004449Y001589D01*
X002868Y001589D01*
X002315Y002142D01*
X002317Y002141D02*
X004028Y002141D01*
X003984Y002299D02*
X002315Y002299D01*
X002315Y002458D02*
X005008Y002458D01*
X005008Y002596D02*
X003965Y002596D01*
X003977Y002705D01*
X004006Y002828D01*
X004047Y002947D01*
X004102Y003061D01*
X004169Y003168D01*
X004248Y003267D01*
X004269Y003288D01*
X004258Y003284D01*
X004135Y003256D01*
X004026Y003243D01*
X004026Y004286D01*
X003866Y004286D01*
X003866Y003243D01*
X003758Y003256D01*
X003635Y003284D01*
X003515Y003326D01*
X003401Y003380D01*
X003294Y003448D01*
X003196Y003526D01*
X003106Y003616D01*
X003028Y003714D01*
X002960Y003821D01*
X002906Y003935D01*
X002864Y004055D01*
X002836Y004178D01*
X002823Y004286D01*
X003866Y004286D01*
X003866Y004446D01*
X002823Y004446D01*
X002836Y004555D01*
X002864Y004678D01*
X002906Y004798D01*
X002960Y004911D01*
X003028Y005018D01*
X003070Y005071D01*
X003019Y005122D01*
X002963Y005200D01*
X002919Y005285D01*
X002889Y005377D01*
X002874Y005472D01*
X002874Y005501D01*
X003466Y005501D01*
X003466Y005538D01*
X003466Y006130D01*
X003436Y006130D01*
X003341Y006115D01*
X003250Y006085D01*
X003165Y006041D01*
X003087Y005985D01*
X003019Y005917D01*
X002963Y005839D01*
X002919Y005754D01*
X002889Y005662D01*
X002874Y005568D01*
X002874Y005538D01*
X003466Y005538D01*
X003503Y005538D01*
X004094Y005538D01*
X004094Y005568D01*
X004079Y005662D01*
X004050Y005754D01*
X004006Y005839D01*
X003949Y005917D01*
X003882Y005985D01*
X003804Y006041D01*
X003718Y006085D01*
X003627Y006115D01*
X003532Y006130D01*
X003503Y006130D01*
X003503Y005538D01*
X003503Y005501D01*
X004094Y005501D01*
X004094Y005482D01*
X004135Y005477D01*
X004258Y005449D01*
X004378Y005407D01*
X004491Y005352D01*
X004598Y005285D01*
X004697Y005206D01*
X004786Y005117D01*
X004865Y005018D01*
X004932Y004911D01*
X004987Y004798D01*
X005029Y004678D01*
X005036Y004649D01*
X005091Y004855D01*
X005257Y005143D01*
X005493Y005379D01*
X005781Y005545D01*
X006103Y005631D01*
X006436Y005631D01*
X006758Y005545D01*
X007046Y005379D01*
X007281Y005143D01*
X007448Y004855D01*
X007534Y004533D01*
X007534Y004200D01*
X007448Y003878D01*
X007328Y003671D01*
X007604Y003671D01*
X007953Y003526D01*
X008220Y003259D01*
X008365Y002910D01*
X008365Y002532D01*
X008220Y002183D01*
X007953Y001915D01*
X007604Y001771D01*
X007226Y001771D01*
X006877Y001915D01*
X006610Y002183D01*
X006465Y002532D01*
X006465Y002910D01*
X006558Y003134D01*
X006436Y003102D01*
X006103Y003102D01*
X006038Y003119D01*
X006074Y003061D01*
X006129Y002947D01*
X006171Y002828D01*
X006199Y002705D01*
X006211Y002596D01*
X005168Y002596D01*
X005168Y003639D01*
X005233Y003632D01*
X005091Y003878D01*
X005036Y004083D01*
X005029Y004055D01*
X004987Y003935D01*
X004932Y003821D01*
X004865Y003714D01*
X004786Y003616D01*
X004766Y003595D01*
X004776Y003599D01*
X004899Y003627D01*
X005008Y003639D01*
X005008Y002596D01*
X005008Y002616D02*
X005168Y002616D01*
X005168Y002458D02*
X006496Y002458D01*
X006465Y002616D02*
X006209Y002616D01*
X006183Y002775D02*
X006465Y002775D01*
X006475Y002933D02*
X006134Y002933D01*
X006055Y003092D02*
X006541Y003092D01*
X007360Y003726D02*
X008295Y003726D01*
X008295Y003885D02*
X007450Y003885D01*
X007492Y004043D02*
X008327Y004043D01*
X008392Y004202D02*
X007534Y004202D01*
X007534Y004360D02*
X008540Y004360D01*
X008846Y004519D02*
X007534Y004519D01*
X007496Y004677D02*
X012805Y004677D01*
X012640Y004836D02*
X007453Y004836D01*
X007367Y004994D02*
X012481Y004994D01*
X012323Y005153D02*
X007272Y005153D01*
X007113Y005311D02*
X012164Y005311D01*
X011904Y005470D02*
X006888Y005470D01*
X006446Y005629D02*
X011745Y005629D01*
X011717Y005787D02*
X004033Y005787D01*
X004085Y005629D02*
X006092Y005629D01*
X005651Y005470D02*
X004167Y005470D01*
X004557Y005311D02*
X005425Y005311D01*
X005267Y005153D02*
X004751Y005153D01*
X004880Y004994D02*
X005171Y004994D01*
X005086Y004836D02*
X004969Y004836D01*
X005029Y004677D02*
X005043Y004677D01*
X005025Y004043D02*
X005046Y004043D01*
X005089Y003885D02*
X004963Y003885D01*
X004872Y003726D02*
X005178Y003726D01*
X005168Y003567D02*
X005008Y003567D01*
X005008Y003409D02*
X005168Y003409D01*
X005168Y003250D02*
X005008Y003250D01*
X005008Y003092D02*
X005168Y003092D01*
X005168Y002933D02*
X005008Y002933D01*
X005008Y002775D02*
X005168Y002775D01*
X004235Y003250D02*
X004088Y003250D01*
X004026Y003250D02*
X003866Y003250D01*
X003805Y003250D02*
X002315Y003250D01*
X002315Y003092D02*
X004121Y003092D01*
X004042Y002933D02*
X002315Y002933D01*
X002315Y002775D02*
X003993Y002775D01*
X003967Y002616D02*
X002315Y002616D01*
X002475Y001982D02*
X004097Y001982D01*
X004202Y001823D02*
X002634Y001823D01*
X002792Y001665D02*
X004351Y001665D01*
X005825Y001665D02*
X008591Y001665D01*
X008483Y001823D02*
X007731Y001823D01*
X008020Y001982D02*
X008439Y001982D01*
X008443Y002141D02*
X008178Y002141D01*
X008268Y002299D02*
X008495Y002299D01*
X008616Y002458D02*
X008334Y002458D01*
X008365Y002616D02*
X012079Y002616D01*
X012238Y002458D02*
X011914Y002458D01*
X012035Y002299D02*
X012417Y002299D01*
X012087Y002141D02*
X014565Y002141D01*
X015265Y002141D02*
X015565Y002141D01*
X016265Y002141D02*
X016704Y002141D01*
X016464Y002299D02*
X016441Y002299D01*
X017126Y002141D02*
X019336Y002141D01*
X019202Y002299D02*
X019138Y002299D01*
X018933Y002299D02*
X018896Y002299D01*
X018896Y002458D02*
X018933Y002458D01*
X018933Y002616D02*
X018896Y002616D01*
X018896Y002739D02*
X018896Y003198D01*
X018895Y003198D01*
X018895Y003669D01*
X018935Y003669D01*
X018935Y003198D01*
X018933Y003198D01*
X018933Y002739D01*
X018896Y002739D01*
X018896Y002775D02*
X018933Y002775D01*
X018933Y002933D02*
X018896Y002933D01*
X018896Y003092D02*
X018933Y003092D01*
X018935Y003250D02*
X018895Y003250D01*
X018895Y003409D02*
X018935Y003409D01*
X018935Y003567D02*
X018895Y003567D01*
X018895Y003669D02*
X018445Y003669D01*
X017935Y003669D01*
X017935Y003198D01*
X017933Y003198D01*
X017933Y002739D01*
X017896Y002739D01*
X017896Y003198D01*
X017895Y003198D01*
X017895Y003669D01*
X017935Y003669D01*
X017935Y003709D01*
X018385Y003709D01*
X018895Y003709D01*
X018895Y003669D01*
X018604Y003250D02*
X018226Y003250D01*
X018216Y003092D02*
X018614Y003092D01*
X018488Y002933D02*
X018342Y002933D01*
X018389Y002775D02*
X018441Y002775D01*
X018449Y002616D02*
X018381Y002616D01*
X018313Y002458D02*
X018517Y002458D01*
X018692Y002299D02*
X018138Y002299D01*
X017933Y002299D02*
X017896Y002299D01*
X017896Y002458D02*
X017933Y002458D01*
X017933Y002616D02*
X017896Y002616D01*
X017896Y002775D02*
X017933Y002775D01*
X017933Y002933D02*
X017896Y002933D01*
X017896Y003092D02*
X017933Y003092D01*
X017935Y003250D02*
X017895Y003250D01*
X017895Y003409D02*
X017935Y003409D01*
X017935Y003567D02*
X017895Y003567D01*
X017895Y003710D02*
X017895Y004219D01*
X017695Y004219D01*
X017514Y004038D01*
X017192Y004359D01*
X016924Y004359D01*
X015787Y005496D01*
X015610Y005569D01*
X015419Y005569D01*
X014260Y005569D01*
X013264Y005569D01*
X012713Y006120D01*
X012713Y006159D01*
X016786Y006159D01*
X018725Y004219D01*
X018695Y004219D01*
X018415Y003939D01*
X018134Y004219D01*
X017935Y004219D01*
X017935Y003710D01*
X017895Y003710D01*
X017895Y003726D02*
X017935Y003726D01*
X017935Y003885D02*
X017895Y003885D01*
X017895Y004043D02*
X017935Y004043D01*
X017935Y004202D02*
X017895Y004202D01*
X017678Y004202D02*
X017350Y004202D01*
X017509Y004043D02*
X017519Y004043D01*
X016923Y004360D02*
X018584Y004360D01*
X018678Y004202D02*
X018152Y004202D01*
X018311Y004043D02*
X018519Y004043D01*
X018426Y004519D02*
X016764Y004519D01*
X016606Y004677D02*
X018267Y004677D01*
X018109Y004836D02*
X016447Y004836D01*
X016289Y004994D02*
X017950Y004994D01*
X017792Y005153D02*
X016130Y005153D01*
X015972Y005311D02*
X017633Y005311D01*
X017475Y005470D02*
X015813Y005470D01*
X016840Y006104D02*
X012729Y006104D01*
X012887Y005946D02*
X016999Y005946D01*
X017158Y005787D02*
X013046Y005787D01*
X013205Y005629D02*
X017316Y005629D01*
X018684Y006580D02*
X038306Y006580D01*
X038298Y006738D02*
X018526Y006738D01*
X018367Y006897D02*
X038320Y006897D01*
X038386Y007055D02*
X018208Y007055D01*
X018050Y007214D02*
X038536Y007214D01*
X038915Y007721D02*
X036433Y007721D01*
X035415Y008739D01*
X034796Y008482D02*
X021392Y008482D01*
X021413Y008324D02*
X034883Y008324D01*
X035050Y008165D02*
X021413Y008165D01*
X021413Y008007D02*
X035582Y008007D01*
X035740Y007848D02*
X021372Y007848D01*
X021094Y007690D02*
X035899Y007690D01*
X036058Y007531D02*
X020936Y007531D01*
X020692Y007372D02*
X036229Y007372D01*
X036094Y007494D02*
X036094Y007494D01*
X034745Y008641D02*
X021269Y008641D01*
X020561Y008641D02*
X018595Y008641D01*
X018437Y008482D02*
X020438Y008482D01*
X020371Y008324D02*
X018278Y008324D01*
X018754Y008799D02*
X034745Y008799D01*
X034780Y008958D02*
X018912Y008958D01*
X019071Y009116D02*
X034846Y009116D01*
X034932Y009275D02*
X019229Y009275D01*
X019388Y009434D02*
X034816Y009434D01*
X034751Y009592D02*
X019547Y009592D01*
X019705Y009751D02*
X034745Y009751D01*
X034760Y009909D02*
X019864Y009909D01*
X020022Y010068D02*
X030785Y010068D01*
X030572Y010226D02*
X020181Y010226D01*
X020339Y010385D02*
X030413Y010385D01*
X030255Y010543D02*
X020498Y010543D01*
X020656Y010702D02*
X025602Y010702D01*
X025438Y010860D02*
X021145Y010860D01*
X021213Y011019D02*
X025369Y011019D01*
X025345Y011178D02*
X021213Y011178D01*
X021213Y011336D02*
X025359Y011336D01*
X025424Y011495D02*
X021207Y011495D01*
X021110Y011653D02*
X025573Y011653D01*
X027657Y011653D02*
X028073Y011653D01*
X027924Y011495D02*
X027805Y011495D01*
X027861Y011019D02*
X027869Y011019D01*
X027938Y010860D02*
X027792Y010860D01*
X027628Y010702D02*
X028102Y010702D01*
X029851Y012287D02*
X019645Y012287D01*
X019645Y012129D02*
X030010Y012129D01*
X030168Y011970D02*
X019645Y011970D01*
X019645Y011812D02*
X030327Y011812D01*
X029693Y012446D02*
X019645Y012446D01*
X019645Y012604D02*
X029534Y012604D01*
X029376Y012763D02*
X019645Y012763D01*
X019645Y012921D02*
X029217Y012921D01*
X029059Y013080D02*
X019645Y013080D01*
X019645Y013239D02*
X028900Y013239D01*
X028498Y013397D02*
X019645Y013397D01*
X019646Y013556D02*
X028417Y013556D01*
X028417Y013714D02*
X019663Y013714D01*
X019663Y013873D02*
X028417Y013873D01*
X028417Y014031D02*
X027254Y014031D01*
X027389Y014190D02*
X028441Y014190D01*
X028417Y014348D02*
X027413Y014348D01*
X027413Y014507D02*
X028417Y014507D01*
X028417Y014665D02*
X027413Y014665D01*
X027375Y014824D02*
X028455Y014824D01*
X028662Y014983D02*
X027315Y014983D01*
X027315Y015141D02*
X034245Y015141D01*
X034245Y014983D02*
X029168Y014983D01*
X029375Y014824D02*
X034245Y014824D01*
X034245Y014665D02*
X029413Y014665D01*
X029563Y014507D02*
X034245Y014507D01*
X034245Y014348D02*
X029721Y014348D01*
X029880Y014190D02*
X034245Y014190D01*
X034245Y014031D02*
X030039Y014031D01*
X030197Y013873D02*
X034245Y013873D01*
X034245Y013714D02*
X030356Y013714D01*
X030514Y013556D02*
X034245Y013556D01*
X034245Y013397D02*
X030673Y013397D01*
X030831Y013239D02*
X034245Y013239D01*
X034245Y013080D02*
X030990Y013080D01*
X031148Y012921D02*
X034245Y012921D01*
X034245Y012763D02*
X031307Y012763D01*
X031465Y012604D02*
X034245Y012604D01*
X034245Y012446D02*
X031857Y012446D01*
X031990Y012287D02*
X034245Y012287D01*
X034245Y012129D02*
X032013Y012129D01*
X032013Y011970D02*
X034245Y011970D01*
X034245Y011812D02*
X032013Y011812D01*
X031974Y011653D02*
X034245Y011653D01*
X034245Y011495D02*
X031765Y011495D01*
X031713Y011336D02*
X034245Y011336D01*
X034245Y011178D02*
X031684Y011178D01*
X031215Y011489D02*
X028915Y013789D01*
X028915Y014489D02*
X029015Y014489D01*
X031515Y011989D01*
X035385Y011970D02*
X038351Y011970D01*
X038298Y011812D02*
X035385Y011812D01*
X035385Y011653D02*
X038298Y011653D01*
X038341Y011495D02*
X035385Y011495D01*
X035385Y011336D02*
X036157Y011336D01*
X035934Y011178D02*
X035385Y011178D01*
X035385Y011019D02*
X035827Y011019D01*
X035765Y010860D02*
X035385Y010860D01*
X035385Y010702D02*
X035765Y010702D01*
X035793Y010543D02*
X035385Y010543D01*
X035607Y010385D02*
X035858Y010385D01*
X035875Y010226D02*
X035983Y010226D01*
X036673Y011336D02*
X037157Y011336D01*
X036934Y011178D02*
X036896Y011178D01*
X037415Y010739D02*
X038165Y010739D01*
X038665Y011239D01*
X039396Y011239D01*
X039915Y010721D01*
X040331Y011178D02*
X040885Y011178D01*
X040885Y011336D02*
X040403Y011336D01*
X040489Y011495D02*
X040885Y011495D01*
X040885Y011653D02*
X040532Y011653D01*
X040532Y011812D02*
X040885Y011812D01*
X040885Y011970D02*
X040479Y011970D01*
X040379Y012129D02*
X040885Y012129D01*
X040885Y012287D02*
X040354Y012287D01*
X040469Y012446D02*
X040885Y012446D01*
X040885Y012604D02*
X040532Y012604D01*
X040532Y012763D02*
X040885Y012763D01*
X040885Y012921D02*
X040499Y012921D01*
X040471Y013080D02*
X040885Y013080D01*
X040885Y013239D02*
X040630Y013239D01*
X040788Y013397D02*
X040885Y013397D01*
X040515Y013689D02*
X040515Y017989D01*
X040315Y018189D01*
X037315Y018189D01*
X036815Y018689D01*
X036815Y026589D01*
X036915Y026689D01*
X036915Y029089D01*
X037215Y029389D01*
X037915Y029389D01*
X037817Y029887D02*
X037673Y029887D01*
X037556Y029839D01*
X037506Y029789D01*
X037295Y029789D01*
X037135Y029789D01*
X036988Y029728D01*
X036915Y029655D01*
X036915Y029980D01*
X036964Y030030D01*
X037013Y030147D01*
X037013Y030631D01*
X036964Y030749D01*
X036874Y030839D01*
X036757Y030887D01*
X036273Y030887D01*
X036156Y030839D01*
X036066Y030749D01*
X036017Y030631D01*
X036017Y030147D01*
X036066Y030030D01*
X036115Y029980D01*
X036115Y029963D01*
X036057Y029987D01*
X035573Y029987D01*
X035456Y029939D01*
X035366Y029849D01*
X035317Y029731D01*
X035317Y029247D01*
X035366Y029130D01*
X035415Y029080D01*
X035415Y026955D01*
X035215Y027155D01*
X035215Y030332D01*
X035218Y030404D01*
X035215Y030411D01*
X035215Y030419D01*
X035187Y030486D01*
X035162Y030553D01*
X035157Y030559D01*
X035154Y030566D01*
X035103Y030617D01*
X034507Y031259D01*
X034504Y031266D01*
X034453Y031317D01*
X034404Y031370D01*
X034397Y031373D01*
X034392Y031378D01*
X034324Y031406D01*
X034259Y031436D01*
X034252Y031436D01*
X034245Y031439D01*
X034172Y031439D01*
X034100Y031442D01*
X034093Y031439D01*
X024172Y031439D01*
X024150Y031446D01*
X024093Y031439D01*
X024035Y031439D01*
X024014Y031431D01*
X023992Y031428D01*
X023941Y031400D01*
X023888Y031378D01*
X023872Y031362D01*
X023852Y031351D01*
X023817Y031307D01*
X023776Y031266D01*
X023767Y031245D01*
X023617Y031057D01*
X023576Y031016D01*
X023567Y030995D01*
X023553Y030977D01*
X023537Y030922D01*
X023515Y030869D01*
X023515Y030846D01*
X023509Y030824D01*
X023515Y030767D01*
X023515Y029298D01*
X023466Y029249D01*
X023417Y029131D01*
X023417Y028647D01*
X023466Y028530D01*
X023556Y028440D01*
X023673Y028391D01*
X024157Y028391D01*
X024259Y028434D01*
X024217Y028331D01*
X024217Y027847D01*
X024241Y027789D01*
X023381Y027789D01*
X023115Y028055D01*
X023115Y030269D01*
X023054Y030416D01*
X022942Y030528D01*
X021184Y032285D01*
X040332Y032285D01*
X040885Y031732D01*
X040885Y025541D01*
X040580Y025846D01*
X040782Y026048D01*
X040782Y026227D01*
X040322Y026227D01*
X040322Y026267D01*
X040782Y026267D01*
X040782Y026446D01*
X040501Y026727D01*
X040322Y026727D01*
X040322Y026267D01*
X040282Y026267D01*
X040282Y026727D01*
X040215Y026727D01*
X040215Y027124D01*
X040220Y027138D01*
X040215Y027204D01*
X040215Y027269D01*
X040209Y027282D01*
X040209Y027283D01*
X040453Y027384D01*
X040720Y027651D01*
X040865Y028000D01*
X040865Y028378D01*
X040720Y028727D01*
X040453Y028995D01*
X040104Y029139D01*
X039726Y029139D01*
X039377Y028995D01*
X039110Y028727D01*
X038965Y028378D01*
X038965Y028000D01*
X038971Y027986D01*
X038856Y027939D01*
X038766Y027849D01*
X038717Y027731D01*
X038717Y027247D01*
X038766Y027130D01*
X038856Y027040D01*
X038973Y026991D01*
X039231Y026991D01*
X039235Y026989D01*
X039395Y026989D01*
X039415Y026989D01*
X039415Y026867D01*
X039045Y026867D01*
X038802Y026624D01*
X038559Y026867D01*
X038202Y026867D01*
X038224Y026889D01*
X038295Y026889D01*
X038442Y026950D01*
X038542Y027050D01*
X038654Y027163D01*
X038715Y027310D01*
X038715Y029480D01*
X038764Y029530D01*
X038813Y029647D01*
X038813Y030131D01*
X038764Y030249D01*
X038674Y030339D01*
X038557Y030387D01*
X038073Y030387D01*
X037956Y030339D01*
X037866Y030249D01*
X037817Y030131D01*
X037817Y029887D01*
X037669Y029886D02*
X036915Y029886D01*
X036915Y029727D02*
X036987Y029727D01*
X036970Y030044D02*
X037817Y030044D01*
X037847Y030203D02*
X037013Y030203D01*
X037013Y030361D02*
X038010Y030361D01*
X038315Y029889D02*
X038315Y027389D01*
X038215Y027289D01*
X037815Y027289D01*
X038208Y026873D02*
X039415Y026873D01*
X039815Y027189D02*
X039715Y027389D01*
X039315Y027389D01*
X039215Y027489D01*
X038963Y027983D02*
X038715Y027983D01*
X038715Y027825D02*
X038756Y027825D01*
X038717Y027666D02*
X038715Y027666D01*
X038715Y027507D02*
X038717Y027507D01*
X038715Y027349D02*
X038717Y027349D01*
X038740Y027190D02*
X038665Y027190D01*
X038523Y027032D02*
X038875Y027032D01*
X038893Y026715D02*
X038711Y026715D01*
X039815Y027189D02*
X039815Y022489D01*
X040515Y021889D01*
X040515Y021321D01*
X039915Y020721D01*
X038883Y021689D02*
X038915Y021721D01*
X036515Y022489D02*
X036215Y022189D01*
X031915Y022189D01*
X032391Y021324D02*
X032439Y021324D01*
X032643Y021166D02*
X032187Y021166D01*
X031643Y021166D02*
X031187Y021166D01*
X031391Y021324D02*
X031439Y021324D01*
X030643Y021166D02*
X030187Y021166D01*
X030391Y021324D02*
X030439Y021324D01*
X029643Y021166D02*
X029187Y021166D01*
X029391Y021324D02*
X029439Y021324D01*
X028643Y021166D02*
X027187Y021166D01*
X027391Y021324D02*
X028439Y021324D01*
X028346Y021483D02*
X027484Y021483D01*
X027532Y021641D02*
X028298Y021641D01*
X028298Y021800D02*
X027532Y021800D01*
X027484Y021958D02*
X028346Y021958D01*
X028439Y022117D02*
X027391Y022117D01*
X027399Y022276D02*
X028431Y022276D01*
X028273Y022434D02*
X027557Y022434D01*
X027585Y022593D02*
X028245Y022593D01*
X028245Y022751D02*
X027585Y022751D01*
X027585Y022910D02*
X028245Y022910D01*
X028296Y023068D02*
X027533Y023068D01*
X027375Y023227D02*
X028455Y023227D01*
X028515Y023385D02*
X027216Y023385D01*
X027235Y023544D02*
X028515Y023544D01*
X028515Y023702D02*
X027394Y023702D01*
X027552Y023861D02*
X028515Y023861D01*
X028536Y024020D02*
X027711Y024020D01*
X027869Y024178D02*
X028638Y024178D01*
X028797Y024337D02*
X028028Y024337D01*
X028167Y024495D02*
X028955Y024495D01*
X029019Y024654D02*
X028585Y024654D01*
X028744Y024812D02*
X028860Y024812D01*
X028302Y025247D02*
X028815Y025660D01*
X028815Y027589D01*
X029313Y027666D02*
X029415Y027666D01*
X029415Y027507D02*
X029313Y027507D01*
X029313Y027349D02*
X029415Y027349D01*
X029313Y027347D02*
X029264Y027230D01*
X029215Y027180D01*
X029215Y026867D01*
X029415Y026867D01*
X029415Y028620D01*
X029412Y028629D01*
X029415Y028699D01*
X029415Y028769D01*
X029419Y028778D01*
X029419Y028788D01*
X029449Y028851D01*
X029476Y028916D01*
X029483Y028923D01*
X029487Y028932D01*
X029539Y028979D01*
X029588Y029028D01*
X029597Y029032D01*
X030295Y029666D01*
X030295Y029946D01*
X030658Y030309D01*
X031172Y030309D01*
X031415Y030066D01*
X031658Y030309D01*
X032172Y030309D01*
X032514Y029967D01*
X032716Y030169D01*
X032895Y030169D01*
X032895Y029710D01*
X032935Y029710D01*
X032935Y030169D01*
X033114Y030169D01*
X033395Y029888D01*
X033395Y029709D01*
X032935Y029709D01*
X032935Y029669D01*
X033395Y029669D01*
X033395Y029490D01*
X033193Y029288D01*
X033535Y028946D01*
X033535Y028432D01*
X033172Y028069D01*
X032815Y028069D01*
X032815Y027787D01*
X033057Y027787D01*
X033174Y027739D01*
X033264Y027649D01*
X033313Y027531D01*
X033313Y027047D01*
X033264Y026930D01*
X033215Y026880D01*
X033215Y026867D01*
X033559Y026867D01*
X033802Y026624D01*
X034045Y026867D01*
X034433Y026867D01*
X034415Y026910D01*
X034415Y030182D01*
X033991Y030639D01*
X024315Y030639D01*
X024315Y029298D01*
X024315Y029298D01*
X024315Y029610D01*
X024315Y029769D01*
X024376Y029916D01*
X024417Y029957D01*
X024417Y030131D01*
X024466Y030249D01*
X024556Y030339D01*
X024673Y030387D01*
X025157Y030387D01*
X025274Y030339D01*
X025364Y030249D01*
X025413Y030131D01*
X025413Y029647D01*
X025364Y029530D01*
X025274Y029440D01*
X025157Y029391D01*
X025115Y029391D01*
X025115Y028498D01*
X025164Y028449D01*
X025213Y028331D01*
X025213Y027847D01*
X025189Y027789D01*
X025195Y027789D01*
X025342Y027728D01*
X025681Y027389D01*
X027535Y027389D01*
X027695Y027389D01*
X027842Y027328D01*
X028042Y027128D01*
X028154Y027016D01*
X028215Y026869D01*
X028215Y026867D01*
X028415Y026867D01*
X028415Y027180D01*
X028366Y027230D01*
X028317Y027347D01*
X028317Y027831D01*
X028366Y027949D01*
X028456Y028039D01*
X028573Y028087D01*
X029057Y028087D01*
X029174Y028039D01*
X029264Y027949D01*
X029313Y027831D01*
X029313Y027347D01*
X029225Y027190D02*
X029415Y027190D01*
X029415Y027032D02*
X029215Y027032D01*
X029215Y026873D02*
X029415Y026873D01*
X028415Y026873D02*
X028213Y026873D01*
X028138Y027032D02*
X028415Y027032D01*
X028405Y027190D02*
X027979Y027190D01*
X027792Y027349D02*
X028317Y027349D01*
X028317Y027507D02*
X025562Y027507D01*
X025404Y027666D02*
X028317Y027666D01*
X028317Y027825D02*
X025204Y027825D01*
X025213Y027983D02*
X028400Y027983D01*
X029230Y027983D02*
X029415Y027983D01*
X029415Y027825D02*
X029313Y027825D01*
X029415Y028142D02*
X025213Y028142D01*
X025213Y028300D02*
X029415Y028300D01*
X029415Y028459D02*
X025154Y028459D01*
X025115Y028617D02*
X029415Y028617D01*
X029418Y028776D02*
X025115Y028776D01*
X025115Y028934D02*
X029490Y028934D01*
X029664Y029093D02*
X025115Y029093D01*
X025115Y029251D02*
X029839Y029251D01*
X030013Y029410D02*
X025202Y029410D01*
X025380Y029569D02*
X030188Y029569D01*
X030295Y029727D02*
X025413Y029727D01*
X025413Y029886D02*
X030295Y029886D01*
X030393Y030044D02*
X025413Y030044D01*
X025383Y030203D02*
X030552Y030203D01*
X030915Y029689D02*
X029815Y028689D01*
X029815Y024639D01*
X029715Y024489D01*
X029515Y024489D01*
X028915Y023889D01*
X028915Y022739D01*
X029415Y023239D02*
X029915Y022739D01*
X029915Y022689D01*
X029415Y023239D02*
X029415Y023889D01*
X029715Y024189D01*
X030115Y024189D01*
X030315Y023989D01*
X031715Y023989D01*
X031815Y024189D01*
X031815Y026689D01*
X032415Y027189D01*
X032415Y029089D01*
X031915Y029589D01*
X031915Y029689D01*
X032278Y030203D02*
X034396Y030203D01*
X034415Y030044D02*
X033239Y030044D01*
X033395Y029886D02*
X034415Y029886D01*
X034415Y029727D02*
X033395Y029727D01*
X033395Y029569D02*
X034415Y029569D01*
X034415Y029410D02*
X033314Y029410D01*
X033230Y029251D02*
X034415Y029251D01*
X034415Y029093D02*
X033388Y029093D01*
X033535Y028934D02*
X034415Y028934D01*
X034415Y028776D02*
X033535Y028776D01*
X033535Y028617D02*
X034415Y028617D01*
X034415Y028459D02*
X033535Y028459D01*
X033403Y028300D02*
X034415Y028300D01*
X034415Y028142D02*
X033244Y028142D01*
X032815Y027983D02*
X034415Y027983D01*
X034415Y027825D02*
X032815Y027825D01*
X033247Y027666D02*
X034415Y027666D01*
X034415Y027507D02*
X033313Y027507D01*
X033313Y027349D02*
X034415Y027349D01*
X034415Y027190D02*
X033313Y027190D01*
X033307Y027032D02*
X034415Y027032D01*
X034430Y026873D02*
X033215Y026873D01*
X032815Y027289D02*
X032815Y024989D01*
X033115Y024689D01*
X033315Y024689D01*
X033915Y024089D01*
X033915Y022739D01*
X032915Y022739D02*
X032065Y023689D01*
X029915Y023689D01*
X030815Y024389D02*
X030815Y028589D01*
X030915Y028689D01*
X031278Y030203D02*
X031552Y030203D01*
X032437Y030044D02*
X032591Y030044D01*
X032895Y030044D02*
X032935Y030044D01*
X032935Y029886D02*
X032895Y029886D01*
X032895Y029727D02*
X032935Y029727D01*
X034101Y030520D02*
X024315Y030520D01*
X024315Y030361D02*
X024610Y030361D01*
X024447Y030203D02*
X024315Y030203D01*
X024315Y030044D02*
X024417Y030044D01*
X024363Y029886D02*
X024315Y029886D01*
X024315Y029727D02*
X024315Y029727D01*
X024315Y029569D02*
X024315Y029569D01*
X024315Y029410D02*
X024315Y029410D01*
X024715Y029689D02*
X024915Y029889D01*
X024715Y029689D02*
X024715Y028089D01*
X024217Y028142D02*
X023115Y028142D01*
X023115Y028300D02*
X024217Y028300D01*
X024217Y027983D02*
X023187Y027983D01*
X023345Y027825D02*
X024226Y027825D01*
X023537Y028459D02*
X023115Y028459D01*
X023115Y028617D02*
X023429Y028617D01*
X023417Y028776D02*
X023115Y028776D01*
X023115Y028934D02*
X023417Y028934D01*
X023417Y029093D02*
X023115Y029093D01*
X023115Y029251D02*
X023468Y029251D01*
X023515Y029410D02*
X023115Y029410D01*
X023115Y029569D02*
X023515Y029569D01*
X023515Y029727D02*
X023115Y029727D01*
X023115Y029886D02*
X023515Y029886D01*
X023515Y030044D02*
X023115Y030044D01*
X023115Y030203D02*
X023515Y030203D01*
X023515Y030361D02*
X023077Y030361D01*
X022950Y030520D02*
X023515Y030520D01*
X023515Y030678D02*
X022792Y030678D01*
X022633Y030837D02*
X023512Y030837D01*
X023567Y030995D02*
X022474Y030995D01*
X022316Y031154D02*
X023695Y031154D01*
X023821Y031313D02*
X022157Y031313D01*
X021999Y031471D02*
X040885Y031471D01*
X040885Y031313D02*
X034457Y031313D01*
X034604Y031154D02*
X040885Y031154D01*
X040885Y030995D02*
X034751Y030995D01*
X034899Y030837D02*
X036154Y030837D01*
X036036Y030678D02*
X035046Y030678D01*
X035175Y030520D02*
X036017Y030520D01*
X036017Y030361D02*
X035216Y030361D01*
X035215Y030203D02*
X036017Y030203D01*
X036060Y030044D02*
X035215Y030044D01*
X035215Y029886D02*
X035403Y029886D01*
X035317Y029727D02*
X035215Y029727D01*
X035215Y029569D02*
X035317Y029569D01*
X035317Y029410D02*
X035215Y029410D01*
X035215Y029251D02*
X035317Y029251D01*
X035403Y029093D02*
X035215Y029093D01*
X035215Y028934D02*
X035415Y028934D01*
X035415Y028776D02*
X035215Y028776D01*
X035215Y028617D02*
X035415Y028617D01*
X035415Y028459D02*
X035215Y028459D01*
X035215Y028300D02*
X035415Y028300D01*
X035415Y028142D02*
X035215Y028142D01*
X035215Y027983D02*
X035415Y027983D01*
X035415Y027825D02*
X035215Y027825D01*
X035215Y027666D02*
X035415Y027666D01*
X035415Y027507D02*
X035215Y027507D01*
X035215Y027349D02*
X035415Y027349D01*
X035415Y027190D02*
X035215Y027190D01*
X035338Y027032D02*
X035415Y027032D01*
X035352Y026452D02*
X034815Y026989D01*
X034815Y030339D01*
X034165Y031039D01*
X024115Y031039D01*
X023915Y030789D01*
X023915Y028889D01*
X022715Y027889D02*
X023215Y027389D01*
X025115Y027389D01*
X025515Y026989D01*
X027615Y026989D01*
X027815Y026789D01*
X027815Y024689D01*
X026915Y023789D01*
X026315Y023789D01*
X025915Y023389D01*
X025915Y022739D01*
X024915Y022739D02*
X027352Y025176D01*
X027302Y025247D01*
X025302Y025247D02*
X025352Y024026D01*
X024415Y023089D01*
X024415Y021489D01*
X026915Y018989D01*
X026915Y017389D01*
X026915Y014489D01*
X026417Y014507D02*
X021061Y014507D01*
X020903Y014348D02*
X026417Y014348D01*
X026441Y014190D02*
X020744Y014190D01*
X021220Y014665D02*
X026417Y014665D01*
X026455Y014824D02*
X021379Y014824D01*
X021537Y014983D02*
X026515Y014983D01*
X026515Y015141D02*
X021696Y015141D01*
X021854Y015300D02*
X026515Y015300D01*
X026515Y015458D02*
X022013Y015458D01*
X022171Y015617D02*
X026515Y015617D01*
X026515Y015775D02*
X022325Y015775D01*
X022391Y015934D02*
X026515Y015934D01*
X026515Y016092D02*
X022395Y016092D01*
X022395Y016251D02*
X026515Y016251D01*
X026515Y016409D02*
X022395Y016409D01*
X022395Y016568D02*
X026515Y016568D01*
X026515Y016727D02*
X022395Y016727D01*
X022395Y016885D02*
X026515Y016885D01*
X026460Y017044D02*
X022395Y017044D01*
X022507Y017202D02*
X026417Y017202D01*
X026417Y017361D02*
X022665Y017361D01*
X022824Y017519D02*
X022876Y017519D01*
X023315Y017889D02*
X024315Y017889D01*
X025815Y019389D01*
X026181Y018946D02*
X026392Y018946D01*
X026515Y018788D02*
X025779Y018788D01*
X025620Y018629D02*
X026515Y018629D01*
X026515Y018471D02*
X025462Y018471D01*
X025303Y018312D02*
X026515Y018312D01*
X026515Y018153D02*
X025145Y018153D01*
X024986Y017995D02*
X026515Y017995D01*
X026515Y017836D02*
X024828Y017836D01*
X024669Y017678D02*
X026436Y017678D01*
X026417Y017519D02*
X024467Y017519D01*
X023315Y019389D02*
X023315Y020789D01*
X023415Y020889D01*
X023415Y023089D01*
X023115Y023389D01*
X020415Y023389D01*
X020115Y023689D01*
X020115Y026889D01*
X020165Y026939D01*
X020165Y029139D01*
X019365Y029939D01*
X015965Y029939D01*
X015315Y029289D01*
X014415Y029289D01*
X013781Y029924D01*
X013781Y030509D01*
X014181Y030121D02*
X014254Y030193D01*
X014273Y030240D01*
X014292Y030193D01*
X014449Y030036D01*
X014654Y029952D01*
X014876Y029952D01*
X015081Y030036D01*
X015238Y030193D01*
X015323Y030398D01*
X015323Y030620D01*
X015238Y030825D01*
X015081Y030982D01*
X014876Y031067D01*
X014654Y031067D01*
X014653Y031067D01*
X014621Y031099D01*
X014773Y031251D01*
X014876Y031251D01*
X015081Y031336D01*
X015238Y031493D01*
X015323Y031698D01*
X015323Y031789D01*
X015331Y031789D01*
X015331Y031776D01*
X015342Y031711D01*
X015362Y031648D01*
X015392Y031590D01*
X015431Y031536D01*
X015477Y031490D01*
X015530Y031451D01*
X015589Y031421D01*
X015651Y031401D01*
X015716Y031391D01*
X015749Y031391D01*
X015749Y031789D01*
X015749Y031789D01*
X015749Y031391D01*
X015782Y031391D01*
X015847Y031401D01*
X015910Y031421D01*
X015968Y031451D01*
X016021Y031490D01*
X016068Y031536D01*
X016106Y031590D01*
X016136Y031648D01*
X016157Y031711D01*
X016167Y031776D01*
X016167Y031789D01*
X020549Y031789D01*
X022315Y030024D01*
X022315Y027969D01*
X022315Y027810D01*
X022376Y027663D01*
X022876Y027163D01*
X022988Y027050D01*
X023135Y026989D01*
X024949Y026989D01*
X025071Y026867D01*
X025045Y026867D01*
X024802Y026624D01*
X024559Y026867D01*
X024045Y026867D01*
X023802Y026624D01*
X023559Y026867D01*
X023045Y026867D01*
X022802Y026624D01*
X022559Y026867D01*
X022045Y026867D01*
X021802Y026624D01*
X021559Y026867D01*
X021045Y026867D01*
X020682Y026504D01*
X020682Y025990D01*
X020925Y025747D01*
X020682Y025504D01*
X020682Y024990D01*
X021045Y024627D01*
X021559Y024627D01*
X021802Y024870D01*
X022045Y024627D01*
X022559Y024627D01*
X022802Y024870D01*
X023045Y024627D01*
X023559Y024627D01*
X023802Y024870D01*
X024045Y024627D01*
X024559Y024627D01*
X024802Y024870D01*
X024922Y024750D01*
X024945Y024185D01*
X024188Y023428D01*
X024169Y023409D01*
X023661Y023409D01*
X023642Y023428D01*
X023342Y023728D01*
X023195Y023789D01*
X023035Y023789D01*
X020581Y023789D01*
X020515Y023855D01*
X020515Y026739D01*
X020565Y026860D01*
X020565Y027019D01*
X020565Y029219D01*
X020504Y029366D01*
X020392Y029478D01*
X019592Y030278D01*
X019445Y030339D01*
X019285Y030339D01*
X016131Y030339D01*
X016136Y030349D01*
X016157Y030411D01*
X016167Y030476D01*
X016167Y030509D01*
X015750Y030509D01*
X015750Y030510D01*
X016167Y030510D01*
X016167Y030542D01*
X016157Y030607D01*
X016136Y030670D01*
X016106Y030728D01*
X016068Y030782D01*
X016021Y030828D01*
X015968Y030867D01*
X015910Y030897D01*
X015847Y030917D01*
X015782Y030927D01*
X015749Y030927D01*
X015716Y030927D01*
X015651Y030917D01*
X015589Y030897D01*
X015530Y030867D01*
X015477Y030828D01*
X015431Y030782D01*
X015392Y030728D01*
X015362Y030670D01*
X015342Y030607D01*
X015331Y030542D01*
X015331Y030510D01*
X015749Y030510D01*
X015749Y030927D01*
X015749Y030510D01*
X015749Y030510D01*
X015749Y030509D01*
X015331Y030509D01*
X015331Y030476D01*
X015342Y030411D01*
X015362Y030349D01*
X015392Y030290D01*
X015431Y030237D01*
X015477Y030191D01*
X015530Y030152D01*
X015584Y030124D01*
X015149Y029689D01*
X014581Y029689D01*
X014181Y030089D01*
X014181Y030121D01*
X014226Y030044D02*
X014441Y030044D01*
X014384Y029886D02*
X015346Y029886D01*
X015504Y030044D02*
X015089Y030044D01*
X015242Y030203D02*
X015465Y030203D01*
X015358Y030361D02*
X015307Y030361D01*
X015323Y030520D02*
X015331Y030520D01*
X015299Y030678D02*
X015366Y030678D01*
X015489Y030837D02*
X015226Y030837D01*
X015049Y030995D02*
X021343Y030995D01*
X021502Y030837D02*
X016009Y030837D01*
X016132Y030678D02*
X021660Y030678D01*
X021819Y030520D02*
X016167Y030520D01*
X016140Y030361D02*
X021977Y030361D01*
X022136Y030203D02*
X019667Y030203D01*
X019826Y030044D02*
X022294Y030044D01*
X022315Y029886D02*
X019984Y029886D01*
X020143Y029727D02*
X022315Y029727D01*
X022315Y029569D02*
X020301Y029569D01*
X020460Y029410D02*
X022315Y029410D01*
X022315Y029251D02*
X020551Y029251D01*
X020565Y029093D02*
X022315Y029093D01*
X022315Y028934D02*
X020565Y028934D01*
X020565Y028776D02*
X022315Y028776D01*
X022315Y028617D02*
X020565Y028617D01*
X020565Y028459D02*
X022315Y028459D01*
X022315Y028300D02*
X020565Y028300D01*
X020565Y028142D02*
X022315Y028142D01*
X022315Y027983D02*
X020565Y027983D01*
X020565Y027825D02*
X022315Y027825D01*
X022374Y027666D02*
X020565Y027666D01*
X020565Y027507D02*
X022531Y027507D01*
X022690Y027349D02*
X020565Y027349D01*
X020565Y027190D02*
X022848Y027190D01*
X023033Y027032D02*
X020565Y027032D01*
X020565Y026873D02*
X025065Y026873D01*
X024893Y026715D02*
X024711Y026715D01*
X023893Y026715D02*
X023711Y026715D01*
X022893Y026715D02*
X022711Y026715D01*
X021893Y026715D02*
X021711Y026715D01*
X020893Y026715D02*
X020515Y026715D01*
X020515Y026556D02*
X020734Y026556D01*
X020682Y026398D02*
X020515Y026398D01*
X020515Y026239D02*
X020682Y026239D01*
X020682Y026081D02*
X020515Y026081D01*
X020515Y025922D02*
X020750Y025922D01*
X020909Y025764D02*
X020515Y025764D01*
X020515Y025605D02*
X020783Y025605D01*
X020682Y025446D02*
X020515Y025446D01*
X020515Y025288D02*
X020682Y025288D01*
X020682Y025129D02*
X020515Y025129D01*
X020515Y024971D02*
X020702Y024971D01*
X020860Y024812D02*
X020515Y024812D01*
X020515Y024654D02*
X021019Y024654D01*
X020515Y024495D02*
X024932Y024495D01*
X024939Y024337D02*
X020515Y024337D01*
X020515Y024178D02*
X024938Y024178D01*
X024780Y024020D02*
X020515Y024020D01*
X020515Y023861D02*
X024621Y023861D01*
X024462Y023702D02*
X023367Y023702D01*
X023526Y023544D02*
X024304Y023544D01*
X024585Y024654D02*
X024926Y024654D01*
X024860Y024812D02*
X024744Y024812D01*
X024019Y024654D02*
X023585Y024654D01*
X023744Y024812D02*
X023860Y024812D01*
X023019Y024654D02*
X022585Y024654D01*
X022744Y024812D02*
X022860Y024812D01*
X022019Y024654D02*
X021585Y024654D01*
X021744Y024812D02*
X021860Y024812D01*
X019829Y023409D02*
X019637Y023409D01*
X019513Y023285D01*
X019513Y023731D01*
X019464Y023849D01*
X019374Y023939D01*
X019257Y023987D01*
X018913Y023987D01*
X018913Y024131D01*
X018864Y024249D01*
X018774Y024339D01*
X018657Y024387D01*
X018173Y024387D01*
X018056Y024339D01*
X018006Y024289D01*
X016624Y024289D01*
X016574Y024339D01*
X016457Y024387D01*
X016215Y024387D01*
X016215Y026410D01*
X016215Y026569D01*
X016154Y026716D01*
X015513Y027357D01*
X015513Y027531D01*
X015464Y027649D01*
X015374Y027739D01*
X015257Y027787D01*
X015213Y027787D01*
X015213Y028031D01*
X015164Y028149D01*
X015074Y028239D01*
X014957Y028287D01*
X014473Y028287D01*
X014356Y028239D01*
X014306Y028189D01*
X013508Y028189D01*
X013349Y028189D01*
X013344Y028187D01*
X013087Y028187D01*
X012969Y028139D01*
X012879Y028049D01*
X012830Y027931D01*
X012830Y027689D01*
X006363Y027689D01*
X006363Y027831D01*
X006314Y027949D01*
X006224Y028039D01*
X006107Y028087D01*
X005623Y028087D01*
X005506Y028039D01*
X005416Y027949D01*
X005367Y027831D01*
X005367Y027347D01*
X005416Y027230D01*
X005506Y027140D01*
X005623Y027091D01*
X005797Y027091D01*
X005938Y026950D01*
X006085Y026889D01*
X006245Y026889D01*
X006757Y026889D01*
X006756Y026889D01*
X006666Y026799D01*
X006617Y026681D01*
X006617Y026197D01*
X006666Y026080D01*
X006715Y026030D01*
X006715Y023744D01*
X006691Y023720D01*
X006648Y023762D01*
X006420Y023856D01*
X006174Y023856D01*
X005946Y023762D01*
X005903Y023720D01*
X005861Y023762D01*
X005633Y023856D01*
X005386Y023856D01*
X005158Y023762D01*
X005116Y023720D01*
X005073Y023762D01*
X004845Y023856D01*
X004599Y023856D01*
X004371Y023762D01*
X004335Y023726D01*
X004335Y024043D01*
X004982Y024691D01*
X005157Y024691D01*
X005274Y024740D01*
X005364Y024830D01*
X005413Y024947D01*
X005413Y025431D01*
X005364Y025549D01*
X005274Y025639D01*
X005157Y025687D01*
X004983Y025687D01*
X004615Y026055D01*
X004615Y028274D01*
X006181Y029839D01*
X012745Y029839D01*
X012892Y029900D01*
X013004Y030013D01*
X013272Y030280D01*
X013308Y030193D01*
X013381Y030121D01*
X013381Y030003D01*
X013381Y029844D01*
X013442Y029697D01*
X014076Y029063D01*
X014188Y028950D01*
X014335Y028889D01*
X015395Y028889D01*
X015542Y028950D01*
X015654Y029063D01*
X015761Y029169D01*
X015761Y029063D01*
X015855Y028835D01*
X016004Y028686D01*
X015855Y028537D01*
X015761Y028309D01*
X015761Y028063D01*
X015855Y027835D01*
X016030Y027660D01*
X016154Y027609D01*
X016129Y027597D01*
X016068Y027552D01*
X016015Y027499D01*
X015970Y027438D01*
X015936Y027370D01*
X015913Y027299D01*
X015901Y027224D01*
X015901Y027206D01*
X016361Y027206D01*
X016361Y027166D01*
X016401Y027166D01*
X016401Y027206D01*
X016861Y027206D01*
X016861Y027224D01*
X016849Y027299D01*
X016826Y027370D01*
X016791Y027438D01*
X016747Y027499D01*
X016693Y027552D01*
X016632Y027597D01*
X016608Y027609D01*
X016732Y027660D01*
X016881Y027809D01*
X017030Y027661D01*
X017154Y027609D01*
X017129Y027597D01*
X017068Y027552D01*
X017015Y027499D01*
X016970Y027438D01*
X016936Y027370D01*
X016913Y027299D01*
X016901Y027224D01*
X016901Y027206D01*
X017361Y027206D01*
X017361Y027166D01*
X017401Y027166D01*
X017401Y027206D01*
X017861Y027206D01*
X017861Y027224D01*
X017849Y027299D01*
X017826Y027370D01*
X017791Y027438D01*
X017747Y027499D01*
X017694Y027552D01*
X017632Y027597D01*
X017608Y027609D01*
X017732Y027661D01*
X017906Y027835D01*
X018001Y028063D01*
X018001Y028309D01*
X017906Y028537D01*
X017758Y028686D01*
X017906Y028835D01*
X018001Y029063D01*
X018001Y029309D01*
X017906Y029537D01*
X017904Y029539D01*
X019199Y029539D01*
X019765Y028974D01*
X019765Y027090D01*
X019715Y026969D01*
X019715Y023769D01*
X019715Y023610D01*
X019776Y023463D01*
X019829Y023409D01*
X019742Y023544D02*
X019513Y023544D01*
X019513Y023702D02*
X019715Y023702D01*
X019715Y023861D02*
X019452Y023861D01*
X019715Y024020D02*
X018913Y024020D01*
X018894Y024178D02*
X019715Y024178D01*
X019715Y024337D02*
X018776Y024337D01*
X018415Y023889D02*
X016215Y023889D01*
X016576Y024337D02*
X018054Y024337D01*
X019015Y023489D02*
X016815Y023489D01*
X016215Y024495D02*
X019715Y024495D01*
X019715Y024654D02*
X016215Y024654D01*
X016215Y024812D02*
X019715Y024812D01*
X019715Y024971D02*
X016215Y024971D01*
X016215Y025129D02*
X019715Y025129D01*
X019715Y025288D02*
X016215Y025288D01*
X016215Y025446D02*
X019715Y025446D01*
X019715Y025605D02*
X016215Y025605D01*
X016215Y025764D02*
X019715Y025764D01*
X019715Y025922D02*
X016215Y025922D01*
X016215Y026081D02*
X019715Y026081D01*
X019715Y026239D02*
X016215Y026239D01*
X016215Y026398D02*
X019715Y026398D01*
X019715Y026556D02*
X016215Y026556D01*
X016154Y026715D02*
X016288Y026715D01*
X016268Y026718D02*
X016343Y026706D01*
X016361Y026706D01*
X016361Y027166D01*
X015901Y027166D01*
X015901Y027148D01*
X015913Y027074D01*
X015936Y027002D01*
X015970Y026935D01*
X016015Y026873D01*
X015997Y026873D01*
X016015Y026873D02*
X016068Y026820D01*
X016129Y026776D01*
X016196Y026741D01*
X016268Y026718D01*
X016361Y026715D02*
X016401Y026715D01*
X016401Y026706D02*
X016419Y026706D01*
X016493Y026718D01*
X016565Y026741D01*
X016632Y026776D01*
X016693Y026820D01*
X016747Y026873D01*
X017015Y026873D01*
X017068Y026820D01*
X017129Y026776D01*
X017197Y026741D01*
X017268Y026718D01*
X017343Y026706D01*
X017361Y026706D01*
X017361Y027166D01*
X016901Y027166D01*
X016901Y027148D01*
X016913Y027074D01*
X016936Y027002D01*
X016970Y026935D01*
X017015Y026873D01*
X016926Y027032D02*
X016835Y027032D01*
X016826Y027002D02*
X016849Y027074D01*
X016861Y027148D01*
X016861Y027166D01*
X016401Y027166D01*
X016401Y026706D01*
X016473Y026715D02*
X017289Y026715D01*
X017361Y026715D02*
X017401Y026715D01*
X017401Y026706D02*
X017419Y026706D01*
X017493Y026718D01*
X017565Y026741D01*
X017632Y026776D01*
X017694Y026820D01*
X017747Y026873D01*
X019715Y026873D01*
X019715Y026715D02*
X017473Y026715D01*
X017401Y026706D02*
X017401Y027166D01*
X017861Y027166D01*
X017861Y027148D01*
X017849Y027074D01*
X017826Y027002D01*
X017791Y026935D01*
X017747Y026873D01*
X017835Y027032D02*
X019741Y027032D01*
X019765Y027190D02*
X017401Y027190D01*
X017361Y027190D02*
X016401Y027190D01*
X016361Y027190D02*
X015679Y027190D01*
X015521Y027349D02*
X015929Y027349D01*
X016023Y027507D02*
X015513Y027507D01*
X015447Y027666D02*
X016024Y027666D01*
X015865Y027825D02*
X015213Y027825D01*
X015213Y027983D02*
X015794Y027983D01*
X015761Y028142D02*
X015167Y028142D01*
X015761Y028300D02*
X004642Y028300D01*
X004615Y028142D02*
X012976Y028142D01*
X012852Y027983D02*
X006280Y027983D01*
X006363Y027825D02*
X012830Y027825D01*
X013328Y027689D02*
X013428Y027789D01*
X014715Y027789D01*
X015015Y027289D02*
X015815Y026489D01*
X015815Y021289D01*
X016443Y020662D01*
X016443Y020386D01*
X016824Y020849D02*
X017835Y020849D01*
X017740Y020735D02*
X017682Y020777D01*
X017618Y020810D01*
X017550Y020832D01*
X017479Y020843D01*
X017451Y020843D01*
X017451Y020395D01*
X017434Y020395D01*
X017434Y020843D01*
X017407Y020843D01*
X017335Y020832D01*
X017267Y020810D01*
X017203Y020777D01*
X017145Y020735D01*
X017094Y020684D01*
X017052Y020626D01*
X017019Y020562D01*
X017018Y020558D01*
X016949Y020724D01*
X016781Y020892D01*
X016775Y020895D01*
X016528Y021142D01*
X016664Y021198D01*
X016815Y021348D01*
X016966Y021198D01*
X017192Y021104D01*
X017438Y021104D01*
X017664Y021198D01*
X017815Y021348D01*
X017835Y021328D01*
X017835Y020685D01*
X017835Y020623D01*
X017834Y020626D01*
X017791Y020684D01*
X017740Y020735D01*
X017785Y020690D02*
X017835Y020690D01*
X017835Y021007D02*
X016663Y021007D01*
X016587Y021166D02*
X017043Y021166D01*
X016839Y021324D02*
X016791Y021324D01*
X016963Y020690D02*
X017100Y020690D01*
X017434Y020690D02*
X017451Y020690D01*
X017434Y020532D02*
X017451Y020532D01*
X017451Y020377D02*
X017451Y019929D01*
X017479Y019929D01*
X017550Y019940D01*
X017618Y019962D01*
X017682Y019995D01*
X017740Y020037D01*
X017791Y020088D01*
X017834Y020147D01*
X017866Y020211D01*
X017888Y020279D01*
X017898Y020341D01*
X017908Y020317D01*
X018685Y019540D01*
X018685Y018426D01*
X018657Y018437D01*
X018173Y018437D01*
X018056Y018389D01*
X017966Y018299D01*
X017917Y018181D01*
X017917Y017889D01*
X017513Y017889D01*
X017513Y018031D01*
X017464Y018149D01*
X017374Y018239D01*
X017257Y018287D01*
X016773Y018287D01*
X016656Y018239D01*
X016566Y018149D01*
X016517Y018031D01*
X016517Y017951D01*
X016155Y017589D01*
X015024Y017589D01*
X014974Y017639D01*
X014857Y017687D01*
X014762Y017687D01*
X014844Y017721D01*
X015033Y017910D01*
X015135Y018156D01*
X015135Y018423D01*
X015033Y018669D01*
X014932Y018769D01*
X015548Y018769D01*
X015794Y018871D01*
X015983Y019060D01*
X016085Y019306D01*
X016085Y019573D01*
X015983Y019819D01*
X015851Y019950D01*
X015943Y020042D01*
X016104Y019880D01*
X016324Y019789D01*
X016561Y019789D01*
X016781Y019880D01*
X016949Y020048D01*
X017018Y020214D01*
X017019Y020211D01*
X017052Y020147D01*
X017094Y020088D01*
X017145Y020037D01*
X017203Y019995D01*
X017267Y019962D01*
X017335Y019940D01*
X017407Y019929D01*
X017434Y019929D01*
X017434Y020377D01*
X017451Y020377D01*
X017451Y020373D02*
X017434Y020373D01*
X017434Y020214D02*
X017451Y020214D01*
X017434Y020056D02*
X017451Y020056D01*
X017759Y020056D02*
X018169Y020056D01*
X018011Y020214D02*
X017867Y020214D01*
X018328Y019897D02*
X016798Y019897D01*
X016952Y020056D02*
X017126Y020056D01*
X016087Y019897D02*
X015904Y019897D01*
X016016Y019739D02*
X018487Y019739D01*
X018645Y019580D02*
X016082Y019580D01*
X016085Y019422D02*
X018685Y019422D01*
X018685Y019263D02*
X016067Y019263D01*
X016001Y019105D02*
X018685Y019105D01*
X018685Y018946D02*
X015869Y018946D01*
X015592Y018788D02*
X018685Y018788D01*
X018685Y018629D02*
X015049Y018629D01*
X015115Y018471D02*
X018685Y018471D01*
X018415Y017939D02*
X018415Y017689D01*
X018215Y017489D01*
X017415Y017489D01*
X016015Y016089D01*
X014215Y016089D01*
X013512Y015386D01*
X013443Y015386D01*
X014615Y017189D02*
X016320Y017189D01*
X016920Y017789D01*
X017015Y017789D01*
X017513Y017995D02*
X017917Y017995D01*
X017917Y018153D02*
X017460Y018153D01*
X017979Y018312D02*
X015135Y018312D01*
X015134Y018153D02*
X016570Y018153D01*
X016517Y017995D02*
X015068Y017995D01*
X014959Y017836D02*
X016402Y017836D01*
X016243Y017678D02*
X014880Y017678D01*
X011451Y020532D02*
X011434Y020532D01*
X011434Y020690D02*
X011451Y020690D01*
X011785Y020690D02*
X011922Y020690D01*
X012061Y020849D02*
X010824Y020849D01*
X010963Y020690D02*
X011100Y020690D01*
X011043Y021166D02*
X008703Y021166D01*
X008779Y021324D02*
X010839Y021324D01*
X010746Y021483D02*
X008845Y021483D01*
X008865Y021641D02*
X010698Y021641D01*
X010698Y021800D02*
X008865Y021800D01*
X008845Y021958D02*
X010746Y021958D01*
X010839Y022117D02*
X010411Y022117D01*
X010617Y022276D02*
X010831Y022276D01*
X010265Y022489D02*
X008665Y022489D01*
X008515Y022639D01*
X006415Y022639D01*
X005915Y022139D01*
X006413Y021958D02*
X006985Y021958D01*
X006965Y021800D02*
X006373Y021800D01*
X006157Y021641D02*
X006965Y021641D01*
X006985Y021483D02*
X002315Y021483D01*
X002315Y021641D02*
X005673Y021641D01*
X005457Y021800D02*
X002315Y021800D01*
X002315Y021958D02*
X005417Y021958D01*
X005417Y022117D02*
X002315Y022117D01*
X002315Y022276D02*
X002713Y022276D01*
X002554Y022434D02*
X002315Y022434D01*
X002315Y022593D02*
X002396Y022593D01*
X002515Y023039D02*
X002515Y025239D01*
X003315Y026039D01*
X003915Y026639D01*
X003915Y030189D01*
X005434Y029093D02*
X014046Y029093D01*
X013887Y029251D02*
X005593Y029251D01*
X005751Y029410D02*
X013729Y029410D01*
X013570Y029569D02*
X005910Y029569D01*
X006068Y029727D02*
X013429Y029727D01*
X013381Y029886D02*
X012856Y029886D01*
X013035Y030044D02*
X013381Y030044D01*
X013304Y030203D02*
X013194Y030203D01*
X012665Y030239D02*
X006015Y030239D01*
X004215Y028439D01*
X004215Y025889D01*
X004915Y025189D01*
X003935Y024209D01*
X003935Y023237D01*
X004065Y022589D02*
X002965Y022589D01*
X002515Y023039D01*
X004065Y022589D02*
X004712Y023237D01*
X004722Y023237D01*
X005114Y022751D02*
X005118Y022751D01*
X005439Y022434D02*
X004475Y022434D01*
X004317Y022276D02*
X005417Y022276D01*
X005565Y022593D02*
X004634Y022593D01*
X004335Y023861D02*
X006715Y023861D01*
X006715Y024020D02*
X004335Y024020D01*
X004469Y024178D02*
X006715Y024178D01*
X006715Y024337D02*
X004628Y024337D01*
X004786Y024495D02*
X006715Y024495D01*
X006715Y024654D02*
X004945Y024654D01*
X005347Y024812D02*
X006715Y024812D01*
X006715Y024971D02*
X005413Y024971D01*
X005413Y025129D02*
X006715Y025129D01*
X006715Y025288D02*
X005413Y025288D01*
X005407Y025446D02*
X006715Y025446D01*
X006715Y025605D02*
X005308Y025605D01*
X004906Y025764D02*
X006715Y025764D01*
X006715Y025922D02*
X004748Y025922D01*
X004615Y026081D02*
X006665Y026081D01*
X006617Y026239D02*
X004615Y026239D01*
X004615Y026398D02*
X006617Y026398D01*
X006617Y026556D02*
X004615Y026556D01*
X004615Y026715D02*
X006631Y026715D01*
X006740Y026873D02*
X004615Y026873D01*
X004615Y027032D02*
X005857Y027032D01*
X006165Y027289D02*
X005865Y027589D01*
X006165Y027289D02*
X015015Y027289D01*
X014947Y026791D02*
X015415Y026324D01*
X015415Y023409D01*
X015037Y023409D01*
X014815Y023187D01*
X014592Y023409D01*
X014037Y023409D01*
X013815Y023187D01*
X013592Y023409D01*
X013037Y023409D01*
X012716Y023088D01*
X012534Y023269D01*
X012335Y023269D01*
X012335Y022760D01*
X012295Y022760D01*
X012295Y023269D01*
X012095Y023269D01*
X011914Y023088D01*
X011671Y023330D01*
X011804Y023463D01*
X011865Y023610D01*
X011865Y023769D01*
X011865Y026195D01*
X011974Y026240D01*
X012064Y026330D01*
X012113Y026447D01*
X012113Y026889D01*
X014606Y026889D01*
X014656Y026840D01*
X014773Y026791D01*
X014947Y026791D01*
X015024Y026715D02*
X012113Y026715D01*
X012113Y026873D02*
X014622Y026873D01*
X015182Y026556D02*
X012113Y026556D01*
X012092Y026398D02*
X015341Y026398D01*
X015415Y026239D02*
X011973Y026239D01*
X011865Y026081D02*
X015415Y026081D01*
X015415Y025922D02*
X011865Y025922D01*
X011865Y025764D02*
X015415Y025764D01*
X015415Y025605D02*
X011865Y025605D01*
X011865Y025446D02*
X015415Y025446D01*
X015415Y025288D02*
X011865Y025288D01*
X011865Y025129D02*
X015415Y025129D01*
X015415Y024971D02*
X011865Y024971D01*
X011865Y024812D02*
X015415Y024812D01*
X015415Y024654D02*
X011865Y024654D01*
X011865Y024495D02*
X015415Y024495D01*
X015415Y024337D02*
X011865Y024337D01*
X011865Y024178D02*
X015415Y024178D01*
X015415Y024020D02*
X011865Y024020D01*
X011865Y023861D02*
X015415Y023861D01*
X015415Y023702D02*
X011865Y023702D01*
X011838Y023544D02*
X015415Y023544D01*
X015014Y023385D02*
X014616Y023385D01*
X014775Y023227D02*
X014855Y023227D01*
X014014Y023385D02*
X013616Y023385D01*
X013775Y023227D02*
X013855Y023227D01*
X013014Y023385D02*
X011727Y023385D01*
X011775Y023227D02*
X012053Y023227D01*
X012295Y023227D02*
X012335Y023227D01*
X012335Y023068D02*
X012295Y023068D01*
X012295Y022910D02*
X012335Y022910D01*
X012335Y022719D02*
X012335Y022209D01*
X012534Y022209D01*
X012716Y022391D01*
X012914Y022192D01*
X012792Y022070D01*
X012738Y021940D01*
X012723Y021971D01*
X012679Y022031D01*
X012626Y022084D01*
X012565Y022129D01*
X012498Y022163D01*
X012427Y022186D01*
X012352Y022198D01*
X012333Y022198D01*
X012333Y021739D01*
X012296Y021739D01*
X012296Y022198D01*
X012277Y022198D01*
X012203Y022186D01*
X012132Y022163D01*
X012065Y022129D01*
X012004Y022084D01*
X011951Y022031D01*
X011907Y021971D01*
X011892Y021940D01*
X011838Y022070D01*
X011716Y022192D01*
X011914Y022391D01*
X012095Y022209D01*
X012295Y022209D01*
X012295Y022719D01*
X012335Y022719D01*
X012335Y022593D02*
X012295Y022593D01*
X012295Y022434D02*
X012335Y022434D01*
X012335Y022276D02*
X012295Y022276D01*
X012296Y022117D02*
X012333Y022117D01*
X012333Y021958D02*
X012296Y021958D01*
X012296Y021800D02*
X012333Y021800D01*
X012333Y021641D02*
X012296Y021641D01*
X012296Y021483D02*
X012333Y021483D01*
X012333Y021324D02*
X012296Y021324D01*
X012049Y021324D02*
X011791Y021324D01*
X011884Y021483D02*
X011901Y021483D01*
X011587Y021166D02*
X013043Y021166D01*
X012839Y021324D02*
X012580Y021324D01*
X012729Y021483D02*
X012746Y021483D01*
X012729Y021958D02*
X012746Y021958D01*
X012839Y022117D02*
X012581Y022117D01*
X012601Y022276D02*
X012831Y022276D01*
X012049Y022117D02*
X011791Y022117D01*
X011799Y022276D02*
X012029Y022276D01*
X011901Y021958D02*
X011884Y021958D01*
X012824Y020849D02*
X013061Y020849D01*
X013587Y021166D02*
X014043Y021166D01*
X013839Y021324D02*
X013791Y021324D01*
X013824Y020849D02*
X014061Y020849D01*
X014587Y021166D02*
X015043Y021166D01*
X014839Y021324D02*
X014791Y021324D01*
X014824Y020849D02*
X015061Y020849D01*
X015531Y021007D02*
X008545Y021007D01*
X008292Y020849D02*
X010061Y020849D01*
X009922Y020690D02*
X002315Y020690D01*
X002315Y020532D02*
X009856Y020532D01*
X009845Y020373D02*
X002315Y020373D01*
X002315Y020214D02*
X009867Y020214D01*
X007538Y020849D02*
X002315Y020849D01*
X002315Y021007D02*
X007285Y021007D01*
X007127Y021166D02*
X002315Y021166D01*
X002315Y021324D02*
X007051Y021324D01*
X007051Y022117D02*
X006458Y022117D01*
X007084Y023237D02*
X007115Y023267D01*
X007115Y026439D01*
X007613Y026197D02*
X007564Y026080D01*
X007515Y026030D01*
X007515Y023757D01*
X007520Y023762D01*
X007748Y023856D01*
X007995Y023856D01*
X008223Y023762D01*
X008265Y023720D01*
X008308Y023762D01*
X008536Y023856D01*
X008782Y023856D01*
X009010Y023762D01*
X009053Y023720D01*
X009095Y023762D01*
X009323Y023856D01*
X009570Y023856D01*
X009798Y023762D01*
X009942Y023618D01*
X009982Y023647D01*
X010050Y023681D01*
X010121Y023705D01*
X010196Y023716D01*
X010234Y023716D01*
X010234Y023237D01*
X010234Y023237D01*
X010234Y023716D01*
X010272Y023716D01*
X010346Y023705D01*
X010418Y023681D01*
X010485Y023647D01*
X010547Y023603D01*
X010600Y023549D01*
X010644Y023488D01*
X010662Y023452D01*
X011065Y023855D01*
X011065Y026460D01*
X011065Y026619D01*
X011117Y026744D01*
X011117Y026889D01*
X007473Y026889D01*
X007474Y026889D01*
X007564Y026799D01*
X007613Y026681D01*
X007613Y026197D01*
X007613Y026239D02*
X011065Y026239D01*
X011065Y026081D02*
X007565Y026081D01*
X007515Y025922D02*
X011065Y025922D01*
X011065Y025764D02*
X007515Y025764D01*
X007515Y025605D02*
X011065Y025605D01*
X011065Y025446D02*
X007515Y025446D01*
X007515Y025288D02*
X011065Y025288D01*
X011065Y025129D02*
X007515Y025129D01*
X007515Y024971D02*
X011065Y024971D01*
X011065Y024812D02*
X007515Y024812D01*
X007515Y024654D02*
X011065Y024654D01*
X011065Y024495D02*
X007515Y024495D01*
X007515Y024337D02*
X011065Y024337D01*
X011065Y024178D02*
X007515Y024178D01*
X007515Y024020D02*
X011065Y024020D01*
X011065Y023861D02*
X007515Y023861D01*
X009857Y023702D02*
X010115Y023702D01*
X010234Y023702D02*
X010234Y023702D01*
X010353Y023702D02*
X010912Y023702D01*
X010754Y023544D02*
X010604Y023544D01*
X010234Y023544D02*
X010234Y023544D01*
X010234Y023385D02*
X010234Y023385D01*
X010265Y022489D02*
X011465Y023689D01*
X011465Y026539D01*
X011615Y026689D01*
X011105Y026715D02*
X007599Y026715D01*
X007613Y026556D02*
X011065Y026556D01*
X011065Y026398D02*
X007613Y026398D01*
X007490Y026873D02*
X011117Y026873D01*
X014227Y028934D02*
X005276Y028934D01*
X005117Y028776D02*
X015914Y028776D01*
X015935Y028617D02*
X004959Y028617D01*
X004800Y028459D02*
X015823Y028459D01*
X015814Y028934D02*
X015503Y028934D01*
X015654Y029063D02*
X015654Y029063D01*
X015684Y029093D02*
X015761Y029093D01*
X015187Y029727D02*
X014543Y029727D01*
X014288Y030203D02*
X014257Y030203D01*
X014645Y030509D02*
X014215Y030939D01*
X013365Y030939D01*
X012665Y030239D01*
X013365Y031239D02*
X012565Y032039D01*
X011515Y032039D01*
X010365Y030889D01*
X007465Y030889D01*
X005450Y027983D02*
X004615Y027983D01*
X004615Y027825D02*
X005367Y027825D01*
X005367Y027666D02*
X004615Y027666D01*
X004615Y027507D02*
X005367Y027507D01*
X005367Y027349D02*
X004615Y027349D01*
X004615Y027190D02*
X005455Y027190D01*
X012577Y023227D02*
X012855Y023227D01*
X016361Y026873D02*
X016401Y026873D01*
X016401Y027032D02*
X016361Y027032D01*
X016747Y026873D02*
X016791Y026935D01*
X016826Y027002D01*
X016833Y027349D02*
X016929Y027349D01*
X017023Y027507D02*
X016738Y027507D01*
X016737Y027666D02*
X017024Y027666D01*
X017361Y027032D02*
X017401Y027032D01*
X017401Y026873D02*
X017361Y026873D01*
X017833Y027349D02*
X019765Y027349D01*
X019765Y027507D02*
X017738Y027507D01*
X017738Y027666D02*
X019765Y027666D01*
X019765Y027825D02*
X017896Y027825D01*
X017968Y027983D02*
X019765Y027983D01*
X019765Y028142D02*
X018001Y028142D01*
X018001Y028300D02*
X019765Y028300D01*
X019765Y028459D02*
X017939Y028459D01*
X017826Y028617D02*
X019765Y028617D01*
X019765Y028776D02*
X017847Y028776D01*
X017948Y028934D02*
X019765Y028934D01*
X019646Y029093D02*
X018001Y029093D01*
X018001Y029251D02*
X019487Y029251D01*
X019329Y029410D02*
X017959Y029410D01*
X015749Y030520D02*
X015749Y030520D01*
X015749Y030678D02*
X015749Y030678D01*
X015749Y030837D02*
X015749Y030837D01*
X015749Y031471D02*
X015749Y031471D01*
X015749Y031630D02*
X015749Y031630D01*
X015749Y031788D02*
X015749Y031788D01*
X015503Y031471D02*
X015216Y031471D01*
X015295Y031630D02*
X015371Y031630D01*
X015331Y031788D02*
X015323Y031788D01*
X014765Y031809D02*
X014196Y031239D01*
X013365Y031239D01*
X013781Y031809D02*
X013934Y031809D01*
X014315Y032189D01*
X020715Y032189D01*
X022715Y030189D01*
X022715Y027889D01*
X025220Y030361D02*
X034249Y030361D01*
X035815Y029489D02*
X035815Y024889D01*
X036515Y024189D01*
X036515Y022489D01*
X036415Y021324D02*
X036391Y021324D01*
X036415Y021166D02*
X036187Y021166D01*
X036415Y021007D02*
X026767Y021007D01*
X026713Y020849D02*
X036415Y020849D01*
X036415Y020690D02*
X026713Y020690D01*
X026706Y020532D02*
X036415Y020532D01*
X036415Y020373D02*
X035137Y020373D01*
X035296Y020214D02*
X036415Y020214D01*
X036415Y020056D02*
X035363Y020056D01*
X035385Y019897D02*
X036415Y019897D01*
X036415Y019739D02*
X035385Y019739D01*
X035385Y019580D02*
X036415Y019580D01*
X036415Y019422D02*
X035385Y019422D01*
X035385Y019263D02*
X036415Y019263D01*
X036415Y019105D02*
X035385Y019105D01*
X035385Y018946D02*
X036415Y018946D01*
X036415Y018788D02*
X035385Y018788D01*
X035385Y018629D02*
X036415Y018629D01*
X036473Y018471D02*
X035385Y018471D01*
X035385Y018312D02*
X036627Y018312D01*
X036785Y018153D02*
X035385Y018153D01*
X035385Y017995D02*
X036944Y017995D01*
X037122Y017836D02*
X035385Y017836D01*
X035385Y017678D02*
X036958Y017678D01*
X036729Y017519D02*
X035385Y017519D01*
X035385Y017361D02*
X036164Y017361D01*
X035930Y017202D02*
X035385Y017202D01*
X035385Y017044D02*
X035816Y017044D01*
X035750Y016885D02*
X035385Y016885D01*
X035385Y016727D02*
X035745Y016727D01*
X035761Y016568D02*
X035385Y016568D01*
X035385Y016409D02*
X035826Y016409D01*
X035956Y016251D02*
X035385Y016251D01*
X035385Y016092D02*
X035836Y016092D01*
X035770Y015934D02*
X035385Y015934D01*
X035385Y015775D02*
X035745Y015775D01*
X035745Y015617D02*
X035385Y015617D01*
X035385Y015458D02*
X035806Y015458D01*
X035907Y015300D02*
X035385Y015300D01*
X035385Y015141D02*
X035869Y015141D01*
X035791Y014983D02*
X035385Y014983D01*
X035385Y014824D02*
X035745Y014824D01*
X035745Y014665D02*
X035385Y014665D01*
X035385Y014507D02*
X035786Y014507D01*
X035858Y014348D02*
X035385Y014348D01*
X035385Y014190D02*
X035918Y014190D01*
X035745Y013714D02*
X035385Y013714D01*
X035385Y013556D02*
X035766Y013556D01*
X035831Y013397D02*
X035385Y013397D01*
X035385Y013239D02*
X035968Y013239D01*
X036256Y013080D02*
X035385Y013080D01*
X035385Y012921D02*
X038330Y012921D01*
X038298Y012763D02*
X035385Y012763D01*
X035385Y012604D02*
X038298Y012604D01*
X038361Y012446D02*
X035385Y012446D01*
X035385Y012287D02*
X038476Y012287D01*
X038451Y012129D02*
X035385Y012129D01*
X036574Y013080D02*
X037256Y013080D01*
X037574Y013080D02*
X038402Y013080D01*
X038525Y013239D02*
X037862Y013239D01*
X037998Y013397D02*
X038381Y013397D01*
X038316Y013556D02*
X038064Y013556D01*
X038085Y013714D02*
X038298Y013714D01*
X038396Y014239D02*
X038915Y013721D01*
X038396Y014239D02*
X036965Y014239D01*
X036465Y013739D01*
X036415Y013739D01*
X036862Y013239D02*
X036968Y013239D01*
X036565Y014739D02*
X037065Y015239D01*
X038396Y015239D01*
X038915Y014721D01*
X038915Y015721D02*
X038396Y016239D01*
X037115Y016239D01*
X036615Y015739D01*
X036415Y015739D01*
X036415Y014739D02*
X036565Y014739D01*
X034245Y015300D02*
X027315Y015300D01*
X027315Y015458D02*
X034245Y015458D01*
X034245Y015617D02*
X027315Y015617D01*
X027315Y015775D02*
X034245Y015775D01*
X034245Y015934D02*
X027315Y015934D01*
X027315Y016092D02*
X034245Y016092D01*
X034245Y016251D02*
X027315Y016251D01*
X027315Y016409D02*
X034245Y016409D01*
X034245Y016568D02*
X027315Y016568D01*
X027315Y016727D02*
X034245Y016727D01*
X034245Y016885D02*
X027315Y016885D01*
X027370Y017044D02*
X034245Y017044D01*
X034245Y017202D02*
X027413Y017202D01*
X027413Y017361D02*
X034245Y017361D01*
X034245Y017519D02*
X027413Y017519D01*
X027394Y017678D02*
X034245Y017678D01*
X034245Y017836D02*
X027315Y017836D01*
X027315Y017995D02*
X034245Y017995D01*
X034245Y018153D02*
X027315Y018153D01*
X027315Y018312D02*
X034245Y018312D01*
X034245Y018471D02*
X027315Y018471D01*
X027315Y018629D02*
X034245Y018629D01*
X034245Y018788D02*
X027315Y018788D01*
X027315Y018946D02*
X034245Y018946D01*
X034245Y019105D02*
X027300Y019105D01*
X027207Y019263D02*
X034245Y019263D01*
X034245Y019422D02*
X027048Y019422D01*
X026890Y019580D02*
X034245Y019580D01*
X034245Y019739D02*
X026731Y019739D01*
X026572Y019897D02*
X034245Y019897D01*
X034267Y020056D02*
X026414Y020056D01*
X026255Y020214D02*
X034334Y020214D01*
X034493Y020373D02*
X026607Y020373D01*
X026215Y020789D02*
X026215Y021021D01*
X026915Y021721D01*
X033187Y021166D02*
X033643Y021166D01*
X033439Y021324D02*
X033391Y021324D01*
X034187Y021166D02*
X034643Y021166D01*
X034439Y021324D02*
X034391Y021324D01*
X035187Y021166D02*
X035643Y021166D01*
X035439Y021324D02*
X035391Y021324D01*
X037065Y017289D02*
X038346Y017289D01*
X038915Y016721D01*
X037065Y017289D02*
X036515Y016739D01*
X036415Y016739D01*
X040015Y013189D02*
X040515Y013689D01*
X040015Y013189D02*
X039515Y013189D01*
X039046Y012721D01*
X038915Y012721D01*
X038196Y011336D02*
X037673Y011336D01*
X037896Y011178D02*
X038038Y011178D01*
X038615Y010189D02*
X039446Y010189D01*
X039915Y009721D01*
X040293Y010226D02*
X040885Y010226D01*
X040885Y010068D02*
X040439Y010068D01*
X040505Y009909D02*
X040885Y009909D01*
X040885Y009751D02*
X040532Y009751D01*
X040529Y009592D02*
X040885Y009592D01*
X040885Y009434D02*
X040464Y009434D01*
X040342Y009275D02*
X040885Y009275D01*
X040885Y009116D02*
X040392Y009116D01*
X040484Y008958D02*
X040885Y008958D01*
X040885Y008799D02*
X040532Y008799D01*
X040532Y008641D02*
X040885Y008641D01*
X040885Y008482D02*
X040484Y008482D01*
X040390Y008324D02*
X040885Y008324D01*
X040885Y008165D02*
X040343Y008165D01*
X040464Y008007D02*
X040885Y008007D01*
X040885Y007848D02*
X040530Y007848D01*
X040532Y007690D02*
X040885Y007690D01*
X040885Y007531D02*
X040504Y007531D01*
X040438Y007372D02*
X040885Y007372D01*
X040885Y007214D02*
X040294Y007214D01*
X040444Y007055D02*
X040885Y007055D01*
X040885Y006897D02*
X040510Y006897D01*
X040532Y006738D02*
X040885Y006738D01*
X040885Y006580D02*
X040524Y006580D01*
X040459Y006421D02*
X040885Y006421D01*
X040885Y006263D02*
X040329Y006263D01*
X040404Y006104D02*
X040885Y006104D01*
X040885Y005946D02*
X040489Y005946D01*
X040532Y005787D02*
X040885Y005787D01*
X040885Y005629D02*
X040532Y005629D01*
X040479Y005470D02*
X040885Y005470D01*
X040885Y005311D02*
X040378Y005311D01*
X040156Y005153D02*
X040885Y005153D01*
X040885Y004994D02*
X040306Y004994D01*
X040379Y004836D02*
X040885Y004836D01*
X040885Y004677D02*
X040391Y004677D01*
X040347Y004519D02*
X040885Y004519D01*
X040885Y004360D02*
X040229Y004360D01*
X039933Y004360D02*
X039896Y004360D01*
X039896Y004519D02*
X039933Y004519D01*
X039933Y004677D02*
X039896Y004677D01*
X039601Y004360D02*
X039229Y004360D01*
X039347Y004519D02*
X039483Y004519D01*
X039439Y004677D02*
X039391Y004677D01*
X039379Y004836D02*
X039451Y004836D01*
X039524Y004994D02*
X039306Y004994D01*
X039156Y005153D02*
X039674Y005153D01*
X039452Y005311D02*
X039378Y005311D01*
X038933Y004677D02*
X038896Y004677D01*
X038896Y004519D02*
X038933Y004519D01*
X038933Y004360D02*
X038896Y004360D01*
X038601Y004360D02*
X038242Y004360D01*
X038192Y004409D02*
X037637Y004409D01*
X037415Y004187D01*
X037192Y004409D01*
X036637Y004409D01*
X036415Y004187D01*
X036192Y004409D01*
X035637Y004409D01*
X035415Y004187D01*
X035192Y004409D01*
X034637Y004409D01*
X034415Y004187D01*
X034192Y004409D01*
X033637Y004409D01*
X033415Y004187D01*
X033192Y004409D01*
X032637Y004409D01*
X032415Y004187D01*
X032192Y004409D01*
X031637Y004409D01*
X031415Y004187D01*
X031192Y004409D01*
X030637Y004409D01*
X030245Y004017D01*
X030245Y003462D01*
X030514Y003192D01*
X030392Y003070D01*
X030298Y002843D01*
X030298Y002598D01*
X030392Y002371D01*
X030566Y002198D01*
X030792Y002104D01*
X031038Y002104D01*
X031264Y002198D01*
X031415Y002348D01*
X031566Y002198D01*
X031792Y002104D01*
X032038Y002104D01*
X032264Y002198D01*
X032415Y002348D01*
X032566Y002198D01*
X032792Y002104D01*
X033038Y002104D01*
X033264Y002198D01*
X033415Y002348D01*
X033566Y002198D01*
X033792Y002104D01*
X034038Y002104D01*
X034264Y002198D01*
X034415Y002348D01*
X034566Y002198D01*
X034792Y002104D01*
X035038Y002104D01*
X035264Y002198D01*
X035415Y002348D01*
X035566Y002198D01*
X035792Y002104D01*
X036038Y002104D01*
X036264Y002198D01*
X036415Y002348D01*
X036566Y002198D01*
X036792Y002104D01*
X037038Y002104D01*
X037264Y002198D01*
X037415Y002348D01*
X037566Y002198D01*
X037792Y002104D01*
X038038Y002104D01*
X038264Y002198D01*
X038438Y002371D01*
X038532Y002598D01*
X038532Y002843D01*
X038438Y003070D01*
X038316Y003192D01*
X038585Y003462D01*
X038585Y004017D01*
X038192Y004409D01*
X038400Y004202D02*
X040885Y004202D01*
X040885Y004043D02*
X038559Y004043D01*
X038585Y003885D02*
X040885Y003885D01*
X040885Y003726D02*
X038585Y003726D01*
X038585Y003567D02*
X039477Y003567D01*
X039377Y003526D02*
X039110Y003259D01*
X038965Y002910D01*
X038965Y002532D01*
X039110Y002183D01*
X039377Y001915D01*
X039726Y001771D01*
X040104Y001771D01*
X040453Y001915D01*
X040720Y002183D01*
X040865Y002532D01*
X040865Y002910D01*
X040720Y003259D01*
X040453Y003526D01*
X040104Y003671D01*
X039726Y003671D01*
X039377Y003526D01*
X039260Y003409D02*
X038532Y003409D01*
X038373Y003250D02*
X039106Y003250D01*
X039040Y003092D02*
X038416Y003092D01*
X038495Y002933D02*
X038975Y002933D01*
X038965Y002775D02*
X038532Y002775D01*
X038532Y002616D02*
X038965Y002616D01*
X038996Y002458D02*
X038474Y002458D01*
X038366Y002299D02*
X039061Y002299D01*
X039152Y002141D02*
X038126Y002141D01*
X037704Y002141D02*
X037126Y002141D01*
X037366Y002299D02*
X037464Y002299D01*
X036704Y002141D02*
X036126Y002141D01*
X036366Y002299D02*
X036464Y002299D01*
X035704Y002141D02*
X035126Y002141D01*
X035366Y002299D02*
X035464Y002299D01*
X034704Y002141D02*
X034126Y002141D01*
X034366Y002299D02*
X034464Y002299D01*
X033704Y002141D02*
X033126Y002141D01*
X033366Y002299D02*
X033464Y002299D01*
X032704Y002141D02*
X032126Y002141D01*
X032366Y002299D02*
X032464Y002299D01*
X031704Y002141D02*
X031126Y002141D01*
X031366Y002299D02*
X031464Y002299D01*
X030704Y002141D02*
X029126Y002141D01*
X029038Y002104D02*
X029264Y002198D01*
X029438Y002371D01*
X029532Y002598D01*
X029532Y002843D01*
X029438Y003070D01*
X029316Y003192D01*
X029585Y003462D01*
X029585Y004017D01*
X029192Y004409D01*
X028637Y004409D01*
X028415Y004187D01*
X028192Y004409D01*
X027637Y004409D01*
X027415Y004187D01*
X027192Y004409D01*
X026637Y004409D01*
X026415Y004187D01*
X026192Y004409D01*
X025637Y004409D01*
X025415Y004187D01*
X025192Y004409D01*
X024637Y004409D01*
X024415Y004187D01*
X024192Y004409D01*
X023637Y004409D01*
X023415Y004187D01*
X023192Y004409D01*
X022637Y004409D01*
X022415Y004187D01*
X022192Y004409D01*
X021637Y004409D01*
X021245Y004017D01*
X021245Y003462D01*
X021514Y003192D01*
X021392Y003070D01*
X021298Y002843D01*
X021298Y002598D01*
X021392Y002371D01*
X021566Y002198D01*
X021792Y002104D01*
X022038Y002104D01*
X022264Y002198D01*
X022415Y002348D01*
X022566Y002198D01*
X022792Y002104D01*
X023038Y002104D01*
X023264Y002198D01*
X023415Y002348D01*
X023566Y002198D01*
X023792Y002104D01*
X024038Y002104D01*
X024264Y002198D01*
X024415Y002348D01*
X024566Y002198D01*
X024792Y002104D01*
X025038Y002104D01*
X025264Y002198D01*
X025415Y002348D01*
X025566Y002198D01*
X025792Y002104D01*
X026038Y002104D01*
X026264Y002198D01*
X026415Y002348D01*
X026566Y002198D01*
X026792Y002104D01*
X027038Y002104D01*
X027264Y002198D01*
X027415Y002348D01*
X027566Y002198D01*
X027792Y002104D01*
X028038Y002104D01*
X028264Y002198D01*
X028415Y002348D01*
X028566Y002198D01*
X028792Y002104D01*
X029038Y002104D01*
X028704Y002141D02*
X028126Y002141D01*
X028366Y002299D02*
X028464Y002299D01*
X027704Y002141D02*
X027126Y002141D01*
X027366Y002299D02*
X027464Y002299D01*
X026704Y002141D02*
X026126Y002141D01*
X026366Y002299D02*
X026464Y002299D01*
X025704Y002141D02*
X025126Y002141D01*
X025366Y002299D02*
X025464Y002299D01*
X024704Y002141D02*
X024126Y002141D01*
X024366Y002299D02*
X024464Y002299D01*
X023704Y002141D02*
X023126Y002141D01*
X023366Y002299D02*
X023464Y002299D01*
X022704Y002141D02*
X022126Y002141D01*
X022366Y002299D02*
X022464Y002299D01*
X021704Y002141D02*
X020494Y002141D01*
X020628Y002299D02*
X021464Y002299D01*
X021356Y002458D02*
X020693Y002458D01*
X020735Y002616D02*
X021298Y002616D01*
X021298Y002775D02*
X020735Y002775D01*
X020735Y002933D02*
X021335Y002933D01*
X021414Y003092D02*
X020735Y003092D01*
X020735Y003250D02*
X021456Y003250D01*
X021298Y003409D02*
X020735Y003409D01*
X020735Y003567D02*
X021245Y003567D01*
X021245Y003726D02*
X020735Y003726D01*
X020735Y003885D02*
X021245Y003885D01*
X021271Y004043D02*
X020735Y004043D01*
X020735Y004202D02*
X021430Y004202D01*
X021588Y004360D02*
X020732Y004360D01*
X020666Y004519D02*
X038483Y004519D01*
X038439Y004677D02*
X020587Y004677D01*
X020428Y004836D02*
X038451Y004836D01*
X038524Y004994D02*
X020270Y004994D01*
X020111Y005153D02*
X038674Y005153D01*
X038452Y005311D02*
X019952Y005311D01*
X019794Y005470D02*
X038351Y005470D01*
X038298Y005629D02*
X019635Y005629D01*
X019477Y005787D02*
X038298Y005787D01*
X038340Y005946D02*
X019318Y005946D01*
X019160Y006104D02*
X038426Y006104D01*
X038501Y006263D02*
X019001Y006263D01*
X018843Y006421D02*
X038371Y006421D01*
X037588Y004360D02*
X037242Y004360D01*
X037400Y004202D02*
X037430Y004202D01*
X036588Y004360D02*
X036242Y004360D01*
X036400Y004202D02*
X036430Y004202D01*
X035588Y004360D02*
X035242Y004360D01*
X035400Y004202D02*
X035430Y004202D01*
X034588Y004360D02*
X034242Y004360D01*
X034400Y004202D02*
X034430Y004202D01*
X033588Y004360D02*
X033242Y004360D01*
X033400Y004202D02*
X033430Y004202D01*
X032588Y004360D02*
X032242Y004360D01*
X032400Y004202D02*
X032430Y004202D01*
X031588Y004360D02*
X031242Y004360D01*
X031400Y004202D02*
X031430Y004202D01*
X030588Y004360D02*
X029242Y004360D01*
X029400Y004202D02*
X030430Y004202D01*
X030271Y004043D02*
X029559Y004043D01*
X029585Y003885D02*
X030245Y003885D01*
X030245Y003726D02*
X029585Y003726D01*
X029585Y003567D02*
X030245Y003567D01*
X030298Y003409D02*
X029532Y003409D01*
X029374Y003250D02*
X030456Y003250D01*
X030414Y003092D02*
X029416Y003092D01*
X029495Y002933D02*
X030335Y002933D01*
X030298Y002775D02*
X029532Y002775D01*
X029532Y002616D02*
X030298Y002616D01*
X030356Y002458D02*
X029474Y002458D01*
X029366Y002299D02*
X030464Y002299D01*
X028430Y004202D02*
X028400Y004202D01*
X028242Y004360D02*
X028588Y004360D01*
X027588Y004360D02*
X027242Y004360D01*
X027400Y004202D02*
X027430Y004202D01*
X026588Y004360D02*
X026242Y004360D01*
X026400Y004202D02*
X026430Y004202D01*
X025588Y004360D02*
X025242Y004360D01*
X025400Y004202D02*
X025430Y004202D01*
X024588Y004360D02*
X024242Y004360D01*
X024400Y004202D02*
X024430Y004202D01*
X023588Y004360D02*
X023242Y004360D01*
X023400Y004202D02*
X023430Y004202D01*
X022588Y004360D02*
X022242Y004360D01*
X022400Y004202D02*
X022430Y004202D01*
X020274Y001982D02*
X039310Y001982D01*
X039599Y001823D02*
X012047Y001823D01*
X012091Y001982D02*
X019556Y001982D01*
X017692Y002299D02*
X017366Y002299D01*
X017474Y002458D02*
X017517Y002458D01*
X018384Y003409D02*
X018446Y003409D01*
X014245Y003409D02*
X012644Y003409D01*
X012486Y003567D02*
X014245Y003567D01*
X014245Y003726D02*
X012327Y003726D01*
X012235Y003885D02*
X014245Y003885D01*
X013752Y004043D02*
X012203Y004043D01*
X012138Y004202D02*
X013667Y004202D01*
X013667Y004360D02*
X011990Y004360D01*
X011684Y004519D02*
X013667Y004519D01*
X014245Y003250D02*
X012803Y003250D01*
X011921Y002775D02*
X008365Y002775D01*
X008355Y002933D02*
X011762Y002933D01*
X011604Y003092D02*
X008289Y003092D01*
X008224Y003250D02*
X008588Y003250D01*
X008430Y003409D02*
X008070Y003409D01*
X007853Y003567D02*
X008347Y003567D01*
X009382Y003250D02*
X011148Y003250D01*
X011176Y002458D02*
X009354Y002458D01*
X009475Y002299D02*
X011055Y002299D01*
X011003Y002141D02*
X009527Y002141D01*
X009531Y001982D02*
X010999Y001982D01*
X011043Y001823D02*
X009487Y001823D01*
X009378Y001665D02*
X011151Y001665D01*
X011525Y002141D02*
X011565Y002141D01*
X011565Y002299D02*
X011525Y002299D01*
X011525Y002458D02*
X011565Y002458D01*
X011938Y001665D02*
X040408Y001665D01*
X040566Y001823D02*
X040231Y001823D01*
X040520Y001982D02*
X040725Y001982D01*
X040678Y002141D02*
X040883Y002141D01*
X040885Y002299D02*
X040768Y002299D01*
X040834Y002458D02*
X040885Y002458D01*
X040885Y002616D02*
X040865Y002616D01*
X040865Y002775D02*
X040885Y002775D01*
X040885Y002933D02*
X040855Y002933D01*
X040885Y003092D02*
X040789Y003092D01*
X040724Y003250D02*
X040885Y003250D01*
X040885Y003409D02*
X040570Y003409D01*
X040353Y003567D02*
X040885Y003567D01*
X039915Y008721D02*
X039446Y009189D01*
X038665Y009189D01*
X038215Y008739D01*
X037415Y008739D01*
X037415Y009739D02*
X038165Y009739D01*
X038615Y010189D01*
X040443Y010385D02*
X040885Y010385D01*
X040885Y010543D02*
X040509Y010543D01*
X040532Y010702D02*
X040885Y010702D01*
X040885Y010860D02*
X040525Y010860D01*
X040459Y011019D02*
X040885Y011019D01*
X026576Y014031D02*
X019663Y014031D01*
X018679Y014109D02*
X018667Y014081D01*
X018667Y013597D01*
X018685Y013554D01*
X018685Y011376D01*
X018657Y011387D01*
X018173Y011387D01*
X018056Y011339D01*
X018006Y011289D01*
X017439Y011289D01*
X017389Y011289D01*
X017413Y011347D01*
X017413Y011831D01*
X017364Y011949D01*
X017274Y012039D01*
X017157Y012087D01*
X016673Y012087D01*
X016556Y012039D01*
X016466Y011949D01*
X016417Y011831D01*
X016417Y011519D01*
X015263Y011519D01*
X015263Y011781D01*
X015214Y011899D01*
X015124Y011989D01*
X015110Y011995D01*
X015135Y012056D01*
X015135Y012323D01*
X015033Y012569D01*
X014982Y012619D01*
X015598Y012619D01*
X015844Y012721D01*
X016033Y012910D01*
X016135Y013156D01*
X016135Y013423D01*
X016045Y013640D01*
X016124Y013561D01*
X016343Y013470D01*
X016581Y013470D01*
X016800Y013561D01*
X016968Y013729D01*
X017037Y013895D01*
X017039Y013892D01*
X017071Y013828D01*
X017114Y013769D01*
X017164Y013719D01*
X017223Y013676D01*
X017287Y013644D01*
X017355Y013621D01*
X017426Y013610D01*
X017454Y013610D01*
X017454Y014058D01*
X017471Y014058D01*
X017471Y013610D01*
X017498Y013610D01*
X017569Y013621D01*
X017638Y013644D01*
X017702Y013676D01*
X017760Y013719D01*
X017811Y013769D01*
X017853Y013828D01*
X017886Y013892D01*
X017908Y013960D01*
X017919Y014031D01*
X017919Y014059D01*
X017471Y014059D01*
X017471Y014076D01*
X017919Y014076D01*
X017919Y014103D01*
X017918Y014109D01*
X018679Y014109D01*
X018667Y014031D02*
X017919Y014031D01*
X017876Y013873D02*
X018667Y013873D01*
X018667Y013714D02*
X017754Y013714D01*
X017471Y013714D02*
X017454Y013714D01*
X017454Y013873D02*
X017471Y013873D01*
X017454Y014031D02*
X017471Y014031D01*
X017170Y013714D02*
X016954Y013714D01*
X017028Y013873D02*
X017048Y013873D01*
X016788Y013556D02*
X018684Y013556D01*
X018685Y013397D02*
X016135Y013397D01*
X016135Y013239D02*
X018685Y013239D01*
X018685Y013080D02*
X016103Y013080D01*
X016038Y012921D02*
X018685Y012921D01*
X018685Y012763D02*
X015886Y012763D01*
X016080Y013556D02*
X016137Y013556D01*
X014997Y012604D02*
X018685Y012604D01*
X018685Y012446D02*
X015084Y012446D01*
X015135Y012287D02*
X018685Y012287D01*
X018685Y012129D02*
X015135Y012129D01*
X015143Y011970D02*
X016487Y011970D01*
X016417Y011812D02*
X015250Y011812D01*
X015263Y011653D02*
X016417Y011653D01*
X016915Y011445D02*
X016509Y011039D01*
X016915Y011445D02*
X016915Y011589D01*
X017413Y011653D02*
X018685Y011653D01*
X018685Y011495D02*
X017413Y011495D01*
X017408Y011336D02*
X018053Y011336D01*
X018415Y010889D02*
X017359Y010889D01*
X017059Y010589D01*
X017413Y011812D02*
X018685Y011812D01*
X018685Y011970D02*
X017343Y011970D01*
X019645Y011653D02*
X020260Y011653D01*
X020091Y011495D02*
X019645Y011495D01*
X019645Y011336D02*
X019933Y011336D01*
X019774Y011178D02*
X019645Y011178D01*
X011717Y006104D02*
X007018Y006104D01*
X006755Y006104D02*
X006018Y006104D01*
X005755Y006104D02*
X003659Y006104D01*
X003503Y006104D02*
X003466Y006104D01*
X003309Y006104D02*
X002315Y006104D01*
X002315Y005946D02*
X003048Y005946D01*
X002936Y005787D02*
X002315Y005787D01*
X002315Y005629D02*
X002884Y005629D01*
X002874Y005470D02*
X002315Y005470D01*
X002315Y005311D02*
X002910Y005311D01*
X002997Y005153D02*
X002315Y005153D01*
X002315Y004994D02*
X003013Y004994D01*
X002924Y004836D02*
X002315Y004836D01*
X002315Y004677D02*
X002864Y004677D01*
X002832Y004519D02*
X002315Y004519D01*
X002315Y004360D02*
X003866Y004360D01*
X003866Y004202D02*
X004026Y004202D01*
X004026Y004043D02*
X003866Y004043D01*
X003866Y003885D02*
X004026Y003885D01*
X004026Y003726D02*
X003866Y003726D01*
X003866Y003567D02*
X004026Y003567D01*
X004026Y003409D02*
X003866Y003409D01*
X003356Y003409D02*
X002315Y003409D01*
X002315Y003567D02*
X003155Y003567D01*
X003020Y003726D02*
X002315Y003726D01*
X002315Y003885D02*
X002930Y003885D01*
X002868Y004043D02*
X002315Y004043D01*
X002315Y004202D02*
X002833Y004202D01*
X003466Y005629D02*
X003503Y005629D01*
X003503Y005787D02*
X003466Y005787D01*
X003466Y005946D02*
X003503Y005946D01*
X003921Y005946D02*
X011717Y005946D01*
X011406Y004519D02*
X009124Y004519D01*
X009430Y004360D02*
X011100Y004360D01*
X009005Y002458D02*
X008965Y002458D01*
X008965Y002299D02*
X009005Y002299D01*
X009005Y002141D02*
X008965Y002141D01*
X007099Y001823D02*
X005975Y001823D01*
X006079Y001982D02*
X006810Y001982D01*
X006652Y002141D02*
X006149Y002141D01*
X006192Y002299D02*
X006561Y002299D01*
X006474Y006263D02*
X006298Y006263D01*
X005474Y006263D02*
X003910Y006263D01*
X004230Y006738D02*
X005286Y006738D01*
X005286Y006580D02*
X005378Y006359D01*
X005286Y006897D02*
X004234Y006897D01*
X004231Y007055D02*
X005286Y007055D01*
X005286Y007214D02*
X004165Y007214D01*
X004070Y007372D02*
X005286Y007372D01*
X004252Y007531D02*
X003911Y007531D01*
X004059Y007690D02*
X002315Y007690D01*
X002315Y007848D02*
X003977Y007848D01*
X003945Y008007D02*
X002315Y008007D01*
X002315Y008165D02*
X002909Y008165D01*
X002805Y008324D02*
X002315Y008324D01*
X002795Y008348D02*
X002795Y009275D01*
X002885Y009434D02*
X002315Y009434D01*
X002315Y009592D02*
X003094Y009592D01*
X002935Y009751D02*
X002315Y009751D01*
X002315Y009909D02*
X002852Y009909D01*
X002795Y010068D02*
X002315Y010068D01*
X002315Y010226D02*
X002795Y010226D01*
X002817Y010385D02*
X002315Y010385D01*
X002315Y010543D02*
X002882Y010543D01*
X003009Y010702D02*
X002315Y010702D01*
X002315Y010860D02*
X003239Y010860D01*
X003045Y011019D02*
X002315Y011019D01*
X002315Y011178D02*
X002897Y011178D01*
X002831Y011336D02*
X002315Y011336D01*
X002315Y011495D02*
X002795Y011495D01*
X002795Y011653D02*
X002315Y011653D01*
X002315Y011812D02*
X002837Y011812D01*
X002903Y011970D02*
X002315Y011970D01*
X002315Y012129D02*
X003058Y012129D01*
X003222Y012287D02*
X002315Y012287D01*
X002315Y012446D02*
X002996Y012446D01*
X002877Y012604D02*
X002315Y012604D01*
X002315Y012763D02*
X002811Y012763D01*
X002795Y012921D02*
X002315Y012921D01*
X002315Y013080D02*
X002795Y013080D01*
X002857Y013239D02*
X002315Y013239D01*
X002315Y013397D02*
X002949Y013397D01*
X003107Y013556D02*
X002315Y013556D01*
X002315Y013714D02*
X004724Y013714D01*
X004565Y013556D02*
X003923Y013556D01*
X004081Y013397D02*
X004406Y013397D01*
X004248Y013239D02*
X004173Y013239D01*
X004904Y013873D02*
X002315Y013873D01*
X002315Y014031D02*
X009865Y014031D01*
X009867Y014190D02*
X002315Y014190D01*
X002315Y014348D02*
X009932Y014348D01*
X010057Y014507D02*
X004031Y014507D01*
X004203Y014665D02*
X010460Y014665D01*
X010239Y014824D02*
X004235Y014824D01*
X004240Y014983D02*
X010002Y014983D01*
X009898Y015141D02*
X006599Y015141D01*
X006823Y015300D02*
X009845Y015300D01*
X009845Y015458D02*
X006981Y015458D01*
X003201Y015934D02*
X002315Y015934D01*
X002315Y016092D02*
X002987Y016092D01*
X002873Y016251D02*
X002315Y016251D01*
X002315Y016409D02*
X002807Y016409D01*
X002795Y016568D02*
X002315Y016568D01*
X002315Y016727D02*
X002795Y016727D01*
X002861Y016885D02*
X002315Y016885D01*
X002315Y017044D02*
X002957Y017044D01*
X003128Y017202D02*
X002315Y017202D01*
X002315Y017361D02*
X003097Y017361D01*
X002938Y017519D02*
X002315Y017519D01*
X002315Y017678D02*
X002853Y017678D01*
X002795Y017836D02*
X002315Y017836D01*
X002315Y017995D02*
X002795Y017995D01*
X002815Y018153D02*
X002315Y018153D01*
X002315Y018312D02*
X002881Y018312D01*
X003006Y018471D02*
X002315Y018471D01*
X002315Y018629D02*
X003247Y018629D01*
X003048Y018788D02*
X002315Y018788D01*
X002315Y018946D02*
X002898Y018946D01*
X002833Y019105D02*
X002315Y019105D01*
X002315Y019263D02*
X002795Y019263D01*
X002795Y019422D02*
X002315Y019422D01*
X002315Y019580D02*
X002836Y019580D01*
X002901Y019739D02*
X002315Y019739D01*
X002315Y019897D02*
X003055Y019897D01*
X003365Y020056D02*
X002315Y020056D01*
X003665Y020056D02*
X004787Y020056D01*
X004560Y019897D02*
X003975Y019897D01*
X004129Y019739D02*
X004401Y019739D01*
X004243Y019580D02*
X004221Y019580D01*
X002839Y015775D02*
X002315Y015775D01*
X002315Y015617D02*
X002795Y015617D01*
X002795Y015458D02*
X002315Y015458D01*
X002315Y015300D02*
X002795Y015300D01*
X002795Y015141D02*
X002315Y015141D01*
X002315Y014983D02*
X002795Y014983D01*
X002795Y014824D02*
X002315Y014824D01*
X002315Y014665D02*
X002826Y014665D01*
X002998Y014507D02*
X002315Y014507D01*
X002315Y007531D02*
X003057Y007531D01*
X002899Y007372D02*
X002315Y007372D01*
X002315Y007214D02*
X002804Y007214D01*
X002738Y007055D02*
X002315Y007055D01*
X002315Y006897D02*
X002734Y006897D01*
X002738Y006738D02*
X002315Y006738D01*
X002315Y006580D02*
X002804Y006580D01*
X002900Y006421D02*
X002315Y006421D01*
X002315Y006263D02*
X003058Y006263D01*
X017587Y021166D02*
X017835Y021166D01*
X017835Y021324D02*
X017791Y021324D01*
X019513Y023385D02*
X019614Y023385D01*
X015926Y027032D02*
X015838Y027032D01*
X014765Y030509D02*
X014645Y030509D01*
X014676Y031154D02*
X021185Y031154D01*
X021026Y031313D02*
X015025Y031313D01*
X015995Y031471D02*
X020867Y031471D01*
X020709Y031630D02*
X016127Y031630D01*
X016167Y031788D02*
X020550Y031788D01*
X021206Y032264D02*
X040354Y032264D01*
X040512Y032105D02*
X021365Y032105D01*
X021523Y031947D02*
X040671Y031947D01*
X040829Y031788D02*
X021682Y031788D01*
X021840Y031630D02*
X040885Y031630D01*
X040885Y030837D02*
X036876Y030837D01*
X036993Y030678D02*
X040885Y030678D01*
X040885Y030520D02*
X037013Y030520D01*
X036515Y030389D02*
X036515Y026360D01*
X036302Y026247D01*
X035352Y026452D02*
X035302Y026247D01*
X033893Y026715D02*
X033711Y026715D01*
X038715Y028142D02*
X038965Y028142D01*
X038965Y028300D02*
X038715Y028300D01*
X038715Y028459D02*
X038998Y028459D01*
X039064Y028617D02*
X038715Y028617D01*
X038715Y028776D02*
X039158Y028776D01*
X039317Y028934D02*
X038715Y028934D01*
X038715Y029093D02*
X039614Y029093D01*
X040216Y029093D02*
X040885Y029093D01*
X040885Y029251D02*
X038715Y029251D01*
X038715Y029410D02*
X040885Y029410D01*
X040885Y029569D02*
X038780Y029569D01*
X038813Y029727D02*
X040885Y029727D01*
X040885Y029886D02*
X038813Y029886D01*
X038813Y030044D02*
X040885Y030044D01*
X040885Y030203D02*
X038783Y030203D01*
X038620Y030361D02*
X040885Y030361D01*
X040885Y028934D02*
X040513Y028934D01*
X040672Y028776D02*
X040885Y028776D01*
X040885Y028617D02*
X040766Y028617D01*
X040831Y028459D02*
X040885Y028459D01*
X040885Y028300D02*
X040865Y028300D01*
X040865Y028142D02*
X040885Y028142D01*
X040885Y027983D02*
X040858Y027983D01*
X040885Y027825D02*
X040792Y027825D01*
X040726Y027666D02*
X040885Y027666D01*
X040885Y027507D02*
X040577Y027507D01*
X040368Y027349D02*
X040885Y027349D01*
X040885Y027190D02*
X040216Y027190D01*
X040215Y027032D02*
X040885Y027032D01*
X040885Y026873D02*
X040215Y026873D01*
X040282Y026715D02*
X040322Y026715D01*
X040322Y026556D02*
X040282Y026556D01*
X040282Y026398D02*
X040322Y026398D01*
X040322Y026239D02*
X040885Y026239D01*
X040885Y026081D02*
X040782Y026081D01*
X040885Y025922D02*
X040656Y025922D01*
X040662Y025764D02*
X040885Y025764D01*
X040885Y025605D02*
X040821Y025605D01*
X040782Y026398D02*
X040885Y026398D01*
X040885Y026556D02*
X040672Y026556D01*
X040513Y026715D02*
X040885Y026715D01*
D11*
X039285Y028189D02*
X039287Y028239D01*
X039293Y028289D01*
X039303Y028338D01*
X039317Y028386D01*
X039334Y028433D01*
X039355Y028478D01*
X039380Y028522D01*
X039408Y028563D01*
X039440Y028602D01*
X039474Y028639D01*
X039511Y028673D01*
X039551Y028703D01*
X039593Y028730D01*
X039637Y028754D01*
X039683Y028775D01*
X039730Y028791D01*
X039778Y028804D01*
X039828Y028813D01*
X039877Y028818D01*
X039928Y028819D01*
X039978Y028816D01*
X040027Y028809D01*
X040076Y028798D01*
X040124Y028783D01*
X040170Y028765D01*
X040215Y028743D01*
X040258Y028717D01*
X040299Y028688D01*
X040338Y028656D01*
X040374Y028621D01*
X040406Y028583D01*
X040436Y028543D01*
X040463Y028500D01*
X040486Y028456D01*
X040505Y028410D01*
X040521Y028362D01*
X040533Y028313D01*
X040541Y028264D01*
X040545Y028214D01*
X040545Y028164D01*
X040541Y028114D01*
X040533Y028065D01*
X040521Y028016D01*
X040505Y027968D01*
X040486Y027922D01*
X040463Y027878D01*
X040436Y027835D01*
X040406Y027795D01*
X040374Y027757D01*
X040338Y027722D01*
X040299Y027690D01*
X040258Y027661D01*
X040215Y027635D01*
X040170Y027613D01*
X040124Y027595D01*
X040076Y027580D01*
X040027Y027569D01*
X039978Y027562D01*
X039928Y027559D01*
X039877Y027560D01*
X039828Y027565D01*
X039778Y027574D01*
X039730Y027587D01*
X039683Y027603D01*
X039637Y027624D01*
X039593Y027648D01*
X039551Y027675D01*
X039511Y027705D01*
X039474Y027739D01*
X039440Y027776D01*
X039408Y027815D01*
X039380Y027856D01*
X039355Y027900D01*
X039334Y027945D01*
X039317Y027992D01*
X039303Y028040D01*
X039293Y028089D01*
X039287Y028139D01*
X039285Y028189D01*
X011285Y031189D02*
X011287Y031239D01*
X011293Y031289D01*
X011303Y031338D01*
X011317Y031386D01*
X011334Y031433D01*
X011355Y031478D01*
X011380Y031522D01*
X011408Y031563D01*
X011440Y031602D01*
X011474Y031639D01*
X011511Y031673D01*
X011551Y031703D01*
X011593Y031730D01*
X011637Y031754D01*
X011683Y031775D01*
X011730Y031791D01*
X011778Y031804D01*
X011828Y031813D01*
X011877Y031818D01*
X011928Y031819D01*
X011978Y031816D01*
X012027Y031809D01*
X012076Y031798D01*
X012124Y031783D01*
X012170Y031765D01*
X012215Y031743D01*
X012258Y031717D01*
X012299Y031688D01*
X012338Y031656D01*
X012374Y031621D01*
X012406Y031583D01*
X012436Y031543D01*
X012463Y031500D01*
X012486Y031456D01*
X012505Y031410D01*
X012521Y031362D01*
X012533Y031313D01*
X012541Y031264D01*
X012545Y031214D01*
X012545Y031164D01*
X012541Y031114D01*
X012533Y031065D01*
X012521Y031016D01*
X012505Y030968D01*
X012486Y030922D01*
X012463Y030878D01*
X012436Y030835D01*
X012406Y030795D01*
X012374Y030757D01*
X012338Y030722D01*
X012299Y030690D01*
X012258Y030661D01*
X012215Y030635D01*
X012170Y030613D01*
X012124Y030595D01*
X012076Y030580D01*
X012027Y030569D01*
X011978Y030562D01*
X011928Y030559D01*
X011877Y030560D01*
X011828Y030565D01*
X011778Y030574D01*
X011730Y030587D01*
X011683Y030603D01*
X011637Y030624D01*
X011593Y030648D01*
X011551Y030675D01*
X011511Y030705D01*
X011474Y030739D01*
X011440Y030776D01*
X011408Y030815D01*
X011380Y030856D01*
X011355Y030900D01*
X011334Y030945D01*
X011317Y030992D01*
X011303Y031040D01*
X011293Y031089D01*
X011287Y031139D01*
X011285Y031189D01*
X007285Y021721D02*
X007287Y021771D01*
X007293Y021821D01*
X007303Y021870D01*
X007317Y021918D01*
X007334Y021965D01*
X007355Y022010D01*
X007380Y022054D01*
X007408Y022095D01*
X007440Y022134D01*
X007474Y022171D01*
X007511Y022205D01*
X007551Y022235D01*
X007593Y022262D01*
X007637Y022286D01*
X007683Y022307D01*
X007730Y022323D01*
X007778Y022336D01*
X007828Y022345D01*
X007877Y022350D01*
X007928Y022351D01*
X007978Y022348D01*
X008027Y022341D01*
X008076Y022330D01*
X008124Y022315D01*
X008170Y022297D01*
X008215Y022275D01*
X008258Y022249D01*
X008299Y022220D01*
X008338Y022188D01*
X008374Y022153D01*
X008406Y022115D01*
X008436Y022075D01*
X008463Y022032D01*
X008486Y021988D01*
X008505Y021942D01*
X008521Y021894D01*
X008533Y021845D01*
X008541Y021796D01*
X008545Y021746D01*
X008545Y021696D01*
X008541Y021646D01*
X008533Y021597D01*
X008521Y021548D01*
X008505Y021500D01*
X008486Y021454D01*
X008463Y021410D01*
X008436Y021367D01*
X008406Y021327D01*
X008374Y021289D01*
X008338Y021254D01*
X008299Y021222D01*
X008258Y021193D01*
X008215Y021167D01*
X008170Y021145D01*
X008124Y021127D01*
X008076Y021112D01*
X008027Y021101D01*
X007978Y021094D01*
X007928Y021091D01*
X007877Y021092D01*
X007828Y021097D01*
X007778Y021106D01*
X007730Y021119D01*
X007683Y021135D01*
X007637Y021156D01*
X007593Y021180D01*
X007551Y021207D01*
X007511Y021237D01*
X007474Y021271D01*
X007440Y021308D01*
X007408Y021347D01*
X007380Y021388D01*
X007355Y021432D01*
X007334Y021477D01*
X007317Y021524D01*
X007303Y021572D01*
X007293Y021621D01*
X007287Y021671D01*
X007285Y021721D01*
X006785Y002721D02*
X006787Y002771D01*
X006793Y002821D01*
X006803Y002870D01*
X006817Y002918D01*
X006834Y002965D01*
X006855Y003010D01*
X006880Y003054D01*
X006908Y003095D01*
X006940Y003134D01*
X006974Y003171D01*
X007011Y003205D01*
X007051Y003235D01*
X007093Y003262D01*
X007137Y003286D01*
X007183Y003307D01*
X007230Y003323D01*
X007278Y003336D01*
X007328Y003345D01*
X007377Y003350D01*
X007428Y003351D01*
X007478Y003348D01*
X007527Y003341D01*
X007576Y003330D01*
X007624Y003315D01*
X007670Y003297D01*
X007715Y003275D01*
X007758Y003249D01*
X007799Y003220D01*
X007838Y003188D01*
X007874Y003153D01*
X007906Y003115D01*
X007936Y003075D01*
X007963Y003032D01*
X007986Y002988D01*
X008005Y002942D01*
X008021Y002894D01*
X008033Y002845D01*
X008041Y002796D01*
X008045Y002746D01*
X008045Y002696D01*
X008041Y002646D01*
X008033Y002597D01*
X008021Y002548D01*
X008005Y002500D01*
X007986Y002454D01*
X007963Y002410D01*
X007936Y002367D01*
X007906Y002327D01*
X007874Y002289D01*
X007838Y002254D01*
X007799Y002222D01*
X007758Y002193D01*
X007715Y002167D01*
X007670Y002145D01*
X007624Y002127D01*
X007576Y002112D01*
X007527Y002101D01*
X007478Y002094D01*
X007428Y002091D01*
X007377Y002092D01*
X007328Y002097D01*
X007278Y002106D01*
X007230Y002119D01*
X007183Y002135D01*
X007137Y002156D01*
X007093Y002180D01*
X007051Y002207D01*
X007011Y002237D01*
X006974Y002271D01*
X006940Y002308D01*
X006908Y002347D01*
X006880Y002388D01*
X006855Y002432D01*
X006834Y002477D01*
X006817Y002524D01*
X006803Y002572D01*
X006793Y002621D01*
X006787Y002671D01*
X006785Y002721D01*
X039285Y002721D02*
X039287Y002771D01*
X039293Y002821D01*
X039303Y002870D01*
X039317Y002918D01*
X039334Y002965D01*
X039355Y003010D01*
X039380Y003054D01*
X039408Y003095D01*
X039440Y003134D01*
X039474Y003171D01*
X039511Y003205D01*
X039551Y003235D01*
X039593Y003262D01*
X039637Y003286D01*
X039683Y003307D01*
X039730Y003323D01*
X039778Y003336D01*
X039828Y003345D01*
X039877Y003350D01*
X039928Y003351D01*
X039978Y003348D01*
X040027Y003341D01*
X040076Y003330D01*
X040124Y003315D01*
X040170Y003297D01*
X040215Y003275D01*
X040258Y003249D01*
X040299Y003220D01*
X040338Y003188D01*
X040374Y003153D01*
X040406Y003115D01*
X040436Y003075D01*
X040463Y003032D01*
X040486Y002988D01*
X040505Y002942D01*
X040521Y002894D01*
X040533Y002845D01*
X040541Y002796D01*
X040545Y002746D01*
X040545Y002696D01*
X040541Y002646D01*
X040533Y002597D01*
X040521Y002548D01*
X040505Y002500D01*
X040486Y002454D01*
X040463Y002410D01*
X040436Y002367D01*
X040406Y002327D01*
X040374Y002289D01*
X040338Y002254D01*
X040299Y002222D01*
X040258Y002193D01*
X040215Y002167D01*
X040170Y002145D01*
X040124Y002127D01*
X040076Y002112D01*
X040027Y002101D01*
X039978Y002094D01*
X039928Y002091D01*
X039877Y002092D01*
X039828Y002097D01*
X039778Y002106D01*
X039730Y002119D01*
X039683Y002135D01*
X039637Y002156D01*
X039593Y002180D01*
X039551Y002207D01*
X039511Y002237D01*
X039474Y002271D01*
X039440Y002308D01*
X039408Y002347D01*
X039380Y002388D01*
X039355Y002432D01*
X039334Y002477D01*
X039317Y002524D01*
X039303Y002572D01*
X039293Y002621D01*
X039287Y002671D01*
X039285Y002721D01*
D12*
X037915Y002721D03*
X036915Y002721D03*
X035915Y002721D03*
X034915Y002721D03*
X033915Y002721D03*
X032915Y002721D03*
X031915Y002721D03*
X030915Y002721D03*
X028915Y002721D03*
X027915Y002721D03*
X026915Y002721D03*
X025915Y002721D03*
X024915Y002721D03*
X023915Y002721D03*
X022915Y002721D03*
X021915Y002721D03*
X019915Y002721D03*
X018915Y002721D03*
X017915Y002721D03*
X016915Y002721D03*
X015915Y002721D03*
X014915Y002721D03*
X015315Y021721D03*
X016315Y021721D03*
X017315Y021721D03*
X018315Y021721D03*
X019915Y021721D03*
X020915Y021721D03*
X021915Y021721D03*
X022915Y021721D03*
X023915Y021721D03*
X024915Y021721D03*
X025915Y021721D03*
X026915Y021721D03*
X028915Y021721D03*
X029915Y021721D03*
X030915Y021721D03*
X031915Y021721D03*
X032915Y021721D03*
X033915Y021721D03*
X034915Y021721D03*
X035915Y021721D03*
X038915Y021721D03*
X039915Y021721D03*
X039915Y020721D03*
X038915Y020721D03*
X038915Y019721D03*
X039915Y019721D03*
X039915Y018721D03*
X038915Y018721D03*
X038915Y017721D03*
X039915Y017721D03*
X039915Y016721D03*
X038915Y016721D03*
X038915Y015721D03*
X039915Y015721D03*
X039915Y014721D03*
X038915Y014721D03*
X038915Y013721D03*
X039915Y013721D03*
X039915Y012721D03*
X038915Y012721D03*
X038915Y011721D03*
X039915Y011721D03*
X039915Y010721D03*
X038915Y010721D03*
X038915Y009721D03*
X039915Y009721D03*
X039915Y008721D03*
X038915Y008721D03*
X038915Y007721D03*
X039915Y007721D03*
X039915Y006721D03*
X038915Y006721D03*
X038915Y005721D03*
X039915Y005721D03*
X039915Y004721D03*
X038915Y004721D03*
X014315Y021721D03*
X013315Y021721D03*
X012315Y021721D03*
X011315Y021721D03*
D13*
X004365Y018755D03*
X004365Y017755D03*
X004365Y016755D03*
X004365Y015755D03*
X004315Y012358D03*
X004315Y011358D03*
X004315Y010358D03*
X004315Y009358D03*
X035415Y009739D03*
X035415Y008739D03*
X036415Y013739D03*
X037415Y013739D03*
X037415Y014739D03*
X036415Y014739D03*
X036415Y015739D03*
X037415Y015739D03*
X037415Y016739D03*
X036415Y016739D03*
D14*
X017443Y015386D03*
X016443Y015386D03*
X015443Y015386D03*
X014443Y015386D03*
X013443Y015386D03*
X012443Y015386D03*
X011443Y015386D03*
X010443Y015386D03*
X010462Y014067D03*
X011462Y014067D03*
X012462Y014067D03*
X013462Y014067D03*
X014462Y014067D03*
X015462Y014067D03*
X016462Y014067D03*
X017462Y014067D03*
X017462Y009067D03*
X016462Y009067D03*
X015462Y009067D03*
X014462Y009067D03*
X013462Y009067D03*
X012462Y009067D03*
X011462Y009067D03*
X010462Y009067D03*
X010443Y020386D03*
X011443Y020386D03*
X012443Y020386D03*
X013443Y020386D03*
X014443Y020386D03*
X015443Y020386D03*
X016443Y020386D03*
X017443Y020386D03*
D15*
X010234Y023237D03*
X009446Y023237D03*
X008659Y023237D03*
X007872Y023237D03*
X007084Y023237D03*
X006297Y023237D03*
X005509Y023237D03*
X004722Y023237D03*
X003935Y023237D03*
X003147Y023237D03*
X003147Y031898D03*
X003935Y031898D03*
X004722Y031898D03*
X005509Y031898D03*
X006297Y031898D03*
X007084Y031898D03*
X007872Y031898D03*
X008659Y031898D03*
X009446Y031898D03*
X010234Y031898D03*
X016381Y029186D03*
X017381Y029186D03*
X017381Y028186D03*
X017381Y027186D03*
X016381Y027186D03*
X016381Y028186D03*
D16*
X006269Y004366D03*
X003946Y004366D03*
X005088Y002516D03*
D17*
X005886Y006699D02*
X005886Y007259D01*
X006886Y007259D02*
X006886Y006699D01*
X011605Y002049D02*
X011965Y001689D01*
X016883Y001689D01*
X017915Y002721D01*
D18*
X021302Y025247D03*
X022302Y025247D03*
X023302Y025247D03*
X024302Y025247D03*
X025302Y025247D03*
X026302Y025247D03*
X027302Y025247D03*
X028302Y025247D03*
X029302Y025247D03*
X030302Y025247D03*
X031302Y025247D03*
X032302Y025247D03*
X033302Y025247D03*
X034302Y025247D03*
X035302Y025247D03*
X036302Y025247D03*
X037302Y025247D03*
X038302Y025247D03*
X039302Y025247D03*
X040302Y025247D03*
X040302Y026247D03*
X039302Y026247D03*
X038302Y026247D03*
X037302Y026247D03*
X036302Y026247D03*
X035302Y026247D03*
X034302Y026247D03*
X033302Y026247D03*
X032302Y026247D03*
X031302Y026247D03*
X030302Y026247D03*
X029302Y026247D03*
X028302Y026247D03*
X027302Y026247D03*
X026302Y026247D03*
X025302Y026247D03*
X024302Y026247D03*
X023302Y026247D03*
X022302Y026247D03*
X021302Y026247D03*
X030915Y028689D03*
X031915Y028689D03*
X032915Y028689D03*
X032915Y029689D03*
X031915Y029689D03*
X030915Y029689D03*
D19*
X003515Y015205D03*
X003515Y008811D03*
D20*
X003515Y010189D03*
X003515Y011567D03*
X003515Y012945D03*
X003515Y016583D03*
X003515Y017961D03*
X003515Y019339D03*
D21*
X003484Y006898D03*
X003484Y005520D03*
D22*
X008985Y003829D03*
X008985Y002049D03*
X011545Y002049D03*
X011545Y003829D03*
D23*
X013781Y030509D03*
X014765Y030509D03*
X015749Y030509D03*
X015749Y031809D03*
X014765Y031809D03*
X013781Y031809D03*
D24*
X013315Y022739D03*
X012315Y022739D03*
X011315Y022739D03*
X014315Y022739D03*
X015315Y022739D03*
X016315Y022739D03*
X017315Y022739D03*
X018315Y022739D03*
X019915Y022739D03*
X020915Y022739D03*
X021915Y022739D03*
X022915Y022739D03*
X023915Y022739D03*
X024915Y022739D03*
X025915Y022739D03*
X026915Y022739D03*
X028915Y022739D03*
X029915Y022739D03*
X030915Y022739D03*
X031915Y022739D03*
X032915Y022739D03*
X033915Y022739D03*
X034915Y022739D03*
X035915Y022739D03*
X035915Y003739D03*
X036915Y003739D03*
X037915Y003739D03*
X034915Y003739D03*
X033915Y003739D03*
X032915Y003739D03*
X031915Y003739D03*
X030915Y003739D03*
X028915Y003739D03*
X027915Y003739D03*
X026915Y003739D03*
X025915Y003739D03*
X024915Y003739D03*
X023915Y003739D03*
X022915Y003739D03*
X021915Y003739D03*
X019915Y003689D03*
X018915Y003689D03*
X017915Y003689D03*
X016915Y003689D03*
X015915Y003689D03*
X014915Y003689D03*
D25*
X036415Y008739D03*
X037415Y008739D03*
X037415Y009739D03*
X036415Y009739D03*
X036415Y010739D03*
X037415Y010739D03*
D26*
X029915Y002689D02*
X029915Y002039D01*
X029665Y001789D01*
X019065Y001789D01*
X018915Y001939D01*
X018915Y002721D01*
X018915Y003689D01*
X017915Y003689D02*
X017915Y002721D01*
X015915Y002721D02*
X015915Y003689D01*
X014915Y003689D02*
X014915Y002721D01*
X011605Y002049D02*
X011545Y002049D01*
X008985Y002049D01*
X003515Y008811D02*
X004062Y009358D01*
X004315Y009358D01*
X006584Y009358D01*
X007415Y010189D01*
X010665Y010189D01*
X013465Y011189D02*
X006715Y011189D01*
X005884Y010358D01*
X004315Y010358D01*
X003684Y010358D01*
X003515Y010189D01*
X003724Y011358D02*
X003515Y011567D01*
X003724Y011358D02*
X004315Y011358D01*
X005084Y011358D01*
X005915Y012189D01*
X014465Y012189D01*
X015465Y013289D02*
X005246Y013289D01*
X004315Y012358D01*
X004102Y012358D01*
X003515Y012945D01*
X003515Y015205D02*
X004065Y015755D01*
X004365Y015755D01*
X006331Y015755D01*
X006815Y016239D01*
X010415Y016239D01*
X013415Y017239D02*
X006165Y017239D01*
X005681Y016755D01*
X004365Y016755D01*
X003687Y016755D01*
X003515Y016583D01*
X003721Y017755D02*
X003515Y017961D01*
X003721Y017755D02*
X004365Y017755D01*
X005131Y017755D01*
X005665Y018289D01*
X014465Y018289D01*
X015415Y019439D02*
X005049Y019439D01*
X004365Y018755D01*
X004099Y018755D01*
X003515Y019339D01*
D27*
X010443Y015386D02*
X010443Y015362D01*
X011215Y014589D01*
X020465Y014589D01*
X021915Y016039D01*
X021915Y017289D01*
X023915Y019289D01*
X023915Y021721D01*
X021915Y021721D02*
X021915Y022739D01*
X020915Y022739D02*
X020915Y021721D01*
X019915Y021721D02*
X019915Y022739D01*
X019915Y021721D02*
X019915Y019039D01*
X020265Y018689D01*
X021415Y018639D02*
X018915Y016189D01*
X016915Y016189D01*
X016443Y015717D01*
X016443Y015386D01*
X017443Y015386D02*
X019112Y015386D01*
X021915Y018189D01*
X021915Y021721D01*
X019165Y019739D02*
X019165Y017189D01*
X019165Y019739D02*
X018315Y020589D01*
X018315Y021721D01*
X018315Y022739D01*
X017315Y022739D02*
X017315Y021721D01*
X016315Y021721D02*
X016315Y022739D01*
X016058Y030509D02*
X015749Y030509D01*
X015749Y031809D01*
X031915Y022739D02*
X031915Y022189D01*
X031915Y021721D01*
X027865Y016939D02*
X027865Y006339D01*
X029915Y004489D01*
X029915Y004189D01*
X029915Y002689D01*
X020915Y008189D02*
X020565Y007839D01*
X016565Y007839D01*
X016015Y008389D01*
X010915Y008389D01*
X010462Y008842D01*
X010462Y009067D01*
X011462Y009067D02*
X011462Y009137D01*
X012815Y010489D01*
X013715Y010489D01*
X014765Y011539D01*
X015015Y011039D02*
X016509Y011039D01*
X017059Y010589D02*
X015215Y010589D01*
X013693Y009067D01*
X013462Y009067D01*
X012462Y009067D02*
X012462Y009387D01*
X013065Y009989D01*
X013965Y009989D01*
X015015Y011039D01*
X016462Y009067D02*
X017190Y008339D01*
X017615Y008339D01*
X020515Y011239D01*
X020715Y011239D01*
X019165Y010770D02*
X017462Y009067D01*
X019165Y010770D02*
X019165Y013839D01*
X012215Y005939D02*
X013065Y005089D01*
X014165Y005089D01*
X014165Y004439D01*
X014165Y005089D02*
X015515Y005089D01*
X016915Y003689D01*
X014915Y002721D02*
X012653Y002721D01*
X011545Y003829D01*
X008985Y003829D01*
X040302Y026247D02*
X040815Y026660D01*
X040815Y031389D01*
D28*
X040815Y031389D03*
X038315Y029889D03*
X037915Y029389D03*
X036515Y030389D03*
X035815Y029489D03*
X037815Y027289D03*
X039215Y027489D03*
X032815Y027289D03*
X030815Y024389D03*
X029915Y023689D03*
X026215Y020789D03*
X025815Y019389D03*
X026915Y017389D03*
X027865Y016939D03*
X026915Y014489D03*
X028915Y014489D03*
X028915Y013789D03*
X031515Y011989D03*
X031215Y011489D03*
X028415Y011189D03*
X027315Y011189D03*
X025915Y011189D03*
X020715Y011239D03*
X018415Y010889D03*
X016915Y011589D03*
X014765Y011539D03*
X014465Y012189D03*
X013465Y011189D03*
X015465Y013289D03*
X019165Y013839D03*
X019165Y017189D03*
X018415Y017939D03*
X017015Y017789D03*
X015415Y019439D03*
X014465Y018289D03*
X014615Y017189D03*
X013415Y017239D03*
X010415Y016239D03*
X010665Y010189D03*
X009215Y008389D03*
X012215Y005939D03*
X014165Y004439D03*
X020915Y008189D03*
X029915Y004189D03*
X029915Y002689D03*
X023315Y017889D03*
X023315Y019389D03*
X021415Y018639D03*
X020265Y018689D03*
X019015Y023489D03*
X018415Y023889D03*
X016815Y023489D03*
X016215Y023889D03*
X015015Y027289D03*
X014715Y027789D03*
X013328Y027689D03*
X011615Y026689D03*
X007115Y026439D03*
X005865Y027589D03*
X003315Y026039D03*
X004915Y025189D03*
X005915Y022139D03*
X003915Y030189D03*
X007465Y030889D03*
X023915Y028889D03*
X024715Y028089D03*
X024915Y029889D03*
X028815Y027589D03*
X037715Y020989D03*
X034815Y019889D03*
X004515Y008039D03*
D29*
X007765Y008039D01*
X008215Y008389D01*
X009215Y008389D01*
X007115Y006989D02*
X006896Y006989D01*
X006886Y006979D01*
X017915Y002721D02*
X018915Y002721D01*
X025915Y011189D02*
X027315Y011189D01*
X028415Y011189D02*
X030415Y011189D01*
X031015Y010589D01*
X034815Y010589D01*
X034815Y019889D01*
X037715Y020989D02*
X037715Y021289D01*
X038115Y021689D01*
X038883Y021689D01*
X038915Y021721D02*
X039383Y021721D01*
X039415Y021689D02*
X039883Y021689D01*
X039915Y021721D01*
D30*
X039415Y021689D02*
X039383Y021721D01*
D31*
X019915Y004189D02*
X019915Y002721D01*
X019915Y004189D02*
X017125Y006979D01*
X007125Y006979D01*
X007115Y006989D01*
M02*
