%
M48
M72
T01C0.0236
T02C0.0276
T03C0.0315
T04C0.0354
T05C0.0360
T06C0.0394
T07C0.0400
T08C0.0472
T09C0.1181
T10C0.1260
%
T01
X34765Y7185
X34365Y8185
X33915Y9185
X33165Y9685
X32565Y10235
X31365Y8685
X30915Y11485
X27465Y17135
X27915Y17585
X28365Y18035
X25415Y22585
X25415Y24235
X26765Y27185
X26215Y27735
X24665Y29185
X24165Y27935
X22415Y28735
X20915Y30185
X21115Y26835
X21815Y26485
X20165Y26135
X18865Y25885
X17865Y25835
X16865Y25685
X16865Y26135
X16315Y25885
X14665Y26685
X14215Y26285
X14665Y27985
X14215Y28385
X15015Y29285
X12915Y30685
X11615Y28685
X7115Y28435
X5865Y29585
X3315Y28035
X4915Y27185
X5915Y24135
X10415Y18235
X13415Y19235
X14465Y20285
X15415Y21435
X19165Y19185
X20265Y20685
X21415Y20635
X19165Y15835
X20715Y13235
X20915Y10185
X20915Y7185
X14165Y6435
X12215Y7935
X9215Y10385
X10665Y12185
X13465Y13185
X14465Y14185
X15465Y15285
X4515Y10035
X26165Y30585
X30165Y31185
X32615Y30635
X33615Y31185
X34115Y31535
X34765Y31185
X36665Y28985
X40515Y26635
X38915Y25185
X40465Y22535
X40865Y21835
X35365Y21185
X31665Y26935
X31215Y27385
X37915Y34135
X7465Y32885
X3915Y32185
X29915Y4685
T02
X15749Y32505
X14765Y32505
X13781Y32505
X13781Y33804
X14765Y33804
X15749Y33804
T03
X10234Y33894
X9446Y33894
X8659Y33894
X7872Y33894
X7084Y33894
X6297Y33894
X5509Y33894
X4722Y33894
X3935Y33894
X3147Y33894
X3147Y25232
X3935Y25232
X4722Y25232
X5509Y25232
X6297Y25232
X7084Y25232
X7872Y25232
X8659Y25232
X9446Y25232
X10234Y25232
T04
X30415Y12685
X30415Y13685
X29415Y13685
X28415Y13685
X27415Y13685
X27415Y12685
X28415Y12685
X29415Y12685
X17462Y11063
X16462Y11063
X15462Y11063
X14462Y11063
X13462Y11063
X12462Y11063
X11462Y11063
X10462Y11063
X10462Y16063
X11462Y16063
X12462Y16063
X13462Y16063
X14462Y16063
X15462Y16063
X16462Y16063
X17462Y16063
X17443Y17382
X16443Y17382
X15443Y17382
X14443Y17382
X13443Y17382
X12443Y17382
X11443Y17382
X10443Y17382
X10443Y22382
X11443Y22382
X12443Y22382
X13443Y22382
X14443Y22382
X15443Y22382
X16443Y22382
X17443Y22382
T05
X6886Y8975
X5886Y8975
T06
X37915Y4716
X36915Y4716
X35915Y4716
X34915Y4716
X33915Y4716
X32915Y4716
X31915Y4716
X30915Y4716
X28915Y4716
X27915Y4716
X26915Y4716
X25915Y4716
X24915Y4716
X23915Y4716
X22915Y4716
X21915Y4716
X19915Y4716
X18915Y4716
X17915Y4716
X16915Y4716
X15915Y4716
X14915Y4716
X3484Y7515
X3484Y8893
X11315Y23716
X12315Y23716
X13315Y23716
X14315Y23716
X15315Y23716
X16315Y23716
X17315Y23716
X18315Y23716
X19915Y23716
X20915Y23716
X21915Y23716
X22915Y23716
X23915Y23716
X24915Y23716
X25915Y23716
X26915Y23716
X28915Y23716
X29915Y23716
X30915Y23716
X31915Y23716
X32915Y23716
X33915Y23716
X34915Y23716
X35915Y23716
X38915Y23716
X39915Y23716
X39915Y22716
X38915Y22716
X38915Y21716
X39915Y21716
X39915Y20716
X38915Y20716
X38915Y19716
X39915Y19716
X39915Y18716
X39915Y17716
X38915Y17716
X38915Y18716
X38915Y16716
X39915Y16716
X39915Y15716
X38915Y15716
X38915Y14716
X39915Y14716
X39915Y13716
X38915Y13716
X38915Y12716
X38915Y11716
X39915Y11716
X39915Y12716
X39915Y10716
X38915Y10716
X38915Y9716
X39915Y9716
X39915Y8716
X38915Y8716
X38915Y7716
X39915Y7716
X39915Y6716
X38915Y6716
T07
X37915Y5735
X36915Y5735
X35915Y5735
X34915Y5735
X33915Y5735
X32915Y5735
X31915Y5735
X30915Y5735
X28915Y5735
X27915Y5735
X26915Y5735
X25915Y5735
X24915Y5735
X23915Y5735
X22915Y5735
X21915Y5735
X19915Y5685
X18915Y5685
X17915Y5685
X16915Y5685
X15915Y5685
X14915Y5685
X11545Y5825
X11545Y4045
X8985Y4045
X8985Y5825
X4315Y11354
X4315Y12354
X4315Y13354
X4315Y14354
X4365Y17751
X4365Y18751
X4365Y19751
X4365Y20751
X11315Y24735
X12315Y24735
X13315Y24735
X14315Y24735
X15315Y24735
X16315Y24735
X17315Y24735
X18315Y24735
X19915Y24735
X20915Y24735
X21915Y24735
X22915Y24735
X23915Y24735
X24915Y24735
X25915Y24735
X26915Y24735
X28915Y24735
X29915Y24735
X30915Y24735
X31915Y24735
X32915Y24735
X33915Y24735
X34915Y24735
X35915Y24735
X33915Y19685
X33915Y18685
X33915Y17685
X33915Y16685
X36415Y16735
X37415Y16735
X37415Y17735
X37415Y18735
X36415Y18735
X36415Y17735
X36415Y15735
X37415Y15735
X37415Y12735
X36415Y12735
X36415Y11735
X37415Y11735
X37415Y10735
X36415Y10735
X35415Y10735
X18431Y13957
X17431Y13957
X16431Y13957
X16431Y14957
X17431Y14957
X18431Y14957
X18411Y20275
X17411Y20275
X16411Y20275
X16411Y21275
X17411Y21275
X18411Y21275
X18365Y26585
X18365Y27585
X19365Y27585
X19365Y26585
X17365Y26585
X17365Y27585
X17365Y28585
X18365Y28585
X19365Y28585
X16365Y28585
X16365Y27585
X16365Y26585
X17381Y31182
X17381Y32182
X18381Y32182
X18381Y31182
X18381Y33182
X17381Y33182
X20915Y33185
X20915Y32185
X21915Y32185
X21915Y33185
X22915Y33185
X23915Y33185
X23915Y32185
X22915Y32185
X24915Y32185
X24915Y33185
X25915Y33185
X26915Y33185
X26915Y32185
X25915Y32185
X27915Y32185
X27915Y33185
X28915Y33185
X28915Y32185
X29915Y32185
X29915Y33185
X30915Y33185
X31915Y33185
X31915Y32185
X30915Y32185
X32915Y32185
X32915Y33185
X33915Y33185
X34915Y33185
X34915Y32185
X33915Y32185
X35915Y32185
X35915Y33185
X36915Y33185
X36915Y32185
X37915Y32185
X37915Y33185
X38915Y33185
X39915Y33185
X39915Y32185
X38915Y32185
T08
X3515Y10807
X3515Y12185
X3515Y13563
X3515Y14941
X3515Y17201
X3515Y18579
X3515Y19957
X3515Y21334
T09
X5088Y4512
X3946Y6362
X6269Y6362
T10
X39915Y4716
X39915Y30185
X11915Y33185
X7915Y23716
X7415Y4716
M30
