%
M48
M72
T01C0.0120
T02C0.0236
T03C0.0354
T04C0.0360
T05C0.0394
T06C0.0400
T07C0.0472
T08C0.0500
T09C0.1181
T10C0.1260
%
T01
X34160Y10859
X33160Y12109
X35410Y12609
X35910Y14609
X35410Y15609
X36660Y16859
X37660Y17859
X38410Y16859
X39160Y17359
X38910Y18109
X38910Y19359
X38910Y19859
X37660Y19359
X41660Y19609
X37160Y24109
X34160Y24109
X34160Y23609
X33160Y23859
X31660Y24109
X31660Y23109
X29910Y22859
X29910Y23609
X28410Y25109
X26910Y27109
X23160Y24109
X23160Y23109
X24660Y22609
X23660Y21609
X22660Y20859
X22660Y19859
X20660Y20359
X21660Y23109
X25160Y20359
X25160Y19859
X26160Y19859
X25160Y18859
X24660Y17859
X23660Y17359
X23660Y15859
X24160Y15359
X24660Y13609
X22910Y13609
X22910Y13109
X19160Y15109
X19160Y16109
X18660Y16359
X19660Y17359
X17910Y15109
X18160Y12609
X18160Y8859
X17660Y7609
X18910Y6609
X21410Y4859
X21410Y4359
X19910Y3609
X17660Y3609
X16910Y3359
X15660Y3609
X15910Y4609
X15910Y5109
X14410Y6859
X14160Y1859
X6910Y6859
X6160Y7109
X5660Y7109
X3910Y14109
X7660Y14359
X6660Y19859
X5660Y20109
X5160Y21609
X4660Y25859
X6910Y27359
X7160Y29109
X7910Y30609
X5660Y31359
X10160Y27359
X10160Y26609
X16160Y28109
X17160Y28109
X17160Y27359
X16160Y29109
X21410Y30859
X21660Y30359
X22910Y29859
X23910Y30859
X32910Y30109
X26660Y21609
X32660Y17859
X33160Y17109
X33660Y17859
X31660Y15859
X31660Y15359
X30410Y16609
X30660Y16859
X30160Y13609
X27160Y11109
X16410Y17609
X11410Y21109
X41410Y14359
T02
X39160Y19059
X39160Y22359
X39660Y22909
X39210Y24609
X39660Y25109
X37160Y24609
X36610Y25109
X25160Y17409
X22160Y16359
X21510Y17859
X20410Y16359
X17310Y17559
X15860Y16909
X15010Y16109
X10960Y19509
X10610Y22409
X8460Y23109
X17860Y27059
X19460Y24909
X20410Y13009
X21960Y10409
X22560Y9759
X17260Y8909
X15610Y10709
X14810Y9909
X17260Y11259
X13110Y7209
X9460Y8459
T03
X18707Y8237
X17707Y8237
X16707Y8237
X15707Y8237
X14707Y8237
X13707Y8237
X12707Y8237
X11707Y8237
X11707Y13237
X12707Y13237
X13707Y13237
X14707Y13237
X15707Y13237
X16707Y13237
X17707Y13237
X18707Y13237
X18688Y14556
X17688Y14556
X16688Y14556
X15688Y14556
X14688Y14556
X13688Y14556
X12688Y14556
X11688Y14556
X11688Y19556
X12688Y19556
X13688Y19556
X14688Y19556
X15688Y19556
X16688Y19556
X17688Y19556
X18688Y19556
X18660Y23859
X17660Y23859
X16660Y23859
X15660Y23859
X14660Y23859
X13660Y23859
X12660Y23859
X11660Y23859
X11660Y28859
X12660Y28859
X13660Y28859
X14660Y28859
X15660Y28859
X16660Y28859
X17660Y28859
X18660Y28859
T04
X9681Y6149
X8681Y6149
T05
X39160Y1891
X38160Y1891
X37160Y1891
X36160Y1891
X35160Y1891
X34160Y1891
X33160Y1891
X32160Y1891
X30160Y1891
X29160Y1891
X28160Y1891
X27160Y1891
X26160Y1891
X25160Y1891
X24160Y1891
X23160Y1891
X21160Y1891
X20160Y1891
X19160Y1891
X18160Y1891
X17160Y1891
X16160Y1891
X4729Y4690
X4729Y6067
X12560Y20891
X13560Y20891
X14560Y20891
X15560Y20891
X16560Y20891
X17560Y20891
X18560Y20891
X19560Y20891
X21160Y20891
X22160Y20891
X23160Y20891
X24160Y20891
X25160Y20891
X26160Y20891
X27160Y20891
X28160Y20891
X30160Y20891
X31160Y20891
X32160Y20891
X33160Y20891
X34160Y20891
X35160Y20891
X36160Y20891
X37160Y20891
X40160Y20891
X41160Y20891
X41160Y19891
X40160Y19891
X40160Y18891
X41160Y18891
X41160Y17891
X40160Y17891
X40160Y16891
X41160Y16891
X41160Y15891
X40160Y15891
X40160Y14891
X41160Y14891
X41160Y13891
X40160Y13891
X40160Y12891
X41160Y12891
X41160Y11891
X40160Y11891
X40160Y10891
X41160Y10891
X41160Y9891
X40160Y9891
X40160Y8891
X41160Y8891
X41160Y7891
X40160Y7891
X40160Y6891
X41160Y6891
X41160Y5891
X40160Y5891
X40160Y4891
X41160Y4891
X41160Y3891
X40160Y3891
T06
X39160Y2909
X38160Y2909
X37160Y2909
X36160Y2909
X35160Y2909
X34160Y2909
X33160Y2909
X32160Y2909
X30160Y2909
X29160Y2909
X28160Y2909
X27160Y2909
X26160Y2909
X25160Y2909
X24160Y2909
X23160Y2909
X21160Y2859
X20160Y2859
X19160Y2859
X18160Y2859
X17160Y2859
X16160Y2859
X12790Y2999
X10230Y2999
X10230Y1219
X12790Y1219
X6960Y8528
X6960Y9528
X6960Y10528
X6960Y11528
X6960Y14925
X6960Y15925
X6960Y16925
X6960Y17925
X6960Y21409
X6960Y22409
X6960Y23409
X6960Y24409
X6126Y27406
X5126Y27406
X5126Y28406
X6126Y28406
X6126Y29406
X5126Y29406
X8110Y29409
X9110Y29409
X9110Y28409
X8110Y28409
X8110Y27409
X9110Y27409
X12560Y21909
X13560Y21909
X14560Y21909
X15560Y21909
X16560Y21909
X17560Y21909
X18560Y21909
X19560Y21909
X21160Y21909
X22160Y21909
X23160Y21909
X24160Y21909
X25160Y21909
X26160Y21909
X27160Y21909
X28160Y21909
X30160Y21909
X31160Y21909
X32160Y21909
X33160Y21909
X34160Y21909
X35160Y21909
X36160Y21909
X37160Y21909
X37617Y27973
X36617Y27973
X35617Y27973
X34617Y27973
X33617Y27973
X32617Y27973
X31617Y27973
X30617Y27973
X29617Y27973
X28617Y27973
X27617Y27973
X26617Y27973
X25617Y27973
X24617Y27973
X23617Y27973
X22617Y27973
X21617Y27973
X21617Y28973
X22617Y28973
X23617Y28973
X24617Y28973
X25617Y28973
X26617Y28973
X27617Y28973
X28617Y28973
X29617Y28973
X30617Y28973
X31617Y28973
X32617Y28973
X33617Y28973
X34617Y28973
X35617Y28973
X36617Y28973
X37617Y28973
X38617Y28973
X39617Y28973
X40617Y28973
X40617Y27973
X39617Y27973
X38617Y27973
X38660Y15909
X38660Y14909
X38660Y13909
X38660Y12909
X37660Y12909
X37660Y13909
X37660Y14909
X37660Y15909
X37660Y9909
X37660Y8909
X36660Y8909
X36660Y7909
X37660Y7909
X38660Y7909
X38660Y8909
X38660Y9909
T07
X4760Y7981
X4760Y9359
X4760Y10737
X4760Y12115
X4760Y14375
X4760Y15753
X4760Y17131
X4760Y18509
X4760Y20909
X4760Y22287
X4760Y23665
X4760Y25043
T08
X11510Y3359
T09
X5191Y3536
X6333Y1686
X7514Y3536
T10
X41160Y1891
X9160Y20891
X8660Y1891
M30
