%
M48
M72
T01C0.0236
T02C0.0276
T03C0.0315
T04C0.0354
T05C0.0360
T06C0.0394
T07C0.0400
T08C0.0472
T09C0.1181
T10C0.1260
%
T01
X34765Y4373
X34365Y5373
X33915Y6373
X33165Y6873
X32565Y7423
X31365Y5873
X30915Y8673
X27465Y14323
X27915Y14773
X28365Y15223
X25415Y19773
X25415Y21423
X26765Y24373
X26215Y24923
X24165Y25123
X24665Y26373
X26165Y27773
X30165Y28373
X32615Y27823
X33615Y28373
X34115Y28723
X34765Y28373
X36665Y26173
X40515Y23823
X38915Y22373
X40465Y19723
X40865Y19023
X35365Y18373
X31665Y24123
X31215Y24573
X22415Y25923
X20915Y27373
X21115Y24023
X21815Y23673
X20165Y23323
X18865Y23073
X17865Y23023
X16865Y22873
X16865Y23323
X16315Y23073
X14665Y23873
X14215Y23473
X14665Y25173
X14215Y25573
X15015Y26473
X12915Y27873
X11615Y25873
X7115Y25623
X5865Y26773
X3315Y25223
X4915Y24373
X5915Y21323
X13415Y16423
X14465Y17473
X15415Y18623
X19165Y16373
X20265Y17873
X21415Y17823
X19165Y13023
X20715Y10423
X20915Y7373
X20915Y4373
X14165Y3623
X12215Y5123
X9215Y7573
X10665Y9373
X13465Y10373
X14465Y11373
X15465Y12473
X10415Y15423
X4515Y7223
X29915Y1873
X3915Y29373
X7465Y30073
X37915Y31323
T02
X15749Y30992
X14765Y30992
X13781Y30992
X13781Y29693
X14765Y29693
X15749Y29693
T03
X10234Y22420
X9446Y22420
X8659Y22420
X7872Y22420
X7084Y22420
X6297Y22420
X5509Y22420
X4722Y22420
X3935Y22420
X3147Y22420
X3147Y31082
X3935Y31082
X4722Y31082
X5509Y31082
X6297Y31082
X7084Y31082
X7872Y31082
X8659Y31082
X9446Y31082
X10234Y31082
T04
X10443Y19570
X11443Y19570
X12443Y19570
X13443Y19570
X14443Y19570
X15443Y19570
X16443Y19570
X17443Y19570
X17443Y14570
X16443Y14570
X15443Y14570
X14443Y14570
X13443Y14570
X12443Y14570
X11443Y14570
X10443Y14570
X10462Y13251
X11462Y13251
X12462Y13251
X13462Y13251
X14462Y13251
X15462Y13251
X16462Y13251
X17462Y13251
X17462Y8251
X16462Y8251
X15462Y8251
X14462Y8251
X13462Y8251
X12462Y8251
X11462Y8251
X10462Y8251
X27415Y9873
X28415Y9873
X29415Y9873
X29415Y10873
X28415Y10873
X27415Y10873
X30415Y10873
X30415Y9873
T05
X6886Y6163
X5886Y6163
T06
X3484Y6081
X3484Y4703
X14915Y1904
X15915Y1904
X16915Y1904
X17915Y1904
X18915Y1904
X19915Y1904
X21915Y1904
X22915Y1904
X23915Y1904
X24915Y1904
X25915Y1904
X26915Y1904
X27915Y1904
X28915Y1904
X30915Y1904
X31915Y1904
X32915Y1904
X33915Y1904
X34915Y1904
X35915Y1904
X36915Y1904
X37915Y1904
X38915Y3904
X39915Y3904
X39915Y4904
X38915Y4904
X38915Y5904
X39915Y5904
X39915Y6904
X38915Y6904
X38915Y7904
X39915Y7904
X39915Y8904
X38915Y8904
X38915Y9904
X39915Y9904
X39915Y10904
X38915Y10904
X38915Y11904
X39915Y11904
X39915Y12904
X38915Y12904
X38915Y13904
X39915Y13904
X39915Y14904
X38915Y14904
X38915Y15904
X39915Y15904
X39915Y16904
X38915Y16904
X38915Y17904
X39915Y17904
X39915Y18904
X38915Y18904
X38915Y19904
X39915Y19904
X39915Y20904
X38915Y20904
X35915Y20904
X34915Y20904
X33915Y20904
X32915Y20904
X31915Y20904
X30915Y20904
X29915Y20904
X28915Y20904
X26915Y20904
X25915Y20904
X24915Y20904
X23915Y20904
X22915Y20904
X21915Y20904
X20915Y20904
X19915Y20904
X18315Y20904
X17315Y20904
X16315Y20904
X15315Y20904
X14315Y20904
X13315Y20904
X12315Y20904
X11315Y20904
T07
X11315Y21923
X12315Y21923
X13315Y21923
X14315Y21923
X15315Y21923
X16315Y21923
X17315Y21923
X18315Y21923
X19915Y21923
X20915Y21923
X21915Y21923
X22915Y21923
X23915Y21923
X24915Y21923
X25915Y21923
X26915Y21923
X28915Y21923
X29915Y21923
X30915Y21923
X31915Y21923
X32915Y21923
X33915Y21923
X34915Y21923
X35915Y21923
X33915Y16873
X33915Y15873
X33915Y14873
X33915Y13873
X36415Y13923
X37415Y13923
X37415Y14923
X36415Y14923
X36415Y15923
X37415Y15923
X37415Y12923
X36415Y12923
X36415Y9923
X37415Y9923
X37415Y8923
X36415Y8923
X36415Y7923
X37415Y7923
X35415Y7923
X34915Y2923
X33915Y2923
X32915Y2923
X31915Y2923
X30915Y2923
X28915Y2923
X27915Y2923
X26915Y2923
X25915Y2923
X24915Y2923
X23915Y2923
X22915Y2923
X21915Y2923
X19915Y2873
X18915Y2873
X17915Y2873
X16915Y2873
X15915Y2873
X14915Y2873
X11545Y3013
X11545Y1233
X8985Y1233
X8985Y3013
X4315Y8542
X4315Y9542
X4315Y10542
X4315Y11542
X4365Y14939
X4365Y15939
X4365Y16939
X4365Y17939
X16411Y17463
X17411Y17463
X18411Y17463
X18411Y18463
X17411Y18463
X16411Y18463
X16365Y23773
X16365Y24773
X16365Y25773
X17365Y25773
X18365Y25773
X19365Y25773
X19365Y24773
X18365Y24773
X17365Y24773
X17365Y23773
X18365Y23773
X19365Y23773
X18381Y28370
X17381Y28370
X17381Y29370
X18381Y29370
X18381Y30370
X17381Y30370
X20915Y30373
X21915Y30373
X22915Y30373
X23915Y30373
X24915Y30373
X25915Y30373
X26915Y30373
X27915Y30373
X28915Y30373
X29915Y30373
X30915Y30373
X31915Y30373
X32915Y30373
X33915Y30373
X34915Y30373
X35915Y30373
X36915Y30373
X37915Y30373
X38915Y30373
X39915Y30373
X39915Y29373
X38915Y29373
X37915Y29373
X36915Y29373
X35915Y29373
X34915Y29373
X33915Y29373
X32915Y29373
X31915Y29373
X30915Y29373
X29915Y29373
X28915Y29373
X27915Y29373
X26915Y29373
X25915Y29373
X24915Y29373
X23915Y29373
X22915Y29373
X21915Y29373
X20915Y29373
X18431Y12145
X17431Y12145
X16431Y12145
X16431Y11145
X17431Y11145
X18431Y11145
X35915Y2923
X36915Y2923
X37915Y2923
T08
X3515Y7995
X3515Y9373
X3515Y10751
X3515Y12129
X3515Y14389
X3515Y15767
X3515Y17145
X3515Y18523
T09
X3946Y3550
X5088Y1700
X6269Y3550
T10
X39915Y1904
X7915Y20904
X11915Y30373
X39915Y27373
X7415Y1904
M30
