G75*
%MOIN*%
%OFA0B0*%
%FSLAX25Y25*%
%IPPOS*%
%LPD*%
%AMOC8*
5,1,8,0,0,1.08239X$1,22.5*
%
%ADD10C,0.01600*%
%ADD11C,0.00300*%
%ADD12C,0.00400*%
%ADD13C,0.00600*%
%ADD14R,0.01181X0.00591*%
%ADD15R,0.01181X0.01181*%
%ADD16C,0.00800*%
%ADD17C,0.00200*%
%ADD18C,0.00500*%
%ADD19R,0.00591X0.01181*%
%ADD20C,0.01969*%
%ADD21C,0.03619*%
%ADD22C,0.01000*%
%ADD23R,0.01181X0.08268*%
%ADD24C,0.00000*%
D10*
X0013573Y0009674D02*
X0021447Y0001800D01*
X0399400Y0001800D01*
X0407274Y0009674D01*
X0407274Y0308887D01*
X0399400Y0316761D01*
X0021447Y0316761D01*
X0013573Y0308887D01*
X0013573Y0308800D02*
X0013573Y0009800D01*
D11*
X0021927Y0006165D02*
X0022895Y0007133D01*
X0022895Y0004230D01*
X0023862Y0004230D02*
X0021927Y0004230D01*
X0024874Y0004714D02*
X0026809Y0006649D01*
X0026809Y0004714D01*
X0026325Y0004230D01*
X0025358Y0004230D01*
X0024874Y0004714D01*
X0024874Y0006649D01*
X0025358Y0007133D01*
X0026325Y0007133D01*
X0026809Y0006649D01*
X0027820Y0006649D02*
X0028304Y0007133D01*
X0029272Y0007133D01*
X0029755Y0006649D01*
X0027820Y0004714D01*
X0028304Y0004230D01*
X0029272Y0004230D01*
X0029755Y0004714D01*
X0029755Y0006649D01*
X0030767Y0006165D02*
X0032218Y0006165D01*
X0032702Y0005682D01*
X0032702Y0004230D01*
X0033713Y0004230D02*
X0033713Y0007133D01*
X0035648Y0007133D01*
X0034681Y0005682D02*
X0033713Y0005682D01*
X0030767Y0006165D02*
X0030767Y0004230D01*
X0027820Y0004714D02*
X0027820Y0006649D01*
X0024713Y0016305D02*
X0024713Y0016789D01*
X0026648Y0018724D01*
X0026648Y0019208D01*
X0024713Y0019208D01*
X0023702Y0018724D02*
X0023218Y0019208D01*
X0022251Y0019208D01*
X0021767Y0018724D01*
X0021767Y0016789D01*
X0022251Y0016305D01*
X0023218Y0016305D01*
X0023702Y0016789D01*
X0061020Y0027434D02*
X0061504Y0026950D01*
X0063439Y0026950D01*
X0063923Y0027434D01*
X0063923Y0028401D01*
X0063439Y0028885D01*
X0063923Y0029897D02*
X0063923Y0031831D01*
X0063923Y0030864D02*
X0061020Y0030864D01*
X0061988Y0029897D01*
X0061504Y0028885D02*
X0061020Y0028401D01*
X0061020Y0027434D01*
X0061504Y0032843D02*
X0061020Y0033327D01*
X0061020Y0034294D01*
X0061504Y0034778D01*
X0061988Y0034778D01*
X0063923Y0032843D01*
X0063923Y0034778D01*
X0063923Y0039450D02*
X0061988Y0041385D01*
X0061504Y0041385D01*
X0061020Y0040901D01*
X0061020Y0039934D01*
X0061504Y0039450D01*
X0063923Y0039450D02*
X0063923Y0041385D01*
X0063923Y0042397D02*
X0061988Y0044331D01*
X0061504Y0044331D01*
X0061020Y0043848D01*
X0061020Y0042880D01*
X0061504Y0042397D01*
X0063923Y0042397D02*
X0063923Y0044331D01*
X0063439Y0045343D02*
X0061504Y0047278D01*
X0063439Y0047278D01*
X0063923Y0046794D01*
X0063923Y0045827D01*
X0063439Y0045343D01*
X0061504Y0045343D01*
X0061020Y0045827D01*
X0061020Y0046794D01*
X0061504Y0047278D01*
X0061988Y0048290D02*
X0063439Y0048290D01*
X0063923Y0048773D01*
X0063923Y0050225D01*
X0061988Y0050225D01*
X0062472Y0051236D02*
X0062472Y0052204D01*
X0063923Y0051236D02*
X0061020Y0051236D01*
X0061020Y0053171D01*
X0020423Y0057950D02*
X0020423Y0059885D01*
X0020423Y0060897D02*
X0020423Y0062831D01*
X0020423Y0061864D02*
X0017520Y0061864D01*
X0018488Y0060897D01*
X0017520Y0057950D02*
X0020423Y0057950D01*
X0020423Y0066950D02*
X0020423Y0068885D01*
X0020423Y0067917D02*
X0017520Y0067917D01*
X0018488Y0066950D01*
X0018004Y0069897D02*
X0017520Y0070380D01*
X0017520Y0071348D01*
X0018004Y0071831D01*
X0019939Y0069897D01*
X0020423Y0070380D01*
X0020423Y0071348D01*
X0019939Y0071831D01*
X0018004Y0071831D01*
X0018488Y0072843D02*
X0019939Y0072843D01*
X0020423Y0073327D01*
X0020423Y0074778D01*
X0018488Y0074778D01*
X0018972Y0075790D02*
X0018972Y0077725D01*
X0020423Y0077725D02*
X0017520Y0077725D01*
X0017520Y0075790D02*
X0020423Y0075790D01*
X0019939Y0069897D02*
X0018004Y0069897D01*
X0021208Y0084101D02*
X0020240Y0085068D01*
X0023143Y0085068D01*
X0023143Y0084101D02*
X0023143Y0086036D01*
X0022659Y0087047D02*
X0020724Y0088982D01*
X0022659Y0088982D01*
X0023143Y0088499D01*
X0023143Y0087531D01*
X0022659Y0087047D01*
X0020724Y0087047D01*
X0020240Y0087531D01*
X0020240Y0088499D01*
X0020724Y0088982D01*
X0021208Y0089994D02*
X0021208Y0091445D01*
X0021691Y0091929D01*
X0023143Y0091929D01*
X0023143Y0092940D02*
X0020240Y0092940D01*
X0020240Y0094875D01*
X0021691Y0093908D02*
X0021691Y0092940D01*
X0021208Y0089994D02*
X0023143Y0089994D01*
X0022584Y0096994D02*
X0020649Y0096994D01*
X0020165Y0097478D01*
X0020165Y0098445D01*
X0020649Y0098929D01*
X0020649Y0099940D02*
X0021133Y0099940D01*
X0021616Y0100424D01*
X0021616Y0101392D01*
X0022100Y0101875D01*
X0022584Y0101875D01*
X0023068Y0101392D01*
X0023068Y0100424D01*
X0022584Y0099940D01*
X0022100Y0099940D01*
X0021616Y0100424D01*
X0021616Y0101392D02*
X0021133Y0101875D01*
X0020649Y0101875D01*
X0020165Y0101392D01*
X0020165Y0100424D01*
X0020649Y0099940D01*
X0022584Y0098929D02*
X0023068Y0098445D01*
X0023068Y0097478D01*
X0022584Y0096994D01*
X0032720Y0110110D02*
X0032720Y0111562D01*
X0033204Y0112045D01*
X0034172Y0112045D01*
X0034655Y0111562D01*
X0034655Y0110110D01*
X0035623Y0110110D02*
X0032720Y0110110D01*
X0034655Y0111078D02*
X0035623Y0112045D01*
X0035623Y0113057D02*
X0035623Y0114992D01*
X0035623Y0114024D02*
X0032720Y0114024D01*
X0033688Y0113057D01*
X0036520Y0113380D02*
X0036520Y0114348D01*
X0037004Y0114831D01*
X0038939Y0112897D01*
X0039423Y0113380D01*
X0039423Y0114348D01*
X0038939Y0114831D01*
X0037004Y0114831D01*
X0036520Y0115843D02*
X0039423Y0115843D01*
X0038455Y0115843D02*
X0037488Y0117294D01*
X0038455Y0115843D02*
X0039423Y0117294D01*
X0035623Y0117455D02*
X0035623Y0116487D01*
X0035139Y0116003D01*
X0033204Y0117938D01*
X0035139Y0117938D01*
X0035623Y0117455D01*
X0035139Y0116003D02*
X0033204Y0116003D01*
X0032720Y0116487D01*
X0032720Y0117455D01*
X0033204Y0117938D01*
X0036520Y0113380D02*
X0037004Y0112897D01*
X0038939Y0112897D01*
X0039423Y0111885D02*
X0039423Y0109950D01*
X0039423Y0110917D02*
X0036520Y0110917D01*
X0037488Y0109950D01*
X0037488Y0121245D02*
X0036520Y0122212D01*
X0039423Y0122212D01*
X0039423Y0121245D02*
X0039423Y0123180D01*
X0039423Y0124191D02*
X0036520Y0126610D01*
X0036520Y0124675D02*
X0037004Y0124675D01*
X0037004Y0124191D01*
X0036520Y0124191D01*
X0036520Y0124675D01*
X0038939Y0126126D02*
X0038939Y0126610D01*
X0039423Y0126610D01*
X0039423Y0126126D01*
X0038939Y0126126D01*
X0022123Y0127771D02*
X0019220Y0127771D01*
X0020188Y0128738D01*
X0019220Y0129706D01*
X0022123Y0129706D01*
X0022123Y0130717D02*
X0019220Y0130717D01*
X0019220Y0132169D01*
X0019704Y0132652D01*
X0020672Y0132652D01*
X0021155Y0132169D01*
X0021155Y0130717D01*
X0022123Y0133664D02*
X0020188Y0135599D01*
X0019704Y0135599D01*
X0019220Y0135115D01*
X0019220Y0134148D01*
X0019704Y0133664D01*
X0022123Y0133664D02*
X0022123Y0135599D01*
X0021639Y0136610D02*
X0022123Y0137094D01*
X0022123Y0138062D01*
X0021639Y0138545D01*
X0021155Y0138545D01*
X0020672Y0138062D01*
X0020672Y0137578D01*
X0020672Y0138062D02*
X0020188Y0138545D01*
X0019704Y0138545D01*
X0019220Y0138062D01*
X0019220Y0137094D01*
X0019704Y0136610D01*
X0019704Y0139557D02*
X0019220Y0140041D01*
X0019220Y0141008D01*
X0019704Y0141492D01*
X0021639Y0139557D01*
X0022123Y0140041D01*
X0022123Y0141008D01*
X0021639Y0141492D01*
X0019704Y0141492D01*
X0019220Y0142503D02*
X0019220Y0144438D01*
X0019704Y0144438D01*
X0021639Y0142503D01*
X0022123Y0142503D01*
X0021639Y0139557D02*
X0019704Y0139557D01*
X0035223Y0148450D02*
X0036190Y0148450D01*
X0035707Y0148450D02*
X0035707Y0151352D01*
X0036190Y0151352D02*
X0035223Y0151352D01*
X0037187Y0150869D02*
X0037187Y0148934D01*
X0037671Y0148450D01*
X0038638Y0148450D01*
X0039122Y0148934D01*
X0040134Y0148450D02*
X0042069Y0148450D01*
X0041101Y0148450D02*
X0041101Y0151352D01*
X0040134Y0150385D01*
X0039122Y0150869D02*
X0038638Y0151352D01*
X0037671Y0151352D01*
X0037187Y0150869D01*
X0046720Y0150557D02*
X0046720Y0152008D01*
X0047204Y0152492D01*
X0048172Y0152492D01*
X0048655Y0152008D01*
X0048655Y0150557D01*
X0048655Y0151524D02*
X0049623Y0152492D01*
X0049623Y0153503D02*
X0049139Y0153503D01*
X0047204Y0155438D01*
X0046720Y0155438D01*
X0046720Y0153503D01*
X0046720Y0150557D02*
X0049623Y0150557D01*
X0051704Y0151596D02*
X0052672Y0150628D01*
X0052672Y0152080D01*
X0053155Y0152563D01*
X0053639Y0152563D01*
X0054123Y0152080D01*
X0054123Y0151112D01*
X0053639Y0150628D01*
X0052672Y0150628D01*
X0051704Y0151596D02*
X0051220Y0152563D01*
X0051704Y0155048D02*
X0052188Y0155048D01*
X0052672Y0155532D01*
X0052672Y0156499D01*
X0053155Y0156983D01*
X0053639Y0156983D01*
X0054123Y0156499D01*
X0054123Y0155532D01*
X0053639Y0155048D01*
X0053155Y0155048D01*
X0052672Y0155532D01*
X0052672Y0156499D02*
X0052188Y0156983D01*
X0051704Y0156983D01*
X0051220Y0156499D01*
X0051220Y0155532D01*
X0051704Y0155048D01*
X0053639Y0154059D02*
X0054123Y0154059D01*
X0054123Y0153575D01*
X0053639Y0153575D01*
X0053639Y0154059D01*
X0053155Y0157995D02*
X0052188Y0159446D01*
X0053155Y0157995D02*
X0054123Y0159446D01*
X0054123Y0157995D02*
X0051220Y0157995D01*
X0063740Y0150875D02*
X0063740Y0148940D01*
X0066643Y0148940D01*
X0066643Y0147929D02*
X0065191Y0147929D01*
X0064708Y0147445D01*
X0064708Y0145994D01*
X0066643Y0145994D01*
X0066159Y0144982D02*
X0066643Y0144499D01*
X0066643Y0143531D01*
X0066159Y0143047D01*
X0066159Y0142058D02*
X0066643Y0142058D01*
X0066643Y0141574D01*
X0066159Y0141574D01*
X0066159Y0142058D01*
X0066159Y0140563D02*
X0066643Y0140079D01*
X0066643Y0139111D01*
X0066159Y0138628D01*
X0065191Y0139595D02*
X0065191Y0140079D01*
X0065675Y0140563D01*
X0066159Y0140563D01*
X0065191Y0140079D02*
X0064708Y0140563D01*
X0064224Y0140563D01*
X0063740Y0140079D01*
X0063740Y0139111D01*
X0064224Y0138628D01*
X0060068Y0139478D02*
X0060068Y0140445D01*
X0059584Y0140929D01*
X0059584Y0141940D02*
X0060068Y0142424D01*
X0060068Y0143392D01*
X0059584Y0143875D01*
X0058616Y0143875D01*
X0058133Y0143392D01*
X0058133Y0142908D01*
X0058616Y0141940D01*
X0057165Y0141940D01*
X0057165Y0143875D01*
X0057649Y0140929D02*
X0057165Y0140445D01*
X0057165Y0139478D01*
X0057649Y0138994D01*
X0059584Y0138994D01*
X0060068Y0139478D01*
X0063740Y0143531D02*
X0063740Y0144499D01*
X0064224Y0144982D01*
X0064708Y0144982D01*
X0065191Y0144499D01*
X0065675Y0144982D01*
X0066159Y0144982D01*
X0065191Y0144499D02*
X0065191Y0144015D01*
X0064224Y0143047D02*
X0063740Y0143531D01*
X0065191Y0148940D02*
X0065191Y0149908D01*
X0065939Y0131030D02*
X0066423Y0131030D01*
X0066423Y0130546D01*
X0065939Y0130546D01*
X0065939Y0131030D01*
X0063520Y0131030D02*
X0066423Y0128611D01*
X0066423Y0127600D02*
X0066423Y0125665D01*
X0066423Y0126632D02*
X0063520Y0126632D01*
X0064488Y0125665D01*
X0064004Y0128611D02*
X0063520Y0128611D01*
X0063520Y0129095D01*
X0064004Y0129095D01*
X0064004Y0128611D01*
X0064488Y0121714D02*
X0065455Y0120263D01*
X0066423Y0121714D01*
X0066423Y0120263D02*
X0063520Y0120263D01*
X0064004Y0119251D02*
X0063520Y0118768D01*
X0063520Y0117800D01*
X0064004Y0117316D01*
X0064004Y0119251D02*
X0064488Y0119251D01*
X0066423Y0117316D01*
X0066423Y0119251D01*
X0066423Y0116327D02*
X0065939Y0116327D01*
X0065939Y0115843D01*
X0066423Y0115843D01*
X0066423Y0116327D01*
X0066423Y0114348D02*
X0063520Y0114348D01*
X0064972Y0112897D01*
X0064972Y0114831D01*
X0064972Y0111885D02*
X0064972Y0109950D01*
X0063520Y0111401D01*
X0066423Y0111401D01*
X0061423Y0111885D02*
X0060455Y0110917D01*
X0060455Y0111401D02*
X0060455Y0109950D01*
X0061423Y0109950D02*
X0058520Y0109950D01*
X0058520Y0111401D01*
X0059004Y0111885D01*
X0059972Y0111885D01*
X0060455Y0111401D01*
X0060939Y0112897D02*
X0061423Y0113380D01*
X0061423Y0114348D01*
X0060939Y0114831D01*
X0059004Y0114831D01*
X0058520Y0114348D01*
X0058520Y0113380D01*
X0059004Y0112897D01*
X0059488Y0112897D01*
X0059972Y0113380D01*
X0059972Y0114831D01*
X0027014Y0168950D02*
X0025562Y0169917D01*
X0027014Y0170885D01*
X0025562Y0171852D02*
X0025562Y0168950D01*
X0024551Y0169434D02*
X0024067Y0168950D01*
X0023100Y0168950D01*
X0022616Y0169434D01*
X0024551Y0171369D01*
X0024551Y0169434D01*
X0024551Y0171369D02*
X0024067Y0171852D01*
X0023100Y0171852D01*
X0022616Y0171369D01*
X0022616Y0169434D01*
X0021604Y0169434D02*
X0021121Y0168950D01*
X0020153Y0168950D01*
X0019669Y0169434D01*
X0021604Y0171369D01*
X0021604Y0169434D01*
X0019669Y0169434D02*
X0019669Y0171369D01*
X0020153Y0171852D01*
X0021121Y0171852D01*
X0021604Y0171369D01*
X0018658Y0168950D02*
X0016723Y0168950D01*
X0017690Y0168950D02*
X0017690Y0171852D01*
X0016723Y0170885D01*
X0017723Y0181950D02*
X0017723Y0184852D01*
X0019174Y0184852D01*
X0019658Y0184369D01*
X0019658Y0183401D01*
X0019174Y0182917D01*
X0017723Y0182917D01*
X0018690Y0182917D02*
X0019658Y0181950D01*
X0020669Y0183401D02*
X0022604Y0183401D01*
X0022121Y0181950D02*
X0022121Y0184852D01*
X0020669Y0183401D01*
X0047786Y0171405D02*
X0048753Y0172372D01*
X0048753Y0169470D01*
X0047786Y0169470D02*
X0049721Y0169470D01*
X0050732Y0169953D02*
X0052667Y0171888D01*
X0052667Y0169953D01*
X0052184Y0169470D01*
X0051216Y0169470D01*
X0050732Y0169953D01*
X0050732Y0171888D01*
X0051216Y0172372D01*
X0052184Y0172372D01*
X0052667Y0171888D01*
X0053679Y0171888D02*
X0054163Y0172372D01*
X0055130Y0172372D01*
X0055614Y0171888D01*
X0053679Y0169953D01*
X0054163Y0169470D01*
X0055130Y0169470D01*
X0055614Y0169953D01*
X0055614Y0171888D01*
X0056625Y0171405D02*
X0058077Y0171405D01*
X0058560Y0170921D01*
X0058560Y0169470D01*
X0059572Y0169470D02*
X0059572Y0172372D01*
X0061507Y0172372D01*
X0060539Y0170921D02*
X0059572Y0170921D01*
X0056625Y0171405D02*
X0056625Y0169470D01*
X0053679Y0169953D02*
X0053679Y0171888D01*
X0056251Y0181305D02*
X0057218Y0181305D01*
X0057702Y0181789D01*
X0058713Y0181789D02*
X0059197Y0181305D01*
X0060165Y0181305D01*
X0060648Y0181789D01*
X0060648Y0183724D01*
X0060165Y0184208D01*
X0059197Y0184208D01*
X0058713Y0183724D01*
X0058713Y0183240D01*
X0059197Y0182756D01*
X0060648Y0182756D01*
X0057702Y0183724D02*
X0057218Y0184208D01*
X0056251Y0184208D01*
X0055767Y0183724D01*
X0055767Y0181789D01*
X0056251Y0181305D01*
X0061917Y0203411D02*
X0061434Y0203894D01*
X0061434Y0204862D01*
X0061917Y0205346D01*
X0062401Y0205346D01*
X0064336Y0203411D01*
X0064336Y0205346D01*
X0064336Y0206357D02*
X0062401Y0208292D01*
X0061917Y0208292D01*
X0061434Y0207808D01*
X0061434Y0206841D01*
X0061917Y0206357D01*
X0064336Y0206357D02*
X0064336Y0208292D01*
X0063852Y0209304D02*
X0061917Y0211239D01*
X0063852Y0211239D01*
X0064336Y0210755D01*
X0064336Y0209787D01*
X0063852Y0209304D01*
X0061917Y0209304D01*
X0061434Y0209787D01*
X0061434Y0210755D01*
X0061917Y0211239D01*
X0062401Y0212250D02*
X0063852Y0212250D01*
X0064336Y0212734D01*
X0064336Y0214185D01*
X0062401Y0214185D01*
X0062885Y0215197D02*
X0062885Y0216164D01*
X0064336Y0215197D02*
X0061434Y0215197D01*
X0061434Y0217132D01*
X0061895Y0220730D02*
X0061895Y0223633D01*
X0060927Y0222665D01*
X0060927Y0220730D02*
X0062862Y0220730D01*
X0063874Y0221214D02*
X0065809Y0223149D01*
X0065809Y0221214D01*
X0065325Y0220730D01*
X0064358Y0220730D01*
X0063874Y0221214D01*
X0063874Y0223149D01*
X0064358Y0223633D01*
X0065325Y0223633D01*
X0065809Y0223149D01*
X0066820Y0223149D02*
X0067304Y0223633D01*
X0068272Y0223633D01*
X0068755Y0223149D01*
X0066820Y0221214D01*
X0067304Y0220730D01*
X0068272Y0220730D01*
X0068755Y0221214D01*
X0068755Y0223149D01*
X0069767Y0222665D02*
X0071218Y0222665D01*
X0071702Y0222182D01*
X0071702Y0220730D01*
X0072713Y0220730D02*
X0072713Y0223633D01*
X0074648Y0223633D01*
X0073681Y0222182D02*
X0072713Y0222182D01*
X0069767Y0222665D02*
X0069767Y0220730D01*
X0066820Y0221214D02*
X0066820Y0223149D01*
X0054648Y0226289D02*
X0054165Y0225805D01*
X0053197Y0225805D01*
X0052713Y0226289D01*
X0054648Y0228224D01*
X0054648Y0226289D01*
X0052713Y0226289D02*
X0052713Y0228224D01*
X0053197Y0228708D01*
X0054165Y0228708D01*
X0054648Y0228224D01*
X0051702Y0225805D02*
X0049767Y0225805D01*
X0050734Y0225805D02*
X0050734Y0228708D01*
X0049767Y0227740D01*
X0048755Y0228224D02*
X0048272Y0228708D01*
X0047304Y0228708D01*
X0046820Y0228224D01*
X0046820Y0226289D01*
X0047304Y0225805D01*
X0048272Y0225805D01*
X0048755Y0226289D01*
X0029149Y0217147D02*
X0027214Y0217147D01*
X0028182Y0217147D02*
X0028182Y0220049D01*
X0027214Y0219082D01*
X0026203Y0217147D02*
X0024268Y0217147D01*
X0025235Y0217147D02*
X0025235Y0220049D01*
X0024268Y0219082D01*
X0023256Y0219566D02*
X0022772Y0220049D01*
X0021805Y0220049D01*
X0021321Y0219566D01*
X0021321Y0217631D01*
X0021805Y0217147D01*
X0022772Y0217147D01*
X0023256Y0217631D01*
X0023555Y0216338D02*
X0023555Y0213435D01*
X0024522Y0213435D02*
X0022587Y0213435D01*
X0021092Y0213919D02*
X0021092Y0216338D01*
X0020608Y0216338D02*
X0021576Y0216338D01*
X0022587Y0215370D02*
X0023555Y0216338D01*
X0021092Y0213919D02*
X0020608Y0213435D01*
X0020125Y0213435D01*
X0019641Y0213919D01*
X0090223Y0250950D02*
X0092158Y0250950D01*
X0091190Y0250950D02*
X0091190Y0253852D01*
X0090223Y0252885D01*
X0090223Y0255450D02*
X0090223Y0258352D01*
X0091674Y0258352D01*
X0092158Y0257869D01*
X0092158Y0256901D01*
X0091674Y0256417D01*
X0090223Y0256417D01*
X0091190Y0256417D02*
X0092158Y0255450D01*
X0093169Y0255450D02*
X0093169Y0258352D01*
X0095104Y0255450D01*
X0095104Y0258352D01*
X0096116Y0257385D02*
X0097083Y0258352D01*
X0097083Y0255450D01*
X0096116Y0255450D02*
X0098051Y0255450D01*
X0095104Y0253852D02*
X0093169Y0251917D01*
X0093653Y0252401D02*
X0095104Y0250950D01*
X0093169Y0250950D02*
X0093169Y0253852D01*
X0095004Y0261450D02*
X0096939Y0261450D01*
X0097423Y0261934D01*
X0097423Y0262901D01*
X0096939Y0263385D01*
X0096939Y0264397D02*
X0097423Y0264880D01*
X0097423Y0265848D01*
X0096939Y0266331D01*
X0096455Y0266331D01*
X0095972Y0265848D01*
X0095972Y0264397D01*
X0096939Y0264397D01*
X0095972Y0264397D02*
X0095004Y0265364D01*
X0094520Y0266331D01*
X0095004Y0263385D02*
X0094520Y0262901D01*
X0094520Y0261934D01*
X0095004Y0261450D01*
X0098520Y0262417D02*
X0101423Y0262417D01*
X0101423Y0261450D02*
X0101423Y0263385D01*
X0100939Y0264397D02*
X0099004Y0266331D01*
X0100939Y0266331D01*
X0101423Y0265848D01*
X0101423Y0264880D01*
X0100939Y0264397D01*
X0099004Y0264397D01*
X0098520Y0264880D01*
X0098520Y0265848D01*
X0099004Y0266331D01*
X0099004Y0267343D02*
X0098520Y0267827D01*
X0098520Y0268794D01*
X0099004Y0269278D01*
X0100939Y0267343D01*
X0101423Y0267827D01*
X0101423Y0268794D01*
X0100939Y0269278D01*
X0099004Y0269278D01*
X0099488Y0270290D02*
X0099488Y0271741D01*
X0099972Y0272225D01*
X0101423Y0272225D01*
X0101423Y0273236D02*
X0098520Y0273236D01*
X0098520Y0275171D01*
X0099972Y0274204D02*
X0099972Y0273236D01*
X0099488Y0270290D02*
X0101423Y0270290D01*
X0100939Y0267343D02*
X0099004Y0267343D01*
X0098520Y0262417D02*
X0099488Y0261450D01*
X0071114Y0275170D02*
X0070146Y0276138D01*
X0070630Y0276138D02*
X0069179Y0276138D01*
X0069179Y0275170D02*
X0069179Y0278073D01*
X0070630Y0278073D01*
X0071114Y0277589D01*
X0071114Y0276622D01*
X0070630Y0276138D01*
X0068167Y0275170D02*
X0068167Y0278073D01*
X0066232Y0278073D02*
X0066232Y0275170D01*
X0067200Y0276138D01*
X0068167Y0275170D01*
X0065221Y0276622D02*
X0064737Y0276138D01*
X0063286Y0276138D01*
X0063286Y0275170D02*
X0063286Y0278073D01*
X0064737Y0278073D01*
X0065221Y0277589D01*
X0065221Y0276622D01*
X0065169Y0285450D02*
X0067104Y0288352D01*
X0065169Y0288352D02*
X0067104Y0285450D01*
X0068116Y0284966D02*
X0070051Y0284966D01*
X0071062Y0285450D02*
X0071062Y0288352D01*
X0071062Y0285450D02*
X0072997Y0285450D01*
X0074009Y0285450D02*
X0075944Y0285450D01*
X0076955Y0285450D02*
X0078407Y0285450D01*
X0078890Y0285934D01*
X0078890Y0287869D01*
X0078407Y0288352D01*
X0076955Y0288352D01*
X0076955Y0285450D01*
X0074976Y0286901D02*
X0074009Y0286901D01*
X0074009Y0288352D02*
X0074009Y0285450D01*
X0074009Y0288352D02*
X0075944Y0288352D01*
X0075944Y0295450D02*
X0074009Y0295450D01*
X0074009Y0298352D01*
X0075944Y0298352D01*
X0076955Y0298352D02*
X0078407Y0298352D01*
X0078890Y0297869D01*
X0078890Y0295934D01*
X0078407Y0295450D01*
X0076955Y0295450D01*
X0076955Y0298352D01*
X0074976Y0296901D02*
X0074009Y0296901D01*
X0072997Y0295450D02*
X0071062Y0295450D01*
X0071062Y0298352D01*
X0070051Y0294966D02*
X0068116Y0294966D01*
X0067104Y0295450D02*
X0065169Y0298352D01*
X0064158Y0297869D02*
X0064158Y0296901D01*
X0063674Y0296417D01*
X0062223Y0296417D01*
X0062223Y0295450D02*
X0062223Y0298352D01*
X0063674Y0298352D01*
X0064158Y0297869D01*
X0063190Y0296417D02*
X0064158Y0295450D01*
X0065169Y0295450D02*
X0067104Y0298352D01*
X0064158Y0288352D02*
X0062223Y0288352D01*
X0063190Y0288352D02*
X0063190Y0285450D01*
X0156723Y0226852D02*
X0156723Y0223950D01*
X0156723Y0224917D02*
X0158174Y0224917D01*
X0158658Y0225401D01*
X0158658Y0226369D01*
X0158174Y0226852D01*
X0156723Y0226852D01*
X0157690Y0224917D02*
X0158658Y0223950D01*
X0159669Y0223950D02*
X0161604Y0223950D01*
X0160637Y0223950D02*
X0160637Y0226852D01*
X0159669Y0225885D01*
X0165223Y0225885D02*
X0166190Y0226852D01*
X0166190Y0223950D01*
X0165223Y0223950D02*
X0167158Y0223950D01*
X0168169Y0223950D02*
X0168169Y0226852D01*
X0169621Y0225885D02*
X0168169Y0224917D01*
X0169621Y0223950D01*
X0195520Y0234950D02*
X0195520Y0236401D01*
X0196004Y0236885D01*
X0196972Y0236885D01*
X0197455Y0236401D01*
X0197455Y0234950D01*
X0197455Y0235917D02*
X0198423Y0236885D01*
X0198423Y0237897D02*
X0196488Y0239831D01*
X0196004Y0239831D01*
X0195520Y0239348D01*
X0195520Y0238380D01*
X0196004Y0237897D01*
X0198423Y0237897D02*
X0198423Y0239831D01*
X0199720Y0240495D02*
X0202623Y0240495D01*
X0201655Y0240495D02*
X0200688Y0241946D01*
X0201655Y0240495D02*
X0202623Y0241946D01*
X0202139Y0239483D02*
X0202623Y0238999D01*
X0202623Y0238032D01*
X0202139Y0237548D01*
X0200204Y0239483D01*
X0202139Y0239483D01*
X0200204Y0239483D02*
X0199720Y0238999D01*
X0199720Y0238032D01*
X0200204Y0237548D01*
X0202139Y0237548D01*
X0202623Y0236537D02*
X0202623Y0234602D01*
X0202623Y0235569D02*
X0199720Y0235569D01*
X0200688Y0234602D01*
X0198423Y0234950D02*
X0195520Y0234950D01*
X0195504Y0272950D02*
X0195020Y0273434D01*
X0195020Y0274401D01*
X0195504Y0274885D01*
X0195988Y0275897D02*
X0195020Y0276864D01*
X0197923Y0276864D01*
X0197923Y0275897D02*
X0197923Y0277831D01*
X0197439Y0278843D02*
X0197923Y0279327D01*
X0197923Y0280294D01*
X0197439Y0280778D01*
X0196955Y0280778D01*
X0196472Y0280294D01*
X0196472Y0279811D01*
X0196472Y0280294D02*
X0195988Y0280778D01*
X0195504Y0280778D01*
X0195020Y0280294D01*
X0195020Y0279327D01*
X0195504Y0278843D01*
X0199520Y0279327D02*
X0199520Y0280294D01*
X0200004Y0280778D01*
X0201939Y0278843D01*
X0202423Y0279327D01*
X0202423Y0280294D01*
X0201939Y0280778D01*
X0200004Y0280778D01*
X0200488Y0281790D02*
X0200488Y0283241D01*
X0200972Y0283725D01*
X0202423Y0283725D01*
X0202423Y0284736D02*
X0199520Y0284736D01*
X0199520Y0286671D01*
X0200972Y0285704D02*
X0200972Y0284736D01*
X0200488Y0281790D02*
X0202423Y0281790D01*
X0201939Y0278843D02*
X0200004Y0278843D01*
X0199520Y0279327D01*
X0200004Y0277831D02*
X0201939Y0275897D01*
X0202423Y0276380D01*
X0202423Y0277348D01*
X0201939Y0277831D01*
X0200004Y0277831D01*
X0199520Y0277348D01*
X0199520Y0276380D01*
X0200004Y0275897D01*
X0201939Y0275897D01*
X0202423Y0274885D02*
X0202423Y0272950D01*
X0202423Y0273917D02*
X0199520Y0273917D01*
X0200488Y0272950D01*
X0197923Y0273434D02*
X0197923Y0274401D01*
X0197439Y0274885D01*
X0197923Y0273434D02*
X0197439Y0272950D01*
X0195504Y0272950D01*
X0178923Y0299950D02*
X0176988Y0299950D01*
X0176020Y0300917D01*
X0176988Y0301885D01*
X0178923Y0301885D01*
X0179407Y0302897D02*
X0179407Y0304831D01*
X0178439Y0305843D02*
X0178923Y0306327D01*
X0178923Y0307294D01*
X0178439Y0307778D01*
X0177955Y0307778D01*
X0177472Y0307294D01*
X0177472Y0306327D01*
X0176988Y0305843D01*
X0176504Y0305843D01*
X0176020Y0306327D01*
X0176020Y0307294D01*
X0176504Y0307778D01*
X0176020Y0308790D02*
X0176020Y0310725D01*
X0176020Y0309757D02*
X0178923Y0309757D01*
X0178923Y0311736D02*
X0176020Y0311736D01*
X0176020Y0313187D01*
X0176504Y0313671D01*
X0177472Y0313671D01*
X0177955Y0313187D01*
X0177955Y0311736D01*
X0177472Y0301885D02*
X0177472Y0299950D01*
X0199723Y0306950D02*
X0201658Y0306950D01*
X0200690Y0306950D02*
X0200690Y0309852D01*
X0199723Y0308885D01*
X0199723Y0311450D02*
X0199723Y0314352D01*
X0201174Y0314352D01*
X0201658Y0313869D01*
X0201658Y0312901D01*
X0201174Y0312417D01*
X0199723Y0312417D01*
X0200690Y0312417D02*
X0201658Y0311450D01*
X0202669Y0311934D02*
X0203153Y0311450D01*
X0204121Y0311450D01*
X0204604Y0311934D01*
X0204604Y0312417D01*
X0204121Y0312901D01*
X0202669Y0312901D01*
X0202669Y0311934D01*
X0202669Y0312901D02*
X0203637Y0313869D01*
X0204604Y0314352D01*
X0202669Y0309852D02*
X0202669Y0306950D01*
X0202669Y0307917D02*
X0204121Y0308885D01*
X0202669Y0307917D02*
X0204121Y0306950D01*
X0258723Y0274369D02*
X0258723Y0272434D01*
X0259207Y0271950D01*
X0260174Y0271950D01*
X0260658Y0272434D01*
X0261669Y0273401D02*
X0263121Y0274852D01*
X0263121Y0271950D01*
X0263604Y0273401D02*
X0261669Y0273401D01*
X0260658Y0274369D02*
X0260174Y0274852D01*
X0259207Y0274852D01*
X0258723Y0274369D01*
X0259690Y0269852D02*
X0259690Y0266950D01*
X0258723Y0266950D02*
X0260658Y0266950D01*
X0261669Y0267434D02*
X0263604Y0269369D01*
X0263604Y0267434D01*
X0263121Y0266950D01*
X0262153Y0266950D01*
X0261669Y0267434D01*
X0261669Y0269369D01*
X0262153Y0269852D01*
X0263121Y0269852D01*
X0263604Y0269369D01*
X0264616Y0269369D02*
X0265100Y0269852D01*
X0266067Y0269852D01*
X0266551Y0269369D01*
X0264616Y0267434D01*
X0265100Y0266950D01*
X0266067Y0266950D01*
X0266551Y0267434D01*
X0266551Y0269369D01*
X0267562Y0268885D02*
X0267562Y0267434D01*
X0268046Y0266950D01*
X0269497Y0266950D01*
X0269497Y0268885D01*
X0270509Y0268401D02*
X0271476Y0268401D01*
X0270509Y0266950D02*
X0270509Y0269852D01*
X0272444Y0269852D01*
X0264616Y0269369D02*
X0264616Y0267434D01*
X0259690Y0269852D02*
X0258723Y0268885D01*
X0286520Y0271934D02*
X0287004Y0271450D01*
X0288939Y0271450D01*
X0289423Y0271934D01*
X0289423Y0272901D01*
X0288939Y0273385D01*
X0289423Y0274397D02*
X0289423Y0276331D01*
X0289423Y0275364D02*
X0286520Y0275364D01*
X0287488Y0274397D01*
X0287004Y0273385D02*
X0286520Y0272901D01*
X0286520Y0271934D01*
X0290520Y0272417D02*
X0293423Y0272417D01*
X0293423Y0271450D02*
X0293423Y0273385D01*
X0292939Y0274397D02*
X0291004Y0276331D01*
X0292939Y0276331D01*
X0293423Y0275848D01*
X0293423Y0274880D01*
X0292939Y0274397D01*
X0291004Y0274397D01*
X0290520Y0274880D01*
X0290520Y0275848D01*
X0291004Y0276331D01*
X0291004Y0277343D02*
X0290520Y0277827D01*
X0290520Y0278794D01*
X0291004Y0279278D01*
X0292939Y0277343D01*
X0293423Y0277827D01*
X0293423Y0278794D01*
X0292939Y0279278D01*
X0291004Y0279278D01*
X0291488Y0280290D02*
X0291488Y0281741D01*
X0291972Y0282225D01*
X0293423Y0282225D01*
X0293423Y0283236D02*
X0290520Y0283236D01*
X0290520Y0285171D01*
X0291972Y0284204D02*
X0291972Y0283236D01*
X0291488Y0280290D02*
X0293423Y0280290D01*
X0292939Y0277343D02*
X0291004Y0277343D01*
X0289423Y0278794D02*
X0286520Y0278794D01*
X0287972Y0277343D01*
X0287972Y0279278D01*
X0290520Y0272417D02*
X0291488Y0271450D01*
X0269497Y0298717D02*
X0269497Y0300169D01*
X0269013Y0300652D01*
X0268529Y0300652D01*
X0268046Y0300169D01*
X0268046Y0298717D01*
X0269497Y0298717D02*
X0266594Y0298717D01*
X0266594Y0300169D01*
X0267078Y0300652D01*
X0267562Y0300652D01*
X0268046Y0300169D01*
X0269981Y0301664D02*
X0269981Y0303599D01*
X0269013Y0304610D02*
X0269497Y0305094D01*
X0269497Y0306062D01*
X0269013Y0306545D01*
X0268529Y0306545D01*
X0268046Y0306062D01*
X0268046Y0305094D01*
X0267562Y0304610D01*
X0267078Y0304610D01*
X0266594Y0305094D01*
X0266594Y0306062D01*
X0267078Y0306545D01*
X0266594Y0307557D02*
X0266594Y0309492D01*
X0266594Y0308524D02*
X0269497Y0308524D01*
X0269497Y0310503D02*
X0266594Y0310503D01*
X0266594Y0311955D01*
X0267078Y0312438D01*
X0268046Y0312438D01*
X0268529Y0311955D01*
X0268529Y0310503D01*
X0293223Y0310917D02*
X0294674Y0310917D01*
X0295158Y0311401D01*
X0295158Y0312369D01*
X0294674Y0312852D01*
X0293223Y0312852D01*
X0293223Y0309950D01*
X0294190Y0310917D02*
X0295158Y0309950D01*
X0296169Y0309950D02*
X0298104Y0309950D01*
X0297137Y0309950D02*
X0297137Y0312852D01*
X0296169Y0311885D01*
X0299116Y0311885D02*
X0300083Y0312852D01*
X0300083Y0309950D01*
X0299116Y0309950D02*
X0301051Y0309950D01*
X0298104Y0308852D02*
X0296169Y0306917D01*
X0296653Y0307401D02*
X0298104Y0305950D01*
X0296169Y0305950D02*
X0296169Y0308852D01*
X0294190Y0308852D02*
X0294190Y0305950D01*
X0293223Y0305950D02*
X0295158Y0305950D01*
X0293223Y0307885D02*
X0294190Y0308852D01*
X0333376Y0274160D02*
X0333860Y0274644D01*
X0334828Y0274644D01*
X0335311Y0274160D01*
X0336323Y0274160D02*
X0336807Y0274644D01*
X0337774Y0274644D01*
X0338258Y0274160D01*
X0338258Y0273676D01*
X0337774Y0273193D01*
X0338258Y0272709D01*
X0338258Y0272225D01*
X0337774Y0271741D01*
X0336807Y0271741D01*
X0336323Y0272225D01*
X0335311Y0272225D02*
X0334828Y0271741D01*
X0333860Y0271741D01*
X0333376Y0272225D01*
X0333376Y0274160D01*
X0337290Y0273193D02*
X0337774Y0273193D01*
X0336872Y0269885D02*
X0335905Y0269885D01*
X0335421Y0269401D01*
X0335421Y0267466D01*
X0337356Y0269401D01*
X0337356Y0267466D01*
X0336872Y0266982D01*
X0335905Y0266982D01*
X0335421Y0267466D01*
X0334409Y0266982D02*
X0332474Y0266982D01*
X0333442Y0266982D02*
X0333442Y0269885D01*
X0332474Y0268917D01*
X0336872Y0269885D02*
X0337356Y0269401D01*
X0338368Y0269401D02*
X0338851Y0269885D01*
X0339819Y0269885D01*
X0340303Y0269401D01*
X0338368Y0267466D01*
X0338851Y0266982D01*
X0339819Y0266982D01*
X0340303Y0267466D01*
X0340303Y0269401D01*
X0341314Y0268917D02*
X0341314Y0267466D01*
X0341798Y0266982D01*
X0343249Y0266982D01*
X0343249Y0268917D01*
X0344261Y0268434D02*
X0345228Y0268434D01*
X0344261Y0269885D02*
X0346196Y0269885D01*
X0344261Y0269885D02*
X0344261Y0266982D01*
X0338368Y0267466D02*
X0338368Y0269401D01*
X0357204Y0299217D02*
X0356720Y0299701D01*
X0356720Y0300669D01*
X0357204Y0301152D01*
X0357204Y0299217D02*
X0359139Y0299217D01*
X0359623Y0299701D01*
X0359623Y0300669D01*
X0359139Y0301152D01*
X0360107Y0302164D02*
X0360107Y0304099D01*
X0359139Y0305110D02*
X0359623Y0305594D01*
X0359623Y0306562D01*
X0359139Y0307045D01*
X0358655Y0307045D01*
X0358172Y0306562D01*
X0358172Y0305594D01*
X0357688Y0305110D01*
X0357204Y0305110D01*
X0356720Y0305594D01*
X0356720Y0306562D01*
X0357204Y0307045D01*
X0356720Y0308057D02*
X0356720Y0309992D01*
X0356720Y0309024D02*
X0359623Y0309024D01*
X0359623Y0311003D02*
X0356720Y0311003D01*
X0356720Y0312455D01*
X0357204Y0312938D01*
X0358172Y0312938D01*
X0358655Y0312455D01*
X0358655Y0311003D01*
X0378723Y0310950D02*
X0378723Y0313852D01*
X0380174Y0313852D01*
X0380658Y0313369D01*
X0380658Y0312401D01*
X0380174Y0311917D01*
X0378723Y0311917D01*
X0379690Y0311917D02*
X0380658Y0310950D01*
X0381669Y0311434D02*
X0382153Y0310950D01*
X0383121Y0310950D01*
X0383604Y0311434D01*
X0383604Y0311917D01*
X0383121Y0312401D01*
X0382637Y0312401D01*
X0383121Y0312401D02*
X0383604Y0312885D01*
X0383604Y0313369D01*
X0383121Y0313852D01*
X0382153Y0313852D01*
X0381669Y0313369D01*
X0381669Y0309852D02*
X0381669Y0306950D01*
X0381669Y0307917D02*
X0383604Y0309852D01*
X0382153Y0308401D02*
X0383604Y0306950D01*
X0380658Y0306950D02*
X0378723Y0306950D01*
X0379690Y0306950D02*
X0379690Y0309852D01*
X0378723Y0308885D01*
X0292623Y0241946D02*
X0291655Y0240495D01*
X0290688Y0241946D01*
X0289720Y0240495D02*
X0292623Y0240495D01*
X0292139Y0239483D02*
X0292623Y0238999D01*
X0292623Y0238032D01*
X0292139Y0237548D01*
X0290204Y0239483D01*
X0292139Y0239483D01*
X0290204Y0239483D02*
X0289720Y0238999D01*
X0289720Y0238032D01*
X0290204Y0237548D01*
X0292139Y0237548D01*
X0292623Y0236537D02*
X0292623Y0234602D01*
X0292623Y0235569D02*
X0289720Y0235569D01*
X0290688Y0234602D01*
X0288423Y0234950D02*
X0285520Y0234950D01*
X0285520Y0236401D01*
X0286004Y0236885D01*
X0286972Y0236885D01*
X0287455Y0236401D01*
X0287455Y0234950D01*
X0287455Y0235917D02*
X0288423Y0236885D01*
X0288423Y0237897D02*
X0288423Y0239831D01*
X0288423Y0238864D02*
X0285520Y0238864D01*
X0286488Y0237897D01*
X0286488Y0240843D02*
X0286004Y0240843D01*
X0285520Y0241327D01*
X0285520Y0242294D01*
X0286004Y0242778D01*
X0287939Y0242778D01*
X0288423Y0242294D01*
X0288423Y0241327D01*
X0287939Y0240843D01*
X0286972Y0241327D02*
X0286972Y0242778D01*
X0286972Y0241327D02*
X0286488Y0240843D01*
X0259621Y0225885D02*
X0258169Y0224917D01*
X0259621Y0223950D01*
X0258169Y0223950D02*
X0258169Y0226852D01*
X0256190Y0226852D02*
X0256190Y0223950D01*
X0255223Y0223950D02*
X0257158Y0223950D01*
X0255223Y0225885D02*
X0256190Y0226852D01*
X0251604Y0226369D02*
X0251604Y0225885D01*
X0251121Y0225401D01*
X0250153Y0225401D01*
X0249669Y0225885D01*
X0249669Y0226369D01*
X0250153Y0226852D01*
X0251121Y0226852D01*
X0251604Y0226369D01*
X0251121Y0225401D02*
X0251604Y0224917D01*
X0251604Y0224434D01*
X0251121Y0223950D01*
X0250153Y0223950D01*
X0249669Y0224434D01*
X0249669Y0224917D01*
X0250153Y0225401D01*
X0248658Y0225401D02*
X0248174Y0224917D01*
X0246723Y0224917D01*
X0246723Y0223950D02*
X0246723Y0226852D01*
X0248174Y0226852D01*
X0248658Y0226369D01*
X0248658Y0225401D01*
X0247690Y0224917D02*
X0248658Y0223950D01*
X0336454Y0224325D02*
X0336454Y0227228D01*
X0337906Y0227228D01*
X0338389Y0226744D01*
X0338389Y0225776D01*
X0337906Y0225293D01*
X0336454Y0225293D01*
X0337422Y0225293D02*
X0338389Y0224325D01*
X0339401Y0224809D02*
X0339885Y0224325D01*
X0340852Y0224325D01*
X0341336Y0224809D01*
X0341336Y0225776D01*
X0340852Y0226260D01*
X0340368Y0226260D01*
X0339401Y0225776D01*
X0339401Y0227228D01*
X0341336Y0227228D01*
X0345223Y0226385D02*
X0346190Y0227352D01*
X0346190Y0224450D01*
X0345223Y0224450D02*
X0347158Y0224450D01*
X0348169Y0224450D02*
X0348169Y0227352D01*
X0349621Y0226385D02*
X0348169Y0225417D01*
X0349621Y0224450D01*
X0368020Y0225950D02*
X0368020Y0227401D01*
X0368504Y0227885D01*
X0369472Y0227885D01*
X0369955Y0227401D01*
X0369955Y0225950D01*
X0369955Y0226917D02*
X0370923Y0227885D01*
X0370923Y0228897D02*
X0370923Y0230831D01*
X0370923Y0229864D02*
X0368020Y0229864D01*
X0368988Y0228897D01*
X0371720Y0229032D02*
X0371720Y0229999D01*
X0372204Y0230483D01*
X0374139Y0228548D01*
X0374623Y0229032D01*
X0374623Y0229999D01*
X0374139Y0230483D01*
X0372204Y0230483D01*
X0371720Y0231495D02*
X0374623Y0231495D01*
X0373655Y0231495D02*
X0372688Y0232946D01*
X0373655Y0231495D02*
X0374623Y0232946D01*
X0370923Y0233294D02*
X0370923Y0232327D01*
X0370439Y0231843D01*
X0369955Y0231843D01*
X0369472Y0232327D01*
X0369472Y0233294D01*
X0369955Y0233778D01*
X0370439Y0233778D01*
X0370923Y0233294D01*
X0369472Y0233294D02*
X0368988Y0233778D01*
X0368504Y0233778D01*
X0368020Y0233294D01*
X0368020Y0232327D01*
X0368504Y0231843D01*
X0368988Y0231843D01*
X0369472Y0232327D01*
X0371720Y0229032D02*
X0372204Y0228548D01*
X0374139Y0228548D01*
X0374623Y0227537D02*
X0374623Y0225602D01*
X0374623Y0226569D02*
X0371720Y0226569D01*
X0372688Y0225602D01*
X0370923Y0225950D02*
X0368020Y0225950D01*
X0143551Y0053369D02*
X0143551Y0052885D01*
X0143067Y0052401D01*
X0143551Y0051917D01*
X0143551Y0051434D01*
X0143067Y0050950D01*
X0142100Y0050950D01*
X0141616Y0051434D01*
X0140604Y0050950D02*
X0138669Y0050950D01*
X0139637Y0050950D02*
X0139637Y0053852D01*
X0138669Y0052885D01*
X0137658Y0053369D02*
X0137658Y0052401D01*
X0137174Y0051917D01*
X0135723Y0051917D01*
X0135723Y0050950D02*
X0135723Y0053852D01*
X0137174Y0053852D01*
X0137658Y0053369D01*
X0136690Y0051917D02*
X0137658Y0050950D01*
X0141616Y0053369D02*
X0142100Y0053852D01*
X0143067Y0053852D01*
X0143551Y0053369D01*
X0143067Y0052401D02*
X0142583Y0052401D01*
X0123551Y0051917D02*
X0123067Y0052401D01*
X0121616Y0052401D01*
X0121616Y0051434D01*
X0122100Y0050950D01*
X0123067Y0050950D01*
X0123551Y0051434D01*
X0123551Y0051917D01*
X0122583Y0053369D02*
X0121616Y0052401D01*
X0120604Y0052885D02*
X0120604Y0053369D01*
X0120121Y0053852D01*
X0119153Y0053852D01*
X0118669Y0053369D01*
X0117658Y0053369D02*
X0117658Y0052401D01*
X0117174Y0051917D01*
X0115723Y0051917D01*
X0115723Y0050950D02*
X0115723Y0053852D01*
X0117174Y0053852D01*
X0117658Y0053369D01*
X0116690Y0051917D02*
X0117658Y0050950D01*
X0118669Y0050950D02*
X0120604Y0052885D01*
X0120604Y0050950D02*
X0118669Y0050950D01*
X0122583Y0053369D02*
X0123551Y0053852D01*
X0110621Y0033818D02*
X0109654Y0033818D01*
X0109170Y0033334D01*
X0108158Y0033334D02*
X0107675Y0033818D01*
X0106223Y0033818D01*
X0106223Y0030915D01*
X0107675Y0030915D01*
X0108158Y0031399D01*
X0108158Y0033334D01*
X0110621Y0033818D02*
X0111105Y0033334D01*
X0111105Y0032850D01*
X0109170Y0030915D01*
X0111105Y0030915D01*
X0111137Y0023852D02*
X0111137Y0020950D01*
X0112104Y0020950D02*
X0110169Y0020950D01*
X0109158Y0020950D02*
X0108190Y0021917D01*
X0108674Y0021917D02*
X0107223Y0021917D01*
X0107223Y0020950D02*
X0107223Y0023852D01*
X0108674Y0023852D01*
X0109158Y0023369D01*
X0109158Y0022401D01*
X0108674Y0021917D01*
X0110169Y0022885D02*
X0111137Y0023852D01*
X0113116Y0023369D02*
X0113600Y0023852D01*
X0114567Y0023852D01*
X0115051Y0023369D01*
X0115051Y0022885D01*
X0113116Y0020950D01*
X0115051Y0020950D01*
X0112104Y0019852D02*
X0110169Y0017917D01*
X0110653Y0018401D02*
X0112104Y0016950D01*
X0110169Y0016950D02*
X0110169Y0019852D01*
X0108190Y0019852D02*
X0108190Y0016950D01*
X0107223Y0016950D02*
X0109158Y0016950D01*
X0107223Y0018885D02*
X0108190Y0019852D01*
X0108335Y0010152D02*
X0106883Y0010152D01*
X0106883Y0007250D01*
X0106883Y0008217D02*
X0108335Y0008217D01*
X0108818Y0008701D01*
X0108818Y0009669D01*
X0108335Y0010152D01*
X0109830Y0010152D02*
X0109830Y0007250D01*
X0110797Y0008217D01*
X0111765Y0007250D01*
X0111765Y0010152D01*
X0112776Y0010152D02*
X0112776Y0007250D01*
X0112776Y0008217D02*
X0114228Y0008217D01*
X0114711Y0008701D01*
X0114711Y0009669D01*
X0114228Y0010152D01*
X0112776Y0010152D01*
X0113744Y0008217D02*
X0114711Y0007250D01*
X0118937Y0007652D02*
X0118937Y0004750D01*
X0118937Y0005717D02*
X0120388Y0005717D01*
X0120872Y0006201D01*
X0120872Y0007169D01*
X0120388Y0007652D01*
X0118937Y0007652D01*
X0121883Y0007652D02*
X0121883Y0004750D01*
X0122851Y0005717D01*
X0123818Y0004750D01*
X0123818Y0007652D01*
X0124830Y0007652D02*
X0124830Y0004750D01*
X0124830Y0005717D02*
X0126281Y0005717D01*
X0126765Y0006201D01*
X0126765Y0007169D01*
X0126281Y0007652D01*
X0124830Y0007652D01*
X0125797Y0005717D02*
X0126765Y0004750D01*
X0127776Y0004750D02*
X0129711Y0004750D01*
X0128744Y0004750D02*
X0128744Y0007652D01*
X0127776Y0006685D01*
X0105872Y0006766D02*
X0103937Y0006766D01*
X0102925Y0007734D02*
X0102925Y0009669D01*
X0102441Y0010152D01*
X0100990Y0010152D01*
X0100990Y0007250D01*
X0102441Y0007250D01*
X0102925Y0007734D01*
X0099979Y0007250D02*
X0099011Y0008217D01*
X0099495Y0008217D02*
X0098044Y0008217D01*
X0098044Y0007250D02*
X0098044Y0010152D01*
X0099495Y0010152D01*
X0099979Y0009669D01*
X0099979Y0008701D01*
X0099495Y0008217D01*
X0097032Y0008701D02*
X0095097Y0008701D01*
X0095097Y0009185D02*
X0096065Y0010152D01*
X0097032Y0009185D01*
X0097032Y0007250D01*
X0095097Y0007250D02*
X0095097Y0009185D01*
X0094086Y0009669D02*
X0094086Y0007734D01*
X0093602Y0007250D01*
X0092634Y0007250D01*
X0092151Y0007734D01*
X0092151Y0009669D01*
X0092634Y0010152D01*
X0093602Y0010152D01*
X0094086Y0009669D01*
X0091139Y0009669D02*
X0091139Y0009185D01*
X0090655Y0008701D01*
X0089204Y0008701D01*
X0089204Y0007250D02*
X0090655Y0007250D01*
X0091139Y0007734D01*
X0091139Y0008217D01*
X0090655Y0008701D01*
X0091139Y0009669D02*
X0090655Y0010152D01*
X0089204Y0010152D01*
X0089204Y0007250D01*
X0088193Y0006766D02*
X0086258Y0006766D01*
X0085246Y0007250D02*
X0085246Y0010152D01*
X0083311Y0010152D02*
X0085246Y0007250D01*
X0083311Y0007250D02*
X0083311Y0010152D01*
X0082300Y0009669D02*
X0082300Y0007734D01*
X0081816Y0007250D01*
X0080848Y0007250D01*
X0080365Y0007734D01*
X0080365Y0009669D01*
X0080848Y0010152D01*
X0081816Y0010152D01*
X0082300Y0009669D01*
D12*
X0088899Y0016512D02*
X0088899Y0019581D01*
X0088899Y0018046D02*
X0093503Y0018046D01*
X0093503Y0021116D02*
X0088899Y0021116D01*
X0088899Y0024185D01*
X0088899Y0025720D02*
X0088899Y0028789D01*
X0088899Y0027254D02*
X0093503Y0027254D01*
X0092735Y0030324D02*
X0089666Y0030324D01*
X0088899Y0031091D01*
X0088899Y0032626D01*
X0089666Y0033393D01*
X0092735Y0030324D01*
X0093503Y0031091D01*
X0093503Y0032626D01*
X0092735Y0033393D01*
X0089666Y0033393D01*
X0090433Y0034928D02*
X0088899Y0036462D01*
X0093503Y0036462D01*
X0093503Y0034928D02*
X0093503Y0037997D01*
X0091201Y0039531D02*
X0091201Y0042601D01*
X0089666Y0044135D02*
X0088899Y0044903D01*
X0088899Y0046437D01*
X0089666Y0047205D01*
X0090433Y0047205D01*
X0093503Y0044135D01*
X0093503Y0047205D01*
X0093503Y0048739D02*
X0093503Y0049507D01*
X0092735Y0049507D01*
X0092735Y0048739D01*
X0093503Y0048739D01*
X0091201Y0051041D02*
X0091201Y0054111D01*
X0093503Y0053343D02*
X0088899Y0053343D01*
X0091201Y0051041D01*
X0091201Y0022650D02*
X0091201Y0021116D01*
X0043593Y0061485D02*
X0036703Y0083631D01*
X0034734Y0083139D02*
X0041624Y0060993D01*
X0028632Y0077332D02*
X0028758Y0077590D01*
X0028891Y0077844D01*
X0029030Y0078096D01*
X0029174Y0078344D01*
X0029325Y0078588D01*
X0029482Y0078829D01*
X0029645Y0079066D01*
X0029813Y0079298D01*
X0029987Y0079527D01*
X0030167Y0079751D01*
X0030352Y0079971D01*
X0030542Y0080186D01*
X0030737Y0080396D01*
X0030938Y0080602D01*
X0031144Y0080802D01*
X0031354Y0080998D01*
X0031569Y0081188D01*
X0031789Y0081373D01*
X0032013Y0081552D01*
X0032242Y0081726D01*
X0032475Y0081894D01*
X0032712Y0082057D01*
X0032952Y0082213D01*
X0033197Y0082364D01*
X0033445Y0082509D01*
X0033696Y0082647D01*
X0033951Y0082779D01*
X0034209Y0082906D01*
X0034471Y0083025D01*
X0034734Y0083138D01*
X0049695Y0067292D02*
X0049569Y0067034D01*
X0049436Y0066780D01*
X0049297Y0066528D01*
X0049153Y0066280D01*
X0049002Y0066036D01*
X0048845Y0065795D01*
X0048682Y0065558D01*
X0048514Y0065326D01*
X0048340Y0065097D01*
X0048160Y0064873D01*
X0047975Y0064653D01*
X0047785Y0064438D01*
X0047590Y0064228D01*
X0047389Y0064022D01*
X0047183Y0063822D01*
X0046973Y0063626D01*
X0046758Y0063436D01*
X0046538Y0063251D01*
X0046314Y0063072D01*
X0046085Y0062898D01*
X0045852Y0062730D01*
X0045615Y0062567D01*
X0045375Y0062411D01*
X0045130Y0062260D01*
X0044882Y0062115D01*
X0044631Y0061977D01*
X0044376Y0061845D01*
X0044118Y0061718D01*
X0043856Y0061599D01*
X0043593Y0061486D01*
X0041624Y0060993D02*
X0041346Y0060936D01*
X0041067Y0060886D01*
X0040787Y0060843D01*
X0040505Y0060807D01*
X0040223Y0060777D01*
X0039940Y0060755D01*
X0039657Y0060739D01*
X0039373Y0060731D01*
X0039090Y0060729D01*
X0038806Y0060735D01*
X0038522Y0060747D01*
X0038239Y0060766D01*
X0037957Y0060792D01*
X0037675Y0060825D01*
X0037394Y0060865D01*
X0037114Y0060912D01*
X0036836Y0060966D01*
X0036559Y0061027D01*
X0036283Y0061094D01*
X0036009Y0061168D01*
X0035737Y0061248D01*
X0035467Y0061336D01*
X0035199Y0061430D01*
X0034934Y0061530D01*
X0034671Y0061637D01*
X0034411Y0061750D01*
X0034154Y0061870D01*
X0033900Y0061996D01*
X0033648Y0062128D01*
X0033401Y0062266D01*
X0033156Y0062411D01*
X0032916Y0062561D01*
X0032679Y0062717D01*
X0032446Y0062879D01*
X0032217Y0063046D01*
X0031992Y0063219D01*
X0031771Y0063398D01*
X0031555Y0063581D01*
X0031344Y0063770D01*
X0031137Y0063965D01*
X0030935Y0064164D01*
X0030738Y0064368D01*
X0030545Y0064577D01*
X0030359Y0064790D01*
X0030177Y0065008D01*
X0030001Y0065231D01*
X0029830Y0065457D01*
X0029665Y0065688D01*
X0029506Y0065923D01*
X0029352Y0066161D01*
X0029204Y0066403D01*
X0029063Y0066649D01*
X0028927Y0066898D01*
X0036703Y0083631D02*
X0036981Y0083688D01*
X0037260Y0083738D01*
X0037540Y0083781D01*
X0037822Y0083817D01*
X0038104Y0083847D01*
X0038387Y0083869D01*
X0038670Y0083885D01*
X0038954Y0083893D01*
X0039237Y0083895D01*
X0039521Y0083889D01*
X0039805Y0083877D01*
X0040088Y0083858D01*
X0040370Y0083832D01*
X0040652Y0083799D01*
X0040933Y0083759D01*
X0041213Y0083712D01*
X0041491Y0083658D01*
X0041768Y0083597D01*
X0042044Y0083530D01*
X0042318Y0083456D01*
X0042590Y0083376D01*
X0042860Y0083288D01*
X0043128Y0083194D01*
X0043393Y0083094D01*
X0043656Y0082987D01*
X0043916Y0082874D01*
X0044173Y0082754D01*
X0044427Y0082628D01*
X0044679Y0082496D01*
X0044926Y0082358D01*
X0045171Y0082213D01*
X0045411Y0082063D01*
X0045648Y0081907D01*
X0045881Y0081745D01*
X0046110Y0081578D01*
X0046335Y0081405D01*
X0046556Y0081226D01*
X0046772Y0081043D01*
X0046983Y0080854D01*
X0047190Y0080659D01*
X0047392Y0080460D01*
X0047589Y0080256D01*
X0047782Y0080047D01*
X0047968Y0079834D01*
X0048150Y0079616D01*
X0048326Y0079393D01*
X0048497Y0079167D01*
X0048662Y0078936D01*
X0048821Y0078701D01*
X0048975Y0078463D01*
X0049123Y0078221D01*
X0049264Y0077975D01*
X0049400Y0077726D01*
X0161561Y0047238D02*
X0164630Y0047238D01*
X0164630Y0046470D01*
X0161561Y0043401D01*
X0161561Y0042634D01*
X0166165Y0044936D02*
X0169234Y0044936D01*
X0170769Y0044936D02*
X0172304Y0045703D01*
X0173071Y0045703D01*
X0173838Y0044936D01*
X0173838Y0043401D01*
X0173071Y0042634D01*
X0171536Y0042634D01*
X0170769Y0043401D01*
X0170769Y0044936D02*
X0170769Y0047238D01*
X0173838Y0047238D01*
X0175373Y0044936D02*
X0178442Y0044936D01*
X0179977Y0045703D02*
X0181511Y0047238D01*
X0181511Y0042634D01*
X0179977Y0042634D02*
X0183046Y0042634D01*
X0184581Y0042634D02*
X0184581Y0047238D01*
X0186883Y0047238D01*
X0187650Y0046470D01*
X0187650Y0044936D01*
X0186883Y0044168D01*
X0184581Y0044168D01*
X0189185Y0042634D02*
X0189185Y0047238D01*
X0192254Y0047238D02*
X0192254Y0042634D01*
X0190719Y0044168D01*
X0189185Y0042634D01*
X0177675Y0042634D02*
X0177675Y0047238D01*
X0175373Y0044936D01*
X0168467Y0042634D02*
X0168467Y0047238D01*
X0166165Y0044936D01*
X0182257Y0056516D02*
X0183792Y0056516D01*
X0183024Y0056516D02*
X0183024Y0061120D01*
X0182257Y0061120D02*
X0183792Y0061120D01*
X0185326Y0060352D02*
X0186094Y0061120D01*
X0187628Y0061120D01*
X0188396Y0060352D01*
X0189930Y0061120D02*
X0189930Y0058818D01*
X0191465Y0059585D01*
X0192232Y0059585D01*
X0193000Y0058818D01*
X0193000Y0057283D01*
X0192232Y0056516D01*
X0190698Y0056516D01*
X0189930Y0057283D01*
X0188396Y0057283D02*
X0187628Y0056516D01*
X0186094Y0056516D01*
X0185326Y0057283D01*
X0185326Y0060352D01*
X0189930Y0061120D02*
X0193000Y0061120D01*
X0266061Y0061401D02*
X0266061Y0060634D01*
X0266061Y0061401D02*
X0269130Y0064470D01*
X0269130Y0065238D01*
X0266061Y0065238D01*
X0270665Y0062936D02*
X0273734Y0062936D01*
X0275269Y0062936D02*
X0275269Y0065238D01*
X0278338Y0065238D01*
X0277571Y0063703D02*
X0278338Y0062936D01*
X0278338Y0061401D01*
X0277571Y0060634D01*
X0276036Y0060634D01*
X0275269Y0061401D01*
X0275269Y0062936D02*
X0276804Y0063703D01*
X0277571Y0063703D01*
X0279873Y0062936D02*
X0282175Y0065238D01*
X0282175Y0060634D01*
X0284477Y0060634D02*
X0287546Y0060634D01*
X0286011Y0060634D02*
X0286011Y0065238D01*
X0284477Y0063703D01*
X0282942Y0062936D02*
X0279873Y0062936D01*
X0272967Y0060634D02*
X0272967Y0065238D01*
X0270665Y0062936D01*
X0289081Y0062168D02*
X0291383Y0062168D01*
X0292150Y0062936D01*
X0292150Y0064470D01*
X0291383Y0065238D01*
X0289081Y0065238D01*
X0289081Y0060634D01*
X0293685Y0060634D02*
X0295219Y0062168D01*
X0296754Y0060634D01*
X0296754Y0065238D01*
X0293685Y0065238D02*
X0293685Y0060634D01*
X0295987Y0073484D02*
X0295987Y0078088D01*
X0293685Y0075786D01*
X0296754Y0075786D01*
X0292150Y0074252D02*
X0291383Y0073484D01*
X0289848Y0073484D01*
X0289081Y0074252D01*
X0289081Y0077321D01*
X0289848Y0078088D01*
X0291383Y0078088D01*
X0292150Y0077321D01*
X0287546Y0078088D02*
X0286011Y0078088D01*
X0286779Y0078088D02*
X0286779Y0073484D01*
X0287546Y0073484D02*
X0286011Y0073484D01*
X0292757Y0085366D02*
X0292757Y0086133D01*
X0295826Y0089203D01*
X0295826Y0089970D01*
X0292757Y0089970D01*
X0297361Y0087668D02*
X0300430Y0087668D01*
X0301965Y0087668D02*
X0303500Y0088435D01*
X0304267Y0088435D01*
X0305034Y0087668D01*
X0305034Y0086133D01*
X0304267Y0085366D01*
X0302732Y0085366D01*
X0301965Y0086133D01*
X0301965Y0087668D02*
X0301965Y0089970D01*
X0305034Y0089970D01*
X0306569Y0087668D02*
X0309638Y0087668D01*
X0311173Y0088435D02*
X0312707Y0089970D01*
X0312707Y0085366D01*
X0311173Y0085366D02*
X0314242Y0085366D01*
X0315777Y0085366D02*
X0315777Y0089970D01*
X0318079Y0089970D01*
X0318846Y0089203D01*
X0318846Y0087668D01*
X0318079Y0086901D01*
X0315777Y0086901D01*
X0320381Y0085366D02*
X0321915Y0086901D01*
X0323450Y0085366D01*
X0323450Y0089970D01*
X0320381Y0089970D02*
X0320381Y0085366D01*
X0308871Y0085366D02*
X0308871Y0089970D01*
X0306569Y0087668D01*
X0299663Y0085366D02*
X0299663Y0089970D01*
X0297361Y0087668D01*
X0295987Y0112484D02*
X0294452Y0112484D01*
X0293685Y0113252D01*
X0292150Y0113252D02*
X0291383Y0112484D01*
X0289848Y0112484D01*
X0289081Y0113252D01*
X0289081Y0116321D01*
X0289848Y0117088D01*
X0291383Y0117088D01*
X0292150Y0116321D01*
X0293685Y0116321D02*
X0294452Y0117088D01*
X0295987Y0117088D01*
X0296754Y0116321D01*
X0296754Y0115554D01*
X0295987Y0114786D01*
X0296754Y0114019D01*
X0296754Y0113252D01*
X0295987Y0112484D01*
X0295987Y0114786D02*
X0295219Y0114786D01*
X0287546Y0112484D02*
X0286011Y0112484D01*
X0286779Y0112484D02*
X0286779Y0117088D01*
X0287546Y0117088D02*
X0286011Y0117088D01*
X0192754Y0169134D02*
X0192754Y0173738D01*
X0189685Y0173738D02*
X0189685Y0169134D01*
X0191219Y0170668D01*
X0192754Y0169134D01*
X0188150Y0171436D02*
X0187383Y0170668D01*
X0185081Y0170668D01*
X0185081Y0169134D02*
X0185081Y0173738D01*
X0187383Y0173738D01*
X0188150Y0172970D01*
X0188150Y0171436D01*
X0183546Y0169134D02*
X0180477Y0169134D01*
X0182011Y0169134D02*
X0182011Y0173738D01*
X0180477Y0172203D01*
X0178942Y0171436D02*
X0175873Y0171436D01*
X0178175Y0173738D01*
X0178175Y0169134D01*
X0174338Y0169901D02*
X0173571Y0169134D01*
X0172036Y0169134D01*
X0171269Y0169901D01*
X0171269Y0171436D02*
X0172804Y0172203D01*
X0173571Y0172203D01*
X0174338Y0171436D01*
X0174338Y0169901D01*
X0171269Y0171436D02*
X0171269Y0173738D01*
X0174338Y0173738D01*
X0169734Y0171436D02*
X0166665Y0171436D01*
X0168967Y0173738D01*
X0168967Y0169134D01*
X0165130Y0172970D02*
X0162061Y0169901D01*
X0162061Y0169134D01*
X0162061Y0173738D02*
X0165130Y0173738D01*
X0165130Y0172970D01*
X0181011Y0182484D02*
X0182546Y0182484D01*
X0181779Y0182484D02*
X0181779Y0187088D01*
X0182546Y0187088D02*
X0181011Y0187088D01*
X0184081Y0186321D02*
X0184081Y0183252D01*
X0184848Y0182484D01*
X0186383Y0182484D01*
X0187150Y0183252D01*
X0188685Y0182484D02*
X0191754Y0185554D01*
X0191754Y0186321D01*
X0190987Y0187088D01*
X0189452Y0187088D01*
X0188685Y0186321D01*
X0187150Y0186321D02*
X0186383Y0187088D01*
X0184848Y0187088D01*
X0184081Y0186321D01*
X0188685Y0182484D02*
X0191754Y0182484D01*
X0088317Y0252666D02*
X0088317Y0260934D01*
X0068829Y0260934D02*
X0068829Y0252666D01*
X0068755Y0305823D02*
X0068755Y0308625D01*
X0067821Y0307691D01*
X0066742Y0308158D02*
X0066275Y0308625D01*
X0064874Y0308625D01*
X0064874Y0305823D01*
X0066275Y0305823D01*
X0066742Y0306290D01*
X0066742Y0308158D01*
X0067821Y0305823D02*
X0069689Y0305823D01*
X0070767Y0306290D02*
X0071234Y0305823D01*
X0072168Y0305823D01*
X0072635Y0306290D01*
X0072635Y0306757D01*
X0072168Y0307224D01*
X0071701Y0307224D01*
X0072168Y0307224D02*
X0072635Y0307691D01*
X0072635Y0308158D01*
X0072168Y0308625D01*
X0071234Y0308625D01*
X0070767Y0308158D01*
X0143773Y0274335D02*
X0143773Y0272467D01*
X0144240Y0272000D01*
X0145174Y0272000D01*
X0145641Y0272467D01*
X0146719Y0272000D02*
X0148588Y0272000D01*
X0147653Y0272000D02*
X0147653Y0274802D01*
X0146719Y0273868D01*
X0145641Y0274335D02*
X0145174Y0274802D01*
X0144240Y0274802D01*
X0143773Y0274335D01*
X0144707Y0269802D02*
X0144707Y0267000D01*
X0143773Y0267000D02*
X0145641Y0267000D01*
X0146719Y0267467D02*
X0148588Y0269335D01*
X0148588Y0267467D01*
X0148121Y0267000D01*
X0147186Y0267000D01*
X0146719Y0267467D01*
X0146719Y0269335D01*
X0147186Y0269802D01*
X0148121Y0269802D01*
X0148588Y0269335D01*
X0149666Y0269335D02*
X0149666Y0267467D01*
X0151534Y0269335D01*
X0151534Y0267467D01*
X0151067Y0267000D01*
X0150133Y0267000D01*
X0149666Y0267467D01*
X0149666Y0269335D02*
X0150133Y0269802D01*
X0151067Y0269802D01*
X0151534Y0269335D01*
X0152612Y0268868D02*
X0152612Y0267467D01*
X0153079Y0267000D01*
X0154481Y0267000D01*
X0154481Y0268868D01*
X0155559Y0268401D02*
X0156493Y0268401D01*
X0155559Y0267000D02*
X0155559Y0269802D01*
X0157427Y0269802D01*
X0144707Y0269802D02*
X0143773Y0268868D01*
D13*
X0114073Y0271800D02*
X0114213Y0271798D01*
X0114353Y0271792D01*
X0114493Y0271782D01*
X0114633Y0271769D01*
X0114772Y0271751D01*
X0114911Y0271729D01*
X0115048Y0271704D01*
X0115186Y0271675D01*
X0115322Y0271642D01*
X0115457Y0271605D01*
X0115591Y0271564D01*
X0115724Y0271519D01*
X0115856Y0271471D01*
X0115986Y0271419D01*
X0116115Y0271364D01*
X0116242Y0271305D01*
X0116368Y0271242D01*
X0116492Y0271176D01*
X0116613Y0271107D01*
X0116733Y0271034D01*
X0116851Y0270957D01*
X0116966Y0270878D01*
X0117080Y0270795D01*
X0117190Y0270709D01*
X0117299Y0270620D01*
X0117405Y0270528D01*
X0117508Y0270433D01*
X0117609Y0270336D01*
X0117706Y0270235D01*
X0117801Y0270132D01*
X0117893Y0270026D01*
X0117982Y0269917D01*
X0118068Y0269807D01*
X0118151Y0269693D01*
X0118230Y0269578D01*
X0118307Y0269460D01*
X0118380Y0269340D01*
X0118449Y0269219D01*
X0118515Y0269095D01*
X0118578Y0268969D01*
X0118637Y0268842D01*
X0118692Y0268713D01*
X0118744Y0268583D01*
X0118792Y0268451D01*
X0118837Y0268318D01*
X0118878Y0268184D01*
X0118915Y0268049D01*
X0118948Y0267913D01*
X0118977Y0267775D01*
X0119002Y0267638D01*
X0119024Y0267499D01*
X0119042Y0267360D01*
X0119055Y0267220D01*
X0119065Y0267080D01*
X0119071Y0266940D01*
X0119073Y0266800D01*
X0119071Y0266660D01*
X0119065Y0266520D01*
X0119055Y0266380D01*
X0119042Y0266240D01*
X0119024Y0266101D01*
X0119002Y0265962D01*
X0118977Y0265825D01*
X0118948Y0265687D01*
X0118915Y0265551D01*
X0118878Y0265416D01*
X0118837Y0265282D01*
X0118792Y0265149D01*
X0118744Y0265017D01*
X0118692Y0264887D01*
X0118637Y0264758D01*
X0118578Y0264631D01*
X0118515Y0264505D01*
X0118449Y0264381D01*
X0118380Y0264260D01*
X0118307Y0264140D01*
X0118230Y0264022D01*
X0118151Y0263907D01*
X0118068Y0263793D01*
X0117982Y0263683D01*
X0117893Y0263574D01*
X0117801Y0263468D01*
X0117706Y0263365D01*
X0117609Y0263264D01*
X0117508Y0263167D01*
X0117405Y0263072D01*
X0117299Y0262980D01*
X0117190Y0262891D01*
X0117080Y0262805D01*
X0116966Y0262722D01*
X0116851Y0262643D01*
X0116733Y0262566D01*
X0116613Y0262493D01*
X0116492Y0262424D01*
X0116368Y0262358D01*
X0116242Y0262295D01*
X0116115Y0262236D01*
X0115986Y0262181D01*
X0115856Y0262129D01*
X0115724Y0262081D01*
X0115591Y0262036D01*
X0115457Y0261995D01*
X0115322Y0261958D01*
X0115186Y0261925D01*
X0115048Y0261896D01*
X0114911Y0261871D01*
X0114772Y0261849D01*
X0114633Y0261831D01*
X0114493Y0261818D01*
X0114353Y0261808D01*
X0114213Y0261802D01*
X0114073Y0261800D01*
X0114073Y0238300D01*
X0193073Y0238300D01*
X0193073Y0295300D01*
X0114073Y0295300D01*
X0114073Y0271800D01*
X0111073Y0276800D02*
X0113573Y0279300D01*
X0113573Y0284300D01*
X0111073Y0286800D01*
X0113573Y0289300D01*
X0113573Y0294300D01*
X0111073Y0296800D01*
X0106073Y0296800D01*
X0103573Y0294300D01*
X0101073Y0296800D01*
X0096073Y0296800D01*
X0093573Y0294300D01*
X0091073Y0296800D01*
X0086073Y0296800D01*
X0083573Y0294300D01*
X0083573Y0289300D01*
X0086073Y0286800D01*
X0091073Y0286800D01*
X0093573Y0289300D01*
X0096073Y0286800D01*
X0101073Y0286800D01*
X0103573Y0289300D01*
X0106073Y0286800D01*
X0111073Y0286800D01*
X0106073Y0286800D01*
X0103573Y0284300D01*
X0101073Y0286800D01*
X0096073Y0286800D01*
X0093573Y0284300D01*
X0091073Y0286800D01*
X0086073Y0286800D01*
X0083573Y0284300D01*
X0083573Y0279300D01*
X0086073Y0276800D01*
X0091073Y0276800D01*
X0093573Y0279300D01*
X0096073Y0276800D01*
X0101073Y0276800D01*
X0103573Y0279300D01*
X0106073Y0276800D01*
X0111073Y0276800D01*
X0084931Y0216367D02*
X0069931Y0216367D01*
X0067431Y0213867D01*
X0067431Y0208867D01*
X0069931Y0206367D01*
X0084931Y0206367D01*
X0087431Y0203867D01*
X0087431Y0198867D01*
X0084931Y0196367D01*
X0069931Y0196367D01*
X0067431Y0193867D01*
X0067431Y0188867D01*
X0069931Y0186367D01*
X0084931Y0186367D01*
X0087431Y0183867D01*
X0087431Y0178867D01*
X0084931Y0176367D01*
X0069931Y0176367D01*
X0067431Y0173867D01*
X0067431Y0168867D01*
X0069931Y0166367D01*
X0084931Y0166367D01*
X0087431Y0163867D01*
X0087431Y0158867D01*
X0084931Y0156367D01*
X0069931Y0156367D01*
X0067431Y0153867D01*
X0067431Y0148867D01*
X0069931Y0146367D01*
X0084931Y0146367D01*
X0087431Y0143867D01*
X0087431Y0138867D01*
X0084931Y0136367D01*
X0069931Y0136367D01*
X0067431Y0138867D01*
X0067431Y0143867D01*
X0069931Y0146367D01*
X0069931Y0156367D02*
X0067431Y0158867D01*
X0067431Y0163867D01*
X0069931Y0166367D01*
X0069931Y0176367D02*
X0067431Y0178867D01*
X0067431Y0183867D01*
X0069931Y0186367D01*
X0069931Y0196367D02*
X0067431Y0198867D01*
X0067431Y0203867D01*
X0069931Y0206367D01*
X0084931Y0206367D02*
X0087431Y0208867D01*
X0087431Y0213867D01*
X0084931Y0216367D01*
X0084931Y0196367D02*
X0087431Y0193867D01*
X0087431Y0188867D01*
X0084931Y0186367D01*
X0084931Y0176367D02*
X0087431Y0173867D01*
X0087431Y0168867D01*
X0084931Y0166367D01*
X0084931Y0156367D02*
X0087431Y0153867D01*
X0087431Y0148867D01*
X0084931Y0146367D01*
X0084931Y0136367D02*
X0087431Y0133867D01*
X0087431Y0128867D01*
X0084931Y0126367D01*
X0069931Y0126367D01*
X0067431Y0128867D01*
X0067431Y0133867D01*
X0069931Y0136367D01*
X0069931Y0126367D02*
X0067431Y0123867D01*
X0067431Y0118867D01*
X0069931Y0116367D01*
X0084931Y0116367D01*
X0087431Y0113867D01*
X0087431Y0108867D01*
X0084931Y0106367D01*
X0069931Y0106367D01*
X0067431Y0108867D01*
X0067431Y0113867D01*
X0069931Y0116367D01*
X0069931Y0106367D02*
X0067431Y0103867D01*
X0067431Y0098867D01*
X0069931Y0096367D01*
X0084931Y0096367D01*
X0087431Y0093867D01*
X0087431Y0088867D01*
X0084931Y0086367D01*
X0069931Y0086367D01*
X0067431Y0088867D01*
X0067431Y0093867D01*
X0069931Y0096367D01*
X0069931Y0086367D02*
X0067431Y0083867D01*
X0067431Y0078867D01*
X0069931Y0076367D01*
X0084931Y0076367D01*
X0087431Y0073867D01*
X0087431Y0068867D01*
X0084931Y0066367D01*
X0069931Y0066367D01*
X0067431Y0068867D01*
X0067431Y0073867D01*
X0069931Y0076367D01*
X0069931Y0066367D02*
X0067431Y0063867D01*
X0067431Y0058867D01*
X0069931Y0056367D01*
X0084931Y0056367D01*
X0087431Y0053867D01*
X0087431Y0048867D01*
X0084931Y0046367D01*
X0069931Y0046367D01*
X0067431Y0048867D01*
X0067431Y0053867D01*
X0069931Y0056367D01*
X0069931Y0046367D02*
X0067431Y0043867D01*
X0067431Y0038867D01*
X0069931Y0036367D01*
X0084931Y0036367D01*
X0087431Y0033867D01*
X0087431Y0028867D01*
X0084931Y0026367D01*
X0087431Y0023867D01*
X0087431Y0018867D01*
X0084931Y0016367D01*
X0069931Y0016367D01*
X0067431Y0018867D01*
X0067431Y0023867D01*
X0069931Y0026367D01*
X0084931Y0026367D01*
X0084931Y0036367D02*
X0087431Y0038867D01*
X0087431Y0043867D01*
X0084931Y0046367D01*
X0084931Y0056367D02*
X0087431Y0058867D01*
X0087431Y0063867D01*
X0084931Y0066367D01*
X0084931Y0076367D02*
X0087431Y0078867D01*
X0087431Y0083867D01*
X0084931Y0086367D01*
X0084931Y0096367D02*
X0087431Y0098867D01*
X0087431Y0103867D01*
X0084931Y0106367D01*
X0084931Y0116367D02*
X0087431Y0118867D01*
X0087431Y0123867D01*
X0084931Y0126367D01*
X0179873Y0176834D02*
X0180607Y0176100D01*
X0182075Y0176100D01*
X0182809Y0176834D01*
X0182809Y0177568D01*
X0182075Y0178302D01*
X0181341Y0178302D01*
X0182075Y0178302D02*
X0182809Y0179036D01*
X0182809Y0179770D01*
X0182075Y0180504D01*
X0180607Y0180504D01*
X0179873Y0179770D01*
X0184477Y0179036D02*
X0185945Y0176100D01*
X0187413Y0179036D01*
X0189081Y0179770D02*
X0189815Y0180504D01*
X0191283Y0180504D01*
X0192017Y0179770D01*
X0192017Y0179036D01*
X0191283Y0178302D01*
X0192017Y0177568D01*
X0192017Y0176834D01*
X0191283Y0176100D01*
X0189815Y0176100D01*
X0189081Y0176834D01*
X0190549Y0178302D02*
X0191283Y0178302D01*
X0204073Y0238300D02*
X0283073Y0238300D01*
X0283073Y0295300D01*
X0204073Y0295300D01*
X0204073Y0271800D01*
X0204213Y0271798D01*
X0204353Y0271792D01*
X0204493Y0271782D01*
X0204633Y0271769D01*
X0204772Y0271751D01*
X0204911Y0271729D01*
X0205048Y0271704D01*
X0205186Y0271675D01*
X0205322Y0271642D01*
X0205457Y0271605D01*
X0205591Y0271564D01*
X0205724Y0271519D01*
X0205856Y0271471D01*
X0205986Y0271419D01*
X0206115Y0271364D01*
X0206242Y0271305D01*
X0206368Y0271242D01*
X0206492Y0271176D01*
X0206613Y0271107D01*
X0206733Y0271034D01*
X0206851Y0270957D01*
X0206966Y0270878D01*
X0207080Y0270795D01*
X0207190Y0270709D01*
X0207299Y0270620D01*
X0207405Y0270528D01*
X0207508Y0270433D01*
X0207609Y0270336D01*
X0207706Y0270235D01*
X0207801Y0270132D01*
X0207893Y0270026D01*
X0207982Y0269917D01*
X0208068Y0269807D01*
X0208151Y0269693D01*
X0208230Y0269578D01*
X0208307Y0269460D01*
X0208380Y0269340D01*
X0208449Y0269219D01*
X0208515Y0269095D01*
X0208578Y0268969D01*
X0208637Y0268842D01*
X0208692Y0268713D01*
X0208744Y0268583D01*
X0208792Y0268451D01*
X0208837Y0268318D01*
X0208878Y0268184D01*
X0208915Y0268049D01*
X0208948Y0267913D01*
X0208977Y0267775D01*
X0209002Y0267638D01*
X0209024Y0267499D01*
X0209042Y0267360D01*
X0209055Y0267220D01*
X0209065Y0267080D01*
X0209071Y0266940D01*
X0209073Y0266800D01*
X0209071Y0266660D01*
X0209065Y0266520D01*
X0209055Y0266380D01*
X0209042Y0266240D01*
X0209024Y0266101D01*
X0209002Y0265962D01*
X0208977Y0265825D01*
X0208948Y0265687D01*
X0208915Y0265551D01*
X0208878Y0265416D01*
X0208837Y0265282D01*
X0208792Y0265149D01*
X0208744Y0265017D01*
X0208692Y0264887D01*
X0208637Y0264758D01*
X0208578Y0264631D01*
X0208515Y0264505D01*
X0208449Y0264381D01*
X0208380Y0264260D01*
X0208307Y0264140D01*
X0208230Y0264022D01*
X0208151Y0263907D01*
X0208068Y0263793D01*
X0207982Y0263683D01*
X0207893Y0263574D01*
X0207801Y0263468D01*
X0207706Y0263365D01*
X0207609Y0263264D01*
X0207508Y0263167D01*
X0207405Y0263072D01*
X0207299Y0262980D01*
X0207190Y0262891D01*
X0207080Y0262805D01*
X0206966Y0262722D01*
X0206851Y0262643D01*
X0206733Y0262566D01*
X0206613Y0262493D01*
X0206492Y0262424D01*
X0206368Y0262358D01*
X0206242Y0262295D01*
X0206115Y0262236D01*
X0205986Y0262181D01*
X0205856Y0262129D01*
X0205724Y0262081D01*
X0205591Y0262036D01*
X0205457Y0261995D01*
X0205322Y0261958D01*
X0205186Y0261925D01*
X0205048Y0261896D01*
X0204911Y0261871D01*
X0204772Y0261849D01*
X0204633Y0261831D01*
X0204493Y0261818D01*
X0204353Y0261808D01*
X0204213Y0261802D01*
X0204073Y0261800D01*
X0204073Y0238300D01*
X0294073Y0238300D02*
X0373073Y0238300D01*
X0373073Y0295300D01*
X0294073Y0295300D01*
X0294073Y0271800D01*
X0294213Y0271798D01*
X0294353Y0271792D01*
X0294493Y0271782D01*
X0294633Y0271769D01*
X0294772Y0271751D01*
X0294911Y0271729D01*
X0295048Y0271704D01*
X0295186Y0271675D01*
X0295322Y0271642D01*
X0295457Y0271605D01*
X0295591Y0271564D01*
X0295724Y0271519D01*
X0295856Y0271471D01*
X0295986Y0271419D01*
X0296115Y0271364D01*
X0296242Y0271305D01*
X0296368Y0271242D01*
X0296492Y0271176D01*
X0296613Y0271107D01*
X0296733Y0271034D01*
X0296851Y0270957D01*
X0296966Y0270878D01*
X0297080Y0270795D01*
X0297190Y0270709D01*
X0297299Y0270620D01*
X0297405Y0270528D01*
X0297508Y0270433D01*
X0297609Y0270336D01*
X0297706Y0270235D01*
X0297801Y0270132D01*
X0297893Y0270026D01*
X0297982Y0269917D01*
X0298068Y0269807D01*
X0298151Y0269693D01*
X0298230Y0269578D01*
X0298307Y0269460D01*
X0298380Y0269340D01*
X0298449Y0269219D01*
X0298515Y0269095D01*
X0298578Y0268969D01*
X0298637Y0268842D01*
X0298692Y0268713D01*
X0298744Y0268583D01*
X0298792Y0268451D01*
X0298837Y0268318D01*
X0298878Y0268184D01*
X0298915Y0268049D01*
X0298948Y0267913D01*
X0298977Y0267775D01*
X0299002Y0267638D01*
X0299024Y0267499D01*
X0299042Y0267360D01*
X0299055Y0267220D01*
X0299065Y0267080D01*
X0299071Y0266940D01*
X0299073Y0266800D01*
X0299071Y0266660D01*
X0299065Y0266520D01*
X0299055Y0266380D01*
X0299042Y0266240D01*
X0299024Y0266101D01*
X0299002Y0265962D01*
X0298977Y0265825D01*
X0298948Y0265687D01*
X0298915Y0265551D01*
X0298878Y0265416D01*
X0298837Y0265282D01*
X0298792Y0265149D01*
X0298744Y0265017D01*
X0298692Y0264887D01*
X0298637Y0264758D01*
X0298578Y0264631D01*
X0298515Y0264505D01*
X0298449Y0264381D01*
X0298380Y0264260D01*
X0298307Y0264140D01*
X0298230Y0264022D01*
X0298151Y0263907D01*
X0298068Y0263793D01*
X0297982Y0263683D01*
X0297893Y0263574D01*
X0297801Y0263468D01*
X0297706Y0263365D01*
X0297609Y0263264D01*
X0297508Y0263167D01*
X0297405Y0263072D01*
X0297299Y0262980D01*
X0297190Y0262891D01*
X0297080Y0262805D01*
X0296966Y0262722D01*
X0296851Y0262643D01*
X0296733Y0262566D01*
X0296613Y0262493D01*
X0296492Y0262424D01*
X0296368Y0262358D01*
X0296242Y0262295D01*
X0296115Y0262236D01*
X0295986Y0262181D01*
X0295856Y0262129D01*
X0295724Y0262081D01*
X0295591Y0262036D01*
X0295457Y0261995D01*
X0295322Y0261958D01*
X0295186Y0261925D01*
X0295048Y0261896D01*
X0294911Y0261871D01*
X0294772Y0261849D01*
X0294633Y0261831D01*
X0294493Y0261818D01*
X0294353Y0261808D01*
X0294213Y0261802D01*
X0294073Y0261800D01*
X0294073Y0238300D01*
X0378573Y0239300D02*
X0378573Y0234300D01*
X0381073Y0231800D01*
X0386073Y0231800D01*
X0388573Y0234300D01*
X0388573Y0239300D01*
X0386073Y0241800D01*
X0388573Y0244300D01*
X0388573Y0249300D01*
X0386073Y0251800D01*
X0388573Y0254300D01*
X0388573Y0259300D01*
X0386073Y0261800D01*
X0381073Y0261800D01*
X0378573Y0259300D01*
X0378573Y0254300D01*
X0381073Y0251800D01*
X0378573Y0249300D01*
X0378573Y0244300D01*
X0381073Y0241800D01*
X0378573Y0239300D01*
X0388573Y0239300D02*
X0388573Y0234300D01*
X0391073Y0231800D01*
X0396073Y0231800D01*
X0398573Y0234300D01*
X0398573Y0239300D01*
X0396073Y0241800D01*
X0398573Y0244300D01*
X0398573Y0249300D01*
X0396073Y0251800D01*
X0398573Y0254300D01*
X0398573Y0259300D01*
X0396073Y0261800D01*
X0391073Y0261800D01*
X0388573Y0259300D01*
X0388573Y0254300D01*
X0391073Y0251800D01*
X0388573Y0249300D01*
X0388573Y0244300D01*
X0391073Y0241800D01*
X0388573Y0239300D01*
X0391073Y0266800D02*
X0388573Y0269300D01*
X0388573Y0274300D01*
X0386073Y0276800D01*
X0388573Y0279300D01*
X0388573Y0284300D01*
X0386073Y0286800D01*
X0388573Y0289300D01*
X0388573Y0294300D01*
X0386073Y0296800D01*
X0381073Y0296800D01*
X0378573Y0294300D01*
X0378573Y0289300D01*
X0381073Y0286800D01*
X0378573Y0284300D01*
X0378573Y0279300D01*
X0381073Y0276800D01*
X0378573Y0274300D01*
X0378573Y0269300D01*
X0381073Y0266800D01*
X0386073Y0266800D01*
X0388573Y0269300D01*
X0388573Y0274300D01*
X0391073Y0276800D01*
X0388573Y0279300D01*
X0388573Y0284300D01*
X0391073Y0286800D01*
X0388573Y0289300D01*
X0388573Y0294300D01*
X0391073Y0296800D01*
X0396073Y0296800D01*
X0398573Y0294300D01*
X0398573Y0289300D01*
X0396073Y0286800D01*
X0398573Y0284300D01*
X0398573Y0279300D01*
X0396073Y0276800D01*
X0398573Y0274300D01*
X0398573Y0269300D01*
X0396073Y0266800D01*
X0391073Y0266800D01*
X0296283Y0110504D02*
X0297017Y0109770D01*
X0297017Y0109036D01*
X0296283Y0108302D01*
X0297017Y0107568D01*
X0297017Y0106834D01*
X0296283Y0106100D01*
X0294815Y0106100D01*
X0294081Y0106834D01*
X0295549Y0108302D02*
X0296283Y0108302D01*
X0296283Y0110504D02*
X0294815Y0110504D01*
X0294081Y0109770D01*
X0292413Y0109036D02*
X0290945Y0106100D01*
X0289477Y0109036D01*
X0287809Y0109036D02*
X0287075Y0108302D01*
X0287809Y0107568D01*
X0287809Y0106834D01*
X0287075Y0106100D01*
X0285607Y0106100D01*
X0284873Y0106834D01*
X0286341Y0108302D02*
X0287075Y0108302D01*
X0287809Y0109036D02*
X0287809Y0109770D01*
X0287075Y0110504D01*
X0285607Y0110504D01*
X0284873Y0109770D01*
X0285607Y0071504D02*
X0287075Y0071504D01*
X0287809Y0070770D01*
X0287809Y0070036D01*
X0287075Y0069302D01*
X0287809Y0068568D01*
X0287809Y0067834D01*
X0287075Y0067100D01*
X0285607Y0067100D01*
X0284873Y0067834D01*
X0286341Y0069302D02*
X0287075Y0069302D01*
X0289477Y0070036D02*
X0290945Y0067100D01*
X0292413Y0070036D01*
X0294081Y0070770D02*
X0294815Y0071504D01*
X0296283Y0071504D01*
X0297017Y0070770D01*
X0297017Y0070036D01*
X0296283Y0069302D01*
X0297017Y0068568D01*
X0297017Y0067834D01*
X0296283Y0067100D01*
X0294815Y0067100D01*
X0294081Y0067834D01*
X0295549Y0069302D02*
X0296283Y0069302D01*
X0285607Y0071504D02*
X0284873Y0070770D01*
X0193413Y0053036D02*
X0191945Y0050100D01*
X0190477Y0053036D01*
X0188809Y0052302D02*
X0188809Y0050834D01*
X0188075Y0050100D01*
X0186607Y0050100D01*
X0185873Y0050834D01*
X0185873Y0052302D02*
X0187341Y0053036D01*
X0188075Y0053036D01*
X0188809Y0052302D01*
X0188809Y0054504D02*
X0185873Y0054504D01*
X0185873Y0052302D01*
X0069931Y0036367D02*
X0067431Y0033867D01*
X0067431Y0028867D01*
X0069931Y0026367D01*
X0058573Y0015800D02*
X0057573Y0016800D01*
X0049573Y0016800D01*
X0048573Y0015800D01*
X0047573Y0016800D01*
X0039573Y0016800D01*
X0038573Y0015800D01*
X0038573Y0007800D01*
X0039573Y0006800D01*
X0047573Y0006800D01*
X0048573Y0007800D01*
X0049573Y0006800D01*
X0057573Y0006800D01*
X0058573Y0007800D01*
X0058573Y0015800D01*
D14*
X0122982Y0014162D03*
X0122982Y0009438D03*
X0067982Y0269438D03*
X0067982Y0274162D03*
X0069163Y0279438D03*
X0069163Y0284162D03*
X0069163Y0289438D03*
X0069163Y0294162D03*
X0067982Y0299438D03*
X0067982Y0304162D03*
D15*
X0067982Y0301800D03*
X0069163Y0291800D03*
X0069163Y0281800D03*
X0067982Y0271800D03*
X0183573Y0306209D03*
X0273573Y0306209D03*
X0363573Y0306209D03*
X0122982Y0011800D03*
D16*
X0055108Y0023808D02*
X0051565Y0020265D01*
X0022037Y0020265D01*
X0022037Y0032469D01*
X0022037Y0041131D02*
X0022037Y0053335D01*
X0051565Y0053335D01*
X0055108Y0049792D01*
X0055108Y0041131D01*
X0055108Y0032469D02*
X0055108Y0023808D01*
X0053336Y0040934D02*
X0053229Y0041293D01*
X0053113Y0041648D01*
X0052988Y0042001D01*
X0052854Y0042351D01*
X0052712Y0042697D01*
X0052562Y0043040D01*
X0052404Y0043379D01*
X0052237Y0043714D01*
X0052062Y0044045D01*
X0051879Y0044371D01*
X0051688Y0044693D01*
X0051489Y0045011D01*
X0051283Y0045323D01*
X0051069Y0045630D01*
X0050848Y0045932D01*
X0050619Y0046228D01*
X0050384Y0046519D01*
X0050141Y0046804D01*
X0049891Y0047083D01*
X0049635Y0047356D01*
X0049372Y0047622D01*
X0049103Y0047882D01*
X0048827Y0048135D01*
X0048546Y0048382D01*
X0048258Y0048621D01*
X0047965Y0048854D01*
X0047666Y0049079D01*
X0047362Y0049297D01*
X0047052Y0049507D01*
X0046738Y0049710D01*
X0046418Y0049905D01*
X0046094Y0050092D01*
X0045766Y0050272D01*
X0045433Y0050443D01*
X0045096Y0050606D01*
X0044755Y0050761D01*
X0044411Y0050907D01*
X0044063Y0051045D01*
X0043712Y0051175D01*
X0043358Y0051296D01*
X0043001Y0051408D01*
X0042641Y0051511D01*
X0042279Y0051606D01*
X0041915Y0051692D01*
X0041548Y0051769D01*
X0041180Y0051837D01*
X0040811Y0051896D01*
X0040440Y0051946D01*
X0040068Y0051987D01*
X0039695Y0052019D01*
X0039321Y0052042D01*
X0038947Y0052055D01*
X0038573Y0052060D01*
X0038199Y0052055D01*
X0037825Y0052042D01*
X0037451Y0052019D01*
X0037078Y0051987D01*
X0036706Y0051946D01*
X0036335Y0051896D01*
X0035966Y0051837D01*
X0035598Y0051769D01*
X0035231Y0051692D01*
X0034867Y0051606D01*
X0034505Y0051511D01*
X0034145Y0051408D01*
X0033788Y0051296D01*
X0033434Y0051175D01*
X0033083Y0051045D01*
X0032735Y0050907D01*
X0032391Y0050761D01*
X0032050Y0050606D01*
X0031713Y0050443D01*
X0031380Y0050272D01*
X0031052Y0050092D01*
X0030728Y0049905D01*
X0030408Y0049710D01*
X0030094Y0049507D01*
X0029784Y0049297D01*
X0029480Y0049079D01*
X0029181Y0048854D01*
X0028888Y0048621D01*
X0028600Y0048382D01*
X0028319Y0048135D01*
X0028043Y0047882D01*
X0027774Y0047622D01*
X0027511Y0047356D01*
X0027255Y0047083D01*
X0027005Y0046804D01*
X0026762Y0046519D01*
X0026527Y0046228D01*
X0026298Y0045932D01*
X0026077Y0045630D01*
X0025863Y0045323D01*
X0025657Y0045011D01*
X0025458Y0044693D01*
X0025267Y0044371D01*
X0025084Y0044045D01*
X0024909Y0043714D01*
X0024742Y0043379D01*
X0024584Y0043040D01*
X0024434Y0042697D01*
X0024292Y0042351D01*
X0024158Y0042001D01*
X0024033Y0041648D01*
X0023917Y0041293D01*
X0023810Y0040934D01*
X0023810Y0032666D02*
X0023917Y0032307D01*
X0024033Y0031952D01*
X0024158Y0031599D01*
X0024292Y0031249D01*
X0024434Y0030903D01*
X0024584Y0030560D01*
X0024742Y0030221D01*
X0024909Y0029886D01*
X0025084Y0029555D01*
X0025267Y0029229D01*
X0025458Y0028907D01*
X0025657Y0028589D01*
X0025863Y0028277D01*
X0026077Y0027970D01*
X0026298Y0027668D01*
X0026527Y0027372D01*
X0026762Y0027081D01*
X0027005Y0026796D01*
X0027255Y0026517D01*
X0027511Y0026244D01*
X0027774Y0025978D01*
X0028043Y0025718D01*
X0028319Y0025465D01*
X0028600Y0025218D01*
X0028888Y0024979D01*
X0029181Y0024746D01*
X0029480Y0024521D01*
X0029784Y0024303D01*
X0030094Y0024093D01*
X0030408Y0023890D01*
X0030728Y0023695D01*
X0031052Y0023508D01*
X0031380Y0023328D01*
X0031713Y0023157D01*
X0032050Y0022994D01*
X0032391Y0022839D01*
X0032735Y0022693D01*
X0033083Y0022555D01*
X0033434Y0022425D01*
X0033788Y0022304D01*
X0034145Y0022192D01*
X0034505Y0022089D01*
X0034867Y0021994D01*
X0035231Y0021908D01*
X0035598Y0021831D01*
X0035966Y0021763D01*
X0036335Y0021704D01*
X0036706Y0021654D01*
X0037078Y0021613D01*
X0037451Y0021581D01*
X0037825Y0021558D01*
X0038199Y0021545D01*
X0038573Y0021540D01*
X0038947Y0021545D01*
X0039321Y0021558D01*
X0039695Y0021581D01*
X0040068Y0021613D01*
X0040440Y0021654D01*
X0040811Y0021704D01*
X0041180Y0021763D01*
X0041548Y0021831D01*
X0041915Y0021908D01*
X0042279Y0021994D01*
X0042641Y0022089D01*
X0043001Y0022192D01*
X0043358Y0022304D01*
X0043712Y0022425D01*
X0044063Y0022555D01*
X0044411Y0022693D01*
X0044755Y0022839D01*
X0045096Y0022994D01*
X0045433Y0023157D01*
X0045766Y0023328D01*
X0046094Y0023508D01*
X0046418Y0023695D01*
X0046738Y0023890D01*
X0047052Y0024093D01*
X0047362Y0024303D01*
X0047666Y0024521D01*
X0047965Y0024746D01*
X0048258Y0024979D01*
X0048546Y0025218D01*
X0048827Y0025465D01*
X0049103Y0025718D01*
X0049372Y0025978D01*
X0049635Y0026244D01*
X0049891Y0026517D01*
X0050141Y0026796D01*
X0050384Y0027081D01*
X0050619Y0027372D01*
X0050848Y0027668D01*
X0051069Y0027970D01*
X0051283Y0028277D01*
X0051489Y0028589D01*
X0051688Y0028907D01*
X0051879Y0029229D01*
X0052062Y0029555D01*
X0052237Y0029886D01*
X0052404Y0030221D01*
X0052562Y0030560D01*
X0052712Y0030903D01*
X0052854Y0031249D01*
X0052988Y0031599D01*
X0053113Y0031952D01*
X0053229Y0032307D01*
X0053336Y0032666D01*
X0053533Y0057942D02*
X0024793Y0057942D01*
X0024793Y0066997D01*
X0024793Y0077627D02*
X0024793Y0086682D01*
X0053533Y0086682D01*
X0053533Y0077627D01*
X0053533Y0066997D02*
X0053533Y0057942D01*
X0200108Y0061446D02*
X0200108Y0034654D01*
X0217037Y0034654D01*
X0217037Y0061446D01*
X0200108Y0061446D01*
X0305108Y0052154D02*
X0322037Y0052154D01*
X0322037Y0078946D01*
X0305108Y0078946D01*
X0305108Y0052154D01*
X0305108Y0092154D02*
X0322037Y0092154D01*
X0322037Y0118946D01*
X0305108Y0118946D01*
X0305108Y0092154D01*
X0217037Y0162154D02*
X0200108Y0162154D01*
X0200108Y0188946D01*
X0217037Y0188946D01*
X0217037Y0162154D01*
X0215573Y0227550D02*
X0215513Y0227552D01*
X0215452Y0227557D01*
X0215393Y0227566D01*
X0215334Y0227579D01*
X0215275Y0227595D01*
X0215218Y0227615D01*
X0215163Y0227638D01*
X0215108Y0227665D01*
X0215056Y0227694D01*
X0215005Y0227727D01*
X0214956Y0227763D01*
X0214910Y0227801D01*
X0214866Y0227843D01*
X0214824Y0227887D01*
X0214786Y0227933D01*
X0214750Y0227982D01*
X0214717Y0228033D01*
X0214688Y0228085D01*
X0214661Y0228140D01*
X0214638Y0228195D01*
X0214618Y0228252D01*
X0214602Y0228311D01*
X0214589Y0228370D01*
X0214580Y0228429D01*
X0214575Y0228490D01*
X0214573Y0228550D01*
X0214573Y0235050D01*
X0214575Y0235110D01*
X0214580Y0235171D01*
X0214589Y0235230D01*
X0214602Y0235289D01*
X0214618Y0235348D01*
X0214638Y0235405D01*
X0214661Y0235460D01*
X0214688Y0235515D01*
X0214717Y0235567D01*
X0214750Y0235618D01*
X0214786Y0235667D01*
X0214824Y0235713D01*
X0214866Y0235757D01*
X0214910Y0235799D01*
X0214956Y0235837D01*
X0215005Y0235873D01*
X0215056Y0235906D01*
X0215108Y0235935D01*
X0215163Y0235962D01*
X0215218Y0235985D01*
X0215275Y0236005D01*
X0215334Y0236021D01*
X0215393Y0236034D01*
X0215452Y0236043D01*
X0215513Y0236048D01*
X0215573Y0236050D01*
X0221573Y0236050D02*
X0221633Y0236048D01*
X0221694Y0236043D01*
X0221753Y0236034D01*
X0221812Y0236021D01*
X0221871Y0236005D01*
X0221928Y0235985D01*
X0221983Y0235962D01*
X0222038Y0235935D01*
X0222090Y0235906D01*
X0222141Y0235873D01*
X0222190Y0235837D01*
X0222236Y0235799D01*
X0222280Y0235757D01*
X0222322Y0235713D01*
X0222360Y0235667D01*
X0222396Y0235618D01*
X0222429Y0235567D01*
X0222458Y0235515D01*
X0222485Y0235460D01*
X0222508Y0235405D01*
X0222528Y0235348D01*
X0222544Y0235289D01*
X0222557Y0235230D01*
X0222566Y0235171D01*
X0222571Y0235110D01*
X0222573Y0235050D01*
X0222573Y0228550D01*
X0222571Y0228490D01*
X0222566Y0228429D01*
X0222557Y0228370D01*
X0222544Y0228311D01*
X0222528Y0228252D01*
X0222508Y0228195D01*
X0222485Y0228140D01*
X0222458Y0228085D01*
X0222429Y0228033D01*
X0222396Y0227982D01*
X0222360Y0227933D01*
X0222322Y0227887D01*
X0222280Y0227843D01*
X0222236Y0227801D01*
X0222190Y0227763D01*
X0222141Y0227727D01*
X0222090Y0227694D01*
X0222038Y0227665D01*
X0221983Y0227638D01*
X0221928Y0227615D01*
X0221871Y0227595D01*
X0221812Y0227579D01*
X0221753Y0227566D01*
X0221694Y0227557D01*
X0221633Y0227552D01*
X0221573Y0227550D01*
X0224573Y0228550D02*
X0224573Y0235050D01*
X0224575Y0235110D01*
X0224580Y0235171D01*
X0224589Y0235230D01*
X0224602Y0235289D01*
X0224618Y0235348D01*
X0224638Y0235405D01*
X0224661Y0235460D01*
X0224688Y0235515D01*
X0224717Y0235567D01*
X0224750Y0235618D01*
X0224786Y0235667D01*
X0224824Y0235713D01*
X0224866Y0235757D01*
X0224910Y0235799D01*
X0224956Y0235837D01*
X0225005Y0235873D01*
X0225056Y0235906D01*
X0225108Y0235935D01*
X0225163Y0235962D01*
X0225218Y0235985D01*
X0225275Y0236005D01*
X0225334Y0236021D01*
X0225393Y0236034D01*
X0225452Y0236043D01*
X0225513Y0236048D01*
X0225573Y0236050D01*
X0231573Y0236050D02*
X0231633Y0236048D01*
X0231694Y0236043D01*
X0231753Y0236034D01*
X0231812Y0236021D01*
X0231871Y0236005D01*
X0231928Y0235985D01*
X0231983Y0235962D01*
X0232038Y0235935D01*
X0232090Y0235906D01*
X0232141Y0235873D01*
X0232190Y0235837D01*
X0232236Y0235799D01*
X0232280Y0235757D01*
X0232322Y0235713D01*
X0232360Y0235667D01*
X0232396Y0235618D01*
X0232429Y0235567D01*
X0232458Y0235515D01*
X0232485Y0235460D01*
X0232508Y0235405D01*
X0232528Y0235348D01*
X0232544Y0235289D01*
X0232557Y0235230D01*
X0232566Y0235171D01*
X0232571Y0235110D01*
X0232573Y0235050D01*
X0232573Y0228550D01*
X0232571Y0228490D01*
X0232566Y0228429D01*
X0232557Y0228370D01*
X0232544Y0228311D01*
X0232528Y0228252D01*
X0232508Y0228195D01*
X0232485Y0228140D01*
X0232458Y0228085D01*
X0232429Y0228033D01*
X0232396Y0227982D01*
X0232360Y0227933D01*
X0232322Y0227887D01*
X0232280Y0227843D01*
X0232236Y0227801D01*
X0232190Y0227763D01*
X0232141Y0227727D01*
X0232090Y0227694D01*
X0232038Y0227665D01*
X0231983Y0227638D01*
X0231928Y0227615D01*
X0231871Y0227595D01*
X0231812Y0227579D01*
X0231753Y0227566D01*
X0231694Y0227557D01*
X0231633Y0227552D01*
X0231573Y0227550D01*
X0234636Y0228650D02*
X0234636Y0234950D01*
X0234635Y0234950D02*
X0234650Y0235011D01*
X0234668Y0235072D01*
X0234690Y0235131D01*
X0234715Y0235189D01*
X0234745Y0235244D01*
X0234777Y0235298D01*
X0234813Y0235350D01*
X0234852Y0235400D01*
X0234894Y0235447D01*
X0234939Y0235491D01*
X0234987Y0235532D01*
X0235037Y0235570D01*
X0235090Y0235605D01*
X0235144Y0235637D01*
X0235201Y0235665D01*
X0235259Y0235690D01*
X0235318Y0235711D01*
X0235379Y0235728D01*
X0235441Y0235741D01*
X0235503Y0235750D01*
X0235566Y0235756D01*
X0235629Y0235757D01*
X0235692Y0235754D01*
X0235755Y0235748D01*
X0235817Y0235738D01*
X0241329Y0235738D02*
X0241389Y0235748D01*
X0241449Y0235754D01*
X0241510Y0235757D01*
X0241570Y0235756D01*
X0241631Y0235752D01*
X0241691Y0235743D01*
X0241750Y0235732D01*
X0241809Y0235716D01*
X0241867Y0235697D01*
X0241923Y0235675D01*
X0241978Y0235649D01*
X0242031Y0235620D01*
X0242083Y0235588D01*
X0242132Y0235553D01*
X0242180Y0235515D01*
X0242224Y0235474D01*
X0242267Y0235431D01*
X0242306Y0235385D01*
X0242343Y0235337D01*
X0242377Y0235286D01*
X0242407Y0235234D01*
X0242435Y0235180D01*
X0242459Y0235124D01*
X0242480Y0235067D01*
X0242497Y0235009D01*
X0242511Y0234950D01*
X0242510Y0234950D02*
X0242510Y0228650D01*
X0242511Y0228650D02*
X0242497Y0228591D01*
X0242480Y0228533D01*
X0242459Y0228476D01*
X0242435Y0228420D01*
X0242407Y0228366D01*
X0242377Y0228314D01*
X0242343Y0228263D01*
X0242306Y0228215D01*
X0242267Y0228169D01*
X0242224Y0228126D01*
X0242180Y0228085D01*
X0242132Y0228047D01*
X0242083Y0228012D01*
X0242031Y0227980D01*
X0241978Y0227951D01*
X0241923Y0227925D01*
X0241867Y0227903D01*
X0241809Y0227884D01*
X0241750Y0227868D01*
X0241691Y0227857D01*
X0241631Y0227848D01*
X0241570Y0227844D01*
X0241510Y0227843D01*
X0241449Y0227846D01*
X0241389Y0227852D01*
X0241329Y0227862D01*
X0235817Y0227862D02*
X0235755Y0227852D01*
X0235692Y0227846D01*
X0235629Y0227843D01*
X0235566Y0227844D01*
X0235503Y0227850D01*
X0235441Y0227859D01*
X0235379Y0227872D01*
X0235318Y0227889D01*
X0235259Y0227910D01*
X0235201Y0227935D01*
X0235144Y0227963D01*
X0235090Y0227995D01*
X0235037Y0228030D01*
X0234987Y0228068D01*
X0234939Y0228109D01*
X0234894Y0228153D01*
X0234852Y0228200D01*
X0234813Y0228250D01*
X0234777Y0228302D01*
X0234745Y0228356D01*
X0234715Y0228411D01*
X0234690Y0228469D01*
X0234668Y0228528D01*
X0234650Y0228589D01*
X0234635Y0228650D01*
X0225573Y0227550D02*
X0225513Y0227552D01*
X0225452Y0227557D01*
X0225393Y0227566D01*
X0225334Y0227579D01*
X0225275Y0227595D01*
X0225218Y0227615D01*
X0225163Y0227638D01*
X0225108Y0227665D01*
X0225056Y0227694D01*
X0225005Y0227727D01*
X0224956Y0227763D01*
X0224910Y0227801D01*
X0224866Y0227843D01*
X0224824Y0227887D01*
X0224786Y0227933D01*
X0224750Y0227982D01*
X0224717Y0228033D01*
X0224688Y0228085D01*
X0224661Y0228140D01*
X0224638Y0228195D01*
X0224618Y0228252D01*
X0224602Y0228311D01*
X0224589Y0228370D01*
X0224580Y0228429D01*
X0224575Y0228490D01*
X0224573Y0228550D01*
X0234124Y0248808D02*
X0230581Y0252351D01*
X0230581Y0257469D01*
X0230581Y0266131D02*
X0230581Y0271249D01*
X0234124Y0274792D01*
X0256565Y0274792D01*
X0256565Y0266131D01*
X0256565Y0257469D02*
X0256565Y0248808D01*
X0234124Y0248808D01*
X0231959Y0265540D02*
X0232053Y0265821D01*
X0232155Y0266100D01*
X0232263Y0266376D01*
X0232378Y0266649D01*
X0232499Y0266920D01*
X0232627Y0267187D01*
X0232762Y0267452D01*
X0232903Y0267713D01*
X0233050Y0267970D01*
X0233203Y0268224D01*
X0233363Y0268474D01*
X0233528Y0268720D01*
X0233700Y0268962D01*
X0233877Y0269199D01*
X0234060Y0269433D01*
X0234249Y0269661D01*
X0234444Y0269886D01*
X0234643Y0270105D01*
X0234848Y0270319D01*
X0235058Y0270528D01*
X0235273Y0270732D01*
X0235494Y0270931D01*
X0235718Y0271125D01*
X0235948Y0271312D01*
X0236182Y0271495D01*
X0236420Y0271671D01*
X0236663Y0271842D01*
X0236909Y0272006D01*
X0237160Y0272165D01*
X0237414Y0272317D01*
X0237673Y0272463D01*
X0237934Y0272603D01*
X0238199Y0272737D01*
X0238467Y0272864D01*
X0238738Y0272984D01*
X0239012Y0273098D01*
X0239288Y0273205D01*
X0239568Y0273305D01*
X0239849Y0273398D01*
X0240133Y0273485D01*
X0240418Y0273564D01*
X0240706Y0273637D01*
X0240995Y0273703D01*
X0241286Y0273761D01*
X0241578Y0273812D01*
X0241871Y0273857D01*
X0242165Y0273894D01*
X0242460Y0273924D01*
X0242756Y0273947D01*
X0243052Y0273962D01*
X0243349Y0273970D01*
X0243645Y0273972D01*
X0243942Y0273965D01*
X0244238Y0273952D01*
X0244534Y0273932D01*
X0244829Y0273904D01*
X0245123Y0273869D01*
X0245417Y0273827D01*
X0245709Y0273777D01*
X0246001Y0273721D01*
X0246290Y0273658D01*
X0246578Y0273587D01*
X0246865Y0273510D01*
X0247149Y0273425D01*
X0247431Y0273334D01*
X0247711Y0273236D01*
X0247988Y0273131D01*
X0248263Y0273019D01*
X0248535Y0272901D01*
X0248804Y0272776D01*
X0249070Y0272644D01*
X0249332Y0272507D01*
X0249591Y0272362D01*
X0249847Y0272212D01*
X0250099Y0272055D01*
X0250347Y0271892D01*
X0250590Y0271724D01*
X0250830Y0271549D01*
X0251065Y0271368D01*
X0251296Y0271182D01*
X0251523Y0270991D01*
X0251744Y0270794D01*
X0251961Y0270591D01*
X0252172Y0270383D01*
X0252379Y0270171D01*
X0252580Y0269953D01*
X0252776Y0269730D01*
X0252967Y0269503D01*
X0253152Y0269271D01*
X0253331Y0269035D01*
X0253504Y0268794D01*
X0253671Y0268549D01*
X0253833Y0268300D01*
X0253988Y0268048D01*
X0254137Y0267791D01*
X0254280Y0267532D01*
X0254417Y0267268D01*
X0254547Y0267002D01*
X0254670Y0266732D01*
X0254787Y0266460D01*
X0254897Y0266184D01*
X0255000Y0265906D01*
X0255097Y0265626D01*
X0255187Y0265343D01*
X0255187Y0258060D02*
X0255093Y0257779D01*
X0254991Y0257500D01*
X0254883Y0257224D01*
X0254768Y0256951D01*
X0254647Y0256680D01*
X0254519Y0256413D01*
X0254384Y0256148D01*
X0254243Y0255887D01*
X0254096Y0255630D01*
X0253943Y0255376D01*
X0253783Y0255126D01*
X0253618Y0254880D01*
X0253446Y0254638D01*
X0253269Y0254401D01*
X0253086Y0254167D01*
X0252897Y0253939D01*
X0252702Y0253714D01*
X0252503Y0253495D01*
X0252298Y0253281D01*
X0252088Y0253072D01*
X0251873Y0252868D01*
X0251652Y0252669D01*
X0251428Y0252475D01*
X0251198Y0252288D01*
X0250964Y0252105D01*
X0250726Y0251929D01*
X0250483Y0251758D01*
X0250237Y0251594D01*
X0249986Y0251435D01*
X0249732Y0251283D01*
X0249473Y0251137D01*
X0249212Y0250997D01*
X0248947Y0250863D01*
X0248679Y0250736D01*
X0248408Y0250616D01*
X0248134Y0250502D01*
X0247858Y0250395D01*
X0247578Y0250295D01*
X0247297Y0250202D01*
X0247013Y0250115D01*
X0246728Y0250036D01*
X0246440Y0249963D01*
X0246151Y0249897D01*
X0245860Y0249839D01*
X0245568Y0249788D01*
X0245275Y0249743D01*
X0244981Y0249706D01*
X0244686Y0249676D01*
X0244390Y0249653D01*
X0244094Y0249638D01*
X0243797Y0249630D01*
X0243501Y0249628D01*
X0243204Y0249635D01*
X0242908Y0249648D01*
X0242612Y0249668D01*
X0242317Y0249696D01*
X0242023Y0249731D01*
X0241729Y0249773D01*
X0241437Y0249823D01*
X0241145Y0249879D01*
X0240856Y0249942D01*
X0240568Y0250013D01*
X0240281Y0250090D01*
X0239997Y0250175D01*
X0239715Y0250266D01*
X0239435Y0250364D01*
X0239158Y0250469D01*
X0238883Y0250581D01*
X0238611Y0250699D01*
X0238342Y0250824D01*
X0238076Y0250956D01*
X0237814Y0251093D01*
X0237555Y0251238D01*
X0237299Y0251388D01*
X0237047Y0251545D01*
X0236799Y0251708D01*
X0236556Y0251876D01*
X0236316Y0252051D01*
X0236081Y0252232D01*
X0235850Y0252418D01*
X0235623Y0252609D01*
X0235402Y0252806D01*
X0235185Y0253009D01*
X0234974Y0253217D01*
X0234767Y0253429D01*
X0234566Y0253647D01*
X0234370Y0253870D01*
X0234179Y0254097D01*
X0233994Y0254329D01*
X0233815Y0254565D01*
X0233642Y0254806D01*
X0233475Y0255051D01*
X0233313Y0255300D01*
X0233158Y0255552D01*
X0233009Y0255809D01*
X0232866Y0256068D01*
X0232729Y0256332D01*
X0232599Y0256598D01*
X0232476Y0256868D01*
X0232359Y0257140D01*
X0232249Y0257416D01*
X0232146Y0257694D01*
X0232049Y0257974D01*
X0231959Y0258257D01*
X0231073Y0296800D02*
X0226073Y0296800D01*
X0223573Y0299300D01*
X0223573Y0304300D01*
X0226073Y0306800D01*
X0231073Y0306800D01*
X0233573Y0304300D01*
X0236073Y0306800D01*
X0241073Y0306800D01*
X0243573Y0304300D01*
X0246073Y0306800D01*
X0251073Y0306800D01*
X0253573Y0304300D01*
X0256073Y0306800D01*
X0261073Y0306800D01*
X0263573Y0304300D01*
X0263573Y0299300D01*
X0261073Y0296800D01*
X0256073Y0296800D01*
X0253573Y0299300D01*
X0251073Y0296800D01*
X0246073Y0296800D01*
X0243573Y0299300D01*
X0241073Y0296800D01*
X0236073Y0296800D01*
X0233573Y0299300D01*
X0231073Y0296800D01*
X0173573Y0299300D02*
X0173573Y0304300D01*
X0171073Y0306800D01*
X0166073Y0306800D01*
X0163573Y0304300D01*
X0161073Y0306800D01*
X0156073Y0306800D01*
X0153573Y0304300D01*
X0151073Y0306800D01*
X0146073Y0306800D01*
X0143573Y0304300D01*
X0141073Y0306800D01*
X0136073Y0306800D01*
X0133573Y0304300D01*
X0133573Y0299300D01*
X0136073Y0296800D01*
X0141073Y0296800D01*
X0143573Y0299300D01*
X0146073Y0296800D01*
X0151073Y0296800D01*
X0153573Y0299300D01*
X0156073Y0296800D01*
X0161073Y0296800D01*
X0163573Y0299300D01*
X0166073Y0296800D01*
X0171073Y0296800D01*
X0173573Y0299300D01*
X0141565Y0274792D02*
X0141565Y0266131D01*
X0141565Y0274792D02*
X0119124Y0274792D01*
X0115581Y0271249D01*
X0115581Y0266131D01*
X0115581Y0257469D02*
X0115581Y0252351D01*
X0119124Y0248808D01*
X0141565Y0248808D01*
X0141565Y0257469D01*
X0140187Y0258060D02*
X0140093Y0257779D01*
X0139991Y0257500D01*
X0139883Y0257224D01*
X0139768Y0256951D01*
X0139647Y0256680D01*
X0139519Y0256413D01*
X0139384Y0256148D01*
X0139243Y0255887D01*
X0139096Y0255630D01*
X0138943Y0255376D01*
X0138783Y0255126D01*
X0138618Y0254880D01*
X0138446Y0254638D01*
X0138269Y0254401D01*
X0138086Y0254167D01*
X0137897Y0253939D01*
X0137702Y0253714D01*
X0137503Y0253495D01*
X0137298Y0253281D01*
X0137088Y0253072D01*
X0136873Y0252868D01*
X0136652Y0252669D01*
X0136428Y0252475D01*
X0136198Y0252288D01*
X0135964Y0252105D01*
X0135726Y0251929D01*
X0135483Y0251758D01*
X0135237Y0251594D01*
X0134986Y0251435D01*
X0134732Y0251283D01*
X0134473Y0251137D01*
X0134212Y0250997D01*
X0133947Y0250863D01*
X0133679Y0250736D01*
X0133408Y0250616D01*
X0133134Y0250502D01*
X0132858Y0250395D01*
X0132578Y0250295D01*
X0132297Y0250202D01*
X0132013Y0250115D01*
X0131728Y0250036D01*
X0131440Y0249963D01*
X0131151Y0249897D01*
X0130860Y0249839D01*
X0130568Y0249788D01*
X0130275Y0249743D01*
X0129981Y0249706D01*
X0129686Y0249676D01*
X0129390Y0249653D01*
X0129094Y0249638D01*
X0128797Y0249630D01*
X0128501Y0249628D01*
X0128204Y0249635D01*
X0127908Y0249648D01*
X0127612Y0249668D01*
X0127317Y0249696D01*
X0127023Y0249731D01*
X0126729Y0249773D01*
X0126437Y0249823D01*
X0126145Y0249879D01*
X0125856Y0249942D01*
X0125568Y0250013D01*
X0125281Y0250090D01*
X0124997Y0250175D01*
X0124715Y0250266D01*
X0124435Y0250364D01*
X0124158Y0250469D01*
X0123883Y0250581D01*
X0123611Y0250699D01*
X0123342Y0250824D01*
X0123076Y0250956D01*
X0122814Y0251093D01*
X0122555Y0251238D01*
X0122299Y0251388D01*
X0122047Y0251545D01*
X0121799Y0251708D01*
X0121556Y0251876D01*
X0121316Y0252051D01*
X0121081Y0252232D01*
X0120850Y0252418D01*
X0120623Y0252609D01*
X0120402Y0252806D01*
X0120185Y0253009D01*
X0119974Y0253217D01*
X0119767Y0253429D01*
X0119566Y0253647D01*
X0119370Y0253870D01*
X0119179Y0254097D01*
X0118994Y0254329D01*
X0118815Y0254565D01*
X0118642Y0254806D01*
X0118475Y0255051D01*
X0118313Y0255300D01*
X0118158Y0255552D01*
X0118009Y0255809D01*
X0117866Y0256068D01*
X0117729Y0256332D01*
X0117599Y0256598D01*
X0117476Y0256868D01*
X0117359Y0257140D01*
X0117249Y0257416D01*
X0117146Y0257694D01*
X0117049Y0257974D01*
X0116959Y0258257D01*
X0116959Y0265540D02*
X0117053Y0265821D01*
X0117155Y0266100D01*
X0117263Y0266376D01*
X0117378Y0266649D01*
X0117499Y0266920D01*
X0117627Y0267187D01*
X0117762Y0267452D01*
X0117903Y0267713D01*
X0118050Y0267970D01*
X0118203Y0268224D01*
X0118363Y0268474D01*
X0118528Y0268720D01*
X0118700Y0268962D01*
X0118877Y0269199D01*
X0119060Y0269433D01*
X0119249Y0269661D01*
X0119444Y0269886D01*
X0119643Y0270105D01*
X0119848Y0270319D01*
X0120058Y0270528D01*
X0120273Y0270732D01*
X0120494Y0270931D01*
X0120718Y0271125D01*
X0120948Y0271312D01*
X0121182Y0271495D01*
X0121420Y0271671D01*
X0121663Y0271842D01*
X0121909Y0272006D01*
X0122160Y0272165D01*
X0122414Y0272317D01*
X0122673Y0272463D01*
X0122934Y0272603D01*
X0123199Y0272737D01*
X0123467Y0272864D01*
X0123738Y0272984D01*
X0124012Y0273098D01*
X0124288Y0273205D01*
X0124568Y0273305D01*
X0124849Y0273398D01*
X0125133Y0273485D01*
X0125418Y0273564D01*
X0125706Y0273637D01*
X0125995Y0273703D01*
X0126286Y0273761D01*
X0126578Y0273812D01*
X0126871Y0273857D01*
X0127165Y0273894D01*
X0127460Y0273924D01*
X0127756Y0273947D01*
X0128052Y0273962D01*
X0128349Y0273970D01*
X0128645Y0273972D01*
X0128942Y0273965D01*
X0129238Y0273952D01*
X0129534Y0273932D01*
X0129829Y0273904D01*
X0130123Y0273869D01*
X0130417Y0273827D01*
X0130709Y0273777D01*
X0131001Y0273721D01*
X0131290Y0273658D01*
X0131578Y0273587D01*
X0131865Y0273510D01*
X0132149Y0273425D01*
X0132431Y0273334D01*
X0132711Y0273236D01*
X0132988Y0273131D01*
X0133263Y0273019D01*
X0133535Y0272901D01*
X0133804Y0272776D01*
X0134070Y0272644D01*
X0134332Y0272507D01*
X0134591Y0272362D01*
X0134847Y0272212D01*
X0135099Y0272055D01*
X0135347Y0271892D01*
X0135590Y0271724D01*
X0135830Y0271549D01*
X0136065Y0271368D01*
X0136296Y0271182D01*
X0136523Y0270991D01*
X0136744Y0270794D01*
X0136961Y0270591D01*
X0137172Y0270383D01*
X0137379Y0270171D01*
X0137580Y0269953D01*
X0137776Y0269730D01*
X0137967Y0269503D01*
X0138152Y0269271D01*
X0138331Y0269035D01*
X0138504Y0268794D01*
X0138671Y0268549D01*
X0138833Y0268300D01*
X0138988Y0268048D01*
X0139137Y0267791D01*
X0139280Y0267532D01*
X0139417Y0267268D01*
X0139547Y0267002D01*
X0139670Y0266732D01*
X0139787Y0266460D01*
X0139897Y0266184D01*
X0140000Y0265906D01*
X0140097Y0265626D01*
X0140187Y0265343D01*
X0141573Y0236050D02*
X0141633Y0236048D01*
X0141694Y0236043D01*
X0141753Y0236034D01*
X0141812Y0236021D01*
X0141871Y0236005D01*
X0141928Y0235985D01*
X0141983Y0235962D01*
X0142038Y0235935D01*
X0142090Y0235906D01*
X0142141Y0235873D01*
X0142190Y0235837D01*
X0142236Y0235799D01*
X0142280Y0235757D01*
X0142322Y0235713D01*
X0142360Y0235667D01*
X0142396Y0235618D01*
X0142429Y0235567D01*
X0142458Y0235515D01*
X0142485Y0235460D01*
X0142508Y0235405D01*
X0142528Y0235348D01*
X0142544Y0235289D01*
X0142557Y0235230D01*
X0142566Y0235171D01*
X0142571Y0235110D01*
X0142573Y0235050D01*
X0142573Y0228550D01*
X0142571Y0228490D01*
X0142566Y0228429D01*
X0142557Y0228370D01*
X0142544Y0228311D01*
X0142528Y0228252D01*
X0142508Y0228195D01*
X0142485Y0228140D01*
X0142458Y0228085D01*
X0142429Y0228033D01*
X0142396Y0227982D01*
X0142360Y0227933D01*
X0142322Y0227887D01*
X0142280Y0227843D01*
X0142236Y0227801D01*
X0142190Y0227763D01*
X0142141Y0227727D01*
X0142090Y0227694D01*
X0142038Y0227665D01*
X0141983Y0227638D01*
X0141928Y0227615D01*
X0141871Y0227595D01*
X0141812Y0227579D01*
X0141753Y0227566D01*
X0141694Y0227557D01*
X0141633Y0227552D01*
X0141573Y0227550D01*
X0144636Y0228650D02*
X0144636Y0234950D01*
X0144635Y0234950D02*
X0144650Y0235011D01*
X0144668Y0235072D01*
X0144690Y0235131D01*
X0144715Y0235189D01*
X0144745Y0235244D01*
X0144777Y0235298D01*
X0144813Y0235350D01*
X0144852Y0235400D01*
X0144894Y0235447D01*
X0144939Y0235491D01*
X0144987Y0235532D01*
X0145037Y0235570D01*
X0145090Y0235605D01*
X0145144Y0235637D01*
X0145201Y0235665D01*
X0145259Y0235690D01*
X0145318Y0235711D01*
X0145379Y0235728D01*
X0145441Y0235741D01*
X0145503Y0235750D01*
X0145566Y0235756D01*
X0145629Y0235757D01*
X0145692Y0235754D01*
X0145755Y0235748D01*
X0145817Y0235738D01*
X0151329Y0235738D02*
X0151389Y0235748D01*
X0151449Y0235754D01*
X0151510Y0235757D01*
X0151570Y0235756D01*
X0151631Y0235752D01*
X0151691Y0235743D01*
X0151750Y0235732D01*
X0151809Y0235716D01*
X0151867Y0235697D01*
X0151923Y0235675D01*
X0151978Y0235649D01*
X0152031Y0235620D01*
X0152083Y0235588D01*
X0152132Y0235553D01*
X0152180Y0235515D01*
X0152224Y0235474D01*
X0152267Y0235431D01*
X0152306Y0235385D01*
X0152343Y0235337D01*
X0152377Y0235286D01*
X0152407Y0235234D01*
X0152435Y0235180D01*
X0152459Y0235124D01*
X0152480Y0235067D01*
X0152497Y0235009D01*
X0152511Y0234950D01*
X0152510Y0234950D02*
X0152510Y0228650D01*
X0152511Y0228650D02*
X0152497Y0228591D01*
X0152480Y0228533D01*
X0152459Y0228476D01*
X0152435Y0228420D01*
X0152407Y0228366D01*
X0152377Y0228314D01*
X0152343Y0228263D01*
X0152306Y0228215D01*
X0152267Y0228169D01*
X0152224Y0228126D01*
X0152180Y0228085D01*
X0152132Y0228047D01*
X0152083Y0228012D01*
X0152031Y0227980D01*
X0151978Y0227951D01*
X0151923Y0227925D01*
X0151867Y0227903D01*
X0151809Y0227884D01*
X0151750Y0227868D01*
X0151691Y0227857D01*
X0151631Y0227848D01*
X0151570Y0227844D01*
X0151510Y0227843D01*
X0151449Y0227846D01*
X0151389Y0227852D01*
X0151329Y0227862D01*
X0145817Y0227862D02*
X0145755Y0227852D01*
X0145692Y0227846D01*
X0145629Y0227843D01*
X0145566Y0227844D01*
X0145503Y0227850D01*
X0145441Y0227859D01*
X0145379Y0227872D01*
X0145318Y0227889D01*
X0145259Y0227910D01*
X0145201Y0227935D01*
X0145144Y0227963D01*
X0145090Y0227995D01*
X0145037Y0228030D01*
X0144987Y0228068D01*
X0144939Y0228109D01*
X0144894Y0228153D01*
X0144852Y0228200D01*
X0144813Y0228250D01*
X0144777Y0228302D01*
X0144745Y0228356D01*
X0144715Y0228411D01*
X0144690Y0228469D01*
X0144668Y0228528D01*
X0144650Y0228589D01*
X0144635Y0228650D01*
X0135573Y0227550D02*
X0135513Y0227552D01*
X0135452Y0227557D01*
X0135393Y0227566D01*
X0135334Y0227579D01*
X0135275Y0227595D01*
X0135218Y0227615D01*
X0135163Y0227638D01*
X0135108Y0227665D01*
X0135056Y0227694D01*
X0135005Y0227727D01*
X0134956Y0227763D01*
X0134910Y0227801D01*
X0134866Y0227843D01*
X0134824Y0227887D01*
X0134786Y0227933D01*
X0134750Y0227982D01*
X0134717Y0228033D01*
X0134688Y0228085D01*
X0134661Y0228140D01*
X0134638Y0228195D01*
X0134618Y0228252D01*
X0134602Y0228311D01*
X0134589Y0228370D01*
X0134580Y0228429D01*
X0134575Y0228490D01*
X0134573Y0228550D01*
X0134573Y0235050D01*
X0134575Y0235110D01*
X0134580Y0235171D01*
X0134589Y0235230D01*
X0134602Y0235289D01*
X0134618Y0235348D01*
X0134638Y0235405D01*
X0134661Y0235460D01*
X0134688Y0235515D01*
X0134717Y0235567D01*
X0134750Y0235618D01*
X0134786Y0235667D01*
X0134824Y0235713D01*
X0134866Y0235757D01*
X0134910Y0235799D01*
X0134956Y0235837D01*
X0135005Y0235873D01*
X0135056Y0235906D01*
X0135108Y0235935D01*
X0135163Y0235962D01*
X0135218Y0235985D01*
X0135275Y0236005D01*
X0135334Y0236021D01*
X0135393Y0236034D01*
X0135452Y0236043D01*
X0135513Y0236048D01*
X0135573Y0236050D01*
X0132573Y0235050D02*
X0132573Y0228550D01*
X0132571Y0228490D01*
X0132566Y0228429D01*
X0132557Y0228370D01*
X0132544Y0228311D01*
X0132528Y0228252D01*
X0132508Y0228195D01*
X0132485Y0228140D01*
X0132458Y0228085D01*
X0132429Y0228033D01*
X0132396Y0227982D01*
X0132360Y0227933D01*
X0132322Y0227887D01*
X0132280Y0227843D01*
X0132236Y0227801D01*
X0132190Y0227763D01*
X0132141Y0227727D01*
X0132090Y0227694D01*
X0132038Y0227665D01*
X0131983Y0227638D01*
X0131928Y0227615D01*
X0131871Y0227595D01*
X0131812Y0227579D01*
X0131753Y0227566D01*
X0131694Y0227557D01*
X0131633Y0227552D01*
X0131573Y0227550D01*
X0125573Y0227550D02*
X0125513Y0227552D01*
X0125452Y0227557D01*
X0125393Y0227566D01*
X0125334Y0227579D01*
X0125275Y0227595D01*
X0125218Y0227615D01*
X0125163Y0227638D01*
X0125108Y0227665D01*
X0125056Y0227694D01*
X0125005Y0227727D01*
X0124956Y0227763D01*
X0124910Y0227801D01*
X0124866Y0227843D01*
X0124824Y0227887D01*
X0124786Y0227933D01*
X0124750Y0227982D01*
X0124717Y0228033D01*
X0124688Y0228085D01*
X0124661Y0228140D01*
X0124638Y0228195D01*
X0124618Y0228252D01*
X0124602Y0228311D01*
X0124589Y0228370D01*
X0124580Y0228429D01*
X0124575Y0228490D01*
X0124573Y0228550D01*
X0124573Y0235050D01*
X0124575Y0235110D01*
X0124580Y0235171D01*
X0124589Y0235230D01*
X0124602Y0235289D01*
X0124618Y0235348D01*
X0124638Y0235405D01*
X0124661Y0235460D01*
X0124688Y0235515D01*
X0124717Y0235567D01*
X0124750Y0235618D01*
X0124786Y0235667D01*
X0124824Y0235713D01*
X0124866Y0235757D01*
X0124910Y0235799D01*
X0124956Y0235837D01*
X0125005Y0235873D01*
X0125056Y0235906D01*
X0125108Y0235935D01*
X0125163Y0235962D01*
X0125218Y0235985D01*
X0125275Y0236005D01*
X0125334Y0236021D01*
X0125393Y0236034D01*
X0125452Y0236043D01*
X0125513Y0236048D01*
X0125573Y0236050D01*
X0131573Y0236050D02*
X0131633Y0236048D01*
X0131694Y0236043D01*
X0131753Y0236034D01*
X0131812Y0236021D01*
X0131871Y0236005D01*
X0131928Y0235985D01*
X0131983Y0235962D01*
X0132038Y0235935D01*
X0132090Y0235906D01*
X0132141Y0235873D01*
X0132190Y0235837D01*
X0132236Y0235799D01*
X0132280Y0235757D01*
X0132322Y0235713D01*
X0132360Y0235667D01*
X0132396Y0235618D01*
X0132429Y0235567D01*
X0132458Y0235515D01*
X0132485Y0235460D01*
X0132508Y0235405D01*
X0132528Y0235348D01*
X0132544Y0235289D01*
X0132557Y0235230D01*
X0132566Y0235171D01*
X0132571Y0235110D01*
X0132573Y0235050D01*
X0055620Y0215973D02*
X0055620Y0203769D01*
X0055620Y0195107D02*
X0055620Y0182902D01*
X0026093Y0182902D01*
X0022549Y0186446D01*
X0022549Y0195107D01*
X0022549Y0203769D02*
X0022549Y0212430D01*
X0026093Y0215973D01*
X0055620Y0215973D01*
X0053848Y0195304D02*
X0053741Y0194945D01*
X0053625Y0194590D01*
X0053500Y0194237D01*
X0053366Y0193887D01*
X0053224Y0193541D01*
X0053074Y0193198D01*
X0052916Y0192859D01*
X0052749Y0192524D01*
X0052574Y0192193D01*
X0052391Y0191867D01*
X0052200Y0191545D01*
X0052001Y0191227D01*
X0051795Y0190915D01*
X0051581Y0190608D01*
X0051360Y0190306D01*
X0051131Y0190010D01*
X0050896Y0189719D01*
X0050653Y0189434D01*
X0050403Y0189155D01*
X0050147Y0188882D01*
X0049884Y0188616D01*
X0049615Y0188356D01*
X0049339Y0188103D01*
X0049058Y0187856D01*
X0048770Y0187617D01*
X0048477Y0187384D01*
X0048178Y0187159D01*
X0047874Y0186941D01*
X0047564Y0186731D01*
X0047250Y0186528D01*
X0046930Y0186333D01*
X0046606Y0186146D01*
X0046278Y0185966D01*
X0045945Y0185795D01*
X0045608Y0185632D01*
X0045267Y0185477D01*
X0044923Y0185331D01*
X0044575Y0185193D01*
X0044224Y0185063D01*
X0043870Y0184942D01*
X0043513Y0184830D01*
X0043153Y0184727D01*
X0042791Y0184632D01*
X0042427Y0184546D01*
X0042060Y0184469D01*
X0041692Y0184401D01*
X0041323Y0184342D01*
X0040952Y0184292D01*
X0040580Y0184251D01*
X0040207Y0184219D01*
X0039833Y0184196D01*
X0039459Y0184183D01*
X0039085Y0184178D01*
X0038711Y0184183D01*
X0038337Y0184196D01*
X0037963Y0184219D01*
X0037590Y0184251D01*
X0037218Y0184292D01*
X0036847Y0184342D01*
X0036478Y0184401D01*
X0036110Y0184469D01*
X0035743Y0184546D01*
X0035379Y0184632D01*
X0035017Y0184727D01*
X0034657Y0184830D01*
X0034300Y0184942D01*
X0033946Y0185063D01*
X0033595Y0185193D01*
X0033247Y0185331D01*
X0032903Y0185477D01*
X0032562Y0185632D01*
X0032225Y0185795D01*
X0031892Y0185966D01*
X0031564Y0186146D01*
X0031240Y0186333D01*
X0030920Y0186528D01*
X0030606Y0186731D01*
X0030296Y0186941D01*
X0029992Y0187159D01*
X0029693Y0187384D01*
X0029400Y0187617D01*
X0029112Y0187856D01*
X0028831Y0188103D01*
X0028555Y0188356D01*
X0028286Y0188616D01*
X0028023Y0188882D01*
X0027767Y0189155D01*
X0027517Y0189434D01*
X0027274Y0189719D01*
X0027039Y0190010D01*
X0026810Y0190306D01*
X0026589Y0190608D01*
X0026375Y0190915D01*
X0026169Y0191227D01*
X0025970Y0191545D01*
X0025779Y0191867D01*
X0025596Y0192193D01*
X0025421Y0192524D01*
X0025254Y0192859D01*
X0025096Y0193198D01*
X0024946Y0193541D01*
X0024804Y0193887D01*
X0024670Y0194237D01*
X0024545Y0194590D01*
X0024429Y0194945D01*
X0024322Y0195304D01*
X0024322Y0203571D02*
X0024429Y0203930D01*
X0024545Y0204285D01*
X0024670Y0204638D01*
X0024804Y0204988D01*
X0024946Y0205334D01*
X0025096Y0205677D01*
X0025254Y0206016D01*
X0025421Y0206351D01*
X0025596Y0206682D01*
X0025779Y0207008D01*
X0025970Y0207330D01*
X0026169Y0207648D01*
X0026375Y0207960D01*
X0026589Y0208267D01*
X0026810Y0208569D01*
X0027039Y0208865D01*
X0027274Y0209156D01*
X0027517Y0209441D01*
X0027767Y0209720D01*
X0028023Y0209993D01*
X0028286Y0210259D01*
X0028555Y0210519D01*
X0028831Y0210772D01*
X0029112Y0211019D01*
X0029400Y0211258D01*
X0029693Y0211491D01*
X0029992Y0211716D01*
X0030296Y0211934D01*
X0030606Y0212144D01*
X0030920Y0212347D01*
X0031240Y0212542D01*
X0031564Y0212729D01*
X0031892Y0212909D01*
X0032225Y0213080D01*
X0032562Y0213243D01*
X0032903Y0213398D01*
X0033247Y0213544D01*
X0033595Y0213682D01*
X0033946Y0213812D01*
X0034300Y0213933D01*
X0034657Y0214045D01*
X0035017Y0214148D01*
X0035379Y0214243D01*
X0035743Y0214329D01*
X0036110Y0214406D01*
X0036478Y0214474D01*
X0036847Y0214533D01*
X0037218Y0214583D01*
X0037590Y0214624D01*
X0037963Y0214656D01*
X0038337Y0214679D01*
X0038711Y0214692D01*
X0039085Y0214697D01*
X0039459Y0214692D01*
X0039833Y0214679D01*
X0040207Y0214656D01*
X0040580Y0214624D01*
X0040952Y0214583D01*
X0041323Y0214533D01*
X0041692Y0214474D01*
X0042060Y0214406D01*
X0042427Y0214329D01*
X0042791Y0214243D01*
X0043153Y0214148D01*
X0043513Y0214045D01*
X0043870Y0213933D01*
X0044224Y0213812D01*
X0044575Y0213682D01*
X0044923Y0213544D01*
X0045267Y0213398D01*
X0045608Y0213243D01*
X0045945Y0213080D01*
X0046278Y0212909D01*
X0046606Y0212729D01*
X0046930Y0212542D01*
X0047250Y0212347D01*
X0047564Y0212144D01*
X0047874Y0211934D01*
X0048178Y0211716D01*
X0048477Y0211491D01*
X0048770Y0211258D01*
X0049058Y0211019D01*
X0049339Y0210772D01*
X0049615Y0210519D01*
X0049884Y0210259D01*
X0050147Y0209993D01*
X0050403Y0209720D01*
X0050653Y0209441D01*
X0050896Y0209156D01*
X0051131Y0208865D01*
X0051360Y0208569D01*
X0051581Y0208267D01*
X0051795Y0207960D01*
X0052001Y0207648D01*
X0052200Y0207330D01*
X0052391Y0207008D01*
X0052574Y0206682D01*
X0052749Y0206351D01*
X0052916Y0206016D01*
X0053074Y0205677D01*
X0053224Y0205334D01*
X0053366Y0204988D01*
X0053500Y0204638D01*
X0053625Y0204285D01*
X0053741Y0203930D01*
X0053848Y0203571D01*
X0037502Y0279800D02*
X0029573Y0279800D01*
X0021573Y0283300D02*
X0021573Y0300300D01*
X0029573Y0303800D02*
X0037620Y0303800D01*
X0045573Y0300300D02*
X0045573Y0283300D01*
X0026573Y0291800D02*
X0026575Y0291972D01*
X0026581Y0292143D01*
X0026592Y0292315D01*
X0026607Y0292486D01*
X0026626Y0292657D01*
X0026649Y0292827D01*
X0026676Y0292997D01*
X0026708Y0293166D01*
X0026743Y0293334D01*
X0026783Y0293501D01*
X0026827Y0293667D01*
X0026874Y0293832D01*
X0026926Y0293996D01*
X0026982Y0294158D01*
X0027042Y0294319D01*
X0027106Y0294479D01*
X0027174Y0294637D01*
X0027245Y0294793D01*
X0027320Y0294947D01*
X0027400Y0295100D01*
X0027482Y0295250D01*
X0027569Y0295399D01*
X0027659Y0295545D01*
X0027753Y0295689D01*
X0027850Y0295831D01*
X0027951Y0295970D01*
X0028055Y0296107D01*
X0028162Y0296241D01*
X0028273Y0296372D01*
X0028386Y0296501D01*
X0028503Y0296627D01*
X0028623Y0296750D01*
X0028746Y0296870D01*
X0028872Y0296987D01*
X0029001Y0297100D01*
X0029132Y0297211D01*
X0029266Y0297318D01*
X0029403Y0297422D01*
X0029542Y0297523D01*
X0029684Y0297620D01*
X0029828Y0297714D01*
X0029974Y0297804D01*
X0030123Y0297891D01*
X0030273Y0297973D01*
X0030426Y0298053D01*
X0030580Y0298128D01*
X0030736Y0298199D01*
X0030894Y0298267D01*
X0031054Y0298331D01*
X0031215Y0298391D01*
X0031377Y0298447D01*
X0031541Y0298499D01*
X0031706Y0298546D01*
X0031872Y0298590D01*
X0032039Y0298630D01*
X0032207Y0298665D01*
X0032376Y0298697D01*
X0032546Y0298724D01*
X0032716Y0298747D01*
X0032887Y0298766D01*
X0033058Y0298781D01*
X0033230Y0298792D01*
X0033401Y0298798D01*
X0033573Y0298800D01*
X0033745Y0298798D01*
X0033916Y0298792D01*
X0034088Y0298781D01*
X0034259Y0298766D01*
X0034430Y0298747D01*
X0034600Y0298724D01*
X0034770Y0298697D01*
X0034939Y0298665D01*
X0035107Y0298630D01*
X0035274Y0298590D01*
X0035440Y0298546D01*
X0035605Y0298499D01*
X0035769Y0298447D01*
X0035931Y0298391D01*
X0036092Y0298331D01*
X0036252Y0298267D01*
X0036410Y0298199D01*
X0036566Y0298128D01*
X0036720Y0298053D01*
X0036873Y0297973D01*
X0037023Y0297891D01*
X0037172Y0297804D01*
X0037318Y0297714D01*
X0037462Y0297620D01*
X0037604Y0297523D01*
X0037743Y0297422D01*
X0037880Y0297318D01*
X0038014Y0297211D01*
X0038145Y0297100D01*
X0038274Y0296987D01*
X0038400Y0296870D01*
X0038523Y0296750D01*
X0038643Y0296627D01*
X0038760Y0296501D01*
X0038873Y0296372D01*
X0038984Y0296241D01*
X0039091Y0296107D01*
X0039195Y0295970D01*
X0039296Y0295831D01*
X0039393Y0295689D01*
X0039487Y0295545D01*
X0039577Y0295399D01*
X0039664Y0295250D01*
X0039746Y0295100D01*
X0039826Y0294947D01*
X0039901Y0294793D01*
X0039972Y0294637D01*
X0040040Y0294479D01*
X0040104Y0294319D01*
X0040164Y0294158D01*
X0040220Y0293996D01*
X0040272Y0293832D01*
X0040319Y0293667D01*
X0040363Y0293501D01*
X0040403Y0293334D01*
X0040438Y0293166D01*
X0040470Y0292997D01*
X0040497Y0292827D01*
X0040520Y0292657D01*
X0040539Y0292486D01*
X0040554Y0292315D01*
X0040565Y0292143D01*
X0040571Y0291972D01*
X0040573Y0291800D01*
X0040571Y0291628D01*
X0040565Y0291457D01*
X0040554Y0291285D01*
X0040539Y0291114D01*
X0040520Y0290943D01*
X0040497Y0290773D01*
X0040470Y0290603D01*
X0040438Y0290434D01*
X0040403Y0290266D01*
X0040363Y0290099D01*
X0040319Y0289933D01*
X0040272Y0289768D01*
X0040220Y0289604D01*
X0040164Y0289442D01*
X0040104Y0289281D01*
X0040040Y0289121D01*
X0039972Y0288963D01*
X0039901Y0288807D01*
X0039826Y0288653D01*
X0039746Y0288500D01*
X0039664Y0288350D01*
X0039577Y0288201D01*
X0039487Y0288055D01*
X0039393Y0287911D01*
X0039296Y0287769D01*
X0039195Y0287630D01*
X0039091Y0287493D01*
X0038984Y0287359D01*
X0038873Y0287228D01*
X0038760Y0287099D01*
X0038643Y0286973D01*
X0038523Y0286850D01*
X0038400Y0286730D01*
X0038274Y0286613D01*
X0038145Y0286500D01*
X0038014Y0286389D01*
X0037880Y0286282D01*
X0037743Y0286178D01*
X0037604Y0286077D01*
X0037462Y0285980D01*
X0037318Y0285886D01*
X0037172Y0285796D01*
X0037023Y0285709D01*
X0036873Y0285627D01*
X0036720Y0285547D01*
X0036566Y0285472D01*
X0036410Y0285401D01*
X0036252Y0285333D01*
X0036092Y0285269D01*
X0035931Y0285209D01*
X0035769Y0285153D01*
X0035605Y0285101D01*
X0035440Y0285054D01*
X0035274Y0285010D01*
X0035107Y0284970D01*
X0034939Y0284935D01*
X0034770Y0284903D01*
X0034600Y0284876D01*
X0034430Y0284853D01*
X0034259Y0284834D01*
X0034088Y0284819D01*
X0033916Y0284808D01*
X0033745Y0284802D01*
X0033573Y0284800D01*
X0033401Y0284802D01*
X0033230Y0284808D01*
X0033058Y0284819D01*
X0032887Y0284834D01*
X0032716Y0284853D01*
X0032546Y0284876D01*
X0032376Y0284903D01*
X0032207Y0284935D01*
X0032039Y0284970D01*
X0031872Y0285010D01*
X0031706Y0285054D01*
X0031541Y0285101D01*
X0031377Y0285153D01*
X0031215Y0285209D01*
X0031054Y0285269D01*
X0030894Y0285333D01*
X0030736Y0285401D01*
X0030580Y0285472D01*
X0030426Y0285547D01*
X0030273Y0285627D01*
X0030123Y0285709D01*
X0029974Y0285796D01*
X0029828Y0285886D01*
X0029684Y0285980D01*
X0029542Y0286077D01*
X0029403Y0286178D01*
X0029266Y0286282D01*
X0029132Y0286389D01*
X0029001Y0286500D01*
X0028872Y0286613D01*
X0028746Y0286730D01*
X0028623Y0286850D01*
X0028503Y0286973D01*
X0028386Y0287099D01*
X0028273Y0287228D01*
X0028162Y0287359D01*
X0028055Y0287493D01*
X0027951Y0287630D01*
X0027850Y0287769D01*
X0027753Y0287911D01*
X0027659Y0288055D01*
X0027569Y0288201D01*
X0027482Y0288350D01*
X0027400Y0288500D01*
X0027320Y0288653D01*
X0027245Y0288807D01*
X0027174Y0288963D01*
X0027106Y0289121D01*
X0027042Y0289281D01*
X0026982Y0289442D01*
X0026926Y0289604D01*
X0026874Y0289768D01*
X0026827Y0289933D01*
X0026783Y0290099D01*
X0026743Y0290266D01*
X0026708Y0290434D01*
X0026676Y0290603D01*
X0026649Y0290773D01*
X0026626Y0290943D01*
X0026607Y0291114D01*
X0026592Y0291285D01*
X0026581Y0291457D01*
X0026575Y0291628D01*
X0026573Y0291800D01*
X0305581Y0271249D02*
X0305581Y0266131D01*
X0305581Y0271249D02*
X0309124Y0274792D01*
X0331565Y0274792D01*
X0331565Y0266131D01*
X0331565Y0257469D02*
X0331565Y0248808D01*
X0309124Y0248808D01*
X0305581Y0252351D01*
X0305581Y0257469D01*
X0306959Y0265540D02*
X0307053Y0265821D01*
X0307155Y0266100D01*
X0307263Y0266376D01*
X0307378Y0266649D01*
X0307499Y0266920D01*
X0307627Y0267187D01*
X0307762Y0267452D01*
X0307903Y0267713D01*
X0308050Y0267970D01*
X0308203Y0268224D01*
X0308363Y0268474D01*
X0308528Y0268720D01*
X0308700Y0268962D01*
X0308877Y0269199D01*
X0309060Y0269433D01*
X0309249Y0269661D01*
X0309444Y0269886D01*
X0309643Y0270105D01*
X0309848Y0270319D01*
X0310058Y0270528D01*
X0310273Y0270732D01*
X0310494Y0270931D01*
X0310718Y0271125D01*
X0310948Y0271312D01*
X0311182Y0271495D01*
X0311420Y0271671D01*
X0311663Y0271842D01*
X0311909Y0272006D01*
X0312160Y0272165D01*
X0312414Y0272317D01*
X0312673Y0272463D01*
X0312934Y0272603D01*
X0313199Y0272737D01*
X0313467Y0272864D01*
X0313738Y0272984D01*
X0314012Y0273098D01*
X0314288Y0273205D01*
X0314568Y0273305D01*
X0314849Y0273398D01*
X0315133Y0273485D01*
X0315418Y0273564D01*
X0315706Y0273637D01*
X0315995Y0273703D01*
X0316286Y0273761D01*
X0316578Y0273812D01*
X0316871Y0273857D01*
X0317165Y0273894D01*
X0317460Y0273924D01*
X0317756Y0273947D01*
X0318052Y0273962D01*
X0318349Y0273970D01*
X0318645Y0273972D01*
X0318942Y0273965D01*
X0319238Y0273952D01*
X0319534Y0273932D01*
X0319829Y0273904D01*
X0320123Y0273869D01*
X0320417Y0273827D01*
X0320709Y0273777D01*
X0321001Y0273721D01*
X0321290Y0273658D01*
X0321578Y0273587D01*
X0321865Y0273510D01*
X0322149Y0273425D01*
X0322431Y0273334D01*
X0322711Y0273236D01*
X0322988Y0273131D01*
X0323263Y0273019D01*
X0323535Y0272901D01*
X0323804Y0272776D01*
X0324070Y0272644D01*
X0324332Y0272507D01*
X0324591Y0272362D01*
X0324847Y0272212D01*
X0325099Y0272055D01*
X0325347Y0271892D01*
X0325590Y0271724D01*
X0325830Y0271549D01*
X0326065Y0271368D01*
X0326296Y0271182D01*
X0326523Y0270991D01*
X0326744Y0270794D01*
X0326961Y0270591D01*
X0327172Y0270383D01*
X0327379Y0270171D01*
X0327580Y0269953D01*
X0327776Y0269730D01*
X0327967Y0269503D01*
X0328152Y0269271D01*
X0328331Y0269035D01*
X0328504Y0268794D01*
X0328671Y0268549D01*
X0328833Y0268300D01*
X0328988Y0268048D01*
X0329137Y0267791D01*
X0329280Y0267532D01*
X0329417Y0267268D01*
X0329547Y0267002D01*
X0329670Y0266732D01*
X0329787Y0266460D01*
X0329897Y0266184D01*
X0330000Y0265906D01*
X0330097Y0265626D01*
X0330187Y0265343D01*
X0330187Y0258060D02*
X0330093Y0257779D01*
X0329991Y0257500D01*
X0329883Y0257224D01*
X0329768Y0256951D01*
X0329647Y0256680D01*
X0329519Y0256413D01*
X0329384Y0256148D01*
X0329243Y0255887D01*
X0329096Y0255630D01*
X0328943Y0255376D01*
X0328783Y0255126D01*
X0328618Y0254880D01*
X0328446Y0254638D01*
X0328269Y0254401D01*
X0328086Y0254167D01*
X0327897Y0253939D01*
X0327702Y0253714D01*
X0327503Y0253495D01*
X0327298Y0253281D01*
X0327088Y0253072D01*
X0326873Y0252868D01*
X0326652Y0252669D01*
X0326428Y0252475D01*
X0326198Y0252288D01*
X0325964Y0252105D01*
X0325726Y0251929D01*
X0325483Y0251758D01*
X0325237Y0251594D01*
X0324986Y0251435D01*
X0324732Y0251283D01*
X0324473Y0251137D01*
X0324212Y0250997D01*
X0323947Y0250863D01*
X0323679Y0250736D01*
X0323408Y0250616D01*
X0323134Y0250502D01*
X0322858Y0250395D01*
X0322578Y0250295D01*
X0322297Y0250202D01*
X0322013Y0250115D01*
X0321728Y0250036D01*
X0321440Y0249963D01*
X0321151Y0249897D01*
X0320860Y0249839D01*
X0320568Y0249788D01*
X0320275Y0249743D01*
X0319981Y0249706D01*
X0319686Y0249676D01*
X0319390Y0249653D01*
X0319094Y0249638D01*
X0318797Y0249630D01*
X0318501Y0249628D01*
X0318204Y0249635D01*
X0317908Y0249648D01*
X0317612Y0249668D01*
X0317317Y0249696D01*
X0317023Y0249731D01*
X0316729Y0249773D01*
X0316437Y0249823D01*
X0316145Y0249879D01*
X0315856Y0249942D01*
X0315568Y0250013D01*
X0315281Y0250090D01*
X0314997Y0250175D01*
X0314715Y0250266D01*
X0314435Y0250364D01*
X0314158Y0250469D01*
X0313883Y0250581D01*
X0313611Y0250699D01*
X0313342Y0250824D01*
X0313076Y0250956D01*
X0312814Y0251093D01*
X0312555Y0251238D01*
X0312299Y0251388D01*
X0312047Y0251545D01*
X0311799Y0251708D01*
X0311556Y0251876D01*
X0311316Y0252051D01*
X0311081Y0252232D01*
X0310850Y0252418D01*
X0310623Y0252609D01*
X0310402Y0252806D01*
X0310185Y0253009D01*
X0309974Y0253217D01*
X0309767Y0253429D01*
X0309566Y0253647D01*
X0309370Y0253870D01*
X0309179Y0254097D01*
X0308994Y0254329D01*
X0308815Y0254565D01*
X0308642Y0254806D01*
X0308475Y0255051D01*
X0308313Y0255300D01*
X0308158Y0255552D01*
X0308009Y0255809D01*
X0307866Y0256068D01*
X0307729Y0256332D01*
X0307599Y0256598D01*
X0307476Y0256868D01*
X0307359Y0257140D01*
X0307249Y0257416D01*
X0307146Y0257694D01*
X0307049Y0257974D01*
X0306959Y0258257D01*
X0305573Y0236050D02*
X0305513Y0236048D01*
X0305452Y0236043D01*
X0305393Y0236034D01*
X0305334Y0236021D01*
X0305275Y0236005D01*
X0305218Y0235985D01*
X0305163Y0235962D01*
X0305108Y0235935D01*
X0305056Y0235906D01*
X0305005Y0235873D01*
X0304956Y0235837D01*
X0304910Y0235799D01*
X0304866Y0235757D01*
X0304824Y0235713D01*
X0304786Y0235667D01*
X0304750Y0235618D01*
X0304717Y0235567D01*
X0304688Y0235515D01*
X0304661Y0235460D01*
X0304638Y0235405D01*
X0304618Y0235348D01*
X0304602Y0235289D01*
X0304589Y0235230D01*
X0304580Y0235171D01*
X0304575Y0235110D01*
X0304573Y0235050D01*
X0304573Y0228550D01*
X0304575Y0228490D01*
X0304580Y0228429D01*
X0304589Y0228370D01*
X0304602Y0228311D01*
X0304618Y0228252D01*
X0304638Y0228195D01*
X0304661Y0228140D01*
X0304688Y0228085D01*
X0304717Y0228033D01*
X0304750Y0227982D01*
X0304786Y0227933D01*
X0304824Y0227887D01*
X0304866Y0227843D01*
X0304910Y0227801D01*
X0304956Y0227763D01*
X0305005Y0227727D01*
X0305056Y0227694D01*
X0305108Y0227665D01*
X0305163Y0227638D01*
X0305218Y0227615D01*
X0305275Y0227595D01*
X0305334Y0227579D01*
X0305393Y0227566D01*
X0305452Y0227557D01*
X0305513Y0227552D01*
X0305573Y0227550D01*
X0311573Y0227550D02*
X0311633Y0227552D01*
X0311694Y0227557D01*
X0311753Y0227566D01*
X0311812Y0227579D01*
X0311871Y0227595D01*
X0311928Y0227615D01*
X0311983Y0227638D01*
X0312038Y0227665D01*
X0312090Y0227694D01*
X0312141Y0227727D01*
X0312190Y0227763D01*
X0312236Y0227801D01*
X0312280Y0227843D01*
X0312322Y0227887D01*
X0312360Y0227933D01*
X0312396Y0227982D01*
X0312429Y0228033D01*
X0312458Y0228085D01*
X0312485Y0228140D01*
X0312508Y0228195D01*
X0312528Y0228252D01*
X0312544Y0228311D01*
X0312557Y0228370D01*
X0312566Y0228429D01*
X0312571Y0228490D01*
X0312573Y0228550D01*
X0312573Y0235050D01*
X0312571Y0235110D01*
X0312566Y0235171D01*
X0312557Y0235230D01*
X0312544Y0235289D01*
X0312528Y0235348D01*
X0312508Y0235405D01*
X0312485Y0235460D01*
X0312458Y0235515D01*
X0312429Y0235567D01*
X0312396Y0235618D01*
X0312360Y0235667D01*
X0312322Y0235713D01*
X0312280Y0235757D01*
X0312236Y0235799D01*
X0312190Y0235837D01*
X0312141Y0235873D01*
X0312090Y0235906D01*
X0312038Y0235935D01*
X0311983Y0235962D01*
X0311928Y0235985D01*
X0311871Y0236005D01*
X0311812Y0236021D01*
X0311753Y0236034D01*
X0311694Y0236043D01*
X0311633Y0236048D01*
X0311573Y0236050D01*
X0314573Y0235050D02*
X0314573Y0228550D01*
X0314575Y0228490D01*
X0314580Y0228429D01*
X0314589Y0228370D01*
X0314602Y0228311D01*
X0314618Y0228252D01*
X0314638Y0228195D01*
X0314661Y0228140D01*
X0314688Y0228085D01*
X0314717Y0228033D01*
X0314750Y0227982D01*
X0314786Y0227933D01*
X0314824Y0227887D01*
X0314866Y0227843D01*
X0314910Y0227801D01*
X0314956Y0227763D01*
X0315005Y0227727D01*
X0315056Y0227694D01*
X0315108Y0227665D01*
X0315163Y0227638D01*
X0315218Y0227615D01*
X0315275Y0227595D01*
X0315334Y0227579D01*
X0315393Y0227566D01*
X0315452Y0227557D01*
X0315513Y0227552D01*
X0315573Y0227550D01*
X0321573Y0227550D02*
X0321633Y0227552D01*
X0321694Y0227557D01*
X0321753Y0227566D01*
X0321812Y0227579D01*
X0321871Y0227595D01*
X0321928Y0227615D01*
X0321983Y0227638D01*
X0322038Y0227665D01*
X0322090Y0227694D01*
X0322141Y0227727D01*
X0322190Y0227763D01*
X0322236Y0227801D01*
X0322280Y0227843D01*
X0322322Y0227887D01*
X0322360Y0227933D01*
X0322396Y0227982D01*
X0322429Y0228033D01*
X0322458Y0228085D01*
X0322485Y0228140D01*
X0322508Y0228195D01*
X0322528Y0228252D01*
X0322544Y0228311D01*
X0322557Y0228370D01*
X0322566Y0228429D01*
X0322571Y0228490D01*
X0322573Y0228550D01*
X0322573Y0235050D01*
X0322571Y0235110D01*
X0322566Y0235171D01*
X0322557Y0235230D01*
X0322544Y0235289D01*
X0322528Y0235348D01*
X0322508Y0235405D01*
X0322485Y0235460D01*
X0322458Y0235515D01*
X0322429Y0235567D01*
X0322396Y0235618D01*
X0322360Y0235667D01*
X0322322Y0235713D01*
X0322280Y0235757D01*
X0322236Y0235799D01*
X0322190Y0235837D01*
X0322141Y0235873D01*
X0322090Y0235906D01*
X0322038Y0235935D01*
X0321983Y0235962D01*
X0321928Y0235985D01*
X0321871Y0236005D01*
X0321812Y0236021D01*
X0321753Y0236034D01*
X0321694Y0236043D01*
X0321633Y0236048D01*
X0321573Y0236050D01*
X0324636Y0234950D02*
X0324636Y0228650D01*
X0324635Y0228650D02*
X0324650Y0228589D01*
X0324668Y0228528D01*
X0324690Y0228469D01*
X0324715Y0228411D01*
X0324745Y0228356D01*
X0324777Y0228302D01*
X0324813Y0228250D01*
X0324852Y0228200D01*
X0324894Y0228153D01*
X0324939Y0228109D01*
X0324987Y0228068D01*
X0325037Y0228030D01*
X0325090Y0227995D01*
X0325144Y0227963D01*
X0325201Y0227935D01*
X0325259Y0227910D01*
X0325318Y0227889D01*
X0325379Y0227872D01*
X0325441Y0227859D01*
X0325503Y0227850D01*
X0325566Y0227844D01*
X0325629Y0227843D01*
X0325692Y0227846D01*
X0325755Y0227852D01*
X0325817Y0227862D01*
X0331329Y0227862D02*
X0331389Y0227852D01*
X0331449Y0227846D01*
X0331510Y0227843D01*
X0331570Y0227844D01*
X0331631Y0227848D01*
X0331691Y0227857D01*
X0331750Y0227868D01*
X0331809Y0227884D01*
X0331867Y0227903D01*
X0331923Y0227925D01*
X0331978Y0227951D01*
X0332031Y0227980D01*
X0332083Y0228012D01*
X0332132Y0228047D01*
X0332180Y0228085D01*
X0332224Y0228126D01*
X0332267Y0228169D01*
X0332306Y0228215D01*
X0332343Y0228263D01*
X0332377Y0228314D01*
X0332407Y0228366D01*
X0332435Y0228420D01*
X0332459Y0228476D01*
X0332480Y0228533D01*
X0332497Y0228591D01*
X0332511Y0228650D01*
X0332510Y0228650D02*
X0332510Y0234950D01*
X0332511Y0234950D02*
X0332497Y0235009D01*
X0332480Y0235067D01*
X0332459Y0235124D01*
X0332435Y0235180D01*
X0332407Y0235234D01*
X0332377Y0235286D01*
X0332343Y0235337D01*
X0332306Y0235385D01*
X0332267Y0235431D01*
X0332224Y0235474D01*
X0332180Y0235515D01*
X0332132Y0235553D01*
X0332083Y0235588D01*
X0332031Y0235620D01*
X0331978Y0235649D01*
X0331923Y0235675D01*
X0331867Y0235697D01*
X0331809Y0235716D01*
X0331750Y0235732D01*
X0331691Y0235743D01*
X0331631Y0235752D01*
X0331570Y0235756D01*
X0331510Y0235757D01*
X0331449Y0235754D01*
X0331389Y0235748D01*
X0331329Y0235738D01*
X0325817Y0235738D02*
X0325755Y0235748D01*
X0325692Y0235754D01*
X0325629Y0235757D01*
X0325566Y0235756D01*
X0325503Y0235750D01*
X0325441Y0235741D01*
X0325379Y0235728D01*
X0325318Y0235711D01*
X0325259Y0235690D01*
X0325201Y0235665D01*
X0325144Y0235637D01*
X0325090Y0235605D01*
X0325037Y0235570D01*
X0324987Y0235532D01*
X0324939Y0235491D01*
X0324894Y0235447D01*
X0324852Y0235400D01*
X0324813Y0235350D01*
X0324777Y0235298D01*
X0324745Y0235244D01*
X0324715Y0235189D01*
X0324690Y0235131D01*
X0324668Y0235072D01*
X0324650Y0235011D01*
X0324635Y0234950D01*
X0315573Y0236050D02*
X0315513Y0236048D01*
X0315452Y0236043D01*
X0315393Y0236034D01*
X0315334Y0236021D01*
X0315275Y0236005D01*
X0315218Y0235985D01*
X0315163Y0235962D01*
X0315108Y0235935D01*
X0315056Y0235906D01*
X0315005Y0235873D01*
X0314956Y0235837D01*
X0314910Y0235799D01*
X0314866Y0235757D01*
X0314824Y0235713D01*
X0314786Y0235667D01*
X0314750Y0235618D01*
X0314717Y0235567D01*
X0314688Y0235515D01*
X0314661Y0235460D01*
X0314638Y0235405D01*
X0314618Y0235348D01*
X0314602Y0235289D01*
X0314589Y0235230D01*
X0314580Y0235171D01*
X0314575Y0235110D01*
X0314573Y0235050D01*
X0316073Y0296800D02*
X0313573Y0299300D01*
X0313573Y0304300D01*
X0316073Y0306800D01*
X0321073Y0306800D01*
X0323573Y0304300D01*
X0326073Y0306800D01*
X0331073Y0306800D01*
X0333573Y0304300D01*
X0336073Y0306800D01*
X0341073Y0306800D01*
X0343573Y0304300D01*
X0346073Y0306800D01*
X0351073Y0306800D01*
X0353573Y0304300D01*
X0353573Y0299300D01*
X0351073Y0296800D01*
X0346073Y0296800D01*
X0343573Y0299300D01*
X0341073Y0296800D01*
X0336073Y0296800D01*
X0333573Y0299300D01*
X0331073Y0296800D01*
X0326073Y0296800D01*
X0323573Y0299300D01*
X0321073Y0296800D01*
X0316073Y0296800D01*
D17*
X0316538Y0286158D02*
X0316905Y0286158D01*
X0317272Y0285791D01*
X0317272Y0284690D01*
X0316905Y0283948D02*
X0316538Y0283948D01*
X0316171Y0283581D01*
X0316171Y0282847D01*
X0316538Y0282480D01*
X0316905Y0283948D02*
X0318373Y0282480D01*
X0318373Y0283948D01*
X0318373Y0284690D02*
X0318373Y0285791D01*
X0318006Y0286158D01*
X0317639Y0286158D01*
X0317272Y0285791D01*
X0316538Y0286158D02*
X0316171Y0285791D01*
X0316171Y0284690D01*
X0318373Y0284690D01*
X0326171Y0285424D02*
X0326905Y0286158D01*
X0328373Y0286158D01*
X0327272Y0286158D02*
X0327272Y0284690D01*
X0326905Y0284690D02*
X0326171Y0285424D01*
X0326905Y0284690D02*
X0328373Y0284690D01*
X0328373Y0283948D02*
X0328373Y0282480D01*
X0326905Y0283948D01*
X0326538Y0283948D01*
X0326171Y0283581D01*
X0326171Y0282847D01*
X0326538Y0282480D01*
X0336171Y0283214D02*
X0338373Y0283214D01*
X0338373Y0282480D02*
X0338373Y0283948D01*
X0338373Y0284690D02*
X0336905Y0284690D01*
X0336171Y0285424D01*
X0336905Y0286158D01*
X0338373Y0286158D01*
X0337272Y0286158D02*
X0337272Y0284690D01*
X0336171Y0283214D02*
X0336905Y0282480D01*
X0346171Y0283214D02*
X0348373Y0283214D01*
X0348373Y0282480D02*
X0348373Y0283948D01*
X0348373Y0284690D02*
X0348373Y0285791D01*
X0348006Y0286158D01*
X0347639Y0286158D01*
X0347272Y0285791D01*
X0347272Y0284690D01*
X0348373Y0284690D02*
X0346171Y0284690D01*
X0346171Y0285791D01*
X0346538Y0286158D01*
X0346905Y0286158D01*
X0347272Y0285791D01*
X0346171Y0283214D02*
X0346905Y0282480D01*
X0356171Y0282480D02*
X0356171Y0283581D01*
X0356538Y0283948D01*
X0358006Y0283948D01*
X0358373Y0283581D01*
X0358373Y0282480D01*
X0356171Y0282480D01*
X0356171Y0281738D02*
X0357639Y0281738D01*
X0358373Y0281004D01*
X0357639Y0280270D01*
X0356171Y0280270D01*
X0356171Y0284690D02*
X0356171Y0285791D01*
X0356538Y0286158D01*
X0358006Y0286158D01*
X0358373Y0285791D01*
X0358373Y0284690D01*
X0356171Y0284690D01*
X0366171Y0284690D02*
X0366171Y0285791D01*
X0366538Y0286158D01*
X0368006Y0286158D01*
X0368373Y0285791D01*
X0368373Y0284690D01*
X0366171Y0284690D01*
X0366171Y0283948D02*
X0368373Y0283948D01*
X0366171Y0282480D01*
X0368373Y0282480D01*
X0368006Y0281738D02*
X0367272Y0281738D01*
X0367272Y0281004D01*
X0368006Y0280270D02*
X0368373Y0280637D01*
X0368373Y0281371D01*
X0368006Y0281738D01*
X0368006Y0280270D02*
X0366538Y0280270D01*
X0366171Y0280637D01*
X0366171Y0281371D01*
X0366538Y0281738D01*
X0359872Y0254998D02*
X0360239Y0254631D01*
X0360239Y0253530D01*
X0360973Y0253530D02*
X0358771Y0253530D01*
X0358771Y0254631D01*
X0359138Y0254998D01*
X0359872Y0254998D01*
X0360973Y0252788D02*
X0360973Y0251320D01*
X0358771Y0251320D01*
X0358771Y0252788D01*
X0359872Y0252054D02*
X0359872Y0251320D01*
X0358771Y0250578D02*
X0358771Y0249110D01*
X0358771Y0249844D02*
X0360973Y0249844D01*
X0360606Y0248368D02*
X0360973Y0248001D01*
X0360973Y0247267D01*
X0360606Y0246900D01*
X0359872Y0247267D02*
X0359872Y0248001D01*
X0360239Y0248368D01*
X0360606Y0248368D01*
X0359872Y0247267D02*
X0359505Y0246900D01*
X0359138Y0246900D01*
X0358771Y0247267D01*
X0358771Y0248001D01*
X0359138Y0248368D01*
X0350973Y0248001D02*
X0350973Y0247267D01*
X0350606Y0246900D01*
X0349872Y0247267D02*
X0349872Y0248001D01*
X0350239Y0248368D01*
X0350606Y0248368D01*
X0350973Y0248001D01*
X0350973Y0249110D02*
X0350973Y0250578D01*
X0350973Y0251320D02*
X0348771Y0251320D01*
X0348771Y0252421D01*
X0349138Y0252788D01*
X0349872Y0252788D01*
X0350239Y0252421D01*
X0350239Y0251320D01*
X0350973Y0249110D02*
X0348771Y0249110D01*
X0349138Y0248368D02*
X0348771Y0248001D01*
X0348771Y0247267D01*
X0349138Y0246900D01*
X0349505Y0246900D01*
X0349872Y0247267D01*
X0340973Y0246900D02*
X0338771Y0246900D01*
X0338771Y0248001D01*
X0339138Y0248368D01*
X0339872Y0248368D01*
X0340239Y0248001D01*
X0340239Y0246900D01*
X0340239Y0247634D02*
X0340973Y0248368D01*
X0340606Y0249110D02*
X0340973Y0249477D01*
X0340973Y0250211D01*
X0340606Y0250578D01*
X0340239Y0250578D01*
X0339872Y0250211D01*
X0339872Y0249477D01*
X0339505Y0249110D01*
X0339138Y0249110D01*
X0338771Y0249477D01*
X0338771Y0250211D01*
X0339138Y0250578D01*
X0338771Y0251320D02*
X0338771Y0252788D01*
X0338771Y0252054D02*
X0340973Y0252054D01*
X0330973Y0252421D02*
X0330973Y0251687D01*
X0330606Y0251320D01*
X0330606Y0250578D02*
X0330973Y0250211D01*
X0330973Y0249477D01*
X0330606Y0249110D01*
X0329872Y0249477D02*
X0329872Y0250211D01*
X0330239Y0250578D01*
X0330606Y0250578D01*
X0329872Y0249477D02*
X0329505Y0249110D01*
X0329138Y0249110D01*
X0328771Y0249477D01*
X0328771Y0250211D01*
X0329138Y0250578D01*
X0329138Y0251320D02*
X0328771Y0251687D01*
X0328771Y0252421D01*
X0329138Y0252788D01*
X0329505Y0252788D01*
X0329872Y0252421D01*
X0330239Y0252788D01*
X0330606Y0252788D01*
X0330973Y0252421D01*
X0329872Y0252421D02*
X0329872Y0252054D01*
X0328771Y0248368D02*
X0330973Y0248368D01*
X0330973Y0246900D02*
X0328771Y0246900D01*
X0329505Y0247634D01*
X0328771Y0248368D01*
X0320973Y0248368D02*
X0318771Y0248368D01*
X0319505Y0247634D01*
X0318771Y0246900D01*
X0320973Y0246900D01*
X0320606Y0249110D02*
X0320973Y0249477D01*
X0320973Y0250211D01*
X0320606Y0250578D01*
X0320239Y0250578D01*
X0319872Y0250211D01*
X0319872Y0249477D01*
X0319505Y0249110D01*
X0319138Y0249110D01*
X0318771Y0249477D01*
X0318771Y0250211D01*
X0319138Y0250578D01*
X0319138Y0251320D02*
X0318771Y0251687D01*
X0318771Y0252421D01*
X0319138Y0252788D01*
X0319505Y0252788D01*
X0320973Y0251320D01*
X0320973Y0252788D01*
X0310973Y0252788D02*
X0310973Y0251320D01*
X0310973Y0252054D02*
X0308771Y0252054D01*
X0309505Y0251320D01*
X0309138Y0250578D02*
X0308771Y0250211D01*
X0308771Y0249477D01*
X0309138Y0249110D01*
X0309505Y0249110D01*
X0309872Y0249477D01*
X0309872Y0250211D01*
X0310239Y0250578D01*
X0310606Y0250578D01*
X0310973Y0250211D01*
X0310973Y0249477D01*
X0310606Y0249110D01*
X0310973Y0248368D02*
X0308771Y0248368D01*
X0309505Y0247634D01*
X0308771Y0246900D01*
X0310973Y0246900D01*
X0300973Y0246900D02*
X0300973Y0248368D01*
X0300973Y0249110D02*
X0298771Y0249110D01*
X0300973Y0250578D01*
X0298771Y0250578D01*
X0298771Y0248368D02*
X0298771Y0246900D01*
X0300973Y0246900D01*
X0299872Y0246900D02*
X0299872Y0247634D01*
X0280973Y0248001D02*
X0280606Y0248368D01*
X0279138Y0248368D01*
X0278771Y0248001D01*
X0278771Y0246900D01*
X0280973Y0246900D01*
X0280973Y0248001D01*
X0280973Y0249110D02*
X0280973Y0249844D01*
X0280973Y0249477D02*
X0278771Y0249477D01*
X0278771Y0249110D02*
X0278771Y0249844D01*
X0278771Y0250583D02*
X0278771Y0251684D01*
X0279138Y0252051D01*
X0279872Y0252051D01*
X0280239Y0251684D01*
X0280239Y0250583D01*
X0280973Y0250583D02*
X0278771Y0250583D01*
X0280239Y0251317D02*
X0280973Y0252051D01*
X0270973Y0251320D02*
X0270973Y0252788D01*
X0270973Y0253530D02*
X0268771Y0253530D01*
X0268771Y0254631D01*
X0269138Y0254998D01*
X0269872Y0254998D01*
X0270239Y0254631D01*
X0270239Y0253530D01*
X0269872Y0252054D02*
X0269872Y0251320D01*
X0268771Y0251320D02*
X0270973Y0251320D01*
X0270973Y0249844D02*
X0268771Y0249844D01*
X0268771Y0249110D02*
X0268771Y0250578D01*
X0268771Y0251320D02*
X0268771Y0252788D01*
X0269138Y0248368D02*
X0268771Y0248001D01*
X0268771Y0247267D01*
X0269138Y0246900D01*
X0269505Y0246900D01*
X0269872Y0247267D01*
X0269872Y0248001D01*
X0270239Y0248368D01*
X0270606Y0248368D01*
X0270973Y0248001D01*
X0270973Y0247267D01*
X0270606Y0246900D01*
X0260973Y0247267D02*
X0260606Y0246900D01*
X0260973Y0247267D02*
X0260973Y0248001D01*
X0260606Y0248368D01*
X0260239Y0248368D01*
X0259872Y0248001D01*
X0259872Y0247267D01*
X0259505Y0246900D01*
X0259138Y0246900D01*
X0258771Y0247267D01*
X0258771Y0248001D01*
X0259138Y0248368D01*
X0258771Y0249110D02*
X0260973Y0249110D01*
X0260973Y0250578D01*
X0260973Y0251320D02*
X0258771Y0251320D01*
X0258771Y0252421D01*
X0259138Y0252788D01*
X0259872Y0252788D01*
X0260239Y0252421D01*
X0260239Y0251320D01*
X0250973Y0252054D02*
X0248771Y0252054D01*
X0248771Y0251320D02*
X0248771Y0252788D01*
X0249138Y0250578D02*
X0248771Y0250211D01*
X0248771Y0249477D01*
X0249138Y0249110D01*
X0249505Y0249110D01*
X0249872Y0249477D01*
X0249872Y0250211D01*
X0250239Y0250578D01*
X0250606Y0250578D01*
X0250973Y0250211D01*
X0250973Y0249477D01*
X0250606Y0249110D01*
X0250973Y0248368D02*
X0250239Y0247634D01*
X0250239Y0248001D02*
X0250239Y0246900D01*
X0250973Y0246900D02*
X0248771Y0246900D01*
X0248771Y0248001D01*
X0249138Y0248368D01*
X0249872Y0248368D01*
X0250239Y0248001D01*
X0240973Y0248368D02*
X0238771Y0248368D01*
X0239505Y0247634D01*
X0238771Y0246900D01*
X0240973Y0246900D01*
X0240606Y0249110D02*
X0240973Y0249477D01*
X0240973Y0250211D01*
X0240606Y0250578D01*
X0240239Y0250578D01*
X0239872Y0250211D01*
X0239872Y0249477D01*
X0239505Y0249110D01*
X0239138Y0249110D01*
X0238771Y0249477D01*
X0238771Y0250211D01*
X0239138Y0250578D01*
X0239138Y0251320D02*
X0238771Y0251687D01*
X0238771Y0252421D01*
X0239138Y0252788D01*
X0239505Y0252788D01*
X0239872Y0252421D01*
X0240239Y0252788D01*
X0240606Y0252788D01*
X0240973Y0252421D01*
X0240973Y0251687D01*
X0240606Y0251320D01*
X0239872Y0252054D02*
X0239872Y0252421D01*
X0230973Y0252788D02*
X0230973Y0251320D01*
X0229505Y0252788D01*
X0229138Y0252788D01*
X0228771Y0252421D01*
X0228771Y0251687D01*
X0229138Y0251320D01*
X0229138Y0250578D02*
X0228771Y0250211D01*
X0228771Y0249477D01*
X0229138Y0249110D01*
X0229505Y0249110D01*
X0229872Y0249477D01*
X0229872Y0250211D01*
X0230239Y0250578D01*
X0230606Y0250578D01*
X0230973Y0250211D01*
X0230973Y0249477D01*
X0230606Y0249110D01*
X0230973Y0248368D02*
X0228771Y0248368D01*
X0229505Y0247634D01*
X0228771Y0246900D01*
X0230973Y0246900D01*
X0220973Y0246900D02*
X0218771Y0246900D01*
X0219505Y0247634D01*
X0218771Y0248368D01*
X0220973Y0248368D01*
X0220606Y0249110D02*
X0220973Y0249477D01*
X0220973Y0250211D01*
X0220606Y0250578D01*
X0220239Y0250578D01*
X0219872Y0250211D01*
X0219872Y0249477D01*
X0219505Y0249110D01*
X0219138Y0249110D01*
X0218771Y0249477D01*
X0218771Y0250211D01*
X0219138Y0250578D01*
X0219505Y0251320D02*
X0218771Y0252054D01*
X0220973Y0252054D01*
X0220973Y0251320D02*
X0220973Y0252788D01*
X0210973Y0250578D02*
X0208771Y0250578D01*
X0208771Y0249110D02*
X0210973Y0250578D01*
X0210973Y0249110D02*
X0208771Y0249110D01*
X0208771Y0248368D02*
X0208771Y0246900D01*
X0210973Y0246900D01*
X0210973Y0248368D01*
X0209872Y0247634D02*
X0209872Y0246900D01*
X0190973Y0246900D02*
X0190973Y0248001D01*
X0190606Y0248368D01*
X0189138Y0248368D01*
X0188771Y0248001D01*
X0188771Y0246900D01*
X0190973Y0246900D01*
X0190973Y0249110D02*
X0190973Y0249844D01*
X0190973Y0249477D02*
X0188771Y0249477D01*
X0188771Y0249110D02*
X0188771Y0249844D01*
X0188771Y0250583D02*
X0188771Y0251684D01*
X0189138Y0252051D01*
X0189872Y0252051D01*
X0190239Y0251684D01*
X0190239Y0250583D01*
X0190973Y0250583D02*
X0188771Y0250583D01*
X0190239Y0251317D02*
X0190973Y0252051D01*
X0180973Y0251320D02*
X0180973Y0252788D01*
X0180973Y0253530D02*
X0178771Y0253530D01*
X0178771Y0254631D01*
X0179138Y0254998D01*
X0179872Y0254998D01*
X0180239Y0254631D01*
X0180239Y0253530D01*
X0179872Y0252054D02*
X0179872Y0251320D01*
X0178771Y0251320D02*
X0180973Y0251320D01*
X0180973Y0249844D02*
X0178771Y0249844D01*
X0178771Y0249110D02*
X0178771Y0250578D01*
X0178771Y0251320D02*
X0178771Y0252788D01*
X0179138Y0248368D02*
X0178771Y0248001D01*
X0178771Y0247267D01*
X0179138Y0246900D01*
X0179505Y0246900D01*
X0179872Y0247267D01*
X0179872Y0248001D01*
X0180239Y0248368D01*
X0180606Y0248368D01*
X0180973Y0248001D01*
X0180973Y0247267D01*
X0180606Y0246900D01*
X0170973Y0247267D02*
X0170606Y0246900D01*
X0170973Y0247267D02*
X0170973Y0248001D01*
X0170606Y0248368D01*
X0170239Y0248368D01*
X0169872Y0248001D01*
X0169872Y0247267D01*
X0169505Y0246900D01*
X0169138Y0246900D01*
X0168771Y0247267D01*
X0168771Y0248001D01*
X0169138Y0248368D01*
X0168771Y0249110D02*
X0170973Y0249110D01*
X0170973Y0250578D01*
X0170973Y0251320D02*
X0168771Y0251320D01*
X0168771Y0252421D01*
X0169138Y0252788D01*
X0169872Y0252788D01*
X0170239Y0252421D01*
X0170239Y0251320D01*
X0160973Y0252054D02*
X0158771Y0252054D01*
X0158771Y0251320D02*
X0158771Y0252788D01*
X0159138Y0250578D02*
X0158771Y0250211D01*
X0158771Y0249477D01*
X0159138Y0249110D01*
X0159505Y0249110D01*
X0159872Y0249477D01*
X0159872Y0250211D01*
X0160239Y0250578D01*
X0160606Y0250578D01*
X0160973Y0250211D01*
X0160973Y0249477D01*
X0160606Y0249110D01*
X0160973Y0248368D02*
X0160239Y0247634D01*
X0160239Y0248001D02*
X0160239Y0246900D01*
X0160973Y0246900D02*
X0158771Y0246900D01*
X0158771Y0248001D01*
X0159138Y0248368D01*
X0159872Y0248368D01*
X0160239Y0248001D01*
X0150973Y0248368D02*
X0148771Y0248368D01*
X0149505Y0247634D01*
X0148771Y0246900D01*
X0150973Y0246900D01*
X0150606Y0249110D02*
X0150973Y0249477D01*
X0150973Y0250211D01*
X0150606Y0250578D01*
X0150239Y0250578D01*
X0149872Y0250211D01*
X0149872Y0249477D01*
X0149505Y0249110D01*
X0149138Y0249110D01*
X0148771Y0249477D01*
X0148771Y0250211D01*
X0149138Y0250578D01*
X0149138Y0251320D02*
X0148771Y0251687D01*
X0148771Y0252421D01*
X0149138Y0252788D01*
X0149505Y0252788D01*
X0149872Y0252421D01*
X0150239Y0252788D01*
X0150606Y0252788D01*
X0150973Y0252421D01*
X0150973Y0251687D01*
X0150606Y0251320D01*
X0149872Y0252054D02*
X0149872Y0252421D01*
X0140973Y0252788D02*
X0140973Y0251320D01*
X0139505Y0252788D01*
X0139138Y0252788D01*
X0138771Y0252421D01*
X0138771Y0251687D01*
X0139138Y0251320D01*
X0139138Y0250578D02*
X0138771Y0250211D01*
X0138771Y0249477D01*
X0139138Y0249110D01*
X0139505Y0249110D01*
X0139872Y0249477D01*
X0139872Y0250211D01*
X0140239Y0250578D01*
X0140606Y0250578D01*
X0140973Y0250211D01*
X0140973Y0249477D01*
X0140606Y0249110D01*
X0140973Y0248368D02*
X0138771Y0248368D01*
X0139505Y0247634D01*
X0138771Y0246900D01*
X0140973Y0246900D01*
X0130973Y0246900D02*
X0128771Y0246900D01*
X0129505Y0247634D01*
X0128771Y0248368D01*
X0130973Y0248368D01*
X0130606Y0249110D02*
X0130973Y0249477D01*
X0130973Y0250211D01*
X0130606Y0250578D01*
X0130239Y0250578D01*
X0129872Y0250211D01*
X0129872Y0249477D01*
X0129505Y0249110D01*
X0129138Y0249110D01*
X0128771Y0249477D01*
X0128771Y0250211D01*
X0129138Y0250578D01*
X0129505Y0251320D02*
X0128771Y0252054D01*
X0130973Y0252054D01*
X0130973Y0251320D02*
X0130973Y0252788D01*
X0120973Y0250578D02*
X0118771Y0250578D01*
X0118771Y0249110D02*
X0120973Y0250578D01*
X0120973Y0249110D02*
X0118771Y0249110D01*
X0118771Y0248368D02*
X0118771Y0246900D01*
X0120973Y0246900D01*
X0120973Y0248368D01*
X0119872Y0247634D02*
X0119872Y0246900D01*
X0117639Y0278797D02*
X0116171Y0278797D01*
X0117639Y0278797D02*
X0118373Y0279531D01*
X0117639Y0280265D01*
X0116171Y0280265D01*
X0116905Y0281007D02*
X0116905Y0281374D01*
X0117272Y0281741D01*
X0116905Y0282108D01*
X0117272Y0282475D01*
X0118373Y0282475D01*
X0118373Y0281741D02*
X0117272Y0281741D01*
X0116905Y0281007D02*
X0118373Y0281007D01*
X0118006Y0283217D02*
X0118373Y0283584D01*
X0118373Y0284318D01*
X0118006Y0284685D01*
X0117272Y0284685D01*
X0116905Y0284318D01*
X0116905Y0283584D01*
X0117272Y0283217D01*
X0118006Y0283217D01*
X0116905Y0285427D02*
X0116905Y0286161D01*
X0116538Y0285794D02*
X0118006Y0285794D01*
X0118373Y0286161D01*
X0126171Y0285791D02*
X0126171Y0284690D01*
X0128373Y0284690D01*
X0128373Y0285791D01*
X0128006Y0286158D01*
X0126538Y0286158D01*
X0126171Y0285791D01*
X0126171Y0283948D02*
X0128373Y0283948D01*
X0126171Y0282480D01*
X0128373Y0282480D01*
X0128006Y0281738D02*
X0127272Y0281738D01*
X0127272Y0281004D01*
X0128006Y0280270D02*
X0128373Y0280637D01*
X0128373Y0281371D01*
X0128006Y0281738D01*
X0128006Y0280270D02*
X0126538Y0280270D01*
X0126171Y0280637D01*
X0126171Y0281371D01*
X0126538Y0281738D01*
X0136171Y0282847D02*
X0136538Y0282480D01*
X0136171Y0282847D02*
X0136171Y0283581D01*
X0136538Y0283948D01*
X0136905Y0283948D01*
X0138373Y0282480D01*
X0138373Y0283948D01*
X0138373Y0284690D02*
X0136171Y0284690D01*
X0136171Y0285791D01*
X0136538Y0286158D01*
X0136905Y0286158D01*
X0137272Y0285791D01*
X0137272Y0284690D01*
X0138373Y0284690D02*
X0138373Y0285791D01*
X0138006Y0286158D01*
X0137639Y0286158D01*
X0137272Y0285791D01*
X0146171Y0285424D02*
X0146905Y0286158D01*
X0148373Y0286158D01*
X0147272Y0286158D02*
X0147272Y0284690D01*
X0146905Y0284690D02*
X0146171Y0285424D01*
X0146905Y0284690D02*
X0148373Y0284690D01*
X0148373Y0283948D02*
X0148373Y0282480D01*
X0146905Y0283948D01*
X0146538Y0283948D01*
X0146171Y0283581D01*
X0146171Y0282847D01*
X0146538Y0282480D01*
X0156171Y0283214D02*
X0158373Y0283214D01*
X0158373Y0282480D02*
X0158373Y0283948D01*
X0158373Y0284690D02*
X0156905Y0284690D01*
X0156171Y0285424D01*
X0156905Y0286158D01*
X0158373Y0286158D01*
X0157272Y0286158D02*
X0157272Y0284690D01*
X0156171Y0283214D02*
X0156905Y0282480D01*
X0166171Y0283214D02*
X0168373Y0283214D01*
X0168373Y0282480D02*
X0168373Y0283948D01*
X0168373Y0284690D02*
X0168373Y0285791D01*
X0168006Y0286158D01*
X0167639Y0286158D01*
X0167272Y0285791D01*
X0167272Y0284690D01*
X0168373Y0284690D02*
X0166171Y0284690D01*
X0166171Y0285791D01*
X0166538Y0286158D01*
X0166905Y0286158D01*
X0167272Y0285791D01*
X0166171Y0283214D02*
X0166905Y0282480D01*
X0176171Y0282480D02*
X0176171Y0283581D01*
X0176538Y0283948D01*
X0178006Y0283948D01*
X0178373Y0283581D01*
X0178373Y0282480D01*
X0176171Y0282480D01*
X0176171Y0281738D02*
X0177639Y0281738D01*
X0178373Y0281004D01*
X0177639Y0280270D01*
X0176171Y0280270D01*
X0176171Y0284690D02*
X0176171Y0285791D01*
X0176538Y0286158D01*
X0178006Y0286158D01*
X0178373Y0285791D01*
X0178373Y0284690D01*
X0176171Y0284690D01*
X0186171Y0284690D02*
X0186171Y0285791D01*
X0186538Y0286158D01*
X0188006Y0286158D01*
X0188373Y0285791D01*
X0188373Y0284690D01*
X0186171Y0284690D01*
X0186171Y0283948D02*
X0188373Y0283948D01*
X0186171Y0282480D01*
X0188373Y0282480D01*
X0188006Y0281738D02*
X0187272Y0281738D01*
X0187272Y0281004D01*
X0186538Y0280270D02*
X0188006Y0280270D01*
X0188373Y0280637D01*
X0188373Y0281371D01*
X0188006Y0281738D01*
X0186538Y0281738D02*
X0186171Y0281371D01*
X0186171Y0280637D01*
X0186538Y0280270D01*
X0206171Y0280265D02*
X0207639Y0280265D01*
X0208373Y0279531D01*
X0207639Y0278797D01*
X0206171Y0278797D01*
X0206905Y0281007D02*
X0206905Y0281374D01*
X0207272Y0281741D01*
X0206905Y0282108D01*
X0207272Y0282475D01*
X0208373Y0282475D01*
X0208373Y0281741D02*
X0207272Y0281741D01*
X0206905Y0281007D02*
X0208373Y0281007D01*
X0208006Y0283217D02*
X0208373Y0283584D01*
X0208373Y0284318D01*
X0208006Y0284685D01*
X0207272Y0284685D01*
X0206905Y0284318D01*
X0206905Y0283584D01*
X0207272Y0283217D01*
X0208006Y0283217D01*
X0206905Y0285427D02*
X0206905Y0286161D01*
X0206538Y0285794D02*
X0208006Y0285794D01*
X0208373Y0286161D01*
X0216171Y0285791D02*
X0216171Y0284690D01*
X0218373Y0284690D01*
X0218373Y0285791D01*
X0218006Y0286158D01*
X0216538Y0286158D01*
X0216171Y0285791D01*
X0216171Y0283948D02*
X0218373Y0283948D01*
X0216171Y0282480D01*
X0218373Y0282480D01*
X0218006Y0281738D02*
X0217272Y0281738D01*
X0217272Y0281004D01*
X0218006Y0280270D02*
X0218373Y0280637D01*
X0218373Y0281371D01*
X0218006Y0281738D01*
X0218006Y0280270D02*
X0216538Y0280270D01*
X0216171Y0280637D01*
X0216171Y0281371D01*
X0216538Y0281738D01*
X0226171Y0282847D02*
X0226538Y0282480D01*
X0226171Y0282847D02*
X0226171Y0283581D01*
X0226538Y0283948D01*
X0226905Y0283948D01*
X0228373Y0282480D01*
X0228373Y0283948D01*
X0228373Y0284690D02*
X0226171Y0284690D01*
X0226171Y0285791D01*
X0226538Y0286158D01*
X0226905Y0286158D01*
X0227272Y0285791D01*
X0227272Y0284690D01*
X0228373Y0284690D02*
X0228373Y0285791D01*
X0228006Y0286158D01*
X0227639Y0286158D01*
X0227272Y0285791D01*
X0236171Y0285424D02*
X0236905Y0286158D01*
X0238373Y0286158D01*
X0237272Y0286158D02*
X0237272Y0284690D01*
X0236905Y0284690D02*
X0236171Y0285424D01*
X0236905Y0284690D02*
X0238373Y0284690D01*
X0238373Y0283948D02*
X0238373Y0282480D01*
X0236905Y0283948D01*
X0236538Y0283948D01*
X0236171Y0283581D01*
X0236171Y0282847D01*
X0236538Y0282480D01*
X0246171Y0283214D02*
X0248373Y0283214D01*
X0248373Y0282480D02*
X0248373Y0283948D01*
X0248373Y0284690D02*
X0246905Y0284690D01*
X0246171Y0285424D01*
X0246905Y0286158D01*
X0248373Y0286158D01*
X0247272Y0286158D02*
X0247272Y0284690D01*
X0246171Y0283214D02*
X0246905Y0282480D01*
X0256171Y0283214D02*
X0258373Y0283214D01*
X0258373Y0282480D02*
X0258373Y0283948D01*
X0258373Y0284690D02*
X0256171Y0284690D01*
X0256171Y0285791D01*
X0256538Y0286158D01*
X0256905Y0286158D01*
X0257272Y0285791D01*
X0257272Y0284690D01*
X0258373Y0284690D02*
X0258373Y0285791D01*
X0258006Y0286158D01*
X0257639Y0286158D01*
X0257272Y0285791D01*
X0256171Y0283214D02*
X0256905Y0282480D01*
X0266171Y0282480D02*
X0266171Y0283581D01*
X0266538Y0283948D01*
X0268006Y0283948D01*
X0268373Y0283581D01*
X0268373Y0282480D01*
X0266171Y0282480D01*
X0266171Y0281738D02*
X0267639Y0281738D01*
X0268373Y0281004D01*
X0267639Y0280270D01*
X0266171Y0280270D01*
X0266171Y0284690D02*
X0266171Y0285791D01*
X0266538Y0286158D01*
X0268006Y0286158D01*
X0268373Y0285791D01*
X0268373Y0284690D01*
X0266171Y0284690D01*
X0276171Y0284690D02*
X0276171Y0285791D01*
X0276538Y0286158D01*
X0278006Y0286158D01*
X0278373Y0285791D01*
X0278373Y0284690D01*
X0276171Y0284690D01*
X0276171Y0283948D02*
X0278373Y0283948D01*
X0276171Y0282480D01*
X0278373Y0282480D01*
X0278006Y0281738D02*
X0278373Y0281371D01*
X0278373Y0280637D01*
X0278006Y0280270D01*
X0276538Y0280270D01*
X0276171Y0280637D01*
X0276171Y0281371D01*
X0276538Y0281738D01*
X0277272Y0281738D02*
X0277272Y0281004D01*
X0277272Y0281738D02*
X0278006Y0281738D01*
X0296171Y0280265D02*
X0297639Y0280265D01*
X0298373Y0279531D01*
X0297639Y0278797D01*
X0296171Y0278797D01*
X0296905Y0281007D02*
X0296905Y0281374D01*
X0297272Y0281741D01*
X0296905Y0282108D01*
X0297272Y0282475D01*
X0298373Y0282475D01*
X0298373Y0281741D02*
X0297272Y0281741D01*
X0296905Y0281007D02*
X0298373Y0281007D01*
X0298006Y0283217D02*
X0298373Y0283584D01*
X0298373Y0284318D01*
X0298006Y0284685D01*
X0297272Y0284685D01*
X0296905Y0284318D01*
X0296905Y0283584D01*
X0297272Y0283217D01*
X0298006Y0283217D01*
X0296905Y0285427D02*
X0296905Y0286161D01*
X0296538Y0285794D02*
X0298006Y0285794D01*
X0298373Y0286161D01*
X0306171Y0285791D02*
X0306171Y0284690D01*
X0308373Y0284690D01*
X0308373Y0285791D01*
X0308006Y0286158D01*
X0306538Y0286158D01*
X0306171Y0285791D01*
X0306171Y0283948D02*
X0308373Y0283948D01*
X0306171Y0282480D01*
X0308373Y0282480D01*
X0308006Y0281738D02*
X0307272Y0281738D01*
X0307272Y0281004D01*
X0306538Y0280270D02*
X0308006Y0280270D01*
X0308373Y0280637D01*
X0308373Y0281371D01*
X0308006Y0281738D01*
X0306538Y0281738D02*
X0306171Y0281371D01*
X0306171Y0280637D01*
X0306538Y0280270D01*
X0368771Y0251684D02*
X0369138Y0252051D01*
X0369872Y0252051D01*
X0370239Y0251684D01*
X0370239Y0250583D01*
X0370973Y0250583D02*
X0368771Y0250583D01*
X0368771Y0251684D01*
X0370239Y0251317D02*
X0370973Y0252051D01*
X0370973Y0249844D02*
X0370973Y0249110D01*
X0370973Y0249477D02*
X0368771Y0249477D01*
X0368771Y0249110D02*
X0368771Y0249844D01*
X0369138Y0248368D02*
X0368771Y0248001D01*
X0368771Y0246900D01*
X0370973Y0246900D01*
X0370973Y0248001D01*
X0370606Y0248368D01*
X0369138Y0248368D01*
D18*
X0382820Y0262050D02*
X0381319Y0263551D01*
X0385823Y0263551D01*
X0385823Y0262050D02*
X0385823Y0265053D01*
X0391319Y0263551D02*
X0395823Y0263551D01*
X0395823Y0262050D02*
X0395823Y0265053D01*
X0392820Y0262050D02*
X0391319Y0263551D01*
X0395823Y0230053D02*
X0395823Y0227050D01*
X0395823Y0228551D02*
X0391319Y0228551D01*
X0392820Y0227050D01*
X0385823Y0227050D02*
X0385823Y0230053D01*
X0385823Y0228551D02*
X0381319Y0228551D01*
X0382820Y0227050D01*
X0117221Y0279550D02*
X0114219Y0279550D01*
X0115720Y0279550D02*
X0115720Y0284054D01*
X0114219Y0282553D01*
X0114219Y0289550D02*
X0117221Y0289550D01*
X0115720Y0289550D02*
X0115720Y0294054D01*
X0114219Y0292553D01*
X0058730Y0274123D02*
X0058730Y0238690D01*
X0001250Y0238690D01*
X0001250Y0274123D01*
X0058730Y0274123D01*
X0052572Y0292842D02*
X0053323Y0293593D01*
X0053323Y0295094D01*
X0052572Y0295845D01*
X0051822Y0295845D01*
X0051071Y0295094D01*
X0051071Y0293593D01*
X0050320Y0292842D01*
X0049570Y0292842D01*
X0048819Y0293593D01*
X0048819Y0295094D01*
X0049570Y0295845D01*
X0049570Y0297446D02*
X0048819Y0298197D01*
X0048819Y0299698D01*
X0049570Y0300449D01*
X0050320Y0300449D01*
X0053323Y0297446D01*
X0053323Y0300449D01*
X0041959Y0245186D02*
X0019911Y0245186D01*
X0019911Y0217627D01*
X0041959Y0217627D01*
X0041959Y0245186D01*
X0019911Y0245186D02*
X0014400Y0245186D01*
X0014400Y0217627D01*
X0019911Y0217627D01*
X0090319Y0068772D02*
X0090319Y0065770D01*
X0090319Y0067271D02*
X0094823Y0067271D01*
X0090319Y0064168D02*
X0090319Y0061166D01*
X0094823Y0061166D01*
X0092571Y0061166D02*
X0092571Y0062667D01*
X0090319Y0059564D02*
X0090319Y0056562D01*
X0090319Y0058063D02*
X0094823Y0058063D01*
D19*
X0181211Y0306209D03*
X0185935Y0306209D03*
X0271211Y0306209D03*
X0275935Y0306209D03*
X0361211Y0306209D03*
X0365935Y0306209D03*
D20*
X0033750Y0078217D03*
D21*
X0203455Y0058198D03*
X0318691Y0055402D03*
X0318691Y0095402D03*
X0213691Y0165402D03*
D22*
X0126722Y0031800D02*
X0121014Y0035540D01*
X0121014Y0028060D01*
X0126722Y0031800D01*
D23*
X0126919Y0031800D03*
D24*
X0360673Y0061800D02*
X0360675Y0061907D01*
X0360681Y0062014D01*
X0360691Y0062121D01*
X0360705Y0062227D01*
X0360722Y0062333D01*
X0360744Y0062438D01*
X0360770Y0062542D01*
X0360799Y0062645D01*
X0360832Y0062747D01*
X0360869Y0062848D01*
X0360909Y0062947D01*
X0360954Y0063044D01*
X0361001Y0063140D01*
X0361053Y0063235D01*
X0361107Y0063327D01*
X0361165Y0063417D01*
X0361227Y0063505D01*
X0361291Y0063590D01*
X0361359Y0063673D01*
X0361430Y0063754D01*
X0361504Y0063832D01*
X0361580Y0063907D01*
X0361659Y0063979D01*
X0361741Y0064048D01*
X0361825Y0064114D01*
X0361912Y0064177D01*
X0362001Y0064237D01*
X0362092Y0064293D01*
X0362185Y0064346D01*
X0362280Y0064396D01*
X0362377Y0064442D01*
X0362476Y0064484D01*
X0362576Y0064523D01*
X0362677Y0064558D01*
X0362779Y0064589D01*
X0362883Y0064617D01*
X0362988Y0064640D01*
X0363093Y0064660D01*
X0363199Y0064676D01*
X0363305Y0064688D01*
X0363412Y0064696D01*
X0363519Y0064700D01*
X0363627Y0064700D01*
X0363734Y0064696D01*
X0363841Y0064688D01*
X0363947Y0064676D01*
X0364053Y0064660D01*
X0364158Y0064640D01*
X0364263Y0064617D01*
X0364367Y0064589D01*
X0364469Y0064558D01*
X0364570Y0064523D01*
X0364670Y0064484D01*
X0364769Y0064442D01*
X0364866Y0064396D01*
X0364961Y0064346D01*
X0365054Y0064293D01*
X0365145Y0064237D01*
X0365234Y0064177D01*
X0365321Y0064114D01*
X0365405Y0064048D01*
X0365487Y0063979D01*
X0365566Y0063907D01*
X0365642Y0063832D01*
X0365716Y0063754D01*
X0365787Y0063673D01*
X0365855Y0063590D01*
X0365919Y0063505D01*
X0365981Y0063417D01*
X0366039Y0063327D01*
X0366093Y0063235D01*
X0366145Y0063140D01*
X0366192Y0063044D01*
X0366237Y0062947D01*
X0366277Y0062848D01*
X0366314Y0062747D01*
X0366347Y0062645D01*
X0366376Y0062542D01*
X0366402Y0062438D01*
X0366424Y0062333D01*
X0366441Y0062227D01*
X0366455Y0062121D01*
X0366465Y0062014D01*
X0366471Y0061907D01*
X0366473Y0061800D01*
X0366471Y0061693D01*
X0366465Y0061586D01*
X0366455Y0061479D01*
X0366441Y0061373D01*
X0366424Y0061267D01*
X0366402Y0061162D01*
X0366376Y0061058D01*
X0366347Y0060955D01*
X0366314Y0060853D01*
X0366277Y0060752D01*
X0366237Y0060653D01*
X0366192Y0060556D01*
X0366145Y0060460D01*
X0366093Y0060365D01*
X0366039Y0060273D01*
X0365981Y0060183D01*
X0365919Y0060095D01*
X0365855Y0060010D01*
X0365787Y0059927D01*
X0365716Y0059846D01*
X0365642Y0059768D01*
X0365566Y0059693D01*
X0365487Y0059621D01*
X0365405Y0059552D01*
X0365321Y0059486D01*
X0365234Y0059423D01*
X0365145Y0059363D01*
X0365054Y0059307D01*
X0364961Y0059254D01*
X0364866Y0059204D01*
X0364769Y0059158D01*
X0364670Y0059116D01*
X0364570Y0059077D01*
X0364469Y0059042D01*
X0364367Y0059011D01*
X0364263Y0058983D01*
X0364158Y0058960D01*
X0364053Y0058940D01*
X0363947Y0058924D01*
X0363841Y0058912D01*
X0363734Y0058904D01*
X0363627Y0058900D01*
X0363519Y0058900D01*
X0363412Y0058904D01*
X0363305Y0058912D01*
X0363199Y0058924D01*
X0363093Y0058940D01*
X0362988Y0058960D01*
X0362883Y0058983D01*
X0362779Y0059011D01*
X0362677Y0059042D01*
X0362576Y0059077D01*
X0362476Y0059116D01*
X0362377Y0059158D01*
X0362280Y0059204D01*
X0362185Y0059254D01*
X0362092Y0059307D01*
X0362001Y0059363D01*
X0361912Y0059423D01*
X0361825Y0059486D01*
X0361741Y0059552D01*
X0361659Y0059621D01*
X0361580Y0059693D01*
X0361504Y0059768D01*
X0361430Y0059846D01*
X0361359Y0059927D01*
X0361291Y0060010D01*
X0361227Y0060095D01*
X0361165Y0060183D01*
X0361107Y0060273D01*
X0361053Y0060365D01*
X0361001Y0060460D01*
X0360954Y0060556D01*
X0360909Y0060653D01*
X0360869Y0060752D01*
X0360832Y0060853D01*
X0360799Y0060955D01*
X0360770Y0061058D01*
X0360744Y0061162D01*
X0360722Y0061267D01*
X0360705Y0061373D01*
X0360691Y0061479D01*
X0360681Y0061586D01*
X0360675Y0061693D01*
X0360673Y0061800D01*
X0360673Y0071800D02*
X0360675Y0071907D01*
X0360681Y0072014D01*
X0360691Y0072121D01*
X0360705Y0072227D01*
X0360722Y0072333D01*
X0360744Y0072438D01*
X0360770Y0072542D01*
X0360799Y0072645D01*
X0360832Y0072747D01*
X0360869Y0072848D01*
X0360909Y0072947D01*
X0360954Y0073044D01*
X0361001Y0073140D01*
X0361053Y0073235D01*
X0361107Y0073327D01*
X0361165Y0073417D01*
X0361227Y0073505D01*
X0361291Y0073590D01*
X0361359Y0073673D01*
X0361430Y0073754D01*
X0361504Y0073832D01*
X0361580Y0073907D01*
X0361659Y0073979D01*
X0361741Y0074048D01*
X0361825Y0074114D01*
X0361912Y0074177D01*
X0362001Y0074237D01*
X0362092Y0074293D01*
X0362185Y0074346D01*
X0362280Y0074396D01*
X0362377Y0074442D01*
X0362476Y0074484D01*
X0362576Y0074523D01*
X0362677Y0074558D01*
X0362779Y0074589D01*
X0362883Y0074617D01*
X0362988Y0074640D01*
X0363093Y0074660D01*
X0363199Y0074676D01*
X0363305Y0074688D01*
X0363412Y0074696D01*
X0363519Y0074700D01*
X0363627Y0074700D01*
X0363734Y0074696D01*
X0363841Y0074688D01*
X0363947Y0074676D01*
X0364053Y0074660D01*
X0364158Y0074640D01*
X0364263Y0074617D01*
X0364367Y0074589D01*
X0364469Y0074558D01*
X0364570Y0074523D01*
X0364670Y0074484D01*
X0364769Y0074442D01*
X0364866Y0074396D01*
X0364961Y0074346D01*
X0365054Y0074293D01*
X0365145Y0074237D01*
X0365234Y0074177D01*
X0365321Y0074114D01*
X0365405Y0074048D01*
X0365487Y0073979D01*
X0365566Y0073907D01*
X0365642Y0073832D01*
X0365716Y0073754D01*
X0365787Y0073673D01*
X0365855Y0073590D01*
X0365919Y0073505D01*
X0365981Y0073417D01*
X0366039Y0073327D01*
X0366093Y0073235D01*
X0366145Y0073140D01*
X0366192Y0073044D01*
X0366237Y0072947D01*
X0366277Y0072848D01*
X0366314Y0072747D01*
X0366347Y0072645D01*
X0366376Y0072542D01*
X0366402Y0072438D01*
X0366424Y0072333D01*
X0366441Y0072227D01*
X0366455Y0072121D01*
X0366465Y0072014D01*
X0366471Y0071907D01*
X0366473Y0071800D01*
X0366471Y0071693D01*
X0366465Y0071586D01*
X0366455Y0071479D01*
X0366441Y0071373D01*
X0366424Y0071267D01*
X0366402Y0071162D01*
X0366376Y0071058D01*
X0366347Y0070955D01*
X0366314Y0070853D01*
X0366277Y0070752D01*
X0366237Y0070653D01*
X0366192Y0070556D01*
X0366145Y0070460D01*
X0366093Y0070365D01*
X0366039Y0070273D01*
X0365981Y0070183D01*
X0365919Y0070095D01*
X0365855Y0070010D01*
X0365787Y0069927D01*
X0365716Y0069846D01*
X0365642Y0069768D01*
X0365566Y0069693D01*
X0365487Y0069621D01*
X0365405Y0069552D01*
X0365321Y0069486D01*
X0365234Y0069423D01*
X0365145Y0069363D01*
X0365054Y0069307D01*
X0364961Y0069254D01*
X0364866Y0069204D01*
X0364769Y0069158D01*
X0364670Y0069116D01*
X0364570Y0069077D01*
X0364469Y0069042D01*
X0364367Y0069011D01*
X0364263Y0068983D01*
X0364158Y0068960D01*
X0364053Y0068940D01*
X0363947Y0068924D01*
X0363841Y0068912D01*
X0363734Y0068904D01*
X0363627Y0068900D01*
X0363519Y0068900D01*
X0363412Y0068904D01*
X0363305Y0068912D01*
X0363199Y0068924D01*
X0363093Y0068940D01*
X0362988Y0068960D01*
X0362883Y0068983D01*
X0362779Y0069011D01*
X0362677Y0069042D01*
X0362576Y0069077D01*
X0362476Y0069116D01*
X0362377Y0069158D01*
X0362280Y0069204D01*
X0362185Y0069254D01*
X0362092Y0069307D01*
X0362001Y0069363D01*
X0361912Y0069423D01*
X0361825Y0069486D01*
X0361741Y0069552D01*
X0361659Y0069621D01*
X0361580Y0069693D01*
X0361504Y0069768D01*
X0361430Y0069846D01*
X0361359Y0069927D01*
X0361291Y0070010D01*
X0361227Y0070095D01*
X0361165Y0070183D01*
X0361107Y0070273D01*
X0361053Y0070365D01*
X0361001Y0070460D01*
X0360954Y0070556D01*
X0360909Y0070653D01*
X0360869Y0070752D01*
X0360832Y0070853D01*
X0360799Y0070955D01*
X0360770Y0071058D01*
X0360744Y0071162D01*
X0360722Y0071267D01*
X0360705Y0071373D01*
X0360691Y0071479D01*
X0360681Y0071586D01*
X0360675Y0071693D01*
X0360673Y0071800D01*
X0360673Y0081800D02*
X0360675Y0081907D01*
X0360681Y0082014D01*
X0360691Y0082121D01*
X0360705Y0082227D01*
X0360722Y0082333D01*
X0360744Y0082438D01*
X0360770Y0082542D01*
X0360799Y0082645D01*
X0360832Y0082747D01*
X0360869Y0082848D01*
X0360909Y0082947D01*
X0360954Y0083044D01*
X0361001Y0083140D01*
X0361053Y0083235D01*
X0361107Y0083327D01*
X0361165Y0083417D01*
X0361227Y0083505D01*
X0361291Y0083590D01*
X0361359Y0083673D01*
X0361430Y0083754D01*
X0361504Y0083832D01*
X0361580Y0083907D01*
X0361659Y0083979D01*
X0361741Y0084048D01*
X0361825Y0084114D01*
X0361912Y0084177D01*
X0362001Y0084237D01*
X0362092Y0084293D01*
X0362185Y0084346D01*
X0362280Y0084396D01*
X0362377Y0084442D01*
X0362476Y0084484D01*
X0362576Y0084523D01*
X0362677Y0084558D01*
X0362779Y0084589D01*
X0362883Y0084617D01*
X0362988Y0084640D01*
X0363093Y0084660D01*
X0363199Y0084676D01*
X0363305Y0084688D01*
X0363412Y0084696D01*
X0363519Y0084700D01*
X0363627Y0084700D01*
X0363734Y0084696D01*
X0363841Y0084688D01*
X0363947Y0084676D01*
X0364053Y0084660D01*
X0364158Y0084640D01*
X0364263Y0084617D01*
X0364367Y0084589D01*
X0364469Y0084558D01*
X0364570Y0084523D01*
X0364670Y0084484D01*
X0364769Y0084442D01*
X0364866Y0084396D01*
X0364961Y0084346D01*
X0365054Y0084293D01*
X0365145Y0084237D01*
X0365234Y0084177D01*
X0365321Y0084114D01*
X0365405Y0084048D01*
X0365487Y0083979D01*
X0365566Y0083907D01*
X0365642Y0083832D01*
X0365716Y0083754D01*
X0365787Y0083673D01*
X0365855Y0083590D01*
X0365919Y0083505D01*
X0365981Y0083417D01*
X0366039Y0083327D01*
X0366093Y0083235D01*
X0366145Y0083140D01*
X0366192Y0083044D01*
X0366237Y0082947D01*
X0366277Y0082848D01*
X0366314Y0082747D01*
X0366347Y0082645D01*
X0366376Y0082542D01*
X0366402Y0082438D01*
X0366424Y0082333D01*
X0366441Y0082227D01*
X0366455Y0082121D01*
X0366465Y0082014D01*
X0366471Y0081907D01*
X0366473Y0081800D01*
X0366471Y0081693D01*
X0366465Y0081586D01*
X0366455Y0081479D01*
X0366441Y0081373D01*
X0366424Y0081267D01*
X0366402Y0081162D01*
X0366376Y0081058D01*
X0366347Y0080955D01*
X0366314Y0080853D01*
X0366277Y0080752D01*
X0366237Y0080653D01*
X0366192Y0080556D01*
X0366145Y0080460D01*
X0366093Y0080365D01*
X0366039Y0080273D01*
X0365981Y0080183D01*
X0365919Y0080095D01*
X0365855Y0080010D01*
X0365787Y0079927D01*
X0365716Y0079846D01*
X0365642Y0079768D01*
X0365566Y0079693D01*
X0365487Y0079621D01*
X0365405Y0079552D01*
X0365321Y0079486D01*
X0365234Y0079423D01*
X0365145Y0079363D01*
X0365054Y0079307D01*
X0364961Y0079254D01*
X0364866Y0079204D01*
X0364769Y0079158D01*
X0364670Y0079116D01*
X0364570Y0079077D01*
X0364469Y0079042D01*
X0364367Y0079011D01*
X0364263Y0078983D01*
X0364158Y0078960D01*
X0364053Y0078940D01*
X0363947Y0078924D01*
X0363841Y0078912D01*
X0363734Y0078904D01*
X0363627Y0078900D01*
X0363519Y0078900D01*
X0363412Y0078904D01*
X0363305Y0078912D01*
X0363199Y0078924D01*
X0363093Y0078940D01*
X0362988Y0078960D01*
X0362883Y0078983D01*
X0362779Y0079011D01*
X0362677Y0079042D01*
X0362576Y0079077D01*
X0362476Y0079116D01*
X0362377Y0079158D01*
X0362280Y0079204D01*
X0362185Y0079254D01*
X0362092Y0079307D01*
X0362001Y0079363D01*
X0361912Y0079423D01*
X0361825Y0079486D01*
X0361741Y0079552D01*
X0361659Y0079621D01*
X0361580Y0079693D01*
X0361504Y0079768D01*
X0361430Y0079846D01*
X0361359Y0079927D01*
X0361291Y0080010D01*
X0361227Y0080095D01*
X0361165Y0080183D01*
X0361107Y0080273D01*
X0361053Y0080365D01*
X0361001Y0080460D01*
X0360954Y0080556D01*
X0360909Y0080653D01*
X0360869Y0080752D01*
X0360832Y0080853D01*
X0360799Y0080955D01*
X0360770Y0081058D01*
X0360744Y0081162D01*
X0360722Y0081267D01*
X0360705Y0081373D01*
X0360691Y0081479D01*
X0360681Y0081586D01*
X0360675Y0081693D01*
X0360673Y0081800D01*
X0360673Y0091800D02*
X0360675Y0091907D01*
X0360681Y0092014D01*
X0360691Y0092121D01*
X0360705Y0092227D01*
X0360722Y0092333D01*
X0360744Y0092438D01*
X0360770Y0092542D01*
X0360799Y0092645D01*
X0360832Y0092747D01*
X0360869Y0092848D01*
X0360909Y0092947D01*
X0360954Y0093044D01*
X0361001Y0093140D01*
X0361053Y0093235D01*
X0361107Y0093327D01*
X0361165Y0093417D01*
X0361227Y0093505D01*
X0361291Y0093590D01*
X0361359Y0093673D01*
X0361430Y0093754D01*
X0361504Y0093832D01*
X0361580Y0093907D01*
X0361659Y0093979D01*
X0361741Y0094048D01*
X0361825Y0094114D01*
X0361912Y0094177D01*
X0362001Y0094237D01*
X0362092Y0094293D01*
X0362185Y0094346D01*
X0362280Y0094396D01*
X0362377Y0094442D01*
X0362476Y0094484D01*
X0362576Y0094523D01*
X0362677Y0094558D01*
X0362779Y0094589D01*
X0362883Y0094617D01*
X0362988Y0094640D01*
X0363093Y0094660D01*
X0363199Y0094676D01*
X0363305Y0094688D01*
X0363412Y0094696D01*
X0363519Y0094700D01*
X0363627Y0094700D01*
X0363734Y0094696D01*
X0363841Y0094688D01*
X0363947Y0094676D01*
X0364053Y0094660D01*
X0364158Y0094640D01*
X0364263Y0094617D01*
X0364367Y0094589D01*
X0364469Y0094558D01*
X0364570Y0094523D01*
X0364670Y0094484D01*
X0364769Y0094442D01*
X0364866Y0094396D01*
X0364961Y0094346D01*
X0365054Y0094293D01*
X0365145Y0094237D01*
X0365234Y0094177D01*
X0365321Y0094114D01*
X0365405Y0094048D01*
X0365487Y0093979D01*
X0365566Y0093907D01*
X0365642Y0093832D01*
X0365716Y0093754D01*
X0365787Y0093673D01*
X0365855Y0093590D01*
X0365919Y0093505D01*
X0365981Y0093417D01*
X0366039Y0093327D01*
X0366093Y0093235D01*
X0366145Y0093140D01*
X0366192Y0093044D01*
X0366237Y0092947D01*
X0366277Y0092848D01*
X0366314Y0092747D01*
X0366347Y0092645D01*
X0366376Y0092542D01*
X0366402Y0092438D01*
X0366424Y0092333D01*
X0366441Y0092227D01*
X0366455Y0092121D01*
X0366465Y0092014D01*
X0366471Y0091907D01*
X0366473Y0091800D01*
X0366471Y0091693D01*
X0366465Y0091586D01*
X0366455Y0091479D01*
X0366441Y0091373D01*
X0366424Y0091267D01*
X0366402Y0091162D01*
X0366376Y0091058D01*
X0366347Y0090955D01*
X0366314Y0090853D01*
X0366277Y0090752D01*
X0366237Y0090653D01*
X0366192Y0090556D01*
X0366145Y0090460D01*
X0366093Y0090365D01*
X0366039Y0090273D01*
X0365981Y0090183D01*
X0365919Y0090095D01*
X0365855Y0090010D01*
X0365787Y0089927D01*
X0365716Y0089846D01*
X0365642Y0089768D01*
X0365566Y0089693D01*
X0365487Y0089621D01*
X0365405Y0089552D01*
X0365321Y0089486D01*
X0365234Y0089423D01*
X0365145Y0089363D01*
X0365054Y0089307D01*
X0364961Y0089254D01*
X0364866Y0089204D01*
X0364769Y0089158D01*
X0364670Y0089116D01*
X0364570Y0089077D01*
X0364469Y0089042D01*
X0364367Y0089011D01*
X0364263Y0088983D01*
X0364158Y0088960D01*
X0364053Y0088940D01*
X0363947Y0088924D01*
X0363841Y0088912D01*
X0363734Y0088904D01*
X0363627Y0088900D01*
X0363519Y0088900D01*
X0363412Y0088904D01*
X0363305Y0088912D01*
X0363199Y0088924D01*
X0363093Y0088940D01*
X0362988Y0088960D01*
X0362883Y0088983D01*
X0362779Y0089011D01*
X0362677Y0089042D01*
X0362576Y0089077D01*
X0362476Y0089116D01*
X0362377Y0089158D01*
X0362280Y0089204D01*
X0362185Y0089254D01*
X0362092Y0089307D01*
X0362001Y0089363D01*
X0361912Y0089423D01*
X0361825Y0089486D01*
X0361741Y0089552D01*
X0361659Y0089621D01*
X0361580Y0089693D01*
X0361504Y0089768D01*
X0361430Y0089846D01*
X0361359Y0089927D01*
X0361291Y0090010D01*
X0361227Y0090095D01*
X0361165Y0090183D01*
X0361107Y0090273D01*
X0361053Y0090365D01*
X0361001Y0090460D01*
X0360954Y0090556D01*
X0360909Y0090653D01*
X0360869Y0090752D01*
X0360832Y0090853D01*
X0360799Y0090955D01*
X0360770Y0091058D01*
X0360744Y0091162D01*
X0360722Y0091267D01*
X0360705Y0091373D01*
X0360691Y0091479D01*
X0360681Y0091586D01*
X0360675Y0091693D01*
X0360673Y0091800D01*
X0370673Y0091800D02*
X0370675Y0091907D01*
X0370681Y0092014D01*
X0370691Y0092121D01*
X0370705Y0092227D01*
X0370722Y0092333D01*
X0370744Y0092438D01*
X0370770Y0092542D01*
X0370799Y0092645D01*
X0370832Y0092747D01*
X0370869Y0092848D01*
X0370909Y0092947D01*
X0370954Y0093044D01*
X0371001Y0093140D01*
X0371053Y0093235D01*
X0371107Y0093327D01*
X0371165Y0093417D01*
X0371227Y0093505D01*
X0371291Y0093590D01*
X0371359Y0093673D01*
X0371430Y0093754D01*
X0371504Y0093832D01*
X0371580Y0093907D01*
X0371659Y0093979D01*
X0371741Y0094048D01*
X0371825Y0094114D01*
X0371912Y0094177D01*
X0372001Y0094237D01*
X0372092Y0094293D01*
X0372185Y0094346D01*
X0372280Y0094396D01*
X0372377Y0094442D01*
X0372476Y0094484D01*
X0372576Y0094523D01*
X0372677Y0094558D01*
X0372779Y0094589D01*
X0372883Y0094617D01*
X0372988Y0094640D01*
X0373093Y0094660D01*
X0373199Y0094676D01*
X0373305Y0094688D01*
X0373412Y0094696D01*
X0373519Y0094700D01*
X0373627Y0094700D01*
X0373734Y0094696D01*
X0373841Y0094688D01*
X0373947Y0094676D01*
X0374053Y0094660D01*
X0374158Y0094640D01*
X0374263Y0094617D01*
X0374367Y0094589D01*
X0374469Y0094558D01*
X0374570Y0094523D01*
X0374670Y0094484D01*
X0374769Y0094442D01*
X0374866Y0094396D01*
X0374961Y0094346D01*
X0375054Y0094293D01*
X0375145Y0094237D01*
X0375234Y0094177D01*
X0375321Y0094114D01*
X0375405Y0094048D01*
X0375487Y0093979D01*
X0375566Y0093907D01*
X0375642Y0093832D01*
X0375716Y0093754D01*
X0375787Y0093673D01*
X0375855Y0093590D01*
X0375919Y0093505D01*
X0375981Y0093417D01*
X0376039Y0093327D01*
X0376093Y0093235D01*
X0376145Y0093140D01*
X0376192Y0093044D01*
X0376237Y0092947D01*
X0376277Y0092848D01*
X0376314Y0092747D01*
X0376347Y0092645D01*
X0376376Y0092542D01*
X0376402Y0092438D01*
X0376424Y0092333D01*
X0376441Y0092227D01*
X0376455Y0092121D01*
X0376465Y0092014D01*
X0376471Y0091907D01*
X0376473Y0091800D01*
X0376471Y0091693D01*
X0376465Y0091586D01*
X0376455Y0091479D01*
X0376441Y0091373D01*
X0376424Y0091267D01*
X0376402Y0091162D01*
X0376376Y0091058D01*
X0376347Y0090955D01*
X0376314Y0090853D01*
X0376277Y0090752D01*
X0376237Y0090653D01*
X0376192Y0090556D01*
X0376145Y0090460D01*
X0376093Y0090365D01*
X0376039Y0090273D01*
X0375981Y0090183D01*
X0375919Y0090095D01*
X0375855Y0090010D01*
X0375787Y0089927D01*
X0375716Y0089846D01*
X0375642Y0089768D01*
X0375566Y0089693D01*
X0375487Y0089621D01*
X0375405Y0089552D01*
X0375321Y0089486D01*
X0375234Y0089423D01*
X0375145Y0089363D01*
X0375054Y0089307D01*
X0374961Y0089254D01*
X0374866Y0089204D01*
X0374769Y0089158D01*
X0374670Y0089116D01*
X0374570Y0089077D01*
X0374469Y0089042D01*
X0374367Y0089011D01*
X0374263Y0088983D01*
X0374158Y0088960D01*
X0374053Y0088940D01*
X0373947Y0088924D01*
X0373841Y0088912D01*
X0373734Y0088904D01*
X0373627Y0088900D01*
X0373519Y0088900D01*
X0373412Y0088904D01*
X0373305Y0088912D01*
X0373199Y0088924D01*
X0373093Y0088940D01*
X0372988Y0088960D01*
X0372883Y0088983D01*
X0372779Y0089011D01*
X0372677Y0089042D01*
X0372576Y0089077D01*
X0372476Y0089116D01*
X0372377Y0089158D01*
X0372280Y0089204D01*
X0372185Y0089254D01*
X0372092Y0089307D01*
X0372001Y0089363D01*
X0371912Y0089423D01*
X0371825Y0089486D01*
X0371741Y0089552D01*
X0371659Y0089621D01*
X0371580Y0089693D01*
X0371504Y0089768D01*
X0371430Y0089846D01*
X0371359Y0089927D01*
X0371291Y0090010D01*
X0371227Y0090095D01*
X0371165Y0090183D01*
X0371107Y0090273D01*
X0371053Y0090365D01*
X0371001Y0090460D01*
X0370954Y0090556D01*
X0370909Y0090653D01*
X0370869Y0090752D01*
X0370832Y0090853D01*
X0370799Y0090955D01*
X0370770Y0091058D01*
X0370744Y0091162D01*
X0370722Y0091267D01*
X0370705Y0091373D01*
X0370691Y0091479D01*
X0370681Y0091586D01*
X0370675Y0091693D01*
X0370673Y0091800D01*
X0370673Y0081800D02*
X0370675Y0081907D01*
X0370681Y0082014D01*
X0370691Y0082121D01*
X0370705Y0082227D01*
X0370722Y0082333D01*
X0370744Y0082438D01*
X0370770Y0082542D01*
X0370799Y0082645D01*
X0370832Y0082747D01*
X0370869Y0082848D01*
X0370909Y0082947D01*
X0370954Y0083044D01*
X0371001Y0083140D01*
X0371053Y0083235D01*
X0371107Y0083327D01*
X0371165Y0083417D01*
X0371227Y0083505D01*
X0371291Y0083590D01*
X0371359Y0083673D01*
X0371430Y0083754D01*
X0371504Y0083832D01*
X0371580Y0083907D01*
X0371659Y0083979D01*
X0371741Y0084048D01*
X0371825Y0084114D01*
X0371912Y0084177D01*
X0372001Y0084237D01*
X0372092Y0084293D01*
X0372185Y0084346D01*
X0372280Y0084396D01*
X0372377Y0084442D01*
X0372476Y0084484D01*
X0372576Y0084523D01*
X0372677Y0084558D01*
X0372779Y0084589D01*
X0372883Y0084617D01*
X0372988Y0084640D01*
X0373093Y0084660D01*
X0373199Y0084676D01*
X0373305Y0084688D01*
X0373412Y0084696D01*
X0373519Y0084700D01*
X0373627Y0084700D01*
X0373734Y0084696D01*
X0373841Y0084688D01*
X0373947Y0084676D01*
X0374053Y0084660D01*
X0374158Y0084640D01*
X0374263Y0084617D01*
X0374367Y0084589D01*
X0374469Y0084558D01*
X0374570Y0084523D01*
X0374670Y0084484D01*
X0374769Y0084442D01*
X0374866Y0084396D01*
X0374961Y0084346D01*
X0375054Y0084293D01*
X0375145Y0084237D01*
X0375234Y0084177D01*
X0375321Y0084114D01*
X0375405Y0084048D01*
X0375487Y0083979D01*
X0375566Y0083907D01*
X0375642Y0083832D01*
X0375716Y0083754D01*
X0375787Y0083673D01*
X0375855Y0083590D01*
X0375919Y0083505D01*
X0375981Y0083417D01*
X0376039Y0083327D01*
X0376093Y0083235D01*
X0376145Y0083140D01*
X0376192Y0083044D01*
X0376237Y0082947D01*
X0376277Y0082848D01*
X0376314Y0082747D01*
X0376347Y0082645D01*
X0376376Y0082542D01*
X0376402Y0082438D01*
X0376424Y0082333D01*
X0376441Y0082227D01*
X0376455Y0082121D01*
X0376465Y0082014D01*
X0376471Y0081907D01*
X0376473Y0081800D01*
X0376471Y0081693D01*
X0376465Y0081586D01*
X0376455Y0081479D01*
X0376441Y0081373D01*
X0376424Y0081267D01*
X0376402Y0081162D01*
X0376376Y0081058D01*
X0376347Y0080955D01*
X0376314Y0080853D01*
X0376277Y0080752D01*
X0376237Y0080653D01*
X0376192Y0080556D01*
X0376145Y0080460D01*
X0376093Y0080365D01*
X0376039Y0080273D01*
X0375981Y0080183D01*
X0375919Y0080095D01*
X0375855Y0080010D01*
X0375787Y0079927D01*
X0375716Y0079846D01*
X0375642Y0079768D01*
X0375566Y0079693D01*
X0375487Y0079621D01*
X0375405Y0079552D01*
X0375321Y0079486D01*
X0375234Y0079423D01*
X0375145Y0079363D01*
X0375054Y0079307D01*
X0374961Y0079254D01*
X0374866Y0079204D01*
X0374769Y0079158D01*
X0374670Y0079116D01*
X0374570Y0079077D01*
X0374469Y0079042D01*
X0374367Y0079011D01*
X0374263Y0078983D01*
X0374158Y0078960D01*
X0374053Y0078940D01*
X0373947Y0078924D01*
X0373841Y0078912D01*
X0373734Y0078904D01*
X0373627Y0078900D01*
X0373519Y0078900D01*
X0373412Y0078904D01*
X0373305Y0078912D01*
X0373199Y0078924D01*
X0373093Y0078940D01*
X0372988Y0078960D01*
X0372883Y0078983D01*
X0372779Y0079011D01*
X0372677Y0079042D01*
X0372576Y0079077D01*
X0372476Y0079116D01*
X0372377Y0079158D01*
X0372280Y0079204D01*
X0372185Y0079254D01*
X0372092Y0079307D01*
X0372001Y0079363D01*
X0371912Y0079423D01*
X0371825Y0079486D01*
X0371741Y0079552D01*
X0371659Y0079621D01*
X0371580Y0079693D01*
X0371504Y0079768D01*
X0371430Y0079846D01*
X0371359Y0079927D01*
X0371291Y0080010D01*
X0371227Y0080095D01*
X0371165Y0080183D01*
X0371107Y0080273D01*
X0371053Y0080365D01*
X0371001Y0080460D01*
X0370954Y0080556D01*
X0370909Y0080653D01*
X0370869Y0080752D01*
X0370832Y0080853D01*
X0370799Y0080955D01*
X0370770Y0081058D01*
X0370744Y0081162D01*
X0370722Y0081267D01*
X0370705Y0081373D01*
X0370691Y0081479D01*
X0370681Y0081586D01*
X0370675Y0081693D01*
X0370673Y0081800D01*
X0370673Y0071800D02*
X0370675Y0071907D01*
X0370681Y0072014D01*
X0370691Y0072121D01*
X0370705Y0072227D01*
X0370722Y0072333D01*
X0370744Y0072438D01*
X0370770Y0072542D01*
X0370799Y0072645D01*
X0370832Y0072747D01*
X0370869Y0072848D01*
X0370909Y0072947D01*
X0370954Y0073044D01*
X0371001Y0073140D01*
X0371053Y0073235D01*
X0371107Y0073327D01*
X0371165Y0073417D01*
X0371227Y0073505D01*
X0371291Y0073590D01*
X0371359Y0073673D01*
X0371430Y0073754D01*
X0371504Y0073832D01*
X0371580Y0073907D01*
X0371659Y0073979D01*
X0371741Y0074048D01*
X0371825Y0074114D01*
X0371912Y0074177D01*
X0372001Y0074237D01*
X0372092Y0074293D01*
X0372185Y0074346D01*
X0372280Y0074396D01*
X0372377Y0074442D01*
X0372476Y0074484D01*
X0372576Y0074523D01*
X0372677Y0074558D01*
X0372779Y0074589D01*
X0372883Y0074617D01*
X0372988Y0074640D01*
X0373093Y0074660D01*
X0373199Y0074676D01*
X0373305Y0074688D01*
X0373412Y0074696D01*
X0373519Y0074700D01*
X0373627Y0074700D01*
X0373734Y0074696D01*
X0373841Y0074688D01*
X0373947Y0074676D01*
X0374053Y0074660D01*
X0374158Y0074640D01*
X0374263Y0074617D01*
X0374367Y0074589D01*
X0374469Y0074558D01*
X0374570Y0074523D01*
X0374670Y0074484D01*
X0374769Y0074442D01*
X0374866Y0074396D01*
X0374961Y0074346D01*
X0375054Y0074293D01*
X0375145Y0074237D01*
X0375234Y0074177D01*
X0375321Y0074114D01*
X0375405Y0074048D01*
X0375487Y0073979D01*
X0375566Y0073907D01*
X0375642Y0073832D01*
X0375716Y0073754D01*
X0375787Y0073673D01*
X0375855Y0073590D01*
X0375919Y0073505D01*
X0375981Y0073417D01*
X0376039Y0073327D01*
X0376093Y0073235D01*
X0376145Y0073140D01*
X0376192Y0073044D01*
X0376237Y0072947D01*
X0376277Y0072848D01*
X0376314Y0072747D01*
X0376347Y0072645D01*
X0376376Y0072542D01*
X0376402Y0072438D01*
X0376424Y0072333D01*
X0376441Y0072227D01*
X0376455Y0072121D01*
X0376465Y0072014D01*
X0376471Y0071907D01*
X0376473Y0071800D01*
X0376471Y0071693D01*
X0376465Y0071586D01*
X0376455Y0071479D01*
X0376441Y0071373D01*
X0376424Y0071267D01*
X0376402Y0071162D01*
X0376376Y0071058D01*
X0376347Y0070955D01*
X0376314Y0070853D01*
X0376277Y0070752D01*
X0376237Y0070653D01*
X0376192Y0070556D01*
X0376145Y0070460D01*
X0376093Y0070365D01*
X0376039Y0070273D01*
X0375981Y0070183D01*
X0375919Y0070095D01*
X0375855Y0070010D01*
X0375787Y0069927D01*
X0375716Y0069846D01*
X0375642Y0069768D01*
X0375566Y0069693D01*
X0375487Y0069621D01*
X0375405Y0069552D01*
X0375321Y0069486D01*
X0375234Y0069423D01*
X0375145Y0069363D01*
X0375054Y0069307D01*
X0374961Y0069254D01*
X0374866Y0069204D01*
X0374769Y0069158D01*
X0374670Y0069116D01*
X0374570Y0069077D01*
X0374469Y0069042D01*
X0374367Y0069011D01*
X0374263Y0068983D01*
X0374158Y0068960D01*
X0374053Y0068940D01*
X0373947Y0068924D01*
X0373841Y0068912D01*
X0373734Y0068904D01*
X0373627Y0068900D01*
X0373519Y0068900D01*
X0373412Y0068904D01*
X0373305Y0068912D01*
X0373199Y0068924D01*
X0373093Y0068940D01*
X0372988Y0068960D01*
X0372883Y0068983D01*
X0372779Y0069011D01*
X0372677Y0069042D01*
X0372576Y0069077D01*
X0372476Y0069116D01*
X0372377Y0069158D01*
X0372280Y0069204D01*
X0372185Y0069254D01*
X0372092Y0069307D01*
X0372001Y0069363D01*
X0371912Y0069423D01*
X0371825Y0069486D01*
X0371741Y0069552D01*
X0371659Y0069621D01*
X0371580Y0069693D01*
X0371504Y0069768D01*
X0371430Y0069846D01*
X0371359Y0069927D01*
X0371291Y0070010D01*
X0371227Y0070095D01*
X0371165Y0070183D01*
X0371107Y0070273D01*
X0371053Y0070365D01*
X0371001Y0070460D01*
X0370954Y0070556D01*
X0370909Y0070653D01*
X0370869Y0070752D01*
X0370832Y0070853D01*
X0370799Y0070955D01*
X0370770Y0071058D01*
X0370744Y0071162D01*
X0370722Y0071267D01*
X0370705Y0071373D01*
X0370691Y0071479D01*
X0370681Y0071586D01*
X0370675Y0071693D01*
X0370673Y0071800D01*
X0370673Y0061800D02*
X0370675Y0061907D01*
X0370681Y0062014D01*
X0370691Y0062121D01*
X0370705Y0062227D01*
X0370722Y0062333D01*
X0370744Y0062438D01*
X0370770Y0062542D01*
X0370799Y0062645D01*
X0370832Y0062747D01*
X0370869Y0062848D01*
X0370909Y0062947D01*
X0370954Y0063044D01*
X0371001Y0063140D01*
X0371053Y0063235D01*
X0371107Y0063327D01*
X0371165Y0063417D01*
X0371227Y0063505D01*
X0371291Y0063590D01*
X0371359Y0063673D01*
X0371430Y0063754D01*
X0371504Y0063832D01*
X0371580Y0063907D01*
X0371659Y0063979D01*
X0371741Y0064048D01*
X0371825Y0064114D01*
X0371912Y0064177D01*
X0372001Y0064237D01*
X0372092Y0064293D01*
X0372185Y0064346D01*
X0372280Y0064396D01*
X0372377Y0064442D01*
X0372476Y0064484D01*
X0372576Y0064523D01*
X0372677Y0064558D01*
X0372779Y0064589D01*
X0372883Y0064617D01*
X0372988Y0064640D01*
X0373093Y0064660D01*
X0373199Y0064676D01*
X0373305Y0064688D01*
X0373412Y0064696D01*
X0373519Y0064700D01*
X0373627Y0064700D01*
X0373734Y0064696D01*
X0373841Y0064688D01*
X0373947Y0064676D01*
X0374053Y0064660D01*
X0374158Y0064640D01*
X0374263Y0064617D01*
X0374367Y0064589D01*
X0374469Y0064558D01*
X0374570Y0064523D01*
X0374670Y0064484D01*
X0374769Y0064442D01*
X0374866Y0064396D01*
X0374961Y0064346D01*
X0375054Y0064293D01*
X0375145Y0064237D01*
X0375234Y0064177D01*
X0375321Y0064114D01*
X0375405Y0064048D01*
X0375487Y0063979D01*
X0375566Y0063907D01*
X0375642Y0063832D01*
X0375716Y0063754D01*
X0375787Y0063673D01*
X0375855Y0063590D01*
X0375919Y0063505D01*
X0375981Y0063417D01*
X0376039Y0063327D01*
X0376093Y0063235D01*
X0376145Y0063140D01*
X0376192Y0063044D01*
X0376237Y0062947D01*
X0376277Y0062848D01*
X0376314Y0062747D01*
X0376347Y0062645D01*
X0376376Y0062542D01*
X0376402Y0062438D01*
X0376424Y0062333D01*
X0376441Y0062227D01*
X0376455Y0062121D01*
X0376465Y0062014D01*
X0376471Y0061907D01*
X0376473Y0061800D01*
X0376471Y0061693D01*
X0376465Y0061586D01*
X0376455Y0061479D01*
X0376441Y0061373D01*
X0376424Y0061267D01*
X0376402Y0061162D01*
X0376376Y0061058D01*
X0376347Y0060955D01*
X0376314Y0060853D01*
X0376277Y0060752D01*
X0376237Y0060653D01*
X0376192Y0060556D01*
X0376145Y0060460D01*
X0376093Y0060365D01*
X0376039Y0060273D01*
X0375981Y0060183D01*
X0375919Y0060095D01*
X0375855Y0060010D01*
X0375787Y0059927D01*
X0375716Y0059846D01*
X0375642Y0059768D01*
X0375566Y0059693D01*
X0375487Y0059621D01*
X0375405Y0059552D01*
X0375321Y0059486D01*
X0375234Y0059423D01*
X0375145Y0059363D01*
X0375054Y0059307D01*
X0374961Y0059254D01*
X0374866Y0059204D01*
X0374769Y0059158D01*
X0374670Y0059116D01*
X0374570Y0059077D01*
X0374469Y0059042D01*
X0374367Y0059011D01*
X0374263Y0058983D01*
X0374158Y0058960D01*
X0374053Y0058940D01*
X0373947Y0058924D01*
X0373841Y0058912D01*
X0373734Y0058904D01*
X0373627Y0058900D01*
X0373519Y0058900D01*
X0373412Y0058904D01*
X0373305Y0058912D01*
X0373199Y0058924D01*
X0373093Y0058940D01*
X0372988Y0058960D01*
X0372883Y0058983D01*
X0372779Y0059011D01*
X0372677Y0059042D01*
X0372576Y0059077D01*
X0372476Y0059116D01*
X0372377Y0059158D01*
X0372280Y0059204D01*
X0372185Y0059254D01*
X0372092Y0059307D01*
X0372001Y0059363D01*
X0371912Y0059423D01*
X0371825Y0059486D01*
X0371741Y0059552D01*
X0371659Y0059621D01*
X0371580Y0059693D01*
X0371504Y0059768D01*
X0371430Y0059846D01*
X0371359Y0059927D01*
X0371291Y0060010D01*
X0371227Y0060095D01*
X0371165Y0060183D01*
X0371107Y0060273D01*
X0371053Y0060365D01*
X0371001Y0060460D01*
X0370954Y0060556D01*
X0370909Y0060653D01*
X0370869Y0060752D01*
X0370832Y0060853D01*
X0370799Y0060955D01*
X0370770Y0061058D01*
X0370744Y0061162D01*
X0370722Y0061267D01*
X0370705Y0061373D01*
X0370691Y0061479D01*
X0370681Y0061586D01*
X0370675Y0061693D01*
X0370673Y0061800D01*
X0370673Y0121800D02*
X0370675Y0121907D01*
X0370681Y0122014D01*
X0370691Y0122121D01*
X0370705Y0122227D01*
X0370722Y0122333D01*
X0370744Y0122438D01*
X0370770Y0122542D01*
X0370799Y0122645D01*
X0370832Y0122747D01*
X0370869Y0122848D01*
X0370909Y0122947D01*
X0370954Y0123044D01*
X0371001Y0123140D01*
X0371053Y0123235D01*
X0371107Y0123327D01*
X0371165Y0123417D01*
X0371227Y0123505D01*
X0371291Y0123590D01*
X0371359Y0123673D01*
X0371430Y0123754D01*
X0371504Y0123832D01*
X0371580Y0123907D01*
X0371659Y0123979D01*
X0371741Y0124048D01*
X0371825Y0124114D01*
X0371912Y0124177D01*
X0372001Y0124237D01*
X0372092Y0124293D01*
X0372185Y0124346D01*
X0372280Y0124396D01*
X0372377Y0124442D01*
X0372476Y0124484D01*
X0372576Y0124523D01*
X0372677Y0124558D01*
X0372779Y0124589D01*
X0372883Y0124617D01*
X0372988Y0124640D01*
X0373093Y0124660D01*
X0373199Y0124676D01*
X0373305Y0124688D01*
X0373412Y0124696D01*
X0373519Y0124700D01*
X0373627Y0124700D01*
X0373734Y0124696D01*
X0373841Y0124688D01*
X0373947Y0124676D01*
X0374053Y0124660D01*
X0374158Y0124640D01*
X0374263Y0124617D01*
X0374367Y0124589D01*
X0374469Y0124558D01*
X0374570Y0124523D01*
X0374670Y0124484D01*
X0374769Y0124442D01*
X0374866Y0124396D01*
X0374961Y0124346D01*
X0375054Y0124293D01*
X0375145Y0124237D01*
X0375234Y0124177D01*
X0375321Y0124114D01*
X0375405Y0124048D01*
X0375487Y0123979D01*
X0375566Y0123907D01*
X0375642Y0123832D01*
X0375716Y0123754D01*
X0375787Y0123673D01*
X0375855Y0123590D01*
X0375919Y0123505D01*
X0375981Y0123417D01*
X0376039Y0123327D01*
X0376093Y0123235D01*
X0376145Y0123140D01*
X0376192Y0123044D01*
X0376237Y0122947D01*
X0376277Y0122848D01*
X0376314Y0122747D01*
X0376347Y0122645D01*
X0376376Y0122542D01*
X0376402Y0122438D01*
X0376424Y0122333D01*
X0376441Y0122227D01*
X0376455Y0122121D01*
X0376465Y0122014D01*
X0376471Y0121907D01*
X0376473Y0121800D01*
X0376471Y0121693D01*
X0376465Y0121586D01*
X0376455Y0121479D01*
X0376441Y0121373D01*
X0376424Y0121267D01*
X0376402Y0121162D01*
X0376376Y0121058D01*
X0376347Y0120955D01*
X0376314Y0120853D01*
X0376277Y0120752D01*
X0376237Y0120653D01*
X0376192Y0120556D01*
X0376145Y0120460D01*
X0376093Y0120365D01*
X0376039Y0120273D01*
X0375981Y0120183D01*
X0375919Y0120095D01*
X0375855Y0120010D01*
X0375787Y0119927D01*
X0375716Y0119846D01*
X0375642Y0119768D01*
X0375566Y0119693D01*
X0375487Y0119621D01*
X0375405Y0119552D01*
X0375321Y0119486D01*
X0375234Y0119423D01*
X0375145Y0119363D01*
X0375054Y0119307D01*
X0374961Y0119254D01*
X0374866Y0119204D01*
X0374769Y0119158D01*
X0374670Y0119116D01*
X0374570Y0119077D01*
X0374469Y0119042D01*
X0374367Y0119011D01*
X0374263Y0118983D01*
X0374158Y0118960D01*
X0374053Y0118940D01*
X0373947Y0118924D01*
X0373841Y0118912D01*
X0373734Y0118904D01*
X0373627Y0118900D01*
X0373519Y0118900D01*
X0373412Y0118904D01*
X0373305Y0118912D01*
X0373199Y0118924D01*
X0373093Y0118940D01*
X0372988Y0118960D01*
X0372883Y0118983D01*
X0372779Y0119011D01*
X0372677Y0119042D01*
X0372576Y0119077D01*
X0372476Y0119116D01*
X0372377Y0119158D01*
X0372280Y0119204D01*
X0372185Y0119254D01*
X0372092Y0119307D01*
X0372001Y0119363D01*
X0371912Y0119423D01*
X0371825Y0119486D01*
X0371741Y0119552D01*
X0371659Y0119621D01*
X0371580Y0119693D01*
X0371504Y0119768D01*
X0371430Y0119846D01*
X0371359Y0119927D01*
X0371291Y0120010D01*
X0371227Y0120095D01*
X0371165Y0120183D01*
X0371107Y0120273D01*
X0371053Y0120365D01*
X0371001Y0120460D01*
X0370954Y0120556D01*
X0370909Y0120653D01*
X0370869Y0120752D01*
X0370832Y0120853D01*
X0370799Y0120955D01*
X0370770Y0121058D01*
X0370744Y0121162D01*
X0370722Y0121267D01*
X0370705Y0121373D01*
X0370691Y0121479D01*
X0370681Y0121586D01*
X0370675Y0121693D01*
X0370673Y0121800D01*
X0360673Y0121800D02*
X0360675Y0121907D01*
X0360681Y0122014D01*
X0360691Y0122121D01*
X0360705Y0122227D01*
X0360722Y0122333D01*
X0360744Y0122438D01*
X0360770Y0122542D01*
X0360799Y0122645D01*
X0360832Y0122747D01*
X0360869Y0122848D01*
X0360909Y0122947D01*
X0360954Y0123044D01*
X0361001Y0123140D01*
X0361053Y0123235D01*
X0361107Y0123327D01*
X0361165Y0123417D01*
X0361227Y0123505D01*
X0361291Y0123590D01*
X0361359Y0123673D01*
X0361430Y0123754D01*
X0361504Y0123832D01*
X0361580Y0123907D01*
X0361659Y0123979D01*
X0361741Y0124048D01*
X0361825Y0124114D01*
X0361912Y0124177D01*
X0362001Y0124237D01*
X0362092Y0124293D01*
X0362185Y0124346D01*
X0362280Y0124396D01*
X0362377Y0124442D01*
X0362476Y0124484D01*
X0362576Y0124523D01*
X0362677Y0124558D01*
X0362779Y0124589D01*
X0362883Y0124617D01*
X0362988Y0124640D01*
X0363093Y0124660D01*
X0363199Y0124676D01*
X0363305Y0124688D01*
X0363412Y0124696D01*
X0363519Y0124700D01*
X0363627Y0124700D01*
X0363734Y0124696D01*
X0363841Y0124688D01*
X0363947Y0124676D01*
X0364053Y0124660D01*
X0364158Y0124640D01*
X0364263Y0124617D01*
X0364367Y0124589D01*
X0364469Y0124558D01*
X0364570Y0124523D01*
X0364670Y0124484D01*
X0364769Y0124442D01*
X0364866Y0124396D01*
X0364961Y0124346D01*
X0365054Y0124293D01*
X0365145Y0124237D01*
X0365234Y0124177D01*
X0365321Y0124114D01*
X0365405Y0124048D01*
X0365487Y0123979D01*
X0365566Y0123907D01*
X0365642Y0123832D01*
X0365716Y0123754D01*
X0365787Y0123673D01*
X0365855Y0123590D01*
X0365919Y0123505D01*
X0365981Y0123417D01*
X0366039Y0123327D01*
X0366093Y0123235D01*
X0366145Y0123140D01*
X0366192Y0123044D01*
X0366237Y0122947D01*
X0366277Y0122848D01*
X0366314Y0122747D01*
X0366347Y0122645D01*
X0366376Y0122542D01*
X0366402Y0122438D01*
X0366424Y0122333D01*
X0366441Y0122227D01*
X0366455Y0122121D01*
X0366465Y0122014D01*
X0366471Y0121907D01*
X0366473Y0121800D01*
X0366471Y0121693D01*
X0366465Y0121586D01*
X0366455Y0121479D01*
X0366441Y0121373D01*
X0366424Y0121267D01*
X0366402Y0121162D01*
X0366376Y0121058D01*
X0366347Y0120955D01*
X0366314Y0120853D01*
X0366277Y0120752D01*
X0366237Y0120653D01*
X0366192Y0120556D01*
X0366145Y0120460D01*
X0366093Y0120365D01*
X0366039Y0120273D01*
X0365981Y0120183D01*
X0365919Y0120095D01*
X0365855Y0120010D01*
X0365787Y0119927D01*
X0365716Y0119846D01*
X0365642Y0119768D01*
X0365566Y0119693D01*
X0365487Y0119621D01*
X0365405Y0119552D01*
X0365321Y0119486D01*
X0365234Y0119423D01*
X0365145Y0119363D01*
X0365054Y0119307D01*
X0364961Y0119254D01*
X0364866Y0119204D01*
X0364769Y0119158D01*
X0364670Y0119116D01*
X0364570Y0119077D01*
X0364469Y0119042D01*
X0364367Y0119011D01*
X0364263Y0118983D01*
X0364158Y0118960D01*
X0364053Y0118940D01*
X0363947Y0118924D01*
X0363841Y0118912D01*
X0363734Y0118904D01*
X0363627Y0118900D01*
X0363519Y0118900D01*
X0363412Y0118904D01*
X0363305Y0118912D01*
X0363199Y0118924D01*
X0363093Y0118940D01*
X0362988Y0118960D01*
X0362883Y0118983D01*
X0362779Y0119011D01*
X0362677Y0119042D01*
X0362576Y0119077D01*
X0362476Y0119116D01*
X0362377Y0119158D01*
X0362280Y0119204D01*
X0362185Y0119254D01*
X0362092Y0119307D01*
X0362001Y0119363D01*
X0361912Y0119423D01*
X0361825Y0119486D01*
X0361741Y0119552D01*
X0361659Y0119621D01*
X0361580Y0119693D01*
X0361504Y0119768D01*
X0361430Y0119846D01*
X0361359Y0119927D01*
X0361291Y0120010D01*
X0361227Y0120095D01*
X0361165Y0120183D01*
X0361107Y0120273D01*
X0361053Y0120365D01*
X0361001Y0120460D01*
X0360954Y0120556D01*
X0360909Y0120653D01*
X0360869Y0120752D01*
X0360832Y0120853D01*
X0360799Y0120955D01*
X0360770Y0121058D01*
X0360744Y0121162D01*
X0360722Y0121267D01*
X0360705Y0121373D01*
X0360691Y0121479D01*
X0360681Y0121586D01*
X0360675Y0121693D01*
X0360673Y0121800D01*
X0360673Y0131800D02*
X0360675Y0131907D01*
X0360681Y0132014D01*
X0360691Y0132121D01*
X0360705Y0132227D01*
X0360722Y0132333D01*
X0360744Y0132438D01*
X0360770Y0132542D01*
X0360799Y0132645D01*
X0360832Y0132747D01*
X0360869Y0132848D01*
X0360909Y0132947D01*
X0360954Y0133044D01*
X0361001Y0133140D01*
X0361053Y0133235D01*
X0361107Y0133327D01*
X0361165Y0133417D01*
X0361227Y0133505D01*
X0361291Y0133590D01*
X0361359Y0133673D01*
X0361430Y0133754D01*
X0361504Y0133832D01*
X0361580Y0133907D01*
X0361659Y0133979D01*
X0361741Y0134048D01*
X0361825Y0134114D01*
X0361912Y0134177D01*
X0362001Y0134237D01*
X0362092Y0134293D01*
X0362185Y0134346D01*
X0362280Y0134396D01*
X0362377Y0134442D01*
X0362476Y0134484D01*
X0362576Y0134523D01*
X0362677Y0134558D01*
X0362779Y0134589D01*
X0362883Y0134617D01*
X0362988Y0134640D01*
X0363093Y0134660D01*
X0363199Y0134676D01*
X0363305Y0134688D01*
X0363412Y0134696D01*
X0363519Y0134700D01*
X0363627Y0134700D01*
X0363734Y0134696D01*
X0363841Y0134688D01*
X0363947Y0134676D01*
X0364053Y0134660D01*
X0364158Y0134640D01*
X0364263Y0134617D01*
X0364367Y0134589D01*
X0364469Y0134558D01*
X0364570Y0134523D01*
X0364670Y0134484D01*
X0364769Y0134442D01*
X0364866Y0134396D01*
X0364961Y0134346D01*
X0365054Y0134293D01*
X0365145Y0134237D01*
X0365234Y0134177D01*
X0365321Y0134114D01*
X0365405Y0134048D01*
X0365487Y0133979D01*
X0365566Y0133907D01*
X0365642Y0133832D01*
X0365716Y0133754D01*
X0365787Y0133673D01*
X0365855Y0133590D01*
X0365919Y0133505D01*
X0365981Y0133417D01*
X0366039Y0133327D01*
X0366093Y0133235D01*
X0366145Y0133140D01*
X0366192Y0133044D01*
X0366237Y0132947D01*
X0366277Y0132848D01*
X0366314Y0132747D01*
X0366347Y0132645D01*
X0366376Y0132542D01*
X0366402Y0132438D01*
X0366424Y0132333D01*
X0366441Y0132227D01*
X0366455Y0132121D01*
X0366465Y0132014D01*
X0366471Y0131907D01*
X0366473Y0131800D01*
X0366471Y0131693D01*
X0366465Y0131586D01*
X0366455Y0131479D01*
X0366441Y0131373D01*
X0366424Y0131267D01*
X0366402Y0131162D01*
X0366376Y0131058D01*
X0366347Y0130955D01*
X0366314Y0130853D01*
X0366277Y0130752D01*
X0366237Y0130653D01*
X0366192Y0130556D01*
X0366145Y0130460D01*
X0366093Y0130365D01*
X0366039Y0130273D01*
X0365981Y0130183D01*
X0365919Y0130095D01*
X0365855Y0130010D01*
X0365787Y0129927D01*
X0365716Y0129846D01*
X0365642Y0129768D01*
X0365566Y0129693D01*
X0365487Y0129621D01*
X0365405Y0129552D01*
X0365321Y0129486D01*
X0365234Y0129423D01*
X0365145Y0129363D01*
X0365054Y0129307D01*
X0364961Y0129254D01*
X0364866Y0129204D01*
X0364769Y0129158D01*
X0364670Y0129116D01*
X0364570Y0129077D01*
X0364469Y0129042D01*
X0364367Y0129011D01*
X0364263Y0128983D01*
X0364158Y0128960D01*
X0364053Y0128940D01*
X0363947Y0128924D01*
X0363841Y0128912D01*
X0363734Y0128904D01*
X0363627Y0128900D01*
X0363519Y0128900D01*
X0363412Y0128904D01*
X0363305Y0128912D01*
X0363199Y0128924D01*
X0363093Y0128940D01*
X0362988Y0128960D01*
X0362883Y0128983D01*
X0362779Y0129011D01*
X0362677Y0129042D01*
X0362576Y0129077D01*
X0362476Y0129116D01*
X0362377Y0129158D01*
X0362280Y0129204D01*
X0362185Y0129254D01*
X0362092Y0129307D01*
X0362001Y0129363D01*
X0361912Y0129423D01*
X0361825Y0129486D01*
X0361741Y0129552D01*
X0361659Y0129621D01*
X0361580Y0129693D01*
X0361504Y0129768D01*
X0361430Y0129846D01*
X0361359Y0129927D01*
X0361291Y0130010D01*
X0361227Y0130095D01*
X0361165Y0130183D01*
X0361107Y0130273D01*
X0361053Y0130365D01*
X0361001Y0130460D01*
X0360954Y0130556D01*
X0360909Y0130653D01*
X0360869Y0130752D01*
X0360832Y0130853D01*
X0360799Y0130955D01*
X0360770Y0131058D01*
X0360744Y0131162D01*
X0360722Y0131267D01*
X0360705Y0131373D01*
X0360691Y0131479D01*
X0360681Y0131586D01*
X0360675Y0131693D01*
X0360673Y0131800D01*
X0370673Y0131800D02*
X0370675Y0131907D01*
X0370681Y0132014D01*
X0370691Y0132121D01*
X0370705Y0132227D01*
X0370722Y0132333D01*
X0370744Y0132438D01*
X0370770Y0132542D01*
X0370799Y0132645D01*
X0370832Y0132747D01*
X0370869Y0132848D01*
X0370909Y0132947D01*
X0370954Y0133044D01*
X0371001Y0133140D01*
X0371053Y0133235D01*
X0371107Y0133327D01*
X0371165Y0133417D01*
X0371227Y0133505D01*
X0371291Y0133590D01*
X0371359Y0133673D01*
X0371430Y0133754D01*
X0371504Y0133832D01*
X0371580Y0133907D01*
X0371659Y0133979D01*
X0371741Y0134048D01*
X0371825Y0134114D01*
X0371912Y0134177D01*
X0372001Y0134237D01*
X0372092Y0134293D01*
X0372185Y0134346D01*
X0372280Y0134396D01*
X0372377Y0134442D01*
X0372476Y0134484D01*
X0372576Y0134523D01*
X0372677Y0134558D01*
X0372779Y0134589D01*
X0372883Y0134617D01*
X0372988Y0134640D01*
X0373093Y0134660D01*
X0373199Y0134676D01*
X0373305Y0134688D01*
X0373412Y0134696D01*
X0373519Y0134700D01*
X0373627Y0134700D01*
X0373734Y0134696D01*
X0373841Y0134688D01*
X0373947Y0134676D01*
X0374053Y0134660D01*
X0374158Y0134640D01*
X0374263Y0134617D01*
X0374367Y0134589D01*
X0374469Y0134558D01*
X0374570Y0134523D01*
X0374670Y0134484D01*
X0374769Y0134442D01*
X0374866Y0134396D01*
X0374961Y0134346D01*
X0375054Y0134293D01*
X0375145Y0134237D01*
X0375234Y0134177D01*
X0375321Y0134114D01*
X0375405Y0134048D01*
X0375487Y0133979D01*
X0375566Y0133907D01*
X0375642Y0133832D01*
X0375716Y0133754D01*
X0375787Y0133673D01*
X0375855Y0133590D01*
X0375919Y0133505D01*
X0375981Y0133417D01*
X0376039Y0133327D01*
X0376093Y0133235D01*
X0376145Y0133140D01*
X0376192Y0133044D01*
X0376237Y0132947D01*
X0376277Y0132848D01*
X0376314Y0132747D01*
X0376347Y0132645D01*
X0376376Y0132542D01*
X0376402Y0132438D01*
X0376424Y0132333D01*
X0376441Y0132227D01*
X0376455Y0132121D01*
X0376465Y0132014D01*
X0376471Y0131907D01*
X0376473Y0131800D01*
X0376471Y0131693D01*
X0376465Y0131586D01*
X0376455Y0131479D01*
X0376441Y0131373D01*
X0376424Y0131267D01*
X0376402Y0131162D01*
X0376376Y0131058D01*
X0376347Y0130955D01*
X0376314Y0130853D01*
X0376277Y0130752D01*
X0376237Y0130653D01*
X0376192Y0130556D01*
X0376145Y0130460D01*
X0376093Y0130365D01*
X0376039Y0130273D01*
X0375981Y0130183D01*
X0375919Y0130095D01*
X0375855Y0130010D01*
X0375787Y0129927D01*
X0375716Y0129846D01*
X0375642Y0129768D01*
X0375566Y0129693D01*
X0375487Y0129621D01*
X0375405Y0129552D01*
X0375321Y0129486D01*
X0375234Y0129423D01*
X0375145Y0129363D01*
X0375054Y0129307D01*
X0374961Y0129254D01*
X0374866Y0129204D01*
X0374769Y0129158D01*
X0374670Y0129116D01*
X0374570Y0129077D01*
X0374469Y0129042D01*
X0374367Y0129011D01*
X0374263Y0128983D01*
X0374158Y0128960D01*
X0374053Y0128940D01*
X0373947Y0128924D01*
X0373841Y0128912D01*
X0373734Y0128904D01*
X0373627Y0128900D01*
X0373519Y0128900D01*
X0373412Y0128904D01*
X0373305Y0128912D01*
X0373199Y0128924D01*
X0373093Y0128940D01*
X0372988Y0128960D01*
X0372883Y0128983D01*
X0372779Y0129011D01*
X0372677Y0129042D01*
X0372576Y0129077D01*
X0372476Y0129116D01*
X0372377Y0129158D01*
X0372280Y0129204D01*
X0372185Y0129254D01*
X0372092Y0129307D01*
X0372001Y0129363D01*
X0371912Y0129423D01*
X0371825Y0129486D01*
X0371741Y0129552D01*
X0371659Y0129621D01*
X0371580Y0129693D01*
X0371504Y0129768D01*
X0371430Y0129846D01*
X0371359Y0129927D01*
X0371291Y0130010D01*
X0371227Y0130095D01*
X0371165Y0130183D01*
X0371107Y0130273D01*
X0371053Y0130365D01*
X0371001Y0130460D01*
X0370954Y0130556D01*
X0370909Y0130653D01*
X0370869Y0130752D01*
X0370832Y0130853D01*
X0370799Y0130955D01*
X0370770Y0131058D01*
X0370744Y0131162D01*
X0370722Y0131267D01*
X0370705Y0131373D01*
X0370691Y0131479D01*
X0370681Y0131586D01*
X0370675Y0131693D01*
X0370673Y0131800D01*
X0370673Y0141800D02*
X0370675Y0141907D01*
X0370681Y0142014D01*
X0370691Y0142121D01*
X0370705Y0142227D01*
X0370722Y0142333D01*
X0370744Y0142438D01*
X0370770Y0142542D01*
X0370799Y0142645D01*
X0370832Y0142747D01*
X0370869Y0142848D01*
X0370909Y0142947D01*
X0370954Y0143044D01*
X0371001Y0143140D01*
X0371053Y0143235D01*
X0371107Y0143327D01*
X0371165Y0143417D01*
X0371227Y0143505D01*
X0371291Y0143590D01*
X0371359Y0143673D01*
X0371430Y0143754D01*
X0371504Y0143832D01*
X0371580Y0143907D01*
X0371659Y0143979D01*
X0371741Y0144048D01*
X0371825Y0144114D01*
X0371912Y0144177D01*
X0372001Y0144237D01*
X0372092Y0144293D01*
X0372185Y0144346D01*
X0372280Y0144396D01*
X0372377Y0144442D01*
X0372476Y0144484D01*
X0372576Y0144523D01*
X0372677Y0144558D01*
X0372779Y0144589D01*
X0372883Y0144617D01*
X0372988Y0144640D01*
X0373093Y0144660D01*
X0373199Y0144676D01*
X0373305Y0144688D01*
X0373412Y0144696D01*
X0373519Y0144700D01*
X0373627Y0144700D01*
X0373734Y0144696D01*
X0373841Y0144688D01*
X0373947Y0144676D01*
X0374053Y0144660D01*
X0374158Y0144640D01*
X0374263Y0144617D01*
X0374367Y0144589D01*
X0374469Y0144558D01*
X0374570Y0144523D01*
X0374670Y0144484D01*
X0374769Y0144442D01*
X0374866Y0144396D01*
X0374961Y0144346D01*
X0375054Y0144293D01*
X0375145Y0144237D01*
X0375234Y0144177D01*
X0375321Y0144114D01*
X0375405Y0144048D01*
X0375487Y0143979D01*
X0375566Y0143907D01*
X0375642Y0143832D01*
X0375716Y0143754D01*
X0375787Y0143673D01*
X0375855Y0143590D01*
X0375919Y0143505D01*
X0375981Y0143417D01*
X0376039Y0143327D01*
X0376093Y0143235D01*
X0376145Y0143140D01*
X0376192Y0143044D01*
X0376237Y0142947D01*
X0376277Y0142848D01*
X0376314Y0142747D01*
X0376347Y0142645D01*
X0376376Y0142542D01*
X0376402Y0142438D01*
X0376424Y0142333D01*
X0376441Y0142227D01*
X0376455Y0142121D01*
X0376465Y0142014D01*
X0376471Y0141907D01*
X0376473Y0141800D01*
X0376471Y0141693D01*
X0376465Y0141586D01*
X0376455Y0141479D01*
X0376441Y0141373D01*
X0376424Y0141267D01*
X0376402Y0141162D01*
X0376376Y0141058D01*
X0376347Y0140955D01*
X0376314Y0140853D01*
X0376277Y0140752D01*
X0376237Y0140653D01*
X0376192Y0140556D01*
X0376145Y0140460D01*
X0376093Y0140365D01*
X0376039Y0140273D01*
X0375981Y0140183D01*
X0375919Y0140095D01*
X0375855Y0140010D01*
X0375787Y0139927D01*
X0375716Y0139846D01*
X0375642Y0139768D01*
X0375566Y0139693D01*
X0375487Y0139621D01*
X0375405Y0139552D01*
X0375321Y0139486D01*
X0375234Y0139423D01*
X0375145Y0139363D01*
X0375054Y0139307D01*
X0374961Y0139254D01*
X0374866Y0139204D01*
X0374769Y0139158D01*
X0374670Y0139116D01*
X0374570Y0139077D01*
X0374469Y0139042D01*
X0374367Y0139011D01*
X0374263Y0138983D01*
X0374158Y0138960D01*
X0374053Y0138940D01*
X0373947Y0138924D01*
X0373841Y0138912D01*
X0373734Y0138904D01*
X0373627Y0138900D01*
X0373519Y0138900D01*
X0373412Y0138904D01*
X0373305Y0138912D01*
X0373199Y0138924D01*
X0373093Y0138940D01*
X0372988Y0138960D01*
X0372883Y0138983D01*
X0372779Y0139011D01*
X0372677Y0139042D01*
X0372576Y0139077D01*
X0372476Y0139116D01*
X0372377Y0139158D01*
X0372280Y0139204D01*
X0372185Y0139254D01*
X0372092Y0139307D01*
X0372001Y0139363D01*
X0371912Y0139423D01*
X0371825Y0139486D01*
X0371741Y0139552D01*
X0371659Y0139621D01*
X0371580Y0139693D01*
X0371504Y0139768D01*
X0371430Y0139846D01*
X0371359Y0139927D01*
X0371291Y0140010D01*
X0371227Y0140095D01*
X0371165Y0140183D01*
X0371107Y0140273D01*
X0371053Y0140365D01*
X0371001Y0140460D01*
X0370954Y0140556D01*
X0370909Y0140653D01*
X0370869Y0140752D01*
X0370832Y0140853D01*
X0370799Y0140955D01*
X0370770Y0141058D01*
X0370744Y0141162D01*
X0370722Y0141267D01*
X0370705Y0141373D01*
X0370691Y0141479D01*
X0370681Y0141586D01*
X0370675Y0141693D01*
X0370673Y0141800D01*
X0350673Y0211800D02*
X0350675Y0211907D01*
X0350681Y0212014D01*
X0350691Y0212121D01*
X0350705Y0212227D01*
X0350722Y0212333D01*
X0350744Y0212438D01*
X0350770Y0212542D01*
X0350799Y0212645D01*
X0350832Y0212747D01*
X0350869Y0212848D01*
X0350909Y0212947D01*
X0350954Y0213044D01*
X0351001Y0213140D01*
X0351053Y0213235D01*
X0351107Y0213327D01*
X0351165Y0213417D01*
X0351227Y0213505D01*
X0351291Y0213590D01*
X0351359Y0213673D01*
X0351430Y0213754D01*
X0351504Y0213832D01*
X0351580Y0213907D01*
X0351659Y0213979D01*
X0351741Y0214048D01*
X0351825Y0214114D01*
X0351912Y0214177D01*
X0352001Y0214237D01*
X0352092Y0214293D01*
X0352185Y0214346D01*
X0352280Y0214396D01*
X0352377Y0214442D01*
X0352476Y0214484D01*
X0352576Y0214523D01*
X0352677Y0214558D01*
X0352779Y0214589D01*
X0352883Y0214617D01*
X0352988Y0214640D01*
X0353093Y0214660D01*
X0353199Y0214676D01*
X0353305Y0214688D01*
X0353412Y0214696D01*
X0353519Y0214700D01*
X0353627Y0214700D01*
X0353734Y0214696D01*
X0353841Y0214688D01*
X0353947Y0214676D01*
X0354053Y0214660D01*
X0354158Y0214640D01*
X0354263Y0214617D01*
X0354367Y0214589D01*
X0354469Y0214558D01*
X0354570Y0214523D01*
X0354670Y0214484D01*
X0354769Y0214442D01*
X0354866Y0214396D01*
X0354961Y0214346D01*
X0355054Y0214293D01*
X0355145Y0214237D01*
X0355234Y0214177D01*
X0355321Y0214114D01*
X0355405Y0214048D01*
X0355487Y0213979D01*
X0355566Y0213907D01*
X0355642Y0213832D01*
X0355716Y0213754D01*
X0355787Y0213673D01*
X0355855Y0213590D01*
X0355919Y0213505D01*
X0355981Y0213417D01*
X0356039Y0213327D01*
X0356093Y0213235D01*
X0356145Y0213140D01*
X0356192Y0213044D01*
X0356237Y0212947D01*
X0356277Y0212848D01*
X0356314Y0212747D01*
X0356347Y0212645D01*
X0356376Y0212542D01*
X0356402Y0212438D01*
X0356424Y0212333D01*
X0356441Y0212227D01*
X0356455Y0212121D01*
X0356465Y0212014D01*
X0356471Y0211907D01*
X0356473Y0211800D01*
X0356471Y0211693D01*
X0356465Y0211586D01*
X0356455Y0211479D01*
X0356441Y0211373D01*
X0356424Y0211267D01*
X0356402Y0211162D01*
X0356376Y0211058D01*
X0356347Y0210955D01*
X0356314Y0210853D01*
X0356277Y0210752D01*
X0356237Y0210653D01*
X0356192Y0210556D01*
X0356145Y0210460D01*
X0356093Y0210365D01*
X0356039Y0210273D01*
X0355981Y0210183D01*
X0355919Y0210095D01*
X0355855Y0210010D01*
X0355787Y0209927D01*
X0355716Y0209846D01*
X0355642Y0209768D01*
X0355566Y0209693D01*
X0355487Y0209621D01*
X0355405Y0209552D01*
X0355321Y0209486D01*
X0355234Y0209423D01*
X0355145Y0209363D01*
X0355054Y0209307D01*
X0354961Y0209254D01*
X0354866Y0209204D01*
X0354769Y0209158D01*
X0354670Y0209116D01*
X0354570Y0209077D01*
X0354469Y0209042D01*
X0354367Y0209011D01*
X0354263Y0208983D01*
X0354158Y0208960D01*
X0354053Y0208940D01*
X0353947Y0208924D01*
X0353841Y0208912D01*
X0353734Y0208904D01*
X0353627Y0208900D01*
X0353519Y0208900D01*
X0353412Y0208904D01*
X0353305Y0208912D01*
X0353199Y0208924D01*
X0353093Y0208940D01*
X0352988Y0208960D01*
X0352883Y0208983D01*
X0352779Y0209011D01*
X0352677Y0209042D01*
X0352576Y0209077D01*
X0352476Y0209116D01*
X0352377Y0209158D01*
X0352280Y0209204D01*
X0352185Y0209254D01*
X0352092Y0209307D01*
X0352001Y0209363D01*
X0351912Y0209423D01*
X0351825Y0209486D01*
X0351741Y0209552D01*
X0351659Y0209621D01*
X0351580Y0209693D01*
X0351504Y0209768D01*
X0351430Y0209846D01*
X0351359Y0209927D01*
X0351291Y0210010D01*
X0351227Y0210095D01*
X0351165Y0210183D01*
X0351107Y0210273D01*
X0351053Y0210365D01*
X0351001Y0210460D01*
X0350954Y0210556D01*
X0350909Y0210653D01*
X0350869Y0210752D01*
X0350832Y0210853D01*
X0350799Y0210955D01*
X0350770Y0211058D01*
X0350744Y0211162D01*
X0350722Y0211267D01*
X0350705Y0211373D01*
X0350691Y0211479D01*
X0350681Y0211586D01*
X0350675Y0211693D01*
X0350673Y0211800D01*
X0340673Y0211800D02*
X0340675Y0211907D01*
X0340681Y0212014D01*
X0340691Y0212121D01*
X0340705Y0212227D01*
X0340722Y0212333D01*
X0340744Y0212438D01*
X0340770Y0212542D01*
X0340799Y0212645D01*
X0340832Y0212747D01*
X0340869Y0212848D01*
X0340909Y0212947D01*
X0340954Y0213044D01*
X0341001Y0213140D01*
X0341053Y0213235D01*
X0341107Y0213327D01*
X0341165Y0213417D01*
X0341227Y0213505D01*
X0341291Y0213590D01*
X0341359Y0213673D01*
X0341430Y0213754D01*
X0341504Y0213832D01*
X0341580Y0213907D01*
X0341659Y0213979D01*
X0341741Y0214048D01*
X0341825Y0214114D01*
X0341912Y0214177D01*
X0342001Y0214237D01*
X0342092Y0214293D01*
X0342185Y0214346D01*
X0342280Y0214396D01*
X0342377Y0214442D01*
X0342476Y0214484D01*
X0342576Y0214523D01*
X0342677Y0214558D01*
X0342779Y0214589D01*
X0342883Y0214617D01*
X0342988Y0214640D01*
X0343093Y0214660D01*
X0343199Y0214676D01*
X0343305Y0214688D01*
X0343412Y0214696D01*
X0343519Y0214700D01*
X0343627Y0214700D01*
X0343734Y0214696D01*
X0343841Y0214688D01*
X0343947Y0214676D01*
X0344053Y0214660D01*
X0344158Y0214640D01*
X0344263Y0214617D01*
X0344367Y0214589D01*
X0344469Y0214558D01*
X0344570Y0214523D01*
X0344670Y0214484D01*
X0344769Y0214442D01*
X0344866Y0214396D01*
X0344961Y0214346D01*
X0345054Y0214293D01*
X0345145Y0214237D01*
X0345234Y0214177D01*
X0345321Y0214114D01*
X0345405Y0214048D01*
X0345487Y0213979D01*
X0345566Y0213907D01*
X0345642Y0213832D01*
X0345716Y0213754D01*
X0345787Y0213673D01*
X0345855Y0213590D01*
X0345919Y0213505D01*
X0345981Y0213417D01*
X0346039Y0213327D01*
X0346093Y0213235D01*
X0346145Y0213140D01*
X0346192Y0213044D01*
X0346237Y0212947D01*
X0346277Y0212848D01*
X0346314Y0212747D01*
X0346347Y0212645D01*
X0346376Y0212542D01*
X0346402Y0212438D01*
X0346424Y0212333D01*
X0346441Y0212227D01*
X0346455Y0212121D01*
X0346465Y0212014D01*
X0346471Y0211907D01*
X0346473Y0211800D01*
X0346471Y0211693D01*
X0346465Y0211586D01*
X0346455Y0211479D01*
X0346441Y0211373D01*
X0346424Y0211267D01*
X0346402Y0211162D01*
X0346376Y0211058D01*
X0346347Y0210955D01*
X0346314Y0210853D01*
X0346277Y0210752D01*
X0346237Y0210653D01*
X0346192Y0210556D01*
X0346145Y0210460D01*
X0346093Y0210365D01*
X0346039Y0210273D01*
X0345981Y0210183D01*
X0345919Y0210095D01*
X0345855Y0210010D01*
X0345787Y0209927D01*
X0345716Y0209846D01*
X0345642Y0209768D01*
X0345566Y0209693D01*
X0345487Y0209621D01*
X0345405Y0209552D01*
X0345321Y0209486D01*
X0345234Y0209423D01*
X0345145Y0209363D01*
X0345054Y0209307D01*
X0344961Y0209254D01*
X0344866Y0209204D01*
X0344769Y0209158D01*
X0344670Y0209116D01*
X0344570Y0209077D01*
X0344469Y0209042D01*
X0344367Y0209011D01*
X0344263Y0208983D01*
X0344158Y0208960D01*
X0344053Y0208940D01*
X0343947Y0208924D01*
X0343841Y0208912D01*
X0343734Y0208904D01*
X0343627Y0208900D01*
X0343519Y0208900D01*
X0343412Y0208904D01*
X0343305Y0208912D01*
X0343199Y0208924D01*
X0343093Y0208940D01*
X0342988Y0208960D01*
X0342883Y0208983D01*
X0342779Y0209011D01*
X0342677Y0209042D01*
X0342576Y0209077D01*
X0342476Y0209116D01*
X0342377Y0209158D01*
X0342280Y0209204D01*
X0342185Y0209254D01*
X0342092Y0209307D01*
X0342001Y0209363D01*
X0341912Y0209423D01*
X0341825Y0209486D01*
X0341741Y0209552D01*
X0341659Y0209621D01*
X0341580Y0209693D01*
X0341504Y0209768D01*
X0341430Y0209846D01*
X0341359Y0209927D01*
X0341291Y0210010D01*
X0341227Y0210095D01*
X0341165Y0210183D01*
X0341107Y0210273D01*
X0341053Y0210365D01*
X0341001Y0210460D01*
X0340954Y0210556D01*
X0340909Y0210653D01*
X0340869Y0210752D01*
X0340832Y0210853D01*
X0340799Y0210955D01*
X0340770Y0211058D01*
X0340744Y0211162D01*
X0340722Y0211267D01*
X0340705Y0211373D01*
X0340691Y0211479D01*
X0340681Y0211586D01*
X0340675Y0211693D01*
X0340673Y0211800D01*
M02*
