%
M48
M72
T01C0.0236
T02C0.0354
T03C0.0360
T04C0.0394
T05C0.0400
T06C0.0472
T07C0.1181
T08C0.1260
%
T01
X30220Y2720
X30220Y4220
X21220Y8220
X18720Y10920
X18120Y11420
X17220Y11620
X15070Y11570
X14770Y12220
X13770Y11220
X15770Y13320
X19470Y13870
X21020Y11270
X23670Y15720
X26120Y15720
X28170Y16970
X27220Y17370
X25720Y18970
X24220Y18270
X22220Y18220
X20570Y18720
X19470Y17220
X18720Y17970
X17320Y17820
X15720Y19470
X14770Y18320
X14920Y17220
X13720Y17270
X11320Y16270
X10970Y10220
X27220Y12820
X33470Y16270
X34120Y15770
X34120Y18020
X36770Y20420
X37420Y20020
X38220Y19920
X34720Y21170
X37270Y23170
X37770Y23620
X38220Y23220
X38720Y23770
X38270Y25470
X38720Y25970
X38220Y26820
X37720Y27570
X35670Y25970
X36220Y25470
X32670Y30720
X28170Y27370
X26770Y25970
X26270Y25470
X26270Y25020
X27120Y24820
X25670Y26470
X24270Y25070
X24170Y24620
X23070Y24970
X22670Y24570
X21920Y25420
X23420Y25770
X23770Y27170
X20720Y23470
X19170Y24720
X17470Y26870
X17470Y27570
X16370Y27570
X15970Y28770
X14170Y26570
X15570Y26220
X16320Y25220
X12670Y28820
X11720Y27920
X24670Y31520
T02
X14720Y29720
X13720Y29720
X12720Y29720
X11720Y29720
X10720Y29720
X9720Y29720
X8720Y29720
X7720Y29720
X7720Y24720
X8720Y24720
X9720Y24720
X10720Y24720
X11720Y24720
X12720Y24720
X13720Y24720
X14720Y24720
X14748Y20417
X13748Y20417
X12748Y20417
X11748Y20417
X10748Y20417
X15748Y20417
X16748Y20417
X17748Y20417
X17748Y15417
X16748Y15417
X15748Y15417
X14748Y15417
X13748Y15417
X12748Y15417
X11748Y15417
X10748Y15417
X10767Y14098
X11767Y14098
X12767Y14098
X13767Y14098
X14767Y14098
X15767Y14098
X16767Y14098
X17767Y14098
X17767Y9098
X16767Y9098
X15767Y9098
X14767Y9098
X13767Y9098
X12767Y9098
X11767Y9098
X10767Y9098
T03
X7191Y7010
X6191Y7010
T04
X3789Y6928
X3789Y5550
X15220Y2751
X16220Y2751
X17220Y2751
X18220Y2751
X19220Y2751
X20220Y2751
X22220Y2751
X23220Y2751
X24220Y2751
X25220Y2751
X26220Y2751
X27220Y2751
X28220Y2751
X29220Y2751
X31220Y2751
X32220Y2751
X33220Y2751
X34220Y2751
X35220Y2751
X36220Y2751
X37220Y2751
X38220Y2751
X39220Y4751
X40220Y4751
X40220Y5751
X39220Y5751
X39220Y6751
X40220Y6751
X40220Y7751
X39220Y7751
X39220Y8751
X40220Y8751
X40220Y9751
X39220Y9751
X39220Y10751
X40220Y10751
X40220Y11751
X39220Y11751
X39220Y12751
X40220Y12751
X40220Y13751
X39220Y13751
X39220Y14751
X40220Y14751
X40220Y15751
X39220Y15751
X39220Y16751
X40220Y16751
X40220Y17751
X39220Y17751
X39220Y18751
X40220Y18751
X40220Y19751
X39220Y19751
X39220Y20751
X40220Y20751
X40220Y21751
X39220Y21751
X36220Y21751
X35220Y21751
X34220Y21751
X33220Y21751
X32220Y21751
X31220Y21751
X30220Y21751
X29220Y21751
X27220Y21751
X26220Y21751
X25220Y21751
X24220Y21751
X23220Y21751
X22220Y21751
X21220Y21751
X20220Y21751
X18620Y21751
X17620Y21751
X16620Y21751
X15620Y21751
X14620Y21751
X13620Y21751
X12620Y21751
X11620Y21751
T05
X11620Y22770
X12620Y22770
X13620Y22770
X14620Y22770
X15620Y22770
X16620Y22770
X17620Y22770
X18620Y22770
X17970Y24220
X16970Y24220
X16970Y25220
X17970Y25220
X17970Y26220
X16970Y26220
X16936Y28217
X16936Y29217
X16936Y30217
X17936Y30217
X17936Y29217
X17936Y28217
X20677Y28834
X21677Y28834
X22677Y28834
X23677Y28834
X24677Y28834
X25677Y28834
X26677Y28834
X27677Y28834
X28677Y28834
X29677Y28834
X30677Y28834
X31677Y28834
X32677Y28834
X33677Y28834
X34677Y28834
X35677Y28834
X36677Y28834
X37677Y28834
X38677Y28834
X39677Y28834
X39677Y29834
X38677Y29834
X37677Y29834
X36677Y29834
X35677Y29834
X34677Y29834
X33677Y29834
X32677Y29834
X31677Y29834
X30677Y29834
X29677Y29834
X28677Y29834
X27677Y29834
X26677Y29834
X25677Y29834
X24677Y29834
X23677Y29834
X22677Y29834
X21677Y29834
X20677Y29834
X20220Y22770
X21220Y22770
X22220Y22770
X23220Y22770
X24220Y22770
X25220Y22770
X26220Y22770
X27220Y22770
X29220Y22770
X30220Y22770
X31220Y22770
X32220Y22770
X33220Y22770
X34220Y22770
X35220Y22770
X36220Y22770
X36720Y16770
X37720Y16770
X37720Y15770
X36720Y15770
X36720Y14770
X37720Y14770
X37720Y13770
X36720Y13770
X36720Y10770
X37720Y10770
X37720Y9770
X36720Y9770
X35720Y9770
X35720Y8770
X36720Y8770
X37720Y8770
X37220Y3770
X36220Y3770
X35220Y3770
X34220Y3770
X33220Y3770
X32220Y3770
X31220Y3770
X29220Y3770
X28220Y3770
X27220Y3770
X26220Y3770
X25220Y3770
X24220Y3770
X23220Y3770
X22220Y3770
X20220Y3720
X19220Y3720
X18220Y3720
X17220Y3720
X16220Y3720
X15220Y3720
X11850Y3860
X11850Y2080
X9290Y2080
X9290Y3860
X5870Y9389
X5870Y10389
X5870Y11389
X5870Y12389
X5870Y15786
X5870Y16786
X5870Y17786
X5870Y18786
X5870Y22270
X5870Y23270
X5870Y24270
X5870Y25270
X38220Y3770
T06
X3820Y8842
X3820Y10220
X3820Y11598
X3820Y12976
X3820Y15236
X3820Y16614
X3820Y17992
X3820Y19370
X3820Y21770
X3820Y23148
X3820Y24526
X3820Y25904
T07
X5393Y2547
X4251Y4397
X6574Y4397
T08
X40220Y2751
X8220Y21751
X7720Y2751
M30
