G75*
G70*
%OFA0B0*%
%FSLAX24Y24*%
%IPPOS*%
%LPD*%
%AMOC8*
5,1,8,0,0,1.08239X$1,22.5*
%
%ADD10C,0.0160*%
%ADD11C,0.0000*%
%ADD12C,0.0600*%
%ADD13C,0.0594*%
%ADD14OC8,0.0600*%
%ADD15C,0.0700*%
%ADD16OC8,0.0560*%
%ADD17C,0.0554*%
%ADD18C,0.1890*%
%ADD19C,0.0560*%
%ADD20R,0.0800X0.0800*%
%ADD21C,0.0800*%
%ADD22C,0.0860*%
%ADD23C,0.0740*%
%ADD24C,0.0476*%
%ADD25OC8,0.0700*%
%ADD26C,0.0660*%
%ADD27C,0.0700*%
%ADD28C,0.0320*%
%ADD29R,0.0356X0.0356*%
%ADD30OC8,0.0356*%
%ADD31C,0.0240*%
%ADD32C,0.0400*%
%ADD33C,0.0500*%
%ADD34C,0.0120*%
%ADD35C,0.1000*%
D10*
X001915Y001160D02*
X002702Y000373D01*
X040498Y000373D01*
X041285Y001160D01*
X041285Y031082D01*
X040498Y031869D01*
X002702Y031869D01*
X001915Y031082D01*
X001915Y001160D01*
X002315Y001326D02*
X002315Y021857D01*
X002738Y021434D01*
X002885Y021373D01*
X003045Y021373D01*
X004145Y021373D01*
X004292Y021434D01*
X004404Y021546D01*
X004658Y021800D01*
X004845Y021800D01*
X005073Y021895D01*
X005116Y021937D01*
X005158Y021895D01*
X005386Y021800D01*
X005623Y021800D01*
X005556Y021772D01*
X005466Y021682D01*
X005417Y021565D01*
X005417Y021081D01*
X005466Y020964D01*
X005556Y020874D01*
X005673Y020825D01*
X006157Y020825D01*
X006965Y020825D01*
X006965Y020715D02*
X007110Y020366D01*
X007377Y020099D01*
X007726Y019954D01*
X008104Y019954D01*
X008453Y020099D01*
X008720Y020366D01*
X008865Y020715D01*
X008865Y021093D01*
X008790Y021273D01*
X010345Y021273D01*
X010492Y021334D01*
X010604Y021446D01*
X010724Y021566D01*
X010914Y021376D01*
X010792Y021254D01*
X010698Y021027D01*
X010698Y020782D01*
X010792Y020555D01*
X010966Y020381D01*
X011192Y020288D01*
X011438Y020288D01*
X011664Y020381D01*
X011838Y020555D01*
X011892Y020685D01*
X011907Y020654D01*
X011951Y020594D01*
X012004Y020541D01*
X012065Y020497D01*
X012132Y020462D01*
X012203Y020439D01*
X012277Y020428D01*
X012296Y020428D01*
X012296Y020886D01*
X012333Y020886D01*
X012333Y020428D01*
X012352Y020428D01*
X012427Y020439D01*
X012498Y020462D01*
X012565Y020497D01*
X012626Y020541D01*
X012679Y020594D01*
X012723Y020654D01*
X012738Y020685D01*
X012792Y020555D01*
X012966Y020381D01*
X013192Y020288D01*
X013438Y020288D01*
X013664Y020381D01*
X013815Y020532D01*
X013966Y020381D01*
X014192Y020288D01*
X014438Y020288D01*
X014664Y020381D01*
X014815Y020532D01*
X014966Y020381D01*
X015192Y020288D01*
X015415Y020288D01*
X015415Y020218D01*
X015412Y020210D01*
X015414Y020167D01*
X015324Y020167D01*
X015104Y020076D01*
X014943Y019914D01*
X014781Y020076D01*
X014561Y020167D01*
X014324Y020167D01*
X014104Y020076D01*
X013943Y019914D01*
X013781Y020076D01*
X013561Y020167D01*
X013324Y020167D01*
X013104Y020076D01*
X012943Y019914D01*
X012781Y020076D01*
X012561Y020167D01*
X012324Y020167D01*
X012104Y020076D01*
X011936Y019908D01*
X011867Y019742D01*
X011866Y019745D01*
X011834Y019809D01*
X011791Y019868D01*
X011740Y019918D01*
X011682Y019961D01*
X011618Y019993D01*
X011550Y020016D01*
X011479Y020027D01*
X011451Y020027D01*
X011451Y019579D01*
X011434Y019579D01*
X011434Y020027D01*
X011407Y020027D01*
X011335Y020016D01*
X011267Y019993D01*
X011203Y019961D01*
X011145Y019918D01*
X011094Y019868D01*
X011052Y019809D01*
X011019Y019745D01*
X011018Y019742D01*
X010949Y019908D01*
X010781Y020076D01*
X010561Y020167D01*
X010324Y020167D01*
X010104Y020076D01*
X009936Y019908D01*
X009845Y019689D01*
X009845Y019451D01*
X009911Y019293D01*
X004916Y019293D01*
X004670Y019191D01*
X004481Y019002D01*
X004232Y018753D01*
X004175Y018810D01*
X004125Y018930D01*
X003923Y019133D01*
X003658Y019242D01*
X003372Y019242D01*
X003107Y019133D01*
X002905Y018930D01*
X002795Y018666D01*
X002795Y018379D01*
X002905Y018115D01*
X003107Y017912D01*
X003228Y017862D01*
X003268Y017822D01*
X003107Y017755D01*
X002905Y017552D01*
X002795Y017288D01*
X002795Y017001D01*
X002905Y016737D01*
X003107Y016534D01*
X003228Y016484D01*
X003256Y016456D01*
X003228Y016427D01*
X003107Y016377D01*
X002905Y016174D01*
X002795Y015910D01*
X002795Y015623D01*
X002905Y015359D01*
X003107Y015156D01*
X003222Y015109D01*
X003051Y015109D01*
X002934Y015060D01*
X002844Y014970D01*
X002795Y014852D01*
X002795Y013925D01*
X002844Y013807D01*
X002934Y013717D01*
X003051Y013669D01*
X003979Y013669D01*
X004096Y013717D01*
X004186Y013807D01*
X004235Y013925D01*
X004235Y014161D01*
X004342Y014269D01*
X006197Y014269D01*
X006464Y014269D01*
X006710Y014371D01*
X007092Y014753D01*
X009872Y014753D01*
X009845Y014689D01*
X009845Y014451D01*
X009936Y014231D01*
X010104Y014064D01*
X010324Y013973D01*
X010336Y013973D01*
X010461Y013848D01*
X010343Y013848D01*
X010124Y013757D01*
X009956Y013589D01*
X009865Y013370D01*
X009865Y013143D01*
X005113Y013143D01*
X004867Y013041D01*
X004678Y012852D01*
X004208Y012383D01*
X004175Y012416D01*
X004125Y012537D01*
X003923Y012739D01*
X003658Y012849D01*
X003372Y012849D01*
X003107Y012739D01*
X002905Y012537D01*
X002795Y012272D01*
X002795Y011986D01*
X002905Y011721D01*
X003107Y011518D01*
X003228Y011468D01*
X003268Y011428D01*
X003107Y011361D01*
X002905Y011159D01*
X002795Y010894D01*
X002795Y010608D01*
X002905Y010343D01*
X003107Y010140D01*
X003228Y010090D01*
X003256Y010062D01*
X003228Y010033D01*
X003107Y009983D01*
X002905Y009781D01*
X002795Y009516D01*
X002795Y009230D01*
X002905Y008965D01*
X003107Y008763D01*
X003222Y008715D01*
X003051Y008715D01*
X002934Y008666D01*
X002844Y008576D01*
X002795Y008459D01*
X002315Y008459D01*
X002315Y008617D02*
X002885Y008617D01*
X002795Y008459D02*
X002795Y007531D01*
X002844Y007414D01*
X002934Y007324D01*
X003051Y007275D01*
X003945Y007275D01*
X003945Y007109D01*
X004032Y006900D01*
X004064Y006868D01*
X004066Y006864D01*
X004156Y006774D01*
X004160Y006772D01*
X004192Y006740D01*
X004402Y006653D01*
X005324Y006653D01*
X005286Y006562D01*
X005286Y005763D01*
X005378Y005543D01*
X005546Y005374D01*
X005767Y005283D01*
X006006Y005283D01*
X006226Y005374D01*
X006386Y005534D01*
X006546Y005374D01*
X006767Y005283D01*
X007006Y005283D01*
X007150Y005343D01*
X007288Y005343D01*
X011717Y005343D01*
X011717Y004881D01*
X011766Y004764D01*
X011856Y004674D01*
X011973Y004625D01*
X012034Y004625D01*
X012793Y003866D01*
X012969Y003793D01*
X013160Y003793D01*
X013667Y003793D01*
X013667Y003381D01*
X013716Y003264D01*
X013806Y003174D01*
X013923Y003125D01*
X014245Y003125D01*
X014245Y002595D01*
X014245Y002384D01*
X012852Y002384D01*
X012235Y003002D01*
X012235Y003150D01*
X012130Y003404D01*
X011936Y003598D01*
X011682Y003703D01*
X011408Y003703D01*
X011154Y003598D01*
X011049Y003493D01*
X009481Y003493D01*
X009376Y003598D01*
X009122Y003703D01*
X008848Y003703D01*
X008594Y003598D01*
X008400Y003404D01*
X008295Y003150D01*
X008295Y002876D01*
X008400Y002622D01*
X008594Y002428D01*
X008848Y002323D01*
X009122Y002323D01*
X009376Y002428D01*
X009481Y002533D01*
X011049Y002533D01*
X011154Y002428D01*
X011408Y002323D01*
X011556Y002323D01*
X012382Y001497D01*
X012558Y001424D01*
X012749Y001424D01*
X014447Y001424D01*
X014535Y001336D01*
X014782Y001234D01*
X015048Y001234D01*
X015294Y001336D01*
X015415Y001457D01*
X015535Y001336D01*
X015782Y001234D01*
X016048Y001234D01*
X016294Y001336D01*
X016453Y001494D01*
X016566Y001381D01*
X016792Y001288D01*
X017038Y001288D01*
X017264Y001381D01*
X017438Y001555D01*
X017492Y001685D01*
X017507Y001654D01*
X017551Y001594D01*
X017604Y001541D01*
X017665Y001497D01*
X017732Y001462D01*
X017803Y001439D01*
X017877Y001428D01*
X017896Y001428D01*
X017896Y001886D01*
X017933Y001886D01*
X017933Y001428D01*
X017952Y001428D01*
X018027Y001439D01*
X018098Y001462D01*
X018165Y001497D01*
X018226Y001541D01*
X018279Y001594D01*
X018323Y001654D01*
X018357Y001721D01*
X018380Y001793D01*
X018392Y001867D01*
X018392Y001886D01*
X017934Y001886D01*
X017934Y001923D01*
X018392Y001923D01*
X018392Y001942D01*
X018380Y002016D01*
X018357Y002087D01*
X018323Y002154D01*
X018279Y002215D01*
X018226Y002268D01*
X018165Y002312D01*
X018105Y002343D01*
X018134Y002343D01*
X018415Y002623D01*
X018695Y002343D01*
X018725Y002343D01*
X018665Y002312D01*
X018604Y002268D01*
X018551Y002215D01*
X018507Y002154D01*
X018473Y002087D01*
X018450Y002016D01*
X018438Y001942D01*
X018438Y001923D01*
X018896Y001923D01*
X018896Y001886D01*
X018438Y001886D01*
X018438Y001867D01*
X018450Y001793D01*
X018473Y001721D01*
X018507Y001654D01*
X018551Y001594D01*
X018604Y001541D01*
X018665Y001497D01*
X018732Y001462D01*
X018803Y001439D01*
X018877Y001428D01*
X018896Y001428D01*
X018896Y001886D01*
X018933Y001886D01*
X018933Y001428D01*
X018952Y001428D01*
X019027Y001439D01*
X019098Y001462D01*
X019165Y001497D01*
X019189Y001514D01*
X019220Y001440D01*
X019450Y001209D01*
X019752Y001084D01*
X020078Y001084D01*
X020379Y001209D01*
X020610Y001440D01*
X020735Y001741D01*
X020735Y003536D01*
X020610Y003837D01*
X020379Y004068D01*
X017905Y006543D01*
X020469Y006543D01*
X020660Y006543D01*
X020837Y006616D01*
X021096Y006875D01*
X021157Y006875D01*
X021274Y006924D01*
X021364Y007014D01*
X021413Y007131D01*
X021413Y007615D01*
X021364Y007732D01*
X021274Y007822D01*
X021157Y007871D01*
X020673Y007871D01*
X020556Y007822D01*
X020466Y007732D01*
X020417Y007615D01*
X020417Y007554D01*
X020366Y007503D01*
X018274Y007503D01*
X020696Y009925D01*
X020957Y009925D01*
X021074Y009974D01*
X021164Y010064D01*
X021213Y010181D01*
X021213Y010665D01*
X021164Y010782D01*
X021074Y010872D01*
X020957Y010921D01*
X020473Y010921D01*
X020429Y010903D01*
X020419Y010903D01*
X020243Y010830D01*
X019645Y010232D01*
X019645Y012737D01*
X019663Y012781D01*
X019663Y013265D01*
X019651Y013293D01*
X020369Y013293D01*
X020560Y013293D01*
X020737Y013366D01*
X022187Y014816D01*
X022322Y014951D01*
X022395Y015127D01*
X022395Y016274D01*
X024187Y018066D01*
X024322Y018201D01*
X024395Y018377D01*
X024395Y020512D01*
X024415Y020532D01*
X024566Y020381D01*
X024792Y020288D01*
X025015Y020288D01*
X025015Y020182D01*
X024966Y020132D01*
X024917Y020015D01*
X024917Y019531D01*
X024966Y019414D01*
X025056Y019324D01*
X025173Y019275D01*
X025657Y019275D01*
X025774Y019324D01*
X025864Y019414D01*
X025913Y019531D01*
X025913Y020015D01*
X025864Y020132D01*
X025815Y020182D01*
X025815Y020288D01*
X026038Y020288D01*
X026264Y020381D01*
X026415Y020532D01*
X026566Y020381D01*
X026792Y020288D01*
X027038Y020288D01*
X027264Y020381D01*
X027438Y020555D01*
X027532Y020782D01*
X027532Y021027D01*
X027438Y021254D01*
X027316Y021376D01*
X027585Y021645D01*
X027585Y022073D01*
X028245Y022073D01*
X028245Y021645D01*
X028514Y021376D01*
X028392Y021254D01*
X028298Y021027D01*
X028298Y020782D01*
X028392Y020555D01*
X028566Y020381D01*
X028792Y020288D01*
X029038Y020288D01*
X029264Y020381D01*
X029415Y020532D01*
X029566Y020381D01*
X029792Y020288D01*
X030038Y020288D01*
X030264Y020381D01*
X030415Y020532D01*
X030566Y020381D01*
X030792Y020288D01*
X031038Y020288D01*
X031264Y020381D01*
X031415Y020532D01*
X031566Y020381D01*
X031792Y020288D01*
X032038Y020288D01*
X032264Y020381D01*
X032415Y020532D01*
X032566Y020381D01*
X032792Y020288D01*
X033038Y020288D01*
X033264Y020381D01*
X033415Y020532D01*
X033566Y020381D01*
X033792Y020288D01*
X034038Y020288D01*
X034264Y020381D01*
X034415Y020532D01*
X034462Y020485D01*
X032576Y018599D01*
X032515Y018452D01*
X032515Y018293D01*
X032515Y016252D01*
X032515Y016093D01*
X032576Y015946D01*
X032876Y015646D01*
X032988Y015534D01*
X033135Y015473D01*
X033438Y015473D01*
X033564Y015347D01*
X033688Y015296D01*
X033663Y015283D01*
X033602Y015239D01*
X033549Y015186D01*
X033504Y015124D01*
X033470Y015057D01*
X033447Y014985D01*
X033435Y014911D01*
X033435Y014893D01*
X033895Y014893D01*
X033895Y014853D01*
X033435Y014853D01*
X033435Y014835D01*
X033447Y014760D01*
X033470Y014689D01*
X033504Y014621D01*
X033549Y014560D01*
X033602Y014507D01*
X033663Y014462D01*
X033687Y014451D01*
X033684Y014448D01*
X033564Y014399D01*
X033389Y014224D01*
X033295Y013996D01*
X033295Y013750D01*
X033389Y013522D01*
X033564Y013347D01*
X033792Y013253D01*
X034038Y013253D01*
X034266Y013347D01*
X034441Y013522D01*
X034491Y013642D01*
X035745Y014897D01*
X035745Y014790D01*
X035847Y014543D01*
X035967Y014423D01*
X035847Y014302D01*
X035745Y014056D01*
X035745Y013790D01*
X035847Y013543D01*
X035967Y013423D01*
X035847Y013302D01*
X035745Y013056D01*
X035745Y012790D01*
X035847Y012543D01*
X036035Y012355D01*
X036282Y012253D01*
X036548Y012253D01*
X036794Y012355D01*
X036915Y012475D01*
X037035Y012355D01*
X037282Y012253D01*
X037548Y012253D01*
X037794Y012355D01*
X037983Y012543D01*
X038085Y012790D01*
X038085Y013023D01*
X038231Y013023D01*
X038298Y012956D01*
X038298Y012782D01*
X038392Y012555D01*
X038543Y012404D01*
X038392Y012254D01*
X038298Y012027D01*
X038298Y011782D01*
X038392Y011555D01*
X038543Y011404D01*
X038392Y011254D01*
X038298Y011027D01*
X038298Y010782D01*
X038345Y010669D01*
X038326Y010649D01*
X037999Y010323D01*
X037934Y010323D01*
X037783Y010474D01*
X037544Y010573D01*
X037286Y010573D01*
X037047Y010474D01*
X036915Y010342D01*
X036783Y010474D01*
X036544Y010573D01*
X036286Y010573D01*
X036047Y010474D01*
X035864Y010291D01*
X035765Y010052D01*
X035765Y009794D01*
X035864Y009555D01*
X035996Y009423D01*
X035864Y009291D01*
X035765Y009052D01*
X035765Y008794D01*
X035864Y008555D01*
X035996Y008423D01*
X035929Y008356D01*
X035794Y008491D01*
X035548Y008593D01*
X035282Y008593D01*
X035165Y008544D01*
X035165Y010696D01*
X035166Y010698D01*
X035165Y010776D01*
X035165Y010852D01*
X035164Y010855D01*
X035164Y010857D01*
X035134Y010928D01*
X035104Y010999D01*
X035102Y011001D01*
X035101Y011003D01*
X035046Y011058D01*
X034992Y011112D01*
X034989Y011113D01*
X030495Y015508D01*
X030442Y015562D01*
X030439Y015563D01*
X030438Y015564D01*
X030365Y015594D01*
X030295Y015623D01*
X030292Y015623D01*
X030290Y015624D01*
X030212Y015623D01*
X028774Y015623D01*
X028724Y015672D01*
X028607Y015721D01*
X028123Y015721D01*
X028006Y015672D01*
X027916Y015582D01*
X027867Y015465D01*
X027867Y015271D01*
X027673Y015271D01*
X027556Y015222D01*
X027466Y015132D01*
X027417Y015015D01*
X027417Y014821D01*
X027223Y014821D01*
X027106Y014772D01*
X027016Y014682D01*
X026967Y014565D01*
X026967Y014081D01*
X027016Y013964D01*
X027106Y013874D01*
X027223Y013825D01*
X027707Y013825D01*
X027824Y013874D01*
X027874Y013923D01*
X029649Y013923D01*
X033515Y010057D01*
X033515Y007326D01*
X033407Y007371D01*
X033063Y007371D01*
X033063Y007665D01*
X033014Y007782D01*
X032924Y007872D01*
X032807Y007921D01*
X032715Y007921D01*
X032715Y009852D01*
X032654Y009999D01*
X032542Y010112D01*
X030942Y011712D01*
X030795Y011773D01*
X030635Y011773D01*
X027835Y011773D01*
X027688Y011712D01*
X027576Y011599D01*
X027449Y011473D01*
X027166Y011473D01*
X026815Y011121D01*
X026815Y010624D01*
X027066Y010373D01*
X026815Y010121D01*
X026815Y009624D01*
X026845Y009594D01*
X026845Y006109D01*
X025679Y004943D01*
X020802Y004943D01*
X020592Y004856D01*
X020560Y004824D01*
X020556Y004822D01*
X020466Y004732D01*
X020464Y004728D01*
X020432Y004696D01*
X020345Y004486D01*
X020345Y004259D01*
X020432Y004050D01*
X020464Y004018D01*
X020466Y004014D01*
X020556Y003924D01*
X020560Y003922D01*
X020592Y003890D01*
X020802Y003803D01*
X026028Y003803D01*
X026238Y003890D01*
X026398Y004050D01*
X027825Y005477D01*
X027835Y005473D01*
X027995Y005473D01*
X030956Y005473D01*
X031006Y005424D01*
X031123Y005375D01*
X031607Y005375D01*
X031724Y005424D01*
X031814Y005514D01*
X031863Y005631D01*
X031863Y005859D01*
X034129Y003593D01*
X033637Y003593D01*
X033415Y003370D01*
X033192Y003593D01*
X032637Y003593D01*
X032415Y003370D01*
X032192Y003593D01*
X031637Y003593D01*
X031415Y003370D01*
X031192Y003593D01*
X030637Y003593D01*
X030245Y003200D01*
X030245Y002645D01*
X030514Y002376D01*
X030392Y002254D01*
X030298Y002027D01*
X030298Y001782D01*
X030392Y001555D01*
X030566Y001381D01*
X030792Y001288D01*
X031038Y001288D01*
X031264Y001381D01*
X031415Y001532D01*
X031566Y001381D01*
X031792Y001288D01*
X032038Y001288D01*
X032264Y001381D01*
X032415Y001532D01*
X032566Y001381D01*
X032792Y001288D01*
X033038Y001288D01*
X033264Y001381D01*
X033415Y001532D01*
X033566Y001381D01*
X033792Y001288D01*
X034038Y001288D01*
X034264Y001381D01*
X034415Y001532D01*
X034566Y001381D01*
X034792Y001288D01*
X035038Y001288D01*
X035264Y001381D01*
X035415Y001532D01*
X035566Y001381D01*
X035792Y001288D01*
X036038Y001288D01*
X036264Y001381D01*
X036415Y001532D01*
X036566Y001381D01*
X036792Y001288D01*
X037038Y001288D01*
X037264Y001381D01*
X037415Y001532D01*
X037566Y001381D01*
X037792Y001288D01*
X038038Y001288D01*
X038264Y001381D01*
X038438Y001555D01*
X038532Y001782D01*
X038532Y002027D01*
X038438Y002254D01*
X038316Y002376D01*
X038585Y002645D01*
X038585Y003200D01*
X038192Y003593D01*
X038051Y003593D01*
X038304Y003846D01*
X038365Y003993D01*
X038365Y004152D01*
X038365Y004620D01*
X038392Y004555D01*
X038566Y004381D01*
X038695Y004328D01*
X038665Y004312D01*
X038604Y004268D01*
X038551Y004215D01*
X038507Y004154D01*
X038473Y004087D01*
X038450Y004016D01*
X038438Y003942D01*
X038438Y003923D01*
X038896Y003923D01*
X038896Y003886D01*
X038438Y003886D01*
X038438Y003867D01*
X038450Y003793D01*
X038473Y003721D01*
X038507Y003654D01*
X038551Y003594D01*
X038604Y003541D01*
X038665Y003497D01*
X038732Y003462D01*
X038803Y003439D01*
X038877Y003428D01*
X038896Y003428D01*
X038896Y003886D01*
X038933Y003886D01*
X038933Y003428D01*
X038952Y003428D01*
X039027Y003439D01*
X039098Y003462D01*
X039165Y003497D01*
X039226Y003541D01*
X039279Y003594D01*
X039323Y003654D01*
X039357Y003721D01*
X039380Y003793D01*
X039392Y003867D01*
X039392Y003886D01*
X038934Y003886D01*
X038934Y003923D01*
X039392Y003923D01*
X039392Y003942D01*
X039380Y004016D01*
X039357Y004087D01*
X039323Y004154D01*
X039279Y004215D01*
X039226Y004268D01*
X039165Y004312D01*
X039134Y004328D01*
X039264Y004381D01*
X039415Y004532D01*
X039566Y004381D01*
X039695Y004328D01*
X039665Y004312D01*
X039604Y004268D01*
X039551Y004215D01*
X039507Y004154D01*
X039473Y004087D01*
X039450Y004016D01*
X039438Y003942D01*
X039438Y003923D01*
X039896Y003923D01*
X039896Y003886D01*
X039438Y003886D01*
X039438Y003867D01*
X039450Y003793D01*
X039473Y003721D01*
X039507Y003654D01*
X039551Y003594D01*
X039604Y003541D01*
X039665Y003497D01*
X039732Y003462D01*
X039803Y003439D01*
X039877Y003428D01*
X039896Y003428D01*
X039896Y003886D01*
X039933Y003886D01*
X039933Y003428D01*
X039952Y003428D01*
X040027Y003439D01*
X040098Y003462D01*
X040165Y003497D01*
X040226Y003541D01*
X040279Y003594D01*
X040323Y003654D01*
X040357Y003721D01*
X040380Y003793D01*
X040392Y003867D01*
X040392Y003886D01*
X039934Y003886D01*
X039934Y003923D01*
X040392Y003923D01*
X040392Y003942D01*
X040380Y004016D01*
X040357Y004087D01*
X040323Y004154D01*
X040279Y004215D01*
X040226Y004268D01*
X040165Y004312D01*
X040134Y004328D01*
X040264Y004381D01*
X040438Y004555D01*
X040532Y004782D01*
X040532Y005027D01*
X040438Y005254D01*
X040287Y005404D01*
X040438Y005555D01*
X040532Y005782D01*
X040532Y006027D01*
X040438Y006254D01*
X040287Y006404D01*
X040438Y006555D01*
X040532Y006782D01*
X040532Y007027D01*
X040438Y007254D01*
X040287Y007404D01*
X040438Y007555D01*
X040532Y007782D01*
X040532Y008027D01*
X040438Y008254D01*
X040287Y008404D01*
X040438Y008555D01*
X040532Y008782D01*
X040532Y009027D01*
X040438Y009254D01*
X040287Y009404D01*
X040438Y009555D01*
X040532Y009782D01*
X040532Y010027D01*
X040438Y010254D01*
X040287Y010404D01*
X040438Y010555D01*
X040532Y010782D01*
X040532Y011027D01*
X040438Y011254D01*
X040287Y011404D01*
X040438Y011555D01*
X040532Y011782D01*
X040532Y012027D01*
X040489Y012131D01*
X040692Y012334D01*
X040804Y012446D01*
X040865Y012593D01*
X040865Y018457D01*
X040885Y018477D01*
X040885Y001326D01*
X040332Y000773D01*
X011847Y000773D01*
X011903Y000813D01*
X011964Y000875D01*
X012015Y000945D01*
X012055Y001022D01*
X012081Y001104D01*
X012095Y001190D01*
X012095Y001213D01*
X011565Y001213D01*
X011565Y001253D01*
X011525Y001253D01*
X011525Y001783D01*
X011502Y001783D01*
X011416Y001769D01*
X011334Y001743D01*
X011257Y001703D01*
X011187Y001652D01*
X011125Y001591D01*
X011075Y001521D01*
X011035Y001444D01*
X011009Y001362D01*
X010995Y001276D01*
X010995Y001253D01*
X011525Y001253D01*
X011525Y001213D01*
X010995Y001213D01*
X010995Y001190D01*
X011009Y001104D01*
X011035Y001022D01*
X011075Y000945D01*
X011125Y000875D01*
X011187Y000813D01*
X011242Y000773D01*
X009287Y000773D01*
X009343Y000813D01*
X009404Y000875D01*
X009455Y000945D01*
X009495Y001022D01*
X009521Y001104D01*
X009535Y001190D01*
X009535Y001213D01*
X009005Y001213D01*
X009005Y001253D01*
X008965Y001253D01*
X008965Y001783D01*
X008942Y001783D01*
X008856Y001769D01*
X008774Y001743D01*
X008697Y001703D01*
X008627Y001652D01*
X008565Y001591D01*
X008515Y001521D01*
X008475Y001444D01*
X008449Y001362D01*
X008435Y001276D01*
X008435Y001253D01*
X008965Y001253D01*
X008965Y001213D01*
X008435Y001213D01*
X008435Y001190D01*
X008449Y001104D01*
X008475Y001022D01*
X008515Y000945D01*
X008565Y000875D01*
X008627Y000813D01*
X008682Y000773D01*
X005727Y000773D01*
X005740Y000781D01*
X005839Y000860D01*
X005928Y000949D01*
X006007Y001048D01*
X006074Y001155D01*
X006129Y001269D01*
X006171Y001388D01*
X006199Y001511D01*
X006211Y001620D01*
X005168Y001620D01*
X005168Y001780D01*
X005008Y001780D01*
X005008Y002823D01*
X004899Y002810D01*
X004776Y002782D01*
X004766Y002779D01*
X004786Y002799D01*
X004865Y002898D01*
X004932Y003005D01*
X004987Y003119D01*
X005029Y003238D01*
X005036Y003267D01*
X005091Y003062D01*
X005233Y002815D01*
X005168Y002823D01*
X005168Y001780D01*
X006211Y001780D01*
X006199Y001888D01*
X006171Y002012D01*
X006129Y002131D01*
X006074Y002245D01*
X006038Y002303D01*
X006103Y002285D01*
X006436Y002285D01*
X006558Y002318D01*
X006465Y002093D01*
X006465Y001715D01*
X006610Y001366D01*
X006877Y001099D01*
X007226Y000954D01*
X007604Y000954D01*
X007953Y001099D01*
X008220Y001366D01*
X008365Y001715D01*
X008365Y002093D01*
X008220Y002442D01*
X007953Y002710D01*
X007604Y002854D01*
X007328Y002854D01*
X007448Y003062D01*
X007534Y003384D01*
X007534Y003717D01*
X007448Y004038D01*
X007281Y004327D01*
X007046Y004562D01*
X006758Y004729D01*
X006436Y004815D01*
X006103Y004815D01*
X005781Y004729D01*
X005493Y004562D01*
X005257Y004327D01*
X005091Y004038D01*
X005036Y003833D01*
X005029Y003862D01*
X004987Y003981D01*
X004932Y004095D01*
X004865Y004202D01*
X004786Y004301D01*
X004697Y004390D01*
X004598Y004469D01*
X004491Y004536D01*
X004378Y004591D01*
X004258Y004633D01*
X004135Y004661D01*
X004094Y004665D01*
X004094Y004685D01*
X003503Y004685D01*
X003503Y004722D01*
X003466Y004722D01*
X003466Y005313D01*
X003436Y005313D01*
X003341Y005298D01*
X003250Y005269D01*
X003165Y005225D01*
X003087Y005168D01*
X003019Y005101D01*
X002963Y005023D01*
X002919Y004937D01*
X002889Y004846D01*
X002874Y004751D01*
X002874Y004722D01*
X003466Y004722D01*
X003466Y004685D01*
X002874Y004685D01*
X002874Y004655D01*
X002889Y004560D01*
X002919Y004469D01*
X002963Y004384D01*
X003019Y004306D01*
X003070Y004255D01*
X003028Y004202D01*
X002960Y004095D01*
X002906Y003981D01*
X002864Y003862D01*
X002836Y003739D01*
X002823Y003630D01*
X003866Y003630D01*
X003866Y003470D01*
X002823Y003470D01*
X002836Y003361D01*
X002864Y003238D01*
X002906Y003119D01*
X002960Y003005D01*
X003028Y002898D01*
X003106Y002799D01*
X003196Y002710D01*
X003294Y002631D01*
X003401Y002564D01*
X003515Y002509D01*
X003635Y002467D01*
X003758Y002439D01*
X003866Y002427D01*
X003866Y003470D01*
X004026Y003470D01*
X004026Y002427D01*
X004135Y002439D01*
X004258Y002467D01*
X004269Y002471D01*
X004248Y002450D01*
X004169Y002352D01*
X004102Y002245D01*
X004047Y002131D01*
X004006Y002012D01*
X003977Y001888D01*
X003965Y001780D01*
X005008Y001780D01*
X005008Y001620D01*
X003965Y001620D01*
X003977Y001511D01*
X004006Y001388D01*
X004047Y001269D01*
X004102Y001155D01*
X004169Y001048D01*
X004248Y000949D01*
X004337Y000860D01*
X004436Y000781D01*
X004449Y000773D01*
X002868Y000773D01*
X002315Y001326D01*
X002317Y001324D02*
X004028Y001324D01*
X003984Y001483D02*
X002315Y001483D01*
X002315Y001641D02*
X005008Y001641D01*
X005008Y001800D02*
X005168Y001800D01*
X005168Y001958D02*
X005008Y001958D01*
X005008Y002117D02*
X005168Y002117D01*
X005168Y002275D02*
X005008Y002275D01*
X005008Y002434D02*
X005168Y002434D01*
X005168Y002593D02*
X005008Y002593D01*
X005008Y002751D02*
X005168Y002751D01*
X005178Y002910D02*
X004872Y002910D01*
X004963Y003068D02*
X005089Y003068D01*
X005046Y003227D02*
X005025Y003227D01*
X005029Y003861D02*
X005043Y003861D01*
X005086Y004019D02*
X004969Y004019D01*
X004880Y004178D02*
X005171Y004178D01*
X005267Y004336D02*
X004751Y004336D01*
X004557Y004495D02*
X005425Y004495D01*
X005651Y004654D02*
X004167Y004654D01*
X004094Y004722D02*
X004094Y004751D01*
X004079Y004846D01*
X004050Y004937D01*
X004006Y005023D01*
X003949Y005101D01*
X003882Y005168D01*
X003804Y005225D01*
X003718Y005269D01*
X003627Y005298D01*
X003532Y005313D01*
X003503Y005313D01*
X003503Y004722D01*
X004094Y004722D01*
X004085Y004812D02*
X006092Y004812D01*
X006446Y004812D02*
X011745Y004812D01*
X011717Y004971D02*
X004033Y004971D01*
X003921Y005129D02*
X011717Y005129D01*
X011717Y005288D02*
X007018Y005288D01*
X006755Y005288D02*
X006018Y005288D01*
X005755Y005288D02*
X003659Y005288D01*
X003633Y005331D02*
X003909Y005445D01*
X004120Y005656D01*
X004234Y005932D01*
X004234Y006230D01*
X004120Y006506D01*
X003909Y006717D01*
X003633Y006831D01*
X003335Y006831D01*
X003059Y006717D01*
X002848Y006506D01*
X002734Y006230D01*
X002734Y005932D01*
X002848Y005656D01*
X003059Y005445D01*
X003335Y005331D01*
X003633Y005331D01*
X003503Y005288D02*
X003466Y005288D01*
X003309Y005288D02*
X002315Y005288D01*
X002315Y005446D02*
X003058Y005446D01*
X002900Y005605D02*
X002315Y005605D01*
X002315Y005763D02*
X002804Y005763D01*
X002738Y005922D02*
X002315Y005922D01*
X002315Y006080D02*
X002734Y006080D01*
X002738Y006239D02*
X002315Y006239D01*
X002315Y006398D02*
X002804Y006398D01*
X002899Y006556D02*
X002315Y006556D01*
X002315Y006715D02*
X003057Y006715D01*
X002909Y007349D02*
X002315Y007349D01*
X002315Y007507D02*
X002805Y007507D01*
X002795Y007666D02*
X002315Y007666D01*
X002315Y007824D02*
X002795Y007824D01*
X002795Y007983D02*
X002315Y007983D01*
X002315Y008142D02*
X002795Y008142D01*
X002795Y008300D02*
X002315Y008300D01*
X002315Y008776D02*
X003094Y008776D01*
X002935Y008934D02*
X002315Y008934D01*
X002315Y009093D02*
X002852Y009093D01*
X002795Y009251D02*
X002315Y009251D01*
X002315Y009410D02*
X002795Y009410D01*
X002817Y009568D02*
X002315Y009568D01*
X002315Y009727D02*
X002882Y009727D01*
X003009Y009886D02*
X002315Y009886D01*
X002315Y010044D02*
X003239Y010044D01*
X003045Y010203D02*
X002315Y010203D01*
X002315Y010361D02*
X002897Y010361D01*
X002831Y010520D02*
X002315Y010520D01*
X002315Y010678D02*
X002795Y010678D01*
X002795Y010837D02*
X002315Y010837D01*
X002315Y010995D02*
X002837Y010995D01*
X002903Y011154D02*
X002315Y011154D01*
X002315Y011312D02*
X003058Y011312D01*
X003222Y011471D02*
X002315Y011471D01*
X002315Y011629D02*
X002996Y011629D01*
X002877Y011788D02*
X002315Y011788D01*
X002315Y011947D02*
X002811Y011947D01*
X002795Y012105D02*
X002315Y012105D01*
X002315Y012264D02*
X002795Y012264D01*
X002857Y012422D02*
X002315Y012422D01*
X002315Y012581D02*
X002949Y012581D01*
X003107Y012739D02*
X002315Y012739D01*
X002315Y012898D02*
X004724Y012898D01*
X004565Y012739D02*
X003923Y012739D01*
X004081Y012581D02*
X004406Y012581D01*
X004248Y012422D02*
X004173Y012422D01*
X004904Y013056D02*
X002315Y013056D01*
X002315Y013215D02*
X009865Y013215D01*
X009867Y013373D02*
X002315Y013373D01*
X002315Y013532D02*
X009932Y013532D01*
X010057Y013691D02*
X004031Y013691D01*
X004203Y013849D02*
X010460Y013849D01*
X010239Y014008D02*
X004235Y014008D01*
X004240Y014166D02*
X010002Y014166D01*
X009898Y014325D02*
X006599Y014325D01*
X006823Y014483D02*
X009845Y014483D01*
X009845Y014642D02*
X006981Y014642D01*
X003201Y015117D02*
X002315Y015117D01*
X002315Y014959D02*
X002839Y014959D01*
X002795Y014800D02*
X002315Y014800D01*
X002315Y014642D02*
X002795Y014642D01*
X002795Y014483D02*
X002315Y014483D01*
X002315Y014325D02*
X002795Y014325D01*
X002795Y014166D02*
X002315Y014166D01*
X002315Y014008D02*
X002795Y014008D01*
X002826Y013849D02*
X002315Y013849D01*
X002315Y013691D02*
X002998Y013691D01*
X002987Y015276D02*
X002315Y015276D01*
X002315Y015435D02*
X002873Y015435D01*
X002807Y015593D02*
X002315Y015593D01*
X002315Y015752D02*
X002795Y015752D01*
X002795Y015910D02*
X002315Y015910D01*
X002315Y016069D02*
X002861Y016069D01*
X002957Y016227D02*
X002315Y016227D01*
X002315Y016386D02*
X003128Y016386D01*
X003097Y016544D02*
X002315Y016544D01*
X002315Y016703D02*
X002938Y016703D01*
X002853Y016861D02*
X002315Y016861D01*
X002315Y017020D02*
X002795Y017020D01*
X002795Y017179D02*
X002315Y017179D01*
X002315Y017337D02*
X002815Y017337D01*
X002881Y017496D02*
X002315Y017496D01*
X002315Y017654D02*
X003006Y017654D01*
X003247Y017813D02*
X002315Y017813D01*
X002315Y017971D02*
X003048Y017971D01*
X002898Y018130D02*
X002315Y018130D01*
X002315Y018288D02*
X002833Y018288D01*
X002795Y018447D02*
X002315Y018447D01*
X002315Y018605D02*
X002795Y018605D01*
X002836Y018764D02*
X002315Y018764D01*
X002315Y018922D02*
X002901Y018922D01*
X003055Y019081D02*
X002315Y019081D01*
X002315Y019240D02*
X003365Y019240D01*
X003665Y019240D02*
X004787Y019240D01*
X004560Y019081D02*
X003975Y019081D01*
X004129Y018922D02*
X004401Y018922D01*
X004481Y019002D02*
X004481Y019002D01*
X004243Y018764D02*
X004221Y018764D01*
X002315Y019398D02*
X009867Y019398D01*
X009845Y019557D02*
X002315Y019557D01*
X002315Y019715D02*
X009856Y019715D01*
X009922Y019874D02*
X002315Y019874D01*
X002315Y020032D02*
X007538Y020032D01*
X007285Y020191D02*
X002315Y020191D01*
X002315Y020349D02*
X007127Y020349D01*
X007051Y020508D02*
X002315Y020508D01*
X002315Y020666D02*
X006985Y020666D01*
X006965Y020715D02*
X006965Y021093D01*
X007102Y021423D01*
X006581Y021423D01*
X006413Y021255D01*
X006413Y021081D01*
X006364Y020964D01*
X006274Y020874D01*
X006157Y020825D01*
X006373Y020984D02*
X006965Y020984D01*
X006985Y021142D02*
X006413Y021142D01*
X006458Y021301D02*
X007051Y021301D01*
X006415Y021823D02*
X005915Y021323D01*
X005565Y021776D02*
X004634Y021776D01*
X004475Y021618D02*
X005439Y021618D01*
X005417Y021459D02*
X004317Y021459D01*
X004065Y021773D02*
X002965Y021773D01*
X002515Y022223D01*
X002515Y024423D01*
X003315Y025223D01*
X003915Y025823D01*
X003915Y029373D01*
X005276Y028118D02*
X012418Y028118D01*
X012417Y028115D02*
X012417Y027631D01*
X012466Y027514D01*
X012556Y027424D01*
X012673Y027375D01*
X012791Y027375D01*
X013166Y027000D01*
X013327Y026933D01*
X013502Y026933D01*
X014681Y026933D01*
X014656Y026922D01*
X014606Y026873D01*
X006363Y026873D01*
X006363Y027015D01*
X006314Y027132D01*
X006224Y027222D01*
X006107Y027271D01*
X005623Y027271D01*
X005506Y027222D01*
X005416Y027132D01*
X005367Y027015D01*
X005367Y026531D01*
X005416Y026414D01*
X005506Y026324D01*
X005623Y026275D01*
X005797Y026275D01*
X005938Y026134D01*
X006085Y026073D01*
X006245Y026073D01*
X006757Y026073D01*
X006756Y026072D01*
X006666Y025982D01*
X006617Y025865D01*
X006617Y025381D01*
X006666Y025264D01*
X006715Y025214D01*
X006715Y022928D01*
X006691Y022903D01*
X006648Y022946D01*
X006420Y023040D01*
X006174Y023040D01*
X005946Y022946D01*
X005903Y022903D01*
X005861Y022946D01*
X005633Y023040D01*
X005386Y023040D01*
X005158Y022946D01*
X005116Y022903D01*
X005073Y022946D01*
X004845Y023040D01*
X004599Y023040D01*
X004371Y022946D01*
X004335Y022909D01*
X004335Y023227D01*
X004983Y023875D01*
X005157Y023875D01*
X005274Y023924D01*
X005364Y024014D01*
X005413Y024131D01*
X005413Y024615D01*
X005364Y024732D01*
X005274Y024822D01*
X005157Y024871D01*
X004983Y024871D01*
X004615Y025239D01*
X004615Y027457D01*
X006181Y029023D01*
X012745Y029023D01*
X012892Y029084D01*
X013004Y029196D01*
X013272Y029464D01*
X013308Y029377D01*
X013465Y029220D01*
X013670Y029135D01*
X013892Y029135D01*
X014097Y029220D01*
X014254Y029377D01*
X014273Y029424D01*
X014292Y029377D01*
X014449Y029220D01*
X014654Y029135D01*
X014876Y029135D01*
X015081Y029220D01*
X015238Y029377D01*
X015323Y029582D01*
X015323Y029804D01*
X015238Y030009D01*
X015081Y030166D01*
X014876Y030251D01*
X014654Y030251D01*
X014653Y030250D01*
X014621Y030283D01*
X014773Y030434D01*
X014876Y030434D01*
X015081Y030519D01*
X015238Y030676D01*
X015323Y030881D01*
X015323Y031103D01*
X015238Y031308D01*
X015081Y031465D01*
X015071Y031469D01*
X038776Y031469D01*
X038474Y031167D01*
X038395Y030976D01*
X038395Y030770D01*
X038172Y030993D01*
X037658Y030993D01*
X037415Y030750D01*
X037172Y030993D01*
X036658Y030993D01*
X036415Y030750D01*
X036172Y030993D01*
X035658Y030993D01*
X035415Y030750D01*
X035172Y030993D01*
X034658Y030993D01*
X034415Y030750D01*
X034172Y030993D01*
X033658Y030993D01*
X033415Y030750D01*
X033172Y030993D01*
X032658Y030993D01*
X032415Y030750D01*
X032172Y030993D01*
X031658Y030993D01*
X031415Y030750D01*
X031172Y030993D01*
X030658Y030993D01*
X030415Y030750D01*
X030172Y030993D01*
X029658Y030993D01*
X029415Y030750D01*
X029172Y030993D01*
X028658Y030993D01*
X028415Y030750D01*
X028172Y030993D01*
X027658Y030993D01*
X027415Y030750D01*
X027172Y030993D01*
X026658Y030993D01*
X026415Y030750D01*
X026172Y030993D01*
X025658Y030993D01*
X025415Y030750D01*
X025172Y030993D01*
X024658Y030993D01*
X024415Y030750D01*
X024172Y030993D01*
X023658Y030993D01*
X023415Y030750D01*
X023172Y030993D01*
X022658Y030993D01*
X022415Y030750D01*
X022172Y030993D01*
X021658Y030993D01*
X021415Y030750D01*
X021172Y030993D01*
X020658Y030993D01*
X020295Y030630D01*
X020295Y030116D01*
X020538Y029873D01*
X020295Y029630D01*
X020295Y029116D01*
X020658Y028753D01*
X021172Y028753D01*
X021415Y028996D01*
X021658Y028753D01*
X021975Y028753D01*
X021975Y026292D01*
X021966Y026282D01*
X021917Y026165D01*
X021917Y025681D01*
X021966Y025564D01*
X022056Y025474D01*
X022173Y025425D01*
X022657Y025425D01*
X022774Y025474D01*
X022864Y025564D01*
X022913Y025681D01*
X022913Y026165D01*
X022864Y026282D01*
X022855Y026292D01*
X022855Y028753D01*
X023172Y028753D01*
X023415Y028996D01*
X023658Y028753D01*
X024069Y028753D01*
X024826Y027996D01*
X024938Y027884D01*
X025085Y027823D01*
X025549Y027823D01*
X025667Y027705D01*
X025667Y027567D01*
X025959Y027275D01*
X026215Y027275D01*
X026215Y025489D01*
X026147Y025421D01*
X025973Y025421D01*
X025949Y025411D01*
X025864Y025496D01*
X025702Y025563D01*
X024534Y025563D01*
X024524Y025572D01*
X024407Y025621D01*
X023923Y025621D01*
X023806Y025572D01*
X023716Y025482D01*
X023667Y025365D01*
X023667Y024881D01*
X023716Y024764D01*
X023806Y024674D01*
X023923Y024625D01*
X024407Y024625D01*
X024524Y024674D01*
X024534Y024683D01*
X025215Y024683D01*
X025215Y024643D01*
X025276Y024496D01*
X025349Y024423D01*
X021524Y024423D01*
X021474Y024472D01*
X021357Y024521D01*
X020873Y024521D01*
X020756Y024472D01*
X020666Y024382D01*
X020617Y024265D01*
X020617Y023781D01*
X020641Y023723D01*
X020574Y023723D01*
X020524Y023772D01*
X020407Y023821D01*
X019985Y023821D01*
X019985Y023896D01*
X019891Y024124D01*
X019716Y024299D01*
X019592Y024350D01*
X019616Y024362D01*
X019678Y024407D01*
X019731Y024460D01*
X019775Y024521D01*
X019810Y024589D01*
X019833Y024660D01*
X019845Y024735D01*
X019845Y024753D01*
X019385Y024753D01*
X019385Y024793D01*
X019845Y024793D01*
X019845Y024811D01*
X019833Y024885D01*
X019810Y024957D01*
X019775Y025024D01*
X019731Y025086D01*
X019678Y025139D01*
X019616Y025183D01*
X019592Y025196D01*
X019716Y025247D01*
X019891Y025422D01*
X019985Y025650D01*
X019985Y025896D01*
X019891Y026124D01*
X019716Y026299D01*
X019488Y026393D01*
X019242Y026393D01*
X019014Y026299D01*
X018865Y026150D01*
X018716Y026299D01*
X018488Y026393D01*
X018242Y026393D01*
X018014Y026299D01*
X017865Y026150D01*
X017716Y026299D01*
X017488Y026393D01*
X017242Y026393D01*
X017014Y026299D01*
X016865Y026150D01*
X016716Y026299D01*
X016488Y026393D01*
X016242Y026393D01*
X016014Y026299D01*
X015839Y026124D01*
X015745Y025896D01*
X015745Y025650D01*
X015839Y025422D01*
X016014Y025247D01*
X016138Y025196D01*
X016113Y025183D01*
X016052Y025139D01*
X015999Y025086D01*
X015954Y025024D01*
X015920Y024957D01*
X015897Y024885D01*
X015885Y024811D01*
X015885Y024793D01*
X016345Y024793D01*
X016345Y024753D01*
X015885Y024753D01*
X015885Y024735D01*
X015897Y024660D01*
X015920Y024589D01*
X015954Y024521D01*
X015999Y024460D01*
X016052Y024407D01*
X016113Y024362D01*
X016138Y024350D01*
X016014Y024299D01*
X015888Y024173D01*
X015681Y024173D01*
X015415Y024439D01*
X015415Y026064D01*
X015464Y026114D01*
X015513Y026231D01*
X015513Y026715D01*
X015464Y026832D01*
X015374Y026922D01*
X015349Y026933D01*
X020546Y026933D01*
X020556Y026924D01*
X020673Y026875D01*
X021157Y026875D01*
X021274Y026924D01*
X021364Y027014D01*
X021413Y027131D01*
X021413Y027615D01*
X021364Y027732D01*
X021274Y027822D01*
X021157Y027871D01*
X020673Y027871D01*
X020556Y027822D01*
X020546Y027813D01*
X013597Y027813D01*
X013413Y027997D01*
X013413Y028115D01*
X013364Y028232D01*
X013274Y028322D01*
X013157Y028371D01*
X012673Y028371D01*
X012556Y028322D01*
X012466Y028232D01*
X012417Y028115D01*
X012417Y027959D02*
X005117Y027959D01*
X004959Y027801D02*
X012417Y027801D01*
X012417Y027642D02*
X004800Y027642D01*
X004642Y027484D02*
X012495Y027484D01*
X012840Y027325D02*
X004615Y027325D01*
X004615Y027167D02*
X005450Y027167D01*
X005367Y027008D02*
X004615Y027008D01*
X004615Y026850D02*
X005367Y026850D01*
X005367Y026691D02*
X004615Y026691D01*
X004615Y026533D02*
X005367Y026533D01*
X005455Y026374D02*
X004615Y026374D01*
X004615Y026215D02*
X005857Y026215D01*
X006165Y026473D02*
X005865Y026773D01*
X006165Y026473D02*
X015015Y026473D01*
X015015Y024273D01*
X015515Y023773D01*
X016365Y023773D01*
X015815Y023273D01*
X015815Y020147D01*
X016443Y019570D01*
X016824Y020032D02*
X017835Y020032D01*
X017740Y019918D02*
X017682Y019961D01*
X017618Y019993D01*
X017550Y020016D01*
X017479Y020027D01*
X017451Y020027D01*
X017451Y019579D01*
X017434Y019579D01*
X017434Y020027D01*
X017407Y020027D01*
X017335Y020016D01*
X017267Y019993D01*
X017203Y019961D01*
X017145Y019918D01*
X017094Y019868D01*
X017052Y019809D01*
X017019Y019745D01*
X017018Y019742D01*
X016949Y019908D01*
X016781Y020076D01*
X016561Y020167D01*
X016384Y020167D01*
X016253Y020288D01*
X016438Y020288D01*
X016664Y020381D01*
X016815Y020532D01*
X016966Y020381D01*
X017192Y020288D01*
X017438Y020288D01*
X017664Y020381D01*
X017815Y020532D01*
X017835Y020512D01*
X017835Y019868D01*
X017835Y019806D01*
X017834Y019809D01*
X017791Y019868D01*
X017740Y019918D01*
X017785Y019874D02*
X017835Y019874D01*
X017835Y020191D02*
X016358Y020191D01*
X016587Y020349D02*
X017043Y020349D01*
X016839Y020508D02*
X016791Y020508D01*
X016963Y019874D02*
X017100Y019874D01*
X017434Y019874D02*
X017451Y019874D01*
X017434Y019715D02*
X017451Y019715D01*
X017451Y019561D02*
X017451Y019113D01*
X017479Y019113D01*
X017550Y019124D01*
X017618Y019146D01*
X017682Y019179D01*
X017740Y019221D01*
X017791Y019272D01*
X017834Y019330D01*
X017866Y019394D01*
X017888Y019463D01*
X017898Y019525D01*
X017908Y019501D01*
X018326Y019083D01*
X018154Y019083D01*
X017911Y018840D01*
X017668Y019083D01*
X017154Y019083D01*
X016911Y018840D01*
X016715Y019036D01*
X016781Y019064D01*
X016949Y019231D01*
X017018Y019398D01*
X017019Y019394D01*
X017052Y019330D01*
X017094Y019272D01*
X017145Y019221D01*
X017203Y019179D01*
X017267Y019146D01*
X017335Y019124D01*
X017407Y019113D01*
X017434Y019113D01*
X017434Y019561D01*
X017451Y019561D01*
X017451Y019557D02*
X017434Y019557D01*
X017434Y019398D02*
X017451Y019398D01*
X017434Y019240D02*
X017451Y019240D01*
X017670Y019081D02*
X018152Y019081D01*
X018169Y019240D02*
X017759Y019240D01*
X017867Y019398D02*
X018011Y019398D01*
X017993Y018922D02*
X017829Y018922D01*
X017152Y019081D02*
X016798Y019081D01*
X016829Y018922D02*
X016993Y018922D01*
X016952Y019240D02*
X017126Y019240D01*
X017587Y020349D02*
X017835Y020349D01*
X017835Y020508D02*
X017791Y020508D01*
X017315Y021923D02*
X017315Y022423D01*
X016865Y022873D01*
X016865Y023323D02*
X017165Y023323D01*
X017465Y023023D01*
X017465Y022723D01*
X017715Y022473D01*
X028665Y022473D01*
X028915Y022173D01*
X028915Y021923D01*
X028245Y021935D02*
X027585Y021935D01*
X027585Y021776D02*
X028245Y021776D01*
X028273Y021618D02*
X027557Y021618D01*
X027399Y021459D02*
X028431Y021459D01*
X028439Y021301D02*
X027391Y021301D01*
X027484Y021142D02*
X028346Y021142D01*
X028298Y020984D02*
X027532Y020984D01*
X027532Y020825D02*
X028298Y020825D01*
X028346Y020666D02*
X027484Y020666D01*
X027391Y020508D02*
X028439Y020508D01*
X028643Y020349D02*
X027187Y020349D01*
X026643Y020349D02*
X026187Y020349D01*
X026391Y020508D02*
X026439Y020508D01*
X025815Y020191D02*
X034167Y020191D01*
X034187Y020349D02*
X034326Y020349D01*
X034391Y020508D02*
X034439Y020508D01*
X034915Y020373D02*
X034915Y020904D01*
X034915Y020373D02*
X032915Y018373D01*
X032915Y016173D01*
X033215Y015873D01*
X033915Y015873D01*
X033476Y015435D02*
X030571Y015435D01*
X030733Y015276D02*
X033653Y015276D01*
X033501Y015117D02*
X030895Y015117D01*
X031057Y014959D02*
X033443Y014959D01*
X033440Y014800D02*
X031219Y014800D01*
X031381Y014642D02*
X033494Y014642D01*
X033635Y014483D02*
X031543Y014483D01*
X031705Y014325D02*
X033490Y014325D01*
X033365Y014166D02*
X031867Y014166D01*
X032030Y014008D02*
X033300Y014008D01*
X033295Y013849D02*
X032192Y013849D01*
X032354Y013691D02*
X033319Y013691D01*
X033385Y013532D02*
X032516Y013532D01*
X032678Y013373D02*
X033538Y013373D01*
X033002Y013056D02*
X035745Y013056D01*
X035745Y012898D02*
X033164Y012898D01*
X033326Y012739D02*
X035766Y012739D01*
X035831Y012581D02*
X033489Y012581D01*
X033651Y012422D02*
X035968Y012422D01*
X036256Y012264D02*
X033813Y012264D01*
X033975Y012105D02*
X038330Y012105D01*
X038298Y011947D02*
X034137Y011947D01*
X034299Y011788D02*
X038298Y011788D01*
X038361Y011629D02*
X034461Y011629D01*
X034623Y011471D02*
X038476Y011471D01*
X038451Y011312D02*
X034785Y011312D01*
X034947Y011154D02*
X038351Y011154D01*
X038298Y010995D02*
X035106Y010995D01*
X035165Y010837D02*
X038298Y010837D01*
X038341Y010678D02*
X035165Y010678D01*
X035165Y010520D02*
X036157Y010520D01*
X035934Y010361D02*
X035165Y010361D01*
X035165Y010203D02*
X035827Y010203D01*
X035765Y010044D02*
X035165Y010044D01*
X035165Y009886D02*
X035765Y009886D01*
X035793Y009727D02*
X035165Y009727D01*
X035165Y009568D02*
X035858Y009568D01*
X035983Y009410D02*
X035165Y009410D01*
X035165Y009251D02*
X035847Y009251D01*
X035782Y009093D02*
X035165Y009093D01*
X035165Y008934D02*
X035765Y008934D01*
X035772Y008776D02*
X035165Y008776D01*
X035165Y008617D02*
X035838Y008617D01*
X035827Y008459D02*
X035960Y008459D01*
X035415Y007923D02*
X036433Y006904D01*
X038915Y006904D01*
X038896Y005904D02*
X038915Y005904D01*
X038896Y005904D02*
X037965Y004973D01*
X037965Y004073D01*
X037565Y003673D01*
X034615Y003673D01*
X028415Y009873D01*
X027915Y010373D02*
X028415Y010873D01*
X027915Y011373D02*
X030715Y011373D01*
X032315Y009773D01*
X032315Y007673D01*
X032565Y007423D01*
X033063Y007507D02*
X033515Y007507D01*
X033515Y007349D02*
X033460Y007349D01*
X033515Y007666D02*
X033063Y007666D01*
X032972Y007824D02*
X033515Y007824D01*
X033515Y007983D02*
X032715Y007983D01*
X032715Y008142D02*
X033515Y008142D01*
X033515Y008300D02*
X032715Y008300D01*
X032715Y008459D02*
X033515Y008459D01*
X033515Y008617D02*
X032715Y008617D01*
X032715Y008776D02*
X033515Y008776D01*
X033515Y008934D02*
X032715Y008934D01*
X032715Y009093D02*
X033515Y009093D01*
X033515Y009251D02*
X032715Y009251D01*
X032715Y009410D02*
X033515Y009410D01*
X033515Y009568D02*
X032715Y009568D01*
X032715Y009727D02*
X033515Y009727D01*
X033515Y009886D02*
X032701Y009886D01*
X032609Y010044D02*
X033515Y010044D01*
X033370Y010203D02*
X032451Y010203D01*
X032292Y010361D02*
X033211Y010361D01*
X033053Y010520D02*
X032134Y010520D01*
X031975Y010678D02*
X032894Y010678D01*
X032735Y010837D02*
X031817Y010837D01*
X031658Y010995D02*
X032577Y010995D01*
X032418Y011154D02*
X031500Y011154D01*
X031341Y011312D02*
X032260Y011312D01*
X032101Y011471D02*
X031183Y011471D01*
X031024Y011629D02*
X031943Y011629D01*
X031784Y011788D02*
X019645Y011788D01*
X019645Y011629D02*
X027606Y011629D01*
X027915Y011373D02*
X027415Y010873D01*
X027006Y011312D02*
X019645Y011312D01*
X019645Y011154D02*
X026847Y011154D01*
X026815Y010995D02*
X019645Y010995D01*
X019645Y010837D02*
X020260Y010837D01*
X020091Y010678D02*
X019645Y010678D01*
X019645Y010520D02*
X019933Y010520D01*
X019774Y010361D02*
X019645Y010361D01*
X020339Y009568D02*
X026845Y009568D01*
X026845Y009410D02*
X020181Y009410D01*
X020022Y009251D02*
X026845Y009251D01*
X026845Y009093D02*
X019864Y009093D01*
X019705Y008934D02*
X026845Y008934D01*
X026845Y008776D02*
X019547Y008776D01*
X019388Y008617D02*
X026845Y008617D01*
X026845Y008459D02*
X019229Y008459D01*
X019071Y008300D02*
X026845Y008300D01*
X026845Y008142D02*
X018912Y008142D01*
X018754Y007983D02*
X026845Y007983D01*
X026845Y007824D02*
X021269Y007824D01*
X021392Y007666D02*
X026845Y007666D01*
X026845Y007507D02*
X021413Y007507D01*
X021413Y007349D02*
X026845Y007349D01*
X026845Y007190D02*
X021413Y007190D01*
X021372Y007032D02*
X026845Y007032D01*
X026845Y006873D02*
X021094Y006873D01*
X020935Y006715D02*
X026845Y006715D01*
X026845Y006556D02*
X020692Y006556D01*
X020371Y007507D02*
X018278Y007507D01*
X018437Y007666D02*
X020438Y007666D01*
X020561Y007824D02*
X018595Y007824D01*
X018050Y006398D02*
X026845Y006398D01*
X026845Y006239D02*
X018208Y006239D01*
X018367Y006080D02*
X026816Y006080D01*
X026658Y005922D02*
X018526Y005922D01*
X018684Y005763D02*
X026499Y005763D01*
X026341Y005605D02*
X018843Y005605D01*
X019001Y005446D02*
X026182Y005446D01*
X026024Y005288D02*
X019160Y005288D01*
X019318Y005129D02*
X025865Y005129D01*
X025707Y004971D02*
X019477Y004971D01*
X019635Y004812D02*
X020545Y004812D01*
X020414Y004654D02*
X019794Y004654D01*
X019952Y004495D02*
X020349Y004495D01*
X020345Y004336D02*
X020111Y004336D01*
X020270Y004178D02*
X020379Y004178D01*
X020428Y004019D02*
X020462Y004019D01*
X020587Y003861D02*
X020662Y003861D01*
X020666Y003702D02*
X034020Y003702D01*
X033861Y003861D02*
X026168Y003861D01*
X026368Y004019D02*
X033703Y004019D01*
X033544Y004178D02*
X026526Y004178D01*
X026685Y004336D02*
X033386Y004336D01*
X033227Y004495D02*
X026843Y004495D01*
X027002Y004654D02*
X033069Y004654D01*
X032910Y004812D02*
X027160Y004812D01*
X027319Y004971D02*
X032752Y004971D01*
X032593Y005129D02*
X027477Y005129D01*
X027636Y005288D02*
X032434Y005288D01*
X032276Y005446D02*
X031747Y005446D01*
X031852Y005605D02*
X032117Y005605D01*
X031959Y005763D02*
X031863Y005763D01*
X031365Y005873D02*
X027915Y005873D01*
X027915Y010373D01*
X027055Y010361D02*
X021213Y010361D01*
X021213Y010203D02*
X026896Y010203D01*
X026815Y010044D02*
X021145Y010044D01*
X020656Y009886D02*
X026815Y009886D01*
X026815Y009727D02*
X020498Y009727D01*
X021213Y010520D02*
X026920Y010520D01*
X026815Y010678D02*
X021207Y010678D01*
X021110Y010837D02*
X026815Y010837D01*
X027164Y011471D02*
X019645Y011471D01*
X019645Y011947D02*
X031626Y011947D01*
X031467Y012105D02*
X019645Y012105D01*
X019645Y012264D02*
X031309Y012264D01*
X031150Y012422D02*
X019645Y012422D01*
X019645Y012581D02*
X030991Y012581D01*
X030833Y012739D02*
X019646Y012739D01*
X019663Y012898D02*
X030674Y012898D01*
X030516Y013056D02*
X019663Y013056D01*
X019663Y013215D02*
X030357Y013215D01*
X030199Y013373D02*
X020744Y013373D01*
X020903Y013532D02*
X030040Y013532D01*
X029882Y013691D02*
X021061Y013691D01*
X021220Y013849D02*
X027164Y013849D01*
X026997Y014008D02*
X021379Y014008D01*
X021537Y014166D02*
X026967Y014166D01*
X026967Y014325D02*
X021696Y014325D01*
X021854Y014483D02*
X026967Y014483D01*
X026999Y014642D02*
X022013Y014642D01*
X022171Y014800D02*
X027173Y014800D01*
X027417Y014959D02*
X022325Y014959D01*
X022391Y015117D02*
X027459Y015117D01*
X027867Y015276D02*
X022395Y015276D01*
X022395Y015435D02*
X027867Y015435D01*
X027926Y015593D02*
X022395Y015593D01*
X022395Y015752D02*
X032771Y015752D01*
X032929Y015593D02*
X030367Y015593D01*
X030215Y015223D02*
X034765Y010773D01*
X034765Y004373D01*
X034365Y005373D02*
X034365Y010473D01*
X030065Y014773D01*
X027915Y014773D01*
X028365Y015223D02*
X030215Y015223D01*
X029815Y014323D02*
X033915Y010223D01*
X033915Y006373D01*
X031565Y007473D02*
X031565Y009873D01*
X031115Y010323D01*
X029965Y010323D01*
X029415Y010873D01*
X029415Y009873D02*
X030615Y008673D01*
X030915Y008673D01*
X030683Y009171D02*
X030441Y009413D01*
X030605Y009413D01*
X030875Y009682D01*
X030875Y009864D01*
X030424Y009864D01*
X030424Y009881D01*
X030875Y009881D01*
X030875Y009923D01*
X030949Y009923D01*
X031165Y009707D01*
X031165Y009168D01*
X031157Y009171D01*
X030683Y009171D01*
X030602Y009251D02*
X031165Y009251D01*
X031165Y009410D02*
X030444Y009410D01*
X030761Y009568D02*
X031165Y009568D01*
X031145Y009727D02*
X030875Y009727D01*
X030875Y009886D02*
X030987Y009886D01*
X032840Y013215D02*
X035811Y013215D01*
X035918Y013373D02*
X034292Y013373D01*
X034445Y013532D02*
X035858Y013532D01*
X035786Y013691D02*
X034539Y013691D01*
X034697Y013849D02*
X035745Y013849D01*
X035745Y014008D02*
X034856Y014008D01*
X035014Y014166D02*
X035791Y014166D01*
X035869Y014325D02*
X035173Y014325D01*
X035331Y014483D02*
X035907Y014483D01*
X035806Y014642D02*
X035490Y014642D01*
X035648Y014800D02*
X035745Y014800D01*
X036415Y014923D02*
X036615Y014923D01*
X037115Y015423D01*
X038396Y015423D01*
X038915Y014904D01*
X038396Y014423D02*
X038915Y013904D01*
X038396Y013423D02*
X038915Y012904D01*
X038525Y012422D02*
X037862Y012422D01*
X037998Y012581D02*
X038381Y012581D01*
X038316Y012739D02*
X038064Y012739D01*
X038085Y012898D02*
X038298Y012898D01*
X038396Y013423D02*
X036965Y013423D01*
X036465Y012923D01*
X036415Y012923D01*
X036862Y012422D02*
X036968Y012422D01*
X037256Y012264D02*
X036574Y012264D01*
X037574Y012264D02*
X038402Y012264D01*
X039915Y012123D02*
X039915Y011904D01*
X039915Y012123D02*
X040465Y012673D01*
X040465Y018623D01*
X040865Y019023D01*
X040865Y018447D02*
X040885Y018447D01*
X040885Y018288D02*
X040865Y018288D01*
X040865Y018130D02*
X040885Y018130D01*
X040885Y017971D02*
X040865Y017971D01*
X040865Y017813D02*
X040885Y017813D01*
X040885Y017654D02*
X040865Y017654D01*
X040865Y017496D02*
X040885Y017496D01*
X040885Y017337D02*
X040865Y017337D01*
X040865Y017179D02*
X040885Y017179D01*
X040885Y017020D02*
X040865Y017020D01*
X040865Y016861D02*
X040885Y016861D01*
X040885Y016703D02*
X040865Y016703D01*
X040865Y016544D02*
X040885Y016544D01*
X040885Y016386D02*
X040865Y016386D01*
X040865Y016227D02*
X040885Y016227D01*
X040885Y016069D02*
X040865Y016069D01*
X040865Y015910D02*
X040885Y015910D01*
X040885Y015752D02*
X040865Y015752D01*
X040865Y015593D02*
X040885Y015593D01*
X040885Y015435D02*
X040865Y015435D01*
X040865Y015276D02*
X040885Y015276D01*
X040885Y015117D02*
X040865Y015117D01*
X040865Y014959D02*
X040885Y014959D01*
X040885Y014800D02*
X040865Y014800D01*
X040865Y014642D02*
X040885Y014642D01*
X040885Y014483D02*
X040865Y014483D01*
X040865Y014325D02*
X040885Y014325D01*
X040885Y014166D02*
X040865Y014166D01*
X040865Y014008D02*
X040885Y014008D01*
X040885Y013849D02*
X040865Y013849D01*
X040865Y013691D02*
X040885Y013691D01*
X040885Y013532D02*
X040865Y013532D01*
X040865Y013373D02*
X040885Y013373D01*
X040885Y013215D02*
X040865Y013215D01*
X040865Y013056D02*
X040885Y013056D01*
X040885Y012898D02*
X040865Y012898D01*
X040865Y012739D02*
X040885Y012739D01*
X040885Y012581D02*
X040860Y012581D01*
X040885Y012422D02*
X040780Y012422D01*
X040885Y012264D02*
X040621Y012264D01*
X040499Y012105D02*
X040885Y012105D01*
X040885Y011947D02*
X040532Y011947D01*
X040532Y011788D02*
X040885Y011788D01*
X040885Y011629D02*
X040469Y011629D01*
X040354Y011471D02*
X040885Y011471D01*
X040885Y011312D02*
X040379Y011312D01*
X040479Y011154D02*
X040885Y011154D01*
X040885Y010995D02*
X040532Y010995D01*
X040532Y010837D02*
X040885Y010837D01*
X040885Y010678D02*
X040489Y010678D01*
X040403Y010520D02*
X040885Y010520D01*
X040885Y010361D02*
X040331Y010361D01*
X040459Y010203D02*
X040885Y010203D01*
X040885Y010044D02*
X040525Y010044D01*
X040532Y009886D02*
X040885Y009886D01*
X040885Y009727D02*
X040509Y009727D01*
X040443Y009568D02*
X040885Y009568D01*
X040885Y009410D02*
X040293Y009410D01*
X040439Y009251D02*
X040885Y009251D01*
X040885Y009093D02*
X040505Y009093D01*
X040532Y008934D02*
X040885Y008934D01*
X040885Y008776D02*
X040529Y008776D01*
X040464Y008617D02*
X040885Y008617D01*
X040885Y008459D02*
X040342Y008459D01*
X040392Y008300D02*
X040885Y008300D01*
X040885Y008142D02*
X040484Y008142D01*
X040532Y007983D02*
X040885Y007983D01*
X040885Y007824D02*
X040532Y007824D01*
X040484Y007666D02*
X040885Y007666D01*
X040885Y007507D02*
X040390Y007507D01*
X040343Y007349D02*
X040885Y007349D01*
X040885Y007190D02*
X040464Y007190D01*
X040530Y007032D02*
X040885Y007032D01*
X040885Y006873D02*
X040532Y006873D01*
X040504Y006715D02*
X040885Y006715D01*
X040885Y006556D02*
X040438Y006556D01*
X040294Y006398D02*
X040885Y006398D01*
X040885Y006239D02*
X040444Y006239D01*
X040510Y006080D02*
X040885Y006080D01*
X040885Y005922D02*
X040532Y005922D01*
X040524Y005763D02*
X040885Y005763D01*
X040885Y005605D02*
X040459Y005605D01*
X040329Y005446D02*
X040885Y005446D01*
X040885Y005288D02*
X040404Y005288D01*
X040489Y005129D02*
X040885Y005129D01*
X040885Y004971D02*
X040532Y004971D01*
X040532Y004812D02*
X040885Y004812D01*
X040885Y004654D02*
X040479Y004654D01*
X040378Y004495D02*
X040885Y004495D01*
X040885Y004336D02*
X040156Y004336D01*
X040306Y004178D02*
X040885Y004178D01*
X040885Y004019D02*
X040379Y004019D01*
X040391Y003861D02*
X040885Y003861D01*
X040885Y003702D02*
X040347Y003702D01*
X040229Y003544D02*
X040885Y003544D01*
X040885Y003385D02*
X038400Y003385D01*
X038559Y003227D02*
X040885Y003227D01*
X040885Y003068D02*
X038585Y003068D01*
X038585Y002910D02*
X040885Y002910D01*
X040885Y002751D02*
X040353Y002751D01*
X040453Y002710D02*
X040104Y002854D01*
X039726Y002854D01*
X039377Y002710D01*
X039110Y002442D01*
X038965Y002093D01*
X038965Y001715D01*
X039110Y001366D01*
X039377Y001099D01*
X039726Y000954D01*
X040104Y000954D01*
X040453Y001099D01*
X040720Y001366D01*
X040865Y001715D01*
X040865Y002093D01*
X040720Y002442D01*
X040453Y002710D01*
X040570Y002593D02*
X040885Y002593D01*
X040885Y002434D02*
X040724Y002434D01*
X040789Y002275D02*
X040885Y002275D01*
X040885Y002117D02*
X040855Y002117D01*
X040865Y001958D02*
X040885Y001958D01*
X040885Y001800D02*
X040865Y001800D01*
X040885Y001641D02*
X040834Y001641D01*
X040885Y001483D02*
X040768Y001483D01*
X040678Y001324D02*
X040883Y001324D01*
X040725Y001166D02*
X040520Y001166D01*
X040566Y001007D02*
X040231Y001007D01*
X040408Y000849D02*
X011938Y000849D01*
X012047Y001007D02*
X039599Y001007D01*
X039310Y001166D02*
X020274Y001166D01*
X020494Y001324D02*
X021704Y001324D01*
X021792Y001288D02*
X021566Y001381D01*
X021392Y001555D01*
X021298Y001782D01*
X021298Y002027D01*
X021392Y002254D01*
X021514Y002376D01*
X021245Y002645D01*
X021245Y003200D01*
X021637Y003593D01*
X022192Y003593D01*
X022415Y003370D01*
X022637Y003593D01*
X023192Y003593D01*
X023415Y003370D01*
X023637Y003593D01*
X024192Y003593D01*
X024415Y003370D01*
X024637Y003593D01*
X025192Y003593D01*
X025415Y003370D01*
X025637Y003593D01*
X026192Y003593D01*
X026415Y003370D01*
X026637Y003593D01*
X027192Y003593D01*
X027415Y003370D01*
X027637Y003593D01*
X028192Y003593D01*
X028415Y003370D01*
X028637Y003593D01*
X029192Y003593D01*
X029585Y003200D01*
X029585Y002645D01*
X029316Y002376D01*
X029438Y002254D01*
X029532Y002027D01*
X029532Y001782D01*
X029438Y001555D01*
X029264Y001381D01*
X029038Y001288D01*
X028792Y001288D01*
X028566Y001381D01*
X028415Y001532D01*
X028264Y001381D01*
X028038Y001288D01*
X027792Y001288D01*
X027566Y001381D01*
X027415Y001532D01*
X027264Y001381D01*
X027038Y001288D01*
X026792Y001288D01*
X026566Y001381D01*
X026415Y001532D01*
X026264Y001381D01*
X026038Y001288D01*
X025792Y001288D01*
X025566Y001381D01*
X025415Y001532D01*
X025264Y001381D01*
X025038Y001288D01*
X024792Y001288D01*
X024566Y001381D01*
X024415Y001532D01*
X024264Y001381D01*
X024038Y001288D01*
X023792Y001288D01*
X023566Y001381D01*
X023415Y001532D01*
X023264Y001381D01*
X023038Y001288D01*
X022792Y001288D01*
X022566Y001381D01*
X022415Y001532D01*
X022264Y001381D01*
X022038Y001288D01*
X021792Y001288D01*
X022126Y001324D02*
X022704Y001324D01*
X022464Y001483D02*
X022366Y001483D01*
X023126Y001324D02*
X023704Y001324D01*
X023464Y001483D02*
X023366Y001483D01*
X024126Y001324D02*
X024704Y001324D01*
X024464Y001483D02*
X024366Y001483D01*
X025126Y001324D02*
X025704Y001324D01*
X025464Y001483D02*
X025366Y001483D01*
X026126Y001324D02*
X026704Y001324D01*
X026464Y001483D02*
X026366Y001483D01*
X027126Y001324D02*
X027704Y001324D01*
X027464Y001483D02*
X027366Y001483D01*
X028126Y001324D02*
X028704Y001324D01*
X028464Y001483D02*
X028366Y001483D01*
X029126Y001324D02*
X030704Y001324D01*
X030464Y001483D02*
X029366Y001483D01*
X029474Y001641D02*
X030356Y001641D01*
X030298Y001800D02*
X029532Y001800D01*
X029532Y001958D02*
X030298Y001958D01*
X030335Y002117D02*
X029495Y002117D01*
X029416Y002275D02*
X030414Y002275D01*
X030456Y002434D02*
X029374Y002434D01*
X029532Y002593D02*
X030298Y002593D01*
X030245Y002751D02*
X029585Y002751D01*
X029585Y002910D02*
X030245Y002910D01*
X030245Y003068D02*
X029585Y003068D01*
X029559Y003227D02*
X030271Y003227D01*
X030430Y003385D02*
X029400Y003385D01*
X029242Y003544D02*
X030588Y003544D01*
X031242Y003544D02*
X031588Y003544D01*
X031430Y003385D02*
X031400Y003385D01*
X032242Y003544D02*
X032588Y003544D01*
X032430Y003385D02*
X032400Y003385D01*
X033242Y003544D02*
X033588Y003544D01*
X033430Y003385D02*
X033400Y003385D01*
X033366Y001483D02*
X033464Y001483D01*
X033704Y001324D02*
X033126Y001324D01*
X032704Y001324D02*
X032126Y001324D01*
X032366Y001483D02*
X032464Y001483D01*
X031704Y001324D02*
X031126Y001324D01*
X031366Y001483D02*
X031464Y001483D01*
X034126Y001324D02*
X034704Y001324D01*
X034464Y001483D02*
X034366Y001483D01*
X035126Y001324D02*
X035704Y001324D01*
X035464Y001483D02*
X035366Y001483D01*
X036126Y001324D02*
X036704Y001324D01*
X036464Y001483D02*
X036366Y001483D01*
X037126Y001324D02*
X037704Y001324D01*
X037464Y001483D02*
X037366Y001483D01*
X038126Y001324D02*
X039152Y001324D01*
X039061Y001483D02*
X038366Y001483D01*
X038474Y001641D02*
X038996Y001641D01*
X038965Y001800D02*
X038532Y001800D01*
X038532Y001958D02*
X038965Y001958D01*
X038975Y002117D02*
X038495Y002117D01*
X038416Y002275D02*
X039040Y002275D01*
X039106Y002434D02*
X038373Y002434D01*
X038532Y002593D02*
X039260Y002593D01*
X039477Y002751D02*
X038585Y002751D01*
X038601Y003544D02*
X038242Y003544D01*
X038160Y003702D02*
X038483Y003702D01*
X038439Y003861D02*
X038310Y003861D01*
X038365Y004019D02*
X038451Y004019D01*
X038524Y004178D02*
X038365Y004178D01*
X038365Y004336D02*
X038674Y004336D01*
X038452Y004495D02*
X038365Y004495D01*
X039156Y004336D02*
X039674Y004336D01*
X039524Y004178D02*
X039306Y004178D01*
X039379Y004019D02*
X039451Y004019D01*
X039439Y003861D02*
X039391Y003861D01*
X039347Y003702D02*
X039483Y003702D01*
X039601Y003544D02*
X039229Y003544D01*
X038933Y003544D02*
X038896Y003544D01*
X038896Y003702D02*
X038933Y003702D01*
X038933Y003861D02*
X038896Y003861D01*
X039378Y004495D02*
X039452Y004495D01*
X039896Y003861D02*
X039933Y003861D01*
X039933Y003702D02*
X039896Y003702D01*
X039896Y003544D02*
X039933Y003544D01*
X039915Y007904D02*
X039446Y008373D01*
X038665Y008373D01*
X038215Y007923D01*
X037415Y007923D01*
X037415Y008923D02*
X038165Y008923D01*
X038615Y009373D01*
X039446Y009373D01*
X039915Y008904D01*
X039915Y009904D02*
X039396Y010423D01*
X038665Y010423D01*
X038165Y009923D01*
X037415Y009923D01*
X036934Y010361D02*
X036896Y010361D01*
X036673Y010520D02*
X037157Y010520D01*
X037673Y010520D02*
X038196Y010520D01*
X038038Y010361D02*
X037896Y010361D01*
X036565Y013923D02*
X037065Y014423D01*
X038396Y014423D01*
X038915Y015904D02*
X038346Y016473D01*
X037065Y016473D01*
X036515Y015923D01*
X036415Y015923D01*
X036415Y013923D02*
X036565Y013923D01*
X033915Y016873D02*
X033915Y018623D01*
X035465Y020173D01*
X035465Y020454D01*
X035915Y020904D01*
X034009Y020032D02*
X025906Y020032D01*
X025913Y019874D02*
X033850Y019874D01*
X033692Y019715D02*
X025913Y019715D01*
X025913Y019557D02*
X033533Y019557D01*
X033375Y019398D02*
X025849Y019398D01*
X025415Y019773D02*
X025415Y021423D01*
X024439Y020508D02*
X024395Y020508D01*
X024395Y020349D02*
X024643Y020349D01*
X024395Y020191D02*
X025015Y020191D01*
X024924Y020032D02*
X024395Y020032D01*
X024395Y019874D02*
X024917Y019874D01*
X024917Y019715D02*
X024395Y019715D01*
X024395Y019557D02*
X024917Y019557D01*
X024981Y019398D02*
X024395Y019398D01*
X024395Y019240D02*
X033216Y019240D01*
X033057Y019081D02*
X024395Y019081D01*
X024395Y018922D02*
X032899Y018922D01*
X032740Y018764D02*
X024395Y018764D01*
X024395Y018605D02*
X032582Y018605D01*
X032515Y018447D02*
X024395Y018447D01*
X024358Y018288D02*
X032515Y018288D01*
X032515Y018130D02*
X024251Y018130D01*
X024092Y017971D02*
X032515Y017971D01*
X032515Y017813D02*
X023934Y017813D01*
X023775Y017654D02*
X032515Y017654D01*
X032515Y017496D02*
X023616Y017496D01*
X023458Y017337D02*
X032515Y017337D01*
X032515Y017179D02*
X023299Y017179D01*
X023141Y017020D02*
X032515Y017020D01*
X032515Y016861D02*
X022982Y016861D01*
X022824Y016703D02*
X032515Y016703D01*
X032515Y016544D02*
X022665Y016544D01*
X022507Y016386D02*
X032515Y016386D01*
X032515Y016227D02*
X022395Y016227D01*
X022395Y016069D02*
X032525Y016069D01*
X032612Y015910D02*
X022395Y015910D01*
X018679Y013293D02*
X018667Y013265D01*
X018667Y012781D01*
X018674Y012765D01*
X018174Y012765D01*
X017931Y012521D01*
X017687Y012765D01*
X017174Y012765D01*
X016931Y012521D01*
X016735Y012717D01*
X016800Y012745D01*
X016968Y012913D01*
X017037Y013079D01*
X017039Y013075D01*
X017071Y013011D01*
X017114Y012953D01*
X017164Y012902D01*
X017223Y012860D01*
X017287Y012827D01*
X017355Y012805D01*
X017426Y012794D01*
X017454Y012794D01*
X017454Y013242D01*
X017471Y013242D01*
X017471Y013259D01*
X017919Y013259D01*
X017919Y013287D01*
X017918Y013293D01*
X018679Y013293D01*
X018667Y013215D02*
X017919Y013215D01*
X017919Y013242D01*
X017471Y013242D01*
X017471Y012794D01*
X017498Y012794D01*
X017569Y012805D01*
X017638Y012827D01*
X017702Y012860D01*
X017760Y012902D01*
X017811Y012953D01*
X017853Y013011D01*
X017886Y013075D01*
X017908Y013144D01*
X017919Y013215D01*
X017876Y013056D02*
X018667Y013056D01*
X018667Y012898D02*
X017754Y012898D01*
X017713Y012739D02*
X018149Y012739D01*
X017990Y012581D02*
X017871Y012581D01*
X017471Y012898D02*
X017454Y012898D01*
X017454Y013056D02*
X017471Y013056D01*
X017454Y013215D02*
X017471Y013215D01*
X017170Y012898D02*
X016954Y012898D01*
X017028Y013056D02*
X017048Y013056D01*
X017149Y012739D02*
X016788Y012739D01*
X016871Y012581D02*
X016990Y012581D01*
X016786Y005343D02*
X012713Y005343D01*
X012713Y005304D01*
X013264Y004753D01*
X014260Y004753D01*
X015419Y004753D01*
X015610Y004753D01*
X015787Y004680D01*
X016924Y003543D01*
X017192Y003543D01*
X017514Y003221D01*
X017695Y003403D01*
X017895Y003403D01*
X017895Y002893D01*
X017935Y002893D01*
X017935Y003403D01*
X018134Y003403D01*
X018415Y003122D01*
X018695Y003403D01*
X018725Y003403D01*
X016786Y005343D01*
X016840Y005288D02*
X012729Y005288D01*
X012887Y005129D02*
X016999Y005129D01*
X017158Y004971D02*
X013046Y004971D01*
X013205Y004812D02*
X017316Y004812D01*
X017475Y004654D02*
X015813Y004654D01*
X015972Y004495D02*
X017633Y004495D01*
X017792Y004336D02*
X016130Y004336D01*
X016289Y004178D02*
X017950Y004178D01*
X018109Y004019D02*
X016447Y004019D01*
X016606Y003861D02*
X018267Y003861D01*
X018426Y003702D02*
X016764Y003702D01*
X016923Y003544D02*
X018584Y003544D01*
X018678Y003385D02*
X018152Y003385D01*
X017935Y003385D02*
X017895Y003385D01*
X017895Y003227D02*
X017935Y003227D01*
X017935Y003068D02*
X017895Y003068D01*
X017895Y002910D02*
X017935Y002910D01*
X017935Y002893D02*
X018385Y002893D01*
X018895Y002893D01*
X018895Y002853D01*
X018385Y002853D01*
X017935Y002853D01*
X017935Y002893D01*
X017935Y002853D02*
X017935Y002381D01*
X017933Y002381D01*
X017933Y001923D01*
X017896Y001923D01*
X017896Y002381D01*
X017895Y002381D01*
X017895Y002853D01*
X017935Y002853D01*
X017935Y002751D02*
X017895Y002751D01*
X017895Y002593D02*
X017935Y002593D01*
X017935Y002434D02*
X017895Y002434D01*
X017896Y002275D02*
X017933Y002275D01*
X017933Y002117D02*
X017896Y002117D01*
X017896Y001958D02*
X017933Y001958D01*
X017933Y001800D02*
X017896Y001800D01*
X017896Y001641D02*
X017933Y001641D01*
X017933Y001483D02*
X017896Y001483D01*
X017692Y001483D02*
X017366Y001483D01*
X017474Y001641D02*
X017517Y001641D01*
X017126Y001324D02*
X019336Y001324D01*
X019202Y001483D02*
X019138Y001483D01*
X018933Y001483D02*
X018896Y001483D01*
X018896Y001641D02*
X018933Y001641D01*
X018933Y001800D02*
X018896Y001800D01*
X018896Y001923D02*
X018896Y002381D01*
X018895Y002381D01*
X018895Y002853D01*
X018935Y002853D01*
X018935Y002381D01*
X018933Y002381D01*
X018933Y001923D01*
X018896Y001923D01*
X018896Y001958D02*
X018933Y001958D01*
X018933Y002117D02*
X018896Y002117D01*
X018896Y002275D02*
X018933Y002275D01*
X018935Y002434D02*
X018895Y002434D01*
X018895Y002593D02*
X018935Y002593D01*
X018935Y002751D02*
X018895Y002751D01*
X018604Y002434D02*
X018225Y002434D01*
X018216Y002275D02*
X018614Y002275D01*
X018488Y002117D02*
X018342Y002117D01*
X018389Y001958D02*
X018441Y001958D01*
X018449Y001800D02*
X018381Y001800D01*
X018313Y001641D02*
X018517Y001641D01*
X018692Y001483D02*
X018138Y001483D01*
X018384Y002593D02*
X018446Y002593D01*
X018519Y003227D02*
X018311Y003227D01*
X017678Y003385D02*
X017350Y003385D01*
X017509Y003227D02*
X017519Y003227D01*
X016464Y001483D02*
X016441Y001483D01*
X016265Y001324D02*
X016704Y001324D01*
X015565Y001324D02*
X015265Y001324D01*
X014565Y001324D02*
X012087Y001324D01*
X012081Y001362D02*
X012055Y001444D01*
X012015Y001521D01*
X011964Y001591D01*
X011903Y001652D01*
X011833Y001703D01*
X011756Y001743D01*
X011674Y001769D01*
X011588Y001783D01*
X011565Y001783D01*
X011565Y001253D01*
X012095Y001253D01*
X012095Y001276D01*
X012081Y001362D01*
X012035Y001483D02*
X012417Y001483D01*
X012238Y001641D02*
X011914Y001641D01*
X012079Y001800D02*
X008365Y001800D01*
X008365Y001958D02*
X011921Y001958D01*
X011762Y002117D02*
X008355Y002117D01*
X008289Y002275D02*
X011604Y002275D01*
X011148Y002434D02*
X009382Y002434D01*
X009196Y001743D02*
X009114Y001769D01*
X009028Y001783D01*
X009005Y001783D01*
X009005Y001253D01*
X009535Y001253D01*
X009535Y001276D01*
X009521Y001362D01*
X009495Y001444D01*
X009455Y001521D01*
X009404Y001591D01*
X009343Y001652D01*
X009273Y001703D01*
X009196Y001743D01*
X009354Y001641D02*
X011176Y001641D01*
X011055Y001483D02*
X009475Y001483D01*
X009527Y001324D02*
X011003Y001324D01*
X010999Y001166D02*
X009531Y001166D01*
X009487Y001007D02*
X011043Y001007D01*
X011151Y000849D02*
X009378Y000849D01*
X009005Y001324D02*
X008965Y001324D01*
X008965Y001483D02*
X009005Y001483D01*
X009005Y001641D02*
X008965Y001641D01*
X008616Y001641D02*
X008334Y001641D01*
X008268Y001483D02*
X008495Y001483D01*
X008443Y001324D02*
X008178Y001324D01*
X008020Y001166D02*
X008439Y001166D01*
X008483Y001007D02*
X007731Y001007D01*
X007099Y001007D02*
X005975Y001007D01*
X006079Y001166D02*
X006810Y001166D01*
X006652Y001324D02*
X006149Y001324D01*
X006192Y001483D02*
X006561Y001483D01*
X006496Y001641D02*
X005168Y001641D01*
X006209Y001800D02*
X006465Y001800D01*
X006465Y001958D02*
X006183Y001958D01*
X006134Y002117D02*
X006475Y002117D01*
X006540Y002275D02*
X006055Y002275D01*
X007360Y002910D02*
X008295Y002910D01*
X008295Y003068D02*
X007450Y003068D01*
X007492Y003227D02*
X008327Y003227D01*
X008392Y003385D02*
X007534Y003385D01*
X007534Y003544D02*
X008540Y003544D01*
X008846Y003702D02*
X007534Y003702D01*
X007496Y003861D02*
X012805Y003861D01*
X012640Y004019D02*
X007453Y004019D01*
X007367Y004178D02*
X012481Y004178D01*
X012323Y004336D02*
X007272Y004336D01*
X007113Y004495D02*
X012164Y004495D01*
X011904Y004654D02*
X006888Y004654D01*
X006474Y005446D02*
X006298Y005446D01*
X005474Y005446D02*
X003910Y005446D01*
X004069Y005605D02*
X005352Y005605D01*
X005286Y005763D02*
X004164Y005763D01*
X004230Y005922D02*
X005286Y005922D01*
X005286Y006080D02*
X004234Y006080D01*
X004231Y006239D02*
X005286Y006239D01*
X005286Y006398D02*
X004165Y006398D01*
X004070Y006556D02*
X005286Y006556D01*
X004252Y006715D02*
X003911Y006715D01*
X004059Y006873D02*
X002315Y006873D01*
X002315Y007032D02*
X003977Y007032D01*
X003945Y007190D02*
X002315Y007190D01*
X002315Y005129D02*
X003048Y005129D01*
X002936Y004971D02*
X002315Y004971D01*
X002315Y004812D02*
X002884Y004812D01*
X002874Y004654D02*
X002315Y004654D01*
X002315Y004495D02*
X002910Y004495D01*
X002997Y004336D02*
X002315Y004336D01*
X002315Y004178D02*
X003013Y004178D01*
X002924Y004019D02*
X002315Y004019D01*
X002315Y003861D02*
X002864Y003861D01*
X002832Y003702D02*
X002315Y003702D01*
X002315Y003544D02*
X003866Y003544D01*
X003866Y003385D02*
X004026Y003385D01*
X004026Y003227D02*
X003866Y003227D01*
X003866Y003068D02*
X004026Y003068D01*
X004026Y002910D02*
X003866Y002910D01*
X003866Y002751D02*
X004026Y002751D01*
X004026Y002593D02*
X003866Y002593D01*
X003866Y002434D02*
X004026Y002434D01*
X004088Y002434D02*
X004235Y002434D01*
X004121Y002275D02*
X002315Y002275D01*
X002315Y002117D02*
X004042Y002117D01*
X003993Y001958D02*
X002315Y001958D01*
X002315Y001800D02*
X003967Y001800D01*
X004097Y001166D02*
X002475Y001166D01*
X002634Y001007D02*
X004202Y001007D01*
X004351Y000849D02*
X002792Y000849D01*
X002315Y002434D02*
X003805Y002434D01*
X003356Y002593D02*
X002315Y002593D01*
X002315Y002751D02*
X003155Y002751D01*
X003020Y002910D02*
X002315Y002910D01*
X002315Y003068D02*
X002930Y003068D01*
X002868Y003227D02*
X002315Y003227D01*
X002315Y003385D02*
X002833Y003385D01*
X003466Y004812D02*
X003503Y004812D01*
X003503Y004971D02*
X003466Y004971D01*
X003466Y005129D02*
X003503Y005129D01*
X007853Y002751D02*
X008347Y002751D01*
X008430Y002593D02*
X008070Y002593D01*
X008224Y002434D02*
X008588Y002434D01*
X009430Y003544D02*
X011100Y003544D01*
X011406Y003702D02*
X009124Y003702D01*
X011684Y003702D02*
X013667Y003702D01*
X013667Y003544D02*
X011990Y003544D01*
X012138Y003385D02*
X013667Y003385D01*
X013752Y003227D02*
X012203Y003227D01*
X012235Y003068D02*
X014245Y003068D01*
X014245Y002910D02*
X012327Y002910D01*
X012486Y002751D02*
X014245Y002751D01*
X014245Y002593D02*
X012644Y002593D01*
X012803Y002434D02*
X014245Y002434D01*
X012091Y001166D02*
X019556Y001166D01*
X020628Y001483D02*
X021464Y001483D01*
X021356Y001641D02*
X020693Y001641D01*
X020735Y001800D02*
X021298Y001800D01*
X021298Y001958D02*
X020735Y001958D01*
X020735Y002117D02*
X021335Y002117D01*
X021414Y002275D02*
X020735Y002275D01*
X020735Y002434D02*
X021456Y002434D01*
X021298Y002593D02*
X020735Y002593D01*
X020735Y002751D02*
X021245Y002751D01*
X021245Y002910D02*
X020735Y002910D01*
X020735Y003068D02*
X021245Y003068D01*
X021271Y003227D02*
X020735Y003227D01*
X020735Y003385D02*
X021430Y003385D01*
X021588Y003544D02*
X020732Y003544D01*
X022242Y003544D02*
X022588Y003544D01*
X022430Y003385D02*
X022400Y003385D01*
X023242Y003544D02*
X023588Y003544D01*
X023430Y003385D02*
X023400Y003385D01*
X024242Y003544D02*
X024588Y003544D01*
X024430Y003385D02*
X024400Y003385D01*
X025242Y003544D02*
X025588Y003544D01*
X025430Y003385D02*
X025400Y003385D01*
X026242Y003544D02*
X026588Y003544D01*
X026430Y003385D02*
X026400Y003385D01*
X027242Y003544D02*
X027588Y003544D01*
X027430Y003385D02*
X027400Y003385D01*
X028242Y003544D02*
X028588Y003544D01*
X028430Y003385D02*
X028400Y003385D01*
X027794Y005446D02*
X030983Y005446D01*
X029723Y013849D02*
X027765Y013849D01*
X027465Y014323D02*
X029815Y014323D01*
X029643Y020349D02*
X029187Y020349D01*
X029391Y020508D02*
X029439Y020508D01*
X030187Y020349D02*
X030643Y020349D01*
X030439Y020508D02*
X030391Y020508D01*
X031187Y020349D02*
X031643Y020349D01*
X031439Y020508D02*
X031391Y020508D01*
X032187Y020349D02*
X032643Y020349D01*
X032439Y020508D02*
X032391Y020508D01*
X033187Y020349D02*
X033643Y020349D01*
X033439Y020508D02*
X033391Y020508D01*
X031915Y021923D02*
X031915Y022723D01*
X031265Y023323D01*
X020165Y023323D01*
X019985Y023837D02*
X020617Y023837D01*
X020617Y023996D02*
X019944Y023996D01*
X019860Y024154D02*
X020617Y024154D01*
X020637Y024313D02*
X019681Y024313D01*
X019739Y024471D02*
X020755Y024471D01*
X021115Y024023D02*
X027115Y024023D01*
X027665Y024573D01*
X031215Y024573D01*
X031665Y024123D02*
X027665Y024123D01*
X027215Y023673D01*
X021815Y023673D01*
X021475Y024471D02*
X025301Y024471D01*
X025220Y024630D02*
X024419Y024630D01*
X023910Y024630D02*
X019823Y024630D01*
X019813Y024947D02*
X023667Y024947D01*
X023667Y025106D02*
X019711Y025106D01*
X019733Y025264D02*
X023667Y025264D01*
X023691Y025423D02*
X019891Y025423D01*
X019957Y025581D02*
X021958Y025581D01*
X021917Y025740D02*
X019985Y025740D01*
X019984Y025898D02*
X021917Y025898D01*
X021917Y026057D02*
X019918Y026057D01*
X019799Y026215D02*
X021938Y026215D01*
X021975Y026374D02*
X019534Y026374D01*
X019196Y026374D02*
X018534Y026374D01*
X018799Y026215D02*
X018931Y026215D01*
X018196Y026374D02*
X017534Y026374D01*
X017799Y026215D02*
X017931Y026215D01*
X017196Y026374D02*
X016534Y026374D01*
X016799Y026215D02*
X016931Y026215D01*
X016196Y026374D02*
X015513Y026374D01*
X015513Y026533D02*
X021975Y026533D01*
X021975Y026691D02*
X015513Y026691D01*
X015447Y026850D02*
X021975Y026850D01*
X021975Y027008D02*
X021359Y027008D01*
X021413Y027167D02*
X021975Y027167D01*
X021975Y027325D02*
X021413Y027325D01*
X021413Y027484D02*
X021975Y027484D01*
X021975Y027642D02*
X021402Y027642D01*
X021296Y027801D02*
X021975Y027801D01*
X021975Y027959D02*
X018633Y027959D01*
X018632Y027959D02*
X018694Y028004D01*
X018747Y028057D01*
X018791Y028118D01*
X021975Y028118D01*
X021975Y028277D02*
X018852Y028277D01*
X018849Y028257D02*
X018861Y028332D01*
X018861Y028350D01*
X018401Y028350D01*
X018401Y028390D01*
X018861Y028390D01*
X018861Y028408D01*
X018849Y028482D01*
X018826Y028554D01*
X018791Y028621D01*
X018747Y028682D01*
X018694Y028736D01*
X018632Y028780D01*
X018608Y028793D01*
X018732Y028844D01*
X018906Y029019D01*
X019001Y029246D01*
X019001Y029493D01*
X018906Y029721D01*
X018758Y029870D01*
X018906Y030019D01*
X019001Y030246D01*
X019001Y030493D01*
X018906Y030721D01*
X018732Y030895D01*
X018504Y030990D01*
X018257Y030990D01*
X018030Y030895D01*
X017881Y030746D01*
X017732Y030895D01*
X017504Y030990D01*
X017257Y030990D01*
X017030Y030895D01*
X016855Y030721D01*
X016761Y030493D01*
X016761Y030246D01*
X016855Y030019D01*
X017004Y029870D01*
X016855Y029721D01*
X016761Y029493D01*
X016761Y029246D01*
X016855Y029019D01*
X017030Y028844D01*
X017154Y028793D01*
X017129Y028780D01*
X017068Y028736D01*
X017015Y028682D01*
X016970Y028621D01*
X016936Y028554D01*
X016913Y028482D01*
X016901Y028407D01*
X016901Y028390D01*
X017361Y028390D01*
X017361Y028350D01*
X017361Y028349D02*
X017401Y028349D01*
X017401Y027890D01*
X017419Y027890D01*
X017493Y027902D01*
X017565Y027925D01*
X017632Y027959D01*
X017693Y028004D01*
X017747Y028057D01*
X017791Y028118D01*
X017970Y028118D01*
X018015Y028057D01*
X018068Y028004D01*
X018129Y027959D01*
X018197Y027925D01*
X018268Y027902D01*
X018343Y027890D01*
X018361Y027890D01*
X018361Y028349D01*
X018401Y028349D01*
X018401Y027890D01*
X018419Y027890D01*
X018493Y027902D01*
X018565Y027925D01*
X018632Y027959D01*
X018791Y028118D02*
X018826Y028185D01*
X018849Y028257D01*
X018856Y028435D02*
X021975Y028435D01*
X021975Y028594D02*
X018805Y028594D01*
X018671Y028752D02*
X021975Y028752D01*
X021500Y028911D02*
X021329Y028911D01*
X020500Y028911D02*
X018799Y028911D01*
X018927Y029069D02*
X020342Y029069D01*
X020295Y029228D02*
X018993Y029228D01*
X019001Y029386D02*
X020295Y029386D01*
X020295Y029545D02*
X018979Y029545D01*
X018914Y029703D02*
X020369Y029703D01*
X020527Y029862D02*
X018765Y029862D01*
X018907Y030021D02*
X020391Y030021D01*
X020295Y030179D02*
X018973Y030179D01*
X019001Y030338D02*
X020295Y030338D01*
X020295Y030496D02*
X019000Y030496D01*
X018934Y030655D02*
X020320Y030655D01*
X020479Y030813D02*
X018814Y030813D01*
X018548Y030972D02*
X020637Y030972D01*
X021193Y030972D02*
X021637Y030972D01*
X021479Y030813D02*
X021351Y030813D01*
X022193Y030972D02*
X022637Y030972D01*
X022479Y030813D02*
X022351Y030813D01*
X023193Y030972D02*
X023637Y030972D01*
X023479Y030813D02*
X023351Y030813D01*
X024193Y030972D02*
X024637Y030972D01*
X024479Y030813D02*
X024351Y030813D01*
X025193Y030972D02*
X025637Y030972D01*
X025479Y030813D02*
X025351Y030813D01*
X026193Y030972D02*
X026637Y030972D01*
X026479Y030813D02*
X026351Y030813D01*
X027193Y030972D02*
X027637Y030972D01*
X027479Y030813D02*
X027351Y030813D01*
X028193Y030972D02*
X028637Y030972D01*
X028479Y030813D02*
X028351Y030813D01*
X028915Y030373D02*
X028965Y030373D01*
X029465Y029873D01*
X030165Y029873D01*
X030415Y029623D01*
X030415Y029023D01*
X030965Y028473D01*
X031965Y028473D01*
X032615Y027823D01*
X032515Y028373D02*
X033615Y028373D01*
X034115Y028723D02*
X032615Y028723D01*
X032415Y028923D01*
X032415Y029573D01*
X032115Y029873D01*
X031665Y029873D01*
X031165Y030373D01*
X030915Y030373D01*
X031351Y030813D02*
X031479Y030813D01*
X031637Y030972D02*
X031193Y030972D01*
X030637Y030972D02*
X030193Y030972D01*
X030351Y030813D02*
X030479Y030813D01*
X030215Y030373D02*
X030715Y029873D01*
X031165Y029873D01*
X031415Y029623D01*
X031415Y028873D01*
X031515Y028773D01*
X032115Y028773D01*
X032515Y028373D01*
X032665Y029873D02*
X034115Y029873D01*
X034415Y029573D01*
X034415Y029173D01*
X034765Y028823D01*
X034765Y028373D01*
X032665Y029873D02*
X032165Y030373D01*
X031915Y030373D01*
X032351Y030813D02*
X032479Y030813D01*
X032637Y030972D02*
X032193Y030972D01*
X033193Y030972D02*
X033637Y030972D01*
X033479Y030813D02*
X033351Y030813D01*
X034193Y030972D02*
X034637Y030972D01*
X034479Y030813D02*
X034351Y030813D01*
X035193Y030972D02*
X035637Y030972D01*
X035479Y030813D02*
X035351Y030813D01*
X036193Y030972D02*
X036637Y030972D01*
X036479Y030813D02*
X036351Y030813D01*
X037193Y030972D02*
X037637Y030972D01*
X037479Y030813D02*
X037351Y030813D01*
X038193Y030972D02*
X038395Y030972D01*
X038395Y030813D02*
X038351Y030813D01*
X038459Y031130D02*
X016144Y031130D01*
X016136Y031153D02*
X016106Y031211D01*
X016068Y031264D01*
X016021Y031311D01*
X015968Y031349D01*
X015910Y031379D01*
X015847Y031400D01*
X015782Y031410D01*
X015749Y031410D01*
X015716Y031410D01*
X015651Y031400D01*
X015589Y031379D01*
X015530Y031349D01*
X015477Y031311D01*
X015431Y031264D01*
X015392Y031211D01*
X015362Y031153D01*
X015342Y031090D01*
X015331Y031025D01*
X015331Y030992D01*
X015331Y030959D01*
X015342Y030894D01*
X015362Y030832D01*
X015392Y030773D01*
X015431Y030720D01*
X015477Y030674D01*
X015530Y030635D01*
X015589Y030605D01*
X015651Y030585D01*
X015716Y030574D01*
X015749Y030574D01*
X015749Y030992D01*
X015749Y030992D01*
X015331Y030992D01*
X015749Y030992D01*
X015749Y030992D01*
X015749Y030574D01*
X015782Y030574D01*
X015847Y030585D01*
X015910Y030605D01*
X015968Y030635D01*
X016021Y030674D01*
X016068Y030720D01*
X016106Y030773D01*
X016136Y030832D01*
X016157Y030894D01*
X016167Y030959D01*
X016167Y030992D01*
X015750Y030992D01*
X015750Y030992D01*
X016167Y030992D01*
X016167Y031025D01*
X016157Y031090D01*
X016136Y031153D01*
X016043Y031289D02*
X038596Y031289D01*
X038754Y031447D02*
X015099Y031447D01*
X015246Y031289D02*
X015455Y031289D01*
X015355Y031130D02*
X015311Y031130D01*
X015323Y030972D02*
X015331Y030972D01*
X015295Y030813D02*
X015371Y030813D01*
X015503Y030655D02*
X015216Y030655D01*
X015025Y030496D02*
X016762Y030496D01*
X016761Y030338D02*
X014676Y030338D01*
X015049Y030179D02*
X016789Y030179D01*
X016854Y030021D02*
X016009Y030021D01*
X016021Y030012D02*
X015968Y030050D01*
X015910Y030080D01*
X015847Y030100D01*
X015782Y030111D01*
X015749Y030111D01*
X015716Y030111D01*
X015651Y030100D01*
X015589Y030080D01*
X015530Y030050D01*
X015477Y030012D01*
X015431Y029965D01*
X015392Y029912D01*
X015362Y029853D01*
X015342Y029791D01*
X015331Y029726D01*
X015331Y029693D01*
X015749Y029693D01*
X015749Y029693D01*
X015331Y029693D01*
X015331Y029660D01*
X015342Y029595D01*
X015362Y029533D01*
X015392Y029474D01*
X015431Y029421D01*
X015477Y029374D01*
X015530Y029336D01*
X015589Y029306D01*
X015651Y029285D01*
X015716Y029275D01*
X015749Y029275D01*
X015749Y029693D01*
X015749Y030111D01*
X015749Y029693D01*
X015749Y029693D01*
X015749Y029693D01*
X015749Y029275D01*
X015782Y029275D01*
X015847Y029285D01*
X015910Y029306D01*
X015968Y029336D01*
X016021Y029374D01*
X016068Y029421D01*
X016106Y029474D01*
X016136Y029533D01*
X016157Y029595D01*
X016167Y029660D01*
X016167Y029693D01*
X016167Y029726D01*
X016157Y029791D01*
X016136Y029853D01*
X016106Y029912D01*
X016068Y029965D01*
X016021Y030012D01*
X016132Y029862D02*
X016996Y029862D01*
X016848Y029703D02*
X016167Y029703D01*
X016167Y029693D02*
X015750Y029693D01*
X015750Y029693D01*
X016167Y029693D01*
X016140Y029545D02*
X016782Y029545D01*
X016761Y029386D02*
X016033Y029386D01*
X015749Y029386D02*
X015749Y029386D01*
X015749Y029545D02*
X015749Y029545D01*
X015749Y029703D02*
X015749Y029703D01*
X015749Y029862D02*
X015749Y029862D01*
X015749Y030021D02*
X015749Y030021D01*
X015489Y030021D02*
X015226Y030021D01*
X015299Y029862D02*
X015366Y029862D01*
X015331Y029703D02*
X015323Y029703D01*
X015307Y029545D02*
X015358Y029545D01*
X015465Y029386D02*
X015242Y029386D01*
X015089Y029228D02*
X016768Y029228D01*
X016834Y029069D02*
X012856Y029069D01*
X013035Y029228D02*
X013457Y029228D01*
X013304Y029386D02*
X013194Y029386D01*
X012665Y029423D02*
X006015Y029423D01*
X004215Y027623D01*
X004215Y025073D01*
X004915Y024373D01*
X003935Y023393D01*
X003935Y022420D01*
X004065Y021773D02*
X004712Y022420D01*
X004722Y022420D01*
X005114Y021935D02*
X005118Y021935D01*
X005417Y021301D02*
X002315Y021301D01*
X002315Y021459D02*
X002713Y021459D01*
X002554Y021618D02*
X002315Y021618D01*
X002315Y021776D02*
X002396Y021776D01*
X002315Y021142D02*
X005417Y021142D01*
X005457Y020984D02*
X002315Y020984D01*
X002315Y020825D02*
X005673Y020825D01*
X006415Y021823D02*
X008515Y021823D01*
X008665Y021673D01*
X010265Y021673D01*
X011465Y022873D01*
X011465Y025723D01*
X011615Y025873D01*
X012113Y025898D02*
X013752Y025898D01*
X013766Y025932D02*
X013717Y025815D01*
X013717Y025331D01*
X013766Y025214D01*
X013815Y025164D01*
X013815Y023882D01*
X013766Y023832D01*
X013717Y023715D01*
X013717Y023231D01*
X013766Y023114D01*
X013856Y023024D01*
X013973Y022975D01*
X014457Y022975D01*
X014574Y023024D01*
X014664Y023114D01*
X014713Y023231D01*
X014713Y023375D01*
X014907Y023375D01*
X015024Y023424D01*
X015114Y023514D01*
X015142Y023580D01*
X015288Y023434D01*
X015422Y023378D01*
X015419Y023371D01*
X015419Y023362D01*
X014713Y023362D01*
X014701Y023203D02*
X015415Y023203D01*
X015415Y022593D01*
X015037Y022593D01*
X014815Y022370D01*
X014592Y022593D01*
X014037Y022593D01*
X013815Y022370D01*
X013592Y022593D01*
X013037Y022593D01*
X012716Y022271D01*
X012534Y022453D01*
X012335Y022453D01*
X012335Y021943D01*
X012295Y021943D01*
X012295Y022453D01*
X012095Y022453D01*
X011914Y022271D01*
X011671Y022514D01*
X011691Y022534D01*
X011692Y022534D01*
X011804Y022646D01*
X011865Y022793D01*
X011865Y025378D01*
X011974Y025424D01*
X012064Y025514D01*
X012113Y025631D01*
X012113Y026073D01*
X014606Y026073D01*
X014615Y026064D01*
X014615Y025982D01*
X014574Y026022D01*
X014457Y026071D01*
X013973Y026071D01*
X013856Y026022D01*
X013766Y025932D01*
X013717Y025740D02*
X012113Y025740D01*
X012092Y025581D02*
X013717Y025581D01*
X013717Y025423D02*
X011973Y025423D01*
X011865Y025264D02*
X013745Y025264D01*
X013815Y025106D02*
X011865Y025106D01*
X011865Y024947D02*
X013815Y024947D01*
X013815Y024789D02*
X011865Y024789D01*
X011865Y024630D02*
X013815Y024630D01*
X013815Y024471D02*
X011865Y024471D01*
X011865Y024313D02*
X013815Y024313D01*
X013815Y024154D02*
X011865Y024154D01*
X011865Y023996D02*
X013815Y023996D01*
X013771Y023837D02*
X011865Y023837D01*
X011865Y023679D02*
X013717Y023679D01*
X013717Y023520D02*
X011865Y023520D01*
X011865Y023362D02*
X013717Y023362D01*
X013728Y023203D02*
X011865Y023203D01*
X011865Y023045D02*
X013834Y023045D01*
X014014Y022569D02*
X013616Y022569D01*
X013775Y022410D02*
X013855Y022410D01*
X014616Y022569D02*
X015014Y022569D01*
X014855Y022410D02*
X014775Y022410D01*
X015415Y022728D02*
X011838Y022728D01*
X011865Y022886D02*
X015415Y022886D01*
X015415Y023045D02*
X014595Y023045D01*
X014215Y023473D02*
X014215Y025573D01*
X014665Y025173D02*
X014665Y023873D01*
X015117Y023520D02*
X015202Y023520D01*
X015419Y023362D02*
X015415Y023352D01*
X015415Y023282D01*
X015412Y023212D01*
X015415Y023203D01*
X016315Y023073D02*
X016315Y021923D01*
X017865Y023023D02*
X018115Y022723D01*
X029115Y022723D01*
X029915Y021923D01*
X030915Y021923D02*
X029865Y022973D01*
X018965Y022973D01*
X018865Y023073D01*
X018365Y023773D02*
X019365Y023773D01*
X019138Y024350D02*
X019014Y024299D01*
X018888Y024173D01*
X018842Y024173D01*
X018716Y024299D01*
X018592Y024350D01*
X018616Y024362D01*
X018678Y024407D01*
X018731Y024460D01*
X018775Y024521D01*
X018810Y024589D01*
X018833Y024660D01*
X018845Y024735D01*
X018845Y024753D01*
X018385Y024753D01*
X018385Y024793D01*
X018845Y024793D01*
X018845Y024811D01*
X018833Y024885D01*
X018810Y024957D01*
X018775Y025024D01*
X018731Y025086D01*
X018678Y025139D01*
X018616Y025183D01*
X018592Y025196D01*
X018716Y025247D01*
X018865Y025396D01*
X019014Y025247D01*
X019138Y025196D01*
X019113Y025183D01*
X019052Y025139D01*
X018999Y025086D01*
X018954Y025024D01*
X018920Y024957D01*
X018897Y024885D01*
X018885Y024811D01*
X018885Y024793D01*
X019345Y024793D01*
X019345Y024753D01*
X018885Y024753D01*
X018885Y024735D01*
X018897Y024660D01*
X018920Y024589D01*
X018954Y024521D01*
X018999Y024460D01*
X019052Y024407D01*
X019113Y024362D01*
X019138Y024350D01*
X019049Y024313D02*
X018681Y024313D01*
X018739Y024471D02*
X018991Y024471D01*
X018907Y024630D02*
X018823Y024630D01*
X018813Y024947D02*
X018917Y024947D01*
X019019Y025106D02*
X018711Y025106D01*
X018733Y025264D02*
X018997Y025264D01*
X019345Y024789D02*
X018385Y024789D01*
X018365Y024773D02*
X017365Y024773D01*
X016365Y024773D01*
X016385Y024789D02*
X017345Y024789D01*
X017345Y024793D02*
X017345Y024753D01*
X016885Y024753D01*
X016885Y024735D01*
X016897Y024660D01*
X016920Y024589D01*
X016954Y024521D01*
X016999Y024460D01*
X017052Y024407D01*
X017113Y024362D01*
X017138Y024350D01*
X017014Y024299D01*
X016888Y024173D01*
X016842Y024173D01*
X016716Y024299D01*
X016592Y024350D01*
X016616Y024362D01*
X016678Y024407D01*
X016731Y024460D01*
X016775Y024521D01*
X016810Y024589D01*
X016833Y024660D01*
X016845Y024735D01*
X016845Y024753D01*
X016385Y024753D01*
X016385Y024793D01*
X016845Y024793D01*
X016845Y024811D01*
X016833Y024885D01*
X016810Y024957D01*
X016775Y025024D01*
X016731Y025086D01*
X016678Y025139D01*
X016616Y025183D01*
X016592Y025196D01*
X016716Y025247D01*
X016865Y025396D01*
X017014Y025247D01*
X017138Y025196D01*
X017113Y025183D01*
X017052Y025139D01*
X016999Y025086D01*
X016954Y025024D01*
X016920Y024957D01*
X016897Y024885D01*
X016885Y024811D01*
X016885Y024793D01*
X017345Y024793D01*
X017385Y024793D02*
X017845Y024793D01*
X017845Y024811D01*
X017833Y024885D01*
X017810Y024957D01*
X017775Y025024D01*
X017731Y025086D01*
X017678Y025139D01*
X017616Y025183D01*
X017592Y025196D01*
X017716Y025247D01*
X017865Y025396D01*
X018014Y025247D01*
X018138Y025196D01*
X018113Y025183D01*
X018052Y025139D01*
X017999Y025086D01*
X017954Y025024D01*
X017920Y024957D01*
X017897Y024885D01*
X017885Y024811D01*
X017885Y024793D01*
X018345Y024793D01*
X018345Y024753D01*
X017885Y024753D01*
X017885Y024735D01*
X017897Y024660D01*
X017920Y024589D01*
X017954Y024521D01*
X017999Y024460D01*
X018052Y024407D01*
X018113Y024362D01*
X018138Y024350D01*
X018014Y024299D01*
X017888Y024173D01*
X017842Y024173D01*
X017716Y024299D01*
X017592Y024350D01*
X017616Y024362D01*
X017678Y024407D01*
X017731Y024460D01*
X017775Y024521D01*
X017810Y024589D01*
X017833Y024660D01*
X017845Y024735D01*
X017845Y024753D01*
X017385Y024753D01*
X017385Y024793D01*
X017385Y024789D02*
X018345Y024789D01*
X018365Y024773D02*
X019365Y024773D01*
X022515Y024773D01*
X023915Y026373D01*
X024665Y026373D01*
X024503Y025581D02*
X026215Y025581D01*
X026215Y025740D02*
X022913Y025740D01*
X022913Y025898D02*
X026215Y025898D01*
X026215Y026057D02*
X022913Y026057D01*
X022892Y026215D02*
X026215Y026215D01*
X026215Y026374D02*
X022855Y026374D01*
X022855Y026533D02*
X026215Y026533D01*
X026215Y026691D02*
X022855Y026691D01*
X022855Y026850D02*
X026215Y026850D01*
X026215Y027008D02*
X022855Y027008D01*
X022855Y027167D02*
X026215Y027167D01*
X025908Y027325D02*
X022855Y027325D01*
X022855Y027484D02*
X025750Y027484D01*
X025667Y027642D02*
X022855Y027642D01*
X022855Y027801D02*
X025571Y027801D01*
X025715Y028223D02*
X025165Y028223D01*
X024015Y029373D01*
X023915Y029373D01*
X023500Y028911D02*
X023330Y028911D01*
X022855Y028752D02*
X024070Y028752D01*
X024229Y028594D02*
X022855Y028594D01*
X022855Y028435D02*
X024387Y028435D01*
X024546Y028277D02*
X022855Y028277D01*
X022855Y028118D02*
X024704Y028118D01*
X024863Y027959D02*
X022855Y027959D01*
X022872Y025581D02*
X023827Y025581D01*
X023705Y024789D02*
X019385Y024789D01*
X018365Y023773D02*
X017365Y023773D01*
X016365Y023773D01*
X016681Y024313D02*
X017049Y024313D01*
X016991Y024471D02*
X016739Y024471D01*
X016823Y024630D02*
X016907Y024630D01*
X016917Y024947D02*
X016813Y024947D01*
X016711Y025106D02*
X017019Y025106D01*
X016997Y025264D02*
X016733Y025264D01*
X016345Y024789D02*
X015415Y024789D01*
X015415Y024947D02*
X015917Y024947D01*
X016019Y025106D02*
X015415Y025106D01*
X015415Y025264D02*
X015997Y025264D01*
X015839Y025423D02*
X015415Y025423D01*
X015415Y025581D02*
X015773Y025581D01*
X015745Y025740D02*
X015415Y025740D01*
X015415Y025898D02*
X015746Y025898D01*
X015812Y026057D02*
X015415Y026057D01*
X015507Y026215D02*
X015931Y026215D01*
X014615Y026057D02*
X014491Y026057D01*
X013939Y026057D02*
X012113Y026057D01*
X011117Y026057D02*
X007490Y026057D01*
X007474Y026072D02*
X007473Y026073D01*
X011117Y026073D01*
X011117Y025928D01*
X011065Y025802D01*
X011065Y025643D01*
X011065Y023039D01*
X010662Y022636D01*
X010644Y022672D01*
X010600Y022733D01*
X010547Y022786D01*
X010485Y022831D01*
X010418Y022865D01*
X010346Y022888D01*
X010272Y022900D01*
X010234Y022900D01*
X010234Y022421D01*
X010234Y022421D01*
X010234Y022900D01*
X010196Y022900D01*
X010121Y022888D01*
X010050Y022865D01*
X009982Y022831D01*
X009942Y022801D01*
X009798Y022946D01*
X009570Y023040D01*
X009323Y023040D01*
X009095Y022946D01*
X009053Y022903D01*
X009010Y022946D01*
X008782Y023040D01*
X008536Y023040D01*
X008308Y022946D01*
X008265Y022903D01*
X008223Y022946D01*
X007995Y023040D01*
X007748Y023040D01*
X007520Y022946D01*
X007515Y022940D01*
X007515Y025214D01*
X007564Y025264D01*
X007565Y025264D02*
X011065Y025264D01*
X011065Y025106D02*
X007515Y025106D01*
X007515Y024947D02*
X011065Y024947D01*
X011065Y024789D02*
X007515Y024789D01*
X007515Y024630D02*
X011065Y024630D01*
X011065Y024471D02*
X007515Y024471D01*
X007515Y024313D02*
X011065Y024313D01*
X011065Y024154D02*
X007515Y024154D01*
X007515Y023996D02*
X011065Y023996D01*
X011065Y023837D02*
X007515Y023837D01*
X007515Y023679D02*
X011065Y023679D01*
X011065Y023520D02*
X007515Y023520D01*
X007515Y023362D02*
X011065Y023362D01*
X011065Y023203D02*
X007515Y023203D01*
X007515Y023045D02*
X011065Y023045D01*
X010912Y022886D02*
X010353Y022886D01*
X010234Y022886D02*
X010234Y022886D01*
X010115Y022886D02*
X009857Y022886D01*
X010234Y022728D02*
X010234Y022728D01*
X010234Y022569D02*
X010234Y022569D01*
X010604Y022728D02*
X010754Y022728D01*
X011727Y022569D02*
X013014Y022569D01*
X012855Y022410D02*
X012577Y022410D01*
X012335Y022410D02*
X012295Y022410D01*
X012295Y022252D02*
X012335Y022252D01*
X012335Y022093D02*
X012295Y022093D01*
X012295Y021903D02*
X012335Y021903D01*
X012335Y021393D01*
X012534Y021393D01*
X012716Y021574D01*
X012914Y021376D01*
X012792Y021254D01*
X012738Y021124D01*
X012723Y021154D01*
X012679Y021215D01*
X012626Y021268D01*
X012565Y021312D01*
X012498Y021346D01*
X012427Y021369D01*
X012352Y021381D01*
X012333Y021381D01*
X012333Y020923D01*
X012296Y020923D01*
X012296Y021381D01*
X012277Y021381D01*
X012203Y021369D01*
X012132Y021346D01*
X012065Y021312D01*
X012004Y021268D01*
X011951Y021215D01*
X011907Y021154D01*
X011892Y021124D01*
X011838Y021254D01*
X011716Y021376D01*
X011914Y021574D01*
X012095Y021393D01*
X012295Y021393D01*
X012295Y021903D01*
X012295Y021776D02*
X012335Y021776D01*
X012335Y021618D02*
X012295Y021618D01*
X012295Y021459D02*
X012335Y021459D01*
X012333Y021301D02*
X012296Y021301D01*
X012296Y021142D02*
X012333Y021142D01*
X012333Y020984D02*
X012296Y020984D01*
X012296Y020825D02*
X012333Y020825D01*
X012333Y020666D02*
X012296Y020666D01*
X012296Y020508D02*
X012333Y020508D01*
X012580Y020508D02*
X012839Y020508D01*
X012746Y020666D02*
X012729Y020666D01*
X013043Y020349D02*
X011587Y020349D01*
X011791Y020508D02*
X012049Y020508D01*
X011901Y020666D02*
X011884Y020666D01*
X011884Y021142D02*
X011901Y021142D01*
X011791Y021301D02*
X012049Y021301D01*
X012029Y021459D02*
X011799Y021459D01*
X012581Y021301D02*
X012839Y021301D01*
X012831Y021459D02*
X012601Y021459D01*
X012729Y021142D02*
X012746Y021142D01*
X013587Y020349D02*
X014043Y020349D01*
X013839Y020508D02*
X013791Y020508D01*
X013824Y020032D02*
X014061Y020032D01*
X014587Y020349D02*
X015043Y020349D01*
X014839Y020508D02*
X014791Y020508D01*
X015413Y020191D02*
X008545Y020191D01*
X008703Y020349D02*
X011043Y020349D01*
X010839Y020508D02*
X008779Y020508D01*
X008845Y020666D02*
X010746Y020666D01*
X010698Y020825D02*
X008865Y020825D01*
X008865Y020984D02*
X010698Y020984D01*
X010746Y021142D02*
X008845Y021142D01*
X008292Y020032D02*
X010061Y020032D01*
X010824Y020032D02*
X012061Y020032D01*
X011922Y019874D02*
X011785Y019874D01*
X011451Y019874D02*
X011434Y019874D01*
X011434Y019715D02*
X011451Y019715D01*
X011100Y019874D02*
X010963Y019874D01*
X010839Y021301D02*
X010411Y021301D01*
X010617Y021459D02*
X010831Y021459D01*
X011775Y022410D02*
X012053Y022410D01*
X012824Y020032D02*
X013061Y020032D01*
X014824Y020032D02*
X015061Y020032D01*
X015541Y024313D02*
X016049Y024313D01*
X015991Y024471D02*
X015415Y024471D01*
X015415Y024630D02*
X015907Y024630D01*
X017681Y024313D02*
X018049Y024313D01*
X017991Y024471D02*
X017739Y024471D01*
X017823Y024630D02*
X017907Y024630D01*
X017917Y024947D02*
X017813Y024947D01*
X017711Y025106D02*
X018019Y025106D01*
X017997Y025264D02*
X017733Y025264D01*
X017361Y027890D02*
X017361Y028349D01*
X017361Y028350D02*
X016901Y028350D01*
X016901Y028332D01*
X016913Y028257D01*
X016936Y028185D01*
X016970Y028118D01*
X017015Y028057D01*
X017068Y028004D01*
X017129Y027959D01*
X017196Y027925D01*
X017268Y027902D01*
X017343Y027890D01*
X017361Y027890D01*
X017361Y027959D02*
X017401Y027959D01*
X017401Y028118D02*
X017361Y028118D01*
X017361Y028277D02*
X017401Y028277D01*
X017401Y028350D02*
X017401Y028390D01*
X017861Y028390D01*
X017861Y028407D01*
X017849Y028482D01*
X017826Y028554D01*
X017791Y028621D01*
X017747Y028682D01*
X017693Y028736D01*
X017632Y028780D01*
X017608Y028793D01*
X017732Y028844D01*
X017858Y028970D01*
X017904Y028970D01*
X018030Y028844D01*
X018154Y028793D01*
X018129Y028780D01*
X018068Y028736D01*
X018015Y028682D01*
X017970Y028621D01*
X017936Y028554D01*
X017913Y028482D01*
X017901Y028408D01*
X017901Y028390D01*
X018361Y028390D01*
X018361Y028350D01*
X017901Y028350D01*
X017901Y028332D01*
X017913Y028257D01*
X017936Y028185D01*
X017970Y028118D01*
X017826Y028185D02*
X017849Y028257D01*
X017861Y028332D01*
X017861Y028350D01*
X017401Y028350D01*
X017791Y028118D02*
X017826Y028185D01*
X017852Y028277D02*
X017910Y028277D01*
X017905Y028435D02*
X017856Y028435D01*
X017805Y028594D02*
X017956Y028594D01*
X018091Y028752D02*
X017671Y028752D01*
X017799Y028911D02*
X017963Y028911D01*
X018381Y029370D02*
X017381Y029370D01*
X017381Y029370D01*
X016963Y028911D02*
X006068Y028911D01*
X005910Y028752D02*
X017091Y028752D01*
X016956Y028594D02*
X005751Y028594D01*
X005593Y028435D02*
X016905Y028435D01*
X016910Y028277D02*
X013320Y028277D01*
X013412Y028118D02*
X016970Y028118D01*
X017129Y027959D02*
X013451Y027959D01*
X012999Y027167D02*
X006280Y027167D01*
X006363Y027008D02*
X013157Y027008D01*
X012510Y028277D02*
X005434Y028277D01*
X004615Y026057D02*
X006740Y026057D01*
X006631Y025898D02*
X004615Y025898D01*
X004615Y025740D02*
X006617Y025740D01*
X006617Y025581D02*
X004615Y025581D01*
X004615Y025423D02*
X006617Y025423D01*
X006665Y025264D02*
X004615Y025264D01*
X004748Y025106D02*
X006715Y025106D01*
X006715Y024947D02*
X004906Y024947D01*
X005308Y024789D02*
X006715Y024789D01*
X006715Y024630D02*
X005407Y024630D01*
X005413Y024471D02*
X006715Y024471D01*
X006715Y024313D02*
X005413Y024313D01*
X005413Y024154D02*
X006715Y024154D01*
X006715Y023996D02*
X005347Y023996D01*
X004945Y023837D02*
X006715Y023837D01*
X006715Y023679D02*
X004786Y023679D01*
X004628Y023520D02*
X006715Y023520D01*
X006715Y023362D02*
X004469Y023362D01*
X004335Y023203D02*
X006715Y023203D01*
X006715Y023045D02*
X004335Y023045D01*
X007084Y022420D02*
X007115Y022451D01*
X007115Y025623D01*
X007613Y025865D02*
X007564Y025982D01*
X007474Y026072D01*
X007599Y025898D02*
X011105Y025898D01*
X011065Y025740D02*
X007613Y025740D01*
X007613Y025865D02*
X007613Y025381D01*
X007564Y025264D01*
X007613Y025423D02*
X011065Y025423D01*
X011065Y025581D02*
X007613Y025581D01*
X012665Y029423D02*
X013365Y030123D01*
X014215Y030123D01*
X014645Y029693D01*
X014765Y029693D01*
X014441Y029228D02*
X014104Y029228D01*
X014257Y029386D02*
X014288Y029386D01*
X014196Y030423D02*
X013365Y030423D01*
X012565Y031223D01*
X011515Y031223D01*
X010365Y030073D01*
X007465Y030073D01*
X014196Y030423D02*
X014765Y030992D01*
X015749Y030993D02*
X015749Y031410D01*
X015749Y030993D01*
X015749Y030993D01*
X015749Y030972D02*
X015749Y030972D01*
X015749Y031130D02*
X015749Y031130D01*
X015749Y031289D02*
X015749Y031289D01*
X016167Y030972D02*
X017214Y030972D01*
X016947Y030813D02*
X016127Y030813D01*
X015995Y030655D02*
X016828Y030655D01*
X017547Y030972D02*
X018214Y030972D01*
X017948Y030813D02*
X017814Y030813D01*
X018381Y029370D02*
X018381Y029370D01*
X018361Y028277D02*
X018401Y028277D01*
X018401Y028118D02*
X018361Y028118D01*
X018361Y027959D02*
X018401Y027959D01*
X018129Y027959D02*
X017633Y027959D01*
X015749Y030655D02*
X015749Y030655D01*
X015749Y030813D02*
X015749Y030813D01*
X025615Y025123D02*
X025615Y024723D01*
X025965Y024373D01*
X026765Y024373D01*
X026215Y024923D02*
X026615Y025323D01*
X026615Y027973D01*
X025915Y028673D01*
X025915Y029373D01*
X025715Y028223D02*
X026165Y027773D01*
X027915Y029373D02*
X028465Y028823D01*
X029715Y028823D01*
X030165Y028373D01*
X030215Y030373D02*
X029915Y030373D01*
X029479Y030813D02*
X029351Y030813D01*
X029193Y030972D02*
X029637Y030972D01*
X026149Y025423D02*
X025937Y025423D01*
X036665Y026173D02*
X036665Y024623D01*
X038915Y022373D01*
X040465Y023773D02*
X040465Y019723D01*
X040465Y023773D02*
X040515Y023823D01*
X011565Y001641D02*
X011525Y001641D01*
X011525Y001483D02*
X011565Y001483D01*
X011565Y001324D02*
X011525Y001324D01*
X008591Y000849D02*
X005825Y000849D01*
D11*
X006785Y001904D02*
X006787Y001954D01*
X006793Y002004D01*
X006803Y002053D01*
X006817Y002101D01*
X006834Y002148D01*
X006855Y002193D01*
X006880Y002237D01*
X006908Y002278D01*
X006940Y002317D01*
X006974Y002354D01*
X007011Y002388D01*
X007051Y002418D01*
X007093Y002445D01*
X007137Y002469D01*
X007183Y002490D01*
X007230Y002506D01*
X007278Y002519D01*
X007328Y002528D01*
X007377Y002533D01*
X007428Y002534D01*
X007478Y002531D01*
X007527Y002524D01*
X007576Y002513D01*
X007624Y002498D01*
X007670Y002480D01*
X007715Y002458D01*
X007758Y002432D01*
X007799Y002403D01*
X007838Y002371D01*
X007874Y002336D01*
X007906Y002298D01*
X007936Y002258D01*
X007963Y002215D01*
X007986Y002171D01*
X008005Y002125D01*
X008021Y002077D01*
X008033Y002028D01*
X008041Y001979D01*
X008045Y001929D01*
X008045Y001879D01*
X008041Y001829D01*
X008033Y001780D01*
X008021Y001731D01*
X008005Y001683D01*
X007986Y001637D01*
X007963Y001593D01*
X007936Y001550D01*
X007906Y001510D01*
X007874Y001472D01*
X007838Y001437D01*
X007799Y001405D01*
X007758Y001376D01*
X007715Y001350D01*
X007670Y001328D01*
X007624Y001310D01*
X007576Y001295D01*
X007527Y001284D01*
X007478Y001277D01*
X007428Y001274D01*
X007377Y001275D01*
X007328Y001280D01*
X007278Y001289D01*
X007230Y001302D01*
X007183Y001318D01*
X007137Y001339D01*
X007093Y001363D01*
X007051Y001390D01*
X007011Y001420D01*
X006974Y001454D01*
X006940Y001491D01*
X006908Y001530D01*
X006880Y001571D01*
X006855Y001615D01*
X006834Y001660D01*
X006817Y001707D01*
X006803Y001755D01*
X006793Y001804D01*
X006787Y001854D01*
X006785Y001904D01*
X007285Y020904D02*
X007287Y020954D01*
X007293Y021004D01*
X007303Y021053D01*
X007317Y021101D01*
X007334Y021148D01*
X007355Y021193D01*
X007380Y021237D01*
X007408Y021278D01*
X007440Y021317D01*
X007474Y021354D01*
X007511Y021388D01*
X007551Y021418D01*
X007593Y021445D01*
X007637Y021469D01*
X007683Y021490D01*
X007730Y021506D01*
X007778Y021519D01*
X007828Y021528D01*
X007877Y021533D01*
X007928Y021534D01*
X007978Y021531D01*
X008027Y021524D01*
X008076Y021513D01*
X008124Y021498D01*
X008170Y021480D01*
X008215Y021458D01*
X008258Y021432D01*
X008299Y021403D01*
X008338Y021371D01*
X008374Y021336D01*
X008406Y021298D01*
X008436Y021258D01*
X008463Y021215D01*
X008486Y021171D01*
X008505Y021125D01*
X008521Y021077D01*
X008533Y021028D01*
X008541Y020979D01*
X008545Y020929D01*
X008545Y020879D01*
X008541Y020829D01*
X008533Y020780D01*
X008521Y020731D01*
X008505Y020683D01*
X008486Y020637D01*
X008463Y020593D01*
X008436Y020550D01*
X008406Y020510D01*
X008374Y020472D01*
X008338Y020437D01*
X008299Y020405D01*
X008258Y020376D01*
X008215Y020350D01*
X008170Y020328D01*
X008124Y020310D01*
X008076Y020295D01*
X008027Y020284D01*
X007978Y020277D01*
X007928Y020274D01*
X007877Y020275D01*
X007828Y020280D01*
X007778Y020289D01*
X007730Y020302D01*
X007683Y020318D01*
X007637Y020339D01*
X007593Y020363D01*
X007551Y020390D01*
X007511Y020420D01*
X007474Y020454D01*
X007440Y020491D01*
X007408Y020530D01*
X007380Y020571D01*
X007355Y020615D01*
X007334Y020660D01*
X007317Y020707D01*
X007303Y020755D01*
X007293Y020804D01*
X007287Y020854D01*
X007285Y020904D01*
X011285Y030373D02*
X011287Y030423D01*
X011293Y030473D01*
X011303Y030522D01*
X011317Y030570D01*
X011334Y030617D01*
X011355Y030662D01*
X011380Y030706D01*
X011408Y030747D01*
X011440Y030786D01*
X011474Y030823D01*
X011511Y030857D01*
X011551Y030887D01*
X011593Y030914D01*
X011637Y030938D01*
X011683Y030959D01*
X011730Y030975D01*
X011778Y030988D01*
X011828Y030997D01*
X011877Y031002D01*
X011928Y031003D01*
X011978Y031000D01*
X012027Y030993D01*
X012076Y030982D01*
X012124Y030967D01*
X012170Y030949D01*
X012215Y030927D01*
X012258Y030901D01*
X012299Y030872D01*
X012338Y030840D01*
X012374Y030805D01*
X012406Y030767D01*
X012436Y030727D01*
X012463Y030684D01*
X012486Y030640D01*
X012505Y030594D01*
X012521Y030546D01*
X012533Y030497D01*
X012541Y030448D01*
X012545Y030398D01*
X012545Y030348D01*
X012541Y030298D01*
X012533Y030249D01*
X012521Y030200D01*
X012505Y030152D01*
X012486Y030106D01*
X012463Y030062D01*
X012436Y030019D01*
X012406Y029979D01*
X012374Y029941D01*
X012338Y029906D01*
X012299Y029874D01*
X012258Y029845D01*
X012215Y029819D01*
X012170Y029797D01*
X012124Y029779D01*
X012076Y029764D01*
X012027Y029753D01*
X011978Y029746D01*
X011928Y029743D01*
X011877Y029744D01*
X011828Y029749D01*
X011778Y029758D01*
X011730Y029771D01*
X011683Y029787D01*
X011637Y029808D01*
X011593Y029832D01*
X011551Y029859D01*
X011511Y029889D01*
X011474Y029923D01*
X011440Y029960D01*
X011408Y029999D01*
X011380Y030040D01*
X011355Y030084D01*
X011334Y030129D01*
X011317Y030176D01*
X011303Y030224D01*
X011293Y030273D01*
X011287Y030323D01*
X011285Y030373D01*
X039285Y027373D02*
X039287Y027423D01*
X039293Y027473D01*
X039303Y027522D01*
X039317Y027570D01*
X039334Y027617D01*
X039355Y027662D01*
X039380Y027706D01*
X039408Y027747D01*
X039440Y027786D01*
X039474Y027823D01*
X039511Y027857D01*
X039551Y027887D01*
X039593Y027914D01*
X039637Y027938D01*
X039683Y027959D01*
X039730Y027975D01*
X039778Y027988D01*
X039828Y027997D01*
X039877Y028002D01*
X039928Y028003D01*
X039978Y028000D01*
X040027Y027993D01*
X040076Y027982D01*
X040124Y027967D01*
X040170Y027949D01*
X040215Y027927D01*
X040258Y027901D01*
X040299Y027872D01*
X040338Y027840D01*
X040374Y027805D01*
X040406Y027767D01*
X040436Y027727D01*
X040463Y027684D01*
X040486Y027640D01*
X040505Y027594D01*
X040521Y027546D01*
X040533Y027497D01*
X040541Y027448D01*
X040545Y027398D01*
X040545Y027348D01*
X040541Y027298D01*
X040533Y027249D01*
X040521Y027200D01*
X040505Y027152D01*
X040486Y027106D01*
X040463Y027062D01*
X040436Y027019D01*
X040406Y026979D01*
X040374Y026941D01*
X040338Y026906D01*
X040299Y026874D01*
X040258Y026845D01*
X040215Y026819D01*
X040170Y026797D01*
X040124Y026779D01*
X040076Y026764D01*
X040027Y026753D01*
X039978Y026746D01*
X039928Y026743D01*
X039877Y026744D01*
X039828Y026749D01*
X039778Y026758D01*
X039730Y026771D01*
X039683Y026787D01*
X039637Y026808D01*
X039593Y026832D01*
X039551Y026859D01*
X039511Y026889D01*
X039474Y026923D01*
X039440Y026960D01*
X039408Y026999D01*
X039380Y027040D01*
X039355Y027084D01*
X039334Y027129D01*
X039317Y027176D01*
X039303Y027224D01*
X039293Y027273D01*
X039287Y027323D01*
X039285Y027373D01*
X039285Y001904D02*
X039287Y001954D01*
X039293Y002004D01*
X039303Y002053D01*
X039317Y002101D01*
X039334Y002148D01*
X039355Y002193D01*
X039380Y002237D01*
X039408Y002278D01*
X039440Y002317D01*
X039474Y002354D01*
X039511Y002388D01*
X039551Y002418D01*
X039593Y002445D01*
X039637Y002469D01*
X039683Y002490D01*
X039730Y002506D01*
X039778Y002519D01*
X039828Y002528D01*
X039877Y002533D01*
X039928Y002534D01*
X039978Y002531D01*
X040027Y002524D01*
X040076Y002513D01*
X040124Y002498D01*
X040170Y002480D01*
X040215Y002458D01*
X040258Y002432D01*
X040299Y002403D01*
X040338Y002371D01*
X040374Y002336D01*
X040406Y002298D01*
X040436Y002258D01*
X040463Y002215D01*
X040486Y002171D01*
X040505Y002125D01*
X040521Y002077D01*
X040533Y002028D01*
X040541Y001979D01*
X040545Y001929D01*
X040545Y001879D01*
X040541Y001829D01*
X040533Y001780D01*
X040521Y001731D01*
X040505Y001683D01*
X040486Y001637D01*
X040463Y001593D01*
X040436Y001550D01*
X040406Y001510D01*
X040374Y001472D01*
X040338Y001437D01*
X040299Y001405D01*
X040258Y001376D01*
X040215Y001350D01*
X040170Y001328D01*
X040124Y001310D01*
X040076Y001295D01*
X040027Y001284D01*
X039978Y001277D01*
X039928Y001274D01*
X039877Y001275D01*
X039828Y001280D01*
X039778Y001289D01*
X039730Y001302D01*
X039683Y001318D01*
X039637Y001339D01*
X039593Y001363D01*
X039551Y001390D01*
X039511Y001420D01*
X039474Y001454D01*
X039440Y001491D01*
X039408Y001530D01*
X039380Y001571D01*
X039355Y001615D01*
X039334Y001660D01*
X039317Y001707D01*
X039303Y001755D01*
X039293Y001804D01*
X039287Y001854D01*
X039285Y001904D01*
D12*
X033915Y013873D03*
X033915Y014873D03*
X033915Y015873D03*
X033915Y016873D03*
X019365Y023773D03*
X018365Y023773D03*
X017365Y023773D03*
X017365Y024773D03*
X018365Y024773D03*
X019365Y024773D03*
X019365Y025773D03*
X018365Y025773D03*
X017365Y025773D03*
X016365Y025773D03*
X016365Y024773D03*
X016365Y023773D03*
X017381Y028370D03*
X018381Y028370D03*
X018381Y029370D03*
X017381Y029370D03*
X017381Y030370D03*
X018381Y030370D03*
X010234Y031082D03*
X009446Y031082D03*
X008659Y031082D03*
X007872Y031082D03*
X007084Y031082D03*
X006297Y031082D03*
X005509Y031082D03*
X004722Y031082D03*
X003935Y031082D03*
X003147Y031082D03*
X003147Y022420D03*
X003935Y022420D03*
X004722Y022420D03*
X005509Y022420D03*
X006297Y022420D03*
X007084Y022420D03*
X007872Y022420D03*
X008659Y022420D03*
X009446Y022420D03*
X010234Y022420D03*
D13*
X011315Y020904D03*
X012315Y020904D03*
X013315Y020904D03*
X014315Y020904D03*
X015315Y020904D03*
X016315Y020904D03*
X017315Y020904D03*
X018315Y020904D03*
X019915Y020904D03*
X020915Y020904D03*
X021915Y020904D03*
X022915Y020904D03*
X023915Y020904D03*
X024915Y020904D03*
X025915Y020904D03*
X026915Y020904D03*
X028915Y020904D03*
X029915Y020904D03*
X030915Y020904D03*
X031915Y020904D03*
X032915Y020904D03*
X033915Y020904D03*
X034915Y020904D03*
X035915Y020904D03*
X038915Y020904D03*
X039915Y020904D03*
X039915Y019904D03*
X038915Y019904D03*
X038915Y018904D03*
X039915Y018904D03*
X039915Y017904D03*
X038915Y017904D03*
X038915Y016904D03*
X039915Y016904D03*
X039915Y015904D03*
X038915Y015904D03*
X038915Y014904D03*
X039915Y014904D03*
X039915Y013904D03*
X038915Y013904D03*
X038915Y012904D03*
X039915Y012904D03*
X039915Y011904D03*
X038915Y011904D03*
X038915Y010904D03*
X039915Y010904D03*
X039915Y009904D03*
X038915Y009904D03*
X038915Y008904D03*
X039915Y008904D03*
X039915Y007904D03*
X038915Y007904D03*
X038915Y006904D03*
X039915Y006904D03*
X039915Y005904D03*
X038915Y005904D03*
X038915Y004904D03*
X039915Y004904D03*
X039915Y003904D03*
X038915Y003904D03*
X037915Y001904D03*
X036915Y001904D03*
X035915Y001904D03*
X034915Y001904D03*
X033915Y001904D03*
X032915Y001904D03*
X031915Y001904D03*
X030915Y001904D03*
X028915Y001904D03*
X027915Y001904D03*
X026915Y001904D03*
X025915Y001904D03*
X024915Y001904D03*
X023915Y001904D03*
X022915Y001904D03*
X021915Y001904D03*
X019915Y001904D03*
X018915Y001904D03*
X017915Y001904D03*
X016915Y001904D03*
X015915Y001904D03*
X014915Y001904D03*
D14*
X016431Y011145D03*
X017431Y011145D03*
X018431Y011145D03*
X018431Y012145D03*
X017431Y012145D03*
X016431Y012145D03*
X016411Y017463D03*
X017411Y017463D03*
X018411Y017463D03*
X018411Y018463D03*
X017411Y018463D03*
X016411Y018463D03*
X020915Y029373D03*
X020915Y030373D03*
X021915Y030373D03*
X022915Y030373D03*
X023915Y030373D03*
X024915Y030373D03*
X025915Y030373D03*
X026915Y030373D03*
X027915Y030373D03*
X028915Y030373D03*
X029915Y030373D03*
X030915Y030373D03*
X031915Y030373D03*
X032915Y030373D03*
X033915Y030373D03*
X034915Y030373D03*
X035915Y030373D03*
X036915Y030373D03*
X037915Y030373D03*
X038915Y030373D03*
X039915Y030373D03*
X039915Y029373D03*
X038915Y029373D03*
X037915Y029373D03*
X036915Y029373D03*
X035915Y029373D03*
X034915Y029373D03*
X033915Y029373D03*
X032915Y029373D03*
X031915Y029373D03*
X030915Y029373D03*
X029915Y029373D03*
X028915Y029373D03*
X027915Y029373D03*
X026915Y029373D03*
X025915Y029373D03*
X024915Y029373D03*
X023915Y029373D03*
X022915Y029373D03*
X021915Y029373D03*
D15*
X036415Y015923D03*
X037415Y015923D03*
X037415Y014923D03*
X036415Y014923D03*
X036415Y013923D03*
X037415Y013923D03*
X037415Y012923D03*
X036415Y012923D03*
X035415Y007923D03*
X004315Y008542D03*
X004315Y009542D03*
X004315Y010542D03*
X004315Y011542D03*
X004365Y014939D03*
X004365Y015939D03*
X004365Y016939D03*
X004365Y017939D03*
D16*
X027415Y010873D03*
X028415Y010873D03*
X029415Y010873D03*
X030415Y010873D03*
X030415Y009873D03*
X029415Y009873D03*
X028415Y009873D03*
X027415Y009873D03*
D17*
X017462Y008251D03*
X016462Y008251D03*
X015462Y008251D03*
X014462Y008251D03*
X013462Y008251D03*
X012462Y008251D03*
X011462Y008251D03*
X010462Y008251D03*
X010462Y013251D03*
X011462Y013251D03*
X012462Y013251D03*
X013462Y013251D03*
X014462Y013251D03*
X015462Y013251D03*
X016462Y013251D03*
X017462Y013251D03*
X017443Y014570D03*
X016443Y014570D03*
X015443Y014570D03*
X014443Y014570D03*
X013443Y014570D03*
X012443Y014570D03*
X011443Y014570D03*
X010443Y014570D03*
X010443Y019570D03*
X011443Y019570D03*
X012443Y019570D03*
X013443Y019570D03*
X014443Y019570D03*
X015443Y019570D03*
X016443Y019570D03*
X017443Y019570D03*
D18*
X006269Y003550D03*
X005088Y001700D03*
X003946Y003550D03*
D19*
X005886Y005883D02*
X005886Y006443D01*
X006886Y006443D02*
X006886Y005883D01*
X011605Y001233D02*
X011965Y000873D01*
X016883Y000873D01*
X017915Y001904D01*
D20*
X003515Y007995D03*
X003515Y014389D03*
D21*
X003515Y015767D03*
X003515Y017145D03*
X003515Y018523D03*
X003515Y012129D03*
X003515Y010751D03*
X003515Y009373D03*
D22*
X003484Y006081D03*
X003484Y004703D03*
D23*
X008985Y003013D03*
X008985Y001233D03*
X011545Y001233D03*
X011545Y003013D03*
D24*
X013781Y029693D03*
X014765Y029693D03*
X015749Y029693D03*
X015749Y030992D03*
X014765Y030992D03*
X013781Y030992D03*
D25*
X013315Y021923D03*
X012315Y021923D03*
X011315Y021923D03*
X014315Y021923D03*
X015315Y021923D03*
X016315Y021923D03*
X017315Y021923D03*
X018315Y021923D03*
X019915Y021923D03*
X020915Y021923D03*
X021915Y021923D03*
X022915Y021923D03*
X023915Y021923D03*
X024915Y021923D03*
X025915Y021923D03*
X026915Y021923D03*
X028915Y021923D03*
X029915Y021923D03*
X030915Y021923D03*
X031915Y021923D03*
X032915Y021923D03*
X033915Y021923D03*
X034915Y021923D03*
X035915Y021923D03*
X035915Y002923D03*
X036915Y002923D03*
X037915Y002923D03*
X034915Y002923D03*
X033915Y002923D03*
X032915Y002923D03*
X031915Y002923D03*
X030915Y002923D03*
X028915Y002923D03*
X027915Y002923D03*
X026915Y002923D03*
X025915Y002923D03*
X024915Y002923D03*
X023915Y002923D03*
X022915Y002923D03*
X021915Y002923D03*
X019915Y002873D03*
X018915Y002873D03*
X017915Y002873D03*
X016915Y002873D03*
X015915Y002873D03*
X014915Y002873D03*
D26*
X036415Y007923D03*
X037415Y007923D03*
X037415Y008923D03*
X036415Y008923D03*
X036415Y009923D03*
X037415Y009923D03*
D27*
X029915Y001873D02*
X029915Y001223D01*
X029665Y000973D01*
X019065Y000973D01*
X018915Y001123D01*
X018915Y001904D01*
X018915Y002873D01*
X017915Y002873D02*
X017915Y001904D01*
X015915Y001904D02*
X015915Y002873D01*
X014915Y002873D02*
X014915Y001904D01*
X011605Y001233D02*
X011545Y001233D01*
X008985Y001233D01*
X003515Y007995D02*
X004062Y008542D01*
X004315Y008542D01*
X006584Y008542D01*
X007415Y009373D01*
X010665Y009373D01*
X013465Y010373D02*
X006715Y010373D01*
X005884Y009542D01*
X004315Y009542D01*
X003684Y009542D01*
X003515Y009373D01*
X003724Y010542D02*
X003515Y010751D01*
X003724Y010542D02*
X004315Y010542D01*
X005084Y010542D01*
X005915Y011373D01*
X014465Y011373D01*
X015465Y012473D02*
X005246Y012473D01*
X004315Y011542D01*
X004102Y011542D01*
X003515Y012129D01*
X003515Y014389D02*
X004065Y014939D01*
X004365Y014939D01*
X006331Y014939D01*
X006815Y015423D01*
X010415Y015423D01*
X013415Y016423D02*
X006165Y016423D01*
X005681Y015939D01*
X004365Y015939D01*
X003687Y015939D01*
X003515Y015767D01*
X003721Y016939D02*
X003515Y017145D01*
X003721Y016939D02*
X004365Y016939D01*
X005131Y016939D01*
X005665Y017473D01*
X014465Y017473D01*
X015415Y018623D02*
X005049Y018623D01*
X004365Y017939D01*
X004099Y017939D01*
X003515Y018523D01*
D28*
X010443Y014570D02*
X010443Y014545D01*
X011215Y013773D01*
X020465Y013773D01*
X021915Y015223D01*
X021915Y016473D01*
X023915Y018473D01*
X023915Y020904D01*
X021915Y020904D02*
X021915Y021923D01*
X020915Y021923D02*
X020915Y020904D01*
X019915Y020904D02*
X019915Y021923D01*
X019915Y020904D02*
X019915Y018223D01*
X020265Y017873D01*
X021415Y017823D02*
X018915Y015373D01*
X016915Y015373D01*
X016443Y014901D01*
X016443Y014570D01*
X017443Y014570D02*
X019112Y014570D01*
X021915Y017373D01*
X021915Y020904D01*
X019165Y018923D02*
X019165Y016373D01*
X018411Y017463D02*
X017270Y016323D01*
X015465Y016323D01*
X013712Y014570D01*
X013443Y014570D01*
X012865Y015323D02*
X012443Y014901D01*
X012443Y014570D01*
X011443Y014570D02*
X011443Y014801D01*
X012365Y015723D01*
X013565Y015723D01*
X015315Y017473D01*
X016402Y017473D01*
X016411Y017463D01*
X016770Y016823D02*
X015315Y016823D01*
X013815Y015323D01*
X012865Y015323D01*
X016770Y016823D02*
X017411Y017463D01*
X019165Y018923D02*
X018315Y019773D01*
X018315Y020904D01*
X018315Y021923D01*
X017315Y021923D02*
X017315Y020904D01*
X016315Y020904D02*
X016315Y021923D01*
X017381Y028370D02*
X018381Y028370D01*
X018384Y028373D01*
X018865Y028373D01*
X019115Y028623D01*
X019115Y030373D01*
X020015Y031273D01*
X037915Y031323D01*
X031915Y021923D02*
X031915Y020904D01*
X019165Y013023D02*
X019165Y009954D01*
X017462Y008251D01*
X017615Y007523D02*
X017190Y007523D01*
X016462Y008251D01*
X016015Y007573D02*
X016565Y007023D01*
X020565Y007023D01*
X020915Y007373D01*
X020515Y010423D02*
X017615Y007523D01*
X016015Y007573D02*
X010915Y007573D01*
X010462Y008026D01*
X010462Y008251D01*
X011462Y008251D02*
X011462Y008320D01*
X012815Y009673D01*
X013715Y009673D01*
X014765Y010723D01*
X016009Y010723D01*
X016431Y011145D01*
X016509Y010223D02*
X017431Y011145D01*
X018431Y011145D02*
X017059Y009773D01*
X015215Y009773D01*
X013693Y008251D01*
X013462Y008251D01*
X012462Y008251D02*
X012462Y008570D01*
X013065Y009173D01*
X013965Y009173D01*
X015015Y010223D01*
X016509Y010223D01*
X020515Y010423D02*
X020715Y010423D01*
X015515Y004273D02*
X014165Y004273D01*
X013065Y004273D01*
X012215Y005123D01*
X014165Y004273D02*
X014165Y003623D01*
X015515Y004273D02*
X016915Y002873D01*
X014915Y001904D02*
X012653Y001904D01*
X011545Y003013D01*
X008985Y003013D01*
X017381Y028370D02*
X016058Y029693D01*
X015749Y029693D01*
X015749Y030992D01*
X018381Y028370D02*
X018381Y028370D01*
D29*
X020915Y027373D03*
X022415Y025923D03*
X024165Y025123D03*
X024665Y026373D03*
X026215Y024923D03*
X026765Y024373D03*
X025415Y021423D03*
X025415Y019773D03*
X021415Y017823D03*
X020265Y017873D03*
X019165Y016373D03*
X015415Y018623D03*
X014465Y017473D03*
X013415Y016423D03*
X010415Y015423D03*
X015465Y012473D03*
X014465Y011373D03*
X013465Y010373D03*
X010665Y009373D03*
X009215Y007573D03*
X012215Y005123D03*
X014165Y003623D03*
X020915Y004373D03*
X020915Y007373D03*
X020715Y010423D03*
X019165Y013023D03*
X027465Y014323D03*
X027915Y014773D03*
X028365Y015223D03*
X035365Y018373D03*
X040465Y019723D03*
X040865Y019023D03*
X038915Y022373D03*
X040515Y023823D03*
X036665Y026173D03*
X034765Y028373D03*
X034115Y028723D03*
X033615Y028373D03*
X032615Y027823D03*
X030165Y028373D03*
X031215Y024573D03*
X031665Y024123D03*
X037915Y031323D03*
X021815Y023673D03*
X021115Y024023D03*
X020165Y023323D03*
X018865Y023073D03*
X017865Y023023D03*
X014665Y023873D03*
X014215Y023473D03*
X014665Y025173D03*
X014215Y025573D03*
X015015Y026473D03*
X012915Y027873D03*
X011615Y025873D03*
X007115Y025623D03*
X005865Y026773D03*
X003315Y025223D03*
X004915Y024373D03*
X005915Y021323D03*
X003915Y029373D03*
X007465Y030073D03*
X030915Y008673D03*
X032565Y007423D03*
X033165Y006873D03*
X033915Y006373D03*
X034365Y005373D03*
X034765Y004373D03*
X031365Y005873D03*
X029915Y001873D03*
X004515Y007223D03*
D30*
X016315Y023073D03*
X016865Y022873D03*
X016865Y023323D03*
X026165Y027773D03*
D31*
X026915Y029373D02*
X026415Y029873D01*
X022615Y029873D01*
X022415Y029673D01*
X022415Y025923D01*
X024165Y025123D02*
X025615Y025123D01*
X020915Y027373D02*
X013415Y027373D01*
X012915Y027873D01*
D32*
X038915Y030373D02*
X038915Y030873D01*
X039365Y031323D01*
X040365Y031323D01*
X040865Y030823D01*
X040865Y026073D01*
X039415Y024623D01*
X039415Y020873D01*
X039383Y020904D01*
X038915Y020904D01*
X039415Y020873D02*
X039883Y020873D01*
X039915Y020904D01*
D33*
X038915Y020904D02*
X038196Y020904D01*
X035365Y018373D01*
X035365Y015323D01*
X033915Y013873D01*
X027415Y009873D02*
X027415Y005873D01*
X025915Y004373D01*
X020915Y004373D01*
X009215Y007573D02*
X008215Y007573D01*
X007765Y007223D01*
X004515Y007223D01*
X006886Y006163D02*
X006896Y006173D01*
X007115Y006173D01*
D34*
X031565Y007473D02*
X032165Y006873D01*
X033165Y006873D01*
D35*
X019915Y003373D02*
X019915Y001904D01*
X019915Y003373D02*
X017125Y006163D01*
X007125Y006163D01*
X007115Y006173D01*
M02*
