G75*
%MOIN*%
%OFA0B0*%
%FSLAX25Y25*%
%IPPOS*%
%LPD*%
%AMOC8*
5,1,8,0,0,1.08239X$1,22.5*
%
%ADD10C,0.01600*%
%ADD11C,0.02600*%
%ADD12C,0.02300*%
%ADD13C,0.00600*%
%ADD14C,0.01000*%
%ADD15C,0.01200*%
D10*
X0016500Y0009674D02*
X0024374Y0001800D01*
X0402327Y0001800D01*
X0410201Y0009674D01*
X0410201Y0308887D01*
X0402327Y0316761D01*
X0024374Y0316761D01*
X0016500Y0308887D01*
X0016500Y0308800D02*
X0016500Y0009800D01*
X0096264Y0264717D02*
X0096264Y0297245D01*
X0106106Y0297245D01*
X0116555Y0297245D01*
X0116555Y0264717D01*
X0106106Y0264717D01*
X0096264Y0264717D01*
X0106106Y0264717D02*
X0106106Y0297245D01*
D11*
X0116289Y0234563D02*
X0122595Y0234563D01*
X0125748Y0231411D01*
X0132934Y0228258D02*
X0139239Y0215647D01*
X0145544Y0228258D01*
X0125748Y0215647D02*
X0113137Y0228258D01*
X0113137Y0231411D01*
X0116289Y0234563D01*
X0105951Y0218800D02*
X0102798Y0218800D01*
X0102798Y0215647D01*
X0105951Y0215647D01*
X0105951Y0218800D01*
X0113137Y0215647D02*
X0125748Y0215647D01*
X0096052Y0218800D02*
X0092899Y0215647D01*
X0086594Y0215647D01*
X0083441Y0218800D01*
X0083441Y0221953D01*
X0086594Y0225105D01*
X0089747Y0225105D01*
X0086594Y0225105D02*
X0083441Y0228258D01*
X0083441Y0231411D01*
X0086594Y0234563D01*
X0092899Y0234563D01*
X0096052Y0231411D01*
X0172528Y0234563D02*
X0172528Y0215647D01*
X0181986Y0215647D01*
X0185138Y0218800D01*
X0185138Y0225105D01*
X0181986Y0228258D01*
X0172528Y0228258D01*
X0192031Y0215647D02*
X0198336Y0215647D01*
X0195184Y0215647D02*
X0195184Y0234563D01*
X0198336Y0234563D01*
X0205522Y0225105D02*
X0208675Y0228258D01*
X0214980Y0228258D01*
X0218133Y0225105D01*
X0218133Y0218800D01*
X0214980Y0215647D01*
X0208675Y0215647D01*
X0205522Y0221953D02*
X0218133Y0221953D01*
X0225026Y0215647D02*
X0231331Y0215647D01*
X0228178Y0215647D02*
X0228178Y0228258D01*
X0231331Y0228258D01*
X0228178Y0234563D02*
X0228178Y0237716D01*
X0238517Y0225105D02*
X0241670Y0228258D01*
X0247975Y0228258D01*
X0251128Y0225105D01*
X0258314Y0228258D02*
X0267772Y0228258D01*
X0270925Y0225105D01*
X0267772Y0221953D01*
X0261467Y0221953D01*
X0258314Y0218800D01*
X0261467Y0215647D01*
X0270925Y0215647D01*
X0277964Y0228258D02*
X0281117Y0228258D01*
X0287422Y0221953D01*
X0287422Y0228258D02*
X0287422Y0215647D01*
X0294608Y0215647D02*
X0304067Y0215647D01*
X0307219Y0218800D01*
X0304067Y0221953D01*
X0294608Y0221953D01*
X0294608Y0225105D02*
X0294608Y0215647D01*
X0294608Y0225105D02*
X0297761Y0228258D01*
X0304067Y0228258D01*
X0317265Y0234563D02*
X0317265Y0215647D01*
X0320417Y0215647D02*
X0314112Y0215647D01*
X0327603Y0218800D02*
X0327603Y0225105D01*
X0330756Y0228258D01*
X0337061Y0228258D01*
X0340214Y0225105D01*
X0340214Y0218800D01*
X0337061Y0215647D01*
X0330756Y0215647D01*
X0327603Y0218800D01*
X0320417Y0234563D02*
X0317265Y0234563D01*
X0347400Y0231411D02*
X0347400Y0225105D01*
X0350553Y0221953D01*
X0360011Y0221953D01*
X0360011Y0215647D02*
X0360011Y0234563D01*
X0350553Y0234563D01*
X0347400Y0231411D01*
X0251128Y0234563D02*
X0251128Y0215647D01*
X0238517Y0215647D02*
X0238517Y0225105D01*
X0205522Y0225105D02*
X0205522Y0221953D01*
D12*
X0190021Y0141803D02*
X0190021Y0129092D01*
X0195359Y0131210D02*
X0197477Y0129092D01*
X0203832Y0129092D01*
X0203832Y0124855D02*
X0203832Y0137566D01*
X0197477Y0137566D01*
X0195359Y0135447D01*
X0195359Y0131210D01*
X0190021Y0135447D02*
X0187902Y0137566D01*
X0183665Y0137566D01*
X0181547Y0135447D01*
X0181547Y0129092D01*
X0176209Y0129092D02*
X0176209Y0131210D01*
X0174090Y0131210D01*
X0174090Y0129092D01*
X0176209Y0129092D01*
X0169303Y0131210D02*
X0169303Y0135447D01*
X0167184Y0137566D01*
X0160829Y0137566D01*
X0155491Y0135447D02*
X0155491Y0131210D01*
X0153373Y0129092D01*
X0149136Y0129092D01*
X0147017Y0131210D01*
X0147017Y0135447D01*
X0149136Y0137566D01*
X0153373Y0137566D01*
X0155491Y0135447D01*
X0160829Y0129092D02*
X0167184Y0129092D01*
X0169303Y0131210D01*
X0141679Y0131210D02*
X0141679Y0129092D01*
X0139561Y0129092D01*
X0139561Y0131210D01*
X0141679Y0131210D01*
X0134773Y0131210D02*
X0132655Y0129092D01*
X0126300Y0129092D01*
X0126300Y0137566D01*
X0120962Y0141803D02*
X0120962Y0129092D01*
X0120962Y0133329D02*
X0114606Y0137566D01*
X0120962Y0133329D02*
X0114606Y0129092D01*
X0134773Y0131210D02*
X0134773Y0137566D01*
X0209170Y0135447D02*
X0209170Y0129092D01*
X0215526Y0129092D01*
X0217644Y0131210D01*
X0215526Y0133329D01*
X0209170Y0133329D01*
X0209170Y0135447D02*
X0211289Y0137566D01*
X0215526Y0137566D01*
X0222799Y0137566D02*
X0224917Y0137566D01*
X0229154Y0133329D01*
X0229154Y0129092D02*
X0229154Y0137566D01*
X0234492Y0137566D02*
X0240847Y0137566D01*
X0242966Y0135447D01*
X0242966Y0131210D01*
X0240847Y0129092D01*
X0234492Y0129092D01*
X0234492Y0126973D02*
X0234492Y0137566D01*
X0248120Y0137566D02*
X0250239Y0137566D01*
X0254476Y0133329D01*
X0254476Y0129092D02*
X0254476Y0137566D01*
X0259814Y0135447D02*
X0259814Y0129092D01*
X0266169Y0129092D01*
X0268287Y0131210D01*
X0266169Y0133329D01*
X0259814Y0133329D01*
X0259814Y0135447D02*
X0261932Y0137566D01*
X0266169Y0137566D01*
X0275377Y0141803D02*
X0275377Y0129092D01*
X0277495Y0129092D02*
X0273258Y0129092D01*
X0282833Y0131210D02*
X0282833Y0135447D01*
X0284952Y0137566D01*
X0289189Y0137566D01*
X0291307Y0135447D01*
X0291307Y0131210D01*
X0289189Y0129092D01*
X0284952Y0129092D01*
X0282833Y0131210D01*
X0277495Y0141803D02*
X0275377Y0141803D01*
X0296645Y0135447D02*
X0296645Y0131210D01*
X0298764Y0129092D01*
X0305119Y0129092D01*
X0305119Y0124855D02*
X0305119Y0137566D01*
X0298764Y0137566D01*
X0296645Y0135447D01*
X0309906Y0131210D02*
X0309906Y0129092D01*
X0312025Y0129092D01*
X0312025Y0131210D01*
X0309906Y0131210D01*
X0317363Y0131210D02*
X0317363Y0137566D01*
X0317363Y0131210D02*
X0319481Y0129092D01*
X0321600Y0131210D01*
X0323718Y0129092D01*
X0325837Y0131210D01*
X0325837Y0137566D01*
X0331175Y0137566D02*
X0331175Y0131210D01*
X0333293Y0129092D01*
X0335411Y0131210D01*
X0337530Y0129092D01*
X0339648Y0131210D01*
X0339648Y0137566D01*
X0344986Y0137566D02*
X0344986Y0131210D01*
X0347105Y0129092D01*
X0349223Y0131210D01*
X0351342Y0129092D01*
X0353460Y0131210D01*
X0353460Y0137566D01*
X0238729Y0124855D02*
X0236610Y0124855D01*
X0234492Y0126973D01*
D13*
X0374450Y0236574D02*
X0374450Y0238042D01*
X0375184Y0238776D01*
X0378120Y0238776D01*
X0378854Y0238042D01*
X0378854Y0236574D01*
X0378120Y0235840D01*
X0376652Y0235840D01*
X0376652Y0237308D01*
X0375184Y0235840D02*
X0374450Y0236574D01*
X0374950Y0243236D02*
X0377886Y0243236D01*
X0379354Y0244704D01*
X0377886Y0246172D01*
X0374950Y0246172D01*
X0377152Y0247840D02*
X0377152Y0250776D01*
X0375684Y0249308D02*
X0378620Y0249308D01*
X0377354Y0253132D02*
X0372950Y0256068D01*
X0374418Y0257736D02*
X0377354Y0257736D01*
X0377354Y0256068D02*
X0372950Y0253132D01*
X0374418Y0257736D02*
X0372950Y0259204D01*
X0374418Y0260672D01*
X0377354Y0260672D01*
X0377354Y0262340D02*
X0372950Y0262340D01*
X0374418Y0263808D01*
X0372950Y0265276D01*
X0377354Y0265276D01*
X0377152Y0269840D02*
X0377152Y0271308D01*
X0377152Y0269840D02*
X0378620Y0269840D01*
X0379354Y0270574D01*
X0379354Y0272042D01*
X0378620Y0272776D01*
X0375684Y0272776D01*
X0374950Y0272042D01*
X0374950Y0270574D01*
X0375684Y0269840D01*
X0374950Y0278236D02*
X0377886Y0278236D01*
X0379354Y0279704D01*
X0377886Y0281172D01*
X0374950Y0281172D01*
X0377152Y0282840D02*
X0377152Y0285776D01*
X0375684Y0284308D02*
X0378620Y0284308D01*
X0377854Y0297667D02*
X0373450Y0297667D01*
X0373450Y0300602D02*
X0377854Y0297667D01*
X0377854Y0300602D02*
X0373450Y0300602D01*
X0373450Y0302204D02*
X0373450Y0303672D01*
X0373450Y0302938D02*
X0377854Y0302938D01*
X0377854Y0303672D02*
X0377854Y0302204D01*
X0377854Y0305340D02*
X0373450Y0305340D01*
X0374918Y0306808D01*
X0373450Y0308276D01*
X0377854Y0308276D01*
X0381608Y0309988D02*
X0382341Y0310721D01*
X0383809Y0310721D01*
X0384543Y0311455D01*
X0383809Y0312189D01*
X0381608Y0312189D01*
X0381608Y0309988D02*
X0382341Y0309254D01*
X0384543Y0309254D01*
X0386145Y0309254D02*
X0386879Y0309988D01*
X0386879Y0312923D01*
X0387613Y0312189D02*
X0386145Y0312189D01*
X0389948Y0312189D02*
X0389948Y0309254D01*
X0390682Y0309254D02*
X0389214Y0309254D01*
X0389948Y0312189D02*
X0390682Y0312189D01*
X0389948Y0313657D02*
X0389948Y0314391D01*
X0392350Y0311455D02*
X0392350Y0309254D01*
X0393818Y0309254D02*
X0393818Y0311455D01*
X0393084Y0312189D01*
X0392350Y0311455D01*
X0393818Y0311455D02*
X0394552Y0312189D01*
X0395286Y0312189D01*
X0395286Y0309254D01*
X0396887Y0309254D02*
X0398355Y0309254D01*
X0397621Y0309254D02*
X0397621Y0312189D01*
X0398355Y0312189D01*
X0397621Y0313657D02*
X0397621Y0314391D01*
X0400690Y0313657D02*
X0400690Y0309254D01*
X0401424Y0309254D02*
X0399956Y0309254D01*
X0400690Y0313657D02*
X0401424Y0313657D01*
X0397976Y0303850D02*
X0395040Y0299446D01*
X0397976Y0299446D02*
X0395040Y0303850D01*
X0387976Y0303850D02*
X0387976Y0303116D01*
X0386508Y0301648D01*
X0386508Y0299446D01*
X0386508Y0301648D02*
X0385040Y0303116D01*
X0385040Y0303850D01*
X0375152Y0260672D02*
X0375152Y0257736D01*
X0113354Y0271574D02*
X0112620Y0270840D01*
X0111152Y0270840D01*
X0111152Y0272308D01*
X0112620Y0273776D02*
X0113354Y0273042D01*
X0113354Y0271574D01*
X0112620Y0273776D02*
X0109684Y0273776D01*
X0108950Y0273042D01*
X0108950Y0271574D01*
X0109684Y0270840D01*
X0103854Y0269204D02*
X0102386Y0267736D01*
X0099450Y0267736D01*
X0099450Y0270672D02*
X0102386Y0270672D01*
X0103854Y0269204D01*
X0101652Y0272340D02*
X0101652Y0275276D01*
X0100184Y0273808D02*
X0103120Y0273808D01*
X0092590Y0272908D02*
X0092590Y0271440D01*
X0091856Y0270706D01*
X0091122Y0270706D01*
X0090388Y0271440D01*
X0090388Y0272908D01*
X0089654Y0273642D01*
X0088920Y0273642D01*
X0088186Y0272908D01*
X0088186Y0271440D01*
X0088920Y0270706D01*
X0091856Y0273642D02*
X0092590Y0272908D01*
X0084354Y0277736D02*
X0084354Y0280672D01*
X0081418Y0277736D01*
X0080684Y0277736D01*
X0079950Y0278470D01*
X0079950Y0279938D01*
X0080684Y0280672D01*
X0080684Y0282340D02*
X0079950Y0283074D01*
X0079950Y0284542D01*
X0080684Y0285276D01*
X0081418Y0285276D01*
X0082152Y0284542D01*
X0082152Y0283074D01*
X0082886Y0282340D01*
X0083620Y0282340D01*
X0084354Y0283074D01*
X0084354Y0284542D01*
X0083620Y0285276D01*
X0084405Y0287736D02*
X0084405Y0290672D01*
X0084405Y0289204D02*
X0080001Y0289204D01*
X0081469Y0290672D01*
X0080735Y0292340D02*
X0080001Y0293074D01*
X0080001Y0294542D01*
X0080735Y0295276D01*
X0081469Y0295276D01*
X0082203Y0294542D01*
X0082203Y0293074D01*
X0082937Y0292340D01*
X0083671Y0292340D01*
X0084405Y0293074D01*
X0084405Y0294542D01*
X0083671Y0295276D01*
X0077854Y0295074D02*
X0077120Y0294340D01*
X0076386Y0295074D01*
X0076386Y0296542D01*
X0075652Y0297276D01*
X0074918Y0296542D01*
X0074918Y0294340D01*
X0075652Y0292672D02*
X0074918Y0291938D01*
X0074918Y0290470D01*
X0075652Y0289736D01*
X0076386Y0289736D01*
X0076386Y0292672D01*
X0077120Y0292672D02*
X0075652Y0292672D01*
X0077120Y0292672D02*
X0077854Y0291938D01*
X0077854Y0290470D01*
X0077854Y0288068D02*
X0074918Y0288068D01*
X0076386Y0288068D02*
X0074918Y0286600D01*
X0074918Y0285866D01*
X0074918Y0284231D02*
X0077854Y0282763D01*
X0074918Y0281295D01*
X0075652Y0279627D02*
X0074918Y0278893D01*
X0074918Y0277425D01*
X0075652Y0276691D01*
X0077120Y0276691D01*
X0077854Y0277425D01*
X0077854Y0278893D01*
X0077120Y0279627D01*
X0075652Y0279627D01*
X0077854Y0295074D02*
X0077854Y0297276D01*
D14*
X0138795Y0265528D02*
X0138795Y0259523D01*
X0140797Y0261525D01*
X0142799Y0259523D01*
X0142799Y0265528D01*
X0145241Y0264527D02*
X0146242Y0265528D01*
X0148243Y0265528D01*
X0149244Y0264527D01*
X0149244Y0260524D01*
X0148243Y0259523D01*
X0146242Y0259523D01*
X0145241Y0260524D01*
X0145241Y0264527D01*
X0151686Y0259523D02*
X0155690Y0259523D01*
X0153688Y0259523D02*
X0153688Y0265528D01*
X0158132Y0264527D02*
X0159133Y0265528D01*
X0161134Y0265528D01*
X0162135Y0264527D01*
X0162135Y0260524D01*
X0161134Y0259523D01*
X0159133Y0259523D01*
X0158132Y0260524D01*
X0158132Y0264527D01*
X0164577Y0263527D02*
X0167580Y0263527D01*
X0168581Y0262526D01*
X0168581Y0260524D01*
X0167580Y0259523D01*
X0164577Y0259523D01*
X0164577Y0265528D01*
X0166579Y0263527D02*
X0168581Y0265528D01*
X0177468Y0265528D02*
X0177468Y0261525D01*
X0179470Y0259523D01*
X0181472Y0261525D01*
X0181472Y0265528D01*
X0181472Y0262526D02*
X0177468Y0262526D01*
X0228795Y0265528D02*
X0228795Y0259523D01*
X0230797Y0261525D01*
X0232799Y0259523D01*
X0232799Y0265528D01*
X0235241Y0264527D02*
X0236242Y0265528D01*
X0238243Y0265528D01*
X0239244Y0264527D01*
X0239244Y0260524D01*
X0238243Y0259523D01*
X0236242Y0259523D01*
X0235241Y0260524D01*
X0235241Y0264527D01*
X0241686Y0259523D02*
X0245690Y0259523D01*
X0243688Y0259523D02*
X0243688Y0265528D01*
X0248132Y0264527D02*
X0249133Y0265528D01*
X0251134Y0265528D01*
X0252135Y0264527D01*
X0252135Y0260524D01*
X0251134Y0259523D01*
X0249133Y0259523D01*
X0248132Y0260524D01*
X0248132Y0264527D01*
X0254577Y0263527D02*
X0257580Y0263527D01*
X0258581Y0262526D01*
X0258581Y0260524D01*
X0257580Y0259523D01*
X0254577Y0259523D01*
X0254577Y0265528D01*
X0256579Y0263527D02*
X0258581Y0265528D01*
X0267468Y0265528D02*
X0267468Y0259523D01*
X0270471Y0259523D01*
X0271472Y0260524D01*
X0271472Y0261525D01*
X0270471Y0262526D01*
X0267468Y0262526D01*
X0267468Y0265528D02*
X0270471Y0265528D01*
X0271472Y0264527D01*
X0271472Y0263527D01*
X0270471Y0262526D01*
X0318795Y0265528D02*
X0318795Y0259523D01*
X0320797Y0261525D01*
X0322799Y0259523D01*
X0322799Y0265528D01*
X0325241Y0264527D02*
X0326242Y0265528D01*
X0328243Y0265528D01*
X0329244Y0264527D01*
X0329244Y0260524D01*
X0328243Y0259523D01*
X0326242Y0259523D01*
X0325241Y0260524D01*
X0325241Y0264527D01*
X0331686Y0259523D02*
X0335690Y0259523D01*
X0333688Y0259523D02*
X0333688Y0265528D01*
X0338132Y0264527D02*
X0339133Y0265528D01*
X0341134Y0265528D01*
X0342135Y0264527D01*
X0342135Y0260524D01*
X0341134Y0259523D01*
X0339133Y0259523D01*
X0338132Y0260524D01*
X0338132Y0264527D01*
X0344577Y0263527D02*
X0347580Y0263527D01*
X0348581Y0262526D01*
X0348581Y0260524D01*
X0347580Y0259523D01*
X0344577Y0259523D01*
X0344577Y0265528D01*
X0346579Y0263527D02*
X0348581Y0265528D01*
X0357468Y0264527D02*
X0357468Y0260524D01*
X0358469Y0259523D01*
X0360471Y0259523D01*
X0361472Y0260524D01*
X0361472Y0264527D02*
X0360471Y0265528D01*
X0358469Y0265528D01*
X0357468Y0264527D01*
D15*
X0371500Y0266800D02*
X0371500Y0276800D01*
X0371500Y0286800D01*
X0401500Y0286800D01*
X0401500Y0276800D01*
X0401500Y0266800D01*
X0371500Y0266800D01*
X0371500Y0276800D02*
X0401500Y0276800D01*
X0401500Y0251800D02*
X0371500Y0251800D01*
X0371500Y0241800D01*
X0371500Y0231800D01*
X0381500Y0231800D01*
X0381500Y0306800D01*
X0391500Y0306800D01*
X0401500Y0306800D01*
X0401500Y0251800D01*
X0401500Y0241800D01*
X0371500Y0241800D01*
X0381500Y0231800D02*
X0391500Y0231800D01*
X0401500Y0231800D01*
X0401500Y0241800D01*
X0391500Y0231800D02*
X0391500Y0306800D01*
M02*
