G75*
%MOIN*%
%OFA0B0*%
%FSLAX25Y25*%
%IPPOS*%
%LPD*%
%AMOC8*
5,1,8,0,0,1.08239X$1,22.5*
%
%ADD10C,0.01600*%
%ADD11C,0.02600*%
%ADD12C,0.02300*%
%ADD13C,0.00600*%
%ADD14C,0.01000*%
%ADD15C,0.01200*%
D10*
X0015300Y0009674D02*
X0023174Y0001800D01*
X0401127Y0001800D01*
X0409001Y0009674D01*
X0409001Y0308887D01*
X0401127Y0316761D01*
X0023174Y0316761D01*
X0015300Y0308887D01*
X0015300Y0308800D02*
X0015300Y0009800D01*
X0095064Y0264717D02*
X0095064Y0297245D01*
X0104906Y0297245D01*
X0115355Y0297245D01*
X0115355Y0264717D01*
X0104906Y0264717D01*
X0095064Y0264717D01*
X0104906Y0264717D02*
X0104906Y0297245D01*
D11*
X0115089Y0234563D02*
X0121395Y0234563D01*
X0124548Y0231411D01*
X0131734Y0228258D02*
X0138039Y0215647D01*
X0144344Y0228258D01*
X0124548Y0215647D02*
X0111937Y0228258D01*
X0111937Y0231411D01*
X0115089Y0234563D01*
X0104751Y0218800D02*
X0101598Y0218800D01*
X0101598Y0215647D01*
X0104751Y0215647D01*
X0104751Y0218800D01*
X0111937Y0215647D02*
X0124548Y0215647D01*
X0094852Y0215647D02*
X0082241Y0228258D01*
X0082241Y0231411D01*
X0085394Y0234563D01*
X0091699Y0234563D01*
X0094852Y0231411D01*
X0094852Y0215647D02*
X0082241Y0215647D01*
X0171328Y0215647D02*
X0180786Y0215647D01*
X0183938Y0218800D01*
X0183938Y0225105D01*
X0180786Y0228258D01*
X0171328Y0228258D01*
X0171328Y0234563D02*
X0171328Y0215647D01*
X0190831Y0215647D02*
X0197136Y0215647D01*
X0193984Y0215647D02*
X0193984Y0234563D01*
X0197136Y0234563D01*
X0204322Y0225105D02*
X0207475Y0228258D01*
X0213780Y0228258D01*
X0216933Y0225105D01*
X0216933Y0218800D01*
X0213780Y0215647D01*
X0207475Y0215647D01*
X0204322Y0221953D02*
X0216933Y0221953D01*
X0223826Y0215647D02*
X0230131Y0215647D01*
X0226978Y0215647D02*
X0226978Y0228258D01*
X0230131Y0228258D01*
X0237317Y0225105D02*
X0237317Y0215647D01*
X0237317Y0225105D02*
X0240470Y0228258D01*
X0246775Y0228258D01*
X0249928Y0225105D01*
X0257114Y0228258D02*
X0266572Y0228258D01*
X0269725Y0225105D01*
X0266572Y0221953D01*
X0260267Y0221953D01*
X0257114Y0218800D01*
X0260267Y0215647D01*
X0269725Y0215647D01*
X0276764Y0228258D02*
X0279917Y0228258D01*
X0286222Y0221953D01*
X0286222Y0228258D02*
X0286222Y0215647D01*
X0293408Y0215647D02*
X0302867Y0215647D01*
X0306019Y0218800D01*
X0302867Y0221953D01*
X0293408Y0221953D01*
X0293408Y0225105D02*
X0293408Y0215647D01*
X0293408Y0225105D02*
X0296561Y0228258D01*
X0302867Y0228258D01*
X0316065Y0234563D02*
X0316065Y0215647D01*
X0319217Y0215647D02*
X0312912Y0215647D01*
X0326403Y0218800D02*
X0326403Y0225105D01*
X0329556Y0228258D01*
X0335861Y0228258D01*
X0339014Y0225105D01*
X0339014Y0218800D01*
X0335861Y0215647D01*
X0329556Y0215647D01*
X0326403Y0218800D01*
X0319217Y0234563D02*
X0316065Y0234563D01*
X0346200Y0231411D02*
X0346200Y0225105D01*
X0349353Y0221953D01*
X0358811Y0221953D01*
X0358811Y0215647D02*
X0358811Y0234563D01*
X0349353Y0234563D01*
X0346200Y0231411D01*
X0249928Y0234563D02*
X0249928Y0215647D01*
X0226978Y0234563D02*
X0226978Y0237716D01*
X0204322Y0225105D02*
X0204322Y0221953D01*
D12*
X0188821Y0141803D02*
X0188821Y0129092D01*
X0194159Y0131210D02*
X0196277Y0129092D01*
X0202632Y0129092D01*
X0202632Y0124855D02*
X0202632Y0137566D01*
X0196277Y0137566D01*
X0194159Y0135447D01*
X0194159Y0131210D01*
X0188821Y0135447D02*
X0186702Y0137566D01*
X0182465Y0137566D01*
X0180347Y0135447D01*
X0180347Y0129092D01*
X0175009Y0129092D02*
X0172890Y0129092D01*
X0172890Y0131210D01*
X0175009Y0131210D01*
X0175009Y0129092D01*
X0168103Y0131210D02*
X0165984Y0129092D01*
X0159629Y0129092D01*
X0154291Y0131210D02*
X0152173Y0129092D01*
X0147936Y0129092D01*
X0145817Y0131210D01*
X0145817Y0135447D01*
X0147936Y0137566D01*
X0152173Y0137566D01*
X0154291Y0135447D01*
X0154291Y0131210D01*
X0159629Y0137566D02*
X0165984Y0137566D01*
X0168103Y0135447D01*
X0168103Y0131210D01*
X0140479Y0131210D02*
X0140479Y0129092D01*
X0138361Y0129092D01*
X0138361Y0131210D01*
X0140479Y0131210D01*
X0133573Y0131210D02*
X0131455Y0129092D01*
X0125100Y0129092D01*
X0125100Y0137566D01*
X0119762Y0141803D02*
X0119762Y0129092D01*
X0119762Y0133329D02*
X0113406Y0137566D01*
X0119762Y0133329D02*
X0113406Y0129092D01*
X0133573Y0131210D02*
X0133573Y0137566D01*
X0207970Y0135447D02*
X0207970Y0129092D01*
X0214326Y0129092D01*
X0216444Y0131210D01*
X0214326Y0133329D01*
X0207970Y0133329D01*
X0207970Y0135447D02*
X0210089Y0137566D01*
X0214326Y0137566D01*
X0221599Y0137566D02*
X0223717Y0137566D01*
X0227954Y0133329D01*
X0227954Y0129092D02*
X0227954Y0137566D01*
X0233292Y0137566D02*
X0239647Y0137566D01*
X0241766Y0135447D01*
X0241766Y0131210D01*
X0239647Y0129092D01*
X0233292Y0129092D01*
X0233292Y0126973D02*
X0233292Y0137566D01*
X0233292Y0126973D02*
X0235410Y0124855D01*
X0237529Y0124855D01*
X0246920Y0137566D02*
X0249039Y0137566D01*
X0253276Y0133329D01*
X0253276Y0129092D02*
X0253276Y0137566D01*
X0258614Y0135447D02*
X0258614Y0129092D01*
X0264969Y0129092D01*
X0267087Y0131210D01*
X0264969Y0133329D01*
X0258614Y0133329D01*
X0258614Y0135447D02*
X0260732Y0137566D01*
X0264969Y0137566D01*
X0274177Y0141803D02*
X0274177Y0129092D01*
X0276295Y0129092D02*
X0272058Y0129092D01*
X0281633Y0131210D02*
X0281633Y0135447D01*
X0283752Y0137566D01*
X0287989Y0137566D01*
X0290107Y0135447D01*
X0290107Y0131210D01*
X0287989Y0129092D01*
X0283752Y0129092D01*
X0281633Y0131210D01*
X0276295Y0141803D02*
X0274177Y0141803D01*
X0295445Y0135447D02*
X0295445Y0131210D01*
X0297564Y0129092D01*
X0303919Y0129092D01*
X0303919Y0124855D02*
X0303919Y0137566D01*
X0297564Y0137566D01*
X0295445Y0135447D01*
X0308706Y0131210D02*
X0308706Y0129092D01*
X0310825Y0129092D01*
X0310825Y0131210D01*
X0308706Y0131210D01*
X0316163Y0131210D02*
X0316163Y0137566D01*
X0316163Y0131210D02*
X0318281Y0129092D01*
X0320400Y0131210D01*
X0322518Y0129092D01*
X0324637Y0131210D01*
X0324637Y0137566D01*
X0329975Y0137566D02*
X0329975Y0131210D01*
X0332093Y0129092D01*
X0334211Y0131210D01*
X0336330Y0129092D01*
X0338448Y0131210D01*
X0338448Y0137566D01*
X0343786Y0137566D02*
X0343786Y0131210D01*
X0345905Y0129092D01*
X0348023Y0131210D01*
X0350142Y0129092D01*
X0352260Y0131210D01*
X0352260Y0137566D01*
D13*
X0373984Y0235840D02*
X0373250Y0236574D01*
X0373250Y0238042D01*
X0373984Y0238776D01*
X0376920Y0238776D01*
X0377654Y0238042D01*
X0377654Y0236574D01*
X0376920Y0235840D01*
X0375452Y0235840D01*
X0375452Y0237308D01*
X0376686Y0243236D02*
X0373750Y0243236D01*
X0376686Y0243236D02*
X0378154Y0244704D01*
X0376686Y0246172D01*
X0373750Y0246172D01*
X0375952Y0247840D02*
X0375952Y0250776D01*
X0374484Y0249308D02*
X0377420Y0249308D01*
X0376154Y0253132D02*
X0371750Y0256068D01*
X0373218Y0257736D02*
X0376154Y0257736D01*
X0376154Y0256068D02*
X0371750Y0253132D01*
X0373218Y0257736D02*
X0371750Y0259204D01*
X0373218Y0260672D01*
X0376154Y0260672D01*
X0376154Y0262340D02*
X0371750Y0262340D01*
X0373218Y0263808D01*
X0371750Y0265276D01*
X0376154Y0265276D01*
X0375952Y0269840D02*
X0375952Y0271308D01*
X0375952Y0269840D02*
X0377420Y0269840D01*
X0378154Y0270574D01*
X0378154Y0272042D01*
X0377420Y0272776D01*
X0374484Y0272776D01*
X0373750Y0272042D01*
X0373750Y0270574D01*
X0374484Y0269840D01*
X0373750Y0278236D02*
X0376686Y0278236D01*
X0378154Y0279704D01*
X0376686Y0281172D01*
X0373750Y0281172D01*
X0375952Y0282840D02*
X0375952Y0285776D01*
X0374484Y0284308D02*
X0377420Y0284308D01*
X0376654Y0297667D02*
X0372250Y0297667D01*
X0372250Y0300602D02*
X0376654Y0297667D01*
X0376654Y0300602D02*
X0372250Y0300602D01*
X0372250Y0302204D02*
X0372250Y0303672D01*
X0372250Y0302938D02*
X0376654Y0302938D01*
X0376654Y0303672D02*
X0376654Y0302204D01*
X0376654Y0305340D02*
X0372250Y0305340D01*
X0373718Y0306808D01*
X0372250Y0308276D01*
X0376654Y0308276D01*
X0380408Y0309988D02*
X0381141Y0310721D01*
X0382609Y0310721D01*
X0383343Y0311455D01*
X0382609Y0312189D01*
X0380408Y0312189D01*
X0380408Y0309988D02*
X0381141Y0309254D01*
X0383343Y0309254D01*
X0384945Y0309254D02*
X0385679Y0309988D01*
X0385679Y0312923D01*
X0386413Y0312189D02*
X0384945Y0312189D01*
X0388748Y0312189D02*
X0388748Y0309254D01*
X0389482Y0309254D02*
X0388014Y0309254D01*
X0388748Y0312189D02*
X0389482Y0312189D01*
X0388748Y0313657D02*
X0388748Y0314391D01*
X0391150Y0311455D02*
X0391150Y0309254D01*
X0392618Y0309254D02*
X0392618Y0311455D01*
X0391884Y0312189D01*
X0391150Y0311455D01*
X0392618Y0311455D02*
X0393352Y0312189D01*
X0394086Y0312189D01*
X0394086Y0309254D01*
X0395687Y0309254D02*
X0397155Y0309254D01*
X0396421Y0309254D02*
X0396421Y0312189D01*
X0397155Y0312189D01*
X0396421Y0313657D02*
X0396421Y0314391D01*
X0399490Y0313657D02*
X0399490Y0309254D01*
X0400224Y0309254D02*
X0398756Y0309254D01*
X0396776Y0303850D02*
X0393840Y0299446D01*
X0396776Y0299446D02*
X0393840Y0303850D01*
X0386776Y0303850D02*
X0386776Y0303116D01*
X0385308Y0301648D01*
X0385308Y0299446D01*
X0385308Y0301648D02*
X0383840Y0303116D01*
X0383840Y0303850D01*
X0399490Y0313657D02*
X0400224Y0313657D01*
X0373952Y0260672D02*
X0373952Y0257736D01*
X0112154Y0271574D02*
X0111420Y0270840D01*
X0109952Y0270840D01*
X0109952Y0272308D01*
X0111420Y0273776D02*
X0112154Y0273042D01*
X0112154Y0271574D01*
X0111420Y0273776D02*
X0108484Y0273776D01*
X0107750Y0273042D01*
X0107750Y0271574D01*
X0108484Y0270840D01*
X0102654Y0269204D02*
X0101186Y0267736D01*
X0098250Y0267736D01*
X0098250Y0270672D02*
X0101186Y0270672D01*
X0102654Y0269204D01*
X0100452Y0272340D02*
X0100452Y0275276D01*
X0098984Y0273808D02*
X0101920Y0273808D01*
X0091390Y0272908D02*
X0090656Y0273642D01*
X0091390Y0272908D02*
X0091390Y0271440D01*
X0090656Y0270706D01*
X0089922Y0270706D01*
X0089188Y0271440D01*
X0089188Y0272908D01*
X0088454Y0273642D01*
X0087720Y0273642D01*
X0086986Y0272908D01*
X0086986Y0271440D01*
X0087720Y0270706D01*
X0083154Y0277736D02*
X0083154Y0280672D01*
X0080218Y0277736D01*
X0079484Y0277736D01*
X0078750Y0278470D01*
X0078750Y0279938D01*
X0079484Y0280672D01*
X0079484Y0282340D02*
X0078750Y0283074D01*
X0078750Y0284542D01*
X0079484Y0285276D01*
X0080218Y0285276D01*
X0080952Y0284542D01*
X0080952Y0283074D01*
X0081686Y0282340D01*
X0082420Y0282340D01*
X0083154Y0283074D01*
X0083154Y0284542D01*
X0082420Y0285276D01*
X0083205Y0287736D02*
X0083205Y0290672D01*
X0083205Y0289204D02*
X0078801Y0289204D01*
X0080269Y0290672D01*
X0079535Y0292340D02*
X0078801Y0293074D01*
X0078801Y0294542D01*
X0079535Y0295276D01*
X0080269Y0295276D01*
X0081003Y0294542D01*
X0081003Y0293074D01*
X0081737Y0292340D01*
X0082471Y0292340D01*
X0083205Y0293074D01*
X0083205Y0294542D01*
X0082471Y0295276D01*
X0076654Y0295074D02*
X0076654Y0297276D01*
X0075186Y0296542D02*
X0074452Y0297276D01*
X0073718Y0296542D01*
X0073718Y0294340D01*
X0075186Y0295074D02*
X0075186Y0296542D01*
X0075186Y0295074D02*
X0075920Y0294340D01*
X0076654Y0295074D01*
X0075920Y0292672D02*
X0074452Y0292672D01*
X0073718Y0291938D01*
X0073718Y0290470D01*
X0074452Y0289736D01*
X0075186Y0289736D01*
X0075186Y0292672D01*
X0075920Y0292672D02*
X0076654Y0291938D01*
X0076654Y0290470D01*
X0076654Y0288068D02*
X0073718Y0288068D01*
X0075186Y0288068D02*
X0073718Y0286600D01*
X0073718Y0285866D01*
X0073718Y0284231D02*
X0076654Y0282763D01*
X0073718Y0281295D01*
X0074452Y0279627D02*
X0075920Y0279627D01*
X0076654Y0278893D01*
X0076654Y0277425D01*
X0075920Y0276691D01*
X0074452Y0276691D01*
X0073718Y0277425D01*
X0073718Y0278893D01*
X0074452Y0279627D01*
D14*
X0137595Y0265528D02*
X0137595Y0259523D01*
X0139597Y0261525D01*
X0141599Y0259523D01*
X0141599Y0265528D01*
X0144041Y0264527D02*
X0145042Y0265528D01*
X0147043Y0265528D01*
X0148044Y0264527D01*
X0148044Y0260524D01*
X0147043Y0259523D01*
X0145042Y0259523D01*
X0144041Y0260524D01*
X0144041Y0264527D01*
X0150486Y0259523D02*
X0154490Y0259523D01*
X0152488Y0259523D02*
X0152488Y0265528D01*
X0156932Y0264527D02*
X0157933Y0265528D01*
X0159934Y0265528D01*
X0160935Y0264527D01*
X0160935Y0260524D01*
X0159934Y0259523D01*
X0157933Y0259523D01*
X0156932Y0260524D01*
X0156932Y0264527D01*
X0163377Y0263527D02*
X0166380Y0263527D01*
X0167381Y0262526D01*
X0167381Y0260524D01*
X0166380Y0259523D01*
X0163377Y0259523D01*
X0163377Y0265528D01*
X0165379Y0263527D02*
X0167381Y0265528D01*
X0176268Y0265528D02*
X0176268Y0261525D01*
X0178270Y0259523D01*
X0180272Y0261525D01*
X0180272Y0265528D01*
X0180272Y0262526D02*
X0176268Y0262526D01*
X0227595Y0265528D02*
X0227595Y0259523D01*
X0229597Y0261525D01*
X0231599Y0259523D01*
X0231599Y0265528D01*
X0234041Y0264527D02*
X0235042Y0265528D01*
X0237043Y0265528D01*
X0238044Y0264527D01*
X0238044Y0260524D01*
X0237043Y0259523D01*
X0235042Y0259523D01*
X0234041Y0260524D01*
X0234041Y0264527D01*
X0240486Y0259523D02*
X0244490Y0259523D01*
X0242488Y0259523D02*
X0242488Y0265528D01*
X0246932Y0264527D02*
X0247933Y0265528D01*
X0249934Y0265528D01*
X0250935Y0264527D01*
X0250935Y0260524D01*
X0249934Y0259523D01*
X0247933Y0259523D01*
X0246932Y0260524D01*
X0246932Y0264527D01*
X0253377Y0263527D02*
X0256380Y0263527D01*
X0257381Y0262526D01*
X0257381Y0260524D01*
X0256380Y0259523D01*
X0253377Y0259523D01*
X0253377Y0265528D01*
X0255379Y0263527D02*
X0257381Y0265528D01*
X0266268Y0265528D02*
X0266268Y0259523D01*
X0269271Y0259523D01*
X0270272Y0260524D01*
X0270272Y0261525D01*
X0269271Y0262526D01*
X0266268Y0262526D01*
X0266268Y0265528D02*
X0269271Y0265528D01*
X0270272Y0264527D01*
X0270272Y0263527D01*
X0269271Y0262526D01*
X0317595Y0265528D02*
X0317595Y0259523D01*
X0319597Y0261525D01*
X0321599Y0259523D01*
X0321599Y0265528D01*
X0324041Y0264527D02*
X0325042Y0265528D01*
X0327043Y0265528D01*
X0328044Y0264527D01*
X0328044Y0260524D01*
X0327043Y0259523D01*
X0325042Y0259523D01*
X0324041Y0260524D01*
X0324041Y0264527D01*
X0330486Y0259523D02*
X0334490Y0259523D01*
X0332488Y0259523D02*
X0332488Y0265528D01*
X0336932Y0264527D02*
X0337933Y0265528D01*
X0339934Y0265528D01*
X0340935Y0264527D01*
X0340935Y0260524D01*
X0339934Y0259523D01*
X0337933Y0259523D01*
X0336932Y0260524D01*
X0336932Y0264527D01*
X0343377Y0263527D02*
X0346380Y0263527D01*
X0347381Y0262526D01*
X0347381Y0260524D01*
X0346380Y0259523D01*
X0343377Y0259523D01*
X0343377Y0265528D01*
X0345379Y0263527D02*
X0347381Y0265528D01*
X0356268Y0264527D02*
X0356268Y0260524D01*
X0357269Y0259523D01*
X0359271Y0259523D01*
X0360272Y0260524D01*
X0360272Y0264527D02*
X0359271Y0265528D01*
X0357269Y0265528D01*
X0356268Y0264527D01*
D15*
X0370300Y0266800D02*
X0370300Y0276800D01*
X0370300Y0286800D01*
X0400300Y0286800D01*
X0400300Y0276800D01*
X0400300Y0266800D01*
X0370300Y0266800D01*
X0370300Y0276800D02*
X0400300Y0276800D01*
X0400300Y0251800D02*
X0370300Y0251800D01*
X0370300Y0241800D01*
X0370300Y0231800D01*
X0380300Y0231800D01*
X0380300Y0306800D01*
X0390300Y0306800D01*
X0400300Y0306800D01*
X0400300Y0251800D01*
X0400300Y0241800D01*
X0370300Y0241800D01*
X0380300Y0231800D02*
X0390300Y0231800D01*
X0400300Y0231800D01*
X0400300Y0241800D01*
X0390300Y0231800D02*
X0390300Y0306800D01*
M02*
