G75*
G70*
%OFA0B0*%
%FSLAX24Y24*%
%IPPOS*%
%LPD*%
%AMOC8*
5,1,8,0,0,1.08239X$1,22.5*
%
%ADD10C,0.0160*%
%ADD11C,0.0300*%
%ADD12C,0.0230*%
%ADD13C,0.0000*%
%ADD14C,0.0060*%
%ADD15C,0.0100*%
%ADD16C,0.0080*%
%ADD17C,0.0010*%
D10*
X001915Y001977D02*
X002702Y001189D01*
X040498Y001189D01*
X041285Y001977D01*
X041285Y031898D01*
X040498Y032685D01*
X002702Y032685D01*
X001915Y031898D01*
X001915Y001977D01*
D11*
X005641Y018544D02*
X006389Y018544D01*
X006762Y018918D01*
X007558Y018918D02*
X007558Y018544D01*
X007932Y018544D01*
X007932Y018918D01*
X007558Y018918D01*
X008776Y018544D02*
X010271Y018544D01*
X009523Y018544D02*
X009523Y020786D01*
X010271Y020039D01*
X011115Y020039D02*
X011862Y018544D01*
X012609Y020039D01*
X015792Y020039D02*
X016913Y020039D01*
X017287Y019665D01*
X017287Y018918D01*
X016913Y018544D01*
X015792Y018544D01*
X015792Y020786D01*
X018472Y020786D02*
X018472Y018544D01*
X018099Y018544D02*
X018846Y018544D01*
X019690Y019291D02*
X021185Y019291D01*
X021185Y018918D02*
X021185Y019665D01*
X020811Y020039D01*
X020064Y020039D01*
X019690Y019665D01*
X019690Y019291D01*
X020064Y018544D02*
X020811Y018544D01*
X021185Y018918D01*
X021997Y018544D02*
X022744Y018544D01*
X022370Y018544D02*
X022370Y020039D01*
X022744Y020039D01*
X022370Y020786D02*
X022370Y021160D01*
X023588Y019665D02*
X023962Y020039D01*
X024709Y020039D01*
X025083Y019665D01*
X025927Y020039D02*
X027048Y020039D01*
X027422Y019665D01*
X027048Y019291D01*
X026301Y019291D01*
X025927Y018918D01*
X026301Y018544D01*
X027422Y018544D01*
X028623Y020039D02*
X029371Y019291D01*
X029371Y018544D02*
X029371Y020039D01*
X028623Y020039D02*
X028250Y020039D01*
X030215Y019665D02*
X030215Y018544D01*
X031336Y018544D01*
X031709Y018918D01*
X031336Y019291D01*
X030215Y019291D01*
X030215Y019665D02*
X030588Y020039D01*
X031336Y020039D01*
X032895Y020786D02*
X032895Y018544D01*
X033269Y018544D02*
X032521Y018544D01*
X034113Y018918D02*
X034486Y018544D01*
X035234Y018544D01*
X035607Y018918D01*
X035607Y019665D01*
X035234Y020039D01*
X034486Y020039D01*
X034113Y019665D01*
X034113Y018918D01*
X036451Y019665D02*
X036451Y020412D01*
X036825Y020786D01*
X037946Y020786D01*
X037946Y018544D01*
X037946Y019291D02*
X036825Y019291D01*
X036451Y019665D01*
X033269Y020786D02*
X032895Y020786D01*
X025083Y020786D02*
X025083Y018544D01*
X023588Y018544D02*
X023588Y019665D01*
X018846Y020786D02*
X018472Y020786D01*
X006762Y020412D02*
X006389Y020786D01*
X005641Y020786D01*
X005268Y020412D01*
X005268Y020039D01*
X005641Y019665D01*
X005268Y019291D01*
X005268Y018918D01*
X005641Y018544D01*
X005641Y019665D02*
X006015Y019665D01*
D12*
X010362Y014190D02*
X010362Y012918D01*
X010362Y013342D02*
X009726Y013766D01*
X010362Y013342D02*
X009726Y012918D01*
X010896Y012918D02*
X010896Y013766D01*
X011743Y013766D02*
X011743Y013130D01*
X011531Y012918D01*
X010896Y012918D01*
X012222Y012918D02*
X012434Y012918D01*
X012434Y013130D01*
X012222Y013130D01*
X012222Y012918D01*
X012967Y013130D02*
X012967Y013554D01*
X013179Y013766D01*
X013603Y013766D01*
X013815Y013554D01*
X013815Y013130D01*
X013603Y012918D01*
X013179Y012918D01*
X012967Y013130D01*
X014348Y012918D02*
X014984Y012918D01*
X015196Y013130D01*
X015196Y013554D01*
X014984Y013766D01*
X014348Y013766D01*
X015675Y013130D02*
X015675Y012918D01*
X015886Y012918D01*
X015886Y013130D01*
X015675Y013130D01*
X016420Y012918D02*
X016420Y013554D01*
X016632Y013766D01*
X017056Y013766D01*
X017268Y013554D01*
X017801Y013554D02*
X017801Y013130D01*
X018013Y012918D01*
X018649Y012918D01*
X018649Y012495D02*
X018649Y013766D01*
X018013Y013766D01*
X017801Y013554D01*
X017268Y014190D02*
X017268Y012918D01*
X019182Y012918D02*
X019818Y012918D01*
X020030Y013130D01*
X019818Y013342D01*
X019182Y013342D01*
X019182Y013554D02*
X019182Y012918D01*
X019182Y013554D02*
X019394Y013766D01*
X019818Y013766D01*
X020545Y013766D02*
X020757Y013766D01*
X021181Y013342D01*
X021181Y012918D02*
X021181Y013766D01*
X021715Y013766D02*
X022350Y013766D01*
X022562Y013554D01*
X022562Y013130D01*
X022350Y012918D01*
X021715Y012918D01*
X021715Y012707D02*
X021715Y013766D01*
X021715Y012707D02*
X021926Y012495D01*
X022138Y012495D01*
X023077Y013766D02*
X023289Y013766D01*
X023713Y013342D01*
X023713Y012918D02*
X023713Y013766D01*
X024247Y013554D02*
X024247Y012918D01*
X024882Y012918D01*
X025094Y013130D01*
X024882Y013342D01*
X024247Y013342D01*
X024247Y013554D02*
X024458Y013766D01*
X024882Y013766D01*
X025803Y014190D02*
X025803Y012918D01*
X026015Y012918D02*
X025591Y012918D01*
X026549Y013130D02*
X026760Y012918D01*
X027184Y012918D01*
X027396Y013130D01*
X027396Y013554D01*
X027184Y013766D01*
X026760Y013766D01*
X026549Y013554D01*
X026549Y013130D01*
X026015Y014190D02*
X025803Y014190D01*
X027930Y013554D02*
X027930Y013130D01*
X028141Y012918D01*
X028777Y012918D01*
X028777Y012495D02*
X028777Y013766D01*
X028141Y013766D01*
X027930Y013554D01*
X029256Y013130D02*
X029256Y012918D01*
X029468Y012918D01*
X029468Y013130D01*
X029256Y013130D01*
X030001Y013130D02*
X030001Y013766D01*
X030001Y013130D02*
X030213Y012918D01*
X030425Y013130D01*
X030637Y012918D01*
X030849Y013130D01*
X030849Y013766D01*
X031382Y013766D02*
X031382Y013130D01*
X031594Y012918D01*
X031806Y013130D01*
X032018Y012918D01*
X032230Y013130D01*
X032230Y013766D01*
X032764Y013766D02*
X032764Y013130D01*
X032975Y012918D01*
X033187Y013130D01*
X033399Y012918D01*
X033611Y013130D01*
X033611Y013766D01*
D13*
X039285Y002721D02*
X039287Y002771D01*
X039293Y002821D01*
X039303Y002870D01*
X039317Y002918D01*
X039334Y002965D01*
X039355Y003010D01*
X039380Y003054D01*
X039408Y003095D01*
X039440Y003134D01*
X039474Y003171D01*
X039511Y003205D01*
X039551Y003235D01*
X039593Y003262D01*
X039637Y003286D01*
X039683Y003307D01*
X039730Y003323D01*
X039778Y003336D01*
X039828Y003345D01*
X039877Y003350D01*
X039928Y003351D01*
X039978Y003348D01*
X040027Y003341D01*
X040076Y003330D01*
X040124Y003315D01*
X040170Y003297D01*
X040215Y003275D01*
X040258Y003249D01*
X040299Y003220D01*
X040338Y003188D01*
X040374Y003153D01*
X040406Y003115D01*
X040436Y003075D01*
X040463Y003032D01*
X040486Y002988D01*
X040505Y002942D01*
X040521Y002894D01*
X040533Y002845D01*
X040541Y002796D01*
X040545Y002746D01*
X040545Y002696D01*
X040541Y002646D01*
X040533Y002597D01*
X040521Y002548D01*
X040505Y002500D01*
X040486Y002454D01*
X040463Y002410D01*
X040436Y002367D01*
X040406Y002327D01*
X040374Y002289D01*
X040338Y002254D01*
X040299Y002222D01*
X040258Y002193D01*
X040215Y002167D01*
X040170Y002145D01*
X040124Y002127D01*
X040076Y002112D01*
X040027Y002101D01*
X039978Y002094D01*
X039928Y002091D01*
X039877Y002092D01*
X039828Y002097D01*
X039778Y002106D01*
X039730Y002119D01*
X039683Y002135D01*
X039637Y002156D01*
X039593Y002180D01*
X039551Y002207D01*
X039511Y002237D01*
X039474Y002271D01*
X039440Y002308D01*
X039408Y002347D01*
X039380Y002388D01*
X039355Y002432D01*
X039334Y002477D01*
X039317Y002524D01*
X039303Y002572D01*
X039293Y002621D01*
X039287Y002671D01*
X039285Y002721D01*
X007285Y021721D02*
X007287Y021771D01*
X007293Y021821D01*
X007303Y021870D01*
X007317Y021918D01*
X007334Y021965D01*
X007355Y022010D01*
X007380Y022054D01*
X007408Y022095D01*
X007440Y022134D01*
X007474Y022171D01*
X007511Y022205D01*
X007551Y022235D01*
X007593Y022262D01*
X007637Y022286D01*
X007683Y022307D01*
X007730Y022323D01*
X007778Y022336D01*
X007828Y022345D01*
X007877Y022350D01*
X007928Y022351D01*
X007978Y022348D01*
X008027Y022341D01*
X008076Y022330D01*
X008124Y022315D01*
X008170Y022297D01*
X008215Y022275D01*
X008258Y022249D01*
X008299Y022220D01*
X008338Y022188D01*
X008374Y022153D01*
X008406Y022115D01*
X008436Y022075D01*
X008463Y022032D01*
X008486Y021988D01*
X008505Y021942D01*
X008521Y021894D01*
X008533Y021845D01*
X008541Y021796D01*
X008545Y021746D01*
X008545Y021696D01*
X008541Y021646D01*
X008533Y021597D01*
X008521Y021548D01*
X008505Y021500D01*
X008486Y021454D01*
X008463Y021410D01*
X008436Y021367D01*
X008406Y021327D01*
X008374Y021289D01*
X008338Y021254D01*
X008299Y021222D01*
X008258Y021193D01*
X008215Y021167D01*
X008170Y021145D01*
X008124Y021127D01*
X008076Y021112D01*
X008027Y021101D01*
X007978Y021094D01*
X007928Y021091D01*
X007877Y021092D01*
X007828Y021097D01*
X007778Y021106D01*
X007730Y021119D01*
X007683Y021135D01*
X007637Y021156D01*
X007593Y021180D01*
X007551Y021207D01*
X007511Y021237D01*
X007474Y021271D01*
X007440Y021308D01*
X007408Y021347D01*
X007380Y021388D01*
X007355Y021432D01*
X007334Y021477D01*
X007317Y021524D01*
X007303Y021572D01*
X007293Y021621D01*
X007287Y021671D01*
X007285Y021721D01*
X011285Y031189D02*
X011287Y031239D01*
X011293Y031289D01*
X011303Y031338D01*
X011317Y031386D01*
X011334Y031433D01*
X011355Y031478D01*
X011380Y031522D01*
X011408Y031563D01*
X011440Y031602D01*
X011474Y031639D01*
X011511Y031673D01*
X011551Y031703D01*
X011593Y031730D01*
X011637Y031754D01*
X011683Y031775D01*
X011730Y031791D01*
X011778Y031804D01*
X011828Y031813D01*
X011877Y031818D01*
X011928Y031819D01*
X011978Y031816D01*
X012027Y031809D01*
X012076Y031798D01*
X012124Y031783D01*
X012170Y031765D01*
X012215Y031743D01*
X012258Y031717D01*
X012299Y031688D01*
X012338Y031656D01*
X012374Y031621D01*
X012406Y031583D01*
X012436Y031543D01*
X012463Y031500D01*
X012486Y031456D01*
X012505Y031410D01*
X012521Y031362D01*
X012533Y031313D01*
X012541Y031264D01*
X012545Y031214D01*
X012545Y031164D01*
X012541Y031114D01*
X012533Y031065D01*
X012521Y031016D01*
X012505Y030968D01*
X012486Y030922D01*
X012463Y030878D01*
X012436Y030835D01*
X012406Y030795D01*
X012374Y030757D01*
X012338Y030722D01*
X012299Y030690D01*
X012258Y030661D01*
X012215Y030635D01*
X012170Y030613D01*
X012124Y030595D01*
X012076Y030580D01*
X012027Y030569D01*
X011978Y030562D01*
X011928Y030559D01*
X011877Y030560D01*
X011828Y030565D01*
X011778Y030574D01*
X011730Y030587D01*
X011683Y030603D01*
X011637Y030624D01*
X011593Y030648D01*
X011551Y030675D01*
X011511Y030705D01*
X011474Y030739D01*
X011440Y030776D01*
X011408Y030815D01*
X011380Y030856D01*
X011355Y030900D01*
X011334Y030945D01*
X011317Y030992D01*
X011303Y031040D01*
X011293Y031089D01*
X011287Y031139D01*
X011285Y031189D01*
X039285Y028189D02*
X039287Y028239D01*
X039293Y028289D01*
X039303Y028338D01*
X039317Y028386D01*
X039334Y028433D01*
X039355Y028478D01*
X039380Y028522D01*
X039408Y028563D01*
X039440Y028602D01*
X039474Y028639D01*
X039511Y028673D01*
X039551Y028703D01*
X039593Y028730D01*
X039637Y028754D01*
X039683Y028775D01*
X039730Y028791D01*
X039778Y028804D01*
X039828Y028813D01*
X039877Y028818D01*
X039928Y028819D01*
X039978Y028816D01*
X040027Y028809D01*
X040076Y028798D01*
X040124Y028783D01*
X040170Y028765D01*
X040215Y028743D01*
X040258Y028717D01*
X040299Y028688D01*
X040338Y028656D01*
X040374Y028621D01*
X040406Y028583D01*
X040436Y028543D01*
X040463Y028500D01*
X040486Y028456D01*
X040505Y028410D01*
X040521Y028362D01*
X040533Y028313D01*
X040541Y028264D01*
X040545Y028214D01*
X040545Y028164D01*
X040541Y028114D01*
X040533Y028065D01*
X040521Y028016D01*
X040505Y027968D01*
X040486Y027922D01*
X040463Y027878D01*
X040436Y027835D01*
X040406Y027795D01*
X040374Y027757D01*
X040338Y027722D01*
X040299Y027690D01*
X040258Y027661D01*
X040215Y027635D01*
X040170Y027613D01*
X040124Y027595D01*
X040076Y027580D01*
X040027Y027569D01*
X039978Y027562D01*
X039928Y027559D01*
X039877Y027560D01*
X039828Y027565D01*
X039778Y027574D01*
X039730Y027587D01*
X039683Y027603D01*
X039637Y027624D01*
X039593Y027648D01*
X039551Y027675D01*
X039511Y027705D01*
X039474Y027739D01*
X039440Y027776D01*
X039408Y027815D01*
X039380Y027856D01*
X039355Y027900D01*
X039334Y027945D01*
X039317Y027992D01*
X039303Y028040D01*
X039293Y028089D01*
X039287Y028139D01*
X039285Y028189D01*
X006785Y002721D02*
X006787Y002771D01*
X006793Y002821D01*
X006803Y002870D01*
X006817Y002918D01*
X006834Y002965D01*
X006855Y003010D01*
X006880Y003054D01*
X006908Y003095D01*
X006940Y003134D01*
X006974Y003171D01*
X007011Y003205D01*
X007051Y003235D01*
X007093Y003262D01*
X007137Y003286D01*
X007183Y003307D01*
X007230Y003323D01*
X007278Y003336D01*
X007328Y003345D01*
X007377Y003350D01*
X007428Y003351D01*
X007478Y003348D01*
X007527Y003341D01*
X007576Y003330D01*
X007624Y003315D01*
X007670Y003297D01*
X007715Y003275D01*
X007758Y003249D01*
X007799Y003220D01*
X007838Y003188D01*
X007874Y003153D01*
X007906Y003115D01*
X007936Y003075D01*
X007963Y003032D01*
X007986Y002988D01*
X008005Y002942D01*
X008021Y002894D01*
X008033Y002845D01*
X008041Y002796D01*
X008045Y002746D01*
X008045Y002696D01*
X008041Y002646D01*
X008033Y002597D01*
X008021Y002548D01*
X008005Y002500D01*
X007986Y002454D01*
X007963Y002410D01*
X007936Y002367D01*
X007906Y002327D01*
X007874Y002289D01*
X007838Y002254D01*
X007799Y002222D01*
X007758Y002193D01*
X007715Y002167D01*
X007670Y002145D01*
X007624Y002127D01*
X007576Y002112D01*
X007527Y002101D01*
X007478Y002094D01*
X007428Y002091D01*
X007377Y002092D01*
X007328Y002097D01*
X007278Y002106D01*
X007230Y002119D01*
X007183Y002135D01*
X007137Y002156D01*
X007093Y002180D01*
X007051Y002207D01*
X007011Y002237D01*
X006974Y002271D01*
X006940Y002308D01*
X006908Y002347D01*
X006880Y002388D01*
X006855Y002432D01*
X006834Y002477D01*
X006817Y002524D01*
X006803Y002572D01*
X006793Y002621D01*
X006787Y002671D01*
X006785Y002721D01*
D14*
X002985Y004642D02*
X002879Y004536D01*
X002452Y004536D01*
X002345Y004642D01*
X002345Y004856D01*
X002452Y004963D01*
X002665Y004963D01*
X002665Y004749D01*
X002879Y004963D02*
X002985Y004856D01*
X002985Y004642D01*
X002985Y005180D02*
X002345Y005180D01*
X002345Y005607D02*
X002985Y005607D01*
X002985Y005825D02*
X002985Y006145D01*
X002879Y006252D01*
X002452Y006252D01*
X002345Y006145D01*
X002345Y005825D01*
X002985Y005825D01*
X002985Y005180D02*
X002345Y005607D01*
X002508Y006676D02*
X002508Y007103D01*
X002295Y006890D02*
X002722Y006890D01*
X003408Y007726D02*
X003408Y008153D01*
X003195Y007940D02*
X003622Y007940D01*
X005045Y006940D02*
X005472Y006940D01*
X005258Y007153D02*
X005258Y006726D01*
D15*
X001915Y001721D02*
X040915Y001721D01*
X040915Y002221D01*
X041915Y003221D01*
X041915Y016721D01*
X040915Y017721D01*
X040915Y022221D01*
X040415Y022721D01*
X001915Y022721D01*
X001915Y018981D01*
X000813Y018981D01*
X000813Y014177D01*
X001915Y014177D01*
X001915Y001721D01*
X001876Y003351D02*
X000860Y003351D01*
X000860Y006894D01*
X001876Y006894D01*
X001915Y014177D02*
X001915Y018981D01*
D16*
X002098Y013851D02*
X002098Y007906D01*
X002413Y007906D01*
X002413Y013851D01*
X002098Y013851D01*
X002413Y013851D02*
X004854Y013851D01*
X004854Y007906D01*
X002413Y007906D01*
D17*
X004520Y008341D02*
X004520Y008366D01*
X004545Y008391D01*
X004670Y008391D01*
X004670Y008366D02*
X004670Y008416D01*
X004670Y008464D02*
X004670Y008539D01*
X004645Y008564D01*
X004595Y008564D01*
X004570Y008539D01*
X004570Y008464D01*
X004520Y008464D02*
X004670Y008464D01*
X004670Y008611D02*
X004670Y008711D01*
X004645Y008711D01*
X004545Y008611D01*
X004520Y008611D01*
X004520Y008341D02*
X004545Y008316D01*
M02*
