G75*
%MOIN*%
%OFA0B0*%
%FSLAX24Y24*%
%IPPOS*%
%LPD*%
%AMOC8*
5,1,8,0,0,1.08239X$1,22.5*
%
%ADD10C,0.0160*%
%ADD11C,0.0594*%
%ADD12C,0.0700*%
%ADD13C,0.0554*%
%ADD14C,0.0600*%
%ADD15C,0.1890*%
%ADD16C,0.0560*%
%ADD17R,0.0800X0.0800*%
%ADD18C,0.0800*%
%ADD19C,0.0860*%
%ADD20C,0.0740*%
%ADD21OC8,0.0600*%
%ADD22OC8,0.0356*%
%ADD23R,0.0356X0.0356*%
%ADD24OC8,0.0280*%
%ADD25C,0.0240*%
%ADD26OC8,0.0240*%
%ADD27C,0.0320*%
D10*
X002145Y001680D02*
X039940Y001680D01*
X040727Y002467D01*
X040727Y032389D01*
X039940Y033176D01*
X002145Y033176D01*
X001357Y032389D01*
X001357Y002467D01*
X002145Y001680D01*
X002990Y004000D02*
X002177Y004813D01*
X002177Y026734D01*
X002206Y026674D01*
X002273Y026567D01*
X002352Y026469D01*
X002441Y026379D01*
X002540Y026301D01*
X002647Y026233D01*
X002761Y026178D01*
X002880Y026137D01*
X003003Y026109D01*
X003112Y026096D01*
X003112Y027139D01*
X003272Y027139D01*
X003272Y026096D01*
X003381Y026109D01*
X003504Y026137D01*
X003514Y026140D01*
X003494Y026120D01*
X003415Y026021D01*
X003348Y025914D01*
X003293Y025800D01*
X003287Y025783D01*
X003255Y025815D01*
X003177Y025871D01*
X003091Y025915D01*
X003000Y025944D01*
X002905Y025959D01*
X002876Y025959D01*
X002876Y025368D01*
X003467Y025368D01*
X003467Y025397D01*
X003459Y025449D01*
X004254Y025449D01*
X004254Y026492D01*
X004145Y026480D01*
X004022Y026452D01*
X004011Y026448D01*
X004032Y026469D01*
X004111Y026567D01*
X004178Y026674D01*
X004233Y026788D01*
X004275Y026907D01*
X004303Y027031D01*
X004315Y027139D01*
X003272Y027139D01*
X003272Y027299D01*
X004315Y027299D01*
X004303Y027408D01*
X004275Y027531D01*
X004233Y027651D01*
X004178Y027764D01*
X004111Y027871D01*
X004032Y027970D01*
X003943Y028059D01*
X003844Y028138D01*
X003737Y028205D01*
X003623Y028260D01*
X003504Y028302D01*
X003381Y028330D01*
X003272Y028342D01*
X003272Y027299D01*
X003112Y027299D01*
X003112Y028342D01*
X003003Y028330D01*
X002947Y028317D01*
X003379Y028749D01*
X003427Y028866D01*
X003427Y028994D01*
X003427Y030860D01*
X004718Y030860D01*
X004805Y030773D01*
X004982Y030700D01*
X005733Y030700D01*
X005909Y030773D01*
X006044Y030908D01*
X006100Y031042D01*
X006327Y030814D01*
X006327Y028026D01*
X006218Y028136D01*
X005957Y028286D01*
X005665Y028364D01*
X005364Y028364D01*
X005073Y028286D01*
X004812Y028136D01*
X004599Y027922D01*
X004448Y027661D01*
X004370Y027370D01*
X004370Y027069D01*
X004448Y026777D01*
X004599Y026516D01*
X004673Y026442D01*
X004646Y026452D01*
X004522Y026480D01*
X004414Y026492D01*
X004414Y025449D01*
X004254Y025449D01*
X004254Y025289D01*
X003465Y025289D01*
X003467Y025301D01*
X003467Y025331D01*
X002876Y025331D01*
X002876Y025368D01*
X002839Y025368D01*
X002839Y025959D01*
X002809Y025959D01*
X002714Y025944D01*
X002623Y025915D01*
X002538Y025871D01*
X002460Y025815D01*
X002392Y025747D01*
X002336Y025669D01*
X002292Y025583D01*
X002262Y025492D01*
X002247Y025397D01*
X002247Y025368D01*
X002839Y025368D01*
X002839Y025331D01*
X002876Y025331D01*
X002876Y024739D01*
X002905Y024739D01*
X003000Y024754D01*
X003091Y024784D01*
X003177Y024828D01*
X003255Y024884D01*
X003298Y024927D01*
X003348Y024824D01*
X003415Y024717D01*
X003494Y024618D01*
X003583Y024529D01*
X003682Y024450D01*
X003746Y024410D01*
X003310Y024410D01*
X003214Y024505D01*
X002983Y024601D01*
X002732Y024601D01*
X002500Y024505D01*
X002323Y024328D01*
X002227Y024097D01*
X002227Y023846D01*
X002323Y023614D01*
X002500Y023437D01*
X002732Y023341D01*
X002983Y023341D01*
X003214Y023437D01*
X003227Y023450D01*
X005953Y023450D01*
X006077Y023502D01*
X006077Y016620D01*
X005816Y016620D01*
X005617Y016421D01*
X005617Y016139D01*
X005637Y016119D01*
X005637Y013841D01*
X005617Y013821D01*
X005617Y013539D01*
X005816Y013340D01*
X006077Y013340D01*
X006077Y012069D01*
X005661Y012485D01*
X005613Y012505D01*
X005598Y012520D01*
X005577Y012520D01*
X005529Y012540D01*
X005386Y012540D01*
X005337Y012520D01*
X005316Y012520D01*
X005302Y012505D01*
X005253Y012485D01*
X005152Y012384D01*
X005132Y012336D01*
X005117Y012321D01*
X005117Y012300D01*
X005097Y012252D01*
X005097Y012108D01*
X005117Y012060D01*
X005117Y012039D01*
X005132Y012024D01*
X005152Y011976D01*
X005497Y011631D01*
X005497Y008708D01*
X005517Y008660D01*
X005517Y008639D01*
X005517Y004000D01*
X005799Y004000D02*
X002990Y004000D01*
X002957Y004033D02*
X002957Y011840D01*
X002998Y011840D02*
X003197Y012039D01*
X003197Y012321D01*
X003177Y012341D01*
X003177Y016319D01*
X003197Y016339D01*
X003197Y016621D01*
X002998Y016820D01*
X002716Y016820D01*
X002517Y016621D01*
X002517Y016339D01*
X002537Y016319D01*
X002537Y012341D01*
X002517Y012321D01*
X002517Y012039D01*
X002716Y011840D01*
X002998Y011840D01*
X003078Y011920D02*
X005208Y011920D01*
X005197Y011931D02*
X005197Y004000D01*
X004877Y004000D02*
X004877Y017457D01*
X004926Y017409D02*
X004926Y017409D01*
X004086Y018249D01*
X004086Y018249D01*
X004037Y018297D01*
X004037Y018563D01*
X004086Y018611D01*
X004086Y018611D01*
X004176Y018701D01*
X004176Y018701D01*
X004225Y018750D01*
X004490Y018750D01*
X004539Y018701D01*
X004539Y018701D01*
X005379Y017861D01*
X005379Y017861D01*
X005427Y017813D01*
X005427Y017547D01*
X005379Y017499D01*
X005379Y017499D01*
X005289Y017409D01*
X005289Y017409D01*
X005240Y017360D01*
X006077Y017360D01*
X006077Y017680D02*
X005427Y017680D01*
X005240Y017360D02*
X004975Y017360D01*
X002177Y017360D01*
X002177Y017040D02*
X006077Y017040D01*
X006077Y016720D02*
X003098Y016720D01*
X002957Y016820D02*
X002957Y023341D01*
X003217Y023440D02*
X006077Y023440D01*
X005837Y023450D02*
X005837Y016620D01*
X005617Y016400D02*
X003197Y016400D01*
X003177Y016080D02*
X005637Y016080D01*
X005637Y015760D02*
X003177Y015760D01*
X003177Y015440D02*
X005637Y015440D01*
X005637Y015120D02*
X003177Y015120D01*
X003177Y014800D02*
X005637Y014800D01*
X005637Y014480D02*
X003177Y014480D01*
X003177Y014160D02*
X005637Y014160D01*
X005636Y013840D02*
X003177Y013840D01*
X003177Y013520D02*
X005636Y013520D01*
X005837Y013340D02*
X005837Y012309D01*
X005906Y012240D02*
X006077Y012240D01*
X006077Y012560D02*
X003177Y012560D01*
X003177Y012880D02*
X006077Y012880D01*
X006077Y013200D02*
X003177Y013200D01*
X002537Y013200D02*
X002177Y013200D01*
X002177Y012880D02*
X002537Y012880D01*
X002537Y012560D02*
X002177Y012560D01*
X002177Y012240D02*
X002517Y012240D01*
X002636Y011920D02*
X002177Y011920D01*
X002177Y011600D02*
X005497Y011600D01*
X005497Y011280D02*
X002177Y011280D01*
X002177Y010960D02*
X005497Y010960D01*
X005497Y010640D02*
X002177Y010640D01*
X002177Y010320D02*
X005497Y010320D01*
X005497Y010000D02*
X002177Y010000D01*
X002177Y009680D02*
X005497Y009680D01*
X005497Y009360D02*
X002177Y009360D01*
X002177Y009040D02*
X005497Y009040D01*
X005497Y008720D02*
X002177Y008720D01*
X002177Y008400D02*
X006077Y008400D01*
X006061Y008475D02*
X006077Y008491D01*
X006077Y005124D01*
X006120Y005021D01*
X006199Y004943D01*
X006302Y004900D01*
X006799Y004900D01*
X006743Y004844D01*
X006743Y004430D01*
X007036Y004137D01*
X007450Y004137D01*
X007036Y004137D01*
X006743Y003844D01*
X006743Y003430D01*
X007036Y003137D01*
X007450Y003137D01*
X007743Y003430D01*
X007743Y003844D01*
X007450Y004137D01*
X007743Y004430D01*
X008036Y004137D01*
X008450Y004137D01*
X008036Y004137D01*
X007743Y003844D01*
X007743Y003430D01*
X008036Y003137D01*
X008450Y003137D01*
X008727Y003414D01*
X009699Y002443D01*
X009802Y002400D01*
X013935Y002400D01*
X007496Y002400D01*
X006131Y003856D01*
X006129Y003861D01*
X006087Y003903D01*
X006047Y003945D01*
X006042Y003948D01*
X006039Y003951D01*
X005985Y003974D01*
X005931Y003998D01*
X005926Y003998D01*
X005921Y004000D01*
X005862Y004000D01*
X005804Y004002D01*
X005799Y004000D01*
X005837Y004001D02*
X005837Y008420D01*
X005786Y008420D02*
X005929Y008420D01*
X005977Y008440D01*
X005998Y008440D01*
X006013Y008455D01*
X006061Y008475D01*
X005786Y008420D02*
X005737Y008440D01*
X005716Y008440D01*
X005702Y008455D01*
X005653Y008475D01*
X005552Y008576D01*
X005532Y008624D01*
X005517Y008639D01*
X006077Y008080D02*
X002177Y008080D01*
X002177Y007760D02*
X006077Y007760D01*
X006077Y007440D02*
X002177Y007440D01*
X002177Y007120D02*
X006077Y007120D01*
X006077Y006800D02*
X002177Y006800D01*
X002177Y006480D02*
X006077Y006480D01*
X006077Y006160D02*
X002177Y006160D01*
X002177Y005840D02*
X006077Y005840D01*
X006077Y005520D02*
X002177Y005520D01*
X002177Y005200D02*
X006077Y005200D01*
X006157Y004984D02*
X006157Y003828D01*
X006071Y003920D02*
X006819Y003920D01*
X006797Y003898D02*
X006797Y004375D01*
X006933Y004240D02*
X002750Y004240D01*
X002637Y004353D02*
X002637Y011919D01*
X003197Y012240D02*
X005097Y012240D01*
X005197Y012429D02*
X005197Y017360D01*
X004975Y017360D02*
X004926Y017409D01*
X004655Y017680D02*
X002177Y017680D01*
X002177Y018000D02*
X004335Y018000D01*
X004237Y018097D02*
X004237Y004000D01*
X003917Y004000D02*
X003917Y023450D01*
X003597Y023450D02*
X003597Y004000D01*
X003277Y004000D02*
X003277Y023450D01*
X002637Y023381D02*
X002637Y016741D01*
X002616Y016720D02*
X002177Y016720D01*
X002177Y016400D02*
X002517Y016400D01*
X002537Y016080D02*
X002177Y016080D01*
X002177Y015760D02*
X002537Y015760D01*
X002537Y015440D02*
X002177Y015440D01*
X002177Y015120D02*
X002537Y015120D01*
X002537Y014800D02*
X002177Y014800D01*
X002177Y014480D02*
X002537Y014480D01*
X002537Y014160D02*
X002177Y014160D01*
X002177Y013840D02*
X002537Y013840D01*
X002537Y013520D02*
X002177Y013520D01*
X005517Y012540D02*
X005517Y023450D01*
X005197Y023450D02*
X005197Y018043D01*
X005240Y018000D02*
X006077Y018000D01*
X006077Y018320D02*
X004920Y018320D01*
X004877Y018363D02*
X004877Y023450D01*
X004557Y023450D02*
X004557Y018683D01*
X004600Y018640D02*
X006077Y018640D01*
X006077Y018960D02*
X002177Y018960D01*
X002177Y018640D02*
X004115Y018640D01*
X004237Y018750D02*
X004237Y023450D01*
X003597Y024410D02*
X003597Y024517D01*
X003413Y024720D02*
X002177Y024720D01*
X002392Y024952D02*
X002460Y024884D01*
X002538Y024828D01*
X002623Y024784D01*
X002714Y024754D01*
X002809Y024739D01*
X002839Y024739D01*
X002839Y025331D01*
X002247Y025331D01*
X002247Y025301D01*
X002262Y025206D01*
X002292Y025115D01*
X002336Y025030D01*
X002392Y024952D01*
X002330Y025040D02*
X002177Y025040D01*
X002317Y025065D02*
X002317Y024314D01*
X002395Y024400D02*
X002177Y024400D01*
X002177Y024080D02*
X002227Y024080D01*
X002263Y023760D02*
X002177Y023760D01*
X002317Y023629D02*
X002317Y004673D01*
X002430Y004560D02*
X006743Y004560D01*
X006779Y004880D02*
X002177Y004880D01*
X004557Y004000D02*
X004557Y017777D01*
X004037Y018320D02*
X002177Y018320D01*
X002177Y019280D02*
X006077Y019280D01*
X006077Y019600D02*
X002177Y019600D01*
X002177Y019920D02*
X006077Y019920D01*
X006077Y020240D02*
X002177Y020240D01*
X002177Y020560D02*
X006077Y020560D01*
X006077Y020880D02*
X002177Y020880D01*
X002177Y021200D02*
X006077Y021200D01*
X006077Y021520D02*
X002177Y021520D01*
X002177Y021840D02*
X006077Y021840D01*
X006077Y022160D02*
X002177Y022160D01*
X002177Y022480D02*
X006077Y022480D01*
X006077Y022800D02*
X002177Y022800D01*
X002177Y023120D02*
X006077Y023120D01*
X006637Y023120D02*
X008019Y023120D01*
X008036Y023137D02*
X007743Y022844D01*
X007743Y022430D01*
X008036Y022137D01*
X008450Y022137D01*
X008036Y022137D01*
X007743Y021844D01*
X007450Y022137D01*
X007036Y022137D01*
X006743Y021844D01*
X006743Y021430D01*
X007036Y021137D01*
X007450Y021137D01*
X007036Y021137D01*
X006743Y020844D01*
X006743Y020500D01*
X006725Y020500D01*
X006637Y020413D01*
X006637Y024564D01*
X006766Y024693D01*
X006845Y024771D01*
X006887Y024874D01*
X006887Y030986D01*
X006845Y031089D01*
X005095Y032839D01*
X005037Y032896D01*
X039824Y032896D01*
X040447Y032273D01*
X040447Y002583D01*
X039824Y001960D01*
X019090Y001960D01*
X019313Y002183D01*
X019456Y002183D01*
X019639Y002259D01*
X019778Y002399D01*
X019854Y002581D01*
X019854Y002779D01*
X019778Y002961D01*
X019639Y003101D01*
X019456Y003177D01*
X019258Y003177D01*
X019076Y003101D01*
X018936Y002961D01*
X018860Y002779D01*
X018860Y002636D01*
X018828Y002603D01*
X018834Y002642D01*
X018834Y002662D01*
X018376Y002662D01*
X018376Y002698D01*
X018834Y002698D01*
X018834Y002718D01*
X018822Y002792D01*
X018799Y002863D01*
X018765Y002930D01*
X018721Y002991D01*
X018668Y003044D01*
X018607Y003088D01*
X018540Y003122D01*
X018469Y003145D01*
X018395Y003157D01*
X018376Y003157D01*
X018376Y002698D01*
X018339Y002698D01*
X018339Y002662D01*
X017880Y002662D01*
X017880Y002642D01*
X017892Y002568D01*
X017915Y002497D01*
X017949Y002430D01*
X017971Y002400D01*
X017743Y002400D01*
X017765Y002430D01*
X017799Y002497D01*
X017822Y002568D01*
X017834Y002642D01*
X017834Y002662D01*
X017376Y002662D01*
X017376Y002698D01*
X017834Y002698D01*
X017834Y002718D01*
X017822Y002792D01*
X017799Y002863D01*
X017765Y002930D01*
X017721Y002991D01*
X017668Y003044D01*
X017607Y003088D01*
X017540Y003122D01*
X017469Y003145D01*
X017395Y003157D01*
X017376Y003157D01*
X017376Y002698D01*
X017339Y002698D01*
X017339Y002662D01*
X016880Y002662D01*
X016880Y002642D01*
X016892Y002568D01*
X016915Y002497D01*
X016949Y002430D01*
X016971Y002400D01*
X016779Y002400D01*
X016854Y002581D01*
X016854Y002779D01*
X016778Y002961D01*
X016717Y003023D01*
X016717Y007924D01*
X018037Y006604D01*
X018037Y006547D01*
X018225Y006360D01*
X018490Y006360D01*
X018677Y006547D01*
X018677Y006813D01*
X018490Y007000D01*
X018433Y007000D01*
X017137Y008296D01*
X017137Y009007D01*
X017177Y009047D01*
X017177Y009313D01*
X016990Y009500D01*
X016725Y009500D01*
X016717Y009493D01*
X016717Y012674D01*
X019787Y009604D01*
X019787Y009547D01*
X019975Y009360D01*
X017130Y009360D01*
X017037Y009453D02*
X017037Y012354D01*
X017151Y012240D02*
X016717Y012240D01*
X016717Y011920D02*
X017471Y011920D01*
X017357Y012034D02*
X017357Y008076D01*
X017353Y008080D02*
X020327Y008080D01*
X020327Y007796D02*
X020031Y007500D01*
X019975Y007500D01*
X019787Y007313D01*
X019787Y007047D01*
X019975Y006860D01*
X020240Y006860D01*
X020427Y007047D01*
X020427Y007104D01*
X020766Y007443D01*
X020827Y007504D01*
X020827Y007374D01*
X020870Y007271D01*
X020949Y007193D01*
X021287Y006854D01*
X021287Y006797D01*
X021405Y006680D01*
X021287Y006563D01*
X021287Y006297D01*
X021475Y006110D01*
X021740Y006110D01*
X021927Y006297D01*
X021927Y006354D01*
X024516Y008943D01*
X024595Y009021D01*
X024637Y009124D01*
X024637Y012004D01*
X024699Y011943D01*
X029287Y007354D01*
X029287Y007297D01*
X029475Y007110D01*
X029740Y007110D01*
X029927Y007297D01*
X029927Y007563D01*
X029740Y007750D01*
X029683Y007750D01*
X025137Y012296D01*
X025137Y012507D01*
X025177Y012547D01*
X025177Y012813D01*
X024990Y013000D01*
X024725Y013000D01*
X024637Y012913D01*
X024637Y021258D01*
X024639Y021259D01*
X024778Y021399D01*
X024854Y021581D01*
X024854Y021779D01*
X024804Y021900D01*
X024911Y021900D01*
X024860Y021779D01*
X024860Y021581D01*
X024936Y021399D01*
X025076Y021259D01*
X025258Y021183D01*
X025456Y021183D01*
X025639Y021259D01*
X025778Y021399D01*
X025854Y021581D01*
X025854Y021779D01*
X025804Y021900D01*
X025911Y021900D01*
X025860Y021779D01*
X025860Y021581D01*
X025936Y021399D01*
X026076Y021259D01*
X026258Y021183D01*
X026456Y021183D01*
X026594Y021240D01*
X026725Y021110D01*
X026990Y021110D01*
X027177Y021297D01*
X027177Y021563D01*
X027137Y021603D01*
X027137Y024564D01*
X027776Y025203D01*
X027952Y025203D01*
X028128Y025275D01*
X028262Y025410D01*
X028334Y025585D01*
X028334Y025775D01*
X028262Y025950D01*
X028128Y026085D01*
X027952Y026157D01*
X027762Y026157D01*
X027628Y026101D01*
X027637Y026124D01*
X027637Y030279D01*
X027682Y030256D01*
X027750Y030234D01*
X027821Y030223D01*
X027849Y030223D01*
X027849Y030671D01*
X027866Y030671D01*
X027866Y030223D01*
X027893Y030223D01*
X027964Y030234D01*
X028033Y030256D01*
X028097Y030289D01*
X028155Y030331D01*
X028206Y030382D01*
X028248Y030440D01*
X028281Y030505D01*
X028303Y030573D01*
X028314Y030644D01*
X028314Y030671D01*
X027866Y030671D01*
X027866Y030689D01*
X027849Y030689D01*
X027849Y031137D01*
X027821Y031137D01*
X027750Y031126D01*
X027682Y031104D01*
X027672Y031099D01*
X027933Y031360D01*
X027990Y031360D01*
X028177Y031547D01*
X028177Y031813D01*
X027990Y032000D01*
X027725Y032000D01*
X027537Y031813D01*
X027537Y031756D01*
X027199Y031417D01*
X027120Y031339D01*
X027107Y031308D01*
X027095Y031339D01*
X027016Y031417D01*
X026913Y031460D01*
X026361Y031460D01*
X026407Y031571D01*
X026407Y031789D01*
X026324Y031992D01*
X026169Y032146D01*
X025967Y032230D01*
X025748Y032230D01*
X025546Y032146D01*
X025391Y031992D01*
X025357Y031910D01*
X025324Y031992D01*
X025169Y032146D01*
X024967Y032230D01*
X024748Y032230D01*
X024546Y032146D01*
X024391Y031992D01*
X024357Y031910D01*
X024324Y031992D01*
X024169Y032146D01*
X023967Y032230D01*
X023748Y032230D01*
X023546Y032146D01*
X023391Y031992D01*
X023357Y031910D01*
X023324Y031992D01*
X023169Y032146D01*
X022967Y032230D01*
X022748Y032230D01*
X022546Y032146D01*
X022391Y031992D01*
X022307Y031789D01*
X022307Y031571D01*
X022353Y031460D01*
X018302Y031460D01*
X018199Y031417D01*
X018120Y031339D01*
X017938Y031157D01*
X017762Y031157D01*
X017587Y031085D01*
X017453Y030950D01*
X017380Y030775D01*
X017380Y030585D01*
X017453Y030410D01*
X017587Y030275D01*
X017762Y030203D01*
X017952Y030203D01*
X018128Y030275D01*
X018262Y030410D01*
X018334Y030585D01*
X018334Y030761D01*
X018439Y030865D01*
X018434Y030855D01*
X018411Y030787D01*
X018400Y030716D01*
X018400Y030689D01*
X018849Y030689D01*
X018849Y030900D01*
X018866Y030900D01*
X018866Y030689D01*
X018849Y030689D01*
X018849Y030671D01*
X018866Y030671D01*
X018866Y030223D01*
X018893Y030223D01*
X018964Y030234D01*
X019033Y030256D01*
X019097Y030289D01*
X019155Y030331D01*
X019206Y030382D01*
X019248Y030440D01*
X019281Y030505D01*
X019303Y030573D01*
X019314Y030644D01*
X019314Y030671D01*
X018866Y030671D01*
X018866Y030689D01*
X019314Y030689D01*
X019314Y030716D01*
X019303Y030787D01*
X019281Y030855D01*
X019258Y030900D01*
X020432Y030900D01*
X020380Y030775D01*
X020380Y030585D01*
X020453Y030410D01*
X020587Y030275D01*
X020762Y030203D01*
X020952Y030203D01*
X021128Y030275D01*
X021262Y030410D01*
X021334Y030585D01*
X021334Y030775D01*
X021283Y030900D01*
X021456Y030900D01*
X021434Y030855D01*
X021411Y030787D01*
X021400Y030716D01*
X021400Y030689D01*
X021849Y030689D01*
X021849Y030671D01*
X021866Y030671D01*
X021866Y030223D01*
X021893Y030223D01*
X021964Y030234D01*
X022033Y030256D01*
X022097Y030289D01*
X022155Y030331D01*
X022206Y030382D01*
X022248Y030440D01*
X022281Y030505D01*
X022303Y030573D01*
X022314Y030644D01*
X022314Y030671D01*
X021866Y030671D01*
X021866Y030689D01*
X022314Y030689D01*
X022314Y030716D01*
X022303Y030787D01*
X022281Y030855D01*
X022258Y030900D01*
X022429Y030900D01*
X022377Y030775D01*
X022377Y030318D01*
X022166Y029980D01*
X021874Y029980D01*
X021757Y029863D01*
X021757Y028897D01*
X021874Y028780D01*
X022840Y028780D01*
X022957Y028897D01*
X022957Y029434D01*
X023235Y029879D01*
X023264Y029908D01*
X023285Y029959D01*
X023315Y030007D01*
X023322Y030047D01*
X023337Y030085D01*
X023337Y030140D01*
X023346Y030195D01*
X023337Y030235D01*
X023337Y030775D01*
X023286Y030900D01*
X023432Y030900D01*
X023380Y030775D01*
X023380Y030585D01*
X023453Y030410D01*
X023587Y030275D01*
X023762Y030203D01*
X023952Y030203D01*
X024128Y030275D01*
X024262Y030410D01*
X024334Y030585D01*
X024334Y030775D01*
X024283Y030900D01*
X024429Y030900D01*
X024377Y030775D01*
X024377Y029835D01*
X024450Y029658D01*
X024541Y029567D01*
X024513Y029499D01*
X024513Y029261D01*
X024605Y029040D01*
X024773Y028871D01*
X024994Y028780D01*
X025233Y028780D01*
X025453Y028871D01*
X025622Y029040D01*
X025713Y029261D01*
X025713Y029499D01*
X025622Y029720D01*
X025586Y029756D01*
X025586Y029773D01*
X025891Y029467D01*
X025891Y029261D01*
X025982Y029040D01*
X026151Y028871D01*
X026372Y028780D01*
X026610Y028780D01*
X026831Y028871D01*
X027000Y029040D01*
X027077Y029227D01*
X027077Y028710D01*
X020802Y028710D01*
X020699Y028667D01*
X020620Y028589D01*
X018137Y026106D01*
X018137Y027314D01*
X019433Y028610D01*
X019490Y028610D01*
X019677Y028797D01*
X019677Y029063D01*
X019490Y029250D01*
X019225Y029250D01*
X019037Y029063D01*
X019037Y029006D01*
X017699Y027667D01*
X017620Y027589D01*
X017577Y027486D01*
X017577Y026106D01*
X017516Y026167D01*
X016427Y027256D01*
X016427Y027313D01*
X016240Y027500D01*
X015975Y027500D01*
X015787Y027313D01*
X015787Y027047D01*
X015975Y026860D01*
X016031Y026860D01*
X016742Y026149D01*
X016587Y026085D01*
X016453Y025950D01*
X016380Y025775D01*
X016380Y025585D01*
X016453Y025410D01*
X016587Y025275D01*
X016762Y025203D01*
X016952Y025203D01*
X017077Y025255D01*
X017077Y022874D01*
X017120Y022771D01*
X017714Y022177D01*
X017658Y022177D01*
X017476Y022101D01*
X017336Y021961D01*
X017260Y021779D01*
X017260Y021581D01*
X017336Y021399D01*
X017476Y021259D01*
X017658Y021183D01*
X017856Y021183D01*
X018039Y021259D01*
X018077Y021297D01*
X018077Y020624D01*
X018120Y020521D01*
X018199Y020443D01*
X018302Y020400D01*
X022375Y020400D01*
X022287Y020313D01*
X022287Y020047D01*
X022327Y020007D01*
X022327Y019353D01*
X022287Y019313D01*
X022287Y019047D01*
X022375Y018960D01*
X022223Y018960D01*
X022375Y018960D01*
X022223Y018960D02*
X021677Y019506D01*
X021677Y019563D01*
X021560Y019680D01*
X021677Y019797D01*
X021677Y020063D01*
X021490Y020250D01*
X021225Y020250D01*
X021037Y020063D01*
X021037Y020006D01*
X020699Y019667D01*
X020620Y019589D01*
X020577Y019486D01*
X020577Y019124D01*
X020620Y019021D01*
X022287Y017354D01*
X022287Y017297D01*
X022475Y017110D01*
X022740Y017110D01*
X022927Y017297D01*
X022927Y017563D01*
X022740Y017750D01*
X022683Y017750D01*
X022020Y018413D01*
X022052Y018400D01*
X023913Y018400D01*
X024016Y018443D01*
X024077Y018504D01*
X024077Y009296D01*
X021886Y007104D01*
X021740Y007250D01*
X021683Y007250D01*
X021387Y007546D01*
X021387Y012757D01*
X021427Y012797D01*
X021427Y013063D01*
X021387Y013103D01*
X021387Y017007D01*
X021427Y017047D01*
X021427Y017313D01*
X021240Y017500D01*
X020975Y017500D01*
X020887Y017413D01*
X020887Y018007D01*
X020927Y018047D01*
X020927Y018313D01*
X020740Y018500D01*
X020630Y018500D01*
X020677Y018547D01*
X020677Y018813D01*
X020490Y019000D01*
X020380Y019000D01*
X020427Y019047D01*
X020427Y019313D01*
X020240Y019500D01*
X019975Y019500D01*
X019787Y019313D01*
X019787Y019256D01*
X017199Y016667D01*
X017137Y016606D01*
X017137Y017007D01*
X017177Y017047D01*
X017177Y017313D01*
X017088Y017402D01*
X017162Y017476D01*
X017217Y017608D01*
X017217Y017752D01*
X017162Y017884D01*
X017061Y017985D01*
X016929Y018040D01*
X016786Y018040D01*
X016653Y017985D01*
X016357Y017689D01*
X013146Y020900D01*
X015163Y020900D01*
X015266Y020943D01*
X015345Y021021D01*
X015551Y021228D01*
X015658Y021183D01*
X015856Y021183D01*
X016039Y021259D01*
X016178Y021399D01*
X016254Y021581D01*
X016254Y021637D01*
X016260Y021631D01*
X016260Y021581D01*
X016336Y021399D01*
X016476Y021259D01*
X016658Y021183D01*
X016856Y021183D01*
X017039Y021259D01*
X017178Y021399D01*
X017254Y021581D01*
X017254Y021779D01*
X017178Y021961D01*
X017039Y022101D01*
X016856Y022177D01*
X016658Y022177D01*
X016551Y022132D01*
X013637Y025046D01*
X013637Y025255D01*
X013762Y025203D01*
X013952Y025203D01*
X014128Y025275D01*
X014262Y025410D01*
X014334Y025585D01*
X014334Y025775D01*
X014262Y025950D01*
X014128Y026085D01*
X013952Y026157D01*
X013762Y026157D01*
X013637Y026105D01*
X013637Y028736D01*
X013619Y028780D01*
X013840Y028780D01*
X013957Y028897D01*
X013957Y029434D01*
X014235Y029879D01*
X014264Y029908D01*
X014285Y029959D01*
X014315Y030007D01*
X014322Y030047D01*
X014337Y030085D01*
X014337Y030140D01*
X014346Y030195D01*
X014337Y030235D01*
X014337Y030775D01*
X014264Y030952D01*
X014129Y031087D01*
X013996Y031142D01*
X014169Y031214D01*
X014324Y031368D01*
X014357Y031450D01*
X014391Y031368D01*
X014546Y031214D01*
X014722Y031141D01*
X014587Y031085D01*
X014453Y030950D01*
X014380Y030775D01*
X014380Y030585D01*
X014453Y030410D01*
X014587Y030275D01*
X014762Y030203D01*
X014952Y030203D01*
X015128Y030275D01*
X015262Y030410D01*
X015334Y030585D01*
X015334Y030775D01*
X015262Y030950D01*
X015128Y031085D01*
X014992Y031141D01*
X015169Y031214D01*
X015324Y031368D01*
X015357Y031450D01*
X015391Y031368D01*
X015546Y031214D01*
X015722Y031141D01*
X015587Y031085D01*
X015453Y030950D01*
X015380Y030775D01*
X015380Y030585D01*
X015453Y030410D01*
X015587Y030275D01*
X015762Y030203D01*
X015952Y030203D01*
X016128Y030275D01*
X016262Y030410D01*
X016334Y030585D01*
X016334Y030775D01*
X016262Y030950D01*
X016128Y031085D01*
X015992Y031141D01*
X016169Y031214D01*
X016324Y031368D01*
X016357Y031450D01*
X016391Y031368D01*
X016546Y031214D01*
X016719Y031142D01*
X016585Y031087D01*
X016450Y030952D01*
X016377Y030775D01*
X016377Y030085D01*
X016450Y029908D01*
X016585Y029773D01*
X016891Y029467D01*
X016891Y029261D01*
X016982Y029040D01*
X017151Y028871D01*
X017372Y028780D01*
X017610Y028780D01*
X017831Y028871D01*
X018000Y029040D01*
X018091Y029261D01*
X018091Y029499D01*
X018000Y029720D01*
X017831Y029889D01*
X017782Y029909D01*
X017764Y029952D01*
X017337Y030379D01*
X017337Y030775D01*
X017264Y030952D01*
X017129Y031087D01*
X016996Y031142D01*
X017169Y031214D01*
X017324Y031368D01*
X017407Y031571D01*
X017407Y031789D01*
X017324Y031992D01*
X017169Y032146D01*
X016967Y032230D01*
X016748Y032230D01*
X016546Y032146D01*
X016391Y031992D01*
X016357Y031910D01*
X016324Y031992D01*
X016169Y032146D01*
X015967Y032230D01*
X015748Y032230D01*
X015546Y032146D01*
X015391Y031992D01*
X015357Y031910D01*
X015324Y031992D01*
X015169Y032146D01*
X014967Y032230D01*
X014748Y032230D01*
X014546Y032146D01*
X014391Y031992D01*
X014357Y031910D01*
X014324Y031992D01*
X014169Y032146D01*
X013967Y032230D01*
X013748Y032230D01*
X013546Y032146D01*
X013391Y031992D01*
X013307Y031789D01*
X013307Y031571D01*
X013391Y031368D01*
X013546Y031214D01*
X013719Y031142D01*
X013585Y031087D01*
X013450Y030952D01*
X013377Y030775D01*
X013377Y030318D01*
X013166Y029980D01*
X012874Y029980D01*
X012757Y029863D01*
X012757Y029676D01*
X012637Y029796D01*
X012637Y030279D01*
X012682Y030256D01*
X012750Y030234D01*
X012821Y030223D01*
X012849Y030223D01*
X012849Y030671D01*
X012866Y030671D01*
X012866Y030223D01*
X012893Y030223D01*
X012964Y030234D01*
X013033Y030256D01*
X013097Y030289D01*
X013155Y030331D01*
X013206Y030382D01*
X013248Y030440D01*
X013281Y030505D01*
X013303Y030573D01*
X013314Y030644D01*
X013314Y030671D01*
X012866Y030671D01*
X012866Y030689D01*
X012849Y030689D01*
X012849Y031137D01*
X012821Y031137D01*
X012750Y031126D01*
X012682Y031104D01*
X012618Y031071D01*
X012606Y031062D01*
X012595Y031089D01*
X011345Y032339D01*
X011266Y032417D01*
X011163Y032460D01*
X008802Y032460D01*
X008699Y032417D01*
X008620Y032339D01*
X008577Y032236D01*
X008577Y032105D01*
X008574Y032104D01*
X008433Y031963D01*
X008357Y031779D01*
X008357Y031581D01*
X008433Y031397D01*
X008574Y031256D01*
X008758Y031180D01*
X008574Y031104D01*
X008433Y030963D01*
X008357Y030779D01*
X008357Y030581D01*
X008433Y030397D01*
X008574Y030256D01*
X008577Y030255D01*
X008577Y023010D01*
X008450Y023137D01*
X008036Y023137D01*
X008077Y023137D02*
X008077Y032896D01*
X007757Y032896D02*
X007757Y022858D01*
X007723Y022836D02*
X007442Y023117D01*
X007263Y023117D01*
X007263Y022657D01*
X007223Y022657D01*
X007223Y023117D01*
X007044Y023117D01*
X006763Y022836D01*
X006763Y022657D01*
X007223Y022657D01*
X007223Y022617D01*
X006763Y022617D01*
X006763Y022438D01*
X007044Y022157D01*
X007223Y022157D01*
X007223Y022617D01*
X007263Y022617D01*
X007263Y022657D01*
X007723Y022657D01*
X007723Y022836D01*
X007723Y022800D02*
X007743Y022800D01*
X007723Y022617D02*
X007263Y022617D01*
X007263Y022157D01*
X007442Y022157D01*
X007723Y022438D01*
X007723Y022617D01*
X007723Y022480D02*
X007743Y022480D01*
X007757Y022415D02*
X007757Y021858D01*
X007743Y021844D02*
X007743Y021677D01*
X007743Y021844D01*
X007743Y021840D02*
X007743Y021840D01*
X007743Y021677D02*
X007743Y021677D01*
X007607Y021430D02*
X007357Y021430D01*
X007243Y021637D01*
X007607Y021430D02*
X007857Y021180D01*
X008607Y021180D01*
X008607Y020930D01*
X010857Y018680D01*
X010893Y019040D02*
X009033Y020900D01*
X012568Y020900D01*
X012552Y020884D01*
X012497Y020752D01*
X012497Y020608D01*
X012552Y020476D01*
X015997Y017031D01*
X015997Y007493D01*
X015990Y007500D01*
X015933Y007500D01*
X012927Y010506D01*
X012927Y010563D01*
X012740Y010750D01*
X012475Y010750D01*
X012287Y010563D01*
X012287Y010297D01*
X012475Y010110D01*
X012531Y010110D01*
X013431Y009210D01*
X011302Y009210D01*
X011217Y009175D01*
X011217Y018752D01*
X011162Y018884D01*
X011061Y018985D01*
X010929Y019040D01*
X010893Y019040D01*
X010957Y019028D02*
X010957Y020900D01*
X010637Y020900D02*
X010637Y019296D01*
X010653Y019280D02*
X013748Y019280D01*
X013837Y019191D02*
X013837Y009596D01*
X013753Y009680D02*
X015997Y009680D01*
X015997Y009360D02*
X014073Y009360D01*
X014157Y009276D02*
X014157Y018871D01*
X014068Y018960D02*
X011086Y018960D01*
X011217Y018640D02*
X014388Y018640D01*
X014477Y018551D02*
X014477Y008956D01*
X014393Y009040D02*
X015997Y009040D01*
X015997Y008720D02*
X014713Y008720D01*
X014797Y008636D02*
X014797Y018231D01*
X014708Y018320D02*
X011217Y018320D01*
X011217Y018000D02*
X015028Y018000D01*
X015117Y017911D02*
X015117Y008316D01*
X015033Y008400D02*
X015997Y008400D01*
X015997Y008080D02*
X015353Y008080D01*
X015437Y007996D02*
X015437Y017591D01*
X015348Y017680D02*
X011217Y017680D01*
X011217Y017360D02*
X015668Y017360D01*
X015757Y017271D02*
X015757Y007676D01*
X015673Y007760D02*
X015997Y007760D01*
X015857Y007180D02*
X012607Y010430D01*
X012365Y010640D02*
X011217Y010640D01*
X011217Y010320D02*
X012287Y010320D01*
X012557Y010084D02*
X012557Y009210D01*
X012237Y009210D02*
X012237Y020900D01*
X012550Y020880D02*
X009053Y020880D01*
X009037Y020896D02*
X009037Y020900D01*
X009357Y020900D02*
X009357Y020576D01*
X009373Y020560D02*
X012517Y020560D01*
X012557Y020471D02*
X012557Y010750D01*
X012850Y010640D02*
X015997Y010640D01*
X015997Y010320D02*
X013113Y010320D01*
X013197Y010236D02*
X013197Y019831D01*
X013108Y019920D02*
X010013Y019920D01*
X009997Y019936D02*
X009997Y020900D01*
X009677Y020900D02*
X009677Y020256D01*
X009693Y020240D02*
X012788Y020240D01*
X012877Y020151D02*
X012877Y010613D01*
X012641Y010000D02*
X011217Y010000D01*
X011217Y009680D02*
X012961Y009680D01*
X012877Y009764D02*
X012877Y009210D01*
X013197Y009210D02*
X013197Y009444D01*
X013281Y009360D02*
X011217Y009360D01*
X011277Y009200D02*
X011277Y020900D01*
X011597Y020900D02*
X011597Y009210D01*
X011917Y009210D02*
X011917Y020900D01*
X012557Y020889D02*
X012557Y020900D01*
X013166Y020880D02*
X018077Y020880D01*
X018077Y021200D02*
X017897Y021200D01*
X017997Y021242D02*
X017997Y017466D01*
X017891Y017360D02*
X017130Y017360D01*
X017170Y017040D02*
X017571Y017040D01*
X017677Y017146D02*
X017677Y021183D01*
X017618Y021200D02*
X016897Y021200D01*
X017037Y021258D02*
X017037Y017995D01*
X017025Y018000D02*
X018531Y018000D01*
X018637Y018106D02*
X018637Y020400D01*
X018317Y020400D02*
X018317Y017786D01*
X018211Y017680D02*
X017217Y017680D01*
X016717Y018012D02*
X016717Y021183D01*
X016618Y021200D02*
X015897Y021200D01*
X015757Y021183D02*
X015757Y018289D01*
X015726Y018320D02*
X018851Y018320D01*
X018957Y018426D02*
X018957Y020400D01*
X019277Y020400D02*
X019277Y018746D01*
X019171Y018640D02*
X015406Y018640D01*
X015437Y018609D02*
X015437Y021114D01*
X015523Y021200D02*
X015618Y021200D01*
X016077Y021297D02*
X016077Y017969D01*
X016046Y018000D02*
X016689Y018000D01*
X016397Y017729D02*
X016397Y021337D01*
X016286Y021520D02*
X016229Y021520D01*
X016607Y021680D02*
X016757Y021680D01*
X016607Y021680D02*
X013357Y024930D01*
X013357Y028680D01*
X012357Y029680D01*
X012357Y030930D01*
X011107Y032180D01*
X008857Y032180D01*
X008857Y031680D01*
X008397Y031484D02*
X008397Y030876D01*
X008366Y030800D02*
X006887Y030800D01*
X006607Y030930D02*
X004857Y032680D01*
X002107Y032680D01*
X002107Y032180D01*
X002467Y031960D01*
X001933Y031760D02*
X001637Y031760D01*
X001897Y031847D02*
X001897Y031993D01*
X001894Y031997D01*
X001870Y032021D01*
X001861Y032042D01*
X001848Y032060D01*
X001840Y032093D01*
X001827Y032124D01*
X001827Y032147D01*
X001822Y032168D01*
X001827Y032202D01*
X001827Y032463D01*
X001637Y032273D01*
X001637Y027913D01*
X001676Y027951D01*
X002555Y028830D01*
X002354Y028830D01*
X002144Y028917D01*
X001984Y029077D01*
X001897Y029287D01*
X001897Y029513D01*
X001984Y029723D01*
X002144Y029883D01*
X002354Y029970D01*
X002581Y029970D01*
X002787Y029884D01*
X002787Y031244D01*
X002836Y031361D01*
X002926Y031451D01*
X003044Y031500D01*
X003945Y031500D01*
X003889Y031540D01*
X003828Y031602D01*
X003777Y031672D01*
X003738Y031749D01*
X003711Y031831D01*
X003697Y031917D01*
X003697Y031940D01*
X004227Y031940D01*
X004227Y031980D01*
X003697Y031980D01*
X003697Y032003D01*
X003711Y032089D01*
X003738Y032171D01*
X003777Y032248D01*
X003828Y032318D01*
X003889Y032380D01*
X003917Y032400D01*
X002833Y032400D01*
X002951Y032283D01*
X003037Y032073D01*
X003037Y031847D01*
X002951Y031637D01*
X002790Y031477D01*
X002581Y031390D01*
X002354Y031390D01*
X002144Y031477D01*
X001984Y031637D01*
X001897Y031847D01*
X001843Y032080D02*
X001637Y032080D01*
X001677Y032313D02*
X001677Y027953D01*
X001645Y027920D02*
X001637Y027920D01*
X001637Y028240D02*
X001965Y028240D01*
X001997Y028273D02*
X001997Y029064D01*
X001933Y029200D02*
X001637Y029200D01*
X001637Y028880D02*
X002233Y028880D01*
X002317Y028845D02*
X002317Y028593D01*
X002285Y028560D02*
X001637Y028560D01*
X001637Y029520D02*
X001900Y029520D01*
X001997Y029736D02*
X001997Y031624D01*
X002233Y031440D02*
X001637Y031440D01*
X001637Y031120D02*
X002787Y031120D01*
X002787Y030800D02*
X001637Y030800D01*
X001637Y030480D02*
X002787Y030480D01*
X002787Y030160D02*
X001637Y030160D01*
X001637Y029840D02*
X002101Y029840D01*
X002317Y029955D02*
X002317Y031405D01*
X002637Y031413D02*
X002637Y029947D01*
X003427Y029840D02*
X003917Y029840D01*
X003917Y030860D01*
X003597Y030860D02*
X003597Y028269D01*
X003665Y028240D02*
X004993Y028240D01*
X004877Y028173D02*
X004877Y029743D01*
X004805Y029773D02*
X004982Y029700D01*
X005733Y029700D01*
X005909Y029773D01*
X006044Y029908D01*
X006117Y030085D01*
X006117Y030275D01*
X006044Y030452D01*
X005909Y030587D01*
X005733Y030660D01*
X004982Y030660D01*
X004805Y030587D01*
X004670Y030452D01*
X004597Y030275D01*
X004597Y030085D01*
X004670Y029908D01*
X004805Y029773D01*
X004738Y029840D02*
X004577Y029840D01*
X004557Y029855D02*
X004557Y030860D01*
X004778Y030800D02*
X003427Y030800D01*
X003427Y030480D02*
X004698Y030480D01*
X004877Y030617D02*
X004877Y030743D01*
X005197Y030700D02*
X005197Y030660D01*
X005517Y030660D02*
X005517Y030700D01*
X005837Y030743D02*
X005837Y030617D01*
X005936Y030800D02*
X006327Y030800D01*
X006157Y030984D02*
X006157Y028170D01*
X006037Y028240D02*
X006327Y028240D01*
X006327Y028560D02*
X003190Y028560D01*
X003277Y028647D02*
X003277Y028342D01*
X003272Y028240D02*
X003112Y028240D01*
X002957Y028320D02*
X002957Y028327D01*
X003112Y027920D02*
X003272Y027920D01*
X003272Y027600D02*
X003112Y027600D01*
X003277Y027299D02*
X003277Y027139D01*
X003272Y027280D02*
X004370Y027280D01*
X004237Y027299D02*
X004237Y027139D01*
X004287Y026960D02*
X004399Y026960D01*
X004237Y026801D02*
X004237Y026490D01*
X004156Y026640D02*
X004527Y026640D01*
X004557Y026588D02*
X004557Y026472D01*
X004414Y026320D02*
X004254Y026320D01*
X004254Y026000D02*
X004414Y026000D01*
X004414Y025680D02*
X004254Y025680D01*
X004237Y025449D02*
X004237Y025289D01*
X004254Y025360D02*
X002876Y025360D01*
X002839Y025360D02*
X002177Y025360D01*
X002317Y025368D02*
X002317Y025331D01*
X002317Y025633D02*
X002317Y026512D01*
X002227Y026640D02*
X002177Y026640D01*
X002177Y026320D02*
X002516Y026320D01*
X002637Y026239D02*
X002637Y025919D01*
X002839Y025680D02*
X002876Y025680D01*
X002957Y025951D02*
X002957Y026119D01*
X003112Y026320D02*
X003272Y026320D01*
X003277Y026097D02*
X003277Y025792D01*
X003402Y026000D02*
X002177Y026000D01*
X002177Y025680D02*
X002344Y025680D01*
X002637Y025368D02*
X002637Y025331D01*
X002957Y025331D02*
X002957Y025368D01*
X003277Y025368D02*
X003277Y025331D01*
X003597Y025289D02*
X003597Y025449D01*
X003917Y025449D02*
X003917Y025289D01*
X003277Y024907D02*
X003277Y024442D01*
X002957Y024601D02*
X002957Y024748D01*
X002876Y025040D02*
X002839Y025040D01*
X002637Y024779D02*
X002637Y024562D01*
X002498Y023440D02*
X002177Y023440D01*
X003112Y026640D02*
X003272Y026640D01*
X003272Y026960D02*
X003112Y026960D01*
X003597Y027139D02*
X003597Y027299D01*
X003917Y027299D02*
X003917Y027139D01*
X004250Y027600D02*
X004431Y027600D01*
X004237Y027638D02*
X004237Y029380D01*
X004227Y029380D02*
X004267Y029380D01*
X004267Y028850D01*
X004291Y028850D01*
X004376Y028864D01*
X004458Y028890D01*
X004536Y028930D01*
X004606Y028980D01*
X004667Y029042D01*
X004718Y029112D01*
X004757Y029189D01*
X004784Y029271D01*
X004797Y029357D01*
X004797Y029380D01*
X004267Y029380D01*
X004267Y029420D01*
X004227Y029420D01*
X004227Y029380D01*
X003697Y029380D01*
X003697Y029357D01*
X003711Y029271D01*
X003738Y029189D01*
X003777Y029112D01*
X003828Y029042D01*
X003889Y028980D01*
X003959Y028930D01*
X004036Y028890D01*
X004118Y028864D01*
X004204Y028850D01*
X004227Y028850D01*
X004227Y029380D01*
X004227Y029420D02*
X003697Y029420D01*
X003697Y029443D01*
X003711Y029529D01*
X003738Y029611D01*
X003777Y029688D01*
X003828Y029758D01*
X003889Y029820D01*
X003959Y029870D01*
X004036Y029910D01*
X004118Y029936D01*
X004204Y029950D01*
X004227Y029950D01*
X004227Y029420D01*
X004237Y029420D02*
X004237Y030860D01*
X004550Y031500D02*
X004606Y031540D01*
X004667Y031602D01*
X004718Y031672D01*
X004757Y031749D01*
X004784Y031831D01*
X004797Y031917D01*
X004797Y031940D01*
X004267Y031940D01*
X004267Y031980D01*
X004797Y031980D01*
X004797Y032003D01*
X004784Y032089D01*
X004757Y032171D01*
X004718Y032248D01*
X004667Y032318D01*
X004606Y032380D01*
X004577Y032400D01*
X004741Y032400D01*
X005481Y031660D01*
X004982Y031660D01*
X004805Y031587D01*
X004718Y031500D01*
X004550Y031500D01*
X004557Y031500D02*
X004557Y031505D01*
X004761Y031760D02*
X005381Y031760D01*
X005197Y031660D02*
X005197Y031944D01*
X005061Y032080D02*
X004785Y032080D01*
X004877Y032264D02*
X004877Y031617D01*
X004557Y031940D02*
X004557Y031980D01*
X003917Y031980D02*
X003917Y031940D01*
X003709Y032080D02*
X003035Y032080D01*
X002957Y032267D02*
X002957Y032400D01*
X003277Y032400D02*
X003277Y031500D01*
X003597Y031500D02*
X003597Y032400D01*
X003734Y031760D02*
X003001Y031760D01*
X002957Y031653D02*
X002957Y031464D01*
X002915Y031440D02*
X002701Y031440D01*
X003917Y031500D02*
X003917Y031520D01*
X003427Y030160D02*
X004597Y030160D01*
X004458Y029910D02*
X004536Y029870D01*
X004606Y029820D01*
X004667Y029758D01*
X004718Y029688D01*
X004757Y029611D01*
X004784Y029529D01*
X004797Y029443D01*
X004797Y029420D01*
X004267Y029420D01*
X004267Y029950D01*
X004291Y029950D01*
X004376Y029936D01*
X004458Y029910D01*
X004267Y029840D02*
X004227Y029840D01*
X004227Y029520D02*
X004267Y029520D01*
X004557Y029420D02*
X004557Y029380D01*
X004785Y029520D02*
X006327Y029520D01*
X006327Y029840D02*
X005976Y029840D01*
X005837Y029743D02*
X005837Y028318D01*
X005517Y028364D02*
X005517Y029700D01*
X005197Y029700D02*
X005197Y028320D01*
X004597Y027920D02*
X004072Y027920D01*
X003917Y028080D02*
X003917Y028960D01*
X004068Y028880D02*
X003427Y028880D01*
X003427Y029200D02*
X003734Y029200D01*
X003917Y029380D02*
X003917Y029420D01*
X003709Y029520D02*
X003427Y029520D01*
X004227Y029200D02*
X004267Y029200D01*
X004267Y028880D02*
X004227Y028880D01*
X004427Y028880D02*
X006327Y028880D01*
X006327Y029200D02*
X004761Y029200D01*
X004557Y028945D02*
X004557Y027851D01*
X006887Y027920D02*
X008577Y027920D01*
X008577Y027600D02*
X006887Y027600D01*
X006887Y027280D02*
X008577Y027280D01*
X008577Y026960D02*
X006887Y026960D01*
X006887Y026640D02*
X008577Y026640D01*
X008577Y026320D02*
X006887Y026320D01*
X006887Y026000D02*
X008577Y026000D01*
X008577Y025680D02*
X006887Y025680D01*
X006887Y025360D02*
X008577Y025360D01*
X008577Y025040D02*
X006887Y025040D01*
X006607Y024930D02*
X006357Y024680D01*
X006357Y005180D01*
X008857Y005180D01*
X008857Y003680D01*
X009857Y002680D01*
X014357Y002680D01*
X013935Y002960D02*
X009973Y002960D01*
X009137Y003796D01*
X009137Y005236D01*
X009095Y005339D01*
X009016Y005417D01*
X008985Y005430D01*
X009016Y005443D01*
X009095Y005521D01*
X009345Y005771D01*
X009387Y005874D01*
X009387Y005986D01*
X009387Y007564D01*
X010433Y008610D01*
X010490Y008610D01*
X010497Y008617D01*
X010497Y007108D01*
X010552Y006976D01*
X014351Y003177D01*
X014258Y003177D01*
X014076Y003101D01*
X013936Y002961D01*
X013935Y002960D01*
X009973Y002960D01*
X009997Y002960D02*
X009997Y008174D01*
X009903Y008080D02*
X010497Y008080D01*
X010497Y008400D02*
X010223Y008400D01*
X010317Y008494D02*
X010317Y002960D01*
X010637Y002960D02*
X010637Y006891D01*
X010728Y006800D02*
X009387Y006800D01*
X009387Y006480D02*
X011048Y006480D01*
X010957Y006571D02*
X010957Y002960D01*
X011277Y002960D02*
X011277Y006251D01*
X011368Y006160D02*
X009387Y006160D01*
X009373Y005840D02*
X011688Y005840D01*
X011597Y005931D02*
X011597Y002960D01*
X011917Y002960D02*
X011917Y005611D01*
X012008Y005520D02*
X009093Y005520D01*
X009037Y005464D02*
X009037Y005396D01*
X009137Y005200D02*
X012328Y005200D01*
X012237Y005291D02*
X012237Y002960D01*
X012557Y002960D02*
X012557Y004971D01*
X012648Y004880D02*
X009137Y004880D01*
X009137Y004560D02*
X012968Y004560D01*
X012877Y004651D02*
X012877Y002960D01*
X013197Y002960D02*
X013197Y004331D01*
X013288Y004240D02*
X009137Y004240D01*
X009137Y003920D02*
X013608Y003920D01*
X013517Y004011D02*
X013517Y002960D01*
X013837Y002960D02*
X013837Y003691D01*
X013928Y003600D02*
X009333Y003600D01*
X009357Y003576D02*
X009357Y005802D01*
X009107Y005930D02*
X008857Y005680D01*
X008357Y005680D01*
X008243Y005637D01*
X008357Y005430D01*
X007799Y004900D02*
X007743Y004844D01*
X007687Y004900D01*
X007799Y004900D01*
X007779Y004880D02*
X007707Y004880D01*
X007743Y004844D02*
X007743Y004430D01*
X007743Y004844D01*
X007757Y004858D02*
X007757Y004900D01*
X007743Y004560D02*
X007743Y004560D01*
X007757Y004415D02*
X007757Y003858D01*
X007819Y003920D02*
X007667Y003920D01*
X007437Y004137D02*
X007437Y004137D01*
X007554Y004240D02*
X007933Y004240D01*
X008077Y004137D02*
X008077Y004137D01*
X008397Y004137D02*
X008397Y004137D01*
X008450Y004137D02*
X008577Y004010D01*
X008577Y004264D01*
X008450Y004137D01*
X008554Y004240D02*
X008577Y004240D01*
X007743Y003600D02*
X007743Y003600D01*
X007757Y003415D02*
X007757Y002400D01*
X008077Y002400D02*
X008077Y003137D01*
X007893Y003280D02*
X007594Y003280D01*
X007437Y003137D02*
X007437Y002463D01*
X007271Y002640D02*
X009501Y002640D01*
X009357Y002784D02*
X009357Y002400D01*
X009037Y002400D02*
X009037Y003104D01*
X009181Y002960D02*
X006971Y002960D01*
X007117Y002804D02*
X007117Y003137D01*
X006893Y003280D02*
X006671Y003280D01*
X006797Y003375D02*
X006797Y003145D01*
X006743Y003600D02*
X006371Y003600D01*
X006477Y003487D02*
X006477Y004900D01*
X006797Y004898D02*
X006797Y004900D01*
X007117Y004137D02*
X007117Y004137D01*
X008397Y003137D02*
X008397Y002400D01*
X008717Y002400D02*
X008717Y003404D01*
X008594Y003280D02*
X008861Y003280D01*
X009653Y003280D02*
X014248Y003280D01*
X014157Y003371D02*
X014157Y003135D01*
X014797Y003749D02*
X014797Y006344D01*
X014661Y006480D02*
X012066Y006480D01*
X011917Y006629D02*
X011917Y008650D01*
X011637Y008650D02*
X012875Y008650D01*
X012787Y008563D01*
X012787Y008297D01*
X012975Y008110D01*
X013031Y008110D01*
X015037Y006104D01*
X015037Y006047D01*
X015225Y005860D01*
X015490Y005860D01*
X015677Y006047D01*
X015677Y006313D01*
X015490Y006500D01*
X015433Y006500D01*
X013427Y008506D01*
X013427Y008563D01*
X013340Y008650D01*
X013435Y008650D01*
X013475Y008610D01*
X013740Y008610D01*
X013886Y008756D01*
X015537Y007104D01*
X015537Y007047D01*
X015725Y006860D01*
X015990Y006860D01*
X015997Y006867D01*
X015997Y003023D01*
X015936Y002961D01*
X015860Y002779D01*
X015860Y002581D01*
X015935Y002400D01*
X015779Y002400D01*
X015854Y002581D01*
X015854Y002779D01*
X015778Y002961D01*
X015639Y003101D01*
X015456Y003177D01*
X015370Y003177D01*
X011436Y007110D01*
X011490Y007110D01*
X011677Y007297D01*
X011677Y007563D01*
X011637Y007603D01*
X011637Y008650D01*
X011637Y008400D02*
X012787Y008400D01*
X012877Y008207D02*
X012877Y005669D01*
X013026Y005520D02*
X015997Y005520D01*
X015997Y005840D02*
X012706Y005840D01*
X012557Y005989D02*
X012557Y008650D01*
X012237Y008650D02*
X012237Y006309D01*
X012386Y006160D02*
X014981Y006160D01*
X015117Y005967D02*
X015117Y003429D01*
X015266Y003280D02*
X015997Y003280D01*
X015997Y003600D02*
X014946Y003600D01*
X014626Y003920D02*
X015997Y003920D01*
X015997Y004240D02*
X014306Y004240D01*
X014157Y004389D02*
X014157Y006984D01*
X014021Y007120D02*
X011500Y007120D01*
X011597Y007217D02*
X011597Y006949D01*
X011746Y006800D02*
X014341Y006800D01*
X014477Y006664D02*
X014477Y004069D01*
X013986Y004560D02*
X015997Y004560D01*
X015997Y004880D02*
X013666Y004880D01*
X013517Y005029D02*
X013517Y007624D01*
X013381Y007760D02*
X011637Y007760D01*
X011637Y008080D02*
X013061Y008080D01*
X013197Y007944D02*
X013197Y005349D01*
X013346Y005200D02*
X015997Y005200D01*
X016717Y005200D02*
X038218Y005200D01*
X038258Y005183D02*
X038456Y005183D01*
X038639Y005259D01*
X038778Y005399D01*
X038854Y005581D01*
X038854Y005779D01*
X038778Y005961D01*
X038639Y006101D01*
X038456Y006177D01*
X038258Y006177D01*
X038076Y006101D01*
X037936Y005961D01*
X037860Y005779D01*
X037860Y005581D01*
X037936Y005399D01*
X038076Y005259D01*
X038258Y005183D01*
X038246Y005145D02*
X038320Y005157D01*
X038339Y005157D01*
X038339Y004698D01*
X038339Y004662D01*
X037880Y004662D01*
X037880Y004642D01*
X037892Y004568D01*
X037915Y004497D01*
X037949Y004430D01*
X037994Y004369D01*
X038047Y004316D01*
X038107Y004272D01*
X038174Y004238D01*
X038246Y004215D01*
X038320Y004203D01*
X038339Y004203D01*
X038339Y004662D01*
X038376Y004662D01*
X038376Y004698D01*
X038834Y004698D01*
X038834Y004718D01*
X038822Y004792D01*
X038799Y004863D01*
X038765Y004930D01*
X038721Y004991D01*
X038668Y005044D01*
X038607Y005088D01*
X038540Y005122D01*
X038469Y005145D01*
X038395Y005157D01*
X038376Y005157D01*
X038376Y004698D01*
X038339Y004698D01*
X037880Y004698D01*
X037880Y004718D01*
X037892Y004792D01*
X037915Y004863D01*
X037949Y004930D01*
X037994Y004991D01*
X038047Y005044D01*
X038107Y005088D01*
X038174Y005122D01*
X038246Y005145D01*
X038157Y005113D02*
X038157Y005225D01*
X038477Y005192D02*
X038477Y005142D01*
X038497Y005200D02*
X039218Y005200D01*
X039258Y005183D02*
X039456Y005183D01*
X039639Y005259D01*
X039778Y005399D01*
X039854Y005581D01*
X039854Y005779D01*
X039778Y005961D01*
X039639Y006101D01*
X039456Y006177D01*
X039258Y006177D01*
X039076Y006101D01*
X038936Y005961D01*
X038860Y005779D01*
X038860Y005581D01*
X038936Y005399D01*
X039076Y005259D01*
X039258Y005183D01*
X039246Y005145D02*
X039320Y005157D01*
X039339Y005157D01*
X039339Y004698D01*
X039339Y004662D01*
X038880Y004662D01*
X038880Y004642D01*
X038892Y004568D01*
X038915Y004497D01*
X038949Y004430D01*
X038994Y004369D01*
X039047Y004316D01*
X039107Y004272D01*
X039174Y004238D01*
X039246Y004215D01*
X039320Y004203D01*
X039339Y004203D01*
X039339Y004662D01*
X039376Y004662D01*
X039376Y004698D01*
X039834Y004698D01*
X039834Y004718D01*
X039822Y004792D01*
X039799Y004863D01*
X039765Y004930D01*
X039721Y004991D01*
X039668Y005044D01*
X039607Y005088D01*
X039540Y005122D01*
X039469Y005145D01*
X039395Y005157D01*
X039376Y005157D01*
X039376Y004698D01*
X039339Y004698D01*
X038880Y004698D01*
X038880Y004718D01*
X038892Y004792D01*
X038915Y004863D01*
X038949Y004930D01*
X038994Y004991D01*
X039047Y005044D01*
X039107Y005088D01*
X039174Y005122D01*
X039246Y005145D01*
X039117Y005093D02*
X039117Y005242D01*
X039437Y005183D02*
X039437Y005150D01*
X039497Y005200D02*
X040447Y005200D01*
X040447Y004880D02*
X039791Y004880D01*
X039757Y004941D02*
X039757Y005377D01*
X039829Y005520D02*
X040447Y005520D01*
X040447Y005840D02*
X039829Y005840D01*
X039757Y005983D02*
X039757Y006377D01*
X039778Y006399D02*
X039854Y006581D01*
X039854Y006779D01*
X039778Y006961D01*
X039639Y007101D01*
X039456Y007177D01*
X039258Y007177D01*
X039076Y007101D01*
X038936Y006961D01*
X038860Y006779D01*
X038860Y006581D01*
X038936Y006399D01*
X039076Y006259D01*
X039258Y006183D01*
X039456Y006183D01*
X039639Y006259D01*
X039778Y006399D01*
X039812Y006480D02*
X040447Y006480D01*
X040447Y006160D02*
X039497Y006160D01*
X039437Y006177D02*
X039437Y006183D01*
X039218Y006160D02*
X038497Y006160D01*
X038477Y006168D02*
X038477Y006192D01*
X038456Y006183D02*
X038639Y006259D01*
X038778Y006399D01*
X038854Y006581D01*
X038854Y006779D01*
X038778Y006961D01*
X038639Y007101D01*
X038542Y007141D01*
X038516Y007167D01*
X038487Y007196D01*
X038639Y007259D01*
X038778Y007399D01*
X038854Y007581D01*
X038854Y007779D01*
X038778Y007961D01*
X038639Y008101D01*
X038456Y008177D01*
X038258Y008177D01*
X038076Y008101D01*
X037936Y007961D01*
X037890Y007850D01*
X037740Y008000D01*
X037475Y008000D01*
X037287Y007813D01*
X037287Y007756D01*
X036031Y006500D01*
X035975Y006500D01*
X035787Y006313D01*
X035787Y006047D01*
X035975Y005860D01*
X036240Y005860D01*
X036427Y006047D01*
X036427Y006104D01*
X037607Y007284D01*
X037934Y006957D01*
X037860Y006779D01*
X037860Y006581D01*
X037936Y006399D01*
X038076Y006259D01*
X038258Y006183D01*
X038456Y006183D01*
X038218Y006160D02*
X036483Y006160D01*
X036557Y006234D02*
X036557Y003135D01*
X036639Y003101D02*
X036456Y003177D01*
X036258Y003177D01*
X036076Y003101D01*
X035936Y002961D01*
X035860Y002779D01*
X035860Y002581D01*
X035936Y002399D01*
X036076Y002259D01*
X036258Y002183D01*
X036456Y002183D01*
X036639Y002259D01*
X036778Y002399D01*
X036854Y002581D01*
X036854Y002779D01*
X036778Y002961D01*
X036639Y003101D01*
X036779Y002960D02*
X036935Y002960D01*
X036936Y002961D02*
X036860Y002779D01*
X036860Y002581D01*
X036936Y002399D01*
X037076Y002259D01*
X037258Y002183D01*
X037456Y002183D01*
X037639Y002259D01*
X037778Y002399D01*
X037854Y002581D01*
X037854Y002779D01*
X037778Y002961D01*
X037639Y003101D01*
X037456Y003177D01*
X037258Y003177D01*
X037076Y003101D01*
X036936Y002961D01*
X036877Y002820D02*
X036877Y006554D01*
X036803Y006480D02*
X037902Y006480D01*
X037869Y006800D02*
X037123Y006800D01*
X037197Y006874D02*
X037197Y003152D01*
X037517Y003152D02*
X037517Y007194D01*
X037443Y007120D02*
X037771Y007120D01*
X037837Y007054D02*
X037837Y002820D01*
X037779Y002960D02*
X040447Y002960D01*
X040447Y002640D02*
X037854Y002640D01*
X037837Y002540D02*
X037837Y001960D01*
X037517Y001960D02*
X037517Y002208D01*
X037700Y002320D02*
X040184Y002320D01*
X040077Y002213D02*
X040077Y012900D01*
X040163Y012900D02*
X040266Y012943D01*
X040345Y013021D01*
X040387Y013124D01*
X040387Y018236D01*
X040345Y018339D01*
X039845Y018839D01*
X039819Y018865D01*
X039778Y018961D01*
X039639Y019101D01*
X039456Y019177D01*
X039258Y019177D01*
X039076Y019101D01*
X038936Y018961D01*
X038860Y018779D01*
X038860Y018581D01*
X038911Y018460D01*
X038804Y018460D01*
X038854Y018581D01*
X038854Y018779D01*
X038778Y018961D01*
X038639Y019101D01*
X038456Y019177D01*
X038427Y019177D01*
X038427Y019183D01*
X038456Y019183D01*
X038639Y019259D01*
X038778Y019399D01*
X038854Y019581D01*
X038854Y019779D01*
X038848Y019793D01*
X038861Y019780D01*
X038860Y019779D01*
X038860Y019581D01*
X038936Y019399D01*
X039076Y019259D01*
X039258Y019183D01*
X039456Y019183D01*
X039639Y019259D01*
X039778Y019399D01*
X039854Y019581D01*
X039854Y019779D01*
X039778Y019961D01*
X039639Y020101D01*
X039456Y020177D01*
X039258Y020177D01*
X039257Y020176D01*
X039244Y020189D01*
X039258Y020183D01*
X039456Y020183D01*
X039639Y020259D01*
X039778Y020399D01*
X039854Y020581D01*
X039854Y020779D01*
X039778Y020961D01*
X039639Y021101D01*
X039456Y021177D01*
X039258Y021177D01*
X039076Y021101D01*
X038936Y020961D01*
X038860Y020779D01*
X038860Y020581D01*
X038911Y020460D01*
X038804Y020460D01*
X038854Y020581D01*
X038854Y020779D01*
X038778Y020961D01*
X038639Y021101D01*
X038456Y021177D01*
X038258Y021177D01*
X038076Y021101D01*
X037936Y020961D01*
X037887Y020844D01*
X037887Y021516D01*
X037936Y021399D01*
X038076Y021259D01*
X038258Y021183D01*
X038456Y021183D01*
X038639Y021259D01*
X038778Y021399D01*
X038854Y021581D01*
X038854Y021779D01*
X038778Y021961D01*
X038639Y022101D01*
X038456Y022177D01*
X038258Y022177D01*
X038076Y022101D01*
X037936Y021961D01*
X037887Y021844D01*
X037887Y022447D01*
X037975Y022360D01*
X038240Y022360D01*
X038427Y022547D01*
X038427Y022604D01*
X040016Y024193D01*
X040095Y024271D01*
X040137Y024374D01*
X040137Y029236D01*
X040095Y029339D01*
X039857Y029576D01*
X039857Y029887D01*
X039564Y030180D01*
X039857Y030473D01*
X039857Y030887D01*
X039564Y031180D01*
X039253Y031180D01*
X039095Y031339D01*
X039016Y031417D01*
X038913Y031460D01*
X035802Y031460D01*
X035699Y031417D01*
X035620Y031339D01*
X035577Y031236D01*
X035577Y031075D01*
X035453Y030950D01*
X035380Y030775D01*
X035380Y030585D01*
X035453Y030410D01*
X035587Y030275D01*
X035762Y030203D01*
X035952Y030203D01*
X036128Y030275D01*
X036262Y030410D01*
X036334Y030585D01*
X036334Y030775D01*
X036283Y030900D01*
X036456Y030900D01*
X036434Y030855D01*
X036411Y030787D01*
X036400Y030716D01*
X036400Y030689D01*
X036849Y030689D01*
X036849Y030671D01*
X036866Y030671D01*
X036866Y030223D01*
X036893Y030223D01*
X036964Y030234D01*
X037033Y030256D01*
X037097Y030289D01*
X037155Y030331D01*
X037206Y030382D01*
X037248Y030440D01*
X037281Y030505D01*
X037303Y030573D01*
X037314Y030644D01*
X037314Y030671D01*
X036866Y030671D01*
X036866Y030689D01*
X037314Y030689D01*
X037314Y030716D01*
X037303Y030787D01*
X037281Y030855D01*
X037258Y030900D01*
X037898Y030900D01*
X037877Y030879D01*
X037877Y030700D01*
X038337Y030700D01*
X038337Y030660D01*
X037877Y030660D01*
X037877Y030481D01*
X038158Y030200D01*
X038337Y030200D01*
X038337Y030660D01*
X038377Y030660D01*
X038377Y030200D01*
X038556Y030200D01*
X038837Y030481D01*
X038837Y030660D01*
X038377Y030660D01*
X038377Y030700D01*
X038837Y030700D01*
X038837Y030804D01*
X038857Y030784D01*
X038857Y030473D01*
X039150Y030180D01*
X039564Y030180D01*
X039150Y030180D01*
X038857Y029887D01*
X038564Y030180D01*
X038150Y030180D01*
X037857Y029887D01*
X037857Y029576D01*
X037620Y029339D01*
X037577Y029236D01*
X037577Y029210D01*
X036070Y029210D01*
X036091Y029261D01*
X036091Y029499D01*
X036000Y029720D01*
X035831Y029889D01*
X035782Y029909D01*
X035764Y029952D01*
X035759Y029957D01*
X035757Y029963D01*
X035692Y030024D01*
X035337Y030379D01*
X035337Y031402D01*
X035407Y031571D01*
X035407Y031789D01*
X035324Y031992D01*
X035169Y032146D01*
X034967Y032230D01*
X034748Y032230D01*
X034546Y032146D01*
X034391Y031992D01*
X034357Y031910D01*
X034324Y031992D01*
X034169Y032146D01*
X033967Y032230D01*
X033748Y032230D01*
X033546Y032146D01*
X033391Y031992D01*
X033357Y031910D01*
X033324Y031992D01*
X033169Y032146D01*
X032967Y032230D01*
X032748Y032230D01*
X032546Y032146D01*
X032391Y031992D01*
X032357Y031910D01*
X032324Y031992D01*
X032169Y032146D01*
X031967Y032230D01*
X031748Y032230D01*
X031546Y032146D01*
X031391Y031992D01*
X031307Y031789D01*
X031307Y031571D01*
X031377Y031402D01*
X031377Y030318D01*
X031166Y029980D01*
X030874Y029980D01*
X030757Y029863D01*
X030757Y028897D01*
X030874Y028780D01*
X031811Y028780D01*
X029120Y026089D01*
X029077Y025986D01*
X029077Y022102D01*
X029076Y022101D01*
X028936Y021961D01*
X028860Y021779D01*
X028860Y021581D01*
X028936Y021399D01*
X029076Y021259D01*
X029258Y021183D01*
X029456Y021183D01*
X029639Y021259D01*
X029778Y021399D01*
X029854Y021581D01*
X029854Y021779D01*
X029778Y021961D01*
X029639Y022101D01*
X029637Y022102D01*
X029637Y025255D01*
X029762Y025203D01*
X029952Y025203D01*
X030119Y025272D01*
X033227Y022164D01*
X033076Y022101D01*
X032936Y021961D01*
X032860Y021779D01*
X032860Y021581D01*
X032861Y021580D01*
X032848Y021567D01*
X032854Y021581D01*
X032854Y021779D01*
X032778Y021961D01*
X032639Y022101D01*
X032456Y022177D01*
X032258Y022177D01*
X032076Y022101D01*
X031936Y021961D01*
X031860Y021779D01*
X031860Y021581D01*
X031861Y021580D01*
X031848Y021567D01*
X031854Y021581D01*
X031854Y021779D01*
X031778Y021961D01*
X031639Y022101D01*
X031456Y022177D01*
X031258Y022177D01*
X031076Y022101D01*
X030936Y021961D01*
X030860Y021779D01*
X030860Y021581D01*
X030936Y021399D01*
X031076Y021259D01*
X031258Y021183D01*
X031456Y021183D01*
X031470Y021189D01*
X028531Y018250D01*
X028475Y018250D01*
X028287Y018063D01*
X028287Y017797D01*
X028475Y017610D01*
X028740Y017610D01*
X028927Y017797D01*
X028927Y017854D01*
X032257Y021184D01*
X032258Y021183D01*
X032456Y021183D01*
X032470Y021189D01*
X028870Y017589D01*
X028827Y017486D01*
X028827Y012374D01*
X028870Y012271D01*
X028949Y012193D01*
X030827Y010314D01*
X030827Y007913D01*
X030740Y008000D01*
X030683Y008000D01*
X026427Y012256D01*
X026427Y012313D01*
X026240Y012500D01*
X025975Y012500D01*
X025787Y012313D01*
X025787Y012047D01*
X025975Y011860D01*
X026031Y011860D01*
X030287Y007604D01*
X030287Y007547D01*
X030475Y007360D01*
X030740Y007360D01*
X030827Y007447D01*
X030827Y007046D01*
X030781Y007000D01*
X030725Y007000D01*
X030537Y006813D01*
X030537Y006547D01*
X030725Y006360D01*
X030990Y006360D01*
X031177Y006547D01*
X031177Y006604D01*
X031266Y006693D01*
X031345Y006771D01*
X031387Y006874D01*
X031387Y010486D01*
X031345Y010589D01*
X031032Y010902D01*
X031177Y011047D01*
X031177Y011104D01*
X033683Y013610D01*
X033740Y013610D01*
X033927Y013797D01*
X033927Y014063D01*
X033840Y014150D01*
X037741Y014150D01*
X037870Y014021D01*
X037934Y013957D01*
X037860Y013779D01*
X037860Y013581D01*
X037936Y013399D01*
X038076Y013259D01*
X038258Y013183D01*
X038456Y013183D01*
X038634Y013257D01*
X038699Y013193D01*
X038870Y013021D01*
X038934Y012957D01*
X038860Y012779D01*
X038860Y012581D01*
X038911Y012460D01*
X038804Y012460D01*
X038854Y012581D01*
X038854Y012779D01*
X038778Y012961D01*
X038639Y013101D01*
X038456Y013177D01*
X038258Y013177D01*
X038076Y013101D01*
X037936Y012961D01*
X037860Y012779D01*
X037860Y012581D01*
X037934Y012403D01*
X037870Y012339D01*
X037827Y012236D01*
X037827Y012124D01*
X037870Y012021D01*
X037934Y011957D01*
X037860Y011779D01*
X037860Y011581D01*
X037934Y011403D01*
X037870Y011339D01*
X037827Y011236D01*
X037827Y011124D01*
X037870Y011021D01*
X037934Y010957D01*
X037860Y010779D01*
X037860Y010581D01*
X037936Y010399D01*
X038076Y010259D01*
X038258Y010183D01*
X038456Y010183D01*
X038639Y010259D01*
X038778Y010399D01*
X038854Y010581D01*
X038854Y010779D01*
X038804Y010900D01*
X038911Y010900D01*
X038860Y010779D01*
X038860Y010581D01*
X038936Y010399D01*
X039076Y010259D01*
X039258Y010183D01*
X039456Y010183D01*
X039639Y010259D01*
X039778Y010399D01*
X039854Y010581D01*
X039854Y010779D01*
X039778Y010961D01*
X039639Y011101D01*
X039629Y011105D01*
X039637Y011124D01*
X039637Y011258D01*
X039639Y011259D01*
X039778Y011399D01*
X039854Y011581D01*
X039854Y011779D01*
X039778Y011961D01*
X039639Y012101D01*
X039629Y012105D01*
X039637Y012124D01*
X039637Y012258D01*
X039639Y012259D01*
X039778Y012399D01*
X039854Y012581D01*
X039854Y012779D01*
X039804Y012900D01*
X040163Y012900D01*
X040447Y012880D02*
X039812Y012880D01*
X039845Y012560D02*
X040447Y012560D01*
X040447Y012240D02*
X039637Y012240D01*
X039757Y012377D02*
X039757Y011983D01*
X039796Y011920D02*
X040447Y011920D01*
X040447Y011600D02*
X039854Y011600D01*
X039757Y011377D02*
X039757Y010983D01*
X039779Y010960D02*
X040447Y010960D01*
X040447Y010640D02*
X039854Y010640D01*
X039757Y010377D02*
X039757Y009983D01*
X039740Y010000D02*
X040447Y010000D01*
X040447Y009680D02*
X039854Y009680D01*
X039854Y009779D02*
X039778Y009961D01*
X039639Y010101D01*
X039456Y010177D01*
X039258Y010177D01*
X039076Y010101D01*
X038936Y009961D01*
X038860Y009779D01*
X038860Y009581D01*
X038936Y009399D01*
X039076Y009259D01*
X039258Y009183D01*
X039456Y009183D01*
X039639Y009259D01*
X039778Y009399D01*
X039854Y009581D01*
X039854Y009779D01*
X039757Y009377D02*
X039757Y008983D01*
X039778Y008961D02*
X039639Y009101D01*
X039456Y009177D01*
X039258Y009177D01*
X039076Y009101D01*
X038936Y008961D01*
X038860Y008779D01*
X038860Y008581D01*
X038936Y008399D01*
X039076Y008259D01*
X039258Y008183D01*
X039456Y008183D01*
X039639Y008259D01*
X039778Y008399D01*
X039854Y008581D01*
X039854Y008779D01*
X039778Y008961D01*
X039700Y009040D02*
X040447Y009040D01*
X040447Y008720D02*
X039854Y008720D01*
X039779Y008400D02*
X040447Y008400D01*
X040447Y008080D02*
X039660Y008080D01*
X039639Y008101D02*
X039456Y008177D01*
X039258Y008177D01*
X039076Y008101D01*
X038936Y007961D01*
X038860Y007779D01*
X038860Y007581D01*
X038936Y007399D01*
X039076Y007259D01*
X039258Y007183D01*
X039456Y007183D01*
X039639Y007259D01*
X039778Y007399D01*
X039854Y007581D01*
X039854Y007779D01*
X039778Y007961D01*
X039639Y008101D01*
X039757Y007983D02*
X039757Y008377D01*
X039437Y008183D02*
X039437Y008177D01*
X039117Y008118D02*
X039117Y008242D01*
X039055Y008080D02*
X038660Y008080D01*
X038639Y008259D02*
X038778Y008399D01*
X038854Y008581D01*
X038854Y008779D01*
X038778Y008961D01*
X038639Y009101D01*
X038456Y009177D01*
X038258Y009177D01*
X038076Y009101D01*
X037936Y008961D01*
X037860Y008779D01*
X037860Y008581D01*
X037936Y008399D01*
X038076Y008259D01*
X038258Y008183D01*
X038456Y008183D01*
X038639Y008259D01*
X038477Y008192D02*
X038477Y008168D01*
X038157Y008135D02*
X038157Y008225D01*
X038055Y008080D02*
X031387Y008080D01*
X031387Y007760D02*
X037287Y007760D01*
X037197Y007666D02*
X037197Y014150D01*
X036877Y014150D02*
X036877Y007346D01*
X036971Y007440D02*
X031387Y007440D01*
X031387Y007120D02*
X036651Y007120D01*
X036557Y007026D02*
X036557Y014150D01*
X036237Y014150D02*
X036237Y006706D01*
X036331Y006800D02*
X031357Y006800D01*
X031107Y006930D02*
X031107Y010430D01*
X029107Y012430D01*
X029107Y017430D01*
X033357Y021680D01*
X032886Y021840D02*
X032829Y021840D01*
X032717Y022023D02*
X032717Y022674D01*
X032591Y022800D02*
X029637Y022800D01*
X029637Y022480D02*
X032911Y022480D01*
X033037Y022354D02*
X033037Y022063D01*
X033218Y022160D02*
X032497Y022160D01*
X032397Y022177D02*
X032397Y022994D01*
X032271Y023120D02*
X029637Y023120D01*
X029637Y023440D02*
X031951Y023440D01*
X032077Y023314D02*
X032077Y022102D01*
X032218Y022160D02*
X031497Y022160D01*
X031437Y022177D02*
X031437Y023954D01*
X031311Y024080D02*
X029637Y024080D01*
X029637Y023760D02*
X031631Y023760D01*
X031757Y023634D02*
X031757Y021983D01*
X031829Y021840D02*
X031886Y021840D01*
X032357Y021680D02*
X028607Y017930D01*
X028405Y017680D02*
X024637Y017680D01*
X024637Y017360D02*
X028827Y017360D01*
X028877Y017596D02*
X028877Y017747D01*
X028810Y017680D02*
X028961Y017680D01*
X029197Y017916D02*
X029197Y018124D01*
X029281Y018000D02*
X029073Y018000D01*
X029393Y018320D02*
X029601Y018320D01*
X029517Y018236D02*
X029517Y018444D01*
X029713Y018640D02*
X029921Y018640D01*
X029837Y018556D02*
X029837Y018764D01*
X030033Y018960D02*
X030241Y018960D01*
X030157Y018876D02*
X030157Y019084D01*
X030353Y019280D02*
X030561Y019280D01*
X030477Y019196D02*
X030477Y019404D01*
X030673Y019600D02*
X030881Y019600D01*
X030797Y019516D02*
X030797Y019724D01*
X030993Y019920D02*
X031201Y019920D01*
X031117Y019836D02*
X031117Y020044D01*
X031313Y020240D02*
X031521Y020240D01*
X031437Y020156D02*
X031437Y020364D01*
X031633Y020560D02*
X031841Y020560D01*
X031757Y020476D02*
X031757Y020684D01*
X031953Y020880D02*
X032161Y020880D01*
X032077Y020796D02*
X032077Y021004D01*
X032397Y021116D02*
X032397Y021183D01*
X031437Y021156D02*
X031437Y021183D01*
X031218Y021200D02*
X030497Y021200D01*
X030477Y021192D02*
X030477Y020196D01*
X030521Y020240D02*
X024637Y020240D01*
X024637Y019920D02*
X030201Y019920D01*
X030157Y019876D02*
X030157Y021225D01*
X030218Y021200D02*
X029497Y021200D01*
X029517Y021208D02*
X029517Y019236D01*
X029561Y019280D02*
X024637Y019280D01*
X024637Y018960D02*
X029241Y018960D01*
X029197Y018916D02*
X029197Y021208D01*
X029218Y021200D02*
X028497Y021200D01*
X028456Y021183D02*
X028639Y021259D01*
X028778Y021399D01*
X028854Y021581D01*
X028854Y021779D01*
X028778Y021961D01*
X028639Y022101D01*
X028456Y022177D01*
X028258Y022177D01*
X028076Y022101D01*
X027936Y021961D01*
X027860Y021779D01*
X027860Y021581D01*
X027936Y021399D01*
X028076Y021259D01*
X028258Y021183D01*
X028456Y021183D01*
X028557Y021225D02*
X028557Y018276D01*
X028601Y018320D02*
X024637Y018320D01*
X024637Y018000D02*
X028287Y018000D01*
X028557Y017610D02*
X028557Y010126D01*
X028683Y010000D02*
X030827Y010000D01*
X030827Y009680D02*
X029003Y009680D01*
X028877Y009806D02*
X028877Y012264D01*
X028901Y012240D02*
X026443Y012240D01*
X026317Y012423D02*
X026317Y021183D01*
X026218Y021200D02*
X025497Y021200D01*
X025357Y021183D02*
X025357Y012076D01*
X025513Y011920D02*
X025915Y011920D01*
X025997Y011860D02*
X025997Y011436D01*
X026153Y011280D02*
X026611Y011280D01*
X026637Y011254D02*
X026637Y010796D01*
X026793Y010640D02*
X027251Y010640D01*
X027277Y010614D02*
X027277Y010156D01*
X027433Y010000D02*
X027891Y010000D01*
X027917Y009974D02*
X027917Y009516D01*
X028073Y009360D02*
X028531Y009360D01*
X028557Y009334D02*
X028557Y008876D01*
X028713Y008720D02*
X029171Y008720D01*
X029197Y008694D02*
X029197Y008236D01*
X029353Y008080D02*
X029811Y008080D01*
X029837Y008054D02*
X029837Y007653D01*
X029673Y007760D02*
X030131Y007760D01*
X030157Y007734D02*
X030157Y003135D01*
X030076Y003101D02*
X029936Y002961D01*
X029860Y002779D01*
X029860Y002581D01*
X029936Y002399D01*
X030076Y002259D01*
X030258Y002183D01*
X030456Y002183D01*
X030639Y002259D01*
X030778Y002399D01*
X030854Y002581D01*
X030854Y002779D01*
X030778Y002961D01*
X030639Y003101D01*
X030456Y003177D01*
X030258Y003177D01*
X030076Y003101D01*
X029935Y002960D02*
X028779Y002960D01*
X028778Y002961D02*
X028639Y003101D01*
X028456Y003177D01*
X028258Y003177D01*
X028076Y003101D01*
X027936Y002961D01*
X027860Y002779D01*
X027860Y002581D01*
X027936Y002399D01*
X028076Y002259D01*
X028258Y002183D01*
X028456Y002183D01*
X028639Y002259D01*
X028778Y002399D01*
X028854Y002581D01*
X028854Y002779D01*
X028778Y002961D01*
X028557Y003135D02*
X028557Y008084D01*
X028561Y008080D02*
X023653Y008080D01*
X023757Y008184D02*
X023757Y002983D01*
X023778Y002961D02*
X023639Y003101D01*
X023456Y003177D01*
X023258Y003177D01*
X023076Y003101D01*
X022936Y002961D01*
X022860Y002779D01*
X022860Y002581D01*
X022936Y002399D01*
X023076Y002259D01*
X023258Y002183D01*
X023456Y002183D01*
X023639Y002259D01*
X023778Y002399D01*
X023854Y002581D01*
X023854Y002779D01*
X023778Y002961D01*
X023779Y002960D02*
X023935Y002960D01*
X023936Y002961D02*
X023860Y002779D01*
X023860Y002581D01*
X023936Y002399D01*
X024076Y002259D01*
X024258Y002183D01*
X024456Y002183D01*
X024639Y002259D01*
X024778Y002399D01*
X024854Y002581D01*
X024854Y002779D01*
X024778Y002961D01*
X024639Y003101D01*
X024456Y003177D01*
X024258Y003177D01*
X024076Y003101D01*
X023936Y002961D01*
X024077Y003102D02*
X024077Y008504D01*
X023973Y008400D02*
X028241Y008400D01*
X028237Y008404D02*
X028237Y003168D01*
X027935Y002960D02*
X027779Y002960D01*
X027778Y002961D02*
X027639Y003101D01*
X027456Y003177D01*
X027258Y003177D01*
X027076Y003101D01*
X026936Y002961D01*
X026860Y002779D01*
X026860Y002581D01*
X026936Y002399D01*
X027076Y002259D01*
X027258Y002183D01*
X027456Y002183D01*
X027639Y002259D01*
X027778Y002399D01*
X027854Y002581D01*
X027854Y002779D01*
X027778Y002961D01*
X027917Y002916D02*
X027917Y008724D01*
X027921Y008720D02*
X024293Y008720D01*
X024397Y008824D02*
X024397Y003177D01*
X024717Y003023D02*
X024717Y011924D01*
X024721Y011920D02*
X024637Y011920D01*
X024637Y011600D02*
X025041Y011600D01*
X025037Y011604D02*
X025037Y003063D01*
X025076Y003101D02*
X024936Y002961D01*
X024860Y002779D01*
X024860Y002581D01*
X024936Y002399D01*
X025076Y002259D01*
X025258Y002183D01*
X025456Y002183D01*
X025639Y002259D01*
X025778Y002399D01*
X025854Y002581D01*
X025854Y002779D01*
X025778Y002961D01*
X025639Y003101D01*
X025456Y003177D01*
X025258Y003177D01*
X025076Y003101D01*
X024935Y002960D02*
X024779Y002960D01*
X024854Y002640D02*
X024860Y002640D01*
X024717Y002337D02*
X024717Y001960D01*
X024397Y001960D02*
X024397Y002183D01*
X024077Y002258D02*
X024077Y001960D01*
X023757Y001960D02*
X023757Y002377D01*
X023700Y002320D02*
X024015Y002320D01*
X023860Y002640D02*
X023854Y002640D01*
X023437Y002183D02*
X023437Y001960D01*
X023117Y001960D02*
X023117Y002242D01*
X023015Y002320D02*
X022700Y002320D01*
X022639Y002259D02*
X022778Y002399D01*
X022854Y002581D01*
X022854Y002779D01*
X022778Y002961D01*
X022639Y003101D01*
X022456Y003177D01*
X022258Y003177D01*
X022076Y003101D01*
X021936Y002961D01*
X021860Y002779D01*
X021860Y002581D01*
X021936Y002399D01*
X022076Y002259D01*
X022258Y002183D01*
X022456Y002183D01*
X022639Y002259D01*
X022477Y002192D02*
X022477Y001960D01*
X022157Y001960D02*
X022157Y002225D01*
X022015Y002320D02*
X021700Y002320D01*
X021639Y002259D02*
X021778Y002399D01*
X021854Y002581D01*
X021854Y002779D01*
X021778Y002961D01*
X021639Y003101D01*
X021456Y003177D01*
X021258Y003177D01*
X021076Y003101D01*
X020936Y002961D01*
X020860Y002779D01*
X020860Y002581D01*
X020936Y002399D01*
X021076Y002259D01*
X021258Y002183D01*
X021456Y002183D01*
X021639Y002259D01*
X021517Y002208D02*
X021517Y001960D01*
X021197Y001960D02*
X021197Y002208D01*
X021015Y002320D02*
X019700Y002320D01*
X019597Y002242D02*
X019597Y001960D01*
X019277Y001960D02*
X019277Y002147D01*
X019130Y002000D02*
X039864Y002000D01*
X039757Y001960D02*
X039757Y004419D01*
X039765Y004430D02*
X039799Y004497D01*
X039822Y004568D01*
X039834Y004642D01*
X039834Y004662D01*
X039376Y004662D01*
X039376Y004203D01*
X039395Y004203D01*
X039469Y004215D01*
X039540Y004238D01*
X039607Y004272D01*
X039668Y004316D01*
X039721Y004369D01*
X039765Y004430D01*
X039820Y004560D02*
X040447Y004560D01*
X040447Y004240D02*
X039544Y004240D01*
X039437Y004210D02*
X039437Y001960D01*
X039117Y001960D02*
X039117Y004267D01*
X039170Y004240D02*
X038544Y004240D01*
X038540Y004238D02*
X038607Y004272D01*
X038668Y004316D01*
X038721Y004369D01*
X038765Y004430D01*
X038799Y004497D01*
X038822Y004568D01*
X038834Y004642D01*
X038834Y004662D01*
X038376Y004662D01*
X038376Y004203D01*
X038395Y004203D01*
X038469Y004215D01*
X038540Y004238D01*
X038477Y004218D02*
X038477Y001960D01*
X038157Y001960D02*
X038157Y004247D01*
X038170Y004240D02*
X016717Y004240D01*
X016717Y003920D02*
X040447Y003920D01*
X040447Y003600D02*
X016717Y003600D01*
X016717Y003280D02*
X040447Y003280D01*
X040397Y002533D02*
X040397Y032323D01*
X040320Y032400D02*
X011283Y032400D01*
X011277Y032406D02*
X011277Y032896D01*
X010957Y032896D02*
X010957Y032460D01*
X010637Y032460D02*
X010637Y032896D01*
X010317Y032896D02*
X010317Y032460D01*
X009997Y032460D02*
X009997Y032896D01*
X009677Y032896D02*
X009677Y032460D01*
X009357Y032460D02*
X009357Y032896D01*
X009037Y032896D02*
X009037Y032460D01*
X008717Y032425D02*
X008717Y032896D01*
X008397Y032896D02*
X008397Y031876D01*
X008357Y031760D02*
X006173Y031760D01*
X006157Y031776D02*
X006157Y032896D01*
X005837Y032896D02*
X005837Y032096D01*
X005853Y032080D02*
X008550Y032080D01*
X008681Y032400D02*
X005533Y032400D01*
X005517Y032416D02*
X005517Y032896D01*
X005197Y032896D02*
X005197Y032736D01*
X005213Y032720D02*
X040000Y032720D01*
X040077Y032643D02*
X040077Y029356D01*
X040137Y029200D02*
X040447Y029200D01*
X040447Y028880D02*
X040137Y028880D01*
X040137Y028560D02*
X040447Y028560D01*
X040447Y028240D02*
X040137Y028240D01*
X040137Y027920D02*
X040447Y027920D01*
X040447Y027600D02*
X040137Y027600D01*
X040137Y027280D02*
X040447Y027280D01*
X040447Y026960D02*
X040137Y026960D01*
X040137Y026640D02*
X040447Y026640D01*
X040447Y026320D02*
X040137Y026320D01*
X040137Y026000D02*
X040447Y026000D01*
X040447Y025680D02*
X040137Y025680D01*
X040137Y025360D02*
X040447Y025360D01*
X040447Y025040D02*
X040137Y025040D01*
X040137Y024720D02*
X040447Y024720D01*
X040447Y024400D02*
X040137Y024400D01*
X040077Y024254D02*
X040077Y018606D01*
X040043Y018640D02*
X040447Y018640D01*
X040447Y018320D02*
X040352Y018320D01*
X040107Y018180D02*
X039607Y018680D01*
X039357Y018680D01*
X038860Y018640D02*
X038854Y018640D01*
X038797Y018916D02*
X038797Y019444D01*
X038854Y019600D02*
X038860Y019600D01*
X039055Y019280D02*
X038660Y019280D01*
X038477Y019192D02*
X038477Y019168D01*
X038779Y018960D02*
X038935Y018960D01*
X039117Y019118D02*
X039117Y019242D01*
X039437Y019183D02*
X039437Y019177D01*
X039660Y019280D02*
X040447Y019280D01*
X040447Y019600D02*
X039854Y019600D01*
X039757Y019377D02*
X039757Y018983D01*
X039779Y018960D02*
X040447Y018960D01*
X040447Y019920D02*
X039796Y019920D01*
X039757Y019983D02*
X039757Y020377D01*
X039845Y020560D02*
X040447Y020560D01*
X040447Y020240D02*
X039593Y020240D01*
X039437Y020183D02*
X039437Y020177D01*
X039357Y019680D02*
X038857Y020180D01*
X037957Y020180D01*
X037857Y020180D01*
X037857Y019430D01*
X038107Y019180D01*
X038357Y018680D02*
X038357Y018180D01*
X039607Y018180D01*
X039857Y017930D01*
X039857Y014180D01*
X040387Y014160D02*
X040447Y014160D01*
X040447Y013840D02*
X040387Y013840D01*
X040387Y013520D02*
X040447Y013520D01*
X040447Y013200D02*
X040387Y013200D01*
X040107Y013180D02*
X040107Y018180D01*
X040387Y018000D02*
X040447Y018000D01*
X040447Y017680D02*
X040387Y017680D01*
X040387Y017360D02*
X040447Y017360D01*
X040447Y017040D02*
X040387Y017040D01*
X040387Y016720D02*
X040447Y016720D01*
X040447Y016400D02*
X040387Y016400D01*
X040387Y016080D02*
X040447Y016080D01*
X040447Y015760D02*
X040387Y015760D01*
X040387Y015440D02*
X040447Y015440D01*
X040447Y015120D02*
X040387Y015120D01*
X040387Y014800D02*
X040447Y014800D01*
X040447Y014480D02*
X040387Y014480D01*
X040107Y013180D02*
X039107Y013180D01*
X038857Y013430D01*
X038857Y014180D01*
X038107Y014180D01*
X037857Y014430D01*
X032357Y014430D01*
X030607Y012680D01*
X029607Y012430D02*
X033357Y016180D01*
X034137Y016080D02*
X037561Y016080D01*
X037517Y016124D02*
X037517Y015460D01*
X037197Y015460D02*
X037197Y016444D01*
X037241Y016400D02*
X034137Y016400D01*
X034137Y016720D02*
X037077Y016720D01*
X037077Y016624D02*
X037120Y016521D01*
X037861Y015780D01*
X037860Y015779D01*
X037860Y015581D01*
X037911Y015460D01*
X034137Y015460D01*
X034137Y021233D01*
X034258Y021183D01*
X034456Y021183D01*
X034639Y021259D01*
X034778Y021399D01*
X034854Y021581D01*
X034854Y021779D01*
X034778Y021961D01*
X034639Y022101D01*
X034456Y022177D01*
X034258Y022177D01*
X034080Y022103D01*
X034016Y022167D01*
X030972Y025211D01*
X031128Y025275D01*
X031262Y025410D01*
X031334Y025585D01*
X031334Y025775D01*
X031262Y025950D01*
X031128Y026085D01*
X030952Y026157D01*
X030762Y026157D01*
X030587Y026085D01*
X030453Y025950D01*
X030388Y025795D01*
X030345Y025839D01*
X030282Y025901D01*
X030262Y025950D01*
X030128Y026085D01*
X029972Y026149D01*
X032473Y028650D01*
X037857Y028650D01*
X037857Y028473D01*
X038077Y028253D01*
X038077Y024046D01*
X038031Y024000D01*
X037975Y024000D01*
X037887Y023913D01*
X037887Y025986D01*
X037845Y026089D01*
X037253Y026680D01*
X037433Y026860D01*
X037490Y026860D01*
X037677Y027047D01*
X037677Y027313D01*
X037490Y027500D01*
X037225Y027500D01*
X037037Y027313D01*
X037037Y027256D01*
X036699Y026917D01*
X036620Y026839D01*
X036620Y026839D01*
X035938Y026157D01*
X035762Y026157D01*
X035587Y026085D01*
X035453Y025950D01*
X035380Y025775D01*
X035380Y025585D01*
X035453Y025410D01*
X035587Y025275D01*
X035762Y025203D01*
X035952Y025203D01*
X036128Y025275D01*
X036262Y025410D01*
X036334Y025585D01*
X036334Y025761D01*
X036403Y025829D01*
X036380Y025775D01*
X036380Y025585D01*
X036453Y025410D01*
X036587Y025275D01*
X036762Y025203D01*
X036938Y025203D01*
X037077Y025064D01*
X037077Y016624D01*
X037357Y016680D02*
X038357Y015680D01*
X037860Y015760D02*
X034137Y015760D01*
X034317Y015460D02*
X034317Y021183D01*
X034218Y021200D02*
X034137Y021200D01*
X034137Y020880D02*
X037077Y020880D01*
X037077Y020560D02*
X034137Y020560D01*
X034137Y020240D02*
X037077Y020240D01*
X037077Y019920D02*
X034137Y019920D01*
X034137Y019600D02*
X037077Y019600D01*
X037077Y019280D02*
X034137Y019280D01*
X034137Y018960D02*
X037077Y018960D01*
X037077Y018640D02*
X034137Y018640D01*
X034137Y018320D02*
X037077Y018320D01*
X037077Y018000D02*
X034137Y018000D01*
X034137Y017680D02*
X037077Y017680D01*
X037077Y017360D02*
X034137Y017360D01*
X034137Y017040D02*
X037077Y017040D01*
X037357Y016680D02*
X037357Y025180D01*
X036857Y025680D01*
X036380Y025680D02*
X036334Y025680D01*
X036237Y025385D02*
X036237Y015460D01*
X035917Y015460D02*
X035917Y025203D01*
X035597Y025271D02*
X035597Y022118D01*
X035639Y022101D02*
X035456Y022177D01*
X035258Y022177D01*
X035076Y022101D01*
X034936Y021961D01*
X034860Y021779D01*
X034860Y021581D01*
X034936Y021399D01*
X035076Y021259D01*
X035258Y021183D01*
X035456Y021183D01*
X035639Y021259D01*
X035778Y021399D01*
X035854Y021581D01*
X035854Y021779D01*
X035778Y021961D01*
X035639Y022101D01*
X035497Y022160D02*
X037077Y022160D01*
X037077Y021840D02*
X035829Y021840D01*
X035829Y021520D02*
X037077Y021520D01*
X037077Y021200D02*
X035497Y021200D01*
X035597Y021242D02*
X035597Y015460D01*
X035277Y015460D02*
X035277Y021183D01*
X035218Y021200D02*
X034497Y021200D01*
X034637Y021258D02*
X034637Y015460D01*
X034957Y015460D02*
X034957Y021377D01*
X034886Y021520D02*
X034829Y021520D01*
X034829Y021840D02*
X034886Y021840D01*
X034957Y021983D02*
X034957Y025205D01*
X034952Y025203D02*
X035128Y025275D01*
X035262Y025410D01*
X035334Y025585D01*
X035334Y025775D01*
X035262Y025950D01*
X035128Y026085D01*
X034952Y026157D01*
X034762Y026157D01*
X034587Y026085D01*
X034453Y025950D01*
X034380Y025775D01*
X034380Y025585D01*
X034453Y025410D01*
X034587Y025275D01*
X034762Y025203D01*
X034952Y025203D01*
X035212Y025360D02*
X035502Y025360D01*
X035277Y025447D02*
X035277Y022177D01*
X035218Y022160D02*
X034497Y022160D01*
X034637Y022102D02*
X034637Y025255D01*
X034502Y025360D02*
X034212Y025360D01*
X034262Y025410D02*
X034334Y025585D01*
X034334Y025775D01*
X034262Y025950D01*
X034128Y026085D01*
X033952Y026157D01*
X033762Y026157D01*
X033587Y026085D01*
X033453Y025950D01*
X033380Y025775D01*
X033380Y025585D01*
X033453Y025410D01*
X033587Y025275D01*
X033762Y025203D01*
X033952Y025203D01*
X034128Y025275D01*
X034262Y025410D01*
X034317Y025544D02*
X034317Y022177D01*
X034218Y022160D02*
X034023Y022160D01*
X033997Y022186D02*
X033997Y025222D01*
X033677Y025238D02*
X033677Y022506D01*
X033703Y022480D02*
X037077Y022480D01*
X037077Y022800D02*
X033383Y022800D01*
X033357Y022826D02*
X033357Y028650D01*
X033037Y028650D02*
X033037Y026122D01*
X032952Y026157D02*
X032762Y026157D01*
X032587Y026085D01*
X032453Y025950D01*
X032380Y025775D01*
X032380Y025585D01*
X032453Y025410D01*
X032587Y025275D01*
X032762Y025203D01*
X032952Y025203D01*
X033128Y025275D01*
X033262Y025410D01*
X033334Y025585D01*
X033334Y025775D01*
X033262Y025950D01*
X033128Y026085D01*
X032952Y026157D01*
X032717Y026138D02*
X032717Y028650D01*
X032397Y028574D02*
X032397Y025816D01*
X032334Y025775D02*
X032334Y025585D01*
X032262Y025410D01*
X032128Y025275D01*
X031952Y025203D01*
X031762Y025203D01*
X031587Y025275D01*
X031453Y025410D01*
X031380Y025585D01*
X031380Y025775D01*
X031453Y025950D01*
X031587Y026085D01*
X031762Y026157D01*
X031952Y026157D01*
X032128Y026085D01*
X032262Y025950D01*
X032334Y025775D01*
X032334Y025680D02*
X032380Y025680D01*
X032397Y025544D02*
X032397Y023786D01*
X032423Y023760D02*
X037077Y023760D01*
X037077Y023440D02*
X032743Y023440D01*
X032717Y023466D02*
X032717Y025222D01*
X032502Y025360D02*
X032212Y025360D01*
X032077Y025255D02*
X032077Y024106D01*
X032103Y024080D02*
X037077Y024080D01*
X037077Y024400D02*
X031783Y024400D01*
X031757Y024426D02*
X031757Y025205D01*
X031502Y025360D02*
X031212Y025360D01*
X031117Y025271D02*
X031117Y025066D01*
X031143Y025040D02*
X037077Y025040D01*
X036877Y025203D02*
X036877Y015460D01*
X036557Y015460D02*
X036557Y025305D01*
X036502Y025360D02*
X036212Y025360D01*
X035857Y025680D02*
X036857Y026680D01*
X037607Y025930D01*
X037607Y017180D01*
X038857Y017180D01*
X039357Y016680D01*
X038857Y016180D02*
X038857Y015430D01*
X038607Y015180D01*
X033857Y015180D01*
X033857Y021930D01*
X030107Y025680D01*
X029857Y025680D01*
X029837Y025203D02*
X029837Y021820D01*
X029829Y021840D02*
X029886Y021840D01*
X029860Y021779D02*
X029936Y021961D01*
X030076Y022101D01*
X030258Y022177D01*
X030456Y022177D01*
X030639Y022101D01*
X030778Y021961D01*
X030854Y021779D01*
X030854Y021581D01*
X030778Y021399D01*
X030639Y021259D01*
X030456Y021183D01*
X030258Y021183D01*
X030076Y021259D01*
X029936Y021399D01*
X029860Y021581D01*
X029860Y021779D01*
X029837Y021540D02*
X029837Y019556D01*
X029881Y019600D02*
X024637Y019600D01*
X023857Y019180D02*
X023857Y018680D01*
X022107Y018680D01*
X021357Y019430D01*
X021640Y019600D02*
X022327Y019600D01*
X022327Y019920D02*
X021677Y019920D01*
X021357Y019930D02*
X020857Y019430D01*
X020857Y019180D01*
X022607Y017430D01*
X022810Y017680D02*
X024077Y017680D01*
X024077Y017360D02*
X022927Y017360D01*
X022797Y017167D02*
X022797Y008016D01*
X022861Y008080D02*
X021387Y008080D01*
X021387Y007760D02*
X022541Y007760D01*
X022477Y007696D02*
X022477Y017110D01*
X022281Y017360D02*
X021380Y017360D01*
X021197Y017500D02*
X021197Y018444D01*
X021321Y018320D02*
X020920Y018320D01*
X020877Y018363D02*
X020877Y018764D01*
X021001Y018640D02*
X020677Y018640D01*
X020557Y018933D02*
X020557Y020400D01*
X020237Y020400D02*
X020237Y019500D01*
X020427Y019280D02*
X020577Y019280D01*
X020530Y018960D02*
X020681Y018960D01*
X020357Y018680D02*
X017357Y015680D01*
X017357Y016180D02*
X017357Y016430D01*
X020107Y019180D01*
X019917Y019443D02*
X019917Y020400D01*
X019597Y020400D02*
X019597Y019066D01*
X019491Y018960D02*
X015086Y018960D01*
X015117Y018929D02*
X015117Y020900D01*
X015107Y021180D02*
X008857Y021180D01*
X008857Y030680D01*
X008397Y030484D02*
X008397Y023137D01*
X008467Y023120D02*
X008577Y023120D01*
X008577Y023440D02*
X006637Y023440D01*
X006637Y023760D02*
X008577Y023760D01*
X008577Y024080D02*
X006637Y024080D01*
X006637Y024400D02*
X008577Y024400D01*
X008577Y024720D02*
X006793Y024720D01*
X006797Y024724D02*
X006797Y022870D01*
X006763Y022800D02*
X006637Y022800D01*
X006797Y022657D02*
X006797Y022617D01*
X006763Y022480D02*
X006637Y022480D01*
X006797Y022404D02*
X006797Y021898D01*
X006743Y021840D02*
X006637Y021840D01*
X006637Y021520D02*
X006743Y021520D01*
X006797Y021375D02*
X006797Y020898D01*
X006779Y020880D02*
X006637Y020880D01*
X006637Y020560D02*
X006743Y020560D01*
X006857Y020180D02*
X006607Y019930D01*
X006607Y017180D01*
X007107Y016680D01*
X007243Y016637D01*
X007357Y016180D02*
X007357Y015680D01*
X007243Y015637D01*
X007357Y015180D02*
X007357Y014680D01*
X007243Y014637D01*
X007357Y015180D02*
X008607Y015180D01*
X008857Y015430D01*
X008857Y015680D01*
X009357Y016180D01*
X009357Y018180D01*
X009607Y018430D01*
X009857Y018180D02*
X009607Y017930D01*
X009607Y015680D01*
X008357Y014430D01*
X008243Y014637D01*
X008857Y014430D02*
X008357Y013930D01*
X008357Y013680D01*
X008243Y013637D01*
X008357Y013430D01*
X008607Y013180D02*
X008857Y013430D01*
X008857Y013930D01*
X008857Y014430D02*
X009857Y014430D01*
X010357Y014930D01*
X010357Y017680D01*
X011217Y017040D02*
X015988Y017040D01*
X015997Y016720D02*
X011217Y016720D01*
X011217Y016400D02*
X015997Y016400D01*
X015997Y016080D02*
X011217Y016080D01*
X011217Y015760D02*
X015997Y015760D01*
X015997Y015440D02*
X011217Y015440D01*
X011217Y015120D02*
X015997Y015120D01*
X015997Y014800D02*
X011217Y014800D01*
X011217Y014480D02*
X015997Y014480D01*
X015997Y014160D02*
X011217Y014160D01*
X011217Y013840D02*
X015997Y013840D01*
X015997Y013520D02*
X011217Y013520D01*
X011217Y013200D02*
X015997Y013200D01*
X015997Y012880D02*
X011217Y012880D01*
X011217Y012560D02*
X015997Y012560D01*
X015997Y012240D02*
X011217Y012240D01*
X011217Y011920D02*
X015997Y011920D01*
X015997Y011600D02*
X011217Y011600D01*
X011217Y011280D02*
X015997Y011280D01*
X015997Y010960D02*
X011217Y010960D01*
X010107Y011430D02*
X009607Y011930D01*
X009607Y012180D01*
X009107Y012680D01*
X008857Y012680D01*
X008857Y012430D01*
X008607Y012180D01*
X006607Y012180D01*
X006607Y010180D01*
X007107Y009680D01*
X007243Y009637D01*
X007857Y009180D02*
X008607Y009180D01*
X008857Y009430D01*
X008857Y011930D01*
X009107Y012180D01*
X008357Y012430D02*
X008243Y012637D01*
X008607Y013180D02*
X007357Y013180D01*
X007357Y013430D01*
X007243Y013637D01*
X007107Y012680D02*
X007243Y012637D01*
X007243Y011637D02*
X007357Y011430D01*
X007357Y011180D01*
X008357Y011180D01*
X008243Y010637D02*
X008357Y010430D01*
X007857Y009180D02*
X007243Y008637D01*
X008243Y008637D02*
X008357Y008430D01*
X008857Y007930D02*
X008857Y007430D01*
X008607Y007180D01*
X007357Y007180D01*
X007357Y006680D01*
X007243Y006637D01*
X009107Y005930D02*
X009107Y007680D01*
X010357Y008930D01*
X009857Y008930D02*
X008857Y007930D01*
X009387Y007440D02*
X010497Y007440D01*
X010497Y007120D02*
X009387Y007120D01*
X009583Y007760D02*
X010497Y007760D01*
X009677Y007854D02*
X009677Y003256D01*
X009677Y002464D02*
X009677Y002400D01*
X009997Y002400D02*
X009997Y002400D01*
X010317Y002400D02*
X010317Y002400D01*
X010637Y002400D02*
X010637Y002400D01*
X010957Y002400D02*
X010957Y002400D01*
X011277Y002400D02*
X011277Y002400D01*
X011597Y002400D02*
X011597Y002400D01*
X011917Y002400D02*
X011917Y002400D01*
X012237Y002400D02*
X012237Y002400D01*
X012557Y002400D02*
X012557Y002400D01*
X012877Y002400D02*
X012877Y002400D01*
X013197Y002400D02*
X013197Y002400D01*
X013517Y002400D02*
X013517Y002400D01*
X013837Y002400D02*
X013837Y002400D01*
X013935Y002400D02*
X013935Y002400D01*
X015437Y003177D02*
X015437Y005860D01*
X015357Y006180D02*
X013107Y008430D01*
X013517Y008416D02*
X013517Y008610D01*
X013533Y008400D02*
X014241Y008400D01*
X014157Y008484D02*
X014157Y007776D01*
X014173Y007760D02*
X014881Y007760D01*
X014797Y007844D02*
X014797Y007136D01*
X014813Y007120D02*
X015521Y007120D01*
X015437Y007204D02*
X015437Y006500D01*
X015510Y006480D02*
X015997Y006480D01*
X015997Y006160D02*
X015677Y006160D01*
X015757Y006860D02*
X015757Y002983D01*
X015779Y002960D02*
X015935Y002960D01*
X015860Y002640D02*
X015854Y002640D01*
X016717Y003023D02*
X016717Y007924D01*
X016717Y007760D02*
X016881Y007760D01*
X017037Y007604D02*
X017037Y003034D01*
X017047Y003044D02*
X016994Y002991D01*
X016949Y002930D01*
X016915Y002863D01*
X016892Y002792D01*
X016880Y002718D01*
X016880Y002698D01*
X017339Y002698D01*
X017339Y003157D01*
X017320Y003157D01*
X017246Y003145D01*
X017174Y003122D01*
X017107Y003088D01*
X017047Y003044D01*
X016971Y002960D02*
X016779Y002960D01*
X016854Y002640D02*
X016881Y002640D01*
X017037Y002662D02*
X017037Y002698D01*
X017357Y002698D02*
X017357Y007284D01*
X017201Y007440D02*
X016717Y007440D01*
X016717Y007120D02*
X017521Y007120D01*
X017677Y006964D02*
X017677Y003034D01*
X017743Y002960D02*
X017971Y002960D01*
X017949Y002930D02*
X017915Y002863D01*
X017892Y002792D01*
X017880Y002718D01*
X017880Y002698D01*
X018339Y002698D01*
X018339Y003157D01*
X018320Y003157D01*
X018246Y003145D01*
X018174Y003122D01*
X018107Y003088D01*
X018047Y003044D01*
X017994Y002991D01*
X017949Y002930D01*
X017997Y002994D02*
X017997Y006644D01*
X018105Y006480D02*
X016717Y006480D01*
X016717Y006160D02*
X021425Y006160D01*
X021517Y006110D02*
X021517Y003152D01*
X021197Y003152D02*
X021197Y006944D01*
X021287Y006800D02*
X018677Y006800D01*
X018637Y006853D02*
X018637Y010754D01*
X018751Y010640D02*
X016717Y010640D01*
X016717Y010320D02*
X019071Y010320D01*
X018957Y010434D02*
X018957Y002983D01*
X018935Y002960D02*
X018743Y002960D01*
X018637Y003066D02*
X018637Y006507D01*
X018610Y006480D02*
X021287Y006480D01*
X021607Y006430D02*
X024357Y009180D01*
X024357Y021680D01*
X024717Y021337D02*
X024717Y012993D01*
X024637Y013200D02*
X028827Y013200D01*
X028827Y012880D02*
X025110Y012880D01*
X025037Y012953D02*
X025037Y021297D01*
X025218Y021200D02*
X024637Y021200D01*
X024637Y020880D02*
X031161Y020880D01*
X031117Y020836D02*
X031117Y021242D01*
X030886Y021520D02*
X030829Y021520D01*
X030797Y021444D02*
X030797Y020516D01*
X030841Y020560D02*
X024637Y020560D01*
X023857Y020680D02*
X023857Y021930D01*
X024107Y022180D01*
X026357Y022180D01*
X026357Y021680D01*
X025997Y021337D02*
X025997Y012500D01*
X025787Y012240D02*
X025193Y012240D01*
X025177Y012560D02*
X028827Y012560D01*
X028557Y012380D02*
X028557Y013580D01*
X028827Y013520D02*
X024637Y013520D01*
X024637Y013840D02*
X028827Y013840D01*
X028827Y014160D02*
X024637Y014160D01*
X024637Y014480D02*
X028827Y014480D01*
X028827Y014800D02*
X024637Y014800D01*
X024637Y015120D02*
X028827Y015120D01*
X028827Y015440D02*
X024637Y015440D01*
X024637Y015760D02*
X028827Y015760D01*
X028827Y016080D02*
X024637Y016080D01*
X024637Y016400D02*
X028827Y016400D01*
X028827Y016720D02*
X024637Y016720D01*
X024637Y017040D02*
X028827Y017040D01*
X028877Y018596D02*
X028877Y021540D01*
X028886Y021520D02*
X028829Y021520D01*
X028877Y021820D02*
X028877Y032896D01*
X028557Y032896D02*
X028557Y022135D01*
X028497Y022160D02*
X029077Y022160D01*
X029077Y022480D02*
X027137Y022480D01*
X027137Y022160D02*
X028218Y022160D01*
X028237Y022168D02*
X028237Y025385D01*
X028212Y025360D02*
X029077Y025360D01*
X029077Y025040D02*
X027613Y025040D01*
X027597Y025024D02*
X027597Y011086D01*
X027723Y010960D02*
X030181Y010960D01*
X030157Y010984D02*
X030157Y008526D01*
X030283Y008400D02*
X030827Y008400D01*
X030827Y008080D02*
X030603Y008080D01*
X030477Y008206D02*
X030477Y010664D01*
X030501Y010640D02*
X028043Y010640D01*
X027917Y010766D02*
X027917Y021444D01*
X027886Y021520D02*
X027177Y021520D01*
X027137Y021840D02*
X027886Y021840D01*
X027917Y021916D02*
X027917Y025203D01*
X027857Y025680D02*
X026857Y024680D01*
X026857Y021430D01*
X026635Y021200D02*
X026497Y021200D01*
X026637Y021197D02*
X026637Y012046D01*
X026763Y011920D02*
X029221Y011920D01*
X029197Y011944D02*
X029197Y009486D01*
X029323Y009360D02*
X030827Y009360D01*
X030827Y009040D02*
X029643Y009040D01*
X029517Y009166D02*
X029517Y011624D01*
X029541Y011600D02*
X027083Y011600D01*
X026957Y011726D02*
X026957Y021110D01*
X027080Y021200D02*
X028218Y021200D01*
X028237Y021192D02*
X028237Y010446D01*
X028363Y010320D02*
X030821Y010320D01*
X030797Y010344D02*
X030797Y007943D01*
X030607Y007680D02*
X026107Y012180D01*
X025677Y011756D02*
X025677Y021297D01*
X025829Y021520D02*
X025886Y021520D01*
X025886Y021840D02*
X025829Y021840D01*
X025677Y022460D02*
X025677Y025238D01*
X025762Y025203D02*
X025587Y025275D01*
X025453Y025410D01*
X025380Y025585D01*
X025380Y025775D01*
X025453Y025950D01*
X025587Y026085D01*
X025762Y026157D01*
X025952Y026157D01*
X026128Y026085D01*
X026262Y025950D01*
X026334Y025775D01*
X026334Y025585D01*
X026262Y025410D01*
X026128Y025275D01*
X025952Y025203D01*
X025762Y025203D01*
X025997Y025222D02*
X025997Y022460D01*
X026317Y022460D02*
X026317Y025544D01*
X026380Y025585D02*
X026453Y025410D01*
X026587Y025275D01*
X026762Y025203D01*
X026952Y025203D01*
X027007Y025225D01*
X026699Y024917D01*
X026620Y024839D01*
X026577Y024736D01*
X026577Y022356D01*
X026516Y022417D01*
X026413Y022460D01*
X024052Y022460D01*
X023949Y022417D01*
X023870Y022339D01*
X023634Y022103D01*
X023456Y022177D01*
X023258Y022177D01*
X023257Y022176D01*
X021637Y023796D01*
X021637Y025255D01*
X021762Y025203D01*
X021952Y025203D01*
X022128Y025275D01*
X022262Y025410D01*
X022334Y025585D01*
X022334Y025775D01*
X022262Y025950D01*
X022128Y026085D01*
X021952Y026157D01*
X021762Y026157D01*
X021637Y026105D01*
X021637Y026257D01*
X021677Y026297D01*
X021677Y026563D01*
X021490Y026750D01*
X021225Y026750D01*
X021037Y026563D01*
X021037Y026297D01*
X021077Y026257D01*
X021077Y026105D01*
X020952Y026157D01*
X020762Y026157D01*
X020587Y026085D01*
X020453Y025950D01*
X020380Y025775D01*
X020380Y025585D01*
X020453Y025410D01*
X020577Y025285D01*
X020577Y022296D01*
X020458Y022176D01*
X020456Y022177D01*
X020258Y022177D01*
X020137Y022127D01*
X020137Y024736D01*
X020095Y024839D01*
X020016Y024917D01*
X019334Y025599D01*
X019334Y025775D01*
X019262Y025950D01*
X019128Y026085D01*
X018972Y026149D01*
X020973Y028150D01*
X027077Y028150D01*
X027077Y026296D01*
X026938Y026157D01*
X026762Y026157D01*
X026587Y026085D01*
X026453Y025950D01*
X026380Y025775D01*
X026380Y025585D01*
X026380Y025680D02*
X026334Y025680D01*
X026317Y025816D02*
X026317Y028150D01*
X025997Y028150D02*
X025997Y026138D01*
X026212Y026000D02*
X026502Y026000D01*
X026637Y026105D02*
X026637Y028150D01*
X026957Y028150D02*
X026957Y026176D01*
X027077Y026320D02*
X021677Y026320D01*
X021837Y026157D02*
X021837Y028150D01*
X021517Y028150D02*
X021517Y026723D01*
X021600Y026640D02*
X027077Y026640D01*
X027077Y026960D02*
X019783Y026960D01*
X019917Y027094D02*
X019917Y025016D01*
X019893Y025040D02*
X020577Y025040D01*
X020557Y025305D02*
X020557Y022276D01*
X020577Y022480D02*
X020137Y022480D01*
X020137Y022160D02*
X020218Y022160D01*
X020237Y022168D02*
X020237Y027414D01*
X020103Y027280D02*
X027077Y027280D01*
X027077Y027600D02*
X020423Y027600D01*
X020557Y027734D02*
X020557Y026055D01*
X020502Y026000D02*
X019212Y026000D01*
X019277Y025913D02*
X019277Y026454D01*
X019143Y026320D02*
X021037Y026320D01*
X020877Y026157D02*
X020877Y028054D01*
X020743Y027920D02*
X027077Y027920D01*
X027637Y027920D02*
X030951Y027920D01*
X030797Y027766D02*
X030797Y028857D01*
X030774Y028880D02*
X027637Y028880D01*
X027637Y029200D02*
X030757Y029200D01*
X030757Y029520D02*
X027637Y029520D01*
X027637Y029840D02*
X030757Y029840D01*
X030797Y029903D02*
X030797Y030227D01*
X030821Y030223D02*
X030750Y030234D01*
X030682Y030256D01*
X030618Y030289D01*
X030559Y030331D01*
X030509Y030382D01*
X030466Y030440D01*
X030434Y030505D01*
X030411Y030573D01*
X030400Y030644D01*
X030400Y030671D01*
X030849Y030671D01*
X030866Y030671D01*
X030866Y030223D01*
X030893Y030223D01*
X030964Y030234D01*
X031033Y030256D01*
X031097Y030289D01*
X031155Y030331D01*
X031206Y030382D01*
X031248Y030440D01*
X031281Y030505D01*
X031303Y030573D01*
X031314Y030644D01*
X031314Y030671D01*
X030866Y030671D01*
X030866Y030689D01*
X030849Y030689D01*
X030849Y031137D01*
X030821Y031137D01*
X030750Y031126D01*
X030682Y031104D01*
X030618Y031071D01*
X030559Y031029D01*
X030509Y030978D01*
X030466Y030920D01*
X030434Y030855D01*
X030411Y030787D01*
X030400Y030716D01*
X030400Y030689D01*
X030849Y030689D01*
X030849Y030671D01*
X030849Y030223D01*
X030821Y030223D01*
X030849Y030480D02*
X030866Y030480D01*
X030797Y030671D02*
X030797Y030689D01*
X030866Y030689D02*
X030866Y031137D01*
X030893Y031137D01*
X030964Y031126D01*
X031033Y031104D01*
X031097Y031071D01*
X031155Y031029D01*
X031206Y030978D01*
X031248Y030920D01*
X031281Y030855D01*
X031303Y030787D01*
X031314Y030716D01*
X031314Y030689D01*
X030866Y030689D01*
X030866Y030800D02*
X030849Y030800D01*
X031117Y030689D02*
X031117Y030671D01*
X031299Y030800D02*
X031377Y030800D01*
X031377Y031120D02*
X030983Y031120D01*
X030866Y031120D02*
X030849Y031120D01*
X030797Y031133D02*
X030797Y032896D01*
X030477Y032896D02*
X030477Y030935D01*
X030416Y030800D02*
X030324Y030800D01*
X030334Y030775D02*
X030262Y030950D01*
X030128Y031085D01*
X029952Y031157D01*
X029762Y031157D01*
X029587Y031085D01*
X029453Y030950D01*
X029380Y030775D01*
X029380Y030585D01*
X029453Y030410D01*
X029587Y030275D01*
X029762Y030203D01*
X029952Y030203D01*
X030128Y030275D01*
X030262Y030410D01*
X030334Y030585D01*
X030334Y030775D01*
X030477Y030689D02*
X030477Y030671D01*
X030446Y030480D02*
X030291Y030480D01*
X030477Y030425D02*
X030477Y027446D01*
X030631Y027600D02*
X027637Y027600D01*
X027637Y027280D02*
X030311Y027280D01*
X030157Y027126D02*
X030157Y030305D01*
X029837Y030203D02*
X029837Y026806D01*
X029991Y026960D02*
X027637Y026960D01*
X027637Y026640D02*
X029671Y026640D01*
X029517Y026486D02*
X029517Y030345D01*
X029424Y030480D02*
X028268Y030480D01*
X028237Y030425D02*
X028237Y025975D01*
X028212Y026000D02*
X029083Y026000D01*
X029197Y026166D02*
X029197Y032896D01*
X029517Y032896D02*
X029517Y031015D01*
X029673Y031120D02*
X027983Y031120D01*
X027964Y031126D02*
X027893Y031137D01*
X027866Y031137D01*
X027866Y030689D01*
X028314Y030689D01*
X028314Y030716D01*
X028303Y030787D01*
X028281Y030855D01*
X028248Y030920D01*
X028206Y030978D01*
X028155Y031029D01*
X028097Y031071D01*
X028033Y031104D01*
X027964Y031126D01*
X027917Y031133D02*
X027917Y031344D01*
X028070Y031440D02*
X031361Y031440D01*
X031307Y031760D02*
X028177Y031760D01*
X027857Y031680D02*
X027357Y031180D01*
X027357Y028430D01*
X020857Y028430D01*
X018357Y025930D01*
X018357Y025430D01*
X018857Y024930D01*
X018857Y022180D01*
X019357Y021680D01*
X019857Y021430D02*
X020107Y021180D01*
X021357Y021180D01*
X021357Y021680D01*
X020857Y022180D02*
X020857Y025680D01*
X020380Y025680D02*
X019334Y025680D01*
X019573Y025360D02*
X020502Y025360D01*
X020577Y024720D02*
X020137Y024720D01*
X019857Y024680D02*
X019857Y021430D01*
X020357Y021680D02*
X020857Y022180D01*
X020577Y022800D02*
X020137Y022800D01*
X020137Y023120D02*
X020577Y023120D01*
X020577Y023440D02*
X020137Y023440D01*
X020137Y023760D02*
X020577Y023760D01*
X020577Y024080D02*
X020137Y024080D01*
X020137Y024400D02*
X020577Y024400D01*
X019857Y024680D02*
X018857Y025680D01*
X018317Y026286D02*
X018317Y027494D01*
X018423Y027600D02*
X019631Y027600D01*
X019597Y027566D02*
X019597Y028717D01*
X019677Y028880D02*
X021774Y028880D01*
X021837Y028817D02*
X021837Y028710D01*
X021517Y028710D02*
X021517Y030373D01*
X021509Y030382D02*
X021559Y030331D01*
X021618Y030289D01*
X021682Y030256D01*
X021750Y030234D01*
X021821Y030223D01*
X021849Y030223D01*
X021849Y030671D01*
X021400Y030671D01*
X021400Y030644D01*
X021411Y030573D01*
X021434Y030505D01*
X021466Y030440D01*
X021509Y030382D01*
X021446Y030480D02*
X021291Y030480D01*
X021197Y030345D02*
X021197Y028710D01*
X020877Y028710D02*
X020877Y030203D01*
X020557Y030305D02*
X020557Y028526D01*
X020591Y028560D02*
X019383Y028560D01*
X019277Y028454D02*
X019277Y027246D01*
X019311Y027280D02*
X018137Y027280D01*
X017857Y027430D02*
X017857Y025680D01*
X017857Y025430D01*
X018607Y024680D01*
X018607Y020930D01*
X021607Y020930D01*
X022357Y021680D01*
X023117Y022316D02*
X023117Y025271D01*
X023128Y025275D02*
X023262Y025410D01*
X023334Y025585D01*
X023334Y025775D01*
X023262Y025950D01*
X023128Y026085D01*
X022952Y026157D01*
X022762Y026157D01*
X022587Y026085D01*
X022453Y025950D01*
X022380Y025775D01*
X022380Y025585D01*
X022453Y025410D01*
X022587Y025275D01*
X022762Y025203D01*
X022952Y025203D01*
X023128Y025275D01*
X023212Y025360D02*
X023502Y025360D01*
X023453Y025410D02*
X023587Y025275D01*
X023762Y025203D01*
X023952Y025203D01*
X024128Y025275D01*
X024262Y025410D01*
X024334Y025585D01*
X024334Y025775D01*
X024262Y025950D01*
X024128Y026085D01*
X023952Y026157D01*
X023762Y026157D01*
X023587Y026085D01*
X023453Y025950D01*
X023380Y025775D01*
X023380Y025585D01*
X023453Y025410D01*
X023437Y025447D02*
X023437Y022177D01*
X023497Y022160D02*
X023691Y022160D01*
X023757Y022226D02*
X023757Y025205D01*
X024077Y025255D02*
X024077Y022460D01*
X024397Y022460D02*
X024397Y025544D01*
X024380Y025585D02*
X024453Y025410D01*
X024587Y025275D01*
X024762Y025203D01*
X024952Y025203D01*
X025128Y025275D01*
X025262Y025410D01*
X025334Y025585D01*
X025334Y025775D01*
X025262Y025950D01*
X025128Y026085D01*
X024952Y026157D01*
X024762Y026157D01*
X024587Y026085D01*
X024453Y025950D01*
X024380Y025775D01*
X024380Y025585D01*
X024380Y025680D02*
X024334Y025680D01*
X024397Y025816D02*
X024397Y028150D01*
X024077Y028150D02*
X024077Y026105D01*
X024212Y026000D02*
X024502Y026000D01*
X024717Y026138D02*
X024717Y028150D01*
X025037Y028150D02*
X025037Y026122D01*
X025212Y026000D02*
X025502Y026000D01*
X025677Y026122D02*
X025677Y028150D01*
X025357Y028150D02*
X025357Y022460D01*
X025037Y022460D02*
X025037Y025238D01*
X025212Y025360D02*
X025502Y025360D01*
X025380Y025680D02*
X025334Y025680D01*
X024717Y025222D02*
X024717Y022460D01*
X024829Y021840D02*
X024886Y021840D01*
X024886Y021520D02*
X024829Y021520D01*
X023857Y020680D02*
X018357Y020680D01*
X018357Y021930D01*
X017357Y022930D01*
X017357Y025930D01*
X016107Y027180D01*
X015875Y026960D02*
X013637Y026960D01*
X013637Y026640D02*
X016251Y026640D01*
X016397Y026494D02*
X016397Y025816D01*
X016334Y025775D02*
X016262Y025950D01*
X016128Y026085D01*
X015952Y026157D01*
X015762Y026157D01*
X015587Y026085D01*
X015453Y025950D01*
X015380Y025775D01*
X015380Y025585D01*
X015453Y025410D01*
X015587Y025275D01*
X015762Y025203D01*
X015952Y025203D01*
X016128Y025275D01*
X016262Y025410D01*
X016334Y025585D01*
X016334Y025775D01*
X016334Y025680D02*
X016380Y025680D01*
X016397Y025544D02*
X016397Y022286D01*
X016523Y022160D02*
X016618Y022160D01*
X016717Y022177D02*
X016717Y025222D01*
X016502Y025360D02*
X016212Y025360D01*
X016077Y025255D02*
X016077Y022606D01*
X016203Y022480D02*
X017411Y022480D01*
X017357Y022534D02*
X017357Y021983D01*
X017286Y021840D02*
X017229Y021840D01*
X017229Y021520D02*
X017286Y021520D01*
X017357Y021377D02*
X017357Y016826D01*
X017251Y016720D02*
X017137Y016720D01*
X016857Y017180D02*
X016857Y012930D01*
X020107Y009680D01*
X020327Y009447D02*
X020327Y007796D01*
X020291Y007760D02*
X017673Y007760D01*
X017677Y007756D02*
X017677Y011714D01*
X017791Y011600D02*
X016717Y011600D01*
X016717Y011280D02*
X018111Y011280D01*
X017997Y011394D02*
X017997Y007436D01*
X017993Y007440D02*
X019915Y007440D01*
X019917Y007443D02*
X019917Y009417D01*
X019975Y009360D02*
X020240Y009360D01*
X020327Y009360D01*
X020240Y009360D02*
X020327Y009447D01*
X020237Y009360D02*
X020237Y007706D01*
X020607Y007680D02*
X020607Y018180D01*
X020887Y018000D02*
X021641Y018000D01*
X021517Y018124D02*
X021517Y007416D01*
X021493Y007440D02*
X022221Y007440D01*
X022157Y007376D02*
X022157Y017484D01*
X021961Y017680D02*
X020887Y017680D01*
X021107Y017180D02*
X021107Y012930D01*
X021107Y007430D01*
X021607Y006930D01*
X021837Y007153D02*
X021837Y017804D01*
X022157Y018276D02*
X022157Y018400D01*
X022113Y018320D02*
X024077Y018320D01*
X024077Y018000D02*
X022433Y018000D01*
X022477Y017956D02*
X022477Y018400D01*
X022797Y018400D02*
X022797Y017693D01*
X023117Y018400D02*
X023117Y008336D01*
X023181Y008400D02*
X021387Y008400D01*
X021387Y008720D02*
X023501Y008720D01*
X023437Y008656D02*
X023437Y018400D01*
X023757Y018400D02*
X023757Y008976D01*
X023821Y009040D02*
X021387Y009040D01*
X021387Y009360D02*
X024077Y009360D01*
X024077Y009680D02*
X021387Y009680D01*
X021387Y010000D02*
X024077Y010000D01*
X024077Y010320D02*
X021387Y010320D01*
X021387Y010640D02*
X024077Y010640D01*
X024077Y010960D02*
X021387Y010960D01*
X021387Y011280D02*
X024077Y011280D01*
X024077Y011600D02*
X021387Y011600D01*
X021387Y011920D02*
X024077Y011920D01*
X024077Y012240D02*
X021387Y012240D01*
X021387Y012560D02*
X024077Y012560D01*
X024077Y012880D02*
X021427Y012880D01*
X021387Y013200D02*
X024077Y013200D01*
X024077Y013520D02*
X021387Y013520D01*
X021387Y013840D02*
X024077Y013840D01*
X024077Y014160D02*
X021387Y014160D01*
X021387Y014480D02*
X024077Y014480D01*
X024077Y014800D02*
X021387Y014800D01*
X021387Y015120D02*
X024077Y015120D01*
X024077Y015440D02*
X021387Y015440D01*
X021387Y015760D02*
X024077Y015760D01*
X024077Y016080D02*
X021387Y016080D01*
X021387Y016400D02*
X024077Y016400D01*
X024077Y016720D02*
X021387Y016720D01*
X021420Y017040D02*
X024077Y017040D01*
X024637Y018640D02*
X028921Y018640D01*
X029829Y021520D02*
X029886Y021520D01*
X029357Y021680D02*
X029357Y025930D01*
X032357Y028930D01*
X037857Y028930D01*
X037857Y029180D01*
X038357Y029680D01*
X038477Y030180D02*
X038477Y030200D01*
X038584Y030160D02*
X039130Y030160D01*
X039117Y030147D02*
X039117Y030213D01*
X039437Y030180D02*
X039437Y030180D01*
X039584Y030160D02*
X040447Y030160D01*
X040447Y029840D02*
X039857Y029840D01*
X039757Y029987D02*
X039757Y030373D01*
X039857Y030480D02*
X040447Y030480D01*
X040447Y030800D02*
X039857Y030800D01*
X039757Y030987D02*
X039757Y032896D01*
X039437Y032896D02*
X039437Y031180D01*
X039624Y031120D02*
X040447Y031120D01*
X040447Y031440D02*
X038961Y031440D01*
X038797Y031460D02*
X038797Y032896D01*
X038477Y032896D02*
X038477Y031460D01*
X038157Y031460D02*
X038157Y032896D01*
X037837Y032896D02*
X037837Y031460D01*
X037517Y031460D02*
X037517Y032896D01*
X037197Y032896D02*
X037197Y031460D01*
X036877Y031460D02*
X036877Y032896D01*
X036557Y032896D02*
X036557Y031460D01*
X036237Y031460D02*
X036237Y032896D01*
X035917Y032896D02*
X035917Y031460D01*
X035753Y031440D02*
X035353Y031440D01*
X035597Y031284D02*
X035597Y032896D01*
X035277Y032896D02*
X035277Y032038D01*
X035235Y032080D02*
X040447Y032080D01*
X040447Y031760D02*
X035407Y031760D01*
X034957Y032230D02*
X034957Y032896D01*
X034637Y032896D02*
X034637Y032184D01*
X034479Y032080D02*
X034235Y032080D01*
X034317Y031998D02*
X034317Y032896D01*
X033997Y032896D02*
X033997Y032217D01*
X033677Y032201D02*
X033677Y032896D01*
X033357Y032896D02*
X033357Y031910D01*
X033235Y032080D02*
X033479Y032080D01*
X033037Y032201D02*
X033037Y032896D01*
X032717Y032896D02*
X032717Y032217D01*
X032479Y032080D02*
X032235Y032080D01*
X032397Y031998D02*
X032397Y032896D01*
X032077Y032896D02*
X032077Y032184D01*
X031757Y032230D02*
X031757Y032896D01*
X031437Y032896D02*
X031437Y032038D01*
X031479Y032080D02*
X026235Y032080D01*
X026317Y031998D02*
X026317Y032896D01*
X025997Y032896D02*
X025997Y032217D01*
X025677Y032201D02*
X025677Y032896D01*
X025357Y032896D02*
X025357Y031910D01*
X025235Y032080D02*
X025479Y032080D01*
X025037Y032201D02*
X025037Y032896D01*
X024717Y032896D02*
X024717Y032217D01*
X024479Y032080D02*
X024235Y032080D01*
X024397Y031998D02*
X024397Y032896D01*
X024077Y032896D02*
X024077Y032184D01*
X023757Y032230D02*
X023757Y032896D01*
X023437Y032896D02*
X023437Y032038D01*
X023479Y032080D02*
X023235Y032080D01*
X023117Y032168D02*
X023117Y032896D01*
X022797Y032896D02*
X022797Y032230D01*
X022479Y032080D02*
X017235Y032080D01*
X017357Y031910D02*
X017357Y032896D01*
X017037Y032896D02*
X017037Y032201D01*
X016717Y032217D02*
X016717Y032896D01*
X016397Y032896D02*
X016397Y031998D01*
X016479Y032080D02*
X016235Y032080D01*
X016077Y032184D02*
X016077Y032896D01*
X015757Y032896D02*
X015757Y032230D01*
X015479Y032080D02*
X015235Y032080D01*
X015117Y032168D02*
X015117Y032896D01*
X014797Y032896D02*
X014797Y032230D01*
X014479Y032080D02*
X014235Y032080D01*
X014157Y032151D02*
X014157Y032896D01*
X013837Y032896D02*
X013837Y032230D01*
X013517Y032118D02*
X013517Y032896D01*
X013197Y032896D02*
X013197Y030987D01*
X013206Y030978D02*
X013155Y031029D01*
X013097Y031071D01*
X013033Y031104D01*
X012964Y031126D01*
X012893Y031137D01*
X012866Y031137D01*
X012866Y030689D01*
X013314Y030689D01*
X013314Y030716D01*
X013303Y030787D01*
X013281Y030855D01*
X013248Y030920D01*
X013206Y030978D01*
X013299Y030800D02*
X013387Y030800D01*
X013197Y030689D02*
X013197Y030671D01*
X013268Y030480D02*
X013377Y030480D01*
X013197Y030373D02*
X013197Y030030D01*
X013279Y030160D02*
X012637Y030160D01*
X012877Y030223D02*
X012877Y029980D01*
X012757Y029840D02*
X012637Y029840D01*
X012337Y029304D02*
X013077Y028564D01*
X013077Y026105D01*
X012952Y026157D01*
X012762Y026157D01*
X012595Y026088D01*
X012595Y026089D01*
X012516Y026167D01*
X012177Y026506D01*
X012177Y026563D01*
X011990Y026750D01*
X011725Y026750D01*
X011537Y026563D01*
X011537Y026297D01*
X011702Y026132D01*
X011587Y026085D01*
X011453Y025950D01*
X011380Y025775D01*
X011380Y025585D01*
X011453Y025410D01*
X011587Y025275D01*
X011762Y025203D01*
X011952Y025203D01*
X012077Y025255D01*
X012077Y022034D01*
X012068Y022044D01*
X012007Y022088D01*
X011940Y022122D01*
X011869Y022145D01*
X011795Y022157D01*
X011776Y022157D01*
X011776Y021698D01*
X011739Y021698D01*
X011739Y021662D01*
X011280Y021662D01*
X011280Y021642D01*
X011292Y021568D01*
X011315Y021497D01*
X011334Y021460D01*
X011204Y021460D01*
X011254Y021581D01*
X011254Y021779D01*
X011178Y021961D01*
X011039Y022101D01*
X010856Y022177D01*
X010658Y022177D01*
X010476Y022101D01*
X010336Y021961D01*
X010260Y021779D01*
X010260Y021581D01*
X010311Y021460D01*
X009137Y021460D01*
X009137Y024752D01*
X009262Y024700D01*
X009453Y024700D01*
X009629Y024773D01*
X012129Y027273D01*
X012264Y027408D01*
X012337Y027585D01*
X012337Y029304D01*
X012337Y029200D02*
X012441Y029200D01*
X012557Y029084D02*
X012557Y026126D01*
X012363Y026320D02*
X013077Y026320D01*
X012877Y026157D02*
X012877Y028764D01*
X012761Y028880D02*
X012337Y028880D01*
X012337Y028560D02*
X013077Y028560D01*
X013077Y028240D02*
X012337Y028240D01*
X012337Y027920D02*
X013077Y027920D01*
X013077Y027600D02*
X012337Y027600D01*
X012237Y027381D02*
X012237Y026446D01*
X012100Y026640D02*
X013077Y026640D01*
X013077Y026960D02*
X011816Y026960D01*
X011917Y027061D02*
X011917Y026750D01*
X011597Y026741D02*
X011597Y026623D01*
X011615Y026640D02*
X011496Y026640D01*
X011277Y026421D02*
X011277Y021460D01*
X011308Y021520D02*
X011229Y021520D01*
X011280Y021698D02*
X011739Y021698D01*
X011739Y022157D01*
X011720Y022157D01*
X011646Y022145D01*
X011574Y022122D01*
X011507Y022088D01*
X011447Y022044D01*
X011394Y021991D01*
X011349Y021930D01*
X011315Y021863D01*
X011292Y021792D01*
X011280Y021718D01*
X011280Y021698D01*
X011308Y021840D02*
X011229Y021840D01*
X011597Y021698D02*
X011597Y021662D01*
X011739Y021840D02*
X011776Y021840D01*
X011917Y022129D02*
X011917Y025203D01*
X012077Y025040D02*
X009896Y025040D01*
X009997Y025141D02*
X009997Y021460D01*
X010286Y021520D02*
X009137Y021520D01*
X009357Y021460D02*
X009357Y024700D01*
X009214Y024720D02*
X009137Y024720D01*
X009137Y024400D02*
X012077Y024400D01*
X012077Y024720D02*
X009501Y024720D01*
X009677Y024821D02*
X009677Y021460D01*
X009137Y021840D02*
X010286Y021840D01*
X010317Y021916D02*
X010317Y025461D01*
X010216Y025360D02*
X011502Y025360D01*
X011597Y025271D02*
X011597Y022129D01*
X012077Y022160D02*
X010897Y022160D01*
X010957Y022135D02*
X010957Y026101D01*
X010856Y026000D02*
X011502Y026000D01*
X011597Y026089D02*
X011597Y026237D01*
X011537Y026320D02*
X011176Y026320D01*
X010637Y025781D02*
X010637Y022168D01*
X010618Y022160D02*
X009137Y022160D01*
X009137Y022480D02*
X012077Y022480D01*
X012077Y022800D02*
X009137Y022800D01*
X009137Y023120D02*
X012077Y023120D01*
X012077Y023440D02*
X009137Y023440D01*
X009137Y023760D02*
X012077Y023760D01*
X012077Y024080D02*
X009137Y024080D01*
X009137Y025639D02*
X009137Y028197D01*
X009225Y028110D01*
X009490Y028110D01*
X009677Y028297D01*
X009677Y028563D01*
X009637Y028603D01*
X009637Y030230D01*
X009758Y030180D01*
X009957Y030180D01*
X010141Y030256D01*
X010281Y030397D01*
X010357Y030581D01*
X010357Y030779D01*
X010281Y030963D01*
X010141Y031104D01*
X009957Y031180D01*
X009758Y031180D01*
X009637Y031230D01*
X009637Y031130D01*
X009758Y031180D01*
X009957Y031180D01*
X010141Y031256D01*
X010281Y031397D01*
X010357Y031581D01*
X010357Y031779D01*
X010307Y031900D01*
X010431Y031900D01*
X010412Y031864D01*
X010389Y031792D01*
X010377Y031718D01*
X010377Y031700D01*
X010837Y031700D01*
X010837Y031660D01*
X010377Y031660D01*
X010377Y031642D01*
X010389Y031568D01*
X010412Y031496D01*
X010447Y031428D01*
X010491Y031367D01*
X010545Y031314D01*
X010606Y031269D01*
X010673Y031235D01*
X010745Y031212D01*
X010820Y031200D01*
X010837Y031200D01*
X010837Y031660D01*
X010877Y031660D01*
X010877Y031200D01*
X010895Y031200D01*
X010970Y031212D01*
X011042Y031235D01*
X011109Y031269D01*
X011170Y031314D01*
X011223Y031367D01*
X011268Y031428D01*
X011302Y031496D01*
X011325Y031566D01*
X011740Y031151D01*
X011585Y031087D01*
X011450Y030952D01*
X011377Y030775D01*
X011377Y027879D01*
X009137Y025639D01*
X009137Y025680D02*
X009178Y025680D01*
X009357Y025859D02*
X009357Y028110D01*
X009137Y027920D02*
X011377Y027920D01*
X011277Y027779D02*
X011277Y030447D01*
X011268Y030428D02*
X011302Y030496D01*
X011325Y030568D01*
X011337Y030642D01*
X011337Y030660D01*
X010877Y030660D01*
X010877Y030200D01*
X010895Y030200D01*
X010970Y030212D01*
X011042Y030235D01*
X011109Y030269D01*
X011170Y030314D01*
X011223Y030367D01*
X011268Y030428D01*
X011294Y030480D02*
X011377Y030480D01*
X011277Y030660D02*
X011277Y030700D01*
X011337Y030700D02*
X011337Y030718D01*
X011325Y030792D01*
X011302Y030864D01*
X011268Y030932D01*
X011223Y030993D01*
X011170Y031046D01*
X011109Y031091D01*
X011042Y031125D01*
X010970Y031148D01*
X010895Y031160D01*
X010877Y031160D01*
X010877Y030700D01*
X010837Y030700D01*
X010837Y030660D01*
X010377Y030660D01*
X010377Y030642D01*
X010389Y030568D01*
X010412Y030496D01*
X010447Y030428D01*
X010491Y030367D01*
X010545Y030314D01*
X010606Y030269D01*
X010673Y030235D01*
X010745Y030212D01*
X010820Y030200D01*
X010837Y030200D01*
X010837Y030660D01*
X010877Y030660D01*
X010877Y030700D01*
X011337Y030700D01*
X011323Y030800D02*
X011387Y030800D01*
X011277Y030913D02*
X011277Y031447D01*
X011274Y031440D02*
X011451Y031440D01*
X011597Y031294D02*
X011597Y031092D01*
X011665Y031120D02*
X011051Y031120D01*
X010957Y031150D02*
X010957Y031210D01*
X010877Y031120D02*
X010837Y031120D01*
X010837Y031160D02*
X010820Y031160D01*
X010745Y031148D01*
X010673Y031125D01*
X010606Y031091D01*
X010545Y031046D01*
X010491Y030993D01*
X010447Y030932D01*
X010412Y030864D01*
X010389Y030792D01*
X010377Y030718D01*
X010377Y030700D01*
X010837Y030700D01*
X010837Y031160D01*
X010664Y031120D02*
X010102Y031120D01*
X009997Y031163D02*
X009997Y031197D01*
X009677Y031213D02*
X009677Y031147D01*
X010299Y031440D02*
X010441Y031440D01*
X010317Y031484D02*
X010317Y030876D01*
X010349Y030800D02*
X010392Y030800D01*
X010637Y030700D02*
X010637Y030660D01*
X010837Y030800D02*
X010877Y030800D01*
X010957Y030700D02*
X010957Y030660D01*
X010877Y030480D02*
X010837Y030480D01*
X010957Y030210D02*
X010957Y027459D01*
X011098Y027600D02*
X009137Y027600D01*
X009137Y027280D02*
X010778Y027280D01*
X010637Y027139D02*
X010637Y030253D01*
X010420Y030480D02*
X010316Y030480D01*
X010317Y030484D02*
X010317Y026819D01*
X010458Y026960D02*
X009137Y026960D01*
X009137Y026640D02*
X010138Y026640D01*
X009997Y026499D02*
X009997Y030197D01*
X009677Y030213D02*
X009677Y026179D01*
X009818Y026320D02*
X009137Y026320D01*
X009137Y026000D02*
X009498Y026000D01*
X010536Y025680D02*
X011380Y025680D01*
X011857Y026430D02*
X012357Y025930D01*
X012357Y021930D01*
X012607Y021680D01*
X012757Y021680D01*
X013197Y020900D02*
X013197Y020849D01*
X013517Y020900D02*
X013517Y020529D01*
X013486Y020560D02*
X018104Y020560D01*
X019787Y019280D02*
X014766Y019280D01*
X014797Y019249D02*
X014797Y020900D01*
X014477Y020900D02*
X014477Y019569D01*
X014446Y019600D02*
X020631Y019600D01*
X020877Y019846D02*
X020877Y020400D01*
X021197Y020400D02*
X021197Y020223D01*
X021215Y020240D02*
X013806Y020240D01*
X013837Y020209D02*
X013837Y020900D01*
X014157Y020900D02*
X014157Y019889D01*
X014126Y019920D02*
X020951Y019920D01*
X021500Y020240D02*
X022287Y020240D01*
X022157Y020400D02*
X022157Y019026D01*
X022287Y019280D02*
X021903Y019280D01*
X021837Y019346D02*
X021837Y020400D01*
X021517Y020400D02*
X021517Y020223D01*
X022607Y020180D02*
X022607Y019180D01*
X023357Y021680D02*
X021357Y023680D01*
X021357Y026430D01*
X021115Y026640D02*
X019463Y026640D01*
X019597Y026774D02*
X019597Y025336D01*
X018351Y026320D02*
X018137Y026320D01*
X018137Y026640D02*
X018671Y026640D01*
X018637Y026606D02*
X018637Y027814D01*
X018743Y027920D02*
X019951Y027920D01*
X019917Y027886D02*
X019917Y030900D01*
X019597Y030900D02*
X019597Y029143D01*
X019540Y029200D02*
X021757Y029200D01*
X021757Y029520D02*
X018083Y029520D01*
X017997Y029722D02*
X017997Y030222D01*
X017677Y030238D02*
X017677Y030039D01*
X017556Y030160D02*
X022279Y030160D01*
X022157Y030333D02*
X022157Y029980D01*
X021837Y029943D02*
X021837Y030223D01*
X021849Y030480D02*
X021866Y030480D01*
X021837Y030671D02*
X021837Y030689D01*
X021517Y030671D02*
X021517Y030689D01*
X021416Y030800D02*
X021324Y030800D01*
X021197Y031460D02*
X021197Y032896D01*
X020877Y032896D02*
X020877Y031460D01*
X020557Y031460D02*
X020557Y032896D01*
X020237Y032896D02*
X020237Y031460D01*
X019917Y031460D02*
X019917Y032896D01*
X019597Y032896D02*
X019597Y031460D01*
X019277Y031460D02*
X019277Y032896D01*
X018957Y032896D02*
X018957Y031460D01*
X018637Y031460D02*
X018637Y032896D01*
X018317Y032896D02*
X018317Y031460D01*
X018253Y031440D02*
X017353Y031440D01*
X017357Y031450D02*
X017357Y030359D01*
X017337Y030480D02*
X017424Y030480D01*
X017391Y030800D02*
X017327Y030800D01*
X017049Y031120D02*
X017673Y031120D01*
X017677Y031122D02*
X017677Y032896D01*
X017997Y032896D02*
X017997Y031216D01*
X018357Y031180D02*
X017857Y030680D01*
X018291Y030480D02*
X018446Y030480D01*
X018434Y030505D02*
X018466Y030440D01*
X018509Y030382D01*
X018559Y030331D01*
X018618Y030289D01*
X018682Y030256D01*
X018750Y030234D01*
X018821Y030223D01*
X018849Y030223D01*
X018849Y030671D01*
X018400Y030671D01*
X018400Y030644D01*
X018411Y030573D01*
X018434Y030505D01*
X018317Y030544D02*
X018317Y028286D01*
X018271Y028240D02*
X013637Y028240D01*
X013637Y027920D02*
X017951Y027920D01*
X017997Y027966D02*
X017997Y029038D01*
X018066Y029200D02*
X019175Y029200D01*
X019277Y029250D02*
X019277Y030497D01*
X019268Y030480D02*
X020424Y030480D01*
X020391Y030800D02*
X019299Y030800D01*
X019277Y030863D02*
X019277Y030900D01*
X019277Y030689D02*
X019277Y030671D01*
X018957Y030671D02*
X018957Y030689D01*
X018866Y030800D02*
X018849Y030800D01*
X018637Y030689D02*
X018637Y030671D01*
X018416Y030800D02*
X018373Y030800D01*
X018357Y031180D02*
X026857Y031180D01*
X026857Y030680D01*
X026961Y031440D02*
X027221Y031440D01*
X027277Y031496D02*
X027277Y032896D01*
X026957Y032896D02*
X026957Y031442D01*
X026637Y031460D02*
X026637Y032896D01*
X027597Y032896D02*
X027597Y031873D01*
X027537Y031760D02*
X026407Y031760D01*
X027693Y031120D02*
X027732Y031120D01*
X027849Y031120D02*
X027866Y031120D01*
X027849Y030800D02*
X027866Y030800D01*
X027917Y030689D02*
X027917Y030671D01*
X027866Y030480D02*
X027849Y030480D01*
X027917Y030227D02*
X027917Y026157D01*
X027637Y026320D02*
X029351Y026320D01*
X029077Y025680D02*
X028334Y025680D01*
X027357Y026180D02*
X026857Y025680D01*
X026502Y025360D02*
X026212Y025360D01*
X026637Y025255D02*
X026637Y024856D01*
X026577Y024720D02*
X021637Y024720D01*
X021637Y024400D02*
X026577Y024400D01*
X026577Y024080D02*
X021637Y024080D01*
X021673Y023760D02*
X026577Y023760D01*
X026577Y023440D02*
X021993Y023440D01*
X021837Y023596D02*
X021837Y025203D01*
X021637Y025040D02*
X026821Y025040D01*
X026957Y025176D02*
X026957Y025205D01*
X027293Y024720D02*
X029077Y024720D01*
X029077Y024400D02*
X027137Y024400D01*
X027137Y024080D02*
X029077Y024080D01*
X029077Y023760D02*
X027137Y023760D01*
X027137Y023440D02*
X029077Y023440D01*
X029077Y023120D02*
X027137Y023120D01*
X027137Y022800D02*
X029077Y022800D01*
X029637Y022160D02*
X030218Y022160D01*
X030157Y022135D02*
X030157Y025234D01*
X030351Y025040D02*
X029637Y025040D01*
X029637Y024720D02*
X030671Y024720D01*
X030797Y024594D02*
X030797Y021916D01*
X030829Y021840D02*
X030886Y021840D01*
X031117Y022118D02*
X031117Y024274D01*
X030991Y024400D02*
X029637Y024400D01*
X030477Y024914D02*
X030477Y022168D01*
X030497Y022160D02*
X031218Y022160D01*
X033037Y023146D02*
X033037Y025238D01*
X033212Y025360D02*
X033502Y025360D01*
X033380Y025680D02*
X033334Y025680D01*
X033212Y026000D02*
X033502Y026000D01*
X033677Y026122D02*
X033677Y028650D01*
X033997Y028650D02*
X033997Y026138D01*
X034212Y026000D02*
X034502Y026000D01*
X034637Y026105D02*
X034637Y028650D01*
X034317Y028650D02*
X034317Y025816D01*
X034334Y025680D02*
X034380Y025680D01*
X034957Y026155D02*
X034957Y028650D01*
X035277Y028650D02*
X035277Y025913D01*
X035212Y026000D02*
X035502Y026000D01*
X035597Y026089D02*
X035597Y028650D01*
X035917Y028650D02*
X035917Y026157D01*
X036101Y026320D02*
X030143Y026320D01*
X030157Y026334D02*
X030157Y026055D01*
X030212Y026000D02*
X030502Y026000D01*
X030477Y025975D02*
X030477Y026654D01*
X030463Y026640D02*
X036421Y026640D01*
X036557Y026776D02*
X036557Y028650D01*
X036237Y028650D02*
X036237Y026456D01*
X036857Y026680D02*
X037357Y027180D01*
X037590Y026960D02*
X038077Y026960D01*
X038077Y027280D02*
X037677Y027280D01*
X037517Y027473D02*
X037517Y028650D01*
X037197Y028650D02*
X037197Y027473D01*
X037037Y027280D02*
X031103Y027280D01*
X031117Y027294D02*
X031117Y026089D01*
X031212Y026000D02*
X031502Y026000D01*
X031437Y025913D02*
X031437Y027614D01*
X031423Y027600D02*
X038077Y027600D01*
X038077Y027920D02*
X031743Y027920D01*
X031757Y027934D02*
X031757Y026155D01*
X032077Y026105D02*
X032077Y028254D01*
X032063Y028240D02*
X038077Y028240D01*
X037857Y028560D02*
X032383Y028560D01*
X031757Y028726D02*
X031757Y028780D01*
X031591Y028560D02*
X027637Y028560D01*
X027357Y028430D02*
X027357Y026180D01*
X027277Y024704D02*
X027277Y011406D01*
X027403Y011280D02*
X029861Y011280D01*
X029837Y011304D02*
X029837Y008846D01*
X029963Y008720D02*
X030827Y008720D01*
X031387Y008720D02*
X037860Y008720D01*
X037935Y008400D02*
X031387Y008400D01*
X031387Y009040D02*
X038015Y009040D01*
X038157Y009135D02*
X038157Y009225D01*
X038076Y009259D02*
X038258Y009183D01*
X038456Y009183D01*
X038639Y009259D01*
X038778Y009399D01*
X038854Y009581D01*
X038854Y009779D01*
X038778Y009961D01*
X038639Y010101D01*
X038456Y010177D01*
X038258Y010177D01*
X038076Y010101D01*
X037936Y009961D01*
X037860Y009779D01*
X037860Y009581D01*
X037936Y009399D01*
X038076Y009259D01*
X037975Y009360D02*
X031387Y009360D01*
X031387Y009680D02*
X037860Y009680D01*
X037975Y010000D02*
X031387Y010000D01*
X031387Y010320D02*
X038015Y010320D01*
X038157Y010225D02*
X038157Y010135D01*
X038477Y010168D02*
X038477Y010192D01*
X038700Y010320D02*
X039015Y010320D01*
X039117Y010242D02*
X039117Y010118D01*
X038975Y010000D02*
X038740Y010000D01*
X038797Y009916D02*
X038797Y010444D01*
X038854Y010640D02*
X038860Y010640D01*
X039357Y011180D02*
X038107Y011180D01*
X037846Y011280D02*
X031353Y011280D01*
X031437Y011364D02*
X031437Y003177D01*
X031456Y003177D02*
X031258Y003177D01*
X031076Y003101D01*
X030936Y002961D01*
X030860Y002779D01*
X030860Y002581D01*
X030936Y002399D01*
X031076Y002259D01*
X031258Y002183D01*
X031456Y002183D01*
X031639Y002259D01*
X031778Y002399D01*
X031854Y002581D01*
X031854Y002779D01*
X031778Y002961D01*
X031639Y003101D01*
X031456Y003177D01*
X031117Y003118D02*
X031117Y006487D01*
X031110Y006480D02*
X035955Y006480D01*
X035917Y006443D02*
X035917Y014150D01*
X035597Y014150D02*
X035597Y003118D01*
X035639Y003101D02*
X035456Y003177D01*
X035258Y003177D01*
X035076Y003101D01*
X034936Y002961D01*
X034860Y002779D01*
X034860Y002581D01*
X034936Y002399D01*
X035076Y002259D01*
X035258Y002183D01*
X035456Y002183D01*
X035639Y002259D01*
X035778Y002399D01*
X035854Y002581D01*
X035854Y002779D01*
X035778Y002961D01*
X035639Y003101D01*
X035779Y002960D02*
X035935Y002960D01*
X035917Y002916D02*
X035917Y005917D01*
X035787Y006160D02*
X021790Y006160D01*
X021837Y006207D02*
X021837Y002820D01*
X021779Y002960D02*
X021935Y002960D01*
X022157Y003135D02*
X022157Y006584D01*
X022053Y006480D02*
X030605Y006480D01*
X030797Y006360D02*
X030797Y002916D01*
X030779Y002960D02*
X030935Y002960D01*
X030860Y002640D02*
X030854Y002640D01*
X030797Y002444D02*
X030797Y001960D01*
X030477Y001960D02*
X030477Y002192D01*
X030700Y002320D02*
X031015Y002320D01*
X031117Y002242D02*
X031117Y001960D01*
X031437Y001960D02*
X031437Y002183D01*
X031700Y002320D02*
X032015Y002320D01*
X032076Y002259D02*
X032258Y002183D01*
X032456Y002183D01*
X032639Y002259D01*
X032778Y002399D01*
X032854Y002581D01*
X032854Y002779D01*
X032778Y002961D01*
X032639Y003101D01*
X032456Y003177D01*
X032258Y003177D01*
X032076Y003101D01*
X031936Y002961D01*
X031860Y002779D01*
X031860Y002581D01*
X031936Y002399D01*
X032076Y002259D01*
X032077Y002258D02*
X032077Y001960D01*
X031757Y001960D02*
X031757Y002377D01*
X031854Y002640D02*
X031860Y002640D01*
X031935Y002960D02*
X031779Y002960D01*
X031757Y002983D02*
X031757Y011684D01*
X031673Y011600D02*
X037860Y011600D01*
X037919Y011920D02*
X031993Y011920D01*
X032077Y012004D02*
X032077Y003102D01*
X032397Y003177D02*
X032397Y012324D01*
X032313Y012240D02*
X037829Y012240D01*
X037837Y012260D02*
X037837Y014054D01*
X037886Y013840D02*
X033927Y013840D01*
X033997Y014150D02*
X033997Y003023D01*
X033936Y002961D02*
X033860Y002779D01*
X033860Y002581D01*
X033936Y002399D01*
X034076Y002259D01*
X034258Y002183D01*
X034456Y002183D01*
X034639Y002259D01*
X034778Y002399D01*
X034854Y002581D01*
X034854Y002779D01*
X034778Y002961D01*
X034639Y003101D01*
X034456Y003177D01*
X034258Y003177D01*
X034076Y003101D01*
X033936Y002961D01*
X033935Y002960D02*
X033779Y002960D01*
X033778Y002961D02*
X033639Y003101D01*
X033456Y003177D01*
X033258Y003177D01*
X033076Y003101D01*
X032936Y002961D01*
X032860Y002779D01*
X032860Y002581D01*
X032936Y002399D01*
X033076Y002259D01*
X033258Y002183D01*
X033456Y002183D01*
X033639Y002259D01*
X033778Y002399D01*
X033854Y002581D01*
X033854Y002779D01*
X033778Y002961D01*
X033677Y003063D02*
X033677Y013604D01*
X033593Y013520D02*
X037886Y013520D01*
X038157Y013225D02*
X038157Y013135D01*
X038218Y013200D02*
X033273Y013200D01*
X033357Y013284D02*
X033357Y003177D01*
X033037Y003063D02*
X033037Y012964D01*
X032953Y012880D02*
X037902Y012880D01*
X037869Y012560D02*
X032633Y012560D01*
X032717Y012644D02*
X032717Y003023D01*
X032779Y002960D02*
X032935Y002960D01*
X032860Y002640D02*
X032854Y002640D01*
X032717Y002337D02*
X032717Y001960D01*
X032397Y001960D02*
X032397Y002183D01*
X032700Y002320D02*
X033015Y002320D01*
X033037Y002297D02*
X033037Y001960D01*
X033357Y001960D02*
X033357Y002183D01*
X033677Y002297D02*
X033677Y001960D01*
X033997Y001960D02*
X033997Y002337D01*
X034015Y002320D02*
X033700Y002320D01*
X033854Y002640D02*
X033860Y002640D01*
X034317Y002183D02*
X034317Y001960D01*
X034637Y001960D02*
X034637Y002258D01*
X034700Y002320D02*
X035015Y002320D01*
X034957Y002377D02*
X034957Y001960D01*
X035277Y001960D02*
X035277Y002183D01*
X035597Y002242D02*
X035597Y001960D01*
X035917Y001960D02*
X035917Y002444D01*
X036015Y002320D02*
X035700Y002320D01*
X035854Y002640D02*
X035860Y002640D01*
X036237Y002192D02*
X036237Y001960D01*
X036557Y001960D02*
X036557Y002225D01*
X036700Y002320D02*
X037015Y002320D01*
X037197Y002208D02*
X037197Y001960D01*
X036877Y001960D02*
X036877Y002540D01*
X036860Y002640D02*
X036854Y002640D01*
X036237Y003168D02*
X036237Y005860D01*
X036107Y006180D02*
X037607Y007680D01*
X038357Y006930D01*
X038357Y006680D01*
X038157Y006225D02*
X038157Y006135D01*
X037886Y005840D02*
X016717Y005840D01*
X016717Y005520D02*
X037886Y005520D01*
X037924Y004880D02*
X016717Y004880D01*
X016717Y004560D02*
X037895Y004560D01*
X038157Y004662D02*
X038157Y004698D01*
X038339Y004560D02*
X038376Y004560D01*
X038477Y004662D02*
X038477Y004698D01*
X038376Y004880D02*
X038339Y004880D01*
X038791Y004880D02*
X038924Y004880D01*
X038797Y004867D02*
X038797Y005444D01*
X038829Y005520D02*
X038886Y005520D01*
X038886Y005840D02*
X038829Y005840D01*
X038797Y005916D02*
X038797Y006444D01*
X038812Y006480D02*
X038902Y006480D01*
X039117Y006242D02*
X039117Y006118D01*
X038869Y006800D02*
X038845Y006800D01*
X038797Y006916D02*
X038797Y007444D01*
X038796Y007440D02*
X038919Y007440D01*
X039117Y007242D02*
X039117Y007118D01*
X039121Y007120D02*
X038593Y007120D01*
X038854Y007760D02*
X038860Y007760D01*
X038797Y007916D02*
X038797Y008444D01*
X038779Y008400D02*
X038935Y008400D01*
X038860Y008720D02*
X038854Y008720D01*
X038797Y008916D02*
X038797Y009444D01*
X038740Y009360D02*
X038975Y009360D01*
X039117Y009242D02*
X039117Y009118D01*
X039015Y009040D02*
X038700Y009040D01*
X038477Y009168D02*
X038477Y009192D01*
X038854Y009680D02*
X038860Y009680D01*
X039437Y010177D02*
X039437Y010183D01*
X039700Y010320D02*
X040447Y010320D01*
X040447Y011280D02*
X039660Y011280D01*
X039357Y011180D02*
X039357Y011680D01*
X039357Y012180D02*
X039357Y012680D01*
X038902Y012880D02*
X038812Y012880D01*
X038797Y012916D02*
X038797Y013094D01*
X038870Y013021D02*
X038870Y013021D01*
X038699Y013193D02*
X038699Y013193D01*
X038691Y013200D02*
X038497Y013200D01*
X038477Y013192D02*
X038477Y013168D01*
X038845Y012560D02*
X038869Y012560D01*
X039357Y012180D02*
X038107Y012180D01*
X037837Y012100D02*
X037837Y011260D01*
X037837Y011100D02*
X037837Y007903D01*
X037517Y008000D02*
X037517Y014150D01*
X037837Y015460D02*
X037837Y015804D01*
X038357Y016680D02*
X038857Y016180D01*
X035277Y014150D02*
X035277Y003177D01*
X034957Y002983D02*
X034957Y014150D01*
X034637Y014150D02*
X034637Y003102D01*
X034779Y002960D02*
X034935Y002960D01*
X034860Y002640D02*
X034854Y002640D01*
X034317Y003177D02*
X034317Y014150D01*
X033607Y013930D02*
X030857Y011180D01*
X031090Y010960D02*
X037931Y010960D01*
X037860Y010640D02*
X031293Y010640D01*
X031117Y010816D02*
X031117Y010987D01*
X028877Y009014D02*
X028877Y008556D01*
X029033Y008400D02*
X029491Y008400D01*
X029517Y008374D02*
X029517Y007916D01*
X029607Y007430D02*
X024857Y012180D01*
X024857Y012680D01*
X025833Y011600D02*
X026291Y011600D01*
X026317Y011574D02*
X026317Y011116D01*
X026473Y010960D02*
X026931Y010960D01*
X026957Y010934D02*
X026957Y010476D01*
X027113Y010320D02*
X027571Y010320D01*
X027597Y010294D02*
X027597Y009836D01*
X027753Y009680D02*
X028211Y009680D01*
X028237Y009654D02*
X028237Y009196D01*
X028393Y009040D02*
X028851Y009040D01*
X027601Y009040D02*
X024602Y009040D01*
X024637Y009360D02*
X027281Y009360D01*
X027277Y009364D02*
X027277Y003177D01*
X027597Y003118D02*
X027597Y009044D01*
X026961Y009680D02*
X024637Y009680D01*
X024637Y010000D02*
X026641Y010000D01*
X026637Y010004D02*
X026637Y003102D01*
X026639Y003101D02*
X026456Y003177D01*
X026258Y003177D01*
X026076Y003101D01*
X025936Y002961D01*
X025860Y002779D01*
X025860Y002581D01*
X025936Y002399D01*
X026076Y002259D01*
X026258Y002183D01*
X026456Y002183D01*
X026639Y002259D01*
X026778Y002399D01*
X026854Y002581D01*
X026854Y002779D01*
X026778Y002961D01*
X026639Y003101D01*
X026779Y002960D02*
X026935Y002960D01*
X026957Y002983D02*
X026957Y009684D01*
X026321Y010320D02*
X024637Y010320D01*
X024637Y010640D02*
X026001Y010640D01*
X025997Y010644D02*
X025997Y003023D01*
X025935Y002960D02*
X025779Y002960D01*
X025677Y003063D02*
X025677Y010964D01*
X025681Y010960D02*
X024637Y010960D01*
X024637Y011280D02*
X025361Y011280D01*
X025357Y011284D02*
X025357Y003177D01*
X025854Y002640D02*
X025860Y002640D01*
X025997Y002337D02*
X025997Y001960D01*
X025677Y001960D02*
X025677Y002297D01*
X025700Y002320D02*
X026015Y002320D01*
X026317Y002183D02*
X026317Y001960D01*
X026637Y001960D02*
X026637Y002258D01*
X026700Y002320D02*
X027015Y002320D01*
X026957Y002377D02*
X026957Y001960D01*
X027277Y001960D02*
X027277Y002183D01*
X027597Y002242D02*
X027597Y001960D01*
X027917Y001960D02*
X027917Y002444D01*
X028015Y002320D02*
X027700Y002320D01*
X027854Y002640D02*
X027860Y002640D01*
X028237Y002192D02*
X028237Y001960D01*
X028557Y001960D02*
X028557Y002225D01*
X028700Y002320D02*
X030015Y002320D01*
X030157Y002225D02*
X030157Y001960D01*
X029837Y001960D02*
X029837Y007207D01*
X029750Y007120D02*
X030827Y007120D01*
X030797Y007016D02*
X030797Y007417D01*
X030820Y007440D02*
X030827Y007440D01*
X030477Y007360D02*
X030477Y003168D01*
X029860Y002640D02*
X028854Y002640D01*
X028877Y001960D02*
X028877Y007764D01*
X028881Y007760D02*
X023333Y007760D01*
X023437Y007864D02*
X023437Y003177D01*
X023117Y003118D02*
X023117Y007544D01*
X023013Y007440D02*
X029201Y007440D01*
X029197Y007444D02*
X029197Y001960D01*
X029517Y001960D02*
X029517Y007110D01*
X029465Y007120D02*
X022693Y007120D01*
X022797Y007224D02*
X022797Y002916D01*
X022779Y002960D02*
X022935Y002960D01*
X022860Y002640D02*
X022854Y002640D01*
X022797Y002444D02*
X022797Y001960D01*
X021837Y001960D02*
X021837Y002540D01*
X021854Y002640D02*
X021860Y002640D01*
X022477Y003168D02*
X022477Y006904D01*
X022373Y006800D02*
X030537Y006800D01*
X030857Y006680D02*
X031107Y006930D01*
X030395Y007440D02*
X029927Y007440D01*
X033357Y006680D02*
X033357Y009180D01*
X038797Y004698D02*
X038797Y004662D01*
X038820Y004560D02*
X038895Y004560D01*
X038797Y004493D02*
X038797Y001960D01*
X038376Y004240D02*
X038339Y004240D01*
X039117Y004662D02*
X039117Y004698D01*
X039339Y004560D02*
X039376Y004560D01*
X039437Y004662D02*
X039437Y004698D01*
X039376Y004880D02*
X039339Y004880D01*
X039757Y004698D02*
X039757Y004662D01*
X039376Y004240D02*
X039339Y004240D01*
X039845Y006800D02*
X040447Y006800D01*
X040447Y007120D02*
X039593Y007120D01*
X039437Y007177D02*
X039437Y007183D01*
X039757Y007377D02*
X039757Y006983D01*
X039796Y007440D02*
X040447Y007440D01*
X040447Y007760D02*
X039854Y007760D01*
X039437Y009177D02*
X039437Y009183D01*
X039740Y009360D02*
X040447Y009360D01*
X038869Y020560D02*
X038845Y020560D01*
X038812Y020880D02*
X038902Y020880D01*
X038797Y020916D02*
X038797Y021444D01*
X038829Y021520D02*
X038886Y021520D01*
X038860Y021581D02*
X038936Y021399D01*
X039076Y021259D01*
X039258Y021183D01*
X039456Y021183D01*
X039639Y021259D01*
X039778Y021399D01*
X039854Y021581D01*
X039854Y021779D01*
X039778Y021961D01*
X039639Y022101D01*
X039456Y022177D01*
X039258Y022177D01*
X039076Y022101D01*
X038936Y021961D01*
X038860Y021779D01*
X038860Y021581D01*
X038829Y021840D02*
X038886Y021840D01*
X038797Y021916D02*
X038797Y022974D01*
X038943Y023120D02*
X040447Y023120D01*
X040447Y022800D02*
X038623Y022800D01*
X038477Y022654D02*
X038477Y022168D01*
X038497Y022160D02*
X039218Y022160D01*
X039117Y022118D02*
X039117Y023294D01*
X039263Y023440D02*
X040447Y023440D01*
X040447Y023760D02*
X039583Y023760D01*
X039437Y023614D02*
X039437Y022177D01*
X039497Y022160D02*
X040447Y022160D01*
X040447Y021840D02*
X039829Y021840D01*
X039757Y021983D02*
X039757Y023934D01*
X039903Y024080D02*
X040447Y024080D01*
X039857Y024430D02*
X039857Y029180D01*
X039357Y029680D01*
X038857Y029520D02*
X038857Y029520D01*
X038857Y029473D02*
X038857Y029887D01*
X038857Y029473D01*
X038564Y029180D01*
X038253Y029180D01*
X038253Y029180D01*
X038564Y029180D01*
X038857Y028887D01*
X038857Y028473D01*
X038637Y028253D01*
X038637Y024106D01*
X039077Y024546D01*
X039077Y028253D01*
X038857Y028473D01*
X038857Y028887D01*
X039150Y029180D01*
X039461Y029180D01*
X039461Y029180D01*
X039150Y029180D01*
X038857Y029473D01*
X038797Y029413D02*
X038797Y028947D01*
X038857Y028880D02*
X038857Y028880D01*
X038857Y028560D02*
X038857Y028560D01*
X038797Y028413D02*
X038797Y024266D01*
X038931Y024400D02*
X038637Y024400D01*
X038637Y024720D02*
X039077Y024720D01*
X039077Y025040D02*
X038637Y025040D01*
X038637Y025360D02*
X039077Y025360D01*
X039077Y025680D02*
X038637Y025680D01*
X038637Y026000D02*
X039077Y026000D01*
X039077Y026320D02*
X038637Y026320D01*
X038637Y026640D02*
X039077Y026640D01*
X039077Y026960D02*
X038637Y026960D01*
X038637Y027280D02*
X039077Y027280D01*
X039077Y027600D02*
X038637Y027600D01*
X038637Y027920D02*
X039077Y027920D01*
X039077Y028240D02*
X038637Y028240D01*
X038357Y028680D02*
X038357Y023930D01*
X038107Y023680D01*
X038107Y023180D02*
X039357Y024430D01*
X039357Y028680D01*
X039437Y029180D02*
X039437Y029180D01*
X039130Y029200D02*
X038584Y029200D01*
X038477Y029180D02*
X038477Y029180D01*
X037801Y029520D02*
X036083Y029520D01*
X035917Y029802D02*
X035917Y030203D01*
X035597Y030271D02*
X035597Y030119D01*
X035556Y030160D02*
X038130Y030160D01*
X038157Y030180D02*
X038157Y030201D01*
X038337Y030480D02*
X038377Y030480D01*
X038477Y030660D02*
X038477Y030700D01*
X038157Y030700D02*
X038157Y030660D01*
X037877Y030800D02*
X037299Y030800D01*
X037197Y030689D02*
X037197Y030671D01*
X037268Y030480D02*
X037878Y030480D01*
X037837Y030900D02*
X037837Y029556D01*
X037857Y029840D02*
X035880Y029840D01*
X036237Y030385D02*
X036237Y029210D01*
X036557Y029210D02*
X036557Y030333D01*
X036559Y030331D02*
X036618Y030289D01*
X036682Y030256D01*
X036750Y030234D01*
X036821Y030223D01*
X036849Y030223D01*
X036849Y030671D01*
X036400Y030671D01*
X036400Y030644D01*
X036411Y030573D01*
X036434Y030505D01*
X036466Y030440D01*
X036509Y030382D01*
X036559Y030331D01*
X036446Y030480D02*
X036291Y030480D01*
X036324Y030800D02*
X036416Y030800D01*
X036557Y030689D02*
X036557Y030671D01*
X036877Y030671D02*
X036877Y030689D01*
X036866Y030480D02*
X036849Y030480D01*
X036877Y030223D02*
X036877Y029210D01*
X037197Y029210D02*
X037197Y030373D01*
X037517Y030900D02*
X037517Y029210D01*
X037837Y028650D02*
X037837Y026096D01*
X037881Y026000D02*
X038077Y026000D01*
X038077Y026320D02*
X037613Y026320D01*
X037517Y026416D02*
X037517Y026887D01*
X037293Y026640D02*
X038077Y026640D01*
X038077Y025680D02*
X037887Y025680D01*
X037887Y025360D02*
X038077Y025360D01*
X038077Y025040D02*
X037887Y025040D01*
X037887Y024720D02*
X038077Y024720D01*
X038077Y024400D02*
X037887Y024400D01*
X037887Y024080D02*
X038077Y024080D01*
X037077Y024720D02*
X031463Y024720D01*
X031437Y024746D02*
X031437Y025447D01*
X031380Y025680D02*
X031334Y025680D01*
X030797Y026157D02*
X030797Y026974D01*
X030783Y026960D02*
X036741Y026960D01*
X036877Y027096D02*
X036877Y028650D01*
X038857Y029840D02*
X038857Y029840D01*
X038797Y029947D02*
X038797Y030441D01*
X038836Y030480D02*
X038857Y030480D01*
X038797Y030660D02*
X038797Y030700D01*
X038837Y030800D02*
X038841Y030800D01*
X038857Y031180D02*
X035857Y031180D01*
X035857Y030680D01*
X035424Y030480D02*
X035337Y030480D01*
X035337Y030800D02*
X035391Y030800D01*
X035337Y031120D02*
X035577Y031120D01*
X034107Y029680D02*
X034113Y029380D01*
X031437Y028780D02*
X031437Y028406D01*
X031271Y028240D02*
X027637Y028240D01*
X026957Y028710D02*
X026957Y028998D01*
X026840Y028880D02*
X027077Y028880D01*
X027066Y029200D02*
X027077Y029200D01*
X026637Y028791D02*
X026637Y028710D01*
X026317Y028710D02*
X026317Y028803D01*
X026143Y028880D02*
X025462Y028880D01*
X025357Y028832D02*
X025357Y028710D01*
X025037Y028710D02*
X025037Y028780D01*
X024765Y028880D02*
X024084Y028880D01*
X024077Y028874D02*
X024077Y028710D01*
X024075Y028871D02*
X024244Y029040D01*
X024335Y029261D01*
X024335Y029499D01*
X024244Y029720D01*
X024075Y029889D01*
X023855Y029980D01*
X023616Y029980D01*
X023395Y029889D01*
X023227Y029720D01*
X023135Y029499D01*
X023135Y029261D01*
X023227Y029040D01*
X023395Y028871D01*
X023616Y028780D01*
X023855Y028780D01*
X024075Y028871D01*
X023757Y028780D02*
X023757Y028710D01*
X023437Y028710D02*
X023437Y028854D01*
X023387Y028880D02*
X022940Y028880D01*
X022797Y028780D02*
X022797Y028710D01*
X022477Y028710D02*
X022477Y028780D01*
X022157Y028780D02*
X022157Y028710D01*
X022157Y028150D02*
X022157Y026055D01*
X022212Y026000D02*
X022502Y026000D01*
X022477Y025975D02*
X022477Y028150D01*
X022797Y028150D02*
X022797Y026157D01*
X023117Y026089D02*
X023117Y028150D01*
X023437Y028150D02*
X023437Y025913D01*
X023502Y026000D02*
X023212Y026000D01*
X023334Y025680D02*
X023380Y025680D01*
X023757Y026155D02*
X023757Y028150D01*
X023117Y028710D02*
X023117Y029690D01*
X023144Y029520D02*
X023011Y029520D01*
X022957Y029200D02*
X023160Y029200D01*
X023211Y029840D02*
X023347Y029840D01*
X023437Y029906D02*
X023437Y030447D01*
X023424Y030480D02*
X023337Y030480D01*
X023341Y030160D02*
X024377Y030160D01*
X024077Y030255D02*
X024077Y029886D01*
X024124Y029840D02*
X024377Y029840D01*
X024397Y029786D02*
X024397Y028710D01*
X024717Y028710D02*
X024717Y028927D01*
X024538Y029200D02*
X024310Y029200D01*
X024327Y029520D02*
X024522Y029520D01*
X024857Y029930D02*
X025107Y029680D01*
X025677Y029681D02*
X025677Y029586D01*
X025705Y029520D02*
X025838Y029520D01*
X025916Y029200D02*
X025688Y029200D01*
X025677Y029174D02*
X025677Y028710D01*
X025997Y028710D02*
X025997Y029025D01*
X027637Y030160D02*
X031279Y030160D01*
X031117Y030304D02*
X031117Y029980D01*
X031268Y030480D02*
X031377Y030480D01*
X031117Y031056D02*
X031117Y032896D01*
X030157Y032896D02*
X030157Y031055D01*
X030042Y031120D02*
X030732Y031120D01*
X029837Y031157D02*
X029837Y032896D01*
X028237Y032896D02*
X028237Y030935D01*
X028299Y030800D02*
X029391Y030800D01*
X028237Y030689D02*
X028237Y030671D01*
X027917Y032000D02*
X027917Y032896D01*
X024397Y030900D02*
X024397Y030824D01*
X024387Y030800D02*
X024324Y030800D01*
X024291Y030480D02*
X024377Y030480D01*
X023757Y030205D02*
X023757Y029980D01*
X023391Y030800D02*
X023327Y030800D01*
X022387Y030800D02*
X022299Y030800D01*
X022157Y030689D02*
X022157Y030671D01*
X022268Y030480D02*
X022377Y030480D01*
X021757Y029840D02*
X017880Y029840D01*
X017357Y029680D02*
X017491Y029380D01*
X017037Y028985D02*
X017037Y026646D01*
X017043Y026640D02*
X017577Y026640D01*
X017577Y026320D02*
X017363Y026320D01*
X017357Y026326D02*
X017357Y028786D01*
X017143Y028880D02*
X016462Y028880D01*
X016453Y028871D02*
X016622Y029040D01*
X016713Y029261D01*
X016713Y029499D01*
X016622Y029720D01*
X016453Y029889D01*
X016233Y029980D01*
X015994Y029980D01*
X015773Y029889D01*
X015605Y029720D01*
X015513Y029499D01*
X015513Y029261D01*
X015605Y029040D01*
X015773Y028871D01*
X015994Y028780D01*
X016233Y028780D01*
X016453Y028871D01*
X016397Y028848D02*
X016397Y027343D01*
X016427Y027280D02*
X017577Y027280D01*
X017857Y027430D02*
X019357Y028930D01*
X018957Y028926D02*
X018957Y030233D01*
X018866Y030480D02*
X018849Y030480D01*
X018637Y030279D02*
X018637Y028606D01*
X018591Y028560D02*
X013637Y028560D01*
X013837Y028780D02*
X013837Y026157D01*
X013637Y026320D02*
X016571Y026320D01*
X016717Y026174D02*
X016717Y026138D01*
X016502Y026000D02*
X016212Y026000D01*
X016077Y026105D02*
X016077Y026814D01*
X015787Y027280D02*
X013637Y027280D01*
X013637Y027600D02*
X017631Y027600D01*
X017677Y027646D02*
X017677Y028808D01*
X017840Y028880D02*
X018911Y028880D01*
X019063Y028240D02*
X020271Y028240D01*
X020237Y028206D02*
X020237Y030900D01*
X021517Y031460D02*
X021517Y032896D01*
X021837Y032896D02*
X021837Y031460D01*
X022157Y031460D02*
X022157Y032896D01*
X022477Y032896D02*
X022477Y032078D01*
X022307Y031760D02*
X017407Y031760D01*
X017037Y031159D02*
X017037Y031125D01*
X016717Y031142D02*
X016717Y031143D01*
X016665Y031120D02*
X016042Y031120D01*
X016077Y031105D02*
X016077Y031176D01*
X016397Y031362D02*
X016397Y030824D01*
X016387Y030800D02*
X016324Y030800D01*
X016291Y030480D02*
X016377Y030480D01*
X016377Y030160D02*
X014341Y030160D01*
X014477Y030385D02*
X014477Y029923D01*
X014395Y029889D02*
X014227Y029720D01*
X014135Y029499D01*
X014135Y029261D01*
X014227Y029040D01*
X014395Y028871D01*
X014616Y028780D01*
X014855Y028780D01*
X015075Y028871D01*
X015244Y029040D01*
X015335Y029261D01*
X015335Y029499D01*
X015244Y029720D01*
X015075Y029889D01*
X014855Y029980D01*
X014616Y029980D01*
X014395Y029889D01*
X014347Y029840D02*
X014211Y029840D01*
X014157Y029754D02*
X014157Y029553D01*
X014144Y029520D02*
X014011Y029520D01*
X013957Y029200D02*
X014160Y029200D01*
X014157Y029207D02*
X014157Y026055D01*
X014212Y026000D02*
X014502Y026000D01*
X014477Y025975D02*
X014477Y028837D01*
X014387Y028880D02*
X013940Y028880D01*
X014797Y028780D02*
X014797Y026157D01*
X014762Y026157D02*
X014587Y026085D01*
X014453Y025950D01*
X014380Y025775D01*
X014380Y025585D01*
X014453Y025410D01*
X014587Y025275D01*
X014762Y025203D01*
X014952Y025203D01*
X015128Y025275D01*
X015262Y025410D01*
X015334Y025585D01*
X015334Y025775D01*
X015262Y025950D01*
X015128Y026085D01*
X014952Y026157D01*
X014762Y026157D01*
X015117Y026089D02*
X015117Y028914D01*
X015084Y028880D02*
X015765Y028880D01*
X015757Y028887D02*
X015757Y026155D01*
X015502Y026000D02*
X015212Y026000D01*
X015437Y025913D02*
X015437Y030447D01*
X015424Y030480D02*
X015291Y030480D01*
X015117Y030271D02*
X015117Y029846D01*
X015124Y029840D02*
X015725Y029840D01*
X015757Y029873D02*
X015757Y030205D01*
X016077Y030255D02*
X016077Y029980D01*
X016397Y030036D02*
X016397Y029912D01*
X016502Y029840D02*
X016518Y029840D01*
X016717Y029641D02*
X016717Y026966D01*
X016723Y026960D02*
X017577Y026960D01*
X018137Y026960D02*
X018991Y026960D01*
X018957Y026926D02*
X018957Y028134D01*
X016916Y029200D02*
X016688Y029200D01*
X016705Y029520D02*
X016838Y029520D01*
X016077Y028780D02*
X016077Y027500D01*
X015538Y029200D02*
X015310Y029200D01*
X015327Y029520D02*
X015522Y029520D01*
X014797Y029980D02*
X014797Y030203D01*
X014424Y030480D02*
X014337Y030480D01*
X014327Y030800D02*
X014391Y030800D01*
X014477Y030975D02*
X014477Y031282D01*
X014361Y031440D02*
X014353Y031440D01*
X014157Y031209D02*
X014157Y031059D01*
X014049Y031120D02*
X014673Y031120D01*
X015042Y031120D02*
X015673Y031120D01*
X015437Y031322D02*
X015437Y030913D01*
X015391Y030800D02*
X015324Y030800D01*
X015117Y031089D02*
X015117Y031192D01*
X015353Y031440D02*
X015361Y031440D01*
X015437Y032038D02*
X015437Y032896D01*
X014477Y032896D02*
X014477Y032078D01*
X013479Y032080D02*
X011603Y032080D01*
X011597Y032086D02*
X011597Y032896D01*
X011917Y032896D02*
X011917Y031766D01*
X011923Y031760D02*
X013307Y031760D01*
X013361Y031440D02*
X012243Y031440D01*
X012237Y031446D02*
X012237Y032896D01*
X012557Y032896D02*
X012557Y031126D01*
X012563Y031120D02*
X012732Y031120D01*
X012849Y031120D02*
X012866Y031120D01*
X012877Y031137D02*
X012877Y032896D01*
X013517Y031242D02*
X013517Y031019D01*
X013665Y031120D02*
X012983Y031120D01*
X012866Y030800D02*
X012849Y030800D01*
X012877Y030689D02*
X012877Y030671D01*
X012866Y030480D02*
X012849Y030480D01*
X011377Y030160D02*
X009637Y030160D01*
X009637Y029840D02*
X011377Y029840D01*
X011377Y029520D02*
X009637Y029520D01*
X009637Y029200D02*
X011377Y029200D01*
X011377Y028880D02*
X009637Y028880D01*
X009677Y028560D02*
X011377Y028560D01*
X011377Y028240D02*
X009620Y028240D01*
X009357Y028430D02*
X009357Y031680D01*
X009077Y031230D02*
X009077Y031130D01*
X008957Y031180D01*
X008758Y031180D01*
X008957Y031180D01*
X009077Y031230D01*
X009037Y031213D02*
X009037Y031147D01*
X008717Y031163D02*
X008717Y031197D01*
X008613Y031120D02*
X006813Y031120D01*
X006797Y031136D02*
X006797Y032896D01*
X006477Y032896D02*
X006477Y031456D01*
X006493Y031440D02*
X008415Y031440D01*
X008399Y030480D02*
X006887Y030480D01*
X006887Y030160D02*
X008577Y030160D01*
X008577Y029840D02*
X006887Y029840D01*
X006887Y029520D02*
X008577Y029520D01*
X008577Y029200D02*
X006887Y029200D01*
X006887Y028880D02*
X008577Y028880D01*
X008577Y028560D02*
X006887Y028560D01*
X006887Y028240D02*
X008577Y028240D01*
X006327Y030160D02*
X006117Y030160D01*
X006016Y030480D02*
X006327Y030480D01*
X006607Y030930D02*
X006607Y024930D01*
X007117Y023117D02*
X007117Y032896D01*
X007437Y032896D02*
X007437Y023117D01*
X007263Y022800D02*
X007223Y022800D01*
X007117Y022657D02*
X007117Y022617D01*
X007223Y022480D02*
X007263Y022480D01*
X007437Y022617D02*
X007437Y022657D01*
X007445Y022160D02*
X008013Y022160D01*
X008077Y022137D02*
X008077Y022137D01*
X008397Y022137D02*
X008397Y022137D01*
X008450Y022137D02*
X008577Y022010D01*
X008577Y022264D01*
X008450Y022137D01*
X008474Y022160D02*
X008577Y022160D01*
X007437Y022137D02*
X007437Y022157D01*
X007263Y022160D02*
X007223Y022160D01*
X007117Y022157D02*
X007117Y022137D01*
X007041Y022160D02*
X006637Y022160D01*
X006637Y021200D02*
X006973Y021200D01*
X007117Y021137D02*
X007117Y021137D01*
X007437Y021137D02*
X007437Y021137D01*
X007450Y021137D02*
X007743Y020844D01*
X007743Y020430D01*
X007611Y020298D01*
X007637Y020236D01*
X007637Y019950D01*
X007743Y019844D01*
X007743Y019460D01*
X007743Y019460D01*
X007743Y019844D01*
X008036Y020137D01*
X008450Y020137D01*
X008036Y020137D01*
X007743Y020430D01*
X007743Y020844D01*
X007800Y020901D01*
X007699Y020943D01*
X007620Y021021D01*
X007491Y021150D01*
X007464Y021150D01*
X007450Y021137D01*
X007707Y020880D02*
X007779Y020880D01*
X007757Y020858D02*
X007757Y020918D01*
X007743Y020560D02*
X007743Y020560D01*
X007757Y020415D02*
X007757Y019858D01*
X007819Y019920D02*
X007667Y019920D01*
X007635Y020240D02*
X007933Y020240D01*
X008077Y020137D02*
X008077Y020137D01*
X008397Y020137D02*
X008397Y020137D01*
X008450Y020137D02*
X008684Y019903D01*
X008699Y019917D01*
X008787Y020006D01*
X008787Y020063D01*
X008933Y020208D01*
X008727Y020414D01*
X008450Y020137D01*
X008554Y020240D02*
X008901Y020240D01*
X008717Y020404D02*
X008717Y019936D01*
X008701Y019920D02*
X008667Y019920D01*
X008857Y019680D02*
X009107Y019930D01*
X008857Y019680D02*
X008857Y016930D01*
X008857Y016430D01*
X008607Y016180D01*
X007357Y016180D01*
X007357Y018180D02*
X007357Y018430D01*
X007243Y018637D01*
X007357Y019180D02*
X007357Y019430D01*
X007243Y019637D01*
X007357Y019680D01*
X007357Y020180D01*
X007743Y019600D02*
X007743Y019600D01*
X007357Y019180D02*
X008607Y019180D01*
X010317Y019616D02*
X010317Y020900D01*
X010333Y019600D02*
X013428Y019600D01*
X013517Y019511D02*
X013517Y009916D01*
X013433Y010000D02*
X015997Y010000D01*
X016717Y010000D02*
X019391Y010000D01*
X019277Y010114D02*
X019277Y003177D01*
X019597Y003118D02*
X019597Y009794D01*
X019711Y009680D02*
X016717Y009680D01*
X016717Y009493D02*
X016717Y012674D01*
X016717Y012560D02*
X016831Y012560D01*
X018317Y011074D02*
X018317Y007116D01*
X018313Y007120D02*
X019787Y007120D01*
X019917Y006917D02*
X019917Y001960D01*
X020237Y001960D02*
X020237Y006860D01*
X020443Y007120D02*
X021021Y007120D01*
X020877Y007264D02*
X020877Y002820D01*
X020935Y002960D02*
X019779Y002960D01*
X019854Y002640D02*
X020860Y002640D01*
X020877Y002540D02*
X020877Y001960D01*
X020557Y001960D02*
X020557Y007234D01*
X020763Y007440D02*
X020827Y007440D01*
X020607Y007680D02*
X020107Y007180D01*
X020327Y008400D02*
X017137Y008400D01*
X017137Y008720D02*
X020327Y008720D01*
X020327Y009040D02*
X017170Y009040D01*
X016857Y009180D02*
X016857Y008180D01*
X018357Y006680D01*
X018317Y006360D02*
X018317Y003156D01*
X018339Y002960D02*
X018376Y002960D01*
X018317Y002698D02*
X018317Y002662D01*
X017997Y002662D02*
X017997Y002698D01*
X017881Y002640D02*
X017834Y002640D01*
X017677Y002662D02*
X017677Y002698D01*
X017376Y002960D02*
X017339Y002960D01*
X018637Y002698D02*
X018637Y002662D01*
X018834Y002640D02*
X018860Y002640D01*
X017841Y006800D02*
X016717Y006800D01*
X015997Y006800D02*
X015133Y006800D01*
X015117Y006816D02*
X015117Y007524D01*
X015201Y007440D02*
X014493Y007440D01*
X014477Y007456D02*
X014477Y008164D01*
X014561Y008080D02*
X013853Y008080D01*
X013837Y008096D02*
X013837Y008707D01*
X013850Y008720D02*
X013921Y008720D01*
X013607Y008930D02*
X011357Y008930D01*
X011357Y007430D01*
X011677Y007440D02*
X013701Y007440D01*
X013837Y007304D02*
X013837Y004709D01*
X016717Y010960D02*
X018431Y010960D01*
X021870Y007120D02*
X021901Y007120D01*
X026317Y010324D02*
X026317Y003177D01*
X026854Y002640D02*
X026860Y002640D01*
X025357Y002183D02*
X025357Y001960D01*
X025037Y001960D02*
X025037Y002297D01*
X025015Y002320D02*
X024700Y002320D01*
X017857Y018180D02*
X017857Y018680D01*
X015107Y021180D02*
X015607Y021680D01*
X015757Y021680D01*
X015883Y022800D02*
X017108Y022800D01*
X017077Y023120D02*
X015563Y023120D01*
X015437Y023246D02*
X015437Y025447D01*
X015502Y025360D02*
X015212Y025360D01*
X015117Y025271D02*
X015117Y023566D01*
X015243Y023440D02*
X017077Y023440D01*
X017077Y023760D02*
X014923Y023760D01*
X014797Y023886D02*
X014797Y025203D01*
X014502Y025360D02*
X014212Y025360D01*
X014157Y025305D02*
X014157Y024526D01*
X014283Y024400D02*
X017077Y024400D01*
X017077Y024720D02*
X013963Y024720D01*
X013837Y024846D02*
X013837Y025203D01*
X013643Y025040D02*
X017077Y025040D01*
X017037Y025238D02*
X017037Y022102D01*
X016897Y022160D02*
X017618Y022160D01*
X017677Y022177D02*
X017677Y022214D01*
X015757Y022926D02*
X015757Y025205D01*
X015380Y025680D02*
X015334Y025680D01*
X014477Y025385D02*
X014477Y024206D01*
X014603Y024080D02*
X017077Y024080D01*
X014380Y025680D02*
X014334Y025680D01*
X013077Y027280D02*
X012136Y027280D01*
X010637Y031107D02*
X010637Y031253D01*
X010837Y031440D02*
X010877Y031440D01*
X010637Y031660D02*
X010637Y031700D01*
X010384Y031760D02*
X010357Y031760D01*
X010317Y031876D02*
X010317Y031900D01*
X016353Y031440D02*
X016361Y031440D01*
X021197Y028150D02*
X021197Y026723D01*
X022334Y025680D02*
X022380Y025680D01*
X022477Y025385D02*
X022477Y022956D01*
X022633Y022800D02*
X026577Y022800D01*
X026577Y022480D02*
X022953Y022480D01*
X022797Y022636D02*
X022797Y025203D01*
X022502Y025360D02*
X022212Y025360D01*
X022157Y025305D02*
X022157Y023276D01*
X022313Y023120D02*
X026577Y023120D01*
X028829Y021840D02*
X028886Y021840D01*
X033063Y023120D02*
X037077Y023120D01*
X038107Y022680D02*
X039857Y024430D01*
X040447Y022480D02*
X038360Y022480D01*
X038157Y022360D02*
X038157Y022135D01*
X038218Y022160D02*
X037887Y022160D01*
X037887Y021200D02*
X038218Y021200D01*
X038157Y021225D02*
X038157Y021135D01*
X038477Y021168D02*
X038477Y021192D01*
X038497Y021200D02*
X039218Y021200D01*
X039117Y021242D02*
X039117Y021118D01*
X039437Y021177D02*
X039437Y021183D01*
X039497Y021200D02*
X040447Y021200D01*
X040447Y020880D02*
X039812Y020880D01*
X039757Y020983D02*
X039757Y021377D01*
X039829Y021520D02*
X040447Y021520D01*
X037902Y020880D02*
X037887Y020880D01*
X035380Y025680D02*
X035334Y025680D01*
X032502Y026000D02*
X032212Y026000D01*
X031117Y028086D02*
X031117Y028780D01*
X024502Y025360D02*
X024212Y025360D01*
X038857Y031180D02*
X039357Y030680D01*
X039117Y031316D02*
X039117Y032896D01*
X039913Y029520D02*
X040447Y029520D01*
X039117Y029213D02*
X039117Y029147D01*
X001827Y032400D02*
X001765Y032400D01*
D11*
X010757Y021680D03*
X011757Y021680D03*
X012757Y021680D03*
X013757Y021680D03*
X014757Y021680D03*
X015757Y021680D03*
X016757Y021680D03*
X017757Y021680D03*
X019357Y021680D03*
X020357Y021680D03*
X021357Y021680D03*
X022357Y021680D03*
X023357Y021680D03*
X024357Y021680D03*
X025357Y021680D03*
X026357Y021680D03*
X028357Y021680D03*
X029357Y021680D03*
X030357Y021680D03*
X031357Y021680D03*
X032357Y021680D03*
X033357Y021680D03*
X034357Y021680D03*
X035357Y021680D03*
X038357Y021680D03*
X039357Y021680D03*
X039357Y020680D03*
X038357Y020680D03*
X038357Y019680D03*
X039357Y019680D03*
X039357Y018680D03*
X038357Y018680D03*
X038357Y017680D03*
X039357Y017680D03*
X039357Y016680D03*
X038357Y016680D03*
X038357Y015680D03*
X039357Y015680D03*
X039357Y014680D03*
X038357Y014680D03*
X038357Y013680D03*
X039357Y013680D03*
X039357Y012680D03*
X038357Y012680D03*
X038357Y011680D03*
X038357Y010680D03*
X039357Y010680D03*
X039357Y011680D03*
X039357Y009680D03*
X038357Y009680D03*
X038357Y008680D03*
X039357Y008680D03*
X039357Y007680D03*
X038357Y007680D03*
X038357Y006680D03*
X039357Y006680D03*
X039357Y005680D03*
X038357Y005680D03*
X038357Y004680D03*
X039357Y004680D03*
X037357Y002680D03*
X036357Y002680D03*
X035357Y002680D03*
X034357Y002680D03*
X033357Y002680D03*
X032357Y002680D03*
X031357Y002680D03*
X030357Y002680D03*
X028357Y002680D03*
X027357Y002680D03*
X026357Y002680D03*
X025357Y002680D03*
X024357Y002680D03*
X023357Y002680D03*
X022357Y002680D03*
X021357Y002680D03*
X019357Y002680D03*
X018357Y002680D03*
X017357Y002680D03*
X016357Y002680D03*
X015357Y002680D03*
X014357Y002680D03*
D12*
X013857Y031680D03*
X014857Y031680D03*
X015857Y031680D03*
X016857Y031680D03*
X022857Y031680D03*
X023857Y031680D03*
X024857Y031680D03*
X025857Y031680D03*
X031857Y031680D03*
X032857Y031680D03*
X033857Y031680D03*
X034857Y031680D03*
D13*
X034857Y030680D03*
X033857Y030680D03*
X032857Y030680D03*
X031857Y030680D03*
X030857Y030680D03*
X029857Y030680D03*
X027857Y030680D03*
X026857Y030680D03*
X025857Y030680D03*
X024857Y030680D03*
X023857Y030680D03*
X022857Y030680D03*
X021857Y030680D03*
X020857Y030680D03*
X018857Y030680D03*
X017857Y030680D03*
X016857Y030680D03*
X015857Y030680D03*
X014857Y030680D03*
X013857Y030680D03*
X012857Y030680D03*
X011857Y030680D03*
X011857Y025680D03*
X012857Y025680D03*
X013857Y025680D03*
X014857Y025680D03*
X015857Y025680D03*
X016857Y025680D03*
X017857Y025680D03*
X018857Y025680D03*
X020857Y025680D03*
X021857Y025680D03*
X022857Y025680D03*
X023857Y025680D03*
X024857Y025680D03*
X025857Y025680D03*
X026857Y025680D03*
X027857Y025680D03*
X029857Y025680D03*
X030857Y025680D03*
X031857Y025680D03*
X032857Y025680D03*
X033857Y025680D03*
X034857Y025680D03*
X035857Y025680D03*
X036857Y025680D03*
X036857Y030680D03*
X035857Y030680D03*
D14*
X010857Y030680D03*
X009857Y030680D03*
X008857Y030680D03*
X008857Y031680D03*
X009857Y031680D03*
X010857Y031680D03*
D15*
X005515Y027219D03*
X004334Y025369D03*
X003192Y027219D03*
D16*
X005515Y027219D02*
X005607Y027180D01*
X005857Y026930D01*
X005857Y025180D01*
X006107Y025180D01*
X005857Y025180D02*
X005857Y023930D01*
X002857Y023930D01*
X002857Y023971D01*
X009357Y024430D02*
X009367Y024430D01*
X009357Y025180D02*
X011857Y027680D01*
X011857Y030680D01*
X013357Y029380D02*
X013857Y030180D01*
X013857Y030680D01*
X016857Y030680D02*
X016857Y030180D01*
X017357Y029680D01*
X022357Y029380D02*
X022857Y030180D01*
X022857Y030680D01*
X024857Y030680D02*
X024857Y029930D01*
X025107Y029680D02*
X025113Y029380D01*
X025857Y030180D02*
X025857Y030680D01*
X025857Y030180D02*
X026357Y029680D01*
X026491Y029380D01*
X027857Y030680D02*
X027857Y027680D01*
X031357Y029380D02*
X031857Y030180D01*
X031857Y030680D01*
X031857Y031680D01*
X032857Y031680D02*
X032857Y030680D01*
X033857Y030680D02*
X033857Y029930D01*
X034107Y029680D01*
X034857Y030180D02*
X034857Y030680D01*
X034857Y031680D01*
X033857Y031680D02*
X033857Y030680D01*
X034857Y030180D02*
X035357Y029680D01*
X035491Y029380D01*
X005637Y030180D02*
X005077Y030180D01*
X005077Y031180D02*
X005637Y031180D01*
X005357Y002960D02*
X005357Y002400D01*
X004357Y002400D02*
X004357Y002960D01*
D17*
X013357Y029380D03*
X022357Y029380D03*
X031357Y029380D03*
D18*
X032735Y029380D03*
X034113Y029380D03*
X035491Y029380D03*
X026491Y029380D03*
X025113Y029380D03*
X023735Y029380D03*
X017491Y029380D03*
X016113Y029380D03*
X014735Y029380D03*
D19*
X002857Y025349D03*
X002857Y023971D03*
D20*
X002467Y029400D03*
X004247Y029400D03*
X004247Y031960D03*
X002467Y031960D03*
D21*
X007243Y022637D03*
X008243Y022637D03*
X008243Y021637D03*
X007243Y021637D03*
X007243Y020637D03*
X008243Y020637D03*
X008243Y019637D03*
X007243Y019637D03*
X007243Y018637D03*
X008243Y018637D03*
X008243Y017637D03*
X007243Y017637D03*
X007243Y016637D03*
X008243Y016637D03*
X008243Y015637D03*
X007243Y015637D03*
X007243Y014637D03*
X008243Y014637D03*
X008243Y013637D03*
X007243Y013637D03*
X007243Y012637D03*
X008243Y012637D03*
X008243Y011637D03*
X007243Y011637D03*
X007243Y010637D03*
X008243Y010637D03*
X008243Y009637D03*
X007243Y009637D03*
X007243Y008637D03*
X008243Y008637D03*
X008243Y007637D03*
X007243Y007637D03*
X007243Y006637D03*
X008243Y006637D03*
X008243Y005637D03*
X007243Y005637D03*
X007243Y004637D03*
X008243Y004637D03*
X008243Y003637D03*
X007243Y003637D03*
X038357Y028680D03*
X039357Y028680D03*
X039357Y029680D03*
X038357Y029680D03*
X038357Y030680D03*
X039357Y030680D03*
D22*
X038857Y032180D03*
X038857Y027680D03*
X038857Y025180D03*
X039857Y022680D03*
X037957Y020180D03*
X033457Y025180D03*
X034157Y027680D03*
X030357Y032180D03*
X027857Y027680D03*
X026857Y027680D03*
X024457Y025080D03*
X018357Y027180D03*
X014957Y027680D03*
X016357Y023680D03*
X010357Y023180D03*
X004357Y022680D03*
X003857Y020680D03*
X005957Y028680D03*
X006157Y032580D03*
X021357Y032180D03*
D23*
X017557Y032580D03*
D24*
X004457Y019180D03*
X004157Y017880D03*
X003657Y017880D03*
X003157Y017880D03*
X002657Y017880D03*
X002657Y017380D03*
X003157Y017380D03*
X003657Y017380D03*
X003657Y016880D03*
X003657Y016380D03*
X003657Y015880D03*
X003657Y015380D03*
X003657Y014880D03*
X003657Y014380D03*
X003657Y014380D03*
X003657Y013880D03*
X003657Y013380D03*
X003657Y012880D03*
X003657Y012380D03*
X002857Y012180D03*
X004157Y014380D03*
X004157Y014880D03*
X004157Y015380D03*
X004157Y015880D03*
X004157Y016380D03*
X004157Y016880D03*
X004157Y017380D03*
X005757Y018180D03*
X005957Y016280D03*
X005957Y013680D03*
X005457Y012180D03*
X004157Y009380D03*
X004157Y008380D03*
X004157Y007380D03*
X004157Y006380D03*
X005857Y008780D03*
X010357Y004680D03*
X010857Y003080D03*
X013857Y003480D03*
X014857Y004480D03*
X015857Y004480D03*
X028557Y012380D03*
X028557Y013580D03*
X030557Y009680D03*
X031557Y009180D03*
X033357Y009180D03*
X033357Y006680D03*
X002857Y016480D03*
D25*
X002857Y012180D01*
X005957Y013680D02*
X005957Y016280D01*
X005107Y017680D02*
X004357Y018430D01*
X004457Y019180D02*
X005457Y018180D01*
X005757Y018180D01*
X001857Y027680D02*
X001857Y004680D01*
X002857Y003680D01*
X005857Y003680D01*
X007357Y002080D01*
X018757Y002080D01*
X019357Y002680D01*
X001857Y027680D02*
X003107Y028930D01*
X003107Y031180D01*
X005357Y031180D01*
D26*
X009357Y031680D03*
X009357Y028430D03*
X011857Y026430D03*
X009357Y025180D03*
X006107Y025180D03*
X006857Y020180D03*
X009107Y019930D03*
X009607Y018430D03*
X009857Y018180D03*
X010357Y017680D03*
X008857Y016930D03*
X008857Y013930D03*
X009107Y012180D03*
X010107Y011430D03*
X012607Y010430D03*
X013607Y008930D03*
X013107Y008430D03*
X011357Y007430D03*
X010357Y008930D03*
X009857Y008930D03*
X015357Y006180D03*
X015857Y007180D03*
X016857Y009180D03*
X018357Y006680D03*
X020107Y007180D03*
X021607Y006930D03*
X021607Y006430D03*
X020107Y009680D03*
X021107Y012930D03*
X022257Y013780D03*
X024857Y012680D03*
X026107Y012180D03*
X029607Y012430D03*
X030607Y012680D03*
X030857Y011180D03*
X033607Y013930D03*
X033357Y016180D03*
X038107Y019180D03*
X038107Y022680D03*
X038107Y023180D03*
X038107Y023680D03*
X037357Y027180D03*
X027857Y031680D03*
X021357Y026430D03*
X019357Y028930D03*
X016107Y027180D03*
X012857Y020680D03*
X012857Y018180D03*
X016857Y017680D03*
X016857Y017180D03*
X017357Y016180D03*
X017357Y015680D03*
X017857Y018180D03*
X020107Y019180D03*
X020357Y018680D03*
X020607Y018180D03*
X021257Y017780D03*
X021107Y017180D03*
X022607Y017430D03*
X023257Y017780D03*
X023757Y016780D03*
X025257Y016780D03*
X025257Y017780D03*
X023857Y019180D03*
X022607Y019180D03*
X022607Y020180D03*
X021357Y019930D03*
X020857Y020180D03*
X021357Y019430D03*
X026857Y021430D03*
X028607Y017930D03*
X030607Y007680D03*
X029607Y007430D03*
X030857Y006680D03*
X036107Y006180D03*
X037607Y007680D03*
X005107Y017680D03*
X004357Y018430D03*
D27*
X010857Y018680D02*
X010857Y007180D01*
X015357Y002680D01*
X016357Y002680D02*
X016357Y017180D01*
X012857Y020680D01*
X016357Y017180D02*
X016857Y017680D01*
X005857Y011780D02*
X005857Y008780D01*
X005857Y011780D02*
X005457Y012180D01*
M02*
