G75*
%MOIN*%
%OFA0B0*%
%FSLAX24Y24*%
%IPPOS*%
%LPD*%
%AMOC8*
5,1,8,0,0,1.08239X$1,22.5*
%
%ADD10C,0.0160*%
%ADD11R,0.0472X0.0472*%
%ADD12R,0.0512X0.0591*%
%ADD13R,0.0591X0.0512*%
%ADD14R,0.1378X0.0630*%
%ADD15R,0.0295X0.0433*%
%ADD16R,0.0866X0.0236*%
%ADD17R,0.1000X0.2000*%
%ADD18R,0.0630X0.0512*%
%ADD19R,0.0512X0.0630*%
%ADD20R,0.1575X0.0630*%
%ADD21R,0.0630X0.0866*%
%ADD22R,0.0354X0.0138*%
D10*
X002145Y001680D02*
X039940Y001680D01*
X040727Y002467D01*
X040727Y032389D01*
X039940Y033176D01*
X002145Y033176D01*
X001357Y032389D01*
X001357Y002467D01*
X002145Y001680D01*
D11*
X006444Y028680D03*
X007271Y028680D03*
X007271Y029680D03*
X006444Y029680D03*
X006444Y030680D03*
X007271Y030680D03*
X007271Y031680D03*
X006444Y031680D03*
X018357Y031767D03*
X018357Y032593D03*
X027357Y032593D03*
X027357Y031767D03*
X036357Y031767D03*
X036357Y032593D03*
D12*
X034731Y024680D03*
X033983Y024680D03*
X025731Y024680D03*
X024983Y024680D03*
X016731Y024680D03*
X015983Y024680D03*
X002692Y018180D03*
X002023Y018180D03*
X015523Y006180D03*
X016192Y006180D03*
X016192Y005180D03*
X015523Y005180D03*
D13*
X004857Y008345D03*
X004857Y009015D03*
X003357Y009015D03*
X003357Y008345D03*
X005857Y015845D03*
X005857Y016515D03*
X019857Y026306D03*
X019857Y027054D03*
X020857Y028845D03*
X020857Y029515D03*
X019357Y031806D03*
X019357Y032554D03*
X010857Y029515D03*
X010857Y028845D03*
X028357Y031806D03*
X028357Y032554D03*
X029857Y029515D03*
X029857Y028845D03*
X028857Y027054D03*
X028857Y026306D03*
X037357Y031806D03*
X037357Y032554D03*
X037857Y027054D03*
X037857Y026306D03*
D14*
X032920Y027680D03*
X030794Y027680D03*
X025420Y027680D03*
X023294Y027680D03*
X013920Y027680D03*
X011794Y027680D03*
D15*
X008607Y027601D03*
X008107Y027601D03*
X007607Y027601D03*
X007107Y027601D03*
X007107Y026759D03*
X007607Y026759D03*
X008107Y026759D03*
X008607Y026759D03*
D16*
X004381Y016930D03*
X004381Y016430D03*
X004381Y015930D03*
X004381Y015430D03*
X002334Y015430D03*
X002334Y015930D03*
X002334Y016430D03*
X002334Y016930D03*
D17*
X003357Y016180D03*
D18*
X005857Y014574D03*
X005857Y013786D03*
D19*
X003251Y013580D03*
X002464Y013580D03*
X004964Y018180D03*
X005751Y018180D03*
X005751Y023180D03*
X004964Y023180D03*
X003251Y002680D03*
X002464Y002680D03*
D20*
X002656Y005180D03*
X005058Y005180D03*
X005109Y020444D03*
X002708Y020444D03*
D21*
X002656Y011231D03*
X005176Y011231D03*
D22*
X024706Y008198D03*
X024706Y007942D03*
X024706Y007686D03*
X024706Y007448D03*
X024706Y007192D03*
X024706Y006936D03*
X024706Y006680D03*
X024706Y006424D03*
X024706Y006168D03*
X024706Y005912D03*
X027009Y005912D03*
X027009Y006168D03*
X027009Y006424D03*
X027009Y006680D03*
X027009Y006936D03*
X027009Y007192D03*
X027009Y007448D03*
X027009Y007686D03*
X027009Y007942D03*
X027009Y008198D03*
X029206Y010662D03*
X029206Y010918D03*
X029206Y011174D03*
X029206Y011412D03*
X029206Y011668D03*
X029206Y011924D03*
X029206Y012180D03*
X029206Y012436D03*
X029206Y012692D03*
X029206Y012948D03*
X031509Y012948D03*
X031509Y012692D03*
X031509Y012436D03*
X031509Y012180D03*
X031509Y011924D03*
X031509Y011668D03*
X031509Y011412D03*
X031509Y011174D03*
X031509Y010918D03*
X031509Y010662D03*
X027009Y015912D03*
X027009Y016168D03*
X027009Y016424D03*
X027009Y016680D03*
X027009Y016936D03*
X027009Y017192D03*
X027009Y017448D03*
X027009Y017686D03*
X027009Y017942D03*
X027009Y018198D03*
X024706Y018198D03*
X024706Y017942D03*
X024706Y017686D03*
X024706Y017448D03*
X024706Y017192D03*
X024706Y016936D03*
X024706Y016680D03*
X024706Y016424D03*
X024706Y016168D03*
X024706Y015912D03*
M02*
