G75*
%MOIN*%
%OFA0B0*%
%FSLAX25Y25*%
%IPPOS*%
%LPD*%
%AMOC8*
5,1,8,0,0,1.08239X$1,22.5*
%
%ADD10C,0.01600*%
%ADD11C,0.06306*%
%ADD12R,0.05124X0.05124*%
%ADD13R,0.05518X0.06306*%
%ADD14C,0.07400*%
%ADD15C,0.05715*%
%ADD16C,0.06400*%
%ADD17R,0.06306X0.05518*%
%ADD18R,0.14180X0.06699*%
%ADD19C,0.19298*%
%ADD20R,0.08400X0.08400*%
%ADD21C,0.08400*%
%ADD22C,0.09000*%
%ADD23C,0.07800*%
%ADD24R,0.05400X0.02900*%
%ADD25OC8,0.06400*%
%ADD26R,0.03353X0.04731*%
%ADD27R,0.09061X0.02762*%
%ADD28R,0.10400X0.20400*%
%ADD29R,0.06699X0.05518*%
%ADD30R,0.05518X0.06699*%
%ADD31R,0.16148X0.06699*%
%ADD32R,0.06699X0.09061*%
%ADD33C,0.05800*%
%ADD34R,0.03937X0.01772*%
%ADD35R,0.07487X0.07093*%
%ADD36C,0.05650*%
%ADD37C,0.00000*%
%ADD38C,0.06200*%
%ADD39R,0.08274X0.08274*%
D10*
X0015300Y0009674D02*
X0023174Y0001800D01*
X0401127Y0001800D01*
X0409001Y0009674D01*
X0409001Y0308887D01*
X0401127Y0316761D01*
X0023174Y0316761D01*
X0015300Y0308887D01*
X0015300Y0308800D02*
X0015300Y0009800D01*
D11*
X0145300Y0011800D03*
X0155300Y0011800D03*
X0165300Y0011800D03*
X0175300Y0011800D03*
X0185300Y0011800D03*
X0195300Y0011800D03*
X0215300Y0011800D03*
X0225300Y0011800D03*
X0235300Y0011800D03*
X0245300Y0011800D03*
X0255300Y0011800D03*
X0265300Y0011800D03*
X0275300Y0011800D03*
X0285300Y0011800D03*
X0305300Y0011800D03*
X0315300Y0011800D03*
X0325300Y0011800D03*
X0335300Y0011800D03*
X0345300Y0011800D03*
X0355300Y0011800D03*
X0365300Y0011800D03*
X0375300Y0011800D03*
X0385300Y0031800D03*
X0395300Y0031800D03*
X0395300Y0041800D03*
X0385300Y0041800D03*
X0385300Y0051800D03*
X0395300Y0051800D03*
X0395300Y0061800D03*
X0385300Y0061800D03*
X0385300Y0071800D03*
X0395300Y0071800D03*
X0395300Y0081800D03*
X0385300Y0081800D03*
X0385300Y0091800D03*
X0395300Y0091800D03*
X0395300Y0101800D03*
X0385300Y0101800D03*
X0385300Y0111800D03*
X0395300Y0111800D03*
X0395300Y0121800D03*
X0385300Y0121800D03*
X0385300Y0131800D03*
X0395300Y0131800D03*
X0395300Y0141800D03*
X0385300Y0141800D03*
X0385300Y0151800D03*
X0395300Y0151800D03*
X0395300Y0161800D03*
X0385300Y0161800D03*
X0385300Y0171800D03*
X0395300Y0171800D03*
X0395300Y0181800D03*
X0385300Y0181800D03*
X0385300Y0191800D03*
X0395300Y0191800D03*
X0395300Y0201800D03*
X0385300Y0201800D03*
X0355300Y0201800D03*
X0345300Y0201800D03*
X0335300Y0201800D03*
X0325300Y0201800D03*
X0315300Y0201800D03*
X0305300Y0201800D03*
X0295300Y0201800D03*
X0285300Y0201800D03*
X0265300Y0201800D03*
X0255300Y0201800D03*
X0245300Y0201800D03*
X0235300Y0201800D03*
X0225300Y0201800D03*
X0215300Y0201800D03*
X0205300Y0201800D03*
X0195300Y0201800D03*
X0179300Y0201800D03*
X0169300Y0201800D03*
X0159300Y0201800D03*
X0149300Y0201800D03*
X0139300Y0201800D03*
X0129300Y0201800D03*
X0119300Y0201800D03*
X0109300Y0201800D03*
D12*
X0074434Y0271800D03*
X0066166Y0271800D03*
X0066166Y0281800D03*
X0074434Y0281800D03*
X0074434Y0291800D03*
X0066166Y0291800D03*
X0066166Y0301800D03*
X0074434Y0301800D03*
X0185300Y0302666D03*
X0185300Y0310934D03*
X0275300Y0310934D03*
X0275300Y0302666D03*
X0365300Y0302666D03*
X0365300Y0310934D03*
X0129434Y0011800D03*
X0121166Y0011800D03*
D13*
X0121560Y0019800D03*
X0129040Y0019800D03*
X0128646Y0046800D03*
X0121954Y0046800D03*
X0141954Y0046800D03*
X0148646Y0046800D03*
X0028646Y0176800D03*
X0021954Y0176800D03*
X0161560Y0231800D03*
X0169040Y0231800D03*
X0251560Y0231800D03*
X0259040Y0231800D03*
X0341560Y0231800D03*
X0349040Y0231800D03*
D14*
X0350300Y0301800D03*
X0340300Y0301800D03*
X0330300Y0301800D03*
X0320300Y0301800D03*
X0260300Y0301800D03*
X0250300Y0301800D03*
X0240300Y0301800D03*
X0230300Y0301800D03*
X0170300Y0301800D03*
X0160300Y0301800D03*
X0150300Y0301800D03*
X0140300Y0301800D03*
X0215300Y0021800D03*
X0225300Y0021800D03*
X0235300Y0021800D03*
X0245300Y0021800D03*
X0255300Y0021800D03*
X0265300Y0021800D03*
X0275300Y0021800D03*
X0285300Y0021800D03*
X0305300Y0021800D03*
X0315300Y0021800D03*
X0325300Y0021800D03*
X0335300Y0021800D03*
X0345300Y0021800D03*
X0355300Y0021800D03*
X0365300Y0021800D03*
X0375300Y0021800D03*
D15*
X0375300Y0121800D03*
X0375300Y0131800D03*
X0375300Y0141800D03*
X0370300Y0241800D03*
X0360300Y0241800D03*
X0350300Y0241800D03*
X0340300Y0241800D03*
X0330300Y0241800D03*
X0320300Y0241800D03*
X0310300Y0241800D03*
X0300300Y0241800D03*
X0280300Y0241800D03*
X0270300Y0241800D03*
X0260300Y0241800D03*
X0250300Y0241800D03*
X0240300Y0241800D03*
X0230300Y0241800D03*
X0220300Y0241800D03*
X0210300Y0241800D03*
X0190300Y0241800D03*
X0180300Y0241800D03*
X0170300Y0241800D03*
X0160300Y0241800D03*
X0150300Y0241800D03*
X0140300Y0241800D03*
X0130300Y0241800D03*
X0120300Y0241800D03*
X0120300Y0291800D03*
X0130300Y0291800D03*
X0140300Y0291800D03*
X0150300Y0291800D03*
X0160300Y0291800D03*
X0170300Y0291800D03*
X0180300Y0291800D03*
X0190300Y0291800D03*
X0210300Y0291800D03*
X0220300Y0291800D03*
X0230300Y0291800D03*
X0240300Y0291800D03*
X0250300Y0291800D03*
X0260300Y0291800D03*
X0270300Y0291800D03*
X0280300Y0291800D03*
X0300300Y0291800D03*
X0310300Y0291800D03*
X0320300Y0291800D03*
X0330300Y0291800D03*
X0340300Y0291800D03*
X0350300Y0291800D03*
X0360300Y0291800D03*
X0370300Y0291800D03*
D16*
X0385300Y0291800D03*
X0395300Y0291800D03*
X0395300Y0281800D03*
X0385300Y0281800D03*
X0385300Y0271800D03*
X0395300Y0271800D03*
X0395300Y0256800D03*
X0385300Y0256800D03*
X0385300Y0246800D03*
X0395300Y0246800D03*
X0395300Y0236800D03*
X0385300Y0236800D03*
X0110300Y0281800D03*
X0100300Y0281800D03*
X0100300Y0291800D03*
X0110300Y0291800D03*
X0090300Y0291800D03*
X0090300Y0281800D03*
D17*
X0107300Y0271146D03*
X0107300Y0264454D03*
X0195300Y0303060D03*
X0195300Y0310540D03*
X0210300Y0280146D03*
X0210300Y0273454D03*
X0200300Y0255540D03*
X0200300Y0248060D03*
X0290300Y0248060D03*
X0290300Y0255540D03*
X0300300Y0273454D03*
X0300300Y0280146D03*
X0290300Y0303060D03*
X0290300Y0310540D03*
X0375300Y0310540D03*
X0375300Y0303060D03*
X0365300Y0234040D03*
X0365300Y0226560D03*
X0060300Y0160146D03*
X0060300Y0153454D03*
X0055300Y0120146D03*
X0055300Y0113454D03*
X0045300Y0113454D03*
X0045300Y0120146D03*
D18*
X0119670Y0261800D03*
X0140930Y0261800D03*
X0234670Y0261800D03*
X0255930Y0261800D03*
X0309670Y0261800D03*
X0330930Y0261800D03*
D19*
X0056875Y0257194D03*
X0033646Y0257194D03*
X0045064Y0238690D03*
D20*
X0135300Y0278800D03*
X0225300Y0278800D03*
X0315300Y0278800D03*
D21*
X0329080Y0278800D03*
X0342859Y0278800D03*
X0356639Y0278800D03*
X0266639Y0278800D03*
X0252859Y0278800D03*
X0239080Y0278800D03*
X0176639Y0278800D03*
X0162859Y0278800D03*
X0149080Y0278800D03*
D22*
X0030300Y0238493D03*
X0030300Y0224713D03*
D23*
X0026400Y0279000D03*
X0044200Y0279000D03*
X0044200Y0304600D03*
X0026400Y0304600D03*
D24*
X0130300Y0233800D03*
X0130300Y0229800D03*
X0140300Y0229800D03*
X0140300Y0233800D03*
X0150300Y0233572D03*
X0150300Y0230028D03*
X0220300Y0229800D03*
X0220300Y0233800D03*
X0230300Y0233800D03*
X0230300Y0229800D03*
X0240300Y0230028D03*
X0240300Y0233572D03*
X0310300Y0233800D03*
X0310300Y0229800D03*
X0320300Y0229800D03*
X0320300Y0233800D03*
X0330300Y0233572D03*
X0330300Y0230028D03*
D25*
X0084158Y0211367D03*
X0074158Y0211367D03*
X0074158Y0201367D03*
X0084158Y0201367D03*
X0084158Y0191367D03*
X0074158Y0191367D03*
X0074158Y0181367D03*
X0074158Y0171367D03*
X0074158Y0161367D03*
X0074158Y0151367D03*
X0074158Y0141367D03*
X0074158Y0131367D03*
X0074158Y0121367D03*
X0084158Y0121367D03*
X0084158Y0131367D03*
X0084158Y0141367D03*
X0084158Y0151367D03*
X0084158Y0161367D03*
X0084158Y0171367D03*
X0084158Y0181367D03*
X0084158Y0111367D03*
X0074158Y0111367D03*
X0074158Y0101367D03*
X0074158Y0091367D03*
X0074158Y0081367D03*
X0074158Y0071367D03*
X0074158Y0061367D03*
X0074158Y0051367D03*
X0084158Y0051367D03*
X0084158Y0061367D03*
X0084158Y0071367D03*
X0084158Y0081367D03*
X0084158Y0091367D03*
X0084158Y0101367D03*
X0084158Y0041367D03*
X0074158Y0041367D03*
X0074158Y0031367D03*
X0074158Y0021367D03*
X0084158Y0021367D03*
X0084158Y0031367D03*
D26*
X0082800Y0252587D03*
X0077800Y0252587D03*
X0072800Y0252587D03*
X0072800Y0261013D03*
X0077800Y0261013D03*
X0082800Y0261013D03*
X0087800Y0261013D03*
X0087800Y0252587D03*
D27*
X0050536Y0144300D03*
X0050536Y0139300D03*
X0050536Y0134300D03*
X0050536Y0129300D03*
X0030064Y0129300D03*
X0030064Y0134300D03*
X0030064Y0139300D03*
X0030064Y0144300D03*
D28*
X0040300Y0136800D03*
D29*
X0060300Y0135737D03*
X0060300Y0127863D03*
X0029300Y0100737D03*
X0029300Y0092863D03*
D30*
X0026363Y0011800D03*
X0034237Y0011800D03*
X0051363Y0176800D03*
X0059237Y0176800D03*
X0059237Y0221800D03*
X0051363Y0221800D03*
D31*
X0052820Y0199438D03*
X0028804Y0199438D03*
X0028292Y0036800D03*
X0052308Y0036800D03*
D32*
X0053489Y0072312D03*
X0028292Y0072312D03*
D33*
X0045300Y0014500D02*
X0045300Y0009100D01*
X0055300Y0009100D02*
X0055300Y0014500D01*
D34*
X0198784Y0036623D03*
X0198784Y0039182D03*
X0198784Y0041741D03*
X0198784Y0044123D03*
X0198784Y0046682D03*
X0198784Y0049241D03*
X0198784Y0051800D03*
X0198784Y0054359D03*
X0198784Y0056918D03*
X0198784Y0059477D03*
X0221816Y0059477D03*
X0221816Y0056918D03*
X0221816Y0054359D03*
X0221816Y0051800D03*
X0221816Y0049241D03*
X0221816Y0046682D03*
X0221816Y0044123D03*
X0221816Y0041741D03*
X0221816Y0039182D03*
X0221816Y0036623D03*
X0303784Y0054123D03*
X0303784Y0056682D03*
X0303784Y0059241D03*
X0303784Y0061800D03*
X0303784Y0064359D03*
X0303784Y0066918D03*
X0303784Y0069477D03*
X0303784Y0071859D03*
X0303784Y0074418D03*
X0303784Y0076977D03*
X0303784Y0094123D03*
X0303784Y0096682D03*
X0303784Y0099241D03*
X0303784Y0101800D03*
X0303784Y0104359D03*
X0303784Y0106918D03*
X0303784Y0109477D03*
X0303784Y0111859D03*
X0303784Y0114418D03*
X0303784Y0116977D03*
X0326816Y0116977D03*
X0326816Y0114418D03*
X0326816Y0111859D03*
X0326816Y0109477D03*
X0326816Y0106918D03*
X0326816Y0104359D03*
X0326816Y0101800D03*
X0326816Y0099241D03*
X0326816Y0096682D03*
X0326816Y0094123D03*
X0326816Y0076977D03*
X0326816Y0074418D03*
X0326816Y0071859D03*
X0326816Y0069477D03*
X0326816Y0066918D03*
X0326816Y0064359D03*
X0326816Y0061800D03*
X0326816Y0059241D03*
X0326816Y0056682D03*
X0326816Y0054123D03*
X0221816Y0164123D03*
X0221816Y0166682D03*
X0221816Y0169241D03*
X0221816Y0171800D03*
X0221816Y0174359D03*
X0221816Y0176918D03*
X0221816Y0179477D03*
X0221816Y0181859D03*
X0221816Y0184418D03*
X0221816Y0186977D03*
X0198784Y0186977D03*
X0198784Y0184418D03*
X0198784Y0181859D03*
X0198784Y0179477D03*
X0198784Y0176918D03*
X0198784Y0174359D03*
X0198784Y0171800D03*
X0198784Y0169241D03*
X0198784Y0166682D03*
X0198784Y0164123D03*
D35*
X0133371Y0031800D03*
X0117229Y0031800D03*
D36*
X0345300Y0211800D03*
X0355300Y0211800D03*
X0365300Y0131800D03*
X0365300Y0121800D03*
X0365300Y0091800D03*
X0365300Y0081800D03*
X0365300Y0071800D03*
X0365300Y0061800D03*
X0375300Y0061800D03*
X0375300Y0071800D03*
X0375300Y0081800D03*
X0375300Y0091800D03*
D37*
X0372400Y0091800D02*
X0372402Y0091907D01*
X0372408Y0092014D01*
X0372418Y0092121D01*
X0372432Y0092227D01*
X0372449Y0092333D01*
X0372471Y0092438D01*
X0372497Y0092542D01*
X0372526Y0092645D01*
X0372559Y0092747D01*
X0372596Y0092848D01*
X0372636Y0092947D01*
X0372681Y0093044D01*
X0372728Y0093140D01*
X0372780Y0093235D01*
X0372834Y0093327D01*
X0372892Y0093417D01*
X0372954Y0093505D01*
X0373018Y0093590D01*
X0373086Y0093673D01*
X0373157Y0093754D01*
X0373231Y0093832D01*
X0373307Y0093907D01*
X0373386Y0093979D01*
X0373468Y0094048D01*
X0373552Y0094114D01*
X0373639Y0094177D01*
X0373728Y0094237D01*
X0373819Y0094293D01*
X0373912Y0094346D01*
X0374007Y0094396D01*
X0374104Y0094442D01*
X0374203Y0094484D01*
X0374303Y0094523D01*
X0374404Y0094558D01*
X0374506Y0094589D01*
X0374610Y0094617D01*
X0374715Y0094640D01*
X0374820Y0094660D01*
X0374926Y0094676D01*
X0375032Y0094688D01*
X0375139Y0094696D01*
X0375246Y0094700D01*
X0375354Y0094700D01*
X0375461Y0094696D01*
X0375568Y0094688D01*
X0375674Y0094676D01*
X0375780Y0094660D01*
X0375885Y0094640D01*
X0375990Y0094617D01*
X0376094Y0094589D01*
X0376196Y0094558D01*
X0376297Y0094523D01*
X0376397Y0094484D01*
X0376496Y0094442D01*
X0376593Y0094396D01*
X0376688Y0094346D01*
X0376781Y0094293D01*
X0376872Y0094237D01*
X0376961Y0094177D01*
X0377048Y0094114D01*
X0377132Y0094048D01*
X0377214Y0093979D01*
X0377293Y0093907D01*
X0377369Y0093832D01*
X0377443Y0093754D01*
X0377514Y0093673D01*
X0377582Y0093590D01*
X0377646Y0093505D01*
X0377708Y0093417D01*
X0377766Y0093327D01*
X0377820Y0093235D01*
X0377872Y0093140D01*
X0377919Y0093044D01*
X0377964Y0092947D01*
X0378004Y0092848D01*
X0378041Y0092747D01*
X0378074Y0092645D01*
X0378103Y0092542D01*
X0378129Y0092438D01*
X0378151Y0092333D01*
X0378168Y0092227D01*
X0378182Y0092121D01*
X0378192Y0092014D01*
X0378198Y0091907D01*
X0378200Y0091800D01*
X0378198Y0091693D01*
X0378192Y0091586D01*
X0378182Y0091479D01*
X0378168Y0091373D01*
X0378151Y0091267D01*
X0378129Y0091162D01*
X0378103Y0091058D01*
X0378074Y0090955D01*
X0378041Y0090853D01*
X0378004Y0090752D01*
X0377964Y0090653D01*
X0377919Y0090556D01*
X0377872Y0090460D01*
X0377820Y0090365D01*
X0377766Y0090273D01*
X0377708Y0090183D01*
X0377646Y0090095D01*
X0377582Y0090010D01*
X0377514Y0089927D01*
X0377443Y0089846D01*
X0377369Y0089768D01*
X0377293Y0089693D01*
X0377214Y0089621D01*
X0377132Y0089552D01*
X0377048Y0089486D01*
X0376961Y0089423D01*
X0376872Y0089363D01*
X0376781Y0089307D01*
X0376688Y0089254D01*
X0376593Y0089204D01*
X0376496Y0089158D01*
X0376397Y0089116D01*
X0376297Y0089077D01*
X0376196Y0089042D01*
X0376094Y0089011D01*
X0375990Y0088983D01*
X0375885Y0088960D01*
X0375780Y0088940D01*
X0375674Y0088924D01*
X0375568Y0088912D01*
X0375461Y0088904D01*
X0375354Y0088900D01*
X0375246Y0088900D01*
X0375139Y0088904D01*
X0375032Y0088912D01*
X0374926Y0088924D01*
X0374820Y0088940D01*
X0374715Y0088960D01*
X0374610Y0088983D01*
X0374506Y0089011D01*
X0374404Y0089042D01*
X0374303Y0089077D01*
X0374203Y0089116D01*
X0374104Y0089158D01*
X0374007Y0089204D01*
X0373912Y0089254D01*
X0373819Y0089307D01*
X0373728Y0089363D01*
X0373639Y0089423D01*
X0373552Y0089486D01*
X0373468Y0089552D01*
X0373386Y0089621D01*
X0373307Y0089693D01*
X0373231Y0089768D01*
X0373157Y0089846D01*
X0373086Y0089927D01*
X0373018Y0090010D01*
X0372954Y0090095D01*
X0372892Y0090183D01*
X0372834Y0090273D01*
X0372780Y0090365D01*
X0372728Y0090460D01*
X0372681Y0090556D01*
X0372636Y0090653D01*
X0372596Y0090752D01*
X0372559Y0090853D01*
X0372526Y0090955D01*
X0372497Y0091058D01*
X0372471Y0091162D01*
X0372449Y0091267D01*
X0372432Y0091373D01*
X0372418Y0091479D01*
X0372408Y0091586D01*
X0372402Y0091693D01*
X0372400Y0091800D01*
X0362400Y0091800D02*
X0362402Y0091907D01*
X0362408Y0092014D01*
X0362418Y0092121D01*
X0362432Y0092227D01*
X0362449Y0092333D01*
X0362471Y0092438D01*
X0362497Y0092542D01*
X0362526Y0092645D01*
X0362559Y0092747D01*
X0362596Y0092848D01*
X0362636Y0092947D01*
X0362681Y0093044D01*
X0362728Y0093140D01*
X0362780Y0093235D01*
X0362834Y0093327D01*
X0362892Y0093417D01*
X0362954Y0093505D01*
X0363018Y0093590D01*
X0363086Y0093673D01*
X0363157Y0093754D01*
X0363231Y0093832D01*
X0363307Y0093907D01*
X0363386Y0093979D01*
X0363468Y0094048D01*
X0363552Y0094114D01*
X0363639Y0094177D01*
X0363728Y0094237D01*
X0363819Y0094293D01*
X0363912Y0094346D01*
X0364007Y0094396D01*
X0364104Y0094442D01*
X0364203Y0094484D01*
X0364303Y0094523D01*
X0364404Y0094558D01*
X0364506Y0094589D01*
X0364610Y0094617D01*
X0364715Y0094640D01*
X0364820Y0094660D01*
X0364926Y0094676D01*
X0365032Y0094688D01*
X0365139Y0094696D01*
X0365246Y0094700D01*
X0365354Y0094700D01*
X0365461Y0094696D01*
X0365568Y0094688D01*
X0365674Y0094676D01*
X0365780Y0094660D01*
X0365885Y0094640D01*
X0365990Y0094617D01*
X0366094Y0094589D01*
X0366196Y0094558D01*
X0366297Y0094523D01*
X0366397Y0094484D01*
X0366496Y0094442D01*
X0366593Y0094396D01*
X0366688Y0094346D01*
X0366781Y0094293D01*
X0366872Y0094237D01*
X0366961Y0094177D01*
X0367048Y0094114D01*
X0367132Y0094048D01*
X0367214Y0093979D01*
X0367293Y0093907D01*
X0367369Y0093832D01*
X0367443Y0093754D01*
X0367514Y0093673D01*
X0367582Y0093590D01*
X0367646Y0093505D01*
X0367708Y0093417D01*
X0367766Y0093327D01*
X0367820Y0093235D01*
X0367872Y0093140D01*
X0367919Y0093044D01*
X0367964Y0092947D01*
X0368004Y0092848D01*
X0368041Y0092747D01*
X0368074Y0092645D01*
X0368103Y0092542D01*
X0368129Y0092438D01*
X0368151Y0092333D01*
X0368168Y0092227D01*
X0368182Y0092121D01*
X0368192Y0092014D01*
X0368198Y0091907D01*
X0368200Y0091800D01*
X0368198Y0091693D01*
X0368192Y0091586D01*
X0368182Y0091479D01*
X0368168Y0091373D01*
X0368151Y0091267D01*
X0368129Y0091162D01*
X0368103Y0091058D01*
X0368074Y0090955D01*
X0368041Y0090853D01*
X0368004Y0090752D01*
X0367964Y0090653D01*
X0367919Y0090556D01*
X0367872Y0090460D01*
X0367820Y0090365D01*
X0367766Y0090273D01*
X0367708Y0090183D01*
X0367646Y0090095D01*
X0367582Y0090010D01*
X0367514Y0089927D01*
X0367443Y0089846D01*
X0367369Y0089768D01*
X0367293Y0089693D01*
X0367214Y0089621D01*
X0367132Y0089552D01*
X0367048Y0089486D01*
X0366961Y0089423D01*
X0366872Y0089363D01*
X0366781Y0089307D01*
X0366688Y0089254D01*
X0366593Y0089204D01*
X0366496Y0089158D01*
X0366397Y0089116D01*
X0366297Y0089077D01*
X0366196Y0089042D01*
X0366094Y0089011D01*
X0365990Y0088983D01*
X0365885Y0088960D01*
X0365780Y0088940D01*
X0365674Y0088924D01*
X0365568Y0088912D01*
X0365461Y0088904D01*
X0365354Y0088900D01*
X0365246Y0088900D01*
X0365139Y0088904D01*
X0365032Y0088912D01*
X0364926Y0088924D01*
X0364820Y0088940D01*
X0364715Y0088960D01*
X0364610Y0088983D01*
X0364506Y0089011D01*
X0364404Y0089042D01*
X0364303Y0089077D01*
X0364203Y0089116D01*
X0364104Y0089158D01*
X0364007Y0089204D01*
X0363912Y0089254D01*
X0363819Y0089307D01*
X0363728Y0089363D01*
X0363639Y0089423D01*
X0363552Y0089486D01*
X0363468Y0089552D01*
X0363386Y0089621D01*
X0363307Y0089693D01*
X0363231Y0089768D01*
X0363157Y0089846D01*
X0363086Y0089927D01*
X0363018Y0090010D01*
X0362954Y0090095D01*
X0362892Y0090183D01*
X0362834Y0090273D01*
X0362780Y0090365D01*
X0362728Y0090460D01*
X0362681Y0090556D01*
X0362636Y0090653D01*
X0362596Y0090752D01*
X0362559Y0090853D01*
X0362526Y0090955D01*
X0362497Y0091058D01*
X0362471Y0091162D01*
X0362449Y0091267D01*
X0362432Y0091373D01*
X0362418Y0091479D01*
X0362408Y0091586D01*
X0362402Y0091693D01*
X0362400Y0091800D01*
X0362400Y0081800D02*
X0362402Y0081907D01*
X0362408Y0082014D01*
X0362418Y0082121D01*
X0362432Y0082227D01*
X0362449Y0082333D01*
X0362471Y0082438D01*
X0362497Y0082542D01*
X0362526Y0082645D01*
X0362559Y0082747D01*
X0362596Y0082848D01*
X0362636Y0082947D01*
X0362681Y0083044D01*
X0362728Y0083140D01*
X0362780Y0083235D01*
X0362834Y0083327D01*
X0362892Y0083417D01*
X0362954Y0083505D01*
X0363018Y0083590D01*
X0363086Y0083673D01*
X0363157Y0083754D01*
X0363231Y0083832D01*
X0363307Y0083907D01*
X0363386Y0083979D01*
X0363468Y0084048D01*
X0363552Y0084114D01*
X0363639Y0084177D01*
X0363728Y0084237D01*
X0363819Y0084293D01*
X0363912Y0084346D01*
X0364007Y0084396D01*
X0364104Y0084442D01*
X0364203Y0084484D01*
X0364303Y0084523D01*
X0364404Y0084558D01*
X0364506Y0084589D01*
X0364610Y0084617D01*
X0364715Y0084640D01*
X0364820Y0084660D01*
X0364926Y0084676D01*
X0365032Y0084688D01*
X0365139Y0084696D01*
X0365246Y0084700D01*
X0365354Y0084700D01*
X0365461Y0084696D01*
X0365568Y0084688D01*
X0365674Y0084676D01*
X0365780Y0084660D01*
X0365885Y0084640D01*
X0365990Y0084617D01*
X0366094Y0084589D01*
X0366196Y0084558D01*
X0366297Y0084523D01*
X0366397Y0084484D01*
X0366496Y0084442D01*
X0366593Y0084396D01*
X0366688Y0084346D01*
X0366781Y0084293D01*
X0366872Y0084237D01*
X0366961Y0084177D01*
X0367048Y0084114D01*
X0367132Y0084048D01*
X0367214Y0083979D01*
X0367293Y0083907D01*
X0367369Y0083832D01*
X0367443Y0083754D01*
X0367514Y0083673D01*
X0367582Y0083590D01*
X0367646Y0083505D01*
X0367708Y0083417D01*
X0367766Y0083327D01*
X0367820Y0083235D01*
X0367872Y0083140D01*
X0367919Y0083044D01*
X0367964Y0082947D01*
X0368004Y0082848D01*
X0368041Y0082747D01*
X0368074Y0082645D01*
X0368103Y0082542D01*
X0368129Y0082438D01*
X0368151Y0082333D01*
X0368168Y0082227D01*
X0368182Y0082121D01*
X0368192Y0082014D01*
X0368198Y0081907D01*
X0368200Y0081800D01*
X0368198Y0081693D01*
X0368192Y0081586D01*
X0368182Y0081479D01*
X0368168Y0081373D01*
X0368151Y0081267D01*
X0368129Y0081162D01*
X0368103Y0081058D01*
X0368074Y0080955D01*
X0368041Y0080853D01*
X0368004Y0080752D01*
X0367964Y0080653D01*
X0367919Y0080556D01*
X0367872Y0080460D01*
X0367820Y0080365D01*
X0367766Y0080273D01*
X0367708Y0080183D01*
X0367646Y0080095D01*
X0367582Y0080010D01*
X0367514Y0079927D01*
X0367443Y0079846D01*
X0367369Y0079768D01*
X0367293Y0079693D01*
X0367214Y0079621D01*
X0367132Y0079552D01*
X0367048Y0079486D01*
X0366961Y0079423D01*
X0366872Y0079363D01*
X0366781Y0079307D01*
X0366688Y0079254D01*
X0366593Y0079204D01*
X0366496Y0079158D01*
X0366397Y0079116D01*
X0366297Y0079077D01*
X0366196Y0079042D01*
X0366094Y0079011D01*
X0365990Y0078983D01*
X0365885Y0078960D01*
X0365780Y0078940D01*
X0365674Y0078924D01*
X0365568Y0078912D01*
X0365461Y0078904D01*
X0365354Y0078900D01*
X0365246Y0078900D01*
X0365139Y0078904D01*
X0365032Y0078912D01*
X0364926Y0078924D01*
X0364820Y0078940D01*
X0364715Y0078960D01*
X0364610Y0078983D01*
X0364506Y0079011D01*
X0364404Y0079042D01*
X0364303Y0079077D01*
X0364203Y0079116D01*
X0364104Y0079158D01*
X0364007Y0079204D01*
X0363912Y0079254D01*
X0363819Y0079307D01*
X0363728Y0079363D01*
X0363639Y0079423D01*
X0363552Y0079486D01*
X0363468Y0079552D01*
X0363386Y0079621D01*
X0363307Y0079693D01*
X0363231Y0079768D01*
X0363157Y0079846D01*
X0363086Y0079927D01*
X0363018Y0080010D01*
X0362954Y0080095D01*
X0362892Y0080183D01*
X0362834Y0080273D01*
X0362780Y0080365D01*
X0362728Y0080460D01*
X0362681Y0080556D01*
X0362636Y0080653D01*
X0362596Y0080752D01*
X0362559Y0080853D01*
X0362526Y0080955D01*
X0362497Y0081058D01*
X0362471Y0081162D01*
X0362449Y0081267D01*
X0362432Y0081373D01*
X0362418Y0081479D01*
X0362408Y0081586D01*
X0362402Y0081693D01*
X0362400Y0081800D01*
X0362400Y0071800D02*
X0362402Y0071907D01*
X0362408Y0072014D01*
X0362418Y0072121D01*
X0362432Y0072227D01*
X0362449Y0072333D01*
X0362471Y0072438D01*
X0362497Y0072542D01*
X0362526Y0072645D01*
X0362559Y0072747D01*
X0362596Y0072848D01*
X0362636Y0072947D01*
X0362681Y0073044D01*
X0362728Y0073140D01*
X0362780Y0073235D01*
X0362834Y0073327D01*
X0362892Y0073417D01*
X0362954Y0073505D01*
X0363018Y0073590D01*
X0363086Y0073673D01*
X0363157Y0073754D01*
X0363231Y0073832D01*
X0363307Y0073907D01*
X0363386Y0073979D01*
X0363468Y0074048D01*
X0363552Y0074114D01*
X0363639Y0074177D01*
X0363728Y0074237D01*
X0363819Y0074293D01*
X0363912Y0074346D01*
X0364007Y0074396D01*
X0364104Y0074442D01*
X0364203Y0074484D01*
X0364303Y0074523D01*
X0364404Y0074558D01*
X0364506Y0074589D01*
X0364610Y0074617D01*
X0364715Y0074640D01*
X0364820Y0074660D01*
X0364926Y0074676D01*
X0365032Y0074688D01*
X0365139Y0074696D01*
X0365246Y0074700D01*
X0365354Y0074700D01*
X0365461Y0074696D01*
X0365568Y0074688D01*
X0365674Y0074676D01*
X0365780Y0074660D01*
X0365885Y0074640D01*
X0365990Y0074617D01*
X0366094Y0074589D01*
X0366196Y0074558D01*
X0366297Y0074523D01*
X0366397Y0074484D01*
X0366496Y0074442D01*
X0366593Y0074396D01*
X0366688Y0074346D01*
X0366781Y0074293D01*
X0366872Y0074237D01*
X0366961Y0074177D01*
X0367048Y0074114D01*
X0367132Y0074048D01*
X0367214Y0073979D01*
X0367293Y0073907D01*
X0367369Y0073832D01*
X0367443Y0073754D01*
X0367514Y0073673D01*
X0367582Y0073590D01*
X0367646Y0073505D01*
X0367708Y0073417D01*
X0367766Y0073327D01*
X0367820Y0073235D01*
X0367872Y0073140D01*
X0367919Y0073044D01*
X0367964Y0072947D01*
X0368004Y0072848D01*
X0368041Y0072747D01*
X0368074Y0072645D01*
X0368103Y0072542D01*
X0368129Y0072438D01*
X0368151Y0072333D01*
X0368168Y0072227D01*
X0368182Y0072121D01*
X0368192Y0072014D01*
X0368198Y0071907D01*
X0368200Y0071800D01*
X0368198Y0071693D01*
X0368192Y0071586D01*
X0368182Y0071479D01*
X0368168Y0071373D01*
X0368151Y0071267D01*
X0368129Y0071162D01*
X0368103Y0071058D01*
X0368074Y0070955D01*
X0368041Y0070853D01*
X0368004Y0070752D01*
X0367964Y0070653D01*
X0367919Y0070556D01*
X0367872Y0070460D01*
X0367820Y0070365D01*
X0367766Y0070273D01*
X0367708Y0070183D01*
X0367646Y0070095D01*
X0367582Y0070010D01*
X0367514Y0069927D01*
X0367443Y0069846D01*
X0367369Y0069768D01*
X0367293Y0069693D01*
X0367214Y0069621D01*
X0367132Y0069552D01*
X0367048Y0069486D01*
X0366961Y0069423D01*
X0366872Y0069363D01*
X0366781Y0069307D01*
X0366688Y0069254D01*
X0366593Y0069204D01*
X0366496Y0069158D01*
X0366397Y0069116D01*
X0366297Y0069077D01*
X0366196Y0069042D01*
X0366094Y0069011D01*
X0365990Y0068983D01*
X0365885Y0068960D01*
X0365780Y0068940D01*
X0365674Y0068924D01*
X0365568Y0068912D01*
X0365461Y0068904D01*
X0365354Y0068900D01*
X0365246Y0068900D01*
X0365139Y0068904D01*
X0365032Y0068912D01*
X0364926Y0068924D01*
X0364820Y0068940D01*
X0364715Y0068960D01*
X0364610Y0068983D01*
X0364506Y0069011D01*
X0364404Y0069042D01*
X0364303Y0069077D01*
X0364203Y0069116D01*
X0364104Y0069158D01*
X0364007Y0069204D01*
X0363912Y0069254D01*
X0363819Y0069307D01*
X0363728Y0069363D01*
X0363639Y0069423D01*
X0363552Y0069486D01*
X0363468Y0069552D01*
X0363386Y0069621D01*
X0363307Y0069693D01*
X0363231Y0069768D01*
X0363157Y0069846D01*
X0363086Y0069927D01*
X0363018Y0070010D01*
X0362954Y0070095D01*
X0362892Y0070183D01*
X0362834Y0070273D01*
X0362780Y0070365D01*
X0362728Y0070460D01*
X0362681Y0070556D01*
X0362636Y0070653D01*
X0362596Y0070752D01*
X0362559Y0070853D01*
X0362526Y0070955D01*
X0362497Y0071058D01*
X0362471Y0071162D01*
X0362449Y0071267D01*
X0362432Y0071373D01*
X0362418Y0071479D01*
X0362408Y0071586D01*
X0362402Y0071693D01*
X0362400Y0071800D01*
X0362400Y0061800D02*
X0362402Y0061907D01*
X0362408Y0062014D01*
X0362418Y0062121D01*
X0362432Y0062227D01*
X0362449Y0062333D01*
X0362471Y0062438D01*
X0362497Y0062542D01*
X0362526Y0062645D01*
X0362559Y0062747D01*
X0362596Y0062848D01*
X0362636Y0062947D01*
X0362681Y0063044D01*
X0362728Y0063140D01*
X0362780Y0063235D01*
X0362834Y0063327D01*
X0362892Y0063417D01*
X0362954Y0063505D01*
X0363018Y0063590D01*
X0363086Y0063673D01*
X0363157Y0063754D01*
X0363231Y0063832D01*
X0363307Y0063907D01*
X0363386Y0063979D01*
X0363468Y0064048D01*
X0363552Y0064114D01*
X0363639Y0064177D01*
X0363728Y0064237D01*
X0363819Y0064293D01*
X0363912Y0064346D01*
X0364007Y0064396D01*
X0364104Y0064442D01*
X0364203Y0064484D01*
X0364303Y0064523D01*
X0364404Y0064558D01*
X0364506Y0064589D01*
X0364610Y0064617D01*
X0364715Y0064640D01*
X0364820Y0064660D01*
X0364926Y0064676D01*
X0365032Y0064688D01*
X0365139Y0064696D01*
X0365246Y0064700D01*
X0365354Y0064700D01*
X0365461Y0064696D01*
X0365568Y0064688D01*
X0365674Y0064676D01*
X0365780Y0064660D01*
X0365885Y0064640D01*
X0365990Y0064617D01*
X0366094Y0064589D01*
X0366196Y0064558D01*
X0366297Y0064523D01*
X0366397Y0064484D01*
X0366496Y0064442D01*
X0366593Y0064396D01*
X0366688Y0064346D01*
X0366781Y0064293D01*
X0366872Y0064237D01*
X0366961Y0064177D01*
X0367048Y0064114D01*
X0367132Y0064048D01*
X0367214Y0063979D01*
X0367293Y0063907D01*
X0367369Y0063832D01*
X0367443Y0063754D01*
X0367514Y0063673D01*
X0367582Y0063590D01*
X0367646Y0063505D01*
X0367708Y0063417D01*
X0367766Y0063327D01*
X0367820Y0063235D01*
X0367872Y0063140D01*
X0367919Y0063044D01*
X0367964Y0062947D01*
X0368004Y0062848D01*
X0368041Y0062747D01*
X0368074Y0062645D01*
X0368103Y0062542D01*
X0368129Y0062438D01*
X0368151Y0062333D01*
X0368168Y0062227D01*
X0368182Y0062121D01*
X0368192Y0062014D01*
X0368198Y0061907D01*
X0368200Y0061800D01*
X0368198Y0061693D01*
X0368192Y0061586D01*
X0368182Y0061479D01*
X0368168Y0061373D01*
X0368151Y0061267D01*
X0368129Y0061162D01*
X0368103Y0061058D01*
X0368074Y0060955D01*
X0368041Y0060853D01*
X0368004Y0060752D01*
X0367964Y0060653D01*
X0367919Y0060556D01*
X0367872Y0060460D01*
X0367820Y0060365D01*
X0367766Y0060273D01*
X0367708Y0060183D01*
X0367646Y0060095D01*
X0367582Y0060010D01*
X0367514Y0059927D01*
X0367443Y0059846D01*
X0367369Y0059768D01*
X0367293Y0059693D01*
X0367214Y0059621D01*
X0367132Y0059552D01*
X0367048Y0059486D01*
X0366961Y0059423D01*
X0366872Y0059363D01*
X0366781Y0059307D01*
X0366688Y0059254D01*
X0366593Y0059204D01*
X0366496Y0059158D01*
X0366397Y0059116D01*
X0366297Y0059077D01*
X0366196Y0059042D01*
X0366094Y0059011D01*
X0365990Y0058983D01*
X0365885Y0058960D01*
X0365780Y0058940D01*
X0365674Y0058924D01*
X0365568Y0058912D01*
X0365461Y0058904D01*
X0365354Y0058900D01*
X0365246Y0058900D01*
X0365139Y0058904D01*
X0365032Y0058912D01*
X0364926Y0058924D01*
X0364820Y0058940D01*
X0364715Y0058960D01*
X0364610Y0058983D01*
X0364506Y0059011D01*
X0364404Y0059042D01*
X0364303Y0059077D01*
X0364203Y0059116D01*
X0364104Y0059158D01*
X0364007Y0059204D01*
X0363912Y0059254D01*
X0363819Y0059307D01*
X0363728Y0059363D01*
X0363639Y0059423D01*
X0363552Y0059486D01*
X0363468Y0059552D01*
X0363386Y0059621D01*
X0363307Y0059693D01*
X0363231Y0059768D01*
X0363157Y0059846D01*
X0363086Y0059927D01*
X0363018Y0060010D01*
X0362954Y0060095D01*
X0362892Y0060183D01*
X0362834Y0060273D01*
X0362780Y0060365D01*
X0362728Y0060460D01*
X0362681Y0060556D01*
X0362636Y0060653D01*
X0362596Y0060752D01*
X0362559Y0060853D01*
X0362526Y0060955D01*
X0362497Y0061058D01*
X0362471Y0061162D01*
X0362449Y0061267D01*
X0362432Y0061373D01*
X0362418Y0061479D01*
X0362408Y0061586D01*
X0362402Y0061693D01*
X0362400Y0061800D01*
X0372400Y0061800D02*
X0372402Y0061907D01*
X0372408Y0062014D01*
X0372418Y0062121D01*
X0372432Y0062227D01*
X0372449Y0062333D01*
X0372471Y0062438D01*
X0372497Y0062542D01*
X0372526Y0062645D01*
X0372559Y0062747D01*
X0372596Y0062848D01*
X0372636Y0062947D01*
X0372681Y0063044D01*
X0372728Y0063140D01*
X0372780Y0063235D01*
X0372834Y0063327D01*
X0372892Y0063417D01*
X0372954Y0063505D01*
X0373018Y0063590D01*
X0373086Y0063673D01*
X0373157Y0063754D01*
X0373231Y0063832D01*
X0373307Y0063907D01*
X0373386Y0063979D01*
X0373468Y0064048D01*
X0373552Y0064114D01*
X0373639Y0064177D01*
X0373728Y0064237D01*
X0373819Y0064293D01*
X0373912Y0064346D01*
X0374007Y0064396D01*
X0374104Y0064442D01*
X0374203Y0064484D01*
X0374303Y0064523D01*
X0374404Y0064558D01*
X0374506Y0064589D01*
X0374610Y0064617D01*
X0374715Y0064640D01*
X0374820Y0064660D01*
X0374926Y0064676D01*
X0375032Y0064688D01*
X0375139Y0064696D01*
X0375246Y0064700D01*
X0375354Y0064700D01*
X0375461Y0064696D01*
X0375568Y0064688D01*
X0375674Y0064676D01*
X0375780Y0064660D01*
X0375885Y0064640D01*
X0375990Y0064617D01*
X0376094Y0064589D01*
X0376196Y0064558D01*
X0376297Y0064523D01*
X0376397Y0064484D01*
X0376496Y0064442D01*
X0376593Y0064396D01*
X0376688Y0064346D01*
X0376781Y0064293D01*
X0376872Y0064237D01*
X0376961Y0064177D01*
X0377048Y0064114D01*
X0377132Y0064048D01*
X0377214Y0063979D01*
X0377293Y0063907D01*
X0377369Y0063832D01*
X0377443Y0063754D01*
X0377514Y0063673D01*
X0377582Y0063590D01*
X0377646Y0063505D01*
X0377708Y0063417D01*
X0377766Y0063327D01*
X0377820Y0063235D01*
X0377872Y0063140D01*
X0377919Y0063044D01*
X0377964Y0062947D01*
X0378004Y0062848D01*
X0378041Y0062747D01*
X0378074Y0062645D01*
X0378103Y0062542D01*
X0378129Y0062438D01*
X0378151Y0062333D01*
X0378168Y0062227D01*
X0378182Y0062121D01*
X0378192Y0062014D01*
X0378198Y0061907D01*
X0378200Y0061800D01*
X0378198Y0061693D01*
X0378192Y0061586D01*
X0378182Y0061479D01*
X0378168Y0061373D01*
X0378151Y0061267D01*
X0378129Y0061162D01*
X0378103Y0061058D01*
X0378074Y0060955D01*
X0378041Y0060853D01*
X0378004Y0060752D01*
X0377964Y0060653D01*
X0377919Y0060556D01*
X0377872Y0060460D01*
X0377820Y0060365D01*
X0377766Y0060273D01*
X0377708Y0060183D01*
X0377646Y0060095D01*
X0377582Y0060010D01*
X0377514Y0059927D01*
X0377443Y0059846D01*
X0377369Y0059768D01*
X0377293Y0059693D01*
X0377214Y0059621D01*
X0377132Y0059552D01*
X0377048Y0059486D01*
X0376961Y0059423D01*
X0376872Y0059363D01*
X0376781Y0059307D01*
X0376688Y0059254D01*
X0376593Y0059204D01*
X0376496Y0059158D01*
X0376397Y0059116D01*
X0376297Y0059077D01*
X0376196Y0059042D01*
X0376094Y0059011D01*
X0375990Y0058983D01*
X0375885Y0058960D01*
X0375780Y0058940D01*
X0375674Y0058924D01*
X0375568Y0058912D01*
X0375461Y0058904D01*
X0375354Y0058900D01*
X0375246Y0058900D01*
X0375139Y0058904D01*
X0375032Y0058912D01*
X0374926Y0058924D01*
X0374820Y0058940D01*
X0374715Y0058960D01*
X0374610Y0058983D01*
X0374506Y0059011D01*
X0374404Y0059042D01*
X0374303Y0059077D01*
X0374203Y0059116D01*
X0374104Y0059158D01*
X0374007Y0059204D01*
X0373912Y0059254D01*
X0373819Y0059307D01*
X0373728Y0059363D01*
X0373639Y0059423D01*
X0373552Y0059486D01*
X0373468Y0059552D01*
X0373386Y0059621D01*
X0373307Y0059693D01*
X0373231Y0059768D01*
X0373157Y0059846D01*
X0373086Y0059927D01*
X0373018Y0060010D01*
X0372954Y0060095D01*
X0372892Y0060183D01*
X0372834Y0060273D01*
X0372780Y0060365D01*
X0372728Y0060460D01*
X0372681Y0060556D01*
X0372636Y0060653D01*
X0372596Y0060752D01*
X0372559Y0060853D01*
X0372526Y0060955D01*
X0372497Y0061058D01*
X0372471Y0061162D01*
X0372449Y0061267D01*
X0372432Y0061373D01*
X0372418Y0061479D01*
X0372408Y0061586D01*
X0372402Y0061693D01*
X0372400Y0061800D01*
X0372400Y0071800D02*
X0372402Y0071907D01*
X0372408Y0072014D01*
X0372418Y0072121D01*
X0372432Y0072227D01*
X0372449Y0072333D01*
X0372471Y0072438D01*
X0372497Y0072542D01*
X0372526Y0072645D01*
X0372559Y0072747D01*
X0372596Y0072848D01*
X0372636Y0072947D01*
X0372681Y0073044D01*
X0372728Y0073140D01*
X0372780Y0073235D01*
X0372834Y0073327D01*
X0372892Y0073417D01*
X0372954Y0073505D01*
X0373018Y0073590D01*
X0373086Y0073673D01*
X0373157Y0073754D01*
X0373231Y0073832D01*
X0373307Y0073907D01*
X0373386Y0073979D01*
X0373468Y0074048D01*
X0373552Y0074114D01*
X0373639Y0074177D01*
X0373728Y0074237D01*
X0373819Y0074293D01*
X0373912Y0074346D01*
X0374007Y0074396D01*
X0374104Y0074442D01*
X0374203Y0074484D01*
X0374303Y0074523D01*
X0374404Y0074558D01*
X0374506Y0074589D01*
X0374610Y0074617D01*
X0374715Y0074640D01*
X0374820Y0074660D01*
X0374926Y0074676D01*
X0375032Y0074688D01*
X0375139Y0074696D01*
X0375246Y0074700D01*
X0375354Y0074700D01*
X0375461Y0074696D01*
X0375568Y0074688D01*
X0375674Y0074676D01*
X0375780Y0074660D01*
X0375885Y0074640D01*
X0375990Y0074617D01*
X0376094Y0074589D01*
X0376196Y0074558D01*
X0376297Y0074523D01*
X0376397Y0074484D01*
X0376496Y0074442D01*
X0376593Y0074396D01*
X0376688Y0074346D01*
X0376781Y0074293D01*
X0376872Y0074237D01*
X0376961Y0074177D01*
X0377048Y0074114D01*
X0377132Y0074048D01*
X0377214Y0073979D01*
X0377293Y0073907D01*
X0377369Y0073832D01*
X0377443Y0073754D01*
X0377514Y0073673D01*
X0377582Y0073590D01*
X0377646Y0073505D01*
X0377708Y0073417D01*
X0377766Y0073327D01*
X0377820Y0073235D01*
X0377872Y0073140D01*
X0377919Y0073044D01*
X0377964Y0072947D01*
X0378004Y0072848D01*
X0378041Y0072747D01*
X0378074Y0072645D01*
X0378103Y0072542D01*
X0378129Y0072438D01*
X0378151Y0072333D01*
X0378168Y0072227D01*
X0378182Y0072121D01*
X0378192Y0072014D01*
X0378198Y0071907D01*
X0378200Y0071800D01*
X0378198Y0071693D01*
X0378192Y0071586D01*
X0378182Y0071479D01*
X0378168Y0071373D01*
X0378151Y0071267D01*
X0378129Y0071162D01*
X0378103Y0071058D01*
X0378074Y0070955D01*
X0378041Y0070853D01*
X0378004Y0070752D01*
X0377964Y0070653D01*
X0377919Y0070556D01*
X0377872Y0070460D01*
X0377820Y0070365D01*
X0377766Y0070273D01*
X0377708Y0070183D01*
X0377646Y0070095D01*
X0377582Y0070010D01*
X0377514Y0069927D01*
X0377443Y0069846D01*
X0377369Y0069768D01*
X0377293Y0069693D01*
X0377214Y0069621D01*
X0377132Y0069552D01*
X0377048Y0069486D01*
X0376961Y0069423D01*
X0376872Y0069363D01*
X0376781Y0069307D01*
X0376688Y0069254D01*
X0376593Y0069204D01*
X0376496Y0069158D01*
X0376397Y0069116D01*
X0376297Y0069077D01*
X0376196Y0069042D01*
X0376094Y0069011D01*
X0375990Y0068983D01*
X0375885Y0068960D01*
X0375780Y0068940D01*
X0375674Y0068924D01*
X0375568Y0068912D01*
X0375461Y0068904D01*
X0375354Y0068900D01*
X0375246Y0068900D01*
X0375139Y0068904D01*
X0375032Y0068912D01*
X0374926Y0068924D01*
X0374820Y0068940D01*
X0374715Y0068960D01*
X0374610Y0068983D01*
X0374506Y0069011D01*
X0374404Y0069042D01*
X0374303Y0069077D01*
X0374203Y0069116D01*
X0374104Y0069158D01*
X0374007Y0069204D01*
X0373912Y0069254D01*
X0373819Y0069307D01*
X0373728Y0069363D01*
X0373639Y0069423D01*
X0373552Y0069486D01*
X0373468Y0069552D01*
X0373386Y0069621D01*
X0373307Y0069693D01*
X0373231Y0069768D01*
X0373157Y0069846D01*
X0373086Y0069927D01*
X0373018Y0070010D01*
X0372954Y0070095D01*
X0372892Y0070183D01*
X0372834Y0070273D01*
X0372780Y0070365D01*
X0372728Y0070460D01*
X0372681Y0070556D01*
X0372636Y0070653D01*
X0372596Y0070752D01*
X0372559Y0070853D01*
X0372526Y0070955D01*
X0372497Y0071058D01*
X0372471Y0071162D01*
X0372449Y0071267D01*
X0372432Y0071373D01*
X0372418Y0071479D01*
X0372408Y0071586D01*
X0372402Y0071693D01*
X0372400Y0071800D01*
X0372400Y0081800D02*
X0372402Y0081907D01*
X0372408Y0082014D01*
X0372418Y0082121D01*
X0372432Y0082227D01*
X0372449Y0082333D01*
X0372471Y0082438D01*
X0372497Y0082542D01*
X0372526Y0082645D01*
X0372559Y0082747D01*
X0372596Y0082848D01*
X0372636Y0082947D01*
X0372681Y0083044D01*
X0372728Y0083140D01*
X0372780Y0083235D01*
X0372834Y0083327D01*
X0372892Y0083417D01*
X0372954Y0083505D01*
X0373018Y0083590D01*
X0373086Y0083673D01*
X0373157Y0083754D01*
X0373231Y0083832D01*
X0373307Y0083907D01*
X0373386Y0083979D01*
X0373468Y0084048D01*
X0373552Y0084114D01*
X0373639Y0084177D01*
X0373728Y0084237D01*
X0373819Y0084293D01*
X0373912Y0084346D01*
X0374007Y0084396D01*
X0374104Y0084442D01*
X0374203Y0084484D01*
X0374303Y0084523D01*
X0374404Y0084558D01*
X0374506Y0084589D01*
X0374610Y0084617D01*
X0374715Y0084640D01*
X0374820Y0084660D01*
X0374926Y0084676D01*
X0375032Y0084688D01*
X0375139Y0084696D01*
X0375246Y0084700D01*
X0375354Y0084700D01*
X0375461Y0084696D01*
X0375568Y0084688D01*
X0375674Y0084676D01*
X0375780Y0084660D01*
X0375885Y0084640D01*
X0375990Y0084617D01*
X0376094Y0084589D01*
X0376196Y0084558D01*
X0376297Y0084523D01*
X0376397Y0084484D01*
X0376496Y0084442D01*
X0376593Y0084396D01*
X0376688Y0084346D01*
X0376781Y0084293D01*
X0376872Y0084237D01*
X0376961Y0084177D01*
X0377048Y0084114D01*
X0377132Y0084048D01*
X0377214Y0083979D01*
X0377293Y0083907D01*
X0377369Y0083832D01*
X0377443Y0083754D01*
X0377514Y0083673D01*
X0377582Y0083590D01*
X0377646Y0083505D01*
X0377708Y0083417D01*
X0377766Y0083327D01*
X0377820Y0083235D01*
X0377872Y0083140D01*
X0377919Y0083044D01*
X0377964Y0082947D01*
X0378004Y0082848D01*
X0378041Y0082747D01*
X0378074Y0082645D01*
X0378103Y0082542D01*
X0378129Y0082438D01*
X0378151Y0082333D01*
X0378168Y0082227D01*
X0378182Y0082121D01*
X0378192Y0082014D01*
X0378198Y0081907D01*
X0378200Y0081800D01*
X0378198Y0081693D01*
X0378192Y0081586D01*
X0378182Y0081479D01*
X0378168Y0081373D01*
X0378151Y0081267D01*
X0378129Y0081162D01*
X0378103Y0081058D01*
X0378074Y0080955D01*
X0378041Y0080853D01*
X0378004Y0080752D01*
X0377964Y0080653D01*
X0377919Y0080556D01*
X0377872Y0080460D01*
X0377820Y0080365D01*
X0377766Y0080273D01*
X0377708Y0080183D01*
X0377646Y0080095D01*
X0377582Y0080010D01*
X0377514Y0079927D01*
X0377443Y0079846D01*
X0377369Y0079768D01*
X0377293Y0079693D01*
X0377214Y0079621D01*
X0377132Y0079552D01*
X0377048Y0079486D01*
X0376961Y0079423D01*
X0376872Y0079363D01*
X0376781Y0079307D01*
X0376688Y0079254D01*
X0376593Y0079204D01*
X0376496Y0079158D01*
X0376397Y0079116D01*
X0376297Y0079077D01*
X0376196Y0079042D01*
X0376094Y0079011D01*
X0375990Y0078983D01*
X0375885Y0078960D01*
X0375780Y0078940D01*
X0375674Y0078924D01*
X0375568Y0078912D01*
X0375461Y0078904D01*
X0375354Y0078900D01*
X0375246Y0078900D01*
X0375139Y0078904D01*
X0375032Y0078912D01*
X0374926Y0078924D01*
X0374820Y0078940D01*
X0374715Y0078960D01*
X0374610Y0078983D01*
X0374506Y0079011D01*
X0374404Y0079042D01*
X0374303Y0079077D01*
X0374203Y0079116D01*
X0374104Y0079158D01*
X0374007Y0079204D01*
X0373912Y0079254D01*
X0373819Y0079307D01*
X0373728Y0079363D01*
X0373639Y0079423D01*
X0373552Y0079486D01*
X0373468Y0079552D01*
X0373386Y0079621D01*
X0373307Y0079693D01*
X0373231Y0079768D01*
X0373157Y0079846D01*
X0373086Y0079927D01*
X0373018Y0080010D01*
X0372954Y0080095D01*
X0372892Y0080183D01*
X0372834Y0080273D01*
X0372780Y0080365D01*
X0372728Y0080460D01*
X0372681Y0080556D01*
X0372636Y0080653D01*
X0372596Y0080752D01*
X0372559Y0080853D01*
X0372526Y0080955D01*
X0372497Y0081058D01*
X0372471Y0081162D01*
X0372449Y0081267D01*
X0372432Y0081373D01*
X0372418Y0081479D01*
X0372408Y0081586D01*
X0372402Y0081693D01*
X0372400Y0081800D01*
X0372400Y0121800D02*
X0372402Y0121907D01*
X0372408Y0122014D01*
X0372418Y0122121D01*
X0372432Y0122227D01*
X0372449Y0122333D01*
X0372471Y0122438D01*
X0372497Y0122542D01*
X0372526Y0122645D01*
X0372559Y0122747D01*
X0372596Y0122848D01*
X0372636Y0122947D01*
X0372681Y0123044D01*
X0372728Y0123140D01*
X0372780Y0123235D01*
X0372834Y0123327D01*
X0372892Y0123417D01*
X0372954Y0123505D01*
X0373018Y0123590D01*
X0373086Y0123673D01*
X0373157Y0123754D01*
X0373231Y0123832D01*
X0373307Y0123907D01*
X0373386Y0123979D01*
X0373468Y0124048D01*
X0373552Y0124114D01*
X0373639Y0124177D01*
X0373728Y0124237D01*
X0373819Y0124293D01*
X0373912Y0124346D01*
X0374007Y0124396D01*
X0374104Y0124442D01*
X0374203Y0124484D01*
X0374303Y0124523D01*
X0374404Y0124558D01*
X0374506Y0124589D01*
X0374610Y0124617D01*
X0374715Y0124640D01*
X0374820Y0124660D01*
X0374926Y0124676D01*
X0375032Y0124688D01*
X0375139Y0124696D01*
X0375246Y0124700D01*
X0375354Y0124700D01*
X0375461Y0124696D01*
X0375568Y0124688D01*
X0375674Y0124676D01*
X0375780Y0124660D01*
X0375885Y0124640D01*
X0375990Y0124617D01*
X0376094Y0124589D01*
X0376196Y0124558D01*
X0376297Y0124523D01*
X0376397Y0124484D01*
X0376496Y0124442D01*
X0376593Y0124396D01*
X0376688Y0124346D01*
X0376781Y0124293D01*
X0376872Y0124237D01*
X0376961Y0124177D01*
X0377048Y0124114D01*
X0377132Y0124048D01*
X0377214Y0123979D01*
X0377293Y0123907D01*
X0377369Y0123832D01*
X0377443Y0123754D01*
X0377514Y0123673D01*
X0377582Y0123590D01*
X0377646Y0123505D01*
X0377708Y0123417D01*
X0377766Y0123327D01*
X0377820Y0123235D01*
X0377872Y0123140D01*
X0377919Y0123044D01*
X0377964Y0122947D01*
X0378004Y0122848D01*
X0378041Y0122747D01*
X0378074Y0122645D01*
X0378103Y0122542D01*
X0378129Y0122438D01*
X0378151Y0122333D01*
X0378168Y0122227D01*
X0378182Y0122121D01*
X0378192Y0122014D01*
X0378198Y0121907D01*
X0378200Y0121800D01*
X0378198Y0121693D01*
X0378192Y0121586D01*
X0378182Y0121479D01*
X0378168Y0121373D01*
X0378151Y0121267D01*
X0378129Y0121162D01*
X0378103Y0121058D01*
X0378074Y0120955D01*
X0378041Y0120853D01*
X0378004Y0120752D01*
X0377964Y0120653D01*
X0377919Y0120556D01*
X0377872Y0120460D01*
X0377820Y0120365D01*
X0377766Y0120273D01*
X0377708Y0120183D01*
X0377646Y0120095D01*
X0377582Y0120010D01*
X0377514Y0119927D01*
X0377443Y0119846D01*
X0377369Y0119768D01*
X0377293Y0119693D01*
X0377214Y0119621D01*
X0377132Y0119552D01*
X0377048Y0119486D01*
X0376961Y0119423D01*
X0376872Y0119363D01*
X0376781Y0119307D01*
X0376688Y0119254D01*
X0376593Y0119204D01*
X0376496Y0119158D01*
X0376397Y0119116D01*
X0376297Y0119077D01*
X0376196Y0119042D01*
X0376094Y0119011D01*
X0375990Y0118983D01*
X0375885Y0118960D01*
X0375780Y0118940D01*
X0375674Y0118924D01*
X0375568Y0118912D01*
X0375461Y0118904D01*
X0375354Y0118900D01*
X0375246Y0118900D01*
X0375139Y0118904D01*
X0375032Y0118912D01*
X0374926Y0118924D01*
X0374820Y0118940D01*
X0374715Y0118960D01*
X0374610Y0118983D01*
X0374506Y0119011D01*
X0374404Y0119042D01*
X0374303Y0119077D01*
X0374203Y0119116D01*
X0374104Y0119158D01*
X0374007Y0119204D01*
X0373912Y0119254D01*
X0373819Y0119307D01*
X0373728Y0119363D01*
X0373639Y0119423D01*
X0373552Y0119486D01*
X0373468Y0119552D01*
X0373386Y0119621D01*
X0373307Y0119693D01*
X0373231Y0119768D01*
X0373157Y0119846D01*
X0373086Y0119927D01*
X0373018Y0120010D01*
X0372954Y0120095D01*
X0372892Y0120183D01*
X0372834Y0120273D01*
X0372780Y0120365D01*
X0372728Y0120460D01*
X0372681Y0120556D01*
X0372636Y0120653D01*
X0372596Y0120752D01*
X0372559Y0120853D01*
X0372526Y0120955D01*
X0372497Y0121058D01*
X0372471Y0121162D01*
X0372449Y0121267D01*
X0372432Y0121373D01*
X0372418Y0121479D01*
X0372408Y0121586D01*
X0372402Y0121693D01*
X0372400Y0121800D01*
X0362400Y0121800D02*
X0362402Y0121907D01*
X0362408Y0122014D01*
X0362418Y0122121D01*
X0362432Y0122227D01*
X0362449Y0122333D01*
X0362471Y0122438D01*
X0362497Y0122542D01*
X0362526Y0122645D01*
X0362559Y0122747D01*
X0362596Y0122848D01*
X0362636Y0122947D01*
X0362681Y0123044D01*
X0362728Y0123140D01*
X0362780Y0123235D01*
X0362834Y0123327D01*
X0362892Y0123417D01*
X0362954Y0123505D01*
X0363018Y0123590D01*
X0363086Y0123673D01*
X0363157Y0123754D01*
X0363231Y0123832D01*
X0363307Y0123907D01*
X0363386Y0123979D01*
X0363468Y0124048D01*
X0363552Y0124114D01*
X0363639Y0124177D01*
X0363728Y0124237D01*
X0363819Y0124293D01*
X0363912Y0124346D01*
X0364007Y0124396D01*
X0364104Y0124442D01*
X0364203Y0124484D01*
X0364303Y0124523D01*
X0364404Y0124558D01*
X0364506Y0124589D01*
X0364610Y0124617D01*
X0364715Y0124640D01*
X0364820Y0124660D01*
X0364926Y0124676D01*
X0365032Y0124688D01*
X0365139Y0124696D01*
X0365246Y0124700D01*
X0365354Y0124700D01*
X0365461Y0124696D01*
X0365568Y0124688D01*
X0365674Y0124676D01*
X0365780Y0124660D01*
X0365885Y0124640D01*
X0365990Y0124617D01*
X0366094Y0124589D01*
X0366196Y0124558D01*
X0366297Y0124523D01*
X0366397Y0124484D01*
X0366496Y0124442D01*
X0366593Y0124396D01*
X0366688Y0124346D01*
X0366781Y0124293D01*
X0366872Y0124237D01*
X0366961Y0124177D01*
X0367048Y0124114D01*
X0367132Y0124048D01*
X0367214Y0123979D01*
X0367293Y0123907D01*
X0367369Y0123832D01*
X0367443Y0123754D01*
X0367514Y0123673D01*
X0367582Y0123590D01*
X0367646Y0123505D01*
X0367708Y0123417D01*
X0367766Y0123327D01*
X0367820Y0123235D01*
X0367872Y0123140D01*
X0367919Y0123044D01*
X0367964Y0122947D01*
X0368004Y0122848D01*
X0368041Y0122747D01*
X0368074Y0122645D01*
X0368103Y0122542D01*
X0368129Y0122438D01*
X0368151Y0122333D01*
X0368168Y0122227D01*
X0368182Y0122121D01*
X0368192Y0122014D01*
X0368198Y0121907D01*
X0368200Y0121800D01*
X0368198Y0121693D01*
X0368192Y0121586D01*
X0368182Y0121479D01*
X0368168Y0121373D01*
X0368151Y0121267D01*
X0368129Y0121162D01*
X0368103Y0121058D01*
X0368074Y0120955D01*
X0368041Y0120853D01*
X0368004Y0120752D01*
X0367964Y0120653D01*
X0367919Y0120556D01*
X0367872Y0120460D01*
X0367820Y0120365D01*
X0367766Y0120273D01*
X0367708Y0120183D01*
X0367646Y0120095D01*
X0367582Y0120010D01*
X0367514Y0119927D01*
X0367443Y0119846D01*
X0367369Y0119768D01*
X0367293Y0119693D01*
X0367214Y0119621D01*
X0367132Y0119552D01*
X0367048Y0119486D01*
X0366961Y0119423D01*
X0366872Y0119363D01*
X0366781Y0119307D01*
X0366688Y0119254D01*
X0366593Y0119204D01*
X0366496Y0119158D01*
X0366397Y0119116D01*
X0366297Y0119077D01*
X0366196Y0119042D01*
X0366094Y0119011D01*
X0365990Y0118983D01*
X0365885Y0118960D01*
X0365780Y0118940D01*
X0365674Y0118924D01*
X0365568Y0118912D01*
X0365461Y0118904D01*
X0365354Y0118900D01*
X0365246Y0118900D01*
X0365139Y0118904D01*
X0365032Y0118912D01*
X0364926Y0118924D01*
X0364820Y0118940D01*
X0364715Y0118960D01*
X0364610Y0118983D01*
X0364506Y0119011D01*
X0364404Y0119042D01*
X0364303Y0119077D01*
X0364203Y0119116D01*
X0364104Y0119158D01*
X0364007Y0119204D01*
X0363912Y0119254D01*
X0363819Y0119307D01*
X0363728Y0119363D01*
X0363639Y0119423D01*
X0363552Y0119486D01*
X0363468Y0119552D01*
X0363386Y0119621D01*
X0363307Y0119693D01*
X0363231Y0119768D01*
X0363157Y0119846D01*
X0363086Y0119927D01*
X0363018Y0120010D01*
X0362954Y0120095D01*
X0362892Y0120183D01*
X0362834Y0120273D01*
X0362780Y0120365D01*
X0362728Y0120460D01*
X0362681Y0120556D01*
X0362636Y0120653D01*
X0362596Y0120752D01*
X0362559Y0120853D01*
X0362526Y0120955D01*
X0362497Y0121058D01*
X0362471Y0121162D01*
X0362449Y0121267D01*
X0362432Y0121373D01*
X0362418Y0121479D01*
X0362408Y0121586D01*
X0362402Y0121693D01*
X0362400Y0121800D01*
X0362400Y0131800D02*
X0362402Y0131907D01*
X0362408Y0132014D01*
X0362418Y0132121D01*
X0362432Y0132227D01*
X0362449Y0132333D01*
X0362471Y0132438D01*
X0362497Y0132542D01*
X0362526Y0132645D01*
X0362559Y0132747D01*
X0362596Y0132848D01*
X0362636Y0132947D01*
X0362681Y0133044D01*
X0362728Y0133140D01*
X0362780Y0133235D01*
X0362834Y0133327D01*
X0362892Y0133417D01*
X0362954Y0133505D01*
X0363018Y0133590D01*
X0363086Y0133673D01*
X0363157Y0133754D01*
X0363231Y0133832D01*
X0363307Y0133907D01*
X0363386Y0133979D01*
X0363468Y0134048D01*
X0363552Y0134114D01*
X0363639Y0134177D01*
X0363728Y0134237D01*
X0363819Y0134293D01*
X0363912Y0134346D01*
X0364007Y0134396D01*
X0364104Y0134442D01*
X0364203Y0134484D01*
X0364303Y0134523D01*
X0364404Y0134558D01*
X0364506Y0134589D01*
X0364610Y0134617D01*
X0364715Y0134640D01*
X0364820Y0134660D01*
X0364926Y0134676D01*
X0365032Y0134688D01*
X0365139Y0134696D01*
X0365246Y0134700D01*
X0365354Y0134700D01*
X0365461Y0134696D01*
X0365568Y0134688D01*
X0365674Y0134676D01*
X0365780Y0134660D01*
X0365885Y0134640D01*
X0365990Y0134617D01*
X0366094Y0134589D01*
X0366196Y0134558D01*
X0366297Y0134523D01*
X0366397Y0134484D01*
X0366496Y0134442D01*
X0366593Y0134396D01*
X0366688Y0134346D01*
X0366781Y0134293D01*
X0366872Y0134237D01*
X0366961Y0134177D01*
X0367048Y0134114D01*
X0367132Y0134048D01*
X0367214Y0133979D01*
X0367293Y0133907D01*
X0367369Y0133832D01*
X0367443Y0133754D01*
X0367514Y0133673D01*
X0367582Y0133590D01*
X0367646Y0133505D01*
X0367708Y0133417D01*
X0367766Y0133327D01*
X0367820Y0133235D01*
X0367872Y0133140D01*
X0367919Y0133044D01*
X0367964Y0132947D01*
X0368004Y0132848D01*
X0368041Y0132747D01*
X0368074Y0132645D01*
X0368103Y0132542D01*
X0368129Y0132438D01*
X0368151Y0132333D01*
X0368168Y0132227D01*
X0368182Y0132121D01*
X0368192Y0132014D01*
X0368198Y0131907D01*
X0368200Y0131800D01*
X0368198Y0131693D01*
X0368192Y0131586D01*
X0368182Y0131479D01*
X0368168Y0131373D01*
X0368151Y0131267D01*
X0368129Y0131162D01*
X0368103Y0131058D01*
X0368074Y0130955D01*
X0368041Y0130853D01*
X0368004Y0130752D01*
X0367964Y0130653D01*
X0367919Y0130556D01*
X0367872Y0130460D01*
X0367820Y0130365D01*
X0367766Y0130273D01*
X0367708Y0130183D01*
X0367646Y0130095D01*
X0367582Y0130010D01*
X0367514Y0129927D01*
X0367443Y0129846D01*
X0367369Y0129768D01*
X0367293Y0129693D01*
X0367214Y0129621D01*
X0367132Y0129552D01*
X0367048Y0129486D01*
X0366961Y0129423D01*
X0366872Y0129363D01*
X0366781Y0129307D01*
X0366688Y0129254D01*
X0366593Y0129204D01*
X0366496Y0129158D01*
X0366397Y0129116D01*
X0366297Y0129077D01*
X0366196Y0129042D01*
X0366094Y0129011D01*
X0365990Y0128983D01*
X0365885Y0128960D01*
X0365780Y0128940D01*
X0365674Y0128924D01*
X0365568Y0128912D01*
X0365461Y0128904D01*
X0365354Y0128900D01*
X0365246Y0128900D01*
X0365139Y0128904D01*
X0365032Y0128912D01*
X0364926Y0128924D01*
X0364820Y0128940D01*
X0364715Y0128960D01*
X0364610Y0128983D01*
X0364506Y0129011D01*
X0364404Y0129042D01*
X0364303Y0129077D01*
X0364203Y0129116D01*
X0364104Y0129158D01*
X0364007Y0129204D01*
X0363912Y0129254D01*
X0363819Y0129307D01*
X0363728Y0129363D01*
X0363639Y0129423D01*
X0363552Y0129486D01*
X0363468Y0129552D01*
X0363386Y0129621D01*
X0363307Y0129693D01*
X0363231Y0129768D01*
X0363157Y0129846D01*
X0363086Y0129927D01*
X0363018Y0130010D01*
X0362954Y0130095D01*
X0362892Y0130183D01*
X0362834Y0130273D01*
X0362780Y0130365D01*
X0362728Y0130460D01*
X0362681Y0130556D01*
X0362636Y0130653D01*
X0362596Y0130752D01*
X0362559Y0130853D01*
X0362526Y0130955D01*
X0362497Y0131058D01*
X0362471Y0131162D01*
X0362449Y0131267D01*
X0362432Y0131373D01*
X0362418Y0131479D01*
X0362408Y0131586D01*
X0362402Y0131693D01*
X0362400Y0131800D01*
X0372400Y0131800D02*
X0372402Y0131907D01*
X0372408Y0132014D01*
X0372418Y0132121D01*
X0372432Y0132227D01*
X0372449Y0132333D01*
X0372471Y0132438D01*
X0372497Y0132542D01*
X0372526Y0132645D01*
X0372559Y0132747D01*
X0372596Y0132848D01*
X0372636Y0132947D01*
X0372681Y0133044D01*
X0372728Y0133140D01*
X0372780Y0133235D01*
X0372834Y0133327D01*
X0372892Y0133417D01*
X0372954Y0133505D01*
X0373018Y0133590D01*
X0373086Y0133673D01*
X0373157Y0133754D01*
X0373231Y0133832D01*
X0373307Y0133907D01*
X0373386Y0133979D01*
X0373468Y0134048D01*
X0373552Y0134114D01*
X0373639Y0134177D01*
X0373728Y0134237D01*
X0373819Y0134293D01*
X0373912Y0134346D01*
X0374007Y0134396D01*
X0374104Y0134442D01*
X0374203Y0134484D01*
X0374303Y0134523D01*
X0374404Y0134558D01*
X0374506Y0134589D01*
X0374610Y0134617D01*
X0374715Y0134640D01*
X0374820Y0134660D01*
X0374926Y0134676D01*
X0375032Y0134688D01*
X0375139Y0134696D01*
X0375246Y0134700D01*
X0375354Y0134700D01*
X0375461Y0134696D01*
X0375568Y0134688D01*
X0375674Y0134676D01*
X0375780Y0134660D01*
X0375885Y0134640D01*
X0375990Y0134617D01*
X0376094Y0134589D01*
X0376196Y0134558D01*
X0376297Y0134523D01*
X0376397Y0134484D01*
X0376496Y0134442D01*
X0376593Y0134396D01*
X0376688Y0134346D01*
X0376781Y0134293D01*
X0376872Y0134237D01*
X0376961Y0134177D01*
X0377048Y0134114D01*
X0377132Y0134048D01*
X0377214Y0133979D01*
X0377293Y0133907D01*
X0377369Y0133832D01*
X0377443Y0133754D01*
X0377514Y0133673D01*
X0377582Y0133590D01*
X0377646Y0133505D01*
X0377708Y0133417D01*
X0377766Y0133327D01*
X0377820Y0133235D01*
X0377872Y0133140D01*
X0377919Y0133044D01*
X0377964Y0132947D01*
X0378004Y0132848D01*
X0378041Y0132747D01*
X0378074Y0132645D01*
X0378103Y0132542D01*
X0378129Y0132438D01*
X0378151Y0132333D01*
X0378168Y0132227D01*
X0378182Y0132121D01*
X0378192Y0132014D01*
X0378198Y0131907D01*
X0378200Y0131800D01*
X0378198Y0131693D01*
X0378192Y0131586D01*
X0378182Y0131479D01*
X0378168Y0131373D01*
X0378151Y0131267D01*
X0378129Y0131162D01*
X0378103Y0131058D01*
X0378074Y0130955D01*
X0378041Y0130853D01*
X0378004Y0130752D01*
X0377964Y0130653D01*
X0377919Y0130556D01*
X0377872Y0130460D01*
X0377820Y0130365D01*
X0377766Y0130273D01*
X0377708Y0130183D01*
X0377646Y0130095D01*
X0377582Y0130010D01*
X0377514Y0129927D01*
X0377443Y0129846D01*
X0377369Y0129768D01*
X0377293Y0129693D01*
X0377214Y0129621D01*
X0377132Y0129552D01*
X0377048Y0129486D01*
X0376961Y0129423D01*
X0376872Y0129363D01*
X0376781Y0129307D01*
X0376688Y0129254D01*
X0376593Y0129204D01*
X0376496Y0129158D01*
X0376397Y0129116D01*
X0376297Y0129077D01*
X0376196Y0129042D01*
X0376094Y0129011D01*
X0375990Y0128983D01*
X0375885Y0128960D01*
X0375780Y0128940D01*
X0375674Y0128924D01*
X0375568Y0128912D01*
X0375461Y0128904D01*
X0375354Y0128900D01*
X0375246Y0128900D01*
X0375139Y0128904D01*
X0375032Y0128912D01*
X0374926Y0128924D01*
X0374820Y0128940D01*
X0374715Y0128960D01*
X0374610Y0128983D01*
X0374506Y0129011D01*
X0374404Y0129042D01*
X0374303Y0129077D01*
X0374203Y0129116D01*
X0374104Y0129158D01*
X0374007Y0129204D01*
X0373912Y0129254D01*
X0373819Y0129307D01*
X0373728Y0129363D01*
X0373639Y0129423D01*
X0373552Y0129486D01*
X0373468Y0129552D01*
X0373386Y0129621D01*
X0373307Y0129693D01*
X0373231Y0129768D01*
X0373157Y0129846D01*
X0373086Y0129927D01*
X0373018Y0130010D01*
X0372954Y0130095D01*
X0372892Y0130183D01*
X0372834Y0130273D01*
X0372780Y0130365D01*
X0372728Y0130460D01*
X0372681Y0130556D01*
X0372636Y0130653D01*
X0372596Y0130752D01*
X0372559Y0130853D01*
X0372526Y0130955D01*
X0372497Y0131058D01*
X0372471Y0131162D01*
X0372449Y0131267D01*
X0372432Y0131373D01*
X0372418Y0131479D01*
X0372408Y0131586D01*
X0372402Y0131693D01*
X0372400Y0131800D01*
X0372400Y0141800D02*
X0372402Y0141907D01*
X0372408Y0142014D01*
X0372418Y0142121D01*
X0372432Y0142227D01*
X0372449Y0142333D01*
X0372471Y0142438D01*
X0372497Y0142542D01*
X0372526Y0142645D01*
X0372559Y0142747D01*
X0372596Y0142848D01*
X0372636Y0142947D01*
X0372681Y0143044D01*
X0372728Y0143140D01*
X0372780Y0143235D01*
X0372834Y0143327D01*
X0372892Y0143417D01*
X0372954Y0143505D01*
X0373018Y0143590D01*
X0373086Y0143673D01*
X0373157Y0143754D01*
X0373231Y0143832D01*
X0373307Y0143907D01*
X0373386Y0143979D01*
X0373468Y0144048D01*
X0373552Y0144114D01*
X0373639Y0144177D01*
X0373728Y0144237D01*
X0373819Y0144293D01*
X0373912Y0144346D01*
X0374007Y0144396D01*
X0374104Y0144442D01*
X0374203Y0144484D01*
X0374303Y0144523D01*
X0374404Y0144558D01*
X0374506Y0144589D01*
X0374610Y0144617D01*
X0374715Y0144640D01*
X0374820Y0144660D01*
X0374926Y0144676D01*
X0375032Y0144688D01*
X0375139Y0144696D01*
X0375246Y0144700D01*
X0375354Y0144700D01*
X0375461Y0144696D01*
X0375568Y0144688D01*
X0375674Y0144676D01*
X0375780Y0144660D01*
X0375885Y0144640D01*
X0375990Y0144617D01*
X0376094Y0144589D01*
X0376196Y0144558D01*
X0376297Y0144523D01*
X0376397Y0144484D01*
X0376496Y0144442D01*
X0376593Y0144396D01*
X0376688Y0144346D01*
X0376781Y0144293D01*
X0376872Y0144237D01*
X0376961Y0144177D01*
X0377048Y0144114D01*
X0377132Y0144048D01*
X0377214Y0143979D01*
X0377293Y0143907D01*
X0377369Y0143832D01*
X0377443Y0143754D01*
X0377514Y0143673D01*
X0377582Y0143590D01*
X0377646Y0143505D01*
X0377708Y0143417D01*
X0377766Y0143327D01*
X0377820Y0143235D01*
X0377872Y0143140D01*
X0377919Y0143044D01*
X0377964Y0142947D01*
X0378004Y0142848D01*
X0378041Y0142747D01*
X0378074Y0142645D01*
X0378103Y0142542D01*
X0378129Y0142438D01*
X0378151Y0142333D01*
X0378168Y0142227D01*
X0378182Y0142121D01*
X0378192Y0142014D01*
X0378198Y0141907D01*
X0378200Y0141800D01*
X0378198Y0141693D01*
X0378192Y0141586D01*
X0378182Y0141479D01*
X0378168Y0141373D01*
X0378151Y0141267D01*
X0378129Y0141162D01*
X0378103Y0141058D01*
X0378074Y0140955D01*
X0378041Y0140853D01*
X0378004Y0140752D01*
X0377964Y0140653D01*
X0377919Y0140556D01*
X0377872Y0140460D01*
X0377820Y0140365D01*
X0377766Y0140273D01*
X0377708Y0140183D01*
X0377646Y0140095D01*
X0377582Y0140010D01*
X0377514Y0139927D01*
X0377443Y0139846D01*
X0377369Y0139768D01*
X0377293Y0139693D01*
X0377214Y0139621D01*
X0377132Y0139552D01*
X0377048Y0139486D01*
X0376961Y0139423D01*
X0376872Y0139363D01*
X0376781Y0139307D01*
X0376688Y0139254D01*
X0376593Y0139204D01*
X0376496Y0139158D01*
X0376397Y0139116D01*
X0376297Y0139077D01*
X0376196Y0139042D01*
X0376094Y0139011D01*
X0375990Y0138983D01*
X0375885Y0138960D01*
X0375780Y0138940D01*
X0375674Y0138924D01*
X0375568Y0138912D01*
X0375461Y0138904D01*
X0375354Y0138900D01*
X0375246Y0138900D01*
X0375139Y0138904D01*
X0375032Y0138912D01*
X0374926Y0138924D01*
X0374820Y0138940D01*
X0374715Y0138960D01*
X0374610Y0138983D01*
X0374506Y0139011D01*
X0374404Y0139042D01*
X0374303Y0139077D01*
X0374203Y0139116D01*
X0374104Y0139158D01*
X0374007Y0139204D01*
X0373912Y0139254D01*
X0373819Y0139307D01*
X0373728Y0139363D01*
X0373639Y0139423D01*
X0373552Y0139486D01*
X0373468Y0139552D01*
X0373386Y0139621D01*
X0373307Y0139693D01*
X0373231Y0139768D01*
X0373157Y0139846D01*
X0373086Y0139927D01*
X0373018Y0140010D01*
X0372954Y0140095D01*
X0372892Y0140183D01*
X0372834Y0140273D01*
X0372780Y0140365D01*
X0372728Y0140460D01*
X0372681Y0140556D01*
X0372636Y0140653D01*
X0372596Y0140752D01*
X0372559Y0140853D01*
X0372526Y0140955D01*
X0372497Y0141058D01*
X0372471Y0141162D01*
X0372449Y0141267D01*
X0372432Y0141373D01*
X0372418Y0141479D01*
X0372408Y0141586D01*
X0372402Y0141693D01*
X0372400Y0141800D01*
X0352400Y0211800D02*
X0352402Y0211907D01*
X0352408Y0212014D01*
X0352418Y0212121D01*
X0352432Y0212227D01*
X0352449Y0212333D01*
X0352471Y0212438D01*
X0352497Y0212542D01*
X0352526Y0212645D01*
X0352559Y0212747D01*
X0352596Y0212848D01*
X0352636Y0212947D01*
X0352681Y0213044D01*
X0352728Y0213140D01*
X0352780Y0213235D01*
X0352834Y0213327D01*
X0352892Y0213417D01*
X0352954Y0213505D01*
X0353018Y0213590D01*
X0353086Y0213673D01*
X0353157Y0213754D01*
X0353231Y0213832D01*
X0353307Y0213907D01*
X0353386Y0213979D01*
X0353468Y0214048D01*
X0353552Y0214114D01*
X0353639Y0214177D01*
X0353728Y0214237D01*
X0353819Y0214293D01*
X0353912Y0214346D01*
X0354007Y0214396D01*
X0354104Y0214442D01*
X0354203Y0214484D01*
X0354303Y0214523D01*
X0354404Y0214558D01*
X0354506Y0214589D01*
X0354610Y0214617D01*
X0354715Y0214640D01*
X0354820Y0214660D01*
X0354926Y0214676D01*
X0355032Y0214688D01*
X0355139Y0214696D01*
X0355246Y0214700D01*
X0355354Y0214700D01*
X0355461Y0214696D01*
X0355568Y0214688D01*
X0355674Y0214676D01*
X0355780Y0214660D01*
X0355885Y0214640D01*
X0355990Y0214617D01*
X0356094Y0214589D01*
X0356196Y0214558D01*
X0356297Y0214523D01*
X0356397Y0214484D01*
X0356496Y0214442D01*
X0356593Y0214396D01*
X0356688Y0214346D01*
X0356781Y0214293D01*
X0356872Y0214237D01*
X0356961Y0214177D01*
X0357048Y0214114D01*
X0357132Y0214048D01*
X0357214Y0213979D01*
X0357293Y0213907D01*
X0357369Y0213832D01*
X0357443Y0213754D01*
X0357514Y0213673D01*
X0357582Y0213590D01*
X0357646Y0213505D01*
X0357708Y0213417D01*
X0357766Y0213327D01*
X0357820Y0213235D01*
X0357872Y0213140D01*
X0357919Y0213044D01*
X0357964Y0212947D01*
X0358004Y0212848D01*
X0358041Y0212747D01*
X0358074Y0212645D01*
X0358103Y0212542D01*
X0358129Y0212438D01*
X0358151Y0212333D01*
X0358168Y0212227D01*
X0358182Y0212121D01*
X0358192Y0212014D01*
X0358198Y0211907D01*
X0358200Y0211800D01*
X0358198Y0211693D01*
X0358192Y0211586D01*
X0358182Y0211479D01*
X0358168Y0211373D01*
X0358151Y0211267D01*
X0358129Y0211162D01*
X0358103Y0211058D01*
X0358074Y0210955D01*
X0358041Y0210853D01*
X0358004Y0210752D01*
X0357964Y0210653D01*
X0357919Y0210556D01*
X0357872Y0210460D01*
X0357820Y0210365D01*
X0357766Y0210273D01*
X0357708Y0210183D01*
X0357646Y0210095D01*
X0357582Y0210010D01*
X0357514Y0209927D01*
X0357443Y0209846D01*
X0357369Y0209768D01*
X0357293Y0209693D01*
X0357214Y0209621D01*
X0357132Y0209552D01*
X0357048Y0209486D01*
X0356961Y0209423D01*
X0356872Y0209363D01*
X0356781Y0209307D01*
X0356688Y0209254D01*
X0356593Y0209204D01*
X0356496Y0209158D01*
X0356397Y0209116D01*
X0356297Y0209077D01*
X0356196Y0209042D01*
X0356094Y0209011D01*
X0355990Y0208983D01*
X0355885Y0208960D01*
X0355780Y0208940D01*
X0355674Y0208924D01*
X0355568Y0208912D01*
X0355461Y0208904D01*
X0355354Y0208900D01*
X0355246Y0208900D01*
X0355139Y0208904D01*
X0355032Y0208912D01*
X0354926Y0208924D01*
X0354820Y0208940D01*
X0354715Y0208960D01*
X0354610Y0208983D01*
X0354506Y0209011D01*
X0354404Y0209042D01*
X0354303Y0209077D01*
X0354203Y0209116D01*
X0354104Y0209158D01*
X0354007Y0209204D01*
X0353912Y0209254D01*
X0353819Y0209307D01*
X0353728Y0209363D01*
X0353639Y0209423D01*
X0353552Y0209486D01*
X0353468Y0209552D01*
X0353386Y0209621D01*
X0353307Y0209693D01*
X0353231Y0209768D01*
X0353157Y0209846D01*
X0353086Y0209927D01*
X0353018Y0210010D01*
X0352954Y0210095D01*
X0352892Y0210183D01*
X0352834Y0210273D01*
X0352780Y0210365D01*
X0352728Y0210460D01*
X0352681Y0210556D01*
X0352636Y0210653D01*
X0352596Y0210752D01*
X0352559Y0210853D01*
X0352526Y0210955D01*
X0352497Y0211058D01*
X0352471Y0211162D01*
X0352449Y0211267D01*
X0352432Y0211373D01*
X0352418Y0211479D01*
X0352408Y0211586D01*
X0352402Y0211693D01*
X0352400Y0211800D01*
X0342400Y0211800D02*
X0342402Y0211907D01*
X0342408Y0212014D01*
X0342418Y0212121D01*
X0342432Y0212227D01*
X0342449Y0212333D01*
X0342471Y0212438D01*
X0342497Y0212542D01*
X0342526Y0212645D01*
X0342559Y0212747D01*
X0342596Y0212848D01*
X0342636Y0212947D01*
X0342681Y0213044D01*
X0342728Y0213140D01*
X0342780Y0213235D01*
X0342834Y0213327D01*
X0342892Y0213417D01*
X0342954Y0213505D01*
X0343018Y0213590D01*
X0343086Y0213673D01*
X0343157Y0213754D01*
X0343231Y0213832D01*
X0343307Y0213907D01*
X0343386Y0213979D01*
X0343468Y0214048D01*
X0343552Y0214114D01*
X0343639Y0214177D01*
X0343728Y0214237D01*
X0343819Y0214293D01*
X0343912Y0214346D01*
X0344007Y0214396D01*
X0344104Y0214442D01*
X0344203Y0214484D01*
X0344303Y0214523D01*
X0344404Y0214558D01*
X0344506Y0214589D01*
X0344610Y0214617D01*
X0344715Y0214640D01*
X0344820Y0214660D01*
X0344926Y0214676D01*
X0345032Y0214688D01*
X0345139Y0214696D01*
X0345246Y0214700D01*
X0345354Y0214700D01*
X0345461Y0214696D01*
X0345568Y0214688D01*
X0345674Y0214676D01*
X0345780Y0214660D01*
X0345885Y0214640D01*
X0345990Y0214617D01*
X0346094Y0214589D01*
X0346196Y0214558D01*
X0346297Y0214523D01*
X0346397Y0214484D01*
X0346496Y0214442D01*
X0346593Y0214396D01*
X0346688Y0214346D01*
X0346781Y0214293D01*
X0346872Y0214237D01*
X0346961Y0214177D01*
X0347048Y0214114D01*
X0347132Y0214048D01*
X0347214Y0213979D01*
X0347293Y0213907D01*
X0347369Y0213832D01*
X0347443Y0213754D01*
X0347514Y0213673D01*
X0347582Y0213590D01*
X0347646Y0213505D01*
X0347708Y0213417D01*
X0347766Y0213327D01*
X0347820Y0213235D01*
X0347872Y0213140D01*
X0347919Y0213044D01*
X0347964Y0212947D01*
X0348004Y0212848D01*
X0348041Y0212747D01*
X0348074Y0212645D01*
X0348103Y0212542D01*
X0348129Y0212438D01*
X0348151Y0212333D01*
X0348168Y0212227D01*
X0348182Y0212121D01*
X0348192Y0212014D01*
X0348198Y0211907D01*
X0348200Y0211800D01*
X0348198Y0211693D01*
X0348192Y0211586D01*
X0348182Y0211479D01*
X0348168Y0211373D01*
X0348151Y0211267D01*
X0348129Y0211162D01*
X0348103Y0211058D01*
X0348074Y0210955D01*
X0348041Y0210853D01*
X0348004Y0210752D01*
X0347964Y0210653D01*
X0347919Y0210556D01*
X0347872Y0210460D01*
X0347820Y0210365D01*
X0347766Y0210273D01*
X0347708Y0210183D01*
X0347646Y0210095D01*
X0347582Y0210010D01*
X0347514Y0209927D01*
X0347443Y0209846D01*
X0347369Y0209768D01*
X0347293Y0209693D01*
X0347214Y0209621D01*
X0347132Y0209552D01*
X0347048Y0209486D01*
X0346961Y0209423D01*
X0346872Y0209363D01*
X0346781Y0209307D01*
X0346688Y0209254D01*
X0346593Y0209204D01*
X0346496Y0209158D01*
X0346397Y0209116D01*
X0346297Y0209077D01*
X0346196Y0209042D01*
X0346094Y0209011D01*
X0345990Y0208983D01*
X0345885Y0208960D01*
X0345780Y0208940D01*
X0345674Y0208924D01*
X0345568Y0208912D01*
X0345461Y0208904D01*
X0345354Y0208900D01*
X0345246Y0208900D01*
X0345139Y0208904D01*
X0345032Y0208912D01*
X0344926Y0208924D01*
X0344820Y0208940D01*
X0344715Y0208960D01*
X0344610Y0208983D01*
X0344506Y0209011D01*
X0344404Y0209042D01*
X0344303Y0209077D01*
X0344203Y0209116D01*
X0344104Y0209158D01*
X0344007Y0209204D01*
X0343912Y0209254D01*
X0343819Y0209307D01*
X0343728Y0209363D01*
X0343639Y0209423D01*
X0343552Y0209486D01*
X0343468Y0209552D01*
X0343386Y0209621D01*
X0343307Y0209693D01*
X0343231Y0209768D01*
X0343157Y0209846D01*
X0343086Y0209927D01*
X0343018Y0210010D01*
X0342954Y0210095D01*
X0342892Y0210183D01*
X0342834Y0210273D01*
X0342780Y0210365D01*
X0342728Y0210460D01*
X0342681Y0210556D01*
X0342636Y0210653D01*
X0342596Y0210752D01*
X0342559Y0210853D01*
X0342526Y0210955D01*
X0342497Y0211058D01*
X0342471Y0211162D01*
X0342449Y0211267D01*
X0342432Y0211373D01*
X0342418Y0211479D01*
X0342408Y0211586D01*
X0342402Y0211693D01*
X0342400Y0211800D01*
D38*
X0345300Y0211800D03*
X0355300Y0211800D03*
X0375300Y0141800D03*
X0375300Y0131800D03*
X0375300Y0121800D03*
X0365300Y0121800D03*
X0365300Y0131800D03*
X0365300Y0091800D03*
X0365300Y0081800D03*
X0365300Y0071800D03*
X0365300Y0061800D03*
X0375300Y0061800D03*
X0375300Y0071800D03*
X0375300Y0081800D03*
X0375300Y0091800D03*
D39*
X0056174Y0096800D03*
X0040426Y0096800D03*
M02*
