%
M48
M72
T01C0.01200
T02C0.01600
T03C0.01969
T04C0.02362
T05C0.03500
T06C0.03543
T07C0.03600
T08C0.03937
T09C0.04000
T10C0.04724
T11C0.05800
T12C0.11811
%
T01
X115300Y59300
X132800Y69300
X137800Y74300
X145300Y89300
X127800Y89300
X105300Y74300
X100300Y74300
X95800Y106300
X105300Y106800
X115300Y119300
X135300Y119300
X175300Y119300
X175300Y119300
X198300Y135800
X190300Y154300
X170800Y159800
X150300Y154300
X130300Y164300
X130300Y191800
X115300Y211800
X115300Y231800
X95300Y236800
X72800Y236800
X95300Y269300
X120300Y249300
X162800Y256800
X215300Y257300
X190300Y302800
X95300Y296800
X69800Y186300
X93300Y184800
X94800Y176300
X52800Y161800
X43300Y163800
X38300Y163800
X38300Y158800
X38300Y153800
X43300Y153800
X43300Y158800
X43300Y148800
X43300Y143800
X38300Y143800
X38300Y148800
X38300Y138800
X43300Y138800
X43300Y133800
X43300Y128800
X38300Y128800
X38300Y133800
X38300Y123800
X38300Y118800
X38300Y113800
X38300Y108800
X33300Y158800
X28300Y158800
X28300Y163800
X33300Y163800
X45300Y169300
X170300Y89300
X170300Y81800
X182800Y75800
X190300Y89300
X215300Y89300
X250300Y111800
X262800Y106800
X255300Y89300
X297800Y59300
X307800Y61800
X310300Y51800
X342800Y46800
X335300Y146800
X287800Y164300
X281300Y190800
X271300Y190800
X270300Y199300
X281300Y215800
X240300Y188300
X217300Y186800
X211300Y167300
X220300Y154300
X239300Y152800
X254300Y152800
X382800Y211800
X382800Y216800
X382800Y221800
X396800Y225800
X370300Y251800
X160300Y56800
X170300Y51800
X155300Y46800
X245300Y49300
T02
X50300Y28800
X60300Y28800
X60300Y51800
X60300Y61800
X60300Y72800
X56300Y106800
X61300Y121800
X30300Y106800
X30300Y149800
X61300Y147800
X105300Y31800
X110300Y15800
X162300Y29800
X287300Y121800
X319800Y75300
X335300Y51800
T03
X246300Y218800
T04
X198300Y78800
X237800Y56800
X257800Y56800
X283300Y59300
X285300Y36800
X335300Y36800
X335300Y101800
X287300Y91800
X403800Y21300
X336300Y235300
X343300Y261800
X297300Y302800
X280300Y301800
X280300Y261800
X270300Y261800
X246300Y234800
X205300Y227800
X185300Y256800
X175300Y261800
X151300Y261800
X156300Y236800
X170300Y217800
X107800Y217300
X101300Y261800
X61300Y271800
X63300Y310800
X45300Y211800
X45300Y176800
X60300Y166800
X201300Y302800
T05
X345300Y211800
X355300Y211800
X365300Y131800
X365300Y121800
X375300Y91800
X375300Y81800
X375300Y71800
X375300Y61800
X365300Y61800
X365300Y71800
X365300Y81800
X365300Y91800
T06
X120300Y241800
X130300Y241800
X140300Y241800
X150300Y241800
X160300Y241800
X170300Y241800
X180300Y241800
X190300Y241800
X210300Y241800
X220300Y241800
X230300Y241800
X240300Y241800
X250300Y241800
X260300Y241800
X270300Y241800
X280300Y241800
X300300Y241800
X310300Y241800
X320300Y241800
X330300Y241800
X340300Y241800
X350300Y241800
X360300Y241800
X370300Y241800
X375300Y141800
X375300Y131800
X375300Y121800
X370300Y291800
X360300Y291800
X350300Y291800
X340300Y291800
X330300Y291800
X320300Y291800
X310300Y291800
X300300Y291800
X280300Y291800
X270300Y291800
X260300Y291800
X250300Y291800
X240300Y291800
X230300Y291800
X220300Y291800
X210300Y291800
X190300Y291800
X180300Y291800
X170300Y291800
X160300Y291800
X150300Y291800
X140300Y291800
X130300Y291800
X120300Y291800
T07
X45300Y11800
X55300Y11800
T08
X145300Y11800
X155300Y11800
X165300Y11800
X175300Y11800
X185300Y11800
X195300Y11800
X215300Y11800
X225300Y11800
X235300Y11800
X245300Y11800
X255300Y11800
X265300Y11800
X275300Y11800
X285300Y11800
X305300Y11800
X315300Y11800
X325300Y11800
X335300Y11800
X345300Y11800
X355300Y11800
X365300Y11800
X375300Y11800
X385300Y31800
X395300Y31800
X395300Y41800
X385300Y41800
X385300Y51800
X395300Y51800
X395300Y61800
X385300Y61800
X385300Y71800
X395300Y71800
X395300Y81800
X385300Y81800
X385300Y91800
X395300Y91800
X395300Y101800
X385300Y101800
X385300Y111800
X395300Y111800
X395300Y121800
X385300Y121800
X385300Y141800
X395300Y141800
X395300Y131800
X385300Y131800
X385300Y151800
X395300Y151800
X395300Y161800
X385300Y161800
X385300Y171800
X395300Y171800
X395300Y181800
X385300Y181800
X385300Y191800
X395300Y191800
X395300Y201800
X385300Y201800
X355300Y201800
X345300Y201800
X335300Y201800
X325300Y201800
X315300Y201800
X305300Y201800
X295300Y201800
X285300Y201800
X265300Y201800
X255300Y201800
X245300Y201800
X235300Y201800
X225300Y201800
X215300Y201800
X205300Y201800
X195300Y201800
X179300Y201800
X169300Y201800
X159300Y201800
X149300Y201800
X139300Y201800
X129300Y201800
X119300Y201800
X109300Y201800
X30300Y224713
X30300Y238493
T09
X74158Y21367
X74158Y31367
X74158Y41367
X84158Y41367
X84158Y31367
X84158Y21367
X84158Y51367
X74158Y51367
X74158Y61367
X74158Y71367
X74158Y81367
X74158Y91367
X74158Y101367
X74158Y111367
X84158Y111367
X84158Y101367
X84158Y91367
X84158Y81367
X84158Y71367
X84158Y61367
X84158Y121367
X74158Y121367
X74158Y131367
X74158Y141367
X74158Y151367
X74158Y161367
X74158Y171367
X74158Y181367
X74158Y191367
X84158Y191367
X84158Y181367
X84158Y171367
X84158Y161367
X84158Y151367
X84158Y141367
X84158Y131367
X84158Y201367
X74158Y201367
X74158Y211367
X84158Y211367
X44200Y279000
X26400Y279000
X26400Y304600
X44200Y304600
X90300Y291800
X90300Y281800
X100300Y281800
X110300Y281800
X110300Y291800
X100300Y291800
X140300Y301800
X150300Y301800
X160300Y301800
X170300Y301800
X230300Y301800
X240300Y301800
X250300Y301800
X260300Y301800
X320300Y301800
X330300Y301800
X340300Y301800
X350300Y301800
X385300Y291800
X395300Y291800
X395300Y281800
X385300Y281800
X385300Y271800
X395300Y271800
X395300Y256800
X385300Y256800
X385300Y246800
X395300Y246800
X395300Y236800
X385300Y236800
X375300Y21800
X365300Y21800
X355300Y21800
X345300Y21800
X335300Y21800
X325300Y21800
X315300Y21800
X305300Y21800
X285300Y21800
X275300Y21800
X265300Y21800
X255300Y21800
X245300Y21800
X235300Y21800
X225300Y21800
X215300Y21800
T10
X356639Y278800
X342859Y278800
X329080Y278800
X315300Y278800
X266639Y278800
X252859Y278800
X239080Y278800
X225300Y278800
X176639Y278800
X162859Y278800
X149080Y278800
X135300Y278800
T11
X345300Y211800
X355300Y211800
X375300Y141800
X375300Y131800
X365300Y131800
X365300Y121800
X375300Y121800
X375300Y91800
X365300Y91800
X365300Y81800
X365300Y71800
X365300Y61800
X375300Y61800
X375300Y71800
X375300Y81800
T12
X45064Y238690
X33646Y257194
X56875Y257194
M30
