G75*
%MOIN*%
%OFA0B0*%
%FSLAX24Y24*%
%IPPOS*%
%LPD*%
%AMOC8*
5,1,8,0,0,1.08239X$1,22.5*
%
%ADD10C,0.0160*%
%ADD11C,0.0280*%
%ADD12C,0.0230*%
%ADD13C,0.0060*%
%ADD14C,0.0100*%
D10*
X002180Y002467D02*
X002967Y001680D01*
X040763Y001680D01*
X041550Y002467D01*
X041550Y032389D01*
X040763Y033176D01*
X002967Y033176D01*
X002180Y032389D01*
X002180Y002467D01*
X010156Y029372D02*
X010156Y032224D01*
X011141Y032224D01*
X012186Y032224D01*
X012186Y029372D01*
X011141Y029372D01*
X010156Y029372D01*
X011141Y029372D02*
X011141Y032224D01*
D11*
X012249Y025146D02*
X012923Y025146D01*
X013260Y024809D01*
X014030Y024473D02*
X014704Y023125D01*
X015378Y024473D01*
X013260Y023125D02*
X011913Y024473D01*
X011913Y024809D01*
X012249Y025146D01*
X011143Y023462D02*
X010806Y023462D01*
X010806Y023125D01*
X011143Y023125D01*
X011143Y023462D01*
X011913Y023125D02*
X013260Y023125D01*
X010084Y023462D02*
X009747Y023125D01*
X009073Y023125D01*
X008736Y023462D01*
X008736Y024809D01*
X010084Y023462D01*
X010084Y024809D01*
X009747Y025146D01*
X009073Y025146D01*
X008736Y024809D01*
X007966Y024136D02*
X007966Y023462D01*
X007629Y023125D01*
X006618Y023125D01*
X007629Y024473D02*
X007966Y024136D01*
X007629Y024473D02*
X006618Y024473D01*
X018266Y024473D02*
X019277Y024473D01*
X019614Y024136D01*
X019614Y023462D01*
X019277Y023125D01*
X018266Y023125D01*
X018266Y025146D01*
X020689Y025146D02*
X020689Y023125D01*
X021026Y023125D02*
X020352Y023125D01*
X021796Y023799D02*
X021796Y024136D01*
X022133Y024473D01*
X022807Y024473D01*
X023143Y024136D01*
X023143Y023462D01*
X022807Y023125D01*
X022133Y023125D01*
X021796Y023799D02*
X023143Y023799D01*
X023881Y023125D02*
X024555Y023125D01*
X024218Y023125D02*
X024218Y024473D01*
X024555Y024473D01*
X024218Y025146D02*
X024218Y025483D01*
X025325Y024136D02*
X025662Y024473D01*
X026336Y024473D01*
X026673Y024136D01*
X027443Y024473D02*
X028454Y024473D01*
X028791Y024136D01*
X028454Y023799D01*
X027780Y023799D01*
X027443Y023462D01*
X027780Y023125D01*
X028791Y023125D01*
X029545Y024473D02*
X029882Y024473D01*
X030556Y023799D01*
X031326Y023799D02*
X032337Y023799D01*
X032674Y023462D01*
X032337Y023125D01*
X031326Y023125D01*
X031326Y024136D01*
X031663Y024473D01*
X032337Y024473D01*
X033749Y025146D02*
X033749Y023125D01*
X034085Y023125D02*
X033412Y023125D01*
X034855Y023462D02*
X034855Y024136D01*
X035192Y024473D01*
X035866Y024473D01*
X036203Y024136D01*
X036203Y023462D01*
X035866Y023125D01*
X035192Y023125D01*
X034855Y023462D01*
X034085Y025146D02*
X033749Y025146D01*
X030556Y024473D02*
X030556Y023125D01*
X026673Y023125D02*
X026673Y025146D01*
X025325Y024136D02*
X025325Y023125D01*
X021026Y025146D02*
X020689Y025146D01*
X036973Y024809D02*
X036973Y024136D01*
X037310Y023799D01*
X038321Y023799D01*
X038321Y023125D02*
X038321Y025146D01*
X037310Y025146D01*
X036973Y024809D01*
D12*
X028280Y015680D02*
X028068Y015680D01*
X028068Y014409D01*
X028280Y014409D02*
X027856Y014409D01*
X027359Y014621D02*
X027147Y014833D01*
X026511Y014833D01*
X026511Y015045D02*
X026511Y014409D01*
X027147Y014409D01*
X027359Y014621D01*
X027147Y015257D02*
X026723Y015257D01*
X026511Y015045D01*
X025978Y015257D02*
X025978Y014409D01*
X025978Y014833D02*
X025554Y015257D01*
X025342Y015257D01*
X024827Y015045D02*
X024827Y014621D01*
X024615Y014409D01*
X023979Y014409D01*
X023979Y014197D02*
X023979Y015257D01*
X024615Y015257D01*
X024827Y015045D01*
X023979Y014197D02*
X024191Y013985D01*
X024403Y013985D01*
X023445Y014409D02*
X023445Y015257D01*
X023022Y015257D02*
X023445Y014833D01*
X023022Y015257D02*
X022810Y015257D01*
X022083Y015257D02*
X021659Y015257D01*
X021447Y015045D01*
X021447Y014409D01*
X022083Y014409D01*
X022294Y014621D01*
X022083Y014833D01*
X021447Y014833D01*
X020913Y015257D02*
X020278Y015257D01*
X020066Y015045D01*
X020066Y014621D01*
X020278Y014409D01*
X020913Y014409D01*
X020913Y013985D02*
X020913Y015257D01*
X019532Y015045D02*
X019320Y015257D01*
X018897Y015257D01*
X018685Y015045D01*
X018685Y014409D01*
X018151Y014409D02*
X017939Y014409D01*
X017939Y014621D01*
X018151Y014621D01*
X018151Y014409D01*
X017460Y014621D02*
X017248Y014409D01*
X016613Y014409D01*
X016079Y014621D02*
X016079Y015045D01*
X015867Y015257D01*
X015444Y015257D01*
X015232Y015045D01*
X015232Y014621D01*
X015444Y014409D01*
X015867Y014409D01*
X016079Y014621D01*
X016613Y015257D02*
X017248Y015257D01*
X017460Y015045D01*
X017460Y014621D01*
X019532Y014409D02*
X019532Y015680D01*
X014698Y014621D02*
X014698Y014409D01*
X014486Y014409D01*
X014486Y014621D01*
X014698Y014621D01*
X014007Y014621D02*
X013795Y014409D01*
X013160Y014409D01*
X013160Y015257D01*
X012626Y015680D02*
X012626Y014409D01*
X012626Y014833D02*
X011991Y014409D01*
X012626Y014833D02*
X011991Y015257D01*
X014007Y015257D02*
X014007Y014621D01*
X028813Y014621D02*
X029025Y014409D01*
X029449Y014409D01*
X029661Y014621D01*
X029661Y015045D01*
X029449Y015257D01*
X029025Y015257D01*
X028813Y015045D01*
X028813Y014621D01*
X030195Y014621D02*
X030406Y014409D01*
X031042Y014409D01*
X031042Y013985D02*
X031042Y015257D01*
X030406Y015257D01*
X030195Y015045D01*
X030195Y014621D01*
X031521Y014621D02*
X031521Y014409D01*
X031732Y014409D01*
X031732Y014621D01*
X031521Y014621D01*
X032266Y014621D02*
X032266Y015257D01*
X032266Y014621D02*
X032478Y014409D01*
X032690Y014621D01*
X032902Y014409D01*
X033114Y014621D01*
X033114Y015257D01*
X033647Y015257D02*
X033647Y014621D01*
X033859Y014409D01*
X034071Y014621D01*
X034283Y014409D01*
X034495Y014621D01*
X034495Y015257D01*
X035029Y015257D02*
X035029Y014621D01*
X035240Y014409D01*
X035452Y014621D01*
X035664Y014409D01*
X035876Y014621D01*
X035876Y015257D01*
D13*
X038345Y028174D02*
X038345Y028467D01*
X038125Y028634D02*
X038565Y028928D01*
X038565Y028634D02*
X038125Y028928D01*
X038345Y029174D02*
X038345Y029467D01*
X038198Y029320D02*
X038492Y029320D01*
X038565Y029634D02*
X038125Y029928D01*
X038125Y029634D02*
X038565Y029928D01*
X038492Y030313D02*
X038198Y030313D01*
X038125Y030387D01*
X038125Y030607D01*
X038565Y030607D01*
X038565Y030387D01*
X038492Y030313D01*
X038565Y030774D02*
X038125Y030774D01*
X038125Y031067D02*
X038565Y030774D01*
X038565Y031067D02*
X038125Y031067D01*
X038198Y031234D02*
X038125Y031307D01*
X038125Y031454D01*
X038198Y031528D01*
X038492Y031528D01*
X038565Y031454D01*
X038565Y031307D01*
X038492Y031234D01*
X038345Y031234D01*
X038345Y031381D01*
X038614Y031675D02*
X038541Y031749D01*
X038614Y031822D01*
X038761Y031822D01*
X038834Y031896D01*
X038761Y031969D01*
X038541Y031969D01*
X038614Y031675D02*
X038834Y031675D01*
X038994Y031675D02*
X039068Y031749D01*
X039068Y032042D01*
X039141Y031969D02*
X038994Y031969D01*
X039375Y031969D02*
X039375Y031675D01*
X039448Y031675D02*
X039301Y031675D01*
X039375Y031969D02*
X039448Y031969D01*
X039375Y032116D02*
X039375Y032189D01*
X039615Y031896D02*
X039615Y031675D01*
X039762Y031675D02*
X039762Y031896D01*
X039688Y031969D01*
X039615Y031896D01*
X039762Y031896D02*
X039835Y031969D01*
X039909Y031969D01*
X039909Y031675D01*
X040069Y031675D02*
X040216Y031675D01*
X040142Y031675D02*
X040142Y031969D01*
X040216Y031969D01*
X040142Y032116D02*
X040142Y032189D01*
X040449Y032116D02*
X040449Y031675D01*
X040522Y031675D02*
X040376Y031675D01*
X040449Y032116D02*
X040522Y032116D01*
X041045Y031428D02*
X041045Y031134D01*
X041119Y030967D02*
X040825Y030967D01*
X040825Y030674D02*
X041119Y030674D01*
X041265Y030820D01*
X041119Y030967D01*
X041192Y031281D02*
X040898Y031281D01*
X040898Y029928D02*
X041045Y029781D01*
X041265Y029781D01*
X041045Y029781D02*
X040898Y029634D01*
X040825Y029634D01*
X041045Y029467D02*
X041045Y029174D01*
X040898Y029320D02*
X041192Y029320D01*
X040898Y028928D02*
X041045Y028781D01*
X041265Y028781D01*
X041045Y028781D02*
X040898Y028634D01*
X040825Y028634D01*
X041045Y028467D02*
X041045Y028174D01*
X040898Y028320D02*
X041192Y028320D01*
X040898Y028928D02*
X040825Y028928D01*
X040825Y029928D02*
X040898Y029928D01*
X011669Y029906D02*
X011669Y029613D01*
X010780Y029791D02*
X010486Y029791D01*
X010633Y029938D02*
X010633Y029644D01*
X009789Y029644D02*
X009789Y029791D01*
X009716Y029864D01*
X009569Y029791D02*
X009569Y029644D01*
X009642Y029571D01*
X009716Y029571D01*
X009789Y029644D01*
X009569Y029791D02*
X009495Y029864D01*
X009422Y029864D01*
X009349Y029791D01*
X009349Y029644D01*
X009422Y029571D01*
X008965Y030274D02*
X008965Y030567D01*
X008672Y030274D01*
X008598Y030274D01*
X008525Y030347D01*
X008525Y030494D01*
X008598Y030567D01*
X008598Y030734D02*
X008525Y030807D01*
X008525Y030954D01*
X008598Y031028D01*
X008672Y031028D01*
X008745Y030954D01*
X008745Y030807D01*
X008819Y030734D01*
X008892Y030734D01*
X008965Y030807D01*
X008965Y030954D01*
X008892Y031028D01*
X008970Y031274D02*
X008970Y031567D01*
X008970Y031420D02*
X008530Y031420D01*
X008677Y031567D01*
X008603Y031734D02*
X008530Y031807D01*
X008530Y031954D01*
X008603Y032028D01*
X008677Y032028D01*
X008750Y031954D01*
X008750Y031807D01*
X008824Y031734D01*
X008897Y031734D01*
X008970Y031807D01*
X008970Y031954D01*
X008897Y032028D01*
X008315Y032007D02*
X008242Y031934D01*
X008169Y032007D01*
X008169Y032154D01*
X008095Y032228D01*
X008022Y032154D01*
X008022Y031934D01*
X008095Y031767D02*
X008022Y031694D01*
X008022Y031547D01*
X008095Y031474D01*
X008169Y031474D01*
X008169Y031767D01*
X008242Y031767D02*
X008095Y031767D01*
X008242Y031767D02*
X008315Y031694D01*
X008315Y031547D01*
X008315Y031307D02*
X008022Y031307D01*
X008169Y031307D02*
X008022Y031160D01*
X008022Y031087D01*
X008022Y030923D02*
X008315Y030776D01*
X008022Y030630D01*
X008095Y030463D02*
X008022Y030389D01*
X008022Y030243D01*
X008095Y030169D01*
X008242Y030169D01*
X008315Y030243D01*
X008315Y030389D01*
X008242Y030463D01*
X008095Y030463D01*
X008315Y032007D02*
X008315Y032228D01*
D14*
X002180Y001680D02*
X041180Y001680D01*
X041180Y002180D01*
X042180Y003180D01*
X042180Y016680D01*
X041180Y017680D01*
X041180Y022180D01*
X040680Y022680D01*
X002180Y022680D01*
X002180Y018940D01*
X001078Y018940D01*
X001078Y014137D01*
X002180Y014137D01*
X002180Y001680D01*
X002141Y003310D02*
X001125Y003310D01*
X001125Y006853D01*
X002141Y006853D01*
X002180Y014137D02*
X002180Y018940D01*
X014410Y027452D02*
X014610Y027652D01*
X014810Y027452D01*
X014810Y028053D01*
X015054Y027953D02*
X015054Y027552D01*
X015154Y027452D01*
X015354Y027452D01*
X015454Y027552D01*
X015454Y027953D01*
X015354Y028053D01*
X015154Y028053D01*
X015054Y027953D01*
X014410Y028053D02*
X014410Y027452D01*
X015699Y027452D02*
X016099Y027452D01*
X015899Y027452D02*
X015899Y028053D01*
X016343Y027953D02*
X016343Y027552D01*
X016443Y027452D01*
X016643Y027452D01*
X016744Y027552D01*
X016744Y027953D01*
X016643Y028053D01*
X016443Y028053D01*
X016343Y027953D01*
X016988Y028053D02*
X016988Y027452D01*
X017288Y027452D01*
X017388Y027552D01*
X017388Y027753D01*
X017288Y027853D01*
X016988Y027853D01*
X017188Y027853D02*
X017388Y028053D01*
X018277Y028053D02*
X018277Y027652D01*
X018477Y027452D01*
X018677Y027652D01*
X018677Y028053D01*
X018677Y027753D02*
X018277Y027753D01*
X023410Y028053D02*
X023410Y027452D01*
X023610Y027652D01*
X023810Y027452D01*
X023810Y028053D01*
X024054Y027953D02*
X024154Y028053D01*
X024354Y028053D01*
X024454Y027953D01*
X024454Y027552D01*
X024354Y027452D01*
X024154Y027452D01*
X024054Y027552D01*
X024054Y027953D01*
X024699Y027452D02*
X025099Y027452D01*
X024899Y027452D02*
X024899Y028053D01*
X025343Y027953D02*
X025343Y027552D01*
X025443Y027452D01*
X025643Y027452D01*
X025744Y027552D01*
X025744Y027953D01*
X025643Y028053D01*
X025443Y028053D01*
X025343Y027953D01*
X025988Y028053D02*
X025988Y027452D01*
X026288Y027452D01*
X026388Y027552D01*
X026388Y027753D01*
X026288Y027853D01*
X025988Y027853D01*
X026188Y027853D02*
X026388Y028053D01*
X027277Y028053D02*
X027277Y027452D01*
X027577Y027452D01*
X027677Y027552D01*
X027677Y027652D01*
X027577Y027753D01*
X027277Y027753D01*
X027277Y028053D02*
X027577Y028053D01*
X027677Y027953D01*
X027677Y027853D01*
X027577Y027753D01*
X032410Y028053D02*
X032410Y027452D01*
X032610Y027652D01*
X032810Y027452D01*
X032810Y028053D01*
X033054Y027953D02*
X033054Y027552D01*
X033154Y027452D01*
X033354Y027452D01*
X033454Y027552D01*
X033454Y027953D01*
X033354Y028053D01*
X033154Y028053D01*
X033054Y027953D01*
X033699Y027452D02*
X034099Y027452D01*
X033899Y027452D02*
X033899Y028053D01*
X034343Y027953D02*
X034343Y027552D01*
X034443Y027452D01*
X034643Y027452D01*
X034744Y027552D01*
X034744Y027953D01*
X034643Y028053D01*
X034443Y028053D01*
X034343Y027953D01*
X034988Y028053D02*
X034988Y027452D01*
X035288Y027452D01*
X035388Y027552D01*
X035388Y027753D01*
X035288Y027853D01*
X034988Y027853D01*
X035188Y027853D02*
X035388Y028053D01*
X036277Y027953D02*
X036277Y027552D01*
X036377Y027452D01*
X036577Y027452D01*
X036677Y027552D01*
X036677Y027953D02*
X036577Y028053D01*
X036377Y028053D01*
X036277Y027953D01*
M02*
