G75*
%MOIN*%
%OFA0B0*%
%FSLAX25Y25*%
%IPPOS*%
%LPD*%
%AMOC8*
5,1,8,0,0,1.08239X$1,22.5*
%
%ADD10C,0.01600*%
%ADD11R,0.04724X0.04724*%
%ADD12R,0.05118X0.05906*%
%ADD13R,0.05906X0.05118*%
%ADD14R,0.13780X0.06299*%
%ADD15R,0.05118X0.06102*%
%ADD16R,0.08661X0.02362*%
%ADD17R,0.10000X0.20000*%
%ADD18R,0.06299X0.05118*%
%ADD19R,0.05118X0.06299*%
%ADD20R,0.15748X0.06299*%
%ADD21R,0.06299X0.08661*%
%ADD22R,0.03543X0.01378*%
%ADD23R,0.07087X0.06693*%
%ADD24R,0.01496X0.01969*%
%ADD25R,0.00984X0.01969*%
D10*
X0016500Y0009674D02*
X0024374Y0001800D01*
X0402327Y0001800D01*
X0410201Y0009674D01*
X0410201Y0308887D01*
X0402327Y0316761D01*
X0024374Y0316761D01*
X0016500Y0308887D01*
X0016500Y0308800D02*
X0016500Y0009800D01*
D11*
X0122366Y0011800D03*
X0130634Y0011800D03*
X0075634Y0271800D03*
X0067366Y0271800D03*
X0067366Y0281800D03*
X0075634Y0281800D03*
X0075634Y0291800D03*
X0067366Y0291800D03*
X0067366Y0301800D03*
X0075634Y0301800D03*
X0187366Y0306800D03*
X0195634Y0306800D03*
X0277366Y0306800D03*
X0285634Y0306800D03*
X0367366Y0311800D03*
X0375634Y0311800D03*
D12*
X0375240Y0302800D03*
X0367760Y0302800D03*
X0350240Y0231800D03*
X0342760Y0231800D03*
X0230240Y0231800D03*
X0222760Y0231800D03*
X0140240Y0231800D03*
X0132760Y0231800D03*
X0029846Y0176800D03*
X0023154Y0176800D03*
X0123154Y0046800D03*
X0129846Y0046800D03*
X0143154Y0046800D03*
X0149846Y0046800D03*
X0130240Y0019800D03*
X0122760Y0019800D03*
D13*
X0056500Y0113454D03*
X0056500Y0120146D03*
X0046500Y0120146D03*
X0046500Y0113454D03*
X0061500Y0153454D03*
X0061500Y0160146D03*
X0104000Y0261954D03*
X0104000Y0268646D03*
X0211500Y0273454D03*
X0211500Y0280146D03*
X0301500Y0280146D03*
X0301500Y0273454D03*
X0366500Y0234040D03*
X0366500Y0226560D03*
D14*
X0332130Y0261800D03*
X0310870Y0261800D03*
X0257130Y0261800D03*
X0235870Y0261800D03*
X0142130Y0261800D03*
X0120870Y0261800D03*
D15*
X0045358Y0276150D03*
X0027642Y0276150D03*
X0027642Y0307450D03*
X0045358Y0307450D03*
D16*
X0051736Y0144300D03*
X0051736Y0139300D03*
X0051736Y0134300D03*
X0051736Y0129300D03*
X0031264Y0129300D03*
X0031264Y0134300D03*
X0031264Y0139300D03*
X0031264Y0144300D03*
D17*
X0041500Y0136800D03*
D18*
X0061500Y0135737D03*
X0061500Y0127863D03*
X0030500Y0115737D03*
X0030500Y0107863D03*
D19*
X0052563Y0176800D03*
X0060437Y0176800D03*
X0060437Y0221800D03*
X0052563Y0221800D03*
X0034937Y0021300D03*
X0027063Y0021300D03*
D20*
X0029492Y0046800D03*
X0053508Y0046800D03*
X0054020Y0199438D03*
X0030004Y0199438D03*
D21*
X0029492Y0082312D03*
X0054689Y0082312D03*
D22*
X0199984Y0059477D03*
X0199984Y0056918D03*
X0199984Y0054359D03*
X0199984Y0051800D03*
X0199984Y0049241D03*
X0199984Y0046682D03*
X0199984Y0044123D03*
X0199984Y0041741D03*
X0199984Y0039182D03*
X0199984Y0036623D03*
X0223016Y0036623D03*
X0223016Y0039182D03*
X0223016Y0041741D03*
X0223016Y0044123D03*
X0223016Y0046682D03*
X0223016Y0049241D03*
X0223016Y0051800D03*
X0223016Y0054359D03*
X0223016Y0056918D03*
X0223016Y0059477D03*
X0304984Y0059241D03*
X0304984Y0061800D03*
X0304984Y0064359D03*
X0304984Y0066918D03*
X0304984Y0069477D03*
X0304984Y0071859D03*
X0304984Y0074418D03*
X0304984Y0076977D03*
X0304984Y0094123D03*
X0304984Y0096682D03*
X0304984Y0099241D03*
X0304984Y0101800D03*
X0304984Y0104359D03*
X0304984Y0106918D03*
X0304984Y0109477D03*
X0304984Y0111859D03*
X0304984Y0114418D03*
X0304984Y0116977D03*
X0328016Y0116977D03*
X0328016Y0114418D03*
X0328016Y0111859D03*
X0328016Y0109477D03*
X0328016Y0106918D03*
X0328016Y0104359D03*
X0328016Y0101800D03*
X0328016Y0099241D03*
X0328016Y0096682D03*
X0328016Y0094123D03*
X0328016Y0076977D03*
X0328016Y0074418D03*
X0328016Y0071859D03*
X0328016Y0069477D03*
X0328016Y0066918D03*
X0328016Y0064359D03*
X0328016Y0061800D03*
X0328016Y0059241D03*
X0328016Y0056682D03*
X0328016Y0054123D03*
X0304984Y0054123D03*
X0304984Y0056682D03*
X0223016Y0164123D03*
X0223016Y0166682D03*
X0223016Y0169241D03*
X0223016Y0171800D03*
X0223016Y0174359D03*
X0223016Y0176918D03*
X0223016Y0179477D03*
X0223016Y0181859D03*
X0223016Y0184418D03*
X0223016Y0186977D03*
X0199984Y0186977D03*
X0199984Y0184418D03*
X0199984Y0181859D03*
X0199984Y0179477D03*
X0199984Y0176918D03*
X0199984Y0174359D03*
X0199984Y0171800D03*
X0199984Y0169241D03*
X0199984Y0166682D03*
X0199984Y0164123D03*
D23*
X0134571Y0031800D03*
X0118429Y0031800D03*
D24*
X0198350Y0234930D03*
X0198350Y0238670D03*
X0204650Y0238670D03*
X0204650Y0234930D03*
X0079650Y0259930D03*
X0079650Y0263670D03*
X0073350Y0263670D03*
X0073350Y0259930D03*
D25*
X0075516Y0259930D03*
X0077484Y0259930D03*
X0077484Y0263670D03*
X0075516Y0263670D03*
X0200516Y0238670D03*
X0202484Y0238670D03*
X0202484Y0234930D03*
X0200516Y0234930D03*
M02*
