G75*
%MOIN*%
%OFA0B0*%
%FSLAX24Y24*%
%IPPOS*%
%LPD*%
%AMOC8*
5,1,8,0,0,1.08239X$1,22.5*
%
%ADD10C,0.0160*%
%ADD11C,0.0591*%
%ADD12R,0.0472X0.0472*%
%ADD13R,0.0512X0.0591*%
%ADD14C,0.0700*%
%ADD15C,0.0531*%
%ADD16C,0.0600*%
%ADD17R,0.0591X0.0512*%
%ADD18R,0.1378X0.0630*%
%ADD19C,0.1890*%
%ADD20C,0.0540*%
%ADD21R,0.0800X0.0800*%
%ADD22C,0.0800*%
%ADD23C,0.0860*%
%ADD24C,0.0740*%
%ADD25OC8,0.0600*%
%ADD26C,0.0080*%
%ADD27R,0.0500X0.0250*%
%ADD28R,0.0295X0.0433*%
%ADD29R,0.0866X0.0236*%
%ADD30R,0.1000X0.2000*%
%ADD31R,0.0630X0.0512*%
%ADD32R,0.0512X0.0630*%
%ADD33R,0.1575X0.0630*%
%ADD34R,0.0630X0.0866*%
%ADD35R,0.0354X0.0138*%
%ADD36R,0.0787X0.0787*%
%ADD37R,0.0709X0.0669*%
%ADD38OC8,0.0356*%
%ADD39C,0.0560*%
%ADD40OC8,0.0280*%
%ADD41OC8,0.0240*%
%ADD42R,0.0356X0.0356*%
%ADD43C,0.0400*%
%ADD44C,0.0320*%
%ADD45C,0.0240*%
%ADD46C,0.0500*%
D10*
X002786Y002314D02*
X002858Y002314D01*
X002863Y002296D02*
X002886Y002255D01*
X002920Y002221D01*
X002961Y002197D01*
X003007Y002185D01*
X003238Y002185D01*
X003238Y002632D01*
X002850Y002632D01*
X002850Y002341D01*
X002863Y002296D01*
X002944Y002156D02*
X003697Y002156D01*
X003682Y002162D02*
X003770Y002125D01*
X004377Y002125D01*
X004466Y002162D01*
X004533Y002229D01*
X004554Y002280D01*
X004682Y002280D01*
X004748Y002121D01*
X004865Y002003D01*
X004867Y002000D01*
X003100Y002000D01*
X002500Y002600D01*
X002500Y010894D01*
X002947Y010447D01*
X003059Y010401D01*
X003062Y010394D01*
X003129Y010327D01*
X003180Y010306D01*
X003180Y009404D01*
X003117Y009404D01*
X003028Y009368D01*
X002961Y009300D01*
X002924Y009212D01*
X002924Y008250D01*
X002961Y008162D01*
X003028Y008095D01*
X003117Y008058D01*
X003842Y008058D01*
X003930Y008095D01*
X003998Y008162D01*
X004034Y008250D01*
X004034Y009212D01*
X003998Y009300D01*
X003980Y009318D01*
X003980Y010306D01*
X004031Y010327D01*
X004090Y010386D01*
X004202Y010386D01*
X004263Y010381D01*
X004281Y010386D01*
X004300Y010386D01*
X004356Y010410D01*
X004415Y010428D01*
X004429Y010440D01*
X004447Y010447D01*
X004490Y010491D01*
X004557Y010546D01*
X005134Y010546D01*
X005222Y010583D01*
X005290Y010650D01*
X005326Y010739D01*
X005326Y011621D01*
X005290Y011710D01*
X005222Y011777D01*
X005134Y011814D01*
X004251Y011814D01*
X004163Y011777D01*
X004135Y011749D01*
X004135Y011877D01*
X004098Y011966D01*
X004051Y012013D01*
X004060Y012023D01*
X004060Y012337D01*
X003837Y012560D01*
X003523Y012560D01*
X003300Y012337D01*
X003300Y012070D01*
X003217Y012070D01*
X003129Y012033D01*
X003080Y011984D01*
X003080Y014201D01*
X003113Y014168D01*
X003154Y014144D01*
X003200Y014132D01*
X003656Y014132D01*
X003656Y014430D01*
X003656Y014430D01*
X004230Y014430D01*
X004480Y014180D01*
X004680Y014380D01*
X004980Y014380D01*
X004760Y014360D02*
X004600Y014360D01*
X004480Y014380D02*
X004480Y014880D01*
X004480Y014980D01*
X004680Y015180D01*
X004980Y014880D01*
X004480Y015380D01*
X004980Y015880D01*
X004480Y015880D01*
X004480Y016380D01*
X004480Y016880D01*
X004480Y017380D01*
X004480Y017880D01*
X004980Y017880D01*
X004980Y017380D01*
X005020Y017372D02*
X003080Y017372D01*
X003080Y017530D02*
X005020Y017530D01*
X005020Y017689D02*
X003080Y017689D01*
X003080Y017847D02*
X005020Y017847D01*
X005020Y017852D02*
X005020Y016608D01*
X005075Y016476D01*
X005191Y016360D01*
X004760Y016360D01*
X004760Y015260D01*
X004600Y015260D01*
X004600Y016360D01*
X004156Y016360D01*
X004111Y016348D01*
X004069Y016324D01*
X004036Y016291D01*
X004035Y016288D01*
X004026Y016288D01*
X004060Y016323D01*
X004060Y016637D01*
X003837Y016860D01*
X003523Y016860D01*
X003300Y016637D01*
X003300Y016537D01*
X003296Y016528D01*
X003296Y016288D01*
X003176Y016288D01*
X003087Y016252D01*
X003080Y016244D01*
X003080Y018645D01*
X003149Y018645D01*
X003180Y018658D01*
X003211Y018645D01*
X003706Y018645D01*
X004125Y018226D01*
X004226Y018125D01*
X004358Y018070D01*
X005161Y018070D01*
X005075Y017984D01*
X005020Y017852D01*
X005096Y018006D02*
X003080Y018006D01*
X003080Y018164D02*
X004187Y018164D01*
X004028Y018323D02*
X003080Y018323D01*
X003080Y018481D02*
X003870Y018481D01*
X003711Y018640D02*
X003080Y018640D01*
X003515Y019180D02*
X003680Y019180D01*
X004011Y019359D02*
X004011Y019523D01*
X003974Y019611D01*
X003906Y019679D01*
X003818Y019715D01*
X003211Y019715D01*
X003200Y019711D01*
X003200Y019910D01*
X003404Y019910D01*
X003482Y019902D01*
X003507Y019910D01*
X003533Y019910D01*
X003605Y019940D01*
X003680Y019962D01*
X003700Y019979D01*
X003725Y019989D01*
X003780Y020044D01*
X003840Y020093D01*
X003852Y020117D01*
X003871Y020135D01*
X003898Y020200D01*
X003926Y020219D01*
X003975Y020239D01*
X004011Y020276D01*
X004054Y020304D01*
X004083Y020348D01*
X004121Y020385D01*
X004141Y020433D01*
X004169Y020476D01*
X004180Y020528D01*
X004200Y020577D01*
X004200Y020628D01*
X004210Y020678D01*
X004200Y020730D01*
X004200Y020889D01*
X004366Y020889D01*
X004454Y020925D01*
X004521Y020993D01*
X004558Y021081D01*
X004558Y021680D01*
X004965Y021680D01*
X004965Y021521D01*
X005854Y021521D01*
X005854Y021366D01*
X004965Y021366D01*
X004965Y021105D01*
X004977Y021059D01*
X005001Y021018D01*
X005034Y020985D01*
X005075Y020961D01*
X005121Y020949D01*
X005854Y020949D01*
X005854Y021366D01*
X006009Y021366D01*
X006009Y020949D01*
X006743Y020949D01*
X006789Y020961D01*
X006830Y020985D01*
X006863Y021018D01*
X006887Y021059D01*
X006899Y021105D01*
X006899Y021366D01*
X006009Y021366D01*
X006009Y021521D01*
X006899Y021521D01*
X006899Y021680D01*
X007414Y021680D01*
X007526Y021568D01*
X007526Y021413D01*
X007802Y021137D01*
X007526Y020860D01*
X007526Y020535D01*
X007320Y020329D01*
X007320Y020031D01*
X007526Y019825D01*
X007526Y019750D01*
X007366Y019750D01*
X007249Y019701D01*
X007159Y019611D01*
X007110Y019494D01*
X007110Y018366D01*
X007159Y018249D01*
X007249Y018159D01*
X007409Y017999D01*
X007409Y017999D01*
X007499Y017909D01*
X007552Y017887D01*
X007526Y017860D01*
X007526Y017750D01*
X007155Y017750D01*
X007155Y017794D01*
X007143Y017840D01*
X007119Y017881D01*
X007086Y017915D01*
X007045Y017938D01*
X006999Y017951D01*
X006728Y017951D01*
X006728Y017563D01*
X006632Y017563D01*
X006632Y017951D01*
X006361Y017951D01*
X006315Y017938D01*
X006274Y017915D01*
X006241Y017881D01*
X006240Y017879D01*
X006134Y017985D01*
X006134Y017985D01*
X006114Y018005D01*
X006734Y018625D01*
X006877Y018625D01*
X006966Y018662D01*
X007033Y018729D01*
X007070Y018817D01*
X007070Y019543D01*
X007033Y019631D01*
X006966Y019698D01*
X006877Y019735D01*
X006270Y019735D01*
X006182Y019698D01*
X006134Y019650D01*
X006112Y019663D01*
X006066Y019675D01*
X005834Y019675D01*
X005834Y019228D01*
X005738Y019228D01*
X005738Y019132D01*
X005350Y019132D01*
X005350Y018841D01*
X005363Y018796D01*
X005386Y018755D01*
X005420Y018721D01*
X005461Y018697D01*
X005507Y018685D01*
X005738Y018685D01*
X005738Y019132D01*
X005834Y019132D01*
X005834Y018743D01*
X005540Y018449D01*
X005540Y018579D01*
X005485Y018634D01*
X005384Y018735D01*
X005384Y018735D01*
X005329Y018790D01*
X004579Y018790D01*
X004011Y019359D01*
X004011Y019432D02*
X005350Y019432D01*
X005350Y019519D02*
X005350Y019228D01*
X005738Y019228D01*
X005738Y019675D01*
X005507Y019675D01*
X005461Y019663D01*
X005420Y019639D01*
X005386Y019605D01*
X005363Y019564D01*
X005350Y019519D01*
X005378Y019591D02*
X003983Y019591D01*
X004096Y019274D02*
X005350Y019274D01*
X005350Y019115D02*
X004254Y019115D01*
X004413Y018957D02*
X005350Y018957D01*
X005362Y018798D02*
X004571Y018798D01*
X005480Y018640D02*
X005730Y018640D01*
X005738Y018798D02*
X005834Y018798D01*
X005834Y018957D02*
X005738Y018957D01*
X005738Y019115D02*
X005834Y019115D01*
X005834Y019274D02*
X005738Y019274D01*
X005738Y019432D02*
X005834Y019432D01*
X005834Y019591D02*
X005738Y019591D01*
X006430Y019180D02*
X006574Y019180D01*
X007070Y019115D02*
X007110Y019115D01*
X007110Y018957D02*
X007070Y018957D01*
X007062Y018798D02*
X007110Y018798D01*
X007110Y018640D02*
X006912Y018640D01*
X007110Y018481D02*
X006590Y018481D01*
X006432Y018323D02*
X007128Y018323D01*
X007243Y018164D02*
X006273Y018164D01*
X006115Y018006D02*
X007402Y018006D01*
X007526Y017847D02*
X007139Y017847D01*
X007249Y018159D02*
X007249Y018159D01*
X007430Y018430D02*
X007430Y019430D01*
X007930Y019430D01*
X008066Y019637D01*
X007680Y020180D02*
X009430Y020180D01*
X009680Y020430D01*
X009930Y020430D01*
X010180Y020180D01*
X020430Y020180D01*
X020528Y020198D01*
X020528Y019942D02*
X020430Y019930D01*
X009930Y019930D01*
X009638Y019600D02*
X009546Y019600D01*
X009546Y019617D02*
X009086Y019617D01*
X009086Y019657D01*
X009546Y019657D01*
X009546Y019692D01*
X009748Y019490D01*
X010112Y019490D01*
X010152Y019530D01*
X010964Y019530D01*
X010304Y018870D01*
X010248Y018870D01*
X010180Y018802D01*
X010180Y018960D01*
X010394Y018960D01*
X010500Y019066D02*
X010500Y019530D01*
X010180Y019530D02*
X010180Y018802D01*
X010180Y018960D02*
X010119Y019107D01*
X010007Y019219D01*
X009707Y019519D01*
X009560Y019580D01*
X009546Y019580D01*
X009546Y019617D01*
X009540Y019617D02*
X009540Y019657D01*
X009220Y019657D02*
X009220Y019617D01*
X009480Y019180D02*
X008680Y019180D01*
X008180Y018680D01*
X008066Y018637D01*
X007680Y018180D02*
X007430Y018430D01*
X007680Y018180D02*
X009180Y018180D01*
X010680Y016680D01*
X018580Y016680D01*
X019180Y016080D01*
X019180Y014280D01*
X019980Y013480D01*
X024880Y013480D01*
X025680Y012680D01*
X026120Y012580D02*
X026120Y012862D01*
X025862Y013120D01*
X025806Y013120D01*
X025107Y013819D01*
X024960Y013880D01*
X020146Y013880D01*
X019580Y014446D01*
X019580Y016160D01*
X019519Y016307D01*
X019407Y016419D01*
X018807Y017019D01*
X018660Y017080D01*
X018120Y017080D01*
X018120Y017362D01*
X017862Y017620D01*
X017498Y017620D01*
X017458Y017580D01*
X012120Y017580D01*
X012120Y017862D01*
X012024Y017958D01*
X012596Y018530D01*
X020031Y018530D01*
X020031Y018292D01*
X020080Y018174D01*
X020086Y018168D01*
X020080Y018162D01*
X020031Y018045D01*
X020031Y017780D01*
X020080Y017662D01*
X020080Y017489D01*
X020031Y017439D01*
X019982Y017322D01*
X019982Y016838D01*
X020031Y016721D01*
X020121Y016631D01*
X020238Y016582D01*
X020722Y016582D01*
X020839Y016631D01*
X020929Y016721D01*
X020978Y016838D01*
X020978Y017322D01*
X020929Y017439D01*
X020880Y017489D01*
X020880Y017569D01*
X020887Y017572D01*
X020930Y017615D01*
X021490Y017054D01*
X021490Y016998D01*
X021748Y016740D01*
X022112Y016740D01*
X022370Y016998D01*
X022370Y017362D01*
X022112Y017620D01*
X022056Y017620D01*
X021399Y018277D01*
X021620Y018498D01*
X021620Y018862D01*
X021370Y019112D01*
X021370Y019174D01*
X022203Y018341D01*
X022334Y018287D01*
X022334Y018036D01*
X022383Y017918D01*
X022473Y017828D01*
X022474Y017827D01*
X022474Y017820D01*
X022487Y017774D01*
X022510Y017733D01*
X022544Y017699D01*
X022585Y017676D01*
X022631Y017663D01*
X022832Y017663D01*
X023032Y017663D01*
X023044Y017667D01*
X022990Y017612D01*
X022990Y017248D01*
X023248Y016990D01*
X023612Y016990D01*
X023652Y017030D01*
X034464Y017030D01*
X034054Y016620D01*
X033998Y016620D01*
X033740Y016362D01*
X033740Y015998D01*
X033998Y015740D01*
X034362Y015740D01*
X034620Y015998D01*
X034620Y016054D01*
X035846Y017280D01*
X037214Y017280D01*
X036841Y016907D01*
X036780Y016760D01*
X036780Y014246D01*
X035620Y013086D01*
X033684Y013086D01*
X033689Y013105D01*
X033689Y013198D01*
X033689Y013290D01*
X033676Y013336D01*
X033653Y013377D01*
X033619Y013411D01*
X033578Y013434D01*
X033532Y013447D01*
X033332Y013447D01*
X033332Y013198D01*
X033689Y013198D01*
X033332Y013198D01*
X033332Y013198D01*
X033332Y013198D01*
X033314Y013180D01*
X032580Y013180D01*
X032480Y013080D01*
X032480Y012080D01*
X033280Y012080D01*
X033332Y012132D01*
X033332Y012448D01*
X033332Y012192D01*
X033689Y012192D01*
X033689Y012284D01*
X033688Y012286D01*
X035320Y012286D01*
X034678Y011644D01*
X034678Y011886D01*
X034386Y012178D01*
X033974Y012178D01*
X033689Y011893D01*
X033689Y011936D01*
X033689Y012029D01*
X033679Y012064D01*
X033689Y012099D01*
X033689Y012192D01*
X033332Y012192D01*
X033332Y012192D01*
X033332Y011936D01*
X033689Y011936D01*
X033332Y011936D01*
X033332Y011936D01*
X033332Y011680D01*
X033332Y011936D02*
X032974Y011936D01*
X033332Y011936D01*
X033332Y011936D01*
X033220Y011936D02*
X033220Y011936D01*
X032974Y011936D02*
X032974Y011843D01*
X032984Y011808D01*
X032974Y011773D01*
X032974Y011765D01*
X032973Y011764D01*
X032883Y011674D01*
X032834Y011557D01*
X032834Y011036D01*
X032883Y010918D01*
X032973Y010828D01*
X032974Y010827D01*
X032974Y010820D01*
X032987Y010774D01*
X033010Y010733D01*
X033044Y010699D01*
X033085Y010676D01*
X033131Y010663D01*
X033332Y010663D01*
X033532Y010663D01*
X033578Y010676D01*
X033619Y010699D01*
X033653Y010733D01*
X033673Y010768D01*
X034848Y010768D01*
X034995Y010829D01*
X037946Y013780D01*
X038565Y013780D01*
X038565Y013558D01*
X038658Y013331D01*
X038810Y013180D01*
X038658Y013029D01*
X038565Y012802D01*
X038565Y012558D01*
X038617Y012432D01*
X035264Y009080D01*
X033682Y009080D01*
X033689Y009105D01*
X033689Y009198D01*
X033689Y009290D01*
X033676Y009336D01*
X033653Y009377D01*
X033619Y009411D01*
X033578Y009434D01*
X033532Y009447D01*
X033332Y009447D01*
X033332Y009198D01*
X033689Y009198D01*
X033332Y009198D01*
X033332Y009198D01*
X033332Y009198D01*
X033349Y009180D01*
X033349Y008960D01*
X033332Y008942D01*
X033349Y009180D02*
X034180Y009180D01*
X034180Y009080D02*
X034180Y010768D01*
X033860Y010768D02*
X033860Y009080D01*
X033540Y009198D02*
X033540Y009198D01*
X033663Y009360D02*
X035544Y009360D01*
X035460Y009276D02*
X035460Y011294D01*
X035446Y011280D02*
X037464Y011280D01*
X037380Y011196D02*
X037380Y013214D01*
X037366Y013200D02*
X038790Y013200D01*
X038660Y013330D02*
X038660Y013030D01*
X038597Y012880D02*
X037046Y012880D01*
X037060Y012894D02*
X037060Y010876D01*
X037144Y010960D02*
X035126Y010960D01*
X035140Y010974D02*
X035140Y009080D01*
X034820Y009080D02*
X034820Y010768D01*
X034500Y010768D02*
X034500Y009080D01*
X035430Y008680D02*
X038930Y012180D01*
X039430Y012180D01*
X039930Y012680D01*
X040180Y012680D01*
X039680Y013180D02*
X039180Y012680D01*
X038565Y012560D02*
X036726Y012560D01*
X036740Y012574D02*
X036740Y010556D01*
X036824Y010640D02*
X031455Y010640D01*
X031477Y010662D02*
X031526Y010780D01*
X031526Y011045D01*
X031477Y011162D01*
X031471Y011168D01*
X031477Y011174D01*
X031526Y011292D01*
X031526Y013330D01*
X031477Y013448D01*
X031387Y013538D01*
X031269Y013587D01*
X030788Y013587D01*
X030670Y013538D01*
X030580Y013448D01*
X030552Y013380D01*
X029400Y013380D01*
X029253Y013319D01*
X029141Y013207D01*
X028064Y012130D01*
X027370Y012130D01*
X027370Y012362D01*
X027112Y012620D01*
X026748Y012620D01*
X026708Y012580D01*
X026120Y012580D01*
X026180Y012580D02*
X026180Y017030D01*
X026080Y016780D02*
X024580Y016780D01*
X024280Y016780D01*
X023555Y016055D01*
X023620Y016998D02*
X023620Y013880D01*
X023300Y013880D02*
X023300Y016990D01*
X023198Y017040D02*
X022370Y017040D01*
X022340Y016968D02*
X022340Y013880D01*
X022020Y013880D02*
X022020Y016740D01*
X021700Y016788D02*
X021700Y013880D01*
X021380Y013880D02*
X021380Y017164D01*
X021490Y017040D02*
X020978Y017040D01*
X020962Y017360D02*
X021184Y017360D01*
X021060Y017484D02*
X021060Y013880D01*
X020740Y013880D02*
X020740Y016589D01*
X020929Y016720D02*
X034154Y016720D01*
X034180Y016746D02*
X034180Y017030D01*
X033860Y017030D02*
X033860Y016482D01*
X033778Y016400D02*
X019426Y016400D01*
X019460Y016366D02*
X019460Y018530D01*
X019140Y018530D02*
X019140Y016686D01*
X019106Y016720D02*
X020031Y016720D01*
X020100Y016651D02*
X020100Y013926D01*
X020420Y013880D02*
X020420Y016582D01*
X020480Y017080D02*
X020480Y017864D01*
X020528Y017912D01*
X020528Y018168D02*
X018692Y018168D01*
X018680Y018180D01*
X018820Y018530D02*
X018820Y017006D01*
X018756Y017040D02*
X019982Y017040D01*
X019998Y017360D02*
X018120Y017360D01*
X018180Y017080D02*
X018180Y018530D01*
X017860Y018530D02*
X017860Y017620D01*
X017540Y017620D02*
X017540Y018530D01*
X017220Y018530D02*
X017220Y017580D01*
X016900Y017580D02*
X016900Y018530D01*
X016580Y018530D02*
X016580Y017580D01*
X016260Y017580D02*
X016260Y018530D01*
X015940Y018530D02*
X015940Y017580D01*
X015620Y017580D02*
X015620Y018530D01*
X015300Y018530D02*
X015300Y017580D01*
X014980Y017580D02*
X014980Y018530D01*
X014660Y018530D02*
X014660Y017580D01*
X014340Y017580D02*
X014340Y018530D01*
X014020Y018530D02*
X014020Y017580D01*
X013700Y017580D02*
X013700Y018530D01*
X013380Y018530D02*
X013380Y017580D01*
X013060Y017580D02*
X013060Y018530D01*
X012740Y018530D02*
X012740Y017580D01*
X012420Y017580D02*
X012420Y018354D01*
X012386Y018320D02*
X020031Y018320D01*
X020031Y018000D02*
X012066Y018000D01*
X012100Y018034D02*
X012100Y017882D01*
X012120Y017680D02*
X020073Y017680D01*
X020080Y017662D02*
X020080Y017662D01*
X020528Y018424D02*
X020680Y018430D01*
X020930Y018430D01*
X020930Y018180D01*
X021930Y017180D01*
X022340Y017392D02*
X022340Y018022D01*
X022349Y018000D02*
X021676Y018000D01*
X021700Y017976D02*
X021700Y018844D01*
X021584Y018960D02*
X021522Y018960D01*
X021380Y019102D02*
X021380Y019164D01*
X020930Y019180D02*
X020680Y019180D01*
X020528Y019192D01*
X020528Y019448D02*
X020430Y019430D01*
X011930Y019430D01*
X010680Y018180D01*
X010430Y018430D02*
X011680Y019680D01*
X020430Y019680D01*
X020528Y019686D01*
X020930Y020180D02*
X020930Y020680D01*
X015680Y020680D01*
X014680Y021680D01*
X014580Y021680D01*
X014080Y021310D02*
X014231Y021158D01*
X014458Y021065D01*
X014702Y021065D01*
X014722Y021073D01*
X015214Y020580D01*
X010346Y020580D01*
X010269Y020657D01*
X010157Y020769D01*
X010010Y020830D01*
X009600Y020830D01*
X009546Y020807D01*
X009546Y020836D01*
X009265Y021117D01*
X009086Y021117D01*
X009086Y020657D01*
X009046Y020657D01*
X009046Y021117D01*
X008867Y021117D01*
X008680Y020930D01*
X008680Y021344D01*
X008867Y021157D01*
X009046Y021157D01*
X009046Y021617D01*
X009086Y021617D01*
X009086Y021657D01*
X009046Y021657D01*
X009046Y022117D01*
X008867Y022117D01*
X008665Y021915D01*
X008344Y022236D01*
X008546Y022438D01*
X008546Y022617D01*
X008086Y022617D01*
X008086Y022657D01*
X008046Y022657D01*
X008046Y023117D01*
X007867Y023117D01*
X007660Y022910D01*
X007660Y023081D01*
X008079Y023500D01*
X018375Y023500D01*
X018552Y023573D01*
X018687Y023708D01*
X019679Y024700D01*
X020968Y024700D01*
X021769Y023819D01*
X021773Y023808D01*
X021833Y023749D01*
X021889Y023686D01*
X021900Y023681D01*
X021908Y023673D01*
X021986Y023641D01*
X022062Y023605D01*
X022074Y023605D01*
X022085Y023600D01*
X022169Y023600D01*
X022253Y023596D01*
X022264Y023600D01*
X030534Y023600D01*
X029230Y022295D01*
X029058Y022295D01*
X028831Y022202D01*
X028658Y022029D01*
X028565Y021802D01*
X028565Y021558D01*
X028658Y021331D01*
X028831Y021158D01*
X029058Y021065D01*
X029302Y021065D01*
X029529Y021158D01*
X029680Y021310D01*
X029831Y021158D01*
X030058Y021065D01*
X030302Y021065D01*
X030529Y021158D01*
X030680Y021310D01*
X030831Y021158D01*
X031058Y021065D01*
X031064Y021065D01*
X030953Y021019D01*
X030014Y020080D01*
X023870Y020080D01*
X023870Y020362D01*
X023830Y020402D01*
X023830Y020780D01*
X027510Y020780D01*
X027657Y020841D01*
X027769Y020953D01*
X027806Y020990D01*
X027862Y020990D01*
X028120Y021248D01*
X028120Y021612D01*
X027862Y021870D01*
X027767Y021870D01*
X027702Y022029D01*
X027529Y022202D01*
X027302Y022295D01*
X027058Y022295D01*
X026831Y022202D01*
X026680Y022050D01*
X026529Y022202D01*
X026302Y022295D01*
X026130Y022295D01*
X025907Y022519D01*
X025760Y022580D01*
X012846Y022580D01*
X012678Y022748D01*
X012678Y022886D01*
X012386Y023178D01*
X011974Y023178D01*
X011682Y022886D01*
X011682Y022474D01*
X011974Y022182D01*
X012112Y022182D01*
X012261Y022033D01*
X012217Y021990D01*
X012174Y021929D01*
X012157Y021896D01*
X012102Y022029D01*
X011929Y022202D01*
X011702Y022295D01*
X011458Y022295D01*
X011231Y022202D01*
X011058Y022029D01*
X010965Y021802D01*
X010965Y021558D01*
X011058Y021331D01*
X011231Y021158D01*
X011458Y021065D01*
X011702Y021065D01*
X011929Y021158D01*
X012102Y021331D01*
X012157Y021464D01*
X012174Y021431D01*
X012217Y021370D01*
X012270Y021317D01*
X012331Y021274D01*
X012398Y021240D01*
X012469Y021216D01*
X012543Y021205D01*
X012562Y021205D01*
X012562Y021662D01*
X012598Y021662D01*
X012598Y021205D01*
X012617Y021205D01*
X012691Y021216D01*
X012762Y021240D01*
X012829Y021274D01*
X012890Y021317D01*
X012943Y021370D01*
X012986Y021431D01*
X013003Y021464D01*
X013058Y021331D01*
X013231Y021158D01*
X013458Y021065D01*
X013702Y021065D01*
X013929Y021158D01*
X014080Y021310D01*
X014020Y021250D02*
X014020Y020580D01*
X014340Y020580D02*
X014340Y021113D01*
X014190Y021200D02*
X013970Y021200D01*
X013700Y021065D02*
X013700Y020580D01*
X013380Y020580D02*
X013380Y021097D01*
X013190Y021200D02*
X011970Y021200D01*
X012100Y021330D02*
X012100Y020580D01*
X011780Y020580D02*
X011780Y021097D01*
X011460Y021065D02*
X011460Y020580D01*
X011140Y020580D02*
X011140Y021250D01*
X011190Y021200D02*
X009308Y021200D01*
X009265Y021157D02*
X009546Y021438D01*
X009546Y021617D01*
X009086Y021617D01*
X009086Y021157D01*
X009265Y021157D01*
X009220Y021157D02*
X009220Y021117D01*
X009086Y021200D02*
X009046Y021200D01*
X008900Y021157D02*
X008900Y021117D01*
X008824Y021200D02*
X008680Y021200D01*
X009046Y020880D02*
X009086Y020880D01*
X009501Y020880D02*
X014914Y020880D01*
X014980Y020814D02*
X014980Y020580D01*
X014660Y020580D02*
X014660Y021065D01*
X015580Y021680D02*
X015680Y021680D01*
X016430Y020930D01*
X023430Y020930D01*
X023430Y020180D01*
X023180Y019930D02*
X023430Y019680D01*
X030180Y019680D01*
X031180Y020680D01*
X039180Y020680D01*
X039680Y020680D02*
X040180Y020680D01*
X039680Y020680D02*
X039680Y019430D01*
X039930Y019180D01*
X040680Y019180D01*
X040680Y018430D01*
X040430Y018180D01*
X035680Y018180D01*
X034930Y017430D01*
X023430Y017430D01*
X022990Y017360D02*
X022370Y017360D01*
X022577Y017680D02*
X021996Y017680D01*
X022020Y017656D02*
X022020Y018524D01*
X021904Y018640D02*
X021620Y018640D01*
X021442Y018320D02*
X022254Y018320D01*
X022430Y018680D02*
X020930Y020180D01*
X021330Y020346D02*
X021330Y020530D01*
X023030Y020530D01*
X023030Y020447D01*
X022832Y020447D01*
X022832Y020345D01*
X022832Y020345D01*
X022832Y020447D01*
X022631Y020447D01*
X022585Y020434D01*
X022544Y020411D01*
X022510Y020377D01*
X022487Y020336D01*
X022474Y020290D01*
X022474Y020283D01*
X022473Y020282D01*
X022462Y020271D01*
X022362Y020370D01*
X021998Y020370D01*
X021740Y020112D01*
X021740Y019936D01*
X021330Y020346D01*
X021380Y020296D02*
X021380Y020530D01*
X021436Y020240D02*
X021868Y020240D01*
X021698Y020198D02*
X021680Y020180D01*
X021698Y020198D02*
X022832Y020198D01*
X022832Y019942D02*
X022930Y019930D01*
X023180Y019930D01*
X022832Y019686D02*
X022680Y019680D01*
X022430Y019680D01*
X022180Y019930D01*
X022020Y020370D02*
X022020Y020530D01*
X021700Y020530D02*
X021700Y019976D01*
X022340Y020370D02*
X022340Y020530D01*
X022660Y020530D02*
X022660Y020447D01*
X022980Y020447D02*
X022980Y020530D01*
X023830Y020560D02*
X030494Y020560D01*
X030340Y020406D02*
X030340Y021080D01*
X030570Y021200D02*
X030790Y021200D01*
X030660Y021290D02*
X030660Y020726D01*
X030814Y020880D02*
X027696Y020880D01*
X027780Y020964D02*
X027780Y020080D01*
X027460Y020080D02*
X027460Y020780D01*
X027140Y020780D02*
X027140Y020080D01*
X026820Y020080D02*
X026820Y020780D01*
X026500Y020780D02*
X026500Y020080D01*
X026180Y020080D02*
X026180Y020780D01*
X025860Y020780D02*
X025860Y020080D01*
X025540Y020080D02*
X025540Y020780D01*
X025220Y020780D02*
X025220Y020080D01*
X024900Y020080D02*
X024900Y020780D01*
X024580Y020780D02*
X024580Y020080D01*
X024260Y020080D02*
X024260Y020780D01*
X023940Y020780D02*
X023940Y020080D01*
X023870Y020240D02*
X030174Y020240D01*
X030020Y020086D02*
X030020Y021080D01*
X029790Y021200D02*
X029570Y021200D01*
X029700Y021290D02*
X029700Y020080D01*
X029380Y020080D02*
X029380Y021097D01*
X029060Y021065D02*
X029060Y020080D01*
X028740Y020080D02*
X028740Y021250D01*
X028790Y021200D02*
X028072Y021200D01*
X028100Y021228D02*
X028100Y020080D01*
X028420Y020080D02*
X028420Y023600D01*
X028740Y023600D02*
X028740Y022110D01*
X028790Y022160D02*
X027570Y022160D01*
X027460Y022230D02*
X027460Y023600D01*
X027140Y023600D02*
X027140Y022295D01*
X026820Y022190D02*
X026820Y023600D01*
X026500Y023600D02*
X026500Y022213D01*
X026570Y022160D02*
X026790Y022160D01*
X026180Y022295D02*
X026180Y023600D01*
X025860Y023600D02*
X025860Y022538D01*
X025946Y022480D02*
X029414Y022480D01*
X029380Y022446D02*
X029380Y023600D01*
X029060Y023600D02*
X029060Y022295D01*
X029180Y021680D02*
X031180Y023680D01*
X038930Y023680D01*
X038930Y023180D02*
X032680Y023180D01*
X031180Y021680D01*
X030980Y021097D02*
X030980Y021030D01*
X032180Y021680D02*
X033180Y022680D01*
X038930Y022680D01*
X036180Y025180D02*
X036180Y026180D01*
X032180Y026180D01*
X031680Y025680D01*
X031680Y024880D01*
X031680Y024480D02*
X031680Y024080D01*
X032680Y024080D02*
X032680Y024480D01*
X032680Y024880D02*
X032680Y025680D01*
X033680Y025680D02*
X033680Y024857D01*
X033680Y024503D02*
X033680Y024080D01*
X034250Y024560D02*
X034250Y024669D01*
X034250Y025046D01*
X034201Y025163D01*
X034111Y025253D01*
X034090Y025262D01*
X034177Y025348D01*
X034180Y025356D01*
X034180Y025185D01*
X034250Y025040D02*
X034381Y025040D01*
X034382Y025045D02*
X034370Y024999D01*
X034370Y024728D01*
X034758Y024728D01*
X034758Y024632D01*
X034370Y024632D01*
X034370Y024560D01*
X034250Y024560D01*
X034250Y024720D02*
X034758Y024720D01*
X034500Y024728D02*
X034500Y024632D01*
X034382Y025045D02*
X034406Y025086D01*
X034440Y025119D01*
X034466Y025135D01*
X034348Y025183D01*
X034183Y025348D01*
X034180Y025356D01*
X034680Y025680D02*
X035680Y025680D01*
X036180Y025180D02*
X035680Y024680D01*
X035554Y024680D01*
X035460Y026830D02*
X035460Y028886D01*
X035454Y028880D02*
X035796Y028880D01*
X035780Y028896D02*
X035780Y026830D01*
X036100Y026830D02*
X036100Y028689D01*
X036171Y028660D02*
X036457Y028660D01*
X036722Y028770D01*
X036924Y028972D01*
X037034Y029237D01*
X037034Y029523D01*
X036924Y029788D01*
X036722Y029990D01*
X036457Y030100D01*
X036171Y030100D01*
X035906Y029990D01*
X035703Y029788D01*
X035625Y029598D01*
X035546Y029788D01*
X035344Y029990D01*
X035079Y030100D01*
X034810Y030100D01*
X035012Y030183D01*
X035177Y030348D01*
X035180Y030356D01*
X035183Y030348D01*
X035348Y030183D01*
X035563Y030094D01*
X035797Y030094D01*
X036012Y030183D01*
X036177Y030348D01*
X036180Y030356D01*
X036183Y030348D01*
X036348Y030183D01*
X036563Y030094D01*
X036797Y030094D01*
X037012Y030183D01*
X037177Y030348D01*
X037256Y030541D01*
X037267Y030509D01*
X037299Y030446D01*
X037340Y030390D01*
X037390Y030340D01*
X037446Y030299D01*
X037509Y030267D01*
X037576Y030245D01*
X037645Y030234D01*
X037671Y030234D01*
X037671Y030671D01*
X037689Y030671D01*
X037689Y030234D01*
X037715Y030234D01*
X037780Y030245D01*
X037780Y027984D01*
X037682Y027886D01*
X037682Y027474D01*
X037974Y027182D01*
X038065Y027182D01*
X038065Y026830D01*
X031350Y026830D01*
X031203Y026769D01*
X030700Y026266D01*
X030563Y026266D01*
X030348Y026177D01*
X030295Y026124D01*
X030295Y026626D01*
X030273Y026680D01*
X030295Y026734D01*
X030295Y026767D01*
X030330Y026850D01*
X030330Y027010D01*
X030295Y027093D01*
X030295Y027107D01*
X030361Y027080D01*
X030780Y027080D01*
X030864Y027045D01*
X032370Y027045D01*
X032487Y027094D01*
X032577Y027184D01*
X032626Y027301D01*
X032626Y028059D01*
X032577Y028176D01*
X032487Y028266D01*
X032370Y028315D01*
X030864Y028315D01*
X030780Y028280D01*
X030729Y028280D01*
X030599Y028409D01*
X030632Y028409D01*
X030632Y028797D01*
X030728Y028797D01*
X030728Y028409D01*
X030999Y028409D01*
X031045Y028422D01*
X031086Y028445D01*
X031119Y028479D01*
X031143Y028520D01*
X031155Y028566D01*
X031155Y028797D01*
X030728Y028797D01*
X030728Y028893D01*
X031155Y028893D01*
X031155Y028987D01*
X031157Y028987D01*
X031247Y029077D01*
X031295Y029195D01*
X031295Y029834D01*
X031280Y029871D01*
X031280Y030483D01*
X031299Y030446D01*
X031340Y030390D01*
X031390Y030340D01*
X031446Y030299D01*
X031509Y030267D01*
X031576Y030245D01*
X031645Y030234D01*
X031671Y030234D01*
X031671Y030671D01*
X031689Y030671D01*
X031689Y030234D01*
X031715Y030234D01*
X031784Y030245D01*
X031851Y030267D01*
X031914Y030299D01*
X031970Y030340D01*
X032020Y030390D01*
X032061Y030446D01*
X032093Y030509D01*
X032104Y030541D01*
X032183Y030348D01*
X032348Y030183D01*
X032550Y030100D01*
X031716Y030100D01*
X031599Y030051D01*
X031509Y029961D01*
X031460Y029844D01*
X031460Y028916D01*
X031509Y028799D01*
X031599Y028709D01*
X031716Y028660D01*
X032644Y028660D01*
X032761Y028709D01*
X032851Y028799D01*
X032900Y028916D01*
X032900Y029087D01*
X032948Y028972D01*
X033150Y028770D01*
X033415Y028660D01*
X033701Y028660D01*
X033966Y028770D01*
X034168Y028972D01*
X034247Y029162D01*
X034326Y028972D01*
X034528Y028770D01*
X034793Y028660D01*
X035079Y028660D01*
X035344Y028770D01*
X035546Y028972D01*
X035625Y029162D01*
X035703Y028972D01*
X035906Y028770D01*
X036171Y028660D01*
X036420Y028660D02*
X036420Y026830D01*
X036740Y026830D02*
X036740Y028788D01*
X036832Y028880D02*
X037780Y028880D01*
X037780Y028560D02*
X031154Y028560D01*
X030980Y028409D02*
X030980Y028315D01*
X031300Y028315D02*
X031300Y030445D01*
X031282Y030480D02*
X031280Y030480D01*
X031280Y030160D02*
X032405Y030160D01*
X032260Y030100D02*
X032260Y030272D01*
X032129Y030480D02*
X032078Y030480D01*
X031940Y030318D02*
X031940Y030100D01*
X031620Y030060D02*
X031620Y030238D01*
X031671Y030480D02*
X031689Y030480D01*
X031460Y029840D02*
X031293Y029840D01*
X031295Y029520D02*
X031460Y029520D01*
X031460Y029200D02*
X031295Y029200D01*
X031475Y028880D02*
X030728Y028880D01*
X030660Y028797D02*
X030660Y028349D01*
X030632Y028560D02*
X030728Y028560D01*
X030980Y028797D02*
X030980Y028893D01*
X031620Y028700D02*
X031620Y028315D01*
X031940Y028315D02*
X031940Y028660D01*
X032260Y028660D02*
X032260Y028315D01*
X032513Y028240D02*
X037780Y028240D01*
X037716Y027920D02*
X034612Y027920D01*
X034612Y028019D02*
X034600Y028064D01*
X034576Y028105D01*
X034542Y028139D01*
X034501Y028163D01*
X034456Y028175D01*
X033820Y028175D01*
X033820Y027757D01*
X033666Y027757D01*
X033666Y027603D01*
X032874Y027603D01*
X032874Y027341D01*
X032886Y027296D01*
X032910Y027255D01*
X032943Y027221D01*
X032985Y027197D01*
X033030Y027185D01*
X033666Y027185D01*
X033666Y027603D01*
X033820Y027603D01*
X033820Y027757D01*
X034612Y027757D01*
X034612Y028019D01*
X034500Y028163D02*
X034500Y028798D01*
X034418Y028880D02*
X034076Y028880D01*
X034180Y029000D02*
X034180Y028175D01*
X033860Y028175D02*
X033860Y028726D01*
X033540Y028660D02*
X033540Y028175D01*
X033666Y028175D02*
X033030Y028175D01*
X032985Y028163D01*
X032943Y028139D01*
X032910Y028105D01*
X032886Y028064D01*
X032874Y028019D01*
X032874Y027757D01*
X033666Y027757D01*
X033666Y028175D01*
X033666Y027920D02*
X033820Y027920D01*
X033860Y027757D02*
X033860Y027603D01*
X033820Y027603D02*
X034612Y027603D01*
X034612Y027341D01*
X034600Y027296D01*
X034576Y027255D01*
X034542Y027221D01*
X034501Y027197D01*
X034456Y027185D01*
X033820Y027185D01*
X033820Y027603D01*
X033820Y027600D02*
X033666Y027600D01*
X033540Y027603D02*
X033540Y027757D01*
X033220Y027757D02*
X033220Y027603D01*
X032900Y027603D02*
X032900Y027757D01*
X032874Y027600D02*
X032626Y027600D01*
X032626Y027920D02*
X032874Y027920D01*
X032900Y028088D02*
X032900Y029087D01*
X032885Y028880D02*
X033040Y028880D01*
X033220Y028741D02*
X033220Y028175D01*
X032580Y028170D02*
X032580Y028660D01*
X032617Y027280D02*
X032895Y027280D01*
X032900Y027272D02*
X032900Y026830D01*
X032580Y026830D02*
X032580Y027190D01*
X032260Y027045D02*
X032260Y026830D01*
X031940Y026830D02*
X031940Y027045D01*
X031620Y027045D02*
X031620Y026830D01*
X031300Y026809D02*
X031300Y027045D01*
X030980Y027045D02*
X030980Y026546D01*
X031074Y026640D02*
X030289Y026640D01*
X030295Y026320D02*
X030754Y026320D01*
X030660Y026266D02*
X030660Y027080D01*
X030340Y027089D02*
X030340Y026168D01*
X029680Y026306D02*
X029680Y026430D01*
X022680Y026430D01*
X021930Y025680D01*
X021680Y025680D01*
X022680Y025680D02*
X022680Y024880D01*
X022680Y025680D02*
X023180Y026180D01*
X027180Y026180D01*
X027180Y025180D01*
X026680Y024680D01*
X026554Y024680D01*
X025758Y024720D02*
X025250Y024720D01*
X025250Y024669D02*
X025250Y024560D01*
X025370Y024560D01*
X025370Y024632D01*
X025758Y024632D01*
X025758Y024728D01*
X025370Y024728D01*
X025370Y024999D01*
X025382Y025045D01*
X025406Y025086D01*
X025440Y025119D01*
X025466Y025135D01*
X025348Y025183D01*
X025183Y025348D01*
X025180Y025356D01*
X025177Y025348D01*
X025090Y025262D01*
X025111Y025253D01*
X025201Y025163D01*
X025250Y025046D01*
X025250Y024669D01*
X025540Y024632D02*
X025540Y024728D01*
X025381Y025040D02*
X025250Y025040D01*
X025220Y025118D02*
X025220Y025312D01*
X025680Y025680D02*
X026680Y025680D01*
X024680Y025680D02*
X024680Y024857D01*
X024680Y024503D02*
X024680Y024080D01*
X024580Y023600D02*
X024580Y022580D01*
X024900Y022580D02*
X024900Y023600D01*
X025220Y023600D02*
X025220Y022580D01*
X025540Y022580D02*
X025540Y023600D01*
X024260Y023600D02*
X024260Y022580D01*
X023940Y022580D02*
X023940Y023600D01*
X023620Y023600D02*
X023620Y022580D01*
X023300Y022580D02*
X023300Y023600D01*
X022980Y023600D02*
X022980Y022580D01*
X022660Y022580D02*
X022660Y023600D01*
X022340Y023600D02*
X022340Y022580D01*
X022020Y022580D02*
X022020Y023625D01*
X021821Y023760D02*
X018739Y023760D01*
X018820Y023841D02*
X018820Y022580D01*
X018500Y022580D02*
X018500Y023552D01*
X018180Y023500D02*
X018180Y022580D01*
X017860Y022580D02*
X017860Y023500D01*
X017540Y023500D02*
X017540Y022580D01*
X017220Y022580D02*
X017220Y023500D01*
X016900Y023500D02*
X016900Y022580D01*
X016580Y022580D02*
X016580Y023500D01*
X016260Y023500D02*
X016260Y022580D01*
X015940Y022580D02*
X015940Y023500D01*
X015620Y023500D02*
X015620Y022580D01*
X015300Y022580D02*
X015300Y023500D01*
X014980Y023500D02*
X014980Y022580D01*
X014660Y022580D02*
X014660Y023500D01*
X014340Y023500D02*
X014340Y022580D01*
X014020Y022580D02*
X014020Y023500D01*
X013700Y023500D02*
X013700Y022580D01*
X013380Y022580D02*
X013380Y023500D01*
X013060Y023500D02*
X013060Y022580D01*
X012740Y022686D02*
X012740Y023500D01*
X012420Y023500D02*
X012420Y023144D01*
X012444Y023120D02*
X030054Y023120D01*
X030020Y023086D02*
X030020Y023600D01*
X029700Y023600D02*
X029700Y022766D01*
X029734Y022800D02*
X012678Y022800D01*
X012180Y022680D02*
X012680Y022180D01*
X025680Y022180D01*
X026180Y021680D01*
X027430Y021180D02*
X019180Y021180D01*
X018680Y021680D01*
X018580Y021680D01*
X019140Y022580D02*
X019140Y024161D01*
X019059Y024080D02*
X021531Y024080D01*
X021380Y024246D02*
X021380Y022580D01*
X021060Y022580D02*
X021060Y024598D01*
X021240Y024400D02*
X019379Y024400D01*
X019460Y024481D02*
X019460Y022580D01*
X019780Y022580D02*
X019780Y024700D01*
X020100Y024700D02*
X020100Y022580D01*
X020420Y022580D02*
X020420Y024700D01*
X020740Y024700D02*
X020740Y022580D01*
X021700Y022580D02*
X021700Y023894D01*
X023680Y024080D02*
X023680Y024480D01*
X023680Y024880D02*
X023680Y025680D01*
X022180Y027230D02*
X020856Y027230D01*
X020680Y027054D01*
X019954Y027054D01*
X019480Y026580D01*
X013580Y026580D01*
X012680Y025680D01*
X012680Y026430D02*
X009680Y026430D01*
X009430Y026680D01*
X009430Y026759D01*
X009180Y027180D02*
X016930Y027180D01*
X017220Y027512D02*
X017220Y027880D01*
X017112Y027620D02*
X016748Y027620D01*
X016708Y027580D01*
X015612Y027580D01*
X015612Y027603D01*
X014820Y027603D01*
X014820Y027757D01*
X015612Y027757D01*
X015612Y027880D01*
X018631Y027880D01*
X019140Y027371D01*
X019361Y027280D01*
X017370Y027280D01*
X017370Y027362D02*
X017112Y027620D01*
X017132Y027600D02*
X018911Y027600D01*
X018820Y027691D02*
X018820Y026980D01*
X019140Y026980D02*
X019140Y027371D01*
X019361Y027280D02*
X019614Y027280D01*
X019314Y026980D01*
X017352Y026980D01*
X017370Y026998D01*
X017370Y027362D01*
X017540Y026980D02*
X017540Y027880D01*
X017860Y027880D02*
X017860Y026980D01*
X018180Y026980D02*
X018180Y027880D01*
X018500Y027880D02*
X018500Y026980D01*
X017980Y026280D02*
X014280Y026280D01*
X013680Y025680D01*
X013680Y024880D01*
X014680Y024880D02*
X014680Y025680D01*
X015680Y025680D02*
X015680Y024857D01*
X015680Y024503D02*
X015680Y024430D01*
X016250Y024460D02*
X016250Y024669D01*
X016250Y025046D01*
X016201Y025163D01*
X016111Y025253D01*
X016090Y025262D01*
X016177Y025348D01*
X016180Y025356D01*
X016183Y025348D01*
X016348Y025183D01*
X016466Y025135D01*
X016440Y025119D01*
X016406Y025086D01*
X016382Y025045D01*
X016370Y024999D01*
X016370Y024728D01*
X016758Y024728D01*
X016758Y024632D01*
X016370Y024632D01*
X016370Y024460D01*
X016250Y024460D01*
X016260Y024460D02*
X016260Y025272D01*
X016280Y025180D02*
X016806Y024680D01*
X016758Y024720D02*
X016250Y024720D01*
X016250Y025040D02*
X016381Y025040D01*
X016580Y024728D02*
X016580Y024632D01*
X017554Y024680D02*
X017880Y024680D01*
X018180Y024980D01*
X018180Y026080D01*
X017980Y026280D01*
X017680Y025680D02*
X016680Y025680D01*
X014703Y024503D02*
X014680Y024480D01*
X012180Y024680D02*
X011180Y025680D01*
X009430Y025680D01*
X008430Y026680D01*
X008430Y026759D01*
X007930Y026759D02*
X007930Y026930D01*
X007580Y027280D01*
X007580Y028080D01*
X007680Y028180D01*
X007680Y029680D01*
X007430Y029680D01*
X007267Y029680D01*
X007430Y029680D02*
X007430Y030680D01*
X007267Y030680D01*
X007180Y030680D01*
X007680Y031180D01*
X008680Y031180D01*
X008880Y030980D01*
X008880Y030680D01*
X009380Y030180D01*
X010680Y030180D01*
X011160Y030160D02*
X012080Y030160D01*
X011993Y030046D02*
X011932Y030091D01*
X011864Y030125D01*
X011792Y030148D01*
X011718Y030160D01*
X011700Y030160D01*
X011700Y029700D01*
X011660Y029700D01*
X011660Y030160D01*
X011642Y030160D01*
X011568Y030148D01*
X011496Y030125D01*
X011428Y030091D01*
X011367Y030046D01*
X011314Y029993D01*
X011269Y029932D01*
X011257Y029907D01*
X011206Y030031D01*
X011160Y030077D01*
X011160Y030283D01*
X011206Y030329D01*
X011257Y030453D01*
X011269Y030428D01*
X011314Y030367D01*
X011367Y030314D01*
X011428Y030269D01*
X011496Y030235D01*
X011568Y030212D01*
X011642Y030200D01*
X011660Y030200D01*
X011660Y030660D01*
X011700Y030660D01*
X011700Y030200D01*
X011718Y030200D01*
X011792Y030212D01*
X011864Y030235D01*
X011932Y030269D01*
X011993Y030314D01*
X012046Y030367D01*
X012080Y030414D01*
X012080Y029946D01*
X012046Y029993D01*
X011993Y030046D01*
X011780Y030150D02*
X011780Y030210D01*
X011700Y030480D02*
X011660Y030480D01*
X011660Y030700D02*
X011660Y031160D01*
X011642Y031160D01*
X011568Y031148D01*
X011496Y031125D01*
X011428Y031091D01*
X011367Y031046D01*
X011314Y030993D01*
X011269Y030932D01*
X011257Y030907D01*
X011206Y031031D01*
X011160Y031077D01*
X011160Y031981D01*
X011279Y032100D01*
X014152Y032100D01*
X014112Y032060D01*
X014010Y031813D01*
X014010Y031547D01*
X014080Y031378D01*
X014080Y030877D01*
X014061Y030914D01*
X014020Y030970D01*
X014020Y031523D01*
X014054Y031440D02*
X011160Y031440D01*
X011160Y031120D02*
X011486Y031120D01*
X011460Y031107D02*
X011460Y032100D01*
X011259Y032080D02*
X014132Y032080D01*
X014020Y032100D02*
X014020Y031837D01*
X014010Y031760D02*
X011160Y031760D01*
X011780Y032100D02*
X011780Y031150D01*
X011792Y031148D02*
X011718Y031160D01*
X011700Y031160D01*
X011700Y030700D01*
X011660Y030700D01*
X011660Y030800D02*
X011700Y030800D01*
X011700Y031120D02*
X011660Y031120D01*
X011792Y031148D02*
X011864Y031125D01*
X011932Y031091D01*
X011993Y031046D01*
X012046Y030993D01*
X012091Y030932D01*
X012115Y030884D01*
X012171Y031020D01*
X012340Y031189D01*
X012561Y031280D01*
X012799Y031280D01*
X013020Y031189D01*
X013189Y031020D01*
X013263Y030840D01*
X013267Y030851D01*
X013299Y030914D01*
X013340Y030970D01*
X013390Y031020D01*
X013446Y031061D01*
X013509Y031093D01*
X013576Y031115D01*
X013645Y031126D01*
X013671Y031126D01*
X013671Y030689D01*
X013689Y030689D01*
X014080Y030689D01*
X014080Y030671D01*
X013689Y030671D01*
X013689Y030689D01*
X013689Y031126D01*
X013715Y031126D01*
X013784Y031115D01*
X013851Y031093D01*
X013914Y031061D01*
X013970Y031020D01*
X014020Y030970D01*
X014080Y031120D02*
X013751Y031120D01*
X013700Y031126D02*
X013700Y032100D01*
X013380Y032100D02*
X013380Y031010D01*
X013609Y031120D02*
X013089Y031120D01*
X013060Y031149D02*
X013060Y032100D01*
X012740Y032100D02*
X012740Y031280D01*
X012420Y031222D02*
X012420Y032100D01*
X012100Y032100D02*
X012100Y030913D01*
X012271Y031120D02*
X011874Y031120D01*
X011460Y030253D02*
X011460Y030107D01*
X011660Y029840D02*
X011700Y029840D01*
X010835Y029073D02*
X010813Y029052D01*
X010765Y028934D01*
X010765Y028295D01*
X010813Y028177D01*
X010903Y028087D01*
X010905Y028087D01*
X010905Y027993D01*
X011332Y027993D01*
X011332Y027897D01*
X010905Y027897D01*
X010905Y027666D01*
X010917Y027620D01*
X010940Y027580D01*
X009898Y027580D01*
X009898Y027582D01*
X010306Y027990D01*
X010362Y027990D01*
X010620Y028248D01*
X010620Y028612D01*
X010362Y028870D01*
X009998Y028870D01*
X009740Y028612D01*
X009740Y028556D01*
X009380Y028196D01*
X009380Y029133D01*
X009557Y029060D01*
X009803Y029060D01*
X010031Y029154D01*
X010180Y029303D01*
X010180Y028870D01*
X010329Y029154D02*
X010557Y029060D01*
X010803Y029060D01*
X010835Y029073D01*
X010820Y029067D02*
X010820Y029058D01*
X010765Y028880D02*
X009380Y028880D01*
X009540Y029067D02*
X009540Y028356D01*
X009424Y028240D02*
X009380Y028240D01*
X009380Y028560D02*
X009740Y028560D01*
X009860Y028732D02*
X009860Y029083D01*
X010077Y029200D02*
X010283Y029200D01*
X010329Y029154D02*
X010180Y029303D01*
X010500Y029083D02*
X010500Y028732D01*
X010620Y028560D02*
X010765Y028560D01*
X010788Y028240D02*
X010612Y028240D01*
X010500Y028128D02*
X010500Y027580D01*
X010180Y027580D02*
X010180Y027864D01*
X010236Y027920D02*
X011332Y027920D01*
X011140Y027897D02*
X011140Y027993D01*
X010820Y028171D02*
X010820Y027580D01*
X010929Y027600D02*
X009916Y027600D01*
X009430Y027601D02*
X009430Y027680D01*
X010180Y028430D01*
X008980Y027601D02*
X008980Y029980D01*
X008093Y030680D01*
X008093Y031680D02*
X009780Y031680D01*
X010180Y031280D01*
X010180Y030680D01*
X010200Y031826D02*
X010007Y032019D01*
X009860Y032080D01*
X009860Y032776D01*
X009540Y032776D02*
X009540Y032080D01*
X009700Y032080D02*
X008608Y032080D01*
X010200Y032080D01*
X010200Y032275D02*
X010200Y031826D01*
X010180Y031846D02*
X010180Y032776D01*
X010500Y032776D02*
X010500Y032679D01*
X010541Y032720D02*
X003077Y032720D01*
X003133Y032776D02*
X010597Y032776D01*
X010273Y032452D01*
X010200Y032275D01*
X010252Y032400D02*
X005400Y032400D01*
X005380Y032415D02*
X005380Y032776D01*
X005060Y032776D02*
X005060Y031980D01*
X005050Y031980D02*
X005050Y032510D01*
X005027Y032510D01*
X004941Y032496D01*
X004859Y032470D01*
X004782Y032430D01*
X004712Y032380D01*
X004650Y032318D01*
X004600Y032248D01*
X004560Y032171D01*
X004534Y032089D01*
X004520Y032003D01*
X004520Y031980D01*
X005050Y031980D01*
X005090Y031980D01*
X005090Y032510D01*
X005113Y032510D01*
X005199Y032496D01*
X005281Y032470D01*
X005358Y032430D01*
X005428Y032380D01*
X005490Y032318D01*
X005540Y032248D01*
X005580Y032171D01*
X005606Y032089D01*
X005620Y032003D01*
X005620Y031980D01*
X005090Y031980D01*
X005090Y031940D01*
X005620Y031940D01*
X005620Y031917D01*
X005606Y031831D01*
X005580Y031749D01*
X005540Y031672D01*
X005490Y031602D01*
X005428Y031540D01*
X005358Y031490D01*
X005281Y031450D01*
X005199Y031424D01*
X005113Y031410D01*
X005090Y031410D01*
X005090Y031940D01*
X005050Y031940D01*
X004520Y031940D01*
X004520Y031917D01*
X004534Y031831D01*
X004560Y031749D01*
X004600Y031672D01*
X004650Y031602D01*
X004712Y031540D01*
X004782Y031490D01*
X004859Y031450D01*
X004941Y031424D01*
X005027Y031410D01*
X005050Y031410D01*
X005050Y031940D01*
X005050Y031980D01*
X005060Y031940D02*
X005060Y029420D01*
X005050Y029420D02*
X005050Y029950D01*
X005027Y029950D01*
X004941Y029936D01*
X004859Y029910D01*
X004782Y029870D01*
X004712Y029820D01*
X004650Y029758D01*
X004600Y029688D01*
X004560Y029611D01*
X004534Y029529D01*
X004520Y029443D01*
X004520Y029420D01*
X005050Y029420D01*
X005090Y029420D01*
X005090Y029950D01*
X005113Y029950D01*
X005199Y029936D01*
X005281Y029910D01*
X005358Y029870D01*
X005428Y029820D01*
X005490Y029758D01*
X005540Y029688D01*
X005580Y029611D01*
X005580Y029610D01*
X005580Y029678D01*
X005576Y029680D01*
X005410Y029846D01*
X005320Y030063D01*
X005320Y030297D01*
X005410Y030514D01*
X005576Y030680D01*
X005410Y030846D01*
X005320Y031063D01*
X005320Y031297D01*
X005410Y031514D01*
X005576Y031680D01*
X005793Y031770D01*
X006567Y031770D01*
X006784Y031680D01*
X006850Y031614D01*
X006850Y031642D01*
X007228Y031642D01*
X007228Y031718D01*
X006850Y031718D01*
X006850Y031940D01*
X006863Y031986D01*
X006886Y032027D01*
X006920Y032060D01*
X006961Y032084D01*
X007007Y032096D01*
X007229Y032096D01*
X007229Y031718D01*
X007305Y031718D01*
X007305Y032096D01*
X007527Y032096D01*
X007572Y032084D01*
X007579Y032080D01*
X007586Y032097D01*
X007676Y032188D01*
X007794Y032236D01*
X008393Y032236D01*
X008511Y032188D01*
X008601Y032097D01*
X008608Y032080D01*
X008580Y032118D02*
X008580Y032776D01*
X008260Y032776D02*
X008260Y032236D01*
X007940Y032236D02*
X007940Y032776D01*
X007620Y032776D02*
X007620Y032132D01*
X007305Y032080D02*
X007229Y032080D01*
X006980Y032089D02*
X006980Y032776D01*
X006660Y032776D02*
X006660Y031732D01*
X006591Y031760D02*
X006850Y031760D01*
X006980Y031718D02*
X006980Y031642D01*
X007229Y031760D02*
X007305Y031760D01*
X007300Y031718D02*
X007300Y032776D01*
X006954Y032080D02*
X005608Y032080D01*
X005380Y031980D02*
X005380Y031940D01*
X005583Y031760D02*
X005769Y031760D01*
X005700Y031732D02*
X005700Y032776D01*
X006020Y032776D02*
X006020Y031770D01*
X006340Y031770D02*
X006340Y032776D01*
X005090Y032400D02*
X005050Y032400D01*
X004740Y032400D02*
X004740Y032776D01*
X004420Y032776D02*
X004420Y028269D01*
X004446Y028260D02*
X004327Y028302D01*
X004203Y028330D01*
X004095Y028342D01*
X004095Y027299D01*
X003935Y027299D01*
X003935Y027139D01*
X004095Y027139D01*
X004095Y026096D01*
X004203Y026109D01*
X004327Y026137D01*
X004337Y026140D01*
X004316Y026120D01*
X004238Y026021D01*
X004170Y025914D01*
X004115Y025800D01*
X004109Y025783D01*
X004077Y025815D01*
X004000Y025871D01*
X003914Y025915D01*
X003823Y025944D01*
X003728Y025959D01*
X003698Y025959D01*
X003698Y025368D01*
X003662Y025368D01*
X003662Y025959D01*
X003632Y025959D01*
X003537Y025944D01*
X003446Y025915D01*
X003360Y025871D01*
X003283Y025815D01*
X003215Y025747D01*
X003158Y025669D01*
X003115Y025583D01*
X003085Y025492D01*
X003070Y025397D01*
X003070Y025368D01*
X003662Y025368D01*
X003662Y025331D01*
X003698Y025331D01*
X003698Y024739D01*
X003728Y024739D01*
X003823Y024754D01*
X003914Y024784D01*
X004000Y024828D01*
X004077Y024884D01*
X004121Y024927D01*
X004170Y024824D01*
X004238Y024717D01*
X004316Y024618D01*
X004405Y024530D01*
X004182Y024530D01*
X004105Y024607D01*
X003829Y024721D01*
X003531Y024721D01*
X003255Y024607D01*
X003044Y024396D01*
X002930Y024121D01*
X002930Y023822D01*
X003044Y023546D01*
X003080Y023511D01*
X003080Y022079D01*
X002679Y022079D01*
X002580Y022038D01*
X002580Y032223D01*
X002703Y032346D01*
X002600Y032097D01*
X002600Y031823D01*
X002705Y031569D01*
X002780Y031494D01*
X002780Y029866D01*
X002705Y029791D01*
X002600Y029537D01*
X002600Y029263D01*
X002705Y029009D01*
X002899Y028815D01*
X003153Y028710D01*
X003427Y028710D01*
X003681Y028815D01*
X003875Y029009D01*
X003980Y029263D01*
X003980Y029537D01*
X003875Y029791D01*
X003681Y029985D01*
X003580Y030027D01*
X003580Y031333D01*
X003681Y031375D01*
X003875Y031569D01*
X003980Y031823D01*
X003980Y032097D01*
X003875Y032351D01*
X003681Y032545D01*
X003427Y032650D01*
X003153Y032650D01*
X002904Y032547D01*
X003133Y032776D01*
X003140Y032776D02*
X003140Y032645D01*
X003460Y032636D02*
X003460Y032776D01*
X003780Y032776D02*
X003780Y032446D01*
X003826Y032400D02*
X004740Y032400D01*
X004532Y032080D02*
X003980Y032080D01*
X003954Y031760D02*
X004557Y031760D01*
X004740Y031940D02*
X004740Y031980D01*
X005050Y032080D02*
X005090Y032080D01*
X005090Y031760D02*
X005050Y031760D01*
X005050Y031440D02*
X005090Y031440D01*
X005249Y031440D02*
X005379Y031440D01*
X005380Y031442D02*
X005380Y031505D01*
X005320Y031120D02*
X003580Y031120D01*
X003580Y030800D02*
X005456Y030800D01*
X005380Y030918D02*
X005380Y030442D01*
X005396Y030480D02*
X003580Y030480D01*
X003580Y030160D02*
X005320Y030160D01*
X005380Y029918D02*
X005380Y029855D01*
X005400Y029840D02*
X005416Y029840D01*
X005090Y029840D02*
X005050Y029840D01*
X004740Y029840D02*
X004740Y031520D01*
X004891Y031440D02*
X003746Y031440D01*
X003780Y031474D02*
X003780Y029886D01*
X003826Y029840D02*
X004740Y029840D01*
X004532Y029520D02*
X003980Y029520D01*
X003954Y029200D02*
X004557Y029200D01*
X004560Y029189D02*
X004600Y029112D01*
X004650Y029042D01*
X004712Y028980D01*
X004782Y028930D01*
X004859Y028890D01*
X004941Y028864D01*
X005027Y028850D01*
X005050Y028850D01*
X005050Y029380D01*
X005090Y029380D01*
X005090Y028850D01*
X005113Y028850D01*
X005199Y028864D01*
X005281Y028890D01*
X005358Y028930D01*
X005428Y028980D01*
X005490Y029042D01*
X005540Y029112D01*
X005580Y029189D01*
X005580Y029190D01*
X005580Y028243D01*
X005561Y028232D01*
X005325Y027996D01*
X005159Y027708D01*
X005104Y027502D01*
X005097Y027531D01*
X005056Y027651D01*
X005001Y027764D01*
X004934Y027871D01*
X004855Y027970D01*
X004765Y028059D01*
X004667Y028138D01*
X004560Y028205D01*
X004446Y028260D01*
X004488Y028240D02*
X005576Y028240D01*
X005380Y028051D02*
X005380Y028945D01*
X005249Y028880D02*
X005580Y028880D01*
X005580Y028560D02*
X002580Y028560D01*
X002580Y028240D02*
X003541Y028240D01*
X003583Y028260D02*
X003470Y028205D01*
X003363Y028138D01*
X003264Y028059D01*
X003175Y027970D01*
X003096Y027871D01*
X003029Y027764D01*
X002974Y027651D01*
X002932Y027531D01*
X002904Y027408D01*
X002892Y027299D01*
X003935Y027299D01*
X003935Y028342D01*
X003826Y028330D01*
X003703Y028302D01*
X003583Y028260D01*
X003460Y028199D02*
X003460Y028724D01*
X003140Y028715D02*
X003140Y027927D01*
X003135Y027920D02*
X002580Y027920D01*
X002580Y027600D02*
X002956Y027600D01*
X003140Y027299D02*
X003140Y027139D01*
X002892Y027139D02*
X002904Y027031D01*
X002932Y026907D01*
X002974Y026788D01*
X003029Y026674D01*
X003096Y026567D01*
X003175Y026469D01*
X003264Y026379D01*
X003363Y026301D01*
X003470Y026233D01*
X003583Y026178D01*
X003703Y026137D01*
X003826Y026109D01*
X003935Y026096D01*
X003935Y027139D01*
X002892Y027139D01*
X002920Y026960D02*
X002580Y026960D01*
X002580Y026640D02*
X003050Y026640D01*
X003140Y026512D02*
X003140Y025633D01*
X003166Y025680D02*
X002580Y025680D01*
X002580Y025360D02*
X003662Y025360D01*
X003662Y025331D02*
X003070Y025331D01*
X003070Y025301D01*
X003085Y025206D01*
X003115Y025115D01*
X003158Y025030D01*
X003215Y024952D01*
X003283Y024884D01*
X003360Y024828D01*
X003446Y024784D01*
X003537Y024754D01*
X003632Y024739D01*
X003662Y024739D01*
X003662Y025331D01*
X003698Y025331D02*
X003698Y025368D01*
X004290Y025368D01*
X004290Y025397D01*
X004282Y025449D01*
X005076Y025449D01*
X005076Y025289D01*
X004288Y025289D01*
X004290Y025301D01*
X004290Y025331D01*
X003698Y025331D01*
X003698Y025360D02*
X005076Y025360D01*
X005060Y025289D02*
X005060Y025449D01*
X005076Y025449D02*
X005076Y026492D01*
X004968Y026480D01*
X004844Y026452D01*
X004834Y026448D01*
X004855Y026469D01*
X004934Y026567D01*
X005001Y026674D01*
X005056Y026788D01*
X005097Y026907D01*
X005104Y026936D01*
X005159Y026731D01*
X005301Y026485D01*
X005236Y026492D01*
X005236Y025449D01*
X005076Y025449D01*
X005236Y025449D02*
X005236Y025289D01*
X006279Y025289D01*
X006267Y025180D01*
X006239Y025057D01*
X006197Y024938D01*
X006142Y024824D01*
X006075Y024717D01*
X005996Y024618D01*
X005907Y024529D01*
X005808Y024450D01*
X005701Y024383D01*
X005588Y024328D01*
X005550Y024315D01*
X006106Y024315D01*
X006223Y024266D01*
X006313Y024176D01*
X006314Y024175D01*
X006526Y024175D01*
X006526Y023728D01*
X006622Y023728D01*
X006622Y024175D01*
X006853Y024175D01*
X006899Y024163D01*
X006940Y024139D01*
X006974Y024105D01*
X006997Y024064D01*
X007010Y024019D01*
X007010Y023788D01*
X007473Y024252D01*
X007608Y024387D01*
X007785Y024460D01*
X011696Y024460D01*
X011682Y024474D01*
X011682Y024612D01*
X011014Y025280D01*
X010780Y025280D01*
X010780Y025061D01*
X010689Y024840D01*
X010520Y024671D01*
X010299Y024580D01*
X006811Y024580D01*
X006590Y024671D01*
X006421Y024840D01*
X006330Y025061D01*
X006330Y025299D01*
X006421Y025520D01*
X006590Y025689D01*
X006811Y025780D01*
X008764Y025780D01*
X008322Y026222D01*
X008219Y026222D01*
X008180Y026238D01*
X008141Y026222D01*
X007719Y026222D01*
X007601Y026271D01*
X007511Y026361D01*
X007462Y026479D01*
X007462Y026638D01*
X007350Y026443D01*
X007114Y026207D01*
X006826Y026041D01*
X006504Y025954D01*
X006171Y025954D01*
X006106Y025972D01*
X006142Y025914D01*
X006197Y025800D01*
X006239Y025681D01*
X006267Y025558D01*
X006279Y025449D01*
X005236Y025449D01*
X005236Y025360D02*
X006355Y025360D01*
X006340Y025323D02*
X006340Y025954D01*
X006239Y025680D02*
X006581Y025680D01*
X006660Y025718D02*
X006660Y025996D01*
X006674Y026000D02*
X008544Y026000D01*
X008580Y025964D02*
X008580Y025780D01*
X008260Y025780D02*
X008260Y026222D01*
X007940Y026222D02*
X007940Y025780D01*
X007620Y025780D02*
X007620Y026263D01*
X007552Y026320D02*
X007227Y026320D01*
X007300Y026393D02*
X007300Y025780D01*
X006980Y025780D02*
X006980Y026130D01*
X007930Y026680D02*
X007930Y026759D01*
X007930Y027601D02*
X007930Y028680D01*
X008093Y028680D01*
X008430Y028180D02*
X008680Y028430D01*
X008680Y029680D01*
X008093Y029680D01*
X007280Y029124D02*
X007280Y028718D01*
X007229Y028718D01*
X007229Y029096D01*
X007007Y029096D01*
X006961Y029084D01*
X006920Y029060D01*
X006886Y029027D01*
X006863Y028986D01*
X006850Y028940D01*
X006850Y028718D01*
X007228Y028718D01*
X007228Y028642D01*
X006850Y028642D01*
X006850Y028420D01*
X006862Y028377D01*
X006826Y028398D01*
X006780Y028410D01*
X006780Y029242D01*
X006849Y029172D01*
X006967Y029124D01*
X007280Y029124D01*
X007280Y028880D02*
X007229Y028880D01*
X006980Y028718D02*
X006980Y028642D01*
X006850Y028560D02*
X006780Y028560D01*
X006780Y028880D02*
X006850Y028880D01*
X006980Y029089D02*
X006980Y029124D01*
X006822Y029200D02*
X006780Y029200D01*
X008430Y028180D02*
X008430Y027601D01*
X008930Y027601D02*
X008980Y027601D01*
X009180Y027180D02*
X008930Y026930D01*
X008930Y026759D01*
X010820Y025280D02*
X010820Y024460D01*
X010500Y024460D02*
X010500Y024663D01*
X010569Y024720D02*
X011574Y024720D01*
X011460Y024834D02*
X011460Y024460D01*
X011140Y024460D02*
X011140Y025154D01*
X011254Y025040D02*
X010771Y025040D01*
X010180Y024580D02*
X010180Y024460D01*
X009860Y024460D02*
X009860Y024580D01*
X009540Y024580D02*
X009540Y024460D01*
X009220Y024460D02*
X009220Y024580D01*
X008900Y024580D02*
X008900Y024460D01*
X008580Y024460D02*
X008580Y024580D01*
X008260Y024580D02*
X008260Y024460D01*
X007940Y024460D02*
X007940Y024580D01*
X007620Y024580D02*
X007620Y024392D01*
X007640Y024400D02*
X005729Y024400D01*
X005700Y024382D02*
X005700Y024315D01*
X006020Y024315D02*
X006020Y024648D01*
X006077Y024720D02*
X006541Y024720D01*
X006660Y024642D02*
X006660Y024175D01*
X006622Y024080D02*
X006526Y024080D01*
X006340Y024175D02*
X006340Y025037D01*
X006339Y025040D02*
X006233Y025040D01*
X006020Y025289D02*
X006020Y025449D01*
X005700Y025449D02*
X005700Y025289D01*
X005380Y025289D02*
X005380Y025449D01*
X005236Y025680D02*
X005076Y025680D01*
X005076Y026000D02*
X005236Y026000D01*
X005236Y026320D02*
X005076Y026320D01*
X005060Y026490D02*
X005060Y026801D01*
X004979Y026640D02*
X005211Y026640D01*
X005130Y027600D02*
X005073Y027600D01*
X005060Y027638D02*
X005060Y029380D01*
X005050Y029380D02*
X004520Y029380D01*
X004520Y029357D01*
X004534Y029271D01*
X004560Y029189D01*
X004740Y029380D02*
X004740Y029420D01*
X005050Y029420D02*
X005050Y029380D01*
X005050Y029520D02*
X005090Y029520D01*
X005090Y029200D02*
X005050Y029200D01*
X005050Y028880D02*
X005090Y028880D01*
X004891Y028880D02*
X003746Y028880D01*
X003780Y028914D02*
X003780Y028320D01*
X003935Y028240D02*
X004095Y028240D01*
X004100Y028342D02*
X004100Y032776D01*
X002967Y033176D02*
X040763Y033176D01*
X041550Y032389D01*
X041550Y002467D01*
X040763Y001680D01*
X002967Y001680D01*
X002180Y002467D01*
X002180Y032389D01*
X002967Y033176D01*
X002600Y032080D02*
X002580Y032080D01*
X002580Y031760D02*
X002626Y031760D01*
X002580Y031440D02*
X002780Y031440D01*
X002780Y031120D02*
X002580Y031120D01*
X002580Y030800D02*
X002780Y030800D01*
X002780Y030480D02*
X002580Y030480D01*
X002580Y030160D02*
X002780Y030160D01*
X002754Y029840D02*
X002580Y029840D01*
X002580Y029520D02*
X002600Y029520D01*
X002580Y029200D02*
X002626Y029200D01*
X002580Y028880D02*
X002834Y028880D01*
X002820Y028894D02*
X002820Y022079D01*
X002580Y022160D02*
X003080Y022160D01*
X003080Y022480D02*
X002580Y022480D01*
X002580Y022800D02*
X003080Y022800D01*
X003080Y023120D02*
X002580Y023120D01*
X002580Y023440D02*
X003080Y023440D01*
X002956Y023760D02*
X002580Y023760D01*
X002580Y024080D02*
X002930Y024080D01*
X003048Y024400D02*
X002580Y024400D01*
X002580Y024720D02*
X003528Y024720D01*
X003460Y024692D02*
X003460Y024779D01*
X003780Y024748D02*
X003780Y024721D01*
X003832Y024720D02*
X004236Y024720D01*
X004100Y024609D02*
X004100Y024907D01*
X003698Y025040D02*
X003662Y025040D01*
X003780Y025331D02*
X003780Y025368D01*
X003460Y025368D02*
X003460Y025331D01*
X003140Y025331D02*
X003140Y025368D01*
X003140Y025065D02*
X003140Y024492D01*
X003153Y025040D02*
X002580Y025040D01*
X003662Y025680D02*
X003698Y025680D01*
X003780Y025951D02*
X003780Y026119D01*
X003935Y026320D02*
X004095Y026320D01*
X004100Y026097D02*
X004100Y025792D01*
X004224Y026000D02*
X002580Y026000D01*
X002580Y026320D02*
X003338Y026320D01*
X003460Y026239D02*
X003460Y025919D01*
X004100Y025368D02*
X004100Y025331D01*
X004420Y025289D02*
X004420Y025449D01*
X004740Y025449D02*
X004740Y025289D01*
X004095Y026640D02*
X003935Y026640D01*
X003935Y026960D02*
X004095Y026960D01*
X003935Y027280D02*
X002580Y027280D01*
X003460Y027299D02*
X003460Y027139D01*
X003780Y027139D02*
X003780Y027299D01*
X003935Y027600D02*
X004095Y027600D01*
X004095Y027920D02*
X003935Y027920D01*
X004740Y028080D02*
X004740Y028960D01*
X004895Y027920D02*
X005281Y027920D01*
X003290Y029400D02*
X003180Y029430D01*
X003180Y031930D01*
X003290Y031960D01*
X008900Y032080D02*
X008900Y032776D01*
X009220Y032776D02*
X009220Y032080D01*
X009700Y032080D02*
X009860Y032080D01*
X013280Y030689D02*
X013280Y030671D01*
X013671Y030671D01*
X013671Y030689D01*
X013280Y030689D01*
X013380Y030689D02*
X013380Y030671D01*
X013280Y030483D02*
X013299Y030446D01*
X013340Y030390D01*
X013390Y030340D01*
X013446Y030299D01*
X013509Y030267D01*
X013576Y030245D01*
X013645Y030234D01*
X013671Y030234D01*
X013671Y030671D01*
X013689Y030671D01*
X013689Y030234D01*
X013715Y030234D01*
X013784Y030245D01*
X013851Y030267D01*
X013914Y030299D01*
X013970Y030340D01*
X014020Y030390D01*
X014020Y030100D01*
X014171Y030340D02*
X014340Y030171D01*
X014512Y030100D01*
X013716Y030100D01*
X013599Y030051D01*
X013509Y029961D01*
X013460Y029844D01*
X013460Y029080D01*
X013280Y029080D01*
X013280Y029561D01*
X013280Y029660D01*
X013287Y029759D01*
X013280Y029778D01*
X013280Y030483D01*
X013280Y030480D02*
X013282Y030480D01*
X013380Y030350D02*
X013380Y029080D01*
X013460Y029200D02*
X013280Y029200D01*
X013280Y029520D02*
X013460Y029520D01*
X013460Y029840D02*
X013280Y029840D01*
X013280Y030160D02*
X014368Y030160D01*
X014340Y030171D02*
X014340Y030100D01*
X014171Y030340D02*
X014097Y030520D01*
X014093Y030509D01*
X014061Y030446D01*
X014020Y030390D01*
X014078Y030480D02*
X014113Y030480D01*
X014020Y030671D02*
X014020Y030689D01*
X013700Y030671D02*
X013700Y030689D01*
X013689Y030800D02*
X013671Y030800D01*
X013671Y030480D02*
X013689Y030480D01*
X013700Y030234D02*
X013700Y030093D01*
X013671Y031120D02*
X013689Y031120D01*
X017530Y030093D02*
X017530Y029804D01*
X017546Y029788D01*
X017625Y029598D01*
X017703Y029788D01*
X017906Y029990D01*
X018171Y030100D01*
X018457Y030100D01*
X018722Y029990D01*
X018924Y029788D01*
X019034Y029523D01*
X019034Y029237D01*
X018969Y029080D01*
X018999Y029080D01*
X019220Y028989D01*
X019389Y028820D01*
X019729Y028480D01*
X020080Y028480D01*
X020080Y029299D01*
X020171Y029520D01*
X020340Y029689D01*
X020675Y030023D01*
X020895Y030115D01*
X021080Y030115D01*
X021080Y030702D01*
X021075Y030700D01*
X020126Y030700D01*
X020126Y030689D01*
X019689Y030689D01*
X019689Y030671D01*
X020126Y030671D01*
X020126Y030645D01*
X020115Y030576D01*
X020093Y030509D01*
X020061Y030446D01*
X020020Y030390D01*
X019970Y030340D01*
X019914Y030299D01*
X019851Y030267D01*
X019784Y030245D01*
X019715Y030234D01*
X019689Y030234D01*
X019689Y030671D01*
X019671Y030671D01*
X019266Y030671D01*
X019266Y030689D01*
X019671Y030689D01*
X019671Y030671D01*
X019671Y030234D01*
X019645Y030234D01*
X019576Y030245D01*
X019509Y030267D01*
X019446Y030299D01*
X019390Y030340D01*
X019340Y030390D01*
X019299Y030446D01*
X019267Y030509D01*
X019256Y030541D01*
X019177Y030348D01*
X019012Y030183D01*
X018797Y030094D01*
X018563Y030094D01*
X018348Y030183D01*
X018189Y030342D01*
X018189Y030340D01*
X018020Y030171D01*
X017799Y030080D01*
X017561Y030080D01*
X017530Y030093D01*
X017540Y030089D02*
X017540Y029794D01*
X017530Y029840D02*
X017756Y029840D01*
X017860Y029944D02*
X017860Y030105D01*
X017992Y030160D02*
X018405Y030160D01*
X018500Y030121D02*
X018500Y030082D01*
X018180Y030100D02*
X018180Y030331D01*
X018820Y030104D02*
X018820Y029892D01*
X018872Y029840D02*
X020491Y029840D01*
X020420Y029769D02*
X020420Y030700D01*
X020740Y030700D02*
X020740Y030050D01*
X021060Y030115D02*
X021060Y030700D01*
X021080Y030480D02*
X020078Y030480D01*
X020100Y030530D02*
X020100Y029348D01*
X020080Y029200D02*
X019019Y029200D01*
X019140Y029022D02*
X019140Y030312D01*
X019231Y030480D02*
X019282Y030480D01*
X019460Y030292D02*
X019460Y028749D01*
X019329Y028880D02*
X020080Y028880D01*
X020080Y028560D02*
X019649Y028560D01*
X019780Y028480D02*
X019780Y030245D01*
X019689Y030480D02*
X019671Y030480D01*
X019780Y030671D02*
X019780Y030689D01*
X019460Y030671D02*
X019460Y030689D01*
X020100Y030671D02*
X020100Y030689D01*
X021080Y030160D02*
X018955Y030160D01*
X019034Y029520D02*
X020171Y029520D01*
X021680Y028845D02*
X022245Y028845D01*
X022380Y028980D01*
X022380Y030380D01*
X022680Y030680D01*
X022689Y030689D02*
X022671Y030689D01*
X022671Y031126D01*
X022645Y031126D01*
X022576Y031115D01*
X022509Y031093D01*
X022446Y031061D01*
X022390Y031020D01*
X022340Y030970D01*
X022340Y032100D01*
X022020Y032100D02*
X022020Y031189D01*
X021799Y031280D01*
X021759Y031280D01*
X021787Y031308D01*
X021860Y031485D01*
X021860Y032100D01*
X023152Y032100D01*
X023112Y032060D01*
X023010Y031813D01*
X023010Y031547D01*
X023080Y031378D01*
X023080Y030877D01*
X023061Y030914D01*
X023020Y030970D01*
X022970Y031020D01*
X022914Y031061D01*
X022851Y031093D01*
X022784Y031115D01*
X022715Y031126D01*
X022689Y031126D01*
X022689Y030689D01*
X022689Y030671D02*
X022689Y030234D01*
X022715Y030234D01*
X022784Y030245D01*
X022851Y030267D01*
X022914Y030299D01*
X022970Y030340D01*
X023020Y030390D01*
X023061Y030446D01*
X023093Y030509D01*
X023097Y030520D01*
X023171Y030340D01*
X023340Y030171D01*
X023512Y030100D01*
X022716Y030100D01*
X022599Y030051D01*
X022509Y029961D01*
X022460Y029844D01*
X022460Y028916D01*
X022509Y028799D01*
X022599Y028709D01*
X022716Y028660D01*
X023644Y028660D01*
X023761Y028709D01*
X023851Y028799D01*
X023900Y028916D01*
X023900Y029087D01*
X023948Y028972D01*
X024074Y028846D01*
X023811Y028640D01*
X023777Y028626D01*
X023718Y028567D01*
X023653Y028516D01*
X023635Y028483D01*
X023608Y028457D01*
X023586Y028403D01*
X023399Y028480D01*
X022120Y028480D01*
X022143Y028520D01*
X022155Y028566D01*
X022155Y028797D01*
X021728Y028797D01*
X021728Y028893D01*
X022155Y028893D01*
X022155Y028987D01*
X022157Y028987D01*
X022247Y029077D01*
X022295Y029195D01*
X022295Y029834D01*
X022280Y029871D01*
X022280Y030483D01*
X022299Y030446D01*
X022340Y030390D01*
X022340Y028480D01*
X022154Y028560D02*
X023710Y028560D01*
X023620Y028469D02*
X023620Y028660D01*
X023300Y028660D02*
X023300Y028480D01*
X022980Y028480D02*
X022980Y028660D01*
X022660Y028683D02*
X022660Y028480D01*
X022475Y028880D02*
X021728Y028880D01*
X022020Y028893D02*
X022020Y028797D01*
X022295Y029200D02*
X022460Y029200D01*
X022460Y029520D02*
X022295Y029520D01*
X022293Y029840D02*
X022460Y029840D01*
X022660Y030077D02*
X022660Y030234D01*
X022671Y030234D02*
X022671Y030671D01*
X022689Y030671D01*
X022689Y030800D02*
X022671Y030800D01*
X022671Y030480D02*
X022689Y030480D01*
X022671Y030234D02*
X022645Y030234D01*
X022576Y030245D01*
X022509Y030267D01*
X022446Y030299D01*
X022390Y030340D01*
X022340Y030390D01*
X022282Y030480D02*
X022280Y030480D01*
X022280Y030160D02*
X023368Y030160D01*
X023300Y030211D02*
X023300Y030100D01*
X022980Y030100D02*
X022980Y030350D01*
X023078Y030480D02*
X023113Y030480D01*
X022980Y031010D02*
X022980Y032100D01*
X023132Y032080D02*
X021860Y032080D01*
X021860Y031760D02*
X023010Y031760D01*
X023054Y031440D02*
X021842Y031440D01*
X022020Y031189D02*
X022189Y031020D01*
X022263Y030840D01*
X022267Y030851D01*
X022299Y030914D01*
X022340Y030970D01*
X022089Y031120D02*
X022609Y031120D01*
X022660Y031126D02*
X022660Y032100D01*
X022671Y031120D02*
X022689Y031120D01*
X022751Y031120D02*
X023080Y031120D01*
X020780Y031780D02*
X020754Y031806D01*
X020180Y031806D01*
X019565Y031805D02*
X019218Y031805D01*
X019218Y031729D01*
X019565Y031729D01*
X019565Y031805D01*
X019565Y031760D02*
X019218Y031760D01*
X019460Y031729D02*
X019460Y031805D01*
X019180Y032593D02*
X019180Y032680D01*
X020180Y032680D01*
X020180Y032554D01*
X023940Y028990D02*
X023940Y028741D01*
X023885Y028880D02*
X024040Y028880D01*
X025126Y027880D02*
X025126Y027460D01*
X025374Y027460D01*
X025374Y027603D01*
X026166Y027603D01*
X026166Y027757D01*
X025374Y027757D01*
X025374Y027880D01*
X025126Y027880D01*
X025220Y027880D02*
X025220Y027460D01*
X025126Y027600D02*
X025374Y027600D01*
X025540Y027603D02*
X025540Y027757D01*
X025860Y027757D02*
X025860Y027603D01*
X026320Y027603D02*
X026320Y027757D01*
X027112Y027757D01*
X027112Y027880D01*
X029431Y027880D01*
X029682Y027630D01*
X029321Y027630D01*
X029203Y027581D01*
X029113Y027491D01*
X029101Y027460D01*
X027112Y027460D01*
X027112Y027603D01*
X026320Y027603D01*
X026500Y027603D02*
X026500Y027757D01*
X026820Y027757D02*
X026820Y027603D01*
X027112Y027600D02*
X029249Y027600D01*
X029380Y027630D02*
X029380Y027880D01*
X029060Y027880D02*
X029060Y027460D01*
X028740Y027460D02*
X028740Y027880D01*
X028420Y027880D02*
X028420Y027460D01*
X028100Y027460D02*
X028100Y027880D01*
X027780Y027880D02*
X027780Y027460D01*
X027460Y027460D02*
X027460Y027880D01*
X027140Y027880D02*
X027140Y027460D01*
X027969Y029080D02*
X028034Y029237D01*
X028034Y029523D01*
X027924Y029788D01*
X027722Y029990D01*
X027457Y030100D01*
X027171Y030100D01*
X026906Y029990D01*
X026703Y029788D01*
X026625Y029598D01*
X026546Y029788D01*
X026344Y029990D01*
X026079Y030100D01*
X025848Y030100D01*
X026020Y030171D01*
X026180Y030331D01*
X026180Y030058D01*
X026340Y030171D02*
X026180Y030331D01*
X026340Y030171D02*
X026561Y030080D01*
X026799Y030080D01*
X027020Y030171D01*
X027189Y030340D01*
X027189Y030342D01*
X027348Y030183D01*
X027563Y030094D01*
X027797Y030094D01*
X028012Y030183D01*
X028177Y030348D01*
X028256Y030541D01*
X028267Y030509D01*
X028299Y030446D01*
X028340Y030390D01*
X028390Y030340D01*
X028446Y030299D01*
X028509Y030267D01*
X028576Y030245D01*
X028645Y030234D01*
X028671Y030234D01*
X028671Y030671D01*
X028689Y030671D01*
X028689Y030689D01*
X029126Y030689D01*
X029126Y030715D01*
X029115Y030784D01*
X029110Y030800D01*
X030080Y030800D01*
X030080Y030799D01*
X030080Y030115D01*
X029895Y030115D01*
X029675Y030023D01*
X029340Y029689D01*
X029171Y029520D01*
X029080Y029299D01*
X029080Y029080D01*
X027969Y029080D01*
X028019Y029200D02*
X029080Y029200D01*
X029060Y029080D02*
X029060Y030445D01*
X029061Y030446D02*
X029093Y030509D01*
X029115Y030576D01*
X029126Y030645D01*
X029126Y030671D01*
X028689Y030671D01*
X028689Y030234D01*
X028715Y030234D01*
X028784Y030245D01*
X028851Y030267D01*
X028914Y030299D01*
X028970Y030340D01*
X029020Y030390D01*
X029061Y030446D01*
X029078Y030480D02*
X030080Y030480D01*
X030080Y030160D02*
X027955Y030160D01*
X028100Y030272D02*
X028100Y029080D01*
X028420Y029080D02*
X028420Y030318D01*
X028282Y030480D02*
X028231Y030480D01*
X028671Y030480D02*
X028689Y030480D01*
X028740Y030671D02*
X028740Y030689D01*
X029060Y030671D02*
X029060Y030689D01*
X029380Y030800D02*
X029380Y029729D01*
X029491Y029840D02*
X027872Y029840D01*
X027780Y029932D02*
X027780Y030094D01*
X027460Y030099D02*
X027460Y030137D01*
X027405Y030160D02*
X026992Y030160D01*
X027140Y030087D02*
X027140Y030291D01*
X026820Y030089D02*
X026820Y029904D01*
X026756Y029840D02*
X026494Y029840D01*
X026500Y029834D02*
X026500Y030105D01*
X026368Y030160D02*
X025992Y030160D01*
X025860Y030105D02*
X025860Y030100D01*
X028034Y029520D02*
X029171Y029520D01*
X028740Y029080D02*
X028740Y030238D01*
X029700Y030034D02*
X029700Y030800D01*
X030020Y030800D02*
X030020Y030115D01*
X028680Y031680D02*
X028593Y031767D01*
X028180Y031767D01*
X028218Y031760D02*
X029065Y031760D01*
X028375Y031760D01*
X028218Y031760D01*
X028218Y031805D01*
X028596Y031805D01*
X028596Y032027D01*
X028584Y032072D01*
X028580Y032079D01*
X028597Y032086D01*
X028688Y032176D01*
X028695Y032193D01*
X029082Y032193D01*
X029087Y032180D01*
X029065Y032126D01*
X029065Y031760D01*
X029060Y031760D02*
X029060Y032193D01*
X029065Y032080D02*
X028583Y032080D01*
X028740Y032193D02*
X028740Y031760D01*
X028420Y031760D02*
X028420Y031805D01*
X028180Y032593D02*
X029641Y032593D01*
X029680Y032554D01*
X029680Y031806D02*
X030354Y031806D01*
X030380Y031780D01*
X028180Y032593D02*
X028180Y032680D01*
X034180Y027757D02*
X034180Y027603D01*
X034500Y027603D02*
X034500Y027757D01*
X034612Y027600D02*
X037682Y027600D01*
X037700Y027456D02*
X037700Y026830D01*
X037380Y026830D02*
X037380Y030350D01*
X037282Y030480D02*
X037231Y030480D01*
X037060Y030232D02*
X037060Y026830D01*
X037876Y027280D02*
X034591Y027280D01*
X034500Y027197D02*
X034500Y026830D01*
X034180Y026830D02*
X034180Y027185D01*
X033860Y027185D02*
X033860Y026830D01*
X033540Y026830D02*
X033540Y027185D01*
X033666Y027280D02*
X033820Y027280D01*
X033220Y027185D02*
X033220Y026830D01*
X034820Y026830D02*
X034820Y028660D01*
X035140Y028685D02*
X035140Y026830D01*
X037700Y027904D02*
X037700Y030234D01*
X037780Y030160D02*
X036955Y030160D01*
X036740Y030094D02*
X036740Y029972D01*
X036872Y029840D02*
X037780Y029840D01*
X037780Y029520D02*
X037034Y029520D01*
X037019Y029200D02*
X037780Y029200D01*
X038580Y029957D02*
X038580Y031247D01*
X038657Y031279D01*
X038747Y031369D01*
X038795Y031486D01*
X038795Y032126D01*
X038773Y032180D01*
X038795Y032234D01*
X038795Y032776D01*
X040597Y032776D01*
X041150Y032223D01*
X041150Y030389D01*
X040800Y030739D01*
X040800Y030937D01*
X040437Y031300D01*
X039923Y031300D01*
X039581Y030958D01*
X039379Y031160D01*
X039200Y031160D01*
X039200Y030700D01*
X039160Y030700D01*
X039160Y031160D01*
X038981Y031160D01*
X038700Y030879D01*
X038700Y030700D01*
X039160Y030700D01*
X039160Y030660D01*
X038700Y030660D01*
X038700Y030481D01*
X038902Y030279D01*
X038580Y029957D01*
X038660Y030037D02*
X038660Y031282D01*
X038580Y031120D02*
X038941Y031120D01*
X038980Y031159D02*
X038980Y032776D01*
X038795Y032720D02*
X040653Y032720D01*
X040580Y032776D02*
X040580Y031157D01*
X040617Y031120D02*
X041150Y031120D01*
X041150Y030800D02*
X040800Y030800D01*
X040900Y030639D02*
X040900Y032473D01*
X040973Y032400D02*
X038795Y032400D01*
X038795Y032080D02*
X041150Y032080D01*
X041150Y031760D02*
X038795Y031760D01*
X038776Y031440D02*
X041150Y031440D01*
X040260Y031300D02*
X040260Y032776D01*
X039940Y032776D02*
X039940Y031300D01*
X039743Y031120D02*
X039419Y031120D01*
X039300Y031160D02*
X039300Y032776D01*
X039620Y032776D02*
X039620Y030997D01*
X039200Y031120D02*
X039160Y031120D01*
X039160Y030800D02*
X039200Y030800D01*
X038980Y030700D02*
X038980Y030660D01*
X038700Y030800D02*
X038580Y030800D01*
X038580Y030480D02*
X038701Y030480D01*
X038783Y030160D02*
X038580Y030160D01*
X037689Y030480D02*
X037671Y030480D01*
X037671Y030689D02*
X037671Y031126D01*
X037645Y031126D01*
X037576Y031115D01*
X037509Y031093D01*
X037446Y031061D01*
X037390Y031020D01*
X037340Y030970D01*
X037299Y030914D01*
X037267Y030851D01*
X037256Y030819D01*
X037177Y031012D01*
X037160Y031028D01*
X037160Y031175D01*
X037088Y031350D01*
X037142Y031350D01*
X037142Y031728D01*
X037218Y031728D01*
X037218Y031350D01*
X037440Y031350D01*
X037486Y031363D01*
X037527Y031386D01*
X037560Y031420D01*
X037579Y031452D01*
X037613Y031369D01*
X037703Y031279D01*
X037780Y031247D01*
X037780Y031115D01*
X037715Y031126D01*
X037689Y031126D01*
X037689Y030689D01*
X037671Y030689D01*
X037671Y030800D02*
X037689Y030800D01*
X037671Y031120D02*
X037689Y031120D01*
X037700Y031126D02*
X037700Y031282D01*
X037751Y031120D02*
X037780Y031120D01*
X037609Y031120D02*
X037160Y031120D01*
X037380Y031010D02*
X037380Y031350D01*
X037218Y031440D02*
X037142Y031440D01*
X037572Y031440D02*
X037584Y031440D01*
X038180Y031806D02*
X038180Y027680D01*
X038020Y027182D02*
X038020Y026830D01*
X038065Y026960D02*
X030330Y026960D01*
X029930Y026930D02*
X029680Y026930D01*
X029680Y027054D01*
X029580Y026980D01*
X030680Y025680D02*
X031430Y026430D01*
X038680Y026430D01*
X038680Y026306D01*
X038680Y026930D02*
X038680Y027054D01*
X035780Y029864D02*
X035780Y030094D01*
X035955Y030160D02*
X036405Y030160D01*
X036420Y030154D02*
X036420Y030100D01*
X036100Y030071D02*
X036100Y030272D01*
X035756Y029840D02*
X035494Y029840D01*
X035460Y029874D02*
X035460Y030137D01*
X035405Y030160D02*
X034955Y030160D01*
X034820Y030104D02*
X034820Y030100D01*
X035140Y030075D02*
X035140Y030312D01*
X037180Y032593D02*
X037180Y032680D01*
X038180Y032680D01*
X038180Y032554D01*
X041059Y030480D02*
X041150Y030480D01*
X030340Y023600D02*
X030340Y023406D01*
X030374Y023440D02*
X008019Y023440D01*
X007940Y023361D02*
X007940Y023117D01*
X008086Y023117D02*
X008086Y022657D01*
X008546Y022657D01*
X008546Y022836D01*
X008265Y023117D01*
X008086Y023117D01*
X008260Y023117D02*
X008260Y023500D01*
X008580Y023500D02*
X008580Y021999D01*
X008419Y022160D02*
X008864Y022160D01*
X008867Y022157D02*
X008586Y022438D01*
X008586Y022617D01*
X009046Y022617D01*
X009046Y022657D01*
X009046Y023117D01*
X008867Y023117D01*
X008586Y022836D01*
X008586Y022657D01*
X009046Y022657D01*
X009086Y022657D01*
X009086Y023117D01*
X009265Y023117D01*
X009546Y022836D01*
X009546Y022657D01*
X009086Y022657D01*
X009086Y022617D01*
X009546Y022617D01*
X009546Y022438D01*
X009265Y022157D01*
X009086Y022157D01*
X009086Y022617D01*
X009046Y022617D01*
X009046Y022157D01*
X008867Y022157D01*
X008900Y022157D02*
X008900Y022117D01*
X009046Y022160D02*
X009086Y022160D01*
X009086Y022117D02*
X009086Y021657D01*
X009546Y021657D01*
X009546Y021836D01*
X009265Y022117D01*
X009086Y022117D01*
X009220Y022117D02*
X009220Y022157D01*
X009268Y022160D02*
X011190Y022160D01*
X011140Y022110D02*
X011140Y023500D01*
X010820Y023500D02*
X010820Y020580D01*
X010500Y020580D02*
X010500Y023500D01*
X010180Y023500D02*
X010180Y020746D01*
X009860Y020830D02*
X009860Y023500D01*
X009540Y023500D02*
X009540Y022841D01*
X009546Y022800D02*
X011682Y022800D01*
X011780Y022984D02*
X011780Y023500D01*
X011460Y023500D02*
X011460Y022295D01*
X011682Y022480D02*
X009546Y022480D01*
X009540Y022432D02*
X009540Y021841D01*
X009541Y021840D02*
X010980Y021840D01*
X010980Y021520D02*
X009546Y021520D01*
X009540Y021432D02*
X009540Y020841D01*
X009086Y021520D02*
X009046Y021520D01*
X009220Y021617D02*
X009220Y021657D01*
X009086Y021840D02*
X009046Y021840D01*
X009540Y021657D02*
X009540Y021617D01*
X009086Y022480D02*
X009046Y022480D01*
X008900Y022617D02*
X008900Y022657D01*
X009046Y022800D02*
X009086Y022800D01*
X009220Y022657D02*
X009220Y022617D01*
X009540Y022617D02*
X009540Y022657D01*
X009220Y023117D02*
X009220Y023500D01*
X008900Y023500D02*
X008900Y023117D01*
X008586Y022800D02*
X008546Y022800D01*
X008260Y022657D02*
X008260Y022617D01*
X008086Y022800D02*
X008046Y022800D01*
X007699Y023120D02*
X011916Y023120D01*
X012100Y023178D02*
X012100Y023500D01*
X011780Y022376D02*
X011780Y022263D01*
X011970Y022160D02*
X012134Y022160D01*
X012100Y022182D02*
X012100Y022030D01*
X012562Y021520D02*
X012598Y021520D01*
X012740Y021232D02*
X012740Y020580D01*
X013060Y020580D02*
X013060Y021330D01*
X012420Y021232D02*
X012420Y020580D01*
X010820Y019530D02*
X010820Y019386D01*
X010714Y019280D02*
X009946Y019280D01*
X009860Y019366D02*
X009860Y019490D01*
X009480Y019180D02*
X009780Y018880D01*
X009780Y017980D01*
X010580Y017180D01*
X017680Y017180D01*
X018500Y017080D02*
X018500Y018530D01*
X019780Y018530D02*
X019780Y014246D01*
X019866Y014160D02*
X036694Y014160D01*
X036740Y014206D02*
X036740Y017280D01*
X036420Y017280D02*
X036420Y013886D01*
X036374Y013840D02*
X025056Y013840D01*
X024900Y013880D02*
X024900Y017030D01*
X024580Y017030D02*
X024580Y013880D01*
X024260Y013880D02*
X024260Y017030D01*
X023940Y017030D02*
X023940Y013880D01*
X022980Y013880D02*
X022980Y017663D01*
X022832Y017663D02*
X022832Y017765D01*
X022832Y017765D01*
X022832Y017663D01*
X022832Y017680D02*
X022832Y017680D01*
X022832Y017832D02*
X022680Y017680D01*
X022660Y017663D02*
X022660Y013880D01*
X021930Y012930D02*
X009430Y012930D01*
X009180Y012680D01*
X009066Y012637D01*
X008680Y013180D02*
X015680Y013180D01*
X018180Y015680D01*
X018180Y016180D02*
X015930Y013930D01*
X009680Y013930D01*
X009676Y014370D02*
X009686Y014380D01*
X009686Y014894D01*
X009344Y015236D01*
X009546Y015438D01*
X009546Y015617D01*
X009086Y015617D01*
X009086Y015657D01*
X009046Y015657D01*
X009046Y016117D01*
X008867Y016117D01*
X008680Y015930D01*
X008680Y016344D01*
X008867Y016157D01*
X009046Y016157D01*
X009046Y016617D01*
X009086Y016617D01*
X009086Y016157D01*
X009265Y016157D01*
X009546Y016438D01*
X009546Y016490D01*
X009862Y016490D01*
X010083Y016711D01*
X010453Y016341D01*
X010600Y016280D01*
X017714Y016280D01*
X015764Y014330D01*
X009902Y014330D01*
X009862Y014370D01*
X009676Y014370D01*
X009686Y014480D02*
X015914Y014480D01*
X015940Y014506D02*
X015940Y016280D01*
X015620Y016280D02*
X015620Y014330D01*
X015300Y014330D02*
X015300Y016280D01*
X014980Y016280D02*
X014980Y014330D01*
X014660Y014330D02*
X014660Y016280D01*
X014340Y016280D02*
X014340Y014330D01*
X014020Y014330D02*
X014020Y016280D01*
X013700Y016280D02*
X013700Y014330D01*
X013380Y014330D02*
X013380Y016280D01*
X013060Y016280D02*
X013060Y014330D01*
X012740Y014330D02*
X012740Y016280D01*
X012420Y016280D02*
X012420Y014330D01*
X012100Y014330D02*
X012100Y016280D01*
X011780Y016280D02*
X011780Y014330D01*
X011460Y014330D02*
X011460Y016280D01*
X011140Y016280D02*
X011140Y014330D01*
X010820Y014330D02*
X010820Y016280D01*
X010500Y016322D02*
X010500Y014330D01*
X010180Y014330D02*
X010180Y016614D01*
X010394Y016400D02*
X009508Y016400D01*
X009540Y016432D02*
X009540Y015841D01*
X009546Y015836D02*
X009265Y016117D01*
X009086Y016117D01*
X009086Y015657D01*
X009546Y015657D01*
X009546Y015836D01*
X009546Y015760D02*
X017194Y015760D01*
X017220Y015786D02*
X017220Y016280D01*
X016900Y016280D02*
X016900Y015466D01*
X016874Y015440D02*
X009546Y015440D01*
X009540Y015432D02*
X009540Y015039D01*
X009459Y015120D02*
X016554Y015120D01*
X016580Y015146D02*
X016580Y016280D01*
X016260Y016280D02*
X016260Y014826D01*
X016234Y014800D02*
X009686Y014800D01*
X009860Y014370D02*
X009860Y016490D01*
X009301Y016080D02*
X017514Y016080D01*
X017540Y016106D02*
X017540Y016280D01*
X019580Y016080D02*
X033740Y016080D01*
X033860Y015878D02*
X033860Y013086D01*
X033689Y013200D02*
X035734Y013200D01*
X035780Y013246D02*
X035780Y017214D01*
X035606Y017040D02*
X036974Y017040D01*
X037060Y017126D02*
X037060Y017280D01*
X037180Y016680D02*
X037680Y017180D01*
X039680Y017180D01*
X040180Y017680D01*
X039180Y017680D02*
X035680Y017680D01*
X034180Y016180D01*
X034180Y015740D02*
X034180Y013086D01*
X034500Y013086D02*
X034500Y015878D01*
X034382Y015760D02*
X036780Y015760D01*
X036780Y015440D02*
X019580Y015440D01*
X019580Y015120D02*
X036780Y015120D01*
X036780Y014800D02*
X019580Y014800D01*
X019580Y014480D02*
X036780Y014480D01*
X037180Y014080D02*
X037180Y016680D01*
X036780Y016720D02*
X035286Y016720D01*
X035140Y016574D02*
X035140Y013086D01*
X034820Y013086D02*
X034820Y016254D01*
X034966Y016400D02*
X036780Y016400D01*
X036780Y016080D02*
X034646Y016080D01*
X033978Y015760D02*
X019580Y015760D01*
X022832Y017832D02*
X022832Y017912D01*
X022832Y018168D02*
X022930Y018180D01*
X029180Y018180D01*
X029430Y017930D01*
X029380Y017030D02*
X029380Y013372D01*
X029134Y013200D02*
X025726Y013200D01*
X025860Y013120D02*
X025860Y017030D01*
X025540Y017030D02*
X025540Y013386D01*
X025406Y013520D02*
X030652Y013520D01*
X030660Y013528D02*
X030660Y017030D01*
X030340Y017030D02*
X030340Y013380D01*
X030020Y013380D02*
X030020Y017030D01*
X029700Y017030D02*
X029700Y013380D01*
X029480Y012980D02*
X030990Y012980D01*
X031028Y012942D01*
X031526Y012880D02*
X032860Y012880D01*
X032883Y012936D02*
X032834Y012818D01*
X032834Y012553D01*
X032883Y012436D01*
X032973Y012346D01*
X032977Y012344D01*
X032984Y012320D01*
X032974Y012284D01*
X032974Y012192D01*
X033332Y012192D01*
X033332Y012192D01*
X032974Y012192D01*
X032974Y012099D01*
X032984Y012064D01*
X032974Y012029D01*
X032974Y011936D01*
X032974Y011920D02*
X031526Y011920D01*
X031526Y011600D02*
X032852Y011600D01*
X032900Y011691D02*
X032900Y012419D01*
X032834Y012560D02*
X031526Y012560D01*
X031526Y012240D02*
X032974Y012240D01*
X033220Y012192D02*
X033220Y012192D01*
X033540Y012192D02*
X033540Y012192D01*
X033689Y012240D02*
X035274Y012240D01*
X035140Y012286D02*
X035140Y012106D01*
X034954Y011920D02*
X034644Y011920D01*
X034500Y012064D02*
X034500Y012286D01*
X034180Y012286D02*
X034180Y012178D01*
X033860Y012286D02*
X033860Y012064D01*
X033716Y011920D02*
X033689Y011920D01*
X033540Y011936D02*
X033540Y011936D01*
X033924Y011424D02*
X034180Y011680D01*
X033924Y011424D02*
X033332Y011424D01*
X033332Y011168D02*
X034768Y011168D01*
X037780Y014180D01*
X038930Y014180D01*
X038340Y013780D02*
X038340Y012156D01*
X038424Y012240D02*
X036406Y012240D01*
X036420Y012254D02*
X036420Y010236D01*
X036504Y010320D02*
X031606Y010320D01*
X031619Y010307D02*
X031507Y010419D01*
X031507Y010419D01*
X031428Y010497D01*
X031428Y010614D01*
X031477Y010662D01*
X031526Y010960D02*
X032866Y010960D01*
X032900Y010901D02*
X032900Y008953D01*
X032883Y008936D02*
X032834Y008818D01*
X032834Y007036D01*
X032883Y006918D01*
X032973Y006828D01*
X032974Y006827D01*
X032974Y006820D01*
X032987Y006774D01*
X033010Y006733D01*
X033044Y006699D01*
X033085Y006676D01*
X033131Y006663D01*
X033332Y006663D01*
X033532Y006663D01*
X033578Y006676D01*
X033619Y006699D01*
X033653Y006733D01*
X033676Y006774D01*
X033678Y006780D01*
X036264Y006780D01*
X036464Y006580D01*
X032120Y006580D01*
X032120Y006862D01*
X032024Y006958D01*
X032319Y007253D01*
X032380Y007400D01*
X032380Y009460D01*
X032319Y009607D01*
X032207Y009719D01*
X031619Y010307D01*
X031619Y010307D01*
X031620Y010306D02*
X031620Y017030D01*
X031300Y017030D02*
X031300Y013574D01*
X031405Y013520D02*
X036054Y013520D01*
X036100Y013566D02*
X036100Y017280D01*
X035460Y016894D02*
X035460Y013086D01*
X035786Y012686D02*
X037180Y014080D01*
X037700Y013534D02*
X037700Y011516D01*
X037784Y011600D02*
X035766Y011600D01*
X035780Y011614D02*
X035780Y009596D01*
X035864Y009680D02*
X032246Y009680D01*
X032260Y009666D02*
X032260Y017030D01*
X032580Y017030D02*
X032580Y006580D01*
X032260Y006580D02*
X032260Y007194D01*
X032186Y007120D02*
X032834Y007120D01*
X032900Y006901D02*
X032900Y006580D01*
X032980Y006800D02*
X032120Y006800D01*
X031680Y006680D02*
X025480Y006680D01*
X025380Y006780D01*
X024880Y006780D01*
X024780Y006680D01*
X022832Y006680D01*
X022832Y006424D02*
X022680Y006430D01*
X025130Y006430D01*
X024780Y006180D02*
X022930Y006180D01*
X022832Y006168D01*
X022334Y006160D02*
X022120Y006160D01*
X022332Y006217D02*
X022334Y006215D01*
X022334Y005030D01*
X022383Y004912D01*
X022473Y004822D01*
X022591Y004773D01*
X023072Y004773D01*
X023190Y004822D01*
X023280Y004912D01*
X023329Y005030D01*
X023329Y005780D01*
X024614Y005780D01*
X024653Y005741D01*
X024800Y005680D01*
X025460Y005680D01*
X025607Y005741D01*
X025646Y005780D01*
X036708Y005780D01*
X036748Y005740D01*
X037112Y005740D01*
X037208Y005836D01*
X037530Y005514D01*
X037530Y004160D01*
X022120Y004160D01*
X022120Y006995D01*
X022334Y007011D01*
X022334Y006641D01*
X022313Y006590D01*
X022283Y006525D01*
X022283Y006517D01*
X022280Y006510D01*
X022280Y006438D01*
X022277Y006366D01*
X022280Y006359D01*
X022280Y006350D01*
X022307Y006284D01*
X022332Y006217D01*
X022280Y006480D02*
X022120Y006480D01*
X022120Y006800D02*
X022334Y006800D01*
X022832Y007192D02*
X023692Y007192D01*
X024180Y007680D01*
X028680Y007680D01*
X029180Y007180D01*
X029192Y007168D01*
X031028Y007168D01*
X031028Y006912D02*
X031180Y006930D01*
X031430Y006930D01*
X031980Y007480D01*
X031980Y009380D01*
X031280Y010080D01*
X031080Y009880D01*
X030780Y009880D01*
X030280Y009380D01*
X020480Y009380D01*
X019080Y008930D02*
X018930Y009080D01*
X019080Y008930D02*
X030930Y008930D01*
X031028Y008942D01*
X031028Y008686D02*
X030930Y008680D01*
X015180Y008680D01*
X014430Y009430D01*
X011180Y009430D01*
X010680Y008930D01*
X011180Y008930D02*
X013930Y008930D01*
X014680Y008180D01*
X030930Y008180D01*
X031028Y008192D01*
X031028Y008448D02*
X030930Y008430D01*
X014930Y008430D01*
X014430Y008930D01*
X013930Y008430D02*
X009180Y008430D01*
X009066Y008637D01*
X009066Y009637D02*
X009180Y009680D01*
X017680Y009680D01*
X019380Y007530D02*
X020171Y007530D01*
X020171Y007448D01*
X020528Y007448D01*
X020528Y007448D01*
X020171Y007448D01*
X020171Y007355D01*
X020178Y007330D01*
X019596Y007330D01*
X019519Y007407D01*
X019407Y007519D01*
X019380Y007530D01*
X019460Y007530D02*
X019460Y007466D01*
X019486Y007440D02*
X020171Y007440D01*
X020100Y007530D02*
X020100Y007330D01*
X019780Y007330D02*
X019780Y007530D01*
X019180Y007180D02*
X016680Y007180D01*
X017680Y006680D02*
X020528Y006680D01*
X020528Y006936D02*
X020430Y006930D01*
X019430Y006930D01*
X019180Y007180D01*
X019430Y006430D02*
X019180Y006180D01*
X016180Y006180D01*
X016260Y005740D02*
X016260Y004916D01*
X016296Y004880D02*
X021240Y004880D01*
X021240Y004560D02*
X016559Y004560D01*
X016580Y004510D02*
X016519Y004657D01*
X016407Y004769D01*
X016080Y005096D01*
X016080Y005740D01*
X016362Y005740D01*
X016402Y005780D01*
X019260Y005780D01*
X019407Y005841D01*
X019519Y005953D01*
X019596Y006030D01*
X020178Y006030D01*
X020171Y006005D01*
X020171Y005912D01*
X020171Y005820D01*
X020178Y005793D01*
X020171Y005767D01*
X020171Y005674D01*
X020171Y005581D01*
X020181Y005546D01*
X020171Y005511D01*
X020171Y005418D01*
X020171Y005326D01*
X020181Y005290D01*
X020171Y005255D01*
X020171Y005162D01*
X020171Y005070D01*
X020184Y005024D01*
X020207Y004983D01*
X020241Y004949D01*
X020282Y004926D01*
X020328Y004913D01*
X020528Y004913D01*
X020528Y005162D01*
X020171Y005162D01*
X020528Y005162D01*
X020528Y005162D01*
X020528Y005162D01*
X020528Y004913D01*
X020729Y004913D01*
X020775Y004926D01*
X020816Y004949D01*
X020850Y004983D01*
X020873Y005024D01*
X020886Y005070D01*
X020886Y005162D01*
X020528Y005162D01*
X020528Y005418D01*
X020171Y005418D01*
X020528Y005418D01*
X020528Y005418D01*
X020528Y005418D01*
X020528Y005411D01*
X020528Y005162D01*
X020528Y004832D01*
X019377Y003680D01*
X018680Y003680D01*
X018998Y003120D02*
X019069Y003144D01*
X019143Y003155D01*
X019162Y003155D01*
X019162Y002698D01*
X019162Y002662D01*
X018705Y002662D01*
X018705Y002643D01*
X018716Y002569D01*
X018719Y002560D01*
X018641Y002560D01*
X018644Y002569D01*
X018655Y002643D01*
X018655Y002662D01*
X018198Y002662D01*
X018198Y002698D01*
X018162Y002698D01*
X018162Y003155D01*
X018143Y003155D01*
X018069Y003144D01*
X017998Y003120D01*
X017931Y003086D01*
X017870Y003043D01*
X017817Y002990D01*
X017774Y002929D01*
X017757Y002896D01*
X017702Y003029D01*
X017529Y003202D01*
X017302Y003295D01*
X017058Y003295D01*
X016831Y003202D01*
X016680Y003050D01*
X016580Y003150D01*
X016580Y005780D01*
X016900Y005780D02*
X016900Y003230D01*
X017021Y003280D02*
X016580Y003280D01*
X016580Y003150D02*
X016580Y004510D01*
X016580Y004240D02*
X021240Y004240D01*
X021240Y003920D02*
X016580Y003920D01*
X016580Y003600D02*
X021021Y003600D01*
X021060Y003639D02*
X021060Y007530D01*
X020886Y007530D02*
X021408Y007530D01*
X021307Y007429D01*
X021240Y007268D01*
X021240Y003819D01*
X020908Y003487D01*
X020773Y003352D01*
X020700Y003175D01*
X020700Y003030D01*
X020529Y003202D01*
X020302Y003295D01*
X020058Y003295D01*
X019831Y003202D01*
X019658Y003029D01*
X019603Y002896D01*
X019586Y002929D01*
X019543Y002990D01*
X019490Y003043D01*
X019429Y003086D01*
X019362Y003120D01*
X019291Y003144D01*
X019217Y003155D01*
X019198Y003155D01*
X019198Y002698D01*
X019162Y002698D01*
X018705Y002698D01*
X018705Y002717D01*
X018716Y002791D01*
X018740Y002862D01*
X018774Y002929D01*
X018817Y002990D01*
X018870Y003043D01*
X018931Y003086D01*
X018998Y003120D01*
X019140Y003155D02*
X019140Y005780D01*
X019404Y005840D02*
X020171Y005840D01*
X020171Y005912D02*
X020288Y005912D01*
X020288Y005912D01*
X020171Y005912D01*
X020100Y006030D02*
X020100Y003295D01*
X020021Y003280D02*
X017339Y003280D01*
X017220Y003295D02*
X017220Y005780D01*
X017540Y005780D02*
X017540Y003190D01*
X017730Y002960D02*
X017796Y002960D01*
X017860Y003032D02*
X017860Y005780D01*
X018180Y005780D02*
X018180Y002698D01*
X018198Y002698D02*
X018198Y003155D01*
X018217Y003155D01*
X018291Y003144D01*
X018362Y003120D01*
X018429Y003086D01*
X018490Y003043D01*
X018543Y002990D01*
X018586Y002929D01*
X018620Y002862D01*
X018644Y002791D01*
X018655Y002717D01*
X018655Y002698D01*
X018198Y002698D01*
X018198Y002960D02*
X018162Y002960D01*
X018500Y003032D02*
X018500Y005780D01*
X018820Y005780D02*
X018820Y002992D01*
X018796Y002960D02*
X018564Y002960D01*
X018500Y002698D02*
X018500Y002662D01*
X018655Y002640D02*
X018705Y002640D01*
X018820Y002662D02*
X018820Y002698D01*
X019140Y002698D02*
X019140Y002662D01*
X019162Y002960D02*
X019198Y002960D01*
X019460Y003064D02*
X019460Y005894D01*
X019780Y006030D02*
X019780Y003150D01*
X019630Y002960D02*
X019564Y002960D01*
X020339Y003280D02*
X020743Y003280D01*
X020740Y003272D02*
X020740Y004916D01*
X020740Y005162D02*
X020740Y005162D01*
X020886Y005162D02*
X020528Y005162D01*
X020528Y005162D01*
X020528Y005162D01*
X020528Y005418D01*
X020528Y005667D01*
X020528Y005674D01*
X020528Y005674D01*
X020528Y005912D01*
X020528Y005912D01*
X020528Y005674D01*
X020528Y005674D01*
X020528Y005912D01*
X020528Y006168D01*
X020528Y006424D02*
X020430Y006430D01*
X019430Y006430D01*
X020171Y005674D02*
X020288Y005674D01*
X020171Y005674D01*
X020288Y005674D02*
X020288Y005674D01*
X020174Y005520D02*
X016080Y005520D01*
X016080Y005200D02*
X020171Y005200D01*
X020420Y005162D02*
X020420Y005162D01*
X020528Y005200D02*
X020528Y005200D01*
X020528Y005418D02*
X020528Y005418D01*
X020528Y005418D01*
X020528Y005674D01*
X020528Y005418D01*
X020886Y005418D01*
X020886Y005326D01*
X020876Y005290D01*
X020886Y005255D01*
X020886Y005162D01*
X020886Y005200D02*
X021240Y005200D01*
X021240Y005520D02*
X020883Y005520D01*
X020886Y005511D02*
X020876Y005546D01*
X020886Y005581D01*
X020886Y005674D01*
X020769Y005674D01*
X020769Y005674D01*
X020886Y005674D01*
X020886Y005767D01*
X020878Y005793D01*
X020886Y005820D01*
X020886Y005912D01*
X020769Y005912D01*
X020886Y005912D01*
X020886Y006005D01*
X020876Y006040D01*
X020886Y006076D01*
X020886Y006083D01*
X020887Y006084D01*
X020977Y006174D01*
X021026Y006292D01*
X021026Y007068D01*
X020977Y007186D01*
X020887Y007276D01*
X020886Y007277D01*
X020886Y007284D01*
X020876Y007320D01*
X020886Y007355D01*
X020886Y007448D01*
X020886Y007530D01*
X020886Y007448D02*
X020528Y007448D01*
X020528Y007192D01*
X020528Y007448D02*
X020528Y007448D01*
X020761Y007680D01*
X024180Y007680D01*
X024260Y007530D02*
X024260Y007080D01*
X023940Y007080D02*
X023940Y007530D01*
X023620Y007530D02*
X023620Y007080D01*
X023324Y007080D02*
X023280Y007186D01*
X023274Y007192D01*
X023280Y007198D01*
X023329Y007315D01*
X023329Y007387D01*
X023338Y007437D01*
X023329Y007479D01*
X023329Y007530D01*
X029990Y007530D01*
X029990Y007248D01*
X030158Y007080D01*
X025646Y007080D01*
X025607Y007119D01*
X025460Y007180D01*
X024800Y007180D01*
X024653Y007119D01*
X024614Y007080D01*
X023324Y007080D01*
X023307Y007120D02*
X024656Y007120D01*
X024580Y007080D02*
X024580Y007530D01*
X024900Y007530D02*
X024900Y007180D01*
X025220Y007180D02*
X025220Y007530D01*
X025540Y007530D02*
X025540Y007147D01*
X025604Y007120D02*
X030118Y007120D01*
X030020Y007080D02*
X030020Y007218D01*
X029990Y007440D02*
X023337Y007440D01*
X023300Y007246D02*
X023300Y007138D01*
X022930Y007430D02*
X022832Y007448D01*
X021899Y007380D01*
X021880Y007380D01*
X021680Y007180D01*
X021380Y007502D02*
X021380Y007530D01*
X021318Y007440D02*
X020886Y007440D01*
X020886Y007448D02*
X020528Y007448D01*
X020420Y007448D02*
X020420Y007448D01*
X020740Y007448D02*
X020740Y007448D01*
X021004Y007120D02*
X021240Y007120D01*
X021240Y006800D02*
X021026Y006800D01*
X021026Y006480D02*
X021240Y006480D01*
X021240Y006160D02*
X020963Y006160D01*
X020769Y005912D02*
X020769Y005912D01*
X020886Y005840D02*
X021240Y005840D01*
X020886Y005511D02*
X020886Y005418D01*
X020528Y005418D01*
X020528Y005520D02*
X020528Y005520D01*
X020420Y005418D02*
X020420Y005418D01*
X020740Y005418D02*
X020740Y005418D01*
X020528Y005840D02*
X020528Y005840D01*
X020420Y004913D02*
X020420Y003247D01*
X022120Y004240D02*
X037530Y004240D01*
X037380Y004160D02*
X037380Y005664D01*
X037524Y005520D02*
X023329Y005520D01*
X023329Y005200D02*
X037530Y005200D01*
X037530Y004880D02*
X023248Y004880D01*
X023300Y004960D02*
X023300Y004160D01*
X023620Y004160D02*
X023620Y005780D01*
X023940Y005780D02*
X023940Y004160D01*
X024260Y004160D02*
X024260Y005780D01*
X024580Y005780D02*
X024580Y004160D01*
X024900Y004160D02*
X024900Y005680D01*
X025220Y005680D02*
X025220Y004160D01*
X025540Y004160D02*
X025540Y005713D01*
X025860Y005780D02*
X025860Y004160D01*
X026180Y004160D02*
X026180Y005780D01*
X026500Y005780D02*
X026500Y004160D01*
X026820Y004160D02*
X026820Y005780D01*
X027140Y005780D02*
X027140Y004160D01*
X027460Y004160D02*
X027460Y005780D01*
X027780Y005780D02*
X027780Y004160D01*
X028100Y004160D02*
X028100Y005780D01*
X028420Y005780D02*
X028420Y004160D01*
X028740Y004160D02*
X028740Y005780D01*
X029060Y005780D02*
X029060Y004160D01*
X029380Y004160D02*
X029380Y005780D01*
X029700Y005780D02*
X029700Y004160D01*
X030020Y004160D02*
X030020Y005780D01*
X030340Y005780D02*
X030340Y004160D01*
X030660Y004160D02*
X030660Y005780D01*
X030980Y005780D02*
X030980Y004160D01*
X031300Y004160D02*
X031300Y005780D01*
X031620Y005780D02*
X031620Y004160D01*
X031940Y004160D02*
X031940Y005780D01*
X032260Y005780D02*
X032260Y004160D01*
X032580Y004160D02*
X032580Y005780D01*
X032900Y005780D02*
X032900Y004160D01*
X033220Y004160D02*
X033220Y005780D01*
X033540Y005780D02*
X033540Y004160D01*
X033860Y004160D02*
X033860Y005780D01*
X034180Y005780D02*
X034180Y004160D01*
X034500Y004160D02*
X034500Y005780D01*
X034820Y005780D02*
X034820Y004160D01*
X035140Y004160D02*
X035140Y005780D01*
X035460Y005780D02*
X035460Y004160D01*
X035780Y004160D02*
X035780Y005780D01*
X036100Y005780D02*
X036100Y004160D01*
X036420Y004160D02*
X036420Y005780D01*
X036740Y005748D02*
X036740Y004160D01*
X037060Y004160D02*
X037060Y005740D01*
X036930Y006180D02*
X025480Y006180D01*
X025380Y006080D01*
X024880Y006080D01*
X024780Y006180D01*
X025860Y007080D02*
X025860Y007530D01*
X026180Y007530D02*
X026180Y007080D01*
X026500Y007080D02*
X026500Y007530D01*
X026820Y007530D02*
X026820Y007080D01*
X027140Y007080D02*
X027140Y007530D01*
X027460Y007530D02*
X027460Y007080D01*
X027780Y007080D02*
X027780Y007530D01*
X028100Y007530D02*
X028100Y007080D01*
X028420Y007080D02*
X028420Y007530D01*
X028740Y007530D02*
X028740Y007080D01*
X029060Y007080D02*
X029060Y007530D01*
X029380Y007530D02*
X029380Y007080D01*
X029700Y007080D02*
X029700Y007530D01*
X030430Y007430D02*
X030930Y007430D01*
X031028Y007424D01*
X031028Y007680D02*
X031430Y007680D01*
X031028Y007936D02*
X030930Y007930D01*
X010680Y007930D01*
X010380Y007630D01*
X009380Y007630D01*
X009066Y007637D01*
X009180Y006680D02*
X009066Y006637D01*
X009180Y006680D02*
X011430Y006680D01*
X012180Y007430D01*
X012680Y006180D02*
X012845Y006180D01*
X012680Y006180D02*
X012330Y005830D01*
X010080Y005830D01*
X009430Y005180D01*
X008680Y005180D01*
X008180Y004680D01*
X008066Y004637D01*
X007680Y004180D02*
X007180Y004680D01*
X007180Y017430D01*
X007930Y017430D01*
X008066Y017637D01*
X008680Y017344D02*
X008867Y017157D01*
X009046Y017157D01*
X009046Y017617D01*
X009086Y017617D01*
X009086Y017157D01*
X009265Y017157D01*
X009451Y017343D01*
X009461Y017333D01*
X009244Y017117D01*
X009086Y017117D01*
X009086Y016657D01*
X009046Y016657D01*
X009046Y017117D01*
X008867Y017117D01*
X008680Y016930D01*
X008680Y017344D01*
X008900Y017157D02*
X008900Y017117D01*
X008790Y017040D02*
X008680Y017040D01*
X009046Y017040D02*
X009086Y017040D01*
X009220Y017117D02*
X009220Y017157D01*
X009086Y017360D02*
X009046Y017360D01*
X009046Y016720D02*
X009086Y016720D01*
X009086Y016400D02*
X009046Y016400D01*
X008900Y016157D02*
X008900Y016117D01*
X008830Y016080D02*
X008680Y016080D01*
X009046Y016080D02*
X009086Y016080D01*
X009220Y016117D02*
X009220Y016157D01*
X009086Y015760D02*
X009046Y015760D01*
X009220Y015657D02*
X009220Y015617D01*
X009540Y015617D02*
X009540Y015657D01*
X011180Y017680D02*
X012430Y018930D01*
X020430Y018930D01*
X020528Y018936D01*
X020528Y018680D02*
X021180Y018680D01*
X022180Y019430D02*
X022680Y019430D01*
X022832Y019448D01*
X022832Y019192D02*
X022930Y019180D01*
X023430Y019180D01*
X023180Y018930D02*
X023430Y018680D01*
X038430Y018680D01*
X038930Y019180D01*
X038680Y019430D02*
X038930Y019680D01*
X039180Y019680D01*
X038680Y019430D02*
X024930Y019430D01*
X024680Y019180D01*
X023180Y018930D02*
X022930Y018930D01*
X022832Y018936D01*
X022832Y018680D02*
X022430Y018680D01*
X022832Y018424D02*
X022930Y018430D01*
X038930Y018430D01*
X039180Y018680D01*
X033540Y017030D02*
X033540Y013445D01*
X033332Y013447D02*
X033332Y013198D01*
X033332Y012942D01*
X033332Y013198D02*
X032974Y013198D01*
X033332Y013198D01*
X033332Y013198D01*
X033332Y013200D02*
X033332Y013200D01*
X033220Y013198D02*
X033220Y013198D01*
X032974Y013198D02*
X032974Y013290D01*
X032987Y013336D01*
X033010Y013377D01*
X033044Y013411D01*
X033085Y013434D01*
X033131Y013447D01*
X033332Y013447D01*
X033220Y013447D02*
X033220Y017030D01*
X032900Y017030D02*
X032900Y012953D01*
X032883Y012936D02*
X032973Y013026D01*
X032974Y013027D01*
X032974Y013034D01*
X032984Y013070D01*
X032974Y013105D01*
X032974Y013198D01*
X032974Y013200D02*
X031526Y013200D01*
X030980Y013587D02*
X030980Y017030D01*
X031940Y017030D02*
X031940Y009986D01*
X031926Y010000D02*
X036184Y010000D01*
X036100Y009916D02*
X036100Y011934D01*
X036086Y011920D02*
X038104Y011920D01*
X038020Y011836D02*
X038020Y013780D01*
X037686Y013520D02*
X038580Y013520D01*
X039680Y013180D02*
X040930Y013180D01*
X040930Y004680D01*
X040430Y004180D01*
X037930Y004180D01*
X037930Y005680D01*
X036430Y007180D01*
X033430Y007180D01*
X033332Y007168D01*
X033332Y006912D02*
X033948Y006912D01*
X034180Y006680D01*
X034180Y006580D02*
X034180Y006780D01*
X033860Y006780D02*
X033860Y006580D01*
X033540Y006580D02*
X033540Y006665D01*
X033332Y006663D02*
X033332Y006765D01*
X033332Y006765D01*
X033332Y006663D01*
X033220Y006663D02*
X033220Y006580D01*
X033332Y007424D02*
X033430Y007430D01*
X036680Y007430D01*
X038930Y005180D01*
X040430Y005180D01*
X040680Y005430D01*
X040680Y012180D01*
X039930Y012180D01*
X039430Y011680D01*
X039180Y011680D01*
X038930Y011180D02*
X036180Y008430D01*
X033430Y008430D01*
X033332Y008448D01*
X033332Y008686D02*
X033430Y008680D01*
X035430Y008680D01*
X036930Y007680D02*
X038930Y005680D01*
X039180Y005680D01*
X038930Y006180D02*
X037180Y007930D01*
X033430Y007930D01*
X033332Y007936D01*
X033332Y008192D02*
X033430Y008180D01*
X037430Y008180D01*
X038430Y007180D01*
X039680Y007180D01*
X040180Y006680D01*
X039680Y006180D02*
X040180Y005680D01*
X039680Y006180D02*
X038930Y006180D01*
X038330Y005214D02*
X038703Y004841D01*
X038729Y004830D01*
X038716Y004791D01*
X038705Y004717D01*
X038705Y004698D01*
X039162Y004698D01*
X039162Y004662D01*
X038705Y004662D01*
X038705Y004643D01*
X038715Y004580D01*
X038330Y004580D01*
X038330Y005214D01*
X038340Y005204D02*
X038340Y004580D01*
X038330Y004880D02*
X038664Y004880D01*
X038660Y004884D02*
X038660Y004580D01*
X038980Y004662D02*
X038980Y004698D01*
X039198Y004698D02*
X039655Y004698D01*
X039655Y004717D01*
X039645Y004780D01*
X039715Y004780D01*
X039705Y004717D01*
X039705Y004698D01*
X040162Y004698D01*
X040162Y004662D01*
X039705Y004662D01*
X039705Y004643D01*
X039715Y004580D01*
X039645Y004580D01*
X039655Y004643D01*
X039655Y004662D01*
X039198Y004662D01*
X039198Y004698D01*
X039300Y004698D02*
X039300Y004662D01*
X039620Y004662D02*
X039620Y004698D01*
X039940Y004698D02*
X039940Y004662D01*
X038344Y005200D02*
X038330Y005200D01*
X037530Y004560D02*
X022120Y004560D01*
X022120Y004880D02*
X022415Y004880D01*
X022340Y005016D02*
X022340Y004160D01*
X022660Y004160D02*
X022660Y004773D01*
X022980Y004773D02*
X022980Y004160D01*
X022334Y005200D02*
X022120Y005200D01*
X022120Y005520D02*
X022334Y005520D01*
X022334Y005840D02*
X022120Y005840D01*
X016180Y004430D02*
X016180Y002680D01*
X015780Y003150D02*
X015680Y003050D01*
X015529Y003202D01*
X015302Y003295D01*
X015058Y003295D01*
X014831Y003202D01*
X014660Y003030D01*
X014660Y004278D01*
X014661Y004282D01*
X014661Y005078D01*
X014613Y005196D01*
X014523Y005286D01*
X014405Y005335D01*
X014400Y005335D01*
X014630Y005565D01*
X015165Y005565D01*
X015180Y005571D01*
X015195Y005565D01*
X015280Y005565D01*
X015280Y004850D01*
X015341Y004703D01*
X015780Y004264D01*
X015780Y003150D01*
X015780Y003280D02*
X015339Y003280D01*
X015300Y003295D02*
X015300Y004802D01*
X015280Y004880D02*
X014661Y004880D01*
X014660Y005082D02*
X014660Y005565D01*
X014586Y005520D02*
X015280Y005520D01*
X014980Y005565D02*
X014980Y003263D01*
X015021Y003280D02*
X014660Y003280D01*
X014660Y003030D02*
X014660Y004278D01*
X014660Y004240D02*
X015780Y004240D01*
X015620Y004424D02*
X015620Y003110D01*
X015780Y003600D02*
X014660Y003600D01*
X014660Y003920D02*
X015780Y003920D01*
X016180Y004430D02*
X015680Y004930D01*
X015680Y006180D01*
X015515Y006180D01*
X015680Y006180D02*
X015180Y006680D01*
X014180Y006680D01*
X013680Y006180D01*
X013515Y006180D01*
X013880Y005380D02*
X010880Y005380D01*
X009680Y004180D01*
X007680Y004180D01*
X007552Y003887D02*
X007526Y003860D01*
X007526Y003413D01*
X007571Y003368D01*
X007453Y003319D01*
X007214Y003080D01*
X006678Y003080D01*
X006612Y003239D01*
X006469Y003382D01*
X006281Y003460D01*
X006079Y003460D01*
X005891Y003382D01*
X005748Y003239D01*
X005680Y003076D01*
X005612Y003239D01*
X005469Y003382D01*
X005281Y003460D01*
X005080Y003460D01*
X005080Y004014D01*
X005691Y004625D01*
X006716Y004625D01*
X006804Y004662D01*
X006860Y004717D01*
X006860Y004616D01*
X006909Y004499D01*
X006999Y004409D01*
X007499Y003909D01*
X007552Y003887D01*
X007522Y003899D02*
X005080Y003899D01*
X005080Y003741D02*
X007526Y003741D01*
X007526Y003582D02*
X005080Y003582D01*
X005370Y003424D02*
X005990Y003424D01*
X005774Y003265D02*
X005586Y003265D01*
X005667Y003107D02*
X005693Y003107D01*
X005180Y002680D02*
X005180Y002080D01*
X005380Y001980D01*
X006480Y001980D01*
X006880Y002280D01*
X007480Y002280D01*
X007780Y002580D01*
X009980Y002580D01*
X010880Y003480D01*
X012806Y003480D01*
X012322Y002960D02*
X010926Y002960D01*
X010820Y002854D02*
X010820Y002080D01*
X010500Y002080D02*
X010500Y002534D01*
X010606Y002640D02*
X012350Y002640D01*
X012350Y002642D02*
X012350Y002420D01*
X012363Y002374D01*
X012386Y002333D01*
X012420Y002300D01*
X012461Y002276D01*
X012507Y002264D01*
X012729Y002264D01*
X012729Y002642D01*
X012805Y002642D01*
X012805Y002264D01*
X013027Y002264D01*
X013072Y002276D01*
X013079Y002280D01*
X013086Y002263D01*
X013176Y002172D01*
X013294Y002124D01*
X013807Y002124D01*
X013851Y002080D01*
X008680Y002080D01*
X008680Y002180D01*
X010060Y002180D01*
X010207Y002241D01*
X011046Y003080D01*
X012247Y003080D01*
X012279Y003003D01*
X012350Y002932D01*
X012350Y002718D01*
X012728Y002718D01*
X012728Y002642D01*
X012350Y002642D01*
X012420Y002642D02*
X012420Y002718D01*
X012729Y002640D02*
X012805Y002640D01*
X012767Y002680D02*
X011680Y003080D01*
X011780Y003080D02*
X011780Y002080D01*
X011460Y002080D02*
X011460Y003080D01*
X011140Y003080D02*
X011140Y002080D01*
X010286Y002320D02*
X012400Y002320D01*
X012420Y002300D02*
X012420Y002080D01*
X012100Y002080D02*
X012100Y003080D01*
X012740Y002642D02*
X012740Y002080D01*
X012729Y002320D02*
X012805Y002320D01*
X013060Y002273D02*
X013060Y002080D01*
X013380Y002080D02*
X013380Y002124D01*
X013700Y002124D02*
X013700Y002080D01*
X013593Y002680D02*
X013554Y002719D01*
X011699Y004877D02*
X011231Y004410D01*
X010476Y004410D01*
X011046Y004980D01*
X011699Y004980D01*
X011699Y004877D01*
X011699Y004880D02*
X010946Y004880D01*
X010820Y004754D02*
X010820Y004410D01*
X010626Y004560D02*
X011381Y004560D01*
X011460Y004639D02*
X011460Y004980D01*
X011140Y004980D02*
X011140Y004410D01*
X010500Y004410D02*
X010500Y004434D01*
X012180Y004680D02*
X012373Y004680D01*
X013880Y005380D02*
X014680Y006180D01*
X014845Y006180D01*
X014609Y005200D02*
X015280Y005200D01*
X015484Y004560D02*
X014661Y004560D01*
X014180Y004680D02*
X013987Y004680D01*
X010180Y002230D02*
X010180Y002080D01*
X009860Y002080D02*
X009860Y002180D01*
X009540Y002180D02*
X009540Y002080D01*
X009220Y002080D02*
X009220Y002180D01*
X008900Y002180D02*
X008900Y002080D01*
X009430Y002930D02*
X009380Y002980D01*
X007526Y003424D02*
X006370Y003424D01*
X006586Y003265D02*
X007399Y003265D01*
X007241Y003107D02*
X006667Y003107D01*
X007350Y004058D02*
X005123Y004058D01*
X005282Y004216D02*
X007191Y004216D01*
X007033Y004375D02*
X005440Y004375D01*
X005599Y004533D02*
X006895Y004533D01*
X006860Y004692D02*
X006834Y004692D01*
X006860Y005643D02*
X006860Y008394D01*
X006858Y008392D01*
X006711Y008331D01*
X006554Y008331D01*
X006554Y008250D01*
X006517Y008162D01*
X006450Y008095D01*
X006399Y008074D01*
X006399Y005735D01*
X006716Y005735D01*
X006804Y005698D01*
X006860Y005643D01*
X006860Y005801D02*
X006399Y005801D01*
X006399Y005960D02*
X006860Y005960D01*
X006860Y006118D02*
X006399Y006118D01*
X006399Y006277D02*
X006860Y006277D01*
X006860Y006435D02*
X006399Y006435D01*
X006399Y006594D02*
X006860Y006594D01*
X006860Y006752D02*
X006399Y006752D01*
X006399Y006911D02*
X006860Y006911D01*
X006860Y007069D02*
X006399Y007069D01*
X006399Y007228D02*
X006860Y007228D01*
X006860Y007386D02*
X006399Y007386D01*
X006399Y007545D02*
X006860Y007545D01*
X006860Y007703D02*
X006399Y007703D01*
X006399Y007862D02*
X006860Y007862D01*
X006860Y008020D02*
X006399Y008020D01*
X006524Y008179D02*
X006860Y008179D01*
X006860Y008337D02*
X006725Y008337D01*
X005599Y008074D02*
X005599Y005735D01*
X005046Y005735D01*
X004957Y005698D01*
X004890Y005631D01*
X004853Y005543D01*
X004853Y004919D01*
X004453Y004519D01*
X004341Y004407D01*
X004280Y004260D01*
X004280Y003235D01*
X003770Y003235D01*
X003682Y003198D01*
X003634Y003150D01*
X003612Y003163D01*
X003566Y003175D01*
X003334Y003175D01*
X003334Y002728D01*
X003238Y002728D01*
X003238Y002632D01*
X003334Y002632D01*
X003334Y002185D01*
X003566Y002185D01*
X003612Y002197D01*
X003634Y002210D01*
X003682Y002162D01*
X003334Y002314D02*
X003238Y002314D01*
X003238Y002473D02*
X003334Y002473D01*
X003334Y002631D02*
X003238Y002631D01*
X003238Y002728D02*
X002850Y002728D01*
X002850Y003019D01*
X002863Y003064D01*
X002886Y003105D01*
X002920Y003139D01*
X002961Y003163D01*
X003007Y003175D01*
X003238Y003175D01*
X003238Y002728D01*
X003238Y002790D02*
X003334Y002790D01*
X003334Y002948D02*
X003238Y002948D01*
X003238Y003107D02*
X003334Y003107D01*
X002887Y003107D02*
X002500Y003107D01*
X002500Y003265D02*
X004280Y003265D01*
X004280Y003424D02*
X002500Y003424D01*
X002500Y003582D02*
X004280Y003582D01*
X004280Y003741D02*
X002500Y003741D01*
X002500Y003899D02*
X004280Y003899D01*
X004280Y004058D02*
X002500Y004058D01*
X002500Y004216D02*
X004280Y004216D01*
X004328Y004375D02*
X002500Y004375D01*
X002500Y004533D02*
X004467Y004533D01*
X004453Y004519D02*
X004453Y004519D01*
X004336Y004697D02*
X004377Y004721D01*
X004411Y004755D01*
X004434Y004796D01*
X004447Y004841D01*
X004447Y005103D01*
X003557Y005103D01*
X003557Y005257D01*
X004447Y005257D01*
X004447Y005519D01*
X004434Y005564D01*
X004411Y005605D01*
X004377Y005639D01*
X004336Y005663D01*
X004290Y005675D01*
X003557Y005675D01*
X003557Y005257D01*
X003402Y005257D01*
X003402Y005103D01*
X002512Y005103D01*
X002512Y004841D01*
X002524Y004796D01*
X002548Y004755D01*
X002581Y004721D01*
X002622Y004697D01*
X002668Y004685D01*
X003402Y004685D01*
X003402Y005103D01*
X003557Y005103D01*
X003557Y004685D01*
X004290Y004685D01*
X004336Y004697D01*
X004314Y004692D02*
X004626Y004692D01*
X004784Y004850D02*
X004447Y004850D01*
X004447Y005009D02*
X004853Y005009D01*
X004853Y005167D02*
X003557Y005167D01*
X003402Y005167D02*
X002500Y005167D01*
X002512Y005257D02*
X003402Y005257D01*
X003402Y005675D01*
X002668Y005675D01*
X002622Y005663D01*
X002581Y005639D01*
X002548Y005605D01*
X002524Y005564D01*
X002512Y005519D01*
X002512Y005257D01*
X002512Y005326D02*
X002500Y005326D01*
X002500Y005484D02*
X002512Y005484D01*
X002500Y005643D02*
X002587Y005643D01*
X002500Y005801D02*
X005599Y005801D01*
X005599Y005960D02*
X002500Y005960D01*
X002500Y006118D02*
X005599Y006118D01*
X005599Y006277D02*
X002500Y006277D01*
X002500Y006435D02*
X005599Y006435D01*
X005599Y006594D02*
X002500Y006594D01*
X002500Y006752D02*
X005599Y006752D01*
X005599Y006911D02*
X002500Y006911D01*
X002500Y007069D02*
X005599Y007069D01*
X005599Y007228D02*
X002500Y007228D01*
X002500Y007386D02*
X005599Y007386D01*
X005599Y007545D02*
X002500Y007545D01*
X002500Y007703D02*
X005599Y007703D01*
X005599Y007862D02*
X002500Y007862D01*
X002500Y008020D02*
X005599Y008020D01*
X005599Y008074D02*
X005548Y008095D01*
X005480Y008162D01*
X005444Y008250D01*
X005444Y009212D01*
X005480Y009300D01*
X005548Y009368D01*
X005636Y009404D01*
X006362Y009404D01*
X006450Y009368D01*
X006517Y009300D01*
X006554Y009212D01*
X006554Y009161D01*
X006600Y009180D01*
X006760Y009180D01*
X006808Y009160D01*
X006837Y009160D01*
X006858Y009139D01*
X006860Y009138D01*
X006860Y013300D01*
X006715Y013300D01*
X006715Y013211D01*
X006702Y013180D01*
X006715Y013149D01*
X006715Y012542D01*
X006680Y012457D01*
X006680Y012100D01*
X006660Y012052D01*
X006660Y012023D01*
X006639Y012002D01*
X006619Y011953D01*
X006507Y011841D01*
X006458Y011821D01*
X006437Y011800D01*
X006408Y011800D01*
X006360Y011780D01*
X006200Y011780D01*
X006152Y011800D01*
X006123Y011800D01*
X006102Y011821D01*
X006053Y011841D01*
X005941Y011953D01*
X005921Y012002D01*
X005900Y012023D01*
X005900Y012052D01*
X005880Y012100D01*
X005880Y012349D01*
X005837Y012349D01*
X005749Y012386D01*
X005681Y012453D01*
X005647Y012536D01*
X005643Y012520D01*
X005619Y012479D01*
X005586Y012445D01*
X005545Y012422D01*
X005499Y012409D01*
X005228Y012409D01*
X005228Y012797D01*
X005132Y012797D01*
X005132Y012409D01*
X004861Y012409D01*
X004815Y012422D01*
X004774Y012445D01*
X004741Y012479D01*
X004717Y012520D01*
X004705Y012566D01*
X004705Y012797D01*
X005132Y012797D01*
X005132Y012893D01*
X004705Y012893D01*
X004705Y013099D01*
X004681Y013123D01*
X004645Y013211D01*
X004645Y013818D01*
X004681Y013906D01*
X004749Y013974D01*
X004812Y014000D01*
X004760Y014000D01*
X004760Y015100D01*
X004760Y015260D01*
X005032Y015260D01*
X005065Y015180D01*
X005032Y015100D01*
X004760Y015100D01*
X004600Y015100D01*
X004600Y014000D01*
X004156Y014000D01*
X004111Y014012D01*
X004069Y014036D01*
X004036Y014069D01*
X004012Y014111D01*
X004007Y014132D01*
X003656Y014132D01*
X003656Y014430D01*
X003656Y014360D02*
X003656Y014360D01*
X003656Y014202D02*
X003656Y014202D01*
X004062Y014043D02*
X003080Y014043D01*
X003080Y013885D02*
X004672Y013885D01*
X004645Y013726D02*
X003080Y013726D01*
X003080Y013568D02*
X004645Y013568D01*
X004645Y013409D02*
X003080Y013409D01*
X003080Y013251D02*
X004645Y013251D01*
X004705Y013092D02*
X003080Y013092D01*
X003080Y012934D02*
X004705Y012934D01*
X004705Y012775D02*
X003080Y012775D01*
X003080Y012617D02*
X004705Y012617D01*
X004762Y012458D02*
X003939Y012458D01*
X004060Y012300D02*
X005880Y012300D01*
X005880Y012141D02*
X004060Y012141D01*
X004081Y011983D02*
X005929Y011983D01*
X006094Y011824D02*
X004135Y011824D01*
X004480Y012380D02*
X004480Y012880D01*
X005145Y012880D01*
X005180Y012845D01*
X005132Y012775D02*
X005228Y012775D01*
X005228Y012617D02*
X005132Y012617D01*
X005132Y012458D02*
X005228Y012458D01*
X005598Y012458D02*
X005679Y012458D01*
X005850Y011754D02*
X005804Y011741D01*
X005763Y011718D01*
X005730Y011684D01*
X005706Y011643D01*
X005694Y011597D01*
X005694Y011260D01*
X006187Y011260D01*
X006187Y011100D01*
X005694Y011100D01*
X005694Y010763D01*
X005706Y010717D01*
X005730Y010676D01*
X005763Y010642D01*
X005804Y010619D01*
X005850Y010606D01*
X006187Y010606D01*
X006187Y011100D01*
X006347Y011100D01*
X006347Y010606D01*
X006685Y010606D01*
X006731Y010619D01*
X006772Y010642D01*
X006805Y010676D01*
X006829Y010717D01*
X006841Y010763D01*
X006841Y011100D01*
X006347Y011100D01*
X006347Y011260D01*
X006187Y011260D01*
X006187Y011754D01*
X005850Y011754D01*
X005719Y011666D02*
X005308Y011666D01*
X005326Y011507D02*
X005694Y011507D01*
X005694Y011349D02*
X005326Y011349D01*
X005326Y011190D02*
X006187Y011190D01*
X006187Y011032D02*
X006347Y011032D01*
X006347Y011190D02*
X006860Y011190D01*
X006841Y011260D02*
X006841Y011597D01*
X006829Y011643D01*
X006805Y011684D01*
X006772Y011718D01*
X006731Y011741D01*
X006685Y011754D01*
X006347Y011754D01*
X006347Y011260D01*
X006841Y011260D01*
X006841Y011349D02*
X006860Y011349D01*
X006860Y011507D02*
X006841Y011507D01*
X006816Y011666D02*
X006860Y011666D01*
X006860Y011824D02*
X006466Y011824D01*
X006347Y011666D02*
X006187Y011666D01*
X006187Y011507D02*
X006347Y011507D01*
X006347Y011349D02*
X006187Y011349D01*
X006187Y010873D02*
X006347Y010873D01*
X006347Y010715D02*
X006187Y010715D01*
X005707Y010715D02*
X005316Y010715D01*
X005326Y010873D02*
X005694Y010873D01*
X005694Y011032D02*
X005326Y011032D01*
X005157Y010556D02*
X006860Y010556D01*
X006860Y010398D02*
X004327Y010398D01*
X003980Y010239D02*
X006860Y010239D01*
X006860Y010081D02*
X003980Y010081D01*
X003980Y009922D02*
X006860Y009922D01*
X006860Y009764D02*
X003980Y009764D01*
X003980Y009605D02*
X006860Y009605D01*
X006860Y009447D02*
X003980Y009447D01*
X004003Y009288D02*
X005475Y009288D01*
X005444Y009130D02*
X004034Y009130D01*
X004034Y008971D02*
X005444Y008971D01*
X005444Y008813D02*
X004034Y008813D01*
X004034Y008654D02*
X005444Y008654D01*
X005444Y008496D02*
X004034Y008496D01*
X004034Y008337D02*
X005444Y008337D01*
X005474Y008179D02*
X004004Y008179D01*
X002954Y008179D02*
X002500Y008179D01*
X002500Y008337D02*
X002924Y008337D01*
X002924Y008496D02*
X002500Y008496D01*
X002500Y008654D02*
X002924Y008654D01*
X002924Y008813D02*
X002500Y008813D01*
X002500Y008971D02*
X002924Y008971D01*
X002924Y009130D02*
X002500Y009130D01*
X002500Y009288D02*
X002956Y009288D01*
X003180Y009447D02*
X002500Y009447D01*
X002500Y009605D02*
X003180Y009605D01*
X003180Y009764D02*
X002500Y009764D01*
X002500Y009922D02*
X003180Y009922D01*
X003180Y010081D02*
X002500Y010081D01*
X002500Y010239D02*
X003180Y010239D01*
X003060Y010398D02*
X002500Y010398D01*
X002500Y010556D02*
X002838Y010556D01*
X002680Y010715D02*
X002500Y010715D01*
X002500Y010873D02*
X002521Y010873D01*
X003080Y012141D02*
X003300Y012141D01*
X003300Y012300D02*
X003080Y012300D01*
X003080Y012458D02*
X003421Y012458D01*
X004480Y012880D02*
X004480Y013380D01*
X004480Y013880D01*
X004480Y014180D01*
X004480Y014380D01*
X004600Y014519D02*
X004760Y014519D01*
X004760Y014677D02*
X004600Y014677D01*
X004600Y014836D02*
X004760Y014836D01*
X004760Y014994D02*
X004600Y014994D01*
X004600Y015100D02*
X004328Y015100D01*
X004295Y015180D01*
X004328Y015260D01*
X004600Y015260D01*
X004600Y015100D01*
X004600Y015153D02*
X004306Y015153D01*
X004600Y015311D02*
X004760Y015311D01*
X004780Y015180D02*
X004980Y015380D01*
X004760Y015470D02*
X004600Y015470D01*
X004600Y015628D02*
X004760Y015628D01*
X004760Y015787D02*
X004600Y015787D01*
X004600Y015945D02*
X004760Y015945D01*
X004760Y016104D02*
X004600Y016104D01*
X004600Y016262D02*
X004760Y016262D01*
X004980Y016380D02*
X004980Y016880D01*
X004480Y016880D01*
X004480Y017380D02*
X003980Y017380D01*
X003480Y017380D01*
X003480Y017880D01*
X003980Y017880D01*
X003080Y017213D02*
X005020Y017213D01*
X005020Y017055D02*
X003080Y017055D01*
X003080Y016896D02*
X005020Y016896D01*
X005020Y016738D02*
X003960Y016738D01*
X004060Y016579D02*
X005032Y016579D01*
X005130Y016421D02*
X004060Y016421D01*
X003400Y016738D02*
X003080Y016738D01*
X003080Y016579D02*
X003300Y016579D01*
X003296Y016421D02*
X003080Y016421D01*
X003080Y016262D02*
X003113Y016262D01*
X004680Y015180D02*
X004780Y015180D01*
X004760Y015153D02*
X005054Y015153D01*
X004760Y014202D02*
X004600Y014202D01*
X004600Y014043D02*
X004760Y014043D01*
X006715Y013251D02*
X006860Y013251D01*
X006860Y013092D02*
X006715Y013092D01*
X006715Y012934D02*
X006860Y012934D01*
X006860Y012775D02*
X006715Y012775D01*
X006715Y012617D02*
X006860Y012617D01*
X006860Y012458D02*
X006681Y012458D01*
X006680Y012300D02*
X006860Y012300D01*
X006860Y012141D02*
X006680Y012141D01*
X006631Y011983D02*
X006860Y011983D01*
X007430Y011680D02*
X007430Y011180D01*
X007930Y010680D01*
X008066Y010637D01*
X008430Y011180D02*
X009780Y011180D01*
X009980Y010980D01*
X028480Y010980D01*
X028930Y011430D01*
X030984Y011430D01*
X031028Y011424D01*
X031040Y011180D02*
X031028Y011168D01*
X031040Y011180D02*
X031680Y011180D01*
X031780Y011080D01*
X032480Y011080D01*
X032480Y012080D01*
X032834Y011280D02*
X031521Y011280D01*
X031028Y010912D02*
X031028Y010332D01*
X031280Y010080D01*
X032380Y009360D02*
X033000Y009360D01*
X033010Y009377D02*
X032987Y009336D01*
X032974Y009290D01*
X032974Y009198D01*
X033332Y009198D01*
X033332Y009447D01*
X033131Y009447D01*
X033085Y009434D01*
X033044Y009411D01*
X033010Y009377D01*
X032974Y009198D02*
X032974Y009105D01*
X032984Y009070D01*
X032974Y009034D01*
X032974Y009027D01*
X032973Y009026D01*
X032883Y008936D01*
X032976Y009040D02*
X032380Y009040D01*
X032380Y008720D02*
X032834Y008720D01*
X032834Y008400D02*
X032380Y008400D01*
X032380Y008080D02*
X032834Y008080D01*
X032834Y007760D02*
X032380Y007760D01*
X032380Y007440D02*
X032834Y007440D01*
X033332Y007680D02*
X036930Y007680D01*
X036420Y006624D02*
X036420Y006580D01*
X036100Y006580D02*
X036100Y006780D01*
X035780Y006780D02*
X035780Y006580D01*
X035460Y006580D02*
X035460Y006780D01*
X035140Y006780D02*
X035140Y006580D01*
X034820Y006580D02*
X034820Y006780D01*
X034500Y006780D02*
X034500Y006580D01*
X033332Y009198D02*
X032974Y009198D01*
X033220Y009198D02*
X033220Y009198D01*
X033332Y009198D02*
X033332Y009198D01*
X033332Y009360D02*
X033332Y009360D01*
X033220Y009447D02*
X033220Y010663D01*
X033332Y010663D02*
X033332Y010768D01*
X033332Y010663D01*
X033332Y010768D02*
X033332Y010768D01*
X033332Y010912D02*
X032648Y010912D01*
X032480Y011080D01*
X033540Y010665D02*
X033540Y009445D01*
X034820Y011786D02*
X034820Y012286D01*
X035786Y012686D02*
X033332Y012686D01*
X033540Y013198D02*
X033540Y013198D01*
X031028Y011680D02*
X028680Y011680D01*
X028380Y011380D01*
X010280Y011380D01*
X009480Y012180D01*
X007930Y012180D01*
X007430Y011680D01*
X008066Y011637D02*
X008180Y011430D01*
X008430Y011180D01*
X009066Y010637D02*
X009280Y010430D01*
X013430Y010430D01*
X011180Y012180D02*
X026930Y012180D01*
X027370Y012240D02*
X028174Y012240D01*
X028100Y012166D02*
X028100Y017030D01*
X027780Y017030D02*
X027780Y012130D01*
X027460Y012130D02*
X027460Y017030D01*
X027140Y017030D02*
X027140Y012592D01*
X027172Y012560D02*
X028494Y012560D01*
X028420Y012486D02*
X028420Y017030D01*
X028740Y017030D02*
X028740Y012806D01*
X028814Y012880D02*
X026102Y012880D01*
X026500Y012580D02*
X026500Y017030D01*
X026820Y017030D02*
X026820Y012620D01*
X028230Y011730D02*
X029480Y012980D01*
X029060Y013126D02*
X029060Y017030D01*
X025220Y017030D02*
X025220Y013706D01*
X028230Y011730D02*
X010630Y011730D01*
X010180Y012180D01*
X008680Y013180D02*
X008180Y012680D01*
X008066Y012637D01*
X006860Y011032D02*
X006841Y011032D01*
X006841Y010873D02*
X006860Y010873D01*
X006860Y010715D02*
X006828Y010715D01*
X006860Y009288D02*
X006522Y009288D01*
X004902Y005643D02*
X004371Y005643D01*
X004447Y005484D02*
X004853Y005484D01*
X004853Y005326D02*
X004447Y005326D01*
X003557Y005326D02*
X003402Y005326D01*
X003402Y005484D02*
X003557Y005484D01*
X003557Y005643D02*
X003402Y005643D01*
X003402Y005009D02*
X003557Y005009D01*
X003557Y004850D02*
X003402Y004850D01*
X003402Y004692D02*
X003557Y004692D01*
X002644Y004692D02*
X002500Y004692D01*
X002500Y004850D02*
X002512Y004850D01*
X002500Y005009D02*
X002512Y005009D01*
X002500Y002948D02*
X002850Y002948D01*
X002850Y002790D02*
X002500Y002790D01*
X002500Y002631D02*
X002850Y002631D01*
X002850Y002473D02*
X002627Y002473D01*
X004074Y002680D02*
X004180Y002680D01*
X004451Y002156D02*
X004733Y002156D01*
X005680Y005180D02*
X005881Y005180D01*
X006632Y017689D02*
X006728Y017689D01*
X006728Y017847D02*
X006632Y017847D01*
X005572Y018481D02*
X005540Y018481D01*
X005485Y018634D02*
X005485Y018634D01*
X007070Y019274D02*
X007110Y019274D01*
X007110Y019432D02*
X007070Y019432D01*
X007050Y019591D02*
X007150Y019591D01*
X007364Y019749D02*
X003200Y019749D01*
X003200Y019908D02*
X003429Y019908D01*
X003499Y019908D02*
X007443Y019908D01*
X007320Y020066D02*
X003806Y020066D01*
X003939Y020225D02*
X007320Y020225D01*
X007374Y020383D02*
X004118Y020383D01*
X004185Y020542D02*
X007526Y020542D01*
X007526Y020700D02*
X004206Y020700D01*
X004200Y020859D02*
X007526Y020859D01*
X007682Y021017D02*
X006862Y021017D01*
X006899Y021176D02*
X007763Y021176D01*
X007605Y021334D02*
X006899Y021334D01*
X006899Y021651D02*
X007443Y021651D01*
X007301Y021680D02*
X006908Y022073D01*
X006773Y022208D01*
X006700Y022385D01*
X006700Y023185D01*
X006622Y023185D01*
X006622Y023632D01*
X006526Y023632D01*
X006526Y023185D01*
X006314Y023185D01*
X006313Y023184D01*
X006223Y023094D01*
X006106Y023045D01*
X005467Y023045D01*
X005382Y023080D01*
X005061Y023080D01*
X004840Y023171D01*
X004681Y023330D01*
X004280Y023330D01*
X004280Y022079D01*
X004381Y022079D01*
X004499Y022030D01*
X004589Y021940D01*
X004638Y021822D01*
X004638Y021680D01*
X004965Y021680D01*
X004965Y021782D01*
X004977Y021828D01*
X005001Y021869D01*
X005034Y021903D01*
X005075Y021926D01*
X005121Y021939D01*
X005854Y021939D01*
X005854Y021680D01*
X006009Y021680D01*
X006009Y021939D01*
X006743Y021939D01*
X006789Y021926D01*
X006830Y021903D01*
X006863Y021869D01*
X006887Y021828D01*
X006899Y021782D01*
X006899Y021680D01*
X007301Y021680D01*
X007300Y021680D02*
X007300Y021681D01*
X007141Y021840D02*
X006880Y021840D01*
X006980Y021680D02*
X006980Y022001D01*
X006821Y022160D02*
X004280Y022160D01*
X004420Y022063D02*
X004420Y023330D01*
X004280Y023120D02*
X004964Y023120D01*
X005060Y023080D02*
X005060Y021918D01*
X004984Y021840D02*
X004631Y021840D01*
X004740Y021680D02*
X004740Y023271D01*
X004280Y022800D02*
X006700Y022800D01*
X006700Y023120D02*
X006250Y023120D01*
X006340Y023185D02*
X006340Y021939D01*
X006020Y021939D02*
X006020Y023045D01*
X005700Y023045D02*
X005700Y021939D01*
X005854Y021840D02*
X006009Y021840D01*
X006009Y021493D02*
X007526Y021493D01*
X006660Y021939D02*
X006660Y023185D01*
X006622Y023440D02*
X006526Y023440D01*
X006526Y023760D02*
X006622Y023760D01*
X006988Y024080D02*
X007301Y024080D01*
X007300Y024079D02*
X007300Y024580D01*
X006980Y024580D02*
X006980Y024094D01*
X005380Y023080D02*
X005380Y021939D01*
X004965Y021651D02*
X004558Y021651D01*
X004558Y021493D02*
X005854Y021493D01*
X005854Y021334D02*
X006009Y021334D01*
X006009Y021176D02*
X005854Y021176D01*
X005854Y021017D02*
X006009Y021017D01*
X005002Y021017D02*
X004531Y021017D01*
X004558Y021176D02*
X004965Y021176D01*
X004965Y021334D02*
X004558Y021334D01*
X004280Y022480D02*
X006700Y022480D01*
X008546Y022480D02*
X008586Y022480D01*
X013626Y027580D02*
X013626Y027880D01*
X013874Y027880D01*
X013874Y027757D01*
X014666Y027757D01*
X014666Y027603D01*
X013874Y027603D01*
X013874Y027580D01*
X013626Y027580D01*
X013626Y027600D02*
X013874Y027600D01*
X014020Y027603D02*
X014020Y027757D01*
X014340Y027757D02*
X014340Y027603D01*
X014660Y027603D02*
X014660Y027757D01*
X014980Y027757D02*
X014980Y027603D01*
X015300Y027603D02*
X015300Y027757D01*
X015620Y027880D02*
X015620Y027580D01*
X015612Y027600D02*
X016728Y027600D01*
X016580Y027580D02*
X016580Y027880D01*
X016900Y027880D02*
X016900Y027620D01*
X016260Y027580D02*
X016260Y027880D01*
X015940Y027880D02*
X015940Y027580D01*
X013700Y027580D02*
X013700Y027880D01*
X019460Y027280D02*
X019460Y027126D01*
X027430Y021180D02*
X027680Y021430D01*
X028120Y021520D02*
X028580Y021520D01*
X028580Y021840D02*
X027892Y021840D01*
X027780Y021870D02*
X027780Y023600D01*
X028100Y023600D02*
X028100Y021632D01*
X039680Y011180D02*
X040180Y011680D01*
X039680Y011180D02*
X038930Y011180D01*
D11*
X039180Y011680D03*
X040180Y011680D03*
X040180Y010680D03*
X039180Y010680D03*
X039180Y009680D03*
X040180Y009680D03*
X040180Y008680D03*
X040180Y007680D03*
X039180Y007680D03*
X039180Y008680D03*
X039180Y006680D03*
X040180Y006680D03*
X040180Y005680D03*
X039180Y005680D03*
X039180Y004680D03*
X040180Y004680D03*
X038180Y002680D03*
X037180Y002680D03*
X036180Y002680D03*
X035180Y002680D03*
X034180Y002680D03*
X033180Y002680D03*
X032180Y002680D03*
X031180Y002680D03*
X029180Y002680D03*
X028180Y002680D03*
X027180Y002680D03*
X026180Y002680D03*
X025180Y002680D03*
X024180Y002680D03*
X023180Y002680D03*
X022180Y002680D03*
X020180Y002680D03*
X019180Y002680D03*
X018180Y002680D03*
X017180Y002680D03*
X016180Y002680D03*
X015180Y002680D03*
X015580Y021680D03*
X014580Y021680D03*
X013580Y021680D03*
X012580Y021680D03*
X011580Y021680D03*
X016580Y021680D03*
X017580Y021680D03*
X018580Y021680D03*
X020180Y021680D03*
X021180Y021680D03*
X022180Y021680D03*
X023180Y021680D03*
X024180Y021680D03*
X025180Y021680D03*
X026180Y021680D03*
X027180Y021680D03*
X029180Y021680D03*
X030180Y021680D03*
X031180Y021680D03*
X032180Y021680D03*
X033180Y021680D03*
X034180Y021680D03*
X035180Y021680D03*
X036180Y021680D03*
X039180Y021680D03*
X040180Y021680D03*
X040180Y020680D03*
X039180Y020680D03*
X039180Y019680D03*
X040180Y019680D03*
X040180Y018680D03*
X039180Y018680D03*
X039180Y017680D03*
X040180Y017680D03*
X040180Y016680D03*
X039180Y016680D03*
X039180Y015680D03*
X039180Y014680D03*
X040180Y014680D03*
X040180Y015680D03*
X040180Y013680D03*
X039180Y013680D03*
X039180Y012680D03*
X040180Y012680D03*
D12*
X037180Y031767D03*
X037180Y032593D03*
X028180Y032593D03*
X028180Y031767D03*
X019180Y031767D03*
X019180Y032593D03*
X008093Y031680D03*
X007267Y031680D03*
X007267Y030680D03*
X008093Y030680D03*
X008093Y029680D03*
X007267Y029680D03*
X007267Y028680D03*
X008093Y028680D03*
X012767Y002680D03*
X013593Y002680D03*
D13*
X013554Y003480D03*
X012806Y003480D03*
X012845Y006180D03*
X013515Y006180D03*
X014845Y006180D03*
X015515Y006180D03*
X003515Y019180D03*
X002845Y019180D03*
X016806Y024680D03*
X017554Y024680D03*
X025806Y024680D03*
X026554Y024680D03*
X034806Y024680D03*
X035554Y024680D03*
D14*
X035680Y031680D03*
X034680Y031680D03*
X033680Y031680D03*
X032680Y031680D03*
X026680Y031680D03*
X025680Y031680D03*
X024680Y031680D03*
X023680Y031680D03*
X017680Y031680D03*
X016680Y031680D03*
X015680Y031680D03*
X014680Y031680D03*
D15*
X014680Y030680D03*
X013680Y030680D03*
X012680Y030680D03*
X015680Y030680D03*
X016680Y030680D03*
X017680Y030680D03*
X018680Y030680D03*
X019680Y030680D03*
X021680Y030680D03*
X022680Y030680D03*
X023680Y030680D03*
X024680Y030680D03*
X025680Y030680D03*
X026680Y030680D03*
X027680Y030680D03*
X028680Y030680D03*
X030680Y030680D03*
X031680Y030680D03*
X032680Y030680D03*
X033680Y030680D03*
X034680Y030680D03*
X035680Y030680D03*
X036680Y030680D03*
X037680Y030680D03*
X037680Y025680D03*
X036680Y025680D03*
X035680Y025680D03*
X034680Y025680D03*
X033680Y025680D03*
X032680Y025680D03*
X031680Y025680D03*
X030680Y025680D03*
X028680Y025680D03*
X027680Y025680D03*
X026680Y025680D03*
X025680Y025680D03*
X024680Y025680D03*
X023680Y025680D03*
X022680Y025680D03*
X021680Y025680D03*
X019680Y025680D03*
X018680Y025680D03*
X017680Y025680D03*
X016680Y025680D03*
X015680Y025680D03*
X014680Y025680D03*
X013680Y025680D03*
X012680Y025680D03*
D16*
X011680Y029680D03*
X010680Y029680D03*
X010680Y030680D03*
X011680Y030680D03*
X009680Y030680D03*
X009680Y029680D03*
D17*
X011380Y028615D03*
X011380Y027945D03*
X020180Y031806D03*
X020180Y032554D03*
X021680Y029515D03*
X021680Y028845D03*
X020680Y027054D03*
X020680Y026306D03*
X029680Y026306D03*
X029680Y027054D03*
X030680Y028845D03*
X030680Y029515D03*
X029680Y031806D03*
X029680Y032554D03*
X038180Y032554D03*
X038180Y031806D03*
X038680Y027054D03*
X038680Y026306D03*
X006680Y017515D03*
X006680Y016845D03*
X006180Y013515D03*
X006180Y012845D03*
X005180Y012845D03*
X005180Y013515D03*
D18*
X012617Y027680D03*
X014743Y027680D03*
X024117Y027680D03*
X026243Y027680D03*
X031617Y027680D03*
X033743Y027680D03*
D19*
X006337Y027219D03*
X004015Y027219D03*
X005156Y025369D03*
D20*
X005910Y030180D02*
X006450Y030180D01*
X006450Y031180D02*
X005910Y031180D01*
X006180Y002950D02*
X006180Y002410D01*
X005180Y002410D02*
X005180Y002950D01*
D21*
X014180Y029380D03*
X023180Y029380D03*
X032180Y029380D03*
D22*
X033558Y029380D03*
X034936Y029380D03*
X036314Y029380D03*
X027314Y029380D03*
X025936Y029380D03*
X024558Y029380D03*
X018314Y029380D03*
X016936Y029380D03*
X015558Y029380D03*
D23*
X003680Y025349D03*
X003680Y023971D03*
D24*
X003290Y029400D03*
X005070Y029400D03*
X005070Y031960D03*
X003290Y031960D03*
D25*
X008066Y022637D03*
X009066Y022637D03*
X009066Y021637D03*
X008066Y021637D03*
X008066Y020637D03*
X009066Y020637D03*
X009066Y019637D03*
X008066Y019637D03*
X008066Y018637D03*
X009066Y018637D03*
X009066Y017637D03*
X008066Y017637D03*
X008066Y016637D03*
X009066Y016637D03*
X009066Y015637D03*
X008066Y015637D03*
X008066Y014637D03*
X009066Y014637D03*
X009066Y013637D03*
X008066Y013637D03*
X008066Y012637D03*
X009066Y012637D03*
X009066Y011637D03*
X008066Y011637D03*
X008066Y010637D03*
X009066Y010637D03*
X009066Y009637D03*
X008066Y009637D03*
X008066Y008637D03*
X009066Y008637D03*
X009066Y007637D03*
X008066Y007637D03*
X008066Y006637D03*
X009066Y006637D03*
X009066Y005637D03*
X008066Y005637D03*
X008066Y004637D03*
X009066Y004637D03*
X009066Y003637D03*
X008066Y003637D03*
X039180Y028680D03*
X040180Y028680D03*
X040180Y029680D03*
X039180Y029680D03*
X039180Y030680D03*
X040180Y030680D03*
D26*
X032680Y024830D02*
X032680Y024530D01*
X031680Y024530D02*
X031680Y024830D01*
X023680Y024830D02*
X023680Y024530D01*
X022680Y024530D02*
X022680Y024830D01*
X014680Y024830D02*
X014680Y024530D01*
X013680Y024530D02*
X013680Y024830D01*
D27*
X013680Y024880D03*
X013680Y024480D03*
X014680Y024480D03*
X014680Y024880D03*
X015680Y024857D03*
X015680Y024503D03*
X022680Y024480D03*
X022680Y024880D03*
X023680Y024880D03*
X023680Y024480D03*
X024680Y024503D03*
X024680Y024857D03*
X031680Y024880D03*
X031680Y024480D03*
X032680Y024480D03*
X032680Y024880D03*
X033680Y024857D03*
X033680Y024503D03*
D28*
X009430Y026759D03*
X008930Y026759D03*
X008430Y026759D03*
X007930Y026759D03*
X007930Y027601D03*
X008430Y027601D03*
X008930Y027601D03*
X009430Y027601D03*
D29*
X005704Y015930D03*
X005704Y015430D03*
X005704Y014930D03*
X005704Y014430D03*
X003656Y014430D03*
X003656Y014930D03*
X003656Y015430D03*
X003656Y015930D03*
D30*
X004680Y015180D03*
D31*
X006680Y015074D03*
X006680Y014286D03*
X003580Y011574D03*
X003580Y010786D03*
D32*
X003286Y002680D03*
X004074Y002680D03*
X005786Y019180D03*
X006574Y019180D03*
X006574Y023680D03*
X005786Y023680D03*
D33*
X005932Y021444D03*
X003530Y021444D03*
X003479Y005180D03*
X005881Y005180D03*
D34*
X005999Y008731D03*
X003479Y008731D03*
D35*
X020528Y007448D03*
X020528Y007192D03*
X020528Y006936D03*
X020528Y006680D03*
X020528Y006424D03*
X020528Y006168D03*
X020528Y005912D03*
X020528Y005674D03*
X020528Y005418D03*
X020528Y005162D03*
X022832Y005162D03*
X022832Y005418D03*
X022832Y005674D03*
X022832Y005912D03*
X022832Y006168D03*
X022832Y006424D03*
X022832Y006680D03*
X022832Y006936D03*
X022832Y007192D03*
X022832Y007448D03*
X031028Y007424D03*
X031028Y007168D03*
X031028Y006912D03*
X031028Y007680D03*
X031028Y007936D03*
X031028Y008192D03*
X031028Y008448D03*
X031028Y008686D03*
X031028Y008942D03*
X031028Y009198D03*
X031028Y010912D03*
X031028Y011168D03*
X031028Y011424D03*
X031028Y011680D03*
X031028Y011936D03*
X031028Y012192D03*
X031028Y012448D03*
X031028Y012686D03*
X031028Y012942D03*
X031028Y013198D03*
X033332Y013198D03*
X033332Y012942D03*
X033332Y012686D03*
X033332Y012448D03*
X033332Y012192D03*
X033332Y011936D03*
X033332Y011680D03*
X033332Y011424D03*
X033332Y011168D03*
X033332Y010912D03*
X033332Y009198D03*
X033332Y008942D03*
X033332Y008686D03*
X033332Y008448D03*
X033332Y008192D03*
X033332Y007936D03*
X033332Y007680D03*
X033332Y007424D03*
X033332Y007168D03*
X033332Y006912D03*
X022832Y017912D03*
X022832Y018168D03*
X022832Y018424D03*
X022832Y018680D03*
X022832Y018936D03*
X022832Y019192D03*
X022832Y019448D03*
X022832Y019686D03*
X022832Y019942D03*
X022832Y020198D03*
X020528Y020198D03*
X020528Y019942D03*
X020528Y019686D03*
X020528Y019448D03*
X020528Y019192D03*
X020528Y018936D03*
X020528Y018680D03*
X020528Y018424D03*
X020528Y018168D03*
X020528Y017912D03*
D36*
X006267Y011180D03*
X004693Y011180D03*
D37*
X012373Y004680D03*
X013987Y004680D03*
D38*
X020480Y009380D03*
X011180Y012180D03*
X010180Y012180D03*
X012180Y022680D03*
X012180Y024680D03*
X010780Y027680D03*
X006780Y028680D03*
X006980Y032580D03*
X015780Y027680D03*
X016280Y025180D03*
X019180Y027180D03*
X021180Y024280D03*
X025280Y025080D03*
X027680Y027680D03*
X028680Y027680D03*
X028680Y031680D03*
X030380Y031780D03*
X034980Y027680D03*
X034280Y025180D03*
X038180Y027680D03*
X039680Y032180D03*
X038780Y020180D03*
X038930Y014180D03*
X034180Y011680D03*
X041180Y003680D03*
X020780Y031780D03*
X019580Y031780D03*
D39*
X017680Y031680D02*
X017680Y030680D01*
X016930Y030430D02*
X016680Y030430D01*
X016680Y030680D01*
X016680Y031680D01*
X015680Y031680D02*
X015680Y030680D01*
X015680Y029680D01*
X015558Y029380D01*
X016936Y029380D02*
X016930Y029680D01*
X016930Y030430D01*
X014680Y030680D02*
X014680Y031680D01*
X012680Y030680D02*
X012680Y029680D01*
X012615Y028715D01*
X011380Y028615D01*
X012680Y028480D02*
X012680Y027680D01*
X012617Y027680D01*
X012680Y028480D02*
X018880Y028480D01*
X019480Y027880D01*
X020680Y027880D01*
X020680Y029180D01*
X021015Y029515D01*
X021680Y029515D01*
X021680Y030680D01*
X023680Y030680D02*
X023680Y031680D01*
X024680Y031680D02*
X024680Y030680D01*
X024680Y029680D01*
X024558Y029380D01*
X024580Y028480D02*
X029680Y028480D01*
X030480Y027680D01*
X031617Y027680D01*
X029680Y028480D02*
X029680Y029180D01*
X030015Y029515D01*
X030680Y029515D01*
X030680Y030680D01*
X033680Y030680D02*
X033680Y029680D01*
X033558Y029380D01*
X028680Y027680D02*
X027680Y027680D01*
X024580Y028480D02*
X024117Y028117D01*
X024117Y027680D01*
X023480Y027680D01*
X023280Y027880D01*
X020680Y027880D01*
X025680Y030680D02*
X025680Y031680D01*
X026680Y031680D02*
X026680Y030680D01*
X012680Y029680D02*
X012680Y028480D01*
X010180Y025180D02*
X006930Y025180D01*
X005786Y023680D02*
X005180Y023680D01*
X004930Y023930D01*
X003680Y023930D01*
X003680Y023971D01*
X003680Y020680D01*
X003530Y021444D01*
X003430Y020430D01*
X002680Y020430D01*
X002680Y019180D01*
X002845Y019180D01*
X006337Y027219D02*
X006180Y027430D01*
X006180Y030180D01*
X022680Y017680D02*
X022680Y016430D01*
X023180Y016430D01*
X023555Y016055D01*
X025930Y013680D01*
X029380Y013680D01*
X029430Y013680D01*
D40*
X029380Y013680D03*
X034180Y009180D03*
X034180Y006680D03*
X016680Y004480D03*
X015680Y004480D03*
X014680Y003480D03*
X011680Y003080D03*
X011180Y004680D03*
X006680Y004380D03*
X005680Y004380D03*
X004980Y006380D03*
X004980Y007380D03*
X004980Y008380D03*
X004980Y009380D03*
X006680Y008780D03*
X006680Y007680D03*
X006680Y006680D03*
X006280Y012180D03*
X004480Y012380D03*
X004480Y012880D03*
X004480Y013380D03*
X004480Y013880D03*
X004480Y014380D03*
X004480Y014380D03*
X004480Y014880D03*
X004980Y014880D03*
X004980Y014380D03*
X004980Y015380D03*
X004980Y015880D03*
X004980Y016380D03*
X004480Y016380D03*
X004480Y015880D03*
X004480Y015380D03*
X003680Y016480D03*
X004480Y016880D03*
X004480Y017380D03*
X003980Y017380D03*
X003480Y017380D03*
X003480Y017880D03*
X003980Y017880D03*
X004480Y017880D03*
X004980Y017880D03*
X004980Y017380D03*
X004980Y016880D03*
X006780Y016280D03*
X006780Y013680D03*
X003680Y012180D03*
D41*
X009680Y013930D03*
X009680Y016930D03*
X010680Y018180D03*
X010430Y018430D03*
X011180Y017680D03*
X011680Y017680D03*
X013680Y018180D03*
X017680Y017180D03*
X018180Y016180D03*
X018180Y015680D03*
X021080Y015780D03*
X021930Y017180D03*
X022080Y017780D03*
X021180Y018680D03*
X020930Y019180D03*
X021680Y020180D03*
X022180Y019930D03*
X022180Y019430D03*
X023430Y019180D03*
X023430Y020180D03*
X024680Y019180D03*
X024080Y017780D03*
X023430Y017430D03*
X024580Y016780D03*
X026080Y016780D03*
X026080Y017780D03*
X029430Y017930D03*
X027680Y021430D03*
X034180Y016180D03*
X038930Y019180D03*
X038930Y022680D03*
X038930Y023180D03*
X038930Y023680D03*
X025680Y012680D03*
X026930Y012180D03*
X023080Y013780D03*
X021930Y012930D03*
X021080Y014280D03*
X018680Y018180D03*
X010180Y025180D03*
X012680Y026430D03*
X010180Y028430D03*
X010180Y030680D03*
X016930Y027180D03*
X022180Y027230D03*
X009930Y019930D03*
X007680Y020180D03*
X005180Y018430D03*
X005930Y017680D03*
X013430Y010430D03*
X014430Y008930D03*
X013930Y008430D03*
X012180Y007430D03*
X011180Y008930D03*
X010680Y008930D03*
X016180Y006180D03*
X016680Y007180D03*
X017680Y006680D03*
X018930Y009080D03*
X017680Y009680D03*
X025130Y006430D03*
X030430Y007430D03*
X031430Y007680D03*
X031680Y006680D03*
X036930Y006180D03*
X006930Y025180D03*
D42*
X005180Y019180D03*
X006680Y018180D03*
X020480Y017080D03*
X024180Y007180D03*
X026180Y007180D03*
X029180Y007180D03*
X029180Y005180D03*
X034180Y005180D03*
D43*
X029180Y005180D01*
D44*
X021780Y003680D02*
X021180Y003080D01*
X021180Y002380D01*
X020880Y002080D01*
X017180Y002080D01*
X017180Y002180D01*
X017180Y002080D02*
X014580Y002080D01*
X014230Y002430D01*
X014180Y002430D01*
X014180Y004680D01*
X014680Y003480D02*
X015680Y004480D01*
X016680Y004480D02*
X017880Y004480D01*
X018680Y003680D01*
X018680Y002680D01*
X018180Y002680D01*
X018680Y002680D02*
X019180Y002680D01*
X021780Y003680D02*
X041180Y003680D01*
X040180Y021680D02*
X039180Y021680D01*
X040180Y021680D02*
X040680Y022180D01*
X040680Y024180D01*
X040680Y026880D01*
X040480Y027080D01*
X038706Y027080D01*
X040680Y026980D02*
X040880Y027180D01*
X040880Y029980D01*
X040180Y030680D01*
X036680Y030680D02*
X036680Y031080D01*
X036480Y031280D01*
X036480Y032080D01*
X035980Y032580D01*
X032180Y032580D01*
X031780Y032180D01*
X031780Y031380D01*
X031680Y031280D01*
X028280Y031280D01*
X027680Y030680D01*
X027380Y030980D01*
X027380Y032080D01*
X026880Y032580D01*
X021580Y032580D01*
X021380Y032380D01*
X021380Y031580D01*
X020980Y031180D01*
X018880Y031180D01*
X018680Y030980D01*
X018680Y030680D01*
X018580Y030780D01*
X018580Y032180D01*
X018180Y032580D01*
X011080Y032580D01*
X010680Y032180D01*
X010680Y030680D01*
X010680Y030180D01*
X010680Y029680D01*
X013680Y024480D02*
X013680Y024080D01*
X013780Y023980D01*
X007880Y023980D01*
X007180Y023280D01*
X007180Y022480D01*
X008023Y021637D01*
X008066Y021637D01*
X006580Y022980D02*
X006580Y023674D01*
X006574Y023680D01*
X006580Y022980D02*
X005932Y022332D01*
X005932Y021444D01*
X005932Y020432D01*
X005180Y019680D01*
X005180Y019180D01*
X005786Y019180D01*
X006680Y018180D02*
X006680Y017515D01*
X003656Y015430D02*
X003606Y015480D01*
X002880Y015480D01*
X002680Y015680D01*
X002680Y019015D01*
X002845Y019180D01*
X002930Y014930D02*
X002680Y014680D01*
X002680Y011280D01*
X003174Y010786D01*
X003580Y010786D02*
X003580Y008832D01*
X004980Y008380D02*
X004980Y009380D01*
X005380Y009380D01*
X006180Y010180D01*
X006180Y011093D01*
X006267Y011180D01*
X005680Y011767D01*
X005680Y012180D01*
X005180Y012680D01*
X005180Y012845D01*
X005180Y013515D02*
X005680Y013515D01*
X006180Y013515D01*
X005704Y013538D02*
X005704Y014430D01*
X006280Y012745D02*
X006280Y012180D01*
X004693Y011180D02*
X004220Y010786D01*
X003580Y010786D01*
X004980Y008380D02*
X004980Y007380D01*
X004980Y006380D01*
X003780Y005180D01*
X003479Y005180D01*
X003479Y004479D01*
X003180Y004180D01*
X003180Y002786D01*
X003286Y002680D01*
X004074Y002680D02*
X004680Y002680D01*
X004680Y004180D01*
X005680Y005180D01*
X005999Y005298D02*
X005999Y008731D01*
X006631Y008731D01*
X006680Y008780D01*
X011430Y003930D02*
X012180Y004680D01*
X011430Y003930D02*
X010430Y003930D01*
X009430Y002930D01*
X009380Y002980D02*
X007680Y002980D01*
X007380Y002680D01*
X006180Y002680D01*
X005180Y002680D02*
X004680Y002680D01*
X013554Y002719D02*
X013554Y003480D01*
X003656Y014930D02*
X002930Y014930D01*
X013780Y023980D02*
X014680Y023980D01*
X015680Y023980D01*
X018280Y023980D01*
X019480Y025180D01*
X020680Y025180D01*
X020680Y026306D01*
X020754Y026380D01*
X021380Y026380D01*
X021680Y026680D01*
X022380Y026680D01*
X022680Y026980D01*
X029580Y026980D01*
X031680Y024080D02*
X032680Y024080D01*
X033680Y024080D01*
X037080Y024080D01*
X037180Y024180D01*
X040680Y024180D01*
X040680Y026880D02*
X040680Y026980D01*
X031680Y024080D02*
X024680Y024080D01*
X023680Y024080D01*
X022680Y024080D01*
X022180Y024080D01*
X021180Y025180D01*
X020680Y025180D01*
D45*
X022680Y024480D02*
X022680Y024080D01*
X015680Y023980D02*
X015680Y024503D01*
X014680Y024480D02*
X014680Y023980D01*
X006430Y019180D02*
X006430Y018830D01*
X005380Y017780D01*
X005380Y016680D01*
X005680Y016380D01*
X005680Y015954D01*
X005704Y015930D01*
X005704Y015430D02*
X006130Y015430D01*
X006380Y015680D01*
X006380Y016180D01*
X006080Y016480D01*
X006080Y017530D01*
X005930Y017680D01*
X005180Y018430D02*
X004430Y018430D01*
X003680Y019180D01*
X006680Y016845D02*
X006680Y016780D01*
X006780Y016580D01*
X006780Y016280D01*
X006680Y015074D02*
X006536Y014930D01*
X005704Y014930D01*
X006680Y014286D02*
X006680Y014080D01*
X006780Y013680D01*
X006180Y012845D02*
X006280Y012745D01*
X005680Y013515D02*
X005704Y013538D01*
X003680Y012180D02*
X003680Y011674D01*
X003580Y011574D01*
X003580Y010786D02*
X003174Y010786D01*
X003580Y008832D02*
X003479Y008731D01*
X005999Y005298D02*
X005881Y005180D01*
X003656Y015930D02*
X003656Y016456D01*
X003680Y016480D01*
X021680Y007180D02*
X021680Y003780D01*
X021780Y003680D01*
X038680Y027054D02*
X038706Y027080D01*
X019580Y031780D02*
X019567Y031767D01*
X019180Y031767D01*
D46*
X017180Y002680D02*
X017180Y002180D01*
M02*
