%
M48
M72
T01C0.01200
T02C0.01600
T03C0.01969
T04C0.02362
T05C0.03543
T06C0.03600
T07C0.03937
T08C0.04000
T09C0.04724
T10C0.11800
T11C0.12598
%
T01
X61500Y72300
X61500Y102300
X39500Y108800
X39500Y113800
X39500Y118800
X39500Y123800
X39500Y128800
X39500Y133800
X44500Y133800
X44500Y128800
X44500Y138800
X44500Y143800
X39500Y143800
X39500Y138800
X39500Y148800
X44500Y148800
X44500Y153800
X44500Y158800
X39500Y158800
X39500Y153800
X34500Y158800
X29500Y158800
X29500Y163800
X34500Y163800
X39500Y163800
X44500Y163800
X46500Y169300
X54000Y161800
X71000Y186300
X94500Y184800
X96000Y176300
X131500Y164300
X151500Y154300
X172000Y159800
X191500Y154300
X212500Y167300
X221500Y154300
X240500Y152800
X255500Y152800
X289000Y164300
X282500Y190800
X272500Y190800
X271500Y199300
X282500Y215800
X241500Y188300
X218500Y186800
X199500Y135800
X176500Y119300
X176500Y119300
X171500Y89300
X171500Y81800
X184000Y75800
X191500Y89300
X216500Y89300
X251500Y111800
X264000Y106800
X256500Y89300
X299000Y59300
X309000Y61800
X311500Y51800
X344000Y46800
X246500Y49300
X171500Y51800
X161500Y56800
X156500Y46800
X134000Y69300
X139000Y74300
X146500Y89300
X129000Y89300
X106500Y74300
X101500Y74300
X116500Y59300
X106500Y106800
X97000Y106300
X116500Y119300
X136500Y119300
X131500Y191800
X116500Y211800
X116500Y231800
X96500Y236800
X74000Y236800
X70500Y266800
X62500Y271800
X75500Y276800
X80500Y286800
X84500Y291800
X96500Y298800
X67500Y286800
X62000Y291800
X96500Y269300
X121500Y249300
X164000Y256800
X216500Y257300
X202500Y303800
X182500Y311800
X279500Y311800
X305000Y303800
X311500Y312800
X361500Y311800
X336500Y146800
X384000Y211800
X384000Y216800
X384000Y221800
X398000Y225800
X371500Y251800
T02
X51500Y28800
X61500Y28800
X61500Y51800
X61500Y61800
X106500Y31800
X111500Y15800
X163500Y29800
X62500Y121800
X31500Y106800
X31500Y149800
X62500Y147800
X288500Y121800
X321000Y75300
X336500Y51800
T03
X247500Y218800
T04
X199500Y78800
X239000Y56800
X259000Y56800
X284500Y59300
X286500Y36800
X336500Y36800
X405000Y21300
X336500Y101800
X288500Y91800
X171500Y217800
X157500Y236800
X186500Y256800
X176500Y261800
X152500Y261800
X102500Y261800
X109000Y217300
X46500Y211800
X46500Y176800
X61500Y166800
X21500Y271800
X64500Y310800
X206500Y227800
X247500Y234800
X271500Y261800
X281500Y261800
X337500Y235300
X344500Y261800
T05
X121500Y241800
X131500Y241800
X141500Y241800
X151500Y241800
X161500Y241800
X171500Y241800
X181500Y241800
X191500Y241800
X211500Y241800
X221500Y241800
X231500Y241800
X241500Y241800
X251500Y241800
X261500Y241800
X271500Y241800
X281500Y241800
X301500Y241800
X311500Y241800
X321500Y241800
X331500Y241800
X341500Y241800
X351500Y241800
X361500Y241800
X371500Y241800
X371500Y291800
X361500Y291800
X351500Y291800
X341500Y291800
X331500Y291800
X321500Y291800
X311500Y291800
X301500Y291800
X281500Y291800
X271500Y291800
X261500Y291800
X251500Y291800
X241500Y291800
X231500Y291800
X221500Y291800
X211500Y291800
X191500Y291800
X181500Y291800
X171500Y291800
X161500Y291800
X151500Y291800
X141500Y291800
X131500Y291800
X121500Y291800
T06
X46500Y11800
X56500Y11800
T07
X146500Y11800
X156500Y11800
X166500Y11800
X176500Y11800
X186500Y11800
X196500Y11800
X216500Y11800
X226500Y11800
X236500Y11800
X246500Y11800
X256500Y11800
X266500Y11800
X276500Y11800
X286500Y11800
X306500Y11800
X316500Y11800
X326500Y11800
X336500Y11800
X346500Y11800
X356500Y11800
X366500Y11800
X376500Y11800
X386500Y31800
X396500Y31800
X396500Y41800
X386500Y41800
X386500Y51800
X396500Y51800
X396500Y61800
X386500Y61800
X386500Y71800
X396500Y71800
X396500Y81800
X386500Y81800
X386500Y91800
X396500Y91800
X396500Y101800
X386500Y101800
X386500Y111800
X396500Y111800
X396500Y121800
X386500Y121800
X386500Y131800
X396500Y131800
X396500Y141800
X386500Y141800
X386500Y151800
X396500Y151800
X396500Y161800
X386500Y161800
X386500Y171800
X396500Y171800
X396500Y181800
X386500Y181800
X386500Y191800
X396500Y191800
X396500Y201800
X386500Y201800
X356500Y201800
X346500Y201800
X336500Y201800
X326500Y201800
X316500Y201800
X306500Y201800
X296500Y201800
X286500Y201800
X266500Y201800
X256500Y201800
X246500Y201800
X236500Y201800
X226500Y201800
X216500Y201800
X206500Y201800
X196500Y201800
X180500Y201800
X170500Y201800
X160500Y201800
X150500Y201800
X140500Y201800
X130500Y201800
X120500Y201800
X110500Y201800
X31500Y224713
X31500Y238493
T08
X75358Y21367
X85358Y21367
X85358Y31367
X75358Y31367
X75358Y41367
X85358Y41367
X85358Y51367
X75358Y51367
X75358Y61367
X85358Y61367
X85358Y71367
X75358Y71367
X75358Y81367
X85358Y81367
X85358Y91367
X75358Y91367
X75358Y101367
X85358Y101367
X85358Y111367
X75358Y111367
X75358Y121367
X85358Y121367
X85358Y131367
X75358Y131367
X75358Y141367
X85358Y141367
X85358Y151367
X75358Y151367
X75358Y161367
X85358Y161367
X85358Y171367
X75358Y171367
X75358Y181367
X85358Y181367
X85358Y191367
X75358Y191367
X75358Y201367
X85358Y201367
X85358Y211367
X75358Y211367
X91500Y281800
X91500Y291800
X101500Y291800
X111500Y291800
X111500Y281800
X101500Y281800
X141500Y301800
X151500Y301800
X161500Y301800
X171500Y301800
X231500Y301800
X241500Y301800
X251500Y301800
X261500Y301800
X321500Y301800
X331500Y301800
X341500Y301800
X351500Y301800
X386500Y291800
X396500Y291800
X396500Y281800
X386500Y281800
X386500Y271800
X396500Y271800
X396500Y256800
X386500Y256800
X386500Y246800
X396500Y246800
X396500Y236800
X386500Y236800
X356500Y211800
X346500Y211800
X376500Y141800
X376500Y131800
X376500Y121800
X366500Y121800
X366500Y131800
X366500Y91800
X366500Y81800
X376500Y81800
X376500Y91800
X376500Y71800
X376500Y61800
X366500Y61800
X366500Y71800
X366500Y21800
X356500Y21800
X346500Y21800
X336500Y21800
X326500Y21800
X316500Y21800
X306500Y21800
X286500Y21800
X276500Y21800
X266500Y21800
X256500Y21800
X246500Y21800
X236500Y21800
X226500Y21800
X216500Y21800
X376500Y21800
T09
X136500Y278800
X150280Y278800
X164059Y278800
X177839Y278800
X226500Y278800
X240280Y278800
X254059Y278800
X267839Y278800
X316500Y278800
X330280Y278800
X344059Y278800
X357839Y278800
T10
X47126Y241491
X30815Y256200
T11
X59637Y256300
M30
