G75*
%MOIN*%
%OFA0B0*%
%FSLAX25Y25*%
%IPPOS*%
%LPD*%
%AMOC8*
5,1,8,0,0,1.08239X$1,22.5*
%
%ADD10C,0.01600*%
%ADD11C,0.06306*%
%ADD12R,0.05124X0.05124*%
%ADD13R,0.05518X0.06306*%
%ADD14C,0.07400*%
%ADD15C,0.05715*%
%ADD16C,0.06400*%
%ADD17R,0.06306X0.05518*%
%ADD18R,0.14180X0.06699*%
%ADD19C,0.19298*%
%ADD20R,0.08400X0.08400*%
%ADD21C,0.08400*%
%ADD22C,0.09000*%
%ADD23C,0.07800*%
%ADD24R,0.05400X0.02900*%
%ADD25OC8,0.06400*%
%ADD26R,0.03353X0.04731*%
%ADD27R,0.09061X0.02762*%
%ADD28R,0.10400X0.20400*%
%ADD29R,0.06699X0.05518*%
%ADD30R,0.05518X0.06699*%
%ADD31R,0.16148X0.06699*%
%ADD32R,0.06699X0.09061*%
%ADD33C,0.05800*%
%ADD34R,0.03937X0.01772*%
%ADD35R,0.07487X0.07093*%
%ADD36R,0.08274X0.08274*%
D10*
X0015300Y0009674D02*
X0023174Y0001800D01*
X0401127Y0001800D01*
X0409001Y0009674D01*
X0409001Y0308887D01*
X0401127Y0316761D01*
X0023174Y0316761D01*
X0015300Y0308887D01*
X0015300Y0308800D02*
X0015300Y0009800D01*
D11*
X0145300Y0011800D03*
X0155300Y0011800D03*
X0165300Y0011800D03*
X0175300Y0011800D03*
X0185300Y0011800D03*
X0195300Y0011800D03*
X0215300Y0011800D03*
X0225300Y0011800D03*
X0235300Y0011800D03*
X0245300Y0011800D03*
X0255300Y0011800D03*
X0265300Y0011800D03*
X0275300Y0011800D03*
X0285300Y0011800D03*
X0305300Y0011800D03*
X0315300Y0011800D03*
X0325300Y0011800D03*
X0335300Y0011800D03*
X0345300Y0011800D03*
X0355300Y0011800D03*
X0365300Y0011800D03*
X0375300Y0011800D03*
X0385300Y0031800D03*
X0395300Y0031800D03*
X0395300Y0041800D03*
X0385300Y0041800D03*
X0385300Y0051800D03*
X0395300Y0051800D03*
X0395300Y0061800D03*
X0385300Y0061800D03*
X0385300Y0071800D03*
X0395300Y0071800D03*
X0395300Y0081800D03*
X0385300Y0081800D03*
X0385300Y0091800D03*
X0395300Y0091800D03*
X0395300Y0101800D03*
X0385300Y0101800D03*
X0385300Y0111800D03*
X0395300Y0111800D03*
X0395300Y0121800D03*
X0385300Y0121800D03*
X0385300Y0131800D03*
X0395300Y0131800D03*
X0395300Y0141800D03*
X0385300Y0141800D03*
X0385300Y0151800D03*
X0395300Y0151800D03*
X0395300Y0161800D03*
X0385300Y0161800D03*
X0385300Y0171800D03*
X0395300Y0171800D03*
X0395300Y0181800D03*
X0385300Y0181800D03*
X0385300Y0191800D03*
X0395300Y0191800D03*
X0395300Y0201800D03*
X0385300Y0201800D03*
X0355300Y0201800D03*
X0345300Y0201800D03*
X0335300Y0201800D03*
X0325300Y0201800D03*
X0315300Y0201800D03*
X0305300Y0201800D03*
X0295300Y0201800D03*
X0285300Y0201800D03*
X0265300Y0201800D03*
X0255300Y0201800D03*
X0245300Y0201800D03*
X0235300Y0201800D03*
X0225300Y0201800D03*
X0215300Y0201800D03*
X0205300Y0201800D03*
X0195300Y0201800D03*
X0179300Y0201800D03*
X0169300Y0201800D03*
X0159300Y0201800D03*
X0149300Y0201800D03*
X0139300Y0201800D03*
X0129300Y0201800D03*
X0119300Y0201800D03*
X0109300Y0201800D03*
D12*
X0074434Y0271800D03*
X0066166Y0271800D03*
X0066166Y0281800D03*
X0074434Y0281800D03*
X0074434Y0291800D03*
X0066166Y0291800D03*
X0066166Y0301800D03*
X0074434Y0301800D03*
X0185300Y0302666D03*
X0185300Y0310934D03*
X0275300Y0310934D03*
X0275300Y0302666D03*
X0365300Y0302666D03*
X0365300Y0310934D03*
X0129434Y0011800D03*
X0121166Y0011800D03*
D13*
X0121560Y0019800D03*
X0129040Y0019800D03*
X0128646Y0046800D03*
X0121954Y0046800D03*
X0141954Y0046800D03*
X0148646Y0046800D03*
X0028646Y0176800D03*
X0021954Y0176800D03*
X0161560Y0231800D03*
X0169040Y0231800D03*
X0251560Y0231800D03*
X0259040Y0231800D03*
X0341560Y0231800D03*
X0349040Y0231800D03*
D14*
X0350300Y0301800D03*
X0340300Y0301800D03*
X0330300Y0301800D03*
X0320300Y0301800D03*
X0260300Y0301800D03*
X0250300Y0301800D03*
X0240300Y0301800D03*
X0230300Y0301800D03*
X0170300Y0301800D03*
X0160300Y0301800D03*
X0150300Y0301800D03*
X0140300Y0301800D03*
X0215300Y0021800D03*
X0225300Y0021800D03*
X0235300Y0021800D03*
X0245300Y0021800D03*
X0255300Y0021800D03*
X0265300Y0021800D03*
X0275300Y0021800D03*
X0285300Y0021800D03*
X0305300Y0021800D03*
X0315300Y0021800D03*
X0325300Y0021800D03*
X0335300Y0021800D03*
X0345300Y0021800D03*
X0355300Y0021800D03*
X0365300Y0021800D03*
X0375300Y0021800D03*
D15*
X0370300Y0241800D03*
X0360300Y0241800D03*
X0350300Y0241800D03*
X0340300Y0241800D03*
X0330300Y0241800D03*
X0320300Y0241800D03*
X0310300Y0241800D03*
X0300300Y0241800D03*
X0280300Y0241800D03*
X0270300Y0241800D03*
X0260300Y0241800D03*
X0250300Y0241800D03*
X0240300Y0241800D03*
X0230300Y0241800D03*
X0220300Y0241800D03*
X0210300Y0241800D03*
X0190300Y0241800D03*
X0180300Y0241800D03*
X0170300Y0241800D03*
X0160300Y0241800D03*
X0150300Y0241800D03*
X0140300Y0241800D03*
X0130300Y0241800D03*
X0120300Y0241800D03*
X0120300Y0291800D03*
X0130300Y0291800D03*
X0140300Y0291800D03*
X0150300Y0291800D03*
X0160300Y0291800D03*
X0170300Y0291800D03*
X0180300Y0291800D03*
X0190300Y0291800D03*
X0210300Y0291800D03*
X0220300Y0291800D03*
X0230300Y0291800D03*
X0240300Y0291800D03*
X0250300Y0291800D03*
X0260300Y0291800D03*
X0270300Y0291800D03*
X0280300Y0291800D03*
X0300300Y0291800D03*
X0310300Y0291800D03*
X0320300Y0291800D03*
X0330300Y0291800D03*
X0340300Y0291800D03*
X0350300Y0291800D03*
X0360300Y0291800D03*
X0370300Y0291800D03*
D16*
X0385300Y0291800D03*
X0395300Y0291800D03*
X0395300Y0281800D03*
X0385300Y0281800D03*
X0385300Y0271800D03*
X0395300Y0271800D03*
X0395300Y0256800D03*
X0385300Y0256800D03*
X0385300Y0246800D03*
X0395300Y0246800D03*
X0395300Y0236800D03*
X0385300Y0236800D03*
X0110300Y0281800D03*
X0100300Y0281800D03*
X0100300Y0291800D03*
X0110300Y0291800D03*
X0090300Y0291800D03*
X0090300Y0281800D03*
D17*
X0107300Y0271146D03*
X0107300Y0264454D03*
X0195300Y0303060D03*
X0195300Y0310540D03*
X0210300Y0280146D03*
X0210300Y0273454D03*
X0200300Y0255540D03*
X0200300Y0248060D03*
X0290300Y0248060D03*
X0290300Y0255540D03*
X0300300Y0273454D03*
X0300300Y0280146D03*
X0290300Y0303060D03*
X0290300Y0310540D03*
X0375300Y0310540D03*
X0375300Y0303060D03*
X0365300Y0234040D03*
X0365300Y0226560D03*
X0060300Y0160146D03*
X0060300Y0153454D03*
X0055300Y0120146D03*
X0055300Y0113454D03*
X0045300Y0113454D03*
X0045300Y0120146D03*
D18*
X0119670Y0261800D03*
X0140930Y0261800D03*
X0234670Y0261800D03*
X0255930Y0261800D03*
X0309670Y0261800D03*
X0330930Y0261800D03*
D19*
X0056875Y0257194D03*
X0033646Y0257194D03*
X0045064Y0238690D03*
D20*
X0135300Y0278800D03*
X0225300Y0278800D03*
X0315300Y0278800D03*
D21*
X0329080Y0278800D03*
X0342859Y0278800D03*
X0356639Y0278800D03*
X0266639Y0278800D03*
X0252859Y0278800D03*
X0239080Y0278800D03*
X0176639Y0278800D03*
X0162859Y0278800D03*
X0149080Y0278800D03*
D22*
X0030300Y0238493D03*
X0030300Y0224713D03*
D23*
X0026400Y0279000D03*
X0044200Y0279000D03*
X0044200Y0304600D03*
X0026400Y0304600D03*
X0345300Y0211800D03*
X0355300Y0211800D03*
X0375300Y0141800D03*
X0375300Y0131800D03*
X0375300Y0121800D03*
X0365300Y0121800D03*
X0365300Y0131800D03*
X0365300Y0091800D03*
X0365300Y0081800D03*
X0365300Y0071800D03*
X0365300Y0061800D03*
X0375300Y0061800D03*
X0375300Y0071800D03*
X0375300Y0081800D03*
X0375300Y0091800D03*
D24*
X0330300Y0230028D03*
X0330300Y0233572D03*
X0320300Y0233800D03*
X0320300Y0229800D03*
X0310300Y0229800D03*
X0310300Y0233800D03*
X0240300Y0233572D03*
X0240300Y0230028D03*
X0230300Y0229800D03*
X0230300Y0233800D03*
X0220300Y0233800D03*
X0220300Y0229800D03*
X0150300Y0230028D03*
X0150300Y0233572D03*
X0140300Y0233800D03*
X0140300Y0229800D03*
X0130300Y0229800D03*
X0130300Y0233800D03*
D25*
X0084158Y0211367D03*
X0074158Y0211367D03*
X0074158Y0201367D03*
X0084158Y0201367D03*
X0084158Y0191367D03*
X0074158Y0191367D03*
X0074158Y0181367D03*
X0074158Y0171367D03*
X0074158Y0161367D03*
X0074158Y0151367D03*
X0074158Y0141367D03*
X0074158Y0131367D03*
X0074158Y0121367D03*
X0084158Y0121367D03*
X0084158Y0131367D03*
X0084158Y0141367D03*
X0084158Y0151367D03*
X0084158Y0161367D03*
X0084158Y0171367D03*
X0084158Y0181367D03*
X0084158Y0111367D03*
X0074158Y0111367D03*
X0074158Y0101367D03*
X0074158Y0091367D03*
X0074158Y0081367D03*
X0074158Y0071367D03*
X0074158Y0061367D03*
X0074158Y0051367D03*
X0084158Y0051367D03*
X0084158Y0061367D03*
X0084158Y0071367D03*
X0084158Y0081367D03*
X0084158Y0091367D03*
X0084158Y0101367D03*
X0084158Y0041367D03*
X0074158Y0041367D03*
X0074158Y0031367D03*
X0074158Y0021367D03*
X0084158Y0021367D03*
X0084158Y0031367D03*
D26*
X0082800Y0252587D03*
X0077800Y0252587D03*
X0072800Y0252587D03*
X0072800Y0261013D03*
X0077800Y0261013D03*
X0082800Y0261013D03*
X0087800Y0261013D03*
X0087800Y0252587D03*
D27*
X0050536Y0144300D03*
X0050536Y0139300D03*
X0050536Y0134300D03*
X0050536Y0129300D03*
X0030064Y0129300D03*
X0030064Y0134300D03*
X0030064Y0139300D03*
X0030064Y0144300D03*
D28*
X0040300Y0136800D03*
D29*
X0060300Y0135737D03*
X0060300Y0127863D03*
X0029300Y0100737D03*
X0029300Y0092863D03*
D30*
X0026363Y0011800D03*
X0034237Y0011800D03*
X0051363Y0176800D03*
X0059237Y0176800D03*
X0059237Y0221800D03*
X0051363Y0221800D03*
D31*
X0052820Y0199438D03*
X0028804Y0199438D03*
X0028292Y0036800D03*
X0052308Y0036800D03*
D32*
X0053489Y0072312D03*
X0028292Y0072312D03*
D33*
X0045300Y0014500D02*
X0045300Y0009100D01*
X0055300Y0009100D02*
X0055300Y0014500D01*
D34*
X0198784Y0036623D03*
X0198784Y0039182D03*
X0198784Y0041741D03*
X0198784Y0044123D03*
X0198784Y0046682D03*
X0198784Y0049241D03*
X0198784Y0051800D03*
X0198784Y0054359D03*
X0198784Y0056918D03*
X0198784Y0059477D03*
X0221816Y0059477D03*
X0221816Y0056918D03*
X0221816Y0054359D03*
X0221816Y0051800D03*
X0221816Y0049241D03*
X0221816Y0046682D03*
X0221816Y0044123D03*
X0221816Y0041741D03*
X0221816Y0039182D03*
X0221816Y0036623D03*
X0303784Y0054123D03*
X0303784Y0056682D03*
X0303784Y0059241D03*
X0303784Y0061800D03*
X0303784Y0064359D03*
X0303784Y0066918D03*
X0303784Y0069477D03*
X0303784Y0071859D03*
X0303784Y0074418D03*
X0303784Y0076977D03*
X0303784Y0094123D03*
X0303784Y0096682D03*
X0303784Y0099241D03*
X0303784Y0101800D03*
X0303784Y0104359D03*
X0303784Y0106918D03*
X0303784Y0109477D03*
X0303784Y0111859D03*
X0303784Y0114418D03*
X0303784Y0116977D03*
X0326816Y0116977D03*
X0326816Y0114418D03*
X0326816Y0111859D03*
X0326816Y0109477D03*
X0326816Y0106918D03*
X0326816Y0104359D03*
X0326816Y0101800D03*
X0326816Y0099241D03*
X0326816Y0096682D03*
X0326816Y0094123D03*
X0326816Y0076977D03*
X0326816Y0074418D03*
X0326816Y0071859D03*
X0326816Y0069477D03*
X0326816Y0066918D03*
X0326816Y0064359D03*
X0326816Y0061800D03*
X0326816Y0059241D03*
X0326816Y0056682D03*
X0326816Y0054123D03*
X0221816Y0164123D03*
X0221816Y0166682D03*
X0221816Y0169241D03*
X0221816Y0171800D03*
X0221816Y0174359D03*
X0221816Y0176918D03*
X0221816Y0179477D03*
X0221816Y0181859D03*
X0221816Y0184418D03*
X0221816Y0186977D03*
X0198784Y0186977D03*
X0198784Y0184418D03*
X0198784Y0181859D03*
X0198784Y0179477D03*
X0198784Y0176918D03*
X0198784Y0174359D03*
X0198784Y0171800D03*
X0198784Y0169241D03*
X0198784Y0166682D03*
X0198784Y0164123D03*
D35*
X0133371Y0031800D03*
X0117229Y0031800D03*
D36*
X0056174Y0096800D03*
X0040426Y0096800D03*
M02*
