G75*
%MOIN*%
%OFA0B0*%
%FSLAX25Y25*%
%IPPOS*%
%LPD*%
%AMOC8*
5,1,8,0,0,1.08239X$1,22.5*
%
%ADD10C,0.01600*%
%ADD11C,0.05906*%
%ADD12R,0.04724X0.04724*%
%ADD13R,0.05118X0.05906*%
%ADD14C,0.07000*%
%ADD15C,0.05315*%
%ADD16C,0.06000*%
%ADD17R,0.05906X0.05118*%
%ADD18R,0.13780X0.06299*%
%ADD19C,0.18898*%
%ADD20R,0.08000X0.08000*%
%ADD21C,0.08000*%
%ADD22C,0.08600*%
%ADD23C,0.07400*%
%ADD24OC8,0.06000*%
%ADD25C,0.00800*%
%ADD26R,0.05000X0.02500*%
%ADD27R,0.02953X0.04331*%
%ADD28R,0.08661X0.02362*%
%ADD29R,0.10000X0.20000*%
%ADD30R,0.06299X0.05118*%
%ADD31R,0.05118X0.06299*%
%ADD32R,0.15748X0.06299*%
%ADD33R,0.06299X0.08661*%
%ADD34C,0.05400*%
%ADD35R,0.03543X0.01378*%
%ADD36R,0.07087X0.06693*%
%ADD37C,0.05250*%
%ADD38C,0.00000*%
%ADD39R,0.07874X0.07874*%
%ADD40OC8,0.03562*%
%ADD41C,0.05600*%
%ADD42OC8,0.02400*%
%ADD43OC8,0.02800*%
%ADD44C,0.04000*%
%ADD45C,0.03200*%
%ADD46C,0.02400*%
%ADD47C,0.01200*%
%ADD48R,0.02400X0.02400*%
%ADD49OC8,0.03169*%
%ADD50C,0.06600*%
%ADD51C,0.05000*%
D10*
X0013573Y0009674D02*
X0021447Y0001800D01*
X0399400Y0001800D01*
X0407274Y0009674D01*
X0407274Y0308887D01*
X0399400Y0316761D01*
X0021447Y0316761D01*
X0013573Y0308887D01*
X0013573Y0308800D02*
X0013573Y0009800D01*
X0016773Y0011666D02*
X0016773Y0093943D01*
X0021244Y0089472D01*
X0022362Y0089009D01*
X0022389Y0088944D01*
X0023064Y0088269D01*
X0023573Y0088058D01*
X0023573Y0079043D01*
X0022938Y0079043D01*
X0022056Y0078677D01*
X0021381Y0078002D01*
X0021015Y0077120D01*
X0021015Y0067504D01*
X0021381Y0066622D01*
X0022056Y0065946D01*
X0022938Y0065581D01*
X0030192Y0065581D01*
X0031074Y0065946D01*
X0031749Y0066622D01*
X0032115Y0067504D01*
X0032115Y0077120D01*
X0031749Y0078002D01*
X0031573Y0078178D01*
X0031573Y0088058D01*
X0032082Y0088269D01*
X0032757Y0088944D01*
X0033122Y0089827D01*
X0033122Y0091108D01*
X0033402Y0090828D01*
X0034284Y0090463D01*
X0043113Y0090463D01*
X0043995Y0090828D01*
X0044670Y0091503D01*
X0045036Y0092386D01*
X0045036Y0101214D01*
X0044670Y0102096D01*
X0043995Y0102772D01*
X0043113Y0103137D01*
X0034284Y0103137D01*
X0033402Y0102772D01*
X0033122Y0102492D01*
X0033122Y0103773D01*
X0032757Y0104656D01*
X0032280Y0105133D01*
X0032373Y0105226D01*
X0032373Y0108374D01*
X0030147Y0110600D01*
X0026999Y0110600D01*
X0024773Y0108374D01*
X0024773Y0105696D01*
X0023946Y0105696D01*
X0023064Y0105331D01*
X0022573Y0104840D01*
X0022573Y0127006D01*
X0022901Y0126679D01*
X0023311Y0126442D01*
X0023769Y0126319D01*
X0028337Y0126319D01*
X0031838Y0126319D01*
X0031895Y0126105D01*
X0032132Y0125695D01*
X0032468Y0125360D01*
X0032878Y0125123D01*
X0033336Y0125000D01*
X0037773Y0125000D01*
X0037773Y0136000D01*
X0039373Y0136000D01*
X0039373Y0137600D01*
X0042096Y0137600D01*
X0042427Y0136800D01*
X0042096Y0136000D01*
X0039373Y0136000D01*
X0039373Y0125000D01*
X0039888Y0125000D01*
X0039261Y0124740D01*
X0038585Y0124065D01*
X0038220Y0123183D01*
X0038220Y0117110D01*
X0038585Y0116228D01*
X0038820Y0115993D01*
X0038820Y0113933D01*
X0043093Y0113933D01*
X0043093Y0112974D01*
X0038820Y0112974D01*
X0038820Y0110658D01*
X0038943Y0110200D01*
X0039180Y0109789D01*
X0039515Y0109454D01*
X0039925Y0109217D01*
X0040383Y0109094D01*
X0043093Y0109094D01*
X0043093Y0112974D01*
X0044052Y0112974D01*
X0044052Y0109094D01*
X0046763Y0109094D01*
X0047220Y0109217D01*
X0047631Y0109454D01*
X0047966Y0109789D01*
X0048203Y0110200D01*
X0048245Y0110357D01*
X0048585Y0109535D01*
X0049261Y0108860D01*
X0050143Y0108494D01*
X0050573Y0108494D01*
X0050573Y0106004D01*
X0050773Y0105522D01*
X0050773Y0105226D01*
X0050982Y0105017D01*
X0051182Y0104534D01*
X0052307Y0103409D01*
X0052790Y0103209D01*
X0052862Y0103137D01*
X0050032Y0103137D01*
X0049150Y0102772D01*
X0048475Y0102096D01*
X0048110Y0101214D01*
X0048110Y0092386D01*
X0048475Y0091503D01*
X0049150Y0090828D01*
X0050032Y0090463D01*
X0058861Y0090463D01*
X0059743Y0090828D01*
X0060373Y0091458D01*
X0060373Y0076384D01*
X0060356Y0076391D01*
X0060147Y0076600D01*
X0059851Y0076600D01*
X0059368Y0076800D01*
X0057777Y0076800D01*
X0057311Y0076607D01*
X0057311Y0077120D01*
X0056946Y0078002D01*
X0056271Y0078677D01*
X0055389Y0079043D01*
X0048135Y0079043D01*
X0047253Y0078677D01*
X0046578Y0078002D01*
X0046212Y0077120D01*
X0046212Y0067504D01*
X0046578Y0066622D01*
X0047253Y0065946D01*
X0047762Y0065736D01*
X0047762Y0042350D01*
X0042229Y0042350D01*
X0041347Y0041984D01*
X0040672Y0041309D01*
X0040307Y0040427D01*
X0040307Y0034191D01*
X0036307Y0030191D01*
X0035182Y0029066D01*
X0034573Y0027596D01*
X0034573Y0017350D01*
X0029473Y0017350D01*
X0028591Y0016984D01*
X0028108Y0016501D01*
X0027890Y0016627D01*
X0027432Y0016750D01*
X0025115Y0016750D01*
X0025115Y0012280D01*
X0024156Y0012280D01*
X0024156Y0016750D01*
X0021840Y0016750D01*
X0021382Y0016627D01*
X0020972Y0016390D01*
X0020636Y0016055D01*
X0020399Y0015644D01*
X0020277Y0015187D01*
X0020277Y0012280D01*
X0024156Y0012280D01*
X0024156Y0011320D01*
X0021163Y0011320D01*
X0016773Y0011666D01*
X0016773Y0012990D02*
X0020277Y0012990D01*
X0020277Y0014588D02*
X0016773Y0014588D01*
X0016773Y0016187D02*
X0020768Y0016187D01*
X0024156Y0016187D02*
X0025115Y0016187D01*
X0025115Y0014588D02*
X0024156Y0014588D01*
X0024156Y0012990D02*
X0025115Y0012990D01*
X0024156Y0011391D02*
X0020266Y0011391D01*
X0016773Y0017785D02*
X0034573Y0017785D01*
X0034573Y0019384D02*
X0016773Y0019384D01*
X0016773Y0020982D02*
X0034573Y0020982D01*
X0034573Y0022581D02*
X0016773Y0022581D01*
X0016773Y0024179D02*
X0034573Y0024179D01*
X0034573Y0025778D02*
X0016773Y0025778D01*
X0016773Y0027376D02*
X0034573Y0027376D01*
X0035144Y0028975D02*
X0016773Y0028975D01*
X0016773Y0030573D02*
X0036689Y0030573D01*
X0036307Y0030191D02*
X0036307Y0030191D01*
X0035134Y0031973D02*
X0034676Y0031850D01*
X0027340Y0031850D01*
X0027340Y0036025D01*
X0027340Y0037575D01*
X0036239Y0037575D01*
X0036239Y0040187D01*
X0036116Y0040644D01*
X0035879Y0041055D01*
X0035544Y0041390D01*
X0035134Y0041627D01*
X0034676Y0041750D01*
X0027340Y0041750D01*
X0027340Y0037575D01*
X0025790Y0037575D01*
X0025790Y0041750D01*
X0018454Y0041750D01*
X0017996Y0041627D01*
X0017586Y0041390D01*
X0017251Y0041055D01*
X0017014Y0040644D01*
X0016891Y0040187D01*
X0016891Y0037575D01*
X0025790Y0037575D01*
X0025790Y0036025D01*
X0027340Y0036025D01*
X0036239Y0036025D01*
X0036239Y0033413D01*
X0036116Y0032956D01*
X0035879Y0032545D01*
X0035544Y0032210D01*
X0035134Y0031973D01*
X0035478Y0032172D02*
X0038288Y0032172D01*
X0039886Y0033770D02*
X0036239Y0033770D01*
X0036239Y0035369D02*
X0040307Y0035369D01*
X0040307Y0036967D02*
X0027340Y0036967D01*
X0025790Y0036967D02*
X0016773Y0036967D01*
X0016891Y0036025D02*
X0016891Y0033413D01*
X0017014Y0032956D01*
X0017251Y0032545D01*
X0017586Y0032210D01*
X0017996Y0031973D01*
X0018454Y0031850D01*
X0025790Y0031850D01*
X0025790Y0036025D01*
X0016891Y0036025D01*
X0016891Y0035369D02*
X0016773Y0035369D01*
X0016773Y0033770D02*
X0016891Y0033770D01*
X0016773Y0032172D02*
X0017652Y0032172D01*
X0016891Y0038566D02*
X0016773Y0038566D01*
X0016773Y0040164D02*
X0016891Y0040164D01*
X0016773Y0041763D02*
X0041126Y0041763D01*
X0040307Y0040164D02*
X0036239Y0040164D01*
X0036239Y0038566D02*
X0040307Y0038566D01*
X0048573Y0036800D02*
X0050581Y0036800D01*
X0048680Y0031250D02*
X0042573Y0025143D01*
X0042573Y0019600D01*
X0044587Y0019600D01*
X0046462Y0018824D01*
X0047896Y0017389D01*
X0048573Y0015756D01*
X0049249Y0017389D01*
X0050684Y0018824D01*
X0052558Y0019600D01*
X0054587Y0019600D01*
X0056462Y0018824D01*
X0057896Y0017389D01*
X0058555Y0015800D01*
X0063916Y0015800D01*
X0066307Y0018191D01*
X0067483Y0018678D01*
X0067031Y0019130D01*
X0067031Y0023475D01*
X0066760Y0023587D01*
X0061760Y0028587D01*
X0060860Y0029487D01*
X0060373Y0030663D01*
X0060373Y0032174D01*
X0059814Y0031616D01*
X0058932Y0031250D01*
X0048680Y0031250D01*
X0048003Y0030573D02*
X0060410Y0030573D01*
X0060370Y0032172D02*
X0060373Y0032172D01*
X0063573Y0031300D02*
X0063573Y0159300D01*
X0071073Y0159300D01*
X0072431Y0161367D01*
X0068276Y0164848D02*
X0053116Y0164848D01*
X0053112Y0164852D02*
X0053112Y0164852D01*
X0052914Y0165050D01*
X0059114Y0171250D01*
X0060546Y0171250D01*
X0061428Y0171616D01*
X0062104Y0172291D01*
X0062469Y0173173D01*
X0062469Y0180427D01*
X0062104Y0181309D01*
X0061428Y0181984D01*
X0060546Y0182350D01*
X0054473Y0182350D01*
X0053591Y0181984D01*
X0053108Y0181501D01*
X0052890Y0181627D01*
X0052432Y0181750D01*
X0050115Y0181750D01*
X0050115Y0177280D01*
X0049156Y0177280D01*
X0049156Y0181750D01*
X0046840Y0181750D01*
X0046382Y0181627D01*
X0045972Y0181390D01*
X0045636Y0181055D01*
X0045399Y0180644D01*
X0045277Y0180187D01*
X0045277Y0177280D01*
X0049156Y0177280D01*
X0049156Y0176320D01*
X0050115Y0176320D01*
X0050115Y0172434D01*
X0047173Y0169491D01*
X0047173Y0170791D01*
X0046625Y0171339D01*
X0046625Y0171339D01*
X0045612Y0172352D01*
X0045064Y0172900D01*
X0037564Y0172900D01*
X0031878Y0178586D01*
X0031878Y0180230D01*
X0031513Y0181112D01*
X0030838Y0181787D01*
X0029956Y0182153D01*
X0023883Y0182153D01*
X0023773Y0182107D01*
X0023773Y0184100D01*
X0025816Y0184100D01*
X0026590Y0184023D01*
X0026843Y0184100D01*
X0027107Y0184100D01*
X0027825Y0184398D01*
X0028570Y0184623D01*
X0028774Y0184790D01*
X0029018Y0184892D01*
X0029568Y0185441D01*
X0030169Y0185934D01*
X0030294Y0186167D01*
X0030481Y0186354D01*
X0030750Y0187004D01*
X0031029Y0187189D01*
X0031518Y0187392D01*
X0031882Y0187755D01*
X0032311Y0188040D01*
X0032606Y0188480D01*
X0032981Y0188854D01*
X0033178Y0189330D01*
X0033465Y0189757D01*
X0033570Y0190276D01*
X0033773Y0190766D01*
X0033773Y0191280D01*
X0033875Y0191784D01*
X0033773Y0192304D01*
X0033773Y0193888D01*
X0035428Y0193888D01*
X0036310Y0194254D01*
X0036985Y0194929D01*
X0037351Y0195811D01*
X0037351Y0201800D01*
X0041419Y0201800D01*
X0041418Y0200213D01*
X0050318Y0200213D01*
X0050318Y0198663D01*
X0051867Y0198663D01*
X0051867Y0194488D01*
X0059204Y0194488D01*
X0059661Y0194611D01*
X0060072Y0194848D01*
X0060407Y0195183D01*
X0060644Y0195593D01*
X0060767Y0196051D01*
X0060767Y0198663D01*
X0051867Y0198663D01*
X0051867Y0200213D01*
X0060767Y0200213D01*
X0060767Y0201800D01*
X0065916Y0201800D01*
X0067031Y0200685D01*
X0067031Y0199130D01*
X0069794Y0196367D01*
X0067031Y0193604D01*
X0067031Y0189900D01*
X0066582Y0189900D01*
X0064473Y0187791D01*
X0064473Y0184809D01*
X0066582Y0182700D01*
X0067031Y0182700D01*
X0067031Y0179130D01*
X0069794Y0176367D01*
X0067031Y0173604D01*
X0067031Y0169130D01*
X0069794Y0166367D01*
X0067031Y0163604D01*
X0067031Y0162500D01*
X0063326Y0162500D01*
X0063326Y0162942D01*
X0063203Y0163400D01*
X0062966Y0163811D01*
X0062631Y0164146D01*
X0062220Y0164383D01*
X0061763Y0164505D01*
X0059052Y0164505D01*
X0059052Y0160626D01*
X0058093Y0160626D01*
X0058093Y0164505D01*
X0055383Y0164505D01*
X0054925Y0164383D01*
X0054515Y0164146D01*
X0054180Y0163811D01*
X0054170Y0163794D01*
X0053112Y0164852D01*
X0054311Y0166447D02*
X0069715Y0166447D01*
X0068116Y0168045D02*
X0055909Y0168045D01*
X0057508Y0169644D02*
X0067031Y0169644D01*
X0067031Y0171242D02*
X0059106Y0171242D01*
X0062331Y0172841D02*
X0067031Y0172841D01*
X0067867Y0174439D02*
X0062469Y0174439D01*
X0062469Y0176038D02*
X0069465Y0176038D01*
X0068525Y0177636D02*
X0062469Y0177636D01*
X0062469Y0179235D02*
X0067031Y0179235D01*
X0067031Y0180833D02*
X0062301Y0180833D01*
X0065251Y0184030D02*
X0026613Y0184030D01*
X0026520Y0184030D02*
X0023773Y0184030D01*
X0023773Y0182432D02*
X0067031Y0182432D01*
X0068073Y0186300D02*
X0085573Y0186300D01*
X0088573Y0189300D01*
X0094073Y0189300D01*
X0096573Y0186800D01*
X0196073Y0186800D01*
X0197057Y0186977D01*
X0197057Y0184418D02*
X0196073Y0184300D01*
X0107573Y0184300D01*
X0091573Y0168300D01*
X0091573Y0152300D01*
X0085573Y0146300D01*
X0078073Y0146300D01*
X0073573Y0141800D01*
X0072431Y0141367D01*
X0077364Y0136300D02*
X0072431Y0131367D01*
X0077364Y0136300D02*
X0088573Y0136300D01*
X0094573Y0142300D01*
X0094573Y0166800D01*
X0109632Y0181859D01*
X0197057Y0181859D01*
X0197057Y0179477D02*
X0196073Y0179300D01*
X0111573Y0179300D01*
X0097573Y0165300D01*
X0097573Y0140800D01*
X0088073Y0131300D01*
X0082864Y0131300D01*
X0087573Y0126300D02*
X0077364Y0126300D01*
X0072431Y0121367D01*
X0078073Y0116300D02*
X0087073Y0116300D01*
X0106573Y0135800D01*
X0106573Y0160800D01*
X0117573Y0171800D01*
X0197057Y0171800D01*
X0197057Y0169241D02*
X0119514Y0169241D01*
X0109573Y0159300D01*
X0109573Y0134300D01*
X0086640Y0111367D01*
X0082431Y0111367D01*
X0087073Y0106300D02*
X0094573Y0098800D01*
X0275573Y0098800D01*
X0278573Y0101800D01*
X0302057Y0101800D01*
X0301616Y0099300D02*
X0302057Y0099241D01*
X0301616Y0099300D02*
X0281073Y0099300D01*
X0276573Y0094800D01*
X0091573Y0094800D01*
X0090073Y0096300D01*
X0076573Y0096300D01*
X0073573Y0099300D01*
X0072431Y0101367D01*
X0070573Y0106300D02*
X0087073Y0106300D01*
X0089980Y0109050D02*
X0111839Y0130909D01*
X0112964Y0132034D01*
X0113573Y0133504D01*
X0113573Y0157643D01*
X0121171Y0165241D01*
X0192085Y0165241D01*
X0192085Y0162797D01*
X0192573Y0161621D01*
X0192573Y0138023D01*
X0192173Y0137623D01*
X0192173Y0133977D01*
X0194750Y0131400D01*
X0198395Y0131400D01*
X0200973Y0133977D01*
X0200973Y0137623D01*
X0200573Y0138023D01*
X0200573Y0158900D01*
X0223653Y0158900D01*
X0224473Y0159720D01*
X0224473Y0162800D01*
X0281673Y0162800D01*
X0281673Y0162477D01*
X0284250Y0159900D01*
X0287895Y0159900D01*
X0290473Y0162477D01*
X0290473Y0165300D01*
X0346570Y0165300D01*
X0346307Y0165191D01*
X0345182Y0164066D01*
X0332316Y0151200D01*
X0331750Y0151200D01*
X0329173Y0148623D01*
X0329173Y0144977D01*
X0331750Y0142400D01*
X0335395Y0142400D01*
X0337973Y0144977D01*
X0337973Y0145543D01*
X0339573Y0147143D01*
X0339573Y0127457D01*
X0329973Y0117857D01*
X0329973Y0122880D01*
X0329153Y0123700D01*
X0298993Y0123700D01*
X0298173Y0122880D01*
X0298173Y0120079D01*
X0297573Y0119479D01*
X0297085Y0118303D01*
X0297085Y0118300D01*
X0285277Y0118300D01*
X0283807Y0117691D01*
X0282682Y0116566D01*
X0282682Y0116566D01*
X0272416Y0106300D01*
X0265473Y0106300D01*
X0265473Y0108623D01*
X0262895Y0111200D01*
X0259250Y0111200D01*
X0258850Y0110800D01*
X0252973Y0110800D01*
X0252973Y0113623D01*
X0250395Y0116200D01*
X0249830Y0116200D01*
X0242839Y0123191D01*
X0241368Y0123800D01*
X0190730Y0123800D01*
X0184073Y0130457D01*
X0184073Y0151096D01*
X0183464Y0152566D01*
X0173964Y0162066D01*
X0172839Y0163191D01*
X0171368Y0163800D01*
X0171295Y0163800D01*
X0170895Y0164200D01*
X0167250Y0164200D01*
X0164673Y0161623D01*
X0164673Y0157977D01*
X0167250Y0155400D01*
X0113573Y0155400D01*
X0113573Y0152200D02*
X0172516Y0152200D01*
X0173573Y0151143D02*
X0173573Y0110800D01*
X0176773Y0110800D02*
X0176773Y0126443D01*
X0176682Y0126534D02*
X0177807Y0125409D01*
X0186807Y0116409D01*
X0188277Y0115800D01*
X0238916Y0115800D01*
X0243916Y0110800D01*
X0105795Y0110800D01*
X0105395Y0111200D01*
X0101750Y0111200D01*
X0099173Y0108623D01*
X0099173Y0106857D01*
X0098473Y0107557D01*
X0098473Y0108123D01*
X0095895Y0110700D01*
X0092250Y0110700D01*
X0090290Y0108740D01*
X0089980Y0109050D01*
X0090373Y0108823D02*
X0090373Y0109443D01*
X0091530Y0110600D02*
X0092150Y0110600D01*
X0093573Y0110700D02*
X0093573Y0112643D01*
X0094730Y0113800D02*
X0240916Y0113800D01*
X0240773Y0113943D02*
X0240773Y0110800D01*
X0237573Y0110800D02*
X0237573Y0115800D01*
X0234373Y0115800D02*
X0234373Y0110800D01*
X0231173Y0110800D02*
X0231173Y0115800D01*
X0227973Y0115800D02*
X0227973Y0110800D01*
X0224773Y0110800D02*
X0224773Y0115800D01*
X0221573Y0115800D02*
X0221573Y0110800D01*
X0218373Y0110800D02*
X0218373Y0115800D01*
X0215173Y0115800D02*
X0215173Y0110800D01*
X0211973Y0110800D02*
X0211973Y0115800D01*
X0208773Y0115800D02*
X0208773Y0110800D01*
X0205573Y0110800D02*
X0205573Y0115800D01*
X0202373Y0115800D02*
X0202373Y0110800D01*
X0199173Y0110800D02*
X0199173Y0115800D01*
X0195973Y0115800D02*
X0195973Y0110800D01*
X0192773Y0110800D02*
X0192773Y0115800D01*
X0189573Y0115800D02*
X0189573Y0110800D01*
X0186373Y0110800D02*
X0186373Y0116843D01*
X0186216Y0117000D02*
X0097930Y0117000D01*
X0096773Y0115843D02*
X0096773Y0109823D01*
X0095995Y0110600D02*
X0101150Y0110600D01*
X0099973Y0109423D02*
X0099973Y0119043D01*
X0101130Y0120200D02*
X0183016Y0120200D01*
X0183173Y0120043D02*
X0183173Y0110800D01*
X0179973Y0110800D02*
X0179973Y0123243D01*
X0179816Y0123400D02*
X0104330Y0123400D01*
X0103173Y0122243D02*
X0103173Y0111200D01*
X0106373Y0110800D02*
X0106373Y0125443D01*
X0107530Y0126600D02*
X0176655Y0126600D01*
X0176682Y0126534D02*
X0176073Y0128004D01*
X0176073Y0148643D01*
X0169316Y0155400D01*
X0167250Y0155400D01*
X0167173Y0155477D02*
X0167173Y0110800D01*
X0170373Y0110800D02*
X0170373Y0154343D01*
X0176773Y0159257D02*
X0176773Y0165241D01*
X0179973Y0165241D02*
X0179973Y0156057D01*
X0180630Y0155400D02*
X0192573Y0155400D01*
X0192573Y0152200D02*
X0183615Y0152200D01*
X0183173Y0152857D02*
X0183173Y0165241D01*
X0186373Y0165241D02*
X0186373Y0128157D01*
X0187930Y0126600D02*
X0338716Y0126600D01*
X0336773Y0124657D02*
X0336773Y0143777D01*
X0335595Y0142600D02*
X0339573Y0142600D01*
X0339573Y0139400D02*
X0200573Y0139400D01*
X0200573Y0142600D02*
X0331550Y0142600D01*
X0330373Y0143777D02*
X0330373Y0118257D01*
X0329973Y0120200D02*
X0332316Y0120200D01*
X0333573Y0121457D02*
X0333573Y0142400D01*
X0333573Y0146800D02*
X0348573Y0161800D01*
X0383573Y0161800D01*
X0388573Y0156800D02*
X0348573Y0156800D01*
X0343573Y0151800D01*
X0343573Y0125800D01*
X0329632Y0111859D01*
X0325089Y0111859D01*
X0325089Y0109477D02*
X0316896Y0109477D01*
X0316573Y0109800D02*
X0316573Y0115800D01*
X0317955Y0114418D01*
X0325089Y0114418D01*
X0325089Y0116977D02*
X0324411Y0117800D01*
X0317073Y0117800D01*
X0316573Y0115800D01*
X0316573Y0109800D02*
X0316573Y0106800D01*
X0316573Y0104300D01*
X0316573Y0102300D01*
X0316573Y0095800D01*
X0309573Y0095800D01*
X0308573Y0096800D01*
X0302175Y0096800D01*
X0302057Y0096682D01*
X0290455Y0096682D01*
X0285573Y0091800D01*
X0285573Y0095300D02*
X0285573Y0082800D01*
X0288773Y0082800D02*
X0288773Y0095300D01*
X0291973Y0095300D02*
X0291973Y0082800D01*
X0292916Y0082800D02*
X0199617Y0082800D01*
X0198636Y0083781D01*
X0194510Y0083781D01*
X0191592Y0080863D01*
X0191592Y0078300D01*
X0184795Y0078300D01*
X0182895Y0080200D01*
X0179250Y0080200D01*
X0176673Y0077623D01*
X0176673Y0075800D01*
X0145230Y0075800D01*
X0143230Y0077800D01*
X0166350Y0077800D01*
X0166750Y0077400D01*
X0170395Y0077400D01*
X0172973Y0079977D01*
X0172973Y0083623D01*
X0170395Y0086200D01*
X0166750Y0086200D01*
X0166350Y0085800D01*
X0128795Y0085800D01*
X0130473Y0087477D01*
X0130473Y0090800D01*
X0277368Y0090800D01*
X0278839Y0091409D01*
X0282730Y0095300D01*
X0297085Y0095300D01*
X0297085Y0092797D01*
X0297573Y0091621D01*
X0298057Y0091137D01*
X0298057Y0087520D01*
X0298064Y0087504D01*
X0297307Y0087191D01*
X0296182Y0086066D01*
X0292916Y0082800D01*
X0295116Y0085000D02*
X0171595Y0085000D01*
X0170373Y0086200D02*
X0170373Y0090800D01*
X0173573Y0090800D02*
X0173573Y0075800D01*
X0170373Y0075800D02*
X0170373Y0077400D01*
X0171595Y0078600D02*
X0177650Y0078600D01*
X0176773Y0077723D02*
X0176773Y0090800D01*
X0179973Y0090800D02*
X0179973Y0080200D01*
X0183173Y0079923D02*
X0183173Y0090800D01*
X0186373Y0090800D02*
X0186373Y0078300D01*
X0184495Y0078600D02*
X0191592Y0078600D01*
X0189573Y0078300D02*
X0189573Y0090800D01*
X0192773Y0090800D02*
X0192773Y0082044D01*
X0192529Y0081800D02*
X0172973Y0081800D01*
X0168573Y0081800D02*
X0083573Y0081800D01*
X0082431Y0081367D01*
X0084573Y0089300D02*
X0082431Y0091367D01*
X0084573Y0089300D02*
X0126073Y0089300D01*
X0130473Y0088200D02*
X0298057Y0088200D01*
X0297794Y0091400D02*
X0278817Y0091400D01*
X0279173Y0091743D02*
X0279173Y0082800D01*
X0282373Y0082800D02*
X0282373Y0094943D01*
X0282030Y0094600D02*
X0297085Y0094600D01*
X0295173Y0095300D02*
X0295173Y0085057D01*
X0299573Y0083800D02*
X0302573Y0083800D01*
X0304573Y0085800D01*
X0311573Y0078800D01*
X0311573Y0059800D01*
X0305896Y0054123D01*
X0302057Y0054123D01*
X0302057Y0056682D02*
X0283691Y0056682D01*
X0281573Y0059300D01*
X0278573Y0061800D01*
X0203573Y0061800D01*
X0202573Y0060800D01*
X0202396Y0059477D02*
X0197057Y0059477D01*
X0197057Y0056918D02*
X0202455Y0056918D01*
X0197057Y0054359D02*
X0196073Y0054300D01*
X0186073Y0054300D01*
X0183573Y0056800D01*
X0158573Y0056800D01*
X0168573Y0051800D02*
X0197057Y0051800D01*
X0197057Y0049241D02*
X0196073Y0049300D01*
X0186073Y0049300D01*
X0183573Y0046800D01*
X0153573Y0046800D01*
X0154373Y0042400D02*
X0154373Y0039657D01*
X0153830Y0040200D02*
X0191973Y0040200D01*
X0191973Y0037000D02*
X0156991Y0037000D01*
X0156964Y0037066D02*
X0155839Y0038191D01*
X0152573Y0041457D01*
X0152573Y0042400D01*
X0155395Y0042400D01*
X0155795Y0042800D01*
X0184368Y0042800D01*
X0185839Y0043409D01*
X0186964Y0044534D01*
X0187730Y0045300D01*
X0191973Y0045300D01*
X0191973Y0034637D01*
X0192910Y0033700D01*
X0204173Y0033700D01*
X0204173Y0033623D01*
X0201080Y0030530D01*
X0199843Y0029292D01*
X0199173Y0027675D01*
X0199173Y0033700D01*
X0202373Y0033700D02*
X0202373Y0031823D01*
X0201150Y0030600D02*
X0157573Y0030600D01*
X0157573Y0027400D02*
X0199173Y0027400D01*
X0199173Y0027675D02*
X0199173Y0014358D01*
X0198789Y0015285D01*
X0197058Y0017016D01*
X0194797Y0017953D01*
X0192349Y0017953D01*
X0190088Y0017016D01*
X0188357Y0015285D01*
X0187807Y0013958D01*
X0187638Y0014291D01*
X0187198Y0014896D01*
X0186669Y0015425D01*
X0186064Y0015865D01*
X0185397Y0016205D01*
X0184686Y0016436D01*
X0183947Y0016553D01*
X0183757Y0016553D01*
X0183757Y0011984D01*
X0183389Y0011984D01*
X0183389Y0016553D01*
X0183199Y0016553D01*
X0182460Y0016436D01*
X0181748Y0016205D01*
X0181082Y0015865D01*
X0180477Y0015425D01*
X0179948Y0014896D01*
X0179508Y0014291D01*
X0179168Y0013624D01*
X0178937Y0012913D01*
X0178820Y0012174D01*
X0178820Y0011984D01*
X0183388Y0011984D01*
X0183388Y0011616D01*
X0178820Y0011616D01*
X0178820Y0011426D01*
X0178937Y0010687D01*
X0178965Y0010600D01*
X0178180Y0010600D01*
X0178209Y0010687D01*
X0178326Y0011426D01*
X0178326Y0011616D01*
X0173757Y0011616D01*
X0173757Y0011984D01*
X0178326Y0011984D01*
X0178326Y0012174D01*
X0178209Y0012913D01*
X0177977Y0013624D01*
X0177638Y0014291D01*
X0177198Y0014896D01*
X0176669Y0015425D01*
X0176064Y0015865D01*
X0175397Y0016205D01*
X0174686Y0016436D01*
X0173947Y0016553D01*
X0173757Y0016553D01*
X0173757Y0011984D01*
X0173389Y0011984D01*
X0173389Y0016553D01*
X0173199Y0016553D01*
X0172460Y0016436D01*
X0171748Y0016205D01*
X0171082Y0015865D01*
X0170477Y0015425D01*
X0169948Y0014896D01*
X0169508Y0014291D01*
X0169338Y0013958D01*
X0168789Y0015285D01*
X0167058Y0017016D01*
X0164797Y0017953D01*
X0162349Y0017953D01*
X0160088Y0017016D01*
X0158573Y0015501D01*
X0157573Y0016501D01*
X0157573Y0042800D01*
X0160773Y0042800D02*
X0160773Y0017300D01*
X0161980Y0017800D02*
X0157573Y0017800D01*
X0157573Y0016501D02*
X0157573Y0035596D01*
X0156964Y0037066D01*
X0157573Y0033800D02*
X0192810Y0033800D01*
X0192773Y0033837D02*
X0192773Y0017953D01*
X0191980Y0017800D02*
X0165165Y0017800D01*
X0163973Y0017953D02*
X0163973Y0042800D01*
X0167173Y0042800D02*
X0167173Y0016901D01*
X0169073Y0014600D02*
X0169732Y0014600D01*
X0170373Y0015321D02*
X0170373Y0042800D01*
X0173573Y0042800D02*
X0173573Y0011984D01*
X0173389Y0014600D02*
X0173757Y0014600D01*
X0176773Y0015321D02*
X0176773Y0042800D01*
X0179973Y0042800D02*
X0179973Y0014921D01*
X0179732Y0014600D02*
X0177413Y0014600D01*
X0176773Y0011984D02*
X0176773Y0011616D01*
X0178321Y0011400D02*
X0178824Y0011400D01*
X0179973Y0011616D02*
X0179973Y0011984D01*
X0183173Y0011984D02*
X0183173Y0011616D01*
X0183389Y0014600D02*
X0183757Y0014600D01*
X0183173Y0016549D02*
X0183173Y0042800D01*
X0185817Y0043400D02*
X0191973Y0043400D01*
X0189573Y0045300D02*
X0189573Y0016501D01*
X0188073Y0014600D02*
X0187413Y0014600D01*
X0186373Y0015640D02*
X0186373Y0043943D01*
X0197057Y0044123D02*
X0202396Y0044123D01*
X0202514Y0041741D02*
X0197057Y0041741D01*
X0197057Y0039182D02*
X0202455Y0039182D01*
X0202396Y0036623D02*
X0197057Y0036623D01*
X0195973Y0033700D02*
X0195973Y0017466D01*
X0195165Y0017800D02*
X0199173Y0017800D01*
X0199173Y0014600D02*
X0199073Y0014600D01*
X0199173Y0021000D02*
X0157573Y0021000D01*
X0157573Y0024200D02*
X0199173Y0024200D01*
X0210969Y0027973D02*
X0211065Y0028070D01*
X0211065Y0028070D01*
X0212303Y0029308D01*
X0212973Y0030925D01*
X0212973Y0033700D01*
X0216025Y0033700D01*
X0216504Y0033221D01*
X0217680Y0032734D01*
X0222497Y0032734D01*
X0223673Y0033221D01*
X0224573Y0034121D01*
X0225060Y0035297D01*
X0225060Y0042800D01*
X0237916Y0042800D01*
X0238307Y0042409D01*
X0239777Y0041800D01*
X0246368Y0041800D01*
X0247839Y0042409D01*
X0248230Y0042800D01*
X0338850Y0042800D01*
X0339250Y0042400D01*
X0342895Y0042400D01*
X0343856Y0043360D01*
X0359757Y0027459D01*
X0358573Y0026275D01*
X0357368Y0027480D01*
X0354906Y0028500D01*
X0352240Y0028500D01*
X0349778Y0027480D01*
X0348573Y0026275D01*
X0347368Y0027480D01*
X0344906Y0028500D01*
X0342240Y0028500D01*
X0339778Y0027480D01*
X0338573Y0026275D01*
X0337368Y0027480D01*
X0334906Y0028500D01*
X0332240Y0028500D01*
X0329778Y0027480D01*
X0328573Y0026275D01*
X0327368Y0027480D01*
X0324906Y0028500D01*
X0322240Y0028500D01*
X0319778Y0027480D01*
X0318573Y0026275D01*
X0317368Y0027480D01*
X0314906Y0028500D01*
X0312240Y0028500D01*
X0309778Y0027480D01*
X0308573Y0026275D01*
X0307368Y0027480D01*
X0304906Y0028500D01*
X0302240Y0028500D01*
X0299778Y0027480D01*
X0297893Y0025595D01*
X0296873Y0023133D01*
X0296873Y0020467D01*
X0297893Y0018005D01*
X0299485Y0016413D01*
X0298357Y0015285D01*
X0297420Y0013024D01*
X0297420Y0010600D01*
X0289726Y0010600D01*
X0289726Y0013024D01*
X0288789Y0015285D01*
X0287661Y0016413D01*
X0289253Y0018005D01*
X0290273Y0020467D01*
X0290273Y0023133D01*
X0289253Y0025595D01*
X0287368Y0027480D01*
X0284906Y0028500D01*
X0282240Y0028500D01*
X0279778Y0027480D01*
X0278573Y0026275D01*
X0277368Y0027480D01*
X0274906Y0028500D01*
X0272240Y0028500D01*
X0269778Y0027480D01*
X0268573Y0026275D01*
X0267368Y0027480D01*
X0264906Y0028500D01*
X0262240Y0028500D01*
X0259778Y0027480D01*
X0258573Y0026275D01*
X0257368Y0027480D01*
X0254906Y0028500D01*
X0252240Y0028500D01*
X0249778Y0027480D01*
X0248573Y0026275D01*
X0247368Y0027480D01*
X0244906Y0028500D01*
X0242240Y0028500D01*
X0239778Y0027480D01*
X0238573Y0026275D01*
X0237368Y0027480D01*
X0234906Y0028500D01*
X0232240Y0028500D01*
X0229778Y0027480D01*
X0228573Y0026275D01*
X0227368Y0027480D01*
X0224906Y0028500D01*
X0222240Y0028500D01*
X0219778Y0027480D01*
X0218573Y0026275D01*
X0217368Y0027480D01*
X0214906Y0028500D01*
X0212240Y0028500D01*
X0210969Y0027973D01*
X0211973Y0028389D02*
X0211973Y0028977D01*
X0212838Y0030600D02*
X0356616Y0030600D01*
X0355973Y0031243D02*
X0355973Y0028058D01*
X0357448Y0027400D02*
X0359698Y0027400D01*
X0359173Y0026875D02*
X0359173Y0028043D01*
X0352773Y0028500D02*
X0352773Y0034443D01*
X0353416Y0033800D02*
X0224252Y0033800D01*
X0224773Y0034604D02*
X0224773Y0028500D01*
X0227448Y0027400D02*
X0229698Y0027400D01*
X0231173Y0028058D02*
X0231173Y0042800D01*
X0234373Y0042800D02*
X0234373Y0028500D01*
X0237448Y0027400D02*
X0239698Y0027400D01*
X0240773Y0027892D02*
X0240773Y0041800D01*
X0243973Y0041800D02*
X0243973Y0028500D01*
X0247173Y0027561D02*
X0247173Y0042133D01*
X0250373Y0042800D02*
X0250373Y0027727D01*
X0249698Y0027400D02*
X0247448Y0027400D01*
X0253573Y0028500D02*
X0253573Y0042800D01*
X0256773Y0042800D02*
X0256773Y0027727D01*
X0257448Y0027400D02*
X0259698Y0027400D01*
X0259973Y0027561D02*
X0259973Y0042800D01*
X0263173Y0042800D02*
X0263173Y0028500D01*
X0266373Y0027892D02*
X0266373Y0042800D01*
X0269573Y0042800D02*
X0269573Y0027275D01*
X0269698Y0027400D02*
X0267448Y0027400D01*
X0272773Y0028500D02*
X0272773Y0042800D01*
X0275973Y0042800D02*
X0275973Y0028058D01*
X0277448Y0027400D02*
X0279698Y0027400D01*
X0279173Y0026875D02*
X0279173Y0042800D01*
X0282373Y0042800D02*
X0282373Y0028500D01*
X0285573Y0028224D02*
X0285573Y0042800D01*
X0288773Y0042800D02*
X0288773Y0026075D01*
X0287448Y0027400D02*
X0299698Y0027400D01*
X0298373Y0026075D02*
X0298373Y0042800D01*
X0301573Y0042800D02*
X0301573Y0028224D01*
X0304773Y0028500D02*
X0304773Y0042800D01*
X0307973Y0042800D02*
X0307973Y0026875D01*
X0307448Y0027400D02*
X0309698Y0027400D01*
X0311173Y0028058D02*
X0311173Y0042800D01*
X0314373Y0042800D02*
X0314373Y0028500D01*
X0317448Y0027400D02*
X0319698Y0027400D01*
X0320773Y0027892D02*
X0320773Y0042800D01*
X0323973Y0042800D02*
X0323973Y0028500D01*
X0327173Y0027561D02*
X0327173Y0042800D01*
X0330373Y0042800D02*
X0330373Y0027727D01*
X0329698Y0027400D02*
X0327448Y0027400D01*
X0333573Y0028500D02*
X0333573Y0042800D01*
X0336773Y0042800D02*
X0336773Y0027727D01*
X0337448Y0027400D02*
X0339698Y0027400D01*
X0339973Y0027561D02*
X0339973Y0042400D01*
X0343173Y0042677D02*
X0343173Y0028500D01*
X0346373Y0027892D02*
X0346373Y0040843D01*
X0347016Y0040200D02*
X0225060Y0040200D01*
X0225060Y0037000D02*
X0350216Y0037000D01*
X0349573Y0037643D02*
X0349573Y0027275D01*
X0349698Y0027400D02*
X0347448Y0027400D01*
X0343573Y0021800D02*
X0343573Y0011800D01*
X0333573Y0011800D02*
X0333573Y0021800D01*
X0323573Y0021800D02*
X0323573Y0011800D01*
X0313573Y0011800D02*
X0313573Y0021800D01*
X0317573Y0027275D02*
X0317573Y0042800D01*
X0308573Y0051800D02*
X0246573Y0051800D01*
X0245573Y0052800D01*
X0240573Y0052800D01*
X0239573Y0051800D01*
X0220089Y0051800D01*
X0220089Y0049241D02*
X0218573Y0049300D01*
X0243573Y0049300D01*
X0246573Y0046800D02*
X0245573Y0045800D01*
X0240573Y0045800D01*
X0239573Y0046800D01*
X0221073Y0046800D01*
X0220089Y0046682D01*
X0227973Y0042800D02*
X0227973Y0026875D01*
X0221573Y0028224D02*
X0221573Y0032734D01*
X0218373Y0032734D02*
X0218373Y0026475D01*
X0217448Y0027400D02*
X0219698Y0027400D01*
X0215173Y0028389D02*
X0215173Y0033700D01*
X0213573Y0021800D02*
X0213573Y0011800D01*
X0223573Y0011800D02*
X0223573Y0021800D01*
X0233573Y0021800D02*
X0233573Y0011800D01*
X0243573Y0011800D02*
X0243573Y0021800D01*
X0237573Y0027275D02*
X0237573Y0042800D01*
X0246573Y0046800D02*
X0341073Y0046800D01*
X0336416Y0050800D02*
X0330673Y0050800D01*
X0330673Y0052800D01*
X0334416Y0052800D01*
X0336416Y0050800D01*
X0333573Y0050800D02*
X0333573Y0052800D01*
X0333573Y0051800D02*
X0331250Y0054123D01*
X0325089Y0054123D01*
X0325089Y0056682D02*
X0326073Y0056800D01*
X0336073Y0056800D01*
X0366073Y0026800D01*
X0367930Y0030600D02*
X0365730Y0032800D01*
X0378919Y0032800D01*
X0378820Y0032174D01*
X0378820Y0031984D01*
X0383388Y0031984D01*
X0383388Y0031616D01*
X0378820Y0031616D01*
X0378820Y0031426D01*
X0378937Y0030687D01*
X0378965Y0030600D01*
X0367930Y0030600D01*
X0378965Y0030600D01*
X0378373Y0030600D02*
X0378373Y0032800D01*
X0375173Y0032800D02*
X0375173Y0030600D01*
X0371973Y0030600D02*
X0371973Y0032800D01*
X0368773Y0032800D02*
X0368773Y0030600D01*
X0361073Y0036800D02*
X0338573Y0059300D01*
X0326073Y0059300D01*
X0325089Y0059241D01*
X0325089Y0061800D02*
X0341073Y0061800D01*
X0361073Y0041800D01*
X0383573Y0041800D01*
X0388573Y0046800D02*
X0393573Y0041800D01*
X0388573Y0046800D02*
X0361073Y0046800D01*
X0343573Y0064300D01*
X0326073Y0064300D01*
X0325089Y0064359D01*
X0325089Y0066918D02*
X0326073Y0066800D01*
X0351073Y0066800D01*
X0346073Y0075300D02*
X0346073Y0090300D01*
X0352573Y0096800D01*
X0388573Y0096800D01*
X0393573Y0101800D01*
X0391073Y0106800D02*
X0386073Y0101800D01*
X0383573Y0101800D01*
X0386073Y0106800D02*
X0358573Y0106800D01*
X0343573Y0091800D01*
X0343573Y0076800D01*
X0338573Y0071800D01*
X0326073Y0071800D01*
X0325089Y0071859D01*
X0325089Y0069477D02*
X0340250Y0069477D01*
X0346073Y0075300D01*
X0339573Y0078457D02*
X0336916Y0075800D01*
X0330673Y0075800D01*
X0330673Y0081463D01*
X0329736Y0082400D01*
X0313630Y0082400D01*
X0307964Y0088066D01*
X0306839Y0089191D01*
X0306839Y0089191D01*
X0306630Y0089400D01*
X0329153Y0089400D01*
X0329973Y0090220D01*
X0329973Y0091380D01*
X0329973Y0092682D01*
X0339368Y0092682D01*
X0339658Y0092802D01*
X0339573Y0092596D01*
X0339573Y0078457D01*
X0339573Y0078600D02*
X0330673Y0078600D01*
X0330373Y0081763D02*
X0330373Y0092682D01*
X0329973Y0091400D02*
X0339573Y0091400D01*
X0336773Y0092682D02*
X0336773Y0075800D01*
X0333573Y0075800D02*
X0333573Y0092682D01*
X0338573Y0096682D02*
X0343573Y0101682D01*
X0343573Y0116800D01*
X0353573Y0126800D01*
X0363573Y0131800D02*
X0368573Y0136800D01*
X0373573Y0141800D02*
X0378573Y0146800D01*
X0388573Y0146800D01*
X0393573Y0141800D01*
X0383573Y0131800D02*
X0378573Y0136800D01*
X0383573Y0121800D02*
X0378573Y0116800D01*
X0383573Y0111800D02*
X0388573Y0116800D01*
X0401073Y0116800D01*
X0401073Y0031800D01*
X0396073Y0026800D01*
X0393388Y0031616D02*
X0388820Y0031616D01*
X0388820Y0031426D01*
X0388937Y0030687D01*
X0388965Y0030600D01*
X0388180Y0030600D01*
X0388209Y0030687D01*
X0388326Y0031426D01*
X0388326Y0031616D01*
X0383757Y0031616D01*
X0383757Y0031984D01*
X0388326Y0031984D01*
X0388326Y0032174D01*
X0388226Y0032800D01*
X0388919Y0032800D01*
X0388820Y0032174D01*
X0388820Y0031984D01*
X0393388Y0031984D01*
X0393388Y0031616D01*
X0391173Y0031616D02*
X0391173Y0031984D01*
X0388965Y0030600D02*
X0388180Y0030600D01*
X0387973Y0031616D02*
X0387973Y0031984D01*
X0384773Y0031984D02*
X0384773Y0031616D01*
X0381573Y0031616D02*
X0381573Y0031984D01*
X0373573Y0021800D02*
X0373573Y0011800D01*
X0363573Y0011800D02*
X0363573Y0021800D01*
X0353573Y0021800D02*
X0353573Y0011800D01*
X0361073Y0036800D02*
X0396073Y0036800D01*
X0398573Y0039300D01*
X0398573Y0106800D01*
X0391073Y0106800D01*
X0391073Y0111800D02*
X0386073Y0106800D01*
X0391073Y0111800D02*
X0393573Y0111800D01*
X0396573Y0126800D02*
X0399573Y0129800D01*
X0399573Y0165800D01*
X0393573Y0171800D01*
X0388573Y0176800D02*
X0393573Y0181800D01*
X0388573Y0176800D02*
X0380073Y0176800D01*
X0377632Y0174359D01*
X0220089Y0174359D01*
X0219970Y0176800D02*
X0220089Y0176918D01*
X0219970Y0176800D02*
X0212573Y0176800D01*
X0209073Y0180300D01*
X0209073Y0187300D01*
X0202073Y0194300D01*
X0156073Y0194300D01*
X0148573Y0201800D01*
X0147573Y0201800D01*
X0138573Y0201800D02*
X0137573Y0201800D01*
X0138573Y0201800D02*
X0148573Y0191800D01*
X0200573Y0191800D01*
X0206073Y0186300D01*
X0206073Y0179300D01*
X0213573Y0171800D01*
X0220089Y0171800D01*
X0220089Y0169241D02*
X0221073Y0169300D01*
X0381073Y0169300D01*
X0383573Y0171800D01*
X0383573Y0181800D02*
X0376073Y0181800D01*
X0373750Y0179477D01*
X0220089Y0179477D01*
X0220089Y0181859D02*
X0368632Y0181859D01*
X0373573Y0186800D01*
X0388573Y0186800D01*
X0393573Y0191800D01*
X0383573Y0191800D02*
X0373573Y0191800D01*
X0366073Y0184300D01*
X0221073Y0184300D01*
X0220089Y0184418D01*
X0220089Y0186977D02*
X0218750Y0186977D01*
X0215573Y0186800D01*
X0266073Y0186800D01*
X0274073Y0194800D01*
X0274073Y0209300D01*
X0264573Y0218800D01*
X0244573Y0218800D01*
X0212073Y0218800D01*
X0203573Y0227300D01*
X0203573Y0227800D01*
X0204177Y0229000D02*
X0185561Y0229000D01*
X0186373Y0229812D02*
X0186373Y0210800D01*
X0189573Y0210800D02*
X0189573Y0232000D01*
X0188561Y0232000D02*
X0201449Y0232000D01*
X0209458Y0223190D01*
X0209504Y0223081D01*
X0210098Y0222487D01*
X0210663Y0221865D01*
X0210770Y0221814D01*
X0210854Y0221731D01*
X0211630Y0221409D01*
X0212391Y0221051D01*
X0212509Y0221045D01*
X0212618Y0221000D01*
X0213459Y0221000D01*
X0214298Y0220960D01*
X0214409Y0221000D01*
X0297116Y0221000D01*
X0284069Y0207953D01*
X0282349Y0207953D01*
X0280088Y0207016D01*
X0278357Y0205285D01*
X0277420Y0203024D01*
X0277420Y0200576D01*
X0278357Y0198315D01*
X0280088Y0196584D01*
X0282349Y0195647D01*
X0284797Y0195647D01*
X0287058Y0196584D01*
X0288573Y0198099D01*
X0290088Y0196584D01*
X0292349Y0195647D01*
X0294797Y0195647D01*
X0297058Y0196584D01*
X0298573Y0198099D01*
X0300088Y0196584D01*
X0302349Y0195647D01*
X0304797Y0195647D01*
X0307058Y0196584D01*
X0308573Y0198099D01*
X0309573Y0197099D01*
X0309573Y0191004D01*
X0310182Y0189534D01*
X0311307Y0188409D01*
X0311416Y0188300D01*
X0224473Y0188300D01*
X0224473Y0192380D01*
X0223853Y0193000D01*
X0266829Y0193000D01*
X0268225Y0193579D01*
X0269294Y0194647D01*
X0269547Y0194900D01*
X0270395Y0194900D01*
X0272973Y0197477D01*
X0272973Y0201123D01*
X0270395Y0203700D01*
X0269446Y0203700D01*
X0268789Y0205285D01*
X0267058Y0207016D01*
X0264797Y0207953D01*
X0262349Y0207953D01*
X0260088Y0207016D01*
X0258573Y0205501D01*
X0257058Y0207016D01*
X0254797Y0207953D01*
X0253077Y0207953D01*
X0250839Y0210191D01*
X0249368Y0210800D01*
X0120230Y0210800D01*
X0117973Y0213057D01*
X0117973Y0213623D01*
X0115395Y0216200D01*
X0111750Y0216200D01*
X0109173Y0213623D01*
X0109173Y0209977D01*
X0111750Y0207400D01*
X0112316Y0207400D01*
X0114384Y0205332D01*
X0113948Y0204896D01*
X0113508Y0204291D01*
X0113338Y0203958D01*
X0112789Y0205285D01*
X0111058Y0207016D01*
X0108797Y0207953D01*
X0106349Y0207953D01*
X0104088Y0207016D01*
X0102357Y0205285D01*
X0101420Y0203024D01*
X0101420Y0200576D01*
X0102357Y0198315D01*
X0104088Y0196584D01*
X0106349Y0195647D01*
X0108797Y0195647D01*
X0111058Y0196584D01*
X0112789Y0198315D01*
X0113338Y0199642D01*
X0113508Y0199309D01*
X0113948Y0198704D01*
X0114477Y0198175D01*
X0115082Y0197735D01*
X0115748Y0197395D01*
X0116460Y0197164D01*
X0117199Y0197047D01*
X0117389Y0197047D01*
X0117389Y0201616D01*
X0117757Y0201616D01*
X0117757Y0201984D01*
X0121420Y0201984D01*
X0121420Y0201616D01*
X0117757Y0201616D01*
X0117757Y0197047D01*
X0117947Y0197047D01*
X0118686Y0197164D01*
X0119397Y0197395D01*
X0120064Y0197735D01*
X0120669Y0198175D01*
X0121198Y0198704D01*
X0121638Y0199309D01*
X0121807Y0199642D01*
X0122357Y0198315D01*
X0124088Y0196584D01*
X0126349Y0195647D01*
X0128797Y0195647D01*
X0131058Y0196584D01*
X0132573Y0198099D01*
X0134088Y0196584D01*
X0136349Y0195647D01*
X0138797Y0195647D01*
X0138989Y0195727D01*
X0143916Y0190800D01*
X0098230Y0190800D01*
X0097464Y0191566D01*
X0096339Y0192691D01*
X0094868Y0193300D01*
X0087777Y0193300D01*
X0087231Y0193074D01*
X0087231Y0193355D01*
X0084419Y0196167D01*
X0082631Y0196167D01*
X0082631Y0191567D01*
X0082231Y0191567D01*
X0082231Y0196167D01*
X0080443Y0196167D01*
X0078610Y0194334D01*
X0078590Y0198420D01*
X0080443Y0196567D01*
X0082231Y0196567D01*
X0082231Y0201167D01*
X0082631Y0201167D01*
X0082631Y0196567D01*
X0084419Y0196567D01*
X0087231Y0199379D01*
X0087231Y0201167D01*
X0082631Y0201167D01*
X0082631Y0201567D01*
X0082231Y0201567D01*
X0082231Y0206167D01*
X0080443Y0206167D01*
X0078421Y0204145D01*
X0075209Y0207357D01*
X0077231Y0209379D01*
X0077231Y0211167D01*
X0072631Y0211167D01*
X0072631Y0211567D01*
X0072231Y0211567D01*
X0072231Y0216167D01*
X0070443Y0216167D01*
X0068373Y0214097D01*
X0068373Y0215812D01*
X0072561Y0220000D01*
X0175528Y0220000D01*
X0177292Y0220731D01*
X0178642Y0222081D01*
X0188561Y0232000D01*
X0192773Y0232000D02*
X0192773Y0210800D01*
X0195973Y0210800D02*
X0195973Y0232000D01*
X0199173Y0232000D02*
X0199173Y0210800D01*
X0202373Y0210800D02*
X0202373Y0230984D01*
X0205573Y0227464D02*
X0205573Y0210800D01*
X0208773Y0210800D02*
X0208773Y0223944D01*
X0209985Y0222600D02*
X0179161Y0222600D01*
X0179973Y0223412D02*
X0179973Y0210800D01*
X0183173Y0210800D02*
X0183173Y0226612D01*
X0182361Y0225800D02*
X0207086Y0225800D01*
X0211973Y0221248D02*
X0211973Y0210800D01*
X0215173Y0210800D02*
X0215173Y0221000D01*
X0218373Y0221000D02*
X0218373Y0210800D01*
X0221573Y0210800D02*
X0221573Y0221000D01*
X0224773Y0221000D02*
X0224773Y0210800D01*
X0227973Y0210800D02*
X0227973Y0221000D01*
X0231173Y0221000D02*
X0231173Y0210800D01*
X0234373Y0210800D02*
X0234373Y0221000D01*
X0237573Y0221000D02*
X0237573Y0210800D01*
X0240773Y0210800D02*
X0240773Y0221000D01*
X0243973Y0221000D02*
X0243973Y0210800D01*
X0247173Y0210800D02*
X0247173Y0221000D01*
X0250373Y0221000D02*
X0250373Y0210384D01*
X0251230Y0209800D02*
X0285916Y0209800D01*
X0285573Y0209457D02*
X0285573Y0221000D01*
X0288773Y0221000D02*
X0288773Y0212657D01*
X0289116Y0213000D02*
X0118030Y0213000D01*
X0119173Y0211857D02*
X0119173Y0220000D01*
X0122373Y0220000D02*
X0122373Y0210800D01*
X0125573Y0210800D02*
X0125573Y0220000D01*
X0128773Y0220000D02*
X0128773Y0210800D01*
X0131973Y0210800D02*
X0131973Y0220000D01*
X0135173Y0220000D02*
X0135173Y0210800D01*
X0138373Y0210800D02*
X0138373Y0220000D01*
X0141573Y0220000D02*
X0141573Y0210800D01*
X0144773Y0210800D02*
X0144773Y0220000D01*
X0147973Y0220000D02*
X0147973Y0210800D01*
X0151173Y0210800D02*
X0151173Y0220000D01*
X0154373Y0220000D02*
X0154373Y0210800D01*
X0157573Y0210800D02*
X0157573Y0220000D01*
X0160773Y0220000D02*
X0160773Y0210800D01*
X0163973Y0210800D02*
X0163973Y0220000D01*
X0167173Y0220000D02*
X0167173Y0210800D01*
X0170373Y0210800D02*
X0170373Y0220000D01*
X0173573Y0220000D02*
X0173573Y0210800D01*
X0176773Y0210800D02*
X0176773Y0220516D01*
X0170573Y0231800D02*
X0167313Y0231800D01*
X0170573Y0231800D02*
X0173573Y0234800D01*
X0173573Y0245800D01*
X0171573Y0247800D01*
X0134573Y0247800D01*
X0128573Y0241800D01*
X0128573Y0233800D01*
X0118573Y0241800D02*
X0127573Y0250800D01*
X0186573Y0250800D01*
X0191313Y0255540D01*
X0198573Y0255540D01*
X0200333Y0257300D01*
X0213573Y0257300D01*
X0218573Y0249300D02*
X0211073Y0241800D01*
X0208573Y0241800D01*
X0218573Y0241800D02*
X0218573Y0233800D01*
X0218573Y0241800D02*
X0223573Y0246800D01*
X0263573Y0246800D01*
X0263573Y0236800D01*
X0258573Y0231800D01*
X0257313Y0231800D01*
X0249833Y0231800D02*
X0247573Y0231800D01*
X0244573Y0234800D01*
X0244273Y0235400D02*
X0245584Y0235400D01*
X0245596Y0235448D02*
X0245474Y0234990D01*
X0245474Y0232280D01*
X0249353Y0232280D01*
X0249353Y0231320D01*
X0245474Y0231320D01*
X0245474Y0230600D01*
X0244273Y0230600D01*
X0244273Y0231685D01*
X0244273Y0235458D01*
X0243786Y0236634D01*
X0242885Y0237534D01*
X0242677Y0237621D01*
X0243539Y0238482D01*
X0243573Y0238565D01*
X0243607Y0238482D01*
X0245255Y0236834D01*
X0246433Y0236346D01*
X0246168Y0236193D01*
X0245833Y0235858D01*
X0245596Y0235448D01*
X0243973Y0236182D02*
X0243973Y0238116D01*
X0248573Y0241800D02*
X0258573Y0241800D01*
X0249353Y0232200D02*
X0244273Y0232200D01*
X0247173Y0232280D02*
X0247173Y0231320D01*
X0238573Y0230028D02*
X0238573Y0225800D01*
X0228573Y0225800D02*
X0228573Y0229800D01*
X0228573Y0233800D02*
X0228573Y0241800D01*
X0238573Y0241800D02*
X0238573Y0233572D01*
X0253573Y0221000D02*
X0253573Y0207953D01*
X0256773Y0207134D02*
X0256773Y0221000D01*
X0259973Y0221000D02*
X0259973Y0206901D01*
X0259672Y0206600D02*
X0257474Y0206600D01*
X0263173Y0207953D02*
X0263173Y0221000D01*
X0266373Y0221000D02*
X0266373Y0207300D01*
X0267474Y0206600D02*
X0279672Y0206600D01*
X0279173Y0206101D02*
X0279173Y0221000D01*
X0282373Y0221000D02*
X0282373Y0207953D01*
X0283573Y0201800D02*
X0303573Y0221800D01*
X0381073Y0221800D01*
X0377073Y0216800D02*
X0375573Y0218300D01*
X0319573Y0218300D01*
X0303573Y0201800D01*
X0307973Y0197499D02*
X0307973Y0188300D01*
X0309740Y0190600D02*
X0224473Y0190600D01*
X0224773Y0188300D02*
X0224773Y0193000D01*
X0227973Y0193000D02*
X0227973Y0188300D01*
X0231173Y0188300D02*
X0231173Y0193000D01*
X0234373Y0193000D02*
X0234373Y0188300D01*
X0237573Y0188300D02*
X0237573Y0193000D01*
X0240773Y0193000D02*
X0240773Y0188300D01*
X0243973Y0188300D02*
X0243973Y0193000D01*
X0247173Y0193000D02*
X0247173Y0188300D01*
X0250373Y0188300D02*
X0250373Y0193000D01*
X0253573Y0193000D02*
X0253573Y0188300D01*
X0256773Y0188300D02*
X0256773Y0193000D01*
X0259973Y0193000D02*
X0259973Y0188300D01*
X0263173Y0188300D02*
X0263173Y0193000D01*
X0266373Y0193000D02*
X0266373Y0188300D01*
X0269573Y0188300D02*
X0269573Y0194900D01*
X0268447Y0193800D02*
X0309573Y0193800D01*
X0309573Y0197000D02*
X0307474Y0197000D01*
X0304773Y0195647D02*
X0304773Y0188300D01*
X0301573Y0188300D02*
X0301573Y0195969D01*
X0299672Y0197000D02*
X0297474Y0197000D01*
X0298373Y0197899D02*
X0298373Y0188300D01*
X0295173Y0188300D02*
X0295173Y0195803D01*
X0291973Y0195803D02*
X0291973Y0188300D01*
X0288773Y0188300D02*
X0288773Y0197899D01*
X0289672Y0197000D02*
X0287474Y0197000D01*
X0285573Y0195969D02*
X0285573Y0188300D01*
X0282373Y0188300D02*
X0282373Y0195647D01*
X0279672Y0197000D02*
X0272495Y0197000D01*
X0272773Y0197277D02*
X0272773Y0188300D01*
X0275973Y0188300D02*
X0275973Y0221000D01*
X0272773Y0221000D02*
X0272773Y0201323D01*
X0272973Y0200200D02*
X0277576Y0200200D01*
X0279173Y0197499D02*
X0279173Y0188300D01*
X0277576Y0203400D02*
X0270695Y0203400D01*
X0269573Y0203700D02*
X0269573Y0221000D01*
X0253573Y0201800D02*
X0248573Y0206800D01*
X0118573Y0206800D01*
X0113573Y0211800D01*
X0112773Y0216200D02*
X0112773Y0220000D01*
X0115973Y0220000D02*
X0115973Y0215623D01*
X0109573Y0214023D02*
X0109573Y0220000D01*
X0106373Y0220000D02*
X0106373Y0207953D01*
X0103672Y0206600D02*
X0084452Y0206600D01*
X0084419Y0206567D02*
X0087231Y0209379D01*
X0087231Y0211167D01*
X0082631Y0211167D01*
X0082631Y0206567D01*
X0084419Y0206567D01*
X0084419Y0206167D02*
X0082631Y0206167D01*
X0082631Y0201567D01*
X0087231Y0201567D01*
X0087231Y0203355D01*
X0084419Y0206167D01*
X0083973Y0206167D02*
X0083973Y0206567D01*
X0082631Y0206600D02*
X0082231Y0206600D01*
X0082231Y0206567D02*
X0082231Y0211167D01*
X0077631Y0211167D01*
X0077631Y0209379D01*
X0080443Y0206567D01*
X0082231Y0206567D01*
X0080773Y0206567D02*
X0080773Y0206167D01*
X0080410Y0206600D02*
X0075966Y0206600D01*
X0077573Y0204993D02*
X0077573Y0220000D01*
X0080773Y0220000D02*
X0080773Y0216167D01*
X0080443Y0216167D02*
X0077631Y0213355D01*
X0077631Y0211567D01*
X0082231Y0211567D01*
X0082231Y0211167D01*
X0082631Y0211167D01*
X0082631Y0211567D01*
X0082231Y0211567D01*
X0082231Y0216167D01*
X0080443Y0216167D01*
X0082631Y0216167D02*
X0082631Y0211567D01*
X0087231Y0211567D01*
X0087231Y0213355D01*
X0084419Y0216167D01*
X0082631Y0216167D01*
X0083973Y0216167D02*
X0083973Y0220000D01*
X0087173Y0220000D02*
X0087173Y0213413D01*
X0087231Y0213000D02*
X0109173Y0213000D01*
X0109350Y0209800D02*
X0087231Y0209800D01*
X0087173Y0209320D02*
X0087173Y0203413D01*
X0087186Y0203400D02*
X0101576Y0203400D01*
X0103173Y0206101D02*
X0103173Y0220000D01*
X0099973Y0220000D02*
X0099973Y0190800D01*
X0103173Y0190800D02*
X0103173Y0197499D01*
X0103672Y0197000D02*
X0084852Y0197000D01*
X0083973Y0196567D02*
X0083973Y0196167D01*
X0082631Y0197000D02*
X0082231Y0197000D01*
X0080773Y0196567D02*
X0080773Y0196167D01*
X0080010Y0197000D02*
X0078597Y0197000D01*
X0082231Y0193800D02*
X0082631Y0193800D01*
X0086786Y0193800D02*
X0140916Y0193800D01*
X0141573Y0193143D02*
X0141573Y0190800D01*
X0138373Y0190800D02*
X0138373Y0195647D01*
X0135173Y0196134D02*
X0135173Y0190800D01*
X0131973Y0190800D02*
X0131973Y0197499D01*
X0131474Y0197000D02*
X0133672Y0197000D01*
X0128773Y0195647D02*
X0128773Y0190800D01*
X0125573Y0190800D02*
X0125573Y0195969D01*
X0123672Y0197000D02*
X0111474Y0197000D01*
X0112773Y0198299D02*
X0112773Y0190800D01*
X0115973Y0190800D02*
X0115973Y0197323D01*
X0119173Y0197323D02*
X0119173Y0190800D01*
X0122373Y0190800D02*
X0122373Y0198299D01*
X0119173Y0201616D02*
X0119173Y0201984D01*
X0117757Y0200200D02*
X0117389Y0200200D01*
X0112773Y0205301D02*
X0112773Y0206943D01*
X0113116Y0206600D02*
X0111474Y0206600D01*
X0109573Y0207631D02*
X0109573Y0209577D01*
X0101576Y0200200D02*
X0087231Y0200200D01*
X0087173Y0199320D02*
X0087173Y0193413D01*
X0090373Y0193300D02*
X0090373Y0220000D01*
X0093573Y0220000D02*
X0093573Y0193300D01*
X0096773Y0192257D02*
X0096773Y0220000D01*
X0087173Y0211567D02*
X0087173Y0211167D01*
X0083973Y0211167D02*
X0083973Y0211567D01*
X0082631Y0213000D02*
X0082231Y0213000D01*
X0080773Y0211567D02*
X0080773Y0211167D01*
X0082231Y0209800D02*
X0082631Y0209800D01*
X0077631Y0209800D02*
X0077231Y0209800D01*
X0077231Y0211567D02*
X0072631Y0211567D01*
X0072631Y0216167D01*
X0074419Y0216167D01*
X0077231Y0213355D01*
X0077231Y0211567D01*
X0077231Y0213000D02*
X0077631Y0213000D01*
X0074373Y0211567D02*
X0074373Y0211167D01*
X0072631Y0213000D02*
X0072231Y0213000D01*
X0071173Y0216167D02*
X0071173Y0218612D01*
X0071961Y0219400D02*
X0295516Y0219400D01*
X0295173Y0219057D02*
X0295173Y0221000D01*
X0291973Y0221000D02*
X0291973Y0215857D01*
X0292316Y0216200D02*
X0068761Y0216200D01*
X0074373Y0216167D02*
X0074373Y0220000D01*
X0064785Y0225800D02*
X0061656Y0225800D01*
X0061573Y0225945D02*
X0061573Y0230800D01*
X0059879Y0230800D02*
X0094766Y0230800D01*
X0096972Y0231713D01*
X0098659Y0233401D01*
X0099573Y0235607D01*
X0099573Y0237800D01*
X0101916Y0237800D01*
X0109173Y0230543D01*
X0109173Y0229977D01*
X0109550Y0229600D01*
X0069618Y0229600D01*
X0067854Y0228869D01*
X0066504Y0227519D01*
X0061869Y0222884D01*
X0061869Y0225187D01*
X0061746Y0225644D01*
X0061509Y0226055D01*
X0061174Y0226390D01*
X0060764Y0226627D01*
X0060306Y0226750D01*
X0057989Y0226750D01*
X0057989Y0222280D01*
X0057030Y0222280D01*
X0057030Y0226750D01*
X0054913Y0226750D01*
X0054908Y0226762D01*
X0054008Y0227662D01*
X0052831Y0228150D01*
X0047273Y0228150D01*
X0047648Y0228281D01*
X0048786Y0228829D01*
X0049856Y0229501D01*
X0050844Y0230289D01*
X0051737Y0231182D01*
X0052525Y0232170D01*
X0053197Y0233240D01*
X0053746Y0234378D01*
X0054163Y0235571D01*
X0054444Y0236803D01*
X0054566Y0237890D01*
X0044137Y0237890D01*
X0044137Y0239490D01*
X0054566Y0239490D01*
X0054444Y0240577D01*
X0054163Y0241809D01*
X0053746Y0243001D01*
X0053197Y0244140D01*
X0052833Y0244719D01*
X0053482Y0244545D01*
X0056813Y0244545D01*
X0060030Y0245407D01*
X0062914Y0247072D01*
X0065269Y0249427D01*
X0066396Y0251380D01*
X0066396Y0249786D01*
X0066884Y0248609D01*
X0067784Y0247709D01*
X0068960Y0247222D01*
X0073186Y0247222D01*
X0073573Y0247382D01*
X0073960Y0247222D01*
X0074994Y0247222D01*
X0079416Y0242800D01*
X0059879Y0242800D01*
X0057674Y0241887D01*
X0055986Y0240199D01*
X0055073Y0237993D01*
X0055073Y0235607D01*
X0055986Y0233401D01*
X0057674Y0231713D01*
X0059879Y0230800D01*
X0058373Y0231424D02*
X0058373Y0226750D01*
X0057989Y0225800D02*
X0057030Y0225800D01*
X0055173Y0226750D02*
X0055173Y0235365D01*
X0055158Y0235400D02*
X0054103Y0235400D01*
X0055173Y0238235D02*
X0055173Y0244545D01*
X0054165Y0241800D02*
X0057588Y0241800D01*
X0058373Y0242176D02*
X0058373Y0244963D01*
X0058511Y0245000D02*
X0077216Y0245000D01*
X0077573Y0244643D02*
X0077573Y0242800D01*
X0074373Y0242800D02*
X0074373Y0247222D01*
X0071173Y0247222D02*
X0071173Y0242800D01*
X0067973Y0242800D02*
X0067973Y0247631D01*
X0067293Y0248200D02*
X0064042Y0248200D01*
X0064773Y0248931D02*
X0064773Y0242800D01*
X0061573Y0242800D02*
X0061573Y0246298D01*
X0051973Y0239490D02*
X0051973Y0237890D01*
X0048773Y0237890D02*
X0048773Y0239490D01*
X0045573Y0239490D02*
X0045573Y0237890D01*
X0044137Y0238600D02*
X0055324Y0238600D01*
X0057188Y0232200D02*
X0052544Y0232200D01*
X0051973Y0231478D02*
X0051973Y0228150D01*
X0049059Y0229000D02*
X0068170Y0229000D01*
X0067973Y0228919D02*
X0067973Y0230800D01*
X0071173Y0230800D02*
X0071173Y0229600D01*
X0074373Y0229600D02*
X0074373Y0230800D01*
X0077573Y0230800D02*
X0077573Y0229600D01*
X0080773Y0229600D02*
X0080773Y0230800D01*
X0083973Y0230800D02*
X0083973Y0229600D01*
X0087173Y0229600D02*
X0087173Y0230800D01*
X0090373Y0230800D02*
X0090373Y0229600D01*
X0093573Y0229600D02*
X0093573Y0230800D01*
X0096773Y0231631D02*
X0096773Y0229600D01*
X0097458Y0232200D02*
X0107516Y0232200D01*
X0106373Y0233343D02*
X0106373Y0229600D01*
X0103173Y0229600D02*
X0103173Y0236543D01*
X0104316Y0235400D02*
X0099487Y0235400D01*
X0099973Y0237800D02*
X0099973Y0229600D01*
X0103573Y0241800D02*
X0113573Y0231800D01*
X0103573Y0241800D02*
X0086073Y0241800D01*
X0076073Y0251800D01*
X0076073Y0252587D01*
X0081073Y0252587D02*
X0081073Y0254300D01*
X0083573Y0256800D01*
X0161073Y0256800D01*
X0163973Y0260123D02*
X0163973Y0263800D01*
X0162895Y0261200D02*
X0159250Y0261200D01*
X0158850Y0260800D01*
X0147893Y0260800D01*
X0147893Y0261025D01*
X0139978Y0261025D01*
X0139978Y0262575D01*
X0147892Y0262575D01*
X0147892Y0263800D01*
X0178088Y0263800D01*
X0181486Y0260401D01*
X0183174Y0258713D01*
X0185379Y0257800D01*
X0165473Y0257800D01*
X0165473Y0258623D02*
X0165473Y0254977D01*
X0165295Y0254800D01*
X0184916Y0254800D01*
X0187916Y0257800D01*
X0185379Y0257800D01*
X0186373Y0257800D02*
X0186373Y0256257D01*
X0183173Y0254800D02*
X0183173Y0258715D01*
X0181486Y0260401D02*
X0181486Y0260401D01*
X0180888Y0261000D02*
X0163095Y0261000D01*
X0162895Y0261200D02*
X0165473Y0258623D01*
X0167173Y0254800D02*
X0167173Y0263800D01*
X0170373Y0263800D02*
X0170373Y0254800D01*
X0173573Y0254800D02*
X0173573Y0263800D01*
X0176773Y0263800D02*
X0176773Y0254800D01*
X0179973Y0254800D02*
X0179973Y0261915D01*
X0188258Y0270600D02*
X0192573Y0270600D01*
X0192573Y0269800D02*
X0189058Y0269800D01*
X0185659Y0273199D01*
X0183972Y0274887D01*
X0181766Y0275800D01*
X0181462Y0275800D01*
X0182111Y0277368D01*
X0182111Y0280232D01*
X0181015Y0282878D01*
X0178990Y0284904D01*
X0176344Y0286000D01*
X0173479Y0286000D01*
X0170833Y0284904D01*
X0168808Y0282878D01*
X0168022Y0280981D01*
X0167236Y0282878D01*
X0167073Y0283041D01*
X0167073Y0285927D01*
X0167379Y0285800D01*
X0169766Y0285800D01*
X0171972Y0286713D01*
X0173659Y0288401D01*
X0173668Y0288421D01*
X0175255Y0286834D01*
X0177408Y0285943D01*
X0179738Y0285943D01*
X0181891Y0286834D01*
X0183539Y0288482D01*
X0184337Y0290411D01*
X0184442Y0290089D01*
X0184760Y0289464D01*
X0185173Y0288896D01*
X0185669Y0288400D01*
X0186237Y0287988D01*
X0186862Y0287669D01*
X0187529Y0287452D01*
X0188222Y0287343D01*
X0188487Y0287343D01*
X0188487Y0291714D01*
X0188659Y0291714D01*
X0188659Y0291886D01*
X0193030Y0291886D01*
X0193030Y0292000D01*
X0202528Y0292000D01*
X0202573Y0292019D01*
X0202573Y0286146D01*
X0200726Y0286146D01*
X0198521Y0285233D01*
X0195174Y0281887D01*
X0193486Y0280199D01*
X0192573Y0277993D01*
X0192573Y0269800D01*
X0189573Y0269800D02*
X0189573Y0287445D01*
X0189617Y0287452D02*
X0190284Y0287669D01*
X0190909Y0287988D01*
X0191477Y0288400D01*
X0191973Y0288896D01*
X0192385Y0289464D01*
X0192704Y0290089D01*
X0192921Y0290756D01*
X0193030Y0291449D01*
X0193030Y0291714D01*
X0188659Y0291714D01*
X0188659Y0287343D01*
X0188924Y0287343D01*
X0189617Y0287452D01*
X0188659Y0289800D02*
X0188487Y0289800D01*
X0188487Y0291714D02*
X0184430Y0291714D01*
X0184430Y0291886D01*
X0188487Y0291886D01*
X0188487Y0291714D01*
X0188573Y0291800D02*
X0201573Y0291800D01*
X0207573Y0297800D01*
X0216573Y0297800D01*
X0218573Y0295800D01*
X0218573Y0291800D01*
X0215573Y0288800D01*
X0215573Y0274800D01*
X0214226Y0273454D01*
X0208573Y0273454D01*
X0209052Y0273800D02*
X0216523Y0273800D01*
X0216373Y0274163D02*
X0216860Y0272987D01*
X0217760Y0272087D01*
X0218936Y0271600D01*
X0228209Y0271600D01*
X0229385Y0272087D01*
X0230286Y0272987D01*
X0230773Y0274163D01*
X0230773Y0275870D01*
X0231248Y0274722D01*
X0232513Y0273457D01*
X0229888Y0271399D01*
X0229544Y0271257D01*
X0228956Y0270669D01*
X0228302Y0270156D01*
X0228119Y0269832D01*
X0227856Y0269569D01*
X0227632Y0269027D01*
X0225766Y0269800D01*
X0212972Y0269800D01*
X0213203Y0270200D01*
X0213326Y0270658D01*
X0213326Y0272974D01*
X0209052Y0272974D01*
X0209052Y0273933D01*
X0213326Y0273933D01*
X0213326Y0274869D01*
X0213338Y0274875D01*
X0214238Y0275775D01*
X0214726Y0276951D01*
X0214726Y0283342D01*
X0214573Y0283711D01*
X0214573Y0289832D01*
X0214760Y0289464D01*
X0215173Y0288896D01*
X0215669Y0288400D01*
X0216237Y0287988D01*
X0216862Y0287669D01*
X0217529Y0287452D01*
X0218222Y0287343D01*
X0218487Y0287343D01*
X0218487Y0291714D01*
X0218659Y0291714D01*
X0218659Y0287343D01*
X0218924Y0287343D01*
X0219617Y0287452D01*
X0220284Y0287669D01*
X0220909Y0287988D01*
X0221477Y0288400D01*
X0221973Y0288896D01*
X0222385Y0289464D01*
X0222704Y0290089D01*
X0222740Y0290202D01*
X0223486Y0288401D01*
X0225174Y0286713D01*
X0226897Y0286000D01*
X0218936Y0286000D01*
X0217760Y0285513D01*
X0216860Y0284613D01*
X0216373Y0283437D01*
X0216373Y0274163D01*
X0216373Y0277000D02*
X0214726Y0277000D01*
X0214726Y0280200D02*
X0216373Y0280200D01*
X0216373Y0283400D02*
X0214702Y0283400D01*
X0214573Y0286600D02*
X0225448Y0286600D01*
X0224773Y0287115D02*
X0224773Y0286000D01*
X0221573Y0286000D02*
X0221573Y0288496D01*
X0222557Y0289800D02*
X0222907Y0289800D01*
X0218659Y0289800D02*
X0218487Y0289800D01*
X0218487Y0291886D02*
X0218487Y0296257D01*
X0218222Y0296257D01*
X0217529Y0296148D01*
X0216862Y0295931D01*
X0216237Y0295612D01*
X0215669Y0295200D01*
X0215173Y0294704D01*
X0214760Y0294136D01*
X0214442Y0293511D01*
X0214405Y0293398D01*
X0213659Y0295199D01*
X0211972Y0296887D01*
X0209766Y0297800D01*
X0209361Y0297800D01*
X0209642Y0298081D01*
X0210373Y0299845D01*
X0210373Y0306000D01*
X0223298Y0306000D01*
X0222893Y0305595D01*
X0221873Y0303133D01*
X0221873Y0300467D01*
X0222573Y0298777D01*
X0222573Y0293768D01*
X0222385Y0294136D01*
X0221973Y0294704D01*
X0221477Y0295200D01*
X0220909Y0295612D01*
X0220284Y0295931D01*
X0219617Y0296148D01*
X0218924Y0296257D01*
X0218659Y0296257D01*
X0218659Y0291886D01*
X0218487Y0291886D01*
X0218487Y0293000D02*
X0218659Y0293000D01*
X0218659Y0296200D02*
X0218487Y0296200D01*
X0218373Y0296257D02*
X0218373Y0306000D01*
X0221573Y0306000D02*
X0221573Y0295104D01*
X0222573Y0296200D02*
X0219286Y0296200D01*
X0217859Y0296200D02*
X0212658Y0296200D01*
X0211973Y0296885D02*
X0211973Y0306000D01*
X0210373Y0305800D02*
X0223098Y0305800D01*
X0221873Y0302600D02*
X0210373Y0302600D01*
X0210188Y0299400D02*
X0222315Y0299400D01*
X0215173Y0294704D02*
X0215173Y0306000D01*
X0199573Y0302800D02*
X0199313Y0303060D01*
X0193573Y0303060D01*
X0188573Y0302800D02*
X0188439Y0302666D01*
X0183573Y0302666D01*
X0183954Y0302600D02*
X0187420Y0302600D01*
X0187420Y0302285D02*
X0183954Y0302285D01*
X0183954Y0303047D01*
X0187420Y0303047D01*
X0187420Y0302285D01*
X0186373Y0302285D02*
X0186373Y0303047D01*
X0183573Y0310934D02*
X0183573Y0311800D01*
X0193573Y0311800D01*
X0193573Y0310540D01*
X0192773Y0291886D02*
X0192773Y0291714D01*
X0192773Y0290302D02*
X0192773Y0278476D01*
X0192573Y0277000D02*
X0181959Y0277000D01*
X0183173Y0275217D02*
X0183173Y0288116D01*
X0184084Y0289800D02*
X0184589Y0289800D01*
X0186373Y0287918D02*
X0186373Y0272485D01*
X0185659Y0273199D02*
X0185659Y0273199D01*
X0185058Y0273800D02*
X0192573Y0273800D01*
X0193488Y0280200D02*
X0182111Y0280200D01*
X0180494Y0283400D02*
X0196688Y0283400D01*
X0195973Y0282685D02*
X0195973Y0292000D01*
X0199173Y0292000D02*
X0199173Y0285503D01*
X0202373Y0286146D02*
X0202373Y0292000D01*
X0202573Y0289800D02*
X0192557Y0289800D01*
X0189573Y0291714D02*
X0189573Y0291886D01*
X0186373Y0291886D02*
X0186373Y0291714D01*
X0181325Y0286600D02*
X0202573Y0286600D01*
X0214573Y0289800D02*
X0214589Y0289800D01*
X0215173Y0288896D02*
X0215173Y0269800D01*
X0213310Y0270600D02*
X0228869Y0270600D01*
X0227973Y0269685D02*
X0227973Y0271600D01*
X0224773Y0271600D02*
X0224773Y0269800D01*
X0221573Y0269800D02*
X0221573Y0271600D01*
X0218373Y0271833D02*
X0218373Y0269800D01*
X0211973Y0272974D02*
X0211973Y0273933D01*
X0218373Y0285767D02*
X0218373Y0287343D01*
X0231173Y0274904D02*
X0231173Y0272406D01*
X0230622Y0273800D02*
X0232170Y0273800D01*
X0243033Y0263800D02*
X0243033Y0259600D01*
X0245513Y0259600D01*
X0245513Y0261025D01*
X0253428Y0261025D01*
X0253428Y0262575D01*
X0245513Y0262575D01*
X0245513Y0263800D01*
X0243033Y0263800D01*
X0243973Y0263800D02*
X0243973Y0259600D01*
X0243033Y0261000D02*
X0245513Y0261000D01*
X0247173Y0261025D02*
X0247173Y0262575D01*
X0250373Y0262575D02*
X0250373Y0261025D01*
X0254203Y0261800D02*
X0268573Y0261800D01*
X0269573Y0263800D02*
X0269573Y0259600D01*
X0272773Y0259600D02*
X0272773Y0263800D01*
X0275973Y0263800D02*
X0275973Y0259600D01*
X0279173Y0259600D02*
X0279173Y0263800D01*
X0282373Y0263800D02*
X0282373Y0259600D01*
X0282778Y0259600D02*
X0262893Y0259600D01*
X0262893Y0261025D01*
X0254978Y0261025D01*
X0254978Y0262575D01*
X0262892Y0262575D01*
X0262892Y0263800D01*
X0286088Y0263800D01*
X0288588Y0261299D01*
X0284984Y0261299D01*
X0283807Y0260812D01*
X0282907Y0259912D01*
X0282778Y0259600D01*
X0284261Y0261000D02*
X0262893Y0261000D01*
X0263173Y0259600D02*
X0263173Y0263800D01*
X0266373Y0263800D02*
X0266373Y0259600D01*
X0259973Y0261025D02*
X0259973Y0262575D01*
X0256773Y0262575D02*
X0256773Y0261025D01*
X0271462Y0275800D02*
X0272111Y0277368D01*
X0272111Y0280232D01*
X0271015Y0282878D01*
X0268990Y0284904D01*
X0266344Y0286000D01*
X0263479Y0286000D01*
X0260833Y0284904D01*
X0258808Y0282878D01*
X0258022Y0280981D01*
X0257236Y0282878D01*
X0255210Y0284904D01*
X0252564Y0286000D01*
X0250249Y0286000D01*
X0251972Y0286713D01*
X0253573Y0288315D01*
X0253573Y0285582D01*
X0255174Y0286713D02*
X0257379Y0285800D01*
X0259766Y0285800D01*
X0261972Y0286713D01*
X0263659Y0288401D01*
X0263668Y0288421D01*
X0265255Y0286834D01*
X0267408Y0285943D01*
X0269738Y0285943D01*
X0271891Y0286834D01*
X0273539Y0288482D01*
X0274337Y0290411D01*
X0274442Y0290089D01*
X0274760Y0289464D01*
X0275173Y0288896D01*
X0275669Y0288400D01*
X0276237Y0287988D01*
X0276862Y0287669D01*
X0277529Y0287452D01*
X0278222Y0287343D01*
X0278487Y0287343D01*
X0278487Y0291714D01*
X0278659Y0291714D01*
X0278659Y0291886D01*
X0283030Y0291886D01*
X0283030Y0292151D01*
X0282921Y0292844D01*
X0282870Y0293000D01*
X0292576Y0293000D01*
X0292573Y0292993D01*
X0292573Y0286146D01*
X0290726Y0286146D01*
X0288521Y0285233D01*
X0285174Y0281887D01*
X0283486Y0280199D01*
X0282573Y0277993D01*
X0282573Y0275800D01*
X0271462Y0275800D01*
X0271959Y0277000D02*
X0282573Y0277000D01*
X0282373Y0275800D02*
X0282373Y0289447D01*
X0282385Y0289464D02*
X0282704Y0290089D01*
X0282921Y0290756D01*
X0283030Y0291449D01*
X0283030Y0291714D01*
X0278659Y0291714D01*
X0278659Y0287343D01*
X0278924Y0287343D01*
X0279617Y0287452D01*
X0280284Y0287669D01*
X0280909Y0287988D01*
X0281477Y0288400D01*
X0281973Y0288896D01*
X0282385Y0289464D01*
X0282557Y0289800D02*
X0292573Y0289800D01*
X0292573Y0286600D02*
X0271325Y0286600D01*
X0272773Y0287716D02*
X0272773Y0275800D01*
X0275973Y0275800D02*
X0275973Y0288179D01*
X0274589Y0289800D02*
X0274084Y0289800D01*
X0278487Y0289800D02*
X0278659Y0289800D01*
X0279173Y0291714D02*
X0279173Y0291886D01*
X0282373Y0291886D02*
X0282373Y0291714D01*
X0285573Y0293000D02*
X0285573Y0282285D01*
X0286688Y0283400D02*
X0270494Y0283400D01*
X0269573Y0284321D02*
X0269573Y0285943D01*
X0266373Y0285988D02*
X0266373Y0286371D01*
X0265820Y0286600D02*
X0261698Y0286600D01*
X0263173Y0285873D02*
X0263173Y0287915D01*
X0259973Y0285886D02*
X0259973Y0284044D01*
X0259329Y0283400D02*
X0256714Y0283400D01*
X0256773Y0283341D02*
X0256773Y0286051D01*
X0255448Y0286600D02*
X0251698Y0286600D01*
X0250373Y0286051D02*
X0250373Y0286000D01*
X0253573Y0288315D02*
X0255174Y0286713D01*
X0272111Y0280200D02*
X0283488Y0280200D01*
X0279173Y0275800D02*
X0279173Y0287382D01*
X0288773Y0285338D02*
X0288773Y0293000D01*
X0291973Y0293000D02*
X0291973Y0286146D01*
X0304573Y0286600D02*
X0315820Y0286600D01*
X0315255Y0286834D02*
X0317269Y0286000D01*
X0308936Y0286000D01*
X0307760Y0285513D01*
X0306860Y0284613D01*
X0306373Y0283437D01*
X0306373Y0274163D01*
X0306860Y0272987D01*
X0307760Y0272087D01*
X0308936Y0271600D01*
X0318209Y0271600D01*
X0319385Y0272087D01*
X0320286Y0272987D01*
X0320773Y0274163D01*
X0320773Y0275870D01*
X0320773Y0265882D01*
X0320873Y0266055D02*
X0320636Y0265644D01*
X0320513Y0265187D01*
X0320513Y0262575D01*
X0328428Y0262575D01*
X0328428Y0266750D01*
X0322076Y0266750D01*
X0321618Y0266627D01*
X0321208Y0266390D01*
X0320873Y0266055D01*
X0320513Y0264200D02*
X0318033Y0264200D01*
X0318033Y0265586D02*
X0317545Y0266762D01*
X0316645Y0267662D01*
X0315469Y0268150D01*
X0300417Y0268150D01*
X0299573Y0267800D01*
X0299058Y0267800D01*
X0297764Y0269094D01*
X0298093Y0269094D01*
X0298093Y0272974D01*
X0299052Y0272974D01*
X0299052Y0269094D01*
X0301763Y0269094D01*
X0302220Y0269217D01*
X0302631Y0269454D01*
X0302966Y0269789D01*
X0303203Y0270200D01*
X0303326Y0270658D01*
X0303326Y0272974D01*
X0299052Y0272974D01*
X0299052Y0273933D01*
X0303326Y0273933D01*
X0303326Y0274869D01*
X0303338Y0274875D01*
X0304238Y0275775D01*
X0304726Y0276951D01*
X0304726Y0283342D01*
X0304573Y0283711D01*
X0304573Y0289832D01*
X0304760Y0289464D01*
X0305173Y0288896D01*
X0305669Y0288400D01*
X0306237Y0287988D01*
X0306862Y0287669D01*
X0307529Y0287452D01*
X0308222Y0287343D01*
X0308487Y0287343D01*
X0308487Y0291714D01*
X0308659Y0291714D01*
X0308659Y0287343D01*
X0308924Y0287343D01*
X0309617Y0287452D01*
X0310284Y0287669D01*
X0310909Y0287988D01*
X0311477Y0288400D01*
X0311973Y0288896D01*
X0312385Y0289464D01*
X0312704Y0290089D01*
X0312808Y0290411D01*
X0313607Y0288482D01*
X0315255Y0286834D01*
X0314373Y0286000D02*
X0314373Y0287716D01*
X0313061Y0289800D02*
X0312557Y0289800D01*
X0311173Y0288179D02*
X0311173Y0286000D01*
X0307973Y0285601D02*
X0307973Y0287382D01*
X0308487Y0289800D02*
X0308659Y0289800D01*
X0307073Y0290300D02*
X0308573Y0291800D01*
X0307073Y0290300D02*
X0307073Y0277800D01*
X0307073Y0273300D01*
X0311073Y0269300D01*
X0326573Y0269300D01*
X0329073Y0266800D01*
X0329073Y0261930D01*
X0329203Y0261800D01*
X0341573Y0261800D01*
X0353073Y0261800D01*
X0368573Y0277300D01*
X0368573Y0291800D01*
X0368573Y0297666D01*
X0363573Y0302666D01*
X0363954Y0302285D02*
X0363954Y0298504D01*
X0366172Y0298504D01*
X0366630Y0298627D01*
X0367040Y0298864D01*
X0367375Y0299199D01*
X0367562Y0299522D01*
X0367907Y0298688D01*
X0368807Y0297788D01*
X0369573Y0297471D01*
X0369573Y0296155D01*
X0368924Y0296257D01*
X0368659Y0296257D01*
X0368659Y0291886D01*
X0368487Y0291886D01*
X0368487Y0296257D01*
X0368222Y0296257D01*
X0367529Y0296148D01*
X0366862Y0295931D01*
X0366237Y0295612D01*
X0365669Y0295200D01*
X0365173Y0294704D01*
X0364760Y0294136D01*
X0364442Y0293511D01*
X0364337Y0293189D01*
X0363539Y0295118D01*
X0363373Y0295284D01*
X0363373Y0296755D01*
X0362648Y0298504D01*
X0363192Y0298504D01*
X0363192Y0302285D01*
X0363954Y0302285D01*
X0363954Y0299400D02*
X0363192Y0299400D01*
X0365573Y0298504D02*
X0365573Y0295104D01*
X0363373Y0296200D02*
X0367859Y0296200D01*
X0368487Y0296200D02*
X0368659Y0296200D01*
X0368773Y0296257D02*
X0368773Y0297823D01*
X0369286Y0296200D02*
X0369573Y0296200D01*
X0368659Y0293000D02*
X0368487Y0293000D01*
X0368487Y0291714D02*
X0368659Y0291714D01*
X0368659Y0287343D01*
X0368924Y0287343D01*
X0369573Y0287445D01*
X0369573Y0264844D01*
X0368592Y0263863D01*
X0368592Y0259737D01*
X0371510Y0256819D01*
X0372420Y0256819D01*
X0372420Y0253300D01*
X0305277Y0253300D01*
X0303807Y0252691D01*
X0298773Y0247657D01*
X0297408Y0247657D01*
X0295255Y0246766D01*
X0294726Y0246236D01*
X0294726Y0251255D01*
X0294500Y0251800D01*
X0294726Y0252345D01*
X0294726Y0252666D01*
X0295073Y0253504D01*
X0295073Y0255096D01*
X0294726Y0255934D01*
X0294726Y0256071D01*
X0295379Y0255800D01*
X0299573Y0255800D01*
X0300417Y0255450D01*
X0315469Y0255450D01*
X0316645Y0255938D01*
X0317545Y0256838D01*
X0318033Y0258014D01*
X0318033Y0265586D01*
X0317573Y0266696D02*
X0317573Y0271600D01*
X0314373Y0271600D02*
X0314373Y0268150D01*
X0316908Y0267400D02*
X0369573Y0267400D01*
X0369573Y0270600D02*
X0303310Y0270600D01*
X0301573Y0269094D02*
X0301573Y0268150D01*
X0304773Y0268150D02*
X0304773Y0289447D01*
X0304589Y0289800D02*
X0304573Y0289800D01*
X0304702Y0283400D02*
X0306373Y0283400D01*
X0306373Y0280200D02*
X0304726Y0280200D01*
X0304726Y0277000D02*
X0306373Y0277000D01*
X0307073Y0277800D02*
X0302726Y0273454D01*
X0298573Y0273454D01*
X0298373Y0272974D02*
X0298373Y0268485D01*
X0298093Y0270600D02*
X0299052Y0270600D01*
X0299052Y0273800D02*
X0306523Y0273800D01*
X0307973Y0271999D02*
X0307973Y0268150D01*
X0311173Y0268150D02*
X0311173Y0271600D01*
X0301573Y0272974D02*
X0301573Y0273933D01*
X0285573Y0263800D02*
X0285573Y0261299D01*
X0288573Y0255540D02*
X0288573Y0254300D01*
X0291073Y0254300D01*
X0288573Y0255540D02*
X0287573Y0254800D01*
X0288573Y0249300D02*
X0288573Y0248060D01*
X0288573Y0249300D02*
X0218573Y0249300D01*
X0179973Y0283921D02*
X0179973Y0286040D01*
X0176773Y0286205D02*
X0176773Y0285822D01*
X0175820Y0286600D02*
X0171698Y0286600D01*
X0170373Y0286051D02*
X0170373Y0284444D01*
X0169329Y0283400D02*
X0167073Y0283400D01*
X0167173Y0282941D02*
X0167173Y0285886D01*
X0173573Y0286000D02*
X0173573Y0288315D01*
X0160773Y0263800D02*
X0160773Y0261200D01*
X0159050Y0261000D02*
X0147893Y0261000D01*
X0147973Y0260800D02*
X0147973Y0263800D01*
X0151173Y0263800D02*
X0151173Y0260800D01*
X0154373Y0260800D02*
X0154373Y0263800D01*
X0157573Y0263800D02*
X0157573Y0260800D01*
X0144773Y0261025D02*
X0144773Y0262575D01*
X0141573Y0262575D02*
X0141573Y0261025D01*
X0138428Y0261025D02*
X0138428Y0262575D01*
X0130513Y0262575D01*
X0130513Y0263800D01*
X0128033Y0263800D01*
X0128033Y0260800D01*
X0130513Y0260800D01*
X0130513Y0261025D01*
X0138428Y0261025D01*
X0138373Y0261025D02*
X0138373Y0262575D01*
X0135173Y0262575D02*
X0135173Y0261025D01*
X0131973Y0261025D02*
X0131973Y0262575D01*
X0130513Y0261000D02*
X0128033Y0261000D01*
X0128773Y0260800D02*
X0128773Y0263800D01*
X0126373Y0275800D02*
X0124573Y0275800D01*
X0124573Y0280607D01*
X0124573Y0281597D01*
X0124640Y0282585D01*
X0124573Y0282784D01*
X0124573Y0289832D01*
X0124760Y0289464D01*
X0125173Y0288896D01*
X0125669Y0288400D01*
X0126237Y0287988D01*
X0126862Y0287669D01*
X0127529Y0287452D01*
X0128222Y0287343D01*
X0128487Y0287343D01*
X0128487Y0291714D01*
X0128659Y0291714D01*
X0132573Y0291714D01*
X0132573Y0291886D01*
X0128659Y0291886D01*
X0128659Y0291714D01*
X0128659Y0287343D01*
X0128924Y0287343D01*
X0129617Y0287452D01*
X0130284Y0287669D01*
X0130909Y0287988D01*
X0131477Y0288400D01*
X0131973Y0288896D01*
X0131973Y0286000D01*
X0133486Y0288401D02*
X0132740Y0290202D01*
X0132704Y0290089D01*
X0132385Y0289464D01*
X0131973Y0288896D01*
X0132557Y0289800D02*
X0132907Y0289800D01*
X0133486Y0288401D02*
X0135174Y0286713D01*
X0136897Y0286000D01*
X0128936Y0286000D01*
X0127760Y0285513D01*
X0126860Y0284613D01*
X0126373Y0283437D01*
X0126373Y0275800D01*
X0125573Y0275800D02*
X0125573Y0288496D01*
X0124589Y0289800D02*
X0124573Y0289800D01*
X0124573Y0291714D02*
X0124573Y0291886D01*
X0128487Y0291886D01*
X0128487Y0296257D01*
X0128222Y0296257D01*
X0127529Y0296148D01*
X0126862Y0295931D01*
X0126237Y0295612D01*
X0125669Y0295200D01*
X0125173Y0294704D01*
X0124760Y0294136D01*
X0124442Y0293511D01*
X0124405Y0293398D01*
X0123659Y0295199D01*
X0121972Y0296887D01*
X0119766Y0297800D01*
X0117379Y0297800D01*
X0115174Y0296887D01*
X0113486Y0295199D01*
X0112922Y0293837D01*
X0112678Y0294316D01*
X0112234Y0294927D01*
X0111700Y0295461D01*
X0111089Y0295905D01*
X0110415Y0296248D01*
X0109697Y0296482D01*
X0108951Y0296600D01*
X0108773Y0296600D01*
X0108773Y0292000D01*
X0108373Y0292000D01*
X0108373Y0296600D01*
X0108195Y0296600D01*
X0107449Y0296482D01*
X0106730Y0296248D01*
X0106057Y0295905D01*
X0105446Y0295461D01*
X0104912Y0294927D01*
X0104468Y0294316D01*
X0104343Y0294071D01*
X0103829Y0295312D01*
X0103373Y0295768D01*
X0103373Y0304812D01*
X0104561Y0306000D01*
X0133298Y0306000D01*
X0132893Y0305595D01*
X0131873Y0303133D01*
X0131873Y0300467D01*
X0132573Y0298777D01*
X0132573Y0293768D01*
X0132385Y0294136D01*
X0131973Y0294704D01*
X0131477Y0295200D01*
X0130909Y0295612D01*
X0130284Y0295931D01*
X0129617Y0296148D01*
X0128924Y0296257D01*
X0128659Y0296257D01*
X0128659Y0291886D01*
X0128487Y0291886D01*
X0128487Y0291714D01*
X0124573Y0291714D01*
X0125573Y0291714D02*
X0125573Y0291886D01*
X0128573Y0291800D02*
X0128573Y0292300D01*
X0128773Y0291886D02*
X0128773Y0291714D01*
X0128659Y0293000D02*
X0128487Y0293000D01*
X0128487Y0289800D02*
X0128659Y0289800D01*
X0128773Y0287343D02*
X0128773Y0285932D01*
X0126373Y0283400D02*
X0124573Y0283400D01*
X0124573Y0280200D02*
X0126373Y0280200D01*
X0126373Y0277000D02*
X0124573Y0277000D01*
X0124573Y0286600D02*
X0135448Y0286600D01*
X0135173Y0286715D02*
X0135173Y0286000D01*
X0131973Y0291714D02*
X0131973Y0291886D01*
X0131973Y0294704D02*
X0131973Y0300226D01*
X0132315Y0299400D02*
X0103373Y0299400D01*
X0103373Y0296200D02*
X0106635Y0296200D01*
X0106373Y0296066D02*
X0106373Y0306000D01*
X0104361Y0305800D02*
X0133098Y0305800D01*
X0131973Y0306000D02*
X0131973Y0303374D01*
X0131873Y0302600D02*
X0103373Y0302600D01*
X0109573Y0306000D02*
X0109573Y0296501D01*
X0108773Y0296200D02*
X0108373Y0296200D01*
X0110510Y0296200D02*
X0114488Y0296200D01*
X0115973Y0297217D02*
X0115973Y0306000D01*
X0119173Y0306000D02*
X0119173Y0297800D01*
X0122373Y0296485D02*
X0122373Y0306000D01*
X0125573Y0306000D02*
X0125573Y0295104D01*
X0127859Y0296200D02*
X0122658Y0296200D01*
X0128487Y0296200D02*
X0128659Y0296200D01*
X0128773Y0296257D02*
X0128773Y0306000D01*
X0129286Y0296200D02*
X0132573Y0296200D01*
X0112773Y0294130D02*
X0112773Y0306000D01*
X0108773Y0293000D02*
X0108373Y0293000D01*
X0108373Y0291600D02*
X0108773Y0291600D01*
X0108773Y0287000D01*
X0108951Y0287000D01*
X0109697Y0287118D01*
X0110415Y0287352D01*
X0111089Y0287695D01*
X0111700Y0288139D01*
X0112234Y0288673D01*
X0112573Y0289139D01*
X0112573Y0284461D01*
X0112234Y0284927D01*
X0111700Y0285461D01*
X0111089Y0285905D01*
X0110415Y0286248D01*
X0109697Y0286482D01*
X0108951Y0286600D01*
X0108773Y0286600D01*
X0108773Y0282000D01*
X0108373Y0282000D01*
X0108373Y0286600D01*
X0108195Y0286600D01*
X0107449Y0286482D01*
X0106730Y0286248D01*
X0106057Y0285905D01*
X0105446Y0285461D01*
X0104912Y0284927D01*
X0104468Y0284316D01*
X0104343Y0284071D01*
X0103829Y0285312D01*
X0103373Y0285768D01*
X0103373Y0287832D01*
X0103829Y0288288D01*
X0104343Y0289529D01*
X0104468Y0289284D01*
X0104912Y0288673D01*
X0105446Y0288139D01*
X0106057Y0287695D01*
X0106730Y0287352D01*
X0107449Y0287118D01*
X0108195Y0287000D01*
X0108373Y0287000D01*
X0108373Y0291600D01*
X0108373Y0289800D02*
X0108773Y0289800D01*
X0109573Y0287099D02*
X0109573Y0286501D01*
X0112573Y0286600D02*
X0103373Y0286600D01*
X0106373Y0286066D02*
X0106373Y0287534D01*
X0108373Y0283400D02*
X0108773Y0283400D01*
X0100119Y0275729D02*
X0099907Y0275518D01*
X0099420Y0274342D01*
X0099420Y0267951D01*
X0099907Y0266775D01*
X0100807Y0265875D01*
X0100820Y0265869D01*
X0100820Y0264933D01*
X0105093Y0264933D01*
X0105093Y0263974D01*
X0100820Y0263974D01*
X0100820Y0261658D01*
X0100943Y0261200D01*
X0101174Y0260800D01*
X0090749Y0260800D01*
X0090749Y0260820D01*
X0094830Y0264900D01*
X0095395Y0264900D01*
X0097973Y0267477D01*
X0097973Y0271123D01*
X0095395Y0273700D01*
X0091750Y0273700D01*
X0089173Y0271123D01*
X0089173Y0270557D01*
X0085573Y0266957D01*
X0085573Y0276332D01*
X0087340Y0275600D01*
X0089806Y0275600D01*
X0092085Y0276544D01*
X0093573Y0278032D01*
X0093573Y0273700D01*
X0095061Y0276544D02*
X0097340Y0275600D01*
X0099806Y0275600D01*
X0100119Y0275729D01*
X0099973Y0275669D02*
X0099973Y0275584D01*
X0099420Y0273800D02*
X0085573Y0273800D01*
X0087173Y0275669D02*
X0087173Y0268557D01*
X0086016Y0267400D02*
X0085573Y0267400D01*
X0085573Y0270600D02*
X0089173Y0270600D01*
X0090373Y0272323D02*
X0090373Y0275835D01*
X0092541Y0277000D02*
X0094605Y0277000D01*
X0095061Y0276544D02*
X0093573Y0278032D01*
X0096773Y0275835D02*
X0096773Y0272323D01*
X0097973Y0270600D02*
X0099420Y0270600D01*
X0099648Y0267400D02*
X0097895Y0267400D01*
X0096773Y0266277D02*
X0096773Y0260800D01*
X0099973Y0260800D02*
X0099973Y0266709D01*
X0103173Y0264933D02*
X0103173Y0263974D01*
X0105093Y0264200D02*
X0094130Y0264200D01*
X0093573Y0263643D02*
X0093573Y0260800D01*
X0090930Y0261000D02*
X0101058Y0261000D01*
X0093573Y0269300D02*
X0086073Y0261800D01*
X0086073Y0261013D01*
X0081573Y0261013D02*
X0081573Y0284800D01*
X0072707Y0291800D01*
X0068573Y0296800D02*
X0078573Y0296800D01*
X0080573Y0294800D01*
X0080573Y0291800D01*
X0085573Y0286800D01*
X0098573Y0286800D01*
X0093573Y0296800D02*
X0093573Y0297800D01*
X0089573Y0301800D01*
X0072707Y0301800D01*
X0068573Y0296800D02*
X0063573Y0291800D01*
X0064439Y0291800D01*
X0066073Y0291800D01*
X0066073Y0281800D01*
X0064439Y0281800D01*
X0066073Y0281800D02*
X0068573Y0281800D01*
X0068573Y0266800D01*
X0067573Y0265800D01*
X0067573Y0257800D01*
X0071073Y0254300D01*
X0071073Y0252587D01*
X0071073Y0251800D01*
X0071073Y0261013D02*
X0071073Y0271800D01*
X0072707Y0271800D01*
X0076073Y0266800D02*
X0078573Y0269300D01*
X0078573Y0281800D01*
X0072707Y0281800D01*
X0064573Y0276238D02*
X0064573Y0272181D01*
X0064058Y0272181D01*
X0064058Y0271419D01*
X0060277Y0271419D01*
X0060277Y0269201D01*
X0060392Y0268772D01*
X0060030Y0268981D01*
X0056813Y0269843D01*
X0053573Y0269843D01*
X0053573Y0312761D01*
X0097745Y0312761D01*
X0094504Y0309519D01*
X0093773Y0307755D01*
X0093773Y0303257D01*
X0091839Y0305191D01*
X0090368Y0305800D01*
X0077854Y0305800D01*
X0093773Y0305800D01*
X0093573Y0303457D02*
X0093573Y0312761D01*
X0096773Y0312761D02*
X0096773Y0311788D01*
X0097185Y0312200D02*
X0053573Y0312200D01*
X0055173Y0312761D02*
X0055173Y0269843D01*
X0053573Y0270600D02*
X0060277Y0270600D01*
X0059573Y0271800D02*
X0064439Y0271800D01*
X0064058Y0272181D02*
X0060277Y0272181D01*
X0060277Y0274399D01*
X0060399Y0274857D01*
X0060636Y0275267D01*
X0060972Y0275603D01*
X0061382Y0275840D01*
X0061840Y0275962D01*
X0064058Y0275962D01*
X0064058Y0272181D01*
X0064058Y0273800D02*
X0064573Y0273800D01*
X0064573Y0276238D02*
X0061440Y0276238D01*
X0060264Y0276725D01*
X0059364Y0277625D01*
X0058877Y0278801D01*
X0058877Y0284799D01*
X0059364Y0285975D01*
X0060189Y0286800D01*
X0059364Y0287625D01*
X0058877Y0288801D01*
X0058877Y0294799D01*
X0059364Y0295975D01*
X0060264Y0296875D01*
X0061440Y0297362D01*
X0063478Y0297362D01*
X0063754Y0297638D01*
X0061840Y0297638D01*
X0061382Y0297760D01*
X0060972Y0297997D01*
X0060636Y0298333D01*
X0060399Y0298743D01*
X0060277Y0299201D01*
X0060277Y0301419D01*
X0064058Y0301419D01*
X0064058Y0302181D01*
X0060277Y0302181D01*
X0060277Y0304399D01*
X0060399Y0304857D01*
X0060636Y0305267D01*
X0060972Y0305603D01*
X0061382Y0305840D01*
X0061840Y0305962D01*
X0064058Y0305962D01*
X0064058Y0302181D01*
X0064820Y0302181D01*
X0064820Y0305962D01*
X0067038Y0305962D01*
X0067496Y0305840D01*
X0067560Y0305802D01*
X0067632Y0305975D01*
X0068532Y0306875D01*
X0069708Y0307362D01*
X0075705Y0307362D01*
X0076882Y0306875D01*
X0077782Y0305975D01*
X0077854Y0305800D01*
X0077573Y0306184D02*
X0077573Y0312761D01*
X0080773Y0312761D02*
X0080773Y0305800D01*
X0083973Y0305800D02*
X0083973Y0312761D01*
X0087173Y0312761D02*
X0087173Y0305800D01*
X0090373Y0305798D02*
X0090373Y0312761D01*
X0094289Y0309000D02*
X0053573Y0309000D01*
X0053573Y0305800D02*
X0061314Y0305800D01*
X0061573Y0305891D02*
X0061573Y0312761D01*
X0064773Y0312761D02*
X0064773Y0302181D01*
X0064820Y0302600D02*
X0064058Y0302600D01*
X0061573Y0302181D02*
X0061573Y0301419D01*
X0060277Y0302600D02*
X0053573Y0302600D01*
X0053573Y0299400D02*
X0060277Y0299400D01*
X0061573Y0297709D02*
X0061573Y0297362D01*
X0059589Y0296200D02*
X0053573Y0296200D01*
X0053573Y0293000D02*
X0058877Y0293000D01*
X0058877Y0289800D02*
X0053573Y0289800D01*
X0053573Y0286600D02*
X0059989Y0286600D01*
X0058877Y0283400D02*
X0053573Y0283400D01*
X0053573Y0280200D02*
X0058877Y0280200D01*
X0059989Y0277000D02*
X0053573Y0277000D01*
X0053573Y0273800D02*
X0060277Y0273800D01*
X0061573Y0272181D02*
X0061573Y0271419D01*
X0058373Y0269425D02*
X0058373Y0312761D01*
X0067973Y0312761D02*
X0067973Y0306316D01*
X0064820Y0305800D02*
X0064058Y0305800D01*
X0071173Y0307362D02*
X0071173Y0312761D01*
X0074373Y0312761D02*
X0074373Y0307362D01*
X0061573Y0276238D02*
X0061573Y0275891D01*
X0076073Y0266800D02*
X0076073Y0261013D01*
X0081073Y0261013D02*
X0081573Y0261013D01*
X0086073Y0252587D02*
X0086073Y0251800D01*
X0088573Y0249300D01*
X0118573Y0249300D01*
X0138573Y0241800D02*
X0138573Y0233800D01*
X0138801Y0230028D02*
X0138573Y0229800D01*
X0148573Y0230028D02*
X0148573Y0229300D01*
X0148573Y0233572D02*
X0148573Y0241800D01*
X0152677Y0237621D02*
X0153539Y0238482D01*
X0153573Y0238565D01*
X0153607Y0238482D01*
X0155255Y0236834D01*
X0156433Y0236346D01*
X0156168Y0236193D01*
X0155833Y0235858D01*
X0155596Y0235448D01*
X0155474Y0234990D01*
X0155474Y0232280D01*
X0159353Y0232280D01*
X0159353Y0231320D01*
X0155474Y0231320D01*
X0155474Y0229600D01*
X0154273Y0229600D01*
X0154273Y0231685D01*
X0154273Y0235458D01*
X0153786Y0236634D01*
X0152885Y0237534D01*
X0152677Y0237621D01*
X0154373Y0237716D02*
X0154373Y0229600D01*
X0154273Y0232200D02*
X0159353Y0232200D01*
X0159833Y0231800D02*
X0154573Y0236800D01*
X0154273Y0235400D02*
X0155584Y0235400D01*
X0157573Y0232280D02*
X0157573Y0231320D01*
X0158573Y0241800D02*
X0168573Y0241800D01*
X0109573Y0195969D02*
X0109573Y0190800D01*
X0106373Y0190800D02*
X0106373Y0195647D01*
X0091573Y0184800D02*
X0091573Y0181800D01*
X0086073Y0176300D01*
X0077498Y0176300D01*
X0072431Y0181367D01*
X0064473Y0185629D02*
X0029797Y0185629D01*
X0031122Y0187227D02*
X0064473Y0187227D01*
X0065508Y0188826D02*
X0032953Y0188826D01*
X0033631Y0190424D02*
X0067031Y0190424D01*
X0067031Y0192023D02*
X0033828Y0192023D01*
X0033773Y0193621D02*
X0067049Y0193621D01*
X0068647Y0195220D02*
X0060428Y0195220D01*
X0060767Y0196818D02*
X0069343Y0196818D01*
X0067744Y0198417D02*
X0060767Y0198417D01*
X0060767Y0201614D02*
X0066102Y0201614D01*
X0067031Y0200015D02*
X0051867Y0200015D01*
X0050318Y0200015D02*
X0037351Y0200015D01*
X0037351Y0198417D02*
X0041419Y0198417D01*
X0041419Y0198663D02*
X0041419Y0196051D01*
X0041541Y0195593D01*
X0041778Y0195183D01*
X0042113Y0194848D01*
X0042524Y0194611D01*
X0042982Y0194488D01*
X0050318Y0194488D01*
X0050318Y0198663D01*
X0041419Y0198663D01*
X0041419Y0196818D02*
X0037351Y0196818D01*
X0037106Y0195220D02*
X0041757Y0195220D01*
X0041419Y0201614D02*
X0037351Y0201614D01*
X0038080Y0203394D02*
X0037664Y0204400D01*
X0036763Y0205300D01*
X0035587Y0205787D01*
X0034573Y0205787D01*
X0034573Y0217315D01*
X0035174Y0216713D01*
X0037379Y0215800D01*
X0045596Y0215800D01*
X0046440Y0215450D01*
X0052831Y0215450D01*
X0054008Y0215938D01*
X0054908Y0216838D01*
X0054913Y0216850D01*
X0057030Y0216850D01*
X0057030Y0221320D01*
X0057989Y0221320D01*
X0057989Y0216850D01*
X0058773Y0216850D01*
X0058773Y0208845D01*
X0059504Y0207081D01*
X0060854Y0205731D01*
X0064220Y0202365D01*
X0060767Y0202501D01*
X0060767Y0202824D01*
X0060644Y0203282D01*
X0060407Y0203693D01*
X0060072Y0204028D01*
X0059661Y0204265D01*
X0059204Y0204387D01*
X0051867Y0204387D01*
X0051867Y0202851D01*
X0050318Y0202912D01*
X0050318Y0204387D01*
X0042982Y0204387D01*
X0042524Y0204265D01*
X0042113Y0204028D01*
X0041778Y0203693D01*
X0041541Y0203282D01*
X0041535Y0203258D01*
X0038080Y0203394D01*
X0038078Y0203400D02*
X0041609Y0203400D01*
X0042373Y0204178D02*
X0042373Y0215800D01*
X0045573Y0215800D02*
X0045573Y0204387D01*
X0048773Y0204387D02*
X0048773Y0215450D01*
X0051973Y0215450D02*
X0051973Y0204387D01*
X0051867Y0203400D02*
X0050318Y0203400D01*
X0055173Y0204387D02*
X0055173Y0216850D01*
X0054270Y0216200D02*
X0058773Y0216200D01*
X0058373Y0216850D02*
X0058373Y0204387D01*
X0060576Y0203400D02*
X0063185Y0203400D01*
X0061573Y0202469D02*
X0061573Y0205012D01*
X0059985Y0206600D02*
X0034573Y0206600D01*
X0035973Y0205628D02*
X0035973Y0216383D01*
X0036414Y0216200D02*
X0034573Y0216200D01*
X0034573Y0213000D02*
X0058773Y0213000D01*
X0058773Y0209800D02*
X0034573Y0209800D01*
X0039173Y0215800D02*
X0039173Y0203351D01*
X0050318Y0198417D02*
X0051867Y0198417D01*
X0051867Y0196818D02*
X0050318Y0196818D01*
X0050318Y0195220D02*
X0051867Y0195220D01*
X0050115Y0180833D02*
X0049156Y0180833D01*
X0049156Y0179235D02*
X0050115Y0179235D01*
X0050115Y0177636D02*
X0049156Y0177636D01*
X0049156Y0176320D02*
X0045277Y0176320D01*
X0045277Y0173413D01*
X0045399Y0172956D01*
X0045636Y0172545D01*
X0045972Y0172210D01*
X0046382Y0171973D01*
X0046840Y0171850D01*
X0049156Y0171850D01*
X0049156Y0176320D01*
X0049156Y0176038D02*
X0050115Y0176038D01*
X0050115Y0174439D02*
X0049156Y0174439D01*
X0049156Y0172841D02*
X0050115Y0172841D01*
X0048924Y0171242D02*
X0046722Y0171242D01*
X0045612Y0172352D02*
X0045612Y0172352D01*
X0045466Y0172841D02*
X0045123Y0172841D01*
X0045277Y0174439D02*
X0036025Y0174439D01*
X0034426Y0176038D02*
X0045277Y0176038D01*
X0045277Y0177636D02*
X0032828Y0177636D01*
X0031878Y0179235D02*
X0045277Y0179235D01*
X0045509Y0180833D02*
X0031629Y0180833D01*
X0028573Y0176800D02*
X0026919Y0176800D01*
X0028834Y0171447D02*
X0023883Y0171447D01*
X0023573Y0171576D01*
X0023263Y0171447D01*
X0022573Y0171447D01*
X0022573Y0147442D01*
X0022646Y0147516D01*
X0023529Y0147881D01*
X0024737Y0147881D01*
X0024737Y0150280D01*
X0024773Y0150367D01*
X0024773Y0151374D01*
X0026999Y0153600D01*
X0030147Y0153600D01*
X0032373Y0151374D01*
X0032373Y0148226D01*
X0032028Y0147881D01*
X0032119Y0147881D01*
X0032132Y0147905D01*
X0032468Y0148240D01*
X0032878Y0148477D01*
X0033336Y0148600D01*
X0037773Y0148600D01*
X0037773Y0137600D01*
X0039373Y0137600D01*
X0039373Y0148600D01*
X0043682Y0148600D01*
X0042521Y0149761D01*
X0041973Y0151084D01*
X0041973Y0163516D01*
X0042521Y0164839D01*
X0043382Y0165700D01*
X0035357Y0165700D01*
X0034034Y0166248D01*
X0033021Y0167261D01*
X0033021Y0167261D01*
X0028834Y0171447D01*
X0029039Y0171242D02*
X0022573Y0171242D01*
X0022573Y0169644D02*
X0030638Y0169644D01*
X0032236Y0168045D02*
X0022573Y0168045D01*
X0022573Y0166447D02*
X0033835Y0166447D01*
X0031573Y0163800D02*
X0026573Y0163800D01*
X0026573Y0158800D01*
X0031573Y0158800D01*
X0036573Y0158800D01*
X0036573Y0163800D01*
X0041573Y0163800D01*
X0041573Y0158800D01*
X0041973Y0158454D02*
X0022573Y0158454D01*
X0022573Y0156856D02*
X0041973Y0156856D01*
X0041973Y0155257D02*
X0022573Y0155257D01*
X0022573Y0153659D02*
X0041973Y0153659D01*
X0041573Y0153800D02*
X0041573Y0148800D01*
X0042231Y0150462D02*
X0032373Y0150462D01*
X0032373Y0148863D02*
X0043419Y0148863D01*
X0041973Y0152060D02*
X0031687Y0152060D01*
X0036573Y0153800D02*
X0036573Y0148800D01*
X0036573Y0143800D01*
X0041573Y0143800D01*
X0036573Y0138800D01*
X0041573Y0133800D01*
X0038573Y0136800D01*
X0039573Y0136800D01*
X0041573Y0138800D01*
X0039373Y0139272D02*
X0037773Y0139272D01*
X0037773Y0140870D02*
X0039373Y0140870D01*
X0039373Y0142469D02*
X0037773Y0142469D01*
X0037773Y0144068D02*
X0039373Y0144068D01*
X0039373Y0145666D02*
X0037773Y0145666D01*
X0037773Y0147265D02*
X0039373Y0147265D01*
X0041573Y0153800D02*
X0036573Y0153800D01*
X0036573Y0158800D01*
X0041973Y0160053D02*
X0022573Y0160053D01*
X0022573Y0161651D02*
X0041973Y0161651D01*
X0041973Y0163250D02*
X0022573Y0163250D01*
X0022573Y0164848D02*
X0042530Y0164848D01*
X0047173Y0169644D02*
X0047325Y0169644D01*
X0056073Y0176800D02*
X0057510Y0176800D01*
X0058093Y0163250D02*
X0059052Y0163250D01*
X0059052Y0161651D02*
X0058093Y0161651D01*
X0063243Y0163250D02*
X0067031Y0163250D01*
X0072431Y0170442D02*
X0076573Y0166300D01*
X0085573Y0166300D01*
X0088573Y0169300D01*
X0088573Y0171800D01*
X0093073Y0176300D01*
X0100573Y0163800D02*
X0100573Y0139300D01*
X0087573Y0126300D01*
X0087573Y0121800D02*
X0082864Y0121800D01*
X0082431Y0121367D01*
X0087573Y0121800D02*
X0103573Y0137800D01*
X0103573Y0162300D01*
X0115573Y0174300D01*
X0196073Y0174300D01*
X0197057Y0174359D01*
X0197057Y0176918D02*
X0113691Y0176918D01*
X0100573Y0163800D01*
X0087573Y0162799D02*
X0087573Y0153957D01*
X0087101Y0153485D01*
X0084419Y0156167D01*
X0082631Y0156167D01*
X0082631Y0151567D01*
X0082231Y0151567D01*
X0082231Y0156167D01*
X0080443Y0156167D01*
X0078811Y0154535D01*
X0078792Y0158217D01*
X0080443Y0156567D01*
X0082231Y0156567D01*
X0082231Y0161167D01*
X0082631Y0161167D01*
X0082631Y0156567D01*
X0084419Y0156567D01*
X0087231Y0159379D01*
X0087231Y0161167D01*
X0082631Y0161167D01*
X0082631Y0161567D01*
X0087231Y0161567D01*
X0087231Y0162657D01*
X0087573Y0162799D01*
X0087573Y0161800D02*
X0087231Y0161800D01*
X0087173Y0161567D02*
X0087173Y0161167D01*
X0087173Y0159320D02*
X0087173Y0153557D01*
X0087573Y0155400D02*
X0085186Y0155400D01*
X0083973Y0156167D02*
X0083973Y0156567D01*
X0082631Y0155400D02*
X0082231Y0155400D01*
X0080773Y0156167D02*
X0080773Y0156567D01*
X0079676Y0155400D02*
X0078807Y0155400D01*
X0082231Y0152200D02*
X0082631Y0152200D01*
X0082631Y0158600D02*
X0082231Y0158600D01*
X0083973Y0161167D02*
X0083973Y0161567D01*
X0086452Y0158600D02*
X0087573Y0158600D01*
X0090573Y0145643D02*
X0090573Y0143957D01*
X0087231Y0140615D01*
X0087231Y0141167D01*
X0082631Y0141167D01*
X0082631Y0141567D01*
X0087231Y0141567D01*
X0087231Y0142657D01*
X0087839Y0142909D01*
X0090573Y0145643D01*
X0090373Y0145443D02*
X0090373Y0143757D01*
X0089216Y0142600D02*
X0087231Y0142600D01*
X0087173Y0141567D02*
X0087173Y0141167D01*
X0083973Y0141167D02*
X0083973Y0141567D01*
X0109573Y0128643D02*
X0109573Y0110800D01*
X0112773Y0110800D02*
X0112773Y0131843D01*
X0113364Y0133000D02*
X0176073Y0133000D01*
X0176073Y0129800D02*
X0110730Y0129800D01*
X0113573Y0136200D02*
X0176073Y0136200D01*
X0176073Y0139400D02*
X0113573Y0139400D01*
X0113573Y0142600D02*
X0176073Y0142600D01*
X0176073Y0145800D02*
X0113573Y0145800D01*
X0113573Y0149000D02*
X0175716Y0149000D01*
X0180073Y0150300D02*
X0170573Y0159800D01*
X0169073Y0159800D01*
X0164673Y0158600D02*
X0114530Y0158600D01*
X0115973Y0160043D02*
X0115973Y0110800D01*
X0119173Y0110800D02*
X0119173Y0163243D01*
X0117730Y0161800D02*
X0164850Y0161800D01*
X0167173Y0164123D02*
X0167173Y0165241D01*
X0170373Y0165241D02*
X0170373Y0164200D01*
X0173573Y0165241D02*
X0173573Y0162457D01*
X0174230Y0161800D02*
X0192499Y0161800D01*
X0192573Y0161621D02*
X0192573Y0161621D01*
X0192573Y0158600D02*
X0177430Y0158600D01*
X0180073Y0150300D02*
X0180073Y0128800D01*
X0189073Y0119800D01*
X0240573Y0119800D01*
X0248573Y0111800D01*
X0252795Y0113800D02*
X0279916Y0113800D01*
X0279173Y0113057D02*
X0279173Y0162800D01*
X0275973Y0162800D02*
X0275973Y0109857D01*
X0276716Y0110600D02*
X0263495Y0110600D01*
X0263173Y0110923D02*
X0263173Y0162800D01*
X0266373Y0162800D02*
X0266373Y0106300D01*
X0265473Y0107400D02*
X0273516Y0107400D01*
X0272773Y0106657D02*
X0272773Y0162800D01*
X0269573Y0162800D02*
X0269573Y0106300D01*
X0274073Y0102300D02*
X0286073Y0114300D01*
X0301175Y0114300D01*
X0302057Y0114418D01*
X0298173Y0120200D02*
X0245830Y0120200D01*
X0247173Y0118857D02*
X0247173Y0162800D01*
X0250373Y0162800D02*
X0250373Y0116200D01*
X0249030Y0117000D02*
X0283116Y0117000D01*
X0282373Y0116257D02*
X0282373Y0161777D01*
X0282350Y0161800D02*
X0224473Y0161800D01*
X0224773Y0162800D02*
X0224773Y0123800D01*
X0227973Y0123800D02*
X0227973Y0162800D01*
X0231173Y0162800D02*
X0231173Y0123800D01*
X0234373Y0123800D02*
X0234373Y0162800D01*
X0237573Y0162800D02*
X0237573Y0123800D01*
X0240773Y0123800D02*
X0240773Y0162800D01*
X0243973Y0162800D02*
X0243973Y0122057D01*
X0242334Y0123400D02*
X0298693Y0123400D01*
X0298373Y0123080D02*
X0298373Y0165300D01*
X0301573Y0165300D02*
X0301573Y0123700D01*
X0304773Y0123700D02*
X0304773Y0165300D01*
X0307973Y0165300D02*
X0307973Y0123700D01*
X0311173Y0123700D02*
X0311173Y0165300D01*
X0314373Y0165300D02*
X0314373Y0123700D01*
X0317573Y0123700D02*
X0317573Y0165300D01*
X0320773Y0165300D02*
X0320773Y0123700D01*
X0323973Y0123700D02*
X0323973Y0165300D01*
X0327173Y0165300D02*
X0327173Y0123700D01*
X0329453Y0123400D02*
X0335516Y0123400D01*
X0339573Y0129800D02*
X0184730Y0129800D01*
X0184073Y0133000D02*
X0193150Y0133000D01*
X0192773Y0133377D02*
X0192773Y0123800D01*
X0195973Y0123800D02*
X0195973Y0131400D01*
X0199173Y0132177D02*
X0199173Y0123800D01*
X0202373Y0123800D02*
X0202373Y0158900D01*
X0200573Y0158600D02*
X0339716Y0158600D01*
X0339973Y0158857D02*
X0339973Y0165300D01*
X0343173Y0165300D02*
X0343173Y0162057D01*
X0342916Y0161800D02*
X0289795Y0161800D01*
X0288773Y0160777D02*
X0288773Y0118300D01*
X0291973Y0118300D02*
X0291973Y0165300D01*
X0290473Y0165000D02*
X0346116Y0165000D01*
X0346373Y0165218D02*
X0346373Y0165300D01*
X0336773Y0165300D02*
X0336773Y0155657D01*
X0336516Y0155400D02*
X0200573Y0155400D01*
X0200573Y0152200D02*
X0333316Y0152200D01*
X0333573Y0152457D02*
X0333573Y0165300D01*
X0330373Y0165300D02*
X0330373Y0149823D01*
X0329550Y0149000D02*
X0200573Y0149000D01*
X0200573Y0145800D02*
X0329173Y0145800D01*
X0338230Y0145800D02*
X0339573Y0145800D01*
X0339573Y0136200D02*
X0200973Y0136200D01*
X0199995Y0133000D02*
X0339573Y0133000D01*
X0363573Y0121800D02*
X0368573Y0116800D01*
X0338573Y0096682D02*
X0325089Y0096682D01*
X0325089Y0099241D02*
X0331014Y0099241D01*
X0333573Y0101800D01*
X0325089Y0101800D02*
X0317073Y0101800D01*
X0316632Y0104359D02*
X0325089Y0104359D01*
X0325089Y0106918D02*
X0316691Y0106918D01*
X0316573Y0095800D02*
X0318250Y0094123D01*
X0325089Y0094123D01*
X0323973Y0089400D02*
X0323973Y0082400D01*
X0327173Y0082400D02*
X0327173Y0089400D01*
X0320773Y0089400D02*
X0320773Y0082400D01*
X0317573Y0082400D02*
X0317573Y0089400D01*
X0314373Y0089400D02*
X0314373Y0082400D01*
X0311173Y0084857D02*
X0311173Y0089400D01*
X0307973Y0089400D02*
X0307973Y0088057D01*
X0307964Y0088066D02*
X0307964Y0088066D01*
X0307830Y0088200D02*
X0339573Y0088200D01*
X0339573Y0085000D02*
X0311030Y0085000D01*
X0304573Y0085800D02*
X0302057Y0088316D01*
X0302057Y0094123D01*
X0299573Y0083800D02*
X0294573Y0078800D01*
X0196573Y0078800D01*
X0202373Y0082800D02*
X0202373Y0090800D01*
X0205573Y0090800D02*
X0205573Y0082800D01*
X0208773Y0082800D02*
X0208773Y0090800D01*
X0211973Y0090800D02*
X0211973Y0082800D01*
X0215173Y0082800D02*
X0215173Y0090800D01*
X0218373Y0090800D02*
X0218373Y0082800D01*
X0221573Y0082800D02*
X0221573Y0090800D01*
X0224773Y0090800D02*
X0224773Y0082800D01*
X0227973Y0082800D02*
X0227973Y0090800D01*
X0231173Y0090800D02*
X0231173Y0082800D01*
X0234373Y0082800D02*
X0234373Y0090800D01*
X0237573Y0090800D02*
X0237573Y0082800D01*
X0240773Y0082800D02*
X0240773Y0090800D01*
X0243973Y0090800D02*
X0243973Y0082800D01*
X0247173Y0082800D02*
X0247173Y0090800D01*
X0250373Y0090800D02*
X0250373Y0082800D01*
X0253573Y0082800D02*
X0253573Y0090800D01*
X0256773Y0090800D02*
X0256773Y0082800D01*
X0259973Y0082800D02*
X0259973Y0090800D01*
X0263173Y0090800D02*
X0263173Y0082800D01*
X0266373Y0082800D02*
X0266373Y0090800D01*
X0269573Y0090800D02*
X0269573Y0082800D01*
X0272773Y0082800D02*
X0272773Y0090800D01*
X0275973Y0090800D02*
X0275973Y0082800D01*
X0301073Y0074300D02*
X0302057Y0074418D01*
X0301073Y0074300D02*
X0182573Y0074300D01*
X0181073Y0075800D01*
X0167173Y0075800D02*
X0167173Y0077400D01*
X0163973Y0077800D02*
X0163973Y0075800D01*
X0160773Y0075800D02*
X0160773Y0077800D01*
X0157573Y0077800D02*
X0157573Y0075800D01*
X0154373Y0075800D02*
X0154373Y0077800D01*
X0151173Y0077800D02*
X0151173Y0075800D01*
X0147973Y0075800D02*
X0147973Y0077800D01*
X0144773Y0077800D02*
X0144773Y0076257D01*
X0143573Y0071800D02*
X0136073Y0079300D01*
X0103573Y0079300D01*
X0103573Y0074300D02*
X0131073Y0074300D01*
X0138573Y0066800D01*
X0301073Y0066800D01*
X0302057Y0066918D01*
X0302057Y0064359D02*
X0301073Y0064300D01*
X0098573Y0064300D01*
X0095573Y0061300D01*
X0085573Y0061300D01*
X0082431Y0061367D01*
X0084073Y0069300D02*
X0082431Y0071367D01*
X0084073Y0069300D02*
X0131073Y0069300D01*
X0136073Y0074300D02*
X0141073Y0069300D01*
X0301073Y0069300D01*
X0302057Y0069477D01*
X0302057Y0071859D02*
X0301073Y0071800D01*
X0143573Y0071800D01*
X0144773Y0085800D02*
X0144773Y0090800D01*
X0147973Y0090800D02*
X0147973Y0085800D01*
X0151173Y0085800D02*
X0151173Y0090800D01*
X0154373Y0090800D02*
X0154373Y0085800D01*
X0157573Y0085800D02*
X0157573Y0090800D01*
X0160773Y0090800D02*
X0160773Y0085800D01*
X0163973Y0085800D02*
X0163973Y0090800D01*
X0167173Y0090800D02*
X0167173Y0086200D01*
X0141573Y0085800D02*
X0141573Y0090800D01*
X0138373Y0090800D02*
X0138373Y0085800D01*
X0135173Y0085800D02*
X0135173Y0090800D01*
X0131973Y0090800D02*
X0131973Y0085800D01*
X0103573Y0106800D02*
X0261073Y0106800D01*
X0259973Y0111200D02*
X0259973Y0162800D01*
X0256773Y0162800D02*
X0256773Y0110800D01*
X0253573Y0110800D02*
X0253573Y0162800D01*
X0252573Y0152800D02*
X0237573Y0152800D01*
X0234573Y0152800D01*
X0227323Y0145550D01*
X0221573Y0158900D02*
X0221573Y0123800D01*
X0218373Y0123800D02*
X0218373Y0158900D01*
X0218573Y0161800D02*
X0209573Y0167300D01*
X0208955Y0166682D01*
X0197057Y0166682D01*
X0197057Y0169241D02*
X0198573Y0169300D01*
X0197057Y0164123D02*
X0196573Y0163639D01*
X0196573Y0135800D01*
X0192173Y0136200D02*
X0184073Y0136200D01*
X0184073Y0139400D02*
X0192573Y0139400D01*
X0192573Y0142600D02*
X0184073Y0142600D01*
X0184073Y0145800D02*
X0192573Y0145800D01*
X0192573Y0149000D02*
X0184073Y0149000D01*
X0189573Y0165241D02*
X0189573Y0124957D01*
X0177807Y0125409D02*
X0177807Y0125409D01*
X0163973Y0110800D02*
X0163973Y0165241D01*
X0160773Y0165241D02*
X0160773Y0110800D01*
X0157573Y0110800D02*
X0157573Y0165241D01*
X0154373Y0165241D02*
X0154373Y0110800D01*
X0151173Y0110800D02*
X0151173Y0165241D01*
X0147973Y0165241D02*
X0147973Y0110800D01*
X0144773Y0110800D02*
X0144773Y0165241D01*
X0141573Y0165241D02*
X0141573Y0110800D01*
X0138373Y0110800D02*
X0138373Y0165241D01*
X0135173Y0165241D02*
X0135173Y0110800D01*
X0131973Y0110800D02*
X0131973Y0165241D01*
X0128773Y0165241D02*
X0128773Y0110800D01*
X0125573Y0110800D02*
X0125573Y0165241D01*
X0122373Y0165241D02*
X0122373Y0110800D01*
X0099173Y0107400D02*
X0098630Y0107400D01*
X0094073Y0106300D02*
X0098073Y0102300D01*
X0274073Y0102300D01*
X0285573Y0118300D02*
X0285573Y0159900D01*
X0286073Y0164300D02*
X0283573Y0166800D01*
X0221073Y0166800D01*
X0220089Y0166682D01*
X0220089Y0164123D02*
X0220089Y0163316D01*
X0218573Y0161800D01*
X0215173Y0158900D02*
X0215173Y0123800D01*
X0211973Y0123800D02*
X0211973Y0158900D01*
X0208773Y0158900D02*
X0208773Y0123800D01*
X0205573Y0123800D02*
X0205573Y0158900D01*
X0192085Y0165000D02*
X0120930Y0165000D01*
X0082631Y0200200D02*
X0082231Y0200200D01*
X0083973Y0201167D02*
X0083973Y0201567D01*
X0082631Y0203400D02*
X0082231Y0203400D01*
X0087173Y0201567D02*
X0087173Y0201167D01*
X0064773Y0225788D02*
X0064773Y0230800D01*
X0057989Y0222600D02*
X0057030Y0222600D01*
X0057030Y0219400D02*
X0057989Y0219400D01*
X0048773Y0228150D02*
X0048773Y0228822D01*
X0042537Y0237890D02*
X0034653Y0237890D01*
X0034673Y0238013D01*
X0034673Y0238309D01*
X0028757Y0238309D01*
X0028757Y0238677D01*
X0034673Y0238677D01*
X0034673Y0238973D01*
X0034591Y0239490D01*
X0042537Y0239490D01*
X0042537Y0249920D01*
X0041449Y0249797D01*
X0040218Y0249516D01*
X0040113Y0249479D01*
X0040320Y0249686D01*
X0041108Y0250674D01*
X0041780Y0251744D01*
X0042328Y0252882D01*
X0042745Y0254075D01*
X0042811Y0254363D01*
X0043361Y0252311D01*
X0044784Y0249847D01*
X0044137Y0249920D01*
X0044137Y0239490D01*
X0042537Y0239490D01*
X0042537Y0237890D01*
X0042373Y0237890D02*
X0042373Y0239490D01*
X0042537Y0238600D02*
X0028757Y0238600D01*
X0028757Y0238677D02*
X0028389Y0238677D01*
X0028389Y0244593D01*
X0028093Y0244593D01*
X0027144Y0244443D01*
X0026231Y0244146D01*
X0025376Y0243710D01*
X0024599Y0243146D01*
X0023920Y0242467D01*
X0023356Y0241690D01*
X0022920Y0240834D01*
X0022623Y0239921D01*
X0022473Y0238973D01*
X0022473Y0238677D01*
X0028388Y0238677D01*
X0028388Y0238309D01*
X0022473Y0238309D01*
X0022473Y0238013D01*
X0022623Y0237064D01*
X0022920Y0236151D01*
X0023356Y0235296D01*
X0023920Y0234519D01*
X0024599Y0233840D01*
X0025376Y0233276D01*
X0026231Y0232840D01*
X0027144Y0232543D01*
X0028093Y0232393D01*
X0028389Y0232393D01*
X0028389Y0238309D01*
X0028757Y0238309D01*
X0028757Y0232393D01*
X0029053Y0232393D01*
X0030001Y0232543D01*
X0030914Y0232840D01*
X0031770Y0233276D01*
X0032547Y0233840D01*
X0032979Y0234272D01*
X0033476Y0233240D01*
X0034148Y0232170D01*
X0034936Y0231182D01*
X0035818Y0230300D01*
X0033593Y0230300D01*
X0032821Y0231072D01*
X0030065Y0232213D01*
X0027081Y0232213D01*
X0024324Y0231072D01*
X0022215Y0228962D01*
X0021073Y0226205D01*
X0021073Y0223222D01*
X0022215Y0220465D01*
X0022573Y0220107D01*
X0022573Y0205787D01*
X0018566Y0205787D01*
X0017573Y0205376D01*
X0017573Y0266800D01*
X0026065Y0266800D01*
X0025400Y0266382D01*
X0024412Y0265595D01*
X0023518Y0264701D01*
X0022731Y0263713D01*
X0022059Y0262644D01*
X0021510Y0261505D01*
X0021093Y0260313D01*
X0020812Y0259081D01*
X0020689Y0257994D01*
X0031119Y0257994D01*
X0031119Y0256394D01*
X0020689Y0256394D01*
X0020812Y0255306D01*
X0021093Y0254075D01*
X0021510Y0252882D01*
X0022059Y0251744D01*
X0022731Y0250674D01*
X0023518Y0249686D01*
X0024412Y0248793D01*
X0025400Y0248005D01*
X0026469Y0247333D01*
X0027608Y0246785D01*
X0028800Y0246367D01*
X0030032Y0246086D01*
X0031119Y0245964D01*
X0031119Y0256394D01*
X0032719Y0256394D01*
X0032719Y0245964D01*
X0033807Y0246086D01*
X0035038Y0246367D01*
X0035143Y0246404D01*
X0034936Y0246197D01*
X0034148Y0245209D01*
X0033476Y0244140D01*
X0032928Y0243001D01*
X0032866Y0242826D01*
X0032547Y0243146D01*
X0031770Y0243710D01*
X0030914Y0244146D01*
X0030001Y0244443D01*
X0029053Y0244593D01*
X0028757Y0244593D01*
X0028757Y0238677D01*
X0028770Y0238690D02*
X0028573Y0238493D01*
X0028388Y0238600D02*
X0017573Y0238600D01*
X0017573Y0235400D02*
X0023303Y0235400D01*
X0023173Y0235655D02*
X0023173Y0229920D01*
X0022253Y0229000D02*
X0017573Y0229000D01*
X0017573Y0225800D02*
X0021073Y0225800D01*
X0021330Y0222600D02*
X0017573Y0222600D01*
X0017573Y0219400D02*
X0022573Y0219400D01*
X0022573Y0216200D02*
X0017573Y0216200D01*
X0017573Y0213000D02*
X0022573Y0213000D01*
X0022573Y0209800D02*
X0017573Y0209800D01*
X0017573Y0206600D02*
X0022573Y0206600D01*
X0019973Y0205787D02*
X0019973Y0266800D01*
X0023173Y0266800D02*
X0023173Y0264268D01*
X0023119Y0264200D02*
X0017573Y0264200D01*
X0017573Y0261000D02*
X0021334Y0261000D01*
X0023173Y0257994D02*
X0023173Y0256394D01*
X0020973Y0254600D02*
X0017573Y0254600D01*
X0017573Y0251400D02*
X0022275Y0251400D01*
X0023173Y0250120D02*
X0023173Y0241331D01*
X0023436Y0241800D02*
X0017573Y0241800D01*
X0017573Y0245000D02*
X0034016Y0245000D01*
X0032773Y0245970D02*
X0032773Y0242920D01*
X0029573Y0244511D02*
X0029573Y0246191D01*
X0031119Y0248200D02*
X0032719Y0248200D01*
X0032719Y0251400D02*
X0031119Y0251400D01*
X0031119Y0254600D02*
X0032719Y0254600D01*
X0031119Y0257800D02*
X0017573Y0257800D01*
X0026373Y0257994D02*
X0026373Y0256394D01*
X0029573Y0256394D02*
X0029573Y0257994D01*
X0025155Y0248200D02*
X0017573Y0248200D01*
X0026373Y0247394D02*
X0026373Y0244192D01*
X0028389Y0241800D02*
X0028757Y0241800D01*
X0028770Y0238690D02*
X0043337Y0238690D01*
X0042537Y0241800D02*
X0044137Y0241800D01*
X0044137Y0245000D02*
X0042537Y0245000D01*
X0042537Y0248200D02*
X0044137Y0248200D01*
X0042373Y0249901D02*
X0042373Y0253010D01*
X0041564Y0251400D02*
X0043887Y0251400D01*
X0039173Y0239490D02*
X0039173Y0237890D01*
X0035973Y0237890D02*
X0035973Y0239490D01*
X0032773Y0238677D02*
X0032773Y0238309D01*
X0029573Y0238309D02*
X0029573Y0238677D01*
X0026373Y0238677D02*
X0026373Y0238309D01*
X0023173Y0238309D02*
X0023173Y0238677D01*
X0028389Y0235400D02*
X0028757Y0235400D01*
X0029573Y0232475D02*
X0029573Y0232213D01*
X0030097Y0232200D02*
X0034129Y0232200D01*
X0032773Y0231092D02*
X0032773Y0234066D01*
X0027049Y0232200D02*
X0017573Y0232200D01*
X0026373Y0231920D02*
X0026373Y0232794D01*
X0072431Y0171367D02*
X0072431Y0170442D01*
X0039373Y0137673D02*
X0037773Y0137673D01*
X0038573Y0136800D02*
X0036573Y0134800D01*
X0036573Y0133800D01*
X0036573Y0126800D01*
X0038573Y0128800D01*
X0041573Y0128800D01*
X0039373Y0128082D02*
X0037773Y0128082D01*
X0037773Y0126484D02*
X0039373Y0126484D01*
X0039611Y0124885D02*
X0022573Y0124885D01*
X0022573Y0123287D02*
X0038263Y0123287D01*
X0038220Y0121688D02*
X0022573Y0121688D01*
X0022573Y0120090D02*
X0038220Y0120090D01*
X0038220Y0118491D02*
X0022573Y0118491D01*
X0022573Y0116893D02*
X0038310Y0116893D01*
X0038820Y0115294D02*
X0022573Y0115294D01*
X0022573Y0113696D02*
X0043093Y0113696D01*
X0043226Y0113800D02*
X0043573Y0113454D01*
X0043226Y0113800D02*
X0036573Y0113800D01*
X0036573Y0118800D01*
X0036573Y0123800D01*
X0036573Y0126800D01*
X0034073Y0129300D01*
X0028337Y0129300D01*
X0028337Y0126319D01*
X0028337Y0129300D01*
X0028337Y0129300D01*
X0028337Y0128082D02*
X0028337Y0128082D01*
X0028337Y0126484D02*
X0028337Y0126484D01*
X0023238Y0126484D02*
X0022573Y0126484D01*
X0022573Y0112097D02*
X0038820Y0112097D01*
X0038863Y0110499D02*
X0030248Y0110499D01*
X0031847Y0108900D02*
X0049220Y0108900D01*
X0050573Y0107302D02*
X0032373Y0107302D01*
X0032373Y0105703D02*
X0050698Y0105703D01*
X0051611Y0104105D02*
X0032985Y0104105D01*
X0033122Y0102506D02*
X0033137Y0102506D01*
X0036573Y0108800D02*
X0036573Y0113800D01*
X0043093Y0112097D02*
X0044052Y0112097D01*
X0044052Y0110499D02*
X0043093Y0110499D01*
X0044261Y0102506D02*
X0048885Y0102506D01*
X0048110Y0100908D02*
X0045036Y0100908D01*
X0045036Y0099309D02*
X0048110Y0099309D01*
X0048110Y0097711D02*
X0045036Y0097711D01*
X0045036Y0096112D02*
X0048110Y0096112D01*
X0048110Y0094514D02*
X0045036Y0094514D01*
X0045036Y0092915D02*
X0048110Y0092915D01*
X0048662Y0091317D02*
X0044484Y0091317D01*
X0033078Y0089718D02*
X0060373Y0089718D01*
X0060373Y0088120D02*
X0031720Y0088120D01*
X0031573Y0086521D02*
X0060373Y0086521D01*
X0060373Y0084923D02*
X0031573Y0084923D01*
X0031573Y0083324D02*
X0060373Y0083324D01*
X0060373Y0081726D02*
X0031573Y0081726D01*
X0031573Y0080127D02*
X0060373Y0080127D01*
X0060373Y0078529D02*
X0056419Y0078529D01*
X0057311Y0076930D02*
X0060373Y0076930D01*
X0060373Y0068943D02*
X0060373Y0041426D01*
X0059814Y0041984D01*
X0058932Y0042350D01*
X0055762Y0042350D01*
X0055762Y0065736D01*
X0056271Y0065946D01*
X0056946Y0066622D01*
X0057311Y0067504D01*
X0057311Y0068312D01*
X0058880Y0068312D01*
X0060350Y0068921D01*
X0060373Y0068943D01*
X0060373Y0068937D02*
X0060367Y0068937D01*
X0060373Y0067339D02*
X0057243Y0067339D01*
X0055773Y0065740D02*
X0060373Y0065740D01*
X0060373Y0064142D02*
X0055762Y0064142D01*
X0055762Y0062543D02*
X0060373Y0062543D01*
X0060373Y0060945D02*
X0055762Y0060945D01*
X0055762Y0059346D02*
X0060373Y0059346D01*
X0060373Y0057748D02*
X0055762Y0057748D01*
X0055762Y0056149D02*
X0060373Y0056149D01*
X0060373Y0054551D02*
X0055762Y0054551D01*
X0055762Y0052952D02*
X0060373Y0052952D01*
X0060373Y0051354D02*
X0055762Y0051354D01*
X0055762Y0049755D02*
X0060373Y0049755D01*
X0060373Y0048157D02*
X0055762Y0048157D01*
X0055762Y0046558D02*
X0060373Y0046558D01*
X0060373Y0044960D02*
X0055762Y0044960D01*
X0055762Y0043361D02*
X0060373Y0043361D01*
X0060373Y0041763D02*
X0060036Y0041763D01*
X0047762Y0043361D02*
X0016773Y0043361D01*
X0016773Y0044960D02*
X0047762Y0044960D01*
X0047762Y0046558D02*
X0016773Y0046558D01*
X0016773Y0048157D02*
X0047762Y0048157D01*
X0047762Y0049755D02*
X0016773Y0049755D01*
X0016773Y0051354D02*
X0047762Y0051354D01*
X0047762Y0052952D02*
X0016773Y0052952D01*
X0016773Y0054551D02*
X0047762Y0054551D01*
X0047762Y0056149D02*
X0016773Y0056149D01*
X0016773Y0057748D02*
X0047762Y0057748D01*
X0047762Y0059346D02*
X0016773Y0059346D01*
X0016773Y0060945D02*
X0047762Y0060945D01*
X0047762Y0062543D02*
X0016773Y0062543D01*
X0016773Y0064142D02*
X0047762Y0064142D01*
X0047750Y0065740D02*
X0030577Y0065740D01*
X0032046Y0067339D02*
X0046280Y0067339D01*
X0046212Y0068937D02*
X0032115Y0068937D01*
X0032115Y0070536D02*
X0046212Y0070536D01*
X0046212Y0072134D02*
X0032115Y0072134D01*
X0032115Y0073733D02*
X0046212Y0073733D01*
X0046212Y0075332D02*
X0032115Y0075332D01*
X0032115Y0076930D02*
X0046212Y0076930D01*
X0047104Y0078529D02*
X0031573Y0078529D01*
X0023573Y0080127D02*
X0016773Y0080127D01*
X0016773Y0078529D02*
X0021907Y0078529D01*
X0021015Y0076930D02*
X0016773Y0076930D01*
X0016773Y0075332D02*
X0021015Y0075332D01*
X0021015Y0073733D02*
X0016773Y0073733D01*
X0016773Y0072134D02*
X0021015Y0072134D01*
X0021015Y0070536D02*
X0016773Y0070536D01*
X0016773Y0068937D02*
X0021015Y0068937D01*
X0021084Y0067339D02*
X0016773Y0067339D01*
X0016773Y0065740D02*
X0022553Y0065740D01*
X0023573Y0081726D02*
X0016773Y0081726D01*
X0016773Y0083324D02*
X0023573Y0083324D01*
X0023573Y0084923D02*
X0016773Y0084923D01*
X0016773Y0086521D02*
X0023573Y0086521D01*
X0023425Y0088120D02*
X0016773Y0088120D01*
X0016773Y0089718D02*
X0020998Y0089718D01*
X0019399Y0091317D02*
X0016773Y0091317D01*
X0016773Y0092915D02*
X0017801Y0092915D01*
X0022573Y0105703D02*
X0024773Y0105703D01*
X0024773Y0107302D02*
X0022573Y0107302D01*
X0022573Y0108900D02*
X0025299Y0108900D01*
X0026898Y0110499D02*
X0022573Y0110499D01*
X0037773Y0129681D02*
X0039373Y0129681D01*
X0039373Y0131279D02*
X0037773Y0131279D01*
X0037773Y0132878D02*
X0039373Y0132878D01*
X0039373Y0134476D02*
X0037773Y0134476D01*
X0039373Y0136075D02*
X0042127Y0136075D01*
X0024737Y0148863D02*
X0022573Y0148863D01*
X0022573Y0150462D02*
X0024773Y0150462D01*
X0025459Y0152060D02*
X0022573Y0152060D01*
X0072431Y0111367D02*
X0073573Y0111800D01*
X0078073Y0116300D01*
X0070573Y0106300D02*
X0066073Y0101800D01*
X0066073Y0096800D01*
X0071073Y0091800D01*
X0072431Y0091367D01*
X0060373Y0091317D02*
X0060232Y0091317D01*
X0082431Y0051367D02*
X0083573Y0051800D01*
X0106073Y0051800D01*
X0113573Y0059300D01*
X0118573Y0046800D02*
X0120226Y0046800D01*
X0118573Y0046800D02*
X0115073Y0043300D01*
X0092573Y0043300D01*
X0085573Y0036300D01*
X0078073Y0036300D01*
X0073573Y0031800D01*
X0072431Y0031367D01*
X0068573Y0026300D02*
X0063573Y0031300D01*
X0061373Y0028975D02*
X0046404Y0028975D01*
X0044806Y0027376D02*
X0062971Y0027376D01*
X0064570Y0025778D02*
X0043207Y0025778D01*
X0042573Y0024179D02*
X0066168Y0024179D01*
X0067031Y0022581D02*
X0042573Y0022581D01*
X0042573Y0020982D02*
X0067031Y0020982D01*
X0067031Y0019384D02*
X0055110Y0019384D01*
X0057500Y0017785D02*
X0065901Y0017785D01*
X0064303Y0016187D02*
X0058394Y0016187D01*
X0052036Y0019384D02*
X0045110Y0019384D01*
X0047500Y0017785D02*
X0049645Y0017785D01*
X0048751Y0016187D02*
X0048394Y0016187D01*
X0043573Y0011800D02*
X0043573Y0005800D01*
X0044573Y0004800D01*
X0057573Y0004800D01*
X0060573Y0007800D01*
X0068073Y0007800D01*
X0071073Y0010800D01*
X0091573Y0010800D01*
X0100573Y0019800D01*
X0119833Y0019800D01*
X0114244Y0015800D02*
X0114561Y0015035D01*
X0115277Y0014319D01*
X0115277Y0012181D01*
X0119058Y0012181D01*
X0119058Y0011419D01*
X0119820Y0011419D01*
X0119820Y0007638D01*
X0122038Y0007638D01*
X0122496Y0007760D01*
X0122560Y0007798D01*
X0122632Y0007625D01*
X0123532Y0006725D01*
X0124708Y0006238D01*
X0129847Y0006238D01*
X0130285Y0005800D01*
X0079560Y0005800D01*
X0079555Y0006800D01*
X0092368Y0006800D01*
X0093839Y0007409D01*
X0102230Y0015800D01*
X0114244Y0015800D01*
X0114995Y0014600D02*
X0101030Y0014600D01*
X0099973Y0013543D02*
X0099973Y0005800D01*
X0103173Y0005800D02*
X0103173Y0015800D01*
X0106373Y0015800D02*
X0106373Y0005800D01*
X0109573Y0005800D02*
X0109573Y0015800D01*
X0108573Y0015800D02*
X0119439Y0011800D01*
X0119173Y0011419D02*
X0119173Y0005800D01*
X0119058Y0007638D02*
X0119058Y0011419D01*
X0115277Y0011419D01*
X0115277Y0009201D01*
X0115399Y0008743D01*
X0115636Y0008333D01*
X0115972Y0007997D01*
X0116382Y0007760D01*
X0116840Y0007638D01*
X0119058Y0007638D01*
X0119058Y0008200D02*
X0119820Y0008200D01*
X0122373Y0007727D02*
X0122373Y0005800D01*
X0125573Y0005800D02*
X0125573Y0006238D01*
X0128773Y0006238D02*
X0128773Y0005800D01*
X0127707Y0011800D02*
X0127313Y0012194D01*
X0119820Y0011400D02*
X0119058Y0011400D01*
X0115973Y0011419D02*
X0115973Y0012181D01*
X0115277Y0011400D02*
X0097830Y0011400D01*
X0096773Y0010343D02*
X0096773Y0005800D01*
X0093573Y0005800D02*
X0093573Y0007299D01*
X0094630Y0008200D02*
X0115769Y0008200D01*
X0115973Y0007997D02*
X0115973Y0005800D01*
X0112773Y0005800D02*
X0112773Y0015800D01*
X0104085Y0029100D02*
X0097030Y0029100D01*
X0102730Y0034800D01*
X0108759Y0034800D01*
X0108759Y0033774D01*
X0104085Y0029100D01*
X0103173Y0029100D02*
X0103173Y0034800D01*
X0101730Y0033800D02*
X0108759Y0033800D01*
X0106373Y0034800D02*
X0106373Y0031388D01*
X0105585Y0030600D02*
X0098530Y0030600D01*
X0099973Y0032043D02*
X0099973Y0029100D01*
X0101073Y0038800D02*
X0088573Y0026300D01*
X0068573Y0026300D01*
X0085573Y0014800D02*
X0086073Y0014300D01*
X0087173Y0006800D02*
X0087173Y0005800D01*
X0090373Y0005800D02*
X0090373Y0006800D01*
X0083973Y0006800D02*
X0083973Y0005800D01*
X0080773Y0005800D02*
X0080773Y0006800D01*
X0113573Y0031800D02*
X0115502Y0031800D01*
X0101073Y0038800D02*
X0130573Y0038800D01*
X0138573Y0046800D01*
X0140226Y0046800D01*
X0143573Y0051800D02*
X0133573Y0051800D01*
X0128573Y0046800D01*
X0126919Y0046800D01*
X0143573Y0051800D02*
X0148573Y0046800D01*
X0146919Y0046800D01*
X0148573Y0046800D02*
X0148573Y0039800D01*
X0153573Y0034800D01*
X0153573Y0011800D01*
X0133573Y0031800D02*
X0131644Y0031800D01*
X0197057Y0046682D02*
X0202191Y0046682D01*
X0208573Y0056800D02*
X0210573Y0058800D01*
X0211266Y0059300D01*
X0220089Y0059477D01*
X0221073Y0059300D01*
X0220089Y0056918D02*
X0233455Y0056918D01*
X0233691Y0056918D01*
X0234373Y0055800D02*
X0234373Y0060300D01*
X0237573Y0060300D02*
X0237573Y0055800D01*
X0237916Y0055800D02*
X0225012Y0055800D01*
X0224573Y0056861D01*
X0224516Y0056918D01*
X0224573Y0056976D01*
X0225060Y0058152D01*
X0225060Y0058873D01*
X0225151Y0059374D01*
X0225060Y0059789D01*
X0225060Y0060300D01*
X0291673Y0060300D01*
X0291673Y0057477D01*
X0293350Y0055800D01*
X0248230Y0055800D01*
X0247839Y0056191D01*
X0246368Y0056800D01*
X0239777Y0056800D01*
X0238307Y0056191D01*
X0237916Y0055800D01*
X0238329Y0056200D02*
X0224847Y0056200D01*
X0224773Y0056378D02*
X0224773Y0057458D01*
X0225145Y0059400D02*
X0291673Y0059400D01*
X0291973Y0057177D02*
X0291973Y0055800D01*
X0292950Y0056200D02*
X0247817Y0056200D01*
X0247173Y0056467D02*
X0247173Y0060300D01*
X0250373Y0060300D02*
X0250373Y0055800D01*
X0253573Y0055800D02*
X0253573Y0060300D01*
X0256773Y0060300D02*
X0256773Y0055800D01*
X0259973Y0055800D02*
X0259973Y0060300D01*
X0263173Y0060300D02*
X0263173Y0055800D01*
X0266373Y0055800D02*
X0266373Y0060300D01*
X0269573Y0060300D02*
X0269573Y0055800D01*
X0272773Y0055800D02*
X0272773Y0060300D01*
X0275973Y0060300D02*
X0275973Y0055800D01*
X0279173Y0055800D02*
X0279173Y0060300D01*
X0282373Y0060300D02*
X0282373Y0055800D01*
X0285573Y0055800D02*
X0285573Y0060300D01*
X0288773Y0060300D02*
X0288773Y0055800D01*
X0296073Y0059300D02*
X0301073Y0059300D01*
X0302057Y0059241D01*
X0302057Y0061800D02*
X0306073Y0061800D01*
X0295173Y0042800D02*
X0295173Y0010600D01*
X0297420Y0011400D02*
X0289726Y0011400D01*
X0291973Y0010600D02*
X0291973Y0042800D01*
X0289831Y0024200D02*
X0297315Y0024200D01*
X0296873Y0021000D02*
X0290273Y0021000D01*
X0289048Y0017800D02*
X0298098Y0017800D01*
X0298373Y0017525D02*
X0298373Y0015301D01*
X0298073Y0014600D02*
X0289073Y0014600D01*
X0288773Y0015301D02*
X0288773Y0017525D01*
X0283573Y0021800D02*
X0283573Y0011800D01*
X0273573Y0011800D02*
X0273573Y0021800D01*
X0263573Y0021800D02*
X0263573Y0011800D01*
X0253573Y0011800D02*
X0253573Y0021800D01*
X0243973Y0056800D02*
X0243973Y0060300D01*
X0240773Y0060300D02*
X0240773Y0056800D01*
X0231173Y0055800D02*
X0231173Y0060300D01*
X0227973Y0060300D02*
X0227973Y0055800D01*
X0199173Y0083244D02*
X0199173Y0090800D01*
X0195973Y0090800D02*
X0195973Y0083781D01*
X0295173Y0118300D02*
X0295173Y0165300D01*
X0317573Y0187800D02*
X0313573Y0191800D01*
X0313573Y0201800D01*
X0311173Y0188543D02*
X0311173Y0188300D01*
X0317573Y0187800D02*
X0364573Y0187800D01*
X0375073Y0198300D01*
X0375073Y0205800D01*
X0381073Y0211800D01*
X0381073Y0216800D02*
X0377073Y0216800D01*
X0353573Y0211800D02*
X0353573Y0201800D01*
X0343573Y0201800D02*
X0343573Y0211800D01*
X0328573Y0225800D02*
X0328573Y0230028D01*
X0328573Y0233572D02*
X0328573Y0241800D01*
X0332677Y0237621D02*
X0333539Y0238482D01*
X0333573Y0238565D01*
X0333607Y0238482D01*
X0335255Y0236834D01*
X0336433Y0236346D01*
X0336168Y0236193D01*
X0335833Y0235858D01*
X0335596Y0235448D01*
X0335474Y0234990D01*
X0335474Y0232280D01*
X0339353Y0232280D01*
X0339353Y0231320D01*
X0335474Y0231320D01*
X0335474Y0230600D01*
X0334273Y0230600D01*
X0334273Y0231685D01*
X0334273Y0235458D01*
X0333786Y0236634D01*
X0332885Y0237534D01*
X0332677Y0237621D01*
X0333573Y0236847D02*
X0333573Y0238565D01*
X0334273Y0235400D02*
X0335584Y0235400D01*
X0334573Y0235300D02*
X0334573Y0232800D01*
X0335573Y0231800D01*
X0339833Y0231800D01*
X0339353Y0232200D02*
X0334273Y0232200D01*
X0336773Y0232280D02*
X0336773Y0231320D01*
X0347313Y0231800D02*
X0348573Y0231800D01*
X0353573Y0236800D01*
X0353573Y0246800D01*
X0313573Y0246800D01*
X0308573Y0241800D01*
X0308573Y0233800D01*
X0308573Y0229800D02*
X0308573Y0225800D01*
X0318573Y0225800D02*
X0318573Y0229800D01*
X0318573Y0233800D02*
X0318573Y0241800D01*
X0306073Y0249300D02*
X0298573Y0241800D01*
X0298373Y0247657D02*
X0298373Y0255800D01*
X0295173Y0255886D02*
X0295173Y0246684D01*
X0294726Y0248200D02*
X0299316Y0248200D01*
X0301573Y0250457D02*
X0301573Y0255450D01*
X0304773Y0255450D02*
X0304773Y0253091D01*
X0302516Y0251400D02*
X0294666Y0251400D01*
X0295073Y0254600D02*
X0372420Y0254600D01*
X0371973Y0253300D02*
X0371973Y0256819D01*
X0370528Y0257800D02*
X0337680Y0257800D01*
X0337770Y0257956D02*
X0337893Y0258413D01*
X0337893Y0261025D01*
X0329978Y0261025D01*
X0329978Y0262575D01*
X0337892Y0262575D01*
X0337893Y0265187D01*
X0337770Y0265644D01*
X0337533Y0266055D01*
X0337198Y0266390D01*
X0336787Y0266627D01*
X0336329Y0266750D01*
X0329978Y0266750D01*
X0329978Y0262575D01*
X0328428Y0262575D01*
X0328428Y0261025D01*
X0329978Y0261025D01*
X0329978Y0256850D01*
X0336329Y0256850D01*
X0336787Y0256973D01*
X0337198Y0257210D01*
X0337533Y0257545D01*
X0337770Y0257956D01*
X0336773Y0256969D02*
X0336773Y0253300D01*
X0339973Y0253300D02*
X0339973Y0271600D01*
X0339700Y0271600D02*
X0342564Y0271600D01*
X0345210Y0272696D01*
X0347236Y0274722D01*
X0348022Y0276619D01*
X0348808Y0274722D01*
X0350833Y0272696D01*
X0353479Y0271600D01*
X0356344Y0271600D01*
X0358990Y0272696D01*
X0361015Y0274722D01*
X0362111Y0277368D01*
X0362111Y0280232D01*
X0361015Y0282878D01*
X0358990Y0284904D01*
X0356344Y0286000D01*
X0353479Y0286000D01*
X0350833Y0284904D01*
X0348808Y0282878D01*
X0348022Y0280981D01*
X0347236Y0282878D01*
X0345210Y0284904D01*
X0342564Y0286000D01*
X0339877Y0286000D01*
X0341891Y0286834D01*
X0343539Y0288482D01*
X0343573Y0288565D01*
X0343607Y0288482D01*
X0345255Y0286834D01*
X0347408Y0285943D01*
X0349738Y0285943D01*
X0351891Y0286834D01*
X0353539Y0288482D01*
X0353573Y0288565D01*
X0353607Y0288482D01*
X0355255Y0286834D01*
X0357408Y0285943D01*
X0359738Y0285943D01*
X0361891Y0286834D01*
X0363539Y0288482D01*
X0364337Y0290411D01*
X0364442Y0290089D01*
X0364760Y0289464D01*
X0365173Y0288896D01*
X0365669Y0288400D01*
X0366237Y0287988D01*
X0366862Y0287669D01*
X0367529Y0287452D01*
X0368222Y0287343D01*
X0368487Y0287343D01*
X0368487Y0291714D01*
X0368487Y0289800D02*
X0368659Y0289800D01*
X0368773Y0287343D02*
X0368773Y0264044D01*
X0368929Y0264200D02*
X0337892Y0264200D01*
X0336773Y0262575D02*
X0336773Y0261025D01*
X0337893Y0261000D02*
X0368592Y0261000D01*
X0368773Y0259556D02*
X0368773Y0253300D01*
X0365573Y0253300D02*
X0365573Y0288496D01*
X0364589Y0289800D02*
X0364084Y0289800D01*
X0362373Y0287316D02*
X0362373Y0253300D01*
X0359173Y0253300D02*
X0359173Y0272879D01*
X0360094Y0273800D02*
X0369573Y0273800D01*
X0369573Y0277000D02*
X0361959Y0277000D01*
X0362111Y0280200D02*
X0369573Y0280200D01*
X0369573Y0283400D02*
X0360494Y0283400D01*
X0359173Y0284721D02*
X0359173Y0285943D01*
X0361325Y0286600D02*
X0369573Y0286600D01*
X0377573Y0286600D02*
X0379605Y0286600D01*
X0380795Y0287790D02*
X0377573Y0284568D01*
X0377573Y0297471D01*
X0378338Y0297788D01*
X0379238Y0298688D01*
X0379726Y0299864D01*
X0379726Y0306255D01*
X0379500Y0306800D01*
X0379726Y0307345D01*
X0379726Y0312761D01*
X0397743Y0312761D01*
X0403274Y0307230D01*
X0403274Y0288887D01*
X0399773Y0292388D01*
X0399773Y0294368D01*
X0396141Y0298000D01*
X0391005Y0298000D01*
X0387583Y0294578D01*
X0385561Y0296600D01*
X0383773Y0296600D01*
X0383773Y0292000D01*
X0383373Y0292000D01*
X0383373Y0296600D01*
X0381585Y0296600D01*
X0378773Y0293788D01*
X0378773Y0292000D01*
X0383373Y0292000D01*
X0383373Y0291600D01*
X0378773Y0291600D01*
X0378773Y0289812D01*
X0380795Y0287790D01*
X0378785Y0289800D02*
X0377573Y0289800D01*
X0377573Y0293000D02*
X0378773Y0293000D01*
X0381573Y0292000D02*
X0381573Y0291600D01*
X0383573Y0291800D02*
X0383573Y0301800D01*
X0388573Y0306800D01*
X0387973Y0312761D02*
X0387973Y0294968D01*
X0389205Y0296200D02*
X0385961Y0296200D01*
X0384773Y0296600D02*
X0384773Y0312761D01*
X0381573Y0312761D02*
X0381573Y0296588D01*
X0381185Y0296200D02*
X0377573Y0296200D01*
X0378373Y0297823D02*
X0378373Y0285368D01*
X0383373Y0293000D02*
X0383773Y0293000D01*
X0383773Y0296200D02*
X0383373Y0296200D01*
X0379533Y0299400D02*
X0403274Y0299400D01*
X0403274Y0296200D02*
X0397941Y0296200D01*
X0397573Y0296568D02*
X0397573Y0312761D01*
X0398303Y0312200D02*
X0379726Y0312200D01*
X0379726Y0309000D02*
X0401503Y0309000D01*
X0400773Y0309731D02*
X0400773Y0291388D01*
X0399773Y0293000D02*
X0403274Y0293000D01*
X0403274Y0289800D02*
X0402361Y0289800D01*
X0394373Y0298000D02*
X0394373Y0312761D01*
X0391173Y0312761D02*
X0391173Y0298000D01*
X0379726Y0302600D02*
X0403274Y0302600D01*
X0403274Y0305800D02*
X0379726Y0305800D01*
X0373573Y0303060D02*
X0373573Y0261800D01*
X0378573Y0255540D02*
X0378573Y0254300D01*
X0378573Y0249300D02*
X0378573Y0248060D01*
X0378573Y0249300D02*
X0306073Y0249300D01*
X0307973Y0253300D02*
X0307973Y0255450D01*
X0311173Y0255450D02*
X0311173Y0253300D01*
X0314373Y0253300D02*
X0314373Y0255450D01*
X0317573Y0256904D02*
X0317573Y0253300D01*
X0320773Y0253300D02*
X0320773Y0257718D01*
X0320725Y0257800D02*
X0317944Y0257800D01*
X0320513Y0258413D02*
X0320513Y0261025D01*
X0328428Y0261025D01*
X0328428Y0256850D01*
X0322076Y0256850D01*
X0321618Y0256973D01*
X0321208Y0257210D01*
X0320873Y0257545D01*
X0320636Y0257956D01*
X0320513Y0258413D01*
X0320513Y0261000D02*
X0318033Y0261000D01*
X0320773Y0261025D02*
X0320773Y0262575D01*
X0323973Y0262575D02*
X0323973Y0261025D01*
X0327173Y0261025D02*
X0327173Y0262575D01*
X0328428Y0261000D02*
X0329978Y0261000D01*
X0330373Y0261025D02*
X0330373Y0262575D01*
X0329978Y0264200D02*
X0328428Y0264200D01*
X0327173Y0266750D02*
X0327173Y0271600D01*
X0325920Y0271600D02*
X0328785Y0271600D01*
X0331431Y0272696D01*
X0333456Y0274722D01*
X0334242Y0276619D01*
X0335028Y0274722D01*
X0337053Y0272696D01*
X0339700Y0271600D01*
X0336773Y0272977D02*
X0336773Y0266631D01*
X0333573Y0266750D02*
X0333573Y0275003D01*
X0332535Y0273800D02*
X0335950Y0273800D01*
X0330373Y0272258D02*
X0330373Y0266750D01*
X0333573Y0262575D02*
X0333573Y0261025D01*
X0333573Y0256850D02*
X0333573Y0253300D01*
X0330373Y0253300D02*
X0330373Y0256850D01*
X0329978Y0257800D02*
X0328428Y0257800D01*
X0327173Y0256850D02*
X0327173Y0253300D01*
X0323973Y0253300D02*
X0323973Y0256850D01*
X0323973Y0266750D02*
X0323973Y0272407D01*
X0323274Y0272696D02*
X0325920Y0271600D01*
X0323274Y0272696D02*
X0321248Y0274722D01*
X0320773Y0275870D01*
X0320622Y0273800D02*
X0322170Y0273800D01*
X0339973Y0286000D02*
X0339973Y0286040D01*
X0341325Y0286600D02*
X0345820Y0286600D01*
X0346373Y0286371D02*
X0346373Y0283741D01*
X0346714Y0283400D02*
X0349329Y0283400D01*
X0349573Y0283644D02*
X0349573Y0285943D01*
X0351325Y0286600D02*
X0355820Y0286600D01*
X0355973Y0286537D02*
X0355973Y0286000D01*
X0352773Y0285707D02*
X0352773Y0287716D01*
X0343173Y0288116D02*
X0343173Y0285748D01*
X0346373Y0273859D02*
X0346373Y0253300D01*
X0349573Y0253300D02*
X0349573Y0273956D01*
X0349729Y0273800D02*
X0346314Y0273800D01*
X0343173Y0271852D02*
X0343173Y0253300D01*
X0352773Y0253300D02*
X0352773Y0271893D01*
X0355973Y0271600D02*
X0355973Y0253300D01*
X0348573Y0241800D02*
X0338573Y0241800D01*
X0367492Y0299400D02*
X0367612Y0299400D01*
X0363573Y0310934D02*
X0363573Y0311800D01*
X0373573Y0311800D01*
X0373573Y0310540D01*
X0295573Y0302800D02*
X0295313Y0303060D01*
X0288573Y0303060D01*
X0282420Y0302600D02*
X0282420Y0306255D01*
X0282646Y0306800D01*
X0282590Y0306934D01*
X0278720Y0306934D01*
X0278648Y0306759D01*
X0277748Y0305859D01*
X0277575Y0305787D01*
X0277612Y0305723D01*
X0277735Y0305265D01*
X0277735Y0303047D01*
X0273954Y0303047D01*
X0273954Y0302600D01*
X0282420Y0302600D01*
X0273954Y0302600D01*
X0273573Y0302666D02*
X0277707Y0302666D01*
X0278573Y0301800D01*
X0279173Y0302600D02*
X0279173Y0306934D01*
X0277606Y0305800D02*
X0282420Y0305800D01*
X0282373Y0306934D02*
X0282373Y0302600D01*
X0275973Y0302600D02*
X0275973Y0303047D01*
X0273573Y0310934D02*
X0288179Y0310934D01*
X0288573Y0310540D01*
X0273573Y0310934D02*
X0273573Y0311800D01*
X0393573Y0161800D02*
X0388573Y0156800D01*
X0393573Y0091800D02*
X0388573Y0086800D01*
X0378573Y0086800D01*
X0373573Y0091800D01*
X0383573Y0081800D02*
X0378573Y0076800D01*
X0368573Y0076800D01*
X0363573Y0081800D01*
X0363573Y0071800D02*
X0368573Y0066800D01*
X0378573Y0066800D01*
X0383573Y0071800D01*
X0388573Y0056800D02*
X0393573Y0051800D01*
X0339573Y0081800D02*
X0330336Y0081800D01*
X0303573Y0021800D02*
X0303573Y0011800D01*
X0033573Y0011800D02*
X0032510Y0011800D01*
X0027340Y0032172D02*
X0025790Y0032172D01*
X0025790Y0033770D02*
X0027340Y0033770D01*
X0027340Y0035369D02*
X0025790Y0035369D01*
X0025790Y0038566D02*
X0027340Y0038566D01*
X0027340Y0040164D02*
X0025790Y0040164D01*
D11*
X0143573Y0011800D03*
X0153573Y0011800D03*
X0163573Y0011800D03*
X0173573Y0011800D03*
X0183573Y0011800D03*
X0193573Y0011800D03*
X0213573Y0011800D03*
X0223573Y0011800D03*
X0233573Y0011800D03*
X0243573Y0011800D03*
X0253573Y0011800D03*
X0263573Y0011800D03*
X0273573Y0011800D03*
X0283573Y0011800D03*
X0303573Y0011800D03*
X0313573Y0011800D03*
X0323573Y0011800D03*
X0333573Y0011800D03*
X0343573Y0011800D03*
X0353573Y0011800D03*
X0363573Y0011800D03*
X0373573Y0011800D03*
X0383573Y0031800D03*
X0393573Y0031800D03*
X0393573Y0041800D03*
X0383573Y0041800D03*
X0383573Y0051800D03*
X0393573Y0051800D03*
X0393573Y0061800D03*
X0383573Y0061800D03*
X0383573Y0071800D03*
X0393573Y0071800D03*
X0393573Y0081800D03*
X0383573Y0081800D03*
X0383573Y0091800D03*
X0393573Y0091800D03*
X0393573Y0101800D03*
X0383573Y0101800D03*
X0383573Y0111800D03*
X0393573Y0111800D03*
X0393573Y0121800D03*
X0383573Y0121800D03*
X0383573Y0131800D03*
X0393573Y0131800D03*
X0393573Y0141800D03*
X0383573Y0141800D03*
X0383573Y0151800D03*
X0393573Y0151800D03*
X0393573Y0161800D03*
X0383573Y0161800D03*
X0383573Y0171800D03*
X0393573Y0171800D03*
X0393573Y0181800D03*
X0383573Y0181800D03*
X0383573Y0191800D03*
X0393573Y0191800D03*
X0393573Y0201800D03*
X0383573Y0201800D03*
X0353573Y0201800D03*
X0343573Y0201800D03*
X0333573Y0201800D03*
X0323573Y0201800D03*
X0313573Y0201800D03*
X0303573Y0201800D03*
X0293573Y0201800D03*
X0283573Y0201800D03*
X0263573Y0201800D03*
X0253573Y0201800D03*
X0243573Y0201800D03*
X0233573Y0201800D03*
X0223573Y0201800D03*
X0213573Y0201800D03*
X0203573Y0201800D03*
X0193573Y0201800D03*
X0177573Y0201800D03*
X0167573Y0201800D03*
X0157573Y0201800D03*
X0147573Y0201800D03*
X0137573Y0201800D03*
X0127573Y0201800D03*
X0117573Y0201800D03*
X0107573Y0201800D03*
D12*
X0072707Y0271800D03*
X0064439Y0271800D03*
X0064439Y0281800D03*
X0072707Y0281800D03*
X0072707Y0291800D03*
X0064439Y0291800D03*
X0064439Y0301800D03*
X0072707Y0301800D03*
X0183573Y0302666D03*
X0183573Y0310934D03*
X0273573Y0310934D03*
X0273573Y0302666D03*
X0363573Y0302666D03*
X0363573Y0310934D03*
X0127707Y0011800D03*
X0119439Y0011800D03*
D13*
X0119833Y0019800D03*
X0127313Y0019800D03*
X0126919Y0046800D03*
X0120226Y0046800D03*
X0140226Y0046800D03*
X0146919Y0046800D03*
X0026919Y0176800D03*
X0020226Y0176800D03*
X0159833Y0231800D03*
X0167313Y0231800D03*
X0249833Y0231800D03*
X0257313Y0231800D03*
X0339833Y0231800D03*
X0347313Y0231800D03*
D14*
X0348573Y0301800D03*
X0338573Y0301800D03*
X0328573Y0301800D03*
X0318573Y0301800D03*
X0258573Y0301800D03*
X0248573Y0301800D03*
X0238573Y0301800D03*
X0228573Y0301800D03*
X0168573Y0301800D03*
X0158573Y0301800D03*
X0148573Y0301800D03*
X0138573Y0301800D03*
X0213573Y0021800D03*
X0223573Y0021800D03*
X0233573Y0021800D03*
X0243573Y0021800D03*
X0253573Y0021800D03*
X0263573Y0021800D03*
X0273573Y0021800D03*
X0283573Y0021800D03*
X0303573Y0021800D03*
X0313573Y0021800D03*
X0323573Y0021800D03*
X0333573Y0021800D03*
X0343573Y0021800D03*
X0353573Y0021800D03*
X0363573Y0021800D03*
X0373573Y0021800D03*
D15*
X0373573Y0121800D03*
X0373573Y0131800D03*
X0373573Y0141800D03*
X0368573Y0241800D03*
X0358573Y0241800D03*
X0348573Y0241800D03*
X0338573Y0241800D03*
X0328573Y0241800D03*
X0318573Y0241800D03*
X0308573Y0241800D03*
X0298573Y0241800D03*
X0278573Y0241800D03*
X0268573Y0241800D03*
X0258573Y0241800D03*
X0248573Y0241800D03*
X0238573Y0241800D03*
X0228573Y0241800D03*
X0218573Y0241800D03*
X0208573Y0241800D03*
X0188573Y0241800D03*
X0178573Y0241800D03*
X0168573Y0241800D03*
X0158573Y0241800D03*
X0148573Y0241800D03*
X0138573Y0241800D03*
X0128573Y0241800D03*
X0118573Y0241800D03*
X0118573Y0291800D03*
X0128573Y0291800D03*
X0138573Y0291800D03*
X0148573Y0291800D03*
X0158573Y0291800D03*
X0168573Y0291800D03*
X0178573Y0291800D03*
X0188573Y0291800D03*
X0208573Y0291800D03*
X0218573Y0291800D03*
X0228573Y0291800D03*
X0238573Y0291800D03*
X0248573Y0291800D03*
X0258573Y0291800D03*
X0268573Y0291800D03*
X0278573Y0291800D03*
X0298573Y0291800D03*
X0308573Y0291800D03*
X0318573Y0291800D03*
X0328573Y0291800D03*
X0338573Y0291800D03*
X0348573Y0291800D03*
X0358573Y0291800D03*
X0368573Y0291800D03*
D16*
X0108573Y0291800D03*
X0108573Y0281800D03*
X0098573Y0281800D03*
X0088573Y0281800D03*
X0088573Y0291800D03*
X0098573Y0291800D03*
D17*
X0105573Y0271146D03*
X0105573Y0264454D03*
X0193573Y0303060D03*
X0193573Y0310540D03*
X0208573Y0280146D03*
X0208573Y0273454D03*
X0198573Y0255540D03*
X0198573Y0248060D03*
X0288573Y0248060D03*
X0288573Y0255540D03*
X0298573Y0273454D03*
X0298573Y0280146D03*
X0288573Y0303060D03*
X0288573Y0310540D03*
X0373573Y0310540D03*
X0373573Y0303060D03*
X0378573Y0255540D03*
X0378573Y0248060D03*
X0058573Y0160146D03*
X0058573Y0153454D03*
X0053573Y0120146D03*
X0053573Y0113454D03*
X0043573Y0113454D03*
X0043573Y0120146D03*
D18*
X0117943Y0261800D03*
X0139203Y0261800D03*
X0232943Y0261800D03*
X0254203Y0261800D03*
X0307943Y0261800D03*
X0329203Y0261800D03*
D19*
X0055148Y0257194D03*
X0043337Y0238690D03*
X0031919Y0257194D03*
D20*
X0133573Y0278800D03*
X0223573Y0278800D03*
X0313573Y0278800D03*
D21*
X0327352Y0278800D03*
X0341132Y0278800D03*
X0354911Y0278800D03*
X0264911Y0278800D03*
X0251132Y0278800D03*
X0237352Y0278800D03*
X0174911Y0278800D03*
X0161132Y0278800D03*
X0147352Y0278800D03*
D22*
X0028573Y0238493D03*
X0028573Y0224713D03*
D23*
X0024673Y0279000D03*
X0042473Y0279000D03*
X0042473Y0304600D03*
X0024673Y0304600D03*
D24*
X0072431Y0211367D03*
X0082431Y0211367D03*
X0082431Y0201367D03*
X0072431Y0201367D03*
X0072431Y0191367D03*
X0082431Y0191367D03*
X0082431Y0181367D03*
X0072431Y0181367D03*
X0072431Y0171367D03*
X0082431Y0171367D03*
X0082431Y0161367D03*
X0072431Y0161367D03*
X0072431Y0151367D03*
X0082431Y0151367D03*
X0082431Y0141367D03*
X0072431Y0141367D03*
X0072431Y0131367D03*
X0082431Y0131367D03*
X0082431Y0121367D03*
X0072431Y0121367D03*
X0072431Y0111367D03*
X0082431Y0111367D03*
X0082431Y0101367D03*
X0072431Y0101367D03*
X0072431Y0091367D03*
X0082431Y0091367D03*
X0082431Y0081367D03*
X0072431Y0081367D03*
X0072431Y0071367D03*
X0082431Y0071367D03*
X0082431Y0061367D03*
X0072431Y0061367D03*
X0072431Y0051367D03*
X0082431Y0051367D03*
X0082431Y0041367D03*
X0072431Y0041367D03*
X0072431Y0031367D03*
X0082431Y0031367D03*
X0082431Y0021367D03*
X0072431Y0021367D03*
X0383573Y0271800D03*
X0393573Y0271800D03*
X0393573Y0281800D03*
X0383573Y0281800D03*
X0383573Y0291800D03*
X0393573Y0291800D03*
D25*
X0318573Y0233300D02*
X0318573Y0230300D01*
X0308573Y0230300D02*
X0308573Y0233300D01*
X0228573Y0233300D02*
X0228573Y0230300D01*
X0218573Y0230300D02*
X0218573Y0233300D01*
X0138573Y0233300D02*
X0138573Y0230300D01*
X0128573Y0230300D02*
X0128573Y0233300D01*
D26*
X0128573Y0233800D03*
X0128573Y0229800D03*
X0138573Y0229800D03*
X0138573Y0233800D03*
X0148573Y0233572D03*
X0148573Y0230028D03*
X0218573Y0229800D03*
X0218573Y0233800D03*
X0228573Y0233800D03*
X0228573Y0229800D03*
X0238573Y0230028D03*
X0238573Y0233572D03*
X0308573Y0233800D03*
X0308573Y0229800D03*
X0318573Y0229800D03*
X0318573Y0233800D03*
X0328573Y0233572D03*
X0328573Y0230028D03*
D27*
X0086073Y0252587D03*
X0081073Y0252587D03*
X0076073Y0252587D03*
X0071073Y0252587D03*
X0071073Y0261013D03*
X0076073Y0261013D03*
X0081073Y0261013D03*
X0086073Y0261013D03*
D28*
X0048809Y0144300D03*
X0048809Y0139300D03*
X0048809Y0134300D03*
X0048809Y0129300D03*
X0028337Y0129300D03*
X0028337Y0134300D03*
X0028337Y0139300D03*
X0028337Y0144300D03*
D29*
X0038573Y0136800D03*
D30*
X0058573Y0135737D03*
X0058573Y0127863D03*
X0027573Y0100737D03*
X0027573Y0092863D03*
D31*
X0024636Y0011800D03*
X0032510Y0011800D03*
X0049636Y0176800D03*
X0057510Y0176800D03*
X0057510Y0221800D03*
X0049636Y0221800D03*
D32*
X0051093Y0199438D03*
X0027077Y0199438D03*
X0026565Y0036800D03*
X0050581Y0036800D03*
D33*
X0051762Y0072312D03*
X0026565Y0072312D03*
D34*
X0043573Y0014500D02*
X0043573Y0009100D01*
X0053573Y0009100D02*
X0053573Y0014500D01*
D35*
X0197057Y0036623D03*
X0197057Y0039182D03*
X0197057Y0041741D03*
X0197057Y0044123D03*
X0197057Y0046682D03*
X0197057Y0049241D03*
X0197057Y0051800D03*
X0197057Y0054359D03*
X0197057Y0056918D03*
X0197057Y0059477D03*
X0220089Y0059477D03*
X0220089Y0056918D03*
X0220089Y0054359D03*
X0220089Y0051800D03*
X0220089Y0049241D03*
X0220089Y0046682D03*
X0220089Y0044123D03*
X0220089Y0041741D03*
X0220089Y0039182D03*
X0220089Y0036623D03*
X0302057Y0054123D03*
X0302057Y0056682D03*
X0302057Y0059241D03*
X0302057Y0061800D03*
X0302057Y0064359D03*
X0302057Y0066918D03*
X0302057Y0069477D03*
X0302057Y0071859D03*
X0302057Y0074418D03*
X0302057Y0076977D03*
X0302057Y0094123D03*
X0302057Y0096682D03*
X0302057Y0099241D03*
X0302057Y0101800D03*
X0302057Y0104359D03*
X0302057Y0106918D03*
X0302057Y0109477D03*
X0302057Y0111859D03*
X0302057Y0114418D03*
X0302057Y0116977D03*
X0325089Y0116977D03*
X0325089Y0114418D03*
X0325089Y0111859D03*
X0325089Y0109477D03*
X0325089Y0106918D03*
X0325089Y0104359D03*
X0325089Y0101800D03*
X0325089Y0099241D03*
X0325089Y0096682D03*
X0325089Y0094123D03*
X0325089Y0076977D03*
X0325089Y0074418D03*
X0325089Y0071859D03*
X0325089Y0069477D03*
X0325089Y0066918D03*
X0325089Y0064359D03*
X0325089Y0061800D03*
X0325089Y0059241D03*
X0325089Y0056682D03*
X0325089Y0054123D03*
X0220089Y0164123D03*
X0220089Y0166682D03*
X0220089Y0169241D03*
X0220089Y0171800D03*
X0220089Y0174359D03*
X0220089Y0176918D03*
X0220089Y0179477D03*
X0220089Y0181859D03*
X0220089Y0184418D03*
X0220089Y0186977D03*
X0197057Y0186977D03*
X0197057Y0184418D03*
X0197057Y0181859D03*
X0197057Y0179477D03*
X0197057Y0176918D03*
X0197057Y0174359D03*
X0197057Y0171800D03*
X0197057Y0169241D03*
X0197057Y0166682D03*
X0197057Y0164123D03*
D36*
X0131644Y0031800D03*
X0115502Y0031800D03*
D37*
X0343573Y0211800D03*
X0353573Y0211800D03*
X0363573Y0131800D03*
X0363573Y0121800D03*
X0363573Y0091800D03*
X0373573Y0091800D03*
X0373573Y0081800D03*
X0373573Y0071800D03*
X0373573Y0061800D03*
X0363573Y0061800D03*
X0363573Y0071800D03*
X0363573Y0081800D03*
D38*
X0360673Y0081800D02*
X0360675Y0081907D01*
X0360681Y0082014D01*
X0360691Y0082121D01*
X0360705Y0082227D01*
X0360722Y0082333D01*
X0360744Y0082438D01*
X0360770Y0082542D01*
X0360799Y0082645D01*
X0360832Y0082747D01*
X0360869Y0082848D01*
X0360909Y0082947D01*
X0360954Y0083044D01*
X0361001Y0083140D01*
X0361053Y0083235D01*
X0361107Y0083327D01*
X0361165Y0083417D01*
X0361227Y0083505D01*
X0361291Y0083590D01*
X0361359Y0083673D01*
X0361430Y0083754D01*
X0361504Y0083832D01*
X0361580Y0083907D01*
X0361659Y0083979D01*
X0361741Y0084048D01*
X0361825Y0084114D01*
X0361912Y0084177D01*
X0362001Y0084237D01*
X0362092Y0084293D01*
X0362185Y0084346D01*
X0362280Y0084396D01*
X0362377Y0084442D01*
X0362476Y0084484D01*
X0362576Y0084523D01*
X0362677Y0084558D01*
X0362779Y0084589D01*
X0362883Y0084617D01*
X0362988Y0084640D01*
X0363093Y0084660D01*
X0363199Y0084676D01*
X0363305Y0084688D01*
X0363412Y0084696D01*
X0363519Y0084700D01*
X0363627Y0084700D01*
X0363734Y0084696D01*
X0363841Y0084688D01*
X0363947Y0084676D01*
X0364053Y0084660D01*
X0364158Y0084640D01*
X0364263Y0084617D01*
X0364367Y0084589D01*
X0364469Y0084558D01*
X0364570Y0084523D01*
X0364670Y0084484D01*
X0364769Y0084442D01*
X0364866Y0084396D01*
X0364961Y0084346D01*
X0365054Y0084293D01*
X0365145Y0084237D01*
X0365234Y0084177D01*
X0365321Y0084114D01*
X0365405Y0084048D01*
X0365487Y0083979D01*
X0365566Y0083907D01*
X0365642Y0083832D01*
X0365716Y0083754D01*
X0365787Y0083673D01*
X0365855Y0083590D01*
X0365919Y0083505D01*
X0365981Y0083417D01*
X0366039Y0083327D01*
X0366093Y0083235D01*
X0366145Y0083140D01*
X0366192Y0083044D01*
X0366237Y0082947D01*
X0366277Y0082848D01*
X0366314Y0082747D01*
X0366347Y0082645D01*
X0366376Y0082542D01*
X0366402Y0082438D01*
X0366424Y0082333D01*
X0366441Y0082227D01*
X0366455Y0082121D01*
X0366465Y0082014D01*
X0366471Y0081907D01*
X0366473Y0081800D01*
X0366471Y0081693D01*
X0366465Y0081586D01*
X0366455Y0081479D01*
X0366441Y0081373D01*
X0366424Y0081267D01*
X0366402Y0081162D01*
X0366376Y0081058D01*
X0366347Y0080955D01*
X0366314Y0080853D01*
X0366277Y0080752D01*
X0366237Y0080653D01*
X0366192Y0080556D01*
X0366145Y0080460D01*
X0366093Y0080365D01*
X0366039Y0080273D01*
X0365981Y0080183D01*
X0365919Y0080095D01*
X0365855Y0080010D01*
X0365787Y0079927D01*
X0365716Y0079846D01*
X0365642Y0079768D01*
X0365566Y0079693D01*
X0365487Y0079621D01*
X0365405Y0079552D01*
X0365321Y0079486D01*
X0365234Y0079423D01*
X0365145Y0079363D01*
X0365054Y0079307D01*
X0364961Y0079254D01*
X0364866Y0079204D01*
X0364769Y0079158D01*
X0364670Y0079116D01*
X0364570Y0079077D01*
X0364469Y0079042D01*
X0364367Y0079011D01*
X0364263Y0078983D01*
X0364158Y0078960D01*
X0364053Y0078940D01*
X0363947Y0078924D01*
X0363841Y0078912D01*
X0363734Y0078904D01*
X0363627Y0078900D01*
X0363519Y0078900D01*
X0363412Y0078904D01*
X0363305Y0078912D01*
X0363199Y0078924D01*
X0363093Y0078940D01*
X0362988Y0078960D01*
X0362883Y0078983D01*
X0362779Y0079011D01*
X0362677Y0079042D01*
X0362576Y0079077D01*
X0362476Y0079116D01*
X0362377Y0079158D01*
X0362280Y0079204D01*
X0362185Y0079254D01*
X0362092Y0079307D01*
X0362001Y0079363D01*
X0361912Y0079423D01*
X0361825Y0079486D01*
X0361741Y0079552D01*
X0361659Y0079621D01*
X0361580Y0079693D01*
X0361504Y0079768D01*
X0361430Y0079846D01*
X0361359Y0079927D01*
X0361291Y0080010D01*
X0361227Y0080095D01*
X0361165Y0080183D01*
X0361107Y0080273D01*
X0361053Y0080365D01*
X0361001Y0080460D01*
X0360954Y0080556D01*
X0360909Y0080653D01*
X0360869Y0080752D01*
X0360832Y0080853D01*
X0360799Y0080955D01*
X0360770Y0081058D01*
X0360744Y0081162D01*
X0360722Y0081267D01*
X0360705Y0081373D01*
X0360691Y0081479D01*
X0360681Y0081586D01*
X0360675Y0081693D01*
X0360673Y0081800D01*
X0360673Y0071800D02*
X0360675Y0071907D01*
X0360681Y0072014D01*
X0360691Y0072121D01*
X0360705Y0072227D01*
X0360722Y0072333D01*
X0360744Y0072438D01*
X0360770Y0072542D01*
X0360799Y0072645D01*
X0360832Y0072747D01*
X0360869Y0072848D01*
X0360909Y0072947D01*
X0360954Y0073044D01*
X0361001Y0073140D01*
X0361053Y0073235D01*
X0361107Y0073327D01*
X0361165Y0073417D01*
X0361227Y0073505D01*
X0361291Y0073590D01*
X0361359Y0073673D01*
X0361430Y0073754D01*
X0361504Y0073832D01*
X0361580Y0073907D01*
X0361659Y0073979D01*
X0361741Y0074048D01*
X0361825Y0074114D01*
X0361912Y0074177D01*
X0362001Y0074237D01*
X0362092Y0074293D01*
X0362185Y0074346D01*
X0362280Y0074396D01*
X0362377Y0074442D01*
X0362476Y0074484D01*
X0362576Y0074523D01*
X0362677Y0074558D01*
X0362779Y0074589D01*
X0362883Y0074617D01*
X0362988Y0074640D01*
X0363093Y0074660D01*
X0363199Y0074676D01*
X0363305Y0074688D01*
X0363412Y0074696D01*
X0363519Y0074700D01*
X0363627Y0074700D01*
X0363734Y0074696D01*
X0363841Y0074688D01*
X0363947Y0074676D01*
X0364053Y0074660D01*
X0364158Y0074640D01*
X0364263Y0074617D01*
X0364367Y0074589D01*
X0364469Y0074558D01*
X0364570Y0074523D01*
X0364670Y0074484D01*
X0364769Y0074442D01*
X0364866Y0074396D01*
X0364961Y0074346D01*
X0365054Y0074293D01*
X0365145Y0074237D01*
X0365234Y0074177D01*
X0365321Y0074114D01*
X0365405Y0074048D01*
X0365487Y0073979D01*
X0365566Y0073907D01*
X0365642Y0073832D01*
X0365716Y0073754D01*
X0365787Y0073673D01*
X0365855Y0073590D01*
X0365919Y0073505D01*
X0365981Y0073417D01*
X0366039Y0073327D01*
X0366093Y0073235D01*
X0366145Y0073140D01*
X0366192Y0073044D01*
X0366237Y0072947D01*
X0366277Y0072848D01*
X0366314Y0072747D01*
X0366347Y0072645D01*
X0366376Y0072542D01*
X0366402Y0072438D01*
X0366424Y0072333D01*
X0366441Y0072227D01*
X0366455Y0072121D01*
X0366465Y0072014D01*
X0366471Y0071907D01*
X0366473Y0071800D01*
X0366471Y0071693D01*
X0366465Y0071586D01*
X0366455Y0071479D01*
X0366441Y0071373D01*
X0366424Y0071267D01*
X0366402Y0071162D01*
X0366376Y0071058D01*
X0366347Y0070955D01*
X0366314Y0070853D01*
X0366277Y0070752D01*
X0366237Y0070653D01*
X0366192Y0070556D01*
X0366145Y0070460D01*
X0366093Y0070365D01*
X0366039Y0070273D01*
X0365981Y0070183D01*
X0365919Y0070095D01*
X0365855Y0070010D01*
X0365787Y0069927D01*
X0365716Y0069846D01*
X0365642Y0069768D01*
X0365566Y0069693D01*
X0365487Y0069621D01*
X0365405Y0069552D01*
X0365321Y0069486D01*
X0365234Y0069423D01*
X0365145Y0069363D01*
X0365054Y0069307D01*
X0364961Y0069254D01*
X0364866Y0069204D01*
X0364769Y0069158D01*
X0364670Y0069116D01*
X0364570Y0069077D01*
X0364469Y0069042D01*
X0364367Y0069011D01*
X0364263Y0068983D01*
X0364158Y0068960D01*
X0364053Y0068940D01*
X0363947Y0068924D01*
X0363841Y0068912D01*
X0363734Y0068904D01*
X0363627Y0068900D01*
X0363519Y0068900D01*
X0363412Y0068904D01*
X0363305Y0068912D01*
X0363199Y0068924D01*
X0363093Y0068940D01*
X0362988Y0068960D01*
X0362883Y0068983D01*
X0362779Y0069011D01*
X0362677Y0069042D01*
X0362576Y0069077D01*
X0362476Y0069116D01*
X0362377Y0069158D01*
X0362280Y0069204D01*
X0362185Y0069254D01*
X0362092Y0069307D01*
X0362001Y0069363D01*
X0361912Y0069423D01*
X0361825Y0069486D01*
X0361741Y0069552D01*
X0361659Y0069621D01*
X0361580Y0069693D01*
X0361504Y0069768D01*
X0361430Y0069846D01*
X0361359Y0069927D01*
X0361291Y0070010D01*
X0361227Y0070095D01*
X0361165Y0070183D01*
X0361107Y0070273D01*
X0361053Y0070365D01*
X0361001Y0070460D01*
X0360954Y0070556D01*
X0360909Y0070653D01*
X0360869Y0070752D01*
X0360832Y0070853D01*
X0360799Y0070955D01*
X0360770Y0071058D01*
X0360744Y0071162D01*
X0360722Y0071267D01*
X0360705Y0071373D01*
X0360691Y0071479D01*
X0360681Y0071586D01*
X0360675Y0071693D01*
X0360673Y0071800D01*
X0360673Y0061800D02*
X0360675Y0061907D01*
X0360681Y0062014D01*
X0360691Y0062121D01*
X0360705Y0062227D01*
X0360722Y0062333D01*
X0360744Y0062438D01*
X0360770Y0062542D01*
X0360799Y0062645D01*
X0360832Y0062747D01*
X0360869Y0062848D01*
X0360909Y0062947D01*
X0360954Y0063044D01*
X0361001Y0063140D01*
X0361053Y0063235D01*
X0361107Y0063327D01*
X0361165Y0063417D01*
X0361227Y0063505D01*
X0361291Y0063590D01*
X0361359Y0063673D01*
X0361430Y0063754D01*
X0361504Y0063832D01*
X0361580Y0063907D01*
X0361659Y0063979D01*
X0361741Y0064048D01*
X0361825Y0064114D01*
X0361912Y0064177D01*
X0362001Y0064237D01*
X0362092Y0064293D01*
X0362185Y0064346D01*
X0362280Y0064396D01*
X0362377Y0064442D01*
X0362476Y0064484D01*
X0362576Y0064523D01*
X0362677Y0064558D01*
X0362779Y0064589D01*
X0362883Y0064617D01*
X0362988Y0064640D01*
X0363093Y0064660D01*
X0363199Y0064676D01*
X0363305Y0064688D01*
X0363412Y0064696D01*
X0363519Y0064700D01*
X0363627Y0064700D01*
X0363734Y0064696D01*
X0363841Y0064688D01*
X0363947Y0064676D01*
X0364053Y0064660D01*
X0364158Y0064640D01*
X0364263Y0064617D01*
X0364367Y0064589D01*
X0364469Y0064558D01*
X0364570Y0064523D01*
X0364670Y0064484D01*
X0364769Y0064442D01*
X0364866Y0064396D01*
X0364961Y0064346D01*
X0365054Y0064293D01*
X0365145Y0064237D01*
X0365234Y0064177D01*
X0365321Y0064114D01*
X0365405Y0064048D01*
X0365487Y0063979D01*
X0365566Y0063907D01*
X0365642Y0063832D01*
X0365716Y0063754D01*
X0365787Y0063673D01*
X0365855Y0063590D01*
X0365919Y0063505D01*
X0365981Y0063417D01*
X0366039Y0063327D01*
X0366093Y0063235D01*
X0366145Y0063140D01*
X0366192Y0063044D01*
X0366237Y0062947D01*
X0366277Y0062848D01*
X0366314Y0062747D01*
X0366347Y0062645D01*
X0366376Y0062542D01*
X0366402Y0062438D01*
X0366424Y0062333D01*
X0366441Y0062227D01*
X0366455Y0062121D01*
X0366465Y0062014D01*
X0366471Y0061907D01*
X0366473Y0061800D01*
X0366471Y0061693D01*
X0366465Y0061586D01*
X0366455Y0061479D01*
X0366441Y0061373D01*
X0366424Y0061267D01*
X0366402Y0061162D01*
X0366376Y0061058D01*
X0366347Y0060955D01*
X0366314Y0060853D01*
X0366277Y0060752D01*
X0366237Y0060653D01*
X0366192Y0060556D01*
X0366145Y0060460D01*
X0366093Y0060365D01*
X0366039Y0060273D01*
X0365981Y0060183D01*
X0365919Y0060095D01*
X0365855Y0060010D01*
X0365787Y0059927D01*
X0365716Y0059846D01*
X0365642Y0059768D01*
X0365566Y0059693D01*
X0365487Y0059621D01*
X0365405Y0059552D01*
X0365321Y0059486D01*
X0365234Y0059423D01*
X0365145Y0059363D01*
X0365054Y0059307D01*
X0364961Y0059254D01*
X0364866Y0059204D01*
X0364769Y0059158D01*
X0364670Y0059116D01*
X0364570Y0059077D01*
X0364469Y0059042D01*
X0364367Y0059011D01*
X0364263Y0058983D01*
X0364158Y0058960D01*
X0364053Y0058940D01*
X0363947Y0058924D01*
X0363841Y0058912D01*
X0363734Y0058904D01*
X0363627Y0058900D01*
X0363519Y0058900D01*
X0363412Y0058904D01*
X0363305Y0058912D01*
X0363199Y0058924D01*
X0363093Y0058940D01*
X0362988Y0058960D01*
X0362883Y0058983D01*
X0362779Y0059011D01*
X0362677Y0059042D01*
X0362576Y0059077D01*
X0362476Y0059116D01*
X0362377Y0059158D01*
X0362280Y0059204D01*
X0362185Y0059254D01*
X0362092Y0059307D01*
X0362001Y0059363D01*
X0361912Y0059423D01*
X0361825Y0059486D01*
X0361741Y0059552D01*
X0361659Y0059621D01*
X0361580Y0059693D01*
X0361504Y0059768D01*
X0361430Y0059846D01*
X0361359Y0059927D01*
X0361291Y0060010D01*
X0361227Y0060095D01*
X0361165Y0060183D01*
X0361107Y0060273D01*
X0361053Y0060365D01*
X0361001Y0060460D01*
X0360954Y0060556D01*
X0360909Y0060653D01*
X0360869Y0060752D01*
X0360832Y0060853D01*
X0360799Y0060955D01*
X0360770Y0061058D01*
X0360744Y0061162D01*
X0360722Y0061267D01*
X0360705Y0061373D01*
X0360691Y0061479D01*
X0360681Y0061586D01*
X0360675Y0061693D01*
X0360673Y0061800D01*
X0370673Y0061800D02*
X0370675Y0061907D01*
X0370681Y0062014D01*
X0370691Y0062121D01*
X0370705Y0062227D01*
X0370722Y0062333D01*
X0370744Y0062438D01*
X0370770Y0062542D01*
X0370799Y0062645D01*
X0370832Y0062747D01*
X0370869Y0062848D01*
X0370909Y0062947D01*
X0370954Y0063044D01*
X0371001Y0063140D01*
X0371053Y0063235D01*
X0371107Y0063327D01*
X0371165Y0063417D01*
X0371227Y0063505D01*
X0371291Y0063590D01*
X0371359Y0063673D01*
X0371430Y0063754D01*
X0371504Y0063832D01*
X0371580Y0063907D01*
X0371659Y0063979D01*
X0371741Y0064048D01*
X0371825Y0064114D01*
X0371912Y0064177D01*
X0372001Y0064237D01*
X0372092Y0064293D01*
X0372185Y0064346D01*
X0372280Y0064396D01*
X0372377Y0064442D01*
X0372476Y0064484D01*
X0372576Y0064523D01*
X0372677Y0064558D01*
X0372779Y0064589D01*
X0372883Y0064617D01*
X0372988Y0064640D01*
X0373093Y0064660D01*
X0373199Y0064676D01*
X0373305Y0064688D01*
X0373412Y0064696D01*
X0373519Y0064700D01*
X0373627Y0064700D01*
X0373734Y0064696D01*
X0373841Y0064688D01*
X0373947Y0064676D01*
X0374053Y0064660D01*
X0374158Y0064640D01*
X0374263Y0064617D01*
X0374367Y0064589D01*
X0374469Y0064558D01*
X0374570Y0064523D01*
X0374670Y0064484D01*
X0374769Y0064442D01*
X0374866Y0064396D01*
X0374961Y0064346D01*
X0375054Y0064293D01*
X0375145Y0064237D01*
X0375234Y0064177D01*
X0375321Y0064114D01*
X0375405Y0064048D01*
X0375487Y0063979D01*
X0375566Y0063907D01*
X0375642Y0063832D01*
X0375716Y0063754D01*
X0375787Y0063673D01*
X0375855Y0063590D01*
X0375919Y0063505D01*
X0375981Y0063417D01*
X0376039Y0063327D01*
X0376093Y0063235D01*
X0376145Y0063140D01*
X0376192Y0063044D01*
X0376237Y0062947D01*
X0376277Y0062848D01*
X0376314Y0062747D01*
X0376347Y0062645D01*
X0376376Y0062542D01*
X0376402Y0062438D01*
X0376424Y0062333D01*
X0376441Y0062227D01*
X0376455Y0062121D01*
X0376465Y0062014D01*
X0376471Y0061907D01*
X0376473Y0061800D01*
X0376471Y0061693D01*
X0376465Y0061586D01*
X0376455Y0061479D01*
X0376441Y0061373D01*
X0376424Y0061267D01*
X0376402Y0061162D01*
X0376376Y0061058D01*
X0376347Y0060955D01*
X0376314Y0060853D01*
X0376277Y0060752D01*
X0376237Y0060653D01*
X0376192Y0060556D01*
X0376145Y0060460D01*
X0376093Y0060365D01*
X0376039Y0060273D01*
X0375981Y0060183D01*
X0375919Y0060095D01*
X0375855Y0060010D01*
X0375787Y0059927D01*
X0375716Y0059846D01*
X0375642Y0059768D01*
X0375566Y0059693D01*
X0375487Y0059621D01*
X0375405Y0059552D01*
X0375321Y0059486D01*
X0375234Y0059423D01*
X0375145Y0059363D01*
X0375054Y0059307D01*
X0374961Y0059254D01*
X0374866Y0059204D01*
X0374769Y0059158D01*
X0374670Y0059116D01*
X0374570Y0059077D01*
X0374469Y0059042D01*
X0374367Y0059011D01*
X0374263Y0058983D01*
X0374158Y0058960D01*
X0374053Y0058940D01*
X0373947Y0058924D01*
X0373841Y0058912D01*
X0373734Y0058904D01*
X0373627Y0058900D01*
X0373519Y0058900D01*
X0373412Y0058904D01*
X0373305Y0058912D01*
X0373199Y0058924D01*
X0373093Y0058940D01*
X0372988Y0058960D01*
X0372883Y0058983D01*
X0372779Y0059011D01*
X0372677Y0059042D01*
X0372576Y0059077D01*
X0372476Y0059116D01*
X0372377Y0059158D01*
X0372280Y0059204D01*
X0372185Y0059254D01*
X0372092Y0059307D01*
X0372001Y0059363D01*
X0371912Y0059423D01*
X0371825Y0059486D01*
X0371741Y0059552D01*
X0371659Y0059621D01*
X0371580Y0059693D01*
X0371504Y0059768D01*
X0371430Y0059846D01*
X0371359Y0059927D01*
X0371291Y0060010D01*
X0371227Y0060095D01*
X0371165Y0060183D01*
X0371107Y0060273D01*
X0371053Y0060365D01*
X0371001Y0060460D01*
X0370954Y0060556D01*
X0370909Y0060653D01*
X0370869Y0060752D01*
X0370832Y0060853D01*
X0370799Y0060955D01*
X0370770Y0061058D01*
X0370744Y0061162D01*
X0370722Y0061267D01*
X0370705Y0061373D01*
X0370691Y0061479D01*
X0370681Y0061586D01*
X0370675Y0061693D01*
X0370673Y0061800D01*
X0370673Y0071800D02*
X0370675Y0071907D01*
X0370681Y0072014D01*
X0370691Y0072121D01*
X0370705Y0072227D01*
X0370722Y0072333D01*
X0370744Y0072438D01*
X0370770Y0072542D01*
X0370799Y0072645D01*
X0370832Y0072747D01*
X0370869Y0072848D01*
X0370909Y0072947D01*
X0370954Y0073044D01*
X0371001Y0073140D01*
X0371053Y0073235D01*
X0371107Y0073327D01*
X0371165Y0073417D01*
X0371227Y0073505D01*
X0371291Y0073590D01*
X0371359Y0073673D01*
X0371430Y0073754D01*
X0371504Y0073832D01*
X0371580Y0073907D01*
X0371659Y0073979D01*
X0371741Y0074048D01*
X0371825Y0074114D01*
X0371912Y0074177D01*
X0372001Y0074237D01*
X0372092Y0074293D01*
X0372185Y0074346D01*
X0372280Y0074396D01*
X0372377Y0074442D01*
X0372476Y0074484D01*
X0372576Y0074523D01*
X0372677Y0074558D01*
X0372779Y0074589D01*
X0372883Y0074617D01*
X0372988Y0074640D01*
X0373093Y0074660D01*
X0373199Y0074676D01*
X0373305Y0074688D01*
X0373412Y0074696D01*
X0373519Y0074700D01*
X0373627Y0074700D01*
X0373734Y0074696D01*
X0373841Y0074688D01*
X0373947Y0074676D01*
X0374053Y0074660D01*
X0374158Y0074640D01*
X0374263Y0074617D01*
X0374367Y0074589D01*
X0374469Y0074558D01*
X0374570Y0074523D01*
X0374670Y0074484D01*
X0374769Y0074442D01*
X0374866Y0074396D01*
X0374961Y0074346D01*
X0375054Y0074293D01*
X0375145Y0074237D01*
X0375234Y0074177D01*
X0375321Y0074114D01*
X0375405Y0074048D01*
X0375487Y0073979D01*
X0375566Y0073907D01*
X0375642Y0073832D01*
X0375716Y0073754D01*
X0375787Y0073673D01*
X0375855Y0073590D01*
X0375919Y0073505D01*
X0375981Y0073417D01*
X0376039Y0073327D01*
X0376093Y0073235D01*
X0376145Y0073140D01*
X0376192Y0073044D01*
X0376237Y0072947D01*
X0376277Y0072848D01*
X0376314Y0072747D01*
X0376347Y0072645D01*
X0376376Y0072542D01*
X0376402Y0072438D01*
X0376424Y0072333D01*
X0376441Y0072227D01*
X0376455Y0072121D01*
X0376465Y0072014D01*
X0376471Y0071907D01*
X0376473Y0071800D01*
X0376471Y0071693D01*
X0376465Y0071586D01*
X0376455Y0071479D01*
X0376441Y0071373D01*
X0376424Y0071267D01*
X0376402Y0071162D01*
X0376376Y0071058D01*
X0376347Y0070955D01*
X0376314Y0070853D01*
X0376277Y0070752D01*
X0376237Y0070653D01*
X0376192Y0070556D01*
X0376145Y0070460D01*
X0376093Y0070365D01*
X0376039Y0070273D01*
X0375981Y0070183D01*
X0375919Y0070095D01*
X0375855Y0070010D01*
X0375787Y0069927D01*
X0375716Y0069846D01*
X0375642Y0069768D01*
X0375566Y0069693D01*
X0375487Y0069621D01*
X0375405Y0069552D01*
X0375321Y0069486D01*
X0375234Y0069423D01*
X0375145Y0069363D01*
X0375054Y0069307D01*
X0374961Y0069254D01*
X0374866Y0069204D01*
X0374769Y0069158D01*
X0374670Y0069116D01*
X0374570Y0069077D01*
X0374469Y0069042D01*
X0374367Y0069011D01*
X0374263Y0068983D01*
X0374158Y0068960D01*
X0374053Y0068940D01*
X0373947Y0068924D01*
X0373841Y0068912D01*
X0373734Y0068904D01*
X0373627Y0068900D01*
X0373519Y0068900D01*
X0373412Y0068904D01*
X0373305Y0068912D01*
X0373199Y0068924D01*
X0373093Y0068940D01*
X0372988Y0068960D01*
X0372883Y0068983D01*
X0372779Y0069011D01*
X0372677Y0069042D01*
X0372576Y0069077D01*
X0372476Y0069116D01*
X0372377Y0069158D01*
X0372280Y0069204D01*
X0372185Y0069254D01*
X0372092Y0069307D01*
X0372001Y0069363D01*
X0371912Y0069423D01*
X0371825Y0069486D01*
X0371741Y0069552D01*
X0371659Y0069621D01*
X0371580Y0069693D01*
X0371504Y0069768D01*
X0371430Y0069846D01*
X0371359Y0069927D01*
X0371291Y0070010D01*
X0371227Y0070095D01*
X0371165Y0070183D01*
X0371107Y0070273D01*
X0371053Y0070365D01*
X0371001Y0070460D01*
X0370954Y0070556D01*
X0370909Y0070653D01*
X0370869Y0070752D01*
X0370832Y0070853D01*
X0370799Y0070955D01*
X0370770Y0071058D01*
X0370744Y0071162D01*
X0370722Y0071267D01*
X0370705Y0071373D01*
X0370691Y0071479D01*
X0370681Y0071586D01*
X0370675Y0071693D01*
X0370673Y0071800D01*
X0370673Y0081800D02*
X0370675Y0081907D01*
X0370681Y0082014D01*
X0370691Y0082121D01*
X0370705Y0082227D01*
X0370722Y0082333D01*
X0370744Y0082438D01*
X0370770Y0082542D01*
X0370799Y0082645D01*
X0370832Y0082747D01*
X0370869Y0082848D01*
X0370909Y0082947D01*
X0370954Y0083044D01*
X0371001Y0083140D01*
X0371053Y0083235D01*
X0371107Y0083327D01*
X0371165Y0083417D01*
X0371227Y0083505D01*
X0371291Y0083590D01*
X0371359Y0083673D01*
X0371430Y0083754D01*
X0371504Y0083832D01*
X0371580Y0083907D01*
X0371659Y0083979D01*
X0371741Y0084048D01*
X0371825Y0084114D01*
X0371912Y0084177D01*
X0372001Y0084237D01*
X0372092Y0084293D01*
X0372185Y0084346D01*
X0372280Y0084396D01*
X0372377Y0084442D01*
X0372476Y0084484D01*
X0372576Y0084523D01*
X0372677Y0084558D01*
X0372779Y0084589D01*
X0372883Y0084617D01*
X0372988Y0084640D01*
X0373093Y0084660D01*
X0373199Y0084676D01*
X0373305Y0084688D01*
X0373412Y0084696D01*
X0373519Y0084700D01*
X0373627Y0084700D01*
X0373734Y0084696D01*
X0373841Y0084688D01*
X0373947Y0084676D01*
X0374053Y0084660D01*
X0374158Y0084640D01*
X0374263Y0084617D01*
X0374367Y0084589D01*
X0374469Y0084558D01*
X0374570Y0084523D01*
X0374670Y0084484D01*
X0374769Y0084442D01*
X0374866Y0084396D01*
X0374961Y0084346D01*
X0375054Y0084293D01*
X0375145Y0084237D01*
X0375234Y0084177D01*
X0375321Y0084114D01*
X0375405Y0084048D01*
X0375487Y0083979D01*
X0375566Y0083907D01*
X0375642Y0083832D01*
X0375716Y0083754D01*
X0375787Y0083673D01*
X0375855Y0083590D01*
X0375919Y0083505D01*
X0375981Y0083417D01*
X0376039Y0083327D01*
X0376093Y0083235D01*
X0376145Y0083140D01*
X0376192Y0083044D01*
X0376237Y0082947D01*
X0376277Y0082848D01*
X0376314Y0082747D01*
X0376347Y0082645D01*
X0376376Y0082542D01*
X0376402Y0082438D01*
X0376424Y0082333D01*
X0376441Y0082227D01*
X0376455Y0082121D01*
X0376465Y0082014D01*
X0376471Y0081907D01*
X0376473Y0081800D01*
X0376471Y0081693D01*
X0376465Y0081586D01*
X0376455Y0081479D01*
X0376441Y0081373D01*
X0376424Y0081267D01*
X0376402Y0081162D01*
X0376376Y0081058D01*
X0376347Y0080955D01*
X0376314Y0080853D01*
X0376277Y0080752D01*
X0376237Y0080653D01*
X0376192Y0080556D01*
X0376145Y0080460D01*
X0376093Y0080365D01*
X0376039Y0080273D01*
X0375981Y0080183D01*
X0375919Y0080095D01*
X0375855Y0080010D01*
X0375787Y0079927D01*
X0375716Y0079846D01*
X0375642Y0079768D01*
X0375566Y0079693D01*
X0375487Y0079621D01*
X0375405Y0079552D01*
X0375321Y0079486D01*
X0375234Y0079423D01*
X0375145Y0079363D01*
X0375054Y0079307D01*
X0374961Y0079254D01*
X0374866Y0079204D01*
X0374769Y0079158D01*
X0374670Y0079116D01*
X0374570Y0079077D01*
X0374469Y0079042D01*
X0374367Y0079011D01*
X0374263Y0078983D01*
X0374158Y0078960D01*
X0374053Y0078940D01*
X0373947Y0078924D01*
X0373841Y0078912D01*
X0373734Y0078904D01*
X0373627Y0078900D01*
X0373519Y0078900D01*
X0373412Y0078904D01*
X0373305Y0078912D01*
X0373199Y0078924D01*
X0373093Y0078940D01*
X0372988Y0078960D01*
X0372883Y0078983D01*
X0372779Y0079011D01*
X0372677Y0079042D01*
X0372576Y0079077D01*
X0372476Y0079116D01*
X0372377Y0079158D01*
X0372280Y0079204D01*
X0372185Y0079254D01*
X0372092Y0079307D01*
X0372001Y0079363D01*
X0371912Y0079423D01*
X0371825Y0079486D01*
X0371741Y0079552D01*
X0371659Y0079621D01*
X0371580Y0079693D01*
X0371504Y0079768D01*
X0371430Y0079846D01*
X0371359Y0079927D01*
X0371291Y0080010D01*
X0371227Y0080095D01*
X0371165Y0080183D01*
X0371107Y0080273D01*
X0371053Y0080365D01*
X0371001Y0080460D01*
X0370954Y0080556D01*
X0370909Y0080653D01*
X0370869Y0080752D01*
X0370832Y0080853D01*
X0370799Y0080955D01*
X0370770Y0081058D01*
X0370744Y0081162D01*
X0370722Y0081267D01*
X0370705Y0081373D01*
X0370691Y0081479D01*
X0370681Y0081586D01*
X0370675Y0081693D01*
X0370673Y0081800D01*
X0370673Y0091800D02*
X0370675Y0091907D01*
X0370681Y0092014D01*
X0370691Y0092121D01*
X0370705Y0092227D01*
X0370722Y0092333D01*
X0370744Y0092438D01*
X0370770Y0092542D01*
X0370799Y0092645D01*
X0370832Y0092747D01*
X0370869Y0092848D01*
X0370909Y0092947D01*
X0370954Y0093044D01*
X0371001Y0093140D01*
X0371053Y0093235D01*
X0371107Y0093327D01*
X0371165Y0093417D01*
X0371227Y0093505D01*
X0371291Y0093590D01*
X0371359Y0093673D01*
X0371430Y0093754D01*
X0371504Y0093832D01*
X0371580Y0093907D01*
X0371659Y0093979D01*
X0371741Y0094048D01*
X0371825Y0094114D01*
X0371912Y0094177D01*
X0372001Y0094237D01*
X0372092Y0094293D01*
X0372185Y0094346D01*
X0372280Y0094396D01*
X0372377Y0094442D01*
X0372476Y0094484D01*
X0372576Y0094523D01*
X0372677Y0094558D01*
X0372779Y0094589D01*
X0372883Y0094617D01*
X0372988Y0094640D01*
X0373093Y0094660D01*
X0373199Y0094676D01*
X0373305Y0094688D01*
X0373412Y0094696D01*
X0373519Y0094700D01*
X0373627Y0094700D01*
X0373734Y0094696D01*
X0373841Y0094688D01*
X0373947Y0094676D01*
X0374053Y0094660D01*
X0374158Y0094640D01*
X0374263Y0094617D01*
X0374367Y0094589D01*
X0374469Y0094558D01*
X0374570Y0094523D01*
X0374670Y0094484D01*
X0374769Y0094442D01*
X0374866Y0094396D01*
X0374961Y0094346D01*
X0375054Y0094293D01*
X0375145Y0094237D01*
X0375234Y0094177D01*
X0375321Y0094114D01*
X0375405Y0094048D01*
X0375487Y0093979D01*
X0375566Y0093907D01*
X0375642Y0093832D01*
X0375716Y0093754D01*
X0375787Y0093673D01*
X0375855Y0093590D01*
X0375919Y0093505D01*
X0375981Y0093417D01*
X0376039Y0093327D01*
X0376093Y0093235D01*
X0376145Y0093140D01*
X0376192Y0093044D01*
X0376237Y0092947D01*
X0376277Y0092848D01*
X0376314Y0092747D01*
X0376347Y0092645D01*
X0376376Y0092542D01*
X0376402Y0092438D01*
X0376424Y0092333D01*
X0376441Y0092227D01*
X0376455Y0092121D01*
X0376465Y0092014D01*
X0376471Y0091907D01*
X0376473Y0091800D01*
X0376471Y0091693D01*
X0376465Y0091586D01*
X0376455Y0091479D01*
X0376441Y0091373D01*
X0376424Y0091267D01*
X0376402Y0091162D01*
X0376376Y0091058D01*
X0376347Y0090955D01*
X0376314Y0090853D01*
X0376277Y0090752D01*
X0376237Y0090653D01*
X0376192Y0090556D01*
X0376145Y0090460D01*
X0376093Y0090365D01*
X0376039Y0090273D01*
X0375981Y0090183D01*
X0375919Y0090095D01*
X0375855Y0090010D01*
X0375787Y0089927D01*
X0375716Y0089846D01*
X0375642Y0089768D01*
X0375566Y0089693D01*
X0375487Y0089621D01*
X0375405Y0089552D01*
X0375321Y0089486D01*
X0375234Y0089423D01*
X0375145Y0089363D01*
X0375054Y0089307D01*
X0374961Y0089254D01*
X0374866Y0089204D01*
X0374769Y0089158D01*
X0374670Y0089116D01*
X0374570Y0089077D01*
X0374469Y0089042D01*
X0374367Y0089011D01*
X0374263Y0088983D01*
X0374158Y0088960D01*
X0374053Y0088940D01*
X0373947Y0088924D01*
X0373841Y0088912D01*
X0373734Y0088904D01*
X0373627Y0088900D01*
X0373519Y0088900D01*
X0373412Y0088904D01*
X0373305Y0088912D01*
X0373199Y0088924D01*
X0373093Y0088940D01*
X0372988Y0088960D01*
X0372883Y0088983D01*
X0372779Y0089011D01*
X0372677Y0089042D01*
X0372576Y0089077D01*
X0372476Y0089116D01*
X0372377Y0089158D01*
X0372280Y0089204D01*
X0372185Y0089254D01*
X0372092Y0089307D01*
X0372001Y0089363D01*
X0371912Y0089423D01*
X0371825Y0089486D01*
X0371741Y0089552D01*
X0371659Y0089621D01*
X0371580Y0089693D01*
X0371504Y0089768D01*
X0371430Y0089846D01*
X0371359Y0089927D01*
X0371291Y0090010D01*
X0371227Y0090095D01*
X0371165Y0090183D01*
X0371107Y0090273D01*
X0371053Y0090365D01*
X0371001Y0090460D01*
X0370954Y0090556D01*
X0370909Y0090653D01*
X0370869Y0090752D01*
X0370832Y0090853D01*
X0370799Y0090955D01*
X0370770Y0091058D01*
X0370744Y0091162D01*
X0370722Y0091267D01*
X0370705Y0091373D01*
X0370691Y0091479D01*
X0370681Y0091586D01*
X0370675Y0091693D01*
X0370673Y0091800D01*
X0360673Y0091800D02*
X0360675Y0091907D01*
X0360681Y0092014D01*
X0360691Y0092121D01*
X0360705Y0092227D01*
X0360722Y0092333D01*
X0360744Y0092438D01*
X0360770Y0092542D01*
X0360799Y0092645D01*
X0360832Y0092747D01*
X0360869Y0092848D01*
X0360909Y0092947D01*
X0360954Y0093044D01*
X0361001Y0093140D01*
X0361053Y0093235D01*
X0361107Y0093327D01*
X0361165Y0093417D01*
X0361227Y0093505D01*
X0361291Y0093590D01*
X0361359Y0093673D01*
X0361430Y0093754D01*
X0361504Y0093832D01*
X0361580Y0093907D01*
X0361659Y0093979D01*
X0361741Y0094048D01*
X0361825Y0094114D01*
X0361912Y0094177D01*
X0362001Y0094237D01*
X0362092Y0094293D01*
X0362185Y0094346D01*
X0362280Y0094396D01*
X0362377Y0094442D01*
X0362476Y0094484D01*
X0362576Y0094523D01*
X0362677Y0094558D01*
X0362779Y0094589D01*
X0362883Y0094617D01*
X0362988Y0094640D01*
X0363093Y0094660D01*
X0363199Y0094676D01*
X0363305Y0094688D01*
X0363412Y0094696D01*
X0363519Y0094700D01*
X0363627Y0094700D01*
X0363734Y0094696D01*
X0363841Y0094688D01*
X0363947Y0094676D01*
X0364053Y0094660D01*
X0364158Y0094640D01*
X0364263Y0094617D01*
X0364367Y0094589D01*
X0364469Y0094558D01*
X0364570Y0094523D01*
X0364670Y0094484D01*
X0364769Y0094442D01*
X0364866Y0094396D01*
X0364961Y0094346D01*
X0365054Y0094293D01*
X0365145Y0094237D01*
X0365234Y0094177D01*
X0365321Y0094114D01*
X0365405Y0094048D01*
X0365487Y0093979D01*
X0365566Y0093907D01*
X0365642Y0093832D01*
X0365716Y0093754D01*
X0365787Y0093673D01*
X0365855Y0093590D01*
X0365919Y0093505D01*
X0365981Y0093417D01*
X0366039Y0093327D01*
X0366093Y0093235D01*
X0366145Y0093140D01*
X0366192Y0093044D01*
X0366237Y0092947D01*
X0366277Y0092848D01*
X0366314Y0092747D01*
X0366347Y0092645D01*
X0366376Y0092542D01*
X0366402Y0092438D01*
X0366424Y0092333D01*
X0366441Y0092227D01*
X0366455Y0092121D01*
X0366465Y0092014D01*
X0366471Y0091907D01*
X0366473Y0091800D01*
X0366471Y0091693D01*
X0366465Y0091586D01*
X0366455Y0091479D01*
X0366441Y0091373D01*
X0366424Y0091267D01*
X0366402Y0091162D01*
X0366376Y0091058D01*
X0366347Y0090955D01*
X0366314Y0090853D01*
X0366277Y0090752D01*
X0366237Y0090653D01*
X0366192Y0090556D01*
X0366145Y0090460D01*
X0366093Y0090365D01*
X0366039Y0090273D01*
X0365981Y0090183D01*
X0365919Y0090095D01*
X0365855Y0090010D01*
X0365787Y0089927D01*
X0365716Y0089846D01*
X0365642Y0089768D01*
X0365566Y0089693D01*
X0365487Y0089621D01*
X0365405Y0089552D01*
X0365321Y0089486D01*
X0365234Y0089423D01*
X0365145Y0089363D01*
X0365054Y0089307D01*
X0364961Y0089254D01*
X0364866Y0089204D01*
X0364769Y0089158D01*
X0364670Y0089116D01*
X0364570Y0089077D01*
X0364469Y0089042D01*
X0364367Y0089011D01*
X0364263Y0088983D01*
X0364158Y0088960D01*
X0364053Y0088940D01*
X0363947Y0088924D01*
X0363841Y0088912D01*
X0363734Y0088904D01*
X0363627Y0088900D01*
X0363519Y0088900D01*
X0363412Y0088904D01*
X0363305Y0088912D01*
X0363199Y0088924D01*
X0363093Y0088940D01*
X0362988Y0088960D01*
X0362883Y0088983D01*
X0362779Y0089011D01*
X0362677Y0089042D01*
X0362576Y0089077D01*
X0362476Y0089116D01*
X0362377Y0089158D01*
X0362280Y0089204D01*
X0362185Y0089254D01*
X0362092Y0089307D01*
X0362001Y0089363D01*
X0361912Y0089423D01*
X0361825Y0089486D01*
X0361741Y0089552D01*
X0361659Y0089621D01*
X0361580Y0089693D01*
X0361504Y0089768D01*
X0361430Y0089846D01*
X0361359Y0089927D01*
X0361291Y0090010D01*
X0361227Y0090095D01*
X0361165Y0090183D01*
X0361107Y0090273D01*
X0361053Y0090365D01*
X0361001Y0090460D01*
X0360954Y0090556D01*
X0360909Y0090653D01*
X0360869Y0090752D01*
X0360832Y0090853D01*
X0360799Y0090955D01*
X0360770Y0091058D01*
X0360744Y0091162D01*
X0360722Y0091267D01*
X0360705Y0091373D01*
X0360691Y0091479D01*
X0360681Y0091586D01*
X0360675Y0091693D01*
X0360673Y0091800D01*
X0360673Y0121800D02*
X0360675Y0121907D01*
X0360681Y0122014D01*
X0360691Y0122121D01*
X0360705Y0122227D01*
X0360722Y0122333D01*
X0360744Y0122438D01*
X0360770Y0122542D01*
X0360799Y0122645D01*
X0360832Y0122747D01*
X0360869Y0122848D01*
X0360909Y0122947D01*
X0360954Y0123044D01*
X0361001Y0123140D01*
X0361053Y0123235D01*
X0361107Y0123327D01*
X0361165Y0123417D01*
X0361227Y0123505D01*
X0361291Y0123590D01*
X0361359Y0123673D01*
X0361430Y0123754D01*
X0361504Y0123832D01*
X0361580Y0123907D01*
X0361659Y0123979D01*
X0361741Y0124048D01*
X0361825Y0124114D01*
X0361912Y0124177D01*
X0362001Y0124237D01*
X0362092Y0124293D01*
X0362185Y0124346D01*
X0362280Y0124396D01*
X0362377Y0124442D01*
X0362476Y0124484D01*
X0362576Y0124523D01*
X0362677Y0124558D01*
X0362779Y0124589D01*
X0362883Y0124617D01*
X0362988Y0124640D01*
X0363093Y0124660D01*
X0363199Y0124676D01*
X0363305Y0124688D01*
X0363412Y0124696D01*
X0363519Y0124700D01*
X0363627Y0124700D01*
X0363734Y0124696D01*
X0363841Y0124688D01*
X0363947Y0124676D01*
X0364053Y0124660D01*
X0364158Y0124640D01*
X0364263Y0124617D01*
X0364367Y0124589D01*
X0364469Y0124558D01*
X0364570Y0124523D01*
X0364670Y0124484D01*
X0364769Y0124442D01*
X0364866Y0124396D01*
X0364961Y0124346D01*
X0365054Y0124293D01*
X0365145Y0124237D01*
X0365234Y0124177D01*
X0365321Y0124114D01*
X0365405Y0124048D01*
X0365487Y0123979D01*
X0365566Y0123907D01*
X0365642Y0123832D01*
X0365716Y0123754D01*
X0365787Y0123673D01*
X0365855Y0123590D01*
X0365919Y0123505D01*
X0365981Y0123417D01*
X0366039Y0123327D01*
X0366093Y0123235D01*
X0366145Y0123140D01*
X0366192Y0123044D01*
X0366237Y0122947D01*
X0366277Y0122848D01*
X0366314Y0122747D01*
X0366347Y0122645D01*
X0366376Y0122542D01*
X0366402Y0122438D01*
X0366424Y0122333D01*
X0366441Y0122227D01*
X0366455Y0122121D01*
X0366465Y0122014D01*
X0366471Y0121907D01*
X0366473Y0121800D01*
X0366471Y0121693D01*
X0366465Y0121586D01*
X0366455Y0121479D01*
X0366441Y0121373D01*
X0366424Y0121267D01*
X0366402Y0121162D01*
X0366376Y0121058D01*
X0366347Y0120955D01*
X0366314Y0120853D01*
X0366277Y0120752D01*
X0366237Y0120653D01*
X0366192Y0120556D01*
X0366145Y0120460D01*
X0366093Y0120365D01*
X0366039Y0120273D01*
X0365981Y0120183D01*
X0365919Y0120095D01*
X0365855Y0120010D01*
X0365787Y0119927D01*
X0365716Y0119846D01*
X0365642Y0119768D01*
X0365566Y0119693D01*
X0365487Y0119621D01*
X0365405Y0119552D01*
X0365321Y0119486D01*
X0365234Y0119423D01*
X0365145Y0119363D01*
X0365054Y0119307D01*
X0364961Y0119254D01*
X0364866Y0119204D01*
X0364769Y0119158D01*
X0364670Y0119116D01*
X0364570Y0119077D01*
X0364469Y0119042D01*
X0364367Y0119011D01*
X0364263Y0118983D01*
X0364158Y0118960D01*
X0364053Y0118940D01*
X0363947Y0118924D01*
X0363841Y0118912D01*
X0363734Y0118904D01*
X0363627Y0118900D01*
X0363519Y0118900D01*
X0363412Y0118904D01*
X0363305Y0118912D01*
X0363199Y0118924D01*
X0363093Y0118940D01*
X0362988Y0118960D01*
X0362883Y0118983D01*
X0362779Y0119011D01*
X0362677Y0119042D01*
X0362576Y0119077D01*
X0362476Y0119116D01*
X0362377Y0119158D01*
X0362280Y0119204D01*
X0362185Y0119254D01*
X0362092Y0119307D01*
X0362001Y0119363D01*
X0361912Y0119423D01*
X0361825Y0119486D01*
X0361741Y0119552D01*
X0361659Y0119621D01*
X0361580Y0119693D01*
X0361504Y0119768D01*
X0361430Y0119846D01*
X0361359Y0119927D01*
X0361291Y0120010D01*
X0361227Y0120095D01*
X0361165Y0120183D01*
X0361107Y0120273D01*
X0361053Y0120365D01*
X0361001Y0120460D01*
X0360954Y0120556D01*
X0360909Y0120653D01*
X0360869Y0120752D01*
X0360832Y0120853D01*
X0360799Y0120955D01*
X0360770Y0121058D01*
X0360744Y0121162D01*
X0360722Y0121267D01*
X0360705Y0121373D01*
X0360691Y0121479D01*
X0360681Y0121586D01*
X0360675Y0121693D01*
X0360673Y0121800D01*
X0360673Y0131800D02*
X0360675Y0131907D01*
X0360681Y0132014D01*
X0360691Y0132121D01*
X0360705Y0132227D01*
X0360722Y0132333D01*
X0360744Y0132438D01*
X0360770Y0132542D01*
X0360799Y0132645D01*
X0360832Y0132747D01*
X0360869Y0132848D01*
X0360909Y0132947D01*
X0360954Y0133044D01*
X0361001Y0133140D01*
X0361053Y0133235D01*
X0361107Y0133327D01*
X0361165Y0133417D01*
X0361227Y0133505D01*
X0361291Y0133590D01*
X0361359Y0133673D01*
X0361430Y0133754D01*
X0361504Y0133832D01*
X0361580Y0133907D01*
X0361659Y0133979D01*
X0361741Y0134048D01*
X0361825Y0134114D01*
X0361912Y0134177D01*
X0362001Y0134237D01*
X0362092Y0134293D01*
X0362185Y0134346D01*
X0362280Y0134396D01*
X0362377Y0134442D01*
X0362476Y0134484D01*
X0362576Y0134523D01*
X0362677Y0134558D01*
X0362779Y0134589D01*
X0362883Y0134617D01*
X0362988Y0134640D01*
X0363093Y0134660D01*
X0363199Y0134676D01*
X0363305Y0134688D01*
X0363412Y0134696D01*
X0363519Y0134700D01*
X0363627Y0134700D01*
X0363734Y0134696D01*
X0363841Y0134688D01*
X0363947Y0134676D01*
X0364053Y0134660D01*
X0364158Y0134640D01*
X0364263Y0134617D01*
X0364367Y0134589D01*
X0364469Y0134558D01*
X0364570Y0134523D01*
X0364670Y0134484D01*
X0364769Y0134442D01*
X0364866Y0134396D01*
X0364961Y0134346D01*
X0365054Y0134293D01*
X0365145Y0134237D01*
X0365234Y0134177D01*
X0365321Y0134114D01*
X0365405Y0134048D01*
X0365487Y0133979D01*
X0365566Y0133907D01*
X0365642Y0133832D01*
X0365716Y0133754D01*
X0365787Y0133673D01*
X0365855Y0133590D01*
X0365919Y0133505D01*
X0365981Y0133417D01*
X0366039Y0133327D01*
X0366093Y0133235D01*
X0366145Y0133140D01*
X0366192Y0133044D01*
X0366237Y0132947D01*
X0366277Y0132848D01*
X0366314Y0132747D01*
X0366347Y0132645D01*
X0366376Y0132542D01*
X0366402Y0132438D01*
X0366424Y0132333D01*
X0366441Y0132227D01*
X0366455Y0132121D01*
X0366465Y0132014D01*
X0366471Y0131907D01*
X0366473Y0131800D01*
X0366471Y0131693D01*
X0366465Y0131586D01*
X0366455Y0131479D01*
X0366441Y0131373D01*
X0366424Y0131267D01*
X0366402Y0131162D01*
X0366376Y0131058D01*
X0366347Y0130955D01*
X0366314Y0130853D01*
X0366277Y0130752D01*
X0366237Y0130653D01*
X0366192Y0130556D01*
X0366145Y0130460D01*
X0366093Y0130365D01*
X0366039Y0130273D01*
X0365981Y0130183D01*
X0365919Y0130095D01*
X0365855Y0130010D01*
X0365787Y0129927D01*
X0365716Y0129846D01*
X0365642Y0129768D01*
X0365566Y0129693D01*
X0365487Y0129621D01*
X0365405Y0129552D01*
X0365321Y0129486D01*
X0365234Y0129423D01*
X0365145Y0129363D01*
X0365054Y0129307D01*
X0364961Y0129254D01*
X0364866Y0129204D01*
X0364769Y0129158D01*
X0364670Y0129116D01*
X0364570Y0129077D01*
X0364469Y0129042D01*
X0364367Y0129011D01*
X0364263Y0128983D01*
X0364158Y0128960D01*
X0364053Y0128940D01*
X0363947Y0128924D01*
X0363841Y0128912D01*
X0363734Y0128904D01*
X0363627Y0128900D01*
X0363519Y0128900D01*
X0363412Y0128904D01*
X0363305Y0128912D01*
X0363199Y0128924D01*
X0363093Y0128940D01*
X0362988Y0128960D01*
X0362883Y0128983D01*
X0362779Y0129011D01*
X0362677Y0129042D01*
X0362576Y0129077D01*
X0362476Y0129116D01*
X0362377Y0129158D01*
X0362280Y0129204D01*
X0362185Y0129254D01*
X0362092Y0129307D01*
X0362001Y0129363D01*
X0361912Y0129423D01*
X0361825Y0129486D01*
X0361741Y0129552D01*
X0361659Y0129621D01*
X0361580Y0129693D01*
X0361504Y0129768D01*
X0361430Y0129846D01*
X0361359Y0129927D01*
X0361291Y0130010D01*
X0361227Y0130095D01*
X0361165Y0130183D01*
X0361107Y0130273D01*
X0361053Y0130365D01*
X0361001Y0130460D01*
X0360954Y0130556D01*
X0360909Y0130653D01*
X0360869Y0130752D01*
X0360832Y0130853D01*
X0360799Y0130955D01*
X0360770Y0131058D01*
X0360744Y0131162D01*
X0360722Y0131267D01*
X0360705Y0131373D01*
X0360691Y0131479D01*
X0360681Y0131586D01*
X0360675Y0131693D01*
X0360673Y0131800D01*
X0370673Y0131800D02*
X0370675Y0131907D01*
X0370681Y0132014D01*
X0370691Y0132121D01*
X0370705Y0132227D01*
X0370722Y0132333D01*
X0370744Y0132438D01*
X0370770Y0132542D01*
X0370799Y0132645D01*
X0370832Y0132747D01*
X0370869Y0132848D01*
X0370909Y0132947D01*
X0370954Y0133044D01*
X0371001Y0133140D01*
X0371053Y0133235D01*
X0371107Y0133327D01*
X0371165Y0133417D01*
X0371227Y0133505D01*
X0371291Y0133590D01*
X0371359Y0133673D01*
X0371430Y0133754D01*
X0371504Y0133832D01*
X0371580Y0133907D01*
X0371659Y0133979D01*
X0371741Y0134048D01*
X0371825Y0134114D01*
X0371912Y0134177D01*
X0372001Y0134237D01*
X0372092Y0134293D01*
X0372185Y0134346D01*
X0372280Y0134396D01*
X0372377Y0134442D01*
X0372476Y0134484D01*
X0372576Y0134523D01*
X0372677Y0134558D01*
X0372779Y0134589D01*
X0372883Y0134617D01*
X0372988Y0134640D01*
X0373093Y0134660D01*
X0373199Y0134676D01*
X0373305Y0134688D01*
X0373412Y0134696D01*
X0373519Y0134700D01*
X0373627Y0134700D01*
X0373734Y0134696D01*
X0373841Y0134688D01*
X0373947Y0134676D01*
X0374053Y0134660D01*
X0374158Y0134640D01*
X0374263Y0134617D01*
X0374367Y0134589D01*
X0374469Y0134558D01*
X0374570Y0134523D01*
X0374670Y0134484D01*
X0374769Y0134442D01*
X0374866Y0134396D01*
X0374961Y0134346D01*
X0375054Y0134293D01*
X0375145Y0134237D01*
X0375234Y0134177D01*
X0375321Y0134114D01*
X0375405Y0134048D01*
X0375487Y0133979D01*
X0375566Y0133907D01*
X0375642Y0133832D01*
X0375716Y0133754D01*
X0375787Y0133673D01*
X0375855Y0133590D01*
X0375919Y0133505D01*
X0375981Y0133417D01*
X0376039Y0133327D01*
X0376093Y0133235D01*
X0376145Y0133140D01*
X0376192Y0133044D01*
X0376237Y0132947D01*
X0376277Y0132848D01*
X0376314Y0132747D01*
X0376347Y0132645D01*
X0376376Y0132542D01*
X0376402Y0132438D01*
X0376424Y0132333D01*
X0376441Y0132227D01*
X0376455Y0132121D01*
X0376465Y0132014D01*
X0376471Y0131907D01*
X0376473Y0131800D01*
X0376471Y0131693D01*
X0376465Y0131586D01*
X0376455Y0131479D01*
X0376441Y0131373D01*
X0376424Y0131267D01*
X0376402Y0131162D01*
X0376376Y0131058D01*
X0376347Y0130955D01*
X0376314Y0130853D01*
X0376277Y0130752D01*
X0376237Y0130653D01*
X0376192Y0130556D01*
X0376145Y0130460D01*
X0376093Y0130365D01*
X0376039Y0130273D01*
X0375981Y0130183D01*
X0375919Y0130095D01*
X0375855Y0130010D01*
X0375787Y0129927D01*
X0375716Y0129846D01*
X0375642Y0129768D01*
X0375566Y0129693D01*
X0375487Y0129621D01*
X0375405Y0129552D01*
X0375321Y0129486D01*
X0375234Y0129423D01*
X0375145Y0129363D01*
X0375054Y0129307D01*
X0374961Y0129254D01*
X0374866Y0129204D01*
X0374769Y0129158D01*
X0374670Y0129116D01*
X0374570Y0129077D01*
X0374469Y0129042D01*
X0374367Y0129011D01*
X0374263Y0128983D01*
X0374158Y0128960D01*
X0374053Y0128940D01*
X0373947Y0128924D01*
X0373841Y0128912D01*
X0373734Y0128904D01*
X0373627Y0128900D01*
X0373519Y0128900D01*
X0373412Y0128904D01*
X0373305Y0128912D01*
X0373199Y0128924D01*
X0373093Y0128940D01*
X0372988Y0128960D01*
X0372883Y0128983D01*
X0372779Y0129011D01*
X0372677Y0129042D01*
X0372576Y0129077D01*
X0372476Y0129116D01*
X0372377Y0129158D01*
X0372280Y0129204D01*
X0372185Y0129254D01*
X0372092Y0129307D01*
X0372001Y0129363D01*
X0371912Y0129423D01*
X0371825Y0129486D01*
X0371741Y0129552D01*
X0371659Y0129621D01*
X0371580Y0129693D01*
X0371504Y0129768D01*
X0371430Y0129846D01*
X0371359Y0129927D01*
X0371291Y0130010D01*
X0371227Y0130095D01*
X0371165Y0130183D01*
X0371107Y0130273D01*
X0371053Y0130365D01*
X0371001Y0130460D01*
X0370954Y0130556D01*
X0370909Y0130653D01*
X0370869Y0130752D01*
X0370832Y0130853D01*
X0370799Y0130955D01*
X0370770Y0131058D01*
X0370744Y0131162D01*
X0370722Y0131267D01*
X0370705Y0131373D01*
X0370691Y0131479D01*
X0370681Y0131586D01*
X0370675Y0131693D01*
X0370673Y0131800D01*
X0370673Y0121800D02*
X0370675Y0121907D01*
X0370681Y0122014D01*
X0370691Y0122121D01*
X0370705Y0122227D01*
X0370722Y0122333D01*
X0370744Y0122438D01*
X0370770Y0122542D01*
X0370799Y0122645D01*
X0370832Y0122747D01*
X0370869Y0122848D01*
X0370909Y0122947D01*
X0370954Y0123044D01*
X0371001Y0123140D01*
X0371053Y0123235D01*
X0371107Y0123327D01*
X0371165Y0123417D01*
X0371227Y0123505D01*
X0371291Y0123590D01*
X0371359Y0123673D01*
X0371430Y0123754D01*
X0371504Y0123832D01*
X0371580Y0123907D01*
X0371659Y0123979D01*
X0371741Y0124048D01*
X0371825Y0124114D01*
X0371912Y0124177D01*
X0372001Y0124237D01*
X0372092Y0124293D01*
X0372185Y0124346D01*
X0372280Y0124396D01*
X0372377Y0124442D01*
X0372476Y0124484D01*
X0372576Y0124523D01*
X0372677Y0124558D01*
X0372779Y0124589D01*
X0372883Y0124617D01*
X0372988Y0124640D01*
X0373093Y0124660D01*
X0373199Y0124676D01*
X0373305Y0124688D01*
X0373412Y0124696D01*
X0373519Y0124700D01*
X0373627Y0124700D01*
X0373734Y0124696D01*
X0373841Y0124688D01*
X0373947Y0124676D01*
X0374053Y0124660D01*
X0374158Y0124640D01*
X0374263Y0124617D01*
X0374367Y0124589D01*
X0374469Y0124558D01*
X0374570Y0124523D01*
X0374670Y0124484D01*
X0374769Y0124442D01*
X0374866Y0124396D01*
X0374961Y0124346D01*
X0375054Y0124293D01*
X0375145Y0124237D01*
X0375234Y0124177D01*
X0375321Y0124114D01*
X0375405Y0124048D01*
X0375487Y0123979D01*
X0375566Y0123907D01*
X0375642Y0123832D01*
X0375716Y0123754D01*
X0375787Y0123673D01*
X0375855Y0123590D01*
X0375919Y0123505D01*
X0375981Y0123417D01*
X0376039Y0123327D01*
X0376093Y0123235D01*
X0376145Y0123140D01*
X0376192Y0123044D01*
X0376237Y0122947D01*
X0376277Y0122848D01*
X0376314Y0122747D01*
X0376347Y0122645D01*
X0376376Y0122542D01*
X0376402Y0122438D01*
X0376424Y0122333D01*
X0376441Y0122227D01*
X0376455Y0122121D01*
X0376465Y0122014D01*
X0376471Y0121907D01*
X0376473Y0121800D01*
X0376471Y0121693D01*
X0376465Y0121586D01*
X0376455Y0121479D01*
X0376441Y0121373D01*
X0376424Y0121267D01*
X0376402Y0121162D01*
X0376376Y0121058D01*
X0376347Y0120955D01*
X0376314Y0120853D01*
X0376277Y0120752D01*
X0376237Y0120653D01*
X0376192Y0120556D01*
X0376145Y0120460D01*
X0376093Y0120365D01*
X0376039Y0120273D01*
X0375981Y0120183D01*
X0375919Y0120095D01*
X0375855Y0120010D01*
X0375787Y0119927D01*
X0375716Y0119846D01*
X0375642Y0119768D01*
X0375566Y0119693D01*
X0375487Y0119621D01*
X0375405Y0119552D01*
X0375321Y0119486D01*
X0375234Y0119423D01*
X0375145Y0119363D01*
X0375054Y0119307D01*
X0374961Y0119254D01*
X0374866Y0119204D01*
X0374769Y0119158D01*
X0374670Y0119116D01*
X0374570Y0119077D01*
X0374469Y0119042D01*
X0374367Y0119011D01*
X0374263Y0118983D01*
X0374158Y0118960D01*
X0374053Y0118940D01*
X0373947Y0118924D01*
X0373841Y0118912D01*
X0373734Y0118904D01*
X0373627Y0118900D01*
X0373519Y0118900D01*
X0373412Y0118904D01*
X0373305Y0118912D01*
X0373199Y0118924D01*
X0373093Y0118940D01*
X0372988Y0118960D01*
X0372883Y0118983D01*
X0372779Y0119011D01*
X0372677Y0119042D01*
X0372576Y0119077D01*
X0372476Y0119116D01*
X0372377Y0119158D01*
X0372280Y0119204D01*
X0372185Y0119254D01*
X0372092Y0119307D01*
X0372001Y0119363D01*
X0371912Y0119423D01*
X0371825Y0119486D01*
X0371741Y0119552D01*
X0371659Y0119621D01*
X0371580Y0119693D01*
X0371504Y0119768D01*
X0371430Y0119846D01*
X0371359Y0119927D01*
X0371291Y0120010D01*
X0371227Y0120095D01*
X0371165Y0120183D01*
X0371107Y0120273D01*
X0371053Y0120365D01*
X0371001Y0120460D01*
X0370954Y0120556D01*
X0370909Y0120653D01*
X0370869Y0120752D01*
X0370832Y0120853D01*
X0370799Y0120955D01*
X0370770Y0121058D01*
X0370744Y0121162D01*
X0370722Y0121267D01*
X0370705Y0121373D01*
X0370691Y0121479D01*
X0370681Y0121586D01*
X0370675Y0121693D01*
X0370673Y0121800D01*
X0370673Y0141800D02*
X0370675Y0141907D01*
X0370681Y0142014D01*
X0370691Y0142121D01*
X0370705Y0142227D01*
X0370722Y0142333D01*
X0370744Y0142438D01*
X0370770Y0142542D01*
X0370799Y0142645D01*
X0370832Y0142747D01*
X0370869Y0142848D01*
X0370909Y0142947D01*
X0370954Y0143044D01*
X0371001Y0143140D01*
X0371053Y0143235D01*
X0371107Y0143327D01*
X0371165Y0143417D01*
X0371227Y0143505D01*
X0371291Y0143590D01*
X0371359Y0143673D01*
X0371430Y0143754D01*
X0371504Y0143832D01*
X0371580Y0143907D01*
X0371659Y0143979D01*
X0371741Y0144048D01*
X0371825Y0144114D01*
X0371912Y0144177D01*
X0372001Y0144237D01*
X0372092Y0144293D01*
X0372185Y0144346D01*
X0372280Y0144396D01*
X0372377Y0144442D01*
X0372476Y0144484D01*
X0372576Y0144523D01*
X0372677Y0144558D01*
X0372779Y0144589D01*
X0372883Y0144617D01*
X0372988Y0144640D01*
X0373093Y0144660D01*
X0373199Y0144676D01*
X0373305Y0144688D01*
X0373412Y0144696D01*
X0373519Y0144700D01*
X0373627Y0144700D01*
X0373734Y0144696D01*
X0373841Y0144688D01*
X0373947Y0144676D01*
X0374053Y0144660D01*
X0374158Y0144640D01*
X0374263Y0144617D01*
X0374367Y0144589D01*
X0374469Y0144558D01*
X0374570Y0144523D01*
X0374670Y0144484D01*
X0374769Y0144442D01*
X0374866Y0144396D01*
X0374961Y0144346D01*
X0375054Y0144293D01*
X0375145Y0144237D01*
X0375234Y0144177D01*
X0375321Y0144114D01*
X0375405Y0144048D01*
X0375487Y0143979D01*
X0375566Y0143907D01*
X0375642Y0143832D01*
X0375716Y0143754D01*
X0375787Y0143673D01*
X0375855Y0143590D01*
X0375919Y0143505D01*
X0375981Y0143417D01*
X0376039Y0143327D01*
X0376093Y0143235D01*
X0376145Y0143140D01*
X0376192Y0143044D01*
X0376237Y0142947D01*
X0376277Y0142848D01*
X0376314Y0142747D01*
X0376347Y0142645D01*
X0376376Y0142542D01*
X0376402Y0142438D01*
X0376424Y0142333D01*
X0376441Y0142227D01*
X0376455Y0142121D01*
X0376465Y0142014D01*
X0376471Y0141907D01*
X0376473Y0141800D01*
X0376471Y0141693D01*
X0376465Y0141586D01*
X0376455Y0141479D01*
X0376441Y0141373D01*
X0376424Y0141267D01*
X0376402Y0141162D01*
X0376376Y0141058D01*
X0376347Y0140955D01*
X0376314Y0140853D01*
X0376277Y0140752D01*
X0376237Y0140653D01*
X0376192Y0140556D01*
X0376145Y0140460D01*
X0376093Y0140365D01*
X0376039Y0140273D01*
X0375981Y0140183D01*
X0375919Y0140095D01*
X0375855Y0140010D01*
X0375787Y0139927D01*
X0375716Y0139846D01*
X0375642Y0139768D01*
X0375566Y0139693D01*
X0375487Y0139621D01*
X0375405Y0139552D01*
X0375321Y0139486D01*
X0375234Y0139423D01*
X0375145Y0139363D01*
X0375054Y0139307D01*
X0374961Y0139254D01*
X0374866Y0139204D01*
X0374769Y0139158D01*
X0374670Y0139116D01*
X0374570Y0139077D01*
X0374469Y0139042D01*
X0374367Y0139011D01*
X0374263Y0138983D01*
X0374158Y0138960D01*
X0374053Y0138940D01*
X0373947Y0138924D01*
X0373841Y0138912D01*
X0373734Y0138904D01*
X0373627Y0138900D01*
X0373519Y0138900D01*
X0373412Y0138904D01*
X0373305Y0138912D01*
X0373199Y0138924D01*
X0373093Y0138940D01*
X0372988Y0138960D01*
X0372883Y0138983D01*
X0372779Y0139011D01*
X0372677Y0139042D01*
X0372576Y0139077D01*
X0372476Y0139116D01*
X0372377Y0139158D01*
X0372280Y0139204D01*
X0372185Y0139254D01*
X0372092Y0139307D01*
X0372001Y0139363D01*
X0371912Y0139423D01*
X0371825Y0139486D01*
X0371741Y0139552D01*
X0371659Y0139621D01*
X0371580Y0139693D01*
X0371504Y0139768D01*
X0371430Y0139846D01*
X0371359Y0139927D01*
X0371291Y0140010D01*
X0371227Y0140095D01*
X0371165Y0140183D01*
X0371107Y0140273D01*
X0371053Y0140365D01*
X0371001Y0140460D01*
X0370954Y0140556D01*
X0370909Y0140653D01*
X0370869Y0140752D01*
X0370832Y0140853D01*
X0370799Y0140955D01*
X0370770Y0141058D01*
X0370744Y0141162D01*
X0370722Y0141267D01*
X0370705Y0141373D01*
X0370691Y0141479D01*
X0370681Y0141586D01*
X0370675Y0141693D01*
X0370673Y0141800D01*
X0350673Y0211800D02*
X0350675Y0211907D01*
X0350681Y0212014D01*
X0350691Y0212121D01*
X0350705Y0212227D01*
X0350722Y0212333D01*
X0350744Y0212438D01*
X0350770Y0212542D01*
X0350799Y0212645D01*
X0350832Y0212747D01*
X0350869Y0212848D01*
X0350909Y0212947D01*
X0350954Y0213044D01*
X0351001Y0213140D01*
X0351053Y0213235D01*
X0351107Y0213327D01*
X0351165Y0213417D01*
X0351227Y0213505D01*
X0351291Y0213590D01*
X0351359Y0213673D01*
X0351430Y0213754D01*
X0351504Y0213832D01*
X0351580Y0213907D01*
X0351659Y0213979D01*
X0351741Y0214048D01*
X0351825Y0214114D01*
X0351912Y0214177D01*
X0352001Y0214237D01*
X0352092Y0214293D01*
X0352185Y0214346D01*
X0352280Y0214396D01*
X0352377Y0214442D01*
X0352476Y0214484D01*
X0352576Y0214523D01*
X0352677Y0214558D01*
X0352779Y0214589D01*
X0352883Y0214617D01*
X0352988Y0214640D01*
X0353093Y0214660D01*
X0353199Y0214676D01*
X0353305Y0214688D01*
X0353412Y0214696D01*
X0353519Y0214700D01*
X0353627Y0214700D01*
X0353734Y0214696D01*
X0353841Y0214688D01*
X0353947Y0214676D01*
X0354053Y0214660D01*
X0354158Y0214640D01*
X0354263Y0214617D01*
X0354367Y0214589D01*
X0354469Y0214558D01*
X0354570Y0214523D01*
X0354670Y0214484D01*
X0354769Y0214442D01*
X0354866Y0214396D01*
X0354961Y0214346D01*
X0355054Y0214293D01*
X0355145Y0214237D01*
X0355234Y0214177D01*
X0355321Y0214114D01*
X0355405Y0214048D01*
X0355487Y0213979D01*
X0355566Y0213907D01*
X0355642Y0213832D01*
X0355716Y0213754D01*
X0355787Y0213673D01*
X0355855Y0213590D01*
X0355919Y0213505D01*
X0355981Y0213417D01*
X0356039Y0213327D01*
X0356093Y0213235D01*
X0356145Y0213140D01*
X0356192Y0213044D01*
X0356237Y0212947D01*
X0356277Y0212848D01*
X0356314Y0212747D01*
X0356347Y0212645D01*
X0356376Y0212542D01*
X0356402Y0212438D01*
X0356424Y0212333D01*
X0356441Y0212227D01*
X0356455Y0212121D01*
X0356465Y0212014D01*
X0356471Y0211907D01*
X0356473Y0211800D01*
X0356471Y0211693D01*
X0356465Y0211586D01*
X0356455Y0211479D01*
X0356441Y0211373D01*
X0356424Y0211267D01*
X0356402Y0211162D01*
X0356376Y0211058D01*
X0356347Y0210955D01*
X0356314Y0210853D01*
X0356277Y0210752D01*
X0356237Y0210653D01*
X0356192Y0210556D01*
X0356145Y0210460D01*
X0356093Y0210365D01*
X0356039Y0210273D01*
X0355981Y0210183D01*
X0355919Y0210095D01*
X0355855Y0210010D01*
X0355787Y0209927D01*
X0355716Y0209846D01*
X0355642Y0209768D01*
X0355566Y0209693D01*
X0355487Y0209621D01*
X0355405Y0209552D01*
X0355321Y0209486D01*
X0355234Y0209423D01*
X0355145Y0209363D01*
X0355054Y0209307D01*
X0354961Y0209254D01*
X0354866Y0209204D01*
X0354769Y0209158D01*
X0354670Y0209116D01*
X0354570Y0209077D01*
X0354469Y0209042D01*
X0354367Y0209011D01*
X0354263Y0208983D01*
X0354158Y0208960D01*
X0354053Y0208940D01*
X0353947Y0208924D01*
X0353841Y0208912D01*
X0353734Y0208904D01*
X0353627Y0208900D01*
X0353519Y0208900D01*
X0353412Y0208904D01*
X0353305Y0208912D01*
X0353199Y0208924D01*
X0353093Y0208940D01*
X0352988Y0208960D01*
X0352883Y0208983D01*
X0352779Y0209011D01*
X0352677Y0209042D01*
X0352576Y0209077D01*
X0352476Y0209116D01*
X0352377Y0209158D01*
X0352280Y0209204D01*
X0352185Y0209254D01*
X0352092Y0209307D01*
X0352001Y0209363D01*
X0351912Y0209423D01*
X0351825Y0209486D01*
X0351741Y0209552D01*
X0351659Y0209621D01*
X0351580Y0209693D01*
X0351504Y0209768D01*
X0351430Y0209846D01*
X0351359Y0209927D01*
X0351291Y0210010D01*
X0351227Y0210095D01*
X0351165Y0210183D01*
X0351107Y0210273D01*
X0351053Y0210365D01*
X0351001Y0210460D01*
X0350954Y0210556D01*
X0350909Y0210653D01*
X0350869Y0210752D01*
X0350832Y0210853D01*
X0350799Y0210955D01*
X0350770Y0211058D01*
X0350744Y0211162D01*
X0350722Y0211267D01*
X0350705Y0211373D01*
X0350691Y0211479D01*
X0350681Y0211586D01*
X0350675Y0211693D01*
X0350673Y0211800D01*
X0340673Y0211800D02*
X0340675Y0211907D01*
X0340681Y0212014D01*
X0340691Y0212121D01*
X0340705Y0212227D01*
X0340722Y0212333D01*
X0340744Y0212438D01*
X0340770Y0212542D01*
X0340799Y0212645D01*
X0340832Y0212747D01*
X0340869Y0212848D01*
X0340909Y0212947D01*
X0340954Y0213044D01*
X0341001Y0213140D01*
X0341053Y0213235D01*
X0341107Y0213327D01*
X0341165Y0213417D01*
X0341227Y0213505D01*
X0341291Y0213590D01*
X0341359Y0213673D01*
X0341430Y0213754D01*
X0341504Y0213832D01*
X0341580Y0213907D01*
X0341659Y0213979D01*
X0341741Y0214048D01*
X0341825Y0214114D01*
X0341912Y0214177D01*
X0342001Y0214237D01*
X0342092Y0214293D01*
X0342185Y0214346D01*
X0342280Y0214396D01*
X0342377Y0214442D01*
X0342476Y0214484D01*
X0342576Y0214523D01*
X0342677Y0214558D01*
X0342779Y0214589D01*
X0342883Y0214617D01*
X0342988Y0214640D01*
X0343093Y0214660D01*
X0343199Y0214676D01*
X0343305Y0214688D01*
X0343412Y0214696D01*
X0343519Y0214700D01*
X0343627Y0214700D01*
X0343734Y0214696D01*
X0343841Y0214688D01*
X0343947Y0214676D01*
X0344053Y0214660D01*
X0344158Y0214640D01*
X0344263Y0214617D01*
X0344367Y0214589D01*
X0344469Y0214558D01*
X0344570Y0214523D01*
X0344670Y0214484D01*
X0344769Y0214442D01*
X0344866Y0214396D01*
X0344961Y0214346D01*
X0345054Y0214293D01*
X0345145Y0214237D01*
X0345234Y0214177D01*
X0345321Y0214114D01*
X0345405Y0214048D01*
X0345487Y0213979D01*
X0345566Y0213907D01*
X0345642Y0213832D01*
X0345716Y0213754D01*
X0345787Y0213673D01*
X0345855Y0213590D01*
X0345919Y0213505D01*
X0345981Y0213417D01*
X0346039Y0213327D01*
X0346093Y0213235D01*
X0346145Y0213140D01*
X0346192Y0213044D01*
X0346237Y0212947D01*
X0346277Y0212848D01*
X0346314Y0212747D01*
X0346347Y0212645D01*
X0346376Y0212542D01*
X0346402Y0212438D01*
X0346424Y0212333D01*
X0346441Y0212227D01*
X0346455Y0212121D01*
X0346465Y0212014D01*
X0346471Y0211907D01*
X0346473Y0211800D01*
X0346471Y0211693D01*
X0346465Y0211586D01*
X0346455Y0211479D01*
X0346441Y0211373D01*
X0346424Y0211267D01*
X0346402Y0211162D01*
X0346376Y0211058D01*
X0346347Y0210955D01*
X0346314Y0210853D01*
X0346277Y0210752D01*
X0346237Y0210653D01*
X0346192Y0210556D01*
X0346145Y0210460D01*
X0346093Y0210365D01*
X0346039Y0210273D01*
X0345981Y0210183D01*
X0345919Y0210095D01*
X0345855Y0210010D01*
X0345787Y0209927D01*
X0345716Y0209846D01*
X0345642Y0209768D01*
X0345566Y0209693D01*
X0345487Y0209621D01*
X0345405Y0209552D01*
X0345321Y0209486D01*
X0345234Y0209423D01*
X0345145Y0209363D01*
X0345054Y0209307D01*
X0344961Y0209254D01*
X0344866Y0209204D01*
X0344769Y0209158D01*
X0344670Y0209116D01*
X0344570Y0209077D01*
X0344469Y0209042D01*
X0344367Y0209011D01*
X0344263Y0208983D01*
X0344158Y0208960D01*
X0344053Y0208940D01*
X0343947Y0208924D01*
X0343841Y0208912D01*
X0343734Y0208904D01*
X0343627Y0208900D01*
X0343519Y0208900D01*
X0343412Y0208904D01*
X0343305Y0208912D01*
X0343199Y0208924D01*
X0343093Y0208940D01*
X0342988Y0208960D01*
X0342883Y0208983D01*
X0342779Y0209011D01*
X0342677Y0209042D01*
X0342576Y0209077D01*
X0342476Y0209116D01*
X0342377Y0209158D01*
X0342280Y0209204D01*
X0342185Y0209254D01*
X0342092Y0209307D01*
X0342001Y0209363D01*
X0341912Y0209423D01*
X0341825Y0209486D01*
X0341741Y0209552D01*
X0341659Y0209621D01*
X0341580Y0209693D01*
X0341504Y0209768D01*
X0341430Y0209846D01*
X0341359Y0209927D01*
X0341291Y0210010D01*
X0341227Y0210095D01*
X0341165Y0210183D01*
X0341107Y0210273D01*
X0341053Y0210365D01*
X0341001Y0210460D01*
X0340954Y0210556D01*
X0340909Y0210653D01*
X0340869Y0210752D01*
X0340832Y0210853D01*
X0340799Y0210955D01*
X0340770Y0211058D01*
X0340744Y0211162D01*
X0340722Y0211267D01*
X0340705Y0211373D01*
X0340691Y0211479D01*
X0340681Y0211586D01*
X0340675Y0211693D01*
X0340673Y0211800D01*
D39*
X0054447Y0096800D03*
X0038699Y0096800D03*
D40*
X0058573Y0166800D03*
X0043573Y0176800D03*
X0043573Y0211800D03*
X0106073Y0217300D03*
X0154573Y0236800D03*
X0168573Y0217800D03*
X0203573Y0227800D03*
X0183573Y0256800D03*
X0173573Y0261800D03*
X0149573Y0261800D03*
X0199573Y0302800D03*
X0268573Y0261800D03*
X0278573Y0261800D03*
X0244573Y0234800D03*
X0278573Y0301800D03*
X0295573Y0302800D03*
X0341573Y0261800D03*
X0373573Y0261800D03*
X0334573Y0235300D03*
X0388573Y0306800D03*
X0333573Y0101800D03*
X0285573Y0091800D03*
X0281573Y0059300D03*
X0256073Y0056800D03*
X0236073Y0056800D03*
X0196573Y0078800D03*
X0283573Y0036800D03*
X0333573Y0036800D03*
X0402073Y0021300D03*
X0099573Y0261800D03*
X0059573Y0271800D03*
X0061573Y0310800D03*
D41*
X0105573Y0271146D02*
X0117919Y0272146D01*
X0118573Y0281800D01*
X0118573Y0291800D01*
X0118573Y0281800D02*
X0118573Y0269800D01*
X0180573Y0269800D01*
X0186573Y0263800D01*
X0198573Y0263800D01*
X0198573Y0276800D01*
X0201919Y0280146D01*
X0208573Y0280146D01*
X0208573Y0291800D01*
X0228573Y0291800D02*
X0228573Y0301800D01*
X0238573Y0301800D02*
X0238573Y0291800D01*
X0238573Y0281800D01*
X0237352Y0278800D01*
X0237573Y0269800D02*
X0288573Y0269800D01*
X0296573Y0261800D01*
X0307943Y0261800D01*
X0298573Y0280146D02*
X0291919Y0280146D01*
X0288573Y0276800D01*
X0288573Y0269800D01*
X0278573Y0261800D02*
X0268573Y0261800D01*
X0237573Y0269800D02*
X0232943Y0266170D01*
X0232943Y0261800D01*
X0226573Y0261800D01*
X0224573Y0263800D01*
X0198573Y0263800D01*
X0161132Y0278800D02*
X0161073Y0281800D01*
X0161073Y0289300D01*
X0158573Y0289300D01*
X0158573Y0291800D01*
X0158573Y0301800D01*
X0168573Y0301800D02*
X0168573Y0291800D01*
X0148573Y0291800D02*
X0148573Y0281800D01*
X0147352Y0278800D01*
X0148573Y0291800D02*
X0148573Y0301800D01*
X0138573Y0301800D02*
X0138573Y0291800D01*
X0118573Y0269800D02*
X0118573Y0261800D01*
X0117943Y0261800D01*
X0093573Y0236800D02*
X0061073Y0236800D01*
X0049636Y0221800D02*
X0038573Y0221800D01*
X0036073Y0224300D01*
X0028573Y0224300D01*
X0028573Y0224713D01*
X0028573Y0191800D01*
X0027077Y0199438D01*
X0026073Y0189300D01*
X0018573Y0189300D01*
X0018573Y0176800D01*
X0020226Y0176800D01*
X0218573Y0161800D02*
X0218573Y0149300D01*
X0223573Y0149300D01*
X0227323Y0145550D01*
X0251073Y0121800D01*
X0285573Y0121800D01*
X0286073Y0121800D01*
X0298573Y0280146D02*
X0298573Y0291800D01*
X0327352Y0278800D02*
X0328573Y0281800D01*
X0328573Y0291800D01*
X0258573Y0291800D02*
X0258573Y0301800D01*
X0248573Y0301800D02*
X0248573Y0291800D01*
D42*
X0213573Y0257300D03*
X0161073Y0256800D03*
X0118573Y0249300D03*
X0113573Y0231800D03*
X0093573Y0236800D03*
X0113573Y0211800D03*
X0091573Y0184800D03*
X0093073Y0176300D03*
X0068073Y0186300D03*
X0043573Y0169300D03*
X0041573Y0163800D03*
X0041573Y0158800D03*
X0041573Y0153800D03*
X0041573Y0148800D03*
X0041573Y0143800D03*
X0041573Y0138800D03*
X0041573Y0133800D03*
X0041573Y0128800D03*
X0036573Y0128800D03*
X0036573Y0133800D03*
X0036573Y0138800D03*
X0036573Y0143800D03*
X0036573Y0148800D03*
X0036573Y0153800D03*
X0036573Y0158800D03*
X0031573Y0158800D03*
X0026573Y0158800D03*
X0026573Y0163800D03*
X0031573Y0163800D03*
X0036573Y0163800D03*
X0051073Y0161800D03*
X0036573Y0123800D03*
X0036573Y0118800D03*
X0036573Y0113800D03*
X0036573Y0108800D03*
X0094073Y0106300D03*
X0103573Y0106800D03*
X0113573Y0119300D03*
X0133573Y0119300D03*
X0173573Y0119300D03*
X0173573Y0119300D03*
X0196573Y0135800D03*
X0188573Y0154300D03*
X0169073Y0159800D03*
X0148573Y0154300D03*
X0128573Y0164300D03*
X0209573Y0167300D03*
X0218573Y0154300D03*
X0237573Y0152800D03*
X0252573Y0152800D03*
X0286073Y0164300D03*
X0279573Y0190800D03*
X0269573Y0190800D03*
X0268573Y0199300D03*
X0279573Y0215800D03*
X0238573Y0188300D03*
X0215573Y0186800D03*
X0248573Y0111800D03*
X0261073Y0106800D03*
X0253573Y0089300D03*
X0213573Y0089300D03*
X0188573Y0089300D03*
X0181073Y0075800D03*
X0168573Y0081800D03*
X0168573Y0089300D03*
X0143573Y0089300D03*
X0136073Y0074300D03*
X0131073Y0069300D03*
X0113573Y0059300D03*
X0103573Y0074300D03*
X0098573Y0074300D03*
X0126073Y0089300D03*
X0158573Y0056800D03*
X0168573Y0051800D03*
X0153573Y0046800D03*
X0243573Y0049300D03*
X0296073Y0059300D03*
X0306073Y0061800D03*
X0308573Y0051800D03*
X0341073Y0046800D03*
X0333573Y0146800D03*
X0381073Y0211800D03*
X0381073Y0216800D03*
X0381073Y0221800D03*
X0188573Y0302800D03*
X0093573Y0296800D03*
X0093573Y0269300D03*
X0061073Y0236800D03*
D43*
X0059573Y0147800D03*
X0059573Y0121800D03*
X0054573Y0106800D03*
X0028573Y0106800D03*
X0058573Y0072800D03*
X0058573Y0061800D03*
X0058573Y0051800D03*
X0058573Y0028800D03*
X0048573Y0028800D03*
X0103573Y0031800D03*
X0108573Y0015800D03*
X0160573Y0029800D03*
X0285573Y0121800D03*
X0318073Y0075300D03*
X0333573Y0051800D03*
X0028573Y0149800D03*
D44*
X0057510Y0221800D02*
X0057573Y0221863D01*
X0057573Y0228800D01*
X0047683Y0238690D01*
X0043337Y0238690D01*
X0028573Y0238493D02*
X0028573Y0253847D01*
X0031919Y0257194D01*
X0031919Y0268446D01*
X0042473Y0279000D01*
X0049673Y0271800D01*
X0059573Y0271800D01*
X0042473Y0279000D02*
X0042473Y0304600D01*
X0139203Y0261800D02*
X0149573Y0261800D01*
X0178573Y0261800D01*
X0183573Y0256800D01*
X0283573Y0036800D02*
X0333573Y0036800D01*
D45*
X0397573Y0005800D02*
X0402073Y0010300D01*
X0402073Y0021300D01*
X0397573Y0005800D02*
X0203573Y0005800D01*
X0163573Y0005800D01*
X0163573Y0006800D01*
X0163573Y0005800D02*
X0137573Y0005800D01*
X0134073Y0009300D01*
X0133573Y0009300D01*
X0133573Y0031800D01*
X0127313Y0019800D02*
X0127313Y0012194D01*
X0113573Y0031800D02*
X0106073Y0024300D01*
X0096073Y0024300D01*
X0086073Y0014300D01*
X0085573Y0014800D02*
X0068573Y0014800D01*
X0065573Y0011800D01*
X0053573Y0011800D01*
X0043573Y0011800D02*
X0038573Y0011800D01*
X0038573Y0026800D01*
X0048573Y0036800D01*
X0051762Y0037981D02*
X0051762Y0072312D01*
X0058085Y0072312D01*
X0058573Y0072800D01*
X0027573Y0073320D02*
X0027573Y0092863D01*
X0023510Y0092863D02*
X0018573Y0097800D01*
X0018573Y0131800D01*
X0021073Y0134300D01*
X0028337Y0134300D01*
X0028337Y0139300D02*
X0027837Y0139800D01*
X0020573Y0139800D01*
X0018573Y0141800D01*
X0018573Y0175146D01*
X0020226Y0176800D01*
X0043573Y0176800D02*
X0043573Y0181800D01*
X0051093Y0189320D01*
X0051093Y0199438D01*
X0051093Y0208320D01*
X0057573Y0214800D01*
X0057573Y0221737D01*
X0057510Y0221800D01*
X0063573Y0217800D02*
X0070573Y0224800D01*
X0129573Y0224800D01*
X0128573Y0225800D01*
X0128573Y0229800D01*
X0129573Y0224800D02*
X0138573Y0224800D01*
X0148573Y0224800D01*
X0174573Y0224800D01*
X0186573Y0236800D01*
X0198573Y0236800D01*
X0198573Y0248060D01*
X0199313Y0248800D01*
X0205573Y0248800D01*
X0208573Y0251800D01*
X0215573Y0251800D01*
X0218573Y0254800D01*
X0287573Y0254800D01*
X0308573Y0225800D02*
X0318573Y0225800D01*
X0328573Y0225800D01*
X0362573Y0225800D01*
X0363573Y0226800D01*
X0398573Y0226800D01*
X0398573Y0253800D01*
X0396573Y0255800D01*
X0378833Y0255800D01*
X0398573Y0254800D02*
X0400573Y0256800D01*
X0400573Y0284800D01*
X0393573Y0291800D01*
X0358573Y0291800D02*
X0358573Y0295800D01*
X0356573Y0297800D01*
X0356573Y0305800D01*
X0351573Y0310800D01*
X0313573Y0310800D01*
X0309573Y0306800D01*
X0309573Y0298800D01*
X0308573Y0297800D01*
X0274573Y0297800D01*
X0268573Y0291800D01*
X0265573Y0294800D01*
X0265573Y0305800D01*
X0260573Y0310800D01*
X0207573Y0310800D01*
X0205573Y0308800D01*
X0205573Y0300800D01*
X0201573Y0296800D01*
X0178573Y0296800D01*
X0178573Y0291800D01*
X0177573Y0292800D01*
X0177573Y0306800D01*
X0173573Y0310800D01*
X0102573Y0310800D01*
X0098573Y0306800D01*
X0098573Y0291800D01*
X0098573Y0286800D01*
X0098573Y0281800D01*
X0063573Y0217800D02*
X0063573Y0209800D01*
X0072006Y0201367D01*
X0072431Y0201367D01*
X0049636Y0176800D02*
X0043573Y0176800D01*
X0058573Y0166800D02*
X0058573Y0160146D01*
X0048809Y0129300D02*
X0048809Y0120383D01*
X0048573Y0120146D02*
X0053573Y0120146D01*
X0048573Y0120146D02*
X0043573Y0120146D01*
X0054573Y0112454D02*
X0054573Y0106800D01*
X0029573Y0036800D02*
X0026565Y0036800D01*
X0026565Y0029792D01*
X0023573Y0026800D01*
X0023573Y0012863D01*
X0024636Y0011800D01*
X0032510Y0011800D02*
X0038573Y0011800D01*
X0160573Y0029800D02*
X0170573Y0029800D01*
X0178573Y0021800D01*
X0178573Y0011800D01*
X0173573Y0011800D01*
X0178573Y0011800D02*
X0183573Y0011800D01*
X0383573Y0201800D02*
X0393573Y0201800D01*
X0398573Y0206800D01*
X0398573Y0226800D01*
X0398573Y0253800D02*
X0398573Y0254800D01*
X0308573Y0225800D02*
X0238573Y0225800D01*
X0228573Y0225800D01*
X0218573Y0225800D01*
X0213573Y0225800D01*
X0203573Y0236800D01*
X0198573Y0236800D01*
D46*
X0218573Y0229800D02*
X0218573Y0225800D01*
X0148573Y0224800D02*
X0148573Y0230028D01*
X0138573Y0229800D02*
X0138573Y0224800D01*
X0118573Y0201800D02*
X0128573Y0191800D01*
X0117573Y0200800D02*
X0108573Y0191800D01*
X0103573Y0191800D01*
X0093573Y0201800D01*
X0082864Y0201800D01*
X0082431Y0201367D01*
X0082431Y0211367D01*
X0072431Y0211367D01*
X0082431Y0201367D02*
X0082431Y0191367D01*
X0056073Y0176800D02*
X0056073Y0173300D01*
X0045573Y0162800D01*
X0045573Y0151800D01*
X0048573Y0148800D01*
X0048573Y0144536D01*
X0048809Y0144300D01*
X0052573Y0149800D02*
X0055573Y0146800D01*
X0055573Y0141800D01*
X0053073Y0139300D01*
X0048809Y0139300D01*
X0048809Y0134300D02*
X0057136Y0134300D01*
X0058573Y0135737D01*
X0058573Y0127863D02*
X0058573Y0125800D01*
X0059573Y0121800D01*
X0053573Y0113454D02*
X0054573Y0112454D01*
X0048573Y0120146D02*
X0048809Y0120383D01*
X0028573Y0106800D02*
X0028573Y0101737D01*
X0027573Y0100737D01*
X0027573Y0092863D02*
X0023510Y0092863D01*
X0027573Y0073320D02*
X0026565Y0072312D01*
X0051762Y0037981D02*
X0050581Y0036800D01*
X0178573Y0021800D02*
X0185541Y0021800D01*
X0197057Y0033316D01*
X0201089Y0033316D01*
X0202573Y0034800D01*
X0202573Y0036800D01*
X0202573Y0039300D01*
X0202573Y0041800D01*
X0202573Y0044300D01*
X0202573Y0046300D01*
X0202573Y0056800D01*
X0202573Y0059300D01*
X0202573Y0060800D01*
X0208573Y0056800D02*
X0208573Y0031800D01*
X0203573Y0026800D01*
X0203573Y0005800D01*
X0028337Y0144300D02*
X0028337Y0149564D01*
X0028573Y0149800D01*
X0052573Y0149800D02*
X0052573Y0160300D01*
X0051073Y0161800D01*
X0058573Y0153454D02*
X0058573Y0152800D01*
X0059573Y0150800D01*
X0059573Y0147800D01*
X0043573Y0169300D02*
X0036073Y0169300D01*
X0028573Y0176800D01*
X0051093Y0208320D02*
X0047612Y0211800D01*
X0043573Y0211800D01*
X0099573Y0261800D02*
X0102226Y0264454D01*
X0105573Y0264454D01*
X0108573Y0291800D02*
X0116073Y0299300D01*
X0121573Y0299300D01*
X0128573Y0292300D01*
X0064439Y0301800D02*
X0064439Y0307934D01*
X0061573Y0310800D01*
X0055373Y0304600D01*
X0042473Y0304600D01*
X0117573Y0201800D02*
X0117573Y0200800D01*
X0117573Y0201800D02*
X0118573Y0201800D01*
X0378573Y0255540D02*
X0378833Y0255800D01*
D47*
X0268573Y0199300D02*
X0266073Y0196800D01*
X0183573Y0196800D01*
X0178573Y0201800D01*
X0177573Y0201800D01*
X0082864Y0131300D02*
X0082431Y0131367D01*
X0103573Y0079300D02*
X0098573Y0074300D01*
X0202396Y0059477D02*
X0202573Y0059300D01*
X0202455Y0056918D02*
X0202573Y0056800D01*
X0202191Y0046682D02*
X0202573Y0046300D01*
X0202573Y0044300D02*
X0202396Y0044123D01*
X0202573Y0041800D02*
X0202514Y0041741D01*
X0202573Y0039300D02*
X0202455Y0039182D01*
X0202573Y0036800D02*
X0202396Y0036623D01*
X0233455Y0056918D02*
X0236073Y0056800D01*
X0256073Y0056800D01*
X0318073Y0075300D02*
X0318073Y0076300D01*
X0318573Y0076800D01*
X0324911Y0076800D01*
X0325089Y0076977D01*
X0325089Y0074418D02*
X0318955Y0074418D01*
X0318073Y0075300D01*
X0317073Y0101800D02*
X0316573Y0102300D01*
X0316573Y0104300D02*
X0316632Y0104359D01*
X0316573Y0106800D02*
X0316691Y0106918D01*
X0316896Y0109477D02*
X0316573Y0109800D01*
X0353573Y0126800D02*
X0396573Y0126800D01*
X0378573Y0116800D02*
X0368573Y0116800D01*
X0368573Y0136800D02*
X0378573Y0136800D01*
X0351073Y0066800D02*
X0361073Y0056800D01*
X0388573Y0056800D01*
X0396073Y0026800D02*
X0366073Y0026800D01*
D48*
X0128573Y0191800D03*
D49*
X0244573Y0218800D03*
D50*
X0313573Y0126800D02*
X0313573Y0086800D01*
X0318573Y0081800D01*
X0318573Y0076800D01*
D51*
X0163573Y0011800D02*
X0163573Y0006800D01*
M02*
