G75*
%MOIN*%
%OFA0B0*%
%FSLAX25Y25*%
%IPPOS*%
%LPD*%
%AMOC8*
5,1,8,0,0,1.08239X$1,22.5*
%
%ADD10C,0.01600*%
%ADD11C,0.06306*%
%ADD12R,0.05124X0.05124*%
%ADD13R,0.05518X0.06306*%
%ADD14C,0.07400*%
%ADD15C,0.05715*%
%ADD16C,0.06400*%
%ADD17R,0.06306X0.05518*%
%ADD18R,0.14180X0.06699*%
%ADD19C,0.19298*%
%ADD20R,0.08400X0.08400*%
%ADD21C,0.08400*%
%ADD22C,0.09000*%
%ADD23C,0.07800*%
%ADD24R,0.05400X0.02900*%
%ADD25OC8,0.06400*%
%ADD26R,0.03353X0.04731*%
%ADD27R,0.09061X0.02762*%
%ADD28R,0.10400X0.20400*%
%ADD29R,0.06699X0.05518*%
%ADD30R,0.05518X0.06699*%
%ADD31R,0.16148X0.06699*%
%ADD32R,0.06699X0.09061*%
%ADD33C,0.05800*%
%ADD34R,0.03937X0.01772*%
%ADD35R,0.07487X0.07093*%
%ADD36C,0.05650*%
%ADD37C,0.00000*%
%ADD38C,0.06200*%
D10*
X0013573Y0009674D02*
X0021447Y0001800D01*
X0399400Y0001800D01*
X0407274Y0009674D01*
X0407274Y0308887D01*
X0399400Y0316761D01*
X0021447Y0316761D01*
X0013573Y0308887D01*
X0013573Y0308800D02*
X0013573Y0009800D01*
D11*
X0143573Y0011800D03*
X0153573Y0011800D03*
X0163573Y0011800D03*
X0173573Y0011800D03*
X0183573Y0011800D03*
X0193573Y0011800D03*
X0213573Y0011800D03*
X0223573Y0011800D03*
X0233573Y0011800D03*
X0243573Y0011800D03*
X0253573Y0011800D03*
X0263573Y0011800D03*
X0273573Y0011800D03*
X0283573Y0011800D03*
X0303573Y0011800D03*
X0313573Y0011800D03*
X0323573Y0011800D03*
X0333573Y0011800D03*
X0343573Y0011800D03*
X0353573Y0011800D03*
X0363573Y0011800D03*
X0373573Y0011800D03*
X0383573Y0031800D03*
X0393573Y0031800D03*
X0393573Y0041800D03*
X0383573Y0041800D03*
X0383573Y0051800D03*
X0393573Y0051800D03*
X0393573Y0061800D03*
X0383573Y0061800D03*
X0383573Y0071800D03*
X0393573Y0071800D03*
X0393573Y0081800D03*
X0383573Y0081800D03*
X0383573Y0091800D03*
X0393573Y0091800D03*
X0393573Y0101800D03*
X0383573Y0101800D03*
X0383573Y0111800D03*
X0393573Y0111800D03*
X0393573Y0121800D03*
X0383573Y0121800D03*
X0383573Y0131800D03*
X0393573Y0131800D03*
X0393573Y0141800D03*
X0383573Y0141800D03*
X0383573Y0151800D03*
X0393573Y0151800D03*
X0393573Y0161800D03*
X0383573Y0161800D03*
X0383573Y0171800D03*
X0393573Y0171800D03*
X0393573Y0181800D03*
X0383573Y0181800D03*
X0383573Y0191800D03*
X0393573Y0191800D03*
X0393573Y0201800D03*
X0383573Y0201800D03*
X0353573Y0201800D03*
X0343573Y0201800D03*
X0333573Y0201800D03*
X0323573Y0201800D03*
X0313573Y0201800D03*
X0303573Y0201800D03*
X0293573Y0201800D03*
X0283573Y0201800D03*
X0263573Y0201800D03*
X0253573Y0201800D03*
X0243573Y0201800D03*
X0233573Y0201800D03*
X0223573Y0201800D03*
X0213573Y0201800D03*
X0203573Y0201800D03*
X0193573Y0201800D03*
X0177573Y0201800D03*
X0167573Y0201800D03*
X0157573Y0201800D03*
X0147573Y0201800D03*
X0137573Y0201800D03*
X0127573Y0201800D03*
X0117573Y0201800D03*
X0107573Y0201800D03*
D12*
X0072707Y0271800D03*
X0064439Y0271800D03*
X0064439Y0281800D03*
X0072707Y0281800D03*
X0072707Y0291800D03*
X0064439Y0291800D03*
X0064439Y0301800D03*
X0072707Y0301800D03*
X0183573Y0302666D03*
X0183573Y0310934D03*
X0273573Y0310934D03*
X0273573Y0302666D03*
X0363573Y0302666D03*
X0363573Y0310934D03*
X0127707Y0011800D03*
X0119439Y0011800D03*
D13*
X0119833Y0019800D03*
X0127313Y0019800D03*
X0126919Y0046800D03*
X0120226Y0046800D03*
X0140226Y0046800D03*
X0146919Y0046800D03*
X0026919Y0176800D03*
X0020226Y0176800D03*
X0159833Y0231800D03*
X0167313Y0231800D03*
X0249833Y0231800D03*
X0257313Y0231800D03*
X0339833Y0231800D03*
X0347313Y0231800D03*
D14*
X0348573Y0301800D03*
X0338573Y0301800D03*
X0328573Y0301800D03*
X0318573Y0301800D03*
X0258573Y0301800D03*
X0248573Y0301800D03*
X0238573Y0301800D03*
X0228573Y0301800D03*
X0168573Y0301800D03*
X0158573Y0301800D03*
X0148573Y0301800D03*
X0138573Y0301800D03*
X0213573Y0021800D03*
X0223573Y0021800D03*
X0233573Y0021800D03*
X0243573Y0021800D03*
X0253573Y0021800D03*
X0263573Y0021800D03*
X0273573Y0021800D03*
X0283573Y0021800D03*
X0303573Y0021800D03*
X0313573Y0021800D03*
X0323573Y0021800D03*
X0333573Y0021800D03*
X0343573Y0021800D03*
X0353573Y0021800D03*
X0363573Y0021800D03*
X0373573Y0021800D03*
D15*
X0373573Y0121800D03*
X0373573Y0131800D03*
X0373573Y0141800D03*
X0368573Y0241800D03*
X0358573Y0241800D03*
X0348573Y0241800D03*
X0338573Y0241800D03*
X0328573Y0241800D03*
X0318573Y0241800D03*
X0308573Y0241800D03*
X0298573Y0241800D03*
X0278573Y0241800D03*
X0268573Y0241800D03*
X0258573Y0241800D03*
X0248573Y0241800D03*
X0238573Y0241800D03*
X0228573Y0241800D03*
X0218573Y0241800D03*
X0208573Y0241800D03*
X0188573Y0241800D03*
X0178573Y0241800D03*
X0168573Y0241800D03*
X0158573Y0241800D03*
X0148573Y0241800D03*
X0138573Y0241800D03*
X0128573Y0241800D03*
X0118573Y0241800D03*
X0118573Y0291800D03*
X0128573Y0291800D03*
X0138573Y0291800D03*
X0148573Y0291800D03*
X0158573Y0291800D03*
X0168573Y0291800D03*
X0178573Y0291800D03*
X0188573Y0291800D03*
X0208573Y0291800D03*
X0218573Y0291800D03*
X0228573Y0291800D03*
X0238573Y0291800D03*
X0248573Y0291800D03*
X0258573Y0291800D03*
X0268573Y0291800D03*
X0278573Y0291800D03*
X0298573Y0291800D03*
X0308573Y0291800D03*
X0318573Y0291800D03*
X0328573Y0291800D03*
X0338573Y0291800D03*
X0348573Y0291800D03*
X0358573Y0291800D03*
X0368573Y0291800D03*
D16*
X0383573Y0291800D03*
X0393573Y0291800D03*
X0393573Y0281800D03*
X0383573Y0281800D03*
X0383573Y0271800D03*
X0393573Y0271800D03*
X0393573Y0256800D03*
X0383573Y0256800D03*
X0383573Y0246800D03*
X0393573Y0246800D03*
X0393573Y0236800D03*
X0383573Y0236800D03*
X0108573Y0281800D03*
X0108573Y0291800D03*
X0098573Y0291800D03*
X0088573Y0291800D03*
X0088573Y0281800D03*
X0098573Y0281800D03*
D17*
X0105573Y0271146D03*
X0105573Y0264454D03*
X0193573Y0303060D03*
X0193573Y0310540D03*
X0208573Y0280146D03*
X0208573Y0273454D03*
X0198573Y0255540D03*
X0198573Y0248060D03*
X0288573Y0248060D03*
X0288573Y0255540D03*
X0298573Y0273454D03*
X0298573Y0280146D03*
X0288573Y0303060D03*
X0288573Y0310540D03*
X0373573Y0310540D03*
X0373573Y0303060D03*
X0363573Y0234040D03*
X0363573Y0226560D03*
X0058573Y0160146D03*
X0058573Y0153454D03*
X0053573Y0120146D03*
X0053573Y0113454D03*
X0043573Y0113454D03*
X0043573Y0120146D03*
D18*
X0117943Y0261800D03*
X0139203Y0261800D03*
X0232943Y0261800D03*
X0254203Y0261800D03*
X0307943Y0261800D03*
X0329203Y0261800D03*
D19*
X0055148Y0257194D03*
X0043337Y0238690D03*
X0031919Y0257194D03*
D20*
X0133573Y0278800D03*
X0223573Y0278800D03*
X0313573Y0278800D03*
D21*
X0327352Y0278800D03*
X0341132Y0278800D03*
X0354911Y0278800D03*
X0264911Y0278800D03*
X0251132Y0278800D03*
X0237352Y0278800D03*
X0174911Y0278800D03*
X0161132Y0278800D03*
X0147352Y0278800D03*
D22*
X0028573Y0238493D03*
X0028573Y0224713D03*
D23*
X0024673Y0279000D03*
X0042473Y0279000D03*
X0042473Y0304600D03*
X0024673Y0304600D03*
D24*
X0128573Y0233800D03*
X0128573Y0229800D03*
X0138573Y0229800D03*
X0138573Y0233800D03*
X0148573Y0233572D03*
X0148573Y0230028D03*
X0218573Y0229800D03*
X0218573Y0233800D03*
X0228573Y0233800D03*
X0228573Y0229800D03*
X0238573Y0230028D03*
X0238573Y0233572D03*
X0308573Y0233800D03*
X0308573Y0229800D03*
X0318573Y0229800D03*
X0318573Y0233800D03*
X0328573Y0233572D03*
X0328573Y0230028D03*
D25*
X0082431Y0211367D03*
X0072431Y0211367D03*
X0072431Y0201367D03*
X0082431Y0201367D03*
X0082431Y0191367D03*
X0072431Y0191367D03*
X0072431Y0181367D03*
X0082431Y0181367D03*
X0082431Y0171367D03*
X0072431Y0171367D03*
X0072431Y0161367D03*
X0082431Y0161367D03*
X0082431Y0151367D03*
X0072431Y0151367D03*
X0072431Y0141367D03*
X0082431Y0141367D03*
X0082431Y0131367D03*
X0072431Y0131367D03*
X0072431Y0121367D03*
X0082431Y0121367D03*
X0082431Y0111367D03*
X0072431Y0111367D03*
X0072431Y0101367D03*
X0082431Y0101367D03*
X0082431Y0091367D03*
X0072431Y0091367D03*
X0072431Y0081367D03*
X0082431Y0081367D03*
X0082431Y0071367D03*
X0072431Y0071367D03*
X0072431Y0061367D03*
X0082431Y0061367D03*
X0082431Y0051367D03*
X0072431Y0051367D03*
X0072431Y0041367D03*
X0082431Y0041367D03*
X0082431Y0031367D03*
X0072431Y0031367D03*
X0072431Y0021367D03*
X0082431Y0021367D03*
D26*
X0081073Y0252587D03*
X0086073Y0252587D03*
X0086073Y0261013D03*
X0081073Y0261013D03*
X0076073Y0261013D03*
X0071073Y0261013D03*
X0071073Y0252587D03*
X0076073Y0252587D03*
D27*
X0048809Y0144300D03*
X0048809Y0139300D03*
X0048809Y0134300D03*
X0048809Y0129300D03*
X0028337Y0129300D03*
X0028337Y0134300D03*
X0028337Y0139300D03*
X0028337Y0144300D03*
D28*
X0038573Y0136800D03*
D29*
X0058573Y0135737D03*
X0058573Y0127863D03*
X0027573Y0100737D03*
X0027573Y0092863D03*
D30*
X0024636Y0011800D03*
X0032510Y0011800D03*
X0049636Y0176800D03*
X0057510Y0176800D03*
X0057510Y0221800D03*
X0049636Y0221800D03*
D31*
X0051093Y0199438D03*
X0027077Y0199438D03*
X0026565Y0036800D03*
X0050581Y0036800D03*
D32*
X0051762Y0072312D03*
X0026565Y0072312D03*
D33*
X0043573Y0014500D02*
X0043573Y0009100D01*
X0053573Y0009100D02*
X0053573Y0014500D01*
D34*
X0197057Y0036623D03*
X0197057Y0039182D03*
X0197057Y0041741D03*
X0197057Y0044123D03*
X0197057Y0046682D03*
X0197057Y0049241D03*
X0197057Y0051800D03*
X0197057Y0054359D03*
X0197057Y0056918D03*
X0197057Y0059477D03*
X0220089Y0059477D03*
X0220089Y0056918D03*
X0220089Y0054359D03*
X0220089Y0051800D03*
X0220089Y0049241D03*
X0220089Y0046682D03*
X0220089Y0044123D03*
X0220089Y0041741D03*
X0220089Y0039182D03*
X0220089Y0036623D03*
X0302057Y0054123D03*
X0302057Y0056682D03*
X0302057Y0059241D03*
X0302057Y0061800D03*
X0302057Y0064359D03*
X0302057Y0066918D03*
X0302057Y0069477D03*
X0302057Y0071859D03*
X0302057Y0074418D03*
X0302057Y0076977D03*
X0302057Y0094123D03*
X0302057Y0096682D03*
X0302057Y0099241D03*
X0302057Y0101800D03*
X0302057Y0104359D03*
X0302057Y0106918D03*
X0302057Y0109477D03*
X0302057Y0111859D03*
X0302057Y0114418D03*
X0302057Y0116977D03*
X0325089Y0116977D03*
X0325089Y0114418D03*
X0325089Y0111859D03*
X0325089Y0109477D03*
X0325089Y0106918D03*
X0325089Y0104359D03*
X0325089Y0101800D03*
X0325089Y0099241D03*
X0325089Y0096682D03*
X0325089Y0094123D03*
X0325089Y0076977D03*
X0325089Y0074418D03*
X0325089Y0071859D03*
X0325089Y0069477D03*
X0325089Y0066918D03*
X0325089Y0064359D03*
X0325089Y0061800D03*
X0325089Y0059241D03*
X0325089Y0056682D03*
X0325089Y0054123D03*
X0220089Y0164123D03*
X0220089Y0166682D03*
X0220089Y0169241D03*
X0220089Y0171800D03*
X0220089Y0174359D03*
X0220089Y0176918D03*
X0220089Y0179477D03*
X0220089Y0181859D03*
X0220089Y0184418D03*
X0220089Y0186977D03*
X0197057Y0186977D03*
X0197057Y0184418D03*
X0197057Y0181859D03*
X0197057Y0179477D03*
X0197057Y0176918D03*
X0197057Y0174359D03*
X0197057Y0171800D03*
X0197057Y0169241D03*
X0197057Y0166682D03*
X0197057Y0164123D03*
D35*
X0131644Y0031800D03*
X0115502Y0031800D03*
D36*
X0343573Y0211800D03*
X0353573Y0211800D03*
X0363573Y0131800D03*
X0363573Y0121800D03*
X0363573Y0091800D03*
X0373573Y0091800D03*
X0373573Y0081800D03*
X0373573Y0071800D03*
X0373573Y0061800D03*
X0363573Y0061800D03*
X0363573Y0071800D03*
X0363573Y0081800D03*
D37*
X0360673Y0081800D02*
X0360675Y0081907D01*
X0360681Y0082014D01*
X0360691Y0082121D01*
X0360705Y0082227D01*
X0360722Y0082333D01*
X0360744Y0082438D01*
X0360770Y0082542D01*
X0360799Y0082645D01*
X0360832Y0082747D01*
X0360869Y0082848D01*
X0360909Y0082947D01*
X0360954Y0083044D01*
X0361001Y0083140D01*
X0361053Y0083235D01*
X0361107Y0083327D01*
X0361165Y0083417D01*
X0361227Y0083505D01*
X0361291Y0083590D01*
X0361359Y0083673D01*
X0361430Y0083754D01*
X0361504Y0083832D01*
X0361580Y0083907D01*
X0361659Y0083979D01*
X0361741Y0084048D01*
X0361825Y0084114D01*
X0361912Y0084177D01*
X0362001Y0084237D01*
X0362092Y0084293D01*
X0362185Y0084346D01*
X0362280Y0084396D01*
X0362377Y0084442D01*
X0362476Y0084484D01*
X0362576Y0084523D01*
X0362677Y0084558D01*
X0362779Y0084589D01*
X0362883Y0084617D01*
X0362988Y0084640D01*
X0363093Y0084660D01*
X0363199Y0084676D01*
X0363305Y0084688D01*
X0363412Y0084696D01*
X0363519Y0084700D01*
X0363627Y0084700D01*
X0363734Y0084696D01*
X0363841Y0084688D01*
X0363947Y0084676D01*
X0364053Y0084660D01*
X0364158Y0084640D01*
X0364263Y0084617D01*
X0364367Y0084589D01*
X0364469Y0084558D01*
X0364570Y0084523D01*
X0364670Y0084484D01*
X0364769Y0084442D01*
X0364866Y0084396D01*
X0364961Y0084346D01*
X0365054Y0084293D01*
X0365145Y0084237D01*
X0365234Y0084177D01*
X0365321Y0084114D01*
X0365405Y0084048D01*
X0365487Y0083979D01*
X0365566Y0083907D01*
X0365642Y0083832D01*
X0365716Y0083754D01*
X0365787Y0083673D01*
X0365855Y0083590D01*
X0365919Y0083505D01*
X0365981Y0083417D01*
X0366039Y0083327D01*
X0366093Y0083235D01*
X0366145Y0083140D01*
X0366192Y0083044D01*
X0366237Y0082947D01*
X0366277Y0082848D01*
X0366314Y0082747D01*
X0366347Y0082645D01*
X0366376Y0082542D01*
X0366402Y0082438D01*
X0366424Y0082333D01*
X0366441Y0082227D01*
X0366455Y0082121D01*
X0366465Y0082014D01*
X0366471Y0081907D01*
X0366473Y0081800D01*
X0366471Y0081693D01*
X0366465Y0081586D01*
X0366455Y0081479D01*
X0366441Y0081373D01*
X0366424Y0081267D01*
X0366402Y0081162D01*
X0366376Y0081058D01*
X0366347Y0080955D01*
X0366314Y0080853D01*
X0366277Y0080752D01*
X0366237Y0080653D01*
X0366192Y0080556D01*
X0366145Y0080460D01*
X0366093Y0080365D01*
X0366039Y0080273D01*
X0365981Y0080183D01*
X0365919Y0080095D01*
X0365855Y0080010D01*
X0365787Y0079927D01*
X0365716Y0079846D01*
X0365642Y0079768D01*
X0365566Y0079693D01*
X0365487Y0079621D01*
X0365405Y0079552D01*
X0365321Y0079486D01*
X0365234Y0079423D01*
X0365145Y0079363D01*
X0365054Y0079307D01*
X0364961Y0079254D01*
X0364866Y0079204D01*
X0364769Y0079158D01*
X0364670Y0079116D01*
X0364570Y0079077D01*
X0364469Y0079042D01*
X0364367Y0079011D01*
X0364263Y0078983D01*
X0364158Y0078960D01*
X0364053Y0078940D01*
X0363947Y0078924D01*
X0363841Y0078912D01*
X0363734Y0078904D01*
X0363627Y0078900D01*
X0363519Y0078900D01*
X0363412Y0078904D01*
X0363305Y0078912D01*
X0363199Y0078924D01*
X0363093Y0078940D01*
X0362988Y0078960D01*
X0362883Y0078983D01*
X0362779Y0079011D01*
X0362677Y0079042D01*
X0362576Y0079077D01*
X0362476Y0079116D01*
X0362377Y0079158D01*
X0362280Y0079204D01*
X0362185Y0079254D01*
X0362092Y0079307D01*
X0362001Y0079363D01*
X0361912Y0079423D01*
X0361825Y0079486D01*
X0361741Y0079552D01*
X0361659Y0079621D01*
X0361580Y0079693D01*
X0361504Y0079768D01*
X0361430Y0079846D01*
X0361359Y0079927D01*
X0361291Y0080010D01*
X0361227Y0080095D01*
X0361165Y0080183D01*
X0361107Y0080273D01*
X0361053Y0080365D01*
X0361001Y0080460D01*
X0360954Y0080556D01*
X0360909Y0080653D01*
X0360869Y0080752D01*
X0360832Y0080853D01*
X0360799Y0080955D01*
X0360770Y0081058D01*
X0360744Y0081162D01*
X0360722Y0081267D01*
X0360705Y0081373D01*
X0360691Y0081479D01*
X0360681Y0081586D01*
X0360675Y0081693D01*
X0360673Y0081800D01*
X0360673Y0071800D02*
X0360675Y0071907D01*
X0360681Y0072014D01*
X0360691Y0072121D01*
X0360705Y0072227D01*
X0360722Y0072333D01*
X0360744Y0072438D01*
X0360770Y0072542D01*
X0360799Y0072645D01*
X0360832Y0072747D01*
X0360869Y0072848D01*
X0360909Y0072947D01*
X0360954Y0073044D01*
X0361001Y0073140D01*
X0361053Y0073235D01*
X0361107Y0073327D01*
X0361165Y0073417D01*
X0361227Y0073505D01*
X0361291Y0073590D01*
X0361359Y0073673D01*
X0361430Y0073754D01*
X0361504Y0073832D01*
X0361580Y0073907D01*
X0361659Y0073979D01*
X0361741Y0074048D01*
X0361825Y0074114D01*
X0361912Y0074177D01*
X0362001Y0074237D01*
X0362092Y0074293D01*
X0362185Y0074346D01*
X0362280Y0074396D01*
X0362377Y0074442D01*
X0362476Y0074484D01*
X0362576Y0074523D01*
X0362677Y0074558D01*
X0362779Y0074589D01*
X0362883Y0074617D01*
X0362988Y0074640D01*
X0363093Y0074660D01*
X0363199Y0074676D01*
X0363305Y0074688D01*
X0363412Y0074696D01*
X0363519Y0074700D01*
X0363627Y0074700D01*
X0363734Y0074696D01*
X0363841Y0074688D01*
X0363947Y0074676D01*
X0364053Y0074660D01*
X0364158Y0074640D01*
X0364263Y0074617D01*
X0364367Y0074589D01*
X0364469Y0074558D01*
X0364570Y0074523D01*
X0364670Y0074484D01*
X0364769Y0074442D01*
X0364866Y0074396D01*
X0364961Y0074346D01*
X0365054Y0074293D01*
X0365145Y0074237D01*
X0365234Y0074177D01*
X0365321Y0074114D01*
X0365405Y0074048D01*
X0365487Y0073979D01*
X0365566Y0073907D01*
X0365642Y0073832D01*
X0365716Y0073754D01*
X0365787Y0073673D01*
X0365855Y0073590D01*
X0365919Y0073505D01*
X0365981Y0073417D01*
X0366039Y0073327D01*
X0366093Y0073235D01*
X0366145Y0073140D01*
X0366192Y0073044D01*
X0366237Y0072947D01*
X0366277Y0072848D01*
X0366314Y0072747D01*
X0366347Y0072645D01*
X0366376Y0072542D01*
X0366402Y0072438D01*
X0366424Y0072333D01*
X0366441Y0072227D01*
X0366455Y0072121D01*
X0366465Y0072014D01*
X0366471Y0071907D01*
X0366473Y0071800D01*
X0366471Y0071693D01*
X0366465Y0071586D01*
X0366455Y0071479D01*
X0366441Y0071373D01*
X0366424Y0071267D01*
X0366402Y0071162D01*
X0366376Y0071058D01*
X0366347Y0070955D01*
X0366314Y0070853D01*
X0366277Y0070752D01*
X0366237Y0070653D01*
X0366192Y0070556D01*
X0366145Y0070460D01*
X0366093Y0070365D01*
X0366039Y0070273D01*
X0365981Y0070183D01*
X0365919Y0070095D01*
X0365855Y0070010D01*
X0365787Y0069927D01*
X0365716Y0069846D01*
X0365642Y0069768D01*
X0365566Y0069693D01*
X0365487Y0069621D01*
X0365405Y0069552D01*
X0365321Y0069486D01*
X0365234Y0069423D01*
X0365145Y0069363D01*
X0365054Y0069307D01*
X0364961Y0069254D01*
X0364866Y0069204D01*
X0364769Y0069158D01*
X0364670Y0069116D01*
X0364570Y0069077D01*
X0364469Y0069042D01*
X0364367Y0069011D01*
X0364263Y0068983D01*
X0364158Y0068960D01*
X0364053Y0068940D01*
X0363947Y0068924D01*
X0363841Y0068912D01*
X0363734Y0068904D01*
X0363627Y0068900D01*
X0363519Y0068900D01*
X0363412Y0068904D01*
X0363305Y0068912D01*
X0363199Y0068924D01*
X0363093Y0068940D01*
X0362988Y0068960D01*
X0362883Y0068983D01*
X0362779Y0069011D01*
X0362677Y0069042D01*
X0362576Y0069077D01*
X0362476Y0069116D01*
X0362377Y0069158D01*
X0362280Y0069204D01*
X0362185Y0069254D01*
X0362092Y0069307D01*
X0362001Y0069363D01*
X0361912Y0069423D01*
X0361825Y0069486D01*
X0361741Y0069552D01*
X0361659Y0069621D01*
X0361580Y0069693D01*
X0361504Y0069768D01*
X0361430Y0069846D01*
X0361359Y0069927D01*
X0361291Y0070010D01*
X0361227Y0070095D01*
X0361165Y0070183D01*
X0361107Y0070273D01*
X0361053Y0070365D01*
X0361001Y0070460D01*
X0360954Y0070556D01*
X0360909Y0070653D01*
X0360869Y0070752D01*
X0360832Y0070853D01*
X0360799Y0070955D01*
X0360770Y0071058D01*
X0360744Y0071162D01*
X0360722Y0071267D01*
X0360705Y0071373D01*
X0360691Y0071479D01*
X0360681Y0071586D01*
X0360675Y0071693D01*
X0360673Y0071800D01*
X0360673Y0061800D02*
X0360675Y0061907D01*
X0360681Y0062014D01*
X0360691Y0062121D01*
X0360705Y0062227D01*
X0360722Y0062333D01*
X0360744Y0062438D01*
X0360770Y0062542D01*
X0360799Y0062645D01*
X0360832Y0062747D01*
X0360869Y0062848D01*
X0360909Y0062947D01*
X0360954Y0063044D01*
X0361001Y0063140D01*
X0361053Y0063235D01*
X0361107Y0063327D01*
X0361165Y0063417D01*
X0361227Y0063505D01*
X0361291Y0063590D01*
X0361359Y0063673D01*
X0361430Y0063754D01*
X0361504Y0063832D01*
X0361580Y0063907D01*
X0361659Y0063979D01*
X0361741Y0064048D01*
X0361825Y0064114D01*
X0361912Y0064177D01*
X0362001Y0064237D01*
X0362092Y0064293D01*
X0362185Y0064346D01*
X0362280Y0064396D01*
X0362377Y0064442D01*
X0362476Y0064484D01*
X0362576Y0064523D01*
X0362677Y0064558D01*
X0362779Y0064589D01*
X0362883Y0064617D01*
X0362988Y0064640D01*
X0363093Y0064660D01*
X0363199Y0064676D01*
X0363305Y0064688D01*
X0363412Y0064696D01*
X0363519Y0064700D01*
X0363627Y0064700D01*
X0363734Y0064696D01*
X0363841Y0064688D01*
X0363947Y0064676D01*
X0364053Y0064660D01*
X0364158Y0064640D01*
X0364263Y0064617D01*
X0364367Y0064589D01*
X0364469Y0064558D01*
X0364570Y0064523D01*
X0364670Y0064484D01*
X0364769Y0064442D01*
X0364866Y0064396D01*
X0364961Y0064346D01*
X0365054Y0064293D01*
X0365145Y0064237D01*
X0365234Y0064177D01*
X0365321Y0064114D01*
X0365405Y0064048D01*
X0365487Y0063979D01*
X0365566Y0063907D01*
X0365642Y0063832D01*
X0365716Y0063754D01*
X0365787Y0063673D01*
X0365855Y0063590D01*
X0365919Y0063505D01*
X0365981Y0063417D01*
X0366039Y0063327D01*
X0366093Y0063235D01*
X0366145Y0063140D01*
X0366192Y0063044D01*
X0366237Y0062947D01*
X0366277Y0062848D01*
X0366314Y0062747D01*
X0366347Y0062645D01*
X0366376Y0062542D01*
X0366402Y0062438D01*
X0366424Y0062333D01*
X0366441Y0062227D01*
X0366455Y0062121D01*
X0366465Y0062014D01*
X0366471Y0061907D01*
X0366473Y0061800D01*
X0366471Y0061693D01*
X0366465Y0061586D01*
X0366455Y0061479D01*
X0366441Y0061373D01*
X0366424Y0061267D01*
X0366402Y0061162D01*
X0366376Y0061058D01*
X0366347Y0060955D01*
X0366314Y0060853D01*
X0366277Y0060752D01*
X0366237Y0060653D01*
X0366192Y0060556D01*
X0366145Y0060460D01*
X0366093Y0060365D01*
X0366039Y0060273D01*
X0365981Y0060183D01*
X0365919Y0060095D01*
X0365855Y0060010D01*
X0365787Y0059927D01*
X0365716Y0059846D01*
X0365642Y0059768D01*
X0365566Y0059693D01*
X0365487Y0059621D01*
X0365405Y0059552D01*
X0365321Y0059486D01*
X0365234Y0059423D01*
X0365145Y0059363D01*
X0365054Y0059307D01*
X0364961Y0059254D01*
X0364866Y0059204D01*
X0364769Y0059158D01*
X0364670Y0059116D01*
X0364570Y0059077D01*
X0364469Y0059042D01*
X0364367Y0059011D01*
X0364263Y0058983D01*
X0364158Y0058960D01*
X0364053Y0058940D01*
X0363947Y0058924D01*
X0363841Y0058912D01*
X0363734Y0058904D01*
X0363627Y0058900D01*
X0363519Y0058900D01*
X0363412Y0058904D01*
X0363305Y0058912D01*
X0363199Y0058924D01*
X0363093Y0058940D01*
X0362988Y0058960D01*
X0362883Y0058983D01*
X0362779Y0059011D01*
X0362677Y0059042D01*
X0362576Y0059077D01*
X0362476Y0059116D01*
X0362377Y0059158D01*
X0362280Y0059204D01*
X0362185Y0059254D01*
X0362092Y0059307D01*
X0362001Y0059363D01*
X0361912Y0059423D01*
X0361825Y0059486D01*
X0361741Y0059552D01*
X0361659Y0059621D01*
X0361580Y0059693D01*
X0361504Y0059768D01*
X0361430Y0059846D01*
X0361359Y0059927D01*
X0361291Y0060010D01*
X0361227Y0060095D01*
X0361165Y0060183D01*
X0361107Y0060273D01*
X0361053Y0060365D01*
X0361001Y0060460D01*
X0360954Y0060556D01*
X0360909Y0060653D01*
X0360869Y0060752D01*
X0360832Y0060853D01*
X0360799Y0060955D01*
X0360770Y0061058D01*
X0360744Y0061162D01*
X0360722Y0061267D01*
X0360705Y0061373D01*
X0360691Y0061479D01*
X0360681Y0061586D01*
X0360675Y0061693D01*
X0360673Y0061800D01*
X0370673Y0061800D02*
X0370675Y0061907D01*
X0370681Y0062014D01*
X0370691Y0062121D01*
X0370705Y0062227D01*
X0370722Y0062333D01*
X0370744Y0062438D01*
X0370770Y0062542D01*
X0370799Y0062645D01*
X0370832Y0062747D01*
X0370869Y0062848D01*
X0370909Y0062947D01*
X0370954Y0063044D01*
X0371001Y0063140D01*
X0371053Y0063235D01*
X0371107Y0063327D01*
X0371165Y0063417D01*
X0371227Y0063505D01*
X0371291Y0063590D01*
X0371359Y0063673D01*
X0371430Y0063754D01*
X0371504Y0063832D01*
X0371580Y0063907D01*
X0371659Y0063979D01*
X0371741Y0064048D01*
X0371825Y0064114D01*
X0371912Y0064177D01*
X0372001Y0064237D01*
X0372092Y0064293D01*
X0372185Y0064346D01*
X0372280Y0064396D01*
X0372377Y0064442D01*
X0372476Y0064484D01*
X0372576Y0064523D01*
X0372677Y0064558D01*
X0372779Y0064589D01*
X0372883Y0064617D01*
X0372988Y0064640D01*
X0373093Y0064660D01*
X0373199Y0064676D01*
X0373305Y0064688D01*
X0373412Y0064696D01*
X0373519Y0064700D01*
X0373627Y0064700D01*
X0373734Y0064696D01*
X0373841Y0064688D01*
X0373947Y0064676D01*
X0374053Y0064660D01*
X0374158Y0064640D01*
X0374263Y0064617D01*
X0374367Y0064589D01*
X0374469Y0064558D01*
X0374570Y0064523D01*
X0374670Y0064484D01*
X0374769Y0064442D01*
X0374866Y0064396D01*
X0374961Y0064346D01*
X0375054Y0064293D01*
X0375145Y0064237D01*
X0375234Y0064177D01*
X0375321Y0064114D01*
X0375405Y0064048D01*
X0375487Y0063979D01*
X0375566Y0063907D01*
X0375642Y0063832D01*
X0375716Y0063754D01*
X0375787Y0063673D01*
X0375855Y0063590D01*
X0375919Y0063505D01*
X0375981Y0063417D01*
X0376039Y0063327D01*
X0376093Y0063235D01*
X0376145Y0063140D01*
X0376192Y0063044D01*
X0376237Y0062947D01*
X0376277Y0062848D01*
X0376314Y0062747D01*
X0376347Y0062645D01*
X0376376Y0062542D01*
X0376402Y0062438D01*
X0376424Y0062333D01*
X0376441Y0062227D01*
X0376455Y0062121D01*
X0376465Y0062014D01*
X0376471Y0061907D01*
X0376473Y0061800D01*
X0376471Y0061693D01*
X0376465Y0061586D01*
X0376455Y0061479D01*
X0376441Y0061373D01*
X0376424Y0061267D01*
X0376402Y0061162D01*
X0376376Y0061058D01*
X0376347Y0060955D01*
X0376314Y0060853D01*
X0376277Y0060752D01*
X0376237Y0060653D01*
X0376192Y0060556D01*
X0376145Y0060460D01*
X0376093Y0060365D01*
X0376039Y0060273D01*
X0375981Y0060183D01*
X0375919Y0060095D01*
X0375855Y0060010D01*
X0375787Y0059927D01*
X0375716Y0059846D01*
X0375642Y0059768D01*
X0375566Y0059693D01*
X0375487Y0059621D01*
X0375405Y0059552D01*
X0375321Y0059486D01*
X0375234Y0059423D01*
X0375145Y0059363D01*
X0375054Y0059307D01*
X0374961Y0059254D01*
X0374866Y0059204D01*
X0374769Y0059158D01*
X0374670Y0059116D01*
X0374570Y0059077D01*
X0374469Y0059042D01*
X0374367Y0059011D01*
X0374263Y0058983D01*
X0374158Y0058960D01*
X0374053Y0058940D01*
X0373947Y0058924D01*
X0373841Y0058912D01*
X0373734Y0058904D01*
X0373627Y0058900D01*
X0373519Y0058900D01*
X0373412Y0058904D01*
X0373305Y0058912D01*
X0373199Y0058924D01*
X0373093Y0058940D01*
X0372988Y0058960D01*
X0372883Y0058983D01*
X0372779Y0059011D01*
X0372677Y0059042D01*
X0372576Y0059077D01*
X0372476Y0059116D01*
X0372377Y0059158D01*
X0372280Y0059204D01*
X0372185Y0059254D01*
X0372092Y0059307D01*
X0372001Y0059363D01*
X0371912Y0059423D01*
X0371825Y0059486D01*
X0371741Y0059552D01*
X0371659Y0059621D01*
X0371580Y0059693D01*
X0371504Y0059768D01*
X0371430Y0059846D01*
X0371359Y0059927D01*
X0371291Y0060010D01*
X0371227Y0060095D01*
X0371165Y0060183D01*
X0371107Y0060273D01*
X0371053Y0060365D01*
X0371001Y0060460D01*
X0370954Y0060556D01*
X0370909Y0060653D01*
X0370869Y0060752D01*
X0370832Y0060853D01*
X0370799Y0060955D01*
X0370770Y0061058D01*
X0370744Y0061162D01*
X0370722Y0061267D01*
X0370705Y0061373D01*
X0370691Y0061479D01*
X0370681Y0061586D01*
X0370675Y0061693D01*
X0370673Y0061800D01*
X0370673Y0071800D02*
X0370675Y0071907D01*
X0370681Y0072014D01*
X0370691Y0072121D01*
X0370705Y0072227D01*
X0370722Y0072333D01*
X0370744Y0072438D01*
X0370770Y0072542D01*
X0370799Y0072645D01*
X0370832Y0072747D01*
X0370869Y0072848D01*
X0370909Y0072947D01*
X0370954Y0073044D01*
X0371001Y0073140D01*
X0371053Y0073235D01*
X0371107Y0073327D01*
X0371165Y0073417D01*
X0371227Y0073505D01*
X0371291Y0073590D01*
X0371359Y0073673D01*
X0371430Y0073754D01*
X0371504Y0073832D01*
X0371580Y0073907D01*
X0371659Y0073979D01*
X0371741Y0074048D01*
X0371825Y0074114D01*
X0371912Y0074177D01*
X0372001Y0074237D01*
X0372092Y0074293D01*
X0372185Y0074346D01*
X0372280Y0074396D01*
X0372377Y0074442D01*
X0372476Y0074484D01*
X0372576Y0074523D01*
X0372677Y0074558D01*
X0372779Y0074589D01*
X0372883Y0074617D01*
X0372988Y0074640D01*
X0373093Y0074660D01*
X0373199Y0074676D01*
X0373305Y0074688D01*
X0373412Y0074696D01*
X0373519Y0074700D01*
X0373627Y0074700D01*
X0373734Y0074696D01*
X0373841Y0074688D01*
X0373947Y0074676D01*
X0374053Y0074660D01*
X0374158Y0074640D01*
X0374263Y0074617D01*
X0374367Y0074589D01*
X0374469Y0074558D01*
X0374570Y0074523D01*
X0374670Y0074484D01*
X0374769Y0074442D01*
X0374866Y0074396D01*
X0374961Y0074346D01*
X0375054Y0074293D01*
X0375145Y0074237D01*
X0375234Y0074177D01*
X0375321Y0074114D01*
X0375405Y0074048D01*
X0375487Y0073979D01*
X0375566Y0073907D01*
X0375642Y0073832D01*
X0375716Y0073754D01*
X0375787Y0073673D01*
X0375855Y0073590D01*
X0375919Y0073505D01*
X0375981Y0073417D01*
X0376039Y0073327D01*
X0376093Y0073235D01*
X0376145Y0073140D01*
X0376192Y0073044D01*
X0376237Y0072947D01*
X0376277Y0072848D01*
X0376314Y0072747D01*
X0376347Y0072645D01*
X0376376Y0072542D01*
X0376402Y0072438D01*
X0376424Y0072333D01*
X0376441Y0072227D01*
X0376455Y0072121D01*
X0376465Y0072014D01*
X0376471Y0071907D01*
X0376473Y0071800D01*
X0376471Y0071693D01*
X0376465Y0071586D01*
X0376455Y0071479D01*
X0376441Y0071373D01*
X0376424Y0071267D01*
X0376402Y0071162D01*
X0376376Y0071058D01*
X0376347Y0070955D01*
X0376314Y0070853D01*
X0376277Y0070752D01*
X0376237Y0070653D01*
X0376192Y0070556D01*
X0376145Y0070460D01*
X0376093Y0070365D01*
X0376039Y0070273D01*
X0375981Y0070183D01*
X0375919Y0070095D01*
X0375855Y0070010D01*
X0375787Y0069927D01*
X0375716Y0069846D01*
X0375642Y0069768D01*
X0375566Y0069693D01*
X0375487Y0069621D01*
X0375405Y0069552D01*
X0375321Y0069486D01*
X0375234Y0069423D01*
X0375145Y0069363D01*
X0375054Y0069307D01*
X0374961Y0069254D01*
X0374866Y0069204D01*
X0374769Y0069158D01*
X0374670Y0069116D01*
X0374570Y0069077D01*
X0374469Y0069042D01*
X0374367Y0069011D01*
X0374263Y0068983D01*
X0374158Y0068960D01*
X0374053Y0068940D01*
X0373947Y0068924D01*
X0373841Y0068912D01*
X0373734Y0068904D01*
X0373627Y0068900D01*
X0373519Y0068900D01*
X0373412Y0068904D01*
X0373305Y0068912D01*
X0373199Y0068924D01*
X0373093Y0068940D01*
X0372988Y0068960D01*
X0372883Y0068983D01*
X0372779Y0069011D01*
X0372677Y0069042D01*
X0372576Y0069077D01*
X0372476Y0069116D01*
X0372377Y0069158D01*
X0372280Y0069204D01*
X0372185Y0069254D01*
X0372092Y0069307D01*
X0372001Y0069363D01*
X0371912Y0069423D01*
X0371825Y0069486D01*
X0371741Y0069552D01*
X0371659Y0069621D01*
X0371580Y0069693D01*
X0371504Y0069768D01*
X0371430Y0069846D01*
X0371359Y0069927D01*
X0371291Y0070010D01*
X0371227Y0070095D01*
X0371165Y0070183D01*
X0371107Y0070273D01*
X0371053Y0070365D01*
X0371001Y0070460D01*
X0370954Y0070556D01*
X0370909Y0070653D01*
X0370869Y0070752D01*
X0370832Y0070853D01*
X0370799Y0070955D01*
X0370770Y0071058D01*
X0370744Y0071162D01*
X0370722Y0071267D01*
X0370705Y0071373D01*
X0370691Y0071479D01*
X0370681Y0071586D01*
X0370675Y0071693D01*
X0370673Y0071800D01*
X0370673Y0081800D02*
X0370675Y0081907D01*
X0370681Y0082014D01*
X0370691Y0082121D01*
X0370705Y0082227D01*
X0370722Y0082333D01*
X0370744Y0082438D01*
X0370770Y0082542D01*
X0370799Y0082645D01*
X0370832Y0082747D01*
X0370869Y0082848D01*
X0370909Y0082947D01*
X0370954Y0083044D01*
X0371001Y0083140D01*
X0371053Y0083235D01*
X0371107Y0083327D01*
X0371165Y0083417D01*
X0371227Y0083505D01*
X0371291Y0083590D01*
X0371359Y0083673D01*
X0371430Y0083754D01*
X0371504Y0083832D01*
X0371580Y0083907D01*
X0371659Y0083979D01*
X0371741Y0084048D01*
X0371825Y0084114D01*
X0371912Y0084177D01*
X0372001Y0084237D01*
X0372092Y0084293D01*
X0372185Y0084346D01*
X0372280Y0084396D01*
X0372377Y0084442D01*
X0372476Y0084484D01*
X0372576Y0084523D01*
X0372677Y0084558D01*
X0372779Y0084589D01*
X0372883Y0084617D01*
X0372988Y0084640D01*
X0373093Y0084660D01*
X0373199Y0084676D01*
X0373305Y0084688D01*
X0373412Y0084696D01*
X0373519Y0084700D01*
X0373627Y0084700D01*
X0373734Y0084696D01*
X0373841Y0084688D01*
X0373947Y0084676D01*
X0374053Y0084660D01*
X0374158Y0084640D01*
X0374263Y0084617D01*
X0374367Y0084589D01*
X0374469Y0084558D01*
X0374570Y0084523D01*
X0374670Y0084484D01*
X0374769Y0084442D01*
X0374866Y0084396D01*
X0374961Y0084346D01*
X0375054Y0084293D01*
X0375145Y0084237D01*
X0375234Y0084177D01*
X0375321Y0084114D01*
X0375405Y0084048D01*
X0375487Y0083979D01*
X0375566Y0083907D01*
X0375642Y0083832D01*
X0375716Y0083754D01*
X0375787Y0083673D01*
X0375855Y0083590D01*
X0375919Y0083505D01*
X0375981Y0083417D01*
X0376039Y0083327D01*
X0376093Y0083235D01*
X0376145Y0083140D01*
X0376192Y0083044D01*
X0376237Y0082947D01*
X0376277Y0082848D01*
X0376314Y0082747D01*
X0376347Y0082645D01*
X0376376Y0082542D01*
X0376402Y0082438D01*
X0376424Y0082333D01*
X0376441Y0082227D01*
X0376455Y0082121D01*
X0376465Y0082014D01*
X0376471Y0081907D01*
X0376473Y0081800D01*
X0376471Y0081693D01*
X0376465Y0081586D01*
X0376455Y0081479D01*
X0376441Y0081373D01*
X0376424Y0081267D01*
X0376402Y0081162D01*
X0376376Y0081058D01*
X0376347Y0080955D01*
X0376314Y0080853D01*
X0376277Y0080752D01*
X0376237Y0080653D01*
X0376192Y0080556D01*
X0376145Y0080460D01*
X0376093Y0080365D01*
X0376039Y0080273D01*
X0375981Y0080183D01*
X0375919Y0080095D01*
X0375855Y0080010D01*
X0375787Y0079927D01*
X0375716Y0079846D01*
X0375642Y0079768D01*
X0375566Y0079693D01*
X0375487Y0079621D01*
X0375405Y0079552D01*
X0375321Y0079486D01*
X0375234Y0079423D01*
X0375145Y0079363D01*
X0375054Y0079307D01*
X0374961Y0079254D01*
X0374866Y0079204D01*
X0374769Y0079158D01*
X0374670Y0079116D01*
X0374570Y0079077D01*
X0374469Y0079042D01*
X0374367Y0079011D01*
X0374263Y0078983D01*
X0374158Y0078960D01*
X0374053Y0078940D01*
X0373947Y0078924D01*
X0373841Y0078912D01*
X0373734Y0078904D01*
X0373627Y0078900D01*
X0373519Y0078900D01*
X0373412Y0078904D01*
X0373305Y0078912D01*
X0373199Y0078924D01*
X0373093Y0078940D01*
X0372988Y0078960D01*
X0372883Y0078983D01*
X0372779Y0079011D01*
X0372677Y0079042D01*
X0372576Y0079077D01*
X0372476Y0079116D01*
X0372377Y0079158D01*
X0372280Y0079204D01*
X0372185Y0079254D01*
X0372092Y0079307D01*
X0372001Y0079363D01*
X0371912Y0079423D01*
X0371825Y0079486D01*
X0371741Y0079552D01*
X0371659Y0079621D01*
X0371580Y0079693D01*
X0371504Y0079768D01*
X0371430Y0079846D01*
X0371359Y0079927D01*
X0371291Y0080010D01*
X0371227Y0080095D01*
X0371165Y0080183D01*
X0371107Y0080273D01*
X0371053Y0080365D01*
X0371001Y0080460D01*
X0370954Y0080556D01*
X0370909Y0080653D01*
X0370869Y0080752D01*
X0370832Y0080853D01*
X0370799Y0080955D01*
X0370770Y0081058D01*
X0370744Y0081162D01*
X0370722Y0081267D01*
X0370705Y0081373D01*
X0370691Y0081479D01*
X0370681Y0081586D01*
X0370675Y0081693D01*
X0370673Y0081800D01*
X0370673Y0091800D02*
X0370675Y0091907D01*
X0370681Y0092014D01*
X0370691Y0092121D01*
X0370705Y0092227D01*
X0370722Y0092333D01*
X0370744Y0092438D01*
X0370770Y0092542D01*
X0370799Y0092645D01*
X0370832Y0092747D01*
X0370869Y0092848D01*
X0370909Y0092947D01*
X0370954Y0093044D01*
X0371001Y0093140D01*
X0371053Y0093235D01*
X0371107Y0093327D01*
X0371165Y0093417D01*
X0371227Y0093505D01*
X0371291Y0093590D01*
X0371359Y0093673D01*
X0371430Y0093754D01*
X0371504Y0093832D01*
X0371580Y0093907D01*
X0371659Y0093979D01*
X0371741Y0094048D01*
X0371825Y0094114D01*
X0371912Y0094177D01*
X0372001Y0094237D01*
X0372092Y0094293D01*
X0372185Y0094346D01*
X0372280Y0094396D01*
X0372377Y0094442D01*
X0372476Y0094484D01*
X0372576Y0094523D01*
X0372677Y0094558D01*
X0372779Y0094589D01*
X0372883Y0094617D01*
X0372988Y0094640D01*
X0373093Y0094660D01*
X0373199Y0094676D01*
X0373305Y0094688D01*
X0373412Y0094696D01*
X0373519Y0094700D01*
X0373627Y0094700D01*
X0373734Y0094696D01*
X0373841Y0094688D01*
X0373947Y0094676D01*
X0374053Y0094660D01*
X0374158Y0094640D01*
X0374263Y0094617D01*
X0374367Y0094589D01*
X0374469Y0094558D01*
X0374570Y0094523D01*
X0374670Y0094484D01*
X0374769Y0094442D01*
X0374866Y0094396D01*
X0374961Y0094346D01*
X0375054Y0094293D01*
X0375145Y0094237D01*
X0375234Y0094177D01*
X0375321Y0094114D01*
X0375405Y0094048D01*
X0375487Y0093979D01*
X0375566Y0093907D01*
X0375642Y0093832D01*
X0375716Y0093754D01*
X0375787Y0093673D01*
X0375855Y0093590D01*
X0375919Y0093505D01*
X0375981Y0093417D01*
X0376039Y0093327D01*
X0376093Y0093235D01*
X0376145Y0093140D01*
X0376192Y0093044D01*
X0376237Y0092947D01*
X0376277Y0092848D01*
X0376314Y0092747D01*
X0376347Y0092645D01*
X0376376Y0092542D01*
X0376402Y0092438D01*
X0376424Y0092333D01*
X0376441Y0092227D01*
X0376455Y0092121D01*
X0376465Y0092014D01*
X0376471Y0091907D01*
X0376473Y0091800D01*
X0376471Y0091693D01*
X0376465Y0091586D01*
X0376455Y0091479D01*
X0376441Y0091373D01*
X0376424Y0091267D01*
X0376402Y0091162D01*
X0376376Y0091058D01*
X0376347Y0090955D01*
X0376314Y0090853D01*
X0376277Y0090752D01*
X0376237Y0090653D01*
X0376192Y0090556D01*
X0376145Y0090460D01*
X0376093Y0090365D01*
X0376039Y0090273D01*
X0375981Y0090183D01*
X0375919Y0090095D01*
X0375855Y0090010D01*
X0375787Y0089927D01*
X0375716Y0089846D01*
X0375642Y0089768D01*
X0375566Y0089693D01*
X0375487Y0089621D01*
X0375405Y0089552D01*
X0375321Y0089486D01*
X0375234Y0089423D01*
X0375145Y0089363D01*
X0375054Y0089307D01*
X0374961Y0089254D01*
X0374866Y0089204D01*
X0374769Y0089158D01*
X0374670Y0089116D01*
X0374570Y0089077D01*
X0374469Y0089042D01*
X0374367Y0089011D01*
X0374263Y0088983D01*
X0374158Y0088960D01*
X0374053Y0088940D01*
X0373947Y0088924D01*
X0373841Y0088912D01*
X0373734Y0088904D01*
X0373627Y0088900D01*
X0373519Y0088900D01*
X0373412Y0088904D01*
X0373305Y0088912D01*
X0373199Y0088924D01*
X0373093Y0088940D01*
X0372988Y0088960D01*
X0372883Y0088983D01*
X0372779Y0089011D01*
X0372677Y0089042D01*
X0372576Y0089077D01*
X0372476Y0089116D01*
X0372377Y0089158D01*
X0372280Y0089204D01*
X0372185Y0089254D01*
X0372092Y0089307D01*
X0372001Y0089363D01*
X0371912Y0089423D01*
X0371825Y0089486D01*
X0371741Y0089552D01*
X0371659Y0089621D01*
X0371580Y0089693D01*
X0371504Y0089768D01*
X0371430Y0089846D01*
X0371359Y0089927D01*
X0371291Y0090010D01*
X0371227Y0090095D01*
X0371165Y0090183D01*
X0371107Y0090273D01*
X0371053Y0090365D01*
X0371001Y0090460D01*
X0370954Y0090556D01*
X0370909Y0090653D01*
X0370869Y0090752D01*
X0370832Y0090853D01*
X0370799Y0090955D01*
X0370770Y0091058D01*
X0370744Y0091162D01*
X0370722Y0091267D01*
X0370705Y0091373D01*
X0370691Y0091479D01*
X0370681Y0091586D01*
X0370675Y0091693D01*
X0370673Y0091800D01*
X0360673Y0091800D02*
X0360675Y0091907D01*
X0360681Y0092014D01*
X0360691Y0092121D01*
X0360705Y0092227D01*
X0360722Y0092333D01*
X0360744Y0092438D01*
X0360770Y0092542D01*
X0360799Y0092645D01*
X0360832Y0092747D01*
X0360869Y0092848D01*
X0360909Y0092947D01*
X0360954Y0093044D01*
X0361001Y0093140D01*
X0361053Y0093235D01*
X0361107Y0093327D01*
X0361165Y0093417D01*
X0361227Y0093505D01*
X0361291Y0093590D01*
X0361359Y0093673D01*
X0361430Y0093754D01*
X0361504Y0093832D01*
X0361580Y0093907D01*
X0361659Y0093979D01*
X0361741Y0094048D01*
X0361825Y0094114D01*
X0361912Y0094177D01*
X0362001Y0094237D01*
X0362092Y0094293D01*
X0362185Y0094346D01*
X0362280Y0094396D01*
X0362377Y0094442D01*
X0362476Y0094484D01*
X0362576Y0094523D01*
X0362677Y0094558D01*
X0362779Y0094589D01*
X0362883Y0094617D01*
X0362988Y0094640D01*
X0363093Y0094660D01*
X0363199Y0094676D01*
X0363305Y0094688D01*
X0363412Y0094696D01*
X0363519Y0094700D01*
X0363627Y0094700D01*
X0363734Y0094696D01*
X0363841Y0094688D01*
X0363947Y0094676D01*
X0364053Y0094660D01*
X0364158Y0094640D01*
X0364263Y0094617D01*
X0364367Y0094589D01*
X0364469Y0094558D01*
X0364570Y0094523D01*
X0364670Y0094484D01*
X0364769Y0094442D01*
X0364866Y0094396D01*
X0364961Y0094346D01*
X0365054Y0094293D01*
X0365145Y0094237D01*
X0365234Y0094177D01*
X0365321Y0094114D01*
X0365405Y0094048D01*
X0365487Y0093979D01*
X0365566Y0093907D01*
X0365642Y0093832D01*
X0365716Y0093754D01*
X0365787Y0093673D01*
X0365855Y0093590D01*
X0365919Y0093505D01*
X0365981Y0093417D01*
X0366039Y0093327D01*
X0366093Y0093235D01*
X0366145Y0093140D01*
X0366192Y0093044D01*
X0366237Y0092947D01*
X0366277Y0092848D01*
X0366314Y0092747D01*
X0366347Y0092645D01*
X0366376Y0092542D01*
X0366402Y0092438D01*
X0366424Y0092333D01*
X0366441Y0092227D01*
X0366455Y0092121D01*
X0366465Y0092014D01*
X0366471Y0091907D01*
X0366473Y0091800D01*
X0366471Y0091693D01*
X0366465Y0091586D01*
X0366455Y0091479D01*
X0366441Y0091373D01*
X0366424Y0091267D01*
X0366402Y0091162D01*
X0366376Y0091058D01*
X0366347Y0090955D01*
X0366314Y0090853D01*
X0366277Y0090752D01*
X0366237Y0090653D01*
X0366192Y0090556D01*
X0366145Y0090460D01*
X0366093Y0090365D01*
X0366039Y0090273D01*
X0365981Y0090183D01*
X0365919Y0090095D01*
X0365855Y0090010D01*
X0365787Y0089927D01*
X0365716Y0089846D01*
X0365642Y0089768D01*
X0365566Y0089693D01*
X0365487Y0089621D01*
X0365405Y0089552D01*
X0365321Y0089486D01*
X0365234Y0089423D01*
X0365145Y0089363D01*
X0365054Y0089307D01*
X0364961Y0089254D01*
X0364866Y0089204D01*
X0364769Y0089158D01*
X0364670Y0089116D01*
X0364570Y0089077D01*
X0364469Y0089042D01*
X0364367Y0089011D01*
X0364263Y0088983D01*
X0364158Y0088960D01*
X0364053Y0088940D01*
X0363947Y0088924D01*
X0363841Y0088912D01*
X0363734Y0088904D01*
X0363627Y0088900D01*
X0363519Y0088900D01*
X0363412Y0088904D01*
X0363305Y0088912D01*
X0363199Y0088924D01*
X0363093Y0088940D01*
X0362988Y0088960D01*
X0362883Y0088983D01*
X0362779Y0089011D01*
X0362677Y0089042D01*
X0362576Y0089077D01*
X0362476Y0089116D01*
X0362377Y0089158D01*
X0362280Y0089204D01*
X0362185Y0089254D01*
X0362092Y0089307D01*
X0362001Y0089363D01*
X0361912Y0089423D01*
X0361825Y0089486D01*
X0361741Y0089552D01*
X0361659Y0089621D01*
X0361580Y0089693D01*
X0361504Y0089768D01*
X0361430Y0089846D01*
X0361359Y0089927D01*
X0361291Y0090010D01*
X0361227Y0090095D01*
X0361165Y0090183D01*
X0361107Y0090273D01*
X0361053Y0090365D01*
X0361001Y0090460D01*
X0360954Y0090556D01*
X0360909Y0090653D01*
X0360869Y0090752D01*
X0360832Y0090853D01*
X0360799Y0090955D01*
X0360770Y0091058D01*
X0360744Y0091162D01*
X0360722Y0091267D01*
X0360705Y0091373D01*
X0360691Y0091479D01*
X0360681Y0091586D01*
X0360675Y0091693D01*
X0360673Y0091800D01*
X0360673Y0121800D02*
X0360675Y0121907D01*
X0360681Y0122014D01*
X0360691Y0122121D01*
X0360705Y0122227D01*
X0360722Y0122333D01*
X0360744Y0122438D01*
X0360770Y0122542D01*
X0360799Y0122645D01*
X0360832Y0122747D01*
X0360869Y0122848D01*
X0360909Y0122947D01*
X0360954Y0123044D01*
X0361001Y0123140D01*
X0361053Y0123235D01*
X0361107Y0123327D01*
X0361165Y0123417D01*
X0361227Y0123505D01*
X0361291Y0123590D01*
X0361359Y0123673D01*
X0361430Y0123754D01*
X0361504Y0123832D01*
X0361580Y0123907D01*
X0361659Y0123979D01*
X0361741Y0124048D01*
X0361825Y0124114D01*
X0361912Y0124177D01*
X0362001Y0124237D01*
X0362092Y0124293D01*
X0362185Y0124346D01*
X0362280Y0124396D01*
X0362377Y0124442D01*
X0362476Y0124484D01*
X0362576Y0124523D01*
X0362677Y0124558D01*
X0362779Y0124589D01*
X0362883Y0124617D01*
X0362988Y0124640D01*
X0363093Y0124660D01*
X0363199Y0124676D01*
X0363305Y0124688D01*
X0363412Y0124696D01*
X0363519Y0124700D01*
X0363627Y0124700D01*
X0363734Y0124696D01*
X0363841Y0124688D01*
X0363947Y0124676D01*
X0364053Y0124660D01*
X0364158Y0124640D01*
X0364263Y0124617D01*
X0364367Y0124589D01*
X0364469Y0124558D01*
X0364570Y0124523D01*
X0364670Y0124484D01*
X0364769Y0124442D01*
X0364866Y0124396D01*
X0364961Y0124346D01*
X0365054Y0124293D01*
X0365145Y0124237D01*
X0365234Y0124177D01*
X0365321Y0124114D01*
X0365405Y0124048D01*
X0365487Y0123979D01*
X0365566Y0123907D01*
X0365642Y0123832D01*
X0365716Y0123754D01*
X0365787Y0123673D01*
X0365855Y0123590D01*
X0365919Y0123505D01*
X0365981Y0123417D01*
X0366039Y0123327D01*
X0366093Y0123235D01*
X0366145Y0123140D01*
X0366192Y0123044D01*
X0366237Y0122947D01*
X0366277Y0122848D01*
X0366314Y0122747D01*
X0366347Y0122645D01*
X0366376Y0122542D01*
X0366402Y0122438D01*
X0366424Y0122333D01*
X0366441Y0122227D01*
X0366455Y0122121D01*
X0366465Y0122014D01*
X0366471Y0121907D01*
X0366473Y0121800D01*
X0366471Y0121693D01*
X0366465Y0121586D01*
X0366455Y0121479D01*
X0366441Y0121373D01*
X0366424Y0121267D01*
X0366402Y0121162D01*
X0366376Y0121058D01*
X0366347Y0120955D01*
X0366314Y0120853D01*
X0366277Y0120752D01*
X0366237Y0120653D01*
X0366192Y0120556D01*
X0366145Y0120460D01*
X0366093Y0120365D01*
X0366039Y0120273D01*
X0365981Y0120183D01*
X0365919Y0120095D01*
X0365855Y0120010D01*
X0365787Y0119927D01*
X0365716Y0119846D01*
X0365642Y0119768D01*
X0365566Y0119693D01*
X0365487Y0119621D01*
X0365405Y0119552D01*
X0365321Y0119486D01*
X0365234Y0119423D01*
X0365145Y0119363D01*
X0365054Y0119307D01*
X0364961Y0119254D01*
X0364866Y0119204D01*
X0364769Y0119158D01*
X0364670Y0119116D01*
X0364570Y0119077D01*
X0364469Y0119042D01*
X0364367Y0119011D01*
X0364263Y0118983D01*
X0364158Y0118960D01*
X0364053Y0118940D01*
X0363947Y0118924D01*
X0363841Y0118912D01*
X0363734Y0118904D01*
X0363627Y0118900D01*
X0363519Y0118900D01*
X0363412Y0118904D01*
X0363305Y0118912D01*
X0363199Y0118924D01*
X0363093Y0118940D01*
X0362988Y0118960D01*
X0362883Y0118983D01*
X0362779Y0119011D01*
X0362677Y0119042D01*
X0362576Y0119077D01*
X0362476Y0119116D01*
X0362377Y0119158D01*
X0362280Y0119204D01*
X0362185Y0119254D01*
X0362092Y0119307D01*
X0362001Y0119363D01*
X0361912Y0119423D01*
X0361825Y0119486D01*
X0361741Y0119552D01*
X0361659Y0119621D01*
X0361580Y0119693D01*
X0361504Y0119768D01*
X0361430Y0119846D01*
X0361359Y0119927D01*
X0361291Y0120010D01*
X0361227Y0120095D01*
X0361165Y0120183D01*
X0361107Y0120273D01*
X0361053Y0120365D01*
X0361001Y0120460D01*
X0360954Y0120556D01*
X0360909Y0120653D01*
X0360869Y0120752D01*
X0360832Y0120853D01*
X0360799Y0120955D01*
X0360770Y0121058D01*
X0360744Y0121162D01*
X0360722Y0121267D01*
X0360705Y0121373D01*
X0360691Y0121479D01*
X0360681Y0121586D01*
X0360675Y0121693D01*
X0360673Y0121800D01*
X0360673Y0131800D02*
X0360675Y0131907D01*
X0360681Y0132014D01*
X0360691Y0132121D01*
X0360705Y0132227D01*
X0360722Y0132333D01*
X0360744Y0132438D01*
X0360770Y0132542D01*
X0360799Y0132645D01*
X0360832Y0132747D01*
X0360869Y0132848D01*
X0360909Y0132947D01*
X0360954Y0133044D01*
X0361001Y0133140D01*
X0361053Y0133235D01*
X0361107Y0133327D01*
X0361165Y0133417D01*
X0361227Y0133505D01*
X0361291Y0133590D01*
X0361359Y0133673D01*
X0361430Y0133754D01*
X0361504Y0133832D01*
X0361580Y0133907D01*
X0361659Y0133979D01*
X0361741Y0134048D01*
X0361825Y0134114D01*
X0361912Y0134177D01*
X0362001Y0134237D01*
X0362092Y0134293D01*
X0362185Y0134346D01*
X0362280Y0134396D01*
X0362377Y0134442D01*
X0362476Y0134484D01*
X0362576Y0134523D01*
X0362677Y0134558D01*
X0362779Y0134589D01*
X0362883Y0134617D01*
X0362988Y0134640D01*
X0363093Y0134660D01*
X0363199Y0134676D01*
X0363305Y0134688D01*
X0363412Y0134696D01*
X0363519Y0134700D01*
X0363627Y0134700D01*
X0363734Y0134696D01*
X0363841Y0134688D01*
X0363947Y0134676D01*
X0364053Y0134660D01*
X0364158Y0134640D01*
X0364263Y0134617D01*
X0364367Y0134589D01*
X0364469Y0134558D01*
X0364570Y0134523D01*
X0364670Y0134484D01*
X0364769Y0134442D01*
X0364866Y0134396D01*
X0364961Y0134346D01*
X0365054Y0134293D01*
X0365145Y0134237D01*
X0365234Y0134177D01*
X0365321Y0134114D01*
X0365405Y0134048D01*
X0365487Y0133979D01*
X0365566Y0133907D01*
X0365642Y0133832D01*
X0365716Y0133754D01*
X0365787Y0133673D01*
X0365855Y0133590D01*
X0365919Y0133505D01*
X0365981Y0133417D01*
X0366039Y0133327D01*
X0366093Y0133235D01*
X0366145Y0133140D01*
X0366192Y0133044D01*
X0366237Y0132947D01*
X0366277Y0132848D01*
X0366314Y0132747D01*
X0366347Y0132645D01*
X0366376Y0132542D01*
X0366402Y0132438D01*
X0366424Y0132333D01*
X0366441Y0132227D01*
X0366455Y0132121D01*
X0366465Y0132014D01*
X0366471Y0131907D01*
X0366473Y0131800D01*
X0366471Y0131693D01*
X0366465Y0131586D01*
X0366455Y0131479D01*
X0366441Y0131373D01*
X0366424Y0131267D01*
X0366402Y0131162D01*
X0366376Y0131058D01*
X0366347Y0130955D01*
X0366314Y0130853D01*
X0366277Y0130752D01*
X0366237Y0130653D01*
X0366192Y0130556D01*
X0366145Y0130460D01*
X0366093Y0130365D01*
X0366039Y0130273D01*
X0365981Y0130183D01*
X0365919Y0130095D01*
X0365855Y0130010D01*
X0365787Y0129927D01*
X0365716Y0129846D01*
X0365642Y0129768D01*
X0365566Y0129693D01*
X0365487Y0129621D01*
X0365405Y0129552D01*
X0365321Y0129486D01*
X0365234Y0129423D01*
X0365145Y0129363D01*
X0365054Y0129307D01*
X0364961Y0129254D01*
X0364866Y0129204D01*
X0364769Y0129158D01*
X0364670Y0129116D01*
X0364570Y0129077D01*
X0364469Y0129042D01*
X0364367Y0129011D01*
X0364263Y0128983D01*
X0364158Y0128960D01*
X0364053Y0128940D01*
X0363947Y0128924D01*
X0363841Y0128912D01*
X0363734Y0128904D01*
X0363627Y0128900D01*
X0363519Y0128900D01*
X0363412Y0128904D01*
X0363305Y0128912D01*
X0363199Y0128924D01*
X0363093Y0128940D01*
X0362988Y0128960D01*
X0362883Y0128983D01*
X0362779Y0129011D01*
X0362677Y0129042D01*
X0362576Y0129077D01*
X0362476Y0129116D01*
X0362377Y0129158D01*
X0362280Y0129204D01*
X0362185Y0129254D01*
X0362092Y0129307D01*
X0362001Y0129363D01*
X0361912Y0129423D01*
X0361825Y0129486D01*
X0361741Y0129552D01*
X0361659Y0129621D01*
X0361580Y0129693D01*
X0361504Y0129768D01*
X0361430Y0129846D01*
X0361359Y0129927D01*
X0361291Y0130010D01*
X0361227Y0130095D01*
X0361165Y0130183D01*
X0361107Y0130273D01*
X0361053Y0130365D01*
X0361001Y0130460D01*
X0360954Y0130556D01*
X0360909Y0130653D01*
X0360869Y0130752D01*
X0360832Y0130853D01*
X0360799Y0130955D01*
X0360770Y0131058D01*
X0360744Y0131162D01*
X0360722Y0131267D01*
X0360705Y0131373D01*
X0360691Y0131479D01*
X0360681Y0131586D01*
X0360675Y0131693D01*
X0360673Y0131800D01*
X0370673Y0131800D02*
X0370675Y0131907D01*
X0370681Y0132014D01*
X0370691Y0132121D01*
X0370705Y0132227D01*
X0370722Y0132333D01*
X0370744Y0132438D01*
X0370770Y0132542D01*
X0370799Y0132645D01*
X0370832Y0132747D01*
X0370869Y0132848D01*
X0370909Y0132947D01*
X0370954Y0133044D01*
X0371001Y0133140D01*
X0371053Y0133235D01*
X0371107Y0133327D01*
X0371165Y0133417D01*
X0371227Y0133505D01*
X0371291Y0133590D01*
X0371359Y0133673D01*
X0371430Y0133754D01*
X0371504Y0133832D01*
X0371580Y0133907D01*
X0371659Y0133979D01*
X0371741Y0134048D01*
X0371825Y0134114D01*
X0371912Y0134177D01*
X0372001Y0134237D01*
X0372092Y0134293D01*
X0372185Y0134346D01*
X0372280Y0134396D01*
X0372377Y0134442D01*
X0372476Y0134484D01*
X0372576Y0134523D01*
X0372677Y0134558D01*
X0372779Y0134589D01*
X0372883Y0134617D01*
X0372988Y0134640D01*
X0373093Y0134660D01*
X0373199Y0134676D01*
X0373305Y0134688D01*
X0373412Y0134696D01*
X0373519Y0134700D01*
X0373627Y0134700D01*
X0373734Y0134696D01*
X0373841Y0134688D01*
X0373947Y0134676D01*
X0374053Y0134660D01*
X0374158Y0134640D01*
X0374263Y0134617D01*
X0374367Y0134589D01*
X0374469Y0134558D01*
X0374570Y0134523D01*
X0374670Y0134484D01*
X0374769Y0134442D01*
X0374866Y0134396D01*
X0374961Y0134346D01*
X0375054Y0134293D01*
X0375145Y0134237D01*
X0375234Y0134177D01*
X0375321Y0134114D01*
X0375405Y0134048D01*
X0375487Y0133979D01*
X0375566Y0133907D01*
X0375642Y0133832D01*
X0375716Y0133754D01*
X0375787Y0133673D01*
X0375855Y0133590D01*
X0375919Y0133505D01*
X0375981Y0133417D01*
X0376039Y0133327D01*
X0376093Y0133235D01*
X0376145Y0133140D01*
X0376192Y0133044D01*
X0376237Y0132947D01*
X0376277Y0132848D01*
X0376314Y0132747D01*
X0376347Y0132645D01*
X0376376Y0132542D01*
X0376402Y0132438D01*
X0376424Y0132333D01*
X0376441Y0132227D01*
X0376455Y0132121D01*
X0376465Y0132014D01*
X0376471Y0131907D01*
X0376473Y0131800D01*
X0376471Y0131693D01*
X0376465Y0131586D01*
X0376455Y0131479D01*
X0376441Y0131373D01*
X0376424Y0131267D01*
X0376402Y0131162D01*
X0376376Y0131058D01*
X0376347Y0130955D01*
X0376314Y0130853D01*
X0376277Y0130752D01*
X0376237Y0130653D01*
X0376192Y0130556D01*
X0376145Y0130460D01*
X0376093Y0130365D01*
X0376039Y0130273D01*
X0375981Y0130183D01*
X0375919Y0130095D01*
X0375855Y0130010D01*
X0375787Y0129927D01*
X0375716Y0129846D01*
X0375642Y0129768D01*
X0375566Y0129693D01*
X0375487Y0129621D01*
X0375405Y0129552D01*
X0375321Y0129486D01*
X0375234Y0129423D01*
X0375145Y0129363D01*
X0375054Y0129307D01*
X0374961Y0129254D01*
X0374866Y0129204D01*
X0374769Y0129158D01*
X0374670Y0129116D01*
X0374570Y0129077D01*
X0374469Y0129042D01*
X0374367Y0129011D01*
X0374263Y0128983D01*
X0374158Y0128960D01*
X0374053Y0128940D01*
X0373947Y0128924D01*
X0373841Y0128912D01*
X0373734Y0128904D01*
X0373627Y0128900D01*
X0373519Y0128900D01*
X0373412Y0128904D01*
X0373305Y0128912D01*
X0373199Y0128924D01*
X0373093Y0128940D01*
X0372988Y0128960D01*
X0372883Y0128983D01*
X0372779Y0129011D01*
X0372677Y0129042D01*
X0372576Y0129077D01*
X0372476Y0129116D01*
X0372377Y0129158D01*
X0372280Y0129204D01*
X0372185Y0129254D01*
X0372092Y0129307D01*
X0372001Y0129363D01*
X0371912Y0129423D01*
X0371825Y0129486D01*
X0371741Y0129552D01*
X0371659Y0129621D01*
X0371580Y0129693D01*
X0371504Y0129768D01*
X0371430Y0129846D01*
X0371359Y0129927D01*
X0371291Y0130010D01*
X0371227Y0130095D01*
X0371165Y0130183D01*
X0371107Y0130273D01*
X0371053Y0130365D01*
X0371001Y0130460D01*
X0370954Y0130556D01*
X0370909Y0130653D01*
X0370869Y0130752D01*
X0370832Y0130853D01*
X0370799Y0130955D01*
X0370770Y0131058D01*
X0370744Y0131162D01*
X0370722Y0131267D01*
X0370705Y0131373D01*
X0370691Y0131479D01*
X0370681Y0131586D01*
X0370675Y0131693D01*
X0370673Y0131800D01*
X0370673Y0121800D02*
X0370675Y0121907D01*
X0370681Y0122014D01*
X0370691Y0122121D01*
X0370705Y0122227D01*
X0370722Y0122333D01*
X0370744Y0122438D01*
X0370770Y0122542D01*
X0370799Y0122645D01*
X0370832Y0122747D01*
X0370869Y0122848D01*
X0370909Y0122947D01*
X0370954Y0123044D01*
X0371001Y0123140D01*
X0371053Y0123235D01*
X0371107Y0123327D01*
X0371165Y0123417D01*
X0371227Y0123505D01*
X0371291Y0123590D01*
X0371359Y0123673D01*
X0371430Y0123754D01*
X0371504Y0123832D01*
X0371580Y0123907D01*
X0371659Y0123979D01*
X0371741Y0124048D01*
X0371825Y0124114D01*
X0371912Y0124177D01*
X0372001Y0124237D01*
X0372092Y0124293D01*
X0372185Y0124346D01*
X0372280Y0124396D01*
X0372377Y0124442D01*
X0372476Y0124484D01*
X0372576Y0124523D01*
X0372677Y0124558D01*
X0372779Y0124589D01*
X0372883Y0124617D01*
X0372988Y0124640D01*
X0373093Y0124660D01*
X0373199Y0124676D01*
X0373305Y0124688D01*
X0373412Y0124696D01*
X0373519Y0124700D01*
X0373627Y0124700D01*
X0373734Y0124696D01*
X0373841Y0124688D01*
X0373947Y0124676D01*
X0374053Y0124660D01*
X0374158Y0124640D01*
X0374263Y0124617D01*
X0374367Y0124589D01*
X0374469Y0124558D01*
X0374570Y0124523D01*
X0374670Y0124484D01*
X0374769Y0124442D01*
X0374866Y0124396D01*
X0374961Y0124346D01*
X0375054Y0124293D01*
X0375145Y0124237D01*
X0375234Y0124177D01*
X0375321Y0124114D01*
X0375405Y0124048D01*
X0375487Y0123979D01*
X0375566Y0123907D01*
X0375642Y0123832D01*
X0375716Y0123754D01*
X0375787Y0123673D01*
X0375855Y0123590D01*
X0375919Y0123505D01*
X0375981Y0123417D01*
X0376039Y0123327D01*
X0376093Y0123235D01*
X0376145Y0123140D01*
X0376192Y0123044D01*
X0376237Y0122947D01*
X0376277Y0122848D01*
X0376314Y0122747D01*
X0376347Y0122645D01*
X0376376Y0122542D01*
X0376402Y0122438D01*
X0376424Y0122333D01*
X0376441Y0122227D01*
X0376455Y0122121D01*
X0376465Y0122014D01*
X0376471Y0121907D01*
X0376473Y0121800D01*
X0376471Y0121693D01*
X0376465Y0121586D01*
X0376455Y0121479D01*
X0376441Y0121373D01*
X0376424Y0121267D01*
X0376402Y0121162D01*
X0376376Y0121058D01*
X0376347Y0120955D01*
X0376314Y0120853D01*
X0376277Y0120752D01*
X0376237Y0120653D01*
X0376192Y0120556D01*
X0376145Y0120460D01*
X0376093Y0120365D01*
X0376039Y0120273D01*
X0375981Y0120183D01*
X0375919Y0120095D01*
X0375855Y0120010D01*
X0375787Y0119927D01*
X0375716Y0119846D01*
X0375642Y0119768D01*
X0375566Y0119693D01*
X0375487Y0119621D01*
X0375405Y0119552D01*
X0375321Y0119486D01*
X0375234Y0119423D01*
X0375145Y0119363D01*
X0375054Y0119307D01*
X0374961Y0119254D01*
X0374866Y0119204D01*
X0374769Y0119158D01*
X0374670Y0119116D01*
X0374570Y0119077D01*
X0374469Y0119042D01*
X0374367Y0119011D01*
X0374263Y0118983D01*
X0374158Y0118960D01*
X0374053Y0118940D01*
X0373947Y0118924D01*
X0373841Y0118912D01*
X0373734Y0118904D01*
X0373627Y0118900D01*
X0373519Y0118900D01*
X0373412Y0118904D01*
X0373305Y0118912D01*
X0373199Y0118924D01*
X0373093Y0118940D01*
X0372988Y0118960D01*
X0372883Y0118983D01*
X0372779Y0119011D01*
X0372677Y0119042D01*
X0372576Y0119077D01*
X0372476Y0119116D01*
X0372377Y0119158D01*
X0372280Y0119204D01*
X0372185Y0119254D01*
X0372092Y0119307D01*
X0372001Y0119363D01*
X0371912Y0119423D01*
X0371825Y0119486D01*
X0371741Y0119552D01*
X0371659Y0119621D01*
X0371580Y0119693D01*
X0371504Y0119768D01*
X0371430Y0119846D01*
X0371359Y0119927D01*
X0371291Y0120010D01*
X0371227Y0120095D01*
X0371165Y0120183D01*
X0371107Y0120273D01*
X0371053Y0120365D01*
X0371001Y0120460D01*
X0370954Y0120556D01*
X0370909Y0120653D01*
X0370869Y0120752D01*
X0370832Y0120853D01*
X0370799Y0120955D01*
X0370770Y0121058D01*
X0370744Y0121162D01*
X0370722Y0121267D01*
X0370705Y0121373D01*
X0370691Y0121479D01*
X0370681Y0121586D01*
X0370675Y0121693D01*
X0370673Y0121800D01*
X0370673Y0141800D02*
X0370675Y0141907D01*
X0370681Y0142014D01*
X0370691Y0142121D01*
X0370705Y0142227D01*
X0370722Y0142333D01*
X0370744Y0142438D01*
X0370770Y0142542D01*
X0370799Y0142645D01*
X0370832Y0142747D01*
X0370869Y0142848D01*
X0370909Y0142947D01*
X0370954Y0143044D01*
X0371001Y0143140D01*
X0371053Y0143235D01*
X0371107Y0143327D01*
X0371165Y0143417D01*
X0371227Y0143505D01*
X0371291Y0143590D01*
X0371359Y0143673D01*
X0371430Y0143754D01*
X0371504Y0143832D01*
X0371580Y0143907D01*
X0371659Y0143979D01*
X0371741Y0144048D01*
X0371825Y0144114D01*
X0371912Y0144177D01*
X0372001Y0144237D01*
X0372092Y0144293D01*
X0372185Y0144346D01*
X0372280Y0144396D01*
X0372377Y0144442D01*
X0372476Y0144484D01*
X0372576Y0144523D01*
X0372677Y0144558D01*
X0372779Y0144589D01*
X0372883Y0144617D01*
X0372988Y0144640D01*
X0373093Y0144660D01*
X0373199Y0144676D01*
X0373305Y0144688D01*
X0373412Y0144696D01*
X0373519Y0144700D01*
X0373627Y0144700D01*
X0373734Y0144696D01*
X0373841Y0144688D01*
X0373947Y0144676D01*
X0374053Y0144660D01*
X0374158Y0144640D01*
X0374263Y0144617D01*
X0374367Y0144589D01*
X0374469Y0144558D01*
X0374570Y0144523D01*
X0374670Y0144484D01*
X0374769Y0144442D01*
X0374866Y0144396D01*
X0374961Y0144346D01*
X0375054Y0144293D01*
X0375145Y0144237D01*
X0375234Y0144177D01*
X0375321Y0144114D01*
X0375405Y0144048D01*
X0375487Y0143979D01*
X0375566Y0143907D01*
X0375642Y0143832D01*
X0375716Y0143754D01*
X0375787Y0143673D01*
X0375855Y0143590D01*
X0375919Y0143505D01*
X0375981Y0143417D01*
X0376039Y0143327D01*
X0376093Y0143235D01*
X0376145Y0143140D01*
X0376192Y0143044D01*
X0376237Y0142947D01*
X0376277Y0142848D01*
X0376314Y0142747D01*
X0376347Y0142645D01*
X0376376Y0142542D01*
X0376402Y0142438D01*
X0376424Y0142333D01*
X0376441Y0142227D01*
X0376455Y0142121D01*
X0376465Y0142014D01*
X0376471Y0141907D01*
X0376473Y0141800D01*
X0376471Y0141693D01*
X0376465Y0141586D01*
X0376455Y0141479D01*
X0376441Y0141373D01*
X0376424Y0141267D01*
X0376402Y0141162D01*
X0376376Y0141058D01*
X0376347Y0140955D01*
X0376314Y0140853D01*
X0376277Y0140752D01*
X0376237Y0140653D01*
X0376192Y0140556D01*
X0376145Y0140460D01*
X0376093Y0140365D01*
X0376039Y0140273D01*
X0375981Y0140183D01*
X0375919Y0140095D01*
X0375855Y0140010D01*
X0375787Y0139927D01*
X0375716Y0139846D01*
X0375642Y0139768D01*
X0375566Y0139693D01*
X0375487Y0139621D01*
X0375405Y0139552D01*
X0375321Y0139486D01*
X0375234Y0139423D01*
X0375145Y0139363D01*
X0375054Y0139307D01*
X0374961Y0139254D01*
X0374866Y0139204D01*
X0374769Y0139158D01*
X0374670Y0139116D01*
X0374570Y0139077D01*
X0374469Y0139042D01*
X0374367Y0139011D01*
X0374263Y0138983D01*
X0374158Y0138960D01*
X0374053Y0138940D01*
X0373947Y0138924D01*
X0373841Y0138912D01*
X0373734Y0138904D01*
X0373627Y0138900D01*
X0373519Y0138900D01*
X0373412Y0138904D01*
X0373305Y0138912D01*
X0373199Y0138924D01*
X0373093Y0138940D01*
X0372988Y0138960D01*
X0372883Y0138983D01*
X0372779Y0139011D01*
X0372677Y0139042D01*
X0372576Y0139077D01*
X0372476Y0139116D01*
X0372377Y0139158D01*
X0372280Y0139204D01*
X0372185Y0139254D01*
X0372092Y0139307D01*
X0372001Y0139363D01*
X0371912Y0139423D01*
X0371825Y0139486D01*
X0371741Y0139552D01*
X0371659Y0139621D01*
X0371580Y0139693D01*
X0371504Y0139768D01*
X0371430Y0139846D01*
X0371359Y0139927D01*
X0371291Y0140010D01*
X0371227Y0140095D01*
X0371165Y0140183D01*
X0371107Y0140273D01*
X0371053Y0140365D01*
X0371001Y0140460D01*
X0370954Y0140556D01*
X0370909Y0140653D01*
X0370869Y0140752D01*
X0370832Y0140853D01*
X0370799Y0140955D01*
X0370770Y0141058D01*
X0370744Y0141162D01*
X0370722Y0141267D01*
X0370705Y0141373D01*
X0370691Y0141479D01*
X0370681Y0141586D01*
X0370675Y0141693D01*
X0370673Y0141800D01*
X0350673Y0211800D02*
X0350675Y0211907D01*
X0350681Y0212014D01*
X0350691Y0212121D01*
X0350705Y0212227D01*
X0350722Y0212333D01*
X0350744Y0212438D01*
X0350770Y0212542D01*
X0350799Y0212645D01*
X0350832Y0212747D01*
X0350869Y0212848D01*
X0350909Y0212947D01*
X0350954Y0213044D01*
X0351001Y0213140D01*
X0351053Y0213235D01*
X0351107Y0213327D01*
X0351165Y0213417D01*
X0351227Y0213505D01*
X0351291Y0213590D01*
X0351359Y0213673D01*
X0351430Y0213754D01*
X0351504Y0213832D01*
X0351580Y0213907D01*
X0351659Y0213979D01*
X0351741Y0214048D01*
X0351825Y0214114D01*
X0351912Y0214177D01*
X0352001Y0214237D01*
X0352092Y0214293D01*
X0352185Y0214346D01*
X0352280Y0214396D01*
X0352377Y0214442D01*
X0352476Y0214484D01*
X0352576Y0214523D01*
X0352677Y0214558D01*
X0352779Y0214589D01*
X0352883Y0214617D01*
X0352988Y0214640D01*
X0353093Y0214660D01*
X0353199Y0214676D01*
X0353305Y0214688D01*
X0353412Y0214696D01*
X0353519Y0214700D01*
X0353627Y0214700D01*
X0353734Y0214696D01*
X0353841Y0214688D01*
X0353947Y0214676D01*
X0354053Y0214660D01*
X0354158Y0214640D01*
X0354263Y0214617D01*
X0354367Y0214589D01*
X0354469Y0214558D01*
X0354570Y0214523D01*
X0354670Y0214484D01*
X0354769Y0214442D01*
X0354866Y0214396D01*
X0354961Y0214346D01*
X0355054Y0214293D01*
X0355145Y0214237D01*
X0355234Y0214177D01*
X0355321Y0214114D01*
X0355405Y0214048D01*
X0355487Y0213979D01*
X0355566Y0213907D01*
X0355642Y0213832D01*
X0355716Y0213754D01*
X0355787Y0213673D01*
X0355855Y0213590D01*
X0355919Y0213505D01*
X0355981Y0213417D01*
X0356039Y0213327D01*
X0356093Y0213235D01*
X0356145Y0213140D01*
X0356192Y0213044D01*
X0356237Y0212947D01*
X0356277Y0212848D01*
X0356314Y0212747D01*
X0356347Y0212645D01*
X0356376Y0212542D01*
X0356402Y0212438D01*
X0356424Y0212333D01*
X0356441Y0212227D01*
X0356455Y0212121D01*
X0356465Y0212014D01*
X0356471Y0211907D01*
X0356473Y0211800D01*
X0356471Y0211693D01*
X0356465Y0211586D01*
X0356455Y0211479D01*
X0356441Y0211373D01*
X0356424Y0211267D01*
X0356402Y0211162D01*
X0356376Y0211058D01*
X0356347Y0210955D01*
X0356314Y0210853D01*
X0356277Y0210752D01*
X0356237Y0210653D01*
X0356192Y0210556D01*
X0356145Y0210460D01*
X0356093Y0210365D01*
X0356039Y0210273D01*
X0355981Y0210183D01*
X0355919Y0210095D01*
X0355855Y0210010D01*
X0355787Y0209927D01*
X0355716Y0209846D01*
X0355642Y0209768D01*
X0355566Y0209693D01*
X0355487Y0209621D01*
X0355405Y0209552D01*
X0355321Y0209486D01*
X0355234Y0209423D01*
X0355145Y0209363D01*
X0355054Y0209307D01*
X0354961Y0209254D01*
X0354866Y0209204D01*
X0354769Y0209158D01*
X0354670Y0209116D01*
X0354570Y0209077D01*
X0354469Y0209042D01*
X0354367Y0209011D01*
X0354263Y0208983D01*
X0354158Y0208960D01*
X0354053Y0208940D01*
X0353947Y0208924D01*
X0353841Y0208912D01*
X0353734Y0208904D01*
X0353627Y0208900D01*
X0353519Y0208900D01*
X0353412Y0208904D01*
X0353305Y0208912D01*
X0353199Y0208924D01*
X0353093Y0208940D01*
X0352988Y0208960D01*
X0352883Y0208983D01*
X0352779Y0209011D01*
X0352677Y0209042D01*
X0352576Y0209077D01*
X0352476Y0209116D01*
X0352377Y0209158D01*
X0352280Y0209204D01*
X0352185Y0209254D01*
X0352092Y0209307D01*
X0352001Y0209363D01*
X0351912Y0209423D01*
X0351825Y0209486D01*
X0351741Y0209552D01*
X0351659Y0209621D01*
X0351580Y0209693D01*
X0351504Y0209768D01*
X0351430Y0209846D01*
X0351359Y0209927D01*
X0351291Y0210010D01*
X0351227Y0210095D01*
X0351165Y0210183D01*
X0351107Y0210273D01*
X0351053Y0210365D01*
X0351001Y0210460D01*
X0350954Y0210556D01*
X0350909Y0210653D01*
X0350869Y0210752D01*
X0350832Y0210853D01*
X0350799Y0210955D01*
X0350770Y0211058D01*
X0350744Y0211162D01*
X0350722Y0211267D01*
X0350705Y0211373D01*
X0350691Y0211479D01*
X0350681Y0211586D01*
X0350675Y0211693D01*
X0350673Y0211800D01*
X0340673Y0211800D02*
X0340675Y0211907D01*
X0340681Y0212014D01*
X0340691Y0212121D01*
X0340705Y0212227D01*
X0340722Y0212333D01*
X0340744Y0212438D01*
X0340770Y0212542D01*
X0340799Y0212645D01*
X0340832Y0212747D01*
X0340869Y0212848D01*
X0340909Y0212947D01*
X0340954Y0213044D01*
X0341001Y0213140D01*
X0341053Y0213235D01*
X0341107Y0213327D01*
X0341165Y0213417D01*
X0341227Y0213505D01*
X0341291Y0213590D01*
X0341359Y0213673D01*
X0341430Y0213754D01*
X0341504Y0213832D01*
X0341580Y0213907D01*
X0341659Y0213979D01*
X0341741Y0214048D01*
X0341825Y0214114D01*
X0341912Y0214177D01*
X0342001Y0214237D01*
X0342092Y0214293D01*
X0342185Y0214346D01*
X0342280Y0214396D01*
X0342377Y0214442D01*
X0342476Y0214484D01*
X0342576Y0214523D01*
X0342677Y0214558D01*
X0342779Y0214589D01*
X0342883Y0214617D01*
X0342988Y0214640D01*
X0343093Y0214660D01*
X0343199Y0214676D01*
X0343305Y0214688D01*
X0343412Y0214696D01*
X0343519Y0214700D01*
X0343627Y0214700D01*
X0343734Y0214696D01*
X0343841Y0214688D01*
X0343947Y0214676D01*
X0344053Y0214660D01*
X0344158Y0214640D01*
X0344263Y0214617D01*
X0344367Y0214589D01*
X0344469Y0214558D01*
X0344570Y0214523D01*
X0344670Y0214484D01*
X0344769Y0214442D01*
X0344866Y0214396D01*
X0344961Y0214346D01*
X0345054Y0214293D01*
X0345145Y0214237D01*
X0345234Y0214177D01*
X0345321Y0214114D01*
X0345405Y0214048D01*
X0345487Y0213979D01*
X0345566Y0213907D01*
X0345642Y0213832D01*
X0345716Y0213754D01*
X0345787Y0213673D01*
X0345855Y0213590D01*
X0345919Y0213505D01*
X0345981Y0213417D01*
X0346039Y0213327D01*
X0346093Y0213235D01*
X0346145Y0213140D01*
X0346192Y0213044D01*
X0346237Y0212947D01*
X0346277Y0212848D01*
X0346314Y0212747D01*
X0346347Y0212645D01*
X0346376Y0212542D01*
X0346402Y0212438D01*
X0346424Y0212333D01*
X0346441Y0212227D01*
X0346455Y0212121D01*
X0346465Y0212014D01*
X0346471Y0211907D01*
X0346473Y0211800D01*
X0346471Y0211693D01*
X0346465Y0211586D01*
X0346455Y0211479D01*
X0346441Y0211373D01*
X0346424Y0211267D01*
X0346402Y0211162D01*
X0346376Y0211058D01*
X0346347Y0210955D01*
X0346314Y0210853D01*
X0346277Y0210752D01*
X0346237Y0210653D01*
X0346192Y0210556D01*
X0346145Y0210460D01*
X0346093Y0210365D01*
X0346039Y0210273D01*
X0345981Y0210183D01*
X0345919Y0210095D01*
X0345855Y0210010D01*
X0345787Y0209927D01*
X0345716Y0209846D01*
X0345642Y0209768D01*
X0345566Y0209693D01*
X0345487Y0209621D01*
X0345405Y0209552D01*
X0345321Y0209486D01*
X0345234Y0209423D01*
X0345145Y0209363D01*
X0345054Y0209307D01*
X0344961Y0209254D01*
X0344866Y0209204D01*
X0344769Y0209158D01*
X0344670Y0209116D01*
X0344570Y0209077D01*
X0344469Y0209042D01*
X0344367Y0209011D01*
X0344263Y0208983D01*
X0344158Y0208960D01*
X0344053Y0208940D01*
X0343947Y0208924D01*
X0343841Y0208912D01*
X0343734Y0208904D01*
X0343627Y0208900D01*
X0343519Y0208900D01*
X0343412Y0208904D01*
X0343305Y0208912D01*
X0343199Y0208924D01*
X0343093Y0208940D01*
X0342988Y0208960D01*
X0342883Y0208983D01*
X0342779Y0209011D01*
X0342677Y0209042D01*
X0342576Y0209077D01*
X0342476Y0209116D01*
X0342377Y0209158D01*
X0342280Y0209204D01*
X0342185Y0209254D01*
X0342092Y0209307D01*
X0342001Y0209363D01*
X0341912Y0209423D01*
X0341825Y0209486D01*
X0341741Y0209552D01*
X0341659Y0209621D01*
X0341580Y0209693D01*
X0341504Y0209768D01*
X0341430Y0209846D01*
X0341359Y0209927D01*
X0341291Y0210010D01*
X0341227Y0210095D01*
X0341165Y0210183D01*
X0341107Y0210273D01*
X0341053Y0210365D01*
X0341001Y0210460D01*
X0340954Y0210556D01*
X0340909Y0210653D01*
X0340869Y0210752D01*
X0340832Y0210853D01*
X0340799Y0210955D01*
X0340770Y0211058D01*
X0340744Y0211162D01*
X0340722Y0211267D01*
X0340705Y0211373D01*
X0340691Y0211479D01*
X0340681Y0211586D01*
X0340675Y0211693D01*
X0340673Y0211800D01*
D38*
X0343573Y0211800D03*
X0353573Y0211800D03*
X0373573Y0141800D03*
X0373573Y0131800D03*
X0373573Y0121800D03*
X0363573Y0121800D03*
X0363573Y0131800D03*
X0363573Y0091800D03*
X0373573Y0091800D03*
X0373573Y0081800D03*
X0373573Y0071800D03*
X0373573Y0061800D03*
X0363573Y0061800D03*
X0363573Y0071800D03*
X0363573Y0081800D03*
M02*
