%
M48
M72
T01C0.0120
T02C0.0160
T03C0.0197
T04C0.0236
T05C0.0354
T06C0.0360
T07C0.0394
T08C0.0400
T09C0.0472
T10C0.1181
%
T01
X11530Y5930
X13280Y6930
X13780Y7430
X14530Y8930
X12780Y8930
X10530Y7430
X10030Y7430
X9580Y10630
X10530Y10680
X11530Y11930
X13530Y11930
X17530Y11930
X17530Y11930
X19830Y13580
X19030Y15430
X17080Y15980
X15030Y15430
X13030Y16430
X13030Y19180
X11530Y21180
X11530Y23180
X9530Y23680
X7280Y23680
X9530Y26930
X12030Y24930
X16280Y25680
X21530Y25730
X19030Y30280
X9530Y29680
X6980Y18630
X9330Y18480
X9480Y17630
X5280Y16180
X4330Y16380
X3830Y16380
X3830Y15880
X3830Y15380
X4330Y15380
X4330Y15880
X4330Y14880
X4330Y14380
X3830Y14380
X3830Y14880
X3830Y13880
X4330Y13880
X4330Y13380
X4330Y12880
X3830Y12880
X3830Y13380
X3830Y12380
X3830Y11880
X3830Y11380
X3830Y10880
X3330Y15880
X2830Y15880
X2830Y16380
X3330Y16380
X4530Y16930
X17030Y8930
X17030Y8180
X18280Y7580
X19030Y8930
X21530Y8930
X25030Y11180
X26280Y10680
X25530Y8930
X29780Y5930
X30780Y6180
X31030Y5180
X34280Y4680
X24530Y4930
X17030Y5180
X16030Y5680
X15530Y4680
X23930Y15280
X25430Y15280
X28780Y16430
X28130Y19080
X27130Y19080
X27030Y19930
X28130Y21580
X24030Y18830
X21730Y18680
X21130Y16730
X22030Y15430
X33530Y14680
X38280Y21180
X38280Y21680
X38280Y22180
X39680Y22580
X37030Y25180
T02
X5030Y2880
X6030Y2880
X6030Y5180
X6030Y6180
X6030Y7280
X5630Y10680
X6130Y12180
X3030Y10680
X3030Y14980
X6130Y14780
X10530Y3180
X11030Y1580
X16230Y2980
X28730Y12180
X31980Y7530
X33530Y5180
T03
X24630Y21880
T04
X19830Y7880
X23780Y5680
X25780Y5680
X28330Y5930
X28530Y3680
X33530Y3680
X40380Y2130
X33530Y10180
X28730Y9180
X17030Y21780
X15630Y23680
X18530Y25680
X17530Y26180
X15130Y26180
X10130Y26180
X6130Y27180
X6330Y31080
X10780Y21730
X4530Y21180
X4530Y17680
X6030Y16680
X20530Y22780
X24630Y23480
X27030Y26180
X28030Y26180
X28030Y30180
X29730Y30280
X34330Y26180
X33630Y23530
X20130Y30280
T05
X12030Y24180
X13030Y24180
X14030Y24180
X15030Y24180
X16030Y24180
X17030Y24180
X18030Y24180
X19030Y24180
X21030Y24180
X22030Y24180
X23030Y24180
X24030Y24180
X25030Y24180
X26030Y24180
X27030Y24180
X28030Y24180
X30030Y24180
X31030Y24180
X32030Y24180
X33030Y24180
X34030Y24180
X35030Y24180
X36030Y24180
X37030Y24180
X37030Y29180
X36030Y29180
X35030Y29180
X34030Y29180
X33030Y29180
X32030Y29180
X31030Y29180
X30030Y29180
X28030Y29180
X27030Y29180
X26030Y29180
X25030Y29180
X24030Y29180
X23030Y29180
X22030Y29180
X21030Y29180
X19030Y29180
X18030Y29180
X17030Y29180
X16030Y29180
X15030Y29180
X14030Y29180
X13030Y29180
X12030Y29180
T06
X4530Y1180
X5530Y1180
T07
X14530Y1180
X15530Y1180
X16530Y1180
X17530Y1180
X18530Y1180
X19530Y1180
X21530Y1180
X22530Y1180
X23530Y1180
X24530Y1180
X25530Y1180
X26530Y1180
X27530Y1180
X28530Y1180
X30530Y1180
X31530Y1180
X32530Y1180
X33530Y1180
X34530Y1180
X35530Y1180
X36530Y1180
X37530Y1180
X38530Y3180
X39530Y3180
X39530Y4180
X38530Y4180
X38530Y5180
X39530Y5180
X39530Y6180
X38530Y6180
X38530Y7180
X39530Y7180
X39530Y8180
X38530Y8180
X38530Y9180
X39530Y9180
X39530Y10180
X38530Y10180
X38530Y11180
X39530Y11180
X39530Y12180
X38530Y12180
X38530Y13180
X39530Y13180
X39530Y14180
X38530Y14180
X38530Y15180
X39530Y15180
X39530Y16180
X38530Y16180
X38530Y17180
X39530Y17180
X39530Y18180
X38530Y18180
X38530Y19180
X39530Y19180
X39530Y20180
X38530Y20180
X35530Y20180
X34530Y20180
X33530Y20180
X32530Y20180
X31530Y20180
X30530Y20180
X29530Y20180
X28530Y20180
X26530Y20180
X25530Y20180
X24530Y20180
X23530Y20180
X22530Y20180
X21530Y20180
X20530Y20180
X19530Y20180
X17930Y20180
X16930Y20180
X15930Y20180
X14930Y20180
X13930Y20180
X12930Y20180
X11930Y20180
X10930Y20180
X3030Y22471
X3030Y23849
T08
X7416Y2137
X7416Y3137
X7416Y4137
X8416Y4137
X8416Y3137
X8416Y2137
X8416Y5137
X8416Y6137
X8416Y7137
X8416Y8137
X8416Y9137
X8416Y10137
X8416Y11137
X7416Y11137
X7416Y10137
X7416Y9137
X7416Y8137
X7416Y7137
X7416Y6137
X7416Y5137
X7416Y12137
X7416Y13137
X7416Y14137
X7416Y15137
X7416Y16137
X7416Y17137
X7416Y18137
X7416Y19137
X8416Y19137
X8416Y18137
X8416Y17137
X8416Y16137
X8416Y15137
X8416Y14137
X8416Y13137
X8416Y12137
X8416Y20137
X8416Y21137
X7416Y21137
X7416Y20137
X4420Y27900
X2640Y27900
X2640Y30460
X4420Y30460
X9030Y29180
X9030Y28180
X10030Y28180
X11030Y28180
X11030Y29180
X10030Y29180
X14030Y30180
X15030Y30180
X16030Y30180
X17030Y30180
X23030Y30180
X24030Y30180
X25030Y30180
X26030Y30180
X32030Y30180
X33030Y30180
X34030Y30180
X35030Y30180
X38530Y29180
X39530Y29180
X39530Y28180
X38530Y28180
X38530Y27180
X39530Y27180
X39530Y25680
X38530Y25680
X38530Y24680
X39530Y24680
X39530Y23680
X38530Y23680
X35530Y21180
X34530Y21180
X37530Y14180
X37530Y13180
X37530Y12180
X36530Y12180
X36530Y13180
X36530Y9180
X36530Y8180
X36530Y7180
X36530Y6180
X37530Y6180
X37530Y7180
X37530Y8180
X37530Y9180
X37530Y2180
X36530Y2180
X35530Y2180
X34530Y2180
X33530Y2180
X32530Y2180
X31530Y2180
X30530Y2180
X28530Y2180
X27530Y2180
X26530Y2180
X25530Y2180
X24530Y2180
X23530Y2180
X22530Y2180
X21530Y2180
T09
X13530Y27880
X14908Y27880
X16286Y27880
X17664Y27880
X22530Y27880
X23908Y27880
X25286Y27880
X26664Y27880
X31530Y27880
X32908Y27880
X34286Y27880
X35664Y27880
T10
X4506Y23869
X3365Y25719
X5687Y25719
M30
