G75*
%MOIN*%
%OFA0B0*%
%FSLAX24Y24*%
%IPPOS*%
%LPD*%
%AMOC8*
5,1,8,0,0,1.08239X$1,22.5*
%
%ADD10C,0.0160*%
%ADD11R,0.0472X0.0472*%
%ADD12R,0.0512X0.0591*%
%ADD13R,0.0591X0.0512*%
%ADD14R,0.1378X0.0630*%
%ADD15R,0.0295X0.0433*%
%ADD16R,0.0866X0.0236*%
%ADD17R,0.1000X0.2000*%
%ADD18R,0.0630X0.0512*%
%ADD19R,0.0512X0.0630*%
%ADD20R,0.1575X0.0630*%
%ADD21R,0.0630X0.0866*%
%ADD22R,0.0354X0.0138*%
%ADD23R,0.0787X0.0787*%
%ADD24R,0.0709X0.0669*%
D10*
X002180Y002467D02*
X002967Y001680D01*
X040763Y001680D01*
X041550Y002467D01*
X041550Y032389D01*
X040763Y033176D01*
X002967Y033176D01*
X002180Y032389D01*
X002180Y002467D01*
D11*
X012767Y002680D03*
X013593Y002680D03*
X008093Y028680D03*
X007267Y028680D03*
X007267Y029680D03*
X008093Y029680D03*
X008093Y030680D03*
X007267Y030680D03*
X007267Y031680D03*
X008093Y031680D03*
X019180Y031767D03*
X019180Y032593D03*
X028180Y032593D03*
X028180Y031767D03*
X037180Y031767D03*
X037180Y032593D03*
D12*
X035554Y024680D03*
X034806Y024680D03*
X026554Y024680D03*
X025806Y024680D03*
X017554Y024680D03*
X016806Y024680D03*
X003515Y019180D03*
X002845Y019180D03*
X012845Y006180D03*
X013515Y006180D03*
X014845Y006180D03*
X015515Y006180D03*
X013554Y003480D03*
X012806Y003480D03*
D13*
X006180Y012845D03*
X006180Y013515D03*
X005180Y013515D03*
X005180Y012845D03*
X006680Y016845D03*
X006680Y017515D03*
X011680Y028845D03*
X011680Y029515D03*
X020180Y031806D03*
X020180Y032554D03*
X021680Y029515D03*
X021680Y028845D03*
X020680Y027054D03*
X020680Y026306D03*
X029680Y026306D03*
X029680Y027054D03*
X030680Y028845D03*
X030680Y029515D03*
X029680Y031806D03*
X029680Y032554D03*
X038180Y032554D03*
X038180Y031806D03*
X038680Y027054D03*
X038680Y026306D03*
D14*
X033743Y027680D03*
X031617Y027680D03*
X026243Y027680D03*
X024117Y027680D03*
X014743Y027680D03*
X012617Y027680D03*
D15*
X009430Y027601D03*
X008930Y027601D03*
X008430Y027601D03*
X007930Y027601D03*
X007930Y026759D03*
X008430Y026759D03*
X008930Y026759D03*
X009430Y026759D03*
D16*
X005704Y015930D03*
X005704Y015430D03*
X005704Y014930D03*
X005704Y014430D03*
X003656Y014430D03*
X003656Y014930D03*
X003656Y015430D03*
X003656Y015930D03*
D17*
X004680Y015180D03*
D18*
X006680Y015074D03*
X006680Y014286D03*
X003580Y011574D03*
X003580Y010786D03*
D19*
X003286Y002680D03*
X004074Y002680D03*
X005786Y019180D03*
X006574Y019180D03*
X006574Y023680D03*
X005786Y023680D03*
D20*
X005932Y021444D03*
X003530Y021444D03*
X003479Y005180D03*
X005881Y005180D03*
D21*
X005999Y008731D03*
X003479Y008731D03*
D22*
X020528Y007448D03*
X020528Y007192D03*
X020528Y006936D03*
X020528Y006680D03*
X020528Y006424D03*
X020528Y006168D03*
X020528Y005912D03*
X020528Y005674D03*
X020528Y005418D03*
X020528Y005162D03*
X022832Y005162D03*
X022832Y005418D03*
X022832Y005674D03*
X022832Y005912D03*
X022832Y006168D03*
X022832Y006424D03*
X022832Y006680D03*
X022832Y006936D03*
X022832Y007192D03*
X022832Y007448D03*
X031028Y007424D03*
X031028Y007168D03*
X031028Y006912D03*
X031028Y007680D03*
X031028Y007936D03*
X031028Y008192D03*
X031028Y008448D03*
X031028Y008686D03*
X031028Y008942D03*
X031028Y009198D03*
X031028Y010662D03*
X031028Y010918D03*
X031028Y011174D03*
X031028Y011412D03*
X031028Y011668D03*
X031028Y011924D03*
X031028Y012180D03*
X031028Y012436D03*
X031028Y012692D03*
X031028Y012948D03*
X033332Y012948D03*
X033332Y012692D03*
X033332Y012436D03*
X033332Y012180D03*
X033332Y011924D03*
X033332Y011668D03*
X033332Y011412D03*
X033332Y011174D03*
X033332Y010918D03*
X033332Y010662D03*
X033332Y009198D03*
X033332Y008942D03*
X033332Y008686D03*
X033332Y008448D03*
X033332Y008192D03*
X033332Y007936D03*
X033332Y007680D03*
X033332Y007424D03*
X033332Y007168D03*
X033332Y006912D03*
X022832Y017912D03*
X022832Y018168D03*
X022832Y018424D03*
X022832Y018680D03*
X022832Y018936D03*
X022832Y019192D03*
X022832Y019448D03*
X022832Y019686D03*
X022832Y019942D03*
X022832Y020198D03*
X020528Y020198D03*
X020528Y019942D03*
X020528Y019686D03*
X020528Y019448D03*
X020528Y019192D03*
X020528Y018936D03*
X020528Y018680D03*
X020528Y018424D03*
X020528Y018168D03*
X020528Y017912D03*
D23*
X006267Y011180D03*
X004693Y011180D03*
D24*
X012373Y004680D03*
X013987Y004680D03*
M02*
