G75*
%MOIN*%
%OFA0B0*%
%FSLAX25Y25*%
%IPPOS*%
%LPD*%
%AMOC8*
5,1,8,0,0,1.08239X$1,22.5*
%
%ADD10C,0.01600*%
%ADD11C,0.02800*%
%ADD12C,0.02300*%
%ADD13C,0.00600*%
%ADD14C,0.01000*%
D10*
X0021800Y0024674D02*
X0029674Y0016800D01*
X0407627Y0016800D01*
X0415501Y0024674D01*
X0415501Y0323887D01*
X0407627Y0331761D01*
X0029674Y0331761D01*
X0021800Y0323887D01*
X0022001Y0323887D02*
X0022001Y0024674D01*
X0101564Y0283717D02*
X0101564Y0312245D01*
X0111406Y0312245D01*
X0121855Y0312245D01*
X0121855Y0283717D01*
X0111406Y0283717D01*
X0101564Y0283717D01*
X0111406Y0283717D02*
X0111406Y0312245D01*
D11*
X0122495Y0251465D02*
X0129234Y0251465D01*
X0132604Y0248095D01*
X0140303Y0244725D02*
X0147043Y0231247D01*
X0153782Y0244725D01*
X0132604Y0231247D02*
X0119125Y0244725D01*
X0119125Y0248095D01*
X0122495Y0251465D01*
X0111425Y0234617D02*
X0108056Y0234617D01*
X0108056Y0231247D01*
X0111425Y0231247D01*
X0111425Y0234617D01*
X0119125Y0231247D02*
X0132604Y0231247D01*
X0100836Y0231247D02*
X0087358Y0231247D01*
X0094097Y0231247D02*
X0094097Y0251465D01*
X0100836Y0244725D01*
X0182660Y0244725D02*
X0192768Y0244725D01*
X0196138Y0241356D01*
X0196138Y0234617D01*
X0192768Y0231247D01*
X0182660Y0231247D01*
X0182660Y0251465D01*
X0206887Y0251465D02*
X0206887Y0231247D01*
X0210257Y0231247D02*
X0203517Y0231247D01*
X0217956Y0237986D02*
X0217956Y0241356D01*
X0221326Y0244725D01*
X0228065Y0244725D01*
X0231435Y0241356D01*
X0231435Y0234617D01*
X0228065Y0231247D01*
X0221326Y0231247D01*
X0217956Y0237986D02*
X0231435Y0237986D01*
X0238814Y0231247D02*
X0245553Y0231247D01*
X0242184Y0231247D02*
X0242184Y0244725D01*
X0245553Y0244725D01*
X0242184Y0251465D02*
X0242184Y0254834D01*
X0253253Y0241356D02*
X0256623Y0244725D01*
X0263362Y0244725D01*
X0266731Y0241356D01*
X0274431Y0244725D02*
X0284540Y0244725D01*
X0287910Y0241356D01*
X0284540Y0237986D01*
X0277801Y0237986D01*
X0274431Y0234617D01*
X0277801Y0231247D01*
X0287910Y0231247D01*
X0295449Y0244725D02*
X0298819Y0244725D01*
X0305558Y0237986D01*
X0313258Y0237986D02*
X0323367Y0237986D01*
X0326736Y0234617D01*
X0323367Y0231247D01*
X0313258Y0231247D01*
X0313258Y0241356D01*
X0316627Y0244725D01*
X0323367Y0244725D01*
X0337485Y0251465D02*
X0337485Y0231247D01*
X0334116Y0231247D02*
X0340855Y0231247D01*
X0348555Y0234617D02*
X0348555Y0241356D01*
X0351924Y0244725D01*
X0358663Y0244725D01*
X0362033Y0241356D01*
X0362033Y0234617D01*
X0358663Y0231247D01*
X0351924Y0231247D01*
X0348555Y0234617D01*
X0340855Y0251465D02*
X0337485Y0251465D01*
X0305558Y0244725D02*
X0305558Y0231247D01*
X0266731Y0231247D02*
X0266731Y0251465D01*
X0253253Y0241356D02*
X0253253Y0231247D01*
X0210257Y0251465D02*
X0206887Y0251465D01*
X0369733Y0248095D02*
X0369733Y0241356D01*
X0373102Y0237986D01*
X0383211Y0237986D01*
X0383211Y0231247D02*
X0383211Y0251465D01*
X0373102Y0251465D01*
X0369733Y0248095D01*
D12*
X0282795Y0156803D02*
X0280677Y0156803D01*
X0280677Y0144092D01*
X0282795Y0144092D02*
X0278558Y0144092D01*
X0273587Y0146210D02*
X0271469Y0148329D01*
X0265114Y0148329D01*
X0265114Y0150447D02*
X0265114Y0144092D01*
X0271469Y0144092D01*
X0273587Y0146210D01*
X0271469Y0152566D02*
X0267232Y0152566D01*
X0265114Y0150447D01*
X0259776Y0148329D02*
X0255539Y0152566D01*
X0253420Y0152566D01*
X0248266Y0150447D02*
X0248266Y0146210D01*
X0246147Y0144092D01*
X0239792Y0144092D01*
X0239792Y0141973D02*
X0239792Y0152566D01*
X0246147Y0152566D01*
X0248266Y0150447D01*
X0244029Y0139855D02*
X0241910Y0139855D01*
X0239792Y0141973D01*
X0234454Y0144092D02*
X0234454Y0152566D01*
X0234454Y0148329D02*
X0230217Y0152566D01*
X0228099Y0152566D01*
X0220826Y0152566D02*
X0216589Y0152566D01*
X0214470Y0150447D01*
X0214470Y0144092D01*
X0220826Y0144092D01*
X0222944Y0146210D01*
X0220826Y0148329D01*
X0214470Y0148329D01*
X0209132Y0152566D02*
X0202777Y0152566D01*
X0200659Y0150447D01*
X0200659Y0146210D01*
X0202777Y0144092D01*
X0209132Y0144092D01*
X0209132Y0139855D02*
X0209132Y0152566D01*
X0195321Y0150447D02*
X0193202Y0152566D01*
X0188965Y0152566D01*
X0186847Y0150447D01*
X0186847Y0144092D01*
X0181509Y0144092D02*
X0179390Y0144092D01*
X0179390Y0146210D01*
X0181509Y0146210D01*
X0181509Y0144092D01*
X0174603Y0146210D02*
X0172484Y0144092D01*
X0166129Y0144092D01*
X0160791Y0146210D02*
X0160791Y0150447D01*
X0158673Y0152566D01*
X0154436Y0152566D01*
X0152317Y0150447D01*
X0152317Y0146210D01*
X0154436Y0144092D01*
X0158673Y0144092D01*
X0160791Y0146210D01*
X0166129Y0152566D02*
X0172484Y0152566D01*
X0174603Y0150447D01*
X0174603Y0146210D01*
X0195321Y0144092D02*
X0195321Y0156803D01*
X0146979Y0146210D02*
X0144861Y0146210D01*
X0144861Y0144092D01*
X0146979Y0144092D01*
X0146979Y0146210D01*
X0140073Y0146210D02*
X0137955Y0144092D01*
X0131600Y0144092D01*
X0131600Y0152566D01*
X0126262Y0156803D02*
X0126262Y0144092D01*
X0126262Y0148329D02*
X0119906Y0152566D01*
X0126262Y0148329D02*
X0119906Y0144092D01*
X0140073Y0146210D02*
X0140073Y0152566D01*
X0259776Y0152566D02*
X0259776Y0144092D01*
X0288133Y0146210D02*
X0288133Y0150447D01*
X0290252Y0152566D01*
X0294489Y0152566D01*
X0296607Y0150447D01*
X0296607Y0146210D01*
X0294489Y0144092D01*
X0290252Y0144092D01*
X0288133Y0146210D01*
X0301945Y0146210D02*
X0304064Y0144092D01*
X0310419Y0144092D01*
X0310419Y0139855D02*
X0310419Y0152566D01*
X0304064Y0152566D01*
X0301945Y0150447D01*
X0301945Y0146210D01*
X0315206Y0146210D02*
X0315206Y0144092D01*
X0317325Y0144092D01*
X0317325Y0146210D01*
X0315206Y0146210D01*
X0322663Y0146210D02*
X0322663Y0152566D01*
X0322663Y0146210D02*
X0324781Y0144092D01*
X0326900Y0146210D01*
X0329018Y0144092D01*
X0331137Y0146210D01*
X0331137Y0152566D01*
X0336475Y0152566D02*
X0336475Y0146210D01*
X0338593Y0144092D01*
X0340711Y0146210D01*
X0342830Y0144092D01*
X0344948Y0146210D01*
X0344948Y0152566D01*
X0350286Y0152566D02*
X0350286Y0146210D01*
X0352405Y0144092D01*
X0354523Y0146210D01*
X0356642Y0144092D01*
X0358760Y0146210D01*
X0358760Y0152566D01*
D13*
X0383452Y0281736D02*
X0383452Y0284672D01*
X0385654Y0286340D02*
X0381250Y0289276D01*
X0381250Y0286340D02*
X0385654Y0289276D01*
X0383452Y0291736D02*
X0383452Y0294672D01*
X0381984Y0293204D02*
X0384920Y0293204D01*
X0385654Y0296340D02*
X0381250Y0299276D01*
X0381250Y0296340D02*
X0385654Y0299276D01*
X0384920Y0303132D02*
X0381984Y0303132D01*
X0381250Y0303866D01*
X0381250Y0306068D01*
X0385654Y0306068D01*
X0385654Y0303866D01*
X0384920Y0303132D01*
X0385654Y0307736D02*
X0381250Y0307736D01*
X0381250Y0310672D02*
X0385654Y0307736D01*
X0385654Y0310672D02*
X0381250Y0310672D01*
X0381984Y0312340D02*
X0381250Y0313074D01*
X0381250Y0314542D01*
X0381984Y0315276D01*
X0384920Y0315276D01*
X0385654Y0314542D01*
X0385654Y0313074D01*
X0384920Y0312340D01*
X0383452Y0312340D01*
X0383452Y0313808D01*
X0386141Y0316754D02*
X0385408Y0317488D01*
X0386141Y0318221D01*
X0387609Y0318221D01*
X0388343Y0318955D01*
X0387609Y0319689D01*
X0385408Y0319689D01*
X0386141Y0316754D02*
X0388343Y0316754D01*
X0389945Y0316754D02*
X0390679Y0317488D01*
X0390679Y0320423D01*
X0391413Y0319689D02*
X0389945Y0319689D01*
X0393748Y0319689D02*
X0393748Y0316754D01*
X0394482Y0316754D02*
X0393014Y0316754D01*
X0393748Y0319689D02*
X0394482Y0319689D01*
X0393748Y0321157D02*
X0393748Y0321891D01*
X0396150Y0318955D02*
X0396150Y0316754D01*
X0397618Y0316754D02*
X0397618Y0318955D01*
X0396884Y0319689D01*
X0396150Y0318955D01*
X0397618Y0318955D02*
X0398352Y0319689D01*
X0399086Y0319689D01*
X0399086Y0316754D01*
X0400687Y0316754D02*
X0402155Y0316754D01*
X0401421Y0316754D02*
X0401421Y0319689D01*
X0402155Y0319689D01*
X0401421Y0321157D02*
X0401421Y0321891D01*
X0404490Y0321157D02*
X0404490Y0316754D01*
X0405224Y0316754D02*
X0403756Y0316754D01*
X0408984Y0312808D02*
X0411920Y0312808D01*
X0410452Y0314276D02*
X0410452Y0311340D01*
X0411186Y0309672D02*
X0408250Y0309672D01*
X0411186Y0309672D02*
X0412654Y0308204D01*
X0411186Y0306736D01*
X0408250Y0306736D01*
X0408250Y0299276D02*
X0408984Y0299276D01*
X0410452Y0297808D01*
X0412654Y0297808D01*
X0410452Y0297808D02*
X0408984Y0296340D01*
X0408250Y0296340D01*
X0410452Y0294672D02*
X0410452Y0291736D01*
X0408984Y0293204D02*
X0411920Y0293204D01*
X0408984Y0289276D02*
X0410452Y0287808D01*
X0412654Y0287808D01*
X0410452Y0287808D02*
X0408984Y0286340D01*
X0408250Y0286340D01*
X0410452Y0284672D02*
X0410452Y0281736D01*
X0408984Y0283204D02*
X0411920Y0283204D01*
X0408984Y0289276D02*
X0408250Y0289276D01*
X0405224Y0321157D02*
X0404490Y0321157D01*
X0116688Y0289063D02*
X0116688Y0286127D01*
X0107799Y0287912D02*
X0104863Y0287912D01*
X0106331Y0289380D02*
X0106331Y0286444D01*
X0097890Y0286440D02*
X0097890Y0287908D01*
X0097156Y0288642D01*
X0095688Y0287908D02*
X0095688Y0286440D01*
X0096422Y0285706D01*
X0097156Y0285706D01*
X0097890Y0286440D01*
X0095688Y0287908D02*
X0094954Y0288642D01*
X0094220Y0288642D01*
X0093486Y0287908D01*
X0093486Y0286440D01*
X0094220Y0285706D01*
X0089654Y0292736D02*
X0089654Y0295672D01*
X0086718Y0292736D01*
X0085984Y0292736D01*
X0085250Y0293470D01*
X0085250Y0294938D01*
X0085984Y0295672D01*
X0085984Y0297340D02*
X0085250Y0298074D01*
X0085250Y0299542D01*
X0085984Y0300276D01*
X0086718Y0300276D01*
X0087452Y0299542D01*
X0087452Y0298074D01*
X0088186Y0297340D01*
X0088920Y0297340D01*
X0089654Y0298074D01*
X0089654Y0299542D01*
X0088920Y0300276D01*
X0089705Y0302736D02*
X0089705Y0305672D01*
X0089705Y0304204D02*
X0085301Y0304204D01*
X0086769Y0305672D01*
X0086035Y0307340D02*
X0085301Y0308074D01*
X0085301Y0309542D01*
X0086035Y0310276D01*
X0086769Y0310276D01*
X0087503Y0309542D01*
X0087503Y0308074D01*
X0088237Y0307340D01*
X0088971Y0307340D01*
X0089705Y0308074D01*
X0089705Y0309542D01*
X0088971Y0310276D01*
X0083154Y0310074D02*
X0082420Y0309340D01*
X0081686Y0310074D01*
X0081686Y0311542D01*
X0080952Y0312276D01*
X0080218Y0311542D01*
X0080218Y0309340D01*
X0080952Y0307672D02*
X0080218Y0306938D01*
X0080218Y0305470D01*
X0080952Y0304736D01*
X0081686Y0304736D01*
X0081686Y0307672D01*
X0082420Y0307672D02*
X0080952Y0307672D01*
X0082420Y0307672D02*
X0083154Y0306938D01*
X0083154Y0305470D01*
X0083154Y0303068D02*
X0080218Y0303068D01*
X0081686Y0303068D02*
X0080218Y0301600D01*
X0080218Y0300866D01*
X0080218Y0299231D02*
X0083154Y0297763D01*
X0080218Y0296295D01*
X0080952Y0294627D02*
X0080218Y0293893D01*
X0080218Y0292425D01*
X0080952Y0291691D01*
X0082420Y0291691D01*
X0083154Y0292425D01*
X0083154Y0293893D01*
X0082420Y0294627D01*
X0080952Y0294627D01*
X0083154Y0310074D02*
X0083154Y0312276D01*
D14*
X0144095Y0280528D02*
X0144095Y0274523D01*
X0146097Y0276525D01*
X0148099Y0274523D01*
X0148099Y0280528D01*
X0150541Y0279527D02*
X0150541Y0275524D01*
X0151542Y0274523D01*
X0153543Y0274523D01*
X0154544Y0275524D01*
X0154544Y0279527D01*
X0153543Y0280528D01*
X0151542Y0280528D01*
X0150541Y0279527D01*
X0156986Y0274523D02*
X0160990Y0274523D01*
X0158988Y0274523D02*
X0158988Y0280528D01*
X0163432Y0279527D02*
X0163432Y0275524D01*
X0164433Y0274523D01*
X0166434Y0274523D01*
X0167435Y0275524D01*
X0167435Y0279527D01*
X0166434Y0280528D01*
X0164433Y0280528D01*
X0163432Y0279527D01*
X0169877Y0278527D02*
X0172880Y0278527D01*
X0173881Y0277526D01*
X0173881Y0275524D01*
X0172880Y0274523D01*
X0169877Y0274523D01*
X0169877Y0280528D01*
X0171879Y0278527D02*
X0173881Y0280528D01*
X0182768Y0280528D02*
X0182768Y0276525D01*
X0184770Y0274523D01*
X0186772Y0276525D01*
X0186772Y0280528D01*
X0186772Y0277526D02*
X0182768Y0277526D01*
X0234095Y0280528D02*
X0234095Y0274523D01*
X0236097Y0276525D01*
X0238099Y0274523D01*
X0238099Y0280528D01*
X0240541Y0279527D02*
X0241542Y0280528D01*
X0243543Y0280528D01*
X0244544Y0279527D01*
X0244544Y0275524D01*
X0243543Y0274523D01*
X0241542Y0274523D01*
X0240541Y0275524D01*
X0240541Y0279527D01*
X0246986Y0274523D02*
X0250990Y0274523D01*
X0248988Y0274523D02*
X0248988Y0280528D01*
X0253432Y0279527D02*
X0253432Y0275524D01*
X0254433Y0274523D01*
X0256434Y0274523D01*
X0257435Y0275524D01*
X0257435Y0279527D01*
X0256434Y0280528D01*
X0254433Y0280528D01*
X0253432Y0279527D01*
X0259877Y0278527D02*
X0262880Y0278527D01*
X0263881Y0277526D01*
X0263881Y0275524D01*
X0262880Y0274523D01*
X0259877Y0274523D01*
X0259877Y0280528D01*
X0261879Y0278527D02*
X0263881Y0280528D01*
X0272768Y0280528D02*
X0272768Y0274523D01*
X0275771Y0274523D01*
X0276772Y0275524D01*
X0276772Y0276525D01*
X0275771Y0277526D01*
X0272768Y0277526D01*
X0272768Y0280528D02*
X0275771Y0280528D01*
X0276772Y0279527D01*
X0276772Y0278527D01*
X0275771Y0277526D01*
X0324095Y0280528D02*
X0324095Y0274523D01*
X0326097Y0276525D01*
X0328099Y0274523D01*
X0328099Y0280528D01*
X0330541Y0279527D02*
X0330541Y0275524D01*
X0331542Y0274523D01*
X0333543Y0274523D01*
X0334544Y0275524D01*
X0334544Y0279527D01*
X0333543Y0280528D01*
X0331542Y0280528D01*
X0330541Y0279527D01*
X0336986Y0274523D02*
X0340990Y0274523D01*
X0338988Y0274523D02*
X0338988Y0280528D01*
X0343432Y0279527D02*
X0343432Y0275524D01*
X0344433Y0274523D01*
X0346434Y0274523D01*
X0347435Y0275524D01*
X0347435Y0279527D01*
X0346434Y0280528D01*
X0344433Y0280528D01*
X0343432Y0279527D01*
X0349877Y0278527D02*
X0352880Y0278527D01*
X0353881Y0277526D01*
X0353881Y0275524D01*
X0352880Y0274523D01*
X0349877Y0274523D01*
X0349877Y0280528D01*
X0351879Y0278527D02*
X0353881Y0280528D01*
X0362768Y0279527D02*
X0362768Y0275524D01*
X0363769Y0274523D01*
X0365771Y0274523D01*
X0366772Y0275524D01*
X0366772Y0279527D02*
X0365771Y0280528D01*
X0363769Y0280528D01*
X0362768Y0279527D01*
M02*
