G75*
%MOIN*%
%OFA0B0*%
%FSLAX25Y25*%
%IPPOS*%
%LPD*%
%AMOC8*
5,1,8,0,0,1.08239X$1,22.5*
%
%ADD10C,0.01600*%
%ADD11C,0.06306*%
%ADD12R,0.05124X0.05124*%
%ADD13R,0.05518X0.06306*%
%ADD14C,0.07400*%
%ADD15C,0.05715*%
%ADD16C,0.06400*%
%ADD17R,0.06306X0.05518*%
%ADD18R,0.14180X0.06699*%
%ADD19R,0.08400X0.08400*%
%ADD20C,0.08400*%
%ADD21C,0.09000*%
%ADD22R,0.05518X0.06502*%
%ADD23OC8,0.06400*%
%ADD24R,0.09061X0.02762*%
%ADD25R,0.10400X0.20400*%
%ADD26R,0.06699X0.05518*%
%ADD27R,0.05518X0.06699*%
%ADD28R,0.16148X0.06699*%
%ADD29R,0.06699X0.09061*%
%ADD30C,0.05800*%
%ADD31R,0.03937X0.01772*%
%ADD32R,0.07487X0.07093*%
%ADD33C,0.07800*%
%ADD34C,0.16998*%
%ADD35C,0.16600*%
%ADD36R,0.01896X0.02369*%
%ADD37R,0.01384X0.02369*%
D10*
X0016500Y0009674D02*
X0024374Y0001800D01*
X0402327Y0001800D01*
X0410201Y0009674D01*
X0410201Y0308887D01*
X0402327Y0316761D01*
X0024374Y0316761D01*
X0016500Y0308887D01*
X0016500Y0308800D02*
X0016500Y0009800D01*
D11*
X0146500Y0011800D03*
X0156500Y0011800D03*
X0166500Y0011800D03*
X0176500Y0011800D03*
X0186500Y0011800D03*
X0196500Y0011800D03*
X0216500Y0011800D03*
X0226500Y0011800D03*
X0236500Y0011800D03*
X0246500Y0011800D03*
X0256500Y0011800D03*
X0266500Y0011800D03*
X0276500Y0011800D03*
X0286500Y0011800D03*
X0306500Y0011800D03*
X0316500Y0011800D03*
X0326500Y0011800D03*
X0336500Y0011800D03*
X0346500Y0011800D03*
X0356500Y0011800D03*
X0366500Y0011800D03*
X0376500Y0011800D03*
X0386500Y0031800D03*
X0396500Y0031800D03*
X0396500Y0041800D03*
X0386500Y0041800D03*
X0386500Y0051800D03*
X0396500Y0051800D03*
X0396500Y0061800D03*
X0386500Y0061800D03*
X0386500Y0071800D03*
X0396500Y0071800D03*
X0396500Y0081800D03*
X0386500Y0081800D03*
X0386500Y0091800D03*
X0396500Y0091800D03*
X0396500Y0101800D03*
X0386500Y0101800D03*
X0386500Y0111800D03*
X0396500Y0111800D03*
X0396500Y0121800D03*
X0386500Y0121800D03*
X0386500Y0131800D03*
X0396500Y0131800D03*
X0396500Y0141800D03*
X0386500Y0141800D03*
X0386500Y0151800D03*
X0396500Y0151800D03*
X0396500Y0161800D03*
X0386500Y0161800D03*
X0386500Y0171800D03*
X0396500Y0171800D03*
X0396500Y0181800D03*
X0386500Y0181800D03*
X0386500Y0191800D03*
X0396500Y0191800D03*
X0396500Y0201800D03*
X0386500Y0201800D03*
X0356500Y0201800D03*
X0346500Y0201800D03*
X0336500Y0201800D03*
X0326500Y0201800D03*
X0316500Y0201800D03*
X0306500Y0201800D03*
X0296500Y0201800D03*
X0286500Y0201800D03*
X0266500Y0201800D03*
X0256500Y0201800D03*
X0246500Y0201800D03*
X0236500Y0201800D03*
X0226500Y0201800D03*
X0216500Y0201800D03*
X0206500Y0201800D03*
X0196500Y0201800D03*
X0180500Y0201800D03*
X0170500Y0201800D03*
X0160500Y0201800D03*
X0150500Y0201800D03*
X0140500Y0201800D03*
X0130500Y0201800D03*
X0120500Y0201800D03*
X0110500Y0201800D03*
D12*
X0075634Y0271800D03*
X0067366Y0271800D03*
X0067366Y0281800D03*
X0075634Y0281800D03*
X0075634Y0291800D03*
X0067366Y0291800D03*
X0067366Y0301800D03*
X0075634Y0301800D03*
X0187366Y0306800D03*
X0195634Y0306800D03*
X0277366Y0306800D03*
X0285634Y0306800D03*
X0367366Y0311800D03*
X0375634Y0311800D03*
X0130634Y0011800D03*
X0122366Y0011800D03*
D13*
X0122760Y0019800D03*
X0130240Y0019800D03*
X0129846Y0046800D03*
X0123154Y0046800D03*
X0143154Y0046800D03*
X0149846Y0046800D03*
X0029846Y0176800D03*
X0023154Y0176800D03*
X0132760Y0231800D03*
X0140240Y0231800D03*
X0222760Y0231800D03*
X0230240Y0231800D03*
X0342760Y0231800D03*
X0350240Y0231800D03*
X0367760Y0302800D03*
X0375240Y0302800D03*
D14*
X0351500Y0301800D03*
X0341500Y0301800D03*
X0331500Y0301800D03*
X0321500Y0301800D03*
X0261500Y0301800D03*
X0251500Y0301800D03*
X0241500Y0301800D03*
X0231500Y0301800D03*
X0171500Y0301800D03*
X0161500Y0301800D03*
X0151500Y0301800D03*
X0141500Y0301800D03*
X0216500Y0021800D03*
X0226500Y0021800D03*
X0236500Y0021800D03*
X0246500Y0021800D03*
X0256500Y0021800D03*
X0266500Y0021800D03*
X0276500Y0021800D03*
X0286500Y0021800D03*
X0306500Y0021800D03*
X0316500Y0021800D03*
X0326500Y0021800D03*
X0336500Y0021800D03*
X0346500Y0021800D03*
X0356500Y0021800D03*
X0366500Y0021800D03*
X0376500Y0021800D03*
D15*
X0371500Y0241800D03*
X0361500Y0241800D03*
X0351500Y0241800D03*
X0341500Y0241800D03*
X0331500Y0241800D03*
X0321500Y0241800D03*
X0311500Y0241800D03*
X0301500Y0241800D03*
X0281500Y0241800D03*
X0271500Y0241800D03*
X0261500Y0241800D03*
X0251500Y0241800D03*
X0241500Y0241800D03*
X0231500Y0241800D03*
X0221500Y0241800D03*
X0211500Y0241800D03*
X0191500Y0241800D03*
X0181500Y0241800D03*
X0171500Y0241800D03*
X0161500Y0241800D03*
X0151500Y0241800D03*
X0141500Y0241800D03*
X0131500Y0241800D03*
X0121500Y0241800D03*
X0121500Y0291800D03*
X0131500Y0291800D03*
X0141500Y0291800D03*
X0151500Y0291800D03*
X0161500Y0291800D03*
X0171500Y0291800D03*
X0181500Y0291800D03*
X0191500Y0291800D03*
X0211500Y0291800D03*
X0221500Y0291800D03*
X0231500Y0291800D03*
X0241500Y0291800D03*
X0251500Y0291800D03*
X0261500Y0291800D03*
X0271500Y0291800D03*
X0281500Y0291800D03*
X0301500Y0291800D03*
X0311500Y0291800D03*
X0321500Y0291800D03*
X0331500Y0291800D03*
X0341500Y0291800D03*
X0351500Y0291800D03*
X0361500Y0291800D03*
X0371500Y0291800D03*
D16*
X0386500Y0291800D03*
X0396500Y0291800D03*
X0396500Y0281800D03*
X0386500Y0281800D03*
X0386500Y0271800D03*
X0396500Y0271800D03*
X0396500Y0256800D03*
X0386500Y0256800D03*
X0386500Y0246800D03*
X0396500Y0246800D03*
X0396500Y0236800D03*
X0386500Y0236800D03*
X0111500Y0281800D03*
X0101500Y0281800D03*
X0101500Y0291800D03*
X0111500Y0291800D03*
X0091500Y0291800D03*
X0091500Y0281800D03*
D17*
X0104000Y0268646D03*
X0104000Y0261954D03*
X0211500Y0273454D03*
X0211500Y0280146D03*
X0301500Y0280146D03*
X0301500Y0273454D03*
X0366500Y0234040D03*
X0366500Y0226560D03*
X0061500Y0160146D03*
X0061500Y0153454D03*
X0056500Y0120146D03*
X0056500Y0113454D03*
X0046500Y0113454D03*
X0046500Y0120146D03*
D18*
X0120870Y0261800D03*
X0142130Y0261800D03*
X0235870Y0261800D03*
X0257130Y0261800D03*
X0310870Y0261800D03*
X0332130Y0261800D03*
D19*
X0316500Y0278800D03*
X0226500Y0278800D03*
X0136500Y0278800D03*
D20*
X0150280Y0278800D03*
X0164059Y0278800D03*
X0177839Y0278800D03*
X0240280Y0278800D03*
X0254059Y0278800D03*
X0267839Y0278800D03*
X0330280Y0278800D03*
X0344059Y0278800D03*
X0357839Y0278800D03*
D21*
X0031500Y0238493D03*
X0031500Y0224713D03*
D22*
X0027642Y0276150D03*
X0045358Y0276150D03*
X0045358Y0307450D03*
X0027642Y0307450D03*
D23*
X0075358Y0211367D03*
X0085358Y0211367D03*
X0085358Y0201367D03*
X0075358Y0201367D03*
X0075358Y0191367D03*
X0085358Y0191367D03*
X0085358Y0181367D03*
X0075358Y0181367D03*
X0075358Y0171367D03*
X0085358Y0171367D03*
X0085358Y0161367D03*
X0075358Y0161367D03*
X0075358Y0151367D03*
X0085358Y0151367D03*
X0085358Y0141367D03*
X0075358Y0141367D03*
X0075358Y0131367D03*
X0085358Y0131367D03*
X0085358Y0121367D03*
X0075358Y0121367D03*
X0075358Y0111367D03*
X0085358Y0111367D03*
X0085358Y0101367D03*
X0075358Y0101367D03*
X0075358Y0091367D03*
X0085358Y0091367D03*
X0085358Y0081367D03*
X0075358Y0081367D03*
X0075358Y0071367D03*
X0085358Y0071367D03*
X0085358Y0061367D03*
X0075358Y0061367D03*
X0075358Y0051367D03*
X0085358Y0051367D03*
X0085358Y0041367D03*
X0075358Y0041367D03*
X0075358Y0031367D03*
X0085358Y0031367D03*
X0085358Y0021367D03*
X0075358Y0021367D03*
D24*
X0051736Y0129300D03*
X0051736Y0134300D03*
X0051736Y0139300D03*
X0051736Y0144300D03*
X0031264Y0144300D03*
X0031264Y0139300D03*
X0031264Y0134300D03*
X0031264Y0129300D03*
D25*
X0041500Y0136800D03*
D26*
X0061500Y0135737D03*
X0061500Y0127863D03*
X0030500Y0115737D03*
X0030500Y0107863D03*
D27*
X0052563Y0176800D03*
X0060437Y0176800D03*
X0060437Y0221800D03*
X0052563Y0221800D03*
X0034937Y0021300D03*
X0027063Y0021300D03*
D28*
X0029492Y0046800D03*
X0053508Y0046800D03*
X0054020Y0199438D03*
X0030004Y0199438D03*
D29*
X0029492Y0082312D03*
X0054689Y0082312D03*
D30*
X0058500Y0024000D02*
X0058500Y0018600D01*
X0048500Y0018600D02*
X0048500Y0024000D01*
D31*
X0199984Y0036623D03*
X0199984Y0039182D03*
X0199984Y0041741D03*
X0199984Y0044123D03*
X0199984Y0046682D03*
X0199984Y0049241D03*
X0199984Y0051800D03*
X0199984Y0054359D03*
X0199984Y0056918D03*
X0199984Y0059477D03*
X0223016Y0059477D03*
X0223016Y0056918D03*
X0223016Y0054359D03*
X0223016Y0051800D03*
X0223016Y0049241D03*
X0223016Y0046682D03*
X0223016Y0044123D03*
X0223016Y0041741D03*
X0223016Y0039182D03*
X0223016Y0036623D03*
X0304984Y0054123D03*
X0304984Y0056682D03*
X0304984Y0059241D03*
X0304984Y0061800D03*
X0304984Y0064359D03*
X0304984Y0066918D03*
X0304984Y0069477D03*
X0304984Y0071859D03*
X0304984Y0074418D03*
X0304984Y0076977D03*
X0304984Y0094123D03*
X0304984Y0096682D03*
X0304984Y0099241D03*
X0304984Y0101800D03*
X0304984Y0104359D03*
X0304984Y0106918D03*
X0304984Y0109477D03*
X0304984Y0111859D03*
X0304984Y0114418D03*
X0304984Y0116977D03*
X0328016Y0116977D03*
X0328016Y0114418D03*
X0328016Y0111859D03*
X0328016Y0109477D03*
X0328016Y0106918D03*
X0328016Y0104359D03*
X0328016Y0101800D03*
X0328016Y0099241D03*
X0328016Y0096682D03*
X0328016Y0094123D03*
X0328016Y0076977D03*
X0328016Y0074418D03*
X0328016Y0071859D03*
X0328016Y0069477D03*
X0328016Y0066918D03*
X0328016Y0064359D03*
X0328016Y0061800D03*
X0328016Y0059241D03*
X0328016Y0056682D03*
X0328016Y0054123D03*
X0223016Y0164123D03*
X0223016Y0166682D03*
X0223016Y0169241D03*
X0223016Y0171800D03*
X0223016Y0174359D03*
X0223016Y0176918D03*
X0223016Y0179477D03*
X0223016Y0181859D03*
X0223016Y0184418D03*
X0223016Y0186977D03*
X0199984Y0186977D03*
X0199984Y0184418D03*
X0199984Y0181859D03*
X0199984Y0179477D03*
X0199984Y0176918D03*
X0199984Y0174359D03*
X0199984Y0171800D03*
X0199984Y0169241D03*
X0199984Y0166682D03*
X0199984Y0164123D03*
D32*
X0134571Y0031800D03*
X0118429Y0031800D03*
D33*
X0346500Y0211800D03*
X0356500Y0211800D03*
X0376500Y0141800D03*
X0376500Y0131800D03*
X0376500Y0121800D03*
X0366500Y0121800D03*
X0366500Y0131800D03*
X0366500Y0091800D03*
X0366500Y0081800D03*
X0376500Y0081800D03*
X0376500Y0091800D03*
X0376500Y0071800D03*
X0376500Y0061800D03*
X0366500Y0061800D03*
X0366500Y0071800D03*
D34*
X0059637Y0256300D03*
D35*
X0047126Y0241491D03*
X0030815Y0256200D03*
D36*
X0073350Y0259930D03*
X0073350Y0263670D03*
X0079650Y0263670D03*
X0079650Y0259930D03*
X0198350Y0253670D03*
X0198350Y0249930D03*
X0204650Y0249930D03*
X0204650Y0253670D03*
D37*
X0202484Y0253670D03*
X0200516Y0253670D03*
X0200516Y0249930D03*
X0202484Y0249930D03*
X0077484Y0259930D03*
X0075516Y0259930D03*
X0075516Y0263670D03*
X0077484Y0263670D03*
M02*
