G75*
G70*
%OFA0B0*%
%FSLAX24Y24*%
%IPPOS*%
%LPD*%
%AMOC8*
5,1,8,0,0,1.08239X$1,22.5*
%
%ADD10C,0.0060*%
%ADD11C,0.0030*%
%ADD12C,0.0160*%
%ADD13C,0.0040*%
%ADD14C,0.0050*%
%ADD15C,0.0000*%
%ADD16C,0.0230*%
%ADD17R,0.0118X0.0059*%
%ADD18R,0.0118X0.0118*%
%ADD19C,0.0080*%
%ADD20C,0.0020*%
%ADD21R,0.0079X0.0079*%
%ADD22C,0.0010*%
%ADD23R,0.0059X0.0118*%
%ADD24R,0.0300X0.0340*%
D10*
X002452Y003777D02*
X002879Y003777D01*
X002985Y003884D01*
X002985Y004204D01*
X002345Y004204D01*
X002345Y003884D01*
X002452Y003777D01*
X002345Y004421D02*
X002985Y004421D01*
X002985Y004848D02*
X002345Y004421D01*
X002345Y004848D02*
X002985Y004848D01*
X002879Y005066D02*
X002985Y005173D01*
X002985Y005386D01*
X002879Y005493D01*
X002452Y005493D01*
X002345Y005386D01*
X002345Y005173D01*
X002452Y005066D01*
X002665Y005066D01*
X002665Y005279D01*
X002508Y005860D02*
X002508Y006287D01*
X002295Y006073D02*
X002722Y006073D01*
X003408Y006910D02*
X003408Y007337D01*
X003195Y007123D02*
X003622Y007123D01*
X005045Y006123D02*
X005472Y006123D01*
X005258Y005910D02*
X005258Y006337D01*
X005386Y006563D02*
X005386Y005763D01*
X005486Y005663D01*
X006286Y005663D01*
X006386Y005763D01*
X006486Y005663D01*
X007286Y005663D01*
X007386Y005763D01*
X007386Y006563D01*
X007286Y006663D01*
X006486Y006663D01*
X006386Y006563D01*
X006286Y006663D01*
X005486Y006663D01*
X005386Y006563D01*
X010012Y007901D02*
X010012Y010251D01*
X010056Y010253D01*
X010099Y010259D01*
X010141Y010268D01*
X010183Y010281D01*
X010223Y010298D01*
X010262Y010318D01*
X010299Y010341D01*
X010333Y010368D01*
X010366Y010397D01*
X010395Y010430D01*
X010422Y010464D01*
X010445Y010501D01*
X010465Y010540D01*
X010482Y010580D01*
X010495Y010622D01*
X010504Y010664D01*
X010510Y010707D01*
X010512Y010751D01*
X010510Y010795D01*
X010504Y010838D01*
X010495Y010880D01*
X010482Y010922D01*
X010465Y010962D01*
X010445Y011001D01*
X010422Y011038D01*
X010395Y011072D01*
X010366Y011105D01*
X010333Y011134D01*
X010299Y011161D01*
X010262Y011184D01*
X010223Y011204D01*
X010183Y011221D01*
X010141Y011234D01*
X010099Y011243D01*
X010056Y011249D01*
X010012Y011251D01*
X010012Y013601D01*
X017912Y013601D01*
X017912Y007901D01*
X010012Y007901D01*
X015931Y010895D02*
X015931Y012395D01*
X016181Y012645D01*
X016681Y012645D01*
X016931Y012395D01*
X016931Y010895D01*
X017181Y010645D01*
X017681Y010645D01*
X017931Y010895D01*
X018181Y010645D01*
X018681Y010645D01*
X018931Y010895D01*
X018931Y012395D01*
X018681Y012645D01*
X018181Y012645D01*
X017931Y012395D01*
X017931Y010895D01*
X016931Y010895D02*
X016681Y010645D01*
X016181Y010645D01*
X015931Y010895D01*
X016931Y012395D02*
X017181Y012645D01*
X017681Y012645D01*
X017931Y012395D01*
X017893Y014220D02*
X009993Y014220D01*
X009993Y016570D01*
X010037Y016572D01*
X010080Y016578D01*
X010122Y016587D01*
X010164Y016600D01*
X010204Y016617D01*
X010243Y016637D01*
X010280Y016660D01*
X010314Y016687D01*
X010347Y016716D01*
X010376Y016749D01*
X010403Y016783D01*
X010426Y016820D01*
X010446Y016859D01*
X010463Y016899D01*
X010476Y016941D01*
X010485Y016983D01*
X010491Y017026D01*
X010493Y017070D01*
X010491Y017114D01*
X010485Y017157D01*
X010476Y017199D01*
X010463Y017241D01*
X010446Y017281D01*
X010426Y017320D01*
X010403Y017357D01*
X010376Y017391D01*
X010347Y017424D01*
X010314Y017453D01*
X010280Y017480D01*
X010243Y017503D01*
X010204Y017523D01*
X010164Y017540D01*
X010122Y017553D01*
X010080Y017562D01*
X010037Y017568D01*
X009993Y017570D01*
X009993Y019920D01*
X017893Y019920D01*
X017893Y014220D01*
X017661Y016963D02*
X017161Y016963D01*
X016911Y017213D01*
X016911Y018713D01*
X017161Y018963D01*
X017661Y018963D01*
X017911Y018713D01*
X018161Y018963D01*
X018661Y018963D01*
X018911Y018713D01*
X018911Y017213D01*
X018661Y016963D01*
X018161Y016963D01*
X017911Y017213D01*
X017911Y018713D01*
X016911Y018713D02*
X016661Y018963D01*
X016161Y018963D01*
X015911Y018713D01*
X015911Y017213D01*
X016161Y016963D01*
X016661Y016963D01*
X016911Y017213D01*
X017661Y016963D02*
X017911Y017213D01*
X018115Y023273D02*
X018615Y023273D01*
X018865Y023523D01*
X018865Y024023D01*
X019115Y024273D01*
X018865Y024523D01*
X018865Y025023D01*
X019115Y025273D01*
X018865Y025523D01*
X018865Y026023D01*
X019115Y026273D01*
X019615Y026273D01*
X019865Y026023D01*
X019865Y025523D01*
X019615Y025273D01*
X019865Y025023D01*
X019865Y024523D01*
X019615Y024273D01*
X019865Y024023D01*
X019865Y023523D01*
X019615Y023273D01*
X019115Y023273D01*
X018865Y023523D01*
X018865Y024023D01*
X018615Y024273D01*
X018865Y024523D01*
X018865Y025023D01*
X018615Y025273D01*
X018865Y025523D01*
X018865Y026023D01*
X018615Y026273D01*
X018115Y026273D01*
X017865Y026023D01*
X017615Y026273D01*
X017115Y026273D01*
X016865Y026023D01*
X016865Y025523D01*
X017115Y025273D01*
X016865Y025023D01*
X016865Y024523D01*
X017115Y024273D01*
X016865Y024023D01*
X016865Y023523D01*
X017115Y023273D01*
X017615Y023273D01*
X017865Y023523D01*
X017865Y024023D01*
X017615Y024273D01*
X017865Y024523D01*
X017865Y025023D01*
X017615Y025273D01*
X017865Y025523D01*
X017865Y026023D01*
X017865Y025523D01*
X018115Y025273D01*
X017865Y025023D01*
X017865Y024523D01*
X018115Y024273D01*
X017865Y024023D01*
X017865Y023523D01*
X018115Y023273D01*
X016865Y023523D02*
X016615Y023273D01*
X016115Y023273D01*
X015865Y023523D01*
X015865Y024023D01*
X016115Y024273D01*
X015865Y024523D01*
X015865Y025023D01*
X016115Y025273D01*
X015865Y025523D01*
X015865Y026023D01*
X016115Y026273D01*
X016615Y026273D01*
X016865Y026023D01*
X016865Y025523D01*
X016615Y025273D01*
X016865Y025023D01*
X016865Y024523D01*
X016615Y024273D01*
X016865Y024023D01*
X016865Y023523D01*
X015694Y023776D02*
X015227Y023776D01*
X015461Y024010D02*
X015461Y023543D01*
X015392Y024886D02*
X015819Y024886D01*
X015485Y025457D02*
X015251Y025457D01*
X015134Y025573D01*
X015251Y025807D02*
X015134Y025924D01*
X015134Y026040D01*
X015251Y026157D01*
X015485Y026157D01*
X015601Y026040D01*
X015485Y025807D02*
X015601Y025690D01*
X015601Y025573D01*
X015485Y025457D01*
X015485Y025807D02*
X015251Y025807D01*
X013922Y026023D02*
X013495Y026023D01*
X013708Y026237D02*
X013708Y025810D01*
X013658Y026810D02*
X013658Y027237D01*
X013445Y027023D02*
X013872Y027023D01*
X012372Y025723D02*
X011945Y025723D01*
X012158Y025937D02*
X012158Y025510D01*
X011908Y028160D02*
X011908Y028587D01*
X011695Y028373D02*
X012122Y028373D01*
X013913Y030133D02*
X014019Y030027D01*
X014233Y030027D01*
X014340Y030133D01*
X014340Y030240D01*
X014233Y030347D01*
X014019Y030347D01*
X013913Y030454D01*
X013913Y030560D01*
X014019Y030667D01*
X014233Y030667D01*
X014340Y030560D01*
X014557Y030667D02*
X014557Y030027D01*
X014771Y030240D01*
X014984Y030027D01*
X014984Y030667D01*
X015202Y030454D02*
X015415Y030667D01*
X015415Y030027D01*
X015202Y030027D02*
X015629Y030027D01*
X016881Y030120D02*
X017131Y029870D01*
X016881Y029620D01*
X016881Y029120D01*
X017131Y028870D01*
X016881Y028620D01*
X016881Y028120D01*
X017131Y027870D01*
X017631Y027870D01*
X017881Y028120D01*
X018131Y027870D01*
X018631Y027870D01*
X018881Y028120D01*
X018881Y028620D01*
X018631Y028870D01*
X018881Y029120D01*
X018881Y029620D01*
X018631Y029870D01*
X018881Y030120D01*
X018881Y030620D01*
X018631Y030870D01*
X018131Y030870D01*
X017881Y030620D01*
X017881Y030120D01*
X018131Y029870D01*
X017881Y029620D01*
X017881Y029120D01*
X018131Y028870D01*
X017881Y028620D01*
X017881Y028120D01*
X017881Y028620D01*
X017631Y028870D01*
X017881Y029120D01*
X017881Y029620D01*
X017631Y029870D01*
X017881Y030120D01*
X017881Y030620D01*
X017631Y030870D01*
X017131Y030870D01*
X016881Y030620D01*
X016881Y030120D01*
X017215Y030867D02*
X017215Y031160D01*
X017215Y031013D02*
X017656Y031013D01*
X017509Y031160D01*
X017582Y031327D02*
X017656Y031400D01*
X017656Y031547D01*
X017582Y031620D01*
X017509Y031620D01*
X017436Y031547D01*
X017436Y031400D01*
X017362Y031327D01*
X017289Y031327D01*
X017215Y031400D01*
X017215Y031547D01*
X017289Y031620D01*
X018160Y031547D02*
X018234Y031620D01*
X018160Y031547D02*
X018160Y031400D01*
X018234Y031327D01*
X018307Y031327D01*
X018380Y031400D01*
X018380Y031547D01*
X018454Y031620D01*
X018527Y031620D01*
X018601Y031547D01*
X018601Y031400D01*
X018527Y031327D01*
X018527Y031160D02*
X018601Y031087D01*
X018601Y030940D01*
X018527Y030867D01*
X018454Y030867D01*
X018160Y031160D01*
X018160Y030867D01*
X019184Y030434D02*
X019257Y030507D01*
X019184Y030434D02*
X019184Y030287D01*
X019257Y030214D01*
X019331Y030214D01*
X019404Y030287D01*
X019404Y030434D01*
X019478Y030507D01*
X019551Y030507D01*
X019624Y030434D01*
X019624Y030287D01*
X019551Y030214D01*
X019404Y029523D02*
X019404Y029229D01*
X019551Y029376D02*
X019257Y029376D01*
X019404Y028499D02*
X019404Y028206D01*
X020415Y029123D02*
X020415Y030623D01*
X020665Y030873D01*
X021165Y030873D01*
X021415Y030623D01*
X021415Y029123D01*
X021165Y028873D01*
X020665Y028873D01*
X020415Y029123D01*
X021415Y029123D02*
X021665Y028873D01*
X022165Y028873D01*
X022415Y029123D01*
X022415Y030623D01*
X022665Y030873D01*
X023165Y030873D01*
X023415Y030623D01*
X023415Y029123D01*
X023165Y028873D01*
X022665Y028873D01*
X022415Y029123D01*
X023415Y029123D02*
X023665Y028873D01*
X024165Y028873D01*
X024415Y029123D01*
X024415Y030623D01*
X024665Y030873D01*
X025165Y030873D01*
X025415Y030623D01*
X025415Y029123D01*
X025165Y028873D01*
X024665Y028873D01*
X024415Y029123D01*
X025415Y029123D02*
X025665Y028873D01*
X026165Y028873D01*
X026415Y029123D01*
X026415Y030623D01*
X026665Y030873D01*
X027165Y030873D01*
X027415Y030623D01*
X027415Y029123D01*
X027165Y028873D01*
X026665Y028873D01*
X026415Y029123D01*
X027415Y029123D02*
X027665Y028873D01*
X028165Y028873D01*
X028415Y029123D01*
X028415Y030623D01*
X028665Y030873D01*
X029165Y030873D01*
X029415Y030623D01*
X029415Y029123D01*
X029165Y028873D01*
X028665Y028873D01*
X028415Y029123D01*
X029415Y029123D02*
X029665Y028873D01*
X030165Y028873D01*
X030415Y029123D01*
X030415Y030623D01*
X030665Y030873D01*
X031165Y030873D01*
X031415Y030623D01*
X031415Y029123D01*
X031165Y028873D01*
X030665Y028873D01*
X030415Y029123D01*
X031415Y029123D02*
X031665Y028873D01*
X032165Y028873D01*
X032415Y029123D01*
X032415Y030623D01*
X032665Y030873D01*
X033165Y030873D01*
X033415Y030623D01*
X033415Y029123D01*
X033165Y028873D01*
X032665Y028873D01*
X032415Y029123D01*
X033415Y029123D02*
X033665Y028873D01*
X034165Y028873D01*
X034415Y029123D01*
X034415Y030623D01*
X034165Y030873D01*
X033665Y030873D01*
X033415Y030623D01*
X034415Y030623D02*
X034665Y030873D01*
X035165Y030873D01*
X035415Y030623D01*
X035415Y029123D01*
X035165Y028873D01*
X034665Y028873D01*
X034415Y029123D01*
X035415Y029123D02*
X035665Y028873D01*
X036165Y028873D01*
X036415Y029123D01*
X036415Y030623D01*
X036165Y030873D01*
X035665Y030873D01*
X035415Y030623D01*
X036415Y030623D02*
X036665Y030873D01*
X037165Y030873D01*
X037415Y030623D01*
X037415Y029123D01*
X037165Y028873D01*
X036665Y028873D01*
X036415Y029123D01*
X037415Y029123D02*
X037665Y028873D01*
X038165Y028873D01*
X038415Y029123D01*
X038415Y030623D01*
X038165Y030873D01*
X037665Y030873D01*
X037415Y030623D01*
X038415Y030623D02*
X038665Y030873D01*
X039165Y030873D01*
X039415Y030623D01*
X039415Y029123D01*
X039165Y028873D01*
X038665Y028873D01*
X038415Y029123D01*
X039415Y029123D02*
X039665Y028873D01*
X040165Y028873D01*
X040415Y029123D01*
X040415Y030623D01*
X040165Y030873D01*
X039665Y030873D01*
X039415Y030623D01*
X032415Y030623D02*
X032165Y030873D01*
X031665Y030873D01*
X031415Y030623D01*
X030415Y030623D02*
X030165Y030873D01*
X029665Y030873D01*
X029415Y030623D01*
X028415Y030623D02*
X028165Y030873D01*
X027665Y030873D01*
X027415Y030623D01*
X026415Y030623D02*
X026165Y030873D01*
X025665Y030873D01*
X025415Y030623D01*
X024415Y030623D02*
X024165Y030873D01*
X023665Y030873D01*
X023415Y030623D01*
X022415Y030623D02*
X022165Y030873D01*
X021665Y030873D01*
X021415Y030623D01*
X004426Y027013D02*
X003403Y027013D01*
X003383Y027011D01*
X003363Y027007D01*
X003345Y026999D01*
X003328Y026989D01*
X003312Y026976D01*
X003299Y026960D01*
X003289Y026943D01*
X003281Y026925D01*
X003277Y026905D01*
X003275Y026885D01*
X003275Y025861D02*
X003277Y025841D01*
X003281Y025821D01*
X003289Y025803D01*
X003299Y025786D01*
X003312Y025770D01*
X003328Y025757D01*
X003345Y025747D01*
X003363Y025739D01*
X003383Y025735D01*
X003403Y025733D01*
X003403Y025734D02*
X004426Y025734D01*
X004426Y025733D02*
X004446Y025735D01*
X004466Y025739D01*
X004484Y025747D01*
X004501Y025757D01*
X004517Y025770D01*
X004530Y025786D01*
X004540Y025803D01*
X004548Y025821D01*
X004552Y025841D01*
X004554Y025861D01*
X004554Y026885D02*
X004552Y026905D01*
X004548Y026925D01*
X004540Y026943D01*
X004530Y026960D01*
X004517Y026976D01*
X004501Y026989D01*
X004484Y026999D01*
X004466Y027007D01*
X004446Y027011D01*
X004426Y027013D01*
X005241Y015309D02*
X005241Y014842D01*
X005474Y015075D02*
X005007Y015075D01*
X013058Y002937D02*
X013058Y002510D01*
X012845Y002723D02*
X013272Y002723D01*
X026915Y009623D02*
X026915Y011123D01*
X027165Y011373D01*
X027665Y011373D01*
X027915Y011123D01*
X028165Y011373D01*
X028665Y011373D01*
X028915Y011123D01*
X029165Y011373D01*
X029665Y011373D01*
X029915Y011123D01*
X030165Y011373D01*
X030665Y011373D01*
X030915Y011123D01*
X030915Y009623D01*
X030665Y009373D01*
X030165Y009373D01*
X029915Y009623D01*
X029665Y009373D01*
X029165Y009373D01*
X028915Y009623D01*
X028665Y009373D01*
X028165Y009373D01*
X027915Y009623D01*
X027665Y009373D01*
X027165Y009373D01*
X026915Y009623D01*
X034415Y013916D02*
X034882Y013916D01*
X034649Y014149D02*
X034649Y013682D01*
X036365Y006773D02*
X037465Y006773D01*
X037482Y006771D01*
X037499Y006767D01*
X037515Y006760D01*
X037529Y006750D01*
X037542Y006737D01*
X037552Y006723D01*
X037559Y006707D01*
X037563Y006690D01*
X037565Y006673D01*
X037565Y006073D01*
X037563Y006056D01*
X037559Y006039D01*
X037552Y006023D01*
X037542Y006009D01*
X037529Y005996D01*
X037515Y005986D01*
X037499Y005979D01*
X037482Y005975D01*
X037465Y005973D01*
X036365Y005973D01*
X036348Y005975D01*
X036331Y005979D01*
X036315Y005986D01*
X036301Y005996D01*
X036288Y006009D01*
X036278Y006023D01*
X036271Y006039D01*
X036267Y006056D01*
X036265Y006073D01*
X036265Y006673D01*
X036267Y006690D01*
X036271Y006707D01*
X036278Y006723D01*
X036288Y006737D01*
X036301Y006750D01*
X036315Y006760D01*
X036331Y006767D01*
X036348Y006771D01*
X036365Y006773D01*
X036365Y005773D02*
X037465Y005773D01*
X037482Y005771D01*
X037499Y005767D01*
X037515Y005760D01*
X037529Y005750D01*
X037542Y005737D01*
X037552Y005723D01*
X037559Y005707D01*
X037563Y005690D01*
X037565Y005673D01*
X037565Y005073D01*
X037563Y005056D01*
X037559Y005039D01*
X037552Y005023D01*
X037542Y005009D01*
X037529Y004996D01*
X037515Y004986D01*
X037499Y004979D01*
X037482Y004975D01*
X037465Y004973D01*
X036365Y004973D01*
X036348Y004975D01*
X036331Y004979D01*
X036315Y004986D01*
X036301Y004996D01*
X036288Y005009D01*
X036278Y005023D01*
X036271Y005039D01*
X036267Y005056D01*
X036265Y005073D01*
X036265Y005673D01*
X036267Y005690D01*
X036271Y005707D01*
X036278Y005723D01*
X036288Y005737D01*
X036301Y005750D01*
X036315Y005760D01*
X036331Y005767D01*
X036348Y005771D01*
X036365Y005773D01*
X036365Y004773D02*
X037465Y004773D01*
X037482Y004771D01*
X037499Y004767D01*
X037515Y004760D01*
X037529Y004750D01*
X037542Y004737D01*
X037552Y004723D01*
X037559Y004707D01*
X037563Y004690D01*
X037565Y004673D01*
X037565Y004073D01*
X037563Y004056D01*
X037559Y004039D01*
X037552Y004023D01*
X037542Y004009D01*
X037529Y003996D01*
X037515Y003986D01*
X037499Y003979D01*
X037482Y003975D01*
X037465Y003973D01*
X036365Y003973D01*
X036348Y003975D01*
X036331Y003979D01*
X036315Y003986D01*
X036301Y003996D01*
X036288Y004009D01*
X036278Y004023D01*
X036271Y004039D01*
X036267Y004056D01*
X036265Y004073D01*
X036265Y004673D01*
X036267Y004690D01*
X036271Y004707D01*
X036278Y004723D01*
X036288Y004737D01*
X036301Y004750D01*
X036315Y004760D01*
X036331Y004767D01*
X036348Y004771D01*
X036365Y004773D01*
D11*
X026660Y009523D02*
X026598Y009461D01*
X026537Y009461D01*
X026475Y009523D01*
X026413Y009461D01*
X026351Y009461D01*
X026290Y009523D01*
X026290Y009646D01*
X026351Y009708D01*
X026475Y009829D02*
X026475Y010076D01*
X026660Y010198D02*
X026290Y010445D01*
X026351Y010566D02*
X026660Y010566D01*
X026660Y010445D02*
X026290Y010198D01*
X026351Y010566D02*
X026290Y010628D01*
X026290Y010751D01*
X026351Y010813D01*
X026660Y010813D01*
X026537Y010934D02*
X026290Y010934D01*
X026475Y010934D02*
X026475Y011181D01*
X026537Y011181D02*
X026290Y011181D01*
X026537Y011181D02*
X026660Y011058D01*
X026537Y010934D01*
X026598Y009708D02*
X026660Y009646D01*
X026660Y009523D01*
X026475Y009523D02*
X026475Y009585D01*
X018639Y009672D02*
X018577Y009611D01*
X018515Y009611D01*
X018454Y009672D01*
X018392Y009611D01*
X018330Y009611D01*
X018269Y009672D01*
X018269Y009796D01*
X018330Y009858D01*
X018330Y009979D02*
X018269Y010041D01*
X018269Y010164D01*
X018330Y010226D01*
X018269Y010347D02*
X018639Y010347D01*
X018515Y010471D01*
X018639Y010594D01*
X018269Y010594D01*
X018515Y010226D02*
X018454Y010164D01*
X018454Y010041D01*
X018392Y009979D01*
X018330Y009979D01*
X018577Y009979D02*
X018639Y010041D01*
X018639Y010164D01*
X018577Y010226D01*
X018515Y010226D01*
X018577Y009858D02*
X018639Y009796D01*
X018639Y009672D01*
X018454Y009672D02*
X018454Y009734D01*
X017615Y009672D02*
X017615Y009796D01*
X017554Y009858D01*
X017554Y009979D02*
X017615Y010041D01*
X017615Y010164D01*
X017554Y010226D01*
X017492Y010226D01*
X017430Y010164D01*
X017430Y010041D01*
X017368Y009979D01*
X017307Y009979D01*
X017245Y010041D01*
X017245Y010164D01*
X017307Y010226D01*
X017245Y010347D02*
X017615Y010347D01*
X017492Y010471D01*
X017615Y010594D01*
X017245Y010594D01*
X016592Y010594D02*
X016468Y010471D01*
X016592Y010347D01*
X016221Y010347D01*
X016283Y010226D02*
X016221Y010164D01*
X016221Y010041D01*
X016283Y009979D01*
X016345Y009979D01*
X016406Y010041D01*
X016406Y010164D01*
X016468Y010226D01*
X016530Y010226D01*
X016592Y010164D01*
X016592Y010041D01*
X016530Y009979D01*
X016468Y009858D02*
X016592Y009734D01*
X016221Y009734D01*
X016221Y009611D02*
X016221Y009858D01*
X016221Y010594D02*
X016592Y010594D01*
X017245Y009858D02*
X017492Y009611D01*
X017554Y009611D01*
X017615Y009672D01*
X017245Y009611D02*
X017245Y009858D01*
X014877Y010434D02*
X014828Y010386D01*
X014780Y010386D01*
X014732Y010434D01*
X014732Y010531D01*
X014780Y010579D01*
X014828Y010579D01*
X014877Y010531D01*
X014877Y010434D01*
X014732Y010434D02*
X014683Y010386D01*
X014635Y010386D01*
X014586Y010434D01*
X014586Y010531D01*
X014635Y010579D01*
X014683Y010579D01*
X014732Y010531D01*
X014732Y010681D02*
X014683Y010729D01*
X014683Y010874D01*
X014586Y010874D02*
X014877Y010874D01*
X014877Y010729D01*
X014828Y010681D01*
X014732Y010681D01*
X014683Y010777D02*
X014586Y010681D01*
X010775Y011837D02*
X010581Y011837D01*
X010581Y011547D01*
X010480Y011547D02*
X010480Y011741D01*
X010581Y011692D02*
X010678Y011692D01*
X010480Y011547D02*
X010335Y011547D01*
X010287Y011596D01*
X010287Y011741D01*
X010185Y011789D02*
X009992Y011596D01*
X010040Y011547D01*
X010137Y011547D01*
X010185Y011596D01*
X010185Y011789D01*
X010137Y011837D01*
X010040Y011837D01*
X009992Y011789D01*
X009992Y011596D01*
X009891Y011596D02*
X009842Y011547D01*
X009746Y011547D01*
X009697Y011596D01*
X009891Y011789D01*
X009891Y011596D01*
X009891Y011789D02*
X009842Y011837D01*
X009746Y011837D01*
X009697Y011789D01*
X009697Y011596D01*
X009596Y011547D02*
X009403Y011547D01*
X009499Y011547D02*
X009499Y011837D01*
X009403Y011741D01*
X008588Y009985D02*
X008442Y009840D01*
X008636Y009840D01*
X008588Y009695D02*
X008588Y009985D01*
X008341Y009937D02*
X008293Y009985D01*
X008196Y009985D01*
X008148Y009937D01*
X008148Y009743D01*
X008196Y009695D01*
X008293Y009695D01*
X008341Y009743D01*
X006588Y013151D02*
X006588Y013344D01*
X006588Y013248D02*
X006297Y013248D01*
X006394Y013151D01*
X006346Y013446D02*
X006297Y013494D01*
X006297Y013591D01*
X006346Y013639D01*
X006539Y013446D01*
X006588Y013494D01*
X006588Y013591D01*
X006539Y013639D01*
X006346Y013639D01*
X006346Y013740D02*
X006297Y013789D01*
X006297Y013885D01*
X006346Y013934D01*
X006539Y013740D01*
X006588Y013789D01*
X006588Y013885D01*
X006539Y013934D01*
X006346Y013934D01*
X006394Y014035D02*
X006539Y014035D01*
X006588Y014083D01*
X006588Y014228D01*
X006394Y014228D01*
X006442Y014329D02*
X006442Y014426D01*
X006297Y014329D02*
X006588Y014329D01*
X006297Y014329D02*
X006297Y014523D01*
X006346Y013740D02*
X006539Y013740D01*
X006539Y013446D02*
X006346Y013446D01*
X008682Y013769D02*
X008731Y013721D01*
X008924Y013721D01*
X008972Y013769D01*
X008972Y013866D01*
X008924Y013914D01*
X008924Y014016D02*
X008827Y014016D01*
X008827Y014161D01*
X008876Y014209D01*
X008924Y014209D01*
X008972Y014161D01*
X008972Y014064D01*
X008924Y014016D01*
X008827Y014016D02*
X008731Y014112D01*
X008682Y014209D01*
X008731Y013914D02*
X008682Y013866D01*
X008682Y013769D01*
X009505Y016488D02*
X009698Y016488D01*
X009601Y016488D02*
X009601Y016778D01*
X009505Y016681D01*
X009799Y016730D02*
X009799Y016536D01*
X009993Y016730D01*
X009993Y016536D01*
X009945Y016488D01*
X009848Y016488D01*
X009799Y016536D01*
X009799Y016730D02*
X009848Y016778D01*
X009945Y016778D01*
X009993Y016730D01*
X010094Y016730D02*
X010142Y016778D01*
X010239Y016778D01*
X010288Y016730D01*
X010094Y016536D01*
X010142Y016488D01*
X010239Y016488D01*
X010288Y016536D01*
X010288Y016730D01*
X010389Y016681D02*
X010389Y016536D01*
X010437Y016488D01*
X010582Y016488D01*
X010582Y016681D01*
X010683Y016633D02*
X010780Y016633D01*
X010683Y016488D02*
X010683Y016778D01*
X010877Y016778D01*
X010094Y016730D02*
X010094Y016536D01*
X011593Y018064D02*
X011690Y018064D01*
X011738Y018112D01*
X011840Y018112D02*
X011888Y018064D01*
X011985Y018064D01*
X012033Y018112D01*
X012033Y018161D01*
X011985Y018209D01*
X011936Y018209D01*
X011985Y018209D02*
X012033Y018257D01*
X012033Y018306D01*
X011985Y018354D01*
X011888Y018354D01*
X011840Y018306D01*
X011738Y018306D02*
X011690Y018354D01*
X011593Y018354D01*
X011545Y018306D01*
X011545Y018112D01*
X011593Y018064D01*
X014567Y016935D02*
X014858Y016935D01*
X014858Y016790D01*
X014809Y016741D01*
X014713Y016741D01*
X014664Y016790D01*
X014664Y016935D01*
X014664Y016838D02*
X014567Y016741D01*
X014616Y016640D02*
X014567Y016592D01*
X014567Y016495D01*
X014616Y016447D01*
X014713Y016447D01*
X014761Y016495D01*
X014761Y016543D01*
X014713Y016640D01*
X014858Y016640D01*
X014858Y016447D01*
X016221Y016463D02*
X016283Y016525D01*
X016221Y016463D02*
X016221Y016340D01*
X016283Y016278D01*
X016345Y016278D01*
X016406Y016340D01*
X016406Y016463D01*
X016468Y016525D01*
X016530Y016525D01*
X016592Y016463D01*
X016592Y016340D01*
X016530Y016278D01*
X016468Y016157D02*
X016592Y016033D01*
X016221Y016033D01*
X016221Y015910D02*
X016221Y016157D01*
X016221Y016646D02*
X016592Y016646D01*
X016468Y016770D01*
X016592Y016893D01*
X016221Y016893D01*
X017206Y016893D02*
X017576Y016893D01*
X017452Y016770D01*
X017576Y016646D01*
X017206Y016646D01*
X017267Y016525D02*
X017206Y016463D01*
X017206Y016340D01*
X017267Y016278D01*
X017329Y016278D01*
X017391Y016340D01*
X017391Y016463D01*
X017452Y016525D01*
X017514Y016525D01*
X017576Y016463D01*
X017576Y016340D01*
X017514Y016278D01*
X017514Y016157D02*
X017576Y016095D01*
X017576Y015972D01*
X017514Y015910D01*
X017452Y015910D01*
X017206Y016157D01*
X017206Y015910D01*
X018229Y015972D02*
X018291Y015910D01*
X018353Y015910D01*
X018414Y015972D01*
X018414Y016033D01*
X018414Y015972D02*
X018476Y015910D01*
X018538Y015910D01*
X018599Y015972D01*
X018599Y016095D01*
X018538Y016157D01*
X018538Y016278D02*
X018599Y016340D01*
X018599Y016463D01*
X018538Y016525D01*
X018476Y016525D01*
X018414Y016463D01*
X018414Y016340D01*
X018353Y016278D01*
X018291Y016278D01*
X018229Y016340D01*
X018229Y016463D01*
X018291Y016525D01*
X018229Y016646D02*
X018599Y016646D01*
X018476Y016770D01*
X018599Y016893D01*
X018229Y016893D01*
X018291Y016157D02*
X018229Y016095D01*
X018229Y015972D01*
X021463Y019006D02*
X021512Y018957D01*
X021705Y018957D01*
X021753Y019006D01*
X021753Y019103D01*
X021705Y019151D01*
X021657Y019151D01*
X021608Y019103D01*
X021608Y018957D01*
X021463Y019006D02*
X021463Y019103D01*
X021512Y019151D01*
X021463Y019252D02*
X021463Y019446D01*
X021463Y019349D02*
X021753Y019349D01*
X021657Y019446D01*
X021705Y019547D02*
X021608Y019547D01*
X021560Y019595D01*
X021560Y019740D01*
X021560Y019643D02*
X021463Y019547D01*
X021463Y019740D02*
X021753Y019740D01*
X021753Y019595D01*
X021705Y019547D01*
X024430Y019489D02*
X024527Y019586D01*
X024527Y019538D02*
X024527Y019683D01*
X024430Y019683D02*
X024720Y019683D01*
X024720Y019538D01*
X024672Y019489D01*
X024575Y019489D01*
X024527Y019538D01*
X024623Y019388D02*
X024720Y019292D01*
X024430Y019292D01*
X024430Y019388D02*
X024430Y019195D01*
X024478Y019094D02*
X024527Y019094D01*
X024575Y019045D01*
X024575Y018949D01*
X024527Y018900D01*
X024478Y018900D01*
X024430Y018949D01*
X024430Y019045D01*
X024478Y019094D01*
X024575Y019045D02*
X024623Y019094D01*
X024672Y019094D01*
X024720Y019045D01*
X024720Y018949D01*
X024672Y018900D01*
X024623Y018900D01*
X024575Y018949D01*
X020556Y023157D02*
X020618Y023219D01*
X020618Y023342D01*
X020556Y023404D01*
X020495Y023404D01*
X020433Y023342D01*
X020433Y023219D01*
X020371Y023157D01*
X020309Y023157D01*
X020248Y023219D01*
X020248Y023342D01*
X020309Y023404D01*
X020433Y023525D02*
X020371Y023587D01*
X020371Y023772D01*
X020248Y023772D02*
X020618Y023772D01*
X020618Y023587D01*
X020556Y023525D01*
X020433Y023525D01*
X020556Y023893D02*
X020618Y023955D01*
X020618Y024079D01*
X020556Y024140D01*
X020309Y024140D01*
X020248Y024079D01*
X020248Y023955D01*
X020309Y023893D01*
X020556Y023893D01*
X020618Y024262D02*
X020618Y024509D01*
X020618Y024385D02*
X020248Y024385D01*
X020309Y024630D02*
X020248Y024692D01*
X020248Y024815D01*
X020309Y024877D01*
X020433Y024815D02*
X020433Y024692D01*
X020371Y024630D01*
X020309Y024630D01*
X020433Y024815D02*
X020495Y024877D01*
X020556Y024877D01*
X020618Y024815D01*
X020618Y024692D01*
X020556Y024630D01*
X020556Y025367D02*
X020618Y025428D01*
X020618Y025614D01*
X020248Y025614D01*
X020248Y025428D01*
X020309Y025367D01*
X020556Y025367D01*
X020618Y025735D02*
X020248Y025735D01*
X020618Y025982D01*
X020248Y025982D01*
X020248Y026103D02*
X020248Y026350D01*
X020618Y026350D01*
X020618Y026103D01*
X020433Y026227D02*
X020433Y026350D01*
X014119Y023764D02*
X014119Y023571D01*
X013925Y023764D01*
X013877Y023764D01*
X013829Y023716D01*
X013829Y023619D01*
X013877Y023571D01*
X013829Y023373D02*
X014119Y023373D01*
X014119Y023469D02*
X014119Y023276D01*
X014119Y023175D02*
X014022Y023078D01*
X014022Y023126D02*
X014022Y022981D01*
X014119Y022981D02*
X013829Y022981D01*
X013829Y023126D01*
X013877Y023175D01*
X013974Y023175D01*
X014022Y023126D01*
X013925Y023276D02*
X013829Y023373D01*
X015527Y020678D02*
X015527Y020388D01*
X015623Y020388D02*
X015430Y020388D01*
X015430Y020581D02*
X015527Y020678D01*
X007921Y018697D02*
X007728Y018697D01*
X007728Y018407D01*
X007627Y018407D02*
X007627Y018552D01*
X007579Y018601D01*
X007433Y018601D01*
X007433Y018407D01*
X007332Y018456D02*
X007284Y018407D01*
X007187Y018407D01*
X007139Y018456D01*
X007332Y018649D01*
X007332Y018456D01*
X007332Y018649D02*
X007284Y018697D01*
X007187Y018697D01*
X007139Y018649D01*
X007139Y018456D01*
X007038Y018456D02*
X006989Y018407D01*
X006892Y018407D01*
X006844Y018456D01*
X007038Y018649D01*
X007038Y018456D01*
X007038Y018649D02*
X006989Y018697D01*
X006892Y018697D01*
X006844Y018649D01*
X006844Y018456D01*
X006743Y018407D02*
X006549Y018407D01*
X006646Y018407D02*
X006646Y018697D01*
X006549Y018601D01*
X006723Y018247D02*
X006674Y018199D01*
X006674Y018006D01*
X006723Y017957D01*
X006820Y017957D01*
X006868Y018006D01*
X006969Y017957D02*
X007163Y018151D01*
X007163Y018199D01*
X007114Y018247D01*
X007017Y018247D01*
X006969Y018199D01*
X006868Y018199D02*
X006820Y018247D01*
X006723Y018247D01*
X006969Y017957D02*
X007163Y017957D01*
X007728Y018552D02*
X007825Y018552D01*
X022527Y001760D02*
X022527Y001513D01*
X022404Y001636D02*
X022651Y001636D01*
X034779Y017681D02*
X034779Y017875D01*
X034779Y017778D02*
X035069Y017778D01*
X034973Y017875D01*
X034973Y017976D02*
X034779Y018170D01*
X034779Y017976D01*
X034973Y017976D02*
X035021Y017976D01*
X035069Y018024D01*
X035069Y018121D01*
X035021Y018170D01*
X035021Y018271D02*
X034924Y018271D01*
X034876Y018319D01*
X034876Y018464D01*
X034876Y018367D02*
X034779Y018271D01*
X034779Y018464D02*
X035069Y018464D01*
X035069Y018319D01*
X035021Y018271D01*
X035887Y018262D02*
X035984Y018359D01*
X035984Y018310D02*
X035984Y018455D01*
X035887Y018455D02*
X036178Y018455D01*
X036178Y018310D01*
X036129Y018262D01*
X036033Y018262D01*
X035984Y018310D01*
X035887Y018161D02*
X036081Y017967D01*
X036129Y017967D01*
X036178Y018016D01*
X036178Y018112D01*
X036129Y018161D01*
X035887Y018161D02*
X035887Y017967D01*
X035887Y017866D02*
X036081Y017673D01*
X036129Y017673D01*
X036178Y017721D01*
X036178Y017818D01*
X036129Y017866D01*
X035887Y017866D02*
X035887Y017673D01*
D12*
X002702Y000373D02*
X001915Y001160D01*
X001915Y031082D01*
X002702Y031869D01*
X040498Y031869D01*
X041285Y031082D01*
X041285Y001160D01*
X040498Y000373D01*
X002702Y000373D01*
X014971Y023265D02*
X019893Y023265D01*
X019893Y024249D01*
X014971Y024249D01*
X014971Y023265D01*
X014971Y024249D02*
X014971Y025234D01*
X019893Y025234D01*
X019893Y024249D01*
X019823Y027899D02*
X016870Y027899D01*
X016870Y028884D01*
X016870Y029828D01*
X019823Y029828D01*
X019823Y028884D01*
X019823Y027899D01*
X019823Y028884D02*
X016870Y028884D01*
X033411Y017302D02*
X033411Y013444D01*
X034395Y013444D01*
X034395Y017302D01*
X033411Y017302D01*
X039435Y029900D02*
X039435Y030885D01*
X040419Y030885D01*
X040419Y029900D01*
X039435Y029900D01*
D13*
X039691Y030991D02*
X039691Y031298D01*
X039691Y031144D02*
X040151Y031144D01*
X039998Y031298D01*
X040191Y028581D02*
X040191Y028428D01*
X040191Y028505D02*
X039730Y028505D01*
X039730Y028581D02*
X039730Y028428D01*
X039730Y028274D02*
X039730Y028044D01*
X039807Y027967D01*
X040114Y027967D01*
X040191Y028044D01*
X040191Y028274D01*
X039730Y028274D01*
X040191Y027814D02*
X040191Y027507D01*
X040191Y027354D02*
X040191Y027124D01*
X040114Y027047D01*
X039807Y027047D01*
X039730Y027124D01*
X039730Y027354D01*
X040191Y027354D01*
X040191Y027661D02*
X039730Y027661D01*
X039730Y026893D02*
X039730Y026663D01*
X039807Y026586D01*
X039884Y026586D01*
X039960Y026663D01*
X039960Y026893D01*
X039730Y026893D02*
X040191Y026893D01*
X040191Y026663D01*
X040114Y026586D01*
X040037Y026586D01*
X039960Y026663D01*
X039807Y026433D02*
X040114Y026126D01*
X039807Y026126D01*
X039730Y026203D01*
X039730Y026356D01*
X039807Y026433D01*
X040114Y026433D01*
X040191Y026356D01*
X040191Y026203D01*
X040114Y026126D01*
X040114Y025973D02*
X040191Y025896D01*
X040191Y025742D01*
X040114Y025666D01*
X040037Y025666D01*
X039730Y025973D01*
X039730Y025666D01*
X038163Y026043D02*
X037856Y026043D01*
X038163Y026350D01*
X038163Y026427D01*
X038086Y026503D01*
X037932Y026503D01*
X037856Y026427D01*
X037702Y026503D02*
X037702Y026043D01*
X037395Y026503D01*
X037395Y026043D01*
X037242Y026043D02*
X037088Y026196D01*
X037165Y026196D02*
X036935Y026196D01*
X036935Y026043D02*
X036935Y026503D01*
X037165Y026503D01*
X037242Y026427D01*
X037242Y026273D01*
X037165Y026196D01*
X037889Y026960D02*
X037889Y027786D01*
X035941Y027786D02*
X035941Y026960D01*
X035163Y026427D02*
X035163Y026350D01*
X035086Y026273D01*
X035163Y026196D01*
X035163Y026120D01*
X035086Y026043D01*
X034932Y026043D01*
X034856Y026120D01*
X034702Y026043D02*
X034702Y026503D01*
X034856Y026427D02*
X034932Y026503D01*
X035086Y026503D01*
X035163Y026427D01*
X035086Y026273D02*
X035009Y026273D01*
X034702Y026043D02*
X034395Y026503D01*
X034395Y026043D01*
X034242Y026043D02*
X034088Y026196D01*
X034165Y026196D02*
X033935Y026196D01*
X033935Y026043D02*
X033935Y026503D01*
X034165Y026503D01*
X034242Y026427D01*
X034242Y026273D01*
X034165Y026196D01*
X034889Y026960D02*
X034889Y027786D01*
X032941Y027786D02*
X032941Y026960D01*
X032028Y026503D02*
X032028Y026043D01*
X031875Y026043D02*
X032181Y026043D01*
X031875Y026350D02*
X032028Y026503D01*
X031721Y026503D02*
X031721Y026043D01*
X031414Y026503D01*
X031414Y026043D01*
X031261Y026043D02*
X031107Y026196D01*
X031184Y026196D02*
X030954Y026196D01*
X030954Y026043D02*
X030954Y026503D01*
X031184Y026503D01*
X031261Y026427D01*
X031261Y026273D01*
X031184Y026196D01*
X031889Y026960D02*
X031889Y027786D01*
X029941Y027786D02*
X029941Y026960D01*
X029136Y026503D02*
X029136Y026043D01*
X029213Y026273D02*
X028906Y026273D01*
X029136Y026503D01*
X028752Y026503D02*
X028752Y026043D01*
X028445Y026503D01*
X028445Y026043D01*
X028292Y026043D02*
X028138Y026196D01*
X028215Y026196D02*
X027985Y026196D01*
X027985Y026043D02*
X027985Y026503D01*
X028215Y026503D01*
X028292Y026427D01*
X028292Y026273D01*
X028215Y026196D01*
X028889Y026960D02*
X028889Y027786D01*
X026941Y027786D02*
X026941Y026960D01*
X026231Y026503D02*
X025925Y026503D01*
X025925Y026273D01*
X026078Y026350D01*
X026155Y026350D01*
X026231Y026273D01*
X026231Y026120D01*
X026155Y026043D01*
X026001Y026043D01*
X025925Y026120D01*
X025771Y026043D02*
X025771Y026503D01*
X025464Y026503D02*
X025464Y026043D01*
X025311Y026043D02*
X025157Y026196D01*
X025234Y026196D02*
X025004Y026196D01*
X025004Y026043D02*
X025004Y026503D01*
X025234Y026503D01*
X025311Y026427D01*
X025311Y026273D01*
X025234Y026196D01*
X025464Y026503D02*
X025771Y026043D01*
X025889Y026960D02*
X025889Y027786D01*
X023941Y027786D02*
X023941Y026960D01*
X023173Y026472D02*
X023173Y026242D01*
X023097Y026165D01*
X022943Y026165D01*
X022866Y026242D01*
X022866Y026472D01*
X022713Y026472D02*
X023173Y026472D01*
X022866Y026318D02*
X022713Y026165D01*
X022713Y026011D02*
X022713Y025705D01*
X022713Y025858D02*
X023173Y025858D01*
X023020Y026011D01*
X023097Y025551D02*
X023173Y025474D01*
X023173Y025321D01*
X023097Y025244D01*
X023020Y025244D01*
X022943Y025321D01*
X022866Y025244D01*
X022790Y025244D01*
X022713Y025321D01*
X022713Y025474D01*
X022790Y025551D01*
X022943Y025398D02*
X022943Y025321D01*
X022142Y025205D02*
X022065Y025358D01*
X021912Y025512D01*
X021912Y025282D01*
X021835Y025205D01*
X021758Y025205D01*
X021681Y025282D01*
X021681Y025435D01*
X021758Y025512D01*
X021912Y025512D01*
X021988Y025665D02*
X022065Y025665D01*
X022142Y025742D01*
X022142Y025895D01*
X022065Y025972D01*
X022065Y026126D02*
X021912Y026126D01*
X021835Y026202D01*
X021835Y026432D01*
X021835Y026279D02*
X021681Y026126D01*
X021681Y025972D02*
X021988Y025665D01*
X021681Y025665D02*
X021681Y025972D01*
X022065Y026126D02*
X022142Y026202D01*
X022142Y026432D01*
X021681Y026432D01*
X019585Y026796D02*
X019125Y027103D01*
X019125Y026796D02*
X019585Y027103D01*
X019355Y026643D02*
X019355Y026336D01*
X019509Y026490D02*
X019202Y026490D01*
X017656Y026718D02*
X017580Y026718D01*
X017426Y026871D01*
X017196Y026871D01*
X017426Y026871D02*
X017580Y027025D01*
X017656Y027025D01*
X017426Y026564D02*
X017426Y026257D01*
X017580Y026411D02*
X017273Y026411D01*
X014991Y028136D02*
X014837Y028289D01*
X014914Y028289D02*
X014684Y028289D01*
X014684Y028136D02*
X014684Y028596D01*
X014914Y028596D01*
X014991Y028519D01*
X014991Y028366D01*
X014914Y028289D01*
X014531Y028136D02*
X014531Y028596D01*
X014224Y028596D02*
X014224Y028136D01*
X014377Y028289D01*
X014531Y028136D01*
X014070Y028366D02*
X013993Y028289D01*
X013763Y028289D01*
X013763Y028136D02*
X013763Y028596D01*
X013993Y028596D01*
X014070Y028519D01*
X014070Y028366D01*
X014019Y027604D02*
X013789Y027604D01*
X013789Y027144D01*
X013789Y027297D02*
X014019Y027297D01*
X014096Y027374D01*
X014096Y027527D01*
X014019Y027604D01*
X014249Y027604D02*
X014556Y027144D01*
X014249Y027144D02*
X014556Y027604D01*
X014096Y027144D02*
X013942Y027297D01*
X013956Y026650D02*
X013956Y026190D01*
X014263Y026190D02*
X014570Y026650D01*
X014263Y026650D02*
X014570Y026190D01*
X014110Y026650D02*
X013803Y026650D01*
X012070Y025584D02*
X011917Y025584D01*
X011994Y025584D02*
X011994Y025124D01*
X012070Y025124D02*
X011917Y025124D01*
X011763Y025201D02*
X011687Y025124D01*
X011533Y025124D01*
X011456Y025201D01*
X011303Y025201D02*
X011226Y025124D01*
X011073Y025124D01*
X010996Y025201D01*
X011073Y025354D02*
X011226Y025354D01*
X011303Y025277D01*
X011303Y025201D01*
X011456Y025431D02*
X011533Y025354D01*
X011687Y025354D01*
X011763Y025277D01*
X011763Y025201D01*
X011763Y025508D02*
X011687Y025584D01*
X011533Y025584D01*
X011456Y025508D01*
X011456Y025431D01*
X011303Y025508D02*
X011226Y025584D01*
X011073Y025584D01*
X010996Y025508D01*
X010996Y025431D01*
X011073Y025354D01*
X010843Y025354D02*
X010843Y025508D01*
X010766Y025584D01*
X010536Y025584D01*
X010536Y025124D01*
X010536Y025277D02*
X010766Y025277D01*
X010843Y025354D01*
X010689Y025277D02*
X010843Y025124D01*
X010145Y026012D02*
X009685Y026012D01*
X009685Y026242D01*
X009761Y026319D01*
X009915Y026319D01*
X009992Y026242D01*
X009992Y026012D01*
X009992Y026165D02*
X010145Y026319D01*
X010145Y026472D02*
X009685Y026472D01*
X010145Y026779D01*
X009685Y026779D01*
X009915Y026932D02*
X009915Y027163D01*
X009992Y027239D01*
X010068Y027239D01*
X010145Y027163D01*
X010145Y027009D01*
X010068Y026932D01*
X009915Y026932D01*
X009761Y027086D01*
X009685Y027239D01*
X009328Y027347D02*
X008502Y027347D01*
X008502Y025399D02*
X009328Y025399D01*
X013745Y024485D02*
X013745Y024125D01*
X013925Y024125D01*
X013985Y024185D01*
X013985Y024425D01*
X013925Y024485D01*
X013745Y024485D01*
X014113Y024365D02*
X014233Y024485D01*
X014233Y024125D01*
X014113Y024125D02*
X014354Y024125D01*
X014482Y024185D02*
X014542Y024125D01*
X014662Y024125D01*
X014722Y024185D01*
X014722Y024245D01*
X014662Y024305D01*
X014602Y024305D01*
X014662Y024305D02*
X014722Y024365D01*
X014722Y024425D01*
X014662Y024485D01*
X014542Y024485D01*
X014482Y024425D01*
X003293Y023745D02*
X003217Y023821D01*
X003063Y023821D01*
X002986Y023745D01*
X002833Y023745D02*
X002756Y023821D01*
X002526Y023821D01*
X002526Y023361D01*
X002526Y023514D02*
X002756Y023514D01*
X002833Y023591D01*
X002833Y023745D01*
X002679Y023514D02*
X002833Y023361D01*
X002986Y023361D02*
X003293Y023668D01*
X003293Y023745D01*
X003293Y023361D02*
X002986Y023361D01*
X003045Y028393D02*
X003352Y028393D01*
X003199Y028393D02*
X003199Y028853D01*
X003045Y028700D01*
X002892Y028777D02*
X002892Y028623D01*
X002815Y028546D01*
X002585Y028546D01*
X002585Y028393D02*
X002585Y028853D01*
X002815Y028853D01*
X002892Y028777D01*
X002738Y028546D02*
X002892Y028393D01*
X027184Y012725D02*
X027184Y012495D01*
X027261Y012418D01*
X027568Y012418D01*
X027644Y012495D01*
X027644Y012725D01*
X027184Y012725D01*
X027414Y012265D02*
X027414Y011958D01*
X027491Y011804D02*
X027414Y011728D01*
X027414Y011498D01*
X027261Y011498D02*
X027568Y011498D01*
X027644Y011574D01*
X027644Y011728D01*
X027568Y011804D01*
X027491Y011804D01*
X027261Y011804D02*
X027184Y011728D01*
X027184Y011574D01*
X027261Y011498D01*
X027184Y012035D02*
X027644Y012035D01*
X027414Y012265D01*
X028168Y012307D02*
X028168Y012461D01*
X028245Y012537D01*
X028552Y012537D01*
X028629Y012461D01*
X028629Y012307D01*
X028552Y012230D01*
X028245Y012230D01*
X028168Y012307D01*
X028245Y012077D02*
X028168Y012000D01*
X028168Y011847D01*
X028245Y011770D01*
X028322Y011770D01*
X028399Y011847D01*
X028399Y012000D01*
X028475Y012077D01*
X028552Y012077D01*
X028629Y012000D01*
X028629Y011847D01*
X028552Y011770D01*
X028629Y011617D02*
X028629Y011463D01*
X028629Y011540D02*
X028168Y011540D01*
X028168Y011617D02*
X028168Y011463D01*
X029153Y011680D02*
X029153Y011834D01*
X029229Y011910D01*
X029229Y012064D02*
X029153Y012141D01*
X029153Y012294D01*
X029229Y012371D01*
X029383Y012294D02*
X029459Y012371D01*
X029536Y012371D01*
X029613Y012294D01*
X029613Y012141D01*
X029536Y012064D01*
X029536Y011910D02*
X029459Y011910D01*
X029383Y011834D01*
X029383Y011680D01*
X029306Y011604D01*
X029229Y011604D01*
X029153Y011680D01*
X029536Y011604D02*
X029613Y011680D01*
X029613Y011834D01*
X029536Y011910D01*
X029306Y012064D02*
X029229Y012064D01*
X029306Y012064D02*
X029383Y012141D01*
X029383Y012294D01*
X028629Y012691D02*
X028168Y012691D01*
X028168Y012998D02*
X028629Y012998D01*
X028475Y012844D01*
X028629Y012691D01*
X030137Y012371D02*
X030597Y012371D01*
X030137Y012064D01*
X030597Y012064D01*
X030520Y011910D02*
X030214Y011910D01*
X030137Y011834D01*
X030137Y011680D01*
X030214Y011604D01*
X030520Y011604D02*
X030597Y011680D01*
X030597Y011834D01*
X030520Y011910D01*
X030639Y009182D02*
X030332Y009182D01*
X030255Y009105D01*
X030255Y008952D01*
X030332Y008875D01*
X030485Y008875D01*
X030485Y009028D01*
X030639Y008875D02*
X030715Y008952D01*
X030715Y009105D01*
X030639Y009182D01*
X030715Y008721D02*
X030255Y008721D01*
X030255Y008415D02*
X030715Y008415D01*
X030715Y008261D02*
X030715Y008031D01*
X030639Y007954D01*
X030332Y007954D01*
X030255Y008031D01*
X030255Y008261D01*
X030715Y008261D01*
X030715Y008721D02*
X030255Y008415D01*
X029692Y008491D02*
X029692Y008645D01*
X029615Y008721D01*
X029308Y008721D01*
X029231Y008645D01*
X029231Y008491D01*
X029308Y008415D01*
X029231Y008261D02*
X029692Y008261D01*
X029615Y008415D02*
X029692Y008491D01*
X029461Y008184D02*
X029231Y007954D01*
X029385Y008261D02*
X029692Y007954D01*
X028668Y007878D02*
X028668Y007724D01*
X028591Y007647D01*
X028284Y007647D01*
X028208Y007724D01*
X028208Y007878D01*
X028284Y007954D01*
X028591Y007954D01*
X028668Y007878D01*
X028591Y008108D02*
X028668Y008184D01*
X028668Y008338D01*
X028591Y008415D01*
X028515Y008415D01*
X028438Y008338D01*
X028438Y008184D01*
X028361Y008108D01*
X028284Y008108D01*
X028208Y008184D01*
X028208Y008338D01*
X028284Y008415D01*
X028208Y008568D02*
X028208Y008721D01*
X028208Y008645D02*
X028668Y008645D01*
X028668Y008721D02*
X028668Y008568D01*
X028668Y008875D02*
X028208Y008875D01*
X028208Y009182D02*
X028668Y009182D01*
X028515Y009028D01*
X028668Y008875D01*
X029231Y008952D02*
X029231Y009105D01*
X029308Y009182D01*
X029461Y009105D02*
X029461Y008952D01*
X029385Y008875D01*
X029308Y008875D01*
X029231Y008952D01*
X029461Y009105D02*
X029538Y009182D01*
X029615Y009182D01*
X029692Y009105D01*
X029692Y008952D01*
X029615Y008875D01*
X027605Y008875D02*
X027298Y008875D01*
X027145Y009028D01*
X027298Y009182D01*
X027605Y009182D01*
X027528Y008721D02*
X027221Y008721D01*
X027145Y008645D01*
X027145Y008491D01*
X027221Y008415D01*
X027221Y008261D02*
X027145Y008184D01*
X027145Y008031D01*
X027221Y007954D01*
X027221Y008261D02*
X027528Y008261D01*
X027605Y008184D01*
X027605Y008031D01*
X027528Y007954D01*
X027528Y008415D02*
X027605Y008491D01*
X027605Y008645D01*
X027528Y008721D01*
X019770Y006684D02*
X019309Y006684D01*
X019309Y006991D01*
X019540Y006837D02*
X019540Y006684D01*
X019463Y006530D02*
X019770Y006530D01*
X019770Y006300D01*
X019693Y006223D01*
X019463Y006223D01*
X019386Y006070D02*
X019309Y005993D01*
X019309Y005840D01*
X019386Y005763D01*
X019693Y005763D01*
X019386Y006070D01*
X019693Y006070D01*
X019770Y005993D01*
X019770Y005840D01*
X019693Y005763D01*
X019770Y005610D02*
X019770Y005303D01*
X019770Y005456D02*
X019309Y005456D01*
X019463Y005303D01*
X017770Y005694D02*
X017770Y005848D01*
X017693Y005925D01*
X017693Y006078D02*
X017770Y006155D01*
X017770Y006308D01*
X017693Y006385D01*
X017540Y006385D01*
X017463Y006308D01*
X017463Y006231D01*
X017540Y006078D01*
X017309Y006078D01*
X017309Y006385D01*
X017386Y005925D02*
X017309Y005848D01*
X017309Y005694D01*
X017386Y005618D01*
X017693Y005618D01*
X017770Y005694D01*
X017217Y007504D02*
X016910Y007504D01*
X017217Y007810D01*
X017217Y007887D01*
X017140Y007964D01*
X016987Y007964D01*
X016910Y007887D01*
X016757Y007887D02*
X016680Y007964D01*
X016526Y007964D01*
X016450Y007887D01*
X016450Y007580D01*
X016526Y007504D01*
X016680Y007504D01*
X016757Y007580D01*
X016296Y007504D02*
X016143Y007504D01*
X016220Y007504D02*
X016220Y007964D01*
X016296Y007964D02*
X016143Y007964D01*
X012316Y007796D02*
X012316Y007719D01*
X012009Y007413D01*
X012009Y007336D01*
X011856Y007413D02*
X011779Y007336D01*
X011626Y007336D01*
X011549Y007413D01*
X011549Y007719D01*
X011626Y007796D01*
X011779Y007796D01*
X011856Y007719D01*
X012009Y007796D02*
X012316Y007796D01*
X011321Y006337D02*
X010861Y006337D01*
X010861Y006643D01*
X011091Y006490D02*
X011091Y006337D01*
X011014Y006183D02*
X011321Y006183D01*
X011321Y005953D01*
X011245Y005876D01*
X011014Y005876D01*
X010938Y005723D02*
X011245Y005416D01*
X011321Y005493D01*
X011321Y005646D01*
X011245Y005723D01*
X010938Y005723D01*
X010861Y005646D01*
X010861Y005493D01*
X010938Y005416D01*
X011245Y005416D01*
X011321Y005262D02*
X011321Y004956D01*
X011321Y005109D02*
X010861Y005109D01*
X011014Y004956D01*
X012563Y004689D02*
X012563Y004228D01*
X012563Y004382D02*
X012793Y004382D01*
X012870Y004459D01*
X012870Y004612D01*
X012793Y004689D01*
X012563Y004689D01*
X012717Y004382D02*
X012870Y004228D01*
X013024Y004459D02*
X013331Y004459D01*
X013484Y004535D02*
X013637Y004689D01*
X013637Y004228D01*
X013484Y004228D02*
X013791Y004228D01*
X013254Y004228D02*
X013254Y004689D01*
X013024Y004459D01*
X012676Y002903D02*
X012523Y002750D01*
X012523Y002827D02*
X012523Y002597D01*
X012676Y002597D02*
X012216Y002597D01*
X012216Y002827D01*
X012293Y002903D01*
X012446Y002903D01*
X012523Y002827D01*
X012676Y002443D02*
X012676Y002136D01*
X012216Y002136D01*
X012216Y002443D01*
X012446Y002290D02*
X012446Y002136D01*
X012676Y001983D02*
X012216Y001983D01*
X012216Y001676D02*
X012676Y001676D01*
X012523Y001829D01*
X012676Y001983D01*
X012600Y001522D02*
X012293Y001522D01*
X012216Y001446D01*
X012216Y001292D01*
X012293Y001216D01*
X012600Y001216D01*
X012676Y001292D01*
X012676Y001446D01*
X012600Y001522D01*
X012446Y001062D02*
X012523Y000985D01*
X012523Y000755D01*
X012676Y000755D02*
X012216Y000755D01*
X012216Y000985D01*
X012293Y001062D01*
X012446Y001062D01*
X009205Y005270D02*
X009282Y005347D01*
X009282Y005501D01*
X009205Y005577D01*
X009282Y005731D02*
X009282Y006038D01*
X009282Y005884D02*
X008822Y005884D01*
X008975Y005731D01*
X008898Y005577D02*
X008822Y005501D01*
X008822Y005347D01*
X008898Y005270D01*
X009205Y005270D01*
X001996Y005730D02*
X001996Y005806D01*
X001919Y005883D01*
X001535Y005883D01*
X001535Y005806D02*
X001535Y005960D01*
X001689Y006113D02*
X001535Y006267D01*
X001996Y006267D01*
X001996Y006420D02*
X001996Y006113D01*
X001996Y005730D02*
X001919Y005653D01*
X034445Y014734D02*
X034521Y014658D01*
X034675Y014658D01*
X034751Y014734D01*
X034751Y014888D01*
X034598Y014888D01*
X034445Y015041D02*
X034445Y014734D01*
X034445Y015041D02*
X034521Y015118D01*
X034675Y015118D01*
X034751Y015041D01*
X034905Y015118D02*
X035212Y014658D01*
X035212Y015118D01*
X035365Y015118D02*
X035365Y014658D01*
X035595Y014658D01*
X035672Y014734D01*
X035672Y015041D01*
X035595Y015118D01*
X035365Y015118D01*
X034905Y015118D02*
X034905Y014658D01*
X034984Y015681D02*
X035214Y015681D01*
X035291Y015758D01*
X035291Y016065D01*
X035214Y016142D01*
X034984Y016142D01*
X034984Y015681D01*
X034830Y015758D02*
X034754Y015681D01*
X034600Y015681D01*
X034523Y015758D01*
X034600Y015912D02*
X034754Y015912D01*
X034830Y015835D01*
X034830Y015758D01*
X034600Y015912D02*
X034523Y015988D01*
X034523Y016065D01*
X034600Y016142D01*
X034754Y016142D01*
X034830Y016065D01*
X034793Y016666D02*
X034639Y016666D01*
X034563Y016742D01*
X034639Y016896D02*
X034793Y016896D01*
X034870Y016819D01*
X034870Y016742D01*
X034793Y016666D01*
X035023Y016742D02*
X035023Y017049D01*
X035100Y017126D01*
X035253Y017126D01*
X035330Y017049D01*
X035483Y017126D02*
X035483Y016666D01*
X035790Y016666D01*
X035330Y016742D02*
X035253Y016666D01*
X035100Y016666D01*
X035023Y016742D01*
X034870Y017049D02*
X034793Y017126D01*
X034639Y017126D01*
X034563Y017049D01*
X034563Y016973D01*
X034639Y016896D01*
X035444Y015988D02*
X035597Y016142D01*
X035751Y015988D01*
X035751Y015681D01*
X035751Y015912D02*
X035444Y015912D01*
X035444Y015988D02*
X035444Y015681D01*
D14*
X034067Y017492D02*
X034142Y017567D01*
X034142Y017717D01*
X034067Y017792D01*
X033766Y017792D01*
X033691Y017717D01*
X033691Y017567D01*
X033766Y017492D01*
X033691Y017952D02*
X033691Y018252D01*
X033992Y017952D01*
X034067Y017952D01*
X034142Y018027D01*
X034142Y018177D01*
X034067Y018252D01*
X034142Y018409D02*
X034142Y018559D01*
X034142Y018484D02*
X033691Y018484D01*
X033691Y018559D02*
X033691Y018409D01*
X036415Y020404D02*
X036415Y021404D01*
X028415Y021404D01*
X028415Y020404D01*
X036415Y020404D01*
X038415Y021404D02*
X038415Y003404D01*
X040415Y003404D01*
X040415Y021404D01*
X038415Y021404D01*
X038182Y022497D02*
X037979Y022497D01*
X037877Y022599D01*
X037676Y022599D02*
X037574Y022497D01*
X037371Y022497D01*
X037269Y022599D01*
X037269Y022802D02*
X037473Y022904D01*
X037574Y022904D01*
X037676Y022802D01*
X037676Y022599D01*
X038080Y022802D02*
X038182Y022802D01*
X038284Y022701D01*
X038284Y022599D01*
X038182Y022497D01*
X038182Y022802D02*
X038284Y022904D01*
X038284Y023006D01*
X038182Y023108D01*
X037979Y023108D01*
X037877Y023006D01*
X037676Y023108D02*
X037269Y023108D01*
X037269Y022802D01*
X037069Y022497D02*
X036662Y022497D01*
X036461Y022497D02*
X036054Y022497D01*
X035853Y022497D02*
X035446Y022497D01*
X035650Y022497D02*
X035650Y023108D01*
X035446Y022904D01*
X035245Y022904D02*
X035144Y022904D01*
X034838Y022904D01*
X034838Y022701D02*
X035245Y022701D01*
X035144Y022497D02*
X035144Y023108D01*
X034940Y023108D02*
X034940Y022497D01*
X034952Y023403D02*
X034952Y024013D01*
X035054Y023810D02*
X035258Y023810D01*
X035359Y023708D01*
X035359Y023403D01*
X035560Y023403D02*
X035560Y023504D01*
X035662Y023504D01*
X035662Y023403D01*
X035560Y023403D01*
X035864Y023504D02*
X035966Y023403D01*
X036271Y023403D01*
X036472Y023504D02*
X036574Y023403D01*
X036777Y023403D01*
X036879Y023504D01*
X036879Y023708D01*
X036777Y023810D01*
X036574Y023810D01*
X036472Y023708D01*
X036472Y023504D01*
X036271Y023810D02*
X035966Y023810D01*
X035864Y023708D01*
X035864Y023504D01*
X036257Y023108D02*
X036054Y022904D01*
X036257Y023108D02*
X036257Y022497D01*
X036662Y022904D02*
X036865Y023108D01*
X036865Y022497D01*
X037079Y023403D02*
X037181Y023403D01*
X037181Y023504D01*
X037079Y023504D01*
X037079Y023403D01*
X037383Y023504D02*
X037485Y023403D01*
X037790Y023403D01*
X037790Y023810D01*
X037991Y024013D02*
X037991Y023403D01*
X037991Y023606D02*
X038296Y023403D01*
X037991Y023606D02*
X038296Y023810D01*
X037383Y023810D02*
X037383Y023504D01*
X037349Y024979D02*
X036942Y024979D01*
X037145Y024979D02*
X037145Y025590D01*
X036942Y025386D01*
X036741Y025386D02*
X036538Y024979D01*
X036334Y025386D01*
X035526Y025386D02*
X035220Y025386D01*
X035119Y025285D01*
X035119Y025081D01*
X035220Y024979D01*
X035526Y024979D01*
X035526Y025590D01*
X034815Y025590D02*
X034815Y024979D01*
X034714Y024979D02*
X034917Y024979D01*
X034513Y025183D02*
X034106Y025183D01*
X034106Y025285D02*
X034208Y025386D01*
X034411Y025386D01*
X034513Y025285D01*
X034513Y025183D01*
X034411Y024979D02*
X034208Y024979D01*
X034106Y025081D01*
X034106Y025285D01*
X033802Y025386D02*
X033802Y024979D01*
X033701Y024979D02*
X033904Y024979D01*
X033500Y024979D02*
X033500Y025285D01*
X033398Y025386D01*
X033195Y025386D01*
X033093Y025285D01*
X032892Y025386D02*
X032587Y025386D01*
X032485Y025285D01*
X032587Y025183D01*
X032791Y025183D01*
X032892Y025081D01*
X032791Y024979D01*
X032485Y024979D01*
X032284Y025386D02*
X032182Y025386D01*
X031979Y025183D01*
X031778Y025183D02*
X031473Y025183D01*
X031371Y025081D01*
X031473Y024979D01*
X031778Y024979D01*
X031778Y025285D01*
X031676Y025386D01*
X031473Y025386D01*
X031068Y025590D02*
X031068Y024979D01*
X030966Y024979D02*
X031170Y024979D01*
X030765Y025081D02*
X030765Y025285D01*
X030664Y025386D01*
X030460Y025386D01*
X030358Y025285D01*
X030358Y025081D01*
X030460Y024979D01*
X030664Y024979D01*
X030765Y025081D01*
X030966Y025590D02*
X031068Y025590D01*
X030158Y025488D02*
X030158Y025285D01*
X030056Y025183D01*
X029751Y025183D01*
X029751Y024979D02*
X029751Y025590D01*
X030056Y025590D01*
X030158Y025488D01*
X031979Y025386D02*
X031979Y024979D01*
X033093Y024979D02*
X033093Y025590D01*
X033701Y025386D02*
X033802Y025386D01*
X033802Y025590D02*
X033802Y025692D01*
X034714Y025590D02*
X034815Y025590D01*
X034650Y023810D02*
X034345Y023810D01*
X034345Y023199D01*
X034345Y023403D02*
X034650Y023403D01*
X034752Y023504D01*
X034752Y023708D01*
X034650Y023810D01*
X034952Y023708D02*
X035054Y023810D01*
X034144Y023708D02*
X034144Y023403D01*
X033839Y023403D01*
X033737Y023504D01*
X033839Y023606D01*
X034144Y023606D01*
X034144Y023708D02*
X034042Y023810D01*
X033839Y023810D01*
X033536Y023810D02*
X033434Y023810D01*
X033231Y023606D01*
X033231Y023403D02*
X033231Y023810D01*
X033030Y023810D02*
X032725Y023810D01*
X032623Y023708D01*
X032623Y023504D01*
X032725Y023403D01*
X033030Y023403D01*
X033030Y023301D02*
X033030Y023810D01*
X032422Y023810D02*
X032320Y023810D01*
X032116Y023606D01*
X031916Y023606D02*
X031611Y023606D01*
X031509Y023504D01*
X031611Y023403D01*
X031916Y023403D01*
X031916Y023708D01*
X031814Y023810D01*
X031611Y023810D01*
X031205Y024013D02*
X031205Y023403D01*
X031104Y023403D02*
X031307Y023403D01*
X031598Y023108D02*
X031496Y023006D01*
X031496Y022599D01*
X031903Y023006D01*
X031903Y022599D01*
X031801Y022497D01*
X031598Y022497D01*
X031496Y022599D01*
X031294Y022599D02*
X031294Y022497D01*
X031192Y022497D01*
X031192Y022599D01*
X031294Y022599D01*
X030991Y022497D02*
X030584Y022497D01*
X030991Y022904D01*
X030991Y023006D01*
X030890Y023108D01*
X030686Y023108D01*
X030584Y023006D01*
X030598Y023403D02*
X030496Y023504D01*
X030496Y023708D01*
X030598Y023810D01*
X030801Y023810D01*
X030903Y023708D01*
X030903Y023504D01*
X030801Y023403D01*
X030598Y023403D01*
X030295Y023504D02*
X030193Y023403D01*
X029888Y023403D01*
X029686Y023403D02*
X029584Y023403D01*
X029584Y023504D01*
X029686Y023504D01*
X029686Y023403D01*
X029888Y023199D02*
X029888Y023810D01*
X030193Y023810D01*
X030295Y023708D01*
X030295Y023504D01*
X030180Y023108D02*
X030180Y022497D01*
X029977Y022497D02*
X030384Y022497D01*
X029977Y022904D02*
X030180Y023108D01*
X029776Y023006D02*
X029776Y022599D01*
X029674Y022497D01*
X029471Y022497D01*
X029369Y022599D01*
X029776Y023006D01*
X029674Y023108D01*
X029471Y023108D01*
X029369Y023006D01*
X029369Y022599D01*
X029168Y022497D02*
X028761Y022497D01*
X029168Y022904D01*
X029168Y023006D01*
X029066Y023108D01*
X028863Y023108D01*
X028761Y023006D01*
X028674Y023403D02*
X028776Y023504D01*
X028776Y023810D01*
X028977Y023810D02*
X028977Y023504D01*
X029078Y023403D01*
X029180Y023504D01*
X029282Y023403D01*
X029384Y023504D01*
X029384Y023810D01*
X028674Y023403D02*
X028572Y023504D01*
X028471Y023403D01*
X028369Y023504D01*
X028369Y023810D01*
X028168Y023810D02*
X028168Y023504D01*
X028066Y023403D01*
X027965Y023504D01*
X027863Y023403D01*
X027761Y023504D01*
X027761Y023810D01*
X027415Y021404D02*
X019415Y021404D01*
X019415Y020404D01*
X027415Y020404D01*
X027415Y021404D01*
X031104Y024013D02*
X031205Y024013D01*
X032116Y023810D02*
X032116Y023403D01*
X032205Y023108D02*
X032409Y023108D01*
X032511Y023006D01*
X032511Y022904D01*
X032409Y022802D01*
X032205Y022802D01*
X032104Y022904D01*
X032104Y023006D01*
X032205Y023108D01*
X032205Y022802D02*
X032104Y022701D01*
X032104Y022599D01*
X032205Y022497D01*
X032409Y022497D01*
X032511Y022599D01*
X032511Y022701D01*
X032409Y022802D01*
X032711Y022599D02*
X032813Y022599D01*
X032813Y022497D01*
X032711Y022497D01*
X032711Y022599D01*
X033015Y022497D02*
X033422Y022497D01*
X033219Y022497D02*
X033219Y023108D01*
X033015Y022904D01*
X032928Y023199D02*
X032826Y023199D01*
X032928Y023199D02*
X033030Y023301D01*
X033623Y023006D02*
X033623Y022904D01*
X033725Y022802D01*
X034030Y022802D01*
X034030Y022599D02*
X034030Y023006D01*
X033928Y023108D01*
X033725Y023108D01*
X033623Y023006D01*
X033623Y022599D02*
X033725Y022497D01*
X033928Y022497D01*
X034030Y022599D01*
X031903Y023006D02*
X031801Y023108D01*
X031598Y023108D01*
X037550Y024979D02*
X037651Y024979D01*
X037651Y025081D01*
X037550Y025081D01*
X037550Y024979D01*
X037853Y024979D02*
X038260Y024979D01*
X038057Y024979D02*
X038057Y025590D01*
X037853Y025386D01*
X019590Y026338D02*
X019590Y026638D01*
X019590Y026488D02*
X019140Y026488D01*
X019290Y026338D01*
X018590Y026338D02*
X018590Y026638D01*
X018648Y026688D02*
X018197Y026988D01*
X018197Y026688D02*
X018648Y026988D01*
X018590Y026488D02*
X018140Y026488D01*
X018290Y026338D01*
X018423Y026227D02*
X018423Y026528D01*
X017590Y026488D02*
X017140Y026488D01*
X017290Y026338D01*
X017590Y026338D02*
X017590Y026638D01*
X016648Y026648D02*
X016573Y026648D01*
X016423Y026799D01*
X016197Y026799D01*
X016423Y026799D02*
X016573Y026949D01*
X016648Y026949D01*
X016590Y026638D02*
X016590Y026338D01*
X016590Y026488D02*
X016140Y026488D01*
X016290Y026338D01*
X016423Y026488D02*
X016423Y026188D01*
X017306Y027395D02*
X017155Y027545D01*
X017606Y027545D01*
X017606Y027395D02*
X017606Y027695D01*
X018155Y027545D02*
X018606Y027545D01*
X018606Y027395D02*
X018606Y027695D01*
X018306Y027395D02*
X018155Y027545D01*
X018915Y021404D02*
X010665Y021404D01*
X010665Y020404D01*
X018915Y020404D01*
X018915Y021404D01*
X015556Y018182D02*
X015353Y018386D01*
X015149Y018182D01*
X015149Y017775D01*
X014948Y017775D02*
X014745Y017979D01*
X014847Y017979D02*
X014541Y017979D01*
X014541Y017775D02*
X014541Y018386D01*
X014847Y018386D01*
X014948Y018284D01*
X014948Y018080D01*
X014847Y017979D01*
X015149Y018080D02*
X015556Y018080D01*
X015556Y018182D02*
X015556Y017775D01*
X014341Y017877D02*
X014341Y018284D01*
X014239Y018386D01*
X014035Y018386D01*
X013934Y018284D01*
X013934Y017877D01*
X014035Y017775D01*
X014239Y017775D01*
X014341Y017877D01*
X013733Y018386D02*
X013326Y018386D01*
X013529Y018386D02*
X013529Y017775D01*
X013125Y017877D02*
X013125Y018284D01*
X013023Y018386D01*
X012820Y018386D01*
X012718Y018284D01*
X012718Y017877D01*
X012820Y017775D01*
X013023Y017775D01*
X013125Y017877D01*
X012517Y017775D02*
X012517Y018386D01*
X012314Y018182D01*
X012110Y018386D01*
X012110Y017775D01*
X007165Y020904D02*
X007167Y020958D01*
X007173Y021012D01*
X007183Y021065D01*
X007196Y021118D01*
X007213Y021169D01*
X007234Y021219D01*
X007259Y021267D01*
X007287Y021314D01*
X007318Y021358D01*
X007352Y021400D01*
X007389Y021439D01*
X007429Y021476D01*
X007472Y021509D01*
X007517Y021540D01*
X007564Y021567D01*
X007612Y021590D01*
X007663Y021610D01*
X007714Y021627D01*
X007767Y021639D01*
X007820Y021648D01*
X007874Y021653D01*
X007929Y021654D01*
X007983Y021651D01*
X008036Y021644D01*
X008089Y021633D01*
X008142Y021619D01*
X008193Y021601D01*
X008242Y021579D01*
X008290Y021554D01*
X008336Y021525D01*
X008380Y021493D01*
X008421Y021458D01*
X008459Y021420D01*
X008495Y021379D01*
X008528Y021336D01*
X008558Y021291D01*
X008584Y021243D01*
X008607Y021194D01*
X008626Y021143D01*
X008641Y021092D01*
X008653Y021039D01*
X008661Y020985D01*
X008665Y020931D01*
X008665Y020877D01*
X008661Y020823D01*
X008653Y020769D01*
X008641Y020716D01*
X008626Y020665D01*
X008607Y020614D01*
X008584Y020565D01*
X008558Y020517D01*
X008528Y020472D01*
X008495Y020429D01*
X008459Y020388D01*
X008421Y020350D01*
X008380Y020315D01*
X008336Y020283D01*
X008290Y020254D01*
X008242Y020229D01*
X008193Y020207D01*
X008142Y020189D01*
X008089Y020175D01*
X008036Y020164D01*
X007983Y020157D01*
X007929Y020154D01*
X007874Y020155D01*
X007820Y020160D01*
X007767Y020169D01*
X007714Y020181D01*
X007663Y020198D01*
X007612Y020218D01*
X007564Y020241D01*
X007517Y020268D01*
X007472Y020299D01*
X007429Y020332D01*
X007389Y020369D01*
X007352Y020408D01*
X007318Y020450D01*
X007287Y020494D01*
X007259Y020541D01*
X007234Y020589D01*
X007213Y020639D01*
X007196Y020690D01*
X007183Y020743D01*
X007173Y020796D01*
X007167Y020850D01*
X007165Y020904D01*
X004007Y027198D02*
X003707Y027198D01*
X003857Y027198D02*
X003857Y027648D01*
X003707Y027498D01*
X003547Y027573D02*
X003472Y027648D01*
X003322Y027648D01*
X003247Y027573D01*
X003247Y027273D01*
X003322Y027198D01*
X003472Y027198D01*
X003547Y027273D01*
X003090Y027198D02*
X002940Y027198D01*
X003015Y027198D02*
X003015Y027648D01*
X002940Y027648D02*
X003090Y027648D01*
X002940Y027854D02*
X003240Y027854D01*
X003400Y027854D02*
X003400Y028304D01*
X003550Y028154D01*
X003701Y028304D01*
X003701Y027854D01*
X003861Y028004D02*
X004011Y027854D01*
X004161Y028004D01*
X004161Y028304D01*
X004321Y028229D02*
X004396Y028304D01*
X004546Y028304D01*
X004621Y028229D01*
X004621Y028154D01*
X004546Y028079D01*
X004621Y028004D01*
X004621Y027929D01*
X004546Y027854D01*
X004396Y027854D01*
X004321Y027929D01*
X004471Y028079D02*
X004546Y028079D01*
X004781Y028079D02*
X004931Y028154D01*
X005007Y028154D01*
X005082Y028079D01*
X005082Y027929D01*
X005007Y027854D01*
X004856Y027854D01*
X004781Y027929D01*
X004781Y028079D02*
X004781Y028304D01*
X005082Y028304D01*
X005242Y028229D02*
X005242Y028154D01*
X005317Y028079D01*
X005467Y028079D01*
X005542Y028004D01*
X005542Y027929D01*
X005467Y027854D01*
X005317Y027854D01*
X005242Y027929D01*
X005242Y028004D01*
X005317Y028079D01*
X005467Y028079D02*
X005542Y028154D01*
X005542Y028229D01*
X005467Y028304D01*
X005317Y028304D01*
X005242Y028229D01*
X005702Y028304D02*
X005702Y027854D01*
X006002Y027854D02*
X006002Y028304D01*
X005852Y028154D01*
X005702Y028304D01*
X006162Y028304D02*
X006162Y027854D01*
X006463Y027854D02*
X006463Y028304D01*
X006313Y028154D01*
X006162Y028304D01*
X006623Y028304D02*
X006923Y027854D01*
X006623Y027854D02*
X006923Y028304D01*
X003861Y028304D02*
X003861Y028004D01*
X002940Y027854D02*
X002940Y028304D01*
X011849Y012236D02*
X012053Y012032D01*
X012256Y012236D01*
X012256Y011625D01*
X012457Y011727D02*
X012558Y011625D01*
X012762Y011625D01*
X012864Y011727D01*
X012864Y012134D01*
X012762Y012236D01*
X012558Y012236D01*
X012457Y012134D01*
X012457Y011727D01*
X011849Y011625D02*
X011849Y012236D01*
X013064Y012236D02*
X013471Y012236D01*
X013268Y012236D02*
X013268Y011625D01*
X013672Y011727D02*
X013774Y011625D01*
X013977Y011625D01*
X014079Y011727D01*
X014079Y012134D01*
X013977Y012236D01*
X013774Y012236D01*
X013672Y012134D01*
X013672Y011727D01*
X014280Y011829D02*
X014585Y011829D01*
X014687Y011930D01*
X014687Y012134D01*
X014585Y012236D01*
X014280Y012236D01*
X014280Y011625D01*
X014483Y011829D02*
X014687Y011625D01*
X014888Y011625D02*
X015193Y011625D01*
X015295Y011727D01*
X015295Y011829D01*
X015193Y011930D01*
X014888Y011930D01*
X015193Y011930D02*
X015295Y012032D01*
X015295Y012134D01*
X015193Y012236D01*
X014888Y012236D01*
X014888Y011625D01*
X008054Y007389D02*
X008054Y007239D01*
X007979Y007164D01*
X007754Y007164D01*
X007904Y007164D02*
X008054Y007014D01*
X007754Y007014D02*
X007754Y007464D01*
X007979Y007464D01*
X008054Y007389D01*
X007594Y007464D02*
X007594Y007014D01*
X007444Y007164D01*
X007294Y007014D01*
X007294Y007464D01*
X007134Y007389D02*
X007134Y007239D01*
X007059Y007164D01*
X006833Y007164D01*
X006833Y007014D02*
X006833Y007464D01*
X007059Y007464D01*
X007134Y007389D01*
X006673Y006939D02*
X006373Y006939D01*
X006063Y007014D02*
X006063Y007464D01*
X005913Y007464D02*
X006213Y007464D01*
X005753Y007464D02*
X005452Y007014D01*
X005292Y007014D02*
X004992Y007014D01*
X004992Y007464D01*
X005292Y007464D01*
X005452Y007464D02*
X005753Y007014D01*
X005142Y007239D02*
X004992Y007239D01*
X004902Y006790D02*
X004350Y006790D01*
X004350Y004034D01*
X004902Y004034D01*
X004902Y006790D01*
X004350Y006790D02*
X002146Y006790D01*
X002146Y004034D01*
X004350Y004034D01*
X006628Y005243D02*
X006628Y001700D01*
X000880Y001700D01*
X000880Y005243D01*
X006628Y005243D01*
X006665Y001904D02*
X006667Y001958D01*
X006673Y002012D01*
X006683Y002065D01*
X006696Y002118D01*
X006713Y002169D01*
X006734Y002219D01*
X006759Y002267D01*
X006787Y002314D01*
X006818Y002358D01*
X006852Y002400D01*
X006889Y002439D01*
X006929Y002476D01*
X006972Y002509D01*
X007017Y002540D01*
X007064Y002567D01*
X007112Y002590D01*
X007163Y002610D01*
X007214Y002627D01*
X007267Y002639D01*
X007320Y002648D01*
X007374Y002653D01*
X007429Y002654D01*
X007483Y002651D01*
X007536Y002644D01*
X007589Y002633D01*
X007642Y002619D01*
X007693Y002601D01*
X007742Y002579D01*
X007790Y002554D01*
X007836Y002525D01*
X007880Y002493D01*
X007921Y002458D01*
X007959Y002420D01*
X007995Y002379D01*
X008028Y002336D01*
X008058Y002291D01*
X008084Y002243D01*
X008107Y002194D01*
X008126Y002143D01*
X008141Y002092D01*
X008153Y002039D01*
X008161Y001985D01*
X008165Y001931D01*
X008165Y001877D01*
X008161Y001823D01*
X008153Y001769D01*
X008141Y001716D01*
X008126Y001665D01*
X008107Y001614D01*
X008084Y001565D01*
X008058Y001517D01*
X008028Y001472D01*
X007995Y001429D01*
X007959Y001388D01*
X007921Y001350D01*
X007880Y001315D01*
X007836Y001283D01*
X007790Y001254D01*
X007742Y001229D01*
X007693Y001207D01*
X007642Y001189D01*
X007589Y001175D01*
X007536Y001164D01*
X007483Y001157D01*
X007429Y001154D01*
X007374Y001155D01*
X007320Y001160D01*
X007267Y001169D01*
X007214Y001181D01*
X007163Y001198D01*
X007112Y001218D01*
X007064Y001241D01*
X007017Y001268D01*
X006972Y001299D01*
X006929Y001332D01*
X006889Y001369D01*
X006852Y001408D01*
X006818Y001450D01*
X006787Y001494D01*
X006759Y001541D01*
X006734Y001589D01*
X006713Y001639D01*
X006696Y001690D01*
X006683Y001743D01*
X006673Y001796D01*
X006667Y001850D01*
X006665Y001904D01*
X009779Y000681D02*
X009779Y000606D01*
X009854Y000531D01*
X010004Y000531D01*
X010079Y000456D01*
X010079Y000380D01*
X010004Y000305D01*
X009854Y000305D01*
X009779Y000380D01*
X009779Y000681D02*
X009854Y000756D01*
X010004Y000756D01*
X010079Y000681D01*
X010239Y000681D02*
X010314Y000756D01*
X010464Y000756D01*
X010539Y000681D01*
X010539Y000606D01*
X010239Y000305D01*
X010539Y000305D01*
X014415Y001404D02*
X020415Y001404D01*
X020415Y002404D01*
X014415Y002404D01*
X014415Y001404D01*
X021415Y001404D02*
X029415Y001404D01*
X029415Y002404D01*
X021415Y002404D01*
X021415Y001404D01*
X030415Y001404D02*
X038415Y001404D01*
X038415Y002404D01*
X030415Y002404D01*
X030415Y001404D01*
X039165Y001904D02*
X039167Y001958D01*
X039173Y002012D01*
X039183Y002065D01*
X039196Y002118D01*
X039213Y002169D01*
X039234Y002219D01*
X039259Y002267D01*
X039287Y002314D01*
X039318Y002358D01*
X039352Y002400D01*
X039389Y002439D01*
X039429Y002476D01*
X039472Y002509D01*
X039517Y002540D01*
X039564Y002567D01*
X039612Y002590D01*
X039663Y002610D01*
X039714Y002627D01*
X039767Y002639D01*
X039820Y002648D01*
X039874Y002653D01*
X039929Y002654D01*
X039983Y002651D01*
X040036Y002644D01*
X040089Y002633D01*
X040142Y002619D01*
X040193Y002601D01*
X040242Y002579D01*
X040290Y002554D01*
X040336Y002525D01*
X040380Y002493D01*
X040421Y002458D01*
X040459Y002420D01*
X040495Y002379D01*
X040528Y002336D01*
X040558Y002291D01*
X040584Y002243D01*
X040607Y002194D01*
X040626Y002143D01*
X040641Y002092D01*
X040653Y002039D01*
X040661Y001985D01*
X040665Y001931D01*
X040665Y001877D01*
X040661Y001823D01*
X040653Y001769D01*
X040641Y001716D01*
X040626Y001665D01*
X040607Y001614D01*
X040584Y001565D01*
X040558Y001517D01*
X040528Y001472D01*
X040495Y001429D01*
X040459Y001388D01*
X040421Y001350D01*
X040380Y001315D01*
X040336Y001283D01*
X040290Y001254D01*
X040242Y001229D01*
X040193Y001207D01*
X040142Y001189D01*
X040089Y001175D01*
X040036Y001164D01*
X039983Y001157D01*
X039929Y001154D01*
X039874Y001155D01*
X039820Y001160D01*
X039767Y001169D01*
X039714Y001181D01*
X039663Y001198D01*
X039612Y001218D01*
X039564Y001241D01*
X039517Y001268D01*
X039472Y001299D01*
X039429Y001332D01*
X039389Y001369D01*
X039352Y001408D01*
X039318Y001450D01*
X039287Y001494D01*
X039259Y001541D01*
X039234Y001589D01*
X039213Y001639D01*
X039196Y001690D01*
X039183Y001743D01*
X039173Y001796D01*
X039167Y001850D01*
X039165Y001904D01*
D15*
X039285Y001904D02*
X039287Y001954D01*
X039293Y002004D01*
X039303Y002053D01*
X039317Y002101D01*
X039334Y002148D01*
X039355Y002193D01*
X039380Y002237D01*
X039408Y002278D01*
X039440Y002317D01*
X039474Y002354D01*
X039511Y002388D01*
X039551Y002418D01*
X039593Y002445D01*
X039637Y002469D01*
X039683Y002490D01*
X039730Y002506D01*
X039778Y002519D01*
X039828Y002528D01*
X039877Y002533D01*
X039928Y002534D01*
X039978Y002531D01*
X040027Y002524D01*
X040076Y002513D01*
X040124Y002498D01*
X040170Y002480D01*
X040215Y002458D01*
X040258Y002432D01*
X040299Y002403D01*
X040338Y002371D01*
X040374Y002336D01*
X040406Y002298D01*
X040436Y002258D01*
X040463Y002215D01*
X040486Y002171D01*
X040505Y002125D01*
X040521Y002077D01*
X040533Y002028D01*
X040541Y001979D01*
X040545Y001929D01*
X040545Y001879D01*
X040541Y001829D01*
X040533Y001780D01*
X040521Y001731D01*
X040505Y001683D01*
X040486Y001637D01*
X040463Y001593D01*
X040436Y001550D01*
X040406Y001510D01*
X040374Y001472D01*
X040338Y001437D01*
X040299Y001405D01*
X040258Y001376D01*
X040215Y001350D01*
X040170Y001328D01*
X040124Y001310D01*
X040076Y001295D01*
X040027Y001284D01*
X039978Y001277D01*
X039928Y001274D01*
X039877Y001275D01*
X039828Y001280D01*
X039778Y001289D01*
X039730Y001302D01*
X039683Y001318D01*
X039637Y001339D01*
X039593Y001363D01*
X039551Y001390D01*
X039511Y001420D01*
X039474Y001454D01*
X039440Y001491D01*
X039408Y001530D01*
X039380Y001571D01*
X039355Y001615D01*
X039334Y001660D01*
X039317Y001707D01*
X039303Y001755D01*
X039293Y001804D01*
X039287Y001854D01*
X039285Y001904D01*
X007285Y020904D02*
X007287Y020954D01*
X007293Y021004D01*
X007303Y021053D01*
X007317Y021101D01*
X007334Y021148D01*
X007355Y021193D01*
X007380Y021237D01*
X007408Y021278D01*
X007440Y021317D01*
X007474Y021354D01*
X007511Y021388D01*
X007551Y021418D01*
X007593Y021445D01*
X007637Y021469D01*
X007683Y021490D01*
X007730Y021506D01*
X007778Y021519D01*
X007828Y021528D01*
X007877Y021533D01*
X007928Y021534D01*
X007978Y021531D01*
X008027Y021524D01*
X008076Y021513D01*
X008124Y021498D01*
X008170Y021480D01*
X008215Y021458D01*
X008258Y021432D01*
X008299Y021403D01*
X008338Y021371D01*
X008374Y021336D01*
X008406Y021298D01*
X008436Y021258D01*
X008463Y021215D01*
X008486Y021171D01*
X008505Y021125D01*
X008521Y021077D01*
X008533Y021028D01*
X008541Y020979D01*
X008545Y020929D01*
X008545Y020879D01*
X008541Y020829D01*
X008533Y020780D01*
X008521Y020731D01*
X008505Y020683D01*
X008486Y020637D01*
X008463Y020593D01*
X008436Y020550D01*
X008406Y020510D01*
X008374Y020472D01*
X008338Y020437D01*
X008299Y020405D01*
X008258Y020376D01*
X008215Y020350D01*
X008170Y020328D01*
X008124Y020310D01*
X008076Y020295D01*
X008027Y020284D01*
X007978Y020277D01*
X007928Y020274D01*
X007877Y020275D01*
X007828Y020280D01*
X007778Y020289D01*
X007730Y020302D01*
X007683Y020318D01*
X007637Y020339D01*
X007593Y020363D01*
X007551Y020390D01*
X007511Y020420D01*
X007474Y020454D01*
X007440Y020491D01*
X007408Y020530D01*
X007380Y020571D01*
X007355Y020615D01*
X007334Y020660D01*
X007317Y020707D01*
X007303Y020755D01*
X007293Y020804D01*
X007287Y020854D01*
X007285Y020904D01*
X011285Y030373D02*
X011287Y030423D01*
X011293Y030473D01*
X011303Y030522D01*
X011317Y030570D01*
X011334Y030617D01*
X011355Y030662D01*
X011380Y030706D01*
X011408Y030747D01*
X011440Y030786D01*
X011474Y030823D01*
X011511Y030857D01*
X011551Y030887D01*
X011593Y030914D01*
X011637Y030938D01*
X011683Y030959D01*
X011730Y030975D01*
X011778Y030988D01*
X011828Y030997D01*
X011877Y031002D01*
X011928Y031003D01*
X011978Y031000D01*
X012027Y030993D01*
X012076Y030982D01*
X012124Y030967D01*
X012170Y030949D01*
X012215Y030927D01*
X012258Y030901D01*
X012299Y030872D01*
X012338Y030840D01*
X012374Y030805D01*
X012406Y030767D01*
X012436Y030727D01*
X012463Y030684D01*
X012486Y030640D01*
X012505Y030594D01*
X012521Y030546D01*
X012533Y030497D01*
X012541Y030448D01*
X012545Y030398D01*
X012545Y030348D01*
X012541Y030298D01*
X012533Y030249D01*
X012521Y030200D01*
X012505Y030152D01*
X012486Y030106D01*
X012463Y030062D01*
X012436Y030019D01*
X012406Y029979D01*
X012374Y029941D01*
X012338Y029906D01*
X012299Y029874D01*
X012258Y029845D01*
X012215Y029819D01*
X012170Y029797D01*
X012124Y029779D01*
X012076Y029764D01*
X012027Y029753D01*
X011978Y029746D01*
X011928Y029743D01*
X011877Y029744D01*
X011828Y029749D01*
X011778Y029758D01*
X011730Y029771D01*
X011683Y029787D01*
X011637Y029808D01*
X011593Y029832D01*
X011551Y029859D01*
X011511Y029889D01*
X011474Y029923D01*
X011440Y029960D01*
X011408Y029999D01*
X011380Y030040D01*
X011355Y030084D01*
X011334Y030129D01*
X011317Y030176D01*
X011303Y030224D01*
X011293Y030273D01*
X011287Y030323D01*
X011285Y030373D01*
X039285Y027373D02*
X039287Y027423D01*
X039293Y027473D01*
X039303Y027522D01*
X039317Y027570D01*
X039334Y027617D01*
X039355Y027662D01*
X039380Y027706D01*
X039408Y027747D01*
X039440Y027786D01*
X039474Y027823D01*
X039511Y027857D01*
X039551Y027887D01*
X039593Y027914D01*
X039637Y027938D01*
X039683Y027959D01*
X039730Y027975D01*
X039778Y027988D01*
X039828Y027997D01*
X039877Y028002D01*
X039928Y028003D01*
X039978Y028000D01*
X040027Y027993D01*
X040076Y027982D01*
X040124Y027967D01*
X040170Y027949D01*
X040215Y027927D01*
X040258Y027901D01*
X040299Y027872D01*
X040338Y027840D01*
X040374Y027805D01*
X040406Y027767D01*
X040436Y027727D01*
X040463Y027684D01*
X040486Y027640D01*
X040505Y027594D01*
X040521Y027546D01*
X040533Y027497D01*
X040541Y027448D01*
X040545Y027398D01*
X040545Y027348D01*
X040541Y027298D01*
X040533Y027249D01*
X040521Y027200D01*
X040505Y027152D01*
X040486Y027106D01*
X040463Y027062D01*
X040436Y027019D01*
X040406Y026979D01*
X040374Y026941D01*
X040338Y026906D01*
X040299Y026874D01*
X040258Y026845D01*
X040215Y026819D01*
X040170Y026797D01*
X040124Y026779D01*
X040076Y026764D01*
X040027Y026753D01*
X039978Y026746D01*
X039928Y026743D01*
X039877Y026744D01*
X039828Y026749D01*
X039778Y026758D01*
X039730Y026771D01*
X039683Y026787D01*
X039637Y026808D01*
X039593Y026832D01*
X039551Y026859D01*
X039511Y026889D01*
X039474Y026923D01*
X039440Y026960D01*
X039408Y026999D01*
X039380Y027040D01*
X039355Y027084D01*
X039334Y027129D01*
X039317Y027176D01*
X039303Y027224D01*
X039293Y027273D01*
X039287Y027323D01*
X039285Y027373D01*
X006785Y001904D02*
X006787Y001954D01*
X006793Y002004D01*
X006803Y002053D01*
X006817Y002101D01*
X006834Y002148D01*
X006855Y002193D01*
X006880Y002237D01*
X006908Y002278D01*
X006940Y002317D01*
X006974Y002354D01*
X007011Y002388D01*
X007051Y002418D01*
X007093Y002445D01*
X007137Y002469D01*
X007183Y002490D01*
X007230Y002506D01*
X007278Y002519D01*
X007328Y002528D01*
X007377Y002533D01*
X007428Y002534D01*
X007478Y002531D01*
X007527Y002524D01*
X007576Y002513D01*
X007624Y002498D01*
X007670Y002480D01*
X007715Y002458D01*
X007758Y002432D01*
X007799Y002403D01*
X007838Y002371D01*
X007874Y002336D01*
X007906Y002298D01*
X007936Y002258D01*
X007963Y002215D01*
X007986Y002171D01*
X008005Y002125D01*
X008021Y002077D01*
X008033Y002028D01*
X008041Y001979D01*
X008045Y001929D01*
X008045Y001879D01*
X008041Y001829D01*
X008033Y001780D01*
X008021Y001731D01*
X008005Y001683D01*
X007986Y001637D01*
X007963Y001593D01*
X007936Y001550D01*
X007906Y001510D01*
X007874Y001472D01*
X007838Y001437D01*
X007799Y001405D01*
X007758Y001376D01*
X007715Y001350D01*
X007670Y001328D01*
X007624Y001310D01*
X007576Y001295D01*
X007527Y001284D01*
X007478Y001277D01*
X007428Y001274D01*
X007377Y001275D01*
X007328Y001280D01*
X007278Y001289D01*
X007230Y001302D01*
X007183Y001318D01*
X007137Y001339D01*
X007093Y001363D01*
X007051Y001390D01*
X007011Y001420D01*
X006974Y001454D01*
X006940Y001491D01*
X006908Y001530D01*
X006880Y001571D01*
X006855Y001615D01*
X006834Y001660D01*
X006817Y001707D01*
X006803Y001755D01*
X006793Y001804D01*
X006787Y001854D01*
X006785Y001904D01*
D16*
X006239Y009711D02*
X006027Y009711D01*
X005815Y009922D01*
X005815Y010558D01*
X005180Y010558D02*
X005180Y009922D01*
X005392Y009711D01*
X005604Y009711D01*
X005815Y009922D01*
X006239Y009711D02*
X006451Y009922D01*
X006451Y010558D01*
X005180Y010558D01*
X005280Y015961D02*
X006127Y015961D01*
X006551Y016384D01*
X006127Y016808D01*
X005280Y016808D01*
X005915Y016808D02*
X005915Y015961D01*
D17*
X012856Y024137D03*
X012856Y024609D03*
D18*
X012856Y024373D03*
X013074Y001634D03*
D19*
X011465Y001718D02*
X011465Y002523D01*
X011115Y003323D02*
X009415Y003323D01*
X009065Y002523D02*
X009065Y001730D01*
X009415Y000923D02*
X011115Y000923D01*
X009565Y002123D02*
X009567Y002175D01*
X009573Y002227D01*
X009583Y002279D01*
X009596Y002329D01*
X009613Y002379D01*
X009634Y002427D01*
X009659Y002473D01*
X009687Y002517D01*
X009718Y002559D01*
X009752Y002599D01*
X009789Y002636D01*
X009829Y002670D01*
X009871Y002701D01*
X009915Y002729D01*
X009961Y002754D01*
X010009Y002775D01*
X010059Y002792D01*
X010109Y002805D01*
X010161Y002815D01*
X010213Y002821D01*
X010265Y002823D01*
X010317Y002821D01*
X010369Y002815D01*
X010421Y002805D01*
X010471Y002792D01*
X010521Y002775D01*
X010569Y002754D01*
X010615Y002729D01*
X010659Y002701D01*
X010701Y002670D01*
X010741Y002636D01*
X010778Y002599D01*
X010812Y002559D01*
X010843Y002517D01*
X010871Y002473D01*
X010896Y002427D01*
X010917Y002379D01*
X010934Y002329D01*
X010947Y002279D01*
X010957Y002227D01*
X010963Y002175D01*
X010965Y002123D01*
X010963Y002071D01*
X010957Y002019D01*
X010947Y001967D01*
X010934Y001917D01*
X010917Y001867D01*
X010896Y001819D01*
X010871Y001773D01*
X010843Y001729D01*
X010812Y001687D01*
X010778Y001647D01*
X010741Y001610D01*
X010701Y001576D01*
X010659Y001545D01*
X010615Y001517D01*
X010569Y001492D01*
X010521Y001471D01*
X010471Y001454D01*
X010421Y001441D01*
X010369Y001431D01*
X010317Y001425D01*
X010265Y001423D01*
X010213Y001425D01*
X010161Y001431D01*
X010109Y001441D01*
X010059Y001454D01*
X010009Y001471D01*
X009961Y001492D01*
X009915Y001517D01*
X009871Y001545D01*
X009829Y001576D01*
X009789Y001610D01*
X009752Y001647D01*
X009718Y001687D01*
X009687Y001729D01*
X009659Y001773D01*
X009634Y001819D01*
X009613Y001867D01*
X009596Y001917D01*
X009583Y001967D01*
X009573Y002019D01*
X009567Y002071D01*
X009565Y002123D01*
X014265Y004733D02*
X014265Y007313D01*
X016625Y007313D01*
X016625Y004733D02*
X014265Y004733D01*
X011437Y009755D02*
X009193Y009755D01*
X008838Y010109D01*
X008838Y010621D01*
X008838Y011487D02*
X008838Y011999D01*
X009193Y012353D01*
X011437Y012353D01*
X011437Y011487D01*
X011437Y010621D02*
X011437Y009755D01*
X011298Y010680D02*
X011275Y010615D01*
X011249Y010552D01*
X011219Y010491D01*
X011185Y010431D01*
X011149Y010373D01*
X011109Y010317D01*
X011066Y010264D01*
X011020Y010213D01*
X010971Y010165D01*
X010920Y010120D01*
X010866Y010077D01*
X010810Y010038D01*
X010752Y010002D01*
X010691Y009969D01*
X010629Y009940D01*
X010566Y009914D01*
X010501Y009892D01*
X010435Y009873D01*
X010368Y009859D01*
X010301Y009848D01*
X010232Y009841D01*
X010164Y009837D01*
X010095Y009838D01*
X010027Y009842D01*
X009959Y009851D01*
X009892Y009863D01*
X009825Y009878D01*
X009759Y009898D01*
X009695Y009921D01*
X009632Y009948D01*
X009570Y009979D01*
X009511Y010012D01*
X009453Y010049D01*
X009398Y010090D01*
X009345Y010133D01*
X009294Y010179D01*
X009246Y010228D01*
X009201Y010280D01*
X009159Y010334D01*
X009120Y010390D01*
X009084Y010449D01*
X009052Y010509D01*
X009023Y010571D01*
X008997Y010635D01*
X008976Y010700D01*
X008976Y011428D02*
X008999Y011493D01*
X009025Y011556D01*
X009055Y011617D01*
X009089Y011677D01*
X009125Y011735D01*
X009165Y011791D01*
X009208Y011844D01*
X009254Y011895D01*
X009303Y011943D01*
X009354Y011988D01*
X009408Y012031D01*
X009464Y012070D01*
X009522Y012106D01*
X009583Y012139D01*
X009645Y012168D01*
X009708Y012194D01*
X009773Y012216D01*
X009839Y012235D01*
X009906Y012249D01*
X009973Y012260D01*
X010042Y012267D01*
X010110Y012271D01*
X010179Y012270D01*
X010247Y012266D01*
X010315Y012257D01*
X010382Y012245D01*
X010449Y012230D01*
X010515Y012210D01*
X010579Y012187D01*
X010642Y012160D01*
X010704Y012129D01*
X010763Y012096D01*
X010821Y012059D01*
X010876Y012018D01*
X010929Y011975D01*
X010980Y011929D01*
X011028Y011880D01*
X011073Y011828D01*
X011115Y011774D01*
X011154Y011718D01*
X011190Y011659D01*
X011222Y011599D01*
X011251Y011537D01*
X011277Y011473D01*
X011298Y011408D01*
X008505Y013066D02*
X008151Y012711D01*
X007639Y012711D01*
X006773Y012711D02*
X006261Y012711D01*
X005907Y013066D01*
X005907Y015310D01*
X006773Y015310D01*
X007639Y015310D02*
X008505Y015310D01*
X008505Y013066D01*
X006832Y012850D02*
X006767Y012873D01*
X006704Y012899D01*
X006643Y012929D01*
X006583Y012963D01*
X006525Y012999D01*
X006469Y013039D01*
X006416Y013082D01*
X006365Y013128D01*
X006317Y013177D01*
X006272Y013228D01*
X006229Y013282D01*
X006190Y013338D01*
X006154Y013396D01*
X006121Y013457D01*
X006092Y013519D01*
X006066Y013582D01*
X006044Y013647D01*
X006025Y013713D01*
X006011Y013780D01*
X006000Y013847D01*
X005993Y013916D01*
X005989Y013984D01*
X005990Y014053D01*
X005994Y014121D01*
X006003Y014189D01*
X006015Y014256D01*
X006030Y014323D01*
X006050Y014389D01*
X006073Y014453D01*
X006100Y014516D01*
X006131Y014578D01*
X006164Y014637D01*
X006201Y014695D01*
X006242Y014750D01*
X006285Y014803D01*
X006331Y014854D01*
X006380Y014902D01*
X006432Y014947D01*
X006486Y014989D01*
X006542Y015028D01*
X006601Y015064D01*
X006661Y015096D01*
X006723Y015125D01*
X006787Y015151D01*
X006852Y015172D01*
X007580Y015172D02*
X007645Y015149D01*
X007708Y015123D01*
X007769Y015093D01*
X007829Y015059D01*
X007887Y015023D01*
X007943Y014983D01*
X007996Y014940D01*
X008047Y014894D01*
X008095Y014845D01*
X008140Y014794D01*
X008183Y014740D01*
X008222Y014684D01*
X008258Y014626D01*
X008291Y014565D01*
X008320Y014503D01*
X008346Y014440D01*
X008368Y014375D01*
X008387Y014309D01*
X008401Y014242D01*
X008412Y014175D01*
X008419Y014106D01*
X008423Y014038D01*
X008422Y013969D01*
X008418Y013901D01*
X008409Y013833D01*
X008397Y013766D01*
X008382Y013699D01*
X008362Y013633D01*
X008339Y013569D01*
X008312Y013506D01*
X008281Y013444D01*
X008248Y013385D01*
X008211Y013327D01*
X008170Y013272D01*
X008127Y013219D01*
X008081Y013168D01*
X008032Y013120D01*
X007980Y013075D01*
X007926Y013033D01*
X007870Y012994D01*
X007811Y012958D01*
X007751Y012926D01*
X007689Y012897D01*
X007625Y012871D01*
X007560Y012850D01*
X004932Y013483D02*
X004617Y013483D01*
X004617Y019428D01*
X004932Y019428D01*
X004932Y013483D01*
X004617Y013483D02*
X002176Y013483D01*
X002176Y019428D01*
X004617Y019428D01*
X004615Y018439D02*
X004115Y018439D01*
X003865Y018189D01*
X003865Y017689D01*
X004115Y017439D01*
X003865Y017189D01*
X003865Y016689D01*
X004115Y016439D01*
X003865Y016189D01*
X003865Y015689D01*
X004115Y015439D01*
X003865Y015189D01*
X003865Y014689D01*
X004115Y014439D01*
X004615Y014439D01*
X004865Y014689D01*
X004865Y015189D01*
X004615Y015439D01*
X004865Y015689D01*
X004865Y016189D01*
X004615Y016439D01*
X004865Y016689D01*
X004865Y017189D01*
X004615Y017439D01*
X004865Y017689D01*
X004865Y018189D01*
X004615Y018439D01*
X008815Y018315D02*
X008815Y017803D01*
X008815Y018315D02*
X009170Y018669D01*
X011414Y018669D01*
X011414Y017803D01*
X011414Y016937D02*
X011414Y016071D01*
X009170Y016071D01*
X008815Y016425D01*
X008815Y016937D01*
X008953Y017744D02*
X008976Y017809D01*
X009002Y017872D01*
X009032Y017933D01*
X009066Y017993D01*
X009102Y018051D01*
X009142Y018107D01*
X009185Y018160D01*
X009231Y018211D01*
X009280Y018259D01*
X009331Y018304D01*
X009385Y018347D01*
X009441Y018386D01*
X009499Y018422D01*
X009560Y018455D01*
X009622Y018484D01*
X009685Y018510D01*
X009750Y018532D01*
X009816Y018551D01*
X009883Y018565D01*
X009950Y018576D01*
X010019Y018583D01*
X010087Y018587D01*
X010156Y018586D01*
X010224Y018582D01*
X010292Y018573D01*
X010359Y018561D01*
X010426Y018546D01*
X010492Y018526D01*
X010556Y018503D01*
X010619Y018476D01*
X010681Y018445D01*
X010740Y018412D01*
X010798Y018375D01*
X010853Y018334D01*
X010906Y018291D01*
X010957Y018245D01*
X011005Y018196D01*
X011050Y018144D01*
X011092Y018090D01*
X011131Y018034D01*
X011167Y017975D01*
X011199Y017915D01*
X011228Y017853D01*
X011254Y017789D01*
X011275Y017724D01*
X011276Y016996D02*
X011253Y016931D01*
X011227Y016868D01*
X011197Y016807D01*
X011163Y016747D01*
X011127Y016689D01*
X011087Y016633D01*
X011044Y016580D01*
X010998Y016529D01*
X010949Y016481D01*
X010898Y016436D01*
X010844Y016393D01*
X010788Y016354D01*
X010730Y016318D01*
X010669Y016285D01*
X010607Y016256D01*
X010544Y016230D01*
X010479Y016208D01*
X010413Y016189D01*
X010346Y016175D01*
X010279Y016164D01*
X010210Y016157D01*
X010142Y016153D01*
X010073Y016154D01*
X010005Y016158D01*
X009937Y016167D01*
X009870Y016179D01*
X009803Y016194D01*
X009737Y016214D01*
X009673Y016237D01*
X009610Y016264D01*
X009548Y016295D01*
X009489Y016328D01*
X009431Y016365D01*
X009376Y016406D01*
X009323Y016449D01*
X009272Y016495D01*
X009224Y016544D01*
X009179Y016596D01*
X009137Y016650D01*
X009098Y016706D01*
X009062Y016765D01*
X009030Y016825D01*
X009001Y016887D01*
X008975Y016951D01*
X008954Y017016D01*
X010726Y021928D02*
X002655Y021928D01*
X002655Y022912D01*
X010726Y022912D01*
X010726Y021928D01*
X011021Y021928D01*
X011021Y031574D01*
X010726Y031574D01*
X010726Y030589D01*
X002655Y030589D01*
X002655Y031574D01*
X010726Y031574D01*
X012993Y030992D02*
X012993Y029693D01*
X013426Y029693D01*
X013426Y030992D02*
X012993Y030992D01*
X014096Y031110D02*
X014096Y031780D01*
X015434Y031780D01*
X015434Y031150D01*
X016104Y030992D02*
X016537Y030992D01*
X016537Y029693D01*
X016104Y029693D01*
X000391Y028995D02*
X000155Y028719D01*
X000155Y024782D01*
X000391Y024507D01*
X004065Y012042D02*
X004565Y012042D01*
X004815Y011792D01*
X004815Y011292D01*
X004565Y011042D01*
X004815Y010792D01*
X004815Y010292D01*
X004565Y010042D01*
X004815Y009792D01*
X004815Y009292D01*
X004565Y009042D01*
X004815Y008792D01*
X004815Y008292D01*
X004565Y008042D01*
X004065Y008042D01*
X003815Y008292D01*
X003815Y008792D01*
X004065Y009042D01*
X003815Y009292D01*
X003815Y009792D01*
X004065Y010042D01*
X003815Y010292D01*
X003815Y010792D01*
X004065Y011042D01*
X003815Y011292D01*
X003815Y011792D01*
X004065Y012042D01*
D20*
X010222Y012097D02*
X010369Y012097D01*
X010442Y012024D01*
X010369Y011951D01*
X010222Y011951D01*
X010295Y012172D02*
X010295Y012208D01*
X010332Y012245D01*
X010295Y012282D01*
X010332Y012318D01*
X010442Y012318D01*
X010442Y012245D02*
X010332Y012245D01*
X010295Y012172D02*
X010442Y012172D01*
X010406Y012393D02*
X010442Y012429D01*
X010442Y012503D01*
X010406Y012539D01*
X010332Y012539D01*
X010295Y012503D01*
X010295Y012429D01*
X010332Y012393D01*
X010406Y012393D01*
X010295Y012614D02*
X010295Y012687D01*
X010259Y012650D02*
X010406Y012650D01*
X010442Y012687D01*
X011222Y012650D02*
X011222Y012540D01*
X011442Y012540D01*
X011442Y012650D01*
X011406Y012687D01*
X011259Y012687D01*
X011222Y012650D01*
X011222Y012466D02*
X011442Y012466D01*
X011222Y012319D01*
X011442Y012319D01*
X011406Y012245D02*
X011332Y012245D01*
X011332Y012171D01*
X011259Y012098D02*
X011406Y012098D01*
X011442Y012135D01*
X011442Y012208D01*
X011406Y012245D01*
X011259Y012245D02*
X011222Y012208D01*
X011222Y012135D01*
X011259Y012098D01*
X012222Y012356D02*
X012259Y012319D01*
X012222Y012356D02*
X012222Y012429D01*
X012259Y012466D01*
X012295Y012466D01*
X012442Y012319D01*
X012442Y012466D01*
X012442Y012540D02*
X012442Y012650D01*
X012406Y012687D01*
X012369Y012687D01*
X012332Y012650D01*
X012332Y012540D01*
X012332Y012650D02*
X012295Y012687D01*
X012259Y012687D01*
X012222Y012650D01*
X012222Y012540D01*
X012442Y012540D01*
X013222Y012613D02*
X013295Y012687D01*
X013442Y012687D01*
X013332Y012687D02*
X013332Y012540D01*
X013295Y012540D02*
X013222Y012613D01*
X013295Y012540D02*
X013442Y012540D01*
X013442Y012466D02*
X013442Y012319D01*
X013295Y012466D01*
X013259Y012466D01*
X013222Y012429D01*
X013222Y012356D01*
X013259Y012319D01*
X014222Y012392D02*
X014295Y012319D01*
X014222Y012392D02*
X014442Y012392D01*
X014442Y012319D02*
X014442Y012466D01*
X014442Y012540D02*
X014295Y012540D01*
X014222Y012613D01*
X014295Y012687D01*
X014442Y012687D01*
X014332Y012687D02*
X014332Y012540D01*
X015222Y012540D02*
X015222Y012650D01*
X015259Y012687D01*
X015295Y012687D01*
X015332Y012650D01*
X015332Y012540D01*
X015332Y012650D02*
X015369Y012687D01*
X015406Y012687D01*
X015442Y012650D01*
X015442Y012540D01*
X015222Y012540D01*
X015222Y012392D02*
X015442Y012392D01*
X015442Y012319D02*
X015442Y012466D01*
X015295Y012319D02*
X015222Y012392D01*
X016222Y012429D02*
X016222Y012319D01*
X016442Y012319D01*
X016442Y012429D01*
X016406Y012466D01*
X016259Y012466D01*
X016222Y012429D01*
X016222Y012540D02*
X016222Y012650D01*
X016259Y012687D01*
X016406Y012687D01*
X016442Y012650D01*
X016442Y012540D01*
X016222Y012540D01*
X016222Y012245D02*
X016369Y012245D01*
X016442Y012171D01*
X016369Y012098D01*
X016222Y012098D01*
X017222Y012135D02*
X017259Y012098D01*
X017406Y012098D01*
X017442Y012135D01*
X017442Y012208D01*
X017406Y012245D01*
X017332Y012245D01*
X017332Y012171D01*
X017259Y012245D02*
X017222Y012208D01*
X017222Y012135D01*
X017222Y012319D02*
X017442Y012466D01*
X017222Y012466D01*
X017222Y012540D02*
X017222Y012650D01*
X017259Y012687D01*
X017406Y012687D01*
X017442Y012650D01*
X017442Y012540D01*
X017222Y012540D01*
X017222Y012319D02*
X017442Y012319D01*
X016592Y009571D02*
X016629Y009534D01*
X016629Y009424D01*
X016702Y009424D02*
X016482Y009424D01*
X016482Y009534D01*
X016519Y009571D01*
X016592Y009571D01*
X016482Y009350D02*
X016482Y009203D01*
X016702Y009203D01*
X016702Y009350D01*
X016592Y009276D02*
X016592Y009203D01*
X016482Y009129D02*
X016482Y008982D01*
X016482Y009055D02*
X016702Y009055D01*
X016666Y008908D02*
X016702Y008871D01*
X016702Y008798D01*
X016666Y008761D01*
X016592Y008798D02*
X016555Y008761D01*
X016519Y008761D01*
X016482Y008798D01*
X016482Y008871D01*
X016519Y008908D01*
X016592Y008871D02*
X016629Y008908D01*
X016666Y008908D01*
X016592Y008871D02*
X016592Y008798D01*
X015702Y008798D02*
X015666Y008761D01*
X015702Y008798D02*
X015702Y008871D01*
X015666Y008908D01*
X015629Y008908D01*
X015592Y008871D01*
X015592Y008798D01*
X015555Y008761D01*
X015519Y008761D01*
X015482Y008798D01*
X015482Y008871D01*
X015519Y008908D01*
X015482Y008982D02*
X015702Y008982D01*
X015702Y009129D01*
X015702Y009203D02*
X015482Y009203D01*
X015482Y009313D01*
X015519Y009350D01*
X015592Y009350D01*
X015629Y009313D01*
X015629Y009203D01*
X014702Y009276D02*
X014482Y009276D01*
X014482Y009203D02*
X014482Y009350D01*
X014519Y009129D02*
X014482Y009092D01*
X014482Y009019D01*
X014519Y008982D01*
X014555Y008982D01*
X014592Y009019D01*
X014592Y009092D01*
X014629Y009129D01*
X014666Y009129D01*
X014702Y009092D01*
X014702Y009019D01*
X014666Y008982D01*
X014702Y008908D02*
X014629Y008834D01*
X014629Y008871D02*
X014629Y008761D01*
X014702Y008761D02*
X014482Y008761D01*
X014482Y008871D01*
X014519Y008908D01*
X014592Y008908D01*
X014629Y008871D01*
X013702Y008908D02*
X013482Y008908D01*
X013555Y008834D01*
X013482Y008761D01*
X013702Y008761D01*
X013666Y008982D02*
X013702Y009019D01*
X013702Y009092D01*
X013666Y009129D01*
X013629Y009129D01*
X013592Y009092D01*
X013592Y009019D01*
X013555Y008982D01*
X013519Y008982D01*
X013482Y009019D01*
X013482Y009092D01*
X013519Y009129D01*
X013519Y009203D02*
X013482Y009240D01*
X013482Y009313D01*
X013519Y009350D01*
X013555Y009350D01*
X013592Y009313D01*
X013629Y009350D01*
X013666Y009350D01*
X013702Y009313D01*
X013702Y009240D01*
X013666Y009203D01*
X013592Y009276D02*
X013592Y009313D01*
X012702Y009350D02*
X012702Y009203D01*
X012555Y009350D01*
X012519Y009350D01*
X012482Y009313D01*
X012482Y009240D01*
X012519Y009203D01*
X012519Y009129D02*
X012482Y009092D01*
X012482Y009019D01*
X012519Y008982D01*
X012555Y008982D01*
X012592Y009019D01*
X012592Y009092D01*
X012629Y009129D01*
X012666Y009129D01*
X012702Y009092D01*
X012702Y009019D01*
X012666Y008982D01*
X012702Y008908D02*
X012482Y008908D01*
X012555Y008834D01*
X012482Y008761D01*
X012702Y008761D01*
X011702Y008761D02*
X011482Y008761D01*
X011555Y008834D01*
X011482Y008908D01*
X011702Y008908D01*
X011666Y008982D02*
X011702Y009019D01*
X011702Y009092D01*
X011666Y009129D01*
X011629Y009129D01*
X011592Y009092D01*
X011592Y009019D01*
X011555Y008982D01*
X011519Y008982D01*
X011482Y009019D01*
X011482Y009092D01*
X011519Y009129D01*
X011555Y009203D02*
X011482Y009276D01*
X011702Y009276D01*
X011702Y009203D02*
X011702Y009350D01*
X010702Y009129D02*
X010482Y009129D01*
X010482Y008982D02*
X010702Y009129D01*
X010702Y008982D02*
X010482Y008982D01*
X010482Y008908D02*
X010482Y008761D01*
X010702Y008761D01*
X010702Y008908D01*
X010592Y008834D02*
X010592Y008761D01*
X017482Y008871D02*
X017482Y008761D01*
X017702Y008761D01*
X017702Y008871D01*
X017666Y008908D01*
X017519Y008908D01*
X017482Y008871D01*
X017482Y008982D02*
X017482Y009055D01*
X017482Y009019D02*
X017702Y009019D01*
X017702Y009055D02*
X017702Y008982D01*
X017702Y009129D02*
X017482Y009129D01*
X017482Y009239D01*
X017519Y009276D01*
X017592Y009276D01*
X017629Y009239D01*
X017629Y009129D01*
X017629Y009203D02*
X017702Y009276D01*
X017683Y015080D02*
X017462Y015080D01*
X017462Y015190D01*
X017499Y015227D01*
X017646Y015227D01*
X017683Y015190D01*
X017683Y015080D01*
X017683Y015301D02*
X017683Y015374D01*
X017683Y015337D02*
X017462Y015337D01*
X017462Y015301D02*
X017462Y015374D01*
X017462Y015448D02*
X017462Y015558D01*
X017499Y015595D01*
X017572Y015595D01*
X017609Y015558D01*
X017609Y015448D01*
X017609Y015521D02*
X017683Y015595D01*
X017683Y015448D02*
X017462Y015448D01*
X016683Y015522D02*
X016683Y015669D01*
X016683Y015743D02*
X016462Y015743D01*
X016462Y015853D01*
X016499Y015889D01*
X016572Y015889D01*
X016609Y015853D01*
X016609Y015743D01*
X016572Y015595D02*
X016572Y015522D01*
X016462Y015522D02*
X016683Y015522D01*
X016683Y015374D02*
X016462Y015374D01*
X016462Y015301D02*
X016462Y015448D01*
X016462Y015522D02*
X016462Y015669D01*
X016499Y015227D02*
X016462Y015190D01*
X016462Y015116D01*
X016499Y015080D01*
X016536Y015080D01*
X016572Y015116D01*
X016572Y015190D01*
X016609Y015227D01*
X016646Y015227D01*
X016683Y015190D01*
X016683Y015116D01*
X016646Y015080D01*
X015683Y015116D02*
X015646Y015080D01*
X015683Y015116D02*
X015683Y015190D01*
X015646Y015227D01*
X015609Y015227D01*
X015572Y015190D01*
X015572Y015116D01*
X015536Y015080D01*
X015499Y015080D01*
X015462Y015116D01*
X015462Y015190D01*
X015499Y015227D01*
X015462Y015301D02*
X015683Y015301D01*
X015683Y015448D01*
X015683Y015522D02*
X015462Y015522D01*
X015462Y015632D01*
X015499Y015669D01*
X015572Y015669D01*
X015609Y015632D01*
X015609Y015522D01*
X014683Y015595D02*
X014462Y015595D01*
X014462Y015522D02*
X014462Y015669D01*
X014499Y015448D02*
X014462Y015411D01*
X014462Y015337D01*
X014499Y015301D01*
X014536Y015301D01*
X014572Y015337D01*
X014572Y015411D01*
X014609Y015448D01*
X014646Y015448D01*
X014683Y015411D01*
X014683Y015337D01*
X014646Y015301D01*
X014683Y015227D02*
X014609Y015153D01*
X014609Y015190D02*
X014609Y015080D01*
X014683Y015080D02*
X014462Y015080D01*
X014462Y015190D01*
X014499Y015227D01*
X014572Y015227D01*
X014609Y015190D01*
X013683Y015227D02*
X013462Y015227D01*
X013536Y015153D01*
X013462Y015080D01*
X013683Y015080D01*
X013646Y015301D02*
X013683Y015337D01*
X013683Y015411D01*
X013646Y015448D01*
X013609Y015448D01*
X013572Y015411D01*
X013572Y015337D01*
X013536Y015301D01*
X013499Y015301D01*
X013462Y015337D01*
X013462Y015411D01*
X013499Y015448D01*
X013499Y015522D02*
X013462Y015558D01*
X013462Y015632D01*
X013499Y015669D01*
X013536Y015669D01*
X013572Y015632D01*
X013609Y015669D01*
X013646Y015669D01*
X013683Y015632D01*
X013683Y015558D01*
X013646Y015522D01*
X013572Y015595D02*
X013572Y015632D01*
X012683Y015669D02*
X012683Y015522D01*
X012536Y015669D01*
X012499Y015669D01*
X012462Y015632D01*
X012462Y015558D01*
X012499Y015522D01*
X012499Y015448D02*
X012462Y015411D01*
X012462Y015337D01*
X012499Y015301D01*
X012536Y015301D01*
X012572Y015337D01*
X012572Y015411D01*
X012609Y015448D01*
X012646Y015448D01*
X012683Y015411D01*
X012683Y015337D01*
X012646Y015301D01*
X012683Y015227D02*
X012462Y015227D01*
X012536Y015153D01*
X012462Y015080D01*
X012683Y015080D01*
X011683Y015080D02*
X011462Y015080D01*
X011536Y015153D01*
X011462Y015227D01*
X011683Y015227D01*
X011646Y015301D02*
X011683Y015337D01*
X011683Y015411D01*
X011646Y015448D01*
X011609Y015448D01*
X011572Y015411D01*
X011572Y015337D01*
X011536Y015301D01*
X011499Y015301D01*
X011462Y015337D01*
X011462Y015411D01*
X011499Y015448D01*
X011536Y015522D02*
X011462Y015595D01*
X011683Y015595D01*
X011683Y015522D02*
X011683Y015669D01*
X010683Y015448D02*
X010462Y015448D01*
X010462Y015301D02*
X010683Y015448D01*
X010683Y015301D02*
X010462Y015301D01*
X010462Y015227D02*
X010462Y015080D01*
X010683Y015080D01*
X010683Y015227D01*
X010572Y015153D02*
X010572Y015080D01*
X010349Y018269D02*
X010423Y018343D01*
X010349Y018416D01*
X010202Y018416D01*
X010276Y018490D02*
X010276Y018527D01*
X010312Y018564D01*
X010276Y018601D01*
X010312Y018637D01*
X010423Y018637D01*
X010423Y018564D02*
X010312Y018564D01*
X010276Y018490D02*
X010423Y018490D01*
X010386Y018711D02*
X010423Y018748D01*
X010423Y018822D01*
X010386Y018858D01*
X010312Y018858D01*
X010276Y018822D01*
X010276Y018748D01*
X010312Y018711D01*
X010386Y018711D01*
X010276Y018932D02*
X010276Y019006D01*
X010239Y018969D02*
X010386Y018969D01*
X010423Y019006D01*
X010349Y018269D02*
X010202Y018269D01*
X011202Y018454D02*
X011239Y018417D01*
X011386Y018417D01*
X011423Y018454D01*
X011423Y018527D01*
X011386Y018564D01*
X011312Y018564D01*
X011312Y018490D01*
X011239Y018564D02*
X011202Y018527D01*
X011202Y018454D01*
X011202Y018638D02*
X011423Y018785D01*
X011202Y018785D01*
X011202Y018859D02*
X011202Y018969D01*
X011239Y019006D01*
X011386Y019006D01*
X011423Y018969D01*
X011423Y018859D01*
X011202Y018859D01*
X011202Y018638D02*
X011423Y018638D01*
X012202Y018674D02*
X012239Y018638D01*
X012202Y018674D02*
X012202Y018748D01*
X012239Y018785D01*
X012276Y018785D01*
X012423Y018638D01*
X012423Y018785D01*
X012423Y018859D02*
X012423Y018969D01*
X012386Y019006D01*
X012349Y019006D01*
X012312Y018969D01*
X012312Y018859D01*
X012202Y018859D02*
X012423Y018859D01*
X012312Y018969D02*
X012276Y019006D01*
X012239Y019006D01*
X012202Y018969D01*
X012202Y018859D01*
X013202Y018932D02*
X013276Y018859D01*
X013423Y018859D01*
X013423Y018785D02*
X013423Y018638D01*
X013276Y018785D01*
X013239Y018785D01*
X013202Y018748D01*
X013202Y018674D01*
X013239Y018638D01*
X013312Y018859D02*
X013312Y019006D01*
X013276Y019006D02*
X013423Y019006D01*
X013276Y019006D02*
X013202Y018932D01*
X014202Y018932D02*
X014276Y018859D01*
X014423Y018859D01*
X014423Y018785D02*
X014423Y018638D01*
X014423Y018711D02*
X014202Y018711D01*
X014276Y018638D01*
X014312Y018859D02*
X014312Y019006D01*
X014276Y019006D02*
X014423Y019006D01*
X014276Y019006D02*
X014202Y018932D01*
X015202Y018969D02*
X015202Y018859D01*
X015423Y018859D01*
X015423Y018969D01*
X015386Y019006D01*
X015349Y019006D01*
X015312Y018969D01*
X015312Y018859D01*
X015312Y018969D02*
X015276Y019006D01*
X015239Y019006D01*
X015202Y018969D01*
X015202Y018711D02*
X015423Y018711D01*
X015423Y018638D02*
X015423Y018785D01*
X015276Y018638D02*
X015202Y018711D01*
X016202Y018748D02*
X016202Y018638D01*
X016423Y018638D01*
X016423Y018748D01*
X016386Y018785D01*
X016239Y018785D01*
X016202Y018748D01*
X016202Y018859D02*
X016202Y018969D01*
X016239Y019006D01*
X016386Y019006D01*
X016423Y018969D01*
X016423Y018859D01*
X016202Y018859D01*
X016202Y018564D02*
X016349Y018564D01*
X016423Y018490D01*
X016349Y018417D01*
X016202Y018417D01*
X017202Y018454D02*
X017239Y018417D01*
X017386Y018417D01*
X017423Y018454D01*
X017423Y018527D01*
X017386Y018564D01*
X017312Y018564D01*
X017312Y018490D01*
X017239Y018564D02*
X017202Y018527D01*
X017202Y018454D01*
X017202Y018638D02*
X017423Y018785D01*
X017202Y018785D01*
X017202Y018859D02*
X017202Y018969D01*
X017239Y019006D01*
X017386Y019006D01*
X017423Y018969D01*
X017423Y018859D01*
X017202Y018859D01*
X017202Y018638D02*
X017423Y018638D01*
X003407Y026745D02*
X003409Y026772D01*
X003415Y026799D01*
X003424Y026825D01*
X003437Y026849D01*
X003453Y026872D01*
X003472Y026891D01*
X003494Y026908D01*
X003518Y026922D01*
X003543Y026932D01*
X003570Y026939D01*
X003597Y026942D01*
X003625Y026941D01*
X003652Y026936D01*
X003678Y026928D01*
X003702Y026916D01*
X003725Y026900D01*
X003746Y026882D01*
X003763Y026861D01*
X003778Y026837D01*
X003789Y026812D01*
X003797Y026786D01*
X003801Y026759D01*
X003801Y026731D01*
X003797Y026704D01*
X003789Y026678D01*
X003778Y026653D01*
X003763Y026629D01*
X003746Y026608D01*
X003725Y026590D01*
X003703Y026574D01*
X003678Y026562D01*
X003652Y026554D01*
X003625Y026549D01*
X003597Y026548D01*
X003570Y026551D01*
X003543Y026558D01*
X003518Y026568D01*
X003494Y026582D01*
X003472Y026599D01*
X003453Y026618D01*
X003437Y026641D01*
X003424Y026665D01*
X003415Y026691D01*
X003409Y026718D01*
X003407Y026745D01*
D21*
X012876Y026373D03*
X012876Y027373D03*
X012954Y028373D03*
X012954Y025373D03*
D22*
X002510Y014288D02*
X002510Y014188D01*
X002410Y014288D01*
X002385Y014288D01*
X002360Y014263D01*
X002360Y014213D01*
X002385Y014188D01*
X002385Y014141D02*
X002435Y014141D01*
X002460Y014116D01*
X002460Y014041D01*
X002510Y014041D02*
X002360Y014041D01*
X002360Y014116D01*
X002385Y014141D01*
X002360Y013994D02*
X002360Y013944D01*
X002360Y013969D02*
X002485Y013969D01*
X002510Y013944D01*
X002510Y013919D01*
X002485Y013894D01*
D23*
X012838Y001634D03*
X013311Y001634D03*
D24*
X014075Y006023D03*
M02*
