G75*
%MOIN*%
%OFA0B0*%
%FSLAX24Y24*%
%IPPOS*%
%LPD*%
%AMOC8*
5,1,8,0,0,1.08239X$1,22.5*
%
%ADD10C,0.0160*%
%ADD11C,0.0594*%
%ADD12C,0.0700*%
%ADD13C,0.0554*%
%ADD14C,0.0600*%
%ADD15C,0.1890*%
%ADD16C,0.0560*%
%ADD17R,0.0800X0.0800*%
%ADD18C,0.0800*%
%ADD19C,0.0860*%
%ADD20C,0.0740*%
%ADD21OC8,0.0600*%
%ADD22OC8,0.0317*%
%ADD23OC8,0.0356*%
%ADD24R,0.0356X0.0356*%
%ADD25OC8,0.0240*%
%ADD26C,0.0240*%
D10*
X002145Y001680D02*
X039940Y001680D01*
X040727Y002467D01*
X040727Y032389D01*
X039940Y033176D01*
X002145Y033176D01*
X001357Y032389D01*
X001357Y002467D01*
X002145Y001680D01*
X002261Y001960D02*
X001637Y002583D01*
X001637Y007947D01*
X007586Y001999D01*
X007625Y001960D01*
X005549Y001960D01*
X005629Y001993D01*
X005764Y002128D01*
X005837Y002305D01*
X005837Y003055D01*
X005764Y003232D01*
X005629Y003367D01*
X005453Y003440D01*
X005262Y003440D01*
X005085Y003367D01*
X004950Y003232D01*
X004877Y003055D01*
X004877Y004707D01*
X005025Y004560D02*
X001637Y004560D01*
X001637Y004240D02*
X005345Y004240D01*
X005197Y004387D02*
X005197Y003413D01*
X004998Y003280D02*
X004716Y003280D01*
X004764Y003232D02*
X004629Y003367D01*
X004453Y003440D01*
X004262Y003440D01*
X004085Y003367D01*
X003950Y003232D01*
X003877Y003055D01*
X003877Y002305D01*
X003950Y002128D01*
X004085Y001993D01*
X004165Y001960D01*
X002261Y001960D01*
X002317Y001960D02*
X002317Y007267D01*
X002465Y007120D02*
X001637Y007120D01*
X001637Y006800D02*
X002785Y006800D01*
X002637Y006947D02*
X002637Y001960D01*
X002957Y001960D02*
X002957Y006627D01*
X003105Y006480D02*
X001637Y006480D01*
X001637Y006160D02*
X003425Y006160D01*
X003277Y006307D02*
X003277Y001960D01*
X003597Y001960D02*
X003597Y005987D01*
X003745Y005840D02*
X001637Y005840D01*
X001637Y005520D02*
X004065Y005520D01*
X003917Y005667D02*
X003917Y003152D01*
X003998Y003280D02*
X001637Y003280D01*
X001637Y002960D02*
X003877Y002960D01*
X003877Y002640D02*
X001637Y002640D01*
X001677Y002543D02*
X001677Y007907D01*
X001637Y007760D02*
X001825Y007760D01*
X001997Y007587D02*
X001997Y002223D01*
X001901Y002320D02*
X003877Y002320D01*
X003917Y002208D02*
X003917Y001960D01*
X004078Y002000D02*
X002221Y002000D01*
X001637Y003600D02*
X005985Y003600D01*
X005837Y003747D02*
X005837Y001960D01*
X005636Y002000D02*
X007585Y002000D01*
X007437Y001960D02*
X007437Y002147D01*
X007265Y002320D02*
X005837Y002320D01*
X005837Y002640D02*
X006945Y002640D01*
X006797Y002787D02*
X006797Y001960D01*
X006477Y001960D02*
X006477Y003107D01*
X006625Y002960D02*
X005837Y002960D01*
X005716Y003280D02*
X006305Y003280D01*
X006157Y003427D02*
X006157Y001960D01*
X005165Y001960D02*
X004549Y001960D01*
X004629Y001993D01*
X004764Y002128D01*
X004837Y002305D01*
X004837Y003055D01*
X004764Y003232D01*
X004877Y003055D02*
X004877Y002305D01*
X004877Y001960D01*
X004950Y002128D02*
X005085Y001993D01*
X005165Y001960D01*
X005078Y002000D02*
X004636Y002000D01*
X004557Y001963D02*
X004557Y001960D01*
X004950Y002128D02*
X004877Y002305D01*
X004877Y002320D02*
X004837Y002320D01*
X004837Y002640D02*
X004877Y002640D01*
X004877Y002960D02*
X004837Y002960D01*
X004557Y003397D02*
X004557Y005027D01*
X004705Y004880D02*
X001637Y004880D01*
X001637Y005200D02*
X004385Y005200D01*
X004237Y005347D02*
X004237Y003430D01*
X005517Y003413D02*
X005517Y004067D01*
X005665Y003920D02*
X001637Y003920D01*
X004010Y006480D02*
X006077Y006480D01*
X006077Y006160D02*
X004330Y006160D01*
X004237Y006253D02*
X004237Y017097D01*
X004295Y017040D02*
X002677Y017040D01*
X002677Y016720D02*
X004615Y016720D01*
X004557Y016777D02*
X004557Y005933D01*
X004650Y005840D02*
X006077Y005840D01*
X006077Y005520D02*
X004970Y005520D01*
X004877Y005613D02*
X004877Y016457D01*
X004926Y016409D02*
X004926Y016409D01*
X004975Y016360D01*
X005240Y016360D01*
X005289Y016409D01*
X005379Y016499D01*
X005427Y016547D01*
X005427Y016813D01*
X005379Y016861D01*
X005379Y016861D01*
X004539Y017701D01*
X004539Y017701D01*
X004490Y017750D01*
X004225Y017750D01*
X004176Y017701D01*
X004086Y017611D01*
X004037Y017563D01*
X004037Y017297D01*
X004086Y017249D01*
X004086Y017249D01*
X004926Y016409D01*
X004935Y016400D02*
X002677Y016400D01*
X002677Y016080D02*
X006077Y016080D01*
X006077Y015760D02*
X002677Y015760D01*
X002677Y015440D02*
X006077Y015440D01*
X006077Y015120D02*
X002677Y015120D01*
X002677Y014800D02*
X006077Y014800D01*
X006077Y014480D02*
X002177Y014480D01*
X002225Y014610D02*
X002490Y014610D01*
X002539Y014659D01*
X002629Y014749D01*
X002677Y014797D01*
X002677Y017563D01*
X002629Y017611D01*
X002629Y017611D01*
X002539Y017701D01*
X002539Y017701D01*
X002490Y017750D01*
X002225Y017750D01*
X002177Y017703D01*
X002177Y026734D01*
X002206Y026674D01*
X002273Y026567D01*
X002352Y026469D01*
X002441Y026379D01*
X002540Y026301D01*
X002647Y026233D01*
X002761Y026178D01*
X002880Y026137D01*
X003003Y026109D01*
X003112Y026096D01*
X003112Y027139D01*
X003272Y027139D01*
X003272Y026096D01*
X003381Y026109D01*
X003504Y026137D01*
X003514Y026140D01*
X003494Y026120D01*
X003415Y026021D01*
X003348Y025914D01*
X003293Y025800D01*
X003287Y025783D01*
X003255Y025815D01*
X003177Y025871D01*
X003091Y025915D01*
X003000Y025944D01*
X002905Y025959D01*
X002876Y025959D01*
X002876Y025368D01*
X003467Y025368D01*
X003467Y025397D01*
X003459Y025449D01*
X004254Y025449D01*
X004254Y026492D01*
X004145Y026480D01*
X004022Y026452D01*
X004011Y026448D01*
X004032Y026469D01*
X004111Y026567D01*
X004178Y026674D01*
X004233Y026788D01*
X004275Y026907D01*
X004303Y027031D01*
X004315Y027139D01*
X003272Y027139D01*
X003272Y027299D01*
X004315Y027299D01*
X004303Y027408D01*
X004275Y027531D01*
X004233Y027651D01*
X004178Y027764D01*
X004111Y027871D01*
X004032Y027970D01*
X003943Y028059D01*
X003844Y028138D01*
X003737Y028205D01*
X003623Y028260D01*
X003504Y028302D01*
X003381Y028330D01*
X003272Y028342D01*
X003272Y027299D01*
X003112Y027299D01*
X003112Y028342D01*
X003003Y028330D01*
X002947Y028317D01*
X003379Y028749D01*
X003427Y028866D01*
X003427Y028994D01*
X003427Y030860D01*
X004718Y030860D01*
X004805Y030773D01*
X004982Y030700D01*
X005733Y030700D01*
X005909Y030773D01*
X006044Y030908D01*
X006100Y031042D01*
X006327Y030814D01*
X006327Y028026D01*
X006218Y028136D01*
X005957Y028286D01*
X005665Y028364D01*
X005364Y028364D01*
X005073Y028286D01*
X004812Y028136D01*
X004599Y027922D01*
X004448Y027661D01*
X004370Y027370D01*
X004370Y027069D01*
X004448Y026777D01*
X004599Y026516D01*
X004673Y026442D01*
X004646Y026452D01*
X004522Y026480D01*
X004414Y026492D01*
X004414Y025449D01*
X004254Y025449D01*
X004254Y025289D01*
X003465Y025289D01*
X003467Y025301D01*
X003467Y025331D01*
X002876Y025331D01*
X002876Y025368D01*
X002839Y025368D01*
X002839Y025959D01*
X002809Y025959D01*
X002714Y025944D01*
X002623Y025915D01*
X002538Y025871D01*
X002460Y025815D01*
X002392Y025747D01*
X002336Y025669D01*
X002292Y025583D01*
X002262Y025492D01*
X002247Y025397D01*
X002247Y025368D01*
X002839Y025368D01*
X002839Y025331D01*
X002876Y025331D01*
X002876Y024739D01*
X002905Y024739D01*
X003000Y024754D01*
X003091Y024784D01*
X003177Y024828D01*
X003255Y024884D01*
X003298Y024927D01*
X003348Y024824D01*
X003415Y024717D01*
X003494Y024618D01*
X003583Y024529D01*
X003682Y024450D01*
X003746Y024410D01*
X003310Y024410D01*
X003214Y024505D01*
X002983Y024601D01*
X002732Y024601D01*
X002500Y024505D01*
X002323Y024328D01*
X002227Y024097D01*
X002227Y023846D01*
X002323Y023614D01*
X002500Y023437D01*
X002732Y023341D01*
X002983Y023341D01*
X003214Y023437D01*
X003227Y023450D01*
X005953Y023450D01*
X006077Y023502D01*
X006077Y005124D01*
X006120Y005021D01*
X006199Y004943D01*
X006302Y004900D01*
X006799Y004900D01*
X006743Y004844D01*
X006743Y004430D01*
X007036Y004137D01*
X007450Y004137D01*
X007743Y004430D01*
X008036Y004137D01*
X008450Y004137D01*
X008036Y004137D01*
X007743Y003844D01*
X007450Y004137D01*
X007036Y004137D01*
X006743Y003844D01*
X006743Y003747D01*
X002177Y008313D01*
X002177Y014657D01*
X002225Y014610D01*
X002317Y014610D02*
X002317Y008173D01*
X002410Y008080D02*
X006077Y008080D01*
X006077Y007760D02*
X002730Y007760D01*
X002637Y007853D02*
X002637Y014757D01*
X002629Y014749D02*
X002629Y014749D01*
X002539Y014659D02*
X002539Y014659D01*
X002177Y014160D02*
X006077Y014160D01*
X006077Y013840D02*
X002177Y013840D01*
X002177Y013520D02*
X006077Y013520D01*
X006077Y013200D02*
X002177Y013200D01*
X002177Y012880D02*
X006077Y012880D01*
X006077Y012560D02*
X002177Y012560D01*
X002177Y012240D02*
X006077Y012240D01*
X006077Y011920D02*
X002177Y011920D01*
X002177Y011600D02*
X006077Y011600D01*
X006077Y011280D02*
X002177Y011280D01*
X002177Y010960D02*
X006077Y010960D01*
X006077Y010640D02*
X002177Y010640D01*
X002177Y010320D02*
X006077Y010320D01*
X006077Y010000D02*
X002177Y010000D01*
X002177Y009680D02*
X006077Y009680D01*
X006077Y009360D02*
X002177Y009360D01*
X002177Y009040D02*
X006077Y009040D01*
X006077Y008720D02*
X002177Y008720D01*
X002177Y008400D02*
X006077Y008400D01*
X006637Y008400D02*
X006773Y008400D01*
X006797Y008375D02*
X006797Y007898D01*
X006743Y007844D02*
X006743Y007430D01*
X007036Y007137D01*
X007077Y007137D01*
X007077Y007137D01*
X007036Y007137D01*
X006743Y006844D01*
X006743Y006430D01*
X007036Y006137D01*
X007450Y006137D01*
X007743Y006430D01*
X008036Y006137D01*
X008450Y006137D01*
X008036Y006137D01*
X007743Y005844D01*
X007450Y006137D01*
X007036Y006137D01*
X006743Y005844D01*
X006743Y005460D01*
X006637Y005460D01*
X006637Y012754D01*
X006743Y012648D01*
X006743Y012430D01*
X007036Y012137D01*
X007450Y012137D01*
X007036Y012137D01*
X006743Y011844D01*
X006743Y011430D01*
X007036Y011137D01*
X007450Y011137D01*
X007743Y011430D01*
X007743Y011844D01*
X007450Y012137D01*
X007743Y012430D01*
X008036Y012137D01*
X008450Y012137D01*
X008036Y012137D01*
X007743Y011844D01*
X007743Y011430D01*
X008036Y011137D01*
X008450Y011137D01*
X008743Y011430D01*
X008743Y011844D01*
X008450Y012137D01*
X008743Y012430D01*
X008743Y012844D01*
X008680Y012907D01*
X008766Y012943D01*
X008845Y013021D01*
X011095Y015271D01*
X011137Y015374D01*
X011137Y015754D01*
X017537Y009354D01*
X017537Y009297D01*
X017725Y009110D01*
X017990Y009110D01*
X018136Y009256D01*
X021287Y006104D01*
X021287Y006047D01*
X021375Y005960D01*
X017840Y005960D01*
X017927Y006047D01*
X017927Y006313D01*
X017740Y006500D01*
X017683Y006500D01*
X014595Y009589D01*
X014516Y009667D01*
X014413Y009710D01*
X008743Y009710D01*
X008743Y009844D01*
X008450Y010137D01*
X008743Y010430D01*
X008743Y010844D01*
X008450Y011137D01*
X008036Y011137D01*
X007743Y010844D01*
X007450Y011137D01*
X007036Y011137D01*
X006743Y010844D01*
X006743Y010430D01*
X007036Y010137D01*
X007450Y010137D01*
X007743Y010430D01*
X007743Y010844D01*
X007743Y010430D01*
X008036Y010137D01*
X008450Y010137D01*
X008036Y010137D01*
X007743Y009844D01*
X007450Y010137D01*
X007036Y010137D01*
X006743Y009844D01*
X006743Y009430D01*
X007036Y009137D01*
X007077Y009137D01*
X007077Y009137D01*
X007036Y009137D01*
X006743Y008844D01*
X006743Y008430D01*
X007036Y008137D01*
X007450Y008137D01*
X007036Y008137D01*
X006743Y007844D01*
X006743Y007760D02*
X006637Y007760D01*
X006637Y007440D02*
X006743Y007440D01*
X006797Y007375D02*
X006797Y006898D01*
X006743Y006800D02*
X006637Y006800D01*
X006637Y006480D02*
X006743Y006480D01*
X006797Y006375D02*
X006797Y005898D01*
X006743Y005840D02*
X006637Y005840D01*
X006637Y005520D02*
X006743Y005520D01*
X006357Y005180D02*
X006357Y024680D01*
X006607Y024930D01*
X006607Y030930D01*
X004857Y032680D01*
X002107Y032680D01*
X002107Y032180D01*
X002467Y031960D01*
X001933Y031760D02*
X001637Y031760D01*
X001897Y031847D02*
X001897Y031993D01*
X001894Y031997D01*
X001870Y032021D01*
X001861Y032042D01*
X001848Y032060D01*
X001840Y032093D01*
X001827Y032124D01*
X001827Y032147D01*
X001822Y032168D01*
X001827Y032202D01*
X001827Y032463D01*
X001637Y032273D01*
X001637Y027913D01*
X001676Y027951D01*
X002555Y028830D01*
X002354Y028830D01*
X002144Y028917D01*
X001984Y029077D01*
X001897Y029287D01*
X001897Y029513D01*
X001984Y029723D01*
X002144Y029883D01*
X002354Y029970D01*
X002581Y029970D01*
X002787Y029884D01*
X002787Y031244D01*
X002836Y031361D01*
X002926Y031451D01*
X003044Y031500D01*
X003945Y031500D01*
X003889Y031540D01*
X003828Y031602D01*
X003777Y031672D01*
X003738Y031749D01*
X003711Y031831D01*
X003697Y031917D01*
X003697Y031940D01*
X004227Y031940D01*
X004227Y031980D01*
X003697Y031980D01*
X003697Y032003D01*
X003711Y032089D01*
X003738Y032171D01*
X003777Y032248D01*
X003828Y032318D01*
X003889Y032380D01*
X003917Y032400D01*
X002833Y032400D01*
X002951Y032283D01*
X003037Y032073D01*
X003037Y031847D01*
X002951Y031637D01*
X002790Y031477D01*
X002581Y031390D01*
X002354Y031390D01*
X002144Y031477D01*
X001984Y031637D01*
X001897Y031847D01*
X001843Y032080D02*
X001637Y032080D01*
X001677Y032313D02*
X001677Y027953D01*
X001645Y027920D02*
X001637Y027920D01*
X001637Y028240D02*
X001965Y028240D01*
X001997Y028273D02*
X001997Y029064D01*
X001933Y029200D02*
X001637Y029200D01*
X001637Y028880D02*
X002233Y028880D01*
X002317Y028845D02*
X002317Y028593D01*
X002285Y028560D02*
X001637Y028560D01*
X001637Y029520D02*
X001900Y029520D01*
X001997Y029736D02*
X001997Y031624D01*
X002233Y031440D02*
X001637Y031440D01*
X001637Y031120D02*
X002787Y031120D01*
X002787Y030800D02*
X001637Y030800D01*
X001637Y030480D02*
X002787Y030480D01*
X002787Y030160D02*
X001637Y030160D01*
X001637Y029840D02*
X002101Y029840D01*
X002317Y029955D02*
X002317Y031405D01*
X002637Y031413D02*
X002637Y029947D01*
X003427Y029840D02*
X003917Y029840D01*
X003917Y030860D01*
X003597Y030860D02*
X003597Y028269D01*
X003665Y028240D02*
X004993Y028240D01*
X004877Y028173D02*
X004877Y029743D01*
X004805Y029773D02*
X004982Y029700D01*
X005733Y029700D01*
X005909Y029773D01*
X006044Y029908D01*
X006117Y030085D01*
X006117Y030275D01*
X006044Y030452D01*
X005909Y030587D01*
X005733Y030660D01*
X004982Y030660D01*
X004805Y030587D01*
X004670Y030452D01*
X004597Y030275D01*
X004597Y030085D01*
X004670Y029908D01*
X004805Y029773D01*
X004738Y029840D02*
X004577Y029840D01*
X004557Y029855D02*
X004557Y030860D01*
X004778Y030800D02*
X003427Y030800D01*
X003427Y030480D02*
X004698Y030480D01*
X004877Y030617D02*
X004877Y030743D01*
X005197Y030700D02*
X005197Y030660D01*
X005517Y030660D02*
X005517Y030700D01*
X005837Y030743D02*
X005837Y030617D01*
X005936Y030800D02*
X006327Y030800D01*
X006157Y030984D02*
X006157Y028170D01*
X006037Y028240D02*
X006327Y028240D01*
X006327Y028560D02*
X003190Y028560D01*
X003277Y028647D02*
X003277Y028342D01*
X003272Y028240D02*
X003112Y028240D01*
X002957Y028320D02*
X002957Y028327D01*
X003112Y027920D02*
X003272Y027920D01*
X003272Y027600D02*
X003112Y027600D01*
X003277Y027299D02*
X003277Y027139D01*
X003272Y027280D02*
X004370Y027280D01*
X004237Y027299D02*
X004237Y027139D01*
X004287Y026960D02*
X004399Y026960D01*
X004237Y026801D02*
X004237Y026490D01*
X004156Y026640D02*
X004527Y026640D01*
X004557Y026588D02*
X004557Y026472D01*
X004414Y026320D02*
X004254Y026320D01*
X004254Y026000D02*
X004414Y026000D01*
X004414Y025680D02*
X004254Y025680D01*
X004237Y025449D02*
X004237Y025289D01*
X004254Y025360D02*
X002876Y025360D01*
X002839Y025360D02*
X002177Y025360D01*
X002247Y025331D02*
X002247Y025301D01*
X002262Y025206D01*
X002292Y025115D01*
X002336Y025030D01*
X002392Y024952D01*
X002460Y024884D01*
X002538Y024828D01*
X002623Y024784D01*
X002714Y024754D01*
X002809Y024739D01*
X002839Y024739D01*
X002839Y025331D01*
X002247Y025331D01*
X002317Y025331D02*
X002317Y025368D01*
X002317Y025633D02*
X002317Y026512D01*
X002227Y026640D02*
X002177Y026640D01*
X002177Y026320D02*
X002516Y026320D01*
X002637Y026239D02*
X002637Y025919D01*
X002839Y025680D02*
X002876Y025680D01*
X002957Y025951D02*
X002957Y026119D01*
X003112Y026320D02*
X003272Y026320D01*
X003277Y026097D02*
X003277Y025792D01*
X003402Y026000D02*
X002177Y026000D01*
X002177Y025680D02*
X002344Y025680D01*
X002637Y025368D02*
X002637Y025331D01*
X002957Y025331D02*
X002957Y025368D01*
X003277Y025368D02*
X003277Y025331D01*
X003597Y025289D02*
X003597Y025449D01*
X003917Y025449D02*
X003917Y025289D01*
X003277Y024907D02*
X003277Y024442D01*
X003413Y024720D02*
X002177Y024720D01*
X002177Y024400D02*
X002395Y024400D01*
X002317Y024314D02*
X002317Y025065D01*
X002330Y025040D02*
X002177Y025040D01*
X002637Y024779D02*
X002637Y024562D01*
X002957Y024601D02*
X002957Y024748D01*
X002876Y025040D02*
X002839Y025040D01*
X003597Y024517D02*
X003597Y024410D01*
X003597Y023450D02*
X003597Y006893D01*
X003690Y006800D02*
X006077Y006800D01*
X006077Y007120D02*
X003370Y007120D01*
X003277Y007213D02*
X003277Y023450D01*
X003217Y023440D02*
X006077Y023440D01*
X005837Y023450D02*
X005837Y004653D01*
X005930Y004560D02*
X006743Y004560D01*
X006797Y004375D02*
X006797Y003898D01*
X006819Y003920D02*
X006570Y003920D01*
X006477Y004013D02*
X006477Y004900D01*
X006779Y004880D02*
X005610Y004880D01*
X005517Y004973D02*
X005517Y023450D01*
X005197Y023450D02*
X005197Y017043D01*
X005200Y017040D02*
X006077Y017040D01*
X006077Y016720D02*
X005427Y016720D01*
X005379Y016499D02*
X005379Y016499D01*
X005289Y016409D02*
X005289Y016409D01*
X005280Y016400D02*
X006077Y016400D01*
X006637Y016400D02*
X006773Y016400D01*
X006797Y016375D02*
X006797Y015898D01*
X006743Y015844D02*
X006743Y015460D01*
X006637Y015460D01*
X006637Y024564D01*
X006766Y024693D01*
X006845Y024771D01*
X006887Y024874D01*
X006887Y030986D01*
X006845Y031089D01*
X005095Y032839D01*
X005037Y032896D01*
X039824Y032896D01*
X040447Y032273D01*
X040447Y002583D01*
X039824Y001960D01*
X019590Y001960D01*
X019629Y001999D01*
X019677Y002116D01*
X019677Y002297D01*
X019778Y002399D01*
X019854Y002581D01*
X019854Y002779D01*
X019778Y002961D01*
X019639Y003101D01*
X019456Y003177D01*
X019258Y003177D01*
X019076Y003101D01*
X018936Y002961D01*
X018860Y002779D01*
X018860Y002581D01*
X018894Y002500D01*
X018800Y002500D01*
X018822Y002568D01*
X018834Y002642D01*
X018834Y002662D01*
X018376Y002662D01*
X018376Y002698D01*
X018834Y002698D01*
X018834Y002718D01*
X018822Y002792D01*
X018799Y002863D01*
X018765Y002930D01*
X018721Y002991D01*
X018668Y003044D01*
X018607Y003088D01*
X018540Y003122D01*
X018469Y003145D01*
X018395Y003157D01*
X018376Y003157D01*
X018376Y002698D01*
X018339Y002698D01*
X018339Y002662D01*
X017880Y002662D01*
X017880Y002642D01*
X017892Y002568D01*
X017914Y002500D01*
X017800Y002500D01*
X017822Y002568D01*
X017834Y002642D01*
X017834Y002662D01*
X017376Y002662D01*
X017376Y002698D01*
X017834Y002698D01*
X017834Y002718D01*
X017822Y002792D01*
X017799Y002863D01*
X017765Y002930D01*
X017721Y002991D01*
X017668Y003044D01*
X017607Y003088D01*
X017540Y003122D01*
X017469Y003145D01*
X017395Y003157D01*
X017376Y003157D01*
X017376Y002698D01*
X017339Y002698D01*
X017339Y002662D01*
X016880Y002662D01*
X016880Y002642D01*
X016892Y002568D01*
X016914Y002500D01*
X016821Y002500D01*
X016854Y002581D01*
X016854Y002779D01*
X016778Y002961D01*
X016657Y003083D01*
X018473Y004900D01*
X031163Y004900D01*
X031266Y004943D01*
X031345Y005021D01*
X031387Y005124D01*
X031387Y012957D01*
X031427Y012997D01*
X031427Y013263D01*
X031387Y013303D01*
X031387Y015257D01*
X031427Y015297D01*
X031427Y015563D01*
X031282Y015708D01*
X032933Y017360D01*
X032990Y017360D01*
X033077Y017360D01*
X033037Y017407D02*
X033037Y013006D01*
X033077Y013046D02*
X032031Y012000D01*
X031975Y012000D01*
X031787Y011813D01*
X031787Y011547D01*
X031975Y011360D01*
X032240Y011360D01*
X032427Y011547D01*
X032427Y011604D01*
X033516Y012693D01*
X033595Y012771D01*
X033637Y012874D01*
X033637Y021254D01*
X033699Y021193D01*
X035827Y019064D01*
X035827Y015356D01*
X034427Y016756D01*
X034427Y016813D01*
X034240Y017000D01*
X033975Y017000D01*
X033787Y016813D01*
X033787Y016547D01*
X033935Y016400D01*
X033925Y016400D01*
X033737Y016213D01*
X033737Y015947D01*
X033777Y015907D01*
X033777Y012796D01*
X032799Y011817D01*
X032720Y011739D01*
X032677Y011636D01*
X032677Y009535D01*
X032579Y009437D01*
X032579Y009123D01*
X032801Y008902D01*
X033114Y008902D01*
X033335Y009123D01*
X033335Y009437D01*
X033237Y009535D01*
X033237Y011464D01*
X034295Y012521D01*
X034337Y012624D01*
X034337Y015907D01*
X034377Y015947D01*
X034377Y016014D01*
X036370Y014021D01*
X036449Y013943D01*
X036552Y013900D01*
X037911Y013900D01*
X037860Y013779D01*
X037860Y013581D01*
X037936Y013399D01*
X038076Y013259D01*
X038258Y013183D01*
X038456Y013183D01*
X038639Y013259D01*
X038778Y013399D01*
X038854Y013581D01*
X038854Y013779D01*
X038804Y013900D01*
X038911Y013900D01*
X038860Y013779D01*
X038860Y013581D01*
X038936Y013399D01*
X039076Y013259D01*
X039258Y013183D01*
X039456Y013183D01*
X039639Y013259D01*
X039778Y013399D01*
X039854Y013581D01*
X039854Y013779D01*
X039804Y013900D01*
X039913Y013900D01*
X040016Y013943D01*
X040095Y014021D01*
X040137Y014124D01*
X040137Y017986D01*
X040095Y018089D01*
X039845Y018339D01*
X039780Y018403D01*
X039854Y018581D01*
X039854Y018779D01*
X039778Y018961D01*
X039639Y019101D01*
X039456Y019177D01*
X039258Y019177D01*
X039076Y019101D01*
X038936Y018961D01*
X038860Y018779D01*
X038860Y018581D01*
X038911Y018460D01*
X038804Y018460D01*
X038854Y018581D01*
X038854Y018779D01*
X038778Y018961D01*
X038639Y019101D01*
X038456Y019177D01*
X038258Y019177D01*
X038076Y019101D01*
X037936Y018961D01*
X037887Y018844D01*
X037887Y019516D01*
X037936Y019399D01*
X038076Y019259D01*
X038258Y019183D01*
X038456Y019183D01*
X038639Y019259D01*
X038778Y019399D01*
X038854Y019581D01*
X038854Y019779D01*
X038848Y019793D01*
X038861Y019780D01*
X038860Y019779D01*
X038860Y019581D01*
X038936Y019399D01*
X039076Y019259D01*
X039258Y019183D01*
X039456Y019183D01*
X039639Y019259D01*
X039778Y019399D01*
X039854Y019581D01*
X039854Y019779D01*
X039778Y019961D01*
X039639Y020101D01*
X039456Y020177D01*
X039258Y020177D01*
X039257Y020176D01*
X039244Y020189D01*
X039258Y020183D01*
X039456Y020183D01*
X039639Y020259D01*
X039778Y020399D01*
X039854Y020581D01*
X039854Y020779D01*
X039778Y020961D01*
X039639Y021101D01*
X039456Y021177D01*
X039258Y021177D01*
X039076Y021101D01*
X038936Y020961D01*
X038860Y020779D01*
X038860Y020581D01*
X038911Y020460D01*
X038804Y020460D01*
X038854Y020581D01*
X038854Y020779D01*
X038778Y020961D01*
X038639Y021101D01*
X038456Y021177D01*
X038258Y021177D01*
X038076Y021101D01*
X037936Y020961D01*
X037887Y020844D01*
X037887Y021516D01*
X037936Y021399D01*
X038076Y021259D01*
X038258Y021183D01*
X038456Y021183D01*
X038639Y021259D01*
X038778Y021399D01*
X038854Y021581D01*
X038854Y021779D01*
X038778Y021961D01*
X038639Y022101D01*
X038456Y022177D01*
X038258Y022177D01*
X038076Y022101D01*
X037936Y021961D01*
X037887Y021844D01*
X037887Y022447D01*
X037975Y022360D01*
X038240Y022360D01*
X038427Y022547D01*
X038427Y022604D01*
X040016Y024193D01*
X040095Y024271D01*
X040137Y024374D01*
X040137Y029236D01*
X040095Y029339D01*
X039857Y029576D01*
X039857Y029887D01*
X039564Y030180D01*
X039857Y030473D01*
X039857Y030887D01*
X039564Y031180D01*
X039253Y031180D01*
X039095Y031339D01*
X039016Y031417D01*
X038913Y031460D01*
X035802Y031460D01*
X035699Y031417D01*
X035620Y031339D01*
X035577Y031236D01*
X035577Y031075D01*
X035453Y030950D01*
X035380Y030775D01*
X035380Y030585D01*
X035453Y030410D01*
X035582Y030280D01*
X035436Y030280D01*
X035337Y030379D01*
X035337Y031402D01*
X035407Y031571D01*
X035407Y031789D01*
X035324Y031992D01*
X035169Y032146D01*
X034967Y032230D01*
X034748Y032230D01*
X034546Y032146D01*
X034391Y031992D01*
X034357Y031910D01*
X034324Y031992D01*
X034169Y032146D01*
X033967Y032230D01*
X033748Y032230D01*
X033546Y032146D01*
X033391Y031992D01*
X033357Y031910D01*
X033324Y031992D01*
X033169Y032146D01*
X032967Y032230D01*
X032748Y032230D01*
X032546Y032146D01*
X032391Y031992D01*
X032357Y031910D01*
X032324Y031992D01*
X032169Y032146D01*
X031967Y032230D01*
X031748Y032230D01*
X031546Y032146D01*
X031391Y031992D01*
X031307Y031789D01*
X031307Y031571D01*
X031377Y031402D01*
X031377Y030379D01*
X031278Y030280D01*
X031079Y030280D01*
X031097Y030289D01*
X031155Y030331D01*
X031206Y030382D01*
X031248Y030440D01*
X031281Y030505D01*
X031303Y030573D01*
X031314Y030644D01*
X031314Y030671D01*
X030866Y030671D01*
X030866Y030689D01*
X030849Y030689D01*
X030849Y031137D01*
X030821Y031137D01*
X030750Y031126D01*
X030682Y031104D01*
X030618Y031071D01*
X030559Y031029D01*
X030509Y030978D01*
X030466Y030920D01*
X030434Y030855D01*
X030411Y030787D01*
X030400Y030716D01*
X030400Y030689D01*
X030849Y030689D01*
X030849Y030671D01*
X030400Y030671D01*
X030400Y030644D01*
X030411Y030573D01*
X030434Y030505D01*
X030466Y030440D01*
X030509Y030382D01*
X030559Y030331D01*
X030618Y030289D01*
X030682Y030256D01*
X030750Y030234D01*
X030818Y030223D01*
X030757Y030163D01*
X030757Y029197D01*
X030874Y029080D01*
X031840Y029080D01*
X031957Y029197D01*
X031957Y029601D01*
X032129Y029773D01*
X032135Y029779D01*
X032135Y029561D01*
X032227Y029340D01*
X032357Y029210D01*
X032302Y029210D01*
X032199Y029167D01*
X032120Y029089D01*
X029120Y026089D01*
X029077Y025986D01*
X029077Y022102D01*
X029076Y022101D01*
X028936Y021961D01*
X028860Y021779D01*
X028860Y021581D01*
X028936Y021399D01*
X029076Y021259D01*
X029258Y021183D01*
X029456Y021183D01*
X029639Y021259D01*
X029778Y021399D01*
X029854Y021581D01*
X029854Y021779D01*
X029778Y021961D01*
X029639Y022101D01*
X029637Y022102D01*
X029637Y025255D01*
X029762Y025203D01*
X029952Y025203D01*
X030119Y025272D01*
X033227Y022164D01*
X033076Y022101D01*
X032936Y021961D01*
X032860Y021779D01*
X032860Y021581D01*
X032936Y021399D01*
X033076Y021259D01*
X033077Y021258D01*
X033077Y017913D01*
X032990Y018000D01*
X032725Y018000D01*
X032537Y017813D01*
X032537Y017756D01*
X030370Y015589D01*
X030327Y015486D01*
X030327Y013296D01*
X029781Y012750D01*
X029725Y012750D01*
X029637Y012663D01*
X029637Y014257D01*
X029677Y014297D01*
X029677Y014563D01*
X029490Y014750D01*
X029323Y014750D01*
X030433Y015860D01*
X030490Y015860D01*
X030677Y016047D01*
X030677Y016104D01*
X032516Y017943D01*
X032595Y018021D01*
X032637Y018124D01*
X032637Y021258D01*
X032639Y021259D01*
X032778Y021399D01*
X032854Y021581D01*
X032854Y021779D01*
X032778Y021961D01*
X032639Y022101D01*
X032456Y022177D01*
X032258Y022177D01*
X032076Y022101D01*
X031936Y021961D01*
X031860Y021779D01*
X031860Y021581D01*
X031936Y021399D01*
X032076Y021259D01*
X032077Y021258D01*
X032077Y019913D01*
X031990Y020000D01*
X031725Y020000D01*
X031537Y019813D01*
X031537Y019756D01*
X029531Y017750D01*
X029475Y017750D01*
X029287Y017563D01*
X029287Y017297D01*
X029475Y017110D01*
X029740Y017110D01*
X029927Y017297D01*
X029927Y017354D01*
X031933Y019360D01*
X031990Y019360D01*
X032077Y019447D01*
X032077Y018296D01*
X030281Y016500D01*
X030225Y016500D01*
X030037Y016313D01*
X030037Y016256D01*
X028887Y015106D01*
X028887Y018007D01*
X028927Y018047D01*
X028927Y018313D01*
X028740Y018500D01*
X028475Y018500D01*
X028287Y018313D01*
X028287Y018047D01*
X028327Y018007D01*
X028327Y013046D01*
X028281Y013000D01*
X028225Y013000D01*
X028037Y012813D01*
X028037Y012547D01*
X028225Y012360D01*
X028335Y012360D01*
X028287Y012313D01*
X028287Y012047D01*
X028475Y011860D01*
X028740Y011860D01*
X028927Y012047D01*
X028927Y012104D01*
X029016Y012193D01*
X029095Y012271D01*
X029107Y012302D01*
X029120Y012271D01*
X029199Y012193D01*
X029537Y011854D01*
X029537Y011797D01*
X029625Y011710D01*
X024637Y011710D01*
X024637Y021258D01*
X024639Y021259D01*
X024778Y021399D01*
X024854Y021581D01*
X024854Y021779D01*
X024804Y021900D01*
X024911Y021900D01*
X024860Y021779D01*
X024860Y021581D01*
X024936Y021399D01*
X025076Y021259D01*
X025258Y021183D01*
X025456Y021183D01*
X025639Y021259D01*
X025778Y021399D01*
X025854Y021581D01*
X025854Y021779D01*
X025804Y021900D01*
X025911Y021900D01*
X025860Y021779D01*
X025860Y021581D01*
X025936Y021399D01*
X026076Y021259D01*
X026258Y021183D01*
X026456Y021183D01*
X026594Y021240D01*
X026725Y021110D01*
X026990Y021110D01*
X027177Y021297D01*
X027177Y021563D01*
X027137Y021603D01*
X027137Y024564D01*
X027776Y025203D01*
X027952Y025203D01*
X028128Y025275D01*
X028262Y025410D01*
X028334Y025585D01*
X028334Y025775D01*
X028262Y025950D01*
X028128Y026085D01*
X027952Y026157D01*
X027762Y026157D01*
X027628Y026101D01*
X027637Y026124D01*
X027637Y030279D01*
X027682Y030256D01*
X027750Y030234D01*
X027821Y030223D01*
X027849Y030223D01*
X027849Y030671D01*
X027866Y030671D01*
X027866Y030223D01*
X027893Y030223D01*
X027964Y030234D01*
X028033Y030256D01*
X028097Y030289D01*
X028155Y030331D01*
X028206Y030382D01*
X028248Y030440D01*
X028281Y030505D01*
X028303Y030573D01*
X028314Y030644D01*
X028314Y030671D01*
X027866Y030671D01*
X027866Y030689D01*
X027849Y030689D01*
X027849Y031137D01*
X027821Y031137D01*
X027750Y031126D01*
X027682Y031104D01*
X027672Y031099D01*
X027933Y031360D01*
X027990Y031360D01*
X028177Y031547D01*
X028177Y031813D01*
X027990Y032000D01*
X027725Y032000D01*
X027537Y031813D01*
X027537Y031756D01*
X027199Y031417D01*
X027120Y031339D01*
X027107Y031308D01*
X027095Y031339D01*
X027016Y031417D01*
X026913Y031460D01*
X026361Y031460D01*
X026407Y031571D01*
X026407Y031789D01*
X026324Y031992D01*
X026169Y032146D01*
X025967Y032230D01*
X025748Y032230D01*
X025546Y032146D01*
X025391Y031992D01*
X025357Y031910D01*
X025324Y031992D01*
X025169Y032146D01*
X024967Y032230D01*
X024748Y032230D01*
X024546Y032146D01*
X024391Y031992D01*
X024357Y031910D01*
X024324Y031992D01*
X024169Y032146D01*
X023967Y032230D01*
X023748Y032230D01*
X023546Y032146D01*
X023391Y031992D01*
X023357Y031910D01*
X023324Y031992D01*
X023169Y032146D01*
X022967Y032230D01*
X022748Y032230D01*
X022546Y032146D01*
X022391Y031992D01*
X022307Y031789D01*
X022307Y031571D01*
X022353Y031460D01*
X018302Y031460D01*
X018199Y031417D01*
X018120Y031339D01*
X017938Y031157D01*
X017762Y031157D01*
X017587Y031085D01*
X017453Y030950D01*
X017380Y030775D01*
X017380Y030585D01*
X017453Y030410D01*
X017582Y030280D01*
X017436Y030280D01*
X017337Y030379D01*
X017337Y030775D01*
X017264Y030952D01*
X017129Y031087D01*
X016996Y031142D01*
X017169Y031214D01*
X017324Y031368D01*
X017407Y031571D01*
X017407Y031789D01*
X017324Y031992D01*
X017169Y032146D01*
X016967Y032230D01*
X016748Y032230D01*
X016546Y032146D01*
X016391Y031992D01*
X016357Y031910D01*
X016324Y031992D01*
X016169Y032146D01*
X015967Y032230D01*
X015748Y032230D01*
X015546Y032146D01*
X015391Y031992D01*
X015357Y031910D01*
X015324Y031992D01*
X015169Y032146D01*
X014967Y032230D01*
X014748Y032230D01*
X014546Y032146D01*
X014391Y031992D01*
X014357Y031910D01*
X014324Y031992D01*
X014169Y032146D01*
X013967Y032230D01*
X013748Y032230D01*
X013546Y032146D01*
X013391Y031992D01*
X013307Y031789D01*
X013307Y031571D01*
X013391Y031368D01*
X013546Y031214D01*
X013719Y031142D01*
X013585Y031087D01*
X013450Y030952D01*
X013377Y030775D01*
X013377Y030379D01*
X013278Y030280D01*
X013079Y030280D01*
X013097Y030289D01*
X013155Y030331D01*
X013206Y030382D01*
X013248Y030440D01*
X013281Y030505D01*
X013303Y030573D01*
X013314Y030644D01*
X013314Y030671D01*
X012866Y030671D01*
X012866Y030271D01*
X012849Y030254D01*
X012849Y030671D01*
X012866Y030671D01*
X012866Y030689D01*
X012849Y030689D01*
X012849Y031137D01*
X012821Y031137D01*
X012750Y031126D01*
X012682Y031104D01*
X012618Y031071D01*
X012606Y031062D01*
X012595Y031089D01*
X011345Y032339D01*
X011266Y032417D01*
X011163Y032460D01*
X008802Y032460D01*
X008699Y032417D01*
X008620Y032339D01*
X008577Y032236D01*
X008577Y032105D01*
X008574Y032104D01*
X008433Y031963D01*
X008357Y031779D01*
X008357Y031581D01*
X008433Y031397D01*
X008574Y031256D01*
X008758Y031180D01*
X008574Y031104D01*
X008433Y030963D01*
X008357Y030779D01*
X008357Y030581D01*
X008433Y030397D01*
X008574Y030256D01*
X008577Y030255D01*
X008577Y023010D01*
X008450Y023137D01*
X008036Y023137D01*
X007743Y022844D01*
X007743Y022430D01*
X008036Y022137D01*
X008450Y022137D01*
X008036Y022137D01*
X007743Y021844D01*
X007450Y022137D01*
X007036Y022137D01*
X006743Y021844D01*
X006743Y021430D01*
X007036Y021137D01*
X007450Y021137D01*
X007743Y021430D01*
X007743Y021844D01*
X007743Y021430D01*
X008036Y021137D01*
X008450Y021137D01*
X008036Y021137D01*
X007743Y020844D01*
X007450Y021137D01*
X007036Y021137D01*
X006743Y020844D01*
X006743Y020430D01*
X007036Y020137D01*
X007450Y020137D01*
X007743Y020430D01*
X007743Y020844D01*
X007743Y020430D01*
X008036Y020137D01*
X008450Y020137D01*
X008743Y020430D01*
X008743Y020844D01*
X008450Y021137D01*
X008577Y021264D01*
X008577Y021124D01*
X008620Y021021D01*
X008699Y020943D01*
X008802Y020900D01*
X015163Y020900D01*
X015266Y020943D01*
X015345Y021021D01*
X015551Y021228D01*
X015658Y021183D01*
X015856Y021183D01*
X016039Y021259D01*
X016178Y021399D01*
X016254Y021581D01*
X016254Y021637D01*
X016260Y021631D01*
X016260Y021581D01*
X016336Y021399D01*
X016476Y021259D01*
X016658Y021183D01*
X016856Y021183D01*
X017039Y021259D01*
X017178Y021399D01*
X017254Y021581D01*
X017254Y021779D01*
X017178Y021961D01*
X017039Y022101D01*
X016856Y022177D01*
X016658Y022177D01*
X016551Y022132D01*
X013637Y025046D01*
X013637Y025255D01*
X013762Y025203D01*
X013952Y025203D01*
X014128Y025275D01*
X014262Y025410D01*
X014334Y025585D01*
X014334Y025775D01*
X014262Y025950D01*
X014128Y026085D01*
X013952Y026157D01*
X013762Y026157D01*
X013637Y026105D01*
X013637Y028736D01*
X013595Y028839D01*
X013353Y029080D01*
X013840Y029080D01*
X013957Y029197D01*
X013957Y029601D01*
X014135Y029779D01*
X014135Y029561D01*
X014227Y029340D01*
X014395Y029171D01*
X014616Y029080D01*
X014855Y029080D01*
X015075Y029171D01*
X015244Y029340D01*
X015335Y029561D01*
X015335Y029799D01*
X015244Y030020D01*
X015075Y030189D01*
X014997Y030221D01*
X015128Y030275D01*
X015262Y030410D01*
X015334Y030585D01*
X015334Y030775D01*
X015262Y030950D01*
X015128Y031085D01*
X014992Y031141D01*
X015169Y031214D01*
X015324Y031368D01*
X015357Y031450D01*
X015391Y031368D01*
X015546Y031214D01*
X015722Y031141D01*
X015587Y031085D01*
X015453Y030950D01*
X015380Y030775D01*
X015380Y030585D01*
X015453Y030410D01*
X015587Y030275D01*
X015762Y030203D01*
X015808Y030203D01*
X015773Y030189D01*
X015605Y030020D01*
X015513Y029799D01*
X015513Y029561D01*
X015605Y029340D01*
X015773Y029171D01*
X015994Y029080D01*
X016233Y029080D01*
X016453Y029171D01*
X016622Y029340D01*
X016713Y029561D01*
X016713Y029645D01*
X016957Y029401D01*
X016982Y029340D01*
X017151Y029171D01*
X017372Y029080D01*
X017610Y029080D01*
X017831Y029171D01*
X018000Y029340D01*
X018091Y029561D01*
X018091Y029799D01*
X018000Y030020D01*
X017831Y030189D01*
X017797Y030203D01*
X017952Y030203D01*
X018128Y030275D01*
X018262Y030410D01*
X018334Y030585D01*
X018334Y030761D01*
X018439Y030865D01*
X018434Y030855D01*
X018411Y030787D01*
X018400Y030716D01*
X018400Y030689D01*
X018849Y030689D01*
X018849Y030900D01*
X018866Y030900D01*
X018866Y030689D01*
X018849Y030689D01*
X018849Y030671D01*
X018866Y030671D01*
X018866Y030223D01*
X018893Y030223D01*
X018964Y030234D01*
X019033Y030256D01*
X019097Y030289D01*
X019155Y030331D01*
X019206Y030382D01*
X019248Y030440D01*
X019281Y030505D01*
X019303Y030573D01*
X019314Y030644D01*
X019314Y030671D01*
X018866Y030671D01*
X018866Y030689D01*
X019314Y030689D01*
X019314Y030716D01*
X019303Y030787D01*
X019281Y030855D01*
X019258Y030900D01*
X020432Y030900D01*
X020380Y030775D01*
X020380Y030585D01*
X020453Y030410D01*
X020587Y030275D01*
X020762Y030203D01*
X020952Y030203D01*
X021128Y030275D01*
X021262Y030410D01*
X021334Y030585D01*
X021334Y030775D01*
X021283Y030900D01*
X021456Y030900D01*
X021434Y030855D01*
X021411Y030787D01*
X021400Y030716D01*
X021400Y030689D01*
X021849Y030689D01*
X021849Y030671D01*
X021400Y030671D01*
X021400Y030644D01*
X021411Y030573D01*
X021434Y030505D01*
X021466Y030440D01*
X021509Y030382D01*
X021559Y030331D01*
X021618Y030289D01*
X021682Y030256D01*
X021750Y030234D01*
X021818Y030223D01*
X021757Y030163D01*
X021757Y029197D01*
X021874Y029080D01*
X022840Y029080D01*
X022957Y029197D01*
X022957Y029601D01*
X023129Y029773D01*
X023135Y029779D01*
X023135Y029561D01*
X023227Y029340D01*
X023395Y029171D01*
X023616Y029080D01*
X023855Y029080D01*
X024075Y029171D01*
X024244Y029340D01*
X024335Y029561D01*
X024335Y029799D01*
X024244Y030020D01*
X024075Y030189D01*
X023997Y030221D01*
X024128Y030275D01*
X024262Y030410D01*
X024334Y030585D01*
X024334Y030775D01*
X024283Y030900D01*
X024429Y030900D01*
X024377Y030775D01*
X024377Y029835D01*
X024450Y029658D01*
X024513Y029595D01*
X024513Y029561D01*
X024605Y029340D01*
X024773Y029171D01*
X024994Y029080D01*
X025233Y029080D01*
X025453Y029171D01*
X025622Y029340D01*
X025713Y029561D01*
X025713Y029645D01*
X025950Y029408D01*
X025957Y029401D01*
X025982Y029340D01*
X026151Y029171D01*
X026372Y029080D01*
X026610Y029080D01*
X026831Y029171D01*
X027000Y029340D01*
X027077Y029527D01*
X027077Y028710D01*
X020802Y028710D01*
X020699Y028667D01*
X020620Y028589D01*
X018137Y026106D01*
X018137Y027314D01*
X019433Y028610D01*
X019490Y028610D01*
X019677Y028797D01*
X019677Y029063D01*
X019490Y029250D01*
X019225Y029250D01*
X019037Y029063D01*
X019037Y029006D01*
X017699Y027667D01*
X017620Y027589D01*
X017577Y027486D01*
X017577Y026106D01*
X017516Y026167D01*
X016427Y027256D01*
X016427Y027313D01*
X016240Y027500D01*
X015975Y027500D01*
X015787Y027313D01*
X015787Y027047D01*
X015975Y026860D01*
X016031Y026860D01*
X016742Y026149D01*
X016587Y026085D01*
X016453Y025950D01*
X016380Y025775D01*
X016380Y025585D01*
X016453Y025410D01*
X016587Y025275D01*
X016762Y025203D01*
X016952Y025203D01*
X017077Y025255D01*
X017077Y022874D01*
X017120Y022771D01*
X017714Y022177D01*
X017658Y022177D01*
X017476Y022101D01*
X017336Y021961D01*
X017260Y021779D01*
X017260Y021581D01*
X017336Y021399D01*
X017476Y021259D01*
X017658Y021183D01*
X017856Y021183D01*
X018039Y021259D01*
X018077Y021297D01*
X018077Y020624D01*
X018120Y020521D01*
X018199Y020443D01*
X018302Y020400D01*
X023913Y020400D01*
X024016Y020443D01*
X024077Y020504D01*
X024077Y011374D01*
X024077Y011210D01*
X024120Y011271D02*
X024181Y011210D01*
X022052Y011210D01*
X021949Y011167D01*
X021870Y011089D01*
X021827Y010986D01*
X021827Y006413D01*
X021740Y006500D01*
X021683Y006500D01*
X008845Y019339D01*
X008766Y019417D01*
X008741Y019428D01*
X008743Y019430D01*
X008743Y019844D01*
X008450Y020137D01*
X008036Y020137D01*
X007743Y019844D01*
X007450Y020137D01*
X007036Y020137D01*
X006743Y019844D01*
X006743Y019430D01*
X007036Y019137D01*
X007077Y019137D01*
X007077Y019137D01*
X007036Y019137D01*
X006743Y018844D01*
X006743Y018430D01*
X007036Y018137D01*
X007077Y018137D01*
X007077Y018137D01*
X007036Y018137D01*
X006743Y017844D01*
X006743Y017430D01*
X007036Y017137D01*
X007450Y017137D01*
X007036Y017137D01*
X006743Y016844D01*
X006743Y016430D01*
X007036Y016137D01*
X007077Y016137D01*
X007077Y016137D01*
X007036Y016137D01*
X006743Y015844D01*
X006743Y015760D02*
X006637Y015760D01*
X006637Y016080D02*
X006979Y016080D01*
X007357Y016180D02*
X007357Y015680D01*
X007243Y015637D01*
X007357Y016180D02*
X008607Y016180D01*
X008857Y016430D01*
X008857Y016930D01*
X009037Y017203D02*
X009037Y017854D01*
X008991Y017900D02*
X008687Y017900D01*
X008743Y017844D01*
X008743Y017430D01*
X008450Y017137D01*
X008036Y017137D01*
X008450Y017137D01*
X008537Y017050D01*
X008537Y017063D01*
X008725Y017250D01*
X008990Y017250D01*
X009177Y017063D01*
X009177Y016797D01*
X009137Y016757D01*
X009137Y016374D01*
X009095Y016271D01*
X008845Y016021D01*
X008845Y016021D01*
X008766Y015943D01*
X008680Y015907D01*
X008743Y015844D01*
X008743Y015460D01*
X009185Y015460D01*
X009225Y015500D01*
X009490Y015500D01*
X009677Y015313D01*
X009677Y015146D01*
X010037Y015506D01*
X010037Y015563D01*
X010225Y015750D01*
X010490Y015750D01*
X010577Y015663D01*
X010577Y015757D01*
X010537Y015797D01*
X010537Y016063D01*
X010683Y016208D01*
X008991Y017900D01*
X008717Y017900D02*
X008717Y017870D01*
X008743Y017680D02*
X009211Y017680D01*
X009357Y017534D02*
X009357Y015500D01*
X009550Y015440D02*
X009971Y015440D01*
X009997Y015466D02*
X009997Y016894D01*
X009851Y017040D02*
X009177Y017040D01*
X009137Y016720D02*
X010171Y016720D01*
X010317Y016574D02*
X010317Y015750D01*
X010575Y015760D02*
X008743Y015760D01*
X008717Y015870D02*
X008717Y015922D01*
X008903Y016080D02*
X010555Y016080D01*
X010637Y016163D02*
X010637Y016254D01*
X010491Y016400D02*
X009137Y016400D01*
X009037Y016214D02*
X009037Y015460D01*
X009357Y015180D02*
X006607Y015180D01*
X006607Y013180D01*
X007107Y012680D01*
X007243Y012637D01*
X006933Y012240D02*
X006637Y012240D01*
X006797Y012375D02*
X006797Y011898D01*
X006819Y011920D02*
X006637Y011920D01*
X006637Y011600D02*
X006743Y011600D01*
X006797Y011375D02*
X006797Y010898D01*
X006859Y010960D02*
X006637Y010960D01*
X006637Y010640D02*
X006743Y010640D01*
X006797Y010375D02*
X006797Y009898D01*
X006899Y010000D02*
X006637Y010000D01*
X006637Y009680D02*
X006743Y009680D01*
X006797Y009375D02*
X006797Y008898D01*
X006743Y008720D02*
X006637Y008720D01*
X006637Y009040D02*
X006939Y009040D01*
X006813Y009360D02*
X006637Y009360D01*
X007357Y009180D02*
X007357Y008680D01*
X007243Y008637D01*
X007743Y008720D02*
X007743Y008720D01*
X007743Y008844D02*
X007743Y008430D01*
X008036Y008137D01*
X008450Y008137D01*
X008036Y008137D01*
X007743Y007844D01*
X007450Y008137D01*
X007743Y008430D01*
X007743Y008844D01*
X007687Y008900D01*
X007799Y008900D01*
X007743Y008844D01*
X007757Y008858D02*
X007757Y008900D01*
X007757Y008415D02*
X007757Y007858D01*
X007743Y007844D02*
X007743Y007460D01*
X007743Y007844D01*
X007743Y007760D02*
X007743Y007760D01*
X007743Y007460D02*
X007743Y007460D01*
X007357Y007180D02*
X007357Y006680D01*
X007243Y006637D01*
X007687Y006900D02*
X007799Y006900D01*
X007743Y006844D01*
X007687Y006900D01*
X007757Y006900D02*
X007757Y006858D01*
X007743Y006844D02*
X007743Y006430D01*
X007743Y006844D01*
X007743Y006800D02*
X007743Y006800D01*
X007743Y006480D02*
X007743Y006480D01*
X007757Y006415D02*
X007757Y005858D01*
X007743Y005844D02*
X007743Y005460D01*
X007743Y005844D01*
X007743Y005840D02*
X007743Y005840D01*
X007743Y005520D02*
X007743Y005520D01*
X007743Y005460D02*
X007743Y005460D01*
X008243Y005637D02*
X008357Y005430D01*
X021857Y005430D01*
X022357Y005930D01*
X022357Y007180D01*
X025107Y007180D01*
X025357Y007383D02*
X025357Y010650D01*
X025037Y010650D02*
X025037Y007500D01*
X024975Y007500D02*
X024935Y007460D01*
X022387Y007460D01*
X022387Y010650D01*
X028185Y010650D01*
X028225Y010610D01*
X028490Y010610D01*
X028677Y010797D01*
X028677Y011063D01*
X028590Y011150D01*
X029479Y011150D01*
X029479Y010923D01*
X029577Y010825D01*
X029577Y009535D01*
X029479Y009437D01*
X029479Y009123D01*
X029701Y008902D01*
X030014Y008902D01*
X030235Y009123D01*
X030235Y009437D01*
X030137Y009535D01*
X030137Y010825D01*
X030235Y010923D01*
X030235Y011150D01*
X030535Y011150D01*
X030575Y011110D01*
X030827Y011110D01*
X030827Y005460D01*
X024533Y005460D01*
X024595Y005521D01*
X028983Y009910D01*
X029040Y009910D01*
X029227Y010097D01*
X029227Y010363D01*
X029040Y010550D01*
X028775Y010550D01*
X028587Y010363D01*
X028587Y010306D01*
X025427Y007146D01*
X025427Y007313D01*
X025240Y007500D01*
X024975Y007500D01*
X024717Y007460D02*
X024717Y010650D01*
X024397Y010650D02*
X024397Y007460D01*
X024077Y007460D02*
X024077Y010650D01*
X023757Y010650D02*
X023757Y007460D01*
X023437Y007460D02*
X023437Y010650D01*
X023117Y010650D02*
X023117Y007460D01*
X022797Y007460D02*
X022797Y010650D01*
X022477Y010650D02*
X022477Y007460D01*
X022387Y007760D02*
X026041Y007760D01*
X025997Y007716D02*
X025997Y010650D01*
X025677Y010650D02*
X025677Y007396D01*
X025721Y007440D02*
X025300Y007440D01*
X025873Y006800D02*
X030827Y006800D01*
X030827Y006480D02*
X025553Y006480D01*
X025677Y006604D02*
X025677Y005460D01*
X025357Y005460D02*
X025357Y006284D01*
X025233Y006160D02*
X030827Y006160D01*
X030827Y005840D02*
X024913Y005840D01*
X025037Y005964D02*
X025037Y005460D01*
X024717Y005460D02*
X024717Y005644D01*
X024593Y005520D02*
X030827Y005520D01*
X030797Y005460D02*
X030797Y011110D01*
X030827Y010960D02*
X030235Y010960D01*
X030157Y010845D02*
X030157Y009515D01*
X030137Y009680D02*
X030827Y009680D01*
X030827Y009360D02*
X030235Y009360D01*
X030157Y009045D02*
X030157Y005460D01*
X029837Y005460D02*
X029837Y008902D01*
X029563Y009040D02*
X028113Y009040D01*
X028237Y009164D02*
X028237Y005460D01*
X027917Y005460D02*
X027917Y008844D01*
X027793Y008720D02*
X030827Y008720D01*
X030827Y008400D02*
X027473Y008400D01*
X027597Y008524D02*
X027597Y005460D01*
X027277Y005460D02*
X027277Y008204D01*
X027153Y008080D02*
X030827Y008080D01*
X030827Y007760D02*
X026833Y007760D01*
X026957Y007884D02*
X026957Y005460D01*
X026637Y005460D02*
X026637Y007564D01*
X026513Y007440D02*
X030827Y007440D01*
X030827Y007120D02*
X026193Y007120D01*
X026317Y007244D02*
X026317Y005460D01*
X025997Y005460D02*
X025997Y006924D01*
X026317Y008036D02*
X026317Y010650D01*
X026637Y010650D02*
X026637Y008356D01*
X026681Y008400D02*
X022387Y008400D01*
X022387Y008080D02*
X026361Y008080D01*
X026957Y008676D02*
X026957Y010650D01*
X027277Y010650D02*
X027277Y008996D01*
X027321Y009040D02*
X022387Y009040D01*
X022387Y008720D02*
X027001Y008720D01*
X027597Y009316D02*
X027597Y010650D01*
X027917Y010650D02*
X027917Y009636D01*
X027961Y009680D02*
X022387Y009680D01*
X022387Y009360D02*
X027641Y009360D01*
X028433Y009360D02*
X029479Y009360D01*
X029517Y009475D02*
X029517Y010885D01*
X029479Y010960D02*
X028677Y010960D01*
X028877Y011150D02*
X028877Y010550D01*
X028907Y010230D02*
X024357Y005680D01*
X022607Y005680D01*
X022107Y006180D02*
X021607Y005680D01*
X009857Y005680D01*
X009857Y007930D01*
X009357Y008430D01*
X008357Y008430D01*
X008243Y008637D01*
X007773Y008400D02*
X007714Y008400D01*
X007507Y008080D02*
X007979Y008080D01*
X008077Y008137D02*
X008077Y008137D01*
X008397Y008137D02*
X008397Y008137D01*
X008450Y008137D02*
X008743Y007844D01*
X008743Y007712D01*
X009037Y008006D01*
X009037Y008063D01*
X009037Y008150D01*
X009055Y008080D02*
X008507Y008080D01*
X008450Y008137D02*
X008464Y008150D01*
X009125Y008150D01*
X009037Y008063D01*
X008717Y008150D02*
X008717Y007870D01*
X008743Y007760D02*
X008791Y007760D01*
X009263Y007440D02*
X009577Y007440D01*
X009490Y007610D02*
X009577Y007697D01*
X009577Y005710D01*
X008743Y005710D01*
X008743Y005844D01*
X008450Y006137D01*
X008743Y006430D01*
X008743Y006844D01*
X008680Y006907D01*
X008766Y006943D01*
X008845Y007021D01*
X009433Y007610D01*
X009490Y007610D01*
X009357Y007534D02*
X009357Y005710D01*
X009577Y005840D02*
X008743Y005840D01*
X008717Y005870D02*
X008717Y006404D01*
X008743Y006480D02*
X009577Y006480D01*
X009577Y006160D02*
X008474Y006160D01*
X008397Y006137D02*
X008397Y006137D01*
X008077Y006137D02*
X008077Y006137D01*
X008013Y006160D02*
X007474Y006160D01*
X007437Y006137D02*
X007437Y006137D01*
X007117Y006137D02*
X007117Y006137D01*
X007013Y006160D02*
X006637Y006160D01*
X006357Y005180D02*
X011857Y005180D01*
X014357Y002680D01*
X013894Y002500D02*
X007990Y002500D01*
X007353Y003137D01*
X007450Y003137D01*
X007743Y003430D01*
X008036Y003137D01*
X008450Y003137D01*
X008743Y003430D01*
X008743Y003844D01*
X008450Y004137D01*
X008743Y004430D01*
X008743Y004844D01*
X008687Y004900D01*
X011741Y004900D01*
X013861Y002780D01*
X013860Y002779D01*
X013860Y002581D01*
X013894Y002500D01*
X013837Y002500D02*
X013837Y002804D01*
X013860Y002640D02*
X007850Y002640D01*
X007757Y002733D02*
X007757Y003415D01*
X007743Y003430D02*
X007743Y003844D01*
X007743Y003430D01*
X007743Y003600D02*
X007743Y003600D01*
X007757Y003858D02*
X007757Y004415D01*
X007743Y004430D02*
X007743Y004844D01*
X007687Y004900D01*
X007799Y004900D01*
X007743Y004844D01*
X007743Y004430D01*
X007743Y004560D02*
X007743Y004560D01*
X007757Y004858D02*
X007757Y004900D01*
X007779Y004880D02*
X007707Y004880D01*
X007554Y004240D02*
X007933Y004240D01*
X008077Y004137D02*
X008077Y004137D01*
X008397Y004137D02*
X008397Y004137D01*
X008554Y004240D02*
X012401Y004240D01*
X012557Y004084D02*
X012557Y002500D01*
X012237Y002500D02*
X012237Y004404D01*
X012081Y004560D02*
X008743Y004560D01*
X008717Y004404D02*
X008717Y003870D01*
X008667Y003920D02*
X012721Y003920D01*
X012877Y003764D02*
X012877Y002500D01*
X013197Y002500D02*
X013197Y003444D01*
X013041Y003600D02*
X008743Y003600D01*
X008717Y003404D02*
X008717Y002500D01*
X008397Y002500D02*
X008397Y003137D01*
X008594Y003280D02*
X013361Y003280D01*
X013517Y003124D02*
X013517Y002500D01*
X013681Y002960D02*
X007530Y002960D01*
X007437Y003053D02*
X007437Y003137D01*
X007594Y003280D02*
X007893Y003280D01*
X008077Y003137D02*
X008077Y002500D01*
X007117Y002467D02*
X007117Y001960D01*
X009037Y002500D02*
X009037Y004900D01*
X008717Y004900D02*
X008717Y004870D01*
X008707Y004880D02*
X011761Y004880D01*
X011597Y004900D02*
X011597Y002500D01*
X011277Y002500D02*
X011277Y004900D01*
X010957Y004900D02*
X010957Y002500D01*
X010637Y002500D02*
X010637Y004900D01*
X010317Y004900D02*
X010317Y002500D01*
X009997Y002500D02*
X009997Y004900D01*
X009677Y004900D02*
X009677Y002500D01*
X009357Y002500D02*
X009357Y004900D01*
X009037Y005710D02*
X009037Y007214D01*
X008943Y007120D02*
X009577Y007120D01*
X009577Y006800D02*
X008743Y006800D01*
X008717Y006870D02*
X008717Y006922D01*
X008607Y007180D02*
X007357Y007180D01*
X007019Y007120D02*
X006637Y007120D01*
X006077Y007440D02*
X003050Y007440D01*
X002957Y007533D02*
X002957Y023341D01*
X002637Y023381D02*
X002637Y017603D01*
X002560Y017680D02*
X004155Y017680D01*
X004176Y017701D02*
X004176Y017701D01*
X004237Y017750D02*
X004237Y023450D01*
X003917Y023450D02*
X003917Y006573D01*
X005197Y005293D02*
X005197Y016360D01*
X004880Y017360D02*
X006077Y017360D01*
X006077Y017680D02*
X004560Y017680D01*
X004557Y017683D02*
X004557Y023450D01*
X004877Y023450D02*
X004877Y017363D01*
X004086Y017611D02*
X004086Y017611D01*
X004037Y017360D02*
X002677Y017360D01*
X002317Y017750D02*
X002317Y023629D01*
X002263Y023760D02*
X002177Y023760D01*
X002177Y023440D02*
X002498Y023440D01*
X002177Y023120D02*
X006077Y023120D01*
X006077Y022800D02*
X002177Y022800D01*
X002177Y022480D02*
X006077Y022480D01*
X006077Y022160D02*
X002177Y022160D01*
X002177Y021840D02*
X006077Y021840D01*
X006077Y021520D02*
X002177Y021520D01*
X002177Y021200D02*
X006077Y021200D01*
X006077Y020880D02*
X002177Y020880D01*
X002177Y020560D02*
X006077Y020560D01*
X006077Y020240D02*
X002177Y020240D01*
X002177Y019920D02*
X006077Y019920D01*
X006077Y019600D02*
X002177Y019600D01*
X002177Y019280D02*
X006077Y019280D01*
X006077Y018960D02*
X002177Y018960D01*
X002177Y018640D02*
X006077Y018640D01*
X006077Y018320D02*
X002177Y018320D01*
X002177Y018000D02*
X006077Y018000D01*
X006637Y018000D02*
X006899Y018000D01*
X006797Y017898D02*
X006797Y018375D01*
X006853Y018320D02*
X006637Y018320D01*
X006637Y018640D02*
X006743Y018640D01*
X006797Y018898D02*
X006797Y019375D01*
X006893Y019280D02*
X006637Y019280D01*
X006637Y018960D02*
X006859Y018960D01*
X007243Y018637D02*
X007357Y018430D01*
X007357Y018180D01*
X009107Y018180D01*
X017857Y009430D01*
X017677Y009157D02*
X017677Y006506D01*
X017760Y006480D02*
X020911Y006480D01*
X020877Y006514D02*
X020877Y005960D01*
X020557Y005960D02*
X020557Y006834D01*
X020591Y006800D02*
X017383Y006800D01*
X017357Y006826D02*
X017357Y009534D01*
X017211Y009680D02*
X014485Y009680D01*
X014477Y009683D02*
X014477Y012414D01*
X014331Y012560D02*
X008743Y012560D01*
X008717Y012404D02*
X008717Y011870D01*
X008667Y011920D02*
X014971Y011920D01*
X015117Y011774D02*
X015117Y009066D01*
X015143Y009040D02*
X018351Y009040D01*
X018317Y009074D02*
X018317Y005960D01*
X017997Y005960D02*
X017997Y009117D01*
X017531Y009360D02*
X014823Y009360D01*
X014797Y009386D02*
X014797Y012094D01*
X014651Y012240D02*
X008554Y012240D01*
X008397Y012137D02*
X008397Y012137D01*
X008077Y012137D02*
X008077Y012137D01*
X007933Y012240D02*
X007554Y012240D01*
X007437Y012137D02*
X007437Y012137D01*
X007667Y011920D02*
X007819Y011920D01*
X007757Y011858D02*
X007757Y012415D01*
X007743Y012430D02*
X007743Y012844D01*
X007687Y012900D01*
X007799Y012900D01*
X007743Y012844D01*
X007743Y012430D01*
X007743Y012560D02*
X007743Y012560D01*
X007757Y012858D02*
X007757Y012900D01*
X007779Y012880D02*
X007707Y012880D01*
X007357Y013180D02*
X007357Y013430D01*
X007243Y013637D01*
X007357Y013180D02*
X008607Y013180D01*
X010857Y015430D01*
X010857Y015930D01*
X011277Y015614D02*
X011277Y009710D01*
X010957Y009710D02*
X010957Y015134D01*
X010943Y015120D02*
X011771Y015120D01*
X011917Y014974D02*
X011917Y009710D01*
X011597Y009710D02*
X011597Y015294D01*
X011451Y015440D02*
X011137Y015440D01*
X010637Y014814D02*
X010637Y009710D01*
X010317Y009710D02*
X010317Y014494D01*
X010303Y014480D02*
X012411Y014480D01*
X012557Y014334D02*
X012557Y009710D01*
X012237Y009710D02*
X012237Y014654D01*
X012091Y014800D02*
X010623Y014800D01*
X010357Y015430D02*
X008357Y013430D01*
X008243Y013637D01*
X008717Y012922D02*
X008717Y012870D01*
X008707Y012880D02*
X014011Y012880D01*
X014157Y012734D02*
X014157Y009710D01*
X013837Y009710D02*
X013837Y013054D01*
X013691Y013200D02*
X009023Y013200D01*
X009037Y013214D02*
X009037Y009710D01*
X009357Y009710D02*
X009357Y013534D01*
X009343Y013520D02*
X013371Y013520D01*
X013517Y013374D02*
X013517Y009710D01*
X013197Y009710D02*
X013197Y013694D01*
X013051Y013840D02*
X009663Y013840D01*
X009677Y013854D02*
X009677Y009710D01*
X009997Y009710D02*
X009997Y014174D01*
X009983Y014160D02*
X012731Y014160D01*
X012877Y014014D02*
X012877Y009710D01*
X012877Y009150D02*
X012877Y006710D01*
X012557Y006710D02*
X012557Y009150D01*
X012237Y009150D02*
X012237Y006710D01*
X011917Y006710D02*
X011917Y009150D01*
X011597Y009150D02*
X011597Y006710D01*
X011277Y006710D02*
X011277Y009150D01*
X010957Y009150D02*
X010957Y006710D01*
X010637Y006710D02*
X010637Y009150D01*
X010317Y009150D02*
X010317Y008366D01*
X010345Y008339D02*
X009533Y009150D01*
X014241Y009150D01*
X016681Y006710D01*
X010387Y006710D01*
X010387Y008236D01*
X010345Y008339D01*
X010283Y008400D02*
X014991Y008400D01*
X015117Y008274D02*
X015117Y006710D01*
X014797Y006710D02*
X014797Y008594D01*
X014671Y008720D02*
X009963Y008720D01*
X009997Y008686D02*
X009997Y009150D01*
X009677Y009150D02*
X009677Y009006D01*
X009643Y009040D02*
X014351Y009040D01*
X014477Y008914D02*
X014477Y006710D01*
X014157Y006710D02*
X014157Y009150D01*
X013837Y009150D02*
X013837Y006710D01*
X013517Y006710D02*
X013517Y009150D01*
X013197Y009150D02*
X013197Y006710D01*
X015311Y008080D02*
X010387Y008080D01*
X010107Y008180D02*
X009107Y009180D01*
X007357Y009180D01*
X007743Y009460D02*
X007743Y009844D01*
X007743Y009460D01*
X007743Y009460D01*
X007743Y009680D02*
X007743Y009680D01*
X007757Y009858D02*
X007757Y010415D01*
X007853Y010320D02*
X007634Y010320D01*
X007437Y010137D02*
X007437Y010137D01*
X007587Y010000D02*
X007899Y010000D01*
X008077Y010137D02*
X008077Y010137D01*
X008397Y010137D02*
X008397Y010137D01*
X008587Y010000D02*
X016891Y010000D01*
X017037Y009854D02*
X017037Y007146D01*
X017063Y007120D02*
X020271Y007120D01*
X020237Y007154D02*
X020237Y005960D01*
X019917Y005960D02*
X019917Y007474D01*
X019951Y007440D02*
X016743Y007440D01*
X016717Y007466D02*
X016717Y010174D01*
X016571Y010320D02*
X008634Y010320D01*
X008717Y010404D02*
X008717Y009870D01*
X008243Y009637D02*
X008357Y009430D01*
X014357Y009430D01*
X017607Y006180D01*
X017927Y006160D02*
X021231Y006160D01*
X021197Y006194D02*
X021197Y005960D01*
X021607Y006180D02*
X008607Y019180D01*
X007357Y019180D01*
X007357Y019430D01*
X007243Y019637D01*
X006743Y019600D02*
X006637Y019600D01*
X006637Y019920D02*
X006819Y019920D01*
X006797Y019898D02*
X006797Y020375D01*
X006933Y020240D02*
X006637Y020240D01*
X006637Y020560D02*
X006743Y020560D01*
X006779Y020880D02*
X006637Y020880D01*
X006797Y020898D02*
X006797Y021375D01*
X006743Y021520D02*
X006637Y021520D01*
X006637Y021200D02*
X006973Y021200D01*
X007117Y021137D02*
X007117Y021137D01*
X007437Y021137D02*
X007437Y021137D01*
X007514Y021200D02*
X007973Y021200D01*
X008077Y021137D02*
X008077Y021137D01*
X008397Y021137D02*
X008397Y021137D01*
X008514Y021200D02*
X008577Y021200D01*
X008857Y021180D02*
X008857Y030680D01*
X008397Y030484D02*
X008397Y023137D01*
X008467Y023120D02*
X008577Y023120D01*
X008577Y023440D02*
X006637Y023440D01*
X006637Y023120D02*
X008019Y023120D01*
X008077Y023137D02*
X008077Y032896D01*
X007757Y032896D02*
X007757Y022858D01*
X007723Y022836D02*
X007442Y023117D01*
X007263Y023117D01*
X007263Y022657D01*
X007223Y022657D01*
X007223Y023117D01*
X007044Y023117D01*
X006763Y022836D01*
X006763Y022657D01*
X007223Y022657D01*
X007223Y022617D01*
X006763Y022617D01*
X006763Y022438D01*
X007044Y022157D01*
X007223Y022157D01*
X007223Y022617D01*
X007263Y022617D01*
X007263Y022657D01*
X007723Y022657D01*
X007723Y022836D01*
X007723Y022800D02*
X007743Y022800D01*
X007723Y022617D02*
X007263Y022617D01*
X007263Y022157D01*
X007442Y022157D01*
X007723Y022438D01*
X007723Y022617D01*
X007723Y022480D02*
X007743Y022480D01*
X007757Y022415D02*
X007757Y021858D01*
X007743Y021840D02*
X007743Y021840D01*
X007743Y021520D02*
X007743Y021520D01*
X007757Y021415D02*
X007757Y020858D01*
X007779Y020880D02*
X007707Y020880D01*
X007743Y020560D02*
X007743Y020560D01*
X007757Y020415D02*
X007757Y019858D01*
X007743Y019844D02*
X007743Y019460D01*
X007743Y019844D01*
X007667Y019920D02*
X007819Y019920D01*
X007743Y019600D02*
X007743Y019600D01*
X007743Y019460D02*
X007743Y019460D01*
X007437Y020137D02*
X007437Y020137D01*
X007554Y020240D02*
X007933Y020240D01*
X008077Y020137D02*
X008077Y020137D01*
X008397Y020137D02*
X008397Y020137D01*
X008554Y020240D02*
X024077Y020240D01*
X024077Y019920D02*
X008667Y019920D01*
X008717Y019870D02*
X008717Y020404D01*
X008743Y020560D02*
X018104Y020560D01*
X018317Y020400D02*
X018317Y009866D01*
X018183Y010000D02*
X021827Y010000D01*
X021827Y009680D02*
X018503Y009680D01*
X018637Y009546D02*
X018637Y020400D01*
X018957Y020400D02*
X018957Y009226D01*
X018823Y009360D02*
X021827Y009360D01*
X021827Y009040D02*
X019143Y009040D01*
X019277Y008906D02*
X019277Y020400D01*
X019597Y020400D02*
X019597Y008586D01*
X019463Y008720D02*
X021827Y008720D01*
X021827Y008400D02*
X019783Y008400D01*
X019917Y008266D02*
X019917Y020400D01*
X020237Y020400D02*
X020237Y007946D01*
X020103Y008080D02*
X021827Y008080D01*
X021827Y007760D02*
X020423Y007760D01*
X020557Y007626D02*
X020557Y020400D01*
X020877Y020400D02*
X020877Y007306D01*
X020743Y007440D02*
X021827Y007440D01*
X021827Y007120D02*
X021063Y007120D01*
X021197Y006986D02*
X021197Y020400D01*
X021517Y020400D02*
X021517Y006666D01*
X021383Y006800D02*
X021827Y006800D01*
X021827Y006480D02*
X021760Y006480D01*
X022107Y006180D02*
X022107Y010930D01*
X028357Y010930D01*
X028557Y010677D02*
X028557Y010276D01*
X028587Y010320D02*
X022387Y010320D01*
X022387Y010640D02*
X028195Y010640D01*
X028237Y010610D02*
X028237Y009956D01*
X028281Y010000D02*
X022387Y010000D01*
X021827Y010320D02*
X017863Y010320D01*
X017997Y010186D02*
X017997Y021242D01*
X018077Y021200D02*
X017897Y021200D01*
X017677Y021183D02*
X017677Y010506D01*
X017543Y010640D02*
X021827Y010640D01*
X021827Y010960D02*
X017223Y010960D01*
X017357Y010826D02*
X017357Y021377D01*
X017286Y021520D02*
X017229Y021520D01*
X017229Y021840D02*
X017286Y021840D01*
X017357Y021983D02*
X017357Y022534D01*
X017411Y022480D02*
X016203Y022480D01*
X016077Y022606D02*
X016077Y025255D01*
X016128Y025275D02*
X016262Y025410D01*
X016334Y025585D01*
X016334Y025775D01*
X016262Y025950D01*
X016128Y026085D01*
X015952Y026157D01*
X015762Y026157D01*
X015587Y026085D01*
X015453Y025950D01*
X015380Y025775D01*
X015380Y025585D01*
X015453Y025410D01*
X015587Y025275D01*
X015762Y025203D01*
X015952Y025203D01*
X016128Y025275D01*
X016212Y025360D02*
X016502Y025360D01*
X016397Y025544D02*
X016397Y022286D01*
X016523Y022160D02*
X016618Y022160D01*
X016717Y022177D02*
X016717Y025222D01*
X017037Y025238D02*
X017037Y022102D01*
X016897Y022160D02*
X017618Y022160D01*
X017677Y022177D02*
X017677Y022214D01*
X018357Y021930D02*
X017357Y022930D01*
X017357Y025930D01*
X016107Y027180D01*
X015875Y026960D02*
X013637Y026960D01*
X013637Y026640D02*
X016251Y026640D01*
X016397Y026494D02*
X016397Y025816D01*
X016380Y025680D02*
X016334Y025680D01*
X016212Y026000D02*
X016502Y026000D01*
X016717Y026138D02*
X016717Y026174D01*
X016571Y026320D02*
X013637Y026320D01*
X013837Y026157D02*
X013837Y029080D01*
X013957Y029200D02*
X014367Y029200D01*
X014477Y029137D02*
X014477Y025975D01*
X014453Y025950D02*
X014380Y025775D01*
X014380Y025585D01*
X014453Y025410D01*
X014587Y025275D01*
X014762Y025203D01*
X014952Y025203D01*
X015128Y025275D01*
X015262Y025410D01*
X015334Y025585D01*
X015334Y025775D01*
X015262Y025950D01*
X015128Y026085D01*
X014952Y026157D01*
X014762Y026157D01*
X014587Y026085D01*
X014453Y025950D01*
X014502Y026000D02*
X014212Y026000D01*
X014157Y026055D02*
X014157Y029507D01*
X014152Y029520D02*
X013957Y029520D01*
X013517Y029080D02*
X013517Y028916D01*
X013553Y028880D02*
X018911Y028880D01*
X018957Y028926D02*
X018957Y030233D01*
X018849Y030223D02*
X018849Y030671D01*
X018400Y030671D01*
X018400Y030644D01*
X018411Y030573D01*
X018434Y030505D01*
X018466Y030440D01*
X018509Y030382D01*
X018559Y030331D01*
X018618Y030289D01*
X018682Y030256D01*
X018750Y030234D01*
X018821Y030223D01*
X018849Y030223D01*
X018637Y030279D02*
X018637Y028606D01*
X018591Y028560D02*
X013637Y028560D01*
X013357Y028680D02*
X012357Y029680D01*
X012357Y030930D01*
X011107Y032180D01*
X008857Y032180D01*
X008857Y031680D01*
X008397Y031484D02*
X008397Y030876D01*
X008366Y030800D02*
X006887Y030800D01*
X006887Y030480D02*
X008399Y030480D01*
X008577Y030160D02*
X006887Y030160D01*
X006887Y029840D02*
X008577Y029840D01*
X008577Y029520D02*
X006887Y029520D01*
X006887Y029200D02*
X008577Y029200D01*
X008577Y028880D02*
X006887Y028880D01*
X006887Y028560D02*
X008577Y028560D01*
X008577Y028240D02*
X006887Y028240D01*
X006887Y027920D02*
X008577Y027920D01*
X008577Y027600D02*
X006887Y027600D01*
X006887Y027280D02*
X008577Y027280D01*
X008577Y026960D02*
X006887Y026960D01*
X006887Y026640D02*
X008577Y026640D01*
X008577Y026320D02*
X006887Y026320D01*
X006887Y026000D02*
X008577Y026000D01*
X008577Y025680D02*
X006887Y025680D01*
X006887Y025360D02*
X008577Y025360D01*
X008577Y025040D02*
X006887Y025040D01*
X006797Y024724D02*
X006797Y022870D01*
X006763Y022800D02*
X006637Y022800D01*
X006797Y022657D02*
X006797Y022617D01*
X006763Y022480D02*
X006637Y022480D01*
X006797Y022404D02*
X006797Y021898D01*
X006743Y021840D02*
X006637Y021840D01*
X006637Y022160D02*
X007041Y022160D01*
X007117Y022157D02*
X007117Y022137D01*
X007223Y022160D02*
X007263Y022160D01*
X007437Y022157D02*
X007437Y022137D01*
X007445Y022160D02*
X008013Y022160D01*
X008077Y022137D02*
X008077Y022137D01*
X008397Y022137D02*
X008397Y022137D01*
X008450Y022137D02*
X008577Y022010D01*
X008577Y022264D01*
X008450Y022137D01*
X008474Y022160D02*
X008577Y022160D01*
X009137Y022160D02*
X010618Y022160D01*
X010637Y022168D02*
X010637Y025781D01*
X010536Y025680D02*
X011380Y025680D01*
X011380Y025775D02*
X011380Y025585D01*
X011453Y025410D01*
X011587Y025275D01*
X011762Y025203D01*
X011952Y025203D01*
X012077Y025255D01*
X012077Y022034D01*
X012068Y022044D01*
X012007Y022088D01*
X011940Y022122D01*
X011869Y022145D01*
X011795Y022157D01*
X011776Y022157D01*
X011776Y021698D01*
X011739Y021698D01*
X011739Y021662D01*
X011280Y021662D01*
X011280Y021642D01*
X011292Y021568D01*
X011315Y021497D01*
X011334Y021460D01*
X011204Y021460D01*
X011254Y021581D01*
X011254Y021779D01*
X011178Y021961D01*
X011039Y022101D01*
X010856Y022177D01*
X010658Y022177D01*
X010476Y022101D01*
X010336Y021961D01*
X010260Y021779D01*
X010260Y021581D01*
X010311Y021460D01*
X009137Y021460D01*
X009137Y024752D01*
X009262Y024700D01*
X009453Y024700D01*
X009629Y024773D01*
X012129Y027273D01*
X012264Y027408D01*
X012337Y027585D01*
X012337Y029304D01*
X013077Y028564D01*
X013077Y026105D01*
X012952Y026157D01*
X012762Y026157D01*
X012595Y026088D01*
X012595Y026089D01*
X012516Y026167D01*
X012177Y026506D01*
X012177Y026563D01*
X011990Y026750D01*
X011725Y026750D01*
X011537Y026563D01*
X011537Y026297D01*
X011702Y026132D01*
X011587Y026085D01*
X011453Y025950D01*
X011380Y025775D01*
X011502Y026000D02*
X010856Y026000D01*
X010957Y026101D02*
X010957Y022135D01*
X010897Y022160D02*
X012077Y022160D01*
X011917Y022129D02*
X011917Y025203D01*
X012077Y025040D02*
X009896Y025040D01*
X009997Y025141D02*
X009997Y021460D01*
X010286Y021520D02*
X009137Y021520D01*
X009357Y021460D02*
X009357Y024700D01*
X009214Y024720D02*
X009137Y024720D01*
X009137Y024400D02*
X012077Y024400D01*
X012077Y024720D02*
X009501Y024720D01*
X009677Y024821D02*
X009677Y021460D01*
X009137Y021840D02*
X010286Y021840D01*
X010317Y021916D02*
X010317Y025461D01*
X010216Y025360D02*
X011502Y025360D01*
X011597Y025271D02*
X011597Y022129D01*
X011574Y022122D02*
X011507Y022088D01*
X011447Y022044D01*
X011394Y021991D01*
X011349Y021930D01*
X011315Y021863D01*
X011292Y021792D01*
X011280Y021718D01*
X011280Y021698D01*
X011739Y021698D01*
X011739Y022157D01*
X011720Y022157D01*
X011646Y022145D01*
X011574Y022122D01*
X011739Y021840D02*
X011776Y021840D01*
X011597Y021698D02*
X011597Y021662D01*
X011308Y021520D02*
X011229Y021520D01*
X011277Y021460D02*
X011277Y026421D01*
X011176Y026320D02*
X011537Y026320D01*
X011597Y026237D02*
X011597Y026089D01*
X011857Y026430D02*
X012357Y025930D01*
X012357Y021930D01*
X012607Y021680D01*
X012757Y021680D01*
X012077Y022480D02*
X009137Y022480D01*
X009137Y022800D02*
X012077Y022800D01*
X012077Y023120D02*
X009137Y023120D01*
X009137Y023440D02*
X012077Y023440D01*
X012077Y023760D02*
X009137Y023760D01*
X009137Y024080D02*
X012077Y024080D01*
X013357Y024930D02*
X013357Y028680D01*
X013077Y028560D02*
X012337Y028560D01*
X012337Y028240D02*
X013077Y028240D01*
X013077Y027920D02*
X012337Y027920D01*
X012337Y027600D02*
X013077Y027600D01*
X013077Y027280D02*
X012136Y027280D01*
X012237Y027381D02*
X012237Y026446D01*
X012363Y026320D02*
X013077Y026320D01*
X012877Y026157D02*
X012877Y028764D01*
X012761Y028880D02*
X012337Y028880D01*
X012557Y029084D02*
X012557Y026126D01*
X012100Y026640D02*
X013077Y026640D01*
X013077Y026960D02*
X011816Y026960D01*
X011917Y027061D02*
X011917Y026750D01*
X011597Y026741D02*
X011597Y026623D01*
X011615Y026640D02*
X011496Y026640D01*
X010778Y027280D02*
X009137Y027280D01*
X009137Y026960D02*
X010458Y026960D01*
X010317Y026819D02*
X010317Y030484D01*
X010316Y030480D02*
X010420Y030480D01*
X010412Y030496D02*
X010447Y030428D01*
X010491Y030367D01*
X010545Y030314D01*
X010606Y030269D01*
X010673Y030235D01*
X010745Y030212D01*
X010820Y030200D01*
X010837Y030200D01*
X010837Y030660D01*
X010377Y030660D01*
X010377Y030642D01*
X010389Y030568D01*
X010412Y030496D01*
X010357Y030581D02*
X010357Y030779D01*
X010281Y030963D01*
X010141Y031104D01*
X009957Y031180D01*
X009758Y031180D01*
X009637Y031230D01*
X009637Y031130D01*
X009758Y031180D01*
X009957Y031180D01*
X010141Y031256D01*
X010281Y031397D01*
X010357Y031581D01*
X010357Y031779D01*
X010307Y031900D01*
X010431Y031900D01*
X010412Y031864D01*
X010389Y031792D01*
X010377Y031718D01*
X010377Y031700D01*
X010837Y031700D01*
X010837Y031660D01*
X010377Y031660D01*
X010377Y031642D01*
X010389Y031568D01*
X010412Y031496D01*
X010447Y031428D01*
X010491Y031367D01*
X010545Y031314D01*
X010606Y031269D01*
X010673Y031235D01*
X010745Y031212D01*
X010820Y031200D01*
X010837Y031200D01*
X010837Y031660D01*
X010877Y031660D01*
X010877Y031200D01*
X010895Y031200D01*
X010970Y031212D01*
X011042Y031235D01*
X011109Y031269D01*
X011170Y031314D01*
X011223Y031367D01*
X011268Y031428D01*
X011302Y031496D01*
X011325Y031566D01*
X011740Y031151D01*
X011585Y031087D01*
X011450Y030952D01*
X011377Y030775D01*
X011377Y027879D01*
X009137Y025639D01*
X009137Y028197D01*
X009225Y028110D01*
X009490Y028110D01*
X009677Y028297D01*
X009677Y028563D01*
X009637Y028603D01*
X009637Y030230D01*
X009758Y030180D01*
X009957Y030180D01*
X010141Y030256D01*
X010281Y030397D01*
X010357Y030581D01*
X010377Y030700D02*
X010837Y030700D01*
X010837Y030660D01*
X010877Y030660D01*
X010877Y030200D01*
X010895Y030200D01*
X010970Y030212D01*
X011042Y030235D01*
X011109Y030269D01*
X011170Y030314D01*
X011223Y030367D01*
X011268Y030428D01*
X011302Y030496D01*
X011325Y030568D01*
X011337Y030642D01*
X011337Y030660D01*
X010877Y030660D01*
X010877Y030700D01*
X010837Y030700D01*
X010837Y031160D01*
X010820Y031160D01*
X010745Y031148D01*
X010673Y031125D01*
X010606Y031091D01*
X010545Y031046D01*
X010491Y030993D01*
X010447Y030932D01*
X010412Y030864D01*
X010389Y030792D01*
X010377Y030718D01*
X010377Y030700D01*
X010392Y030800D02*
X010349Y030800D01*
X010317Y030876D02*
X010317Y031484D01*
X010299Y031440D02*
X010441Y031440D01*
X010637Y031253D02*
X010637Y031107D01*
X010664Y031120D02*
X010102Y031120D01*
X009997Y031163D02*
X009997Y031197D01*
X009677Y031213D02*
X009677Y031147D01*
X009077Y031130D02*
X008957Y031180D01*
X008758Y031180D01*
X008957Y031180D01*
X009077Y031230D01*
X009077Y031130D01*
X009037Y031147D02*
X009037Y031213D01*
X008717Y031197D02*
X008717Y031163D01*
X008613Y031120D02*
X006813Y031120D01*
X006797Y031136D02*
X006797Y032896D01*
X006477Y032896D02*
X006477Y031456D01*
X006493Y031440D02*
X008415Y031440D01*
X008357Y031760D02*
X006173Y031760D01*
X006157Y031776D02*
X006157Y032896D01*
X005837Y032896D02*
X005837Y032096D01*
X005853Y032080D02*
X008550Y032080D01*
X008397Y031876D02*
X008397Y032896D01*
X008717Y032896D02*
X008717Y032425D01*
X008681Y032400D02*
X005533Y032400D01*
X005517Y032416D02*
X005517Y032896D01*
X005197Y032896D02*
X005197Y032736D01*
X005213Y032720D02*
X040000Y032720D01*
X040077Y032643D02*
X040077Y029356D01*
X040137Y029200D02*
X040447Y029200D01*
X040447Y028880D02*
X040137Y028880D01*
X040137Y028560D02*
X040447Y028560D01*
X040447Y028240D02*
X040137Y028240D01*
X040137Y027920D02*
X040447Y027920D01*
X040447Y027600D02*
X040137Y027600D01*
X040137Y027280D02*
X040447Y027280D01*
X040447Y026960D02*
X040137Y026960D01*
X040137Y026640D02*
X040447Y026640D01*
X040447Y026320D02*
X040137Y026320D01*
X040137Y026000D02*
X040447Y026000D01*
X040447Y025680D02*
X040137Y025680D01*
X040137Y025360D02*
X040447Y025360D01*
X040447Y025040D02*
X040137Y025040D01*
X040137Y024720D02*
X040447Y024720D01*
X040447Y024400D02*
X040137Y024400D01*
X040077Y024254D02*
X040077Y018106D01*
X040131Y018000D02*
X040447Y018000D01*
X040447Y017680D02*
X040137Y017680D01*
X040137Y017360D02*
X040447Y017360D01*
X040447Y017040D02*
X040137Y017040D01*
X040137Y016720D02*
X040447Y016720D01*
X040447Y016400D02*
X040137Y016400D01*
X040137Y016080D02*
X040447Y016080D01*
X040447Y015760D02*
X040137Y015760D01*
X040137Y015440D02*
X040447Y015440D01*
X040447Y015120D02*
X040137Y015120D01*
X040137Y014800D02*
X040447Y014800D01*
X040447Y014480D02*
X040137Y014480D01*
X040137Y014160D02*
X040447Y014160D01*
X040447Y013840D02*
X039829Y013840D01*
X040077Y014004D02*
X040077Y002213D01*
X040184Y002320D02*
X037700Y002320D01*
X037639Y002259D02*
X037778Y002399D01*
X037854Y002581D01*
X037854Y002779D01*
X037778Y002961D01*
X037639Y003101D01*
X037456Y003177D01*
X037258Y003177D01*
X037076Y003101D01*
X036936Y002961D01*
X036860Y002779D01*
X036860Y002581D01*
X036936Y002399D01*
X037076Y002259D01*
X037258Y002183D01*
X037456Y002183D01*
X037639Y002259D01*
X037517Y002208D02*
X037517Y001960D01*
X037197Y001960D02*
X037197Y002208D01*
X037015Y002320D02*
X036700Y002320D01*
X036639Y002259D02*
X036778Y002399D01*
X036854Y002581D01*
X036854Y002779D01*
X036778Y002961D01*
X036639Y003101D01*
X036456Y003177D01*
X036258Y003177D01*
X036076Y003101D01*
X035936Y002961D01*
X035860Y002779D01*
X035860Y002581D01*
X035936Y002399D01*
X036076Y002259D01*
X036258Y002183D01*
X036456Y002183D01*
X036639Y002259D01*
X036557Y002225D02*
X036557Y001960D01*
X036237Y001960D02*
X036237Y002192D01*
X036015Y002320D02*
X035700Y002320D01*
X035639Y002259D02*
X035778Y002399D01*
X035854Y002581D01*
X035854Y002779D01*
X035778Y002961D01*
X035639Y003101D01*
X035456Y003177D01*
X035258Y003177D01*
X035076Y003101D01*
X034936Y002961D01*
X034860Y002779D01*
X034860Y002581D01*
X034936Y002399D01*
X035076Y002259D01*
X035258Y002183D01*
X035456Y002183D01*
X035639Y002259D01*
X035597Y002242D02*
X035597Y001960D01*
X035277Y001960D02*
X035277Y002183D01*
X035015Y002320D02*
X034700Y002320D01*
X034639Y002259D02*
X034778Y002399D01*
X034854Y002581D01*
X034854Y002779D01*
X034778Y002961D01*
X034639Y003101D01*
X034456Y003177D01*
X034258Y003177D01*
X034076Y003101D01*
X033936Y002961D01*
X033860Y002779D01*
X033860Y002581D01*
X033936Y002399D01*
X034076Y002259D01*
X034258Y002183D01*
X034456Y002183D01*
X034639Y002259D01*
X034637Y002258D02*
X034637Y001960D01*
X034317Y001960D02*
X034317Y002183D01*
X034015Y002320D02*
X033700Y002320D01*
X033677Y002297D02*
X033677Y001960D01*
X033639Y002259D02*
X033456Y002183D01*
X033258Y002183D01*
X033076Y002259D01*
X032936Y002399D01*
X032860Y002581D01*
X032860Y002779D01*
X032936Y002961D01*
X033076Y003101D01*
X033258Y003177D01*
X033456Y003177D01*
X033639Y003101D01*
X033778Y002961D01*
X033854Y002779D01*
X033854Y002581D01*
X033778Y002399D01*
X033639Y002259D01*
X033357Y002183D02*
X033357Y001960D01*
X033037Y001960D02*
X033037Y002297D01*
X033015Y002320D02*
X032700Y002320D01*
X032717Y002337D02*
X032717Y001960D01*
X032639Y002259D02*
X032778Y002399D01*
X032854Y002581D01*
X032854Y002779D01*
X032778Y002961D01*
X032639Y003101D01*
X032456Y003177D01*
X032258Y003177D01*
X032076Y003101D01*
X031936Y002961D01*
X031860Y002779D01*
X031860Y002581D01*
X031936Y002399D01*
X032076Y002259D01*
X032258Y002183D01*
X032456Y002183D01*
X032639Y002259D01*
X032397Y002183D02*
X032397Y001960D01*
X032077Y001960D02*
X032077Y002258D01*
X032015Y002320D02*
X031700Y002320D01*
X031757Y002377D02*
X031757Y001960D01*
X031437Y001960D02*
X031437Y002183D01*
X031456Y002183D02*
X031639Y002259D01*
X031778Y002399D01*
X031854Y002581D01*
X031854Y002779D01*
X031778Y002961D01*
X031639Y003101D01*
X031456Y003177D01*
X031258Y003177D01*
X031076Y003101D01*
X030936Y002961D01*
X030860Y002779D01*
X030860Y002581D01*
X030936Y002399D01*
X031076Y002259D01*
X031258Y002183D01*
X031456Y002183D01*
X031117Y002242D02*
X031117Y001960D01*
X030797Y001960D02*
X030797Y002444D01*
X030778Y002399D02*
X030854Y002581D01*
X030854Y002779D01*
X030778Y002961D01*
X030639Y003101D01*
X030456Y003177D01*
X030258Y003177D01*
X030076Y003101D01*
X029936Y002961D01*
X029860Y002779D01*
X029860Y002581D01*
X029936Y002399D01*
X030076Y002259D01*
X030258Y002183D01*
X030456Y002183D01*
X030639Y002259D01*
X030778Y002399D01*
X030700Y002320D02*
X031015Y002320D01*
X030860Y002640D02*
X030854Y002640D01*
X030797Y002916D02*
X030797Y004900D01*
X030477Y004900D02*
X030477Y003168D01*
X030157Y003135D02*
X030157Y004900D01*
X029837Y004900D02*
X029837Y001960D01*
X029517Y001960D02*
X029517Y004900D01*
X029197Y004900D02*
X029197Y001960D01*
X028877Y001960D02*
X028877Y004900D01*
X028557Y004900D02*
X028557Y003135D01*
X028639Y003101D02*
X028456Y003177D01*
X028258Y003177D01*
X028076Y003101D01*
X027936Y002961D01*
X027860Y002779D01*
X027860Y002581D01*
X027936Y002399D01*
X028076Y002259D01*
X028258Y002183D01*
X028456Y002183D01*
X028639Y002259D01*
X028778Y002399D01*
X028854Y002581D01*
X028854Y002779D01*
X028778Y002961D01*
X028639Y003101D01*
X028779Y002960D02*
X029935Y002960D01*
X029860Y002640D02*
X028854Y002640D01*
X028700Y002320D02*
X030015Y002320D01*
X030157Y002225D02*
X030157Y001960D01*
X030477Y001960D02*
X030477Y002192D01*
X030779Y002960D02*
X030935Y002960D01*
X031117Y003118D02*
X031117Y004900D01*
X031107Y005180D02*
X031107Y013130D01*
X031107Y015430D01*
X031427Y015440D02*
X033077Y015440D01*
X033077Y015120D02*
X031387Y015120D01*
X031387Y014800D02*
X033077Y014800D01*
X033077Y014480D02*
X031387Y014480D01*
X031387Y014160D02*
X033077Y014160D01*
X033077Y013840D02*
X031387Y013840D01*
X031387Y013520D02*
X033077Y013520D01*
X033077Y013200D02*
X031427Y013200D01*
X031387Y012880D02*
X032911Y012880D01*
X033077Y013046D02*
X033077Y017447D01*
X032990Y017360D01*
X033077Y017040D02*
X032613Y017040D01*
X032717Y017144D02*
X032717Y012686D01*
X032591Y012560D02*
X031387Y012560D01*
X031387Y012240D02*
X032271Y012240D01*
X032397Y012366D02*
X032397Y016824D01*
X032293Y016720D02*
X033077Y016720D01*
X033077Y016400D02*
X031973Y016400D01*
X032077Y016504D02*
X032077Y012046D01*
X031895Y011920D02*
X031387Y011920D01*
X031387Y011600D02*
X031787Y011600D01*
X032107Y011680D02*
X033357Y012930D01*
X033357Y021680D01*
X032886Y021520D02*
X032829Y021520D01*
X032717Y021337D02*
X032717Y017993D01*
X032573Y018000D02*
X033077Y018000D01*
X033037Y017953D02*
X033037Y021297D01*
X033077Y021200D02*
X032637Y021200D01*
X032637Y020880D02*
X033077Y020880D01*
X033077Y020560D02*
X032637Y020560D01*
X032637Y020240D02*
X033077Y020240D01*
X033077Y019920D02*
X032637Y019920D01*
X032637Y019600D02*
X033077Y019600D01*
X033077Y019280D02*
X032637Y019280D01*
X032637Y018960D02*
X033077Y018960D01*
X033077Y018640D02*
X032637Y018640D01*
X032637Y018320D02*
X033077Y018320D01*
X033637Y018320D02*
X035827Y018320D01*
X035827Y018000D02*
X033637Y018000D01*
X033637Y017680D02*
X035827Y017680D01*
X035827Y017360D02*
X033637Y017360D01*
X033637Y017040D02*
X035827Y017040D01*
X035827Y016720D02*
X034463Y016720D01*
X034637Y016546D02*
X034637Y020254D01*
X034651Y020240D02*
X033637Y020240D01*
X033637Y019920D02*
X034971Y019920D01*
X034957Y019934D02*
X034957Y016226D01*
X035103Y016080D02*
X035827Y016080D01*
X035827Y015760D02*
X035423Y015760D01*
X035277Y015906D02*
X035277Y019614D01*
X035291Y019600D02*
X033637Y019600D01*
X033637Y019280D02*
X035611Y019280D01*
X035597Y019294D02*
X035597Y015586D01*
X035743Y015440D02*
X035827Y015440D01*
X036107Y015180D02*
X036107Y019180D01*
X033857Y021430D01*
X033857Y021930D01*
X030107Y025680D01*
X029857Y025680D01*
X029837Y025203D02*
X029837Y021820D01*
X029829Y021840D02*
X029886Y021840D01*
X029860Y021779D02*
X029936Y021961D01*
X030076Y022101D01*
X030258Y022177D01*
X030456Y022177D01*
X030639Y022101D01*
X030778Y021961D01*
X030854Y021779D01*
X030854Y021581D01*
X030778Y021399D01*
X030639Y021259D01*
X030456Y021183D01*
X030258Y021183D01*
X030076Y021259D01*
X029936Y021399D01*
X029860Y021581D01*
X029860Y021779D01*
X029837Y021540D02*
X029837Y018056D01*
X029781Y018000D02*
X028887Y018000D01*
X028887Y017680D02*
X029405Y017680D01*
X029517Y017750D02*
X029517Y021208D01*
X029497Y021200D02*
X030218Y021200D01*
X030157Y021225D02*
X030157Y018376D01*
X030101Y018320D02*
X028920Y018320D01*
X028877Y018363D02*
X028877Y021540D01*
X028886Y021520D02*
X028829Y021520D01*
X028854Y021581D02*
X028778Y021399D01*
X028639Y021259D01*
X028456Y021183D01*
X028258Y021183D01*
X028076Y021259D01*
X027936Y021399D01*
X027860Y021581D01*
X027860Y021779D01*
X027936Y021961D01*
X028076Y022101D01*
X028258Y022177D01*
X028456Y022177D01*
X028639Y022101D01*
X028778Y021961D01*
X028854Y021779D01*
X028854Y021581D01*
X028877Y021820D02*
X028877Y032896D01*
X028557Y032896D02*
X028557Y022135D01*
X028497Y022160D02*
X029077Y022160D01*
X029077Y022480D02*
X027137Y022480D01*
X027137Y022160D02*
X028218Y022160D01*
X028237Y022168D02*
X028237Y025385D01*
X028212Y025360D02*
X029077Y025360D01*
X029077Y025040D02*
X027613Y025040D01*
X027597Y025024D02*
X027597Y011710D01*
X027277Y011710D02*
X027277Y024704D01*
X027293Y024720D02*
X029077Y024720D01*
X029077Y024400D02*
X027137Y024400D01*
X027137Y024080D02*
X029077Y024080D01*
X029077Y023760D02*
X027137Y023760D01*
X027137Y023440D02*
X029077Y023440D01*
X029077Y023120D02*
X027137Y023120D01*
X027137Y022800D02*
X029077Y022800D01*
X029637Y022800D02*
X032591Y022800D01*
X032717Y022674D02*
X032717Y022023D01*
X032829Y021840D02*
X032886Y021840D01*
X033037Y022063D02*
X033037Y022354D01*
X032911Y022480D02*
X029637Y022480D01*
X029637Y022160D02*
X030218Y022160D01*
X030157Y022135D02*
X030157Y025234D01*
X030351Y025040D02*
X029637Y025040D01*
X029637Y024720D02*
X030671Y024720D01*
X030797Y024594D02*
X030797Y021916D01*
X030829Y021840D02*
X030886Y021840D01*
X030860Y021779D02*
X030860Y021581D01*
X030936Y021399D01*
X031076Y021259D01*
X031258Y021183D01*
X031456Y021183D01*
X031639Y021259D01*
X031778Y021399D01*
X031854Y021581D01*
X031854Y021779D01*
X031778Y021961D01*
X031639Y022101D01*
X031456Y022177D01*
X031258Y022177D01*
X031076Y022101D01*
X030936Y021961D01*
X030860Y021779D01*
X030829Y021520D02*
X030886Y021520D01*
X030797Y021444D02*
X030797Y019016D01*
X030741Y018960D02*
X024637Y018960D01*
X024637Y018640D02*
X030421Y018640D01*
X030477Y018696D02*
X030477Y021192D01*
X030497Y021200D02*
X031218Y021200D01*
X031117Y021242D02*
X031117Y019336D01*
X031061Y019280D02*
X024637Y019280D01*
X024637Y019600D02*
X031381Y019600D01*
X031437Y019656D02*
X031437Y021183D01*
X031497Y021200D02*
X032077Y021200D01*
X032077Y020880D02*
X024637Y020880D01*
X024637Y020560D02*
X032077Y020560D01*
X032077Y020240D02*
X024637Y020240D01*
X024637Y019920D02*
X031645Y019920D01*
X031757Y020000D02*
X031757Y021377D01*
X031829Y021520D02*
X031886Y021520D01*
X031886Y021840D02*
X031829Y021840D01*
X031757Y021983D02*
X031757Y023634D01*
X031631Y023760D02*
X029637Y023760D01*
X029637Y023440D02*
X031951Y023440D01*
X032077Y023314D02*
X032077Y022102D01*
X032218Y022160D02*
X031497Y022160D01*
X031437Y022177D02*
X031437Y023954D01*
X031311Y024080D02*
X029637Y024080D01*
X029637Y024400D02*
X030991Y024400D01*
X031117Y024274D02*
X031117Y022118D01*
X031218Y022160D02*
X030497Y022160D01*
X030477Y022168D02*
X030477Y024914D01*
X030972Y025211D02*
X031128Y025275D01*
X031262Y025410D01*
X031334Y025585D01*
X031334Y025775D01*
X031262Y025950D01*
X031128Y026085D01*
X030952Y026157D01*
X030762Y026157D01*
X030587Y026085D01*
X030453Y025950D01*
X030388Y025795D01*
X030345Y025839D01*
X030282Y025901D01*
X030262Y025950D01*
X030128Y026085D01*
X029972Y026149D01*
X032473Y028650D01*
X037857Y028650D01*
X037857Y028473D01*
X038077Y028253D01*
X038077Y024046D01*
X038031Y024000D01*
X037975Y024000D01*
X037887Y023913D01*
X037887Y025986D01*
X037845Y026089D01*
X037253Y026680D01*
X037433Y026860D01*
X037490Y026860D01*
X037677Y027047D01*
X037677Y027313D01*
X037490Y027500D01*
X037225Y027500D01*
X037037Y027313D01*
X037037Y027256D01*
X036699Y026917D01*
X036699Y026917D01*
X036620Y026839D01*
X036620Y026839D01*
X035938Y026157D01*
X035762Y026157D01*
X035587Y026085D01*
X035453Y025950D01*
X035380Y025775D01*
X035380Y025585D01*
X035453Y025410D01*
X035587Y025275D01*
X035762Y025203D01*
X035952Y025203D01*
X036128Y025275D01*
X036262Y025410D01*
X036334Y025585D01*
X036334Y025761D01*
X036403Y025829D01*
X036380Y025775D01*
X036380Y025585D01*
X036453Y025410D01*
X036587Y025275D01*
X036762Y025203D01*
X036938Y025203D01*
X037077Y025064D01*
X037077Y020495D01*
X037014Y020558D01*
X036701Y020558D01*
X036479Y020337D01*
X036479Y020023D01*
X036577Y019925D01*
X036577Y017553D01*
X036537Y017513D01*
X036537Y017247D01*
X036725Y017060D01*
X036990Y017060D01*
X037077Y017147D01*
X037077Y016624D01*
X037120Y016521D01*
X037861Y015780D01*
X037860Y015779D01*
X037860Y015581D01*
X037911Y015460D01*
X036387Y015460D01*
X036387Y019236D01*
X036345Y019339D01*
X034487Y021196D01*
X034639Y021259D01*
X034778Y021399D01*
X034854Y021581D01*
X034854Y021779D01*
X034778Y021961D01*
X034639Y022101D01*
X034456Y022177D01*
X034258Y022177D01*
X034080Y022103D01*
X030972Y025211D01*
X031117Y025271D02*
X031117Y025066D01*
X031143Y025040D02*
X037077Y025040D01*
X036877Y025203D02*
X036877Y020558D01*
X037077Y020560D02*
X035123Y020560D01*
X035277Y020406D02*
X035277Y021183D01*
X035258Y021183D02*
X035456Y021183D01*
X035639Y021259D01*
X035778Y021399D01*
X035854Y021581D01*
X035854Y021779D01*
X035778Y021961D01*
X035639Y022101D01*
X035456Y022177D01*
X035258Y022177D01*
X035076Y022101D01*
X034936Y021961D01*
X034860Y021779D01*
X034860Y021581D01*
X034936Y021399D01*
X035076Y021259D01*
X035258Y021183D01*
X035218Y021200D02*
X034497Y021200D01*
X034637Y021258D02*
X034637Y021046D01*
X034803Y020880D02*
X037077Y020880D01*
X037077Y021200D02*
X035497Y021200D01*
X035597Y021242D02*
X035597Y020086D01*
X035443Y020240D02*
X036479Y020240D01*
X036557Y020415D02*
X036557Y025305D01*
X036502Y025360D02*
X036212Y025360D01*
X036237Y025385D02*
X036237Y019446D01*
X036369Y019280D02*
X036577Y019280D01*
X036577Y018960D02*
X036387Y018960D01*
X036387Y018640D02*
X036577Y018640D01*
X036577Y018320D02*
X036387Y018320D01*
X036387Y018000D02*
X036577Y018000D01*
X036577Y017680D02*
X036387Y017680D01*
X036557Y017533D02*
X036557Y019945D01*
X036577Y019920D02*
X035763Y019920D01*
X035917Y019766D02*
X035917Y025203D01*
X035597Y025271D02*
X035597Y022118D01*
X035497Y022160D02*
X037077Y022160D01*
X037077Y021840D02*
X035829Y021840D01*
X035829Y021520D02*
X037077Y021520D01*
X037887Y021200D02*
X038218Y021200D01*
X038157Y021225D02*
X038157Y021135D01*
X038477Y021168D02*
X038477Y021192D01*
X038497Y021200D02*
X039218Y021200D01*
X039258Y021183D02*
X039456Y021183D01*
X039639Y021259D01*
X039778Y021399D01*
X039854Y021581D01*
X039854Y021779D01*
X039778Y021961D01*
X039639Y022101D01*
X039456Y022177D01*
X039258Y022177D01*
X039076Y022101D01*
X038936Y021961D01*
X038860Y021779D01*
X038860Y021581D01*
X038936Y021399D01*
X039076Y021259D01*
X039258Y021183D01*
X039117Y021242D02*
X039117Y021118D01*
X038902Y020880D02*
X038812Y020880D01*
X038797Y020916D02*
X038797Y021444D01*
X038829Y021520D02*
X038886Y021520D01*
X038886Y021840D02*
X038829Y021840D01*
X038797Y021916D02*
X038797Y022974D01*
X038943Y023120D02*
X040447Y023120D01*
X040447Y022800D02*
X038623Y022800D01*
X038477Y022654D02*
X038477Y022168D01*
X038497Y022160D02*
X039218Y022160D01*
X039117Y022118D02*
X039117Y023294D01*
X039263Y023440D02*
X040447Y023440D01*
X040447Y023760D02*
X039583Y023760D01*
X039437Y023614D02*
X039437Y022177D01*
X039497Y022160D02*
X040447Y022160D01*
X040447Y021840D02*
X039829Y021840D01*
X039757Y021983D02*
X039757Y023934D01*
X039903Y024080D02*
X040447Y024080D01*
X040016Y024193D02*
X040016Y024193D01*
X039857Y024430D02*
X039857Y029180D01*
X039357Y029680D01*
X039757Y029987D02*
X039757Y030373D01*
X039857Y030480D02*
X040447Y030480D01*
X040447Y030800D02*
X039857Y030800D01*
X039757Y030987D02*
X039757Y032896D01*
X039437Y032896D02*
X039437Y031180D01*
X039624Y031120D02*
X040447Y031120D01*
X040447Y031440D02*
X038961Y031440D01*
X038797Y031460D02*
X038797Y032896D01*
X038477Y032896D02*
X038477Y031460D01*
X038157Y031460D02*
X038157Y032896D01*
X037837Y032896D02*
X037837Y031460D01*
X037517Y031460D02*
X037517Y032896D01*
X037197Y032896D02*
X037197Y031460D01*
X036877Y031460D02*
X036877Y032896D01*
X036557Y032896D02*
X036557Y031460D01*
X036237Y031460D02*
X036237Y032896D01*
X035917Y032896D02*
X035917Y031460D01*
X035753Y031440D02*
X035353Y031440D01*
X035597Y031284D02*
X035597Y032896D01*
X035277Y032896D02*
X035277Y032038D01*
X035235Y032080D02*
X040447Y032080D01*
X040397Y032323D02*
X040397Y002533D01*
X040447Y002640D02*
X037854Y002640D01*
X037837Y002540D02*
X037837Y001960D01*
X038157Y001960D02*
X038157Y004247D01*
X038170Y004240D02*
X017813Y004240D01*
X017677Y004104D02*
X017677Y003034D01*
X017743Y002960D02*
X017971Y002960D01*
X017949Y002930D02*
X017915Y002863D01*
X017892Y002792D01*
X017880Y002718D01*
X017880Y002698D01*
X018339Y002698D01*
X018339Y003157D01*
X018320Y003157D01*
X018246Y003145D01*
X018174Y003122D01*
X018107Y003088D01*
X018047Y003044D01*
X017994Y002991D01*
X017949Y002930D01*
X017997Y002994D02*
X017997Y004424D01*
X018133Y004560D02*
X037895Y004560D01*
X037892Y004568D02*
X037915Y004497D01*
X037949Y004430D01*
X037994Y004369D01*
X038047Y004316D01*
X038107Y004272D01*
X038174Y004238D01*
X038246Y004215D01*
X038320Y004203D01*
X038339Y004203D01*
X038339Y004662D01*
X037880Y004662D01*
X037880Y004642D01*
X037892Y004568D01*
X037880Y004698D02*
X038339Y004698D01*
X038339Y004662D01*
X038376Y004662D01*
X038376Y004698D01*
X038834Y004698D01*
X038834Y004718D01*
X038822Y004792D01*
X038799Y004863D01*
X038765Y004930D01*
X038721Y004991D01*
X038668Y005044D01*
X038607Y005088D01*
X038540Y005122D01*
X038469Y005145D01*
X038395Y005157D01*
X038376Y005157D01*
X038376Y004698D01*
X038339Y004698D01*
X038339Y005157D01*
X038320Y005157D01*
X038246Y005145D01*
X038174Y005122D01*
X038107Y005088D01*
X038047Y005044D01*
X037994Y004991D01*
X037949Y004930D01*
X037915Y004863D01*
X037892Y004792D01*
X037880Y004718D01*
X037880Y004698D01*
X037924Y004880D02*
X018453Y004880D01*
X018637Y004900D02*
X018637Y003066D01*
X018743Y002960D02*
X018935Y002960D01*
X018957Y002983D02*
X018957Y004900D01*
X019277Y004900D02*
X019277Y003177D01*
X019597Y003118D02*
X019597Y004900D01*
X019917Y004900D02*
X019917Y001960D01*
X019629Y002000D02*
X039864Y002000D01*
X039757Y001960D02*
X039757Y004419D01*
X039765Y004430D02*
X039799Y004497D01*
X039822Y004568D01*
X039834Y004642D01*
X039834Y004662D01*
X039376Y004662D01*
X039376Y004698D01*
X039834Y004698D01*
X039834Y004718D01*
X039822Y004792D01*
X039799Y004863D01*
X039765Y004930D01*
X039721Y004991D01*
X039668Y005044D01*
X039607Y005088D01*
X039540Y005122D01*
X039469Y005145D01*
X039395Y005157D01*
X039376Y005157D01*
X039376Y004698D01*
X039339Y004698D01*
X039339Y004662D01*
X038880Y004662D01*
X038880Y004642D01*
X038892Y004568D01*
X038915Y004497D01*
X038949Y004430D01*
X038994Y004369D01*
X039047Y004316D01*
X039107Y004272D01*
X039174Y004238D01*
X039246Y004215D01*
X039320Y004203D01*
X039339Y004203D01*
X039339Y004662D01*
X039376Y004662D01*
X039376Y004203D01*
X039395Y004203D01*
X039469Y004215D01*
X039540Y004238D01*
X039607Y004272D01*
X039668Y004316D01*
X039721Y004369D01*
X039765Y004430D01*
X039820Y004560D02*
X040447Y004560D01*
X040447Y004240D02*
X039544Y004240D01*
X039437Y004210D02*
X039437Y001960D01*
X039117Y001960D02*
X039117Y004267D01*
X039170Y004240D02*
X038544Y004240D01*
X038540Y004238D02*
X038607Y004272D01*
X038668Y004316D01*
X038721Y004369D01*
X038765Y004430D01*
X038799Y004497D01*
X038822Y004568D01*
X038834Y004642D01*
X038834Y004662D01*
X038376Y004662D01*
X038376Y004203D01*
X038395Y004203D01*
X038469Y004215D01*
X038540Y004238D01*
X038477Y004218D02*
X038477Y001960D01*
X038797Y001960D02*
X038797Y004493D01*
X038820Y004560D02*
X038895Y004560D01*
X038880Y004698D02*
X039339Y004698D01*
X039339Y005157D01*
X039320Y005157D01*
X039246Y005145D01*
X039174Y005122D01*
X039107Y005088D01*
X039047Y005044D01*
X038994Y004991D01*
X038949Y004930D01*
X038915Y004863D01*
X038892Y004792D01*
X038880Y004718D01*
X038880Y004698D01*
X038797Y004698D02*
X038797Y004662D01*
X038797Y004867D02*
X038797Y005444D01*
X038778Y005399D02*
X038854Y005581D01*
X038854Y005779D01*
X038778Y005961D01*
X038639Y006101D01*
X038456Y006177D01*
X038258Y006177D01*
X038076Y006101D01*
X037936Y005961D01*
X037860Y005779D01*
X037860Y005581D01*
X037936Y005399D01*
X038076Y005259D01*
X038258Y005183D01*
X038456Y005183D01*
X038639Y005259D01*
X038778Y005399D01*
X038829Y005520D02*
X038886Y005520D01*
X038860Y005581D02*
X038936Y005399D01*
X039076Y005259D01*
X039258Y005183D01*
X039456Y005183D01*
X039639Y005259D01*
X039778Y005399D01*
X039854Y005581D01*
X039854Y005779D01*
X039778Y005961D01*
X039639Y006101D01*
X039456Y006177D01*
X039258Y006177D01*
X039076Y006101D01*
X038936Y005961D01*
X038860Y005779D01*
X038860Y005581D01*
X038829Y005840D02*
X038886Y005840D01*
X038797Y005916D02*
X038797Y006444D01*
X038812Y006480D02*
X038902Y006480D01*
X038936Y006399D02*
X039076Y006259D01*
X039258Y006183D01*
X039456Y006183D01*
X039639Y006259D01*
X039778Y006399D01*
X039854Y006581D01*
X039854Y006779D01*
X039778Y006961D01*
X039639Y007101D01*
X039456Y007177D01*
X039258Y007177D01*
X039076Y007101D01*
X038936Y006961D01*
X038860Y006779D01*
X038860Y006581D01*
X038936Y006399D01*
X038778Y006399D02*
X038854Y006581D01*
X038854Y006779D01*
X038778Y006961D01*
X038639Y007101D01*
X038456Y007177D01*
X038258Y007177D01*
X038257Y007176D01*
X038244Y007189D01*
X038258Y007183D01*
X038456Y007183D01*
X038639Y007259D01*
X038778Y007399D01*
X038854Y007581D01*
X038854Y007779D01*
X038778Y007961D01*
X038639Y008101D01*
X038456Y008177D01*
X038258Y008177D01*
X038076Y008101D01*
X037936Y007961D01*
X037860Y007779D01*
X037860Y007581D01*
X037866Y007567D01*
X034177Y011256D01*
X034177Y011313D01*
X033990Y011500D01*
X033725Y011500D01*
X033537Y011313D01*
X033537Y011047D01*
X033725Y010860D01*
X033781Y010860D01*
X037861Y006780D01*
X037860Y006779D01*
X037860Y006581D01*
X037936Y006399D01*
X038076Y006259D01*
X038258Y006183D01*
X038456Y006183D01*
X038639Y006259D01*
X038778Y006399D01*
X038477Y006192D02*
X038477Y006168D01*
X038497Y006160D02*
X039218Y006160D01*
X039117Y006118D02*
X039117Y006242D01*
X039437Y006183D02*
X039437Y006177D01*
X039497Y006160D02*
X040447Y006160D01*
X040447Y005840D02*
X039829Y005840D01*
X039757Y005983D02*
X039757Y006377D01*
X039812Y006480D02*
X040447Y006480D01*
X040447Y006800D02*
X039845Y006800D01*
X039757Y006983D02*
X039757Y007377D01*
X039778Y007399D02*
X039854Y007581D01*
X039854Y007779D01*
X039778Y007961D01*
X039639Y008101D01*
X039456Y008177D01*
X039258Y008177D01*
X039076Y008101D01*
X038936Y007961D01*
X038860Y007779D01*
X038860Y007581D01*
X038936Y007399D01*
X039076Y007259D01*
X039258Y007183D01*
X039456Y007183D01*
X039639Y007259D01*
X039778Y007399D01*
X039796Y007440D02*
X040447Y007440D01*
X040447Y007760D02*
X039854Y007760D01*
X039757Y007983D02*
X039757Y008377D01*
X039778Y008399D02*
X039854Y008581D01*
X039854Y008779D01*
X039778Y008961D01*
X039639Y009101D01*
X039456Y009177D01*
X039258Y009177D01*
X039076Y009101D01*
X038936Y008961D01*
X038860Y008779D01*
X038860Y008581D01*
X038936Y008399D01*
X039076Y008259D01*
X039258Y008183D01*
X039456Y008183D01*
X039639Y008259D01*
X039778Y008399D01*
X039779Y008400D02*
X040447Y008400D01*
X040447Y008720D02*
X039854Y008720D01*
X039757Y008983D02*
X039757Y009377D01*
X039740Y009360D02*
X040447Y009360D01*
X040447Y009680D02*
X039854Y009680D01*
X039854Y009779D02*
X039778Y009961D01*
X039639Y010101D01*
X039456Y010177D01*
X039258Y010177D01*
X039076Y010101D01*
X038936Y009961D01*
X038860Y009779D01*
X038860Y009581D01*
X038936Y009399D01*
X039076Y009259D01*
X039258Y009183D01*
X039456Y009183D01*
X039639Y009259D01*
X039778Y009399D01*
X039854Y009581D01*
X039854Y009779D01*
X039757Y009983D02*
X039757Y010377D01*
X039778Y010399D02*
X039854Y010581D01*
X039854Y010779D01*
X039778Y010961D01*
X039639Y011101D01*
X039456Y011177D01*
X039258Y011177D01*
X039076Y011101D01*
X038936Y010961D01*
X038860Y010779D01*
X038860Y010581D01*
X038936Y010399D01*
X039076Y010259D01*
X039258Y010183D01*
X039456Y010183D01*
X039639Y010259D01*
X039778Y010399D01*
X039700Y010320D02*
X040447Y010320D01*
X040447Y010640D02*
X039854Y010640D01*
X039779Y010960D02*
X040447Y010960D01*
X040447Y011280D02*
X039660Y011280D01*
X039639Y011259D02*
X039778Y011399D01*
X039854Y011581D01*
X039854Y011779D01*
X039778Y011961D01*
X039639Y012101D01*
X039456Y012177D01*
X039258Y012177D01*
X039076Y012101D01*
X038936Y011961D01*
X038860Y011779D01*
X038860Y011581D01*
X038936Y011399D01*
X039076Y011259D01*
X039258Y011183D01*
X039456Y011183D01*
X039639Y011259D01*
X039757Y011377D02*
X039757Y010983D01*
X039437Y011177D02*
X039437Y011183D01*
X039117Y011242D02*
X039117Y011118D01*
X039055Y011280D02*
X038660Y011280D01*
X038639Y011259D02*
X038778Y011399D01*
X038854Y011581D01*
X038854Y011779D01*
X038778Y011961D01*
X038639Y012101D01*
X038456Y012177D01*
X038258Y012177D01*
X038076Y012101D01*
X037936Y011961D01*
X037860Y011779D01*
X037860Y011581D01*
X037936Y011399D01*
X038076Y011259D01*
X038258Y011183D01*
X038456Y011183D01*
X038639Y011259D01*
X038639Y011101D02*
X038456Y011177D01*
X038258Y011177D01*
X038076Y011101D01*
X037936Y010961D01*
X037860Y010779D01*
X037860Y010581D01*
X037936Y010399D01*
X038076Y010259D01*
X038258Y010183D01*
X038456Y010183D01*
X038639Y010259D01*
X038778Y010399D01*
X038854Y010581D01*
X038854Y010779D01*
X038778Y010961D01*
X038639Y011101D01*
X038477Y011168D02*
X038477Y011192D01*
X038157Y011225D02*
X038157Y011135D01*
X038055Y011280D02*
X034177Y011280D01*
X034317Y011116D02*
X034317Y012576D01*
X034311Y012560D02*
X037869Y012560D01*
X037860Y012581D02*
X037936Y012399D01*
X038076Y012259D01*
X038258Y012183D01*
X038456Y012183D01*
X038639Y012259D01*
X038778Y012399D01*
X038854Y012581D01*
X038854Y012779D01*
X038778Y012961D01*
X038639Y013101D01*
X038456Y013177D01*
X038258Y013177D01*
X038076Y013101D01*
X037936Y012961D01*
X037860Y012779D01*
X037860Y012581D01*
X037902Y012880D02*
X034337Y012880D01*
X034337Y013200D02*
X038218Y013200D01*
X038157Y013225D02*
X038157Y013135D01*
X038477Y013168D02*
X038477Y013192D01*
X038497Y013200D02*
X039218Y013200D01*
X039258Y013177D02*
X039076Y013101D01*
X038936Y012961D01*
X038860Y012779D01*
X038860Y012581D01*
X038936Y012399D01*
X039076Y012259D01*
X039258Y012183D01*
X039456Y012183D01*
X039639Y012259D01*
X039778Y012399D01*
X039854Y012581D01*
X039854Y012779D01*
X039778Y012961D01*
X039639Y013101D01*
X039456Y013177D01*
X039258Y013177D01*
X039117Y013118D02*
X039117Y013242D01*
X039437Y013183D02*
X039437Y013177D01*
X039497Y013200D02*
X040447Y013200D01*
X040447Y012880D02*
X039812Y012880D01*
X039757Y012983D02*
X039757Y013377D01*
X039829Y013520D02*
X040447Y013520D01*
X039857Y014180D02*
X039857Y017930D01*
X039607Y018180D01*
X038357Y018180D01*
X038357Y018680D01*
X038157Y019135D02*
X038157Y019225D01*
X038055Y019280D02*
X037887Y019280D01*
X037887Y018960D02*
X037935Y018960D01*
X038477Y019168D02*
X038477Y019192D01*
X038660Y019280D02*
X039055Y019280D01*
X039117Y019242D02*
X039117Y019118D01*
X038935Y018960D02*
X038779Y018960D01*
X038797Y018916D02*
X038797Y019444D01*
X038854Y019600D02*
X038860Y019600D01*
X039357Y019680D02*
X038857Y020180D01*
X037957Y020180D01*
X037902Y020880D02*
X037887Y020880D01*
X038845Y020560D02*
X038869Y020560D01*
X039437Y020183D02*
X039437Y020177D01*
X039593Y020240D02*
X040447Y020240D01*
X040447Y019920D02*
X039796Y019920D01*
X039757Y019983D02*
X039757Y020377D01*
X039845Y020560D02*
X040447Y020560D01*
X040447Y020880D02*
X039812Y020880D01*
X039757Y020983D02*
X039757Y021377D01*
X039829Y021520D02*
X040447Y021520D01*
X040447Y021200D02*
X039497Y021200D01*
X039437Y021183D02*
X039437Y021177D01*
X038218Y022160D02*
X037887Y022160D01*
X038157Y022135D02*
X038157Y022360D01*
X038360Y022480D02*
X040447Y022480D01*
X038797Y024266D02*
X038797Y028413D01*
X038857Y028473D02*
X038857Y028887D01*
X038564Y029180D01*
X038857Y029473D01*
X038857Y029887D01*
X038564Y030180D01*
X038150Y030180D01*
X037857Y029887D01*
X037857Y029576D01*
X037620Y029339D01*
X037577Y029236D01*
X037577Y029210D01*
X035870Y029210D01*
X036000Y029340D01*
X036091Y029561D01*
X036091Y029799D01*
X036000Y030020D01*
X035831Y030189D01*
X035797Y030203D01*
X035952Y030203D01*
X036128Y030275D01*
X036262Y030410D01*
X036334Y030585D01*
X036334Y030775D01*
X036283Y030900D01*
X036456Y030900D01*
X036434Y030855D01*
X036411Y030787D01*
X036400Y030716D01*
X036400Y030689D01*
X036849Y030689D01*
X036849Y030671D01*
X036866Y030671D01*
X036866Y030223D01*
X036893Y030223D01*
X036964Y030234D01*
X037033Y030256D01*
X037097Y030289D01*
X037155Y030331D01*
X037206Y030382D01*
X037248Y030440D01*
X037281Y030505D01*
X037303Y030573D01*
X037314Y030644D01*
X037314Y030671D01*
X036866Y030671D01*
X036866Y030689D01*
X037314Y030689D01*
X037314Y030716D01*
X037303Y030787D01*
X037281Y030855D01*
X037258Y030900D01*
X037898Y030900D01*
X037877Y030879D01*
X037877Y030700D01*
X038337Y030700D01*
X038337Y030660D01*
X037877Y030660D01*
X037877Y030481D01*
X038158Y030200D01*
X038337Y030200D01*
X038337Y030660D01*
X038377Y030660D01*
X038377Y030200D01*
X038556Y030200D01*
X038837Y030481D01*
X038837Y030660D01*
X038377Y030660D01*
X038377Y030700D01*
X038837Y030700D01*
X038837Y030804D01*
X038857Y030784D01*
X038857Y030473D01*
X039150Y030180D01*
X039564Y030180D01*
X039150Y030180D01*
X038857Y029887D01*
X038857Y029473D01*
X039150Y029180D01*
X038857Y028887D01*
X038857Y028473D01*
X038637Y028253D01*
X038637Y024106D01*
X039077Y024546D01*
X039077Y028253D01*
X038857Y028473D01*
X038857Y028560D02*
X038857Y028560D01*
X038857Y028880D02*
X038857Y028880D01*
X038797Y028947D02*
X038797Y029413D01*
X038857Y029520D02*
X038857Y029520D01*
X038857Y029840D02*
X038857Y029840D01*
X038797Y029947D02*
X038797Y030441D01*
X038836Y030480D02*
X038857Y030480D01*
X038797Y030660D02*
X038797Y030700D01*
X038837Y030800D02*
X038841Y030800D01*
X038477Y030700D02*
X038477Y030660D01*
X038377Y030480D02*
X038337Y030480D01*
X038157Y030660D02*
X038157Y030700D01*
X037877Y030800D02*
X037299Y030800D01*
X037197Y030689D02*
X037197Y030671D01*
X037268Y030480D02*
X037878Y030480D01*
X038157Y030201D02*
X038157Y030180D01*
X038130Y030160D02*
X035860Y030160D01*
X035917Y030203D02*
X035917Y030102D01*
X036074Y029840D02*
X037857Y029840D01*
X037837Y029556D02*
X037837Y030900D01*
X037517Y030900D02*
X037517Y029210D01*
X037197Y029210D02*
X037197Y030373D01*
X036866Y030480D02*
X036849Y030480D01*
X036849Y030671D02*
X036849Y030223D01*
X036821Y030223D01*
X036750Y030234D01*
X036682Y030256D01*
X036618Y030289D01*
X036559Y030331D01*
X036509Y030382D01*
X036466Y030440D01*
X036434Y030505D01*
X036411Y030573D01*
X036400Y030644D01*
X036400Y030671D01*
X036849Y030671D01*
X036877Y030671D02*
X036877Y030689D01*
X036557Y030671D02*
X036557Y030689D01*
X036416Y030800D02*
X036324Y030800D01*
X036291Y030480D02*
X036446Y030480D01*
X036557Y030333D02*
X036557Y029210D01*
X036237Y029210D02*
X036237Y030385D01*
X035857Y030680D02*
X035857Y031180D01*
X038857Y031180D01*
X039357Y030680D01*
X039437Y030180D02*
X039437Y030180D01*
X039584Y030160D02*
X040447Y030160D01*
X040447Y029840D02*
X039857Y029840D01*
X039913Y029520D02*
X040447Y029520D01*
X039461Y029180D02*
X039150Y029180D01*
X039461Y029180D01*
X039461Y029180D01*
X039437Y029180D02*
X039437Y029180D01*
X039130Y029200D02*
X038584Y029200D01*
X038564Y029180D02*
X038253Y029180D01*
X038253Y029180D01*
X038564Y029180D01*
X038477Y029180D02*
X038477Y029180D01*
X038357Y028680D02*
X038357Y023930D01*
X038107Y023680D01*
X038107Y023180D02*
X039357Y024430D01*
X039357Y028680D01*
X039077Y028240D02*
X038637Y028240D01*
X038637Y027920D02*
X039077Y027920D01*
X039077Y027600D02*
X038637Y027600D01*
X038637Y027280D02*
X039077Y027280D01*
X039077Y026960D02*
X038637Y026960D01*
X038637Y026640D02*
X039077Y026640D01*
X039077Y026320D02*
X038637Y026320D01*
X038637Y026000D02*
X039077Y026000D01*
X039077Y025680D02*
X038637Y025680D01*
X038637Y025360D02*
X039077Y025360D01*
X039077Y025040D02*
X038637Y025040D01*
X038637Y024720D02*
X039077Y024720D01*
X038931Y024400D02*
X038637Y024400D01*
X038077Y024400D02*
X037887Y024400D01*
X037887Y024720D02*
X038077Y024720D01*
X038077Y025040D02*
X037887Y025040D01*
X037887Y025360D02*
X038077Y025360D01*
X038077Y025680D02*
X037887Y025680D01*
X037881Y026000D02*
X038077Y026000D01*
X037837Y026096D02*
X037837Y028650D01*
X037857Y028560D02*
X032383Y028560D01*
X032397Y028574D02*
X032397Y025816D01*
X032380Y025775D02*
X032380Y025585D01*
X032453Y025410D01*
X032587Y025275D01*
X032762Y025203D01*
X032952Y025203D01*
X033128Y025275D01*
X033262Y025410D01*
X033334Y025585D01*
X033334Y025775D01*
X033262Y025950D01*
X033128Y026085D01*
X032952Y026157D01*
X032762Y026157D01*
X032587Y026085D01*
X032453Y025950D01*
X032380Y025775D01*
X032334Y025775D02*
X032334Y025585D01*
X032262Y025410D01*
X032128Y025275D01*
X031952Y025203D01*
X031762Y025203D01*
X031587Y025275D01*
X031453Y025410D01*
X031380Y025585D01*
X031380Y025775D01*
X031453Y025950D01*
X031587Y026085D01*
X031762Y026157D01*
X031952Y026157D01*
X032128Y026085D01*
X032262Y025950D01*
X032334Y025775D01*
X032334Y025680D02*
X032380Y025680D01*
X032397Y025544D02*
X032397Y023786D01*
X032423Y023760D02*
X037077Y023760D01*
X037077Y023440D02*
X032743Y023440D01*
X032717Y023466D02*
X032717Y025222D01*
X032502Y025360D02*
X032212Y025360D01*
X032077Y025255D02*
X032077Y024106D01*
X032103Y024080D02*
X037077Y024080D01*
X037077Y024400D02*
X031783Y024400D01*
X031757Y024426D02*
X031757Y025205D01*
X031502Y025360D02*
X031212Y025360D01*
X031437Y025447D02*
X031437Y024746D01*
X031463Y024720D02*
X037077Y024720D01*
X037357Y025180D02*
X037357Y016680D01*
X038357Y015680D01*
X037860Y015760D02*
X036387Y015760D01*
X036387Y016080D02*
X037561Y016080D01*
X037517Y016124D02*
X037517Y015460D01*
X037197Y015460D02*
X037197Y016444D01*
X037241Y016400D02*
X036387Y016400D01*
X036387Y016720D02*
X037077Y016720D01*
X037077Y017040D02*
X036387Y017040D01*
X036557Y017227D02*
X036557Y015460D01*
X036877Y015460D02*
X036877Y017060D01*
X036857Y017380D02*
X036857Y020180D01*
X036577Y019600D02*
X036083Y019600D01*
X035827Y018960D02*
X033637Y018960D01*
X033637Y018640D02*
X035827Y018640D01*
X036387Y017360D02*
X036537Y017360D01*
X037607Y017180D02*
X037607Y025930D01*
X036857Y026680D01*
X037357Y027180D01*
X037590Y026960D02*
X038077Y026960D01*
X038077Y027280D02*
X037677Y027280D01*
X037517Y027473D02*
X037517Y028650D01*
X037197Y028650D02*
X037197Y027473D01*
X037037Y027280D02*
X031103Y027280D01*
X031117Y027294D02*
X031117Y026089D01*
X031212Y026000D02*
X031502Y026000D01*
X031437Y025913D02*
X031437Y027614D01*
X031423Y027600D02*
X038077Y027600D01*
X038077Y027920D02*
X031743Y027920D01*
X031757Y027934D02*
X031757Y026155D01*
X032077Y026105D02*
X032077Y028254D01*
X032063Y028240D02*
X038077Y028240D01*
X037857Y028930D02*
X037857Y029180D01*
X038357Y029680D01*
X038477Y030180D02*
X038477Y030200D01*
X038584Y030160D02*
X039130Y030160D01*
X039117Y030147D02*
X039117Y030213D01*
X039117Y029213D02*
X039117Y029147D01*
X037857Y028930D02*
X032357Y028930D01*
X029357Y025930D01*
X029357Y021680D01*
X028886Y021840D02*
X028829Y021840D01*
X028557Y021225D02*
X028557Y018500D01*
X028295Y018320D02*
X024637Y018320D01*
X024637Y018000D02*
X028327Y018000D01*
X028327Y017680D02*
X025427Y017680D01*
X025427Y017813D02*
X025240Y018000D01*
X024975Y018000D01*
X024787Y017813D01*
X024787Y017547D01*
X024827Y017507D01*
X024827Y014603D01*
X024787Y014563D01*
X024787Y014297D01*
X024975Y014110D01*
X025240Y014110D01*
X025427Y014297D01*
X025427Y014563D01*
X025387Y014603D01*
X025387Y017507D01*
X025427Y017547D01*
X025427Y017813D01*
X025357Y017883D02*
X025357Y021183D01*
X025218Y021200D02*
X024637Y021200D01*
X024717Y021337D02*
X024717Y011710D01*
X024637Y011920D02*
X028415Y011920D01*
X028557Y011860D02*
X028557Y011710D01*
X028237Y011710D02*
X028237Y012360D01*
X028287Y012240D02*
X024637Y012240D01*
X024637Y012560D02*
X028037Y012560D01*
X028105Y012880D02*
X024637Y012880D01*
X024637Y013200D02*
X028327Y013200D01*
X028237Y013000D02*
X028237Y021192D01*
X028218Y021200D02*
X027080Y021200D01*
X026957Y021110D02*
X026957Y011710D01*
X026637Y011710D02*
X026637Y021197D01*
X026635Y021200D02*
X026497Y021200D01*
X026317Y021183D02*
X026317Y011710D01*
X025997Y011710D02*
X025997Y021337D01*
X025886Y021520D02*
X025829Y021520D01*
X025677Y021297D02*
X025677Y011710D01*
X025357Y011710D02*
X025357Y014227D01*
X025290Y014160D02*
X028327Y014160D01*
X028327Y013840D02*
X024637Y013840D01*
X024637Y013520D02*
X028327Y013520D01*
X028607Y012930D02*
X028607Y018180D01*
X028327Y017360D02*
X025387Y017360D01*
X025387Y017040D02*
X028327Y017040D01*
X028327Y016720D02*
X025387Y016720D01*
X025387Y016400D02*
X028327Y016400D01*
X028327Y016080D02*
X025387Y016080D01*
X025387Y015760D02*
X028327Y015760D01*
X028327Y015440D02*
X025387Y015440D01*
X025387Y015120D02*
X028327Y015120D01*
X028327Y014800D02*
X025387Y014800D01*
X025427Y014480D02*
X028327Y014480D01*
X028857Y014680D02*
X030357Y016180D01*
X032357Y018180D01*
X032357Y021680D01*
X032397Y022177D02*
X032397Y022994D01*
X032271Y023120D02*
X029637Y023120D01*
X027917Y021916D02*
X027917Y025203D01*
X027857Y025680D02*
X026857Y024680D01*
X026857Y021430D01*
X027177Y021520D02*
X027886Y021520D01*
X027917Y021444D02*
X027917Y011710D01*
X028607Y012180D02*
X028857Y012430D01*
X028857Y014680D01*
X029373Y014800D02*
X030327Y014800D01*
X030327Y014480D02*
X029677Y014480D01*
X029517Y014723D02*
X029517Y014944D01*
X029693Y015120D02*
X030327Y015120D01*
X030327Y015440D02*
X030013Y015440D01*
X030157Y015584D02*
X030157Y013126D01*
X030231Y013200D02*
X029637Y013200D01*
X029637Y012880D02*
X029911Y012880D01*
X029837Y012806D02*
X029837Y015264D01*
X029517Y015736D02*
X029517Y017110D01*
X029607Y017430D02*
X031857Y019680D01*
X032070Y019920D02*
X032077Y019920D01*
X032077Y019280D02*
X031853Y019280D01*
X031757Y019184D02*
X031757Y017976D01*
X031781Y018000D02*
X030573Y018000D01*
X030477Y017904D02*
X030477Y016696D01*
X030501Y016720D02*
X028887Y016720D01*
X028887Y016400D02*
X030125Y016400D01*
X030157Y016433D02*
X030157Y017584D01*
X030253Y017680D02*
X031461Y017680D01*
X031437Y017656D02*
X031437Y018864D01*
X031533Y018960D02*
X032077Y018960D01*
X032077Y018640D02*
X031213Y018640D01*
X031117Y018544D02*
X031117Y017336D01*
X031141Y017360D02*
X029933Y017360D01*
X029837Y017207D02*
X029837Y016056D01*
X029861Y016080D02*
X028887Y016080D01*
X028887Y015760D02*
X029541Y015760D01*
X029221Y015440D02*
X028887Y015440D01*
X029197Y015416D02*
X029197Y021208D01*
X029218Y021200D02*
X028497Y021200D01*
X027886Y021840D02*
X027137Y021840D01*
X026577Y022356D02*
X026516Y022417D01*
X026413Y022460D01*
X024052Y022460D01*
X023949Y022417D01*
X023870Y022339D01*
X023870Y022339D01*
X023634Y022103D01*
X023456Y022177D01*
X023258Y022177D01*
X023257Y022176D01*
X021637Y023796D01*
X021637Y025255D01*
X021762Y025203D01*
X021952Y025203D01*
X022128Y025275D01*
X022262Y025410D01*
X022334Y025585D01*
X022334Y025775D01*
X022262Y025950D01*
X022128Y026085D01*
X021952Y026157D01*
X021762Y026157D01*
X021637Y026105D01*
X021637Y026257D01*
X021677Y026297D01*
X021677Y026563D01*
X021490Y026750D01*
X021225Y026750D01*
X021037Y026563D01*
X021037Y026297D01*
X021077Y026257D01*
X021077Y026105D01*
X020952Y026157D01*
X020762Y026157D01*
X020587Y026085D01*
X020453Y025950D01*
X020380Y025775D01*
X020380Y025585D01*
X020453Y025410D01*
X020577Y025285D01*
X020577Y022296D01*
X020458Y022176D01*
X020456Y022177D01*
X020258Y022177D01*
X020137Y022127D01*
X020137Y024736D01*
X020095Y024839D01*
X020016Y024917D01*
X019334Y025599D01*
X019334Y025775D01*
X019262Y025950D01*
X019128Y026085D01*
X018972Y026149D01*
X020973Y028150D01*
X027077Y028150D01*
X027077Y026296D01*
X026938Y026157D01*
X026762Y026157D01*
X026587Y026085D01*
X026453Y025950D01*
X026380Y025775D01*
X026380Y025585D01*
X026453Y025410D01*
X026587Y025275D01*
X026762Y025203D01*
X026952Y025203D01*
X027007Y025225D01*
X026699Y024917D01*
X026620Y024839D01*
X026577Y024736D01*
X026577Y022356D01*
X026577Y022480D02*
X022953Y022480D01*
X022797Y022636D02*
X022797Y025203D01*
X022762Y025203D02*
X022952Y025203D01*
X023128Y025275D01*
X023262Y025410D01*
X023334Y025585D01*
X023334Y025775D01*
X023262Y025950D01*
X023128Y026085D01*
X022952Y026157D01*
X022762Y026157D01*
X022587Y026085D01*
X022453Y025950D01*
X022380Y025775D01*
X022380Y025585D01*
X022453Y025410D01*
X022587Y025275D01*
X022762Y025203D01*
X022502Y025360D02*
X022212Y025360D01*
X022157Y025305D02*
X022157Y023276D01*
X022313Y023120D02*
X026577Y023120D01*
X026577Y022800D02*
X022633Y022800D01*
X022477Y022956D02*
X022477Y025385D01*
X022380Y025680D02*
X022334Y025680D01*
X022477Y025975D02*
X022477Y028150D01*
X022157Y028150D02*
X022157Y026055D01*
X022212Y026000D02*
X022502Y026000D01*
X022797Y026157D02*
X022797Y028150D01*
X023117Y028150D02*
X023117Y026089D01*
X023212Y026000D02*
X023502Y026000D01*
X023453Y025950D02*
X023380Y025775D01*
X023380Y025585D01*
X023453Y025410D01*
X023587Y025275D01*
X023762Y025203D01*
X023952Y025203D01*
X024128Y025275D01*
X024262Y025410D01*
X024334Y025585D01*
X024334Y025775D01*
X024262Y025950D01*
X024128Y026085D01*
X023952Y026157D01*
X023762Y026157D01*
X023587Y026085D01*
X023453Y025950D01*
X023437Y025913D02*
X023437Y028150D01*
X023757Y028150D02*
X023757Y026155D01*
X024077Y026105D02*
X024077Y028150D01*
X024397Y028150D02*
X024397Y025816D01*
X024380Y025775D02*
X024380Y025585D01*
X024453Y025410D01*
X024587Y025275D01*
X024762Y025203D01*
X024952Y025203D01*
X025128Y025275D01*
X025262Y025410D01*
X025334Y025585D01*
X025334Y025775D01*
X025262Y025950D01*
X025128Y026085D01*
X024952Y026157D01*
X024762Y026157D01*
X024587Y026085D01*
X024453Y025950D01*
X024380Y025775D01*
X024380Y025680D02*
X024334Y025680D01*
X024397Y025544D02*
X024397Y022460D01*
X024077Y022460D02*
X024077Y025255D01*
X024212Y025360D02*
X024502Y025360D01*
X024717Y025222D02*
X024717Y022460D01*
X025037Y022460D02*
X025037Y025238D01*
X025212Y025360D02*
X025502Y025360D01*
X025453Y025410D02*
X025587Y025275D01*
X025762Y025203D01*
X025952Y025203D01*
X026128Y025275D01*
X026262Y025410D01*
X026334Y025585D01*
X026334Y025775D01*
X026262Y025950D01*
X026128Y026085D01*
X025952Y026157D01*
X025762Y026157D01*
X025587Y026085D01*
X025453Y025950D01*
X025380Y025775D01*
X025380Y025585D01*
X025453Y025410D01*
X025380Y025680D02*
X025334Y025680D01*
X025212Y026000D02*
X025502Y026000D01*
X025677Y026122D02*
X025677Y028150D01*
X025357Y028150D02*
X025357Y022460D01*
X025677Y022460D02*
X025677Y025238D01*
X025997Y025222D02*
X025997Y022460D01*
X026317Y022460D02*
X026317Y025544D01*
X026334Y025680D02*
X026380Y025680D01*
X026317Y025816D02*
X026317Y028150D01*
X025997Y028150D02*
X025997Y026138D01*
X026212Y026000D02*
X026502Y026000D01*
X026637Y026105D02*
X026637Y028150D01*
X026957Y028150D02*
X026957Y026176D01*
X027077Y026320D02*
X021677Y026320D01*
X021837Y026157D02*
X021837Y028150D01*
X021517Y028150D02*
X021517Y026723D01*
X021600Y026640D02*
X027077Y026640D01*
X027077Y026960D02*
X019783Y026960D01*
X019917Y027094D02*
X019917Y025016D01*
X019893Y025040D02*
X020577Y025040D01*
X020557Y025305D02*
X020557Y022276D01*
X020577Y022480D02*
X020137Y022480D01*
X020137Y022160D02*
X020218Y022160D01*
X020237Y022168D02*
X020237Y027414D01*
X020103Y027280D02*
X027077Y027280D01*
X027077Y027600D02*
X020423Y027600D01*
X020557Y027734D02*
X020557Y026055D01*
X020502Y026000D02*
X019212Y026000D01*
X019277Y025913D02*
X019277Y026454D01*
X019143Y026320D02*
X021037Y026320D01*
X020877Y026157D02*
X020877Y028054D01*
X020743Y027920D02*
X027077Y027920D01*
X027637Y027920D02*
X030951Y027920D01*
X030797Y027766D02*
X030797Y029157D01*
X030757Y029200D02*
X027637Y029200D01*
X027637Y028880D02*
X031911Y028880D01*
X031757Y028726D02*
X031757Y029080D01*
X031957Y029200D02*
X032277Y029200D01*
X032077Y029046D02*
X032077Y029721D01*
X032152Y029520D02*
X031957Y029520D01*
X031437Y029080D02*
X031437Y028406D01*
X031591Y028560D02*
X027637Y028560D01*
X027357Y028430D02*
X020857Y028430D01*
X018357Y025930D01*
X018357Y025430D01*
X018857Y024930D01*
X018857Y022180D01*
X019357Y021680D01*
X019857Y021430D02*
X020107Y021180D01*
X021357Y021180D01*
X021357Y021680D01*
X020857Y022180D02*
X020857Y025680D01*
X020380Y025680D02*
X019334Y025680D01*
X019573Y025360D02*
X020502Y025360D01*
X020577Y024720D02*
X020137Y024720D01*
X019857Y024680D02*
X019857Y021430D01*
X020357Y021680D02*
X020857Y022180D01*
X020577Y022800D02*
X020137Y022800D01*
X020137Y023120D02*
X020577Y023120D01*
X020577Y023440D02*
X020137Y023440D01*
X020137Y023760D02*
X020577Y023760D01*
X020577Y024080D02*
X020137Y024080D01*
X020137Y024400D02*
X020577Y024400D01*
X019857Y024680D02*
X018857Y025680D01*
X018317Y026286D02*
X018317Y027494D01*
X018423Y027600D02*
X019631Y027600D01*
X019597Y027566D02*
X019597Y028717D01*
X019677Y028880D02*
X027077Y028880D01*
X026957Y028710D02*
X026957Y029298D01*
X026860Y029200D02*
X027077Y029200D01*
X027074Y029520D02*
X027077Y029520D01*
X027637Y029520D02*
X030757Y029520D01*
X030757Y029840D02*
X027637Y029840D01*
X027637Y030160D02*
X030757Y030160D01*
X030797Y030203D02*
X030797Y030227D01*
X031117Y030280D02*
X031117Y030304D01*
X031268Y030480D02*
X031377Y030480D01*
X031314Y030689D02*
X030866Y030689D01*
X030866Y031137D01*
X030893Y031137D01*
X030964Y031126D01*
X031033Y031104D01*
X031097Y031071D01*
X031155Y031029D01*
X031206Y030978D01*
X031248Y030920D01*
X031281Y030855D01*
X031303Y030787D01*
X031314Y030716D01*
X031314Y030689D01*
X031299Y030800D02*
X031377Y030800D01*
X031117Y030689D02*
X031117Y030671D01*
X030866Y030800D02*
X030849Y030800D01*
X030797Y030689D02*
X030797Y030671D01*
X030477Y030671D02*
X030477Y030689D01*
X030416Y030800D02*
X030324Y030800D01*
X030334Y030775D02*
X030262Y030950D01*
X030128Y031085D01*
X029952Y031157D01*
X029762Y031157D01*
X029587Y031085D01*
X029453Y030950D01*
X029380Y030775D01*
X029380Y030585D01*
X029453Y030410D01*
X029587Y030275D01*
X029762Y030203D01*
X029952Y030203D01*
X030128Y030275D01*
X030262Y030410D01*
X030334Y030585D01*
X030334Y030775D01*
X030477Y030935D02*
X030477Y032896D01*
X030157Y032896D02*
X030157Y031055D01*
X030042Y031120D02*
X030732Y031120D01*
X030797Y031133D02*
X030797Y032896D01*
X031117Y032896D02*
X031117Y031056D01*
X030983Y031120D02*
X031377Y031120D01*
X031361Y031440D02*
X028070Y031440D01*
X027917Y031344D02*
X027917Y031133D01*
X027893Y031137D02*
X027866Y031137D01*
X027866Y030689D01*
X028314Y030689D01*
X028314Y030716D01*
X028303Y030787D01*
X028281Y030855D01*
X028248Y030920D01*
X028206Y030978D01*
X028155Y031029D01*
X028097Y031071D01*
X028033Y031104D01*
X027964Y031126D01*
X027893Y031137D01*
X027866Y031120D02*
X027849Y031120D01*
X027732Y031120D02*
X027693Y031120D01*
X027983Y031120D02*
X029673Y031120D01*
X029837Y031157D02*
X029837Y032896D01*
X029517Y032896D02*
X029517Y031015D01*
X029391Y030800D02*
X028299Y030800D01*
X028237Y030689D02*
X028237Y030671D01*
X028268Y030480D02*
X029424Y030480D01*
X029517Y030345D02*
X029517Y026486D01*
X029671Y026640D02*
X027637Y026640D01*
X027637Y026320D02*
X029351Y026320D01*
X029197Y026166D02*
X029197Y032896D01*
X028237Y032896D02*
X028237Y030935D01*
X027866Y030800D02*
X027849Y030800D01*
X027917Y030689D02*
X027917Y030671D01*
X027866Y030480D02*
X027849Y030480D01*
X027917Y030227D02*
X027917Y026157D01*
X028212Y026000D02*
X029083Y026000D01*
X029077Y025680D02*
X028334Y025680D01*
X028237Y025975D02*
X028237Y030425D01*
X027357Y031180D02*
X027357Y028430D01*
X027357Y026180D01*
X026857Y025680D01*
X026502Y025360D02*
X026212Y025360D01*
X026637Y025255D02*
X026637Y024856D01*
X026577Y024720D02*
X021637Y024720D01*
X021637Y024400D02*
X026577Y024400D01*
X026577Y024080D02*
X021637Y024080D01*
X021673Y023760D02*
X026577Y023760D01*
X026577Y023440D02*
X021993Y023440D01*
X021837Y023596D02*
X021837Y025203D01*
X021637Y025040D02*
X026821Y025040D01*
X026957Y025176D02*
X026957Y025205D01*
X025037Y026122D02*
X025037Y028150D01*
X024717Y028150D02*
X024717Y026138D01*
X024502Y026000D02*
X024212Y026000D01*
X023380Y025680D02*
X023334Y025680D01*
X023437Y025447D02*
X023437Y022177D01*
X023497Y022160D02*
X023691Y022160D01*
X023757Y022226D02*
X023757Y025205D01*
X023502Y025360D02*
X023212Y025360D01*
X023117Y025271D02*
X023117Y022316D01*
X023357Y021680D02*
X021357Y023680D01*
X021357Y026430D01*
X021115Y026640D02*
X019463Y026640D01*
X019597Y026774D02*
X019597Y025336D01*
X018607Y024680D02*
X017857Y025430D01*
X017857Y025680D01*
X017857Y027430D01*
X019357Y028930D01*
X019597Y029143D02*
X019597Y030900D01*
X019299Y030800D02*
X020391Y030800D01*
X020237Y030900D02*
X020237Y028206D01*
X020271Y028240D02*
X019063Y028240D01*
X018957Y028134D02*
X018957Y026926D01*
X018991Y026960D02*
X018137Y026960D01*
X018137Y026640D02*
X018671Y026640D01*
X018637Y026606D02*
X018637Y027814D01*
X018743Y027920D02*
X019951Y027920D01*
X019917Y027886D02*
X019917Y030900D01*
X019277Y030900D02*
X019277Y030863D01*
X019277Y030689D02*
X019277Y030671D01*
X019277Y030497D02*
X019277Y029250D01*
X019175Y029200D02*
X017860Y029200D01*
X017997Y029338D02*
X017997Y027966D01*
X017951Y027920D02*
X013637Y027920D01*
X013637Y027600D02*
X017631Y027600D01*
X017677Y027646D02*
X017677Y029108D01*
X017357Y029086D02*
X017357Y026326D01*
X017363Y026320D02*
X017577Y026320D01*
X017577Y026640D02*
X017043Y026640D01*
X017037Y026646D02*
X017037Y029285D01*
X017123Y029200D02*
X016482Y029200D01*
X016397Y029148D02*
X016397Y027343D01*
X016427Y027280D02*
X017577Y027280D01*
X017577Y026960D02*
X016723Y026960D01*
X016717Y026966D02*
X016717Y029641D01*
X016696Y029520D02*
X016838Y029520D01*
X017357Y029680D02*
X017491Y029680D01*
X018074Y029520D02*
X021757Y029520D01*
X021757Y029200D02*
X019540Y029200D01*
X019383Y028560D02*
X020591Y028560D01*
X020557Y028526D02*
X020557Y030305D01*
X020424Y030480D02*
X019268Y030480D01*
X018957Y030671D02*
X018957Y030689D01*
X018866Y030800D02*
X018849Y030800D01*
X018637Y030689D02*
X018637Y030671D01*
X018416Y030800D02*
X018373Y030800D01*
X018317Y030544D02*
X018317Y028286D01*
X018271Y028240D02*
X013637Y028240D01*
X013637Y027280D02*
X015787Y027280D01*
X016077Y027500D02*
X016077Y029080D01*
X015757Y029187D02*
X015757Y026155D01*
X015502Y026000D02*
X015212Y026000D01*
X015117Y026089D02*
X015117Y029214D01*
X015104Y029200D02*
X015745Y029200D01*
X015530Y029520D02*
X015318Y029520D01*
X015318Y029840D02*
X015530Y029840D01*
X015745Y030160D02*
X015104Y030160D01*
X015117Y030146D02*
X015117Y030271D01*
X015291Y030480D02*
X015424Y030480D01*
X015437Y030447D02*
X015437Y025913D01*
X015380Y025680D02*
X015334Y025680D01*
X015437Y025447D02*
X015437Y023246D01*
X015563Y023120D02*
X017077Y023120D01*
X017077Y023440D02*
X015243Y023440D01*
X015117Y023566D02*
X015117Y025271D01*
X015212Y025360D02*
X015502Y025360D01*
X015757Y025205D02*
X015757Y022926D01*
X015883Y022800D02*
X017108Y022800D01*
X017077Y023760D02*
X014923Y023760D01*
X014797Y023886D02*
X014797Y025203D01*
X014502Y025360D02*
X014212Y025360D01*
X014157Y025305D02*
X014157Y024526D01*
X014283Y024400D02*
X017077Y024400D01*
X017077Y024720D02*
X013963Y024720D01*
X013837Y024846D02*
X013837Y025203D01*
X013643Y025040D02*
X017077Y025040D01*
X017077Y024080D02*
X014603Y024080D01*
X014477Y024206D02*
X014477Y025385D01*
X014380Y025680D02*
X014334Y025680D01*
X014797Y026157D02*
X014797Y029080D01*
X015757Y030173D02*
X015757Y030205D01*
X015391Y030800D02*
X015324Y030800D01*
X015437Y030913D02*
X015437Y031322D01*
X015361Y031440D02*
X015353Y031440D01*
X015117Y031192D02*
X015117Y031089D01*
X015042Y031120D02*
X015673Y031120D01*
X015437Y032038D02*
X015437Y032896D01*
X015117Y032896D02*
X015117Y032168D01*
X015235Y032080D02*
X015479Y032080D01*
X015757Y032230D02*
X015757Y032896D01*
X016077Y032896D02*
X016077Y032184D01*
X016235Y032080D02*
X016479Y032080D01*
X016397Y031998D02*
X016397Y032896D01*
X016717Y032896D02*
X016717Y032217D01*
X017037Y032201D02*
X017037Y032896D01*
X017357Y032896D02*
X017357Y031910D01*
X017407Y031760D02*
X022307Y031760D01*
X022157Y031460D02*
X022157Y032896D01*
X021837Y032896D02*
X021837Y031460D01*
X021517Y031460D02*
X021517Y032896D01*
X021197Y032896D02*
X021197Y031460D01*
X020877Y031460D02*
X020877Y032896D01*
X020557Y032896D02*
X020557Y031460D01*
X020237Y031460D02*
X020237Y032896D01*
X019917Y032896D02*
X019917Y031460D01*
X019597Y031460D02*
X019597Y032896D01*
X019277Y032896D02*
X019277Y031460D01*
X018957Y031460D02*
X018957Y032896D01*
X018637Y032896D02*
X018637Y031460D01*
X018317Y031460D02*
X018317Y032896D01*
X017997Y032896D02*
X017997Y031216D01*
X017677Y031122D02*
X017677Y032896D01*
X017235Y032080D02*
X022479Y032080D01*
X022477Y032078D02*
X022477Y032896D01*
X022797Y032896D02*
X022797Y032230D01*
X023117Y032168D02*
X023117Y032896D01*
X023437Y032896D02*
X023437Y032038D01*
X023479Y032080D02*
X023235Y032080D01*
X023757Y032230D02*
X023757Y032896D01*
X024077Y032896D02*
X024077Y032184D01*
X024235Y032080D02*
X024479Y032080D01*
X024397Y031998D02*
X024397Y032896D01*
X024717Y032896D02*
X024717Y032217D01*
X025037Y032201D02*
X025037Y032896D01*
X025357Y032896D02*
X025357Y031910D01*
X025235Y032080D02*
X025479Y032080D01*
X025677Y032201D02*
X025677Y032896D01*
X025997Y032896D02*
X025997Y032217D01*
X026235Y032080D02*
X031479Y032080D01*
X031437Y032038D02*
X031437Y032896D01*
X031757Y032896D02*
X031757Y032230D01*
X032077Y032184D02*
X032077Y032896D01*
X032397Y032896D02*
X032397Y031998D01*
X032479Y032080D02*
X032235Y032080D01*
X032717Y032217D02*
X032717Y032896D01*
X033037Y032896D02*
X033037Y032201D01*
X033235Y032080D02*
X033479Y032080D01*
X033357Y031910D02*
X033357Y032896D01*
X033677Y032896D02*
X033677Y032201D01*
X033997Y032217D02*
X033997Y032896D01*
X034317Y032896D02*
X034317Y031998D01*
X034235Y032080D02*
X034479Y032080D01*
X034637Y032184D02*
X034637Y032896D01*
X034957Y032896D02*
X034957Y032230D01*
X035407Y031760D02*
X040447Y031760D01*
X040320Y032400D02*
X011283Y032400D01*
X011277Y032406D02*
X011277Y032896D01*
X010957Y032896D02*
X010957Y032460D01*
X010637Y032460D02*
X010637Y032896D01*
X010317Y032896D02*
X010317Y032460D01*
X009997Y032460D02*
X009997Y032896D01*
X009677Y032896D02*
X009677Y032460D01*
X009357Y032460D02*
X009357Y032896D01*
X009037Y032896D02*
X009037Y032460D01*
X009357Y031680D02*
X009357Y028430D01*
X009357Y028110D02*
X009357Y025859D01*
X009498Y026000D02*
X009137Y026000D01*
X009137Y025680D02*
X009178Y025680D01*
X009137Y026320D02*
X009818Y026320D01*
X009677Y026179D02*
X009677Y030213D01*
X009637Y030160D02*
X011377Y030160D01*
X011277Y030447D02*
X011277Y027779D01*
X011377Y027920D02*
X009137Y027920D01*
X009137Y027600D02*
X011098Y027600D01*
X010957Y027459D02*
X010957Y030210D01*
X010877Y030480D02*
X010837Y030480D01*
X010957Y030660D02*
X010957Y030700D01*
X010877Y030700D02*
X011337Y030700D01*
X011337Y030718D01*
X011325Y030792D01*
X011302Y030864D01*
X011268Y030932D01*
X011223Y030993D01*
X011170Y031046D01*
X011109Y031091D01*
X011042Y031125D01*
X010970Y031148D01*
X010895Y031160D01*
X010877Y031160D01*
X010877Y030700D01*
X010877Y030800D02*
X010837Y030800D01*
X010637Y030700D02*
X010637Y030660D01*
X010637Y030253D02*
X010637Y027139D01*
X010138Y026640D02*
X009137Y026640D01*
X009997Y026499D02*
X009997Y030197D01*
X009637Y029840D02*
X011377Y029840D01*
X011377Y029520D02*
X009637Y029520D01*
X009637Y029200D02*
X011377Y029200D01*
X011377Y028880D02*
X009637Y028880D01*
X009677Y028560D02*
X011377Y028560D01*
X011377Y028240D02*
X009620Y028240D01*
X011294Y030480D02*
X011377Y030480D01*
X011277Y030660D02*
X011277Y030700D01*
X011323Y030800D02*
X011387Y030800D01*
X011277Y030913D02*
X011277Y031447D01*
X011274Y031440D02*
X011451Y031440D01*
X011597Y031294D02*
X011597Y031092D01*
X011665Y031120D02*
X011051Y031120D01*
X010957Y031150D02*
X010957Y031210D01*
X010877Y031120D02*
X010837Y031120D01*
X010837Y031440D02*
X010877Y031440D01*
X010637Y031660D02*
X010637Y031700D01*
X010384Y031760D02*
X010357Y031760D01*
X010317Y031876D02*
X010317Y031900D01*
X011597Y032086D02*
X011597Y032896D01*
X011917Y032896D02*
X011917Y031766D01*
X011923Y031760D02*
X013307Y031760D01*
X013361Y031440D02*
X012243Y031440D01*
X012237Y031446D02*
X012237Y032896D01*
X012557Y032896D02*
X012557Y031126D01*
X012563Y031120D02*
X012732Y031120D01*
X012849Y031120D02*
X012866Y031120D01*
X012866Y031137D02*
X012866Y030689D01*
X013314Y030689D01*
X013314Y030716D01*
X013303Y030787D01*
X013281Y030855D01*
X013248Y030920D01*
X013206Y030978D01*
X013155Y031029D01*
X013097Y031071D01*
X013033Y031104D01*
X012964Y031126D01*
X012893Y031137D01*
X012866Y031137D01*
X012877Y031137D02*
X012877Y032896D01*
X013197Y032896D02*
X013197Y030987D01*
X013299Y030800D02*
X013387Y030800D01*
X013197Y030689D02*
X013197Y030671D01*
X013268Y030480D02*
X013377Y030480D01*
X013197Y030373D02*
X013197Y030280D01*
X012866Y030480D02*
X012849Y030480D01*
X012877Y030671D02*
X012877Y030689D01*
X012866Y030800D02*
X012849Y030800D01*
X012983Y031120D02*
X013665Y031120D01*
X013517Y031019D02*
X013517Y031242D01*
X013479Y032080D02*
X011603Y032080D01*
X013517Y032118D02*
X013517Y032896D01*
X013837Y032896D02*
X013837Y032230D01*
X014157Y032151D02*
X014157Y032896D01*
X014477Y032896D02*
X014477Y032078D01*
X014479Y032080D02*
X014235Y032080D01*
X014797Y032230D02*
X014797Y032896D01*
X017037Y031159D02*
X017037Y031125D01*
X017049Y031120D02*
X017673Y031120D01*
X017391Y030800D02*
X017327Y030800D01*
X017337Y030480D02*
X017424Y030480D01*
X017357Y030359D02*
X017357Y031450D01*
X017353Y031440D02*
X018253Y031440D01*
X018357Y031180D02*
X026857Y031180D01*
X026857Y030680D01*
X027357Y031180D02*
X027857Y031680D01*
X027597Y031873D02*
X027597Y032896D01*
X027277Y032896D02*
X027277Y031496D01*
X027221Y031440D02*
X026961Y031440D01*
X026957Y031442D02*
X026957Y032896D01*
X026637Y032896D02*
X026637Y031460D01*
X026407Y031760D02*
X027537Y031760D01*
X027917Y032000D02*
X027917Y032896D01*
X028177Y031760D02*
X031307Y031760D01*
X030866Y031120D02*
X030849Y031120D01*
X030446Y030480D02*
X030291Y030480D01*
X030477Y030425D02*
X030477Y027446D01*
X030631Y027600D02*
X027637Y027600D01*
X027637Y027280D02*
X030311Y027280D01*
X030157Y027126D02*
X030157Y030305D01*
X029837Y030203D02*
X029837Y026806D01*
X029991Y026960D02*
X027637Y026960D01*
X027637Y028240D02*
X031271Y028240D01*
X031117Y028086D02*
X031117Y029080D01*
X032717Y028650D02*
X032717Y026138D01*
X032502Y026000D02*
X032212Y026000D01*
X033037Y026122D02*
X033037Y028650D01*
X033357Y028650D02*
X033357Y022826D01*
X033383Y022800D02*
X037077Y022800D01*
X037077Y022480D02*
X033703Y022480D01*
X033677Y022506D02*
X033677Y025238D01*
X033762Y025203D02*
X033952Y025203D01*
X034128Y025275D01*
X034262Y025410D01*
X034334Y025585D01*
X034334Y025775D01*
X034262Y025950D01*
X034128Y026085D01*
X033952Y026157D01*
X033762Y026157D01*
X033587Y026085D01*
X033453Y025950D01*
X033380Y025775D01*
X033380Y025585D01*
X033453Y025410D01*
X033587Y025275D01*
X033762Y025203D01*
X033997Y025222D02*
X033997Y022186D01*
X034023Y022160D02*
X034218Y022160D01*
X034317Y022177D02*
X034317Y025544D01*
X034380Y025585D02*
X034453Y025410D01*
X034587Y025275D01*
X034762Y025203D01*
X034952Y025203D01*
X035128Y025275D01*
X035262Y025410D01*
X035334Y025585D01*
X035334Y025775D01*
X035262Y025950D01*
X035128Y026085D01*
X034952Y026157D01*
X034762Y026157D01*
X034587Y026085D01*
X034453Y025950D01*
X034380Y025775D01*
X034380Y025585D01*
X034380Y025680D02*
X034334Y025680D01*
X034317Y025816D02*
X034317Y028650D01*
X033997Y028650D02*
X033997Y026138D01*
X034212Y026000D02*
X034502Y026000D01*
X034637Y026105D02*
X034637Y028650D01*
X034957Y028650D02*
X034957Y026155D01*
X035212Y026000D02*
X035502Y026000D01*
X035597Y026089D02*
X035597Y028650D01*
X035277Y028650D02*
X035277Y025913D01*
X035334Y025680D02*
X035380Y025680D01*
X035277Y025447D02*
X035277Y022177D01*
X035218Y022160D02*
X034497Y022160D01*
X034637Y022102D02*
X034637Y025255D01*
X034502Y025360D02*
X034212Y025360D01*
X033502Y025360D02*
X033212Y025360D01*
X033037Y025238D02*
X033037Y023146D01*
X033063Y023120D02*
X037077Y023120D01*
X038107Y022680D02*
X039857Y024430D01*
X038077Y024080D02*
X037887Y024080D01*
X037357Y025180D02*
X036857Y025680D01*
X036380Y025680D02*
X036334Y025680D01*
X035857Y025680D02*
X036857Y026680D01*
X036741Y026960D02*
X030783Y026960D01*
X030797Y026974D02*
X030797Y026157D01*
X030502Y026000D02*
X030212Y026000D01*
X030157Y026055D02*
X030157Y026334D01*
X030143Y026320D02*
X036101Y026320D01*
X036237Y026456D02*
X036237Y028650D01*
X035917Y028650D02*
X035917Y026157D01*
X036421Y026640D02*
X030463Y026640D01*
X030477Y026654D02*
X030477Y025975D01*
X031334Y025680D02*
X031380Y025680D01*
X033212Y026000D02*
X033502Y026000D01*
X033677Y026122D02*
X033677Y028650D01*
X034107Y029680D02*
X034113Y029680D01*
X035337Y030480D02*
X035424Y030480D01*
X035391Y030800D02*
X035337Y030800D01*
X035337Y031120D02*
X035577Y031120D01*
X036877Y030223D02*
X036877Y029210D01*
X036877Y028650D02*
X036877Y027096D01*
X036557Y026776D02*
X036557Y028650D01*
X035917Y029210D02*
X035917Y029258D01*
X036074Y029520D02*
X037801Y029520D01*
X039117Y031316D02*
X039117Y032896D01*
X037517Y026887D02*
X037517Y026416D01*
X037613Y026320D02*
X038077Y026320D01*
X038077Y026640D02*
X037293Y026640D01*
X035502Y025360D02*
X035212Y025360D01*
X034957Y025205D02*
X034957Y021983D01*
X034886Y021840D02*
X034829Y021840D01*
X034829Y021520D02*
X034886Y021520D01*
X034957Y021377D02*
X034957Y020726D01*
X034331Y020560D02*
X033637Y020560D01*
X033637Y020880D02*
X034011Y020880D01*
X033997Y020894D02*
X033997Y017000D01*
X034317Y016923D02*
X034317Y020574D01*
X033691Y021200D02*
X033637Y021200D01*
X033677Y021214D02*
X033677Y012696D01*
X033637Y012880D02*
X033777Y012880D01*
X033777Y013200D02*
X033637Y013200D01*
X033637Y013520D02*
X033777Y013520D01*
X033777Y013840D02*
X033637Y013840D01*
X033637Y014160D02*
X033777Y014160D01*
X033777Y014480D02*
X033637Y014480D01*
X033637Y014800D02*
X033777Y014800D01*
X033777Y015120D02*
X033637Y015120D01*
X033637Y015440D02*
X033777Y015440D01*
X033777Y015760D02*
X033637Y015760D01*
X033637Y016080D02*
X033737Y016080D01*
X034057Y016080D02*
X034057Y012680D01*
X032957Y011580D01*
X032957Y009280D01*
X032663Y009040D02*
X031387Y009040D01*
X031387Y008720D02*
X035921Y008720D01*
X035917Y008724D02*
X035917Y002916D01*
X035935Y002960D02*
X035779Y002960D01*
X035597Y003118D02*
X035597Y009044D01*
X035601Y009040D02*
X033252Y009040D01*
X033037Y008902D02*
X033037Y003063D01*
X032935Y002960D02*
X032779Y002960D01*
X032717Y003023D02*
X032717Y008985D01*
X032579Y009360D02*
X031387Y009360D01*
X031387Y009680D02*
X032677Y009680D01*
X032677Y010000D02*
X031387Y010000D01*
X031387Y010320D02*
X032677Y010320D01*
X032677Y010640D02*
X031387Y010640D01*
X031387Y010960D02*
X032677Y010960D01*
X032677Y011280D02*
X031387Y011280D01*
X032077Y011360D02*
X032077Y003102D01*
X031935Y002960D02*
X031779Y002960D01*
X031757Y002983D02*
X031757Y016184D01*
X031653Y016080D02*
X033077Y016080D01*
X033077Y015760D02*
X031333Y015760D01*
X031437Y015864D02*
X031437Y003177D01*
X031854Y002640D02*
X031860Y002640D01*
X032397Y003177D02*
X032397Y011517D01*
X032427Y011600D02*
X032677Y011600D01*
X032717Y011732D02*
X032717Y011894D01*
X032743Y011920D02*
X032901Y011920D01*
X033037Y012056D02*
X033037Y012214D01*
X033063Y012240D02*
X033221Y012240D01*
X033357Y012376D02*
X033357Y012534D01*
X033383Y012560D02*
X033541Y012560D01*
X033997Y012224D02*
X033997Y011493D01*
X033677Y011453D02*
X033677Y011904D01*
X033693Y011920D02*
X037919Y011920D01*
X038157Y012135D02*
X038157Y012225D01*
X038121Y012240D02*
X034013Y012240D01*
X033373Y011600D02*
X037860Y011600D01*
X037935Y010960D02*
X034473Y010960D01*
X034637Y010796D02*
X034637Y015754D01*
X034631Y015760D02*
X034337Y015760D01*
X034337Y015440D02*
X034951Y015440D01*
X034957Y015434D02*
X034957Y010476D01*
X035113Y010320D02*
X038015Y010320D01*
X038157Y010225D02*
X038157Y010135D01*
X038076Y010101D02*
X037936Y009961D01*
X037860Y009779D01*
X037860Y009581D01*
X037936Y009399D01*
X038076Y009259D01*
X038258Y009183D01*
X038456Y009183D01*
X038639Y009259D01*
X038778Y009399D01*
X038854Y009581D01*
X038854Y009779D01*
X038778Y009961D01*
X038639Y010101D01*
X038456Y010177D01*
X038258Y010177D01*
X038076Y010101D01*
X037975Y010000D02*
X035433Y010000D01*
X035277Y010156D02*
X035277Y015114D01*
X035271Y015120D02*
X034337Y015120D01*
X034337Y014800D02*
X035591Y014800D01*
X035597Y014794D02*
X035597Y009836D01*
X035753Y009680D02*
X037860Y009680D01*
X037975Y009360D02*
X036073Y009360D01*
X035917Y009516D02*
X035917Y014474D01*
X035911Y014480D02*
X034337Y014480D01*
X034337Y014160D02*
X036231Y014160D01*
X036237Y014154D02*
X036237Y009196D01*
X036393Y009040D02*
X038015Y009040D01*
X038076Y009101D02*
X037936Y008961D01*
X037860Y008779D01*
X037860Y008581D01*
X037936Y008399D01*
X038076Y008259D01*
X038258Y008183D01*
X038456Y008183D01*
X038639Y008259D01*
X038778Y008399D01*
X038854Y008581D01*
X038854Y008779D01*
X038778Y008961D01*
X038639Y009101D01*
X038456Y009177D01*
X038258Y009177D01*
X038076Y009101D01*
X038157Y009135D02*
X038157Y009225D01*
X038477Y009192D02*
X038477Y009168D01*
X038700Y009040D02*
X039015Y009040D01*
X039117Y009118D02*
X039117Y009242D01*
X038975Y009360D02*
X038740Y009360D01*
X038797Y009444D02*
X038797Y008916D01*
X038854Y008720D02*
X038860Y008720D01*
X038797Y008444D02*
X038797Y007916D01*
X038854Y007760D02*
X038860Y007760D01*
X038797Y007444D02*
X038797Y006916D01*
X038845Y006800D02*
X038869Y006800D01*
X039117Y007118D02*
X039117Y007242D01*
X039121Y007120D02*
X038593Y007120D01*
X038477Y007168D02*
X038477Y007192D01*
X038796Y007440D02*
X038919Y007440D01*
X039437Y007183D02*
X039437Y007177D01*
X039593Y007120D02*
X040447Y007120D01*
X040447Y008080D02*
X039660Y008080D01*
X039437Y008177D02*
X039437Y008183D01*
X039117Y008242D02*
X039117Y008118D01*
X039055Y008080D02*
X038660Y008080D01*
X038477Y008168D02*
X038477Y008192D01*
X038157Y008225D02*
X038157Y008135D01*
X038055Y008080D02*
X037353Y008080D01*
X037197Y008236D02*
X037197Y013900D01*
X036877Y013900D02*
X036877Y008556D01*
X037033Y008400D02*
X037935Y008400D01*
X037860Y008720D02*
X036713Y008720D01*
X036557Y008876D02*
X036557Y013900D01*
X036607Y014180D02*
X039857Y014180D01*
X038886Y013840D02*
X038829Y013840D01*
X038829Y013520D02*
X038886Y013520D01*
X038797Y013444D02*
X038797Y012916D01*
X038812Y012880D02*
X038902Y012880D01*
X038869Y012560D02*
X038845Y012560D01*
X038797Y012444D02*
X038797Y011916D01*
X038796Y011920D02*
X038919Y011920D01*
X039117Y012118D02*
X039117Y012242D01*
X039121Y012240D02*
X038593Y012240D01*
X038477Y012192D02*
X038477Y012168D01*
X038854Y011600D02*
X038860Y011600D01*
X038797Y011444D02*
X038797Y010916D01*
X038779Y010960D02*
X038935Y010960D01*
X038860Y010640D02*
X038854Y010640D01*
X038797Y010444D02*
X038797Y009916D01*
X038740Y010000D02*
X038975Y010000D01*
X039117Y010118D02*
X039117Y010242D01*
X039015Y010320D02*
X038700Y010320D01*
X038477Y010192D02*
X038477Y010168D01*
X038854Y009680D02*
X038860Y009680D01*
X039437Y010177D02*
X039437Y010183D01*
X039740Y010000D02*
X040447Y010000D01*
X040447Y009040D02*
X039700Y009040D01*
X039437Y009177D02*
X039437Y009183D01*
X038935Y008400D02*
X038779Y008400D01*
X037860Y007760D02*
X037673Y007760D01*
X037517Y007916D02*
X037517Y013900D01*
X037837Y013900D02*
X037837Y007596D01*
X037517Y007124D02*
X037517Y003152D01*
X037197Y003152D02*
X037197Y007444D01*
X037201Y007440D02*
X031387Y007440D01*
X031387Y007120D02*
X037521Y007120D01*
X037837Y006804D02*
X037837Y002820D01*
X037779Y002960D02*
X040447Y002960D01*
X040447Y003280D02*
X016853Y003280D01*
X016717Y003144D02*
X016717Y003023D01*
X016779Y002960D02*
X016971Y002960D01*
X016949Y002930D02*
X016915Y002863D01*
X016892Y002792D01*
X016880Y002718D01*
X016880Y002698D01*
X017339Y002698D01*
X017339Y003157D01*
X017320Y003157D01*
X017246Y003145D01*
X017174Y003122D01*
X017107Y003088D01*
X017047Y003044D01*
X016994Y002991D01*
X016949Y002930D01*
X017037Y003034D02*
X017037Y003464D01*
X017173Y003600D02*
X040447Y003600D01*
X040447Y003920D02*
X017493Y003920D01*
X017357Y003784D02*
X017357Y002698D01*
X017339Y002960D02*
X017376Y002960D01*
X017677Y002698D02*
X017677Y002662D01*
X017834Y002640D02*
X017881Y002640D01*
X017997Y002662D02*
X017997Y002698D01*
X018317Y002698D02*
X018317Y002662D01*
X018339Y002960D02*
X018376Y002960D01*
X018317Y003156D02*
X018317Y004744D01*
X018357Y005180D02*
X016357Y003180D01*
X016357Y002680D01*
X016854Y002640D02*
X016881Y002640D01*
X017037Y002662D02*
X017037Y002698D01*
X018637Y002662D02*
X018637Y002698D01*
X018834Y002640D02*
X018860Y002640D01*
X019700Y002320D02*
X021015Y002320D01*
X021076Y002259D02*
X021258Y002183D01*
X021456Y002183D01*
X021639Y002259D01*
X021778Y002399D01*
X021854Y002581D01*
X021854Y002779D01*
X021778Y002961D01*
X021639Y003101D01*
X021456Y003177D01*
X021258Y003177D01*
X021076Y003101D01*
X020936Y002961D01*
X020860Y002779D01*
X020860Y002581D01*
X020936Y002399D01*
X021076Y002259D01*
X021197Y002208D02*
X021197Y001960D01*
X020877Y001960D02*
X020877Y002540D01*
X020860Y002640D02*
X019854Y002640D01*
X019779Y002960D02*
X020935Y002960D01*
X020877Y002820D02*
X020877Y004900D01*
X020557Y004900D02*
X020557Y001960D01*
X020237Y001960D02*
X020237Y004900D01*
X021197Y004900D02*
X021197Y003152D01*
X021517Y003152D02*
X021517Y004900D01*
X021837Y004900D02*
X021837Y002820D01*
X021860Y002779D02*
X021860Y002581D01*
X021936Y002399D01*
X022076Y002259D01*
X022258Y002183D01*
X022456Y002183D01*
X022639Y002259D01*
X022778Y002399D01*
X022854Y002581D01*
X022854Y002779D01*
X022778Y002961D01*
X022639Y003101D01*
X022456Y003177D01*
X022258Y003177D01*
X022076Y003101D01*
X021936Y002961D01*
X021860Y002779D01*
X021854Y002640D02*
X021860Y002640D01*
X021837Y002540D02*
X021837Y001960D01*
X021517Y001960D02*
X021517Y002208D01*
X021700Y002320D02*
X022015Y002320D01*
X022157Y002225D02*
X022157Y001960D01*
X022477Y001960D02*
X022477Y002192D01*
X022700Y002320D02*
X023015Y002320D01*
X023076Y002259D02*
X023258Y002183D01*
X023456Y002183D01*
X023639Y002259D01*
X023778Y002399D01*
X023854Y002581D01*
X023854Y002779D01*
X023778Y002961D01*
X023639Y003101D01*
X023456Y003177D01*
X023258Y003177D01*
X023076Y003101D01*
X022936Y002961D01*
X022860Y002779D01*
X022860Y002581D01*
X022936Y002399D01*
X023076Y002259D01*
X023117Y002242D02*
X023117Y001960D01*
X022797Y001960D02*
X022797Y002444D01*
X022854Y002640D02*
X022860Y002640D01*
X022797Y002916D02*
X022797Y004900D01*
X022477Y004900D02*
X022477Y003168D01*
X022157Y003135D02*
X022157Y004900D01*
X023117Y004900D02*
X023117Y003118D01*
X022935Y002960D02*
X022779Y002960D01*
X023437Y003177D02*
X023437Y004900D01*
X023757Y004900D02*
X023757Y002983D01*
X023779Y002960D02*
X023935Y002960D01*
X023936Y002961D02*
X023860Y002779D01*
X023860Y002581D01*
X023936Y002399D01*
X024076Y002259D01*
X024258Y002183D01*
X024456Y002183D01*
X024639Y002259D01*
X024778Y002399D01*
X024854Y002581D01*
X024854Y002779D01*
X024778Y002961D01*
X024639Y003101D01*
X024456Y003177D01*
X024258Y003177D01*
X024076Y003101D01*
X023936Y002961D01*
X024077Y003102D02*
X024077Y004900D01*
X024397Y004900D02*
X024397Y003177D01*
X024717Y003023D02*
X024717Y004900D01*
X025037Y004900D02*
X025037Y003063D01*
X025076Y003101D02*
X024936Y002961D01*
X024860Y002779D01*
X024860Y002581D01*
X024936Y002399D01*
X025076Y002259D01*
X025258Y002183D01*
X025456Y002183D01*
X025639Y002259D01*
X025778Y002399D01*
X025854Y002581D01*
X025854Y002779D01*
X025778Y002961D01*
X025639Y003101D01*
X025456Y003177D01*
X025258Y003177D01*
X025076Y003101D01*
X024935Y002960D02*
X024779Y002960D01*
X024854Y002640D02*
X024860Y002640D01*
X024717Y002337D02*
X024717Y001960D01*
X024397Y001960D02*
X024397Y002183D01*
X024077Y002258D02*
X024077Y001960D01*
X023757Y001960D02*
X023757Y002377D01*
X023700Y002320D02*
X024015Y002320D01*
X023860Y002640D02*
X023854Y002640D01*
X023437Y002183D02*
X023437Y001960D01*
X024700Y002320D02*
X025015Y002320D01*
X025037Y002297D02*
X025037Y001960D01*
X025357Y001960D02*
X025357Y002183D01*
X025677Y002297D02*
X025677Y001960D01*
X025997Y001960D02*
X025997Y002337D01*
X026015Y002320D02*
X025700Y002320D01*
X025936Y002399D02*
X025860Y002581D01*
X025860Y002779D01*
X025936Y002961D01*
X026076Y003101D01*
X026258Y003177D01*
X026456Y003177D01*
X026639Y003101D01*
X026778Y002961D01*
X026854Y002779D01*
X026854Y002581D01*
X026778Y002399D01*
X026639Y002259D01*
X026456Y002183D01*
X026258Y002183D01*
X026076Y002259D01*
X025936Y002399D01*
X025860Y002640D02*
X025854Y002640D01*
X025779Y002960D02*
X025935Y002960D01*
X025997Y003023D02*
X025997Y004900D01*
X025677Y004900D02*
X025677Y003063D01*
X025357Y003177D02*
X025357Y004900D01*
X026317Y004900D02*
X026317Y003177D01*
X026637Y003102D02*
X026637Y004900D01*
X026957Y004900D02*
X026957Y002983D01*
X026936Y002961D02*
X026860Y002779D01*
X026860Y002581D01*
X026936Y002399D01*
X027076Y002259D01*
X027258Y002183D01*
X027456Y002183D01*
X027639Y002259D01*
X027778Y002399D01*
X027854Y002581D01*
X027854Y002779D01*
X027778Y002961D01*
X027639Y003101D01*
X027456Y003177D01*
X027258Y003177D01*
X027076Y003101D01*
X026936Y002961D01*
X026935Y002960D02*
X026779Y002960D01*
X026854Y002640D02*
X026860Y002640D01*
X026957Y002377D02*
X026957Y001960D01*
X026637Y001960D02*
X026637Y002258D01*
X026700Y002320D02*
X027015Y002320D01*
X027277Y002183D02*
X027277Y001960D01*
X027597Y001960D02*
X027597Y002242D01*
X027700Y002320D02*
X028015Y002320D01*
X027917Y002444D02*
X027917Y001960D01*
X028237Y001960D02*
X028237Y002192D01*
X028557Y002225D02*
X028557Y001960D01*
X027860Y002640D02*
X027854Y002640D01*
X027917Y002916D02*
X027917Y004900D01*
X027597Y004900D02*
X027597Y003118D01*
X027779Y002960D02*
X027935Y002960D01*
X028237Y003168D02*
X028237Y004900D01*
X028557Y005460D02*
X028557Y009484D01*
X028753Y009680D02*
X029577Y009680D01*
X029577Y010000D02*
X029130Y010000D01*
X029197Y010067D02*
X029197Y005460D01*
X028877Y005460D02*
X028877Y009804D01*
X029227Y010320D02*
X029577Y010320D01*
X029577Y010640D02*
X028520Y010640D01*
X029197Y010393D02*
X029197Y011150D01*
X029857Y011080D02*
X029857Y009280D01*
X030152Y009040D02*
X030827Y009040D01*
X031387Y008400D02*
X036241Y008400D01*
X036237Y008404D02*
X036237Y003168D01*
X036557Y003135D02*
X036557Y008084D01*
X036561Y008080D02*
X031387Y008080D01*
X031387Y007760D02*
X036881Y007760D01*
X036877Y007764D02*
X036877Y002820D01*
X036935Y002960D02*
X036779Y002960D01*
X036854Y002640D02*
X036860Y002640D01*
X036877Y002540D02*
X036877Y001960D01*
X035917Y001960D02*
X035917Y002444D01*
X035860Y002640D02*
X035854Y002640D01*
X035277Y003177D02*
X035277Y009364D01*
X035281Y009360D02*
X033335Y009360D01*
X033237Y009680D02*
X034961Y009680D01*
X034957Y009684D02*
X034957Y002983D01*
X034935Y002960D02*
X034779Y002960D01*
X034637Y003102D02*
X034637Y010004D01*
X034641Y010000D02*
X033237Y010000D01*
X033237Y010320D02*
X034321Y010320D01*
X034317Y010324D02*
X034317Y003177D01*
X033997Y003023D02*
X033997Y010644D01*
X034001Y010640D02*
X033237Y010640D01*
X033237Y010960D02*
X033625Y010960D01*
X033677Y010907D02*
X033677Y003063D01*
X033779Y002960D02*
X033935Y002960D01*
X033860Y002640D02*
X033854Y002640D01*
X033997Y002337D02*
X033997Y001960D01*
X034854Y002640D02*
X034860Y002640D01*
X034957Y002377D02*
X034957Y001960D01*
X033357Y003177D02*
X033357Y011584D01*
X033237Y011280D02*
X033537Y011280D01*
X033857Y011180D02*
X038357Y006680D01*
X037902Y006480D02*
X031387Y006480D01*
X031387Y006160D02*
X038218Y006160D01*
X038157Y006135D02*
X038157Y006225D01*
X037841Y006800D02*
X031387Y006800D01*
X031387Y005840D02*
X037886Y005840D01*
X037886Y005520D02*
X031387Y005520D01*
X031387Y005200D02*
X038218Y005200D01*
X038157Y005225D02*
X038157Y005113D01*
X038339Y004880D02*
X038376Y004880D01*
X038477Y004698D02*
X038477Y004662D01*
X038376Y004560D02*
X038339Y004560D01*
X038157Y004662D02*
X038157Y004698D01*
X038339Y004240D02*
X038376Y004240D01*
X038791Y004880D02*
X038924Y004880D01*
X039117Y004698D02*
X039117Y004662D01*
X039339Y004560D02*
X039376Y004560D01*
X039437Y004662D02*
X039437Y004698D01*
X039376Y004880D02*
X039339Y004880D01*
X039437Y005150D02*
X039437Y005183D01*
X039497Y005200D02*
X040447Y005200D01*
X040447Y004880D02*
X039791Y004880D01*
X039757Y004941D02*
X039757Y005377D01*
X039829Y005520D02*
X040447Y005520D01*
X039757Y004698D02*
X039757Y004662D01*
X039376Y004240D02*
X039339Y004240D01*
X039117Y005093D02*
X039117Y005242D01*
X039218Y005200D02*
X038497Y005200D01*
X038477Y005192D02*
X038477Y005142D01*
X032860Y002640D02*
X032854Y002640D01*
X031107Y005180D02*
X018357Y005180D01*
X018637Y005960D02*
X018637Y008754D01*
X018671Y008720D02*
X015463Y008720D01*
X015437Y008746D02*
X015437Y011454D01*
X015291Y011600D02*
X008743Y011600D01*
X008717Y011404D02*
X008717Y010870D01*
X008627Y010960D02*
X015931Y010960D01*
X016077Y010814D02*
X016077Y008106D01*
X016103Y008080D02*
X019311Y008080D01*
X019277Y008114D02*
X019277Y005960D01*
X018957Y005960D02*
X018957Y008434D01*
X018991Y008400D02*
X015783Y008400D01*
X015757Y008426D02*
X015757Y011134D01*
X015611Y011280D02*
X008594Y011280D01*
X008397Y011137D02*
X008397Y011137D01*
X008077Y011137D02*
X008077Y011137D01*
X007893Y011280D02*
X007594Y011280D01*
X007757Y011415D02*
X007757Y010858D01*
X007859Y010960D02*
X007627Y010960D01*
X007437Y011137D02*
X007437Y011137D01*
X007117Y011137D02*
X007117Y011137D01*
X006893Y011280D02*
X006637Y011280D01*
X006637Y010320D02*
X006853Y010320D01*
X007117Y010137D02*
X007117Y010137D01*
X007743Y010640D02*
X007743Y010640D01*
X007743Y011600D02*
X007743Y011600D01*
X007117Y012137D02*
X007117Y012137D01*
X006743Y012560D02*
X006637Y012560D01*
X008743Y010640D02*
X016251Y010640D01*
X016397Y010494D02*
X016397Y007786D01*
X016423Y007760D02*
X019631Y007760D01*
X019597Y007794D02*
X019597Y005960D01*
X016857Y006430D02*
X010107Y006430D01*
X010107Y008180D01*
X010387Y007760D02*
X015631Y007760D01*
X015757Y007634D02*
X015757Y006710D01*
X015437Y006710D02*
X015437Y007954D01*
X015951Y007440D02*
X010387Y007440D01*
X010387Y007120D02*
X016271Y007120D01*
X016397Y006994D02*
X016397Y006710D01*
X016591Y006800D02*
X010387Y006800D01*
X009357Y007930D02*
X008607Y007180D01*
X007437Y008137D02*
X007437Y008137D01*
X007117Y008137D02*
X007117Y008137D01*
X006979Y008080D02*
X006637Y008080D01*
X006077Y005200D02*
X005290Y005200D01*
X006157Y004984D02*
X006157Y004333D01*
X006250Y004240D02*
X006933Y004240D01*
X007117Y004137D02*
X007117Y004137D01*
X007437Y004137D02*
X007437Y004137D01*
X007667Y003920D02*
X007819Y003920D01*
X006797Y004898D02*
X006797Y004900D01*
X002145Y007440D02*
X001637Y007440D01*
X009677Y015146D02*
X009677Y017214D01*
X009531Y017360D02*
X008674Y017360D01*
X008717Y017404D02*
X008717Y017243D01*
X008397Y017137D02*
X008397Y017137D01*
X008077Y017137D02*
X008077Y017137D01*
X008036Y017137D02*
X007743Y016844D01*
X007450Y017137D01*
X007743Y017430D01*
X008036Y017137D01*
X007939Y017040D02*
X007547Y017040D01*
X007437Y017137D02*
X007437Y017137D01*
X007117Y017137D02*
X007117Y017137D01*
X006939Y017040D02*
X006637Y017040D01*
X006797Y016898D02*
X006797Y017375D01*
X006813Y017360D02*
X006637Y017360D01*
X006637Y017680D02*
X006743Y017680D01*
X007687Y017900D02*
X007743Y017844D01*
X007743Y017430D01*
X007743Y017844D01*
X007799Y017900D01*
X007687Y017900D01*
X007757Y017900D02*
X007757Y017858D01*
X007743Y017680D02*
X007743Y017680D01*
X007757Y017415D02*
X007757Y016858D01*
X007743Y016844D02*
X007743Y016460D01*
X007743Y016844D01*
X007743Y016720D02*
X007743Y016720D01*
X007743Y016460D02*
X007743Y016460D01*
X006743Y016720D02*
X006637Y016720D01*
X007674Y017360D02*
X007813Y017360D01*
X009357Y018826D02*
X009357Y020900D01*
X009037Y020900D02*
X009037Y019146D01*
X008903Y019280D02*
X024077Y019280D01*
X024077Y018960D02*
X009223Y018960D01*
X009543Y018640D02*
X024077Y018640D01*
X024077Y018320D02*
X009863Y018320D01*
X009997Y018186D02*
X009997Y020900D01*
X009677Y020900D02*
X009677Y018506D01*
X010183Y018000D02*
X024077Y018000D01*
X024077Y017680D02*
X010503Y017680D01*
X010637Y017546D02*
X010637Y020900D01*
X010317Y020900D02*
X010317Y017866D01*
X010823Y017360D02*
X024077Y017360D01*
X024077Y017040D02*
X011143Y017040D01*
X011277Y016906D02*
X011277Y020900D01*
X010957Y020900D02*
X010957Y017226D01*
X011463Y016720D02*
X024077Y016720D01*
X024077Y016400D02*
X011783Y016400D01*
X011917Y016266D02*
X011917Y020900D01*
X011597Y020900D02*
X011597Y016586D01*
X012103Y016080D02*
X024077Y016080D01*
X024077Y015760D02*
X012423Y015760D01*
X012557Y015626D02*
X012557Y020900D01*
X012237Y020900D02*
X012237Y015946D01*
X012743Y015440D02*
X024077Y015440D01*
X024077Y015120D02*
X013063Y015120D01*
X013197Y014986D02*
X013197Y020900D01*
X012877Y020900D02*
X012877Y015306D01*
X013383Y014800D02*
X024077Y014800D01*
X024077Y014480D02*
X013703Y014480D01*
X013837Y014346D02*
X013837Y020900D01*
X013517Y020900D02*
X013517Y014666D01*
X014023Y014160D02*
X024077Y014160D01*
X024077Y013840D02*
X014343Y013840D01*
X014477Y013706D02*
X014477Y020900D01*
X014157Y020900D02*
X014157Y014026D01*
X014663Y013520D02*
X024077Y013520D01*
X024077Y013200D02*
X014983Y013200D01*
X015117Y013066D02*
X015117Y020900D01*
X015107Y021180D02*
X008857Y021180D01*
X008717Y020935D02*
X008717Y020870D01*
X008707Y020880D02*
X018077Y020880D01*
X018357Y020680D02*
X023857Y020680D01*
X023857Y021930D01*
X024107Y022180D01*
X026357Y022180D01*
X026357Y021680D01*
X025886Y021840D02*
X025829Y021840D01*
X025497Y021200D02*
X026218Y021200D01*
X025037Y021297D02*
X025037Y018000D01*
X025107Y017680D02*
X025107Y014430D01*
X024787Y014480D02*
X024637Y014480D01*
X024637Y014160D02*
X024925Y014160D01*
X025037Y014110D02*
X025037Y011710D01*
X024357Y011430D02*
X024357Y021680D01*
X024829Y021520D02*
X024886Y021520D01*
X024886Y021840D02*
X024829Y021840D01*
X023757Y020400D02*
X023757Y011210D01*
X023437Y011210D02*
X023437Y020400D01*
X023117Y020400D02*
X023117Y011210D01*
X022797Y011210D02*
X022797Y020400D01*
X022477Y020400D02*
X022477Y011210D01*
X022157Y011210D02*
X022157Y020400D01*
X021837Y020400D02*
X021837Y011010D01*
X024077Y011374D02*
X024120Y011271D01*
X024116Y011280D02*
X016903Y011280D01*
X017037Y011146D02*
X017037Y021258D01*
X016897Y021200D02*
X017618Y021200D01*
X016717Y021183D02*
X016717Y011466D01*
X016583Y011600D02*
X024077Y011600D01*
X024077Y011920D02*
X016263Y011920D01*
X016397Y011786D02*
X016397Y021337D01*
X016286Y021520D02*
X016229Y021520D01*
X016077Y021297D02*
X016077Y012106D01*
X015943Y012240D02*
X024077Y012240D01*
X024077Y012560D02*
X015623Y012560D01*
X015757Y012426D02*
X015757Y021183D01*
X015618Y021200D02*
X015523Y021200D01*
X015437Y021114D02*
X015437Y012746D01*
X015303Y012880D02*
X024077Y012880D01*
X024357Y011430D02*
X030707Y011430D01*
X030477Y011150D02*
X030477Y005460D01*
X029517Y005460D02*
X029517Y009085D01*
X030137Y010000D02*
X030827Y010000D01*
X030827Y010320D02*
X030137Y010320D01*
X030137Y010640D02*
X030827Y010640D01*
X029857Y011930D02*
X029357Y012430D01*
X029357Y014430D01*
X029637Y014160D02*
X030327Y014160D01*
X030327Y013840D02*
X029637Y013840D01*
X029637Y013520D02*
X030327Y013520D01*
X030607Y013180D02*
X030607Y015430D01*
X032857Y017680D01*
X032461Y017680D02*
X032253Y017680D01*
X032397Y017616D02*
X032397Y017824D01*
X032077Y017504D02*
X032077Y017296D01*
X032141Y017360D02*
X031933Y017360D01*
X031757Y017184D02*
X031757Y016976D01*
X031821Y017040D02*
X031613Y017040D01*
X031437Y016864D02*
X031437Y016656D01*
X031501Y016720D02*
X031293Y016720D01*
X031117Y016544D02*
X031117Y016336D01*
X031181Y016400D02*
X030973Y016400D01*
X030797Y016224D02*
X030797Y016016D01*
X030861Y016080D02*
X030677Y016080D01*
X030477Y015860D02*
X030477Y015696D01*
X030541Y015760D02*
X030333Y015760D01*
X030797Y017016D02*
X030797Y018224D01*
X030893Y018320D02*
X032077Y018320D01*
X030821Y017040D02*
X028887Y017040D01*
X028887Y017360D02*
X029287Y017360D01*
X028901Y015120D02*
X028887Y015120D01*
X030607Y013180D02*
X029857Y012430D01*
X029197Y012194D02*
X029197Y011710D01*
X028877Y011710D02*
X028877Y011997D01*
X028800Y011920D02*
X029471Y011920D01*
X029517Y011874D02*
X029517Y011710D01*
X029151Y012240D02*
X029063Y012240D01*
X028607Y012930D02*
X028357Y012680D01*
X024827Y014800D02*
X024637Y014800D01*
X024637Y015120D02*
X024827Y015120D01*
X024827Y015440D02*
X024637Y015440D01*
X024637Y015760D02*
X024827Y015760D01*
X024827Y016080D02*
X024637Y016080D01*
X024637Y016400D02*
X024827Y016400D01*
X024827Y016720D02*
X024637Y016720D01*
X024637Y017040D02*
X024827Y017040D01*
X024827Y017360D02*
X024637Y017360D01*
X024637Y017680D02*
X024787Y017680D01*
X024077Y019600D02*
X008743Y019600D01*
X007117Y020137D02*
X007117Y020137D01*
X007223Y022480D02*
X007263Y022480D01*
X007117Y022617D02*
X007117Y022657D01*
X007223Y022800D02*
X007263Y022800D01*
X007437Y022657D02*
X007437Y022617D01*
X007437Y023117D02*
X007437Y032896D01*
X007117Y032896D02*
X007117Y023117D01*
X006637Y023760D02*
X008577Y023760D01*
X008577Y024080D02*
X006637Y024080D01*
X006637Y024400D02*
X008577Y024400D01*
X008577Y024720D02*
X006793Y024720D01*
X003917Y027139D02*
X003917Y027299D01*
X003597Y027299D02*
X003597Y027139D01*
X003272Y026960D02*
X003112Y026960D01*
X003112Y026640D02*
X003272Y026640D01*
X004250Y027600D02*
X004431Y027600D01*
X004237Y027638D02*
X004237Y029380D01*
X004227Y029380D02*
X004267Y029380D01*
X004267Y028850D01*
X004291Y028850D01*
X004376Y028864D01*
X004458Y028890D01*
X004536Y028930D01*
X004606Y028980D01*
X004667Y029042D01*
X004718Y029112D01*
X004757Y029189D01*
X004784Y029271D01*
X004797Y029357D01*
X004797Y029380D01*
X004267Y029380D01*
X004267Y029420D01*
X004227Y029420D01*
X004227Y029380D01*
X003697Y029380D01*
X003697Y029357D01*
X003711Y029271D01*
X003738Y029189D01*
X003777Y029112D01*
X003828Y029042D01*
X003889Y028980D01*
X003959Y028930D01*
X004036Y028890D01*
X004118Y028864D01*
X004204Y028850D01*
X004227Y028850D01*
X004227Y029380D01*
X004227Y029420D02*
X003697Y029420D01*
X003697Y029443D01*
X003711Y029529D01*
X003738Y029611D01*
X003777Y029688D01*
X003828Y029758D01*
X003889Y029820D01*
X003959Y029870D01*
X004036Y029910D01*
X004118Y029936D01*
X004204Y029950D01*
X004227Y029950D01*
X004227Y029420D01*
X004237Y029420D02*
X004237Y030860D01*
X004550Y031500D02*
X004606Y031540D01*
X004667Y031602D01*
X004718Y031672D01*
X004757Y031749D01*
X004784Y031831D01*
X004797Y031917D01*
X004797Y031940D01*
X004267Y031940D01*
X004267Y031980D01*
X004797Y031980D01*
X004797Y032003D01*
X004784Y032089D01*
X004757Y032171D01*
X004718Y032248D01*
X004667Y032318D01*
X004606Y032380D01*
X004577Y032400D01*
X004741Y032400D01*
X005481Y031660D01*
X004982Y031660D01*
X004805Y031587D01*
X004718Y031500D01*
X004550Y031500D01*
X004557Y031500D02*
X004557Y031505D01*
X004761Y031760D02*
X005381Y031760D01*
X005197Y031660D02*
X005197Y031944D01*
X005061Y032080D02*
X004785Y032080D01*
X004877Y032264D02*
X004877Y031617D01*
X004557Y031940D02*
X004557Y031980D01*
X003917Y031980D02*
X003917Y031940D01*
X003709Y032080D02*
X003035Y032080D01*
X002957Y032267D02*
X002957Y032400D01*
X003277Y032400D02*
X003277Y031500D01*
X003597Y031500D02*
X003597Y032400D01*
X003734Y031760D02*
X003001Y031760D01*
X002957Y031653D02*
X002957Y031464D01*
X002915Y031440D02*
X002701Y031440D01*
X003917Y031500D02*
X003917Y031520D01*
X003427Y030160D02*
X004597Y030160D01*
X004458Y029910D02*
X004536Y029870D01*
X004606Y029820D01*
X004667Y029758D01*
X004718Y029688D01*
X004757Y029611D01*
X004784Y029529D01*
X004797Y029443D01*
X004797Y029420D01*
X004267Y029420D01*
X004267Y029950D01*
X004291Y029950D01*
X004376Y029936D01*
X004458Y029910D01*
X004267Y029840D02*
X004227Y029840D01*
X004227Y029520D02*
X004267Y029520D01*
X004557Y029420D02*
X004557Y029380D01*
X004785Y029520D02*
X006327Y029520D01*
X006327Y029840D02*
X005976Y029840D01*
X005837Y029743D02*
X005837Y028318D01*
X005517Y028364D02*
X005517Y029700D01*
X005197Y029700D02*
X005197Y028320D01*
X004597Y027920D02*
X004072Y027920D01*
X003917Y028080D02*
X003917Y028960D01*
X004068Y028880D02*
X003427Y028880D01*
X003427Y029200D02*
X003734Y029200D01*
X003917Y029380D02*
X003917Y029420D01*
X003709Y029520D02*
X003427Y029520D01*
X004227Y029200D02*
X004267Y029200D01*
X004267Y028880D02*
X004227Y028880D01*
X004427Y028880D02*
X006327Y028880D01*
X006327Y029200D02*
X004761Y029200D01*
X004557Y028945D02*
X004557Y027851D01*
X006117Y030160D02*
X006327Y030160D01*
X006327Y030480D02*
X006016Y030480D01*
X001827Y032400D02*
X001765Y032400D01*
X002177Y024080D02*
X002227Y024080D01*
X011229Y021840D02*
X011308Y021840D01*
X014797Y020900D02*
X014797Y013386D01*
X016077Y007314D02*
X016077Y006710D01*
X015357Y004680D02*
X015357Y002680D01*
X011917Y002500D02*
X011917Y004724D01*
X019597Y001967D02*
X019597Y001960D01*
X021779Y002960D02*
X021935Y002960D01*
X026317Y002183D02*
X026317Y001960D01*
X027277Y003177D02*
X027277Y004900D01*
X034793Y010640D02*
X037860Y010640D01*
X039796Y011920D02*
X040447Y011920D01*
X040447Y011600D02*
X039854Y011600D01*
X039757Y011983D02*
X039757Y012377D01*
X039845Y012560D02*
X040447Y012560D01*
X040447Y012240D02*
X039593Y012240D01*
X039437Y012183D02*
X039437Y012177D01*
X037886Y013520D02*
X034337Y013520D01*
X034337Y013840D02*
X037886Y013840D01*
X036607Y014180D02*
X034107Y016680D01*
X033787Y016720D02*
X033637Y016720D01*
X033637Y016400D02*
X033935Y016400D01*
X034783Y016400D02*
X035827Y016400D01*
X036107Y015180D02*
X038607Y015180D01*
X038857Y015430D01*
X038857Y016180D01*
X038357Y016680D01*
X038857Y017180D02*
X037607Y017180D01*
X038857Y017180D02*
X039357Y016680D01*
X037837Y015804D02*
X037837Y015460D01*
X039863Y018320D02*
X040447Y018320D01*
X040447Y018640D02*
X039854Y018640D01*
X039779Y018960D02*
X040447Y018960D01*
X040447Y019280D02*
X039660Y019280D01*
X039757Y019377D02*
X039757Y018983D01*
X039437Y019177D02*
X039437Y019183D01*
X039854Y019600D02*
X040447Y019600D01*
X038860Y018640D02*
X038854Y018640D01*
X033218Y022160D02*
X032497Y022160D01*
X029886Y021520D02*
X029829Y021520D01*
X033334Y025680D02*
X033380Y025680D01*
X026637Y028710D02*
X026637Y029091D01*
X026317Y029103D02*
X026317Y028710D01*
X025997Y028710D02*
X025997Y029325D01*
X026123Y029200D02*
X025482Y029200D01*
X025357Y029132D02*
X025357Y028710D01*
X025037Y028710D02*
X025037Y029080D01*
X024745Y029200D02*
X024104Y029200D01*
X024077Y029174D02*
X024077Y028710D01*
X023757Y028710D02*
X023757Y029080D01*
X023437Y029154D02*
X023437Y028710D01*
X023117Y028710D02*
X023117Y029761D01*
X023152Y029520D02*
X022957Y029520D01*
X022957Y029200D02*
X023367Y029200D01*
X022797Y029080D02*
X022797Y028710D01*
X022477Y028710D02*
X022477Y029080D01*
X022157Y029080D02*
X022157Y028710D01*
X021837Y028710D02*
X021837Y029117D01*
X021517Y028710D02*
X021517Y030373D01*
X021446Y030480D02*
X021291Y030480D01*
X021197Y030345D02*
X021197Y028710D01*
X020877Y028710D02*
X020877Y030203D01*
X021324Y030800D02*
X021416Y030800D01*
X021517Y030689D02*
X021517Y030671D01*
X021837Y030671D02*
X021837Y030689D01*
X021866Y030689D02*
X022314Y030689D01*
X022314Y030716D01*
X022303Y030787D01*
X022281Y030855D01*
X022258Y030900D01*
X022429Y030900D01*
X022377Y030775D01*
X022377Y030379D01*
X022278Y030280D01*
X022079Y030280D01*
X022097Y030289D01*
X022155Y030331D01*
X022206Y030382D01*
X022248Y030440D01*
X022281Y030505D01*
X022303Y030573D01*
X022314Y030644D01*
X022314Y030671D01*
X021866Y030671D01*
X021866Y030689D01*
X022157Y030671D02*
X022157Y030689D01*
X022299Y030800D02*
X022387Y030800D01*
X022377Y030480D02*
X022268Y030480D01*
X022157Y030333D02*
X022157Y030280D01*
X021757Y030160D02*
X017860Y030160D01*
X017997Y030222D02*
X017997Y030022D01*
X018074Y029840D02*
X021757Y029840D01*
X021197Y028150D02*
X021197Y026723D01*
X019311Y027280D02*
X018137Y027280D01*
X018137Y026320D02*
X018351Y026320D01*
X019277Y027246D02*
X019277Y028454D01*
X018866Y030480D02*
X018849Y030480D01*
X018446Y030480D02*
X018291Y030480D01*
X017857Y030680D02*
X018357Y031180D01*
X016077Y026814D02*
X016077Y026105D01*
X018607Y024680D02*
X018607Y020930D01*
X021607Y020930D01*
X022357Y021680D01*
X018357Y021930D02*
X018357Y020680D01*
X016618Y021200D02*
X015897Y021200D01*
X015757Y021680D02*
X015607Y021680D01*
X015107Y021180D01*
X016607Y021680D02*
X016757Y021680D01*
X016607Y021680D02*
X013357Y024930D01*
X012441Y029200D02*
X012337Y029200D01*
X024077Y030186D02*
X024077Y030255D01*
X024104Y030160D02*
X024377Y030160D01*
X024377Y029840D02*
X024318Y029840D01*
X024397Y029786D02*
X024397Y028710D01*
X024717Y028710D02*
X024717Y029227D01*
X024530Y029520D02*
X024318Y029520D01*
X024857Y029930D02*
X025107Y029680D01*
X025677Y029474D02*
X025677Y028710D01*
X025696Y029520D02*
X025838Y029520D01*
X024377Y030480D02*
X024291Y030480D01*
X024324Y030800D02*
X024387Y030800D01*
X024397Y030824D02*
X024397Y030900D01*
X026317Y031998D02*
X026317Y032896D01*
D11*
X026357Y021680D03*
X025357Y021680D03*
X024357Y021680D03*
X023357Y021680D03*
X022357Y021680D03*
X021357Y021680D03*
X020357Y021680D03*
X019357Y021680D03*
X017757Y021680D03*
X016757Y021680D03*
X015757Y021680D03*
X014757Y021680D03*
X013757Y021680D03*
X012757Y021680D03*
X011757Y021680D03*
X010757Y021680D03*
X028357Y021680D03*
X029357Y021680D03*
X030357Y021680D03*
X031357Y021680D03*
X032357Y021680D03*
X033357Y021680D03*
X034357Y021680D03*
X035357Y021680D03*
X038357Y021680D03*
X039357Y021680D03*
X039357Y020680D03*
X038357Y020680D03*
X038357Y019680D03*
X039357Y019680D03*
X039357Y018680D03*
X038357Y018680D03*
X038357Y017680D03*
X039357Y017680D03*
X039357Y016680D03*
X038357Y016680D03*
X038357Y015680D03*
X039357Y015680D03*
X039357Y014680D03*
X038357Y014680D03*
X038357Y013680D03*
X039357Y013680D03*
X039357Y012680D03*
X038357Y012680D03*
X038357Y011680D03*
X038357Y010680D03*
X039357Y010680D03*
X039357Y011680D03*
X039357Y009680D03*
X038357Y009680D03*
X038357Y008680D03*
X039357Y008680D03*
X039357Y007680D03*
X038357Y007680D03*
X038357Y006680D03*
X039357Y006680D03*
X039357Y005680D03*
X038357Y005680D03*
X038357Y004680D03*
X039357Y004680D03*
X037357Y002680D03*
X036357Y002680D03*
X035357Y002680D03*
X034357Y002680D03*
X033357Y002680D03*
X032357Y002680D03*
X031357Y002680D03*
X030357Y002680D03*
X028357Y002680D03*
X027357Y002680D03*
X026357Y002680D03*
X025357Y002680D03*
X024357Y002680D03*
X023357Y002680D03*
X022357Y002680D03*
X021357Y002680D03*
X019357Y002680D03*
X018357Y002680D03*
X017357Y002680D03*
X016357Y002680D03*
X015357Y002680D03*
X014357Y002680D03*
D12*
X013857Y031680D03*
X014857Y031680D03*
X015857Y031680D03*
X016857Y031680D03*
X022857Y031680D03*
X023857Y031680D03*
X024857Y031680D03*
X025857Y031680D03*
X031857Y031680D03*
X032857Y031680D03*
X033857Y031680D03*
X034857Y031680D03*
D13*
X034857Y030680D03*
X033857Y030680D03*
X032857Y030680D03*
X031857Y030680D03*
X030857Y030680D03*
X029857Y030680D03*
X027857Y030680D03*
X026857Y030680D03*
X025857Y030680D03*
X024857Y030680D03*
X023857Y030680D03*
X022857Y030680D03*
X021857Y030680D03*
X020857Y030680D03*
X018857Y030680D03*
X017857Y030680D03*
X016857Y030680D03*
X015857Y030680D03*
X014857Y030680D03*
X013857Y030680D03*
X012857Y030680D03*
X011857Y030680D03*
X011857Y025680D03*
X012857Y025680D03*
X013857Y025680D03*
X014857Y025680D03*
X015857Y025680D03*
X016857Y025680D03*
X017857Y025680D03*
X018857Y025680D03*
X020857Y025680D03*
X021857Y025680D03*
X022857Y025680D03*
X023857Y025680D03*
X024857Y025680D03*
X025857Y025680D03*
X026857Y025680D03*
X027857Y025680D03*
X029857Y025680D03*
X030857Y025680D03*
X031857Y025680D03*
X032857Y025680D03*
X033857Y025680D03*
X034857Y025680D03*
X035857Y025680D03*
X036857Y025680D03*
X036857Y030680D03*
X035857Y030680D03*
D14*
X010857Y030680D03*
X009857Y030680D03*
X008857Y030680D03*
X008857Y031680D03*
X009857Y031680D03*
X010857Y031680D03*
D15*
X005515Y027219D03*
X004334Y025369D03*
X003192Y027219D03*
D16*
X005515Y027219D02*
X005607Y027180D01*
X005857Y026930D01*
X005857Y025180D01*
X006107Y025180D01*
X005857Y025180D02*
X005857Y023930D01*
X002857Y023930D01*
X002857Y023971D01*
X009357Y024430D02*
X009367Y024430D01*
X009357Y025180D02*
X011857Y027680D01*
X011857Y030680D01*
X013357Y029680D02*
X013857Y030180D01*
X013857Y030680D01*
X016857Y030680D02*
X016857Y030180D01*
X017357Y029680D01*
X022357Y029680D02*
X022857Y030180D01*
X022857Y030680D01*
X024857Y030680D02*
X024857Y029930D01*
X025107Y029680D02*
X025113Y029680D01*
X025857Y030180D02*
X025857Y030680D01*
X025857Y030180D02*
X026357Y029680D01*
X026491Y029680D01*
X027857Y030680D02*
X027857Y027680D01*
X031357Y029680D02*
X031857Y030180D01*
X031857Y030680D01*
X031857Y031680D01*
X032857Y031680D02*
X032857Y030680D01*
X033857Y030680D02*
X033857Y029930D01*
X034107Y029680D01*
X034857Y030180D02*
X034857Y030680D01*
X034857Y031680D01*
X033857Y031680D02*
X033857Y030680D01*
X034857Y030180D02*
X035357Y029680D01*
X035491Y029680D01*
X005637Y030180D02*
X005077Y030180D01*
X005077Y031180D02*
X005637Y031180D01*
X005357Y002960D02*
X005357Y002400D01*
X004357Y002400D02*
X004357Y002960D01*
D17*
X013357Y029680D03*
X022357Y029680D03*
X031357Y029680D03*
D18*
X032735Y029680D03*
X034113Y029680D03*
X035491Y029680D03*
X026491Y029680D03*
X025113Y029680D03*
X023735Y029680D03*
X017491Y029680D03*
X016113Y029680D03*
X014735Y029680D03*
D19*
X002857Y025349D03*
X002857Y023971D03*
D20*
X002467Y029400D03*
X004247Y029400D03*
X004247Y031960D03*
X002467Y031960D03*
D21*
X007243Y022637D03*
X008243Y022637D03*
X008243Y021637D03*
X007243Y021637D03*
X007243Y020637D03*
X008243Y020637D03*
X008243Y019637D03*
X007243Y019637D03*
X007243Y018637D03*
X008243Y018637D03*
X008243Y017637D03*
X007243Y017637D03*
X007243Y016637D03*
X008243Y016637D03*
X008243Y015637D03*
X007243Y015637D03*
X007243Y014637D03*
X008243Y014637D03*
X008243Y013637D03*
X007243Y013637D03*
X007243Y012637D03*
X008243Y012637D03*
X008243Y011637D03*
X007243Y011637D03*
X007243Y010637D03*
X008243Y010637D03*
X008243Y009637D03*
X007243Y009637D03*
X007243Y008637D03*
X008243Y008637D03*
X008243Y007637D03*
X007243Y007637D03*
X007243Y006637D03*
X008243Y006637D03*
X008243Y005637D03*
X007243Y005637D03*
X007243Y004637D03*
X008243Y004637D03*
X008243Y003637D03*
X007243Y003637D03*
X038357Y028680D03*
X039357Y028680D03*
X039357Y029680D03*
X038357Y029680D03*
X038357Y030680D03*
X039357Y030680D03*
D22*
X005857Y017180D03*
X004157Y018180D03*
X003557Y016980D03*
X003057Y016980D03*
X003057Y016480D03*
X003057Y015980D03*
X003057Y015480D03*
X003557Y015480D03*
X003557Y015980D03*
X003557Y016480D03*
X003557Y014980D03*
X003057Y014980D03*
X003057Y014480D03*
X003557Y014480D03*
X005057Y013180D03*
D23*
X008857Y010180D03*
X009357Y011680D03*
X012857Y008680D03*
X016357Y009180D03*
X020857Y009180D03*
X023357Y011680D03*
X022857Y013680D03*
X025057Y013680D03*
X027357Y012180D03*
X027957Y010380D03*
X026357Y009180D03*
X029857Y009280D03*
X029857Y011080D03*
X032957Y009280D03*
X027157Y019080D03*
X024457Y025080D03*
X026857Y027680D03*
X027857Y027680D03*
X033457Y025180D03*
X034157Y027680D03*
X036857Y020180D03*
X037957Y020180D03*
X016357Y023680D03*
X014957Y027680D03*
X005957Y028680D03*
X006157Y032580D03*
X003857Y007380D03*
X005557Y006780D03*
X002157Y006380D03*
X002157Y003980D03*
D24*
X017557Y032580D03*
D25*
X019357Y028930D03*
X021357Y026430D03*
X016107Y027180D03*
X011857Y026430D03*
X009357Y025180D03*
X006107Y025180D03*
X009357Y028430D03*
X009357Y031680D03*
X025107Y017680D03*
X028607Y018180D03*
X029607Y017430D03*
X030357Y016180D03*
X031107Y015430D03*
X029357Y014430D03*
X031107Y013130D03*
X029857Y012430D03*
X029857Y011930D03*
X030707Y011430D03*
X032107Y011680D03*
X033857Y011180D03*
X028907Y010230D03*
X028357Y010930D03*
X028607Y012180D03*
X028357Y012680D03*
X025107Y014430D03*
X031857Y019680D03*
X032857Y017680D03*
X034107Y016680D03*
X034057Y016080D03*
X036857Y017380D03*
X038107Y022680D03*
X038107Y023180D03*
X038107Y023680D03*
X037357Y027180D03*
X027857Y031680D03*
X026857Y021430D03*
X017857Y009430D03*
X016857Y006430D03*
X017607Y006180D03*
X015357Y004680D03*
X009357Y007930D03*
X002357Y014930D03*
X002357Y017430D03*
X004357Y017430D03*
X005107Y016680D03*
X008857Y016930D03*
X009357Y015180D03*
X010357Y015430D03*
X010857Y015930D03*
X021607Y006180D03*
X022607Y005680D03*
X025107Y007180D03*
D26*
X019357Y002680D02*
X019357Y002180D01*
X007857Y002180D01*
X001857Y008180D01*
X001857Y027680D01*
X003107Y028930D01*
X003107Y031180D01*
X005357Y031180D01*
X004357Y017430D02*
X005107Y016680D01*
X002357Y017430D02*
X002357Y014930D01*
M02*
