G75*
%MOIN*%
%OFA0B0*%
%FSLAX24Y24*%
%IPPOS*%
%LPD*%
%AMOC8*
5,1,8,0,0,1.08239X$1,22.5*
%
%ADD10C,0.0160*%
%ADD11C,0.0634*%
%ADD12R,0.0512X0.0512*%
%ADD13R,0.0552X0.0631*%
%ADD14C,0.0740*%
%ADD15C,0.0594*%
%ADD16C,0.0640*%
%ADD17R,0.0631X0.0552*%
%ADD18R,0.1418X0.0670*%
%ADD19C,0.1930*%
%ADD20C,0.0600*%
%ADD21R,0.0840X0.0840*%
%ADD22C,0.0840*%
%ADD23C,0.0900*%
%ADD24C,0.0780*%
%ADD25OC8,0.0640*%
%ADD26R,0.0540X0.0290*%
%ADD27R,0.0335X0.0473*%
%ADD28R,0.0906X0.0276*%
%ADD29R,0.1040X0.2040*%
%ADD30R,0.0670X0.0552*%
%ADD31R,0.0552X0.0670*%
%ADD32R,0.1615X0.0670*%
%ADD33R,0.0670X0.0906*%
%ADD34R,0.0394X0.0177*%
%ADD35R,0.0827X0.0827*%
%ADD36R,0.0749X0.0709*%
D10*
X002145Y001680D02*
X039940Y001680D01*
X040727Y002467D01*
X040727Y032389D01*
X039940Y033176D01*
X002145Y033176D01*
X001357Y032389D01*
X001357Y002467D01*
X002145Y001680D01*
D11*
X014357Y002680D03*
X015357Y002680D03*
X016357Y002680D03*
X017357Y002680D03*
X018357Y002680D03*
X019357Y002680D03*
X021357Y002680D03*
X022357Y002680D03*
X023357Y002680D03*
X024357Y002680D03*
X025357Y002680D03*
X026357Y002680D03*
X027357Y002680D03*
X028357Y002680D03*
X030357Y002680D03*
X031357Y002680D03*
X032357Y002680D03*
X033357Y002680D03*
X034357Y002680D03*
X035357Y002680D03*
X036357Y002680D03*
X037357Y002680D03*
X038357Y004680D03*
X039357Y004680D03*
X039357Y005680D03*
X038357Y005680D03*
X038357Y006680D03*
X039357Y006680D03*
X039357Y007680D03*
X038357Y007680D03*
X038357Y008680D03*
X039357Y008680D03*
X039357Y009680D03*
X038357Y009680D03*
X038357Y010680D03*
X038357Y011680D03*
X039357Y011680D03*
X039357Y010680D03*
X039357Y012680D03*
X038357Y012680D03*
X038357Y013680D03*
X039357Y013680D03*
X039357Y014680D03*
X038357Y014680D03*
X038357Y015680D03*
X039357Y015680D03*
X039357Y016680D03*
X038357Y016680D03*
X038357Y017680D03*
X039357Y017680D03*
X039357Y018680D03*
X038357Y018680D03*
X038357Y019680D03*
X039357Y019680D03*
X039357Y020680D03*
X038357Y020680D03*
X038357Y021680D03*
X039357Y021680D03*
X035357Y021680D03*
X034357Y021680D03*
X033357Y021680D03*
X032357Y021680D03*
X031357Y021680D03*
X030357Y021680D03*
X029357Y021680D03*
X028357Y021680D03*
X026357Y021680D03*
X025357Y021680D03*
X024357Y021680D03*
X023357Y021680D03*
X022357Y021680D03*
X021357Y021680D03*
X020357Y021680D03*
X019357Y021680D03*
X017757Y021680D03*
X016757Y021680D03*
X015757Y021680D03*
X014757Y021680D03*
X013757Y021680D03*
X012757Y021680D03*
X011757Y021680D03*
X010757Y021680D03*
D12*
X007271Y028680D03*
X006444Y028680D03*
X006444Y029680D03*
X007271Y029680D03*
X007271Y030680D03*
X006444Y030680D03*
X006444Y031680D03*
X007271Y031680D03*
X018357Y031767D03*
X018357Y032593D03*
X027357Y032593D03*
X027357Y031767D03*
X036357Y031767D03*
X036357Y032593D03*
X012771Y002480D03*
X011944Y002480D03*
D13*
X011983Y003480D03*
X012731Y003480D03*
X012692Y006180D03*
X012023Y006180D03*
X014023Y006180D03*
X014692Y006180D03*
X002692Y019180D03*
X002023Y019180D03*
X015983Y024680D03*
X016731Y024680D03*
X024983Y024680D03*
X025731Y024680D03*
X033983Y024680D03*
X034731Y024680D03*
D14*
X034857Y031680D03*
X033857Y031680D03*
X032857Y031680D03*
X031857Y031680D03*
X025857Y031680D03*
X024857Y031680D03*
X023857Y031680D03*
X022857Y031680D03*
X016857Y031680D03*
X015857Y031680D03*
X014857Y031680D03*
X013857Y031680D03*
D15*
X013857Y030680D03*
X014857Y030680D03*
X015857Y030680D03*
X016857Y030680D03*
X017857Y030680D03*
X018857Y030680D03*
X020857Y030680D03*
X021857Y030680D03*
X022857Y030680D03*
X023857Y030680D03*
X024857Y030680D03*
X025857Y030680D03*
X026857Y030680D03*
X027857Y030680D03*
X029857Y030680D03*
X030857Y030680D03*
X031857Y030680D03*
X032857Y030680D03*
X033857Y030680D03*
X034857Y030680D03*
X035857Y030680D03*
X036857Y030680D03*
X036857Y025680D03*
X035857Y025680D03*
X034857Y025680D03*
X033857Y025680D03*
X032857Y025680D03*
X031857Y025680D03*
X030857Y025680D03*
X029857Y025680D03*
X027857Y025680D03*
X026857Y025680D03*
X025857Y025680D03*
X024857Y025680D03*
X023857Y025680D03*
X022857Y025680D03*
X021857Y025680D03*
X020857Y025680D03*
X018857Y025680D03*
X017857Y025680D03*
X016857Y025680D03*
X015857Y025680D03*
X014857Y025680D03*
X013857Y025680D03*
X012857Y025680D03*
X011857Y025680D03*
X011857Y030680D03*
X012857Y030680D03*
D16*
X010857Y030680D03*
X009857Y030680D03*
X008857Y030680D03*
X008857Y031680D03*
X009857Y031680D03*
X010857Y031680D03*
D17*
X010857Y029515D03*
X010857Y028845D03*
X019357Y031806D03*
X019357Y032554D03*
X020857Y029515D03*
X020857Y028845D03*
X019857Y027054D03*
X019857Y026306D03*
X028357Y031806D03*
X028357Y032554D03*
X029857Y029515D03*
X029857Y028845D03*
X028857Y027054D03*
X028857Y026306D03*
X037357Y031806D03*
X037357Y032554D03*
X037857Y027054D03*
X037857Y026306D03*
X005857Y017515D03*
X005857Y016845D03*
X005357Y013515D03*
X005357Y012845D03*
X004357Y012845D03*
X004357Y013515D03*
D18*
X011794Y027680D03*
X013920Y027680D03*
X023294Y027680D03*
X025420Y027680D03*
X030794Y027680D03*
X032920Y027680D03*
D19*
X005515Y027219D03*
X004334Y025369D03*
X003192Y027219D03*
D20*
X005077Y030180D02*
X005637Y030180D01*
X005637Y031180D02*
X005077Y031180D01*
X005357Y002960D02*
X005357Y002400D01*
X004357Y002400D02*
X004357Y002960D01*
D21*
X013357Y029680D03*
X022357Y029680D03*
X031357Y029680D03*
D22*
X032735Y029680D03*
X034113Y029680D03*
X035491Y029680D03*
X026491Y029680D03*
X025113Y029680D03*
X023735Y029680D03*
X017491Y029680D03*
X016113Y029680D03*
X014735Y029680D03*
D23*
X002857Y025349D03*
X002857Y023971D03*
D24*
X002467Y029400D03*
X004247Y029400D03*
X004247Y031960D03*
X002467Y031960D03*
D25*
X007243Y022637D03*
X008243Y022637D03*
X008243Y021637D03*
X007243Y021637D03*
X007243Y020637D03*
X008243Y020637D03*
X008243Y019637D03*
X007243Y019637D03*
X007243Y018637D03*
X008243Y018637D03*
X008243Y017637D03*
X007243Y017637D03*
X007243Y016637D03*
X008243Y016637D03*
X008243Y015637D03*
X007243Y015637D03*
X007243Y014637D03*
X008243Y014637D03*
X008243Y013637D03*
X007243Y013637D03*
X007243Y012637D03*
X008243Y012637D03*
X008243Y011637D03*
X007243Y011637D03*
X007243Y010637D03*
X008243Y010637D03*
X008243Y009637D03*
X007243Y009637D03*
X007243Y008637D03*
X008243Y008637D03*
X008243Y007637D03*
X007243Y007637D03*
X007243Y006637D03*
X008243Y006637D03*
X008243Y005637D03*
X007243Y005637D03*
X007243Y004637D03*
X008243Y004637D03*
X008243Y003637D03*
X007243Y003637D03*
X038357Y028680D03*
X039357Y028680D03*
X039357Y029680D03*
X038357Y029680D03*
X038357Y030680D03*
X039357Y030680D03*
D26*
X032857Y024857D03*
X032857Y024503D03*
X031857Y024480D03*
X031857Y024880D03*
X030857Y024880D03*
X030857Y024480D03*
X023857Y024503D03*
X023857Y024857D03*
X022857Y024880D03*
X022857Y024480D03*
X021857Y024480D03*
X021857Y024880D03*
X014857Y024857D03*
X014857Y024503D03*
X013857Y024480D03*
X013857Y024880D03*
X012857Y024880D03*
X012857Y024480D03*
D27*
X008607Y026759D03*
X008107Y026759D03*
X007607Y026759D03*
X007107Y026759D03*
X007107Y027601D03*
X007607Y027601D03*
X008107Y027601D03*
X008607Y027601D03*
D28*
X004881Y015930D03*
X004881Y015430D03*
X004881Y014930D03*
X004881Y014430D03*
X002834Y014430D03*
X002834Y014930D03*
X002834Y015430D03*
X002834Y015930D03*
D29*
X003857Y015180D03*
D30*
X005857Y015074D03*
X005857Y014286D03*
X002757Y011574D03*
X002757Y010786D03*
D31*
X002464Y002680D03*
X003251Y002680D03*
X004964Y019180D03*
X005751Y019180D03*
X005751Y023680D03*
X004964Y023680D03*
D32*
X005109Y021444D03*
X002708Y021444D03*
X002656Y005180D03*
X005058Y005180D03*
D33*
X005176Y008731D03*
X002656Y008731D03*
D34*
X019706Y007448D03*
X019706Y007192D03*
X019706Y006936D03*
X019706Y006680D03*
X019706Y006424D03*
X019706Y006168D03*
X019706Y005912D03*
X019706Y005674D03*
X019706Y005418D03*
X019706Y005162D03*
X022009Y005162D03*
X022009Y005418D03*
X022009Y005674D03*
X022009Y005912D03*
X022009Y006168D03*
X022009Y006424D03*
X022009Y006680D03*
X022009Y006936D03*
X022009Y007192D03*
X022009Y007448D03*
X030206Y007424D03*
X030206Y007168D03*
X030206Y006912D03*
X030206Y007680D03*
X030206Y007936D03*
X030206Y008192D03*
X030206Y008448D03*
X030206Y008686D03*
X030206Y008942D03*
X030206Y009198D03*
X030206Y010662D03*
X030206Y010918D03*
X030206Y011174D03*
X030206Y011412D03*
X030206Y011668D03*
X030206Y011924D03*
X030206Y012180D03*
X030206Y012436D03*
X030206Y012692D03*
X030206Y012948D03*
X032509Y012948D03*
X032509Y012692D03*
X032509Y012436D03*
X032509Y012180D03*
X032509Y011924D03*
X032509Y011668D03*
X032509Y011412D03*
X032509Y011174D03*
X032509Y010918D03*
X032509Y010662D03*
X032509Y009198D03*
X032509Y008942D03*
X032509Y008686D03*
X032509Y008448D03*
X032509Y008192D03*
X032509Y007936D03*
X032509Y007680D03*
X032509Y007424D03*
X032509Y007168D03*
X032509Y006912D03*
X022009Y017912D03*
X022009Y018168D03*
X022009Y018424D03*
X022009Y018680D03*
X022009Y018936D03*
X022009Y019192D03*
X022009Y019448D03*
X022009Y019686D03*
X022009Y019942D03*
X022009Y020198D03*
X019706Y020198D03*
X019706Y019942D03*
X019706Y019686D03*
X019706Y019448D03*
X019706Y019192D03*
X019706Y018936D03*
X019706Y018680D03*
X019706Y018424D03*
X019706Y018168D03*
X019706Y017912D03*
D35*
X005445Y011180D03*
X003870Y011180D03*
D36*
X011550Y004680D03*
X013164Y004680D03*
M02*
