G75*
%MOIN*%
%OFA0B0*%
%FSLAX24Y24*%
%IPPOS*%
%LPD*%
%AMOC8*
5,1,8,0,0,1.08239X$1,22.5*
%
%ADD10C,0.0160*%
%ADD11C,0.0631*%
%ADD12C,0.0740*%
%ADD13C,0.0571*%
%ADD14C,0.0640*%
%ADD15C,0.1930*%
%ADD16C,0.0580*%
%ADD17R,0.0840X0.0840*%
%ADD18C,0.0840*%
%ADD19C,0.0900*%
%ADD20C,0.0780*%
%ADD21OC8,0.0640*%
D10*
X002180Y002467D02*
X002967Y001680D01*
X040763Y001680D01*
X041550Y002467D01*
X041550Y032389D01*
X040763Y033176D01*
X002967Y033176D01*
X002180Y032389D01*
X002180Y002467D01*
D11*
X015180Y002680D03*
X016180Y002680D03*
X017180Y002680D03*
X018180Y002680D03*
X019180Y002680D03*
X020180Y002680D03*
X022180Y002680D03*
X023180Y002680D03*
X024180Y002680D03*
X025180Y002680D03*
X026180Y002680D03*
X027180Y002680D03*
X028180Y002680D03*
X029180Y002680D03*
X031180Y002680D03*
X032180Y002680D03*
X033180Y002680D03*
X034180Y002680D03*
X035180Y002680D03*
X036180Y002680D03*
X037180Y002680D03*
X038180Y002680D03*
X039180Y004680D03*
X040180Y004680D03*
X040180Y005680D03*
X039180Y005680D03*
X039180Y006680D03*
X040180Y006680D03*
X040180Y007680D03*
X039180Y007680D03*
X039180Y008680D03*
X040180Y008680D03*
X040180Y009680D03*
X039180Y009680D03*
X039180Y010680D03*
X039180Y011680D03*
X040180Y011680D03*
X040180Y010680D03*
X040180Y012680D03*
X039180Y012680D03*
X039180Y013680D03*
X040180Y013680D03*
X040180Y014680D03*
X039180Y014680D03*
X039180Y015680D03*
X040180Y015680D03*
X040180Y016680D03*
X039180Y016680D03*
X039180Y017680D03*
X040180Y017680D03*
X040180Y018680D03*
X039180Y018680D03*
X039180Y019680D03*
X040180Y019680D03*
X040180Y020680D03*
X039180Y020680D03*
X039180Y021680D03*
X040180Y021680D03*
X036180Y021680D03*
X035180Y021680D03*
X034180Y021680D03*
X033180Y021680D03*
X032180Y021680D03*
X031180Y021680D03*
X030180Y021680D03*
X029180Y021680D03*
X027180Y021680D03*
X026180Y021680D03*
X025180Y021680D03*
X024180Y021680D03*
X023180Y021680D03*
X022180Y021680D03*
X021180Y021680D03*
X020180Y021680D03*
X018580Y021680D03*
X017580Y021680D03*
X016580Y021680D03*
X015580Y021680D03*
X014580Y021680D03*
X013580Y021680D03*
X012580Y021680D03*
X011580Y021680D03*
D12*
X014680Y031680D03*
X015680Y031680D03*
X016680Y031680D03*
X017680Y031680D03*
X023680Y031680D03*
X024680Y031680D03*
X025680Y031680D03*
X026680Y031680D03*
X032680Y031680D03*
X033680Y031680D03*
X034680Y031680D03*
X035680Y031680D03*
D13*
X035680Y030680D03*
X036680Y030680D03*
X037680Y030680D03*
X034680Y030680D03*
X033680Y030680D03*
X032680Y030680D03*
X031680Y030680D03*
X030680Y030680D03*
X028680Y030680D03*
X027680Y030680D03*
X026680Y030680D03*
X025680Y030680D03*
X024680Y030680D03*
X023680Y030680D03*
X022680Y030680D03*
X021680Y030680D03*
X019680Y030680D03*
X018680Y030680D03*
X017680Y030680D03*
X016680Y030680D03*
X015680Y030680D03*
X014680Y030680D03*
X013680Y030680D03*
X012680Y030680D03*
X012680Y025680D03*
X013680Y025680D03*
X014680Y025680D03*
X015680Y025680D03*
X016680Y025680D03*
X017680Y025680D03*
X018680Y025680D03*
X019680Y025680D03*
X021680Y025680D03*
X022680Y025680D03*
X023680Y025680D03*
X024680Y025680D03*
X025680Y025680D03*
X026680Y025680D03*
X027680Y025680D03*
X028680Y025680D03*
X030680Y025680D03*
X031680Y025680D03*
X032680Y025680D03*
X033680Y025680D03*
X034680Y025680D03*
X035680Y025680D03*
X036680Y025680D03*
X037680Y025680D03*
D14*
X011680Y030680D03*
X010680Y030680D03*
X010680Y031680D03*
X011680Y031680D03*
X009680Y031680D03*
X009680Y030680D03*
D15*
X006337Y027219D03*
X004015Y027219D03*
X005156Y025369D03*
D16*
X005910Y030180D02*
X006450Y030180D01*
X006450Y031180D02*
X005910Y031180D01*
X006180Y002950D02*
X006180Y002410D01*
X005180Y002410D02*
X005180Y002950D01*
D17*
X014180Y029380D03*
X023180Y029380D03*
X032180Y029380D03*
D18*
X033558Y029380D03*
X034936Y029380D03*
X036314Y029380D03*
X027314Y029380D03*
X025936Y029380D03*
X024558Y029380D03*
X018314Y029380D03*
X016936Y029380D03*
X015558Y029380D03*
D19*
X003680Y025349D03*
X003680Y023971D03*
D20*
X003290Y029400D03*
X005070Y029400D03*
X005070Y031960D03*
X003290Y031960D03*
D21*
X008066Y022637D03*
X009066Y022637D03*
X009066Y021637D03*
X008066Y021637D03*
X008066Y020637D03*
X009066Y020637D03*
X009066Y019637D03*
X008066Y019637D03*
X008066Y018637D03*
X009066Y018637D03*
X009066Y017637D03*
X008066Y017637D03*
X008066Y016637D03*
X009066Y016637D03*
X009066Y015637D03*
X008066Y015637D03*
X008066Y014637D03*
X009066Y014637D03*
X009066Y013637D03*
X008066Y013637D03*
X008066Y012637D03*
X009066Y012637D03*
X009066Y011637D03*
X008066Y011637D03*
X008066Y010637D03*
X009066Y010637D03*
X009066Y009637D03*
X008066Y009637D03*
X008066Y008637D03*
X009066Y008637D03*
X009066Y007637D03*
X008066Y007637D03*
X008066Y006637D03*
X009066Y006637D03*
X009066Y005637D03*
X008066Y005637D03*
X008066Y004637D03*
X009066Y004637D03*
X009066Y003637D03*
X008066Y003637D03*
X039180Y028680D03*
X040180Y028680D03*
X040180Y029680D03*
X039180Y029680D03*
X039180Y030680D03*
X040180Y030680D03*
M02*
