%
M48
M72
T01C0.01200
T02C0.01600
T03C0.01969
T04C0.02362
T05C0.03500
T06C0.03543
T07C0.03600
T08C0.03937
T09C0.04000
T10C0.04724
T11C0.05800
T12C0.11811
%
T01
X113573Y59300
X131073Y69300
X136073Y74300
X143573Y89300
X126073Y89300
X103573Y74300
X98573Y74300
X94073Y106300
X103573Y106800
X113573Y119300
X133573Y119300
X173573Y119300
X173573Y119300
X196573Y135800
X188573Y154300
X169073Y159800
X148573Y154300
X128573Y164300
X93073Y176300
X91573Y184800
X68073Y186300
X43573Y169300
X41573Y163800
X41573Y158800
X41573Y153800
X41573Y148800
X41573Y143800
X41573Y138800
X41573Y133800
X41573Y128800
X36573Y128800
X36573Y133800
X36573Y138800
X36573Y143800
X36573Y148800
X36573Y153800
X36573Y158800
X31573Y158800
X26573Y158800
X26573Y163800
X31573Y163800
X36573Y163800
X51073Y161800
X36573Y123800
X36573Y118800
X36573Y113800
X36573Y108800
X128573Y191800
X113573Y211800
X113573Y231800
X93573Y236800
X71073Y236800
X93573Y269300
X118573Y249300
X161073Y256800
X213573Y257300
X188573Y302800
X93573Y296800
X209573Y167300
X218573Y154300
X237573Y152800
X252573Y152800
X286073Y164300
X279573Y190800
X269573Y190800
X268573Y199300
X279573Y215800
X238573Y188300
X215573Y186800
X248573Y111800
X261073Y106800
X253573Y89300
X213573Y89300
X188573Y89300
X181073Y75800
X168573Y81800
X168573Y89300
X158573Y56800
X168573Y51800
X153573Y46800
X243573Y49300
X296073Y59300
X306073Y61800
X308573Y51800
X341073Y46800
X333573Y146800
X381073Y211800
X381073Y216800
X381073Y221800
X395073Y225800
X368573Y251800
T02
X48573Y28800
X58573Y28800
X58573Y51800
X58573Y61800
X58573Y72800
X54573Y106800
X59573Y121800
X59573Y147800
X28573Y149800
X28573Y106800
X103573Y31800
X108573Y15800
X160573Y29800
X285573Y121800
X318073Y75300
X333573Y51800
T03
X244573Y218800
T04
X196573Y78800
X236073Y56800
X256073Y56800
X281573Y59300
X283573Y36800
X333573Y36800
X333573Y101800
X285573Y91800
X402073Y21300
X334573Y235300
X341573Y261800
X295573Y302800
X278573Y301800
X278573Y261800
X268573Y261800
X244573Y234800
X203573Y227800
X183573Y256800
X173573Y261800
X149573Y261800
X154573Y236800
X168573Y217800
X106073Y217300
X99573Y261800
X59573Y271800
X61573Y310800
X43573Y211800
X43573Y176800
X58573Y166800
X199573Y302800
T05
X343573Y211800
X353573Y211800
X363573Y131800
X363573Y121800
X373573Y91800
X373573Y81800
X373573Y71800
X373573Y61800
X363573Y61800
X363573Y71800
X363573Y81800
X363573Y91800
T06
X118573Y241800
X128573Y241800
X138573Y241800
X148573Y241800
X158573Y241800
X168573Y241800
X178573Y241800
X188573Y241800
X208573Y241800
X218573Y241800
X228573Y241800
X238573Y241800
X248573Y241800
X258573Y241800
X268573Y241800
X278573Y241800
X298573Y241800
X308573Y241800
X318573Y241800
X328573Y241800
X338573Y241800
X348573Y241800
X358573Y241800
X368573Y241800
X373573Y141800
X373573Y131800
X373573Y121800
X368573Y291800
X358573Y291800
X348573Y291800
X338573Y291800
X328573Y291800
X318573Y291800
X308573Y291800
X298573Y291800
X278573Y291800
X268573Y291800
X258573Y291800
X248573Y291800
X238573Y291800
X228573Y291800
X218573Y291800
X208573Y291800
X188573Y291800
X178573Y291800
X168573Y291800
X158573Y291800
X148573Y291800
X138573Y291800
X128573Y291800
X118573Y291800
T07
X43573Y11800
X53573Y11800
T08
X143573Y11800
X153573Y11800
X163573Y11800
X173573Y11800
X183573Y11800
X193573Y11800
X213573Y11800
X223573Y11800
X233573Y11800
X243573Y11800
X253573Y11800
X263573Y11800
X273573Y11800
X283573Y11800
X303573Y11800
X313573Y11800
X323573Y11800
X333573Y11800
X343573Y11800
X353573Y11800
X363573Y11800
X373573Y11800
X383573Y31800
X393573Y31800
X393573Y41800
X383573Y41800
X383573Y51800
X393573Y51800
X393573Y61800
X383573Y61800
X383573Y71800
X393573Y71800
X393573Y81800
X383573Y81800
X383573Y91800
X393573Y91800
X393573Y101800
X383573Y101800
X383573Y111800
X393573Y111800
X393573Y121800
X383573Y121800
X383573Y141800
X393573Y141800
X393573Y131800
X383573Y131800
X383573Y151800
X393573Y151800
X393573Y161800
X383573Y161800
X383573Y171800
X393573Y171800
X393573Y181800
X383573Y181800
X383573Y191800
X393573Y191800
X393573Y201800
X383573Y201800
X353573Y201800
X343573Y201800
X333573Y201800
X323573Y201800
X313573Y201800
X303573Y201800
X293573Y201800
X283573Y201800
X263573Y201800
X253573Y201800
X243573Y201800
X233573Y201800
X223573Y201800
X213573Y201800
X203573Y201800
X193573Y201800
X177573Y201800
X167573Y201800
X157573Y201800
X147573Y201800
X137573Y201800
X127573Y201800
X117573Y201800
X107573Y201800
X28573Y224713
X28573Y238493
T09
X72431Y21367
X82431Y21367
X82431Y31367
X72431Y31367
X72431Y41367
X82431Y41367
X82431Y51367
X72431Y51367
X72431Y61367
X82431Y61367
X82431Y71367
X72431Y71367
X72431Y81367
X82431Y81367
X82431Y91367
X72431Y91367
X72431Y101367
X82431Y101367
X82431Y111367
X72431Y111367
X72431Y121367
X82431Y121367
X82431Y131367
X72431Y131367
X72431Y141367
X82431Y141367
X82431Y151367
X72431Y151367
X72431Y161367
X82431Y161367
X82431Y171367
X72431Y171367
X72431Y181367
X82431Y181367
X82431Y191367
X72431Y191367
X72431Y201367
X82431Y201367
X82431Y211367
X72431Y211367
X42473Y279000
X24673Y279000
X24673Y304600
X42473Y304600
X88573Y291800
X98573Y291800
X108573Y291800
X108573Y281800
X98573Y281800
X88573Y281800
X138573Y301800
X148573Y301800
X158573Y301800
X168573Y301800
X228573Y301800
X238573Y301800
X248573Y301800
X258573Y301800
X318573Y301800
X328573Y301800
X338573Y301800
X348573Y301800
X383573Y291800
X393573Y291800
X393573Y281800
X383573Y281800
X383573Y271800
X393573Y271800
X393573Y256800
X383573Y256800
X383573Y246800
X393573Y246800
X393573Y236800
X383573Y236800
X373573Y21800
X363573Y21800
X353573Y21800
X343573Y21800
X333573Y21800
X323573Y21800
X313573Y21800
X303573Y21800
X283573Y21800
X273573Y21800
X263573Y21800
X253573Y21800
X243573Y21800
X233573Y21800
X223573Y21800
X213573Y21800
T10
X354911Y278800
X341132Y278800
X327352Y278800
X313573Y278800
X264911Y278800
X251132Y278800
X237352Y278800
X223573Y278800
X174911Y278800
X161132Y278800
X147352Y278800
X133573Y278800
T11
X343573Y211800
X353573Y211800
X373573Y141800
X373573Y131800
X363573Y131800
X363573Y121800
X373573Y121800
X373573Y91800
X363573Y91800
X363573Y81800
X363573Y71800
X363573Y61800
X373573Y61800
X373573Y71800
X373573Y81800
T12
X43337Y238690
X31919Y257194
X55148Y257194
M30
