G75*
%MOIN*%
%OFA0B0*%
%FSLAX24Y24*%
%IPPOS*%
%LPD*%
%AMOC8*
5,1,8,0,0,1.08239X$1,22.5*
%
%ADD10C,0.0160*%
%ADD11R,0.1400X0.1100*%
%ADD12C,0.0594*%
%ADD13R,0.0472X0.0472*%
%ADD14R,0.0512X0.0591*%
%ADD15C,0.0700*%
%ADD16C,0.0554*%
%ADD17C,0.0600*%
%ADD18R,0.0591X0.0512*%
%ADD19R,0.1378X0.0630*%
%ADD20C,0.1890*%
%ADD21C,0.0560*%
%ADD22R,0.0800X0.0800*%
%ADD23C,0.0800*%
%ADD24C,0.0860*%
%ADD25C,0.0740*%
%ADD26OC8,0.0600*%
%ADD27C,0.0080*%
%ADD28R,0.0500X0.0250*%
%ADD29R,0.0295X0.0433*%
%ADD30R,0.0866X0.0236*%
%ADD31R,0.1000X0.2000*%
%ADD32R,0.0630X0.0512*%
%ADD33R,0.0512X0.0630*%
%ADD34R,0.1575X0.0630*%
%ADD35R,0.0630X0.0866*%
%ADD36R,0.0354X0.0138*%
%ADD37OC8,0.0317*%
%ADD38OC8,0.0356*%
%ADD39C,0.0320*%
%ADD40R,0.0356X0.0356*%
%ADD41C,0.0240*%
%ADD42C,0.0200*%
%ADD43OC8,0.0240*%
D10*
X002145Y001680D02*
X039940Y001680D01*
X040727Y002467D01*
X040727Y032389D01*
X039940Y033176D01*
X002145Y033176D01*
X001357Y032389D01*
X001357Y002467D01*
X002145Y001680D01*
X002310Y002080D02*
X002205Y002185D01*
X002416Y002185D01*
X002416Y002632D01*
X002512Y002632D01*
X002512Y002185D01*
X002723Y002185D01*
X002724Y002184D01*
X002814Y002094D01*
X002847Y002080D01*
X002310Y002080D01*
X002317Y002080D02*
X002317Y002185D01*
X002416Y002320D02*
X002512Y002320D01*
X002637Y002185D02*
X002637Y002080D01*
X002416Y002632D02*
X002028Y002632D01*
X002028Y002363D01*
X001757Y002633D01*
X001757Y004722D01*
X001759Y004721D01*
X001800Y004697D01*
X001845Y004685D01*
X002579Y004685D01*
X002579Y005103D01*
X002734Y005103D01*
X002734Y005257D01*
X003624Y005257D01*
X003624Y005519D01*
X003612Y005564D01*
X003588Y005605D01*
X003554Y005639D01*
X003513Y005663D01*
X003468Y005675D01*
X002734Y005675D01*
X002734Y005257D01*
X002579Y005257D01*
X002579Y005675D01*
X001845Y005675D01*
X001800Y005663D01*
X001759Y005639D01*
X001757Y005638D01*
X001757Y012358D01*
X001808Y012307D01*
X001970Y012240D01*
X001757Y012240D01*
X001970Y012240D02*
X002667Y012240D01*
X002667Y011984D01*
X002278Y011984D01*
X002160Y011936D01*
X002070Y011846D01*
X002022Y011728D01*
X002022Y010734D01*
X002070Y010617D01*
X002160Y010527D01*
X002278Y010478D01*
X003035Y010478D01*
X003153Y010527D01*
X003243Y010617D01*
X003291Y010734D01*
X003291Y011280D01*
X003917Y011280D01*
X003917Y011600D02*
X003547Y011600D01*
X003547Y011592D02*
X003547Y012945D01*
X003571Y012945D01*
X003688Y012994D01*
X003778Y013084D01*
X003827Y013201D01*
X003827Y013760D01*
X003917Y013760D01*
X003917Y009580D01*
X003742Y009580D01*
X003716Y009591D01*
X002998Y009591D01*
X002881Y009542D01*
X002791Y009452D01*
X002742Y009334D01*
X002742Y008695D01*
X002791Y008577D01*
X002881Y008487D01*
X002882Y008487D01*
X002882Y008393D01*
X003309Y008393D01*
X003309Y008297D01*
X003405Y008297D01*
X003405Y007909D01*
X003676Y007909D01*
X003722Y007922D01*
X003763Y007945D01*
X003797Y007979D01*
X003820Y008020D01*
X003833Y008066D01*
X003833Y008297D01*
X003405Y008297D01*
X003405Y008393D01*
X003833Y008393D01*
X003833Y008487D01*
X003834Y008487D01*
X003924Y008577D01*
X003973Y008695D01*
X003973Y008780D01*
X004173Y008780D01*
X004242Y008751D01*
X004242Y008695D01*
X004248Y008680D01*
X004242Y008665D01*
X004242Y008026D01*
X004291Y007908D01*
X004381Y007818D01*
X004417Y007803D01*
X004417Y005815D01*
X004207Y005815D01*
X004089Y005766D01*
X003999Y005676D01*
X003951Y005559D01*
X003951Y004896D01*
X003608Y004553D01*
X003484Y004429D01*
X003417Y004268D01*
X003417Y003315D01*
X002931Y003315D01*
X002814Y003266D01*
X002724Y003176D01*
X002723Y003175D01*
X002512Y003175D01*
X002512Y002728D01*
X002416Y002728D01*
X002416Y003175D01*
X002184Y003175D01*
X002138Y003163D01*
X002097Y003139D01*
X002064Y003105D01*
X002040Y003064D01*
X002028Y003019D01*
X002028Y002728D01*
X002416Y002728D01*
X002416Y002632D01*
X002416Y002640D02*
X001757Y002640D01*
X001757Y002960D02*
X002028Y002960D01*
X002317Y003175D02*
X002317Y004685D01*
X001997Y004685D02*
X001997Y002393D01*
X002317Y002632D02*
X002317Y002728D01*
X002416Y002960D02*
X002512Y002960D01*
X002637Y003175D02*
X002637Y005103D01*
X002734Y005103D02*
X002734Y004685D01*
X003468Y004685D01*
X003513Y004697D01*
X003554Y004721D01*
X003588Y004755D01*
X003612Y004796D01*
X003624Y004841D01*
X003624Y005103D01*
X002734Y005103D01*
X002734Y005200D02*
X003951Y005200D01*
X003951Y005520D02*
X003624Y005520D01*
X003597Y005589D02*
X003597Y007909D01*
X003405Y008080D02*
X003309Y008080D01*
X003309Y007909D02*
X003309Y008297D01*
X002882Y008297D01*
X002882Y008066D01*
X002894Y008020D01*
X002918Y007979D01*
X002951Y007945D01*
X002993Y007922D01*
X003038Y007909D01*
X003309Y007909D01*
X003277Y007909D02*
X003277Y005675D01*
X002957Y005675D02*
X002957Y007942D01*
X002882Y008080D02*
X001757Y008080D01*
X001757Y007760D02*
X004417Y007760D01*
X004417Y007440D02*
X001757Y007440D01*
X001757Y007120D02*
X004417Y007120D01*
X004417Y006800D02*
X001757Y006800D01*
X001757Y006480D02*
X004417Y006480D01*
X004417Y006160D02*
X001757Y006160D01*
X001757Y005840D02*
X004417Y005840D01*
X004237Y005815D02*
X004237Y008753D01*
X004242Y008720D02*
X003973Y008720D01*
X003917Y008571D02*
X003917Y004862D01*
X003935Y004880D02*
X003624Y004880D01*
X003597Y004771D02*
X003597Y004542D01*
X003608Y004553D02*
X003608Y004553D01*
X003615Y004560D02*
X001757Y004560D01*
X001757Y004240D02*
X003417Y004240D01*
X003417Y003920D02*
X001757Y003920D01*
X001757Y003600D02*
X003417Y003600D01*
X003277Y003315D02*
X003277Y004685D01*
X002957Y004685D02*
X002957Y003315D01*
X002847Y003280D02*
X001757Y003280D01*
X003251Y002680D02*
X003357Y002680D01*
X002734Y004880D02*
X002579Y004880D01*
X002637Y005257D02*
X002637Y010478D01*
X002317Y010478D02*
X002317Y005675D01*
X002579Y005520D02*
X002734Y005520D01*
X002957Y005257D02*
X002957Y005103D01*
X003277Y005103D02*
X003277Y005257D01*
X003597Y005257D02*
X003597Y005103D01*
X004857Y005180D02*
X005058Y005180D01*
X005297Y005815D02*
X005297Y007803D01*
X005334Y007818D01*
X005424Y007908D01*
X005473Y008026D01*
X005473Y008045D01*
X005584Y008091D01*
X005696Y008203D01*
X005757Y008350D01*
X005757Y009510D01*
X005696Y009657D01*
X005584Y009769D01*
X005507Y009801D01*
X005507Y010478D01*
X005555Y010478D01*
X005672Y010527D01*
X005762Y010617D01*
X005811Y010734D01*
X005811Y011728D01*
X005762Y011846D01*
X005672Y011936D01*
X005555Y011984D01*
X004798Y011984D01*
X004797Y011984D01*
X004797Y013718D01*
X004984Y013531D01*
X005108Y013407D01*
X005270Y013340D01*
X005280Y013340D01*
X005361Y013259D01*
X005479Y013210D01*
X005957Y013210D01*
X005957Y005795D01*
X005909Y005815D01*
X005297Y005815D01*
X005297Y005840D02*
X005957Y005840D01*
X005837Y005815D02*
X005837Y013210D01*
X005957Y013200D02*
X004797Y013200D01*
X004797Y012880D02*
X005957Y012880D01*
X005957Y012560D02*
X004797Y012560D01*
X004797Y012240D02*
X005957Y012240D01*
X005957Y011920D02*
X005688Y011920D01*
X005517Y011984D02*
X005517Y013210D01*
X005197Y013370D02*
X005197Y011984D01*
X004877Y011984D02*
X004877Y013638D01*
X004797Y013520D02*
X004995Y013520D01*
X003917Y013520D02*
X003827Y013520D01*
X003826Y013200D02*
X003917Y013200D01*
X003917Y012880D02*
X003547Y012880D01*
X003597Y012956D02*
X003597Y009591D01*
X003277Y009591D02*
X003277Y010700D01*
X003252Y010640D02*
X003917Y010640D01*
X003857Y010680D02*
X003357Y010180D01*
X001857Y010180D01*
X001757Y010320D02*
X003917Y010320D01*
X003917Y010000D02*
X001757Y010000D01*
X001757Y009680D02*
X003917Y009680D01*
X004357Y009180D02*
X003357Y009180D01*
X003357Y009015D01*
X002957Y009574D02*
X002957Y010478D01*
X003291Y010960D02*
X003917Y010960D01*
X003480Y011431D02*
X003357Y011307D01*
X003291Y011280D01*
X003480Y011431D02*
X003547Y011592D01*
X003547Y011920D02*
X003917Y011920D01*
X003917Y012240D02*
X003547Y012240D01*
X003547Y012560D02*
X003917Y012560D01*
X003107Y013430D02*
X003251Y013580D01*
X002464Y013580D02*
X002357Y013680D01*
X002317Y012240D02*
X002317Y011984D01*
X002145Y011920D02*
X001757Y011920D01*
X001757Y011600D02*
X002022Y011600D01*
X002022Y011280D02*
X001757Y011280D01*
X001757Y010960D02*
X002022Y010960D01*
X002061Y010640D02*
X001757Y010640D01*
X002656Y011231D02*
X003107Y011680D01*
X002637Y011984D02*
X002637Y012240D01*
X001997Y012240D02*
X001997Y005675D01*
X003833Y008080D02*
X004242Y008080D01*
X004242Y008400D02*
X003833Y008400D01*
X003597Y008393D02*
X003597Y008297D01*
X003277Y008297D02*
X003277Y008393D01*
X002957Y008393D02*
X002957Y008297D01*
X002882Y008400D02*
X001757Y008400D01*
X001757Y008720D02*
X002742Y008720D01*
X002742Y009040D02*
X001757Y009040D01*
X001757Y009360D02*
X002753Y009360D01*
X004357Y009180D02*
X004857Y009180D01*
X004857Y009015D01*
X005107Y009430D02*
X005357Y009430D01*
X005357Y008430D01*
X004857Y008430D01*
X004857Y008345D01*
X005517Y008063D02*
X005517Y005815D01*
X005297Y006160D02*
X005957Y006160D01*
X005957Y006480D02*
X005297Y006480D01*
X005297Y006800D02*
X005957Y006800D01*
X005957Y007120D02*
X005297Y007120D01*
X005297Y007440D02*
X005957Y007440D01*
X005957Y007760D02*
X005297Y007760D01*
X005558Y008080D02*
X005957Y008080D01*
X005957Y008400D02*
X005757Y008400D01*
X005757Y008720D02*
X005957Y008720D01*
X005957Y009040D02*
X005757Y009040D01*
X005757Y009360D02*
X005957Y009360D01*
X005957Y009680D02*
X005673Y009680D01*
X005517Y009797D02*
X005517Y010478D01*
X005507Y010320D02*
X005957Y010320D01*
X005957Y010640D02*
X005772Y010640D01*
X005811Y010960D02*
X005957Y010960D01*
X005957Y011280D02*
X005811Y011280D01*
X005811Y011600D02*
X005957Y011600D01*
X006607Y011680D02*
X006607Y010680D01*
X007107Y010680D01*
X007243Y010637D01*
X007607Y011180D02*
X007357Y011430D01*
X007243Y011637D01*
X007607Y011180D02*
X025107Y011180D01*
X027607Y013680D01*
X032057Y013680D01*
X032057Y012480D01*
X031357Y012430D01*
X031509Y012436D01*
X031509Y012692D02*
X030445Y012692D01*
X030157Y012980D01*
X029238Y012980D01*
X029206Y012948D01*
X028590Y012948D01*
X028357Y013180D01*
X027857Y013180D01*
X027857Y012680D01*
X027357Y012180D01*
X027053Y012560D02*
X027917Y012560D01*
X027917Y012498D02*
X027917Y011556D01*
X027962Y011600D02*
X026093Y011600D01*
X025997Y011504D02*
X025997Y011080D01*
X025773Y011280D02*
X027642Y011280D01*
X027597Y011236D02*
X027597Y013104D01*
X027693Y013200D02*
X030667Y013200D01*
X030667Y013280D02*
X030667Y012948D01*
X030925Y012690D01*
X031017Y012690D01*
X031038Y012673D01*
X031010Y012643D01*
X031007Y012637D01*
X031003Y012632D01*
X030980Y012562D01*
X030954Y012494D01*
X030955Y012487D01*
X030953Y012481D01*
X030958Y012408D01*
X030961Y012335D01*
X030963Y012330D01*
X030297Y012330D01*
X030297Y012612D01*
X030040Y012870D01*
X029684Y012870D01*
X029654Y012942D01*
X029564Y013032D01*
X029563Y013033D01*
X029563Y013040D01*
X029551Y013086D01*
X029527Y013127D01*
X029493Y013161D01*
X029452Y013184D01*
X029407Y013197D01*
X029206Y013197D01*
X029206Y013095D01*
X029206Y013095D01*
X029206Y013197D01*
X029005Y013197D01*
X028959Y013184D01*
X028918Y013161D01*
X028885Y013127D01*
X028861Y013086D01*
X028859Y013080D01*
X028580Y013080D01*
X028540Y013120D01*
X028175Y013120D01*
X027917Y012862D01*
X027917Y013280D01*
X027773Y013280D02*
X025573Y011080D01*
X027442Y011080D01*
X028263Y011902D01*
X028167Y011998D01*
X028167Y012248D01*
X027917Y012498D01*
X027917Y012862D01*
X027935Y012880D02*
X027373Y012880D01*
X027277Y012784D02*
X027277Y011080D01*
X026957Y011080D02*
X026957Y012464D01*
X026733Y012240D02*
X028167Y012240D01*
X028237Y011928D02*
X028237Y011876D01*
X028245Y011920D02*
X026413Y011920D01*
X026317Y011824D02*
X026317Y011080D01*
X026637Y011080D02*
X026637Y012144D01*
X025607Y012180D02*
X007107Y012180D01*
X006607Y011680D01*
X005176Y011231D02*
X005107Y011430D01*
X005107Y009430D01*
X005507Y010000D02*
X005957Y010000D01*
X007243Y009637D02*
X007357Y009430D01*
X007607Y009180D01*
X008607Y009180D01*
X009357Y009930D01*
X029907Y009930D01*
X030907Y010930D01*
X031357Y010930D01*
X031509Y010918D01*
X031509Y011174D02*
X031607Y011180D01*
X033857Y011180D01*
X034297Y011280D02*
X036642Y011280D01*
X036557Y011196D02*
X036557Y015280D01*
X036692Y015280D02*
X037018Y014953D01*
X037131Y014841D01*
X037278Y014780D01*
X037740Y014780D01*
X037740Y014557D01*
X037834Y014331D01*
X037985Y014180D01*
X037834Y014029D01*
X037740Y013803D01*
X037740Y013557D01*
X037834Y013331D01*
X037985Y013180D01*
X037834Y013029D01*
X037740Y012803D01*
X037740Y012557D01*
X037793Y012431D01*
X037768Y012407D01*
X033442Y008080D01*
X027504Y008080D01*
X027457Y008192D01*
X027367Y008282D01*
X027366Y008283D01*
X027366Y008290D01*
X027354Y008336D01*
X027330Y008377D01*
X027297Y008411D01*
X027256Y008434D01*
X027210Y008447D01*
X027009Y008447D01*
X027009Y008343D01*
X027009Y008343D01*
X027009Y008447D01*
X026808Y008447D01*
X026762Y008434D01*
X026721Y008411D01*
X026688Y008377D01*
X026664Y008336D01*
X026662Y008330D01*
X026528Y008330D01*
X026381Y008269D01*
X026131Y008019D01*
X026018Y007907D01*
X025957Y007760D01*
X025203Y007760D01*
X025203Y007620D02*
X025203Y008330D01*
X025154Y008448D01*
X025064Y008538D01*
X024947Y008587D01*
X024465Y008587D01*
X024347Y008538D01*
X024257Y008448D01*
X024209Y008330D01*
X019523Y008330D01*
X018323Y009530D01*
X029403Y009530D01*
X029359Y009486D01*
X029359Y009074D01*
X029651Y008782D01*
X030064Y008782D01*
X030162Y008880D01*
X032653Y008880D01*
X032751Y008782D01*
X033164Y008782D01*
X033455Y009074D01*
X033455Y009196D01*
X033457Y009200D01*
X033457Y009360D01*
X034722Y009360D01*
X034637Y009276D02*
X034637Y015280D01*
X034317Y015280D02*
X034317Y008956D01*
X034402Y009040D02*
X033422Y009040D01*
X033357Y008976D02*
X033357Y008080D01*
X033442Y008080D02*
X027504Y008080D01*
X027597Y008080D02*
X027597Y009530D01*
X027277Y009530D02*
X027277Y008422D01*
X027307Y008400D02*
X033762Y008400D01*
X033677Y008316D02*
X033677Y010740D01*
X033675Y010740D02*
X034040Y010740D01*
X034297Y010998D01*
X034297Y011362D01*
X034040Y011620D01*
X033675Y011620D01*
X033635Y011580D01*
X032547Y011580D01*
X032547Y011826D01*
X032584Y011841D01*
X032696Y011953D01*
X032757Y012100D01*
X032757Y014010D01*
X032696Y014157D01*
X032584Y014269D01*
X032437Y014330D01*
X029797Y014330D01*
X029797Y014612D01*
X029540Y014870D01*
X029175Y014870D01*
X029135Y014830D01*
X025773Y014830D01*
X025334Y015269D01*
X025308Y015280D01*
X030667Y015280D01*
X030667Y015248D01*
X030925Y014990D01*
X031290Y014990D01*
X031547Y015248D01*
X031547Y015280D01*
X036692Y015280D01*
X036852Y015120D02*
X031420Y015120D01*
X031437Y015138D02*
X031437Y014330D01*
X031117Y014330D02*
X031117Y014990D01*
X030797Y015118D02*
X030797Y014330D01*
X030477Y014330D02*
X030477Y015280D01*
X030157Y015280D02*
X030157Y014330D01*
X029837Y014330D02*
X029837Y015280D01*
X029517Y015280D02*
X029517Y014870D01*
X029610Y014800D02*
X037229Y014800D01*
X037197Y014813D02*
X037197Y011836D01*
X037282Y011920D02*
X032663Y011920D01*
X032717Y012004D02*
X032717Y011580D01*
X032547Y011600D02*
X033655Y011600D01*
X033677Y011620D02*
X033677Y015280D01*
X033357Y015280D02*
X033357Y011580D01*
X033037Y011580D02*
X033037Y015280D01*
X032717Y015280D02*
X032717Y014106D01*
X032693Y014160D02*
X037965Y014160D01*
X037837Y014032D02*
X037837Y014328D01*
X037772Y014480D02*
X029797Y014480D01*
X029357Y014430D02*
X025607Y014430D01*
X025607Y012680D01*
X008357Y012680D01*
X008243Y012637D01*
X008677Y013080D02*
X008620Y013137D01*
X008863Y013380D01*
X008863Y013894D01*
X008620Y014137D01*
X008863Y014380D01*
X008863Y014530D01*
X008942Y014530D01*
X009018Y014453D01*
X009131Y014341D01*
X009278Y014280D01*
X022692Y014280D01*
X022881Y014091D01*
X023028Y014030D01*
X024885Y014030D01*
X024925Y013990D01*
X025207Y013990D01*
X025207Y013080D01*
X008677Y013080D01*
X008717Y013080D02*
X008717Y013234D01*
X008683Y013200D02*
X025207Y013200D01*
X025037Y013080D02*
X025037Y013990D01*
X025207Y013840D02*
X008863Y013840D01*
X008717Y014039D02*
X008717Y014234D01*
X008643Y014160D02*
X022812Y014160D01*
X022797Y014174D02*
X022797Y013080D01*
X022477Y013080D02*
X022477Y014280D01*
X022157Y014280D02*
X022157Y013080D01*
X021837Y013080D02*
X021837Y014280D01*
X021517Y014280D02*
X021517Y013080D01*
X021197Y013080D02*
X021197Y014280D01*
X020877Y014280D02*
X020877Y013080D01*
X020557Y013080D02*
X020557Y014280D01*
X020237Y014280D02*
X020237Y013080D01*
X019917Y013080D02*
X019917Y014280D01*
X019597Y014280D02*
X019597Y013080D01*
X019277Y013080D02*
X019277Y014280D01*
X018957Y014280D02*
X018957Y013080D01*
X018637Y013080D02*
X018637Y014280D01*
X018317Y014280D02*
X018317Y013080D01*
X017997Y013080D02*
X017997Y014280D01*
X017677Y014280D02*
X017677Y013080D01*
X017357Y013080D02*
X017357Y014280D01*
X017037Y014280D02*
X017037Y013080D01*
X016717Y013080D02*
X016717Y014280D01*
X016397Y014280D02*
X016397Y013080D01*
X016077Y013080D02*
X016077Y014280D01*
X015757Y014280D02*
X015757Y013080D01*
X015437Y013080D02*
X015437Y014280D01*
X015117Y014280D02*
X015117Y013080D01*
X014797Y013080D02*
X014797Y014280D01*
X014477Y014280D02*
X014477Y013080D01*
X014157Y013080D02*
X014157Y014280D01*
X013837Y014280D02*
X013837Y013080D01*
X013517Y013080D02*
X013517Y014280D01*
X013197Y014280D02*
X013197Y013080D01*
X012877Y013080D02*
X012877Y014280D01*
X012557Y014280D02*
X012557Y013080D01*
X012237Y013080D02*
X012237Y014280D01*
X011917Y014280D02*
X011917Y013080D01*
X011597Y013080D02*
X011597Y014280D01*
X011277Y014280D02*
X011277Y013080D01*
X010957Y013080D02*
X010957Y014280D01*
X010637Y014280D02*
X010637Y013080D01*
X010317Y013080D02*
X010317Y014280D01*
X009997Y014280D02*
X009997Y013080D01*
X009677Y013080D02*
X009677Y014280D01*
X009357Y014280D02*
X009357Y013080D01*
X009037Y013080D02*
X009037Y014434D01*
X009018Y014453D02*
X009018Y014453D01*
X008992Y014480D02*
X008863Y014480D01*
X009107Y014930D02*
X008607Y014930D01*
X008357Y015180D01*
X008107Y015180D01*
X007607Y014680D01*
X007357Y014680D01*
X007243Y014637D01*
X007857Y014180D02*
X008107Y014430D01*
X008243Y014637D01*
X007857Y014180D02*
X006607Y014180D01*
X006607Y015680D01*
X007107Y016180D01*
X008607Y016180D01*
X009857Y017430D01*
X024607Y017430D01*
X024706Y017448D01*
X024706Y017686D02*
X024857Y017680D01*
X025107Y017680D01*
X024706Y017942D02*
X024607Y017930D01*
X009857Y017930D01*
X008857Y016930D01*
X008607Y017180D02*
X007857Y017180D01*
X007357Y016680D01*
X007243Y016637D01*
X007107Y017430D02*
X006357Y017430D01*
X006357Y004680D01*
X006857Y004180D01*
X016107Y004180D01*
X016107Y005180D01*
X016192Y005180D01*
X015607Y005180D02*
X015607Y006180D01*
X015523Y006180D01*
X016107Y006180D02*
X016192Y006180D01*
X016107Y006180D02*
X016107Y006680D01*
X010107Y006680D01*
X008607Y005180D01*
X007857Y005180D01*
X007357Y004680D01*
X007243Y004637D01*
X008107Y006680D02*
X008243Y006637D01*
X008107Y006680D02*
X007607Y007180D01*
X006607Y007180D01*
X006607Y007680D01*
X007107Y008180D01*
X008357Y008180D01*
X009107Y007430D01*
X024607Y007430D01*
X024706Y007448D01*
X024706Y007686D02*
X024607Y007680D01*
X009607Y007680D01*
X009357Y007930D01*
X009037Y008232D02*
X009037Y009044D01*
X009033Y009040D02*
X017625Y009040D01*
X017675Y008990D02*
X017732Y008990D01*
X018642Y008080D01*
X009797Y008080D01*
X018642Y008080D01*
X018637Y008080D02*
X018637Y008084D01*
X018317Y008080D02*
X018317Y008404D01*
X018322Y008400D02*
X008863Y008400D01*
X008863Y008380D02*
X008863Y008870D01*
X008946Y008953D01*
X009523Y009530D01*
X017417Y009530D01*
X017417Y009248D01*
X017675Y008990D01*
X017677Y008990D02*
X017677Y008080D01*
X017357Y008080D02*
X017357Y009530D01*
X017417Y009360D02*
X009353Y009360D01*
X009357Y009364D02*
X009357Y008370D01*
X009175Y008370D02*
X008954Y008149D01*
X008793Y008310D01*
X008863Y008380D01*
X009175Y008370D02*
X009540Y008370D01*
X009797Y008112D01*
X009797Y008080D01*
X009677Y008232D02*
X009677Y009530D01*
X009997Y009530D02*
X009997Y008080D01*
X010317Y008080D02*
X010317Y009530D01*
X010637Y009530D02*
X010637Y008080D01*
X010957Y008080D02*
X010957Y009530D01*
X011277Y009530D02*
X011277Y008080D01*
X011597Y008080D02*
X011597Y009530D01*
X011917Y009530D02*
X011917Y008080D01*
X012237Y008080D02*
X012237Y009530D01*
X012557Y009530D02*
X012557Y008080D01*
X012877Y008080D02*
X012877Y009530D01*
X013197Y009530D02*
X013197Y008080D01*
X013517Y008080D02*
X013517Y009530D01*
X013837Y009530D02*
X013837Y008080D01*
X014157Y008080D02*
X014157Y009530D01*
X014477Y009530D02*
X014477Y008080D01*
X014797Y008080D02*
X014797Y009530D01*
X015117Y009530D02*
X015117Y008080D01*
X015437Y008080D02*
X015437Y009530D01*
X015757Y009530D02*
X015757Y008080D01*
X016077Y008080D02*
X016077Y009530D01*
X016397Y009530D02*
X016397Y008080D01*
X016717Y008080D02*
X016717Y009530D01*
X017037Y009530D02*
X017037Y008080D01*
X017997Y008080D02*
X017997Y008724D01*
X018002Y008720D02*
X008863Y008720D01*
X008809Y009948D02*
X008620Y010137D01*
X008763Y010280D01*
X009157Y010280D01*
X009131Y010269D01*
X008809Y009948D01*
X008757Y010000D02*
X008862Y010000D01*
X008717Y010039D02*
X008717Y010234D01*
X009037Y010280D02*
X009037Y010176D01*
X008357Y010680D02*
X008243Y010637D01*
X008357Y010680D02*
X027607Y010680D01*
X028857Y011930D01*
X029107Y011930D01*
X029206Y011924D01*
X029206Y011668D02*
X029969Y011668D01*
X030457Y011180D01*
X030457Y011080D01*
X029657Y010280D01*
X028957Y010280D01*
X028907Y010230D01*
X028557Y010502D02*
X028557Y010508D01*
X028540Y010490D02*
X028797Y010748D01*
X028797Y010804D01*
X028837Y010844D01*
X028847Y010834D01*
X028849Y010833D01*
X028849Y010826D01*
X028858Y010790D01*
X028849Y010755D01*
X028849Y010670D01*
X028725Y010670D01*
X028467Y010412D01*
X028467Y010330D01*
X027808Y010330D01*
X027834Y010341D01*
X027946Y010453D01*
X028079Y010586D01*
X028175Y010490D01*
X028540Y010490D01*
X028457Y010380D02*
X027957Y010380D01*
X027917Y010424D02*
X027917Y010330D01*
X028237Y010330D02*
X028237Y010490D01*
X028457Y010380D02*
X028740Y010662D01*
X029206Y010662D01*
X028695Y010640D02*
X028690Y010640D01*
X028357Y010930D02*
X028857Y011430D01*
X029107Y011430D01*
X029206Y011412D01*
X029206Y011174D02*
X029763Y011174D01*
X029857Y011080D01*
X029857Y011930D02*
X031357Y011930D01*
X031509Y011924D01*
X031509Y011668D02*
X031607Y011680D01*
X032107Y011680D01*
X032357Y012180D02*
X031509Y012180D01*
X030979Y012560D02*
X030297Y012560D01*
X030157Y012752D02*
X030157Y013280D01*
X029837Y013280D02*
X029837Y012870D01*
X029680Y012880D02*
X030735Y012880D01*
X030797Y012818D02*
X030797Y012330D01*
X030477Y012330D02*
X030477Y013280D01*
X030667Y013280D02*
X027773Y013280D01*
X028237Y013280D02*
X028237Y013120D01*
X028557Y013102D02*
X028557Y013280D01*
X028877Y013280D02*
X028877Y013115D01*
X029197Y013197D02*
X029197Y013280D01*
X029517Y013280D02*
X029517Y013137D01*
X029206Y012692D02*
X029107Y012680D01*
X028357Y012680D01*
X028607Y012180D02*
X029206Y012180D01*
X029206Y012436D02*
X029357Y012430D01*
X029857Y012430D01*
X030707Y011430D02*
X031357Y011430D01*
X031509Y011412D01*
X032006Y010780D02*
X033635Y010780D01*
X033675Y010740D01*
X033357Y010780D02*
X033357Y009584D01*
X033262Y009680D02*
X035042Y009680D01*
X034957Y009596D02*
X034957Y015280D01*
X035277Y015280D02*
X035277Y009916D01*
X035362Y010000D02*
X030543Y010000D01*
X030477Y009934D02*
X030477Y009680D01*
X030246Y009703D02*
X030246Y009703D01*
X030223Y009680D01*
X032653Y009680D01*
X030223Y009680D01*
X030246Y009703D02*
X031030Y010487D01*
X031060Y010412D01*
X031150Y010322D01*
X031268Y010273D01*
X031750Y010273D01*
X031867Y010322D01*
X031957Y010412D01*
X032006Y010530D01*
X032006Y010780D01*
X032077Y010780D02*
X032077Y009680D01*
X031757Y009680D02*
X031757Y010277D01*
X031862Y010320D02*
X035682Y010320D01*
X035597Y010236D02*
X035597Y015280D01*
X035917Y015280D02*
X035917Y010556D01*
X036002Y010640D02*
X032006Y010640D01*
X032397Y010780D02*
X032397Y009680D01*
X032653Y009680D02*
X032751Y009778D01*
X033164Y009778D01*
X033455Y009486D01*
X033455Y009364D01*
X033457Y009360D01*
X033057Y009280D02*
X032957Y009280D01*
X029857Y009280D01*
X029359Y009360D02*
X018493Y009360D01*
X018637Y009216D02*
X018637Y009530D01*
X018957Y009530D02*
X018957Y008896D01*
X018813Y009040D02*
X029393Y009040D01*
X029517Y008916D02*
X029517Y008080D01*
X029197Y008080D02*
X029197Y009530D01*
X028877Y009530D02*
X028877Y008080D01*
X028557Y008080D02*
X028557Y009530D01*
X028237Y009530D02*
X028237Y008080D01*
X027917Y008080D02*
X027917Y009530D01*
X026957Y009530D02*
X026957Y008447D01*
X027009Y008400D02*
X027009Y008400D01*
X027009Y008528D02*
X026357Y009180D01*
X026317Y009530D02*
X026317Y008206D01*
X026192Y008080D02*
X025203Y008080D01*
X025174Y008400D02*
X026711Y008400D01*
X026637Y008330D02*
X026637Y009530D01*
X025997Y009530D02*
X025997Y007856D01*
X025957Y007760D02*
X025957Y006580D01*
X025203Y006580D01*
X025203Y006740D01*
X025290Y006740D01*
X025547Y006998D01*
X025547Y007362D01*
X025290Y007620D01*
X025203Y007620D01*
X025357Y007552D02*
X025357Y009530D01*
X025037Y009530D02*
X025037Y008549D01*
X024717Y008587D02*
X024717Y009530D01*
X024397Y009530D02*
X024397Y008559D01*
X024237Y008400D02*
X019453Y008400D01*
X019597Y008330D02*
X019597Y009530D01*
X019277Y009530D02*
X019277Y008576D01*
X019133Y008720D02*
X034082Y008720D01*
X033997Y008636D02*
X033997Y010740D01*
X034260Y010960D02*
X036322Y010960D01*
X036237Y010876D02*
X036237Y015280D01*
X036877Y015094D02*
X036877Y011516D01*
X036962Y011600D02*
X034060Y011600D01*
X033997Y011620D02*
X033997Y015280D01*
X034057Y016080D02*
X034857Y016880D01*
X037057Y016880D01*
X037357Y017180D01*
X038857Y017180D01*
X039357Y017680D01*
X039607Y018180D02*
X039857Y018430D01*
X039857Y019180D01*
X039107Y019180D01*
X038857Y019430D01*
X038857Y020680D01*
X039357Y020680D01*
X038357Y020680D02*
X030357Y020680D01*
X027607Y017930D01*
X027107Y017930D01*
X027009Y017942D01*
X027009Y018198D02*
X027009Y018932D01*
X027157Y019080D01*
X027752Y018640D02*
X025757Y018640D01*
X025757Y018596D02*
X025757Y020780D01*
X026687Y020780D01*
X026834Y020841D01*
X026946Y020953D01*
X026983Y020990D01*
X027040Y020990D01*
X027297Y021248D01*
X027297Y021612D01*
X027040Y021870D01*
X026946Y021870D01*
X026880Y022029D01*
X026707Y022203D01*
X026480Y022297D01*
X026235Y022297D01*
X026008Y022203D01*
X025857Y022052D01*
X025707Y022203D01*
X025480Y022297D01*
X025306Y022297D01*
X025084Y022519D01*
X024937Y022580D01*
X014023Y022580D01*
X012823Y023780D01*
X015437Y023780D01*
X015584Y023841D01*
X015696Y023953D01*
X015808Y024065D01*
X016303Y024065D01*
X016420Y024113D01*
X016510Y024203D01*
X016511Y024205D01*
X016683Y024205D01*
X016683Y024632D01*
X016779Y024632D01*
X016779Y024205D01*
X017011Y024205D01*
X017057Y024217D01*
X017098Y024241D01*
X017131Y024274D01*
X017155Y024315D01*
X017167Y024361D01*
X017167Y024632D01*
X016779Y024632D01*
X016779Y024728D01*
X017167Y024728D01*
X017167Y024780D01*
X020192Y024780D01*
X021018Y023953D01*
X021131Y023841D01*
X021278Y023780D01*
X029892Y023780D01*
X028408Y022297D01*
X028235Y022297D01*
X028008Y022203D01*
X027834Y022029D01*
X027740Y021803D01*
X027740Y021557D01*
X027834Y021331D01*
X028008Y021157D01*
X028235Y021063D01*
X028480Y021063D01*
X028707Y021157D01*
X028857Y021308D01*
X029008Y021157D01*
X029235Y021063D01*
X029480Y021063D01*
X029707Y021157D01*
X029857Y021308D01*
X030008Y021157D01*
X030235Y021063D01*
X030237Y021063D01*
X030131Y021019D01*
X030018Y020907D01*
X027442Y018330D01*
X027355Y018330D01*
X027354Y018336D01*
X027330Y018377D01*
X027297Y018411D01*
X027256Y018434D01*
X027210Y018447D01*
X027009Y018447D01*
X027009Y018345D01*
X027009Y018345D01*
X027009Y018447D01*
X026808Y018447D01*
X026762Y018434D01*
X026721Y018411D01*
X026688Y018377D01*
X026664Y018336D01*
X026652Y018290D01*
X026652Y018283D01*
X026650Y018282D01*
X026560Y018192D01*
X026512Y018074D01*
X026512Y017841D01*
X025757Y018596D01*
X025997Y018356D02*
X025997Y020780D01*
X026317Y020780D02*
X026317Y018036D01*
X026353Y018000D02*
X026512Y018000D01*
X026637Y018269D02*
X026637Y020780D01*
X026873Y020880D02*
X029992Y020880D01*
X029837Y020726D02*
X029837Y021288D01*
X029750Y021200D02*
X029965Y021200D01*
X030157Y021095D02*
X030157Y021030D01*
X029517Y021079D02*
X029517Y020406D01*
X029672Y020560D02*
X025757Y020560D01*
X025757Y020240D02*
X029352Y020240D01*
X029197Y020086D02*
X029197Y021079D01*
X028965Y021200D02*
X028750Y021200D01*
X028877Y021288D02*
X028877Y019766D01*
X029032Y019920D02*
X025757Y019920D01*
X025757Y019600D02*
X028712Y019600D01*
X028557Y019446D02*
X028557Y021095D01*
X028237Y021063D02*
X028237Y019126D01*
X028392Y019280D02*
X025757Y019280D01*
X025757Y018960D02*
X028072Y018960D01*
X027917Y018806D02*
X027917Y021248D01*
X027965Y021200D02*
X027250Y021200D01*
X027277Y021228D02*
X027277Y018422D01*
X026957Y018447D02*
X026957Y020964D01*
X026607Y021180D02*
X018357Y021180D01*
X017857Y021680D01*
X017757Y021680D01*
X017677Y022580D02*
X017677Y024780D01*
X017357Y024780D02*
X017357Y022580D01*
X017037Y022580D02*
X017037Y024212D01*
X017167Y024400D02*
X020572Y024400D01*
X020557Y024414D02*
X020557Y022580D01*
X020237Y022580D02*
X020237Y024734D01*
X020252Y024720D02*
X016779Y024720D01*
X016717Y024632D02*
X016717Y022580D01*
X016397Y022580D02*
X016397Y024104D01*
X016340Y024080D02*
X020892Y024080D01*
X020877Y024094D02*
X020877Y022580D01*
X021197Y022580D02*
X021197Y023813D01*
X021517Y023780D02*
X021517Y022580D01*
X021837Y022580D02*
X021837Y023780D01*
X022157Y023780D02*
X022157Y022580D01*
X022477Y022580D02*
X022477Y023780D01*
X022797Y023780D02*
X022797Y022580D01*
X023117Y022580D02*
X023117Y023780D01*
X023437Y023780D02*
X023437Y022580D01*
X023757Y022580D02*
X023757Y023780D01*
X024077Y023780D02*
X024077Y022580D01*
X024397Y022580D02*
X024397Y023780D01*
X024717Y023780D02*
X024717Y022580D01*
X025037Y022538D02*
X025037Y023780D01*
X025357Y023780D02*
X025357Y022297D01*
X025123Y022480D02*
X028592Y022480D01*
X028557Y022446D02*
X028557Y023780D01*
X028237Y023780D02*
X028237Y022297D01*
X027965Y022160D02*
X026750Y022160D01*
X026637Y022232D02*
X026637Y023780D01*
X026317Y023780D02*
X026317Y022297D01*
X025997Y022192D02*
X025997Y023780D01*
X025677Y023780D02*
X025677Y022215D01*
X025750Y022160D02*
X025965Y022160D01*
X025357Y021680D02*
X024857Y022180D01*
X013857Y022180D01*
X010357Y025680D01*
X008607Y025680D01*
X007607Y026680D01*
X007607Y026759D01*
X007107Y026759D02*
X007107Y026930D01*
X006607Y027430D01*
X006607Y028180D01*
X006857Y028180D01*
X006857Y029680D01*
X006607Y029680D01*
X006444Y029680D01*
X006607Y029680D02*
X006607Y030680D01*
X006444Y030680D01*
X006357Y030680D01*
X006857Y031180D01*
X009857Y031180D01*
X009857Y030680D01*
X009857Y031180D02*
X009857Y031680D01*
X010357Y032180D01*
X017857Y032180D01*
X017857Y030680D01*
X018454Y030689D02*
X018849Y030689D01*
X018849Y031137D01*
X018821Y031137D01*
X018750Y031126D01*
X018682Y031104D01*
X018618Y031071D01*
X018559Y031029D01*
X018509Y030978D01*
X018466Y030920D01*
X018434Y030855D01*
X018432Y030852D01*
X018364Y031018D01*
X018257Y031125D01*
X018257Y031350D01*
X018319Y031350D01*
X018319Y031728D01*
X018395Y031728D01*
X018395Y031350D01*
X018617Y031350D01*
X018663Y031363D01*
X018704Y031386D01*
X018738Y031420D01*
X018756Y031452D01*
X018791Y031369D01*
X018881Y031279D01*
X018957Y031247D01*
X018957Y031127D01*
X018893Y031137D01*
X018866Y031137D01*
X018866Y030689D01*
X018849Y030689D01*
X018849Y030671D01*
X018866Y030671D01*
X018866Y030223D01*
X018893Y030223D01*
X018957Y030233D01*
X018957Y029152D01*
X018917Y029112D01*
X018917Y028748D01*
X019175Y028490D01*
X019257Y028490D01*
X019257Y028280D01*
X019106Y028280D01*
X018366Y029020D01*
X018197Y029189D01*
X018070Y029241D01*
X018102Y029272D01*
X018211Y029537D01*
X018211Y029823D01*
X018102Y030088D01*
X018068Y030121D01*
X018196Y030174D01*
X018364Y030342D01*
X018432Y030508D01*
X018434Y030505D01*
X018466Y030440D01*
X018509Y030382D01*
X018559Y030331D01*
X018618Y030289D01*
X018682Y030256D01*
X018750Y030234D01*
X018821Y030223D01*
X018849Y030223D01*
X018849Y030671D01*
X018454Y030671D01*
X018454Y030689D01*
X018637Y030671D02*
X018637Y030689D01*
X018866Y030689D02*
X018957Y030689D01*
X018957Y030671D01*
X018866Y030671D01*
X018866Y030689D01*
X018866Y030800D02*
X018849Y030800D01*
X018849Y030480D02*
X018866Y030480D01*
X018637Y030279D02*
X018637Y028749D01*
X018506Y028880D02*
X018917Y028880D01*
X018957Y028708D02*
X018957Y028429D01*
X018826Y028560D02*
X019105Y028560D01*
X019357Y028930D02*
X019357Y031806D01*
X019757Y031247D02*
X019834Y031279D01*
X019924Y031369D01*
X019973Y031486D01*
X019973Y032126D01*
X019950Y032180D01*
X019973Y032234D01*
X019973Y032776D01*
X026801Y032776D01*
X026801Y032294D01*
X026850Y032176D01*
X026940Y032086D01*
X026957Y032079D01*
X026953Y032072D01*
X026941Y032027D01*
X026941Y031805D01*
X027319Y031805D01*
X027319Y031729D01*
X026941Y031729D01*
X026941Y031507D01*
X026953Y031461D01*
X026977Y031420D01*
X027004Y031393D01*
X026889Y031277D01*
X026738Y031277D01*
X026519Y031186D01*
X026457Y031125D01*
X026457Y031378D01*
X026527Y031547D01*
X026527Y031813D01*
X026425Y032060D01*
X026237Y032248D01*
X025991Y032350D01*
X025724Y032350D01*
X025478Y032248D01*
X025357Y032128D01*
X025357Y032776D01*
X025037Y032776D02*
X025037Y032331D01*
X024991Y032350D02*
X024724Y032350D01*
X024478Y032248D01*
X024357Y032128D01*
X024237Y032248D01*
X023991Y032350D01*
X023724Y032350D01*
X023478Y032248D01*
X023357Y032128D01*
X023237Y032248D01*
X022991Y032350D01*
X022724Y032350D01*
X022478Y032248D01*
X022289Y032060D01*
X022187Y031813D01*
X022187Y031547D01*
X022257Y031378D01*
X022257Y030902D01*
X022248Y030920D01*
X022206Y030978D01*
X022155Y031029D01*
X022097Y031071D01*
X022033Y031104D01*
X021964Y031126D01*
X021893Y031137D01*
X021866Y031137D01*
X021866Y030689D01*
X021849Y030689D01*
X021849Y031137D01*
X021821Y031137D01*
X021750Y031126D01*
X021682Y031104D01*
X021618Y031071D01*
X021559Y031029D01*
X021509Y030978D01*
X021466Y030920D01*
X021434Y030856D01*
X021366Y031020D01*
X021197Y031189D01*
X020977Y031280D01*
X020738Y031280D01*
X020517Y031189D01*
X020349Y031020D01*
X020257Y030799D01*
X020257Y030115D01*
X020073Y030115D01*
X019852Y030023D01*
X019757Y029929D01*
X019757Y031247D01*
X019757Y031120D02*
X020449Y031120D01*
X020557Y031205D02*
X020557Y032776D01*
X020237Y032776D02*
X020237Y030115D01*
X020257Y030160D02*
X019757Y030160D01*
X019917Y030050D02*
X019917Y031362D01*
X019953Y031440D02*
X022231Y031440D01*
X022257Y031120D02*
X021983Y031120D01*
X021866Y031120D02*
X021849Y031120D01*
X021837Y031137D02*
X021837Y032776D01*
X021517Y032776D02*
X021517Y030987D01*
X021732Y031120D02*
X021266Y031120D01*
X021197Y031189D02*
X021197Y032776D01*
X020877Y032776D02*
X020877Y031280D01*
X020258Y030800D02*
X019757Y030800D01*
X019757Y030480D02*
X020257Y030480D01*
X021457Y030458D02*
X021457Y029871D01*
X021473Y029834D01*
X021473Y029195D01*
X021424Y029077D01*
X021334Y028987D01*
X021333Y028987D01*
X021333Y028893D01*
X020905Y028893D01*
X020905Y028797D01*
X020905Y028409D01*
X021176Y028409D01*
X021222Y028422D01*
X021263Y028445D01*
X021297Y028479D01*
X021320Y028520D01*
X021333Y028566D01*
X021333Y028797D01*
X020905Y028797D01*
X020809Y028797D01*
X020809Y028409D01*
X020538Y028409D01*
X020493Y028422D01*
X020457Y028442D01*
X020457Y028280D01*
X022457Y028280D01*
X022542Y028315D01*
X022727Y028315D01*
X022786Y028457D01*
X023349Y029020D01*
X023378Y029049D01*
X023327Y029070D01*
X023125Y029272D01*
X023077Y029387D01*
X023077Y029216D01*
X023029Y029099D01*
X022939Y029009D01*
X022821Y028960D01*
X021894Y028960D01*
X021776Y029009D01*
X021686Y029099D01*
X021637Y029216D01*
X021637Y030144D01*
X021684Y030256D01*
X021682Y030256D01*
X021618Y030289D01*
X021559Y030331D01*
X021509Y030382D01*
X021466Y030440D01*
X021457Y030458D01*
X021517Y030373D02*
X021517Y028280D01*
X021197Y028280D02*
X021197Y028415D01*
X021331Y028560D02*
X022889Y028560D01*
X022797Y028469D02*
X022797Y028960D01*
X022477Y028960D02*
X022477Y028288D01*
X022157Y028280D02*
X022157Y028960D01*
X021837Y028983D02*
X021837Y028280D01*
X021423Y028845D02*
X021557Y028980D01*
X021557Y030380D01*
X021857Y030680D01*
X021849Y030800D02*
X021866Y030800D01*
X022157Y031027D02*
X022157Y032776D01*
X022477Y032776D02*
X022477Y032248D01*
X022310Y032080D02*
X019973Y032080D01*
X019973Y031760D02*
X022187Y031760D01*
X022797Y032350D02*
X022797Y032776D01*
X023117Y032776D02*
X023117Y032298D01*
X023437Y032208D02*
X023437Y032776D01*
X023757Y032776D02*
X023757Y032350D01*
X024077Y032314D02*
X024077Y032776D01*
X024397Y032776D02*
X024397Y032168D01*
X024717Y032347D02*
X024717Y032776D01*
X024991Y032350D02*
X025237Y032248D01*
X025357Y032128D01*
X025677Y032331D02*
X025677Y032776D01*
X025997Y032776D02*
X025997Y032347D01*
X026317Y032168D02*
X026317Y032776D01*
X026637Y032776D02*
X026637Y031235D01*
X026483Y031440D02*
X026965Y031440D01*
X026957Y031454D02*
X026957Y031346D01*
X026957Y031729D02*
X026957Y031805D01*
X026954Y032080D02*
X026405Y032080D01*
X026527Y031760D02*
X027319Y031760D01*
X027277Y031729D02*
X027277Y031805D01*
X027857Y031680D02*
X028357Y031680D01*
X028357Y031806D01*
X028973Y031760D02*
X031187Y031760D01*
X031187Y031813D02*
X031187Y031580D01*
X028973Y031580D01*
X028973Y032126D01*
X028950Y032180D01*
X028973Y032234D01*
X028973Y032776D01*
X035801Y032776D01*
X035801Y032294D01*
X035850Y032176D01*
X035940Y032086D01*
X035957Y032079D01*
X035953Y032072D01*
X035941Y032027D01*
X035941Y031805D01*
X036319Y031805D01*
X036319Y031729D01*
X035941Y031729D01*
X035941Y031507D01*
X035953Y031461D01*
X035977Y031420D01*
X036011Y031386D01*
X036052Y031363D01*
X036097Y031350D01*
X036319Y031350D01*
X036319Y031728D01*
X036395Y031728D01*
X036395Y031350D01*
X036617Y031350D01*
X036663Y031363D01*
X036704Y031386D01*
X036738Y031420D01*
X036756Y031452D01*
X036791Y031369D01*
X036881Y031279D01*
X036957Y031247D01*
X036957Y031127D01*
X036893Y031137D01*
X036866Y031137D01*
X036866Y030689D01*
X036849Y030689D01*
X036849Y031137D01*
X036821Y031137D01*
X036750Y031126D01*
X036682Y031104D01*
X036618Y031071D01*
X036559Y031029D01*
X036509Y030978D01*
X036466Y030920D01*
X036434Y030855D01*
X036432Y030852D01*
X036364Y031018D01*
X036196Y031186D01*
X035976Y031277D01*
X035826Y031277D01*
X035584Y031519D01*
X035526Y031543D01*
X035527Y031547D01*
X035527Y031813D01*
X035425Y032060D01*
X035237Y032248D01*
X034991Y032350D01*
X034724Y032350D01*
X034478Y032248D01*
X034357Y032128D01*
X034237Y032248D01*
X033991Y032350D01*
X033724Y032350D01*
X033478Y032248D01*
X033357Y032128D01*
X033357Y032776D01*
X033037Y032776D02*
X033037Y032331D01*
X032991Y032350D02*
X032724Y032350D01*
X032478Y032248D01*
X032357Y032128D01*
X032237Y032248D01*
X031991Y032350D01*
X031724Y032350D01*
X031478Y032248D01*
X031289Y032060D01*
X031187Y031813D01*
X031117Y031580D02*
X031117Y032776D01*
X030797Y032776D02*
X030797Y031580D01*
X030477Y031580D02*
X030477Y032776D01*
X030157Y032776D02*
X030157Y031580D01*
X029837Y031580D02*
X029837Y032776D01*
X029517Y032776D02*
X029517Y031580D01*
X029197Y031580D02*
X029197Y032776D01*
X028973Y032720D02*
X035801Y032720D01*
X035597Y032776D02*
X035597Y031506D01*
X035663Y031440D02*
X035965Y031440D01*
X035917Y031277D02*
X035917Y032108D01*
X035954Y032080D02*
X035405Y032080D01*
X035277Y032208D02*
X035277Y032776D01*
X034957Y032776D02*
X034957Y032350D01*
X034637Y032314D02*
X034637Y032776D01*
X034317Y032776D02*
X034317Y032168D01*
X033997Y032347D02*
X033997Y032776D01*
X033677Y032776D02*
X033677Y032331D01*
X033357Y032128D02*
X033237Y032248D01*
X032991Y032350D01*
X032717Y032347D02*
X032717Y032776D01*
X032397Y032776D02*
X032397Y032168D01*
X032077Y032314D02*
X032077Y032776D01*
X031757Y032776D02*
X031757Y032350D01*
X031437Y032208D02*
X031437Y032776D01*
X031310Y032080D02*
X028973Y032080D01*
X028973Y032400D02*
X035801Y032400D01*
X036357Y032593D02*
X036357Y032680D01*
X037357Y032680D01*
X037357Y032554D01*
X037973Y032400D02*
X040150Y032400D01*
X040077Y032473D02*
X040077Y022080D01*
X039830Y022080D02*
X039707Y022203D01*
X039480Y022297D01*
X039235Y022297D01*
X039008Y022203D01*
X039007Y022202D01*
X039007Y023760D01*
X040327Y023760D01*
X040327Y023440D02*
X039007Y023440D01*
X039007Y023760D02*
X038946Y023907D01*
X038834Y024019D01*
X038334Y024519D01*
X038187Y024580D01*
X035323Y024580D01*
X035584Y024841D01*
X035696Y024953D01*
X035750Y025083D01*
X035976Y025083D01*
X036196Y025174D01*
X036357Y025335D01*
X036519Y025174D01*
X036738Y025083D01*
X036976Y025083D01*
X037196Y025174D01*
X037364Y025342D01*
X037454Y025561D01*
X037454Y025748D01*
X037498Y025730D01*
X038216Y025730D01*
X038334Y025779D01*
X038424Y025869D01*
X038473Y025986D01*
X038473Y026626D01*
X038450Y026680D01*
X038473Y026734D01*
X038473Y027374D01*
X038424Y027491D01*
X038334Y027581D01*
X038257Y027613D01*
X038257Y028060D01*
X038614Y028060D01*
X038857Y028303D01*
X039100Y028060D01*
X039614Y028060D01*
X039977Y028423D01*
X039977Y028937D01*
X039734Y029180D01*
X039977Y029423D01*
X039977Y029937D01*
X039734Y030180D01*
X039977Y030423D01*
X039977Y030937D01*
X039614Y031300D01*
X039100Y031300D01*
X038758Y030958D01*
X038556Y031160D01*
X038377Y031160D01*
X038377Y030700D01*
X038337Y030700D01*
X038337Y030660D01*
X037877Y030660D01*
X037877Y030580D01*
X037778Y030580D01*
X037757Y030572D01*
X037757Y031247D01*
X037834Y031279D01*
X037924Y031369D01*
X037973Y031486D01*
X037973Y032126D01*
X037950Y032180D01*
X037973Y032234D01*
X037973Y032776D01*
X039774Y032776D01*
X040327Y032223D01*
X040327Y022080D01*
X039830Y022080D01*
X039757Y022152D02*
X039757Y028203D01*
X039794Y028240D02*
X040327Y028240D01*
X040327Y028560D02*
X039977Y028560D01*
X039977Y028880D02*
X040327Y028880D01*
X040327Y029200D02*
X039754Y029200D01*
X039757Y029203D02*
X039757Y029157D01*
X039977Y029520D02*
X040327Y029520D01*
X040327Y029840D02*
X039977Y029840D01*
X039757Y030157D02*
X039757Y030203D01*
X039754Y030160D02*
X040327Y030160D01*
X040327Y030480D02*
X039977Y030480D01*
X039977Y030800D02*
X040327Y030800D01*
X040327Y031120D02*
X039794Y031120D01*
X039757Y031157D02*
X039757Y032776D01*
X039830Y032720D02*
X037973Y032720D01*
X038157Y032776D02*
X038157Y031159D01*
X038158Y031160D02*
X037877Y030879D01*
X037877Y030700D01*
X038337Y030700D01*
X038337Y031160D01*
X038158Y031160D01*
X038118Y031120D02*
X037757Y031120D01*
X037837Y031282D02*
X037837Y030580D01*
X037877Y030800D02*
X037757Y030800D01*
X038157Y030700D02*
X038157Y030660D01*
X038337Y030800D02*
X038377Y030800D01*
X038377Y031120D02*
X038337Y031120D01*
X038477Y031160D02*
X038477Y032776D01*
X038797Y032776D02*
X038797Y030997D01*
X038920Y031120D02*
X038596Y031120D01*
X037953Y031440D02*
X040327Y031440D01*
X040327Y031760D02*
X037973Y031760D01*
X037973Y032080D02*
X040327Y032080D01*
X039437Y032776D02*
X039437Y031300D01*
X039117Y031300D02*
X039117Y032776D01*
X037357Y031806D02*
X037357Y027180D01*
X037607Y026930D02*
X037357Y026680D01*
X029357Y026680D01*
X029357Y024180D01*
X030857Y024180D01*
X030857Y024480D01*
X030857Y024180D02*
X031857Y024180D01*
X031857Y024480D01*
X031857Y024180D02*
X032857Y024180D01*
X032857Y024503D01*
X032857Y024180D02*
X038107Y024180D01*
X038607Y023680D01*
X038607Y021680D01*
X038357Y021680D01*
X038607Y021680D02*
X039357Y021680D01*
X040357Y021680D01*
X040357Y015680D01*
X039857Y015180D01*
X037357Y015180D01*
X036857Y015680D01*
X031107Y015680D01*
X031107Y015430D01*
X031107Y015680D02*
X025107Y015680D01*
X024857Y015930D01*
X024706Y015912D01*
X024706Y016168D02*
X024857Y016180D01*
X026357Y016180D01*
X026607Y015930D01*
X026857Y015930D01*
X027009Y015912D01*
X027009Y016168D02*
X027107Y016180D01*
X030357Y016180D01*
X030107Y016430D02*
X030357Y016680D01*
X034107Y016680D01*
X033857Y016930D02*
X034307Y017380D01*
X036857Y017380D01*
X038357Y017680D02*
X032857Y017680D01*
X033857Y016930D02*
X027107Y016930D01*
X027009Y016936D01*
X027009Y017192D02*
X026857Y017180D01*
X026607Y017180D01*
X025357Y018430D01*
X025357Y020930D01*
X015607Y020930D01*
X014857Y021680D01*
X014757Y021680D01*
X013857Y021680D02*
X013757Y021680D01*
X013857Y021680D02*
X015107Y020430D01*
X025107Y020430D01*
X025107Y018180D01*
X026607Y016680D01*
X027009Y016680D01*
X027009Y016424D02*
X027107Y016430D01*
X030107Y016430D01*
X029607Y017430D02*
X027107Y017430D01*
X027009Y017448D01*
X027009Y017686D02*
X027107Y017680D01*
X029357Y017680D01*
X029857Y018180D01*
X039607Y018180D01*
X039357Y018680D02*
X039107Y018680D01*
X038607Y019180D01*
X029607Y019180D01*
X028607Y018180D01*
X027597Y018486D02*
X027597Y023780D01*
X027277Y023780D02*
X027277Y021632D01*
X027297Y021520D02*
X027756Y021520D01*
X027756Y021840D02*
X027070Y021840D01*
X026957Y021870D02*
X026957Y023780D01*
X025857Y024680D02*
X025731Y024680D01*
X025857Y024680D02*
X026357Y025180D01*
X026357Y026180D01*
X022357Y026180D01*
X021857Y025680D01*
X021857Y024880D01*
X021857Y024480D02*
X021857Y024180D01*
X022857Y024180D01*
X022857Y024480D01*
X022857Y024180D02*
X023857Y024180D01*
X023857Y024503D01*
X023857Y024180D02*
X029357Y024180D01*
X029197Y023780D02*
X029197Y023086D01*
X029232Y023120D02*
X013483Y023120D01*
X013517Y023086D02*
X013517Y023780D01*
X013197Y023780D02*
X013197Y023406D01*
X013163Y023440D02*
X029552Y023440D01*
X029517Y023406D02*
X029517Y023780D01*
X029837Y023780D02*
X029837Y023726D01*
X029872Y023760D02*
X012843Y023760D01*
X012877Y023780D02*
X012877Y023726D01*
X012357Y024180D02*
X012357Y025680D01*
X012857Y025680D01*
X012857Y024880D01*
X012857Y024480D02*
X013857Y024480D01*
X013880Y024503D01*
X014857Y024503D01*
X014857Y024430D01*
X015107Y024430D01*
X015357Y024680D01*
X015357Y025180D01*
X020357Y025180D01*
X021357Y024180D01*
X021857Y024180D01*
X022857Y024880D02*
X022857Y025680D01*
X023857Y025680D02*
X023857Y024857D01*
X024279Y025257D02*
X024357Y025335D01*
X024519Y025174D01*
X024631Y025127D01*
X024617Y025119D01*
X024583Y025086D01*
X024560Y025045D01*
X024547Y024999D01*
X024547Y024728D01*
X024935Y024728D01*
X024935Y024632D01*
X024547Y024632D01*
X024547Y024580D01*
X024427Y024580D01*
X024427Y024691D01*
X024427Y025046D01*
X024379Y025163D01*
X024289Y025253D01*
X024279Y025257D01*
X024397Y025295D02*
X024397Y025118D01*
X024427Y025040D02*
X024558Y025040D01*
X024427Y024720D02*
X024935Y024720D01*
X024717Y024728D02*
X024717Y024632D01*
X024857Y025680D02*
X025857Y025680D01*
X027917Y023780D02*
X027917Y022112D01*
X028357Y021680D02*
X030357Y023680D01*
X038107Y023680D01*
X038107Y023180D02*
X031857Y023180D01*
X030357Y021680D01*
X031357Y021680D02*
X032357Y022680D01*
X038107Y022680D01*
X039007Y022800D02*
X040327Y022800D01*
X040327Y022480D02*
X039007Y022480D01*
X039117Y022248D02*
X039117Y028060D01*
X038920Y028240D02*
X038794Y028240D01*
X038797Y028243D02*
X038797Y024056D01*
X038773Y024080D02*
X040327Y024080D01*
X040327Y024400D02*
X038453Y024400D01*
X038477Y024376D02*
X038477Y028060D01*
X038257Y027920D02*
X040327Y027920D01*
X040327Y027600D02*
X038288Y027600D01*
X038473Y027280D02*
X040327Y027280D01*
X040327Y026960D02*
X038473Y026960D01*
X038467Y026640D02*
X040327Y026640D01*
X040327Y026320D02*
X038473Y026320D01*
X038473Y026000D02*
X040327Y026000D01*
X040327Y025680D02*
X037454Y025680D01*
X037517Y025730D02*
X037517Y024580D01*
X037197Y024580D02*
X037197Y025175D01*
X037371Y025360D02*
X040327Y025360D01*
X040327Y025040D02*
X035732Y025040D01*
X035917Y025083D02*
X035917Y024580D01*
X035597Y024580D02*
X035597Y024854D01*
X035584Y024841D02*
X035584Y024841D01*
X035463Y024720D02*
X040327Y024720D01*
X040327Y023120D02*
X039007Y023120D01*
X039437Y022297D02*
X039437Y028060D01*
X037857Y027054D02*
X037857Y026930D01*
X037607Y026930D01*
X037857Y027054D02*
X037857Y030180D01*
X038857Y030180D01*
X039357Y030680D01*
X036957Y030233D02*
X036957Y027402D01*
X036917Y027362D01*
X036917Y027080D01*
X031631Y027080D01*
X031665Y027094D01*
X031755Y027184D01*
X031803Y027301D01*
X031803Y028059D01*
X031755Y028176D01*
X031665Y028266D01*
X031547Y028315D01*
X030042Y028315D01*
X029957Y028280D01*
X029457Y028280D01*
X029457Y028442D01*
X029493Y028422D01*
X029538Y028409D01*
X029809Y028409D01*
X029809Y028797D01*
X029905Y028797D01*
X029905Y028409D01*
X030176Y028409D01*
X030222Y028422D01*
X030263Y028445D01*
X030297Y028479D01*
X030320Y028520D01*
X030333Y028566D01*
X030333Y028797D01*
X029905Y028797D01*
X029905Y028893D01*
X030333Y028893D01*
X030333Y028987D01*
X030334Y028987D01*
X030424Y029077D01*
X030473Y029195D01*
X030473Y029834D01*
X030457Y029871D01*
X030457Y030458D01*
X030466Y030440D01*
X030509Y030382D01*
X030559Y030331D01*
X030618Y030289D01*
X030682Y030256D01*
X030684Y030256D01*
X030637Y030144D01*
X030637Y029216D01*
X030686Y029099D01*
X030776Y029009D01*
X030894Y028960D01*
X031821Y028960D01*
X031939Y029009D01*
X032029Y029099D01*
X032077Y029216D01*
X032077Y029387D01*
X032125Y029272D01*
X032327Y029070D01*
X032592Y028960D01*
X032878Y028960D01*
X033143Y029070D01*
X033346Y029272D01*
X033424Y029462D01*
X033503Y029272D01*
X033705Y029070D01*
X033970Y028960D01*
X034256Y028960D01*
X034521Y029070D01*
X034724Y029272D01*
X034802Y029462D01*
X034881Y029272D01*
X035083Y029070D01*
X035348Y028960D01*
X035634Y028960D01*
X035899Y029070D01*
X036102Y029272D01*
X036211Y029537D01*
X036211Y029823D01*
X036102Y030088D01*
X036068Y030121D01*
X036196Y030174D01*
X036364Y030342D01*
X036432Y030508D01*
X036434Y030505D01*
X036466Y030440D01*
X036509Y030382D01*
X036559Y030331D01*
X036618Y030289D01*
X036682Y030256D01*
X036750Y030234D01*
X036821Y030223D01*
X036849Y030223D01*
X036849Y030671D01*
X036866Y030671D01*
X036866Y030223D01*
X036893Y030223D01*
X036957Y030233D01*
X036957Y030160D02*
X036162Y030160D01*
X036237Y030215D02*
X036237Y027080D01*
X035917Y027080D02*
X035917Y029088D01*
X036029Y029200D02*
X036957Y029200D01*
X036957Y028880D02*
X029905Y028880D01*
X029837Y028797D02*
X029837Y028280D01*
X029809Y028560D02*
X029905Y028560D01*
X030157Y028409D02*
X030157Y028315D01*
X030331Y028560D02*
X036957Y028560D01*
X036957Y028240D02*
X031691Y028240D01*
X031757Y028170D02*
X031757Y028960D01*
X031437Y028960D02*
X031437Y028315D01*
X031117Y028315D02*
X031117Y028960D01*
X030797Y029000D02*
X030797Y028315D01*
X030477Y028315D02*
X030477Y030425D01*
X030457Y030160D02*
X030644Y030160D01*
X030637Y029840D02*
X030470Y029840D01*
X030473Y029520D02*
X030637Y029520D01*
X030644Y029200D02*
X030473Y029200D01*
X030157Y028893D02*
X030157Y028797D01*
X029517Y028415D02*
X029517Y028280D01*
X028257Y028080D02*
X028257Y027799D01*
X028257Y027580D01*
X026289Y027580D01*
X026289Y027603D01*
X025498Y027603D01*
X025498Y027757D01*
X026289Y027757D01*
X026289Y028019D01*
X026277Y028064D01*
X026268Y028080D01*
X028257Y028080D01*
X028237Y028080D02*
X028237Y027580D01*
X028257Y027600D02*
X026289Y027600D01*
X026317Y027580D02*
X026317Y028080D01*
X026289Y027920D02*
X028257Y027920D01*
X027917Y028080D02*
X027917Y027580D01*
X027597Y027580D02*
X027597Y028080D01*
X027277Y028080D02*
X027277Y027580D01*
X026957Y027580D02*
X026957Y028080D01*
X026637Y028080D02*
X026637Y027580D01*
X025997Y027603D02*
X025997Y027757D01*
X025677Y027757D02*
X025677Y027603D01*
X025343Y027603D02*
X024551Y027603D01*
X024551Y027580D01*
X024303Y027580D01*
X024303Y028059D01*
X024294Y028080D01*
X024573Y028080D01*
X024564Y028064D01*
X024551Y028019D01*
X024551Y027757D01*
X025343Y027757D01*
X025343Y027603D01*
X025037Y027603D02*
X025037Y027757D01*
X024717Y027757D02*
X024717Y027603D01*
X024551Y027600D02*
X024303Y027600D01*
X024397Y027580D02*
X024397Y028080D01*
X024303Y027920D02*
X024551Y027920D01*
X023209Y028880D02*
X020905Y028880D01*
X020857Y028845D02*
X021423Y028845D01*
X021197Y028797D02*
X021197Y028893D01*
X020877Y028797D02*
X020877Y028280D01*
X020905Y028560D02*
X020809Y028560D01*
X020557Y028409D02*
X020557Y028280D01*
X021473Y029200D02*
X021644Y029200D01*
X021637Y029520D02*
X021473Y029520D01*
X021470Y029840D02*
X021637Y029840D01*
X021644Y030160D02*
X021457Y030160D01*
X023117Y029290D02*
X023117Y028789D01*
X023071Y029200D02*
X023197Y029200D01*
X021857Y026430D02*
X021107Y025680D01*
X020857Y025680D01*
X021357Y026430D02*
X019857Y026430D01*
X019857Y026306D01*
X019857Y026180D01*
X012357Y026180D01*
X011857Y025680D01*
X011857Y026430D02*
X008857Y026430D01*
X008607Y026680D01*
X008607Y026759D01*
X008357Y027180D02*
X008107Y026930D01*
X008107Y026759D01*
X008357Y027180D02*
X016107Y027180D01*
X016077Y027620D02*
X016077Y028080D01*
X015757Y028080D02*
X015757Y027580D01*
X015885Y027580D02*
X014789Y027580D01*
X014789Y027603D01*
X013998Y027603D01*
X013998Y027757D01*
X014789Y027757D01*
X014789Y028019D01*
X014777Y028064D01*
X014768Y028080D01*
X017609Y028080D01*
X018517Y027171D01*
X018738Y027080D01*
X019242Y027080D01*
X019242Y026734D01*
X019265Y026680D01*
X019242Y026626D01*
X019242Y026580D01*
X012297Y026580D01*
X012297Y026612D01*
X012130Y026780D01*
X015885Y026780D01*
X015925Y026740D01*
X016290Y026740D01*
X016547Y026998D01*
X016547Y027362D01*
X016290Y027620D01*
X015925Y027620D01*
X015885Y027580D01*
X015905Y027600D02*
X014789Y027600D01*
X014797Y027580D02*
X014797Y028080D01*
X014789Y027920D02*
X017769Y027920D01*
X017677Y028011D02*
X017677Y026580D01*
X017357Y026580D02*
X017357Y028080D01*
X017037Y028080D02*
X017037Y026580D01*
X016717Y026580D02*
X016717Y028080D01*
X016397Y028080D02*
X016397Y027512D01*
X016310Y027600D02*
X018089Y027600D01*
X017997Y027691D02*
X017997Y026580D01*
X018317Y026580D02*
X018317Y027371D01*
X018409Y027280D02*
X016547Y027280D01*
X016510Y026960D02*
X019242Y026960D01*
X018957Y027080D02*
X018957Y026580D01*
X019248Y026640D02*
X012270Y026640D01*
X012237Y026672D02*
X012237Y026780D01*
X012557Y026780D02*
X012557Y026580D01*
X012877Y026580D02*
X012877Y026780D01*
X013197Y026780D02*
X013197Y026580D01*
X013517Y026580D02*
X013517Y026780D01*
X013837Y026780D02*
X013837Y026580D01*
X014157Y026580D02*
X014157Y026780D01*
X014477Y026780D02*
X014477Y026580D01*
X014797Y026580D02*
X014797Y026780D01*
X015117Y026780D02*
X015117Y026580D01*
X015437Y026580D02*
X015437Y026780D01*
X015757Y026780D02*
X015757Y026580D01*
X016077Y026580D02*
X016077Y026740D01*
X016397Y026848D02*
X016397Y026580D01*
X016857Y025680D02*
X015857Y025680D01*
X014857Y025680D02*
X014857Y024857D01*
X015357Y024180D02*
X012357Y024180D01*
X011712Y023760D02*
X006757Y023760D01*
X006757Y023440D02*
X012032Y023440D01*
X011917Y023554D02*
X011917Y022129D01*
X011940Y022122D02*
X011869Y022145D01*
X011795Y022157D01*
X011776Y022157D01*
X011776Y021698D01*
X011739Y021698D01*
X011739Y022157D01*
X011720Y022157D01*
X011646Y022145D01*
X011574Y022122D01*
X011507Y022088D01*
X011447Y022044D01*
X011394Y021991D01*
X011349Y021930D01*
X011334Y021900D01*
X011280Y022029D01*
X011107Y022203D01*
X010880Y022297D01*
X010635Y022297D01*
X010408Y022203D01*
X010234Y022029D01*
X010140Y021803D01*
X010140Y021557D01*
X010234Y021331D01*
X010408Y021157D01*
X010635Y021063D01*
X010880Y021063D01*
X011107Y021157D01*
X011280Y021331D01*
X011334Y021460D01*
X011349Y021430D01*
X011394Y021369D01*
X011447Y021316D01*
X011507Y021272D01*
X011574Y021238D01*
X011646Y021215D01*
X011720Y021203D01*
X011739Y021203D01*
X011739Y021662D01*
X011776Y021662D01*
X011776Y021203D01*
X011795Y021203D01*
X011869Y021215D01*
X011940Y021238D01*
X012007Y021272D01*
X012068Y021316D01*
X012121Y021369D01*
X012165Y021430D01*
X012181Y021460D01*
X012234Y021331D01*
X012408Y021157D01*
X012635Y021063D01*
X012880Y021063D01*
X013107Y021157D01*
X013257Y021308D01*
X013408Y021157D01*
X013635Y021063D01*
X013880Y021063D01*
X013900Y021071D01*
X014881Y020091D01*
X015028Y020030D01*
X024707Y020030D01*
X024707Y018604D01*
X024608Y018587D01*
X024465Y018587D01*
X024449Y018580D01*
X009528Y018580D01*
X009381Y018519D01*
X008809Y017948D01*
X008620Y018137D01*
X008863Y018380D01*
X008863Y018894D01*
X008620Y019137D01*
X008863Y019380D01*
X008863Y019894D01*
X008620Y020137D01*
X008863Y020380D01*
X008863Y020894D01*
X008620Y021137D01*
X008863Y021380D01*
X008863Y021894D01*
X008620Y022137D01*
X008863Y022380D01*
X008863Y022894D01*
X008500Y023257D01*
X007986Y023257D01*
X007644Y022915D01*
X007442Y023117D01*
X007263Y023117D01*
X007263Y022657D01*
X007223Y022657D01*
X007223Y023117D01*
X007044Y023117D01*
X006763Y022836D01*
X006763Y022657D01*
X007223Y022657D01*
X007223Y022617D01*
X006763Y022617D01*
X006763Y022590D01*
X006757Y022596D01*
X006757Y024580D01*
X009477Y024580D01*
X009697Y024671D01*
X009866Y024840D01*
X009957Y025061D01*
X009957Y025280D01*
X010192Y025280D01*
X013338Y022133D01*
X013257Y022052D01*
X013107Y022203D01*
X012880Y022297D01*
X012635Y022297D01*
X012408Y022203D01*
X012234Y022029D01*
X012181Y021900D01*
X012165Y021930D01*
X012121Y021991D01*
X012068Y022044D01*
X012007Y022088D01*
X011940Y022122D01*
X012237Y022032D02*
X012237Y023234D01*
X012352Y023120D02*
X008637Y023120D01*
X008717Y023039D02*
X008717Y024580D01*
X008397Y024580D02*
X008397Y023257D01*
X008077Y023257D02*
X008077Y024580D01*
X007757Y024580D02*
X007757Y023028D01*
X007850Y023120D02*
X006757Y023120D01*
X006797Y022870D02*
X006797Y024580D01*
X006757Y024400D02*
X011072Y024400D01*
X010957Y024514D02*
X010957Y022265D01*
X011150Y022160D02*
X012365Y022160D01*
X012557Y022265D02*
X012557Y022914D01*
X012672Y022800D02*
X008863Y022800D01*
X008863Y022480D02*
X012992Y022480D01*
X012877Y022594D02*
X012877Y022297D01*
X013150Y022160D02*
X013312Y022160D01*
X013197Y022112D02*
X013197Y022274D01*
X013803Y022800D02*
X028912Y022800D01*
X028877Y022766D02*
X028877Y023780D01*
X029857Y025680D02*
X030607Y026430D01*
X037857Y026430D01*
X037857Y026306D01*
X037837Y025730D02*
X037837Y024580D01*
X038157Y024580D02*
X038157Y025730D01*
X036877Y025083D02*
X036877Y024580D01*
X036557Y024580D02*
X036557Y025158D01*
X036237Y025215D02*
X036237Y024580D01*
X035357Y025180D02*
X035357Y026180D01*
X031357Y026180D01*
X030857Y025680D01*
X030857Y024880D01*
X031857Y024880D02*
X031857Y025680D01*
X032857Y025680D02*
X032857Y024857D01*
X033279Y025257D02*
X033357Y025335D01*
X033357Y025185D01*
X033379Y025163D02*
X033289Y025253D01*
X033279Y025257D01*
X033357Y025335D02*
X033519Y025174D01*
X033631Y025127D01*
X033617Y025119D01*
X033583Y025086D01*
X033560Y025045D01*
X033547Y024999D01*
X033547Y024728D01*
X033935Y024728D01*
X033935Y024632D01*
X033547Y024632D01*
X033547Y024580D01*
X033427Y024580D01*
X033427Y024669D01*
X033427Y025046D01*
X033379Y025163D01*
X033427Y025040D02*
X033558Y025040D01*
X033677Y024728D02*
X033677Y024632D01*
X033427Y024720D02*
X033935Y024720D01*
X034731Y024680D02*
X034857Y024680D01*
X035357Y025180D01*
X034857Y025680D02*
X033857Y025680D01*
X033997Y027080D02*
X033997Y028960D01*
X034317Y028985D02*
X034317Y027080D01*
X034637Y027080D02*
X034637Y029186D01*
X034651Y029200D02*
X034953Y029200D01*
X034957Y029196D02*
X034957Y027080D01*
X035277Y027080D02*
X035277Y028989D01*
X035597Y028960D02*
X035597Y027080D01*
X036557Y027080D02*
X036557Y030333D01*
X036446Y030480D02*
X036421Y030480D01*
X036849Y030480D02*
X036866Y030480D01*
X036877Y030223D02*
X036877Y027080D01*
X036917Y027280D02*
X033768Y027280D01*
X033777Y027296D02*
X033789Y027341D01*
X033789Y027603D01*
X032998Y027603D01*
X032998Y027757D01*
X033789Y027757D01*
X033789Y028019D01*
X033777Y028064D01*
X033753Y028105D01*
X033720Y028139D01*
X033679Y028163D01*
X033633Y028175D01*
X032998Y028175D01*
X032998Y027757D01*
X032843Y027757D01*
X032843Y027603D01*
X032051Y027603D01*
X032051Y027341D01*
X032064Y027296D01*
X032087Y027255D01*
X032121Y027221D01*
X032162Y027197D01*
X032208Y027185D01*
X032843Y027185D01*
X032843Y027603D01*
X032998Y027603D01*
X032998Y027185D01*
X033633Y027185D01*
X033679Y027197D01*
X033720Y027221D01*
X033753Y027255D01*
X033777Y027296D01*
X033677Y027197D02*
X033677Y027080D01*
X033357Y027080D02*
X033357Y027185D01*
X033037Y027185D02*
X033037Y027080D01*
X032998Y027280D02*
X032843Y027280D01*
X032717Y027185D02*
X032717Y027080D01*
X032397Y027080D02*
X032397Y027185D01*
X032077Y027272D02*
X032077Y027080D01*
X032073Y027280D02*
X031794Y027280D01*
X031757Y027190D02*
X031757Y027080D01*
X031803Y027600D02*
X032051Y027600D01*
X032077Y027603D02*
X032077Y027757D01*
X032051Y027757D02*
X032843Y027757D01*
X032843Y028175D01*
X032208Y028175D01*
X032162Y028163D01*
X032121Y028139D01*
X032087Y028105D01*
X032064Y028064D01*
X032051Y028019D01*
X032051Y027757D01*
X032051Y027920D02*
X031803Y027920D01*
X032077Y028088D02*
X032077Y029387D01*
X032071Y029200D02*
X032197Y029200D01*
X032397Y029041D02*
X032397Y028175D01*
X032717Y028175D02*
X032717Y028960D01*
X033037Y029026D02*
X033037Y028175D01*
X032998Y027920D02*
X032843Y027920D01*
X032717Y027757D02*
X032717Y027603D01*
X032843Y027600D02*
X032998Y027600D01*
X033037Y027603D02*
X033037Y027757D01*
X033357Y027757D02*
X033357Y027603D01*
X033677Y027603D02*
X033677Y027757D01*
X033789Y027600D02*
X036957Y027600D01*
X036957Y027920D02*
X033789Y027920D01*
X033677Y028163D02*
X033677Y029098D01*
X033575Y029200D02*
X033273Y029200D01*
X033357Y029300D02*
X033357Y028175D01*
X032397Y027757D02*
X032397Y027603D01*
X029357Y026680D02*
X029107Y026930D01*
X028857Y026930D01*
X028857Y027054D01*
X028857Y027180D01*
X019857Y027180D01*
X019857Y027054D01*
X018637Y027122D02*
X018637Y026580D01*
X018637Y024780D02*
X018637Y022580D01*
X018317Y022580D02*
X018317Y024780D01*
X017997Y024780D02*
X017997Y022580D01*
X018957Y022580D02*
X018957Y024780D01*
X019277Y024780D02*
X019277Y022580D01*
X019597Y022580D02*
X019597Y024780D01*
X019917Y024780D02*
X019917Y022580D01*
X017037Y024632D02*
X017037Y024728D01*
X016779Y024400D02*
X016683Y024400D01*
X016077Y024065D02*
X016077Y022580D01*
X015757Y022580D02*
X015757Y024014D01*
X015437Y023780D02*
X015437Y022580D01*
X015117Y022580D02*
X015117Y023780D01*
X014797Y023780D02*
X014797Y022580D01*
X014477Y022580D02*
X014477Y023780D01*
X014157Y023780D02*
X014157Y022580D01*
X013837Y022766D02*
X013837Y023780D01*
X013857Y024880D02*
X013857Y025680D01*
X015357Y024180D02*
X015857Y024680D01*
X015983Y024680D01*
X015437Y027580D02*
X015437Y028080D01*
X015117Y028080D02*
X015117Y027580D01*
X014477Y027603D02*
X014477Y027757D01*
X014157Y027757D02*
X014157Y027603D01*
X013843Y027603D02*
X013051Y027603D01*
X013051Y027580D01*
X012803Y027580D01*
X012803Y028059D01*
X012794Y028080D01*
X013073Y028080D01*
X013064Y028064D01*
X013051Y028019D01*
X013051Y027757D01*
X013843Y027757D01*
X013843Y027603D01*
X013837Y027603D02*
X013837Y027757D01*
X013517Y027757D02*
X013517Y027603D01*
X013197Y027603D02*
X013197Y027757D01*
X013051Y027600D02*
X012803Y027600D01*
X012877Y027580D02*
X012877Y028080D01*
X012803Y027920D02*
X013051Y027920D01*
X011257Y028315D02*
X011042Y028315D01*
X010924Y028266D01*
X010834Y028176D01*
X010785Y028059D01*
X010785Y027580D01*
X009075Y027580D01*
X009075Y027582D01*
X009483Y027990D01*
X009540Y027990D01*
X009797Y028248D01*
X009797Y028612D01*
X009540Y028870D01*
X009175Y028870D01*
X008917Y028612D01*
X008917Y028556D01*
X008507Y028146D01*
X008507Y030154D01*
X008734Y030060D01*
X008981Y030060D01*
X009208Y030154D01*
X009357Y030303D01*
X009357Y028870D01*
X009037Y028732D02*
X009037Y030083D01*
X009214Y030160D02*
X009500Y030160D01*
X009506Y030154D02*
X009734Y030060D01*
X009981Y030060D01*
X010208Y030154D01*
X010383Y030329D01*
X010434Y030453D01*
X010447Y030428D01*
X010491Y030367D01*
X010545Y030314D01*
X010606Y030269D01*
X010673Y030235D01*
X010745Y030212D01*
X010820Y030200D01*
X010837Y030200D01*
X010837Y030660D01*
X010877Y030660D01*
X010877Y030200D01*
X010895Y030200D01*
X010970Y030212D01*
X011042Y030235D01*
X011109Y030269D01*
X011170Y030314D01*
X011223Y030367D01*
X011257Y030414D01*
X011257Y030115D01*
X010738Y030115D01*
X010680Y030091D01*
X010498Y030091D01*
X010381Y030042D01*
X010291Y029952D01*
X010242Y029834D01*
X010242Y029195D01*
X010291Y029077D01*
X010381Y028987D01*
X010382Y028987D01*
X010382Y028893D01*
X010809Y028893D01*
X010809Y028797D01*
X010905Y028797D01*
X010905Y028409D01*
X011176Y028409D01*
X011222Y028422D01*
X011257Y028442D01*
X011257Y028315D01*
X010957Y028280D02*
X010957Y028409D01*
X010809Y028409D02*
X010809Y028797D01*
X010382Y028797D01*
X010382Y028566D01*
X010394Y028520D01*
X010418Y028479D01*
X010451Y028445D01*
X010493Y028422D01*
X010538Y028409D01*
X010809Y028409D01*
X010809Y028560D02*
X010905Y028560D01*
X010637Y028409D02*
X010637Y027580D01*
X010785Y027600D02*
X009093Y027600D01*
X009357Y027580D02*
X009357Y027864D01*
X009413Y027920D02*
X010785Y027920D01*
X010898Y028240D02*
X009790Y028240D01*
X009677Y028128D02*
X009677Y027580D01*
X009997Y027580D02*
X009997Y030067D01*
X010214Y030160D02*
X011257Y030160D01*
X010957Y030115D02*
X010957Y030210D01*
X010877Y030480D02*
X010837Y030480D01*
X010837Y030700D02*
X010837Y031160D01*
X010820Y031160D01*
X010745Y031148D01*
X010673Y031125D01*
X010606Y031091D01*
X010545Y031046D01*
X010491Y030993D01*
X010447Y030932D01*
X010434Y030907D01*
X010383Y031031D01*
X010257Y031157D01*
X010257Y031203D01*
X010383Y031329D01*
X010434Y031453D01*
X010447Y031428D01*
X010491Y031367D01*
X010545Y031314D01*
X010606Y031269D01*
X010673Y031235D01*
X010745Y031212D01*
X010820Y031200D01*
X010837Y031200D01*
X010837Y031660D01*
X010877Y031660D01*
X010877Y031200D01*
X010895Y031200D01*
X010970Y031212D01*
X011042Y031235D01*
X011109Y031269D01*
X011170Y031314D01*
X011223Y031367D01*
X011268Y031428D01*
X011302Y031496D01*
X011325Y031568D01*
X011337Y031642D01*
X011337Y031660D01*
X010877Y031660D01*
X010877Y031700D01*
X011337Y031700D01*
X011337Y031718D01*
X011327Y031780D01*
X013187Y031780D01*
X013187Y031547D01*
X013257Y031378D01*
X013257Y030902D01*
X013248Y030920D01*
X013206Y030978D01*
X013155Y031029D01*
X013097Y031071D01*
X013033Y031104D01*
X012964Y031126D01*
X012893Y031137D01*
X012866Y031137D01*
X012866Y030689D01*
X012849Y030689D01*
X012849Y031137D01*
X012821Y031137D01*
X012750Y031126D01*
X012682Y031104D01*
X012618Y031071D01*
X012559Y031029D01*
X012509Y030978D01*
X012466Y030920D01*
X012434Y030856D01*
X012366Y031020D01*
X012197Y031189D01*
X011977Y031280D01*
X011738Y031280D01*
X011517Y031189D01*
X011349Y031020D01*
X011292Y030884D01*
X011268Y030932D01*
X011223Y030993D01*
X011170Y031046D01*
X011109Y031091D01*
X011042Y031125D01*
X010970Y031148D01*
X010895Y031160D01*
X010877Y031160D01*
X010877Y030700D01*
X010837Y030700D01*
X010837Y030800D02*
X010877Y030800D01*
X010877Y031120D02*
X010837Y031120D01*
X010957Y031150D02*
X010957Y031210D01*
X011051Y031120D02*
X011449Y031120D01*
X011597Y031222D02*
X011597Y031780D01*
X011331Y031760D02*
X013187Y031760D01*
X013197Y031523D02*
X013197Y030987D01*
X013257Y031120D02*
X012983Y031120D01*
X012877Y031137D02*
X012877Y031780D01*
X012557Y031780D02*
X012557Y031027D01*
X012732Y031120D02*
X012266Y031120D01*
X012237Y031149D02*
X012237Y031780D01*
X011917Y031780D02*
X011917Y031280D01*
X011277Y031447D02*
X011277Y030913D01*
X011274Y031440D02*
X013231Y031440D01*
X012866Y031120D02*
X012849Y031120D01*
X012849Y030800D02*
X012866Y030800D01*
X012866Y030689D02*
X013257Y030689D01*
X013257Y030671D01*
X012866Y030671D01*
X012866Y030388D01*
X012849Y030381D01*
X012849Y030671D01*
X012866Y030671D01*
X012866Y030689D01*
X012877Y030689D02*
X012877Y030671D01*
X012849Y030671D02*
X012457Y030671D01*
X012457Y030689D01*
X012849Y030689D01*
X012849Y030671D01*
X012849Y030480D02*
X012866Y030480D01*
X012557Y030671D02*
X012557Y030689D01*
X013197Y030671D02*
X013197Y030689D01*
X011277Y031660D02*
X011277Y031700D01*
X010957Y031700D02*
X010957Y031660D01*
X010877Y031440D02*
X010837Y031440D01*
X010637Y031253D02*
X010637Y031107D01*
X010664Y031120D02*
X010294Y031120D01*
X010317Y031097D02*
X010317Y031263D01*
X010429Y031440D02*
X010441Y031440D01*
X009912Y032300D02*
X009741Y032300D01*
X009696Y032407D01*
X009584Y032519D01*
X009437Y032580D01*
X007778Y032580D01*
X007631Y032519D01*
X007348Y032236D01*
X006971Y032236D01*
X006853Y032188D01*
X006763Y032097D01*
X006756Y032080D01*
X006750Y032084D01*
X006704Y032096D01*
X006482Y032096D01*
X006482Y031718D01*
X006406Y031718D01*
X006406Y032096D01*
X006184Y032096D01*
X006138Y032084D01*
X006097Y032060D01*
X006064Y032027D01*
X006040Y031986D01*
X006028Y031940D01*
X006028Y031718D01*
X006406Y031718D01*
X006406Y031642D01*
X006028Y031642D01*
X006028Y031638D01*
X005977Y031689D01*
X005757Y031780D01*
X004958Y031780D01*
X004737Y031689D01*
X004710Y031661D01*
X004718Y031672D01*
X004757Y031749D01*
X004784Y031831D01*
X004797Y031917D01*
X004797Y031940D01*
X004267Y031940D01*
X004267Y031410D01*
X004291Y031410D01*
X004376Y031424D01*
X004458Y031450D01*
X004536Y031490D01*
X004565Y031511D01*
X004477Y031299D01*
X004477Y031061D01*
X004569Y030840D01*
X004729Y030680D01*
X004569Y030520D01*
X004477Y030299D01*
X004477Y030061D01*
X004565Y029849D01*
X004536Y029870D01*
X004458Y029910D01*
X004376Y029936D01*
X004291Y029950D01*
X004267Y029950D01*
X004267Y029420D01*
X004227Y029420D01*
X004227Y029380D01*
X003697Y029380D01*
X003697Y029357D01*
X003711Y029271D01*
X003738Y029189D01*
X003777Y029112D01*
X003828Y029042D01*
X003889Y028980D01*
X003959Y028930D01*
X004036Y028890D01*
X004118Y028864D01*
X004204Y028850D01*
X004227Y028850D01*
X004227Y029380D01*
X004267Y029380D01*
X004267Y028850D01*
X004291Y028850D01*
X004376Y028864D01*
X004458Y028890D01*
X004536Y028930D01*
X004606Y028980D01*
X004667Y029042D01*
X004718Y029112D01*
X004757Y029189D01*
X004757Y029190D01*
X004757Y028243D01*
X004738Y028232D01*
X004503Y027996D01*
X004336Y027708D01*
X004281Y027502D01*
X004275Y027531D01*
X004233Y027651D01*
X004178Y027764D01*
X004111Y027871D01*
X004032Y027970D01*
X003943Y028059D01*
X003844Y028138D01*
X003737Y028205D01*
X003623Y028260D01*
X003504Y028302D01*
X003381Y028330D01*
X003272Y028342D01*
X003272Y027299D01*
X003112Y027299D01*
X003112Y027139D01*
X003272Y027139D01*
X003272Y026096D01*
X003381Y026109D01*
X003504Y026137D01*
X003514Y026140D01*
X003494Y026120D01*
X003415Y026021D01*
X003348Y025914D01*
X003293Y025800D01*
X003287Y025783D01*
X003255Y025815D01*
X003177Y025871D01*
X003091Y025915D01*
X003000Y025944D01*
X002905Y025959D01*
X002876Y025959D01*
X002876Y025368D01*
X003467Y025368D01*
X003467Y025397D01*
X003459Y025449D01*
X004254Y025449D01*
X004254Y026492D01*
X004145Y026480D01*
X004022Y026452D01*
X004011Y026448D01*
X004032Y026469D01*
X004111Y026567D01*
X004178Y026674D01*
X004233Y026788D01*
X004275Y026907D01*
X004281Y026936D01*
X004336Y026731D01*
X004478Y026485D01*
X004414Y026492D01*
X004414Y025449D01*
X004254Y025449D01*
X004254Y025289D01*
X003465Y025289D01*
X003467Y025301D01*
X003467Y025331D01*
X002876Y025331D01*
X002876Y025368D01*
X002839Y025368D01*
X002839Y025959D01*
X002809Y025959D01*
X002714Y025944D01*
X002623Y025915D01*
X002538Y025871D01*
X002460Y025815D01*
X002392Y025747D01*
X002336Y025669D01*
X002292Y025583D01*
X002262Y025492D01*
X002247Y025397D01*
X002247Y025368D01*
X002839Y025368D01*
X002839Y025331D01*
X002876Y025331D01*
X002876Y024739D01*
X002905Y024739D01*
X003000Y024754D01*
X003091Y024784D01*
X003177Y024828D01*
X003255Y024884D01*
X003298Y024927D01*
X003348Y024824D01*
X003415Y024717D01*
X003494Y024618D01*
X003582Y024530D01*
X003359Y024530D01*
X003282Y024607D01*
X003006Y024721D01*
X002708Y024721D01*
X002432Y024607D01*
X002221Y024396D01*
X002107Y024121D01*
X002107Y023822D01*
X002221Y023546D01*
X002257Y023511D01*
X002257Y021079D01*
X001857Y021079D01*
X001757Y021038D01*
X001757Y032223D01*
X001880Y032346D01*
X001777Y032097D01*
X001777Y031823D01*
X001882Y031569D01*
X001957Y031494D01*
X001957Y029866D01*
X001882Y029791D01*
X001777Y029537D01*
X001777Y029263D01*
X001882Y029009D01*
X002076Y028815D01*
X002330Y028710D01*
X002605Y028710D01*
X002858Y028815D01*
X003052Y029009D01*
X003157Y029263D01*
X003157Y029537D01*
X003052Y029791D01*
X002858Y029985D01*
X002757Y030027D01*
X002757Y031333D01*
X002858Y031375D01*
X003052Y031569D01*
X003157Y031823D01*
X003157Y032097D01*
X003052Y032351D01*
X002858Y032545D01*
X002605Y032650D01*
X002330Y032650D01*
X002081Y032547D01*
X002310Y032776D01*
X017801Y032776D01*
X017801Y032580D01*
X010278Y032580D01*
X010131Y032519D01*
X009912Y032300D01*
X009997Y032386D02*
X009997Y032776D01*
X009677Y032776D02*
X009677Y032426D01*
X009699Y032400D02*
X010012Y032400D01*
X010317Y032580D02*
X010317Y032776D01*
X010637Y032776D02*
X010637Y032580D01*
X010957Y032580D02*
X010957Y032776D01*
X011277Y032776D02*
X011277Y032580D01*
X011597Y032580D02*
X011597Y032776D01*
X011917Y032776D02*
X011917Y032580D01*
X012237Y032580D02*
X012237Y032776D01*
X012557Y032776D02*
X012557Y032580D01*
X012877Y032580D02*
X012877Y032776D01*
X013197Y032776D02*
X013197Y032580D01*
X013517Y032580D02*
X013517Y032776D01*
X013837Y032776D02*
X013837Y032580D01*
X014157Y032580D02*
X014157Y032776D01*
X014477Y032776D02*
X014477Y032580D01*
X014797Y032580D02*
X014797Y032776D01*
X015117Y032776D02*
X015117Y032580D01*
X015437Y032580D02*
X015437Y032776D01*
X015757Y032776D02*
X015757Y032580D01*
X016077Y032580D02*
X016077Y032776D01*
X016397Y032776D02*
X016397Y032580D01*
X016717Y032580D02*
X016717Y032776D01*
X017037Y032776D02*
X017037Y032580D01*
X017357Y032580D02*
X017357Y032776D01*
X017677Y032776D02*
X017677Y032580D01*
X017801Y032720D02*
X002254Y032720D01*
X002317Y032776D02*
X002317Y032645D01*
X002637Y032636D02*
X002637Y032776D01*
X002957Y032776D02*
X002957Y032446D01*
X003003Y032400D02*
X003917Y032400D01*
X003917Y032776D01*
X003597Y032776D02*
X003597Y028269D01*
X003665Y028240D02*
X004753Y028240D01*
X004557Y028051D02*
X004557Y028945D01*
X004427Y028880D02*
X004757Y028880D01*
X004757Y028560D02*
X001757Y028560D01*
X001757Y028240D02*
X002719Y028240D01*
X002761Y028260D02*
X002647Y028205D01*
X002540Y028138D01*
X002441Y028059D01*
X002352Y027970D01*
X002273Y027871D01*
X002206Y027764D01*
X002151Y027651D01*
X002109Y027531D01*
X002081Y027408D01*
X002069Y027299D01*
X003112Y027299D01*
X003112Y028342D01*
X003003Y028330D01*
X002880Y028302D01*
X002761Y028260D01*
X002637Y028199D02*
X002637Y028724D01*
X002317Y028715D02*
X002317Y027927D01*
X002312Y027920D02*
X001757Y027920D01*
X001757Y027600D02*
X002133Y027600D01*
X002317Y027299D02*
X002317Y027139D01*
X002069Y027139D02*
X002081Y027031D01*
X002109Y026907D01*
X002151Y026788D01*
X002206Y026674D01*
X002273Y026567D01*
X002352Y026469D01*
X002441Y026379D01*
X002540Y026301D01*
X002647Y026233D01*
X002761Y026178D01*
X002880Y026137D01*
X003003Y026109D01*
X003112Y026096D01*
X003112Y027139D01*
X002069Y027139D01*
X002097Y026960D02*
X001757Y026960D01*
X001757Y026640D02*
X002227Y026640D01*
X002317Y026512D02*
X002317Y025633D01*
X002344Y025680D02*
X001757Y025680D01*
X001757Y025360D02*
X002839Y025360D01*
X002839Y025331D02*
X002247Y025331D01*
X002247Y025301D01*
X002262Y025206D01*
X002292Y025115D01*
X002336Y025030D01*
X002392Y024952D01*
X002460Y024884D01*
X002538Y024828D01*
X002623Y024784D01*
X002714Y024754D01*
X002809Y024739D01*
X002839Y024739D01*
X002839Y025331D01*
X002876Y025360D02*
X004254Y025360D01*
X004237Y025289D02*
X004237Y025449D01*
X004254Y025680D02*
X004414Y025680D01*
X004414Y026000D02*
X004254Y026000D01*
X004254Y026320D02*
X004414Y026320D01*
X004237Y026490D02*
X004237Y026801D01*
X004156Y026640D02*
X004389Y026640D01*
X003402Y026000D02*
X001757Y026000D01*
X001757Y026320D02*
X002516Y026320D01*
X002637Y026239D02*
X002637Y025919D01*
X002839Y025680D02*
X002876Y025680D01*
X002957Y025951D02*
X002957Y026119D01*
X003112Y026320D02*
X003272Y026320D01*
X003277Y026097D02*
X003277Y025792D01*
X003597Y025449D02*
X003597Y025289D01*
X003917Y025289D02*
X003917Y025449D01*
X003277Y025368D02*
X003277Y025331D01*
X002957Y025331D02*
X002957Y025368D01*
X002637Y025368D02*
X002637Y025331D01*
X002317Y025331D02*
X002317Y025368D01*
X002317Y025065D02*
X002317Y024492D01*
X002225Y024400D02*
X001757Y024400D01*
X001757Y024720D02*
X002705Y024720D01*
X002637Y024692D02*
X002637Y024779D01*
X002957Y024748D02*
X002957Y024721D01*
X003010Y024720D02*
X003413Y024720D01*
X003277Y024609D02*
X003277Y024907D01*
X002876Y025040D02*
X002839Y025040D01*
X002330Y025040D02*
X001757Y025040D01*
X001757Y024080D02*
X002107Y024080D01*
X002133Y023760D02*
X001757Y023760D01*
X001757Y023440D02*
X002257Y023440D01*
X002257Y023120D02*
X001757Y023120D01*
X001757Y022800D02*
X002257Y022800D01*
X002257Y022480D02*
X001757Y022480D01*
X001757Y022160D02*
X002257Y022160D01*
X002257Y021840D02*
X001757Y021840D01*
X001757Y021520D02*
X002257Y021520D01*
X002257Y021200D02*
X001757Y021200D01*
X001997Y021079D02*
X001997Y028894D01*
X002011Y028880D02*
X001757Y028880D01*
X001757Y029200D02*
X001803Y029200D01*
X001777Y029520D02*
X001757Y029520D01*
X001757Y029840D02*
X001931Y029840D01*
X001957Y030160D02*
X001757Y030160D01*
X001757Y030480D02*
X001957Y030480D01*
X001957Y030800D02*
X001757Y030800D01*
X001757Y031120D02*
X001957Y031120D01*
X001957Y031440D02*
X001757Y031440D01*
X001757Y031760D02*
X001803Y031760D01*
X001777Y032080D02*
X001757Y032080D01*
X002357Y031930D02*
X002467Y031960D01*
X002357Y031930D02*
X002357Y029430D01*
X002467Y029400D01*
X002957Y029886D02*
X002957Y031474D01*
X002923Y031440D02*
X004068Y031440D01*
X004036Y031450D02*
X004118Y031424D01*
X004204Y031410D01*
X004227Y031410D01*
X004227Y031940D01*
X003697Y031940D01*
X003697Y031917D01*
X003711Y031831D01*
X003738Y031749D01*
X003777Y031672D01*
X003828Y031602D01*
X003889Y031540D01*
X003959Y031490D01*
X004036Y031450D01*
X003917Y031520D02*
X003917Y029840D01*
X003003Y029840D01*
X003157Y029520D02*
X003709Y029520D01*
X003711Y029529D02*
X003697Y029443D01*
X003697Y029420D01*
X004227Y029420D01*
X004227Y029950D01*
X004204Y029950D01*
X004118Y029936D01*
X004036Y029910D01*
X003959Y029870D01*
X003889Y029820D01*
X003828Y029758D01*
X003777Y029688D01*
X003738Y029611D01*
X003711Y029529D01*
X003917Y029420D02*
X003917Y029380D01*
X003734Y029200D02*
X003131Y029200D01*
X002957Y028914D02*
X002957Y028320D01*
X003112Y028240D02*
X003272Y028240D01*
X003277Y028342D02*
X003277Y032776D01*
X003157Y032080D02*
X003709Y032080D01*
X003711Y032089D02*
X003697Y032003D01*
X003697Y031980D01*
X004227Y031980D01*
X004227Y031940D01*
X004267Y031940D01*
X004267Y031980D01*
X004227Y031980D01*
X004227Y032510D01*
X004204Y032510D01*
X004118Y032496D01*
X004036Y032470D01*
X003959Y032430D01*
X003889Y032380D01*
X003828Y032318D01*
X003777Y032248D01*
X003738Y032171D01*
X003711Y032089D01*
X003917Y031980D02*
X003917Y031940D01*
X003734Y031760D02*
X003131Y031760D01*
X002757Y031120D02*
X004477Y031120D01*
X004557Y030868D02*
X004557Y030492D01*
X004552Y030480D02*
X002757Y030480D01*
X002757Y030160D02*
X004477Y030160D01*
X004557Y029868D02*
X004557Y029855D01*
X004267Y029840D02*
X004227Y029840D01*
X004227Y029520D02*
X004267Y029520D01*
X004237Y029420D02*
X004237Y031940D01*
X004237Y031980D02*
X004237Y032776D01*
X004267Y032510D02*
X004267Y031980D01*
X004797Y031980D01*
X004797Y032003D01*
X004784Y032089D01*
X004757Y032171D01*
X004718Y032248D01*
X004667Y032318D01*
X004606Y032380D01*
X004536Y032430D01*
X004458Y032470D01*
X004376Y032496D01*
X004291Y032510D01*
X004267Y032510D01*
X004267Y032400D02*
X004227Y032400D01*
X004227Y032080D02*
X004267Y032080D01*
X004557Y031980D02*
X004557Y031940D01*
X004785Y032080D02*
X006131Y032080D01*
X006157Y032089D02*
X006157Y032776D01*
X005837Y032776D02*
X005837Y031747D01*
X005805Y031760D02*
X006028Y031760D01*
X006157Y031718D02*
X006157Y031642D01*
X006406Y031760D02*
X006482Y031760D01*
X006477Y031718D02*
X006477Y032776D01*
X006797Y032776D02*
X006797Y032132D01*
X006482Y032080D02*
X006406Y032080D01*
X007117Y032236D02*
X007117Y032776D01*
X007437Y032776D02*
X007437Y032326D01*
X007512Y032400D02*
X004577Y032400D01*
X004557Y032415D02*
X004557Y032776D01*
X004877Y032776D02*
X004877Y031747D01*
X004910Y031760D02*
X004761Y031760D01*
X004557Y031505D02*
X004557Y031492D01*
X004536Y031440D02*
X004427Y031440D01*
X004267Y031440D02*
X004227Y031440D01*
X004227Y031760D02*
X004267Y031760D01*
X005197Y031780D02*
X005197Y032776D01*
X005517Y032776D02*
X005517Y031780D01*
X004609Y030800D02*
X002757Y030800D01*
X004237Y029380D02*
X004237Y027638D01*
X004250Y027600D02*
X004307Y027600D01*
X004459Y027920D02*
X004072Y027920D01*
X003917Y028080D02*
X003917Y028960D01*
X004068Y028880D02*
X002923Y028880D01*
X003112Y027920D02*
X003272Y027920D01*
X003272Y027600D02*
X003112Y027600D01*
X003112Y027280D02*
X001757Y027280D01*
X002637Y027299D02*
X002637Y027139D01*
X002957Y027139D02*
X002957Y027299D01*
X003112Y026960D02*
X003272Y026960D01*
X003272Y026640D02*
X003112Y026640D01*
X005607Y025930D02*
X005607Y024930D01*
X005857Y024680D01*
X006357Y024680D01*
X006357Y022430D01*
X007107Y021680D01*
X007243Y021637D01*
X006803Y021200D02*
X003457Y021200D01*
X003457Y021079D02*
X003457Y023330D01*
X003859Y023330D01*
X004349Y022840D01*
X004388Y022801D01*
X004436Y022684D01*
X004526Y022594D01*
X004644Y022545D01*
X005283Y022545D01*
X005401Y022594D01*
X005491Y022684D01*
X005491Y022685D01*
X005703Y022685D01*
X005703Y023132D01*
X005799Y023132D01*
X005799Y022685D01*
X005957Y022685D01*
X005957Y022350D01*
X006018Y022203D01*
X006131Y022091D01*
X006623Y021598D01*
X006623Y021380D01*
X006866Y021137D01*
X006623Y020894D01*
X006623Y020380D01*
X006866Y020137D01*
X006623Y019894D01*
X006623Y019380D01*
X006866Y019137D01*
X006623Y018894D01*
X006623Y018380D01*
X006866Y018137D01*
X006623Y017894D01*
X006623Y017830D01*
X006327Y017830D01*
X006327Y018559D01*
X006278Y018676D01*
X006188Y018766D01*
X006071Y018815D01*
X005431Y018815D01*
X005314Y018766D01*
X005224Y018676D01*
X005223Y018675D01*
X005012Y018675D01*
X005012Y018228D01*
X004916Y018228D01*
X004916Y018675D01*
X004684Y018675D01*
X004638Y018663D01*
X004597Y018639D01*
X004564Y018605D01*
X004540Y018564D01*
X004528Y018519D01*
X004528Y018228D01*
X004916Y018228D01*
X004916Y018132D01*
X004528Y018132D01*
X004528Y017870D01*
X003790Y017870D01*
X003268Y018392D01*
X003268Y018539D01*
X003219Y018657D01*
X003129Y018747D01*
X003011Y018795D01*
X002457Y018795D01*
X002457Y019809D01*
X003559Y019809D01*
X003676Y019858D01*
X003766Y019948D01*
X003815Y020065D01*
X003815Y020822D01*
X003766Y020940D01*
X003676Y021030D01*
X003559Y021079D01*
X003457Y021079D01*
X003597Y021063D02*
X003597Y023330D01*
X003457Y023120D02*
X004069Y023120D01*
X003917Y023271D02*
X003917Y017870D01*
X003660Y018000D02*
X004528Y018000D01*
X004557Y018132D02*
X004557Y018228D01*
X004528Y018320D02*
X003340Y018320D01*
X003277Y018382D02*
X003277Y019809D01*
X002957Y019809D02*
X002957Y018795D01*
X003226Y018640D02*
X004599Y018640D01*
X004557Y018594D02*
X004557Y019949D01*
X004298Y019949D02*
X005032Y019949D01*
X005032Y020366D01*
X005187Y020366D01*
X005187Y020521D01*
X006077Y020521D01*
X006077Y020782D01*
X006064Y020828D01*
X006041Y020869D01*
X006007Y020903D01*
X005966Y020926D01*
X005920Y020939D01*
X005187Y020939D01*
X005187Y020521D01*
X005032Y020521D01*
X005032Y020366D01*
X004142Y020366D01*
X004142Y020105D01*
X004154Y020059D01*
X004178Y020018D01*
X004211Y019985D01*
X004252Y019961D01*
X004298Y019949D01*
X004237Y019970D02*
X004237Y017870D01*
X004877Y018132D02*
X004877Y018228D01*
X004916Y018320D02*
X005012Y018320D01*
X005012Y018640D02*
X004916Y018640D01*
X004877Y018675D02*
X004877Y019949D01*
X005187Y019949D02*
X005187Y020366D01*
X006077Y020366D01*
X006077Y020105D01*
X006064Y020059D01*
X006041Y020018D01*
X006007Y019985D01*
X005966Y019961D01*
X005920Y019949D01*
X005187Y019949D01*
X005197Y019949D02*
X005197Y018675D01*
X005517Y018815D02*
X005517Y019949D01*
X005837Y019949D02*
X005837Y018815D01*
X006157Y018779D02*
X006157Y022064D01*
X006062Y022160D02*
X003457Y022160D01*
X003457Y021840D02*
X006382Y021840D01*
X006477Y021744D02*
X006477Y017830D01*
X006327Y018000D02*
X006730Y018000D01*
X006797Y018068D02*
X006797Y018206D01*
X006683Y018320D02*
X006327Y018320D01*
X006293Y018640D02*
X006623Y018640D01*
X006690Y018960D02*
X002457Y018960D01*
X002637Y018795D02*
X002637Y019809D01*
X002457Y019600D02*
X006623Y019600D01*
X006650Y019920D02*
X003739Y019920D01*
X003597Y019825D02*
X003597Y018062D01*
X002857Y018180D02*
X002692Y018180D01*
X003277Y017138D02*
X003358Y017057D01*
X003437Y017024D01*
X003437Y016260D01*
X003277Y016260D01*
X003277Y017138D01*
X003277Y017040D02*
X003399Y017040D01*
X003437Y016720D02*
X003277Y016720D01*
X003277Y016400D02*
X003437Y016400D01*
X003437Y016260D02*
X003628Y016260D01*
X003628Y016248D01*
X003656Y016180D01*
X003628Y016112D01*
X003628Y016100D01*
X003437Y016100D01*
X003437Y015500D01*
X003277Y015500D01*
X003277Y016100D01*
X003437Y016100D01*
X003437Y016260D01*
X003597Y016260D02*
X003597Y016100D01*
X003437Y016080D02*
X003277Y016080D01*
X003277Y015760D02*
X003437Y015760D01*
X003057Y015480D02*
X003007Y015430D01*
X002334Y015430D01*
X003057Y015480D02*
X003857Y014680D01*
X004357Y015430D02*
X004381Y015430D01*
X005809Y016563D02*
X005809Y016951D01*
X005538Y016951D01*
X005493Y016938D01*
X005479Y016930D01*
X005412Y016997D01*
X005557Y017057D01*
X005707Y017207D01*
X005830Y017331D01*
X005897Y017492D01*
X005897Y017545D01*
X005972Y017545D01*
X005957Y017510D01*
X005957Y016951D01*
X005905Y016951D01*
X005905Y016563D01*
X005809Y016563D01*
X005837Y016563D02*
X005837Y017348D01*
X005842Y017360D02*
X005957Y017360D01*
X005957Y017040D02*
X005516Y017040D01*
X005517Y017041D02*
X005517Y016945D01*
X005809Y016720D02*
X005905Y016720D01*
X004607Y016930D02*
X004381Y016930D01*
X005607Y018180D02*
X005751Y018180D01*
X006797Y019068D02*
X006797Y019206D01*
X006723Y019280D02*
X002457Y019280D01*
X003815Y020240D02*
X004142Y020240D01*
X004237Y020366D02*
X004237Y020521D01*
X004142Y020521D02*
X004142Y020782D01*
X004154Y020828D01*
X004178Y020869D01*
X004211Y020903D01*
X004252Y020926D01*
X004298Y020939D01*
X005032Y020939D01*
X005032Y020521D01*
X004142Y020521D01*
X004142Y020560D02*
X003815Y020560D01*
X003791Y020880D02*
X004189Y020880D01*
X004237Y020918D02*
X004237Y022951D01*
X004388Y022800D02*
X003457Y022800D01*
X003457Y022480D02*
X005957Y022480D01*
X005837Y022685D02*
X005837Y020939D01*
X006030Y020880D02*
X006623Y020880D01*
X006797Y021068D02*
X006797Y021206D01*
X006623Y021520D02*
X003457Y021520D01*
X004557Y020939D02*
X004557Y022581D01*
X004877Y022545D02*
X004877Y020939D01*
X005032Y020880D02*
X005187Y020880D01*
X005197Y020939D02*
X005197Y022545D01*
X005517Y022685D02*
X005517Y020939D01*
X005517Y020521D02*
X005517Y020366D01*
X005197Y020366D02*
X005197Y020521D01*
X005187Y020560D02*
X005032Y020560D01*
X004877Y020521D02*
X004877Y020366D01*
X005032Y020240D02*
X005187Y020240D01*
X004557Y020366D02*
X004557Y020521D01*
X005837Y020521D02*
X005837Y020366D01*
X006077Y020240D02*
X006763Y020240D01*
X006797Y020206D02*
X006797Y020068D01*
X006623Y020560D02*
X006077Y020560D01*
X006797Y022617D02*
X006797Y022657D01*
X006763Y022800D02*
X006757Y022800D01*
X007117Y022657D02*
X007117Y022617D01*
X007223Y022800D02*
X007263Y022800D01*
X007117Y023117D02*
X007117Y024580D01*
X007437Y024580D02*
X007437Y023117D01*
X006757Y024080D02*
X011392Y024080D01*
X011277Y024194D02*
X011277Y022032D01*
X011597Y022129D02*
X011597Y023874D01*
X010752Y024720D02*
X009746Y024720D01*
X009677Y024663D02*
X009677Y018580D01*
X009997Y018580D02*
X009997Y025280D01*
X009949Y025040D02*
X010432Y025040D01*
X010317Y025154D02*
X010317Y022112D01*
X010365Y022160D02*
X008643Y022160D01*
X008717Y022234D02*
X008717Y022039D01*
X008863Y021840D02*
X010156Y021840D01*
X010156Y021520D02*
X008863Y021520D01*
X008717Y021234D02*
X008717Y021039D01*
X008683Y021200D02*
X010365Y021200D01*
X010317Y021248D02*
X010317Y018580D01*
X010637Y018580D02*
X010637Y021063D01*
X010957Y021095D02*
X010957Y018580D01*
X011277Y018580D02*
X011277Y021328D01*
X011150Y021200D02*
X012365Y021200D01*
X012237Y021328D02*
X012237Y018580D01*
X011917Y018580D02*
X011917Y021231D01*
X011597Y021231D02*
X011597Y018580D01*
X012557Y018580D02*
X012557Y021095D01*
X012877Y021063D02*
X012877Y018580D01*
X013197Y018580D02*
X013197Y021248D01*
X013150Y021200D02*
X013365Y021200D01*
X013517Y021112D02*
X013517Y018580D01*
X013837Y018580D02*
X013837Y021063D01*
X014092Y020880D02*
X008863Y020880D01*
X008863Y020560D02*
X014412Y020560D01*
X014477Y020494D02*
X014477Y018580D01*
X014157Y018580D02*
X014157Y020814D01*
X014732Y020240D02*
X008723Y020240D01*
X008717Y020234D02*
X008717Y020039D01*
X008837Y019920D02*
X024707Y019920D01*
X024707Y019600D02*
X008863Y019600D01*
X008763Y019280D02*
X024707Y019280D01*
X024707Y018960D02*
X008797Y018960D01*
X008717Y019039D02*
X008717Y019234D01*
X008863Y018640D02*
X024707Y018640D01*
X024397Y018580D02*
X024397Y020030D01*
X024077Y020030D02*
X024077Y018580D01*
X023757Y018580D02*
X023757Y020030D01*
X023437Y020030D02*
X023437Y018580D01*
X023117Y018580D02*
X023117Y020030D01*
X022797Y020030D02*
X022797Y018580D01*
X022477Y018580D02*
X022477Y020030D01*
X022157Y020030D02*
X022157Y018580D01*
X021837Y018580D02*
X021837Y020030D01*
X021517Y020030D02*
X021517Y018580D01*
X021197Y018580D02*
X021197Y020030D01*
X020877Y020030D02*
X020877Y018580D01*
X020557Y018580D02*
X020557Y020030D01*
X020237Y020030D02*
X020237Y018580D01*
X019917Y018580D02*
X019917Y020030D01*
X019597Y020030D02*
X019597Y018580D01*
X019277Y018580D02*
X019277Y020030D01*
X018957Y020030D02*
X018957Y018580D01*
X018637Y018580D02*
X018637Y020030D01*
X018317Y020030D02*
X018317Y018580D01*
X017997Y018580D02*
X017997Y020030D01*
X017677Y020030D02*
X017677Y018580D01*
X017357Y018580D02*
X017357Y020030D01*
X017037Y020030D02*
X017037Y018580D01*
X016717Y018580D02*
X016717Y020030D01*
X016397Y020030D02*
X016397Y018580D01*
X016077Y018580D02*
X016077Y020030D01*
X015757Y020030D02*
X015757Y018580D01*
X015437Y018580D02*
X015437Y020030D01*
X015117Y020030D02*
X015117Y018580D01*
X014797Y018580D02*
X014797Y020174D01*
X011776Y021520D02*
X011739Y021520D01*
X011739Y021840D02*
X011776Y021840D01*
X010637Y022297D02*
X010637Y024834D01*
X009357Y024580D02*
X009357Y018496D01*
X009182Y018320D02*
X008803Y018320D01*
X008717Y018234D02*
X008717Y018039D01*
X008757Y018000D02*
X008862Y018000D01*
X009037Y018176D02*
X009037Y024580D01*
X007107Y026680D02*
X007107Y026759D01*
X007107Y026680D02*
X006357Y025930D01*
X005607Y025930D01*
X005259Y024727D02*
X005268Y024703D01*
X005381Y024591D01*
X005631Y024341D01*
X005778Y024280D01*
X005957Y024280D01*
X005957Y023675D01*
X005799Y023675D01*
X005799Y023228D01*
X005703Y023228D01*
X005703Y023675D01*
X005491Y023675D01*
X005491Y023676D01*
X005401Y023766D01*
X005283Y023815D01*
X005071Y023815D01*
X004616Y024270D01*
X004608Y024278D01*
X004646Y024286D01*
X004765Y024328D01*
X004879Y024383D01*
X004986Y024450D01*
X005084Y024529D01*
X005174Y024618D01*
X005253Y024717D01*
X005259Y024727D01*
X005261Y024720D02*
X005254Y024720D01*
X005197Y024648D02*
X005197Y023815D01*
X005407Y023760D02*
X005957Y023760D01*
X005837Y023675D02*
X005837Y024280D01*
X005957Y024080D02*
X004806Y024080D01*
X004877Y024009D02*
X004877Y024382D01*
X004906Y024400D02*
X005572Y024400D01*
X005517Y024454D02*
X005517Y023675D01*
X005703Y023440D02*
X005799Y023440D01*
X005799Y023120D02*
X005703Y023120D01*
X005703Y022800D02*
X005799Y022800D01*
X007107Y027601D02*
X007107Y028680D01*
X007271Y028680D01*
X007607Y028180D02*
X007857Y028430D01*
X007857Y029680D01*
X007271Y029680D01*
X006457Y029124D02*
X006457Y028718D01*
X006406Y028718D01*
X006406Y029096D01*
X006184Y029096D01*
X006138Y029084D01*
X006097Y029060D01*
X006064Y029027D01*
X006040Y028986D01*
X006028Y028940D01*
X006028Y028718D01*
X006406Y028718D01*
X006406Y028642D01*
X006028Y028642D01*
X006028Y028420D01*
X006039Y028377D01*
X006003Y028398D01*
X005957Y028410D01*
X005957Y029242D01*
X006026Y029172D01*
X006144Y029124D01*
X006457Y029124D01*
X006457Y028880D02*
X006406Y028880D01*
X006157Y028718D02*
X006157Y028642D01*
X006028Y028560D02*
X005957Y028560D01*
X005957Y028880D02*
X006028Y028880D01*
X006157Y029089D02*
X006157Y029124D01*
X005999Y029200D02*
X005957Y029200D01*
X004267Y029200D02*
X004227Y029200D01*
X004227Y028880D02*
X004267Y028880D01*
X007271Y030680D02*
X008107Y030680D01*
X008107Y027601D01*
X007607Y027601D02*
X007607Y028180D01*
X008507Y028240D02*
X008602Y028240D01*
X008717Y028356D02*
X008717Y030067D01*
X008507Y029840D02*
X010244Y029840D01*
X010317Y029978D02*
X010317Y030263D01*
X010637Y030253D02*
X010637Y030091D01*
X010242Y029520D02*
X008507Y029520D01*
X008507Y029200D02*
X010242Y029200D01*
X010317Y029051D02*
X010317Y027580D01*
X009357Y028430D02*
X008607Y027680D01*
X008607Y027601D01*
X008507Y028560D02*
X008917Y028560D01*
X008507Y028880D02*
X010809Y028880D01*
X010637Y028893D02*
X010637Y028797D01*
X010384Y028560D02*
X009797Y028560D01*
X009677Y028732D02*
X009677Y030083D01*
X009506Y030154D02*
X009357Y030303D01*
X009357Y031680D02*
X009357Y032180D01*
X007857Y032180D01*
X007357Y031680D01*
X007271Y031680D01*
X007757Y032572D02*
X007757Y032776D01*
X008077Y032776D02*
X008077Y032580D01*
X008397Y032580D02*
X008397Y032776D01*
X008717Y032776D02*
X008717Y032580D01*
X009037Y032580D02*
X009037Y032776D01*
X009357Y032776D02*
X009357Y032580D01*
X018262Y031120D02*
X018732Y031120D01*
X018637Y031081D02*
X018637Y031356D01*
X018749Y031440D02*
X018761Y031440D01*
X018849Y031120D02*
X018866Y031120D01*
X018317Y031065D02*
X018317Y031350D01*
X018319Y031440D02*
X018395Y031440D01*
X018421Y030480D02*
X018446Y030480D01*
X018317Y030295D02*
X018317Y029069D01*
X018170Y029200D02*
X018957Y029200D01*
X018957Y029520D02*
X018204Y029520D01*
X018204Y029840D02*
X018957Y029840D01*
X018957Y030160D02*
X018162Y030160D01*
X018357Y032593D02*
X018357Y032680D01*
X019357Y032680D01*
X019357Y032554D01*
X019973Y032400D02*
X026801Y032400D01*
X026801Y032720D02*
X019973Y032720D01*
X026857Y030680D02*
X027357Y031180D01*
X035357Y031180D01*
X035857Y030680D01*
X036262Y031120D02*
X036732Y031120D01*
X036849Y031120D02*
X036866Y031120D01*
X036877Y031137D02*
X036877Y031282D01*
X036761Y031440D02*
X036749Y031440D01*
X036557Y031350D02*
X036557Y031027D01*
X036237Y031145D02*
X036237Y031350D01*
X036319Y031440D02*
X036395Y031440D01*
X036237Y031729D02*
X036237Y031805D01*
X036319Y031760D02*
X035527Y031760D01*
X036849Y030800D02*
X036866Y030800D01*
X036957Y029840D02*
X036204Y029840D01*
X036204Y029520D02*
X036957Y029520D01*
X029257Y030115D02*
X029257Y030780D01*
X028304Y030780D01*
X028314Y030716D01*
X028314Y030689D01*
X027866Y030689D01*
X027866Y030671D01*
X027866Y030223D01*
X027893Y030223D01*
X027964Y030234D01*
X028033Y030256D01*
X028097Y030289D01*
X028155Y030331D01*
X028206Y030382D01*
X028248Y030440D01*
X028281Y030505D01*
X028303Y030573D01*
X028314Y030644D01*
X028314Y030671D01*
X027866Y030671D01*
X027849Y030671D01*
X027849Y030223D01*
X027821Y030223D01*
X027750Y030234D01*
X027682Y030256D01*
X027618Y030289D01*
X027559Y030331D01*
X027509Y030382D01*
X027466Y030440D01*
X027434Y030505D01*
X027432Y030508D01*
X027364Y030342D01*
X027196Y030174D01*
X027068Y030121D01*
X027102Y030088D01*
X027211Y029823D01*
X027211Y029537D01*
X027105Y029280D01*
X028257Y029280D01*
X028257Y029299D01*
X028349Y029520D01*
X027204Y029520D01*
X027277Y029280D02*
X027277Y030255D01*
X027162Y030160D02*
X029257Y030160D01*
X029257Y030115D02*
X029073Y030115D01*
X028852Y030023D01*
X028517Y029689D01*
X028349Y029520D01*
X028237Y029280D02*
X028237Y030425D01*
X028268Y030480D02*
X029257Y030480D01*
X029197Y030780D02*
X029197Y030115D01*
X028877Y030034D02*
X028877Y030780D01*
X028557Y030780D02*
X028557Y029729D01*
X028669Y029840D02*
X027204Y029840D01*
X027597Y030304D02*
X027597Y029280D01*
X027917Y029280D02*
X027917Y030227D01*
X027866Y030480D02*
X027849Y030480D01*
X027917Y030671D02*
X027917Y030689D01*
X028237Y030671D02*
X028237Y030689D01*
X027446Y030480D02*
X027421Y030480D01*
X027357Y032593D02*
X027357Y032680D01*
X028357Y032680D01*
X028357Y032554D01*
X028857Y026430D02*
X021857Y026430D01*
X026857Y021430D02*
X026607Y021180D01*
X026660Y018320D02*
X026033Y018320D01*
X024706Y018198D02*
X024607Y018180D01*
X009607Y018180D01*
X008607Y017180D01*
X007243Y017637D02*
X007107Y017430D01*
X009357Y015180D02*
X009607Y014930D01*
X015107Y014930D01*
X016857Y016680D01*
X024706Y016680D01*
X024706Y016424D02*
X024607Y016430D01*
X024357Y016430D01*
X024357Y014930D01*
X025107Y014930D01*
X025607Y014430D01*
X025107Y014430D02*
X023107Y014430D01*
X022857Y014680D01*
X009357Y014680D01*
X009107Y014930D01*
X010357Y015430D02*
X015107Y015430D01*
X016607Y016930D01*
X024607Y016930D01*
X024706Y016936D01*
X024706Y017192D02*
X024607Y017180D01*
X012107Y017180D01*
X010857Y015930D01*
X008863Y013520D02*
X025207Y013520D01*
X024717Y013080D02*
X024717Y014030D01*
X024397Y014030D02*
X024397Y013080D01*
X024077Y013080D02*
X024077Y014030D01*
X023757Y014030D02*
X023757Y013080D01*
X023437Y013080D02*
X023437Y014030D01*
X023117Y014030D02*
X023117Y013080D01*
X023117Y011780D02*
X023117Y011580D01*
X022797Y011580D02*
X022797Y011780D01*
X022477Y011780D02*
X022477Y011580D01*
X022157Y011580D02*
X022157Y011780D01*
X021837Y011780D02*
X021837Y011580D01*
X021517Y011580D02*
X021517Y011780D01*
X021197Y011780D02*
X021197Y011580D01*
X020877Y011580D02*
X020877Y011780D01*
X020557Y011780D02*
X020557Y011580D01*
X020237Y011580D02*
X020237Y011780D01*
X019917Y011780D02*
X019917Y011580D01*
X019597Y011580D02*
X019597Y011780D01*
X019277Y011780D02*
X019277Y011580D01*
X018957Y011580D02*
X018957Y011780D01*
X018637Y011780D02*
X018637Y011580D01*
X018317Y011580D02*
X018317Y011780D01*
X017997Y011780D02*
X017997Y011580D01*
X017677Y011580D02*
X017677Y011780D01*
X017357Y011780D02*
X017357Y011580D01*
X017037Y011580D02*
X017037Y011780D01*
X016717Y011780D02*
X016717Y011580D01*
X016397Y011580D02*
X016397Y011780D01*
X016077Y011780D02*
X016077Y011580D01*
X015757Y011580D02*
X015757Y011780D01*
X015437Y011780D02*
X015437Y011580D01*
X015117Y011580D02*
X015117Y011780D01*
X014797Y011780D02*
X014797Y011580D01*
X014477Y011580D02*
X014477Y011780D01*
X014157Y011780D02*
X014157Y011580D01*
X013837Y011580D02*
X013837Y011780D01*
X013517Y011780D02*
X013517Y011580D01*
X013197Y011580D02*
X013197Y011780D01*
X012877Y011780D02*
X012877Y011580D01*
X012557Y011580D02*
X012557Y011780D01*
X012237Y011780D02*
X012237Y011580D01*
X011917Y011580D02*
X011917Y011780D01*
X011597Y011780D02*
X011597Y011580D01*
X011277Y011580D02*
X011277Y011780D01*
X010957Y011780D02*
X010957Y011580D01*
X010637Y011580D02*
X010637Y011780D01*
X010317Y011780D02*
X010317Y011580D01*
X009997Y011580D02*
X009997Y011780D01*
X009677Y011780D02*
X009677Y011580D01*
X009357Y011580D02*
X009357Y011780D01*
X009037Y011780D02*
X009037Y011580D01*
X008863Y011580D02*
X008863Y011780D01*
X025142Y011780D01*
X024942Y011580D01*
X008863Y011580D01*
X008863Y011600D02*
X024962Y011600D01*
X025037Y011676D02*
X025037Y011780D01*
X024717Y011780D02*
X024717Y011580D01*
X024397Y011580D02*
X024397Y011780D01*
X024077Y011780D02*
X024077Y011580D01*
X023757Y011580D02*
X023757Y011780D01*
X023437Y011780D02*
X023437Y011580D01*
X025607Y012180D02*
X027357Y013930D01*
X032357Y013930D01*
X032357Y012180D01*
X032757Y012240D02*
X037602Y012240D01*
X037517Y012156D02*
X037517Y014780D01*
X037756Y013840D02*
X032757Y013840D01*
X032757Y013520D02*
X037756Y013520D01*
X037837Y013328D02*
X037837Y013032D01*
X037772Y012880D02*
X032757Y012880D01*
X032757Y012560D02*
X037740Y012560D01*
X038107Y012180D02*
X038607Y012180D01*
X039107Y012680D01*
X039357Y012680D01*
X039107Y012180D02*
X038607Y011680D01*
X038357Y011680D01*
X038107Y011180D02*
X038857Y011180D01*
X039357Y011680D01*
X039107Y012180D02*
X039857Y012180D01*
X039857Y005430D01*
X039607Y005180D01*
X037607Y005180D01*
X036357Y006430D01*
X027107Y006430D01*
X027009Y006424D01*
X027009Y006168D02*
X027107Y006180D01*
X036107Y006180D01*
X038107Y004180D01*
X039607Y004180D01*
X040107Y004680D01*
X040107Y013180D01*
X038857Y013180D01*
X038357Y012680D01*
X038107Y012180D02*
X033607Y007680D01*
X027107Y007680D01*
X027009Y007686D01*
X027009Y007448D02*
X027107Y007430D01*
X034357Y007430D01*
X038107Y011180D01*
X037965Y013200D02*
X032757Y013200D01*
X032397Y014330D02*
X032397Y015280D01*
X032077Y015280D02*
X032077Y014330D01*
X031757Y014330D02*
X031757Y015280D01*
X030795Y015120D02*
X025483Y015120D01*
X025357Y015246D02*
X025357Y015280D01*
X025677Y015280D02*
X025677Y014926D01*
X025997Y014830D02*
X025997Y015280D01*
X026317Y015280D02*
X026317Y014830D01*
X026637Y014830D02*
X026637Y015280D01*
X026957Y015280D02*
X026957Y014830D01*
X027277Y014830D02*
X027277Y015280D01*
X027597Y015280D02*
X027597Y014830D01*
X027917Y014830D02*
X027917Y015280D01*
X028237Y015280D02*
X028237Y014830D01*
X028557Y014830D02*
X028557Y015280D01*
X028877Y015280D02*
X028877Y014830D01*
X029197Y014870D02*
X029197Y015280D01*
X031107Y013130D02*
X031357Y012930D01*
X031509Y012948D01*
X032717Y010780D02*
X032717Y009744D01*
X033037Y009778D02*
X033037Y010780D01*
X031437Y010273D02*
X031437Y009680D01*
X031117Y009680D02*
X031117Y010355D01*
X031156Y010320D02*
X030863Y010320D01*
X030797Y010254D02*
X030797Y009680D01*
X030797Y008880D02*
X030797Y008080D01*
X030477Y008080D02*
X030477Y008880D01*
X030157Y008876D02*
X030157Y008080D01*
X029837Y008080D02*
X029837Y008782D01*
X031117Y008880D02*
X031117Y008080D01*
X031437Y008080D02*
X031437Y008880D01*
X031757Y008880D02*
X031757Y008080D01*
X032077Y008080D02*
X032077Y008880D01*
X032397Y008880D02*
X032397Y008080D01*
X032717Y008080D02*
X032717Y008816D01*
X033037Y008782D02*
X033037Y008080D01*
X037107Y006680D02*
X038107Y005680D01*
X038357Y005680D01*
X038107Y006180D02*
X038857Y006180D01*
X039357Y005680D01*
X039339Y004698D02*
X038880Y004698D01*
X038880Y004718D01*
X038890Y004780D01*
X038824Y004780D01*
X038834Y004718D01*
X038834Y004698D01*
X038376Y004698D01*
X038376Y004662D01*
X038834Y004662D01*
X038834Y004642D01*
X038824Y004580D01*
X038890Y004580D01*
X038880Y004642D01*
X038880Y004662D01*
X039339Y004662D01*
X039339Y004698D01*
X039117Y004698D02*
X039117Y004662D01*
X038797Y004662D02*
X038797Y004698D01*
X038477Y004698D02*
X038477Y004662D01*
X038107Y006180D02*
X037357Y006930D01*
X027107Y006930D01*
X027009Y006936D01*
X027009Y007192D02*
X027107Y007180D01*
X038857Y007180D01*
X039357Y006680D01*
X037107Y006680D02*
X027009Y006680D01*
X026857Y005930D02*
X027009Y005912D01*
X026857Y005930D02*
X026607Y005930D01*
X026357Y006180D01*
X026357Y007680D01*
X026607Y007930D01*
X026857Y007930D01*
X027009Y007942D01*
X027009Y008198D02*
X027009Y008528D01*
X025957Y007440D02*
X025470Y007440D01*
X025547Y007120D02*
X025957Y007120D01*
X025957Y006800D02*
X025350Y006800D01*
X025357Y006808D02*
X025357Y006580D01*
X025677Y006580D02*
X025677Y009530D01*
X024077Y009530D02*
X024077Y008330D01*
X024209Y008330D02*
X024209Y008330D01*
X023757Y008330D02*
X023757Y009530D01*
X023437Y009530D02*
X023437Y008330D01*
X023117Y008330D02*
X023117Y009530D01*
X022797Y009530D02*
X022797Y008330D01*
X022477Y008330D02*
X022477Y009530D01*
X022157Y009530D02*
X022157Y008330D01*
X021837Y008330D02*
X021837Y009530D01*
X021517Y009530D02*
X021517Y008330D01*
X021197Y008330D02*
X021197Y009530D01*
X020877Y009530D02*
X020877Y008330D01*
X020557Y008330D02*
X020557Y009530D01*
X020237Y009530D02*
X020237Y008330D01*
X019917Y008330D02*
X019917Y009530D01*
X019357Y007930D02*
X017857Y009430D01*
X019357Y007930D02*
X024607Y007930D01*
X024706Y007942D01*
X024706Y007192D02*
X024857Y007180D01*
X025107Y007180D01*
X024706Y006936D02*
X024607Y006930D01*
X008857Y006930D01*
X008357Y007430D01*
X008243Y007637D01*
X015357Y005180D02*
X015357Y004680D01*
X015357Y005180D02*
X015523Y005180D01*
X015607Y005180D01*
X016857Y006430D02*
X017107Y006680D01*
X024706Y006680D01*
X024706Y006424D02*
X024607Y006430D01*
X021857Y006430D01*
X021607Y006180D01*
X022607Y005680D02*
X018107Y005680D01*
X017607Y006180D01*
X017831Y002740D02*
X017884Y002740D01*
X017880Y002718D01*
X017880Y002698D01*
X018339Y002698D01*
X018339Y002662D01*
X017880Y002662D01*
X017880Y002642D01*
X017892Y002568D01*
X017915Y002497D01*
X017949Y002430D01*
X017994Y002369D01*
X018047Y002316D01*
X018107Y002272D01*
X018174Y002238D01*
X018246Y002215D01*
X018320Y002203D01*
X018339Y002203D01*
X018339Y002662D01*
X018376Y002662D01*
X018376Y002203D01*
X018395Y002203D01*
X018469Y002215D01*
X018540Y002238D01*
X018607Y002272D01*
X018668Y002316D01*
X018721Y002369D01*
X018765Y002430D01*
X018781Y002460D01*
X018834Y002331D01*
X019008Y002157D01*
X019194Y002080D01*
X016521Y002080D01*
X016707Y002157D01*
X016880Y002331D01*
X016934Y002460D01*
X016949Y002430D01*
X016994Y002369D01*
X017047Y002316D01*
X017107Y002272D01*
X017174Y002238D01*
X017246Y002215D01*
X017320Y002203D01*
X017339Y002203D01*
X017339Y002662D01*
X017376Y002662D01*
X017376Y002698D01*
X017834Y002698D01*
X017834Y002718D01*
X017831Y002740D01*
X017834Y002662D02*
X017376Y002662D01*
X017376Y002203D01*
X017395Y002203D01*
X017469Y002215D01*
X017540Y002238D01*
X017607Y002272D01*
X017668Y002316D01*
X017721Y002369D01*
X017765Y002430D01*
X017799Y002497D01*
X017822Y002568D01*
X017834Y002642D01*
X017834Y002662D01*
X017834Y002640D02*
X017881Y002640D01*
X017997Y002662D02*
X017997Y002698D01*
X017677Y002698D02*
X017677Y002662D01*
X017376Y002640D02*
X017339Y002640D01*
X017357Y002662D02*
X017357Y002080D01*
X017339Y002320D02*
X017376Y002320D01*
X017672Y002320D02*
X018043Y002320D01*
X017997Y002366D02*
X017997Y002080D01*
X017677Y002080D02*
X017677Y002326D01*
X017043Y002320D02*
X016870Y002320D01*
X017037Y002326D02*
X017037Y002080D01*
X016717Y002080D02*
X016717Y002168D01*
X018317Y002204D02*
X018317Y002080D01*
X018339Y002320D02*
X018376Y002320D01*
X018637Y002294D02*
X018637Y002080D01*
X018672Y002320D02*
X018845Y002320D01*
X018957Y002208D02*
X018957Y002080D01*
X018376Y002640D02*
X018339Y002640D01*
X018317Y002662D02*
X018317Y002698D01*
X021857Y003180D02*
X024607Y005930D01*
X024706Y005912D01*
X024706Y006168D02*
X024857Y006180D01*
X026357Y006180D01*
X025677Y011080D02*
X025677Y011184D01*
X031857Y019680D02*
X038357Y019680D01*
X037957Y020180D02*
X036857Y020180D01*
X039750Y022160D02*
X040327Y022160D01*
X028857Y026306D02*
X028857Y026430D01*
X002357Y016930D02*
X002334Y016930D01*
D11*
X003357Y014630D03*
D12*
X010757Y021680D03*
X011757Y021680D03*
X012757Y021680D03*
X013757Y021680D03*
X014757Y021680D03*
X015757Y021680D03*
X016757Y021680D03*
X017757Y021680D03*
X019357Y021680D03*
X020357Y021680D03*
X021357Y021680D03*
X022357Y021680D03*
X023357Y021680D03*
X024357Y021680D03*
X025357Y021680D03*
X026357Y021680D03*
X028357Y021680D03*
X029357Y021680D03*
X030357Y021680D03*
X031357Y021680D03*
X032357Y021680D03*
X033357Y021680D03*
X034357Y021680D03*
X035357Y021680D03*
X038357Y021680D03*
X039357Y021680D03*
X039357Y020680D03*
X038357Y020680D03*
X038357Y019680D03*
X039357Y019680D03*
X039357Y018680D03*
X038357Y018680D03*
X038357Y017680D03*
X039357Y017680D03*
X039357Y016680D03*
X038357Y016680D03*
X038357Y015680D03*
X039357Y015680D03*
X039357Y014680D03*
X038357Y014680D03*
X038357Y013680D03*
X039357Y013680D03*
X039357Y012680D03*
X038357Y012680D03*
X038357Y011680D03*
X038357Y010680D03*
X039357Y010680D03*
X039357Y011680D03*
X039357Y009680D03*
X038357Y009680D03*
X038357Y008680D03*
X039357Y008680D03*
X039357Y007680D03*
X038357Y007680D03*
X038357Y006680D03*
X039357Y006680D03*
X039357Y005680D03*
X038357Y005680D03*
X038357Y004680D03*
X039357Y004680D03*
X037357Y002680D03*
X036357Y002680D03*
X035357Y002680D03*
X034357Y002680D03*
X033357Y002680D03*
X032357Y002680D03*
X031357Y002680D03*
X030357Y002680D03*
X028357Y002680D03*
X027357Y002680D03*
X026357Y002680D03*
X025357Y002680D03*
X024357Y002680D03*
X023357Y002680D03*
X022357Y002680D03*
X021357Y002680D03*
X019357Y002680D03*
X018357Y002680D03*
X017357Y002680D03*
X016357Y002680D03*
X015357Y002680D03*
X014357Y002680D03*
D13*
X007271Y028680D03*
X006444Y028680D03*
X006444Y029680D03*
X007271Y029680D03*
X007271Y030680D03*
X006444Y030680D03*
X006444Y031680D03*
X007271Y031680D03*
X018357Y031767D03*
X018357Y032593D03*
X027357Y032593D03*
X027357Y031767D03*
X036357Y031767D03*
X036357Y032593D03*
D14*
X034731Y024680D03*
X033983Y024680D03*
X025731Y024680D03*
X024983Y024680D03*
X016731Y024680D03*
X015983Y024680D03*
X002692Y018180D03*
X002023Y018180D03*
X015523Y006180D03*
X016192Y006180D03*
X016192Y005180D03*
X015523Y005180D03*
D15*
X015857Y031680D03*
X016857Y031680D03*
X014857Y031680D03*
X013857Y031680D03*
X022857Y031680D03*
X023857Y031680D03*
X024857Y031680D03*
X025857Y031680D03*
X031857Y031680D03*
X032857Y031680D03*
X033857Y031680D03*
X034857Y031680D03*
D16*
X034857Y030680D03*
X033857Y030680D03*
X032857Y030680D03*
X031857Y030680D03*
X030857Y030680D03*
X029857Y030680D03*
X027857Y030680D03*
X026857Y030680D03*
X025857Y030680D03*
X024857Y030680D03*
X023857Y030680D03*
X022857Y030680D03*
X021857Y030680D03*
X020857Y030680D03*
X018857Y030680D03*
X017857Y030680D03*
X016857Y030680D03*
X015857Y030680D03*
X014857Y030680D03*
X013857Y030680D03*
X012857Y030680D03*
X011857Y030680D03*
X011857Y025680D03*
X012857Y025680D03*
X013857Y025680D03*
X014857Y025680D03*
X015857Y025680D03*
X016857Y025680D03*
X017857Y025680D03*
X018857Y025680D03*
X020857Y025680D03*
X021857Y025680D03*
X022857Y025680D03*
X023857Y025680D03*
X024857Y025680D03*
X025857Y025680D03*
X026857Y025680D03*
X027857Y025680D03*
X029857Y025680D03*
X030857Y025680D03*
X031857Y025680D03*
X032857Y025680D03*
X033857Y025680D03*
X034857Y025680D03*
X035857Y025680D03*
X036857Y025680D03*
X036857Y030680D03*
X035857Y030680D03*
D17*
X010857Y030680D03*
X009857Y030680D03*
X008857Y030680D03*
X008857Y031680D03*
X009857Y031680D03*
X010857Y031680D03*
D18*
X010857Y029515D03*
X010857Y028845D03*
X019357Y031806D03*
X019357Y032554D03*
X020857Y029515D03*
X020857Y028845D03*
X019857Y027054D03*
X019857Y026306D03*
X028357Y031806D03*
X028357Y032554D03*
X029857Y029515D03*
X029857Y028845D03*
X028857Y027054D03*
X028857Y026306D03*
X037357Y031806D03*
X037357Y032554D03*
X037857Y027054D03*
X037857Y026306D03*
X005857Y016515D03*
X005857Y015845D03*
X004857Y009015D03*
X004857Y008345D03*
X003357Y008345D03*
X003357Y009015D03*
D19*
X011794Y027680D03*
X013920Y027680D03*
X023294Y027680D03*
X025420Y027680D03*
X030794Y027680D03*
X032920Y027680D03*
D20*
X005515Y027219D03*
X004334Y025369D03*
X003192Y027219D03*
D21*
X005357Y027430D02*
X005515Y027219D01*
X005357Y027430D02*
X005357Y030180D01*
X005637Y030180D02*
X005077Y030180D01*
X005077Y031180D02*
X005637Y031180D01*
X010857Y029515D02*
X011692Y029515D01*
X011857Y029680D01*
X011857Y030680D01*
X011857Y029680D02*
X011857Y028680D01*
X017857Y028680D01*
X018857Y027680D01*
X019857Y027680D01*
X019857Y029180D01*
X020192Y029515D01*
X020857Y029515D01*
X020857Y030680D01*
X022857Y030680D02*
X022857Y031680D01*
X023857Y031680D02*
X023857Y030680D01*
X023857Y029680D01*
X023735Y029680D01*
X023857Y028680D02*
X028857Y028680D01*
X028857Y027680D01*
X030794Y027680D01*
X029857Y029515D02*
X029192Y029515D01*
X028857Y029180D01*
X028857Y028680D01*
X029857Y029515D02*
X029857Y030680D01*
X032735Y029680D02*
X032857Y029680D01*
X032857Y030680D01*
X027857Y027680D02*
X026857Y027680D01*
X023857Y028680D02*
X023294Y028117D01*
X023294Y027680D01*
X019857Y027680D01*
X016857Y030680D02*
X016857Y031680D01*
X015857Y031680D02*
X015857Y030680D01*
X015857Y030430D01*
X016107Y030430D01*
X016107Y029680D01*
X016113Y029680D01*
X014857Y029680D02*
X014857Y030680D01*
X014857Y031680D01*
X013857Y031680D02*
X013857Y030680D01*
X014735Y029680D02*
X014857Y029680D01*
X011857Y028680D02*
X011857Y027680D01*
X011794Y027680D01*
X009357Y025180D02*
X006107Y025180D01*
X004107Y023930D02*
X002857Y023930D01*
X002857Y023971D01*
X002857Y020680D01*
X002708Y020444D01*
X002607Y020430D01*
X001857Y020430D01*
X001857Y018180D01*
X002023Y018180D01*
X004857Y023180D02*
X004964Y023180D01*
X004857Y023180D02*
X004107Y023930D01*
X024857Y030680D02*
X024857Y031680D01*
X025857Y031680D02*
X025857Y030680D01*
X005357Y002960D02*
X005357Y002400D01*
X004357Y002400D02*
X004357Y002960D01*
D22*
X013357Y029680D03*
X022357Y029680D03*
X031357Y029680D03*
D23*
X032735Y029680D03*
X034113Y029680D03*
X035491Y029680D03*
X026491Y029680D03*
X025113Y029680D03*
X023735Y029680D03*
X017491Y029680D03*
X016113Y029680D03*
X014735Y029680D03*
D24*
X002857Y025349D03*
X002857Y023971D03*
D25*
X002467Y029400D03*
X004247Y029400D03*
X004247Y031960D03*
X002467Y031960D03*
D26*
X007243Y022637D03*
X008243Y022637D03*
X008243Y021637D03*
X007243Y021637D03*
X007243Y020637D03*
X008243Y020637D03*
X008243Y019637D03*
X007243Y019637D03*
X007243Y018637D03*
X008243Y018637D03*
X008243Y017637D03*
X007243Y017637D03*
X007243Y016637D03*
X008243Y016637D03*
X008243Y015637D03*
X007243Y015637D03*
X007243Y014637D03*
X008243Y014637D03*
X008243Y013637D03*
X007243Y013637D03*
X007243Y012637D03*
X008243Y012637D03*
X008243Y011637D03*
X007243Y011637D03*
X007243Y010637D03*
X008243Y010637D03*
X008243Y009637D03*
X007243Y009637D03*
X007243Y008637D03*
X008243Y008637D03*
X008243Y007637D03*
X007243Y007637D03*
X007243Y006637D03*
X008243Y006637D03*
X008243Y005637D03*
X007243Y005637D03*
X007243Y004637D03*
X008243Y004637D03*
X008243Y003637D03*
X007243Y003637D03*
X038357Y028680D03*
X039357Y028680D03*
X039357Y029680D03*
X038357Y029680D03*
X038357Y030680D03*
X039357Y030680D03*
D27*
X031857Y024830D02*
X031857Y024530D01*
X030857Y024530D02*
X030857Y024830D01*
X022857Y024830D02*
X022857Y024530D01*
X021857Y024530D02*
X021857Y024830D01*
X013857Y024830D02*
X013857Y024530D01*
X012857Y024530D02*
X012857Y024830D01*
D28*
X012857Y024880D03*
X012857Y024480D03*
X013857Y024480D03*
X013857Y024880D03*
X014857Y024857D03*
X014857Y024503D03*
X021857Y024480D03*
X021857Y024880D03*
X022857Y024880D03*
X022857Y024480D03*
X023857Y024503D03*
X023857Y024857D03*
X030857Y024880D03*
X030857Y024480D03*
X031857Y024480D03*
X031857Y024880D03*
X032857Y024857D03*
X032857Y024503D03*
D29*
X008607Y026759D03*
X008107Y026759D03*
X007607Y026759D03*
X007107Y026759D03*
X007107Y027601D03*
X007607Y027601D03*
X008107Y027601D03*
X008607Y027601D03*
D30*
X004381Y016930D03*
X004381Y016430D03*
X004381Y015930D03*
X004381Y015430D03*
X002334Y015430D03*
X002334Y015930D03*
X002334Y016430D03*
X002334Y016930D03*
D31*
X003357Y016180D03*
D32*
X005857Y014574D03*
X005857Y013786D03*
D33*
X003251Y013580D03*
X002464Y013580D03*
X004964Y018180D03*
X005751Y018180D03*
X005751Y023180D03*
X004964Y023180D03*
X003251Y002680D03*
X002464Y002680D03*
D34*
X002656Y005180D03*
X005058Y005180D03*
X005109Y020444D03*
X002708Y020444D03*
D35*
X002656Y011231D03*
X005176Y011231D03*
D36*
X024706Y008198D03*
X024706Y007942D03*
X024706Y007686D03*
X024706Y007448D03*
X024706Y007192D03*
X024706Y006936D03*
X024706Y006680D03*
X024706Y006424D03*
X024706Y006168D03*
X024706Y005912D03*
X027009Y005912D03*
X027009Y006168D03*
X027009Y006424D03*
X027009Y006680D03*
X027009Y006936D03*
X027009Y007192D03*
X027009Y007448D03*
X027009Y007686D03*
X027009Y007942D03*
X027009Y008198D03*
X029206Y010662D03*
X029206Y010918D03*
X029206Y011174D03*
X029206Y011412D03*
X029206Y011668D03*
X029206Y011924D03*
X029206Y012180D03*
X029206Y012436D03*
X029206Y012692D03*
X029206Y012948D03*
X031509Y012948D03*
X031509Y012692D03*
X031509Y012436D03*
X031509Y012180D03*
X031509Y011924D03*
X031509Y011668D03*
X031509Y011412D03*
X031509Y011174D03*
X031509Y010918D03*
X031509Y010662D03*
X027009Y015912D03*
X027009Y016168D03*
X027009Y016424D03*
X027009Y016680D03*
X027009Y016936D03*
X027009Y017192D03*
X027009Y017448D03*
X027009Y017686D03*
X027009Y017942D03*
X027009Y018198D03*
X024706Y018198D03*
X024706Y017942D03*
X024706Y017686D03*
X024706Y017448D03*
X024706Y017192D03*
X024706Y016936D03*
X024706Y016680D03*
X024706Y016424D03*
X024706Y016168D03*
X024706Y015912D03*
D37*
X005857Y017180D03*
X004157Y018180D03*
X003557Y016980D03*
X003057Y016980D03*
X003057Y016480D03*
X003057Y015980D03*
X003057Y015480D03*
X003557Y015480D03*
X003557Y015980D03*
X003557Y016480D03*
X003557Y014980D03*
X003057Y014980D03*
X003057Y014480D03*
X003557Y014480D03*
X005057Y013180D03*
D38*
X008857Y010180D03*
X009357Y011680D03*
X012857Y008680D03*
X016357Y009180D03*
X020857Y009180D03*
X023357Y011680D03*
X022857Y013680D03*
X025057Y013680D03*
X027357Y012180D03*
X027957Y010380D03*
X026357Y009180D03*
X029857Y009280D03*
X029857Y011080D03*
X032957Y009280D03*
X027157Y019080D03*
X024457Y025080D03*
X026857Y027680D03*
X027857Y027680D03*
X033457Y025180D03*
X034157Y027680D03*
X036857Y020180D03*
X037957Y020180D03*
X016357Y023680D03*
X014957Y027680D03*
X005957Y028680D03*
X006157Y032580D03*
X003857Y007380D03*
X005557Y006780D03*
X002157Y006380D03*
X002157Y003980D03*
D39*
X003357Y016180D02*
X003357Y016930D01*
X003107Y016930D01*
X003057Y016980D01*
D40*
X017557Y032580D03*
D41*
X005751Y018180D02*
X005457Y017886D01*
X005457Y017580D01*
X005307Y017430D01*
X005107Y017430D01*
X004607Y016930D01*
X004357Y017430D02*
X003607Y017430D01*
X002857Y018180D01*
X002023Y018180D02*
X001657Y017815D01*
X001657Y016580D01*
X001807Y016430D01*
X002334Y016430D01*
X002334Y015930D02*
X001707Y015930D01*
X001657Y015880D01*
X001657Y013080D01*
X002057Y012680D01*
X003107Y012680D01*
X003107Y013430D01*
X002357Y013680D02*
X002357Y014930D01*
X003857Y014680D02*
X003857Y010680D01*
X003107Y011680D02*
X003107Y012680D01*
X005107Y014030D02*
X005357Y013780D01*
X005851Y013780D01*
X005857Y013786D01*
X005857Y014574D02*
X005857Y015845D01*
X005107Y015930D02*
X004381Y015930D01*
X004381Y016430D02*
X004857Y016430D01*
X005107Y016680D01*
X005107Y015930D02*
X005107Y014030D01*
X004357Y015430D02*
X004357Y009180D01*
X004857Y008345D02*
X004857Y005180D01*
X003857Y004180D01*
X003857Y002680D01*
X003251Y002680D01*
X003857Y002680D02*
X004357Y002680D01*
X005357Y002680D02*
X011857Y002680D01*
X012357Y003180D01*
X016357Y003180D01*
X016357Y002680D01*
X016357Y003180D02*
X021857Y003180D01*
X002357Y016930D02*
X002357Y017430D01*
D42*
X029206Y010918D02*
X029206Y010662D01*
D43*
X028907Y010230D03*
X028357Y010930D03*
X029857Y011930D03*
X029857Y012430D03*
X028607Y012180D03*
X028357Y012680D03*
X029357Y014430D03*
X031107Y015430D03*
X030357Y016180D03*
X029607Y017430D03*
X028607Y018180D03*
X025107Y017680D03*
X025107Y014430D03*
X030707Y011430D03*
X032107Y011680D03*
X033857Y011180D03*
X031107Y013130D03*
X034057Y016080D03*
X034107Y016680D03*
X032857Y017680D03*
X031857Y019680D03*
X026857Y021430D03*
X021357Y026430D03*
X019357Y028930D03*
X016107Y027180D03*
X011857Y026430D03*
X009357Y025180D03*
X006107Y025180D03*
X009357Y028430D03*
X009357Y031680D03*
X004357Y017430D03*
X005107Y016680D03*
X002357Y017430D03*
X002357Y014930D03*
X008857Y016930D03*
X009357Y015180D03*
X010357Y015430D03*
X010857Y015930D03*
X017857Y009430D03*
X016857Y006430D03*
X017607Y006180D03*
X015357Y004680D03*
X009357Y007930D03*
X021607Y006180D03*
X022607Y005680D03*
X025107Y007180D03*
X036857Y017380D03*
X038107Y022680D03*
X038107Y023180D03*
X038107Y023680D03*
X037357Y027180D03*
X027857Y031680D03*
M02*
