%
M48
M72
T01C0.0120
T02C0.0197
T03C0.0236
T04C0.0354
T05C0.0360
T06C0.0394
T07C0.0400
T08C0.0472
T09C0.1181
%
T01
X9357Y7930
X15357Y4680
X16857Y6430
X17607Y6180
X17857Y9430
X21607Y6180
X22607Y5680
X25107Y7180
X28907Y10230
X28357Y10930
X29857Y11930
X29857Y12430
X28607Y12180
X28357Y12680
X29357Y14430
X31107Y15430
X30357Y16180
X29607Y17430
X28607Y18180
X25107Y17680
X25107Y14430
X30707Y11430
X32107Y11680
X33857Y11180
X31107Y13130
X34057Y16080
X34107Y16680
X32857Y17680
X31857Y19680
X26857Y21430
X21357Y26430
X19357Y28930
X16107Y27180
X11857Y26430
X9357Y25180
X6107Y25180
X9357Y28430
X9357Y31680
X4357Y17430
X5107Y16680
X2357Y17430
X2357Y14930
X8857Y16930
X9357Y15180
X10357Y15430
X10857Y15930
X27857Y31680
X37357Y27180
X38107Y23680
X38107Y23180
X38107Y22680
X36857Y17380
T02
X5857Y17180
X4157Y18180
X3557Y16980
X3057Y16980
X3057Y16480
X3057Y15980
X3057Y15480
X3557Y15480
X3557Y15980
X3557Y16480
X3557Y14980
X3057Y14980
X3057Y14480
X3557Y14480
X5057Y13180
T03
X8857Y10180
X9357Y11680
X12857Y8680
X16357Y9180
X20857Y9180
X23357Y11680
X22857Y13680
X25057Y13680
X27357Y12180
X27957Y10380
X26357Y9180
X29857Y9280
X29857Y11080
X32957Y9280
X27157Y19080
X24457Y25080
X26857Y27680
X27857Y27680
X33457Y25180
X34157Y27680
X36857Y20180
X37957Y20180
X17557Y32580
X14957Y27680
X16357Y23680
X5957Y28680
X6157Y32580
X3857Y7380
X5557Y6780
X2157Y6380
X2157Y3980
T04
X11857Y25680
X12857Y25680
X13857Y25680
X14857Y25680
X15857Y25680
X16857Y25680
X17857Y25680
X18857Y25680
X20857Y25680
X21857Y25680
X22857Y25680
X23857Y25680
X24857Y25680
X25857Y25680
X26857Y25680
X27857Y25680
X29857Y25680
X30857Y25680
X31857Y25680
X32857Y25680
X33857Y25680
X34857Y25680
X35857Y25680
X36857Y25680
X36857Y30680
X35857Y30680
X34857Y30680
X33857Y30680
X32857Y30680
X31857Y30680
X30857Y30680
X29857Y30680
X27857Y30680
X26857Y30680
X25857Y30680
X24857Y30680
X23857Y30680
X22857Y30680
X21857Y30680
X20857Y30680
X18857Y30680
X17857Y30680
X16857Y30680
X15857Y30680
X14857Y30680
X13857Y30680
X12857Y30680
X11857Y30680
T05
X4357Y2680
X5357Y2680
X5357Y30180
X5357Y31180
T06
X2857Y25349
X2857Y23971
X10757Y21680
X11757Y21680
X12757Y21680
X13757Y21680
X14757Y21680
X15757Y21680
X16757Y21680
X17757Y21680
X19357Y21680
X20357Y21680
X21357Y21680
X22357Y21680
X23357Y21680
X24357Y21680
X25357Y21680
X26357Y21680
X28357Y21680
X29357Y21680
X30357Y21680
X31357Y21680
X32357Y21680
X33357Y21680
X34357Y21680
X35357Y21680
X38357Y21680
X39357Y21680
X39357Y20680
X38357Y20680
X38357Y19680
X39357Y19680
X39357Y18680
X38357Y18680
X38357Y17680
X39357Y17680
X39357Y16680
X38357Y16680
X38357Y15680
X39357Y15680
X39357Y14680
X38357Y14680
X38357Y13680
X39357Y13680
X39357Y12680
X38357Y12680
X38357Y11680
X38357Y10680
X39357Y10680
X39357Y11680
X39357Y9680
X38357Y9680
X38357Y8680
X39357Y8680
X39357Y7680
X38357Y7680
X38357Y6680
X39357Y6680
X39357Y5680
X38357Y5680
X38357Y4680
X39357Y4680
X37357Y2680
X36357Y2680
X35357Y2680
X34357Y2680
X33357Y2680
X32357Y2680
X31357Y2680
X30357Y2680
X28357Y2680
X27357Y2680
X26357Y2680
X25357Y2680
X24357Y2680
X23357Y2680
X22357Y2680
X21357Y2680
X19357Y2680
X18357Y2680
X17357Y2680
X16357Y2680
X15357Y2680
X14357Y2680
T07
X8243Y3637
X7243Y3637
X7243Y4637
X8243Y4637
X8243Y5637
X7243Y5637
X7243Y6637
X8243Y6637
X8243Y7637
X7243Y7637
X7243Y8637
X8243Y8637
X8243Y9637
X8243Y10637
X7243Y10637
X7243Y9637
X7243Y11637
X8243Y11637
X8243Y12637
X7243Y12637
X7243Y13637
X8243Y13637
X8243Y14637
X7243Y14637
X7243Y15637
X8243Y15637
X8243Y16637
X7243Y16637
X7243Y17637
X8243Y17637
X8243Y18637
X7243Y18637
X7243Y19637
X8243Y19637
X8243Y20637
X8243Y21637
X7243Y21637
X7243Y20637
X7243Y22637
X8243Y22637
X4247Y29400
X2467Y29400
X2467Y31960
X4247Y31960
X8857Y31680
X9857Y31680
X9857Y30680
X8857Y30680
X10857Y30680
X10857Y31680
X13857Y31680
X14857Y31680
X15857Y31680
X16857Y31680
X22857Y31680
X23857Y31680
X24857Y31680
X25857Y31680
X31857Y31680
X32857Y31680
X33857Y31680
X34857Y31680
X38357Y30680
X39357Y30680
X39357Y29680
X38357Y29680
X38357Y28680
X39357Y28680
T08
X35491Y29680
X34113Y29680
X32735Y29680
X31357Y29680
X26491Y29680
X25113Y29680
X23735Y29680
X22357Y29680
X17491Y29680
X16113Y29680
X14735Y29680
X13357Y29680
T09
X5515Y27219
X4334Y25369
X3192Y27219
M30
