%
M48
M72
T01C0.0120
T02C0.0160
T03C0.0197
T04C0.0236
T05C0.0354
T06C0.0360
T07C0.0394
T08C0.0400
T09C0.0472
T10C0.1180
T11C0.1260
%
T01
X4150Y1180
X6150Y3180
X2650Y3680
X2650Y6680
X4150Y7180
X5150Y6680
X4150Y9180
X3950Y10880
X3950Y11380
X3950Y11880
X3950Y12380
X3950Y12880
X3950Y13380
X4450Y13380
X4450Y12880
X4450Y13880
X4450Y14380
X3950Y14380
X3950Y13880
X3950Y14880
X4450Y14880
X4450Y15380
X4450Y15880
X3950Y15880
X3950Y15380
X3450Y15880
X2950Y15880
X2950Y16380
X3450Y16380
X3950Y16380
X4450Y16380
X4650Y16930
X5400Y16180
X7100Y18630
X5650Y18680
X4650Y18680
X3650Y18680
X9450Y18480
X9600Y17630
X13150Y16430
X15150Y15430
X17200Y15980
X19150Y15430
X21250Y16730
X22150Y15430
X24050Y15280
X25550Y15280
X28900Y16430
X28250Y19080
X27250Y19080
X27150Y19930
X28250Y21580
X31150Y22580
X32150Y22580
X33150Y22580
X37150Y25180
X39800Y22580
X38400Y22180
X38400Y21680
X38400Y21180
X33650Y14680
X26400Y10680
X25150Y11180
X25650Y8930
X21650Y8930
X19150Y8930
X18400Y7580
X17150Y8180
X17150Y8930
X14650Y8930
X13900Y7430
X13400Y6930
X11650Y5930
X10650Y7430
X10150Y7430
X12900Y8930
X10650Y10680
X9700Y10630
X11650Y11930
X13650Y11930
X17650Y11930
X17650Y11930
X19950Y13580
X21850Y18680
X24150Y18830
X24150Y22480
X23150Y22480
X22150Y22480
X21550Y22880
X19900Y24180
X18750Y23380
X18650Y25380
X19150Y25680
X16400Y25680
X13150Y25380
X12650Y25380
X11650Y24180
X9650Y23680
X7400Y23680
X7050Y24680
X9650Y26930
X7950Y28180
X6250Y27180
X9650Y29880
X13150Y22480
X14150Y22480
X15150Y22480
X13650Y20980
X11650Y21180
X13150Y19180
X17050Y20980
X19950Y30680
X20400Y30980
X18650Y31180
X27300Y30680
X36150Y31180
X34400Y4680
X31150Y5180
X30900Y6180
X29900Y5930
X24650Y4930
X17150Y5180
X16150Y5680
X15650Y4680
T02
X10650Y3180
X11150Y1580
X16350Y2980
X6250Y12180
X3150Y12180
X3150Y14980
X6250Y14780
X28850Y12180
X32100Y7530
X33650Y5180
T03
X24750Y21680
T04
X19950Y7880
X23900Y5680
X25900Y5680
X28450Y5930
X28650Y3680
X33650Y3680
X40500Y2130
X33650Y10180
X28850Y9180
X20650Y21680
X17150Y21680
X22650Y25180
X19650Y26180
X17150Y26180
X15250Y26180
X11150Y27430
X6450Y31080
X2300Y27180
X4650Y21180
X4650Y17680
X6150Y16680
X10900Y21730
X27150Y26180
X28150Y26180
X33750Y23530
X34450Y26180
T05
X12150Y24180
X13150Y24180
X14150Y24180
X15150Y24180
X16150Y24180
X17150Y24180
X18150Y24180
X19150Y24180
X21150Y24180
X22150Y24180
X23150Y24180
X24150Y24180
X25150Y24180
X26150Y24180
X27150Y24180
X28150Y24180
X30150Y24180
X31150Y24180
X32150Y24180
X33150Y24180
X34150Y24180
X35150Y24180
X36150Y24180
X37150Y24180
X37150Y29180
X36150Y29180
X35150Y29180
X34150Y29180
X33150Y29180
X32150Y29180
X31150Y29180
X30150Y29180
X28150Y29180
X27150Y29180
X26150Y29180
X25150Y29180
X24150Y29180
X23150Y29180
X22150Y29180
X21150Y29180
X19150Y29180
X18150Y29180
X17150Y29180
X16150Y29180
X15150Y29180
X14150Y29180
X13150Y29180
X12150Y29180
T06
X4850Y2130
X5850Y2130
T07
X14650Y1180
X15650Y1180
X16650Y1180
X17650Y1180
X18650Y1180
X19650Y1180
X21650Y1180
X22650Y1180
X23650Y1180
X24650Y1180
X25650Y1180
X26650Y1180
X27650Y1180
X28650Y1180
X30650Y1180
X31650Y1180
X32650Y1180
X33650Y1180
X34650Y1180
X35650Y1180
X36650Y1180
X37650Y1180
X38650Y3180
X39650Y3180
X39650Y4180
X38650Y4180
X38650Y5180
X39650Y5180
X39650Y6180
X38650Y6180
X38650Y7180
X39650Y7180
X39650Y8180
X38650Y8180
X38650Y9180
X39650Y9180
X39650Y10180
X38650Y10180
X38650Y11180
X39650Y11180
X39650Y12180
X38650Y12180
X38650Y13180
X39650Y13180
X39650Y14180
X38650Y14180
X38650Y15180
X39650Y15180
X39650Y16180
X38650Y16180
X38650Y17180
X39650Y17180
X39650Y18180
X38650Y18180
X38650Y19180
X39650Y19180
X39650Y20180
X38650Y20180
X35650Y20180
X34650Y20180
X33650Y20180
X32650Y20180
X31650Y20180
X30650Y20180
X29650Y20180
X28650Y20180
X26650Y20180
X25650Y20180
X24650Y20180
X23650Y20180
X22650Y20180
X21650Y20180
X20650Y20180
X19650Y20180
X18050Y20180
X17050Y20180
X16050Y20180
X15050Y20180
X14050Y20180
X13050Y20180
X12050Y20180
X11050Y20180
X3150Y22471
X3150Y23849
T08
X7536Y2137
X8536Y2137
X8536Y3137
X7536Y3137
X7536Y4137
X8536Y4137
X8536Y5137
X7536Y5137
X7536Y6137
X8536Y6137
X8536Y7137
X7536Y7137
X7536Y8137
X8536Y8137
X8536Y9137
X7536Y9137
X7536Y10137
X8536Y10137
X8536Y11137
X7536Y11137
X7536Y12137
X8536Y12137
X8536Y13137
X7536Y13137
X7536Y14137
X8536Y14137
X8536Y15137
X7536Y15137
X7536Y16137
X8536Y16137
X8536Y17137
X7536Y17137
X7536Y18137
X8536Y18137
X8536Y19137
X7536Y19137
X7536Y20137
X8536Y20137
X8536Y21137
X7536Y21137
X9150Y28180
X9150Y29180
X10150Y29180
X11150Y29180
X11150Y28180
X10150Y28180
X14150Y30180
X15150Y30180
X16150Y30180
X17150Y30180
X23150Y30180
X24150Y30180
X25150Y30180
X26150Y30180
X32150Y30180
X33150Y30180
X34150Y30180
X35150Y30180
X38650Y29180
X39650Y29180
X39650Y28180
X38650Y28180
X38650Y27180
X39650Y27180
X39650Y25680
X38650Y25680
X38650Y24680
X39650Y24680
X39650Y23680
X38650Y23680
X35650Y21180
X34650Y21180
X37650Y14180
X37650Y13180
X37650Y12180
X36650Y12180
X36650Y13180
X36650Y9180
X36650Y8180
X37650Y8180
X37650Y9180
X37650Y7180
X37650Y6180
X36650Y6180
X36650Y7180
X36650Y2180
X35650Y2180
X34650Y2180
X33650Y2180
X32650Y2180
X31650Y2180
X30650Y2180
X28650Y2180
X27650Y2180
X26650Y2180
X25650Y2180
X24650Y2180
X23650Y2180
X22650Y2180
X21650Y2180
X37650Y2180
T09
X13650Y27880
X15028Y27880
X16406Y27880
X17784Y27880
X22650Y27880
X24028Y27880
X25406Y27880
X26784Y27880
X31650Y27880
X33028Y27880
X34406Y27880
X35784Y27880
T10
X4713Y24149
X3081Y25620
T11
X5964Y25630
M30
