G75*
%MOIN*%
%OFA0B0*%
%FSLAX25Y25*%
%IPPOS*%
%LPD*%
%AMOC8*
5,1,8,0,0,1.08239X$1,22.5*
%
%ADD10C,0.01600*%
%ADD11C,0.05906*%
%ADD12R,0.04724X0.04724*%
%ADD13R,0.05118X0.05906*%
%ADD14C,0.07000*%
%ADD15C,0.05315*%
%ADD16C,0.06000*%
%ADD17R,0.05906X0.05118*%
%ADD18R,0.13780X0.06299*%
%ADD19C,0.18898*%
%ADD20R,0.08000X0.08000*%
%ADD21C,0.08000*%
%ADD22C,0.08600*%
%ADD23C,0.07400*%
%ADD24OC8,0.06000*%
%ADD25C,0.00800*%
%ADD26R,0.05000X0.02500*%
%ADD27R,0.02953X0.04331*%
%ADD28R,0.08661X0.02362*%
%ADD29R,0.10000X0.20000*%
%ADD30R,0.06299X0.05118*%
%ADD31R,0.05118X0.06299*%
%ADD32R,0.15748X0.06299*%
%ADD33R,0.06299X0.08661*%
%ADD34C,0.05400*%
%ADD35R,0.03543X0.01378*%
%ADD36R,0.07087X0.06693*%
%ADD37R,0.07874X0.07874*%
%ADD38OC8,0.03562*%
%ADD39C,0.05600*%
%ADD40OC8,0.02400*%
%ADD41OC8,0.02800*%
%ADD42C,0.04000*%
%ADD43C,0.03200*%
%ADD44C,0.02400*%
%ADD45C,0.01200*%
%ADD46R,0.02400X0.02400*%
%ADD47OC8,0.03169*%
%ADD48C,0.06600*%
%ADD49C,0.05000*%
D10*
X0025201Y0025799D02*
X0029199Y0021800D01*
X0036634Y0021800D01*
X0036335Y0022099D01*
X0036117Y0021973D01*
X0035659Y0021850D01*
X0033343Y0021850D01*
X0033343Y0026320D01*
X0032383Y0026320D01*
X0032383Y0021850D01*
X0030067Y0021850D01*
X0029609Y0021973D01*
X0029199Y0022210D01*
X0028864Y0022545D01*
X0028627Y0022956D01*
X0028504Y0023413D01*
X0028504Y0026320D01*
X0032383Y0026320D01*
X0032383Y0027280D01*
X0032383Y0031750D01*
X0030067Y0031750D01*
X0029609Y0031627D01*
X0029199Y0031390D01*
X0028864Y0031055D01*
X0028627Y0030644D01*
X0028504Y0030187D01*
X0028504Y0027280D01*
X0032383Y0027280D01*
X0033343Y0027280D01*
X0033343Y0031750D01*
X0035659Y0031750D01*
X0036117Y0031627D01*
X0036335Y0031501D01*
X0036818Y0031984D01*
X0037701Y0032350D01*
X0042800Y0032350D01*
X0042800Y0042596D01*
X0043409Y0044066D01*
X0044534Y0045191D01*
X0048534Y0049191D01*
X0048534Y0055427D01*
X0048899Y0056309D01*
X0049574Y0056984D01*
X0050456Y0057350D01*
X0055989Y0057350D01*
X0055989Y0080736D01*
X0055480Y0080946D01*
X0054805Y0081622D01*
X0054439Y0082504D01*
X0054439Y0092120D01*
X0054805Y0093002D01*
X0055480Y0093677D01*
X0056362Y0094043D01*
X0063616Y0094043D01*
X0064498Y0093677D01*
X0065173Y0093002D01*
X0065539Y0092120D01*
X0065539Y0091607D01*
X0066004Y0091800D01*
X0067596Y0091800D01*
X0068078Y0091600D01*
X0068374Y0091600D01*
X0068583Y0091391D01*
X0068600Y0091384D01*
X0068600Y0106458D01*
X0067971Y0105828D01*
X0067088Y0105463D01*
X0058260Y0105463D01*
X0057378Y0105828D01*
X0056702Y0106503D01*
X0056337Y0107386D01*
X0056337Y0116214D01*
X0056702Y0117096D01*
X0057378Y0117772D01*
X0058260Y0118137D01*
X0061089Y0118137D01*
X0061017Y0118209D01*
X0060534Y0118409D01*
X0059409Y0119534D01*
X0059209Y0120017D01*
X0059000Y0120226D01*
X0059000Y0120522D01*
X0058800Y0121004D01*
X0058800Y0123494D01*
X0058370Y0123494D01*
X0057488Y0123860D01*
X0056813Y0124535D01*
X0056472Y0125357D01*
X0056430Y0125200D01*
X0056193Y0124789D01*
X0055858Y0124454D01*
X0055448Y0124217D01*
X0054990Y0124094D01*
X0052280Y0124094D01*
X0052280Y0127974D01*
X0051320Y0127974D01*
X0047047Y0127974D01*
X0047047Y0125658D01*
X0047170Y0125200D01*
X0047407Y0124789D01*
X0047742Y0124454D01*
X0048152Y0124217D01*
X0048610Y0124094D01*
X0051320Y0124094D01*
X0051320Y0127974D01*
X0051320Y0128933D01*
X0047047Y0128933D01*
X0047047Y0130993D01*
X0046813Y0131228D01*
X0046447Y0132110D01*
X0046447Y0138183D01*
X0046813Y0139065D01*
X0047488Y0139740D01*
X0048115Y0140000D01*
X0047600Y0140000D01*
X0047600Y0151000D01*
X0047600Y0152600D01*
X0050323Y0152600D01*
X0050654Y0151800D01*
X0050323Y0151000D01*
X0047600Y0151000D01*
X0046000Y0151000D01*
X0046000Y0140000D01*
X0041563Y0140000D01*
X0041105Y0140123D01*
X0040695Y0140360D01*
X0040360Y0140695D01*
X0040123Y0141105D01*
X0040065Y0141319D01*
X0036564Y0141319D01*
X0036564Y0144300D01*
X0036564Y0144300D01*
X0042300Y0144300D01*
X0044800Y0141800D01*
X0046800Y0143800D01*
X0049800Y0143800D01*
X0047600Y0143082D02*
X0046000Y0143082D01*
X0046000Y0141484D02*
X0047600Y0141484D01*
X0047838Y0139885D02*
X0030800Y0139885D01*
X0030800Y0138287D02*
X0046490Y0138287D01*
X0046447Y0136688D02*
X0030800Y0136688D01*
X0030800Y0135090D02*
X0046447Y0135090D01*
X0046447Y0133491D02*
X0030800Y0133491D01*
X0030800Y0131893D02*
X0046537Y0131893D01*
X0047047Y0130294D02*
X0030800Y0130294D01*
X0030800Y0128696D02*
X0051320Y0128696D01*
X0051454Y0128800D02*
X0051800Y0128454D01*
X0051454Y0128800D02*
X0044800Y0128800D01*
X0044800Y0133800D01*
X0044800Y0138800D01*
X0044800Y0141800D01*
X0044800Y0148800D01*
X0044800Y0149800D01*
X0046800Y0151800D01*
X0049800Y0148800D01*
X0044800Y0153800D01*
X0049800Y0158800D01*
X0044800Y0158800D01*
X0044800Y0163800D01*
X0044800Y0168800D01*
X0044800Y0173800D01*
X0044800Y0178800D01*
X0049800Y0178800D01*
X0049800Y0173800D01*
X0050200Y0173454D02*
X0030800Y0173454D01*
X0030800Y0171856D02*
X0050200Y0171856D01*
X0050200Y0170257D02*
X0030800Y0170257D01*
X0030800Y0168659D02*
X0050200Y0168659D01*
X0049800Y0168800D02*
X0049800Y0163800D01*
X0050748Y0164761D02*
X0051909Y0163600D01*
X0047600Y0163600D01*
X0047600Y0152600D01*
X0046000Y0152600D01*
X0046000Y0163600D01*
X0041563Y0163600D01*
X0041105Y0163477D01*
X0040695Y0163240D01*
X0040360Y0162905D01*
X0040346Y0162881D01*
X0040255Y0162881D01*
X0040600Y0163226D01*
X0040600Y0166374D01*
X0038374Y0168600D01*
X0035226Y0168600D01*
X0033000Y0166374D01*
X0033000Y0165367D01*
X0032964Y0165280D01*
X0032964Y0162881D01*
X0031756Y0162881D01*
X0030874Y0162516D01*
X0030800Y0162442D01*
X0030800Y0186447D01*
X0031490Y0186447D01*
X0031800Y0186576D01*
X0032110Y0186447D01*
X0037062Y0186447D01*
X0041248Y0182261D01*
X0042261Y0181248D01*
X0043584Y0180700D01*
X0051609Y0180700D01*
X0050748Y0179839D01*
X0050200Y0178516D01*
X0050200Y0166084D01*
X0050748Y0164761D01*
X0050458Y0165462D02*
X0040600Y0165462D01*
X0040600Y0163863D02*
X0051646Y0163863D01*
X0050200Y0167060D02*
X0039914Y0167060D01*
X0044800Y0168800D02*
X0049800Y0168800D01*
X0044800Y0173800D02*
X0039800Y0173800D01*
X0034800Y0173800D01*
X0034800Y0178800D01*
X0039800Y0178800D01*
X0042062Y0181447D02*
X0030800Y0181447D01*
X0030800Y0183045D02*
X0040464Y0183045D01*
X0038865Y0184644D02*
X0030800Y0184644D01*
X0030800Y0186242D02*
X0037267Y0186242D01*
X0036800Y0191800D02*
X0035146Y0191800D01*
X0040105Y0193586D02*
X0040105Y0195230D01*
X0039740Y0196112D01*
X0039065Y0196787D01*
X0038183Y0197153D01*
X0032110Y0197153D01*
X0032000Y0197107D01*
X0032000Y0199100D01*
X0034043Y0199100D01*
X0034817Y0199023D01*
X0035070Y0199100D01*
X0035334Y0199100D01*
X0036053Y0199398D01*
X0036797Y0199623D01*
X0037001Y0199790D01*
X0037246Y0199892D01*
X0037795Y0200441D01*
X0038397Y0200934D01*
X0038521Y0201167D01*
X0038708Y0201354D01*
X0038977Y0202004D01*
X0039256Y0202189D01*
X0039746Y0202392D01*
X0040109Y0202755D01*
X0040538Y0203040D01*
X0040834Y0203480D01*
X0041208Y0203854D01*
X0041405Y0204330D01*
X0041692Y0204757D01*
X0041797Y0205276D01*
X0042000Y0205766D01*
X0042000Y0206280D01*
X0042102Y0206784D01*
X0042000Y0207304D01*
X0042000Y0208888D01*
X0043655Y0208888D01*
X0044537Y0209254D01*
X0045213Y0209929D01*
X0045578Y0210811D01*
X0045578Y0216800D01*
X0049646Y0216800D01*
X0049646Y0215213D01*
X0058545Y0215213D01*
X0058545Y0213663D01*
X0060094Y0213663D01*
X0060094Y0209488D01*
X0067431Y0209488D01*
X0067888Y0209611D01*
X0068299Y0209848D01*
X0068634Y0210183D01*
X0068871Y0210593D01*
X0068994Y0211051D01*
X0068994Y0213663D01*
X0060095Y0213663D01*
X0060095Y0215213D01*
X0068994Y0215213D01*
X0068994Y0216800D01*
X0074143Y0216800D01*
X0075258Y0215685D01*
X0075258Y0214130D01*
X0078022Y0211367D01*
X0075258Y0208604D01*
X0075258Y0204900D01*
X0074809Y0204900D01*
X0072700Y0202791D01*
X0072700Y0199809D01*
X0074809Y0197700D01*
X0075258Y0197700D01*
X0075258Y0194130D01*
X0078022Y0191367D01*
X0075258Y0188604D01*
X0075258Y0184130D01*
X0078022Y0181367D01*
X0075258Y0178604D01*
X0075258Y0177500D01*
X0071553Y0177500D01*
X0071553Y0177942D01*
X0071430Y0178400D01*
X0071193Y0178811D01*
X0070858Y0179146D01*
X0070448Y0179383D01*
X0069990Y0179505D01*
X0067280Y0179505D01*
X0067280Y0175626D01*
X0066320Y0175626D01*
X0066320Y0179505D01*
X0063610Y0179505D01*
X0063152Y0179383D01*
X0062742Y0179146D01*
X0062407Y0178811D01*
X0062397Y0178794D01*
X0061339Y0179852D01*
X0061141Y0180050D01*
X0066339Y0185248D01*
X0066339Y0185248D01*
X0067342Y0186250D01*
X0068773Y0186250D01*
X0069656Y0186616D01*
X0070331Y0187291D01*
X0070696Y0188173D01*
X0070696Y0195427D01*
X0070331Y0196309D01*
X0069656Y0196984D01*
X0068773Y0197350D01*
X0062701Y0197350D01*
X0061818Y0196984D01*
X0061335Y0196501D01*
X0061117Y0196627D01*
X0060659Y0196750D01*
X0058343Y0196750D01*
X0058343Y0192280D01*
X0057383Y0192280D01*
X0057383Y0196750D01*
X0055067Y0196750D01*
X0054609Y0196627D01*
X0054199Y0196390D01*
X0053864Y0196055D01*
X0053627Y0195644D01*
X0053504Y0195187D01*
X0053504Y0192280D01*
X0057383Y0192280D01*
X0057383Y0191320D01*
X0053504Y0191320D01*
X0053504Y0188413D01*
X0053627Y0187956D01*
X0053864Y0187545D01*
X0054199Y0187210D01*
X0054609Y0186973D01*
X0055067Y0186850D01*
X0057383Y0186850D01*
X0057383Y0191320D01*
X0058343Y0191320D01*
X0058343Y0187434D01*
X0055400Y0184491D01*
X0055400Y0185791D01*
X0054852Y0186339D01*
X0054852Y0186339D01*
X0053839Y0187352D01*
X0053291Y0187900D01*
X0045791Y0187900D01*
X0040105Y0193586D01*
X0040105Y0194235D02*
X0053504Y0194235D01*
X0053504Y0192636D02*
X0041055Y0192636D01*
X0042653Y0191038D02*
X0053504Y0191038D01*
X0053504Y0189439D02*
X0044252Y0189439D01*
X0039856Y0195833D02*
X0053736Y0195833D01*
X0057383Y0195833D02*
X0058343Y0195833D01*
X0058343Y0194235D02*
X0057383Y0194235D01*
X0057383Y0192636D02*
X0058343Y0192636D01*
X0058343Y0191038D02*
X0057383Y0191038D01*
X0057383Y0189439D02*
X0058343Y0189439D01*
X0058343Y0187841D02*
X0057383Y0187841D01*
X0057151Y0186242D02*
X0054949Y0186242D01*
X0053839Y0187352D02*
X0053839Y0187352D01*
X0053693Y0187841D02*
X0053350Y0187841D01*
X0055400Y0184644D02*
X0055553Y0184644D01*
X0061339Y0179852D02*
X0061339Y0179852D01*
X0061343Y0179848D02*
X0076503Y0179848D01*
X0075258Y0178250D02*
X0071470Y0178250D01*
X0071800Y0174300D02*
X0079300Y0174300D01*
X0080658Y0176367D01*
X0086800Y0173437D02*
X0088670Y0171567D01*
X0090458Y0171567D01*
X0090458Y0176167D01*
X0090858Y0176167D01*
X0090858Y0171567D01*
X0092646Y0171567D01*
X0095458Y0174379D01*
X0095458Y0176167D01*
X0090858Y0176167D01*
X0090858Y0176567D01*
X0095458Y0176567D01*
X0095458Y0177657D01*
X0095800Y0177799D01*
X0095800Y0168957D01*
X0095328Y0168485D01*
X0092646Y0171167D01*
X0090858Y0171167D01*
X0090858Y0166567D01*
X0090458Y0166567D01*
X0090458Y0171167D01*
X0088670Y0171167D01*
X0086800Y0169297D01*
X0086800Y0173437D01*
X0089000Y0171567D02*
X0089000Y0171167D01*
X0087903Y0170400D02*
X0086800Y0170400D01*
X0090458Y0170400D02*
X0090858Y0170400D01*
X0092200Y0171167D02*
X0092200Y0171567D01*
X0093413Y0170400D02*
X0095800Y0170400D01*
X0095400Y0168557D02*
X0095400Y0174320D01*
X0095800Y0173600D02*
X0094680Y0173600D01*
X0095400Y0176167D02*
X0095400Y0176567D01*
X0095458Y0176800D02*
X0095800Y0176800D01*
X0092200Y0176567D02*
X0092200Y0176167D01*
X0090858Y0173600D02*
X0090458Y0173600D01*
X0090458Y0167200D02*
X0090858Y0167200D01*
X0093800Y0161300D02*
X0086300Y0161300D01*
X0081800Y0156800D01*
X0080658Y0156367D01*
X0085591Y0151300D02*
X0080658Y0146367D01*
X0085591Y0141300D02*
X0080658Y0136367D01*
X0085591Y0141300D02*
X0095800Y0141300D01*
X0108800Y0154300D01*
X0108800Y0178800D01*
X0121918Y0191918D01*
X0205284Y0191918D01*
X0205284Y0189359D02*
X0204300Y0189300D01*
X0123800Y0189300D01*
X0111800Y0177300D01*
X0111800Y0152800D01*
X0095800Y0136800D01*
X0091091Y0136800D01*
X0090658Y0136367D01*
X0086300Y0131300D02*
X0095300Y0131300D01*
X0114800Y0150800D01*
X0114800Y0175800D01*
X0125800Y0186800D01*
X0205284Y0186800D01*
X0205284Y0184241D02*
X0127741Y0184241D01*
X0117800Y0174300D01*
X0117800Y0149300D01*
X0094867Y0126367D01*
X0090658Y0126367D01*
X0086300Y0131300D02*
X0081800Y0126800D01*
X0080658Y0126367D01*
X0078800Y0121300D02*
X0095300Y0121300D01*
X0102800Y0113800D01*
X0283800Y0113800D01*
X0286800Y0116800D01*
X0310284Y0116800D01*
X0309843Y0114300D02*
X0310284Y0114241D01*
X0309843Y0114300D02*
X0289300Y0114300D01*
X0284800Y0109800D01*
X0099800Y0109800D01*
X0098300Y0111300D01*
X0084800Y0111300D01*
X0081800Y0114300D01*
X0080658Y0116367D01*
X0078800Y0121300D02*
X0074300Y0116800D01*
X0074300Y0111800D01*
X0079300Y0106800D01*
X0080658Y0106367D01*
X0090658Y0106367D02*
X0092800Y0104300D01*
X0134300Y0104300D01*
X0137023Y0100800D02*
X0138700Y0102477D01*
X0138700Y0105800D01*
X0285596Y0105800D01*
X0287066Y0106409D01*
X0290957Y0110300D01*
X0305313Y0110300D01*
X0305313Y0107797D01*
X0305800Y0106621D01*
X0306284Y0106137D01*
X0306284Y0102520D01*
X0306291Y0102504D01*
X0305534Y0102191D01*
X0304409Y0101066D01*
X0301143Y0097800D01*
X0207844Y0097800D01*
X0206863Y0098781D01*
X0202737Y0098781D01*
X0199819Y0095863D01*
X0199819Y0093300D01*
X0193023Y0093300D01*
X0191123Y0095200D01*
X0187477Y0095200D01*
X0184900Y0092623D01*
X0184900Y0090800D01*
X0153457Y0090800D01*
X0151457Y0092800D01*
X0174577Y0092800D01*
X0174977Y0092400D01*
X0178623Y0092400D01*
X0181200Y0094977D01*
X0181200Y0098623D01*
X0178623Y0101200D01*
X0174977Y0101200D01*
X0174577Y0100800D01*
X0137023Y0100800D01*
X0138700Y0103200D02*
X0306284Y0103200D01*
X0306021Y0106400D02*
X0287044Y0106400D01*
X0287400Y0106743D02*
X0287400Y0097800D01*
X0284200Y0097800D02*
X0284200Y0105800D01*
X0281000Y0105800D02*
X0281000Y0097800D01*
X0277800Y0097800D02*
X0277800Y0105800D01*
X0274600Y0105800D02*
X0274600Y0097800D01*
X0271400Y0097800D02*
X0271400Y0105800D01*
X0268200Y0105800D02*
X0268200Y0097800D01*
X0265000Y0097800D02*
X0265000Y0105800D01*
X0261800Y0105800D02*
X0261800Y0097800D01*
X0258600Y0097800D02*
X0258600Y0105800D01*
X0255400Y0105800D02*
X0255400Y0097800D01*
X0252200Y0097800D02*
X0252200Y0105800D01*
X0249000Y0105800D02*
X0249000Y0097800D01*
X0245800Y0097800D02*
X0245800Y0105800D01*
X0242600Y0105800D02*
X0242600Y0097800D01*
X0239400Y0097800D02*
X0239400Y0105800D01*
X0236200Y0105800D02*
X0236200Y0097800D01*
X0233000Y0097800D02*
X0233000Y0105800D01*
X0229800Y0105800D02*
X0229800Y0097800D01*
X0226600Y0097800D02*
X0226600Y0105800D01*
X0223400Y0105800D02*
X0223400Y0097800D01*
X0220200Y0097800D02*
X0220200Y0105800D01*
X0217000Y0105800D02*
X0217000Y0097800D01*
X0213800Y0097800D02*
X0213800Y0105800D01*
X0210600Y0105800D02*
X0210600Y0097800D01*
X0207400Y0098244D02*
X0207400Y0105800D01*
X0204200Y0105800D02*
X0204200Y0098781D01*
X0201000Y0097044D02*
X0201000Y0105800D01*
X0197800Y0105800D02*
X0197800Y0093300D01*
X0199819Y0093600D02*
X0192723Y0093600D01*
X0191400Y0094923D02*
X0191400Y0105800D01*
X0194600Y0105800D02*
X0194600Y0093300D01*
X0190800Y0089300D02*
X0189300Y0090800D01*
X0190800Y0089300D02*
X0309300Y0089300D01*
X0310284Y0089418D01*
X0310284Y0086859D02*
X0309300Y0086800D01*
X0151800Y0086800D01*
X0144300Y0094300D01*
X0111800Y0094300D01*
X0111800Y0089300D02*
X0139300Y0089300D01*
X0146800Y0081800D01*
X0309300Y0081800D01*
X0310284Y0081918D01*
X0310284Y0079359D02*
X0309300Y0079300D01*
X0106800Y0079300D01*
X0103800Y0076300D01*
X0093800Y0076300D01*
X0090658Y0076367D01*
X0091800Y0066800D02*
X0090658Y0066367D01*
X0091800Y0066800D02*
X0114300Y0066800D01*
X0121800Y0074300D01*
X0126800Y0061800D02*
X0128454Y0061800D01*
X0126800Y0061800D02*
X0123300Y0058300D01*
X0100800Y0058300D01*
X0093800Y0051300D01*
X0086300Y0051300D01*
X0081800Y0046800D01*
X0080658Y0046367D01*
X0076800Y0041300D02*
X0071800Y0046300D01*
X0071800Y0174300D01*
X0067280Y0176651D02*
X0066320Y0176651D01*
X0066320Y0178250D02*
X0067280Y0178250D01*
X0062538Y0181447D02*
X0077942Y0181447D01*
X0076343Y0183045D02*
X0064136Y0183045D01*
X0065735Y0184644D02*
X0075258Y0184644D01*
X0075258Y0186242D02*
X0067333Y0186242D01*
X0070558Y0187841D02*
X0075258Y0187841D01*
X0076094Y0189439D02*
X0070696Y0189439D01*
X0070696Y0191038D02*
X0077692Y0191038D01*
X0076752Y0192636D02*
X0070696Y0192636D01*
X0070696Y0194235D02*
X0075258Y0194235D01*
X0075258Y0195833D02*
X0070528Y0195833D01*
X0073479Y0199030D02*
X0034840Y0199030D01*
X0034747Y0199030D02*
X0032000Y0199030D01*
X0032000Y0197432D02*
X0075258Y0197432D01*
X0076300Y0201300D02*
X0093800Y0201300D01*
X0096800Y0204300D01*
X0102300Y0204300D01*
X0104800Y0201800D01*
X0204300Y0201800D01*
X0205284Y0201977D01*
X0205284Y0199418D02*
X0204300Y0199300D01*
X0115800Y0199300D01*
X0099800Y0183300D01*
X0099800Y0167300D01*
X0093800Y0161300D01*
X0095458Y0157657D02*
X0096066Y0157909D01*
X0098800Y0160643D01*
X0098800Y0158957D01*
X0095458Y0155615D01*
X0095458Y0156167D01*
X0090858Y0156167D01*
X0090858Y0156567D01*
X0095458Y0156567D01*
X0095458Y0157657D01*
X0095458Y0157600D02*
X0097443Y0157600D01*
X0098600Y0158757D02*
X0098600Y0160443D01*
X0102800Y0157300D02*
X0096800Y0151300D01*
X0085591Y0151300D01*
X0092200Y0156167D02*
X0092200Y0156567D01*
X0095400Y0156567D02*
X0095400Y0156167D01*
X0102800Y0157300D02*
X0102800Y0181800D01*
X0117859Y0196859D01*
X0205284Y0196859D01*
X0205284Y0194477D02*
X0204300Y0194300D01*
X0119800Y0194300D01*
X0105800Y0180300D01*
X0105800Y0155800D01*
X0096300Y0146300D01*
X0091091Y0146300D01*
X0106157Y0132000D02*
X0194443Y0132000D01*
X0194600Y0131843D02*
X0194600Y0125800D01*
X0191400Y0125800D02*
X0191400Y0135043D01*
X0191243Y0135200D02*
X0109357Y0135200D01*
X0108200Y0134043D02*
X0108200Y0124423D01*
X0107400Y0123623D02*
X0107400Y0121857D01*
X0106700Y0122557D01*
X0106700Y0123123D01*
X0104123Y0125700D01*
X0100477Y0125700D01*
X0098517Y0123740D01*
X0098207Y0124050D01*
X0120066Y0145909D01*
X0121191Y0147034D01*
X0121800Y0148504D01*
X0121800Y0172643D01*
X0129398Y0180241D01*
X0200313Y0180241D01*
X0200313Y0177797D01*
X0200800Y0176621D01*
X0200800Y0153023D01*
X0200400Y0152623D01*
X0200400Y0148977D01*
X0202977Y0146400D01*
X0206623Y0146400D01*
X0209200Y0148977D01*
X0209200Y0152623D01*
X0208800Y0153023D01*
X0208800Y0173900D01*
X0231880Y0173900D01*
X0232700Y0174720D01*
X0232700Y0177800D01*
X0289900Y0177800D01*
X0289900Y0177477D01*
X0292477Y0174900D01*
X0296123Y0174900D01*
X0298700Y0177477D01*
X0298700Y0180300D01*
X0354797Y0180300D01*
X0354534Y0180191D01*
X0353409Y0179066D01*
X0340543Y0166200D01*
X0339977Y0166200D01*
X0337400Y0163623D01*
X0337400Y0159977D01*
X0339977Y0157400D01*
X0343623Y0157400D01*
X0346200Y0159977D01*
X0346200Y0160543D01*
X0347800Y0162143D01*
X0347800Y0142457D01*
X0338200Y0132857D01*
X0338200Y0137880D01*
X0337380Y0138700D01*
X0307220Y0138700D01*
X0306400Y0137880D01*
X0306400Y0135079D01*
X0305800Y0134479D01*
X0305313Y0133303D01*
X0305313Y0133300D01*
X0293504Y0133300D01*
X0292034Y0132691D01*
X0290909Y0131566D01*
X0280643Y0121300D01*
X0273700Y0121300D01*
X0273700Y0123623D01*
X0271123Y0126200D01*
X0267477Y0126200D01*
X0267077Y0125800D01*
X0261200Y0125800D01*
X0261200Y0128623D01*
X0258623Y0131200D01*
X0258057Y0131200D01*
X0252191Y0137066D01*
X0251066Y0138191D01*
X0249596Y0138800D01*
X0198957Y0138800D01*
X0192300Y0145457D01*
X0192300Y0166096D01*
X0191691Y0167566D01*
X0182191Y0177066D01*
X0181066Y0178191D01*
X0179596Y0178800D01*
X0179523Y0178800D01*
X0179123Y0179200D01*
X0175477Y0179200D01*
X0172900Y0176623D01*
X0172900Y0172977D01*
X0175477Y0170400D01*
X0121800Y0170400D01*
X0121800Y0167200D02*
X0180743Y0167200D01*
X0181800Y0166143D02*
X0181800Y0125800D01*
X0178600Y0125800D02*
X0178600Y0169343D01*
X0177543Y0170400D02*
X0184300Y0163643D01*
X0184300Y0143004D01*
X0184909Y0141534D01*
X0186034Y0140409D01*
X0195034Y0131409D01*
X0196504Y0130800D01*
X0247143Y0130800D01*
X0252143Y0125800D01*
X0114023Y0125800D01*
X0113623Y0126200D01*
X0109977Y0126200D01*
X0107400Y0123623D01*
X0107400Y0122400D02*
X0106857Y0122400D01*
X0105000Y0124823D02*
X0105000Y0130843D01*
X0102957Y0128800D02*
X0249143Y0128800D01*
X0249000Y0128943D02*
X0249000Y0125800D01*
X0245800Y0125800D02*
X0245800Y0130800D01*
X0242600Y0130800D02*
X0242600Y0125800D01*
X0239400Y0125800D02*
X0239400Y0130800D01*
X0236200Y0130800D02*
X0236200Y0125800D01*
X0233000Y0125800D02*
X0233000Y0130800D01*
X0229800Y0130800D02*
X0229800Y0125800D01*
X0226600Y0125800D02*
X0226600Y0130800D01*
X0223400Y0130800D02*
X0223400Y0125800D01*
X0220200Y0125800D02*
X0220200Y0130800D01*
X0217000Y0130800D02*
X0217000Y0125800D01*
X0213800Y0125800D02*
X0213800Y0130800D01*
X0210600Y0130800D02*
X0210600Y0125800D01*
X0207400Y0125800D02*
X0207400Y0130800D01*
X0204200Y0130800D02*
X0204200Y0125800D01*
X0201000Y0125800D02*
X0201000Y0130800D01*
X0197800Y0130800D02*
X0197800Y0125800D01*
X0197300Y0134800D02*
X0188300Y0143800D01*
X0188300Y0165300D01*
X0178800Y0174800D01*
X0177300Y0174800D01*
X0172900Y0173600D02*
X0122757Y0173600D01*
X0124200Y0175043D02*
X0124200Y0125800D01*
X0121000Y0125800D02*
X0121000Y0146843D01*
X0121591Y0148000D02*
X0184300Y0148000D01*
X0184300Y0144800D02*
X0118957Y0144800D01*
X0117800Y0143643D02*
X0117800Y0125800D01*
X0114600Y0125800D02*
X0114600Y0140443D01*
X0115757Y0141600D02*
X0184882Y0141600D01*
X0185000Y0141443D02*
X0185000Y0125800D01*
X0188200Y0125800D02*
X0188200Y0138243D01*
X0188043Y0138400D02*
X0112557Y0138400D01*
X0111400Y0137243D02*
X0111400Y0126200D01*
X0109377Y0125600D02*
X0104223Y0125600D01*
X0101800Y0125700D02*
X0101800Y0127643D01*
X0100377Y0125600D02*
X0099757Y0125600D01*
X0098600Y0124443D02*
X0098600Y0123823D01*
X0102300Y0121300D02*
X0106300Y0117300D01*
X0282300Y0117300D01*
X0294300Y0129300D01*
X0309402Y0129300D01*
X0310284Y0129418D01*
X0306400Y0135200D02*
X0254057Y0135200D01*
X0255400Y0133857D02*
X0255400Y0177800D01*
X0252200Y0177800D02*
X0252200Y0137057D01*
X0250561Y0138400D02*
X0306920Y0138400D01*
X0306600Y0138080D02*
X0306600Y0180300D01*
X0303400Y0180300D02*
X0303400Y0133300D01*
X0300200Y0133300D02*
X0300200Y0180300D01*
X0298700Y0180000D02*
X0354343Y0180000D01*
X0354600Y0180218D02*
X0354600Y0180300D01*
X0351400Y0180300D02*
X0351400Y0177057D01*
X0351143Y0176800D02*
X0298023Y0176800D01*
X0297000Y0175777D02*
X0297000Y0133300D01*
X0293800Y0133300D02*
X0293800Y0174900D01*
X0290600Y0176777D02*
X0290600Y0131257D01*
X0291343Y0132000D02*
X0257257Y0132000D01*
X0258600Y0131200D02*
X0258600Y0177800D01*
X0261800Y0177800D02*
X0261800Y0125800D01*
X0261023Y0128800D02*
X0288143Y0128800D01*
X0287400Y0128057D02*
X0287400Y0177800D01*
X0284200Y0177800D02*
X0284200Y0124857D01*
X0284943Y0125600D02*
X0271723Y0125600D01*
X0271400Y0125923D02*
X0271400Y0177800D01*
X0274600Y0177800D02*
X0274600Y0121300D01*
X0273700Y0122400D02*
X0281743Y0122400D01*
X0281000Y0121657D02*
X0281000Y0177800D01*
X0277800Y0177800D02*
X0277800Y0121300D01*
X0269300Y0121800D02*
X0111800Y0121800D01*
X0127400Y0125800D02*
X0127400Y0178243D01*
X0125957Y0176800D02*
X0173077Y0176800D01*
X0175400Y0179123D02*
X0175400Y0180241D01*
X0172200Y0180241D02*
X0172200Y0125800D01*
X0169000Y0125800D02*
X0169000Y0180241D01*
X0165800Y0180241D02*
X0165800Y0125800D01*
X0162600Y0125800D02*
X0162600Y0180241D01*
X0159400Y0180241D02*
X0159400Y0125800D01*
X0156200Y0125800D02*
X0156200Y0180241D01*
X0153000Y0180241D02*
X0153000Y0125800D01*
X0149800Y0125800D02*
X0149800Y0180241D01*
X0146600Y0180241D02*
X0146600Y0125800D01*
X0143400Y0125800D02*
X0143400Y0180241D01*
X0140200Y0180241D02*
X0140200Y0125800D01*
X0137000Y0125800D02*
X0137000Y0180241D01*
X0133800Y0180241D02*
X0133800Y0125800D01*
X0130600Y0125800D02*
X0130600Y0180241D01*
X0129157Y0180000D02*
X0200313Y0180000D01*
X0197800Y0180241D02*
X0197800Y0139957D01*
X0196157Y0141600D02*
X0346943Y0141600D01*
X0345000Y0139657D02*
X0345000Y0158777D01*
X0343823Y0157600D02*
X0347800Y0157600D01*
X0347800Y0160800D02*
X0346457Y0160800D01*
X0341800Y0161800D02*
X0356800Y0176800D01*
X0391800Y0176800D01*
X0396800Y0171800D02*
X0356800Y0171800D01*
X0351800Y0166800D01*
X0351800Y0140800D01*
X0337859Y0126859D01*
X0333316Y0126859D01*
X0333316Y0124477D02*
X0325123Y0124477D01*
X0324800Y0124800D02*
X0324800Y0130800D01*
X0326182Y0129418D01*
X0333316Y0129418D01*
X0333316Y0131977D02*
X0332639Y0132800D01*
X0325300Y0132800D01*
X0324800Y0130800D01*
X0324800Y0124800D02*
X0324800Y0121800D01*
X0324800Y0119300D01*
X0324800Y0117300D01*
X0324800Y0110800D01*
X0317800Y0110800D01*
X0316800Y0111800D01*
X0310402Y0111800D01*
X0310284Y0111682D01*
X0298682Y0111682D01*
X0293800Y0106800D01*
X0293800Y0110300D02*
X0293800Y0097800D01*
X0290600Y0097800D02*
X0290600Y0109943D01*
X0290257Y0109600D02*
X0305313Y0109600D01*
X0303400Y0110300D02*
X0303400Y0100057D01*
X0303343Y0100000D02*
X0179823Y0100000D01*
X0178600Y0101200D02*
X0178600Y0105800D01*
X0181800Y0105800D02*
X0181800Y0090800D01*
X0178600Y0090800D02*
X0178600Y0092400D01*
X0179823Y0093600D02*
X0185877Y0093600D01*
X0185000Y0092723D02*
X0185000Y0105800D01*
X0188200Y0105800D02*
X0188200Y0095200D01*
X0181200Y0096800D02*
X0200756Y0096800D01*
X0204800Y0093800D02*
X0302800Y0093800D01*
X0307800Y0098800D01*
X0310800Y0098800D01*
X0312800Y0100800D01*
X0319800Y0093800D01*
X0319800Y0074800D01*
X0314123Y0069123D01*
X0310284Y0069123D01*
X0310284Y0071682D02*
X0291918Y0071682D01*
X0289800Y0074300D01*
X0286800Y0076800D01*
X0211800Y0076800D01*
X0210800Y0075800D01*
X0210623Y0074477D02*
X0205284Y0074477D01*
X0205284Y0071918D02*
X0210682Y0071918D01*
X0205284Y0069359D02*
X0204300Y0069300D01*
X0194300Y0069300D01*
X0191800Y0071800D01*
X0166800Y0071800D01*
X0176800Y0066800D02*
X0205284Y0066800D01*
X0205284Y0064241D02*
X0204300Y0064300D01*
X0194300Y0064300D01*
X0191800Y0061800D01*
X0161800Y0061800D01*
X0162600Y0057400D02*
X0162600Y0054657D01*
X0162057Y0055200D02*
X0200200Y0055200D01*
X0200200Y0052000D02*
X0165218Y0052000D01*
X0165191Y0052066D02*
X0165800Y0050596D01*
X0165800Y0031501D01*
X0165800Y0057800D01*
X0164023Y0057800D02*
X0192596Y0057800D01*
X0194066Y0058409D01*
X0195191Y0059534D01*
X0195957Y0060300D01*
X0200200Y0060300D01*
X0200200Y0049637D01*
X0201137Y0048700D01*
X0212400Y0048700D01*
X0212400Y0048623D01*
X0209308Y0045530D01*
X0208070Y0044292D01*
X0207400Y0042675D01*
X0207400Y0048700D01*
X0204200Y0048700D02*
X0204200Y0032466D01*
X0203393Y0032800D02*
X0207400Y0032800D01*
X0205285Y0032016D02*
X0203024Y0032953D01*
X0200576Y0032953D01*
X0198315Y0032016D01*
X0196584Y0030285D01*
X0196034Y0028958D01*
X0195865Y0029291D01*
X0195425Y0029896D01*
X0194896Y0030425D01*
X0194291Y0030865D01*
X0193624Y0031205D01*
X0192913Y0031436D01*
X0192174Y0031553D01*
X0191984Y0031553D01*
X0191984Y0026984D01*
X0191616Y0026984D01*
X0191616Y0026616D01*
X0187047Y0026616D01*
X0187047Y0026426D01*
X0187164Y0025687D01*
X0187193Y0025600D01*
X0186407Y0025600D01*
X0186436Y0025687D01*
X0186553Y0026426D01*
X0186553Y0026616D01*
X0181984Y0026616D01*
X0181984Y0026984D01*
X0181616Y0026984D01*
X0181616Y0031553D01*
X0181426Y0031553D01*
X0180687Y0031436D01*
X0179976Y0031205D01*
X0179309Y0030865D01*
X0178704Y0030425D01*
X0178175Y0029896D01*
X0177735Y0029291D01*
X0177566Y0028958D01*
X0177016Y0030285D01*
X0175285Y0032016D01*
X0173024Y0032953D01*
X0170576Y0032953D01*
X0168315Y0032016D01*
X0166800Y0030501D01*
X0165800Y0031501D01*
X0165800Y0032800D02*
X0170207Y0032800D01*
X0169000Y0032300D02*
X0169000Y0057800D01*
X0172200Y0057800D02*
X0172200Y0032953D01*
X0173393Y0032800D02*
X0200207Y0032800D01*
X0201000Y0032953D02*
X0201000Y0048837D01*
X0201037Y0048800D02*
X0165800Y0048800D01*
X0165800Y0045600D02*
X0209377Y0045600D01*
X0210600Y0046823D02*
X0210600Y0048700D01*
X0210623Y0051623D02*
X0205284Y0051623D01*
X0205284Y0054182D02*
X0210682Y0054182D01*
X0210741Y0056741D02*
X0205284Y0056741D01*
X0205284Y0059123D02*
X0210623Y0059123D01*
X0210418Y0061682D02*
X0205284Y0061682D01*
X0200200Y0058400D02*
X0194044Y0058400D01*
X0194600Y0058943D02*
X0194600Y0030640D01*
X0195640Y0029600D02*
X0196300Y0029600D01*
X0197800Y0031501D02*
X0197800Y0060300D01*
X0191400Y0057800D02*
X0191400Y0031549D01*
X0191426Y0031553D02*
X0190687Y0031436D01*
X0189976Y0031205D01*
X0189309Y0030865D01*
X0188704Y0030425D01*
X0188175Y0029896D01*
X0187735Y0029291D01*
X0187395Y0028624D01*
X0187164Y0027913D01*
X0187047Y0027174D01*
X0187047Y0026984D01*
X0191616Y0026984D01*
X0191616Y0031553D01*
X0191426Y0031553D01*
X0191616Y0029600D02*
X0191984Y0029600D01*
X0191400Y0026984D02*
X0191400Y0026616D01*
X0188200Y0026616D02*
X0188200Y0026984D01*
X0187051Y0026400D02*
X0186549Y0026400D01*
X0186553Y0026984D02*
X0186553Y0027174D01*
X0186436Y0027913D01*
X0186205Y0028624D01*
X0185865Y0029291D01*
X0185425Y0029896D01*
X0184896Y0030425D01*
X0184291Y0030865D01*
X0183624Y0031205D01*
X0182913Y0031436D01*
X0182174Y0031553D01*
X0181984Y0031553D01*
X0181984Y0026984D01*
X0186553Y0026984D01*
X0185000Y0026984D02*
X0185000Y0026616D01*
X0185640Y0029600D02*
X0187960Y0029600D01*
X0188200Y0029921D02*
X0188200Y0057800D01*
X0185000Y0057800D02*
X0185000Y0030321D01*
X0181984Y0029600D02*
X0181616Y0029600D01*
X0181800Y0026984D02*
X0181800Y0057800D01*
X0178600Y0057800D02*
X0178600Y0030321D01*
X0177960Y0029600D02*
X0177300Y0029600D01*
X0175400Y0031901D02*
X0175400Y0057800D01*
X0164023Y0057800D02*
X0163623Y0057400D01*
X0160800Y0057400D01*
X0160800Y0056457D01*
X0164066Y0053191D01*
X0165191Y0052066D01*
X0161800Y0049800D02*
X0161800Y0026800D01*
X0165800Y0036000D02*
X0207400Y0036000D01*
X0207400Y0039200D02*
X0165800Y0039200D01*
X0165800Y0042400D02*
X0207400Y0042400D01*
X0207400Y0042675D02*
X0207400Y0029358D01*
X0207016Y0030285D01*
X0205285Y0032016D01*
X0207300Y0029600D02*
X0207400Y0029600D01*
X0221800Y0026800D02*
X0221800Y0036800D01*
X0226600Y0041475D02*
X0226600Y0047734D01*
X0225908Y0047734D02*
X0230724Y0047734D01*
X0231900Y0048221D01*
X0232800Y0049121D01*
X0233287Y0050297D01*
X0233287Y0057800D01*
X0246143Y0057800D01*
X0246534Y0057409D01*
X0248004Y0056800D01*
X0254596Y0056800D01*
X0256066Y0057409D01*
X0256457Y0057800D01*
X0347077Y0057800D01*
X0347477Y0057400D01*
X0351123Y0057400D01*
X0352083Y0058360D01*
X0367984Y0042459D01*
X0366800Y0041275D01*
X0365595Y0042480D01*
X0363133Y0043500D01*
X0360467Y0043500D01*
X0358005Y0042480D01*
X0356800Y0041275D01*
X0355595Y0042480D01*
X0353133Y0043500D01*
X0350467Y0043500D01*
X0348005Y0042480D01*
X0346800Y0041275D01*
X0345595Y0042480D01*
X0343133Y0043500D01*
X0340467Y0043500D01*
X0338005Y0042480D01*
X0336800Y0041275D01*
X0335595Y0042480D01*
X0333133Y0043500D01*
X0330467Y0043500D01*
X0328005Y0042480D01*
X0326800Y0041275D01*
X0325595Y0042480D01*
X0323133Y0043500D01*
X0320467Y0043500D01*
X0318005Y0042480D01*
X0316800Y0041275D01*
X0315595Y0042480D01*
X0313133Y0043500D01*
X0310467Y0043500D01*
X0308005Y0042480D01*
X0306120Y0040595D01*
X0305100Y0038133D01*
X0305100Y0035467D01*
X0306120Y0033005D01*
X0307712Y0031413D01*
X0306584Y0030285D01*
X0305647Y0028024D01*
X0305647Y0025600D01*
X0297953Y0025600D01*
X0297953Y0028024D01*
X0297016Y0030285D01*
X0295888Y0031413D01*
X0297480Y0033005D01*
X0298500Y0035467D01*
X0298500Y0038133D01*
X0297480Y0040595D01*
X0295595Y0042480D01*
X0293133Y0043500D01*
X0290467Y0043500D01*
X0288005Y0042480D01*
X0286800Y0041275D01*
X0285595Y0042480D01*
X0283133Y0043500D01*
X0280467Y0043500D01*
X0278005Y0042480D01*
X0276800Y0041275D01*
X0275595Y0042480D01*
X0273133Y0043500D01*
X0270467Y0043500D01*
X0268005Y0042480D01*
X0266800Y0041275D01*
X0265595Y0042480D01*
X0263133Y0043500D01*
X0260467Y0043500D01*
X0258005Y0042480D01*
X0256800Y0041275D01*
X0255595Y0042480D01*
X0253133Y0043500D01*
X0250467Y0043500D01*
X0248005Y0042480D01*
X0246800Y0041275D01*
X0245595Y0042480D01*
X0243133Y0043500D01*
X0240467Y0043500D01*
X0238005Y0042480D01*
X0236800Y0041275D01*
X0235595Y0042480D01*
X0233133Y0043500D01*
X0230467Y0043500D01*
X0228005Y0042480D01*
X0226800Y0041275D01*
X0225595Y0042480D01*
X0223133Y0043500D01*
X0220467Y0043500D01*
X0219196Y0042973D01*
X0219292Y0043070D01*
X0220530Y0044308D01*
X0221200Y0045925D01*
X0221200Y0048700D01*
X0224252Y0048700D01*
X0224731Y0048221D01*
X0225908Y0047734D01*
X0223400Y0048700D02*
X0223400Y0043389D01*
X0225675Y0042400D02*
X0227925Y0042400D01*
X0229800Y0043224D02*
X0229800Y0047734D01*
X0232479Y0048800D02*
X0361643Y0048800D01*
X0361000Y0049443D02*
X0361000Y0043500D01*
X0364200Y0043058D02*
X0364200Y0046243D01*
X0364843Y0045600D02*
X0221065Y0045600D01*
X0220200Y0043977D02*
X0220200Y0043389D01*
X0231800Y0036800D02*
X0231800Y0026800D01*
X0241800Y0026800D02*
X0241800Y0036800D01*
X0239400Y0043058D02*
X0239400Y0057800D01*
X0236200Y0057800D02*
X0236200Y0041875D01*
X0235675Y0042400D02*
X0237925Y0042400D01*
X0242600Y0043500D02*
X0242600Y0057800D01*
X0245800Y0057800D02*
X0245800Y0042275D01*
X0245675Y0042400D02*
X0247925Y0042400D01*
X0249000Y0042892D02*
X0249000Y0056800D01*
X0252200Y0056800D02*
X0252200Y0043500D01*
X0255400Y0042561D02*
X0255400Y0057133D01*
X0258600Y0057800D02*
X0258600Y0042727D01*
X0257925Y0042400D02*
X0255675Y0042400D01*
X0261800Y0043500D02*
X0261800Y0057800D01*
X0265000Y0057800D02*
X0265000Y0042727D01*
X0265675Y0042400D02*
X0267925Y0042400D01*
X0268200Y0042561D02*
X0268200Y0057800D01*
X0271400Y0057800D02*
X0271400Y0043500D01*
X0274600Y0042892D02*
X0274600Y0057800D01*
X0277800Y0057800D02*
X0277800Y0042275D01*
X0277925Y0042400D02*
X0275675Y0042400D01*
X0281000Y0043500D02*
X0281000Y0057800D01*
X0284200Y0057800D02*
X0284200Y0043058D01*
X0285675Y0042400D02*
X0287925Y0042400D01*
X0287400Y0041875D02*
X0287400Y0057800D01*
X0290600Y0057800D02*
X0290600Y0043500D01*
X0293800Y0043224D02*
X0293800Y0057800D01*
X0297000Y0057800D02*
X0297000Y0041075D01*
X0295675Y0042400D02*
X0307925Y0042400D01*
X0306600Y0041075D02*
X0306600Y0057800D01*
X0303400Y0057800D02*
X0303400Y0025600D01*
X0305647Y0026400D02*
X0297953Y0026400D01*
X0300200Y0025600D02*
X0300200Y0057800D01*
X0309800Y0057800D02*
X0309800Y0043224D01*
X0313000Y0043500D02*
X0313000Y0057800D01*
X0316200Y0057800D02*
X0316200Y0041875D01*
X0315675Y0042400D02*
X0317925Y0042400D01*
X0319400Y0043058D02*
X0319400Y0057800D01*
X0322600Y0057800D02*
X0322600Y0043500D01*
X0325675Y0042400D02*
X0327925Y0042400D01*
X0329000Y0042892D02*
X0329000Y0057800D01*
X0325800Y0057800D02*
X0325800Y0042275D01*
X0332200Y0043500D02*
X0332200Y0057800D01*
X0335400Y0057800D02*
X0335400Y0042561D01*
X0335675Y0042400D02*
X0337925Y0042400D01*
X0338600Y0042727D02*
X0338600Y0057800D01*
X0341800Y0057800D02*
X0341800Y0043500D01*
X0345000Y0042727D02*
X0345000Y0057800D01*
X0348200Y0057400D02*
X0348200Y0042561D01*
X0347925Y0042400D02*
X0345675Y0042400D01*
X0351400Y0043500D02*
X0351400Y0057677D01*
X0354600Y0055843D02*
X0354600Y0042892D01*
X0355675Y0042400D02*
X0357925Y0042400D01*
X0357800Y0042275D02*
X0357800Y0052643D01*
X0358443Y0052000D02*
X0233287Y0052000D01*
X0233000Y0049604D02*
X0233000Y0043500D01*
X0233287Y0055200D02*
X0355243Y0055200D01*
X0349300Y0061800D02*
X0254800Y0061800D01*
X0253800Y0060800D01*
X0248800Y0060800D01*
X0247800Y0061800D01*
X0229300Y0061800D01*
X0228316Y0061682D01*
X0228316Y0064241D02*
X0226800Y0064300D01*
X0251800Y0064300D01*
X0254800Y0066800D02*
X0253800Y0067800D01*
X0248800Y0067800D01*
X0247800Y0066800D01*
X0228316Y0066800D01*
X0228316Y0071918D02*
X0241682Y0071918D01*
X0241918Y0071918D01*
X0242600Y0070800D02*
X0242600Y0075300D01*
X0239400Y0075300D02*
X0239400Y0070800D01*
X0236200Y0070800D02*
X0236200Y0075300D01*
X0233287Y0075300D02*
X0299900Y0075300D01*
X0299900Y0072477D01*
X0301577Y0070800D01*
X0256457Y0070800D01*
X0256066Y0071191D01*
X0254596Y0071800D01*
X0248004Y0071800D01*
X0246534Y0071191D01*
X0246143Y0070800D01*
X0233240Y0070800D01*
X0232800Y0071861D01*
X0232743Y0071918D01*
X0232800Y0071976D01*
X0233287Y0073152D01*
X0233287Y0073873D01*
X0233378Y0074374D01*
X0233287Y0074789D01*
X0233287Y0075300D01*
X0233372Y0074400D02*
X0299900Y0074400D01*
X0300200Y0072177D02*
X0300200Y0070800D01*
X0301177Y0071200D02*
X0256044Y0071200D01*
X0255400Y0071467D02*
X0255400Y0075300D01*
X0252200Y0075300D02*
X0252200Y0071800D01*
X0249000Y0071800D02*
X0249000Y0075300D01*
X0245800Y0075300D02*
X0245800Y0070800D01*
X0246556Y0071200D02*
X0233074Y0071200D01*
X0233000Y0071378D02*
X0233000Y0072458D01*
X0229300Y0074300D02*
X0228316Y0074477D01*
X0219493Y0074300D01*
X0218800Y0073800D01*
X0216800Y0071800D01*
X0254800Y0066800D02*
X0316800Y0066800D01*
X0310284Y0074241D02*
X0309300Y0074300D01*
X0304300Y0074300D01*
X0297000Y0075300D02*
X0297000Y0070800D01*
X0293800Y0070800D02*
X0293800Y0075300D01*
X0290600Y0075300D02*
X0290600Y0070800D01*
X0287400Y0070800D02*
X0287400Y0075300D01*
X0284200Y0075300D02*
X0284200Y0070800D01*
X0281000Y0070800D02*
X0281000Y0075300D01*
X0277800Y0075300D02*
X0277800Y0070800D01*
X0274600Y0070800D02*
X0274600Y0075300D01*
X0271400Y0075300D02*
X0271400Y0070800D01*
X0268200Y0070800D02*
X0268200Y0075300D01*
X0265000Y0075300D02*
X0265000Y0070800D01*
X0261800Y0070800D02*
X0261800Y0075300D01*
X0258600Y0075300D02*
X0258600Y0070800D01*
X0297000Y0097800D02*
X0297000Y0110300D01*
X0300200Y0110300D02*
X0300200Y0097800D01*
X0310284Y0103316D02*
X0310284Y0109123D01*
X0310284Y0103316D02*
X0312800Y0100800D01*
X0316057Y0103200D02*
X0347800Y0103200D01*
X0347800Y0100000D02*
X0319257Y0100000D01*
X0319400Y0099857D02*
X0319400Y0104400D01*
X0316200Y0104400D02*
X0316200Y0103057D01*
X0316191Y0103066D02*
X0315066Y0104191D01*
X0315066Y0104191D01*
X0314857Y0104400D01*
X0337380Y0104400D01*
X0338200Y0105220D01*
X0338200Y0106380D01*
X0338200Y0107682D01*
X0347596Y0107682D01*
X0347885Y0107802D01*
X0347800Y0107596D01*
X0347800Y0093457D01*
X0345143Y0090800D01*
X0338900Y0090800D01*
X0338900Y0096463D01*
X0337963Y0097400D01*
X0321857Y0097400D01*
X0316191Y0103066D01*
X0316191Y0103066D01*
X0322600Y0104400D02*
X0322600Y0097400D01*
X0325800Y0097400D02*
X0325800Y0104400D01*
X0329000Y0104400D02*
X0329000Y0097400D01*
X0332200Y0097400D02*
X0332200Y0104400D01*
X0335400Y0104400D02*
X0335400Y0097400D01*
X0338563Y0096800D02*
X0347800Y0096800D01*
X0347800Y0093600D02*
X0338900Y0093600D01*
X0338600Y0096763D02*
X0338600Y0107682D01*
X0338200Y0106400D02*
X0347800Y0106400D01*
X0345000Y0107682D02*
X0345000Y0090800D01*
X0341800Y0090800D02*
X0341800Y0107682D01*
X0346800Y0111682D02*
X0333316Y0111682D01*
X0333316Y0114241D02*
X0339241Y0114241D01*
X0341800Y0116800D01*
X0346800Y0111682D02*
X0351800Y0116682D01*
X0351800Y0131800D01*
X0361800Y0141800D01*
X0404800Y0141800D01*
X0407800Y0144800D01*
X0407800Y0180800D01*
X0401800Y0186800D01*
X0396800Y0191800D02*
X0401800Y0196800D01*
X0396800Y0191800D02*
X0388300Y0191800D01*
X0385859Y0189359D01*
X0228316Y0189359D01*
X0228198Y0191800D02*
X0220800Y0191800D01*
X0217300Y0195300D01*
X0217300Y0202300D01*
X0210300Y0209300D01*
X0164300Y0209300D01*
X0156800Y0216800D01*
X0155800Y0216800D01*
X0146800Y0216800D02*
X0145800Y0216800D01*
X0146800Y0216800D02*
X0156800Y0206800D01*
X0208800Y0206800D01*
X0214300Y0201300D01*
X0214300Y0194300D01*
X0221800Y0186800D01*
X0228316Y0186800D01*
X0228316Y0184241D02*
X0229300Y0184300D01*
X0389300Y0184300D01*
X0391800Y0186800D01*
X0381977Y0194477D02*
X0384300Y0196800D01*
X0391800Y0196800D01*
X0396800Y0201800D02*
X0401800Y0206800D01*
X0396800Y0201800D02*
X0381800Y0201800D01*
X0376859Y0196859D01*
X0228316Y0196859D01*
X0228316Y0194477D02*
X0381977Y0194477D01*
X0374300Y0199300D02*
X0381800Y0206800D01*
X0391800Y0206800D01*
X0383300Y0213300D02*
X0372800Y0202800D01*
X0325800Y0202800D01*
X0321800Y0206800D01*
X0321800Y0216800D01*
X0317800Y0212099D02*
X0316800Y0213099D01*
X0315285Y0211584D01*
X0313024Y0210647D01*
X0310576Y0210647D01*
X0308315Y0211584D01*
X0306800Y0213099D01*
X0305285Y0211584D01*
X0303024Y0210647D01*
X0300576Y0210647D01*
X0298315Y0211584D01*
X0296800Y0213099D01*
X0295285Y0211584D01*
X0293024Y0210647D01*
X0290576Y0210647D01*
X0288315Y0211584D01*
X0286584Y0213315D01*
X0285647Y0215576D01*
X0285647Y0218024D01*
X0286584Y0220285D01*
X0288315Y0222016D01*
X0290576Y0222953D01*
X0292296Y0222953D01*
X0305343Y0236000D01*
X0222637Y0236000D01*
X0222525Y0235960D01*
X0221686Y0236000D01*
X0220845Y0236000D01*
X0220736Y0236045D01*
X0220618Y0236051D01*
X0219858Y0236409D01*
X0219081Y0236731D01*
X0218997Y0236814D01*
X0218891Y0236865D01*
X0218325Y0237487D01*
X0217731Y0238081D01*
X0217686Y0238190D01*
X0209677Y0247000D01*
X0196788Y0247000D01*
X0186869Y0237081D01*
X0185519Y0235731D01*
X0183755Y0235000D01*
X0080788Y0235000D01*
X0076600Y0230812D01*
X0076600Y0229097D01*
X0078670Y0231167D01*
X0080458Y0231167D01*
X0080458Y0226567D01*
X0080858Y0226567D01*
X0080858Y0231167D01*
X0082646Y0231167D01*
X0085458Y0228355D01*
X0085458Y0226567D01*
X0080858Y0226567D01*
X0080858Y0226167D01*
X0085458Y0226167D01*
X0085458Y0224379D01*
X0083436Y0222357D01*
X0086648Y0219145D01*
X0088670Y0221167D01*
X0090458Y0221167D01*
X0090458Y0216567D01*
X0090858Y0216567D01*
X0090858Y0221167D01*
X0092646Y0221167D01*
X0095458Y0218355D01*
X0095458Y0216567D01*
X0090858Y0216567D01*
X0090858Y0216167D01*
X0090858Y0211567D01*
X0092646Y0211567D01*
X0095458Y0214379D01*
X0095458Y0216167D01*
X0090858Y0216167D01*
X0090458Y0216167D01*
X0090458Y0211567D01*
X0088670Y0211567D01*
X0086800Y0213437D01*
X0086800Y0209297D01*
X0088670Y0211167D01*
X0090458Y0211167D01*
X0090458Y0206567D01*
X0090858Y0206567D01*
X0090858Y0211167D01*
X0092646Y0211167D01*
X0095458Y0208355D01*
X0095458Y0208074D01*
X0096004Y0208300D01*
X0103096Y0208300D01*
X0104566Y0207691D01*
X0105691Y0206566D01*
X0106457Y0205800D01*
X0152143Y0205800D01*
X0147216Y0210727D01*
X0147024Y0210647D01*
X0144576Y0210647D01*
X0142315Y0211584D01*
X0140800Y0213099D01*
X0139285Y0211584D01*
X0137024Y0210647D01*
X0134576Y0210647D01*
X0132315Y0211584D01*
X0130584Y0213315D01*
X0130034Y0214642D01*
X0129865Y0214309D01*
X0129425Y0213704D01*
X0128896Y0213175D01*
X0128291Y0212735D01*
X0127624Y0212395D01*
X0126913Y0212164D01*
X0126174Y0212047D01*
X0125984Y0212047D01*
X0125984Y0216616D01*
X0125616Y0216616D01*
X0125616Y0212047D01*
X0125426Y0212047D01*
X0124687Y0212164D01*
X0123976Y0212395D01*
X0123309Y0212735D01*
X0122704Y0213175D01*
X0122175Y0213704D01*
X0121735Y0214309D01*
X0121566Y0214642D01*
X0121016Y0213315D01*
X0119285Y0211584D01*
X0117024Y0210647D01*
X0114576Y0210647D01*
X0112315Y0211584D01*
X0110584Y0213315D01*
X0109647Y0215576D01*
X0109647Y0218024D01*
X0110584Y0220285D01*
X0112315Y0222016D01*
X0114576Y0222953D01*
X0117024Y0222953D01*
X0119285Y0222016D01*
X0121016Y0220285D01*
X0121566Y0218958D01*
X0121735Y0219291D01*
X0122175Y0219896D01*
X0122611Y0220332D01*
X0120543Y0222400D01*
X0119977Y0222400D01*
X0117400Y0224977D01*
X0117400Y0228623D01*
X0119977Y0231200D01*
X0123623Y0231200D01*
X0126200Y0228623D01*
X0126200Y0228057D01*
X0128457Y0225800D01*
X0257596Y0225800D01*
X0259066Y0225191D01*
X0261304Y0222953D01*
X0263024Y0222953D01*
X0265285Y0222016D01*
X0266800Y0220501D01*
X0268315Y0222016D01*
X0270576Y0222953D01*
X0273024Y0222953D01*
X0275285Y0222016D01*
X0277016Y0220285D01*
X0277673Y0218700D01*
X0278623Y0218700D01*
X0281200Y0216123D01*
X0281200Y0212477D01*
X0278623Y0209900D01*
X0277774Y0209900D01*
X0277521Y0209647D01*
X0276453Y0208579D01*
X0275056Y0208000D01*
X0232080Y0208000D01*
X0232700Y0207380D01*
X0232700Y0203300D01*
X0319643Y0203300D01*
X0319534Y0203409D01*
X0318409Y0204534D01*
X0317800Y0206004D01*
X0317800Y0212099D01*
X0317800Y0212000D02*
X0315701Y0212000D01*
X0316200Y0212499D02*
X0316200Y0203300D01*
X0317967Y0205600D02*
X0232700Y0205600D01*
X0233000Y0203300D02*
X0233000Y0208000D01*
X0236200Y0208000D02*
X0236200Y0203300D01*
X0239400Y0203300D02*
X0239400Y0208000D01*
X0242600Y0208000D02*
X0242600Y0203300D01*
X0245800Y0203300D02*
X0245800Y0208000D01*
X0249000Y0208000D02*
X0249000Y0203300D01*
X0252200Y0203300D02*
X0252200Y0208000D01*
X0255400Y0208000D02*
X0255400Y0203300D01*
X0258600Y0203300D02*
X0258600Y0208000D01*
X0261800Y0208000D02*
X0261800Y0203300D01*
X0265000Y0203300D02*
X0265000Y0208000D01*
X0268200Y0208000D02*
X0268200Y0203300D01*
X0271400Y0203300D02*
X0271400Y0208000D01*
X0274600Y0208000D02*
X0274600Y0203300D01*
X0274300Y0201800D02*
X0282300Y0209800D01*
X0282300Y0224300D01*
X0272800Y0233800D01*
X0252800Y0233800D01*
X0220300Y0233800D01*
X0211800Y0242300D01*
X0211800Y0242800D01*
X0212404Y0244000D02*
X0193788Y0244000D01*
X0194600Y0244812D02*
X0194600Y0225800D01*
X0191400Y0225800D02*
X0191400Y0241612D01*
X0190588Y0240800D02*
X0215313Y0240800D01*
X0213800Y0242464D02*
X0213800Y0225800D01*
X0210600Y0225800D02*
X0210600Y0245984D01*
X0207400Y0247000D02*
X0207400Y0225800D01*
X0204200Y0225800D02*
X0204200Y0247000D01*
X0201000Y0247000D02*
X0201000Y0225800D01*
X0197800Y0225800D02*
X0197800Y0247000D01*
X0188200Y0238412D02*
X0188200Y0225800D01*
X0185000Y0225800D02*
X0185000Y0235516D01*
X0187388Y0237600D02*
X0218212Y0237600D01*
X0217000Y0238944D02*
X0217000Y0225800D01*
X0220200Y0225800D02*
X0220200Y0236248D01*
X0223400Y0236000D02*
X0223400Y0225800D01*
X0226600Y0225800D02*
X0226600Y0236000D01*
X0229800Y0236000D02*
X0229800Y0225800D01*
X0233000Y0225800D02*
X0233000Y0236000D01*
X0236200Y0236000D02*
X0236200Y0225800D01*
X0239400Y0225800D02*
X0239400Y0236000D01*
X0242600Y0236000D02*
X0242600Y0225800D01*
X0245800Y0225800D02*
X0245800Y0236000D01*
X0249000Y0236000D02*
X0249000Y0225800D01*
X0252200Y0225800D02*
X0252200Y0236000D01*
X0255400Y0236000D02*
X0255400Y0225800D01*
X0258600Y0225384D02*
X0258600Y0236000D01*
X0261800Y0236000D02*
X0261800Y0222953D01*
X0259457Y0224800D02*
X0294143Y0224800D01*
X0293800Y0224457D02*
X0293800Y0236000D01*
X0290600Y0236000D02*
X0290600Y0222953D01*
X0287899Y0221600D02*
X0275701Y0221600D01*
X0274600Y0222300D02*
X0274600Y0236000D01*
X0271400Y0236000D02*
X0271400Y0222953D01*
X0268200Y0221901D02*
X0268200Y0236000D01*
X0265000Y0236000D02*
X0265000Y0222134D01*
X0265701Y0221600D02*
X0267899Y0221600D01*
X0261800Y0216800D02*
X0256800Y0221800D01*
X0126800Y0221800D01*
X0121800Y0226800D01*
X0121000Y0231200D02*
X0121000Y0235000D01*
X0124200Y0235000D02*
X0124200Y0230623D01*
X0126257Y0228000D02*
X0297343Y0228000D01*
X0297000Y0227657D02*
X0297000Y0236000D01*
X0300200Y0236000D02*
X0300200Y0230857D01*
X0300543Y0231200D02*
X0076988Y0231200D01*
X0079400Y0231167D02*
X0079400Y0233612D01*
X0080188Y0234400D02*
X0303743Y0234400D01*
X0303400Y0234057D02*
X0303400Y0236000D01*
X0311800Y0236800D02*
X0389300Y0236800D01*
X0389300Y0231800D02*
X0385300Y0231800D01*
X0383800Y0233300D01*
X0327800Y0233300D01*
X0311800Y0216800D01*
X0306600Y0212899D02*
X0306600Y0203300D01*
X0303400Y0203300D02*
X0303400Y0210803D01*
X0305701Y0212000D02*
X0307899Y0212000D01*
X0309800Y0210969D02*
X0309800Y0203300D01*
X0313000Y0203300D02*
X0313000Y0210647D01*
X0317800Y0208800D02*
X0276674Y0208800D01*
X0277800Y0209900D02*
X0277800Y0203300D01*
X0281000Y0203300D02*
X0281000Y0212277D01*
X0280723Y0212000D02*
X0287899Y0212000D01*
X0287400Y0212499D02*
X0287400Y0203300D01*
X0284200Y0203300D02*
X0284200Y0236000D01*
X0287400Y0236000D02*
X0287400Y0221101D01*
X0285803Y0218400D02*
X0278923Y0218400D01*
X0277800Y0218700D02*
X0277800Y0236000D01*
X0281000Y0236000D02*
X0281000Y0216323D01*
X0281200Y0215200D02*
X0285803Y0215200D01*
X0291800Y0216800D02*
X0311800Y0236800D01*
X0316800Y0240800D02*
X0316800Y0244800D01*
X0316800Y0248800D02*
X0316800Y0256800D01*
X0321800Y0261800D01*
X0361800Y0261800D01*
X0361800Y0251800D01*
X0356800Y0246800D01*
X0355540Y0246800D01*
X0348060Y0246800D02*
X0343800Y0246800D01*
X0342800Y0247800D01*
X0342800Y0250300D01*
X0342500Y0250400D02*
X0343811Y0250400D01*
X0343823Y0250448D02*
X0343701Y0249990D01*
X0343701Y0247280D01*
X0347580Y0247280D01*
X0347580Y0246320D01*
X0343701Y0246320D01*
X0343701Y0245600D01*
X0342500Y0245600D01*
X0342500Y0246685D01*
X0342500Y0250458D01*
X0342013Y0251634D01*
X0341113Y0252534D01*
X0340904Y0252621D01*
X0341766Y0253482D01*
X0341800Y0253565D01*
X0341834Y0253482D01*
X0343482Y0251834D01*
X0344661Y0251346D01*
X0344396Y0251193D01*
X0344060Y0250858D01*
X0343823Y0250448D01*
X0341800Y0251847D02*
X0341800Y0253565D01*
X0336800Y0256800D02*
X0336800Y0248572D01*
X0336800Y0245028D02*
X0336800Y0240800D01*
X0342500Y0247200D02*
X0347580Y0247200D01*
X0345000Y0247280D02*
X0345000Y0246320D01*
X0346800Y0256800D02*
X0356800Y0256800D01*
X0357800Y0268300D02*
X0357800Y0288956D01*
X0357956Y0288800D02*
X0354541Y0288800D01*
X0354600Y0288859D02*
X0354600Y0268300D01*
X0351400Y0268300D02*
X0351400Y0286852D01*
X0350791Y0286600D02*
X0353438Y0287696D01*
X0355463Y0289722D01*
X0356249Y0291619D01*
X0357035Y0289722D01*
X0359060Y0287696D01*
X0361706Y0286600D01*
X0364571Y0286600D01*
X0367217Y0287696D01*
X0369242Y0289722D01*
X0370339Y0292368D01*
X0370339Y0295232D01*
X0369242Y0297878D01*
X0367217Y0299904D01*
X0364571Y0301000D01*
X0361706Y0301000D01*
X0359060Y0299904D01*
X0357035Y0297878D01*
X0356249Y0295981D01*
X0355463Y0297878D01*
X0353438Y0299904D01*
X0350791Y0301000D01*
X0348104Y0301000D01*
X0350118Y0301834D01*
X0351766Y0303482D01*
X0351800Y0303565D01*
X0351834Y0303482D01*
X0353482Y0301834D01*
X0355635Y0300943D01*
X0357965Y0300943D01*
X0360118Y0301834D01*
X0361766Y0303482D01*
X0361800Y0303565D01*
X0361834Y0303482D01*
X0363482Y0301834D01*
X0365635Y0300943D01*
X0367965Y0300943D01*
X0370118Y0301834D01*
X0371766Y0303482D01*
X0372565Y0305411D01*
X0372669Y0305089D01*
X0372988Y0304464D01*
X0373400Y0303896D01*
X0373896Y0303400D01*
X0374464Y0302988D01*
X0375089Y0302669D01*
X0375756Y0302452D01*
X0376449Y0302343D01*
X0376714Y0302343D01*
X0376714Y0306714D01*
X0376886Y0306714D01*
X0376886Y0302343D01*
X0377151Y0302343D01*
X0377800Y0302445D01*
X0377800Y0279844D01*
X0376819Y0278863D01*
X0376819Y0274737D01*
X0379737Y0271819D01*
X0380647Y0271819D01*
X0380647Y0268300D01*
X0313504Y0268300D01*
X0312034Y0267691D01*
X0307001Y0262657D01*
X0305635Y0262657D01*
X0303482Y0261766D01*
X0302953Y0261236D01*
X0302953Y0266255D01*
X0302727Y0266800D01*
X0302953Y0267345D01*
X0302953Y0267666D01*
X0303300Y0268504D01*
X0303300Y0270096D01*
X0302953Y0270934D01*
X0302953Y0271071D01*
X0303607Y0270800D01*
X0307800Y0270800D01*
X0308644Y0270450D01*
X0323696Y0270450D01*
X0324872Y0270938D01*
X0325773Y0271838D01*
X0326260Y0273014D01*
X0326260Y0280586D01*
X0325773Y0281762D01*
X0324872Y0282662D01*
X0323696Y0283150D01*
X0308644Y0283150D01*
X0307800Y0282800D01*
X0307285Y0282800D01*
X0305991Y0284094D01*
X0306320Y0284094D01*
X0306320Y0287974D01*
X0307280Y0287974D01*
X0307280Y0288933D01*
X0311553Y0288933D01*
X0311553Y0289869D01*
X0311565Y0289875D01*
X0312466Y0290775D01*
X0312953Y0291951D01*
X0312953Y0298342D01*
X0312800Y0298711D01*
X0312800Y0304832D01*
X0312988Y0304464D01*
X0313400Y0303896D01*
X0313896Y0303400D01*
X0314464Y0302988D01*
X0315089Y0302669D01*
X0315756Y0302452D01*
X0316449Y0302343D01*
X0316714Y0302343D01*
X0316714Y0306714D01*
X0316886Y0306714D01*
X0316886Y0302343D01*
X0317151Y0302343D01*
X0317844Y0302452D01*
X0318511Y0302669D01*
X0319136Y0302988D01*
X0319704Y0303400D01*
X0320200Y0303896D01*
X0320612Y0304464D01*
X0320931Y0305089D01*
X0321035Y0305411D01*
X0321834Y0303482D01*
X0323482Y0301834D01*
X0325496Y0301000D01*
X0317163Y0301000D01*
X0315987Y0300513D01*
X0315087Y0299613D01*
X0314600Y0298437D01*
X0314600Y0289163D01*
X0315087Y0287987D01*
X0315987Y0287087D01*
X0317163Y0286600D01*
X0326437Y0286600D01*
X0327613Y0287087D01*
X0328513Y0287987D01*
X0329000Y0289163D01*
X0329000Y0290870D01*
X0329476Y0289722D01*
X0331501Y0287696D01*
X0334147Y0286600D01*
X0337012Y0286600D01*
X0339658Y0287696D01*
X0341683Y0289722D01*
X0342469Y0291619D01*
X0343255Y0289722D01*
X0345281Y0287696D01*
X0347927Y0286600D01*
X0350791Y0286600D01*
X0348200Y0286600D02*
X0348200Y0268300D01*
X0345000Y0268300D02*
X0345000Y0271969D01*
X0345014Y0271973D02*
X0345425Y0272210D01*
X0345760Y0272545D01*
X0345997Y0272956D01*
X0346120Y0273413D01*
X0346120Y0276025D01*
X0338205Y0276025D01*
X0338205Y0277575D01*
X0346120Y0277575D01*
X0346120Y0280187D01*
X0345997Y0280644D01*
X0345760Y0281055D01*
X0345425Y0281390D01*
X0345014Y0281627D01*
X0344557Y0281750D01*
X0338205Y0281750D01*
X0338205Y0277575D01*
X0336655Y0277575D01*
X0336655Y0281750D01*
X0330303Y0281750D01*
X0329845Y0281627D01*
X0329435Y0281390D01*
X0329100Y0281055D01*
X0328863Y0280644D01*
X0328740Y0280187D01*
X0328740Y0277575D01*
X0336655Y0277575D01*
X0336655Y0276025D01*
X0338205Y0276025D01*
X0338205Y0271850D01*
X0344557Y0271850D01*
X0345014Y0271973D01*
X0345907Y0272800D02*
X0378756Y0272800D01*
X0380200Y0271819D02*
X0380200Y0268300D01*
X0380647Y0269600D02*
X0303300Y0269600D01*
X0303400Y0270886D02*
X0303400Y0261684D01*
X0302953Y0263200D02*
X0307543Y0263200D01*
X0306600Y0262657D02*
X0306600Y0270800D01*
X0309800Y0270450D02*
X0309800Y0265457D01*
X0310743Y0266400D02*
X0302893Y0266400D01*
X0299300Y0269300D02*
X0296800Y0269300D01*
X0296800Y0270540D01*
X0295800Y0269800D01*
X0291005Y0274600D02*
X0271120Y0274600D01*
X0271120Y0276025D01*
X0263205Y0276025D01*
X0263205Y0277575D01*
X0271120Y0277575D01*
X0271120Y0278800D01*
X0294315Y0278800D01*
X0296816Y0276299D01*
X0293211Y0276299D01*
X0292035Y0275812D01*
X0291134Y0274912D01*
X0291005Y0274600D01*
X0290600Y0274600D02*
X0290600Y0278800D01*
X0287400Y0278800D02*
X0287400Y0274600D01*
X0284200Y0274600D02*
X0284200Y0278800D01*
X0281000Y0278800D02*
X0281000Y0274600D01*
X0277800Y0274600D02*
X0277800Y0278800D01*
X0276800Y0276800D02*
X0262430Y0276800D01*
X0261655Y0277575D02*
X0261655Y0276025D01*
X0253740Y0276025D01*
X0253740Y0274600D01*
X0251260Y0274600D01*
X0251260Y0278800D01*
X0253740Y0278800D01*
X0253740Y0277575D01*
X0261655Y0277575D01*
X0258600Y0277575D02*
X0258600Y0276025D01*
X0255400Y0276025D02*
X0255400Y0277575D01*
X0253740Y0276000D02*
X0251260Y0276000D01*
X0252200Y0274600D02*
X0252200Y0278800D01*
X0265000Y0277575D02*
X0265000Y0276025D01*
X0268200Y0276025D02*
X0268200Y0277575D01*
X0271120Y0276000D02*
X0292488Y0276000D01*
X0293800Y0276299D02*
X0293800Y0278800D01*
X0306600Y0283485D02*
X0306600Y0287974D01*
X0306800Y0288454D02*
X0310954Y0288454D01*
X0315300Y0292800D01*
X0315300Y0288300D01*
X0319300Y0284300D01*
X0334800Y0284300D01*
X0337300Y0281800D01*
X0337300Y0276930D01*
X0337430Y0276800D01*
X0349800Y0276800D01*
X0361300Y0276800D01*
X0376800Y0292300D01*
X0376800Y0306800D01*
X0376800Y0312666D01*
X0371800Y0317666D01*
X0372181Y0317285D02*
X0372181Y0313504D01*
X0374399Y0313504D01*
X0374857Y0313627D01*
X0375267Y0313864D01*
X0375603Y0314199D01*
X0375789Y0314522D01*
X0376134Y0313688D01*
X0377035Y0312788D01*
X0377800Y0312471D01*
X0377800Y0311155D01*
X0377151Y0311257D01*
X0376886Y0311257D01*
X0376886Y0306886D01*
X0376714Y0306886D01*
X0376714Y0311257D01*
X0376449Y0311257D01*
X0375756Y0311148D01*
X0375089Y0310931D01*
X0374464Y0310612D01*
X0373896Y0310200D01*
X0373400Y0309704D01*
X0372988Y0309136D01*
X0372669Y0308511D01*
X0372565Y0308189D01*
X0371766Y0310118D01*
X0371600Y0310284D01*
X0371600Y0311755D01*
X0370875Y0313504D01*
X0371419Y0313504D01*
X0371419Y0317285D01*
X0372181Y0317285D01*
X0372181Y0314400D02*
X0371419Y0314400D01*
X0373800Y0313504D02*
X0373800Y0310104D01*
X0371600Y0311200D02*
X0376086Y0311200D01*
X0376714Y0311200D02*
X0376886Y0311200D01*
X0377000Y0311257D02*
X0377000Y0312823D01*
X0377514Y0311200D02*
X0377800Y0311200D01*
X0376886Y0308000D02*
X0376714Y0308000D01*
X0376714Y0304800D02*
X0376886Y0304800D01*
X0377000Y0302343D02*
X0377000Y0279044D01*
X0377156Y0279200D02*
X0346120Y0279200D01*
X0345000Y0277575D02*
X0345000Y0276025D01*
X0346120Y0276000D02*
X0376819Y0276000D01*
X0377000Y0274556D02*
X0377000Y0268300D01*
X0373800Y0268300D02*
X0373800Y0303496D01*
X0372816Y0304800D02*
X0372312Y0304800D01*
X0370600Y0302316D02*
X0370600Y0268300D01*
X0367400Y0268300D02*
X0367400Y0287879D01*
X0368321Y0288800D02*
X0377800Y0288800D01*
X0377800Y0285600D02*
X0311537Y0285600D01*
X0311553Y0285658D02*
X0311553Y0287974D01*
X0307280Y0287974D01*
X0307280Y0284094D01*
X0309990Y0284094D01*
X0310448Y0284217D01*
X0310858Y0284454D01*
X0311193Y0284789D01*
X0311430Y0285200D01*
X0311553Y0285658D01*
X0309800Y0284094D02*
X0309800Y0283150D01*
X0313000Y0283150D02*
X0313000Y0304447D01*
X0312816Y0304800D02*
X0312800Y0304800D01*
X0315300Y0305300D02*
X0316800Y0306800D01*
X0316714Y0304800D02*
X0316886Y0304800D01*
X0315300Y0305300D02*
X0315300Y0292800D01*
X0314600Y0292000D02*
X0312953Y0292000D01*
X0312953Y0295200D02*
X0314600Y0295200D01*
X0314600Y0298400D02*
X0312929Y0298400D01*
X0312800Y0301600D02*
X0324048Y0301600D01*
X0322600Y0301000D02*
X0322600Y0302716D01*
X0321288Y0304800D02*
X0320784Y0304800D01*
X0319400Y0303179D02*
X0319400Y0301000D01*
X0316200Y0300601D02*
X0316200Y0302382D01*
X0300800Y0301600D02*
X0279552Y0301600D01*
X0280118Y0301834D02*
X0277965Y0300943D01*
X0275635Y0300943D01*
X0273482Y0301834D01*
X0271895Y0303421D01*
X0271887Y0303401D01*
X0270199Y0301713D01*
X0267993Y0300800D01*
X0265607Y0300800D01*
X0263401Y0301713D01*
X0261800Y0303315D01*
X0260199Y0301713D01*
X0258476Y0301000D01*
X0260791Y0301000D01*
X0263438Y0299904D01*
X0265463Y0297878D01*
X0266249Y0295981D01*
X0267035Y0297878D01*
X0269060Y0299904D01*
X0271706Y0301000D01*
X0274571Y0301000D01*
X0277217Y0299904D01*
X0279242Y0297878D01*
X0280339Y0295232D01*
X0280339Y0292368D01*
X0279689Y0290800D01*
X0290800Y0290800D01*
X0290800Y0292993D01*
X0291713Y0295199D01*
X0293401Y0296887D01*
X0296748Y0300233D01*
X0298953Y0301146D01*
X0300800Y0301146D01*
X0300800Y0307993D01*
X0300803Y0308000D01*
X0291097Y0308000D01*
X0291148Y0307844D01*
X0291257Y0307151D01*
X0291257Y0306886D01*
X0286886Y0306886D01*
X0286886Y0306714D01*
X0291257Y0306714D01*
X0291257Y0306449D01*
X0291148Y0305756D01*
X0290931Y0305089D01*
X0290612Y0304464D01*
X0290200Y0303896D01*
X0289704Y0303400D01*
X0289136Y0302988D01*
X0288511Y0302669D01*
X0287844Y0302452D01*
X0287151Y0302343D01*
X0286886Y0302343D01*
X0286886Y0306714D01*
X0286714Y0306714D01*
X0286714Y0302343D01*
X0286449Y0302343D01*
X0285756Y0302452D01*
X0285089Y0302669D01*
X0284464Y0302988D01*
X0283896Y0303400D01*
X0283400Y0303896D01*
X0282988Y0304464D01*
X0282669Y0305089D01*
X0282565Y0305411D01*
X0281766Y0303482D01*
X0280118Y0301834D01*
X0281000Y0302716D02*
X0281000Y0290800D01*
X0280186Y0292000D02*
X0290800Y0292000D01*
X0290600Y0290800D02*
X0290600Y0304447D01*
X0290784Y0304800D02*
X0300800Y0304800D01*
X0300200Y0308000D02*
X0300200Y0301146D01*
X0297000Y0300338D02*
X0297000Y0308000D01*
X0293800Y0308000D02*
X0293800Y0297285D01*
X0294915Y0298400D02*
X0278721Y0298400D01*
X0277800Y0299321D02*
X0277800Y0300943D01*
X0274600Y0300988D02*
X0274600Y0301371D01*
X0274048Y0301600D02*
X0269925Y0301600D01*
X0271400Y0300873D02*
X0271400Y0302915D01*
X0268200Y0300886D02*
X0268200Y0299044D01*
X0267556Y0298400D02*
X0264941Y0298400D01*
X0265000Y0298341D02*
X0265000Y0301051D01*
X0263675Y0301600D02*
X0259925Y0301600D01*
X0258600Y0301051D02*
X0258600Y0301000D01*
X0261800Y0300582D02*
X0261800Y0303315D01*
X0280339Y0295200D02*
X0291715Y0295200D01*
X0287400Y0290800D02*
X0287400Y0302382D01*
X0286886Y0304800D02*
X0286714Y0304800D01*
X0287400Y0306714D02*
X0287400Y0306886D01*
X0290600Y0306886D02*
X0290600Y0306714D01*
X0284200Y0303179D02*
X0284200Y0290800D01*
X0282816Y0304800D02*
X0282312Y0304800D01*
X0286800Y0316800D02*
X0285934Y0317666D01*
X0281800Y0317666D01*
X0282181Y0317600D02*
X0290647Y0317600D01*
X0282181Y0317600D01*
X0282181Y0318047D01*
X0285962Y0318047D01*
X0285962Y0320265D01*
X0285840Y0320723D01*
X0285802Y0320787D01*
X0285975Y0320859D01*
X0286875Y0321759D01*
X0286947Y0321934D01*
X0290817Y0321934D01*
X0290873Y0321800D01*
X0290647Y0321255D01*
X0290647Y0317600D01*
X0290600Y0317600D02*
X0290600Y0321934D01*
X0290647Y0320800D02*
X0285833Y0320800D01*
X0287400Y0321934D02*
X0287400Y0317600D01*
X0284200Y0317600D02*
X0284200Y0318047D01*
X0281800Y0325934D02*
X0296406Y0325934D01*
X0296800Y0325540D01*
X0296800Y0318060D02*
X0303540Y0318060D01*
X0303800Y0317800D01*
X0281800Y0325934D02*
X0281800Y0326800D01*
X0239000Y0290870D02*
X0239476Y0289722D01*
X0240740Y0288457D01*
X0238115Y0286399D01*
X0237771Y0286257D01*
X0237183Y0285669D01*
X0236529Y0285156D01*
X0236346Y0284832D01*
X0236084Y0284569D01*
X0235859Y0284027D01*
X0233993Y0284800D01*
X0221199Y0284800D01*
X0221430Y0285200D01*
X0221553Y0285658D01*
X0221553Y0287974D01*
X0217280Y0287974D01*
X0217280Y0288933D01*
X0221553Y0288933D01*
X0221553Y0289869D01*
X0221565Y0289875D01*
X0222466Y0290775D01*
X0222953Y0291951D01*
X0222953Y0298342D01*
X0222800Y0298711D01*
X0222800Y0304832D01*
X0222988Y0304464D01*
X0223400Y0303896D01*
X0223896Y0303400D01*
X0224464Y0302988D01*
X0225089Y0302669D01*
X0225756Y0302452D01*
X0226449Y0302343D01*
X0226714Y0302343D01*
X0226714Y0306714D01*
X0226886Y0306714D01*
X0226886Y0302343D01*
X0227151Y0302343D01*
X0227844Y0302452D01*
X0228511Y0302669D01*
X0229136Y0302988D01*
X0229704Y0303400D01*
X0230200Y0303896D01*
X0230612Y0304464D01*
X0230931Y0305089D01*
X0230968Y0305202D01*
X0231713Y0303401D01*
X0233401Y0301713D01*
X0235124Y0301000D01*
X0227163Y0301000D01*
X0225987Y0300513D01*
X0225087Y0299613D01*
X0224600Y0298437D01*
X0224600Y0289163D01*
X0225087Y0287987D01*
X0225987Y0287087D01*
X0227163Y0286600D01*
X0236437Y0286600D01*
X0237613Y0287087D01*
X0238513Y0287987D01*
X0239000Y0289163D01*
X0239000Y0290870D01*
X0239400Y0289904D02*
X0239400Y0287407D01*
X0238849Y0288800D02*
X0240397Y0288800D01*
X0237096Y0285600D02*
X0221537Y0285600D01*
X0223400Y0284800D02*
X0223400Y0303896D01*
X0223800Y0303800D02*
X0226800Y0306800D01*
X0226800Y0310800D01*
X0224800Y0312800D01*
X0215800Y0312800D01*
X0209800Y0306800D01*
X0196800Y0306800D01*
X0196886Y0306886D02*
X0201257Y0306886D01*
X0201257Y0307000D01*
X0210755Y0307000D01*
X0210800Y0307019D01*
X0210800Y0301146D01*
X0208953Y0301146D01*
X0206748Y0300233D01*
X0205060Y0298545D01*
X0203401Y0296887D01*
X0201713Y0295199D01*
X0200800Y0292993D01*
X0200800Y0284800D01*
X0197285Y0284800D01*
X0193887Y0288199D01*
X0192199Y0289887D01*
X0189993Y0290800D01*
X0189689Y0290800D01*
X0190339Y0292368D01*
X0190339Y0295232D01*
X0189242Y0297878D01*
X0187217Y0299904D01*
X0184571Y0301000D01*
X0181706Y0301000D01*
X0179060Y0299904D01*
X0177035Y0297878D01*
X0176249Y0295981D01*
X0175463Y0297878D01*
X0175300Y0298041D01*
X0175300Y0300927D01*
X0175607Y0300800D01*
X0177993Y0300800D01*
X0180199Y0301713D01*
X0181887Y0303401D01*
X0181895Y0303421D01*
X0183482Y0301834D01*
X0185635Y0300943D01*
X0187965Y0300943D01*
X0190118Y0301834D01*
X0191766Y0303482D01*
X0192565Y0305411D01*
X0192669Y0305089D01*
X0192988Y0304464D01*
X0193400Y0303896D01*
X0193896Y0303400D01*
X0194464Y0302988D01*
X0195089Y0302669D01*
X0195756Y0302452D01*
X0196449Y0302343D01*
X0196714Y0302343D01*
X0196714Y0306714D01*
X0192657Y0306714D01*
X0192657Y0306886D01*
X0196714Y0306886D01*
X0196714Y0306714D01*
X0196886Y0306714D01*
X0196886Y0306886D01*
X0196886Y0306714D02*
X0201257Y0306714D01*
X0201257Y0306449D01*
X0201148Y0305756D01*
X0200931Y0305089D01*
X0200612Y0304464D01*
X0200200Y0303896D01*
X0199704Y0303400D01*
X0199136Y0302988D01*
X0198511Y0302669D01*
X0197844Y0302452D01*
X0197151Y0302343D01*
X0196886Y0302343D01*
X0196886Y0306714D01*
X0197800Y0306714D02*
X0197800Y0306886D01*
X0196886Y0304800D02*
X0196714Y0304800D01*
X0197800Y0302445D02*
X0197800Y0284800D01*
X0196485Y0285600D02*
X0200800Y0285600D01*
X0200800Y0288800D02*
X0193285Y0288800D01*
X0194600Y0287485D02*
X0194600Y0302918D01*
X0192816Y0304800D02*
X0192312Y0304800D01*
X0191400Y0303116D02*
X0191400Y0290217D01*
X0190186Y0292000D02*
X0200800Y0292000D01*
X0201000Y0293476D02*
X0201000Y0305302D01*
X0200784Y0304800D02*
X0210800Y0304800D01*
X0210600Y0307000D02*
X0210600Y0301146D01*
X0210800Y0301600D02*
X0189552Y0301600D01*
X0188200Y0301040D02*
X0188200Y0298921D01*
X0188721Y0298400D02*
X0204915Y0298400D01*
X0205060Y0298545D02*
X0205060Y0298545D01*
X0204200Y0297685D02*
X0204200Y0307000D01*
X0207400Y0307000D02*
X0207400Y0300503D01*
X0203401Y0296887D02*
X0203401Y0296887D01*
X0201715Y0295200D02*
X0190339Y0295200D01*
X0185000Y0300822D02*
X0185000Y0301205D01*
X0184048Y0301600D02*
X0179925Y0301600D01*
X0178600Y0301051D02*
X0178600Y0299444D01*
X0177556Y0298400D02*
X0175300Y0298400D01*
X0175400Y0297941D02*
X0175400Y0300886D01*
X0181800Y0301000D02*
X0181800Y0303315D01*
X0194600Y0306714D02*
X0194600Y0306886D01*
X0201000Y0306886D02*
X0201000Y0306714D01*
X0201800Y0318060D02*
X0207540Y0318060D01*
X0207800Y0317800D01*
X0201800Y0325540D02*
X0201800Y0326800D01*
X0191800Y0326800D01*
X0191800Y0325934D01*
X0192181Y0318047D02*
X0195647Y0318047D01*
X0195647Y0317285D01*
X0192181Y0317285D01*
X0192181Y0318047D01*
X0192181Y0317600D02*
X0195647Y0317600D01*
X0196666Y0317666D02*
X0196800Y0317800D01*
X0196666Y0317666D02*
X0191800Y0317666D01*
X0194600Y0317285D02*
X0194600Y0318047D01*
X0217588Y0312800D02*
X0217869Y0313081D01*
X0218600Y0314845D01*
X0218600Y0321000D01*
X0231525Y0321000D01*
X0231120Y0320595D01*
X0230100Y0318133D01*
X0230100Y0315467D01*
X0230800Y0313777D01*
X0230800Y0308768D01*
X0230612Y0309136D01*
X0230200Y0309704D01*
X0229704Y0310200D01*
X0229136Y0310612D01*
X0228511Y0310931D01*
X0227844Y0311148D01*
X0227151Y0311257D01*
X0226886Y0311257D01*
X0226886Y0306886D01*
X0226714Y0306886D01*
X0226714Y0311257D01*
X0226449Y0311257D01*
X0225756Y0311148D01*
X0225089Y0310931D01*
X0224464Y0310612D01*
X0223896Y0310200D01*
X0223400Y0309704D01*
X0222988Y0309136D01*
X0222669Y0308511D01*
X0222632Y0308398D01*
X0221887Y0310199D01*
X0220199Y0311887D01*
X0217993Y0312800D01*
X0217588Y0312800D01*
X0218416Y0314400D02*
X0230542Y0314400D01*
X0230800Y0311200D02*
X0227514Y0311200D01*
X0226886Y0311200D02*
X0226714Y0311200D01*
X0226600Y0311257D02*
X0226600Y0321000D01*
X0223400Y0321000D02*
X0223400Y0309704D01*
X0220885Y0311200D02*
X0226086Y0311200D01*
X0226714Y0308000D02*
X0226886Y0308000D01*
X0226886Y0304800D02*
X0226714Y0304800D01*
X0226600Y0302343D02*
X0226600Y0300767D01*
X0224600Y0298400D02*
X0222929Y0298400D01*
X0222953Y0295200D02*
X0224600Y0295200D01*
X0224600Y0292000D02*
X0222953Y0292000D01*
X0223800Y0289800D02*
X0223800Y0303800D01*
X0222816Y0304800D02*
X0222800Y0304800D01*
X0222800Y0301600D02*
X0233675Y0301600D01*
X0233000Y0302115D02*
X0233000Y0301000D01*
X0229800Y0301000D02*
X0229800Y0303496D01*
X0230784Y0304800D02*
X0231134Y0304800D01*
X0229800Y0310104D02*
X0229800Y0321000D01*
X0231325Y0320800D02*
X0218600Y0320800D01*
X0220200Y0321000D02*
X0220200Y0311885D01*
X0218600Y0317600D02*
X0230100Y0317600D01*
X0223800Y0289800D02*
X0222454Y0288454D01*
X0216800Y0288454D01*
X0217280Y0288800D02*
X0224751Y0288800D01*
X0226600Y0286833D02*
X0226600Y0284800D01*
X0229800Y0284800D02*
X0229800Y0286600D01*
X0233000Y0286600D02*
X0233000Y0284800D01*
X0236200Y0284685D02*
X0236200Y0286600D01*
X0220200Y0287974D02*
X0220200Y0288933D01*
X0221800Y0272300D02*
X0208560Y0272300D01*
X0206800Y0270540D01*
X0199540Y0270540D01*
X0194800Y0265800D01*
X0135800Y0265800D01*
X0126800Y0256800D01*
X0126800Y0264300D02*
X0096800Y0264300D01*
X0094300Y0266800D01*
X0094300Y0267587D01*
X0091800Y0271800D02*
X0169300Y0271800D01*
X0172200Y0275123D02*
X0172200Y0278800D01*
X0171123Y0276200D02*
X0167477Y0276200D01*
X0167077Y0275800D01*
X0156120Y0275800D01*
X0156120Y0276025D01*
X0148205Y0276025D01*
X0148205Y0277575D01*
X0156120Y0277575D01*
X0156120Y0278800D01*
X0186315Y0278800D01*
X0191401Y0273713D01*
X0193607Y0272800D01*
X0173700Y0272800D01*
X0173700Y0273623D02*
X0171123Y0276200D01*
X0171323Y0276000D02*
X0189115Y0276000D01*
X0188200Y0276915D02*
X0188200Y0269800D01*
X0191400Y0269800D02*
X0191400Y0273715D01*
X0193607Y0272800D02*
X0196143Y0272800D01*
X0193143Y0269800D01*
X0173523Y0269800D01*
X0173700Y0269977D01*
X0173700Y0273623D01*
X0175400Y0269800D02*
X0175400Y0278800D01*
X0178600Y0278800D02*
X0178600Y0269800D01*
X0181800Y0269800D02*
X0181800Y0278800D01*
X0185000Y0278800D02*
X0185000Y0269800D01*
X0179800Y0262800D02*
X0142800Y0262800D01*
X0136800Y0256800D01*
X0136800Y0248800D01*
X0146800Y0248800D02*
X0146800Y0256800D01*
X0156800Y0256800D02*
X0156800Y0248572D01*
X0156800Y0245028D02*
X0156800Y0244300D01*
X0162500Y0244600D02*
X0162500Y0246685D01*
X0162500Y0250458D01*
X0162013Y0251634D01*
X0161113Y0252534D01*
X0160904Y0252621D01*
X0161766Y0253482D01*
X0161800Y0253565D01*
X0161834Y0253482D01*
X0163482Y0251834D01*
X0164661Y0251346D01*
X0164396Y0251193D01*
X0164060Y0250858D01*
X0163823Y0250448D01*
X0163701Y0249990D01*
X0163701Y0247280D01*
X0167580Y0247280D01*
X0167580Y0246320D01*
X0163701Y0246320D01*
X0163701Y0244600D01*
X0162500Y0244600D01*
X0162600Y0244600D02*
X0162600Y0252716D01*
X0162800Y0251800D02*
X0168060Y0246800D01*
X0167580Y0247200D02*
X0162500Y0247200D01*
X0162500Y0250400D02*
X0163811Y0250400D01*
X0165800Y0247280D02*
X0165800Y0246320D01*
X0175540Y0246800D02*
X0178800Y0246800D01*
X0181800Y0249800D01*
X0181800Y0260800D01*
X0179800Y0262800D01*
X0176800Y0256800D02*
X0166800Y0256800D01*
X0147028Y0245028D02*
X0146800Y0244800D01*
X0146600Y0235000D02*
X0146600Y0225800D01*
X0143400Y0225800D02*
X0143400Y0235000D01*
X0140200Y0235000D02*
X0140200Y0225800D01*
X0137000Y0225800D02*
X0137000Y0235000D01*
X0133800Y0235000D02*
X0133800Y0225800D01*
X0130600Y0225800D02*
X0130600Y0235000D01*
X0127400Y0235000D02*
X0127400Y0226857D01*
X0121343Y0221600D02*
X0119701Y0221600D01*
X0121000Y0221943D02*
X0121000Y0220301D01*
X0117800Y0222631D02*
X0117800Y0224577D01*
X0117577Y0224800D02*
X0095458Y0224800D01*
X0095458Y0224379D02*
X0095458Y0226167D01*
X0090858Y0226167D01*
X0090858Y0221567D01*
X0092646Y0221567D01*
X0095458Y0224379D01*
X0095400Y0224320D02*
X0095400Y0218413D01*
X0095413Y0218400D02*
X0109803Y0218400D01*
X0111400Y0221101D02*
X0111400Y0235000D01*
X0108200Y0235000D02*
X0108200Y0205800D01*
X0111400Y0205800D02*
X0111400Y0212499D01*
X0111899Y0212000D02*
X0093080Y0212000D01*
X0092200Y0211567D02*
X0092200Y0211167D01*
X0090858Y0212000D02*
X0090458Y0212000D01*
X0089000Y0211567D02*
X0089000Y0211167D01*
X0088237Y0212000D02*
X0086800Y0212000D01*
X0090458Y0208800D02*
X0090858Y0208800D01*
X0095013Y0208800D02*
X0149143Y0208800D01*
X0149800Y0208143D02*
X0149800Y0205800D01*
X0146600Y0205800D02*
X0146600Y0210647D01*
X0143400Y0211134D02*
X0143400Y0205800D01*
X0140200Y0205800D02*
X0140200Y0212499D01*
X0139701Y0212000D02*
X0141899Y0212000D01*
X0137000Y0210647D02*
X0137000Y0205800D01*
X0133800Y0205800D02*
X0133800Y0210969D01*
X0131899Y0212000D02*
X0119701Y0212000D01*
X0121000Y0213299D02*
X0121000Y0205800D01*
X0117800Y0205800D02*
X0117800Y0210969D01*
X0114600Y0210647D02*
X0114600Y0205800D01*
X0124200Y0205800D02*
X0124200Y0212323D01*
X0127400Y0212323D02*
X0127400Y0205800D01*
X0130600Y0205800D02*
X0130600Y0213299D01*
X0129647Y0216616D02*
X0125984Y0216616D01*
X0125984Y0216984D01*
X0129647Y0216984D01*
X0129647Y0216616D01*
X0127400Y0216616D02*
X0127400Y0216984D01*
X0125984Y0215200D02*
X0125616Y0215200D01*
X0114600Y0222953D02*
X0114600Y0235000D01*
X0117800Y0235000D02*
X0117800Y0229023D01*
X0117400Y0228000D02*
X0095458Y0228000D01*
X0095458Y0228355D02*
X0092646Y0231167D01*
X0090858Y0231167D01*
X0090858Y0226567D01*
X0090458Y0226567D01*
X0090458Y0226167D01*
X0085858Y0226167D01*
X0085858Y0224379D01*
X0088670Y0221567D01*
X0090458Y0221567D01*
X0090458Y0226167D01*
X0090858Y0226167D01*
X0090858Y0226567D01*
X0095458Y0226567D01*
X0095458Y0228355D01*
X0095400Y0228413D02*
X0095400Y0235000D01*
X0092200Y0235000D02*
X0092200Y0231167D01*
X0090458Y0231167D02*
X0088670Y0231167D01*
X0085858Y0228355D01*
X0085858Y0226567D01*
X0090458Y0226567D01*
X0090458Y0231167D01*
X0089000Y0231167D02*
X0089000Y0235000D01*
X0085800Y0235000D02*
X0085800Y0219993D01*
X0084193Y0221600D02*
X0088637Y0221600D01*
X0089000Y0221567D02*
X0089000Y0221167D01*
X0090458Y0221600D02*
X0090858Y0221600D01*
X0092200Y0221567D02*
X0092200Y0221167D01*
X0092680Y0221600D02*
X0111899Y0221600D01*
X0109803Y0215200D02*
X0095458Y0215200D01*
X0095400Y0214320D02*
X0095400Y0208413D01*
X0098600Y0208300D02*
X0098600Y0235000D01*
X0101800Y0235000D02*
X0101800Y0208300D01*
X0105000Y0207257D02*
X0105000Y0235000D01*
X0105000Y0244600D02*
X0105000Y0246631D01*
X0105199Y0246713D02*
X0106887Y0248401D01*
X0107800Y0250607D01*
X0107800Y0252800D01*
X0110143Y0252800D01*
X0117400Y0245543D01*
X0117400Y0244977D01*
X0117777Y0244600D01*
X0077845Y0244600D01*
X0076081Y0243869D01*
X0074731Y0242519D01*
X0070096Y0237884D01*
X0070096Y0240187D01*
X0069973Y0240644D01*
X0069736Y0241055D01*
X0069401Y0241390D01*
X0068991Y0241627D01*
X0068533Y0241750D01*
X0066217Y0241750D01*
X0066217Y0237280D01*
X0065257Y0237280D01*
X0065257Y0241750D01*
X0063140Y0241750D01*
X0063135Y0241762D01*
X0062235Y0242662D01*
X0061059Y0243150D01*
X0055500Y0243150D01*
X0055875Y0243281D01*
X0057014Y0243829D01*
X0058083Y0244501D01*
X0059071Y0245289D01*
X0059965Y0246182D01*
X0060752Y0247170D01*
X0061425Y0248240D01*
X0061973Y0249378D01*
X0062390Y0250571D01*
X0062671Y0251803D01*
X0062794Y0252890D01*
X0052364Y0252890D01*
X0052364Y0254490D01*
X0062794Y0254490D01*
X0062671Y0255577D01*
X0062390Y0256809D01*
X0061973Y0258001D01*
X0061425Y0259140D01*
X0061061Y0259719D01*
X0061710Y0259545D01*
X0065040Y0259545D01*
X0068257Y0260407D01*
X0071141Y0262072D01*
X0073496Y0264427D01*
X0074624Y0266380D01*
X0074624Y0264786D01*
X0075111Y0263609D01*
X0076011Y0262709D01*
X0077187Y0262222D01*
X0081413Y0262222D01*
X0081800Y0262382D01*
X0082187Y0262222D01*
X0083221Y0262222D01*
X0087643Y0257800D01*
X0068107Y0257800D01*
X0065901Y0256887D01*
X0064213Y0255199D01*
X0063300Y0252993D01*
X0063300Y0250607D01*
X0064213Y0248401D01*
X0065901Y0246713D01*
X0068107Y0245800D01*
X0102993Y0245800D01*
X0105199Y0246713D01*
X0105685Y0247200D02*
X0115743Y0247200D01*
X0114600Y0248343D02*
X0114600Y0244600D01*
X0111400Y0244600D02*
X0111400Y0251543D01*
X0112543Y0250400D02*
X0107714Y0250400D01*
X0108200Y0252800D02*
X0108200Y0244600D01*
X0101800Y0244600D02*
X0101800Y0245800D01*
X0098600Y0245800D02*
X0098600Y0244600D01*
X0095400Y0244600D02*
X0095400Y0245800D01*
X0092200Y0245800D02*
X0092200Y0244600D01*
X0089000Y0244600D02*
X0089000Y0245800D01*
X0085800Y0245800D02*
X0085800Y0244600D01*
X0082600Y0244600D02*
X0082600Y0245800D01*
X0079400Y0245800D02*
X0079400Y0244600D01*
X0076397Y0244000D02*
X0057286Y0244000D01*
X0057000Y0243822D02*
X0057000Y0243150D01*
X0060200Y0243150D02*
X0060200Y0246478D01*
X0060771Y0247200D02*
X0065415Y0247200D01*
X0066600Y0246424D02*
X0066600Y0241750D01*
X0066217Y0240800D02*
X0065257Y0240800D01*
X0063400Y0241750D02*
X0063400Y0250365D01*
X0063386Y0250400D02*
X0062330Y0250400D01*
X0063400Y0253235D02*
X0063400Y0259545D01*
X0062392Y0256800D02*
X0065815Y0256800D01*
X0066600Y0257176D02*
X0066600Y0259963D01*
X0066739Y0260000D02*
X0085443Y0260000D01*
X0085800Y0259643D02*
X0085800Y0257800D01*
X0082600Y0257800D02*
X0082600Y0262222D01*
X0079400Y0262222D02*
X0079400Y0257800D01*
X0076200Y0257800D02*
X0076200Y0262631D01*
X0075520Y0263200D02*
X0072269Y0263200D01*
X0073000Y0263931D02*
X0073000Y0257800D01*
X0069800Y0257800D02*
X0069800Y0261298D01*
X0063551Y0253600D02*
X0052364Y0253600D01*
X0051564Y0253690D02*
X0036997Y0253690D01*
X0036800Y0253493D01*
X0036984Y0253600D02*
X0050764Y0253600D01*
X0050764Y0252890D02*
X0042880Y0252890D01*
X0042900Y0253013D01*
X0042900Y0253309D01*
X0036984Y0253309D01*
X0036984Y0253677D01*
X0036616Y0253677D01*
X0036616Y0253309D01*
X0030700Y0253309D01*
X0030700Y0253013D01*
X0030850Y0252064D01*
X0031147Y0251151D01*
X0031583Y0250296D01*
X0032147Y0249519D01*
X0032826Y0248840D01*
X0033603Y0248276D01*
X0034458Y0247840D01*
X0035372Y0247543D01*
X0036320Y0247393D01*
X0036616Y0247393D01*
X0036616Y0253309D01*
X0036984Y0253309D01*
X0036984Y0247393D01*
X0037280Y0247393D01*
X0038228Y0247543D01*
X0039142Y0247840D01*
X0039997Y0248276D01*
X0040774Y0248840D01*
X0041206Y0249272D01*
X0041703Y0248240D01*
X0042375Y0247170D01*
X0043163Y0246182D01*
X0044045Y0245300D01*
X0041820Y0245300D01*
X0041048Y0246072D01*
X0038292Y0247213D01*
X0035308Y0247213D01*
X0032552Y0246072D01*
X0030442Y0243962D01*
X0029300Y0241205D01*
X0029300Y0238222D01*
X0030442Y0235465D01*
X0030800Y0235107D01*
X0030800Y0220787D01*
X0026793Y0220787D01*
X0026001Y0220459D01*
X0026001Y0281800D01*
X0034292Y0281800D01*
X0033627Y0281382D01*
X0032639Y0280595D01*
X0031746Y0279701D01*
X0030958Y0278713D01*
X0030286Y0277644D01*
X0029738Y0276505D01*
X0029320Y0275313D01*
X0029039Y0274081D01*
X0028917Y0272994D01*
X0039346Y0272994D01*
X0039346Y0271394D01*
X0028917Y0271394D01*
X0029039Y0270306D01*
X0029320Y0269075D01*
X0029738Y0267882D01*
X0030286Y0266744D01*
X0030958Y0265674D01*
X0031746Y0264686D01*
X0032639Y0263793D01*
X0033627Y0263005D01*
X0034697Y0262333D01*
X0035835Y0261785D01*
X0037027Y0261367D01*
X0038259Y0261086D01*
X0039346Y0260964D01*
X0039346Y0271394D01*
X0040946Y0271394D01*
X0040946Y0260964D01*
X0042034Y0261086D01*
X0043265Y0261367D01*
X0043370Y0261404D01*
X0043163Y0261197D01*
X0042375Y0260209D01*
X0041703Y0259140D01*
X0041155Y0258001D01*
X0041094Y0257826D01*
X0040774Y0258146D01*
X0039997Y0258710D01*
X0039142Y0259146D01*
X0038228Y0259443D01*
X0037280Y0259593D01*
X0036984Y0259593D01*
X0036984Y0253677D01*
X0042900Y0253677D01*
X0042900Y0253973D01*
X0042818Y0254490D01*
X0050764Y0254490D01*
X0050764Y0264920D01*
X0049677Y0264797D01*
X0048445Y0264516D01*
X0048340Y0264479D01*
X0048547Y0264686D01*
X0049335Y0265674D01*
X0050007Y0266744D01*
X0050555Y0267882D01*
X0050973Y0269075D01*
X0051038Y0269363D01*
X0051588Y0267311D01*
X0053011Y0264847D01*
X0052364Y0264920D01*
X0052364Y0254490D01*
X0050764Y0254490D01*
X0050764Y0252890D01*
X0050600Y0252890D02*
X0050600Y0254490D01*
X0050764Y0256800D02*
X0052364Y0256800D01*
X0053800Y0254490D02*
X0053800Y0252890D01*
X0057000Y0252890D02*
X0057000Y0254490D01*
X0060200Y0254490D02*
X0060200Y0252890D01*
X0052364Y0260000D02*
X0050764Y0260000D01*
X0050764Y0263200D02*
X0052364Y0263200D01*
X0050600Y0264901D02*
X0050600Y0268010D01*
X0049791Y0266400D02*
X0052114Y0266400D01*
X0040946Y0266400D02*
X0039346Y0266400D01*
X0039346Y0263200D02*
X0040946Y0263200D01*
X0041000Y0260970D02*
X0041000Y0257920D01*
X0042244Y0260000D02*
X0026001Y0260000D01*
X0026001Y0256800D02*
X0031663Y0256800D01*
X0031583Y0256690D02*
X0031147Y0255834D01*
X0030850Y0254921D01*
X0030700Y0253973D01*
X0030700Y0253677D01*
X0036616Y0253677D01*
X0036616Y0259593D01*
X0036320Y0259593D01*
X0035372Y0259443D01*
X0034458Y0259146D01*
X0033603Y0258710D01*
X0032826Y0258146D01*
X0032147Y0257467D01*
X0031583Y0256690D01*
X0031400Y0256331D02*
X0031400Y0265120D01*
X0030502Y0266400D02*
X0026001Y0266400D01*
X0026001Y0263200D02*
X0033382Y0263200D01*
X0034600Y0262394D02*
X0034600Y0259192D01*
X0036616Y0256800D02*
X0036984Y0256800D01*
X0037800Y0259511D02*
X0037800Y0261191D01*
X0037800Y0253677D02*
X0037800Y0253309D01*
X0036616Y0253600D02*
X0026001Y0253600D01*
X0026001Y0250400D02*
X0031530Y0250400D01*
X0031400Y0250655D02*
X0031400Y0244920D01*
X0030480Y0244000D02*
X0026001Y0244000D01*
X0026001Y0240800D02*
X0029300Y0240800D01*
X0029557Y0237600D02*
X0026001Y0237600D01*
X0026001Y0234400D02*
X0030800Y0234400D01*
X0030800Y0231200D02*
X0026001Y0231200D01*
X0026001Y0228000D02*
X0030800Y0228000D01*
X0030800Y0224800D02*
X0026001Y0224800D01*
X0026001Y0221600D02*
X0030800Y0221600D01*
X0028200Y0220787D02*
X0028200Y0281800D01*
X0031400Y0281800D02*
X0031400Y0279268D01*
X0031346Y0279200D02*
X0026001Y0279200D01*
X0026001Y0276000D02*
X0029561Y0276000D01*
X0031400Y0272994D02*
X0031400Y0271394D01*
X0029200Y0269600D02*
X0026001Y0269600D01*
X0026001Y0272800D02*
X0039346Y0272800D01*
X0037800Y0272994D02*
X0037800Y0271394D01*
X0039346Y0269600D02*
X0040946Y0269600D01*
X0034600Y0271394D02*
X0034600Y0272994D01*
X0044200Y0254490D02*
X0044200Y0252890D01*
X0047400Y0252890D02*
X0047400Y0254490D01*
X0041000Y0253677D02*
X0041000Y0253309D01*
X0041000Y0249066D02*
X0041000Y0246092D01*
X0042356Y0247200D02*
X0038324Y0247200D01*
X0037800Y0247213D02*
X0037800Y0247475D01*
X0035276Y0247200D02*
X0026001Y0247200D01*
X0031400Y0253309D02*
X0031400Y0253677D01*
X0034600Y0253677D02*
X0034600Y0253309D01*
X0036616Y0250400D02*
X0036984Y0250400D01*
X0034600Y0247794D02*
X0034600Y0246920D01*
X0042800Y0232315D02*
X0043401Y0231713D01*
X0045607Y0230800D01*
X0053823Y0230800D01*
X0054667Y0230450D01*
X0061059Y0230450D01*
X0062235Y0230938D01*
X0063135Y0231838D01*
X0063140Y0231850D01*
X0065257Y0231850D01*
X0065257Y0236320D01*
X0066217Y0236320D01*
X0066217Y0231850D01*
X0067000Y0231850D01*
X0067000Y0223845D01*
X0067731Y0222081D01*
X0069081Y0220731D01*
X0073012Y0216800D01*
X0068994Y0216800D01*
X0068994Y0217824D01*
X0068871Y0218282D01*
X0068634Y0218693D01*
X0068299Y0219028D01*
X0067888Y0219265D01*
X0067431Y0219387D01*
X0060094Y0219387D01*
X0060094Y0216800D01*
X0058545Y0216800D01*
X0058545Y0219387D01*
X0051209Y0219387D01*
X0050751Y0219265D01*
X0050340Y0219028D01*
X0050005Y0218693D01*
X0049768Y0218282D01*
X0049646Y0217824D01*
X0049646Y0216800D01*
X0046378Y0216800D01*
X0046378Y0218224D01*
X0045891Y0219400D01*
X0044991Y0220300D01*
X0043814Y0220787D01*
X0042800Y0220787D01*
X0042800Y0232315D01*
X0042800Y0231200D02*
X0044641Y0231200D01*
X0044200Y0231383D02*
X0044200Y0220628D01*
X0042800Y0221600D02*
X0068212Y0221600D01*
X0069800Y0220012D02*
X0069800Y0216800D01*
X0068994Y0216614D02*
X0074329Y0216614D01*
X0073000Y0216800D02*
X0073000Y0216812D01*
X0071412Y0218400D02*
X0068803Y0218400D01*
X0066600Y0219387D02*
X0066600Y0231850D01*
X0067000Y0231200D02*
X0062497Y0231200D01*
X0063400Y0231850D02*
X0063400Y0219387D01*
X0060200Y0219387D02*
X0060200Y0230450D01*
X0057000Y0230450D02*
X0057000Y0219387D01*
X0058545Y0218400D02*
X0060094Y0218400D01*
X0060095Y0215015D02*
X0075258Y0215015D01*
X0075972Y0213417D02*
X0068994Y0213417D01*
X0068994Y0211818D02*
X0077570Y0211818D01*
X0076874Y0210220D02*
X0068655Y0210220D01*
X0075276Y0208621D02*
X0042000Y0208621D01*
X0042055Y0207023D02*
X0075258Y0207023D01*
X0075258Y0205424D02*
X0041859Y0205424D01*
X0041180Y0203826D02*
X0073735Y0203826D01*
X0072700Y0202227D02*
X0039349Y0202227D01*
X0038024Y0200629D02*
X0072700Y0200629D01*
X0080658Y0196367D02*
X0085725Y0191300D01*
X0094300Y0191300D01*
X0099800Y0196800D01*
X0099800Y0199800D01*
X0101300Y0191300D02*
X0096800Y0186800D01*
X0096800Y0184300D01*
X0093800Y0181300D01*
X0084800Y0181300D01*
X0080658Y0185442D01*
X0080658Y0186367D01*
X0065737Y0191800D02*
X0064300Y0191800D01*
X0050757Y0179848D02*
X0030800Y0179848D01*
X0030800Y0178250D02*
X0050200Y0178250D01*
X0050200Y0176651D02*
X0030800Y0176651D01*
X0030800Y0175053D02*
X0050200Y0175053D01*
X0047600Y0162265D02*
X0046000Y0162265D01*
X0046000Y0160666D02*
X0047600Y0160666D01*
X0047600Y0159068D02*
X0046000Y0159068D01*
X0046000Y0157469D02*
X0047600Y0157469D01*
X0047600Y0155870D02*
X0046000Y0155870D01*
X0046000Y0154272D02*
X0047600Y0154272D01*
X0047600Y0152673D02*
X0046000Y0152673D01*
X0046800Y0151800D02*
X0047800Y0151800D01*
X0049800Y0153800D01*
X0050354Y0151075D02*
X0047600Y0151075D01*
X0047600Y0149476D02*
X0046000Y0149476D01*
X0046000Y0147878D02*
X0047600Y0147878D01*
X0047600Y0146279D02*
X0046000Y0146279D01*
X0046000Y0144681D02*
X0047600Y0144681D01*
X0036564Y0144300D02*
X0036564Y0141319D01*
X0031996Y0141319D01*
X0031538Y0141442D01*
X0031128Y0141679D01*
X0030800Y0142006D01*
X0030800Y0119840D01*
X0031291Y0120331D01*
X0032173Y0120696D01*
X0033000Y0120696D01*
X0033000Y0123374D01*
X0035226Y0125600D01*
X0038374Y0125600D01*
X0040600Y0123374D01*
X0040600Y0120226D01*
X0040507Y0120133D01*
X0040984Y0119656D01*
X0041350Y0118773D01*
X0041350Y0117492D01*
X0041629Y0117772D01*
X0042512Y0118137D01*
X0051340Y0118137D01*
X0052222Y0117772D01*
X0052898Y0117096D01*
X0053263Y0116214D01*
X0053263Y0107386D01*
X0052898Y0106503D01*
X0052222Y0105828D01*
X0051340Y0105463D01*
X0042512Y0105463D01*
X0041629Y0105828D01*
X0041350Y0106108D01*
X0041350Y0104827D01*
X0040984Y0103944D01*
X0040309Y0103269D01*
X0039800Y0103058D01*
X0039800Y0093178D01*
X0039976Y0093002D01*
X0040342Y0092120D01*
X0040342Y0082504D01*
X0039976Y0081622D01*
X0039301Y0080946D01*
X0038419Y0080581D01*
X0031165Y0080581D01*
X0030283Y0080946D01*
X0029608Y0081622D01*
X0029243Y0082504D01*
X0029243Y0092120D01*
X0029608Y0093002D01*
X0030283Y0093677D01*
X0031165Y0094043D01*
X0031800Y0094043D01*
X0031800Y0103058D01*
X0031291Y0103269D01*
X0030616Y0103944D01*
X0030589Y0104009D01*
X0029471Y0104472D01*
X0025201Y0108742D01*
X0025201Y0055495D01*
X0025241Y0055644D01*
X0025478Y0056055D01*
X0025813Y0056390D01*
X0026223Y0056627D01*
X0026681Y0056750D01*
X0034017Y0056750D01*
X0034017Y0052575D01*
X0035567Y0052575D01*
X0035567Y0056750D01*
X0042903Y0056750D01*
X0043361Y0056627D01*
X0043771Y0056390D01*
X0044106Y0056055D01*
X0044343Y0055644D01*
X0044466Y0055187D01*
X0044466Y0052575D01*
X0035567Y0052575D01*
X0035567Y0051025D01*
X0035567Y0046850D01*
X0042903Y0046850D01*
X0043361Y0046973D01*
X0043771Y0047210D01*
X0044106Y0047545D01*
X0044343Y0047956D01*
X0044466Y0048413D01*
X0044466Y0051025D01*
X0035567Y0051025D01*
X0034017Y0051025D01*
X0034017Y0046850D01*
X0026681Y0046850D01*
X0026223Y0046973D01*
X0025813Y0047210D01*
X0025478Y0047545D01*
X0025241Y0047956D01*
X0025201Y0048105D01*
X0025201Y0025799D01*
X0025201Y0026391D02*
X0032383Y0026391D01*
X0032383Y0024793D02*
X0033343Y0024793D01*
X0033343Y0023194D02*
X0032383Y0023194D01*
X0028563Y0023194D02*
X0027805Y0023194D01*
X0028504Y0024793D02*
X0026207Y0024793D01*
X0025201Y0027990D02*
X0028504Y0027990D01*
X0028504Y0029588D02*
X0025201Y0029588D01*
X0025201Y0031187D02*
X0028995Y0031187D01*
X0032383Y0031187D02*
X0033343Y0031187D01*
X0033343Y0029588D02*
X0032383Y0029588D01*
X0032383Y0027990D02*
X0033343Y0027990D01*
X0040737Y0026800D02*
X0041800Y0026800D01*
X0042800Y0032785D02*
X0025201Y0032785D01*
X0025201Y0034384D02*
X0042800Y0034384D01*
X0042800Y0035982D02*
X0025201Y0035982D01*
X0025201Y0037581D02*
X0042800Y0037581D01*
X0042800Y0039179D02*
X0025201Y0039179D01*
X0025201Y0040778D02*
X0042800Y0040778D01*
X0042800Y0042376D02*
X0025201Y0042376D01*
X0025201Y0043975D02*
X0043371Y0043975D01*
X0044916Y0045573D02*
X0025201Y0045573D01*
X0025201Y0047172D02*
X0025879Y0047172D01*
X0034017Y0047172D02*
X0035567Y0047172D01*
X0035567Y0048770D02*
X0034017Y0048770D01*
X0034017Y0050369D02*
X0035567Y0050369D01*
X0035567Y0051967D02*
X0048534Y0051967D01*
X0048534Y0050369D02*
X0044466Y0050369D01*
X0044466Y0048770D02*
X0048113Y0048770D01*
X0046515Y0047172D02*
X0043705Y0047172D01*
X0044466Y0053566D02*
X0048534Y0053566D01*
X0048534Y0055164D02*
X0044466Y0055164D01*
X0049353Y0056763D02*
X0025201Y0056763D01*
X0025201Y0058361D02*
X0055989Y0058361D01*
X0055989Y0059960D02*
X0025201Y0059960D01*
X0025201Y0061558D02*
X0055989Y0061558D01*
X0055989Y0063157D02*
X0025201Y0063157D01*
X0025201Y0064755D02*
X0055989Y0064755D01*
X0055989Y0066354D02*
X0025201Y0066354D01*
X0025201Y0067952D02*
X0055989Y0067952D01*
X0055989Y0069551D02*
X0025201Y0069551D01*
X0025201Y0071149D02*
X0055989Y0071149D01*
X0055989Y0072748D02*
X0025201Y0072748D01*
X0025201Y0074346D02*
X0055989Y0074346D01*
X0055989Y0075945D02*
X0025201Y0075945D01*
X0025201Y0077543D02*
X0055989Y0077543D01*
X0055989Y0079142D02*
X0025201Y0079142D01*
X0025201Y0080740D02*
X0030780Y0080740D01*
X0029311Y0082339D02*
X0025201Y0082339D01*
X0025201Y0083937D02*
X0029243Y0083937D01*
X0029243Y0085536D02*
X0025201Y0085536D01*
X0025201Y0087134D02*
X0029243Y0087134D01*
X0029243Y0088733D02*
X0025201Y0088733D01*
X0025201Y0090332D02*
X0029243Y0090332D01*
X0029243Y0091930D02*
X0025201Y0091930D01*
X0025201Y0093529D02*
X0030134Y0093529D01*
X0031800Y0095127D02*
X0025201Y0095127D01*
X0025201Y0096726D02*
X0031800Y0096726D01*
X0031800Y0098324D02*
X0025201Y0098324D01*
X0025201Y0099923D02*
X0031800Y0099923D01*
X0031800Y0101521D02*
X0025201Y0101521D01*
X0025201Y0103120D02*
X0031652Y0103120D01*
X0029225Y0104718D02*
X0025201Y0104718D01*
X0025201Y0106317D02*
X0027627Y0106317D01*
X0026028Y0107915D02*
X0025201Y0107915D01*
X0030800Y0120703D02*
X0033000Y0120703D01*
X0033000Y0122302D02*
X0030800Y0122302D01*
X0030800Y0123900D02*
X0033526Y0123900D01*
X0035125Y0125499D02*
X0030800Y0125499D01*
X0030800Y0127097D02*
X0047047Y0127097D01*
X0047090Y0125499D02*
X0038475Y0125499D01*
X0040074Y0123900D02*
X0057447Y0123900D01*
X0058800Y0122302D02*
X0040600Y0122302D01*
X0040600Y0120703D02*
X0058925Y0120703D01*
X0059838Y0119105D02*
X0041212Y0119105D01*
X0041350Y0117506D02*
X0041364Y0117506D01*
X0044800Y0123800D02*
X0044800Y0128800D01*
X0051320Y0127097D02*
X0052280Y0127097D01*
X0052280Y0125499D02*
X0051320Y0125499D01*
X0052488Y0117506D02*
X0057112Y0117506D01*
X0056337Y0115908D02*
X0053263Y0115908D01*
X0053263Y0114309D02*
X0056337Y0114309D01*
X0056337Y0112711D02*
X0053263Y0112711D01*
X0053263Y0111112D02*
X0056337Y0111112D01*
X0056337Y0109514D02*
X0053263Y0109514D01*
X0053263Y0107915D02*
X0056337Y0107915D01*
X0056889Y0106317D02*
X0052711Y0106317D01*
X0041305Y0104718D02*
X0068600Y0104718D01*
X0068600Y0103120D02*
X0039948Y0103120D01*
X0039800Y0101521D02*
X0068600Y0101521D01*
X0068600Y0099923D02*
X0039800Y0099923D01*
X0039800Y0098324D02*
X0068600Y0098324D01*
X0068600Y0096726D02*
X0039800Y0096726D01*
X0039800Y0095127D02*
X0068600Y0095127D01*
X0068600Y0093529D02*
X0064647Y0093529D01*
X0065539Y0091930D02*
X0068600Y0091930D01*
X0068600Y0083943D02*
X0068600Y0056426D01*
X0068041Y0056984D01*
X0067159Y0057350D01*
X0063989Y0057350D01*
X0063989Y0080736D01*
X0064498Y0080946D01*
X0065173Y0081622D01*
X0065539Y0082504D01*
X0065539Y0083312D01*
X0067107Y0083312D01*
X0068578Y0083921D01*
X0068600Y0083943D01*
X0068600Y0083937D02*
X0068594Y0083937D01*
X0068600Y0082339D02*
X0065470Y0082339D01*
X0064001Y0080740D02*
X0068600Y0080740D01*
X0068600Y0079142D02*
X0063989Y0079142D01*
X0063989Y0077543D02*
X0068600Y0077543D01*
X0068600Y0075945D02*
X0063989Y0075945D01*
X0063989Y0074346D02*
X0068600Y0074346D01*
X0068600Y0072748D02*
X0063989Y0072748D01*
X0063989Y0071149D02*
X0068600Y0071149D01*
X0068600Y0069551D02*
X0063989Y0069551D01*
X0063989Y0067952D02*
X0068600Y0067952D01*
X0068600Y0066354D02*
X0063989Y0066354D01*
X0063989Y0064755D02*
X0068600Y0064755D01*
X0068600Y0063157D02*
X0063989Y0063157D01*
X0063989Y0061558D02*
X0068600Y0061558D01*
X0068600Y0059960D02*
X0063989Y0059960D01*
X0063989Y0058361D02*
X0068600Y0058361D01*
X0068600Y0056763D02*
X0068263Y0056763D01*
X0068600Y0047174D02*
X0068600Y0045663D01*
X0069087Y0044487D01*
X0069987Y0043587D01*
X0074987Y0038587D01*
X0075258Y0038475D01*
X0075258Y0034130D01*
X0075710Y0033678D01*
X0074534Y0033191D01*
X0072143Y0030800D01*
X0066782Y0030800D01*
X0066124Y0032389D01*
X0064689Y0033824D01*
X0062814Y0034600D01*
X0060786Y0034600D01*
X0058911Y0033824D01*
X0057476Y0032389D01*
X0056800Y0030756D01*
X0056124Y0032389D01*
X0054689Y0033824D01*
X0052814Y0034600D01*
X0050800Y0034600D01*
X0050800Y0040143D01*
X0056907Y0046250D01*
X0067159Y0046250D01*
X0068041Y0046616D01*
X0068600Y0047174D01*
X0068600Y0047172D02*
X0068597Y0047172D01*
X0068637Y0045573D02*
X0056230Y0045573D01*
X0054632Y0043975D02*
X0069600Y0043975D01*
X0071198Y0042376D02*
X0053033Y0042376D01*
X0051435Y0040778D02*
X0072797Y0040778D01*
X0074395Y0039179D02*
X0050800Y0039179D01*
X0050800Y0037581D02*
X0075258Y0037581D01*
X0075258Y0035982D02*
X0050800Y0035982D01*
X0053337Y0034384D02*
X0060263Y0034384D01*
X0057873Y0032785D02*
X0055727Y0032785D01*
X0056622Y0031187D02*
X0056978Y0031187D01*
X0051800Y0026800D02*
X0051800Y0020800D01*
X0052800Y0019800D01*
X0065800Y0019800D01*
X0068800Y0022800D01*
X0076300Y0022800D01*
X0079300Y0025800D01*
X0099800Y0025800D01*
X0108800Y0034800D01*
X0128060Y0034800D01*
X0123223Y0029600D02*
X0109257Y0029600D01*
X0108200Y0028543D02*
X0108200Y0020800D01*
X0105000Y0020800D02*
X0105000Y0025343D01*
X0106057Y0026400D02*
X0123504Y0026400D01*
X0123504Y0026419D02*
X0123504Y0024201D01*
X0123627Y0023743D01*
X0123864Y0023333D01*
X0124199Y0022997D01*
X0124609Y0022760D01*
X0125067Y0022638D01*
X0127285Y0022638D01*
X0127285Y0026419D01*
X0123504Y0026419D01*
X0124200Y0026419D02*
X0124200Y0027181D01*
X0123504Y0027181D02*
X0127285Y0027181D01*
X0127285Y0026419D01*
X0128047Y0026419D01*
X0128047Y0022638D01*
X0130265Y0022638D01*
X0130723Y0022760D01*
X0130787Y0022798D01*
X0130859Y0022625D01*
X0131759Y0021725D01*
X0132935Y0021238D01*
X0138074Y0021238D01*
X0138512Y0020800D01*
X0086800Y0020800D01*
X0086800Y0021800D01*
X0100596Y0021800D01*
X0102066Y0022409D01*
X0110457Y0030800D01*
X0122471Y0030800D01*
X0122788Y0030035D01*
X0123504Y0029319D01*
X0123504Y0027181D01*
X0127285Y0026400D02*
X0128047Y0026400D01*
X0127666Y0026800D02*
X0116800Y0030800D01*
X0117800Y0030800D02*
X0117800Y0020800D01*
X0114600Y0020800D02*
X0114600Y0030800D01*
X0111400Y0030800D02*
X0111400Y0020800D01*
X0102857Y0023200D02*
X0123996Y0023200D01*
X0124200Y0022997D02*
X0124200Y0020800D01*
X0121000Y0020800D02*
X0121000Y0030800D01*
X0127400Y0026419D02*
X0127400Y0020800D01*
X0127285Y0023200D02*
X0128047Y0023200D01*
X0130600Y0022727D02*
X0130600Y0020800D01*
X0133800Y0020800D02*
X0133800Y0021238D01*
X0137000Y0021238D02*
X0137000Y0020800D01*
X0135934Y0026800D02*
X0135540Y0027194D01*
X0116986Y0048774D02*
X0112312Y0044100D01*
X0105257Y0044100D01*
X0110957Y0049800D01*
X0116986Y0049800D01*
X0116986Y0048774D01*
X0116986Y0048800D02*
X0109957Y0048800D01*
X0111400Y0049800D02*
X0111400Y0044100D01*
X0113812Y0045600D02*
X0106757Y0045600D01*
X0108200Y0047043D02*
X0108200Y0044100D01*
X0114600Y0046388D02*
X0114600Y0049800D01*
X0121800Y0046800D02*
X0123729Y0046800D01*
X0109300Y0053800D02*
X0138800Y0053800D01*
X0146800Y0061800D01*
X0148454Y0061800D01*
X0155146Y0061800D02*
X0156800Y0061800D01*
X0156800Y0054800D01*
X0161800Y0049800D01*
X0156800Y0061800D02*
X0151800Y0066800D01*
X0141800Y0066800D01*
X0136800Y0061800D01*
X0135146Y0061800D01*
X0139871Y0046800D02*
X0141800Y0046800D01*
X0109300Y0053800D02*
X0096800Y0041300D01*
X0076800Y0041300D01*
X0075258Y0034384D02*
X0063337Y0034384D01*
X0065727Y0032785D02*
X0074128Y0032785D01*
X0072530Y0031187D02*
X0066622Y0031187D01*
X0058808Y0051800D02*
X0056800Y0051800D01*
X0035567Y0053566D02*
X0034017Y0053566D01*
X0034017Y0055164D02*
X0035567Y0055164D01*
X0038804Y0080740D02*
X0055977Y0080740D01*
X0054508Y0082339D02*
X0040273Y0082339D01*
X0040342Y0083937D02*
X0054439Y0083937D01*
X0054439Y0085536D02*
X0040342Y0085536D01*
X0040342Y0087134D02*
X0054439Y0087134D01*
X0054439Y0088733D02*
X0040342Y0088733D01*
X0040342Y0090332D02*
X0054439Y0090332D01*
X0054439Y0091930D02*
X0040342Y0091930D01*
X0039800Y0093529D02*
X0055331Y0093529D01*
X0068459Y0106317D02*
X0068600Y0106317D01*
X0090658Y0096367D02*
X0091800Y0096800D01*
X0176800Y0096800D01*
X0175400Y0092400D02*
X0175400Y0090800D01*
X0172200Y0090800D02*
X0172200Y0092800D01*
X0169000Y0092800D02*
X0169000Y0090800D01*
X0165800Y0090800D02*
X0165800Y0092800D01*
X0162600Y0092800D02*
X0162600Y0090800D01*
X0159400Y0090800D02*
X0159400Y0092800D01*
X0156200Y0092800D02*
X0156200Y0090800D01*
X0153000Y0091257D02*
X0153000Y0092800D01*
X0153000Y0100800D02*
X0153000Y0105800D01*
X0156200Y0105800D02*
X0156200Y0100800D01*
X0159400Y0100800D02*
X0159400Y0105800D01*
X0162600Y0105800D02*
X0162600Y0100800D01*
X0165800Y0100800D02*
X0165800Y0105800D01*
X0169000Y0105800D02*
X0169000Y0100800D01*
X0172200Y0100800D02*
X0172200Y0105800D01*
X0175400Y0105800D02*
X0175400Y0101200D01*
X0149800Y0100800D02*
X0149800Y0105800D01*
X0146600Y0105800D02*
X0146600Y0100800D01*
X0143400Y0100800D02*
X0143400Y0105800D01*
X0140200Y0105800D02*
X0140200Y0100800D01*
X0144300Y0089300D02*
X0149300Y0084300D01*
X0309300Y0084300D01*
X0310284Y0084477D01*
X0310284Y0076800D02*
X0314300Y0076800D01*
X0333316Y0076800D02*
X0349300Y0076800D01*
X0369300Y0056800D01*
X0391800Y0056800D01*
X0396800Y0061800D02*
X0401800Y0056800D01*
X0396800Y0061800D02*
X0369300Y0061800D01*
X0351800Y0079300D01*
X0334300Y0079300D01*
X0333316Y0079359D01*
X0333316Y0081918D02*
X0334300Y0081800D01*
X0359300Y0081800D01*
X0369300Y0071800D01*
X0396800Y0071800D01*
X0401800Y0066800D01*
X0391800Y0076800D02*
X0386800Y0081800D01*
X0376800Y0081800D01*
X0371800Y0076800D01*
X0371800Y0086800D02*
X0376800Y0091800D01*
X0386800Y0091800D01*
X0391800Y0086800D01*
X0391800Y0096800D02*
X0386800Y0101800D01*
X0376800Y0101800D01*
X0371800Y0096800D01*
X0360800Y0111800D02*
X0354300Y0105300D01*
X0354300Y0090300D01*
X0348477Y0084477D01*
X0333316Y0084477D01*
X0333316Y0086859D02*
X0334300Y0086800D01*
X0346800Y0086800D01*
X0351800Y0091800D01*
X0351800Y0106800D01*
X0366800Y0121800D01*
X0394300Y0121800D01*
X0399300Y0126800D01*
X0401800Y0126800D01*
X0396800Y0131800D02*
X0391800Y0126800D01*
X0386800Y0131800D02*
X0391800Y0136800D01*
X0386800Y0131800D02*
X0376800Y0131800D01*
X0371800Y0136800D01*
X0371800Y0146800D02*
X0376800Y0151800D01*
X0386800Y0151800D01*
X0391800Y0146800D01*
X0381800Y0156800D02*
X0386800Y0161800D01*
X0396800Y0161800D01*
X0401800Y0156800D01*
X0396800Y0171800D02*
X0401800Y0176800D01*
X0374300Y0199300D02*
X0229300Y0199300D01*
X0228316Y0199418D01*
X0228316Y0201977D02*
X0226977Y0201977D01*
X0223800Y0201800D01*
X0274300Y0201800D01*
X0290600Y0203300D02*
X0290600Y0210647D01*
X0293800Y0210969D02*
X0293800Y0203300D01*
X0297000Y0203300D02*
X0297000Y0212899D01*
X0297899Y0212000D02*
X0295701Y0212000D01*
X0300200Y0210803D02*
X0300200Y0203300D01*
X0319400Y0203300D02*
X0319400Y0203543D01*
X0319400Y0180300D02*
X0319400Y0138700D01*
X0316200Y0138700D02*
X0316200Y0180300D01*
X0313000Y0180300D02*
X0313000Y0138700D01*
X0309800Y0138700D02*
X0309800Y0180300D01*
X0322600Y0180300D02*
X0322600Y0138700D01*
X0325800Y0138700D02*
X0325800Y0180300D01*
X0329000Y0180300D02*
X0329000Y0138700D01*
X0332200Y0138700D02*
X0332200Y0180300D01*
X0335400Y0180300D02*
X0335400Y0138700D01*
X0337680Y0138400D02*
X0343743Y0138400D01*
X0341800Y0136457D02*
X0341800Y0157400D01*
X0339777Y0157600D02*
X0208800Y0157600D01*
X0208800Y0154400D02*
X0347800Y0154400D01*
X0347800Y0151200D02*
X0209200Y0151200D01*
X0208223Y0148000D02*
X0347800Y0148000D01*
X0347800Y0144800D02*
X0192957Y0144800D01*
X0194600Y0143157D02*
X0194600Y0180241D01*
X0191400Y0180241D02*
X0191400Y0167857D01*
X0191843Y0167200D02*
X0200800Y0167200D01*
X0200800Y0164000D02*
X0192300Y0164000D01*
X0192300Y0160800D02*
X0200800Y0160800D01*
X0200800Y0157600D02*
X0192300Y0157600D01*
X0192300Y0154400D02*
X0200800Y0154400D01*
X0200400Y0151200D02*
X0192300Y0151200D01*
X0192300Y0148000D02*
X0201377Y0148000D01*
X0201000Y0148377D02*
X0201000Y0138800D01*
X0204200Y0138800D02*
X0204200Y0146400D01*
X0207400Y0147177D02*
X0207400Y0138800D01*
X0210600Y0138800D02*
X0210600Y0173900D01*
X0208800Y0173600D02*
X0347943Y0173600D01*
X0348200Y0173857D02*
X0348200Y0180300D01*
X0345000Y0180300D02*
X0345000Y0170657D01*
X0344743Y0170400D02*
X0208800Y0170400D01*
X0208800Y0167200D02*
X0341543Y0167200D01*
X0341800Y0167457D02*
X0341800Y0180300D01*
X0338600Y0180300D02*
X0338600Y0164823D01*
X0337777Y0164000D02*
X0208800Y0164000D01*
X0208800Y0160800D02*
X0337400Y0160800D01*
X0338600Y0158777D02*
X0338600Y0133257D01*
X0338200Y0135200D02*
X0340543Y0135200D01*
X0333316Y0121918D02*
X0324918Y0121918D01*
X0324859Y0119359D02*
X0333316Y0119359D01*
X0333316Y0116800D02*
X0325300Y0116800D01*
X0324800Y0110800D02*
X0326477Y0109123D01*
X0333316Y0109123D01*
X0360800Y0111800D02*
X0396800Y0111800D01*
X0401800Y0116800D01*
X0399300Y0121800D02*
X0394300Y0116800D01*
X0391800Y0116800D01*
X0399300Y0121800D02*
X0406800Y0121800D01*
X0406800Y0054300D01*
X0404300Y0051800D01*
X0369300Y0051800D01*
X0346800Y0074300D01*
X0334300Y0074300D01*
X0333316Y0074241D01*
X0333316Y0071682D02*
X0334300Y0071800D01*
X0344300Y0071800D01*
X0374300Y0041800D01*
X0371800Y0036800D02*
X0371800Y0026800D01*
X0361800Y0026800D02*
X0361800Y0036800D01*
X0365675Y0042400D02*
X0367925Y0042400D01*
X0367400Y0041875D02*
X0367400Y0043043D01*
X0373957Y0047800D02*
X0387146Y0047800D01*
X0387047Y0047174D01*
X0387047Y0046984D01*
X0391616Y0046984D01*
X0391616Y0046616D01*
X0387047Y0046616D01*
X0387047Y0046426D01*
X0387164Y0045687D01*
X0387193Y0045600D01*
X0376157Y0045600D01*
X0373957Y0047800D01*
X0377000Y0047800D02*
X0377000Y0045600D01*
X0376157Y0045600D02*
X0387193Y0045600D01*
X0386600Y0045600D02*
X0386600Y0047800D01*
X0383400Y0047800D02*
X0383400Y0045600D01*
X0380200Y0045600D02*
X0380200Y0047800D01*
X0389800Y0046984D02*
X0389800Y0046616D01*
X0391984Y0046616D02*
X0391984Y0046984D01*
X0396553Y0046984D01*
X0396553Y0047174D01*
X0396454Y0047800D01*
X0397146Y0047800D01*
X0397047Y0047174D01*
X0397047Y0046984D01*
X0401616Y0046984D01*
X0401616Y0046616D01*
X0397047Y0046616D01*
X0397047Y0046426D01*
X0397164Y0045687D01*
X0397193Y0045600D01*
X0396407Y0045600D01*
X0397193Y0045600D01*
X0396436Y0045687D02*
X0396407Y0045600D01*
X0396436Y0045687D02*
X0396553Y0046426D01*
X0396553Y0046616D01*
X0391984Y0046616D01*
X0393000Y0046616D02*
X0393000Y0046984D01*
X0396200Y0046984D02*
X0396200Y0046616D01*
X0399400Y0046616D02*
X0399400Y0046984D01*
X0404300Y0041800D02*
X0409300Y0046800D01*
X0409300Y0131800D01*
X0396800Y0131800D01*
X0342643Y0067800D02*
X0338900Y0067800D01*
X0338900Y0065800D01*
X0344643Y0065800D01*
X0342643Y0067800D01*
X0341800Y0067800D02*
X0341800Y0065800D01*
X0341800Y0066800D02*
X0339477Y0069123D01*
X0333316Y0069123D01*
X0305542Y0039200D02*
X0298058Y0039200D01*
X0298500Y0036000D02*
X0305100Y0036000D01*
X0306325Y0032800D02*
X0297275Y0032800D01*
X0297000Y0032525D02*
X0297000Y0030301D01*
X0297300Y0029600D02*
X0306300Y0029600D01*
X0306600Y0030301D02*
X0306600Y0032525D01*
X0311800Y0036800D02*
X0311800Y0026800D01*
X0321800Y0026800D02*
X0321800Y0036800D01*
X0331800Y0036800D02*
X0331800Y0026800D01*
X0341800Y0026800D02*
X0341800Y0036800D01*
X0351800Y0036800D02*
X0351800Y0026800D01*
X0381800Y0026800D02*
X0381800Y0036800D01*
X0407627Y0016800D02*
X0415501Y0024674D01*
X0415501Y0323887D01*
X0407627Y0331761D01*
X0029674Y0331761D01*
X0021800Y0323887D01*
X0022001Y0323887D02*
X0022001Y0024674D01*
X0021800Y0024674D02*
X0029674Y0016800D01*
X0407627Y0016800D01*
X0291800Y0026800D02*
X0291800Y0036800D01*
X0281800Y0036800D02*
X0281800Y0026800D01*
X0271800Y0026800D02*
X0271800Y0036800D01*
X0261800Y0036800D02*
X0261800Y0026800D01*
X0251800Y0026800D02*
X0251800Y0036800D01*
X0265000Y0125800D02*
X0265000Y0177800D01*
X0268200Y0177800D02*
X0268200Y0126200D01*
X0256800Y0126800D02*
X0248800Y0134800D01*
X0197300Y0134800D01*
X0213800Y0138800D02*
X0213800Y0173900D01*
X0217000Y0173900D02*
X0217000Y0138800D01*
X0220200Y0138800D02*
X0220200Y0173900D01*
X0223400Y0173900D02*
X0223400Y0138800D01*
X0226600Y0138800D02*
X0226600Y0173900D01*
X0226800Y0176800D02*
X0217800Y0182300D01*
X0217182Y0181682D01*
X0205284Y0181682D01*
X0205284Y0184241D02*
X0206800Y0184300D01*
X0205284Y0179123D02*
X0204800Y0178639D01*
X0204800Y0150800D01*
X0200800Y0170400D02*
X0188857Y0170400D01*
X0188200Y0171057D02*
X0188200Y0180241D01*
X0185000Y0180241D02*
X0185000Y0174257D01*
X0185657Y0173600D02*
X0200800Y0173600D01*
X0200800Y0176621D02*
X0200800Y0176621D01*
X0200726Y0176800D02*
X0182457Y0176800D01*
X0181800Y0177457D02*
X0181800Y0180241D01*
X0178600Y0180241D02*
X0178600Y0179200D01*
X0177543Y0170400D02*
X0175477Y0170400D01*
X0175400Y0170477D02*
X0175400Y0125800D01*
X0184300Y0151200D02*
X0121800Y0151200D01*
X0121800Y0154400D02*
X0184300Y0154400D01*
X0184300Y0157600D02*
X0121800Y0157600D01*
X0121800Y0160800D02*
X0184300Y0160800D01*
X0183943Y0164000D02*
X0121800Y0164000D01*
X0090858Y0215200D02*
X0090458Y0215200D01*
X0092200Y0216167D02*
X0092200Y0216567D01*
X0090858Y0218400D02*
X0090458Y0218400D01*
X0095400Y0216567D02*
X0095400Y0216167D01*
X0090858Y0224800D02*
X0090458Y0224800D01*
X0089000Y0226167D02*
X0089000Y0226567D01*
X0090458Y0228000D02*
X0090858Y0228000D01*
X0092200Y0226567D02*
X0092200Y0226167D01*
X0095400Y0226167D02*
X0095400Y0226567D01*
X0085858Y0228000D02*
X0085458Y0228000D01*
X0082600Y0226567D02*
X0082600Y0226167D01*
X0080858Y0228000D02*
X0080458Y0228000D01*
X0082600Y0231167D02*
X0082600Y0235000D01*
X0076200Y0243919D02*
X0076200Y0245800D01*
X0073000Y0245800D02*
X0073000Y0240788D01*
X0073012Y0240800D02*
X0069884Y0240800D01*
X0069800Y0240945D02*
X0069800Y0245800D01*
X0066217Y0237600D02*
X0065257Y0237600D01*
X0065257Y0234400D02*
X0066217Y0234400D01*
X0067000Y0228000D02*
X0042800Y0228000D01*
X0042800Y0224800D02*
X0067000Y0224800D01*
X0058545Y0215015D02*
X0045578Y0215015D01*
X0045578Y0213417D02*
X0049646Y0213417D01*
X0049646Y0213663D02*
X0049646Y0211051D01*
X0049768Y0210593D01*
X0050005Y0210183D01*
X0050340Y0209848D01*
X0050751Y0209611D01*
X0051209Y0209488D01*
X0058545Y0209488D01*
X0058545Y0213663D01*
X0049646Y0213663D01*
X0049646Y0211818D02*
X0045578Y0211818D01*
X0045333Y0210220D02*
X0049984Y0210220D01*
X0049646Y0216614D02*
X0045578Y0216614D01*
X0047400Y0216800D02*
X0047400Y0230800D01*
X0050600Y0230800D02*
X0050600Y0219178D01*
X0049836Y0218400D02*
X0046305Y0218400D01*
X0053800Y0219387D02*
X0053800Y0230800D01*
X0058545Y0213417D02*
X0060094Y0213417D01*
X0060094Y0211818D02*
X0058545Y0211818D01*
X0058545Y0210220D02*
X0060094Y0210220D01*
X0085458Y0224800D02*
X0085858Y0224800D01*
X0111800Y0256800D02*
X0121800Y0246800D01*
X0111800Y0256800D02*
X0094300Y0256800D01*
X0084300Y0266800D01*
X0084300Y0267587D01*
X0079300Y0267587D02*
X0079300Y0269300D01*
X0075800Y0272800D01*
X0075800Y0280800D01*
X0076800Y0281800D01*
X0076800Y0296800D01*
X0074300Y0296800D01*
X0072666Y0296800D01*
X0074300Y0296800D02*
X0074300Y0306800D01*
X0072666Y0306800D01*
X0071800Y0306800D01*
X0076800Y0311800D01*
X0086800Y0311800D01*
X0088800Y0309800D01*
X0088800Y0306800D01*
X0093800Y0301800D01*
X0106800Y0301800D01*
X0111600Y0301600D02*
X0120800Y0301600D01*
X0119927Y0300461D02*
X0119316Y0300905D01*
X0118643Y0301248D01*
X0117924Y0301482D01*
X0117178Y0301600D01*
X0117000Y0301600D01*
X0117000Y0297000D01*
X0116600Y0297000D01*
X0116600Y0301600D01*
X0116422Y0301600D01*
X0115676Y0301482D01*
X0114957Y0301248D01*
X0114284Y0300905D01*
X0113673Y0300461D01*
X0113139Y0299927D01*
X0112695Y0299316D01*
X0112570Y0299071D01*
X0112056Y0300312D01*
X0111600Y0300768D01*
X0111600Y0302832D01*
X0112056Y0303288D01*
X0112570Y0304529D01*
X0112695Y0304284D01*
X0113139Y0303673D01*
X0113673Y0303139D01*
X0114284Y0302695D01*
X0114957Y0302352D01*
X0115676Y0302118D01*
X0116422Y0302000D01*
X0116600Y0302000D01*
X0116600Y0306600D01*
X0117000Y0306600D01*
X0117000Y0302000D01*
X0117178Y0302000D01*
X0117924Y0302118D01*
X0118643Y0302352D01*
X0119316Y0302695D01*
X0119927Y0303139D01*
X0120461Y0303673D01*
X0120800Y0304139D01*
X0120800Y0299461D01*
X0120461Y0299927D01*
X0119927Y0300461D01*
X0117800Y0301501D02*
X0117800Y0302099D01*
X0117000Y0304800D02*
X0116600Y0304800D01*
X0116600Y0307000D02*
X0116600Y0311600D01*
X0116422Y0311600D01*
X0115676Y0311482D01*
X0114957Y0311248D01*
X0114284Y0310905D01*
X0113673Y0310461D01*
X0113139Y0309927D01*
X0112695Y0309316D01*
X0112570Y0309071D01*
X0112056Y0310312D01*
X0111600Y0310768D01*
X0111600Y0319812D01*
X0112788Y0321000D01*
X0141525Y0321000D01*
X0141120Y0320595D01*
X0140100Y0318133D01*
X0140100Y0315467D01*
X0140800Y0313777D01*
X0140800Y0308768D01*
X0140612Y0309136D01*
X0140200Y0309704D01*
X0139704Y0310200D01*
X0139136Y0310612D01*
X0138511Y0310931D01*
X0137844Y0311148D01*
X0137151Y0311257D01*
X0136886Y0311257D01*
X0136886Y0306886D01*
X0140800Y0306886D01*
X0140800Y0306714D01*
X0136886Y0306714D01*
X0136886Y0306886D01*
X0136714Y0306886D01*
X0136714Y0311257D01*
X0136449Y0311257D01*
X0135756Y0311148D01*
X0135089Y0310931D01*
X0134464Y0310612D01*
X0133896Y0310200D01*
X0133400Y0309704D01*
X0132988Y0309136D01*
X0132669Y0308511D01*
X0132632Y0308398D01*
X0131887Y0310199D01*
X0130199Y0311887D01*
X0127993Y0312800D01*
X0125607Y0312800D01*
X0123401Y0311887D01*
X0121713Y0310199D01*
X0121149Y0308837D01*
X0120905Y0309316D01*
X0120461Y0309927D01*
X0119927Y0310461D01*
X0119316Y0310905D01*
X0118643Y0311248D01*
X0117924Y0311482D01*
X0117178Y0311600D01*
X0117000Y0311600D01*
X0117000Y0307000D01*
X0116600Y0307000D01*
X0116600Y0308000D02*
X0117000Y0308000D01*
X0117000Y0311200D02*
X0116600Y0311200D01*
X0117800Y0311501D02*
X0117800Y0321000D01*
X0114600Y0321000D02*
X0114600Y0311066D01*
X0114863Y0311200D02*
X0111600Y0311200D01*
X0111600Y0314400D02*
X0140542Y0314400D01*
X0140200Y0315226D02*
X0140200Y0309704D01*
X0140800Y0311200D02*
X0137514Y0311200D01*
X0137000Y0311257D02*
X0137000Y0321000D01*
X0140200Y0321000D02*
X0140200Y0318374D01*
X0140100Y0317600D02*
X0111600Y0317600D01*
X0112588Y0320800D02*
X0141325Y0320800D01*
X0133800Y0321000D02*
X0133800Y0310104D01*
X0136086Y0311200D02*
X0130885Y0311200D01*
X0130600Y0311485D02*
X0130600Y0321000D01*
X0127400Y0321000D02*
X0127400Y0312800D01*
X0124200Y0312217D02*
X0124200Y0321000D01*
X0121000Y0321000D02*
X0121000Y0309130D01*
X0122715Y0311200D02*
X0118737Y0311200D01*
X0114600Y0302534D02*
X0114600Y0301066D01*
X0116600Y0298400D02*
X0117000Y0298400D01*
X0108346Y0290729D02*
X0108134Y0290518D01*
X0107647Y0289342D01*
X0107647Y0282951D01*
X0108134Y0281775D01*
X0109035Y0280875D01*
X0109047Y0280869D01*
X0109047Y0279933D01*
X0113320Y0279933D01*
X0113320Y0278974D01*
X0109047Y0278974D01*
X0109047Y0276658D01*
X0109170Y0276200D01*
X0109401Y0275800D01*
X0098976Y0275800D01*
X0098976Y0275820D01*
X0103057Y0279900D01*
X0103623Y0279900D01*
X0106200Y0282477D01*
X0106200Y0286123D01*
X0103623Y0288700D01*
X0099977Y0288700D01*
X0097400Y0286123D01*
X0097400Y0285557D01*
X0093800Y0281957D01*
X0093800Y0291332D01*
X0095567Y0290600D01*
X0098033Y0290600D01*
X0100312Y0291544D01*
X0101800Y0293032D01*
X0101800Y0288700D01*
X0103288Y0291544D02*
X0105567Y0290600D01*
X0108033Y0290600D01*
X0108346Y0290729D01*
X0108200Y0290669D02*
X0108200Y0290584D01*
X0107647Y0288800D02*
X0093800Y0288800D01*
X0095400Y0290669D02*
X0095400Y0283557D01*
X0094243Y0282400D02*
X0093800Y0282400D01*
X0093800Y0285600D02*
X0097400Y0285600D01*
X0098600Y0287323D02*
X0098600Y0290835D01*
X0100768Y0292000D02*
X0102832Y0292000D01*
X0103288Y0291544D02*
X0101800Y0293032D01*
X0105000Y0290835D02*
X0105000Y0287323D01*
X0106200Y0285600D02*
X0107647Y0285600D01*
X0107875Y0282400D02*
X0106123Y0282400D01*
X0105000Y0281277D02*
X0105000Y0275800D01*
X0101800Y0275800D02*
X0101800Y0278643D01*
X0102357Y0279200D02*
X0113320Y0279200D01*
X0111400Y0278974D02*
X0111400Y0279933D01*
X0108200Y0281709D02*
X0108200Y0275800D01*
X0109285Y0276000D02*
X0099157Y0276000D01*
X0094300Y0276013D02*
X0094300Y0276800D01*
X0101800Y0284300D01*
X0089800Y0276013D02*
X0089800Y0299800D01*
X0080934Y0306800D01*
X0080934Y0316800D02*
X0097800Y0316800D01*
X0101800Y0312800D01*
X0101800Y0311800D01*
X0102000Y0318257D02*
X0100066Y0320191D01*
X0098596Y0320800D01*
X0086081Y0320800D01*
X0102000Y0320800D01*
X0102000Y0322755D02*
X0102000Y0318257D01*
X0101800Y0318457D02*
X0101800Y0327761D01*
X0105000Y0327761D02*
X0105000Y0326788D01*
X0105412Y0327200D02*
X0061800Y0327200D01*
X0061800Y0327761D02*
X0105972Y0327761D01*
X0102731Y0324519D01*
X0102000Y0322755D01*
X0102516Y0324000D02*
X0061800Y0324000D01*
X0061800Y0320800D02*
X0069541Y0320800D01*
X0069609Y0320840D02*
X0069199Y0320603D01*
X0068864Y0320267D01*
X0068627Y0319857D01*
X0068504Y0319399D01*
X0068504Y0317181D01*
X0072285Y0317181D01*
X0072285Y0316419D01*
X0068504Y0316419D01*
X0068504Y0314201D01*
X0068627Y0313743D01*
X0068864Y0313333D01*
X0069199Y0312997D01*
X0069609Y0312760D01*
X0070067Y0312638D01*
X0071981Y0312638D01*
X0071705Y0312362D01*
X0069667Y0312362D01*
X0068491Y0311875D01*
X0067591Y0310975D01*
X0067104Y0309799D01*
X0067104Y0303801D01*
X0067591Y0302625D01*
X0068416Y0301800D01*
X0067591Y0300975D01*
X0067104Y0299799D01*
X0067104Y0293801D01*
X0067591Y0292625D01*
X0068491Y0291725D01*
X0069667Y0291238D01*
X0072800Y0291238D01*
X0072800Y0287181D01*
X0072285Y0287181D01*
X0072285Y0286419D01*
X0068504Y0286419D01*
X0068504Y0284201D01*
X0068619Y0283772D01*
X0068257Y0283981D01*
X0065040Y0284843D01*
X0061800Y0284843D01*
X0061800Y0327761D01*
X0063400Y0327761D02*
X0063400Y0284843D01*
X0061800Y0285600D02*
X0068504Y0285600D01*
X0067800Y0286800D02*
X0072666Y0286800D01*
X0072285Y0287181D02*
X0068504Y0287181D01*
X0068504Y0289399D01*
X0068627Y0289857D01*
X0068864Y0290267D01*
X0069199Y0290603D01*
X0069609Y0290840D01*
X0070067Y0290962D01*
X0072285Y0290962D01*
X0072285Y0287181D01*
X0072285Y0288800D02*
X0072800Y0288800D01*
X0069800Y0287181D02*
X0069800Y0286419D01*
X0068504Y0288800D02*
X0061800Y0288800D01*
X0061800Y0292000D02*
X0068216Y0292000D01*
X0069800Y0291238D02*
X0069800Y0290891D01*
X0067104Y0295200D02*
X0061800Y0295200D01*
X0061800Y0298400D02*
X0067104Y0298400D01*
X0068216Y0301600D02*
X0061800Y0301600D01*
X0061800Y0304800D02*
X0067104Y0304800D01*
X0067104Y0308000D02*
X0061800Y0308000D01*
X0061800Y0311200D02*
X0067816Y0311200D01*
X0069800Y0312362D02*
X0069800Y0312709D01*
X0068504Y0314400D02*
X0061800Y0314400D01*
X0061800Y0317600D02*
X0068504Y0317600D01*
X0069800Y0317181D02*
X0069800Y0316419D01*
X0072285Y0317181D02*
X0072285Y0320962D01*
X0070067Y0320962D01*
X0069609Y0320840D01*
X0069800Y0320891D02*
X0069800Y0327761D01*
X0066600Y0327761D02*
X0066600Y0284425D01*
X0079300Y0286800D02*
X0079300Y0276013D01*
X0084300Y0276013D02*
X0084300Y0281800D01*
X0086800Y0284300D01*
X0086800Y0296800D01*
X0080934Y0296800D01*
X0080934Y0286800D02*
X0079300Y0286800D01*
X0089300Y0276013D02*
X0089800Y0276013D01*
X0091800Y0271800D02*
X0089300Y0269300D01*
X0089300Y0267587D01*
X0079300Y0267587D02*
X0079300Y0266800D01*
X0132800Y0290800D02*
X0132800Y0295607D01*
X0132800Y0296597D01*
X0132867Y0297585D01*
X0132800Y0297784D01*
X0132800Y0304832D01*
X0132988Y0304464D01*
X0133400Y0303896D01*
X0133896Y0303400D01*
X0134464Y0302988D01*
X0135089Y0302669D01*
X0135756Y0302452D01*
X0136449Y0302343D01*
X0136714Y0302343D01*
X0136714Y0306714D01*
X0136886Y0306714D01*
X0136886Y0302343D01*
X0137151Y0302343D01*
X0137844Y0302452D01*
X0138511Y0302669D01*
X0139136Y0302988D01*
X0139704Y0303400D01*
X0140200Y0303896D01*
X0140612Y0304464D01*
X0140931Y0305089D01*
X0140968Y0305202D01*
X0141713Y0303401D01*
X0143401Y0301713D01*
X0145124Y0301000D01*
X0137163Y0301000D01*
X0135987Y0300513D01*
X0135087Y0299613D01*
X0134600Y0298437D01*
X0134600Y0290800D01*
X0132800Y0290800D01*
X0133800Y0290800D02*
X0133800Y0303496D01*
X0132816Y0304800D02*
X0132800Y0304800D01*
X0132800Y0306714D02*
X0132800Y0306886D01*
X0136714Y0306886D01*
X0136714Y0306714D01*
X0132800Y0306714D01*
X0133800Y0306714D02*
X0133800Y0306886D01*
X0136800Y0306800D02*
X0136800Y0307300D01*
X0137000Y0306886D02*
X0137000Y0306714D01*
X0136886Y0308000D02*
X0136714Y0308000D01*
X0136714Y0304800D02*
X0136886Y0304800D01*
X0137000Y0302343D02*
X0137000Y0300932D01*
X0140200Y0301000D02*
X0140200Y0303896D01*
X0140784Y0304800D02*
X0141134Y0304800D01*
X0140200Y0306714D02*
X0140200Y0306886D01*
X0136886Y0311200D02*
X0136714Y0311200D01*
X0132800Y0301600D02*
X0143675Y0301600D01*
X0143400Y0301715D02*
X0143400Y0301000D01*
X0134600Y0298400D02*
X0132800Y0298400D01*
X0132800Y0295200D02*
X0134600Y0295200D01*
X0134600Y0292000D02*
X0132800Y0292000D01*
X0136260Y0278800D02*
X0136260Y0275800D01*
X0138740Y0275800D01*
X0138740Y0276025D01*
X0146655Y0276025D01*
X0146655Y0277575D01*
X0138740Y0277575D01*
X0138740Y0278800D01*
X0136260Y0278800D01*
X0137000Y0278800D02*
X0137000Y0275800D01*
X0136260Y0276000D02*
X0138740Y0276000D01*
X0140200Y0276025D02*
X0140200Y0277575D01*
X0143400Y0277575D02*
X0143400Y0276025D01*
X0146600Y0276025D02*
X0146600Y0277575D01*
X0149800Y0277575D02*
X0149800Y0276025D01*
X0153000Y0276025D02*
X0153000Y0277575D01*
X0156200Y0278800D02*
X0156200Y0275800D01*
X0156120Y0276000D02*
X0167277Y0276000D01*
X0165800Y0275800D02*
X0165800Y0278800D01*
X0169000Y0278800D02*
X0169000Y0276200D01*
X0162600Y0275800D02*
X0162600Y0278800D01*
X0159400Y0278800D02*
X0159400Y0275800D01*
X0194600Y0272800D02*
X0194600Y0271257D01*
X0216800Y0256800D02*
X0219300Y0256800D01*
X0226800Y0264300D01*
X0296800Y0264300D01*
X0296800Y0263060D01*
X0306800Y0256800D02*
X0314300Y0264300D01*
X0386800Y0264300D01*
X0386800Y0263060D01*
X0386800Y0269300D02*
X0386800Y0270540D01*
X0381800Y0276800D02*
X0381800Y0318060D01*
X0387953Y0317600D02*
X0411501Y0317600D01*
X0411501Y0314400D02*
X0387760Y0314400D01*
X0387953Y0314864D02*
X0387953Y0321255D01*
X0387727Y0321800D01*
X0387953Y0322345D01*
X0387953Y0327761D01*
X0405970Y0327761D01*
X0411501Y0322230D01*
X0411501Y0303887D01*
X0408000Y0307388D01*
X0408000Y0309368D01*
X0404368Y0313000D01*
X0399232Y0313000D01*
X0395810Y0309578D01*
X0393788Y0311600D01*
X0392000Y0311600D01*
X0392000Y0307000D01*
X0391600Y0307000D01*
X0391600Y0311600D01*
X0389812Y0311600D01*
X0387000Y0308788D01*
X0387000Y0307000D01*
X0391600Y0307000D01*
X0391600Y0306600D01*
X0387000Y0306600D01*
X0387000Y0304812D01*
X0389022Y0302790D01*
X0385800Y0299568D01*
X0385800Y0312471D01*
X0386565Y0312788D01*
X0387466Y0313688D01*
X0387953Y0314864D01*
X0386600Y0312823D02*
X0386600Y0300368D01*
X0385800Y0301600D02*
X0387832Y0301600D01*
X0387012Y0304800D02*
X0385800Y0304800D01*
X0385800Y0308000D02*
X0387000Y0308000D01*
X0389800Y0307000D02*
X0389800Y0306600D01*
X0391800Y0306800D02*
X0391800Y0316800D01*
X0396800Y0321800D01*
X0396200Y0327761D02*
X0396200Y0309968D01*
X0397432Y0311200D02*
X0394188Y0311200D01*
X0393000Y0311600D02*
X0393000Y0327761D01*
X0389800Y0327761D02*
X0389800Y0311588D01*
X0389412Y0311200D02*
X0385800Y0311200D01*
X0391600Y0311200D02*
X0392000Y0311200D01*
X0392000Y0308000D02*
X0391600Y0308000D01*
X0399400Y0313000D02*
X0399400Y0327761D01*
X0402600Y0327761D02*
X0402600Y0313000D01*
X0405800Y0311568D02*
X0405800Y0327761D01*
X0406531Y0327200D02*
X0387953Y0327200D01*
X0387953Y0324000D02*
X0409731Y0324000D01*
X0409000Y0324731D02*
X0409000Y0306388D01*
X0408000Y0308000D02*
X0411501Y0308000D01*
X0411501Y0304800D02*
X0410588Y0304800D01*
X0411501Y0311200D02*
X0406168Y0311200D01*
X0411501Y0320800D02*
X0387953Y0320800D01*
X0381800Y0325540D02*
X0381800Y0326800D01*
X0371800Y0326800D01*
X0371800Y0325934D01*
X0375719Y0314400D02*
X0375840Y0314400D01*
X0377800Y0301600D02*
X0369552Y0301600D01*
X0367400Y0300943D02*
X0367400Y0299721D01*
X0368721Y0298400D02*
X0377800Y0298400D01*
X0377800Y0295200D02*
X0370339Y0295200D01*
X0370186Y0292000D02*
X0377800Y0292000D01*
X0377800Y0282400D02*
X0325135Y0282400D01*
X0325800Y0281696D02*
X0325800Y0286600D01*
X0322600Y0286600D02*
X0322600Y0283150D01*
X0319400Y0283150D02*
X0319400Y0286600D01*
X0316200Y0286999D02*
X0316200Y0283150D01*
X0314751Y0288800D02*
X0307280Y0288800D01*
X0309800Y0288933D02*
X0309800Y0287974D01*
X0307280Y0285600D02*
X0306320Y0285600D01*
X0313000Y0270450D02*
X0313000Y0268091D01*
X0316200Y0268300D02*
X0316200Y0270450D01*
X0319400Y0270450D02*
X0319400Y0268300D01*
X0322600Y0268300D02*
X0322600Y0270450D01*
X0325800Y0271904D02*
X0325800Y0268300D01*
X0329000Y0268300D02*
X0329000Y0272718D01*
X0328953Y0272800D02*
X0326171Y0272800D01*
X0328740Y0273413D02*
X0328740Y0276025D01*
X0336655Y0276025D01*
X0336655Y0271850D01*
X0330303Y0271850D01*
X0329845Y0271973D01*
X0329435Y0272210D01*
X0329100Y0272545D01*
X0328863Y0272956D01*
X0328740Y0273413D01*
X0328740Y0276000D02*
X0326260Y0276000D01*
X0329000Y0276025D02*
X0329000Y0277575D01*
X0328740Y0279200D02*
X0326260Y0279200D01*
X0329000Y0280882D02*
X0329000Y0290870D01*
X0328849Y0288800D02*
X0330397Y0288800D01*
X0332200Y0287407D02*
X0332200Y0281750D01*
X0335400Y0281750D02*
X0335400Y0286600D01*
X0338600Y0287258D02*
X0338600Y0281750D01*
X0338205Y0279200D02*
X0336655Y0279200D01*
X0335400Y0277575D02*
X0335400Y0276025D01*
X0336655Y0276000D02*
X0338205Y0276000D01*
X0338600Y0276025D02*
X0338600Y0277575D01*
X0341800Y0277575D02*
X0341800Y0276025D01*
X0338205Y0272800D02*
X0336655Y0272800D01*
X0335400Y0271850D02*
X0335400Y0268300D01*
X0338600Y0268300D02*
X0338600Y0271850D01*
X0341800Y0271850D02*
X0341800Y0268300D01*
X0332200Y0268300D02*
X0332200Y0271850D01*
X0332200Y0276025D02*
X0332200Y0277575D01*
X0341800Y0281750D02*
X0341800Y0290003D01*
X0340762Y0288800D02*
X0344177Y0288800D01*
X0345000Y0287977D02*
X0345000Y0281631D01*
X0361000Y0286893D02*
X0361000Y0268300D01*
X0364200Y0268300D02*
X0364200Y0286600D01*
X0357556Y0298400D02*
X0354941Y0298400D01*
X0354600Y0298741D02*
X0354600Y0301371D01*
X0354048Y0301600D02*
X0349552Y0301600D01*
X0348200Y0301040D02*
X0348200Y0301000D01*
X0351400Y0300748D02*
X0351400Y0303116D01*
X0357800Y0300943D02*
X0357800Y0298644D01*
X0359552Y0301600D02*
X0364048Y0301600D01*
X0364200Y0301537D02*
X0364200Y0301000D01*
X0361000Y0300707D02*
X0361000Y0302716D01*
X0326800Y0256800D02*
X0326800Y0248800D01*
X0326800Y0244800D02*
X0326800Y0240800D01*
X0351800Y0226800D02*
X0351800Y0216800D01*
X0361800Y0216800D02*
X0361800Y0226800D01*
X0383300Y0220800D02*
X0383300Y0213300D01*
X0383300Y0220800D02*
X0389300Y0226800D01*
X0294300Y0179300D02*
X0291800Y0181800D01*
X0229300Y0181800D01*
X0228316Y0181682D01*
X0228316Y0179123D02*
X0228316Y0178316D01*
X0226800Y0176800D01*
X0229800Y0173900D02*
X0229800Y0138800D01*
X0233000Y0138800D02*
X0233000Y0177800D01*
X0232700Y0176800D02*
X0290577Y0176800D01*
X0260800Y0167800D02*
X0245800Y0167800D01*
X0242800Y0167800D01*
X0235550Y0160550D01*
X0236200Y0177800D02*
X0236200Y0138800D01*
X0239400Y0138800D02*
X0239400Y0177800D01*
X0242600Y0177800D02*
X0242600Y0138800D01*
X0245800Y0138800D02*
X0245800Y0177800D01*
X0249000Y0177800D02*
X0249000Y0138800D01*
X0228198Y0191800D02*
X0228316Y0191918D01*
X0181800Y0225800D02*
X0181800Y0235000D01*
X0178600Y0235000D02*
X0178600Y0225800D01*
X0175400Y0225800D02*
X0175400Y0235000D01*
X0172200Y0235000D02*
X0172200Y0225800D01*
X0169000Y0225800D02*
X0169000Y0235000D01*
X0165800Y0235000D02*
X0165800Y0225800D01*
X0162600Y0225800D02*
X0162600Y0235000D01*
X0159400Y0235000D02*
X0159400Y0225800D01*
X0156200Y0225800D02*
X0156200Y0235000D01*
X0153000Y0235000D02*
X0153000Y0225800D01*
X0149800Y0225800D02*
X0149800Y0235000D01*
X0226800Y0248800D02*
X0226800Y0256800D01*
X0231800Y0261800D01*
X0271800Y0261800D01*
X0271800Y0251800D01*
X0266800Y0246800D01*
X0265540Y0246800D01*
X0258060Y0246800D02*
X0255800Y0246800D01*
X0252800Y0249800D01*
X0252500Y0250400D02*
X0253811Y0250400D01*
X0253823Y0250448D02*
X0253701Y0249990D01*
X0253701Y0247280D01*
X0257580Y0247280D01*
X0257580Y0246320D01*
X0253701Y0246320D01*
X0253701Y0245600D01*
X0252500Y0245600D01*
X0252500Y0246685D01*
X0252500Y0250458D01*
X0252013Y0251634D01*
X0251113Y0252534D01*
X0250904Y0252621D01*
X0251766Y0253482D01*
X0251800Y0253565D01*
X0251834Y0253482D01*
X0253482Y0251834D01*
X0254661Y0251346D01*
X0254396Y0251193D01*
X0254060Y0250858D01*
X0253823Y0250448D01*
X0252200Y0251182D02*
X0252200Y0253116D01*
X0256800Y0256800D02*
X0266800Y0256800D01*
X0257580Y0247200D02*
X0252500Y0247200D01*
X0255400Y0247280D02*
X0255400Y0246320D01*
X0246800Y0245028D02*
X0246800Y0240800D01*
X0246800Y0248572D02*
X0246800Y0256800D01*
X0236800Y0256800D02*
X0236800Y0248800D01*
X0236800Y0244800D02*
X0236800Y0240800D01*
X0271400Y0274600D02*
X0271400Y0278800D01*
X0274600Y0278800D02*
X0274600Y0274600D01*
X0098600Y0320798D02*
X0098600Y0327761D01*
X0095400Y0327761D02*
X0095400Y0320800D01*
X0092200Y0320800D02*
X0092200Y0327761D01*
X0089000Y0327761D02*
X0089000Y0320800D01*
X0086081Y0320800D02*
X0086009Y0320975D01*
X0085109Y0321875D01*
X0083933Y0322362D01*
X0077935Y0322362D01*
X0076759Y0321875D01*
X0075859Y0320975D01*
X0075787Y0320802D01*
X0075723Y0320840D01*
X0075265Y0320962D01*
X0073047Y0320962D01*
X0073047Y0317181D01*
X0072285Y0317181D01*
X0072285Y0317600D02*
X0073047Y0317600D01*
X0073000Y0317181D02*
X0073000Y0327761D01*
X0076200Y0327761D02*
X0076200Y0321316D01*
X0073047Y0320800D02*
X0072285Y0320800D01*
X0079400Y0322362D02*
X0079400Y0327761D01*
X0082600Y0327761D02*
X0082600Y0322362D01*
X0085800Y0321184D02*
X0085800Y0327761D01*
X0033686Y0167060D02*
X0030800Y0167060D01*
X0030800Y0165462D02*
X0033000Y0165462D01*
X0032964Y0163863D02*
X0030800Y0163863D01*
X0036564Y0143082D02*
X0036564Y0143082D01*
X0036564Y0141484D02*
X0036564Y0141484D01*
X0031465Y0141484D02*
X0030800Y0141484D01*
X0090658Y0086367D02*
X0092300Y0084300D01*
X0139300Y0084300D01*
X0093800Y0029800D02*
X0094300Y0029300D01*
X0095400Y0021800D02*
X0095400Y0020800D01*
X0092200Y0020800D02*
X0092200Y0021800D01*
X0089000Y0021800D02*
X0089000Y0020800D01*
X0098600Y0020800D02*
X0098600Y0021800D01*
X0101800Y0022299D02*
X0101800Y0020800D01*
D11*
X0151800Y0026800D03*
X0161800Y0026800D03*
X0171800Y0026800D03*
X0181800Y0026800D03*
X0191800Y0026800D03*
X0201800Y0026800D03*
X0221800Y0026800D03*
X0231800Y0026800D03*
X0241800Y0026800D03*
X0251800Y0026800D03*
X0261800Y0026800D03*
X0271800Y0026800D03*
X0281800Y0026800D03*
X0291800Y0026800D03*
X0311800Y0026800D03*
X0321800Y0026800D03*
X0331800Y0026800D03*
X0341800Y0026800D03*
X0351800Y0026800D03*
X0361800Y0026800D03*
X0371800Y0026800D03*
X0381800Y0026800D03*
X0391800Y0046800D03*
X0401800Y0046800D03*
X0401800Y0056800D03*
X0391800Y0056800D03*
X0391800Y0066800D03*
X0401800Y0066800D03*
X0401800Y0076800D03*
X0401800Y0086800D03*
X0391800Y0086800D03*
X0391800Y0076800D03*
X0391800Y0096800D03*
X0401800Y0096800D03*
X0401800Y0106800D03*
X0391800Y0106800D03*
X0391800Y0116800D03*
X0401800Y0116800D03*
X0401800Y0126800D03*
X0391800Y0126800D03*
X0391800Y0136800D03*
X0401800Y0136800D03*
X0401800Y0146800D03*
X0401800Y0156800D03*
X0391800Y0156800D03*
X0391800Y0146800D03*
X0391800Y0166800D03*
X0401800Y0166800D03*
X0401800Y0176800D03*
X0391800Y0176800D03*
X0391800Y0186800D03*
X0401800Y0186800D03*
X0401800Y0196800D03*
X0391800Y0196800D03*
X0391800Y0206800D03*
X0401800Y0206800D03*
X0401800Y0216800D03*
X0391800Y0216800D03*
X0361800Y0216800D03*
X0351800Y0216800D03*
X0341800Y0216800D03*
X0331800Y0216800D03*
X0321800Y0216800D03*
X0311800Y0216800D03*
X0301800Y0216800D03*
X0291800Y0216800D03*
X0271800Y0216800D03*
X0261800Y0216800D03*
X0251800Y0216800D03*
X0241800Y0216800D03*
X0231800Y0216800D03*
X0221800Y0216800D03*
X0211800Y0216800D03*
X0201800Y0216800D03*
X0185800Y0216800D03*
X0175800Y0216800D03*
X0165800Y0216800D03*
X0155800Y0216800D03*
X0145800Y0216800D03*
X0135800Y0216800D03*
X0125800Y0216800D03*
X0115800Y0216800D03*
D12*
X0080934Y0286800D03*
X0072666Y0286800D03*
X0072666Y0296800D03*
X0080934Y0296800D03*
X0080934Y0306800D03*
X0072666Y0306800D03*
X0072666Y0316800D03*
X0080934Y0316800D03*
X0191800Y0317666D03*
X0191800Y0325934D03*
X0281800Y0325934D03*
X0281800Y0317666D03*
X0371800Y0317666D03*
X0371800Y0325934D03*
X0135934Y0026800D03*
X0127666Y0026800D03*
D13*
X0128060Y0034800D03*
X0135540Y0034800D03*
X0135146Y0061800D03*
X0128454Y0061800D03*
X0148454Y0061800D03*
X0155146Y0061800D03*
X0035146Y0191800D03*
X0028454Y0191800D03*
X0168060Y0246800D03*
X0175540Y0246800D03*
X0258060Y0246800D03*
X0265540Y0246800D03*
X0348060Y0246800D03*
X0355540Y0246800D03*
D14*
X0356800Y0316800D03*
X0346800Y0316800D03*
X0336800Y0316800D03*
X0326800Y0316800D03*
X0266800Y0316800D03*
X0256800Y0316800D03*
X0246800Y0316800D03*
X0236800Y0316800D03*
X0176800Y0316800D03*
X0166800Y0316800D03*
X0156800Y0316800D03*
X0146800Y0316800D03*
X0371800Y0106800D03*
X0371800Y0096800D03*
X0371800Y0086800D03*
X0371800Y0076800D03*
X0381800Y0076800D03*
X0381800Y0086800D03*
X0381800Y0096800D03*
X0381800Y0106800D03*
X0381800Y0036800D03*
X0371800Y0036800D03*
X0361800Y0036800D03*
X0351800Y0036800D03*
X0341800Y0036800D03*
X0331800Y0036800D03*
X0321800Y0036800D03*
X0311800Y0036800D03*
X0291800Y0036800D03*
X0281800Y0036800D03*
X0271800Y0036800D03*
X0261800Y0036800D03*
X0251800Y0036800D03*
X0241800Y0036800D03*
X0231800Y0036800D03*
X0221800Y0036800D03*
D15*
X0216800Y0256800D03*
X0226800Y0256800D03*
X0236800Y0256800D03*
X0246800Y0256800D03*
X0256800Y0256800D03*
X0266800Y0256800D03*
X0276800Y0256800D03*
X0286800Y0256800D03*
X0306800Y0256800D03*
X0316800Y0256800D03*
X0326800Y0256800D03*
X0336800Y0256800D03*
X0346800Y0256800D03*
X0356800Y0256800D03*
X0366800Y0256800D03*
X0376800Y0256800D03*
X0376800Y0306800D03*
X0366800Y0306800D03*
X0356800Y0306800D03*
X0346800Y0306800D03*
X0336800Y0306800D03*
X0326800Y0306800D03*
X0316800Y0306800D03*
X0306800Y0306800D03*
X0286800Y0306800D03*
X0276800Y0306800D03*
X0266800Y0306800D03*
X0256800Y0306800D03*
X0246800Y0306800D03*
X0236800Y0306800D03*
X0226800Y0306800D03*
X0216800Y0306800D03*
X0196800Y0306800D03*
X0186800Y0306800D03*
X0176800Y0306800D03*
X0166800Y0306800D03*
X0156800Y0306800D03*
X0146800Y0306800D03*
X0136800Y0306800D03*
X0126800Y0306800D03*
X0126800Y0256800D03*
X0136800Y0256800D03*
X0146800Y0256800D03*
X0156800Y0256800D03*
X0166800Y0256800D03*
X0176800Y0256800D03*
X0186800Y0256800D03*
X0196800Y0256800D03*
D16*
X0116800Y0296800D03*
X0106800Y0296800D03*
X0106800Y0306800D03*
X0116800Y0306800D03*
X0096800Y0306800D03*
X0096800Y0296800D03*
D17*
X0113800Y0286146D03*
X0113800Y0279454D03*
X0201800Y0318060D03*
X0201800Y0325540D03*
X0216800Y0295146D03*
X0216800Y0288454D03*
X0206800Y0270540D03*
X0206800Y0263060D03*
X0296800Y0263060D03*
X0296800Y0270540D03*
X0306800Y0288454D03*
X0306800Y0295146D03*
X0296800Y0318060D03*
X0296800Y0325540D03*
X0381800Y0325540D03*
X0381800Y0318060D03*
X0386800Y0270540D03*
X0386800Y0263060D03*
X0066800Y0175146D03*
X0066800Y0168454D03*
X0061800Y0135146D03*
X0061800Y0128454D03*
X0051800Y0128454D03*
X0051800Y0135146D03*
D18*
X0126170Y0276800D03*
X0147430Y0276800D03*
X0241170Y0276800D03*
X0262430Y0276800D03*
X0316170Y0276800D03*
X0337430Y0276800D03*
D19*
X0063375Y0272194D03*
X0040146Y0272194D03*
X0051564Y0253690D03*
D20*
X0141800Y0293800D03*
X0231800Y0293800D03*
X0321800Y0293800D03*
D21*
X0335580Y0293800D03*
X0349359Y0293800D03*
X0363139Y0293800D03*
X0273139Y0293800D03*
X0259359Y0293800D03*
X0245580Y0293800D03*
X0183139Y0293800D03*
X0169359Y0293800D03*
X0155580Y0293800D03*
D22*
X0036800Y0253493D03*
X0036800Y0239713D03*
D23*
X0032900Y0294000D03*
X0050700Y0294000D03*
X0050700Y0319600D03*
X0032900Y0319600D03*
X0351800Y0226800D03*
X0361800Y0226800D03*
X0381800Y0156800D03*
X0381800Y0146800D03*
X0381800Y0136800D03*
X0371800Y0136800D03*
X0371800Y0146800D03*
D24*
X0391800Y0286800D03*
X0401800Y0286800D03*
X0401800Y0296800D03*
X0391800Y0296800D03*
X0391800Y0306800D03*
X0401800Y0306800D03*
X0090658Y0226367D03*
X0080658Y0226367D03*
X0080658Y0216367D03*
X0090658Y0216367D03*
X0090658Y0206367D03*
X0080658Y0206367D03*
X0080658Y0196367D03*
X0090658Y0196367D03*
X0090658Y0186367D03*
X0080658Y0186367D03*
X0080658Y0176367D03*
X0090658Y0176367D03*
X0090658Y0166367D03*
X0080658Y0166367D03*
X0080658Y0156367D03*
X0090658Y0156367D03*
X0090658Y0146367D03*
X0080658Y0146367D03*
X0080658Y0136367D03*
X0090658Y0136367D03*
X0090658Y0126367D03*
X0080658Y0126367D03*
X0080658Y0116367D03*
X0090658Y0116367D03*
X0090658Y0106367D03*
X0080658Y0106367D03*
X0080658Y0096367D03*
X0090658Y0096367D03*
X0090658Y0086367D03*
X0080658Y0086367D03*
X0080658Y0076367D03*
X0080658Y0066367D03*
X0090658Y0066367D03*
X0090658Y0076367D03*
X0090658Y0056367D03*
X0080658Y0056367D03*
X0080658Y0046367D03*
X0090658Y0046367D03*
X0090658Y0036367D03*
X0080658Y0036367D03*
D25*
X0136800Y0245300D02*
X0136800Y0248300D01*
X0146800Y0248300D02*
X0146800Y0245300D01*
X0226800Y0245300D02*
X0226800Y0248300D01*
X0236800Y0248300D02*
X0236800Y0245300D01*
X0316800Y0245300D02*
X0316800Y0248300D01*
X0326800Y0248300D02*
X0326800Y0245300D01*
D26*
X0326800Y0244800D03*
X0326800Y0248800D03*
X0336800Y0248572D03*
X0336800Y0245028D03*
X0316800Y0244800D03*
X0316800Y0248800D03*
X0246800Y0248572D03*
X0246800Y0245028D03*
X0236800Y0244800D03*
X0236800Y0248800D03*
X0226800Y0248800D03*
X0226800Y0244800D03*
X0156800Y0245028D03*
X0156800Y0248572D03*
X0146800Y0248800D03*
X0146800Y0244800D03*
X0136800Y0244800D03*
X0136800Y0248800D03*
D27*
X0094300Y0267587D03*
X0089300Y0267587D03*
X0084300Y0267587D03*
X0079300Y0267587D03*
X0079300Y0276013D03*
X0084300Y0276013D03*
X0089300Y0276013D03*
X0094300Y0276013D03*
D28*
X0057036Y0159300D03*
X0057036Y0154300D03*
X0057036Y0149300D03*
X0057036Y0144300D03*
X0036564Y0144300D03*
X0036564Y0149300D03*
X0036564Y0154300D03*
X0036564Y0159300D03*
D29*
X0046800Y0151800D03*
D30*
X0066800Y0150737D03*
X0066800Y0142863D03*
X0035800Y0115737D03*
X0035800Y0107863D03*
D31*
X0032863Y0026800D03*
X0040737Y0026800D03*
X0057863Y0191800D03*
X0065737Y0191800D03*
X0065737Y0236800D03*
X0057863Y0236800D03*
D32*
X0059320Y0214438D03*
X0035304Y0214438D03*
X0034792Y0051800D03*
X0058808Y0051800D03*
D33*
X0059989Y0087312D03*
X0034792Y0087312D03*
D34*
X0051800Y0029500D02*
X0051800Y0024100D01*
X0061800Y0024100D02*
X0061800Y0029500D01*
D35*
X0205284Y0051623D03*
X0205284Y0054182D03*
X0205284Y0056741D03*
X0205284Y0059123D03*
X0205284Y0061682D03*
X0205284Y0064241D03*
X0205284Y0066800D03*
X0205284Y0069359D03*
X0205284Y0071918D03*
X0205284Y0074477D03*
X0228316Y0074477D03*
X0228316Y0071918D03*
X0228316Y0069359D03*
X0228316Y0066800D03*
X0228316Y0064241D03*
X0228316Y0061682D03*
X0228316Y0059123D03*
X0228316Y0056741D03*
X0228316Y0054182D03*
X0228316Y0051623D03*
X0310284Y0069123D03*
X0310284Y0071682D03*
X0310284Y0074241D03*
X0310284Y0076800D03*
X0310284Y0079359D03*
X0310284Y0081918D03*
X0310284Y0084477D03*
X0310284Y0086859D03*
X0310284Y0089418D03*
X0310284Y0091977D03*
X0310284Y0109123D03*
X0310284Y0111682D03*
X0310284Y0114241D03*
X0310284Y0116800D03*
X0310284Y0119359D03*
X0310284Y0121918D03*
X0310284Y0124477D03*
X0310284Y0126859D03*
X0310284Y0129418D03*
X0310284Y0131977D03*
X0333316Y0131977D03*
X0333316Y0129418D03*
X0333316Y0126859D03*
X0333316Y0124477D03*
X0333316Y0121918D03*
X0333316Y0119359D03*
X0333316Y0116800D03*
X0333316Y0114241D03*
X0333316Y0111682D03*
X0333316Y0109123D03*
X0333316Y0091977D03*
X0333316Y0089418D03*
X0333316Y0086859D03*
X0333316Y0084477D03*
X0333316Y0081918D03*
X0333316Y0079359D03*
X0333316Y0076800D03*
X0333316Y0074241D03*
X0333316Y0071682D03*
X0333316Y0069123D03*
X0228316Y0179123D03*
X0228316Y0181682D03*
X0228316Y0184241D03*
X0228316Y0186800D03*
X0228316Y0189359D03*
X0228316Y0191918D03*
X0228316Y0194477D03*
X0228316Y0196859D03*
X0228316Y0199418D03*
X0228316Y0201977D03*
X0205284Y0201977D03*
X0205284Y0199418D03*
X0205284Y0196859D03*
X0205284Y0194477D03*
X0205284Y0191918D03*
X0205284Y0189359D03*
X0205284Y0186800D03*
X0205284Y0184241D03*
X0205284Y0181682D03*
X0205284Y0179123D03*
D36*
X0139871Y0046800D03*
X0123729Y0046800D03*
D37*
X0062674Y0111800D03*
X0046926Y0111800D03*
D38*
X0066800Y0181800D03*
X0051800Y0191800D03*
X0051800Y0226800D03*
X0114300Y0232300D03*
X0162800Y0251800D03*
X0176800Y0232800D03*
X0211800Y0242800D03*
X0191800Y0271800D03*
X0181800Y0276800D03*
X0157800Y0276800D03*
X0107800Y0276800D03*
X0067800Y0286800D03*
X0069800Y0325800D03*
X0207800Y0317800D03*
X0276800Y0276800D03*
X0286800Y0276800D03*
X0252800Y0249800D03*
X0286800Y0316800D03*
X0303800Y0317800D03*
X0349800Y0276800D03*
X0342800Y0250300D03*
X0381800Y0276800D03*
X0396800Y0321800D03*
X0341800Y0116800D03*
X0293800Y0106800D03*
X0289800Y0074300D03*
X0264300Y0071800D03*
X0244300Y0071800D03*
X0204800Y0093800D03*
X0291800Y0051800D03*
X0341800Y0051800D03*
X0411800Y0036800D03*
D39*
X0294300Y0136800D02*
X0293800Y0136800D01*
X0259300Y0136800D01*
X0235550Y0160550D01*
X0231800Y0164300D01*
X0226800Y0164300D01*
X0226800Y0176800D01*
X0234800Y0276800D02*
X0232800Y0278800D01*
X0206800Y0278800D01*
X0206800Y0291800D01*
X0210146Y0295146D01*
X0216800Y0295146D01*
X0216800Y0306800D01*
X0236800Y0306800D02*
X0236800Y0316800D01*
X0246800Y0316800D02*
X0246800Y0306800D01*
X0246800Y0296800D01*
X0245580Y0293800D01*
X0245800Y0284800D02*
X0296800Y0284800D01*
X0304800Y0276800D01*
X0316170Y0276800D01*
X0296800Y0284800D02*
X0296800Y0291800D01*
X0300146Y0295146D01*
X0306800Y0295146D01*
X0306800Y0306800D01*
X0336800Y0306800D02*
X0336800Y0296800D01*
X0335580Y0293800D01*
X0286800Y0276800D02*
X0276800Y0276800D01*
X0245800Y0284800D02*
X0241170Y0281170D01*
X0241170Y0276800D01*
X0234800Y0276800D01*
X0206800Y0278800D02*
X0194800Y0278800D01*
X0188800Y0284800D01*
X0126800Y0284800D01*
X0126800Y0296800D01*
X0126146Y0287146D01*
X0113800Y0286146D01*
X0126800Y0284800D02*
X0126800Y0276800D01*
X0126170Y0276800D01*
X0126800Y0296800D02*
X0126800Y0306800D01*
X0146800Y0306800D02*
X0146800Y0316800D01*
X0156800Y0316800D02*
X0156800Y0306800D01*
X0156800Y0296800D01*
X0155580Y0293800D01*
X0169359Y0293800D02*
X0169300Y0296800D01*
X0169300Y0304300D01*
X0166800Y0304300D01*
X0166800Y0306800D01*
X0166800Y0316800D01*
X0176800Y0316800D02*
X0176800Y0306800D01*
X0101800Y0251800D02*
X0069300Y0251800D01*
X0057863Y0236800D02*
X0046800Y0236800D01*
X0044300Y0239300D01*
X0036800Y0239300D01*
X0036800Y0239713D01*
X0036800Y0206800D01*
X0035304Y0214438D01*
X0034300Y0204300D01*
X0026800Y0204300D01*
X0026800Y0191800D01*
X0028454Y0191800D01*
X0256800Y0306800D02*
X0256800Y0316800D01*
X0266800Y0316800D02*
X0266800Y0306800D01*
D40*
X0221800Y0272300D03*
X0196800Y0317800D03*
X0169300Y0271800D03*
X0126800Y0264300D03*
X0121800Y0246800D03*
X0101800Y0251800D03*
X0121800Y0226800D03*
X0099800Y0199800D03*
X0101300Y0191300D03*
X0076300Y0201300D03*
X0051800Y0184300D03*
X0049800Y0178800D03*
X0044800Y0178800D03*
X0039800Y0178800D03*
X0034800Y0178800D03*
X0034800Y0173800D03*
X0039800Y0173800D03*
X0044800Y0173800D03*
X0044800Y0168800D03*
X0049800Y0168800D03*
X0049800Y0173800D03*
X0059300Y0176800D03*
X0049800Y0163800D03*
X0049800Y0158800D03*
X0049800Y0153800D03*
X0044800Y0153800D03*
X0044800Y0158800D03*
X0044800Y0163800D03*
X0044800Y0148800D03*
X0044800Y0143800D03*
X0049800Y0143800D03*
X0049800Y0148800D03*
X0044800Y0138800D03*
X0044800Y0133800D03*
X0044800Y0128800D03*
X0044800Y0123800D03*
X0102300Y0121300D03*
X0111800Y0121800D03*
X0121800Y0134300D03*
X0141800Y0134300D03*
X0134300Y0104300D03*
X0151800Y0104300D03*
X0144300Y0089300D03*
X0139300Y0084300D03*
X0121800Y0074300D03*
X0111800Y0089300D03*
X0106800Y0089300D03*
X0161800Y0061800D03*
X0166800Y0071800D03*
X0176800Y0066800D03*
X0189300Y0090800D03*
X0176800Y0096800D03*
X0176800Y0104300D03*
X0196800Y0104300D03*
X0221800Y0104300D03*
X0256800Y0126800D03*
X0269300Y0121800D03*
X0261800Y0104300D03*
X0304300Y0074300D03*
X0314300Y0076800D03*
X0316800Y0066800D03*
X0349300Y0061800D03*
X0251800Y0064300D03*
X0181800Y0134300D03*
X0181800Y0134300D03*
X0204800Y0150800D03*
X0196800Y0169300D03*
X0177300Y0174800D03*
X0156800Y0169300D03*
X0136800Y0179300D03*
X0217800Y0182300D03*
X0226800Y0169300D03*
X0245800Y0167800D03*
X0260800Y0167800D03*
X0294300Y0179300D03*
X0287800Y0205800D03*
X0277800Y0205800D03*
X0276800Y0214300D03*
X0287800Y0230800D03*
X0246800Y0203300D03*
X0223800Y0201800D03*
X0341800Y0161800D03*
X0389300Y0226800D03*
X0389300Y0231800D03*
X0389300Y0236800D03*
X0101800Y0284300D03*
X0101800Y0311800D03*
X0069300Y0251800D03*
D41*
X0036800Y0164800D03*
X0067800Y0162800D03*
X0067800Y0136800D03*
X0062800Y0121800D03*
X0036800Y0121800D03*
X0066800Y0087800D03*
X0066800Y0076800D03*
X0066800Y0066800D03*
X0066800Y0043800D03*
X0056800Y0043800D03*
X0111800Y0046800D03*
X0116800Y0030800D03*
X0168800Y0044800D03*
X0293800Y0136800D03*
X0326300Y0090300D03*
X0341800Y0066800D03*
D42*
X0341800Y0051800D02*
X0291800Y0051800D01*
X0065800Y0236863D02*
X0065737Y0236800D01*
X0065800Y0236863D02*
X0065800Y0243800D01*
X0055910Y0253690D01*
X0051564Y0253690D01*
X0036800Y0253493D02*
X0036800Y0268847D01*
X0040146Y0272194D01*
X0040146Y0283446D01*
X0050700Y0294000D01*
X0057900Y0286800D01*
X0067800Y0286800D01*
X0050700Y0294000D02*
X0050700Y0319600D01*
X0147430Y0276800D02*
X0157800Y0276800D01*
X0186800Y0276800D01*
X0191800Y0271800D01*
D43*
X0206800Y0263060D02*
X0206800Y0251800D01*
X0194800Y0251800D01*
X0182800Y0239800D01*
X0156800Y0239800D01*
X0146800Y0239800D01*
X0137800Y0239800D01*
X0078800Y0239800D01*
X0071800Y0232800D01*
X0071800Y0224800D01*
X0080233Y0216367D01*
X0080658Y0216367D01*
X0065800Y0229800D02*
X0065800Y0236737D01*
X0065737Y0236800D01*
X0065800Y0229800D02*
X0059320Y0223320D01*
X0059320Y0214438D01*
X0059320Y0204320D01*
X0051800Y0196800D01*
X0051800Y0191800D01*
X0057863Y0191800D01*
X0066800Y0181800D02*
X0066800Y0175146D01*
X0036564Y0154300D02*
X0036064Y0154800D01*
X0028800Y0154800D01*
X0026800Y0156800D01*
X0026800Y0190146D01*
X0028454Y0191800D01*
X0029300Y0149300D02*
X0026800Y0146800D01*
X0026800Y0112800D01*
X0031737Y0107863D01*
X0035800Y0107863D02*
X0035800Y0088320D01*
X0059989Y0087312D02*
X0066312Y0087312D01*
X0066800Y0087800D01*
X0059989Y0087312D02*
X0059989Y0052981D01*
X0056800Y0051800D02*
X0046800Y0041800D01*
X0046800Y0026800D01*
X0040737Y0026800D01*
X0046800Y0026800D02*
X0051800Y0026800D01*
X0061800Y0026800D02*
X0073800Y0026800D01*
X0076800Y0029800D01*
X0093800Y0029800D01*
X0094300Y0029300D02*
X0104300Y0039300D01*
X0114300Y0039300D01*
X0121800Y0046800D01*
X0135540Y0034800D02*
X0135540Y0027194D01*
X0141800Y0024300D02*
X0142300Y0024300D01*
X0145800Y0020800D01*
X0171800Y0020800D01*
X0211800Y0020800D01*
X0405800Y0020800D01*
X0411800Y0026800D01*
X0411800Y0036800D01*
X0401800Y0216800D02*
X0391800Y0216800D01*
X0401800Y0216800D02*
X0406800Y0221800D01*
X0406800Y0241800D01*
X0406800Y0268800D01*
X0404800Y0270800D01*
X0387060Y0270800D01*
X0406800Y0269800D02*
X0408800Y0271800D01*
X0408800Y0299800D01*
X0401800Y0306800D01*
X0366800Y0306800D02*
X0366800Y0310800D01*
X0364800Y0312800D01*
X0364800Y0320800D01*
X0359800Y0325800D01*
X0321800Y0325800D01*
X0317800Y0321800D01*
X0317800Y0313800D01*
X0316800Y0312800D01*
X0282800Y0312800D01*
X0276800Y0306800D01*
X0273800Y0309800D01*
X0273800Y0320800D01*
X0268800Y0325800D01*
X0215800Y0325800D01*
X0213800Y0323800D01*
X0213800Y0315800D01*
X0209800Y0311800D01*
X0186800Y0311800D01*
X0186800Y0306800D01*
X0185800Y0307800D01*
X0185800Y0321800D01*
X0181800Y0325800D01*
X0110800Y0325800D01*
X0106800Y0321800D01*
X0106800Y0306800D01*
X0106800Y0301800D01*
X0106800Y0296800D01*
X0136800Y0244800D02*
X0136800Y0240800D01*
X0137800Y0239800D01*
X0206800Y0251800D02*
X0211800Y0251800D01*
X0221800Y0240800D01*
X0226800Y0240800D01*
X0236800Y0240800D01*
X0246800Y0240800D01*
X0316800Y0240800D01*
X0326800Y0240800D01*
X0336800Y0240800D01*
X0370800Y0240800D01*
X0371800Y0241800D01*
X0406800Y0241800D01*
X0406800Y0268800D02*
X0406800Y0269800D01*
X0295800Y0269800D02*
X0226800Y0269800D01*
X0223800Y0266800D01*
X0216800Y0266800D01*
X0213800Y0263800D01*
X0207540Y0263800D01*
X0206800Y0263060D01*
X0057036Y0144300D02*
X0057036Y0135383D01*
X0056800Y0135146D02*
X0061800Y0135146D01*
X0056800Y0135146D02*
X0051800Y0135146D01*
X0062800Y0127454D02*
X0062800Y0121800D01*
X0036564Y0149300D02*
X0029300Y0149300D01*
X0034792Y0051800D02*
X0034792Y0044792D01*
X0031800Y0041800D01*
X0031800Y0027863D01*
X0032863Y0026800D01*
X0034792Y0051800D02*
X0037800Y0051800D01*
X0141800Y0046800D02*
X0141800Y0024300D01*
X0168800Y0044800D02*
X0178800Y0044800D01*
X0186800Y0036800D01*
X0186800Y0026800D01*
X0181800Y0026800D01*
X0186800Y0026800D02*
X0191800Y0026800D01*
X0171800Y0021800D02*
X0171800Y0020800D01*
D44*
X0186800Y0036800D02*
X0193769Y0036800D01*
X0205284Y0048316D01*
X0209316Y0048316D01*
X0210800Y0049800D01*
X0210800Y0051800D01*
X0210800Y0054300D01*
X0210800Y0056800D01*
X0210800Y0059300D01*
X0210800Y0061300D01*
X0210800Y0071800D01*
X0210800Y0074300D01*
X0210800Y0075800D01*
X0216800Y0071800D02*
X0216800Y0046800D01*
X0211800Y0041800D01*
X0211800Y0020800D01*
X0067800Y0136800D02*
X0066800Y0140800D01*
X0066800Y0142863D01*
X0065363Y0149300D02*
X0057036Y0149300D01*
X0057036Y0154300D02*
X0061300Y0154300D01*
X0063800Y0156800D01*
X0063800Y0161800D01*
X0060800Y0164800D01*
X0060800Y0175300D01*
X0059300Y0176800D01*
X0053800Y0177800D02*
X0053800Y0166800D01*
X0056800Y0163800D01*
X0056800Y0159536D01*
X0057036Y0159300D01*
X0066800Y0150737D02*
X0065363Y0149300D01*
X0067800Y0162800D02*
X0067800Y0165800D01*
X0066800Y0167800D01*
X0066800Y0168454D01*
X0053800Y0177800D02*
X0064300Y0188300D01*
X0064300Y0191800D01*
X0051800Y0184300D02*
X0044300Y0184300D01*
X0036800Y0191800D01*
X0036800Y0164800D02*
X0036564Y0164564D01*
X0036564Y0159300D01*
X0057036Y0135383D02*
X0056800Y0135146D01*
X0061800Y0128454D02*
X0062800Y0127454D01*
X0036800Y0121800D02*
X0036800Y0116737D01*
X0035800Y0115737D01*
X0035800Y0107863D02*
X0031737Y0107863D01*
X0035800Y0088320D02*
X0034792Y0087312D01*
X0059989Y0052981D02*
X0058808Y0051800D01*
X0090658Y0206367D02*
X0090658Y0216367D01*
X0090658Y0226367D01*
X0080658Y0226367D01*
X0090658Y0216367D02*
X0091091Y0216800D01*
X0101800Y0216800D01*
X0111800Y0206800D01*
X0116800Y0206800D01*
X0125800Y0215800D01*
X0125800Y0216800D01*
X0126800Y0216800D01*
X0136800Y0206800D01*
X0146800Y0239800D02*
X0146800Y0244800D01*
X0156800Y0245028D02*
X0156800Y0239800D01*
X0113800Y0279454D02*
X0110454Y0279454D01*
X0107800Y0276800D01*
X0116800Y0306800D02*
X0124300Y0314300D01*
X0129800Y0314300D01*
X0136800Y0307300D01*
X0072666Y0316800D02*
X0072666Y0322934D01*
X0069800Y0325800D01*
X0063600Y0319600D01*
X0050700Y0319600D01*
X0051800Y0226800D02*
X0055839Y0226800D01*
X0059320Y0223320D01*
X0226800Y0240800D02*
X0226800Y0244800D01*
X0386800Y0270540D02*
X0387060Y0270800D01*
D45*
X0276800Y0214300D02*
X0274300Y0211800D01*
X0191800Y0211800D01*
X0186800Y0216800D01*
X0185800Y0216800D01*
X0091091Y0146300D02*
X0090658Y0146367D01*
X0111800Y0094300D02*
X0106800Y0089300D01*
X0210623Y0074477D02*
X0210800Y0074300D01*
X0210682Y0071918D02*
X0210800Y0071800D01*
X0210418Y0061682D02*
X0210800Y0061300D01*
X0210800Y0059300D02*
X0210623Y0059123D01*
X0210800Y0056800D02*
X0210741Y0056741D01*
X0210800Y0054300D02*
X0210682Y0054182D01*
X0210800Y0051800D02*
X0210623Y0051623D01*
X0241682Y0071918D02*
X0244300Y0071800D01*
X0264300Y0071800D01*
X0324800Y0117300D02*
X0325300Y0116800D01*
X0324800Y0119300D02*
X0324859Y0119359D01*
X0324800Y0121800D02*
X0324918Y0121918D01*
X0325123Y0124477D02*
X0324800Y0124800D01*
X0326800Y0091800D02*
X0333139Y0091800D01*
X0333316Y0091977D01*
X0333316Y0089418D02*
X0327182Y0089418D01*
X0326300Y0090300D01*
X0326300Y0091300D01*
X0326800Y0091800D01*
X0374300Y0041800D02*
X0404300Y0041800D01*
D46*
X0136800Y0206800D03*
D47*
X0252800Y0233800D03*
D48*
X0321800Y0141800D02*
X0321800Y0101800D01*
X0326800Y0096800D01*
X0326800Y0091800D01*
D49*
X0171800Y0026800D02*
X0171800Y0021800D01*
M02*
