%
M48
M72
T01C0.0120
T02C0.0160
T03C0.0236
T04C0.0354
T05C0.0360
T06C0.0394
T07C0.0400
T08C0.0472
T09C0.1181
%
T01
X10680Y8930
X11180Y8930
X12180Y7430
X13930Y8430
X14430Y8930
X13430Y10430
X16680Y7180
X17680Y6680
X16180Y6180
X18930Y9080
X17680Y9680
X21930Y12930
X23080Y13780
X21080Y14280
X21080Y15780
X21930Y17180
X22080Y17780
X21180Y18680
X20930Y19180
X21680Y20180
X22180Y19930
X22180Y19430
X23430Y19180
X23430Y20180
X24680Y19180
X24080Y17780
X23430Y17430
X24580Y16780
X26080Y16780
X26080Y17780
X29430Y17930
X27680Y21430
X34180Y16180
X38930Y19180
X38930Y22680
X38930Y23180
X38930Y23680
X25680Y12680
X26930Y12180
X31430Y7680
X31680Y6680
X30430Y7430
X25130Y6430
X18180Y15680
X18180Y16180
X17680Y17180
X18680Y18180
X13680Y18180
X11680Y17680
X11180Y17680
X10680Y18180
X10430Y18430
X9680Y16930
X9680Y13930
X5930Y17680
X5180Y18430
X7680Y20180
X9930Y19930
X10180Y25180
X12680Y26430
X10180Y28430
X10180Y30680
X16930Y27180
X22180Y27230
X6930Y25180
X36930Y6180
T02
X34180Y6680
X34180Y9180
X29380Y13680
X16680Y4480
X15680Y4480
X14680Y3480
X11680Y3080
X11180Y4680
X6680Y4380
X5680Y4380
X4980Y6380
X4980Y7380
X4980Y8380
X4980Y9380
X6680Y8780
X6680Y7680
X6680Y6680
X6280Y12180
X4480Y12380
X4480Y12880
X4480Y13380
X4480Y13880
X4480Y14380
X4480Y14380
X4480Y14880
X4980Y14880
X4980Y14380
X4980Y15380
X4980Y15880
X4980Y16380
X4480Y16380
X4480Y15880
X4480Y15380
X3680Y16480
X4480Y16880
X4480Y17380
X3980Y17380
X3480Y17380
X3480Y17880
X3980Y17880
X4480Y17880
X4980Y17880
X4980Y17380
X4980Y16880
X6780Y16280
X6780Y13680
X3680Y12180
T03
X10180Y12180
X11180Y12180
X6680Y18180
X5180Y19180
X12180Y22680
X12180Y24680
X10780Y27680
X6780Y28680
X6980Y32580
X15780Y27680
X16280Y25180
X19180Y27180
X21180Y24280
X25280Y25080
X27680Y27680
X28680Y27680
X28680Y31680
X30380Y31780
X34980Y27680
X34280Y25180
X38180Y27680
X39680Y32180
X38780Y20180
X38930Y14180
X34180Y11680
X29180Y7180
X29180Y5180
X26180Y7180
X24180Y7180
X20480Y9380
X20480Y17080
X34180Y5180
X41180Y3680
X20780Y31780
X19580Y31780
T04
X19680Y30680
X18680Y30680
X17680Y30680
X16680Y30680
X15680Y30680
X14680Y30680
X13680Y30680
X12680Y30680
X12680Y25680
X13680Y25680
X14680Y25680
X15680Y25680
X16680Y25680
X17680Y25680
X18680Y25680
X19680Y25680
X21680Y25680
X22680Y25680
X23680Y25680
X24680Y25680
X25680Y25680
X26680Y25680
X27680Y25680
X28680Y25680
X30680Y25680
X31680Y25680
X32680Y25680
X33680Y25680
X34680Y25680
X35680Y25680
X36680Y25680
X37680Y25680
X37680Y30680
X36680Y30680
X35680Y30680
X34680Y30680
X33680Y30680
X32680Y30680
X31680Y30680
X30680Y30680
X28680Y30680
X27680Y30680
X26680Y30680
X25680Y30680
X24680Y30680
X23680Y30680
X22680Y30680
X21680Y30680
T05
X5180Y2680
X6180Y2680
X6180Y30180
X6180Y31180
T06
X3680Y25349
X3680Y23971
X11580Y21680
X12580Y21680
X13580Y21680
X14580Y21680
X15580Y21680
X16580Y21680
X17580Y21680
X18580Y21680
X20180Y21680
X21180Y21680
X22180Y21680
X23180Y21680
X24180Y21680
X25180Y21680
X26180Y21680
X27180Y21680
X29180Y21680
X30180Y21680
X31180Y21680
X32180Y21680
X33180Y21680
X34180Y21680
X35180Y21680
X36180Y21680
X39180Y21680
X40180Y21680
X40180Y20680
X39180Y20680
X39180Y19680
X40180Y19680
X40180Y18680
X39180Y18680
X39180Y17680
X40180Y17680
X40180Y16680
X39180Y16680
X39180Y15680
X39180Y14680
X40180Y14680
X40180Y15680
X40180Y13680
X39180Y13680
X39180Y12680
X40180Y12680
X40180Y11680
X39180Y11680
X39180Y10680
X40180Y10680
X40180Y9680
X39180Y9680
X39180Y8680
X39180Y7680
X40180Y7680
X40180Y8680
X40180Y6680
X39180Y6680
X39180Y5680
X40180Y5680
X40180Y4680
X39180Y4680
X38180Y2680
X37180Y2680
X36180Y2680
X35180Y2680
X34180Y2680
X33180Y2680
X32180Y2680
X31180Y2680
X29180Y2680
X28180Y2680
X27180Y2680
X26180Y2680
X25180Y2680
X24180Y2680
X23180Y2680
X22180Y2680
X20180Y2680
X19180Y2680
X18180Y2680
X17180Y2680
X16180Y2680
X15180Y2680
T07
X9066Y3637
X8066Y3637
X8066Y4637
X9066Y4637
X9066Y5637
X8066Y5637
X8066Y6637
X8066Y7637
X9066Y7637
X9066Y6637
X9066Y8637
X8066Y8637
X8066Y9637
X9066Y9637
X9066Y10637
X8066Y10637
X8066Y11637
X9066Y11637
X9066Y12637
X8066Y12637
X8066Y13637
X8066Y14637
X9066Y14637
X9066Y13637
X9066Y15637
X8066Y15637
X8066Y16637
X9066Y16637
X9066Y17637
X8066Y17637
X8066Y18637
X9066Y18637
X9066Y19637
X8066Y19637
X8066Y20637
X9066Y20637
X9066Y21637
X9066Y22637
X8066Y22637
X8066Y21637
X5070Y29400
X3290Y29400
X3290Y31960
X5070Y31960
X9680Y30680
X9680Y29680
X10680Y29680
X11680Y29680
X11680Y30680
X10680Y30680
X14680Y31680
X15680Y31680
X16680Y31680
X17680Y31680
X23680Y31680
X24680Y31680
X25680Y31680
X26680Y31680
X32680Y31680
X33680Y31680
X34680Y31680
X35680Y31680
X39180Y30680
X40180Y30680
X40180Y29680
X39180Y29680
X39180Y28680
X40180Y28680
T08
X36314Y29380
X34936Y29380
X33558Y29380
X32180Y29380
X27314Y29380
X25936Y29380
X24558Y29380
X23180Y29380
X18314Y29380
X16936Y29380
X15558Y29380
X14180Y29380
T09
X6337Y27219
X4015Y27219
X5156Y25369
M30
