G75*
%MOIN*%
%OFA0B0*%
%FSLAX24Y24*%
%IPPOS*%
%LPD*%
%AMOC8*
5,1,8,0,0,1.08239X$1,22.5*
%
%ADD10C,0.0160*%
%ADD11C,0.0280*%
%ADD12C,0.0230*%
%ADD13C,0.0060*%
%ADD14C,0.0100*%
D10*
X002145Y001680D02*
X039940Y001680D01*
X040727Y002467D01*
X040727Y032389D01*
X039940Y033176D01*
X002145Y033176D01*
X001357Y032389D01*
X001357Y002467D01*
X002145Y001680D01*
X009334Y029372D02*
X009334Y032224D01*
X010318Y032224D01*
X011363Y032224D01*
X011363Y029372D01*
X010318Y029372D01*
X009334Y029372D01*
X010318Y029372D02*
X010318Y032224D01*
D11*
X011327Y024546D02*
X012001Y024546D01*
X012338Y024209D01*
X013108Y023873D02*
X013782Y022525D01*
X014455Y023873D01*
X012338Y022525D02*
X010990Y023873D01*
X010990Y024209D01*
X011327Y024546D01*
X010220Y022862D02*
X009883Y022862D01*
X009883Y022525D01*
X010220Y022525D01*
X010220Y022862D01*
X010990Y022525D02*
X012338Y022525D01*
X009161Y022862D02*
X007813Y024209D01*
X007813Y022862D01*
X008150Y022525D01*
X008824Y022525D01*
X009161Y022862D01*
X009161Y024209D01*
X008824Y024546D01*
X008150Y024546D01*
X007813Y024209D01*
X017343Y023873D02*
X018354Y023873D01*
X018691Y023536D01*
X018691Y022862D01*
X018354Y022525D01*
X017343Y022525D01*
X017343Y024546D01*
X019766Y024546D02*
X019766Y022525D01*
X020103Y022525D02*
X019429Y022525D01*
X020873Y023199D02*
X022221Y023199D01*
X022221Y022862D02*
X022221Y023536D01*
X021884Y023873D01*
X021210Y023873D01*
X020873Y023536D01*
X020873Y023199D01*
X021210Y022525D02*
X021884Y022525D01*
X022221Y022862D01*
X022959Y022525D02*
X023633Y022525D01*
X023296Y022525D02*
X023296Y023873D01*
X023633Y023873D01*
X023296Y024546D02*
X023296Y024883D01*
X024403Y023536D02*
X024740Y023873D01*
X025413Y023873D01*
X025750Y023536D01*
X026520Y023873D02*
X027531Y023873D01*
X027868Y023536D01*
X027531Y023199D01*
X026857Y023199D01*
X026520Y022862D01*
X026857Y022525D01*
X027868Y022525D01*
X028622Y023873D02*
X028959Y023873D01*
X029633Y023199D01*
X029633Y022525D02*
X029633Y023873D01*
X030403Y023536D02*
X030403Y022525D01*
X031414Y022525D01*
X031751Y022862D01*
X031414Y023199D01*
X030403Y023199D01*
X030403Y023536D02*
X030740Y023873D01*
X031414Y023873D01*
X032826Y024546D02*
X032826Y022525D01*
X033163Y022525D02*
X032489Y022525D01*
X033933Y022862D02*
X033933Y023536D01*
X034270Y023873D01*
X034944Y023873D01*
X035281Y023536D01*
X035281Y022862D01*
X034944Y022525D01*
X034270Y022525D01*
X033933Y022862D01*
X033163Y024546D02*
X032826Y024546D01*
X036051Y024209D02*
X036051Y023536D01*
X036388Y023199D01*
X037398Y023199D01*
X037398Y022525D02*
X037398Y024546D01*
X036388Y024546D01*
X036051Y024209D01*
X025750Y024546D02*
X025750Y022525D01*
X024403Y022525D02*
X024403Y023536D01*
X020103Y024546D02*
X019766Y024546D01*
D12*
X018709Y015680D02*
X018709Y014409D01*
X019243Y014621D02*
X019455Y014409D01*
X020091Y014409D01*
X020091Y013985D02*
X020091Y015257D01*
X019455Y015257D01*
X019243Y015045D01*
X019243Y014621D01*
X018709Y015045D02*
X018498Y015257D01*
X018074Y015257D01*
X017862Y015045D01*
X017862Y014409D01*
X017328Y014409D02*
X017116Y014409D01*
X017116Y014621D01*
X017328Y014621D01*
X017328Y014409D01*
X016638Y014621D02*
X016426Y014409D01*
X015790Y014409D01*
X015256Y014621D02*
X015256Y015045D01*
X015045Y015257D01*
X014621Y015257D01*
X014409Y015045D01*
X014409Y014621D01*
X014621Y014409D01*
X015045Y014409D01*
X015256Y014621D01*
X015790Y015257D02*
X016426Y015257D01*
X016638Y015045D01*
X016638Y014621D01*
X013875Y014621D02*
X013875Y014409D01*
X013663Y014409D01*
X013663Y014621D01*
X013875Y014621D01*
X013185Y014621D02*
X013185Y015257D01*
X013185Y014621D02*
X012973Y014409D01*
X012337Y014409D01*
X012337Y015257D01*
X011803Y015680D02*
X011803Y014409D01*
X011803Y014833D02*
X011168Y015257D01*
X011803Y014833D02*
X011168Y014409D01*
X020624Y014409D02*
X021260Y014409D01*
X021472Y014621D01*
X021260Y014833D01*
X020624Y014833D01*
X020624Y015045D02*
X020624Y014409D01*
X020624Y015045D02*
X020836Y015257D01*
X021260Y015257D01*
X021987Y015257D02*
X022199Y015257D01*
X022623Y014833D01*
X022623Y014409D02*
X022623Y015257D01*
X023156Y015257D02*
X023792Y015257D01*
X024004Y015045D01*
X024004Y014621D01*
X023792Y014409D01*
X023156Y014409D01*
X023156Y014197D02*
X023156Y015257D01*
X023156Y014197D02*
X023368Y013985D01*
X023580Y013985D01*
X024519Y015257D02*
X024731Y015257D01*
X025155Y014833D01*
X025155Y014409D02*
X025155Y015257D01*
X025689Y015045D02*
X025689Y014409D01*
X026324Y014409D01*
X026536Y014621D01*
X026324Y014833D01*
X025689Y014833D01*
X025689Y015045D02*
X025900Y015257D01*
X026324Y015257D01*
X027245Y015680D02*
X027245Y014409D01*
X027457Y014409D02*
X027033Y014409D01*
X027991Y014621D02*
X027991Y015045D01*
X028202Y015257D01*
X028626Y015257D01*
X028838Y015045D01*
X028838Y014621D01*
X028626Y014409D01*
X028202Y014409D01*
X027991Y014621D01*
X027457Y015680D02*
X027245Y015680D01*
X029372Y015045D02*
X029372Y014621D01*
X029584Y014409D01*
X030219Y014409D01*
X030219Y013985D02*
X030219Y015257D01*
X029584Y015257D01*
X029372Y015045D01*
X030698Y014621D02*
X030698Y014409D01*
X030910Y014409D01*
X030910Y014621D01*
X030698Y014621D01*
X031444Y014621D02*
X031444Y015257D01*
X031444Y014621D02*
X031655Y014409D01*
X031867Y014621D01*
X032079Y014409D01*
X032291Y014621D01*
X032291Y015257D01*
X032825Y015257D02*
X032825Y014621D01*
X033037Y014409D01*
X033248Y014621D01*
X033460Y014409D01*
X033672Y014621D01*
X033672Y015257D01*
X034206Y015257D02*
X034206Y014621D01*
X034418Y014409D01*
X034630Y014621D01*
X034841Y014409D01*
X035053Y014621D01*
X035053Y015257D01*
D13*
X037522Y028174D02*
X037522Y028467D01*
X037302Y028634D02*
X037743Y028928D01*
X037743Y028634D02*
X037302Y028928D01*
X037522Y029174D02*
X037522Y029467D01*
X037376Y029320D02*
X037669Y029320D01*
X037743Y029634D02*
X037302Y029928D01*
X037302Y029634D02*
X037743Y029928D01*
X037669Y030313D02*
X037376Y030313D01*
X037302Y030387D01*
X037302Y030607D01*
X037743Y030607D01*
X037743Y030387D01*
X037669Y030313D01*
X037743Y030774D02*
X037302Y030774D01*
X037302Y031067D02*
X037743Y030774D01*
X037743Y031067D02*
X037302Y031067D01*
X037376Y031234D02*
X037302Y031307D01*
X037302Y031454D01*
X037376Y031528D01*
X037669Y031528D01*
X037743Y031454D01*
X037743Y031307D01*
X037669Y031234D01*
X037522Y031234D01*
X037522Y031381D01*
X037791Y031675D02*
X037718Y031749D01*
X037791Y031822D01*
X037938Y031822D01*
X038012Y031896D01*
X037938Y031969D01*
X037718Y031969D01*
X037791Y031675D02*
X038012Y031675D01*
X038172Y031675D02*
X038245Y031749D01*
X038245Y032042D01*
X038319Y031969D02*
X038172Y031969D01*
X038552Y031969D02*
X038552Y031675D01*
X038625Y031675D02*
X038479Y031675D01*
X038552Y031969D02*
X038625Y031969D01*
X038552Y032116D02*
X038552Y032189D01*
X038792Y031896D02*
X038792Y031675D01*
X038939Y031675D02*
X038939Y031896D01*
X038866Y031969D01*
X038792Y031896D01*
X038939Y031896D02*
X039012Y031969D01*
X039086Y031969D01*
X039086Y031675D01*
X039246Y031675D02*
X039393Y031675D01*
X039319Y031675D02*
X039319Y031969D01*
X039393Y031969D01*
X039319Y032116D02*
X039319Y032189D01*
X039626Y032116D02*
X039626Y031675D01*
X039553Y031675D02*
X039700Y031675D01*
X039700Y032116D02*
X039626Y032116D01*
X040222Y031428D02*
X040222Y031134D01*
X040296Y030967D02*
X040002Y030967D01*
X040002Y030674D02*
X040296Y030674D01*
X040443Y030820D01*
X040296Y030967D01*
X040369Y031281D02*
X040076Y031281D01*
X040076Y029928D02*
X040222Y029781D01*
X040443Y029781D01*
X040222Y029781D02*
X040076Y029634D01*
X040002Y029634D01*
X040222Y029467D02*
X040222Y029174D01*
X040076Y029320D02*
X040369Y029320D01*
X040076Y028928D02*
X040222Y028781D01*
X040443Y028781D01*
X040222Y028781D02*
X040076Y028634D01*
X040002Y028634D01*
X040222Y028467D02*
X040222Y028174D01*
X040076Y028320D02*
X040369Y028320D01*
X040076Y028928D02*
X040002Y028928D01*
X040002Y029928D02*
X040076Y029928D01*
X010846Y029906D02*
X010846Y029613D01*
X009957Y029791D02*
X009664Y029791D01*
X009810Y029938D02*
X009810Y029644D01*
X008966Y029644D02*
X008966Y029791D01*
X008893Y029864D01*
X008746Y029791D02*
X008746Y029644D01*
X008819Y029571D01*
X008893Y029571D01*
X008966Y029644D01*
X008746Y029791D02*
X008673Y029864D01*
X008599Y029864D01*
X008526Y029791D01*
X008526Y029644D01*
X008599Y029571D01*
X008143Y030274D02*
X008143Y030567D01*
X007849Y030274D01*
X007776Y030274D01*
X007702Y030347D01*
X007702Y030494D01*
X007776Y030567D01*
X007776Y030734D02*
X007702Y030807D01*
X007702Y030954D01*
X007776Y031028D01*
X007849Y031028D01*
X007922Y030954D01*
X007922Y030807D01*
X007996Y030734D01*
X008069Y030734D01*
X008143Y030807D01*
X008143Y030954D01*
X008069Y031028D01*
X008148Y031274D02*
X008148Y031567D01*
X008148Y031420D02*
X007707Y031420D01*
X007854Y031567D01*
X007781Y031734D02*
X007707Y031807D01*
X007707Y031954D01*
X007781Y032028D01*
X007854Y032028D01*
X007928Y031954D01*
X007928Y031807D01*
X008001Y031734D01*
X008074Y031734D01*
X008148Y031807D01*
X008148Y031954D01*
X008074Y032028D01*
X007493Y032007D02*
X007419Y031934D01*
X007346Y032007D01*
X007346Y032154D01*
X007272Y032228D01*
X007199Y032154D01*
X007199Y031934D01*
X007272Y031767D02*
X007199Y031694D01*
X007199Y031547D01*
X007272Y031474D01*
X007346Y031474D01*
X007346Y031767D01*
X007419Y031767D02*
X007272Y031767D01*
X007419Y031767D02*
X007493Y031694D01*
X007493Y031547D01*
X007493Y031307D02*
X007199Y031307D01*
X007346Y031307D02*
X007199Y031160D01*
X007199Y031087D01*
X007199Y030923D02*
X007493Y030776D01*
X007199Y030630D01*
X007272Y030463D02*
X007419Y030463D01*
X007493Y030389D01*
X007493Y030243D01*
X007419Y030169D01*
X007272Y030169D01*
X007199Y030243D01*
X007199Y030389D01*
X007272Y030463D01*
X007493Y032007D02*
X007493Y032228D01*
D14*
X001357Y001680D02*
X040357Y001680D01*
X040357Y002180D01*
X041357Y003180D01*
X041357Y016680D01*
X040357Y017680D01*
X040357Y022180D01*
X039857Y022680D01*
X001357Y022680D01*
X001357Y018940D01*
X000255Y018940D01*
X000255Y014137D01*
X001357Y014137D01*
X001357Y001680D01*
X001318Y003310D02*
X000302Y003310D01*
X000302Y006853D01*
X001318Y006853D01*
X001357Y014137D02*
X001357Y018940D01*
X013587Y027452D02*
X013787Y027652D01*
X013987Y027452D01*
X013987Y028053D01*
X014231Y027953D02*
X014231Y027552D01*
X014331Y027452D01*
X014532Y027452D01*
X014632Y027552D01*
X014632Y027953D01*
X014532Y028053D01*
X014331Y028053D01*
X014231Y027953D01*
X013587Y028053D02*
X013587Y027452D01*
X014876Y027452D02*
X015276Y027452D01*
X015076Y027452D02*
X015076Y028053D01*
X015520Y027953D02*
X015520Y027552D01*
X015621Y027452D01*
X015821Y027452D01*
X015921Y027552D01*
X015921Y027953D01*
X015821Y028053D01*
X015621Y028053D01*
X015520Y027953D01*
X016165Y028053D02*
X016165Y027452D01*
X016465Y027452D01*
X016565Y027552D01*
X016565Y027753D01*
X016465Y027853D01*
X016165Y027853D01*
X016365Y027853D02*
X016565Y028053D01*
X017454Y028053D02*
X017454Y027652D01*
X017654Y027452D01*
X017854Y027652D01*
X017854Y028053D01*
X017854Y027753D02*
X017454Y027753D01*
X022587Y028053D02*
X022587Y027452D01*
X022787Y027652D01*
X022987Y027452D01*
X022987Y028053D01*
X023231Y027953D02*
X023331Y028053D01*
X023532Y028053D01*
X023632Y027953D01*
X023632Y027552D01*
X023532Y027452D01*
X023331Y027452D01*
X023231Y027552D01*
X023231Y027953D01*
X023876Y027452D02*
X024276Y027452D01*
X024076Y027452D02*
X024076Y028053D01*
X024520Y027953D02*
X024520Y027552D01*
X024621Y027452D01*
X024821Y027452D01*
X024921Y027552D01*
X024921Y027953D01*
X024821Y028053D01*
X024621Y028053D01*
X024520Y027953D01*
X025165Y028053D02*
X025165Y027452D01*
X025465Y027452D01*
X025565Y027552D01*
X025565Y027753D01*
X025465Y027853D01*
X025165Y027853D01*
X025365Y027853D02*
X025565Y028053D01*
X026454Y028053D02*
X026454Y027452D01*
X026754Y027452D01*
X026854Y027552D01*
X026854Y027652D01*
X026754Y027753D01*
X026454Y027753D01*
X026454Y028053D02*
X026754Y028053D01*
X026854Y027953D01*
X026854Y027853D01*
X026754Y027753D01*
X031587Y028053D02*
X031587Y027452D01*
X031787Y027652D01*
X031987Y027452D01*
X031987Y028053D01*
X032231Y027953D02*
X032331Y028053D01*
X032532Y028053D01*
X032632Y027953D01*
X032632Y027552D01*
X032532Y027452D01*
X032331Y027452D01*
X032231Y027552D01*
X032231Y027953D01*
X032876Y027452D02*
X033276Y027452D01*
X033076Y027452D02*
X033076Y028053D01*
X033520Y027953D02*
X033520Y027552D01*
X033621Y027452D01*
X033821Y027452D01*
X033921Y027552D01*
X033921Y027953D01*
X033821Y028053D01*
X033621Y028053D01*
X033520Y027953D01*
X034165Y028053D02*
X034165Y027452D01*
X034465Y027452D01*
X034565Y027552D01*
X034565Y027753D01*
X034465Y027853D01*
X034165Y027853D01*
X034365Y027853D02*
X034565Y028053D01*
X035454Y027953D02*
X035454Y027552D01*
X035554Y027452D01*
X035754Y027452D01*
X035854Y027552D01*
X035854Y027953D02*
X035754Y028053D01*
X035554Y028053D01*
X035454Y027953D01*
M02*
