%
M48
M72
T01C0.01200
T02C0.01600
T03C0.01969
T04C0.02362
T05C0.03543
T06C0.03600
T07C0.03937
T08C0.04000
T09C0.04724
T10C0.11811
%
T01
X106800Y89300
X111800Y89300
X121800Y74300
X139300Y84300
X144300Y89300
X151800Y104300
X134300Y104300
X111800Y121800
X102300Y121300
X121800Y134300
X141800Y134300
X181800Y134300
X181800Y134300
X204800Y150800
X196800Y169300
X177300Y174800
X156800Y169300
X136800Y179300
X136800Y206800
X121800Y226800
X121800Y246800
X101800Y251800
X126800Y264300
X101800Y284300
X101800Y311800
X169300Y271800
X221800Y272300
X196800Y317800
X287800Y230800
X276800Y214300
X277800Y205800
X287800Y205800
X294300Y179300
X260800Y167800
X245800Y167800
X226800Y169300
X217800Y182300
X223800Y201800
X246800Y203300
X256800Y126800
X269300Y121800
X261800Y104300
X221800Y104300
X196800Y104300
X189300Y90800
X176800Y96800
X176800Y104300
X166800Y71800
X176800Y66800
X161800Y61800
X251800Y64300
X304300Y74300
X314300Y76800
X316800Y66800
X349300Y61800
X341800Y161800
X389300Y226800
X389300Y231800
X389300Y236800
X69300Y251800
X76300Y201300
X99800Y199800
X101300Y191300
X59300Y176800
X49800Y178800
X44800Y178800
X39800Y178800
X34800Y178800
X34800Y173800
X39800Y173800
X44800Y173800
X44800Y168800
X49800Y168800
X49800Y173800
X49800Y163800
X49800Y158800
X49800Y153800
X44800Y153800
X44800Y158800
X44800Y163800
X44800Y148800
X44800Y143800
X44800Y143800
X49800Y143800
X49800Y148800
X44800Y138800
X44800Y133800
X44800Y128800
X44800Y123800
X51800Y184300
T02
X56800Y43800
X66800Y43800
X66800Y66800
X66800Y76800
X66800Y87800
X62800Y121800
X67800Y136800
X67800Y162800
X36800Y164800
X36800Y121800
X111800Y46800
X116800Y30800
X168800Y44800
X293800Y136800
X326300Y90300
X341800Y66800
T03
X252800Y233800
T04
X204800Y93800
X244300Y71800
X264300Y71800
X289800Y74300
X291800Y51800
X341800Y51800
X293800Y106800
X341800Y116800
X411800Y36800
X176800Y232800
X162800Y251800
X157800Y276800
X181800Y276800
X191800Y271800
X211800Y242800
X252800Y249800
X276800Y276800
X286800Y276800
X286800Y316800
X303800Y317800
X349800Y276800
X342800Y250300
X381800Y276800
X396800Y321800
X69800Y325800
X67800Y286800
X107800Y276800
X114300Y232300
X51800Y226800
X51800Y191800
X66800Y181800
X207800Y317800
T05
X126800Y256800
X136800Y256800
X146800Y256800
X156800Y256800
X166800Y256800
X176800Y256800
X186800Y256800
X196800Y256800
X216800Y256800
X226800Y256800
X236800Y256800
X246800Y256800
X256800Y256800
X266800Y256800
X276800Y256800
X286800Y256800
X306800Y256800
X316800Y256800
X326800Y256800
X336800Y256800
X346800Y256800
X356800Y256800
X366800Y256800
X376800Y256800
X376800Y306800
X366800Y306800
X356800Y306800
X346800Y306800
X336800Y306800
X326800Y306800
X316800Y306800
X306800Y306800
X286800Y306800
X276800Y306800
X266800Y306800
X256800Y306800
X246800Y306800
X236800Y306800
X226800Y306800
X216800Y306800
X196800Y306800
X186800Y306800
X176800Y306800
X166800Y306800
X156800Y306800
X146800Y306800
X136800Y306800
X126800Y306800
T06
X51800Y26800
X61800Y26800
T07
X151800Y26800
X161800Y26800
X171800Y26800
X181800Y26800
X191800Y26800
X201800Y26800
X221800Y26800
X231800Y26800
X241800Y26800
X251800Y26800
X261800Y26800
X271800Y26800
X281800Y26800
X291800Y26800
X311800Y26800
X321800Y26800
X331800Y26800
X341800Y26800
X351800Y26800
X361800Y26800
X371800Y26800
X381800Y26800
X391800Y46800
X401800Y46800
X401800Y56800
X391800Y56800
X391800Y66800
X401800Y66800
X401800Y76800
X401800Y86800
X391800Y86800
X391800Y76800
X391800Y96800
X401800Y96800
X401800Y106800
X391800Y106800
X391800Y116800
X401800Y116800
X401800Y126800
X391800Y126800
X391800Y136800
X401800Y136800
X401800Y146800
X401800Y156800
X391800Y156800
X391800Y146800
X391800Y166800
X401800Y166800
X401800Y176800
X391800Y176800
X391800Y186800
X401800Y186800
X401800Y196800
X391800Y196800
X391800Y206800
X401800Y206800
X401800Y216800
X391800Y216800
X361800Y216800
X351800Y216800
X341800Y216800
X331800Y216800
X321800Y216800
X311800Y216800
X301800Y216800
X291800Y216800
X271800Y216800
X261800Y216800
X251800Y216800
X241800Y216800
X231800Y216800
X221800Y216800
X211800Y216800
X201800Y216800
X185800Y216800
X175800Y216800
X165800Y216800
X155800Y216800
X145800Y216800
X135800Y216800
X125800Y216800
X115800Y216800
X36800Y239713
X36800Y253493
T08
X80658Y36367
X90658Y36367
X90658Y46367
X80658Y46367
X80658Y56367
X90658Y56367
X90658Y66367
X80658Y66367
X80658Y76367
X90658Y76367
X90658Y86367
X80658Y86367
X80658Y96367
X90658Y96367
X90658Y106367
X80658Y106367
X80658Y116367
X90658Y116367
X90658Y126367
X80658Y126367
X80658Y136367
X80658Y146367
X90658Y146367
X90658Y136367
X90658Y156367
X80658Y156367
X80658Y166367
X90658Y166367
X90658Y176367
X80658Y176367
X80658Y186367
X90658Y186367
X90658Y196367
X80658Y196367
X80658Y206367
X90658Y206367
X90658Y216367
X80658Y216367
X80658Y226367
X90658Y226367
X50700Y294000
X32900Y294000
X32900Y319600
X50700Y319600
X96800Y306800
X96800Y296800
X106800Y296800
X116800Y296800
X116800Y306800
X106800Y306800
X146800Y316800
X156800Y316800
X166800Y316800
X176800Y316800
X236800Y316800
X246800Y316800
X256800Y316800
X266800Y316800
X326800Y316800
X336800Y316800
X346800Y316800
X356800Y316800
X391800Y306800
X401800Y306800
X401800Y296800
X391800Y296800
X391800Y286800
X401800Y286800
X381800Y36800
X371800Y36800
X361800Y36800
X351800Y36800
X341800Y36800
X331800Y36800
X321800Y36800
X311800Y36800
X291800Y36800
X281800Y36800
X271800Y36800
X261800Y36800
X251800Y36800
X241800Y36800
X231800Y36800
X221800Y36800
X371800Y76800
X371800Y86800
X371800Y96800
X371800Y106800
X381800Y106800
X381800Y96800
X381800Y86800
X381800Y76800
X381800Y136800
X381800Y146800
X381800Y156800
X371800Y146800
X371800Y136800
X361800Y226800
X351800Y226800
T09
X141800Y293800
X155580Y293800
X169359Y293800
X183139Y293800
X231800Y293800
X245580Y293800
X259359Y293800
X273139Y293800
X321800Y293800
X335580Y293800
X349359Y293800
X363139Y293800
T10
X51564Y253690
X40146Y272194
X63375Y272194
M30
