G75*
%MOIN*%
%OFA0B0*%
%FSLAX24Y24*%
%IPPOS*%
%LPD*%
%AMOC8*
5,1,8,0,0,1.08239X$1,22.5*
%
%ADD10C,0.0160*%
%ADD11C,0.0030*%
%ADD12C,0.0060*%
%ADD13C,0.0040*%
%ADD14C,0.0120*%
%ADD15C,0.0050*%
%ADD16R,0.0118X0.0059*%
%ADD17R,0.0118X0.0118*%
%ADD18C,0.0080*%
%ADD19C,0.0020*%
%ADD20R,0.0059X0.0118*%
%ADD21C,0.0197*%
%ADD22C,0.0362*%
%ADD23C,0.0100*%
%ADD24R,0.0295X0.0197*%
%ADD25R,0.0118X0.0827*%
D10*
X002180Y002467D02*
X002967Y001680D01*
X040763Y001680D01*
X041550Y002467D01*
X041550Y032389D01*
X040763Y033176D01*
X002967Y033176D01*
X002180Y032389D01*
X002180Y002467D01*
D11*
X003015Y002117D02*
X003112Y002213D01*
X003112Y001923D01*
X003015Y001923D02*
X003209Y001923D01*
X003310Y001971D02*
X003504Y002165D01*
X003504Y001971D01*
X003455Y001923D01*
X003358Y001923D01*
X003310Y001971D01*
X003310Y002165D01*
X003358Y002213D01*
X003455Y002213D01*
X003504Y002165D01*
X003605Y002165D02*
X003653Y002213D01*
X003750Y002213D01*
X003798Y002165D01*
X003605Y001971D01*
X003653Y001923D01*
X003750Y001923D01*
X003798Y001971D01*
X003798Y002165D01*
X003899Y002117D02*
X003899Y001923D01*
X003899Y002117D02*
X004045Y002117D01*
X004093Y002068D01*
X004093Y001923D01*
X004194Y001923D02*
X004194Y002213D01*
X004388Y002213D01*
X004291Y002068D02*
X004194Y002068D01*
X003605Y001971D02*
X003605Y002165D01*
X003294Y003131D02*
X003294Y003179D01*
X003488Y003372D01*
X003488Y003421D01*
X003294Y003421D01*
X003193Y003372D02*
X003145Y003421D01*
X003048Y003421D01*
X002999Y003372D01*
X002999Y003179D01*
X003048Y003131D01*
X003145Y003131D01*
X003193Y003179D01*
X002865Y007295D02*
X002865Y007488D01*
X002865Y007590D02*
X002865Y007783D01*
X002865Y007686D02*
X002575Y007686D01*
X002672Y007590D01*
X002575Y007295D02*
X002865Y007295D01*
X003143Y007995D02*
X003240Y007995D01*
X003288Y008043D01*
X003390Y007995D02*
X003583Y007995D01*
X003486Y007995D02*
X003486Y008285D01*
X003390Y008188D01*
X003288Y008237D02*
X003240Y008285D01*
X003143Y008285D01*
X003095Y008237D01*
X003095Y008043D01*
X003143Y007995D01*
X002865Y008195D02*
X002865Y008388D01*
X002865Y008292D02*
X002575Y008292D01*
X002672Y008195D01*
X002623Y008490D02*
X002575Y008538D01*
X002575Y008635D01*
X002623Y008683D01*
X002817Y008490D01*
X002865Y008538D01*
X002865Y008635D01*
X002817Y008683D01*
X002623Y008683D01*
X002672Y008784D02*
X002817Y008784D01*
X002865Y008833D01*
X002865Y008978D01*
X002672Y008978D01*
X002720Y009079D02*
X002720Y009272D01*
X002575Y009272D02*
X002865Y009272D01*
X002865Y009079D02*
X002575Y009079D01*
X002623Y008490D02*
X002817Y008490D01*
X003684Y008237D02*
X003733Y008285D01*
X003829Y008285D01*
X003878Y008237D01*
X003878Y008188D01*
X003684Y007995D01*
X003878Y007995D01*
X004995Y007995D02*
X005188Y008188D01*
X005188Y008237D01*
X005140Y008285D01*
X005043Y008285D01*
X004995Y008237D01*
X004995Y007995D02*
X005188Y007995D01*
X005290Y007995D02*
X005483Y008188D01*
X005483Y008237D01*
X005435Y008285D01*
X005338Y008285D01*
X005290Y008237D01*
X005290Y007995D02*
X005483Y007995D01*
X005584Y008043D02*
X005778Y008237D01*
X005778Y008043D01*
X005729Y007995D01*
X005633Y007995D01*
X005584Y008043D01*
X005584Y008237D01*
X005633Y008285D01*
X005729Y008285D01*
X005778Y008237D01*
X005879Y008188D02*
X005879Y008043D01*
X005927Y007995D01*
X006072Y007995D01*
X006072Y008188D01*
X006174Y008140D02*
X006270Y008140D01*
X006174Y007995D02*
X006174Y008285D01*
X006367Y008285D01*
X006388Y010288D02*
X006533Y010288D01*
X006582Y010336D01*
X006582Y010529D01*
X006533Y010578D01*
X006388Y010578D01*
X006388Y010288D01*
X006683Y010288D02*
X006877Y010288D01*
X006780Y010288D02*
X006780Y010578D01*
X006683Y010481D01*
X006728Y011753D02*
X006631Y011753D01*
X006583Y011801D01*
X006680Y011898D02*
X006728Y011898D01*
X006777Y011850D01*
X006777Y011801D01*
X006728Y011753D01*
X006728Y011898D02*
X006777Y011946D01*
X006777Y011995D01*
X006728Y012043D01*
X006631Y012043D01*
X006583Y011995D01*
X006482Y012043D02*
X006288Y012043D01*
X006385Y012043D02*
X006385Y011753D01*
X006187Y011801D02*
X006187Y011995D01*
X005994Y011801D01*
X006042Y011753D01*
X006139Y011753D01*
X006187Y011801D01*
X005994Y011801D02*
X005994Y011995D01*
X006042Y012043D01*
X006139Y012043D01*
X006187Y011995D01*
X005893Y011898D02*
X005699Y011898D01*
X005844Y012043D01*
X005844Y011753D01*
X005598Y011801D02*
X005550Y011753D01*
X005453Y011753D01*
X005404Y011801D01*
X005303Y011753D02*
X005303Y011946D01*
X005207Y012043D01*
X005110Y011946D01*
X005110Y011753D01*
X005009Y011753D02*
X004912Y011850D01*
X004960Y011850D02*
X004815Y011850D01*
X004815Y011753D02*
X004815Y012043D01*
X004960Y012043D01*
X005009Y011995D01*
X005009Y011898D01*
X004960Y011850D01*
X005110Y011898D02*
X005303Y011898D01*
X005404Y011995D02*
X005453Y012043D01*
X005550Y012043D01*
X005598Y011995D01*
X005598Y011946D01*
X005550Y011898D01*
X005598Y011850D01*
X005598Y011801D01*
X005550Y011898D02*
X005501Y011898D01*
X004714Y011850D02*
X004714Y011801D01*
X004666Y011753D01*
X004520Y011753D01*
X004520Y012043D01*
X004666Y012043D01*
X004714Y011995D01*
X004714Y011946D01*
X004666Y011898D01*
X004520Y011898D01*
X004666Y011898D02*
X004714Y011850D01*
X004419Y011753D02*
X004419Y012043D01*
X004323Y011946D01*
X004226Y012043D01*
X004226Y011753D01*
X004288Y012511D02*
X004288Y012656D01*
X004240Y012705D01*
X004143Y012705D01*
X004095Y012656D01*
X004095Y012511D01*
X004385Y012511D01*
X004475Y012592D02*
X004572Y012495D01*
X004475Y012592D02*
X004765Y012592D01*
X004765Y012688D02*
X004765Y012495D01*
X004717Y012790D02*
X004523Y012790D01*
X004475Y012838D01*
X004475Y012935D01*
X004523Y012983D01*
X004717Y012790D01*
X004765Y012838D01*
X004765Y012935D01*
X004717Y012983D01*
X004523Y012983D01*
X004475Y013084D02*
X004765Y013084D01*
X004668Y013084D02*
X004572Y013229D01*
X004668Y013084D02*
X004765Y013229D01*
X004385Y013245D02*
X004337Y013294D01*
X004143Y013294D01*
X004337Y013100D01*
X004385Y013149D01*
X004385Y013245D01*
X004337Y013100D02*
X004143Y013100D01*
X004095Y013149D01*
X004095Y013245D01*
X004143Y013294D01*
X004385Y012999D02*
X004385Y012806D01*
X004385Y012902D02*
X004095Y012902D01*
X004192Y012806D01*
X004385Y012705D02*
X004288Y012608D01*
X004572Y013624D02*
X004475Y013721D01*
X004765Y013721D01*
X004765Y013624D02*
X004765Y013818D01*
X004765Y013919D02*
X004475Y014161D01*
X004475Y013968D02*
X004523Y013968D01*
X004523Y013919D01*
X004475Y013919D01*
X004475Y013968D01*
X004717Y014113D02*
X004717Y014161D01*
X004765Y014161D01*
X004765Y014113D01*
X004717Y014113D01*
X006047Y014511D02*
X006047Y014608D01*
X006095Y014656D01*
X006143Y014656D01*
X006192Y014608D01*
X006240Y014656D01*
X006289Y014656D01*
X006337Y014608D01*
X006337Y014511D01*
X006289Y014463D01*
X006192Y014560D02*
X006192Y014608D01*
X006095Y014463D02*
X006047Y014511D01*
X006289Y014757D02*
X006289Y014806D01*
X006337Y014806D01*
X006337Y014757D01*
X006289Y014757D01*
X006289Y014905D02*
X006337Y014953D01*
X006337Y015050D01*
X006289Y015098D01*
X006240Y015098D01*
X006192Y015050D01*
X006192Y015001D01*
X006192Y015050D02*
X006143Y015098D01*
X006095Y015098D01*
X006047Y015050D01*
X006047Y014953D01*
X006095Y014905D01*
X006143Y015199D02*
X006143Y015345D01*
X006192Y015393D01*
X006337Y015393D01*
X006337Y015494D02*
X006047Y015494D01*
X006047Y015688D01*
X006192Y015591D02*
X006192Y015494D01*
X006143Y015199D02*
X006337Y015199D01*
X006539Y015448D02*
X006588Y015399D01*
X006781Y015399D01*
X006829Y015448D01*
X006829Y015545D01*
X006781Y015593D01*
X006781Y015694D02*
X006829Y015742D01*
X006829Y015839D01*
X006781Y015888D01*
X006684Y015888D01*
X006636Y015839D01*
X006636Y015791D01*
X006684Y015694D01*
X006539Y015694D01*
X006539Y015888D01*
X006588Y015593D02*
X006539Y015545D01*
X006539Y015448D01*
X007275Y014503D02*
X007565Y014261D01*
X007565Y014160D02*
X007565Y013966D01*
X007565Y014063D02*
X007275Y014063D01*
X007372Y013966D01*
X007323Y014261D02*
X007275Y014261D01*
X007275Y014310D01*
X007323Y014310D01*
X007323Y014261D01*
X007517Y014455D02*
X007517Y014503D01*
X007565Y014503D01*
X007565Y014455D01*
X007517Y014455D01*
X007565Y013571D02*
X007468Y013426D01*
X007372Y013571D01*
X007275Y013426D02*
X007565Y013426D01*
X007565Y013325D02*
X007565Y013132D01*
X007372Y013325D01*
X007323Y013325D01*
X007275Y013277D01*
X007275Y013180D01*
X007323Y013132D01*
X007517Y013033D02*
X007565Y013033D01*
X007565Y012984D01*
X007517Y012984D01*
X007517Y013033D01*
X007420Y012883D02*
X007420Y012690D01*
X007275Y012835D01*
X007565Y012835D01*
X007420Y012588D02*
X007420Y012395D01*
X007275Y012540D01*
X007565Y012540D01*
X006965Y012495D02*
X006675Y012495D01*
X006675Y012640D01*
X006723Y012688D01*
X006820Y012688D01*
X006868Y012640D01*
X006868Y012495D01*
X006868Y012592D02*
X006965Y012688D01*
X006917Y012790D02*
X006965Y012838D01*
X006965Y012935D01*
X006917Y012983D01*
X006723Y012983D01*
X006675Y012935D01*
X006675Y012838D01*
X006723Y012790D01*
X006772Y012790D01*
X006820Y012838D01*
X006820Y012983D01*
X005030Y016345D02*
X004836Y016345D01*
X004933Y016345D02*
X004933Y016635D01*
X004836Y016538D01*
X004735Y016587D02*
X004687Y016635D01*
X004590Y016635D01*
X004541Y016587D01*
X004541Y016393D01*
X004590Y016345D01*
X004687Y016345D01*
X004735Y016393D01*
X004442Y016345D02*
X004345Y016345D01*
X004393Y016345D02*
X004393Y016635D01*
X004345Y016635D02*
X004442Y016635D01*
X005895Y016906D02*
X005895Y017051D01*
X005943Y017099D01*
X006040Y017099D01*
X006088Y017051D01*
X006088Y016906D01*
X006088Y017002D02*
X006185Y017099D01*
X006185Y017200D02*
X006137Y017200D01*
X005943Y017394D01*
X005895Y017394D01*
X005895Y017200D01*
X005895Y016906D02*
X006185Y016906D01*
X007095Y017006D02*
X007143Y016910D01*
X007240Y016813D01*
X007240Y016958D01*
X007288Y017006D01*
X007337Y017006D01*
X007385Y016958D01*
X007385Y016861D01*
X007337Y016813D01*
X007240Y016813D01*
X007337Y017107D02*
X007337Y017156D01*
X007385Y017156D01*
X007385Y017107D01*
X007337Y017107D01*
X007337Y017255D02*
X007288Y017255D01*
X007240Y017303D01*
X007240Y017400D01*
X007288Y017448D01*
X007337Y017448D01*
X007385Y017400D01*
X007385Y017303D01*
X007337Y017255D01*
X007240Y017303D02*
X007192Y017255D01*
X007143Y017255D01*
X007095Y017303D01*
X007095Y017400D01*
X007143Y017448D01*
X007192Y017448D01*
X007240Y017400D01*
X007288Y017549D02*
X007192Y017695D01*
X007288Y017549D02*
X007385Y017695D01*
X007385Y017549D02*
X007095Y017549D01*
X006780Y018447D02*
X006780Y018737D01*
X006973Y018737D01*
X006877Y018592D02*
X006780Y018592D01*
X006679Y018592D02*
X006679Y018447D01*
X006679Y018592D02*
X006630Y018640D01*
X006485Y018640D01*
X006485Y018447D01*
X006384Y018495D02*
X006336Y018447D01*
X006239Y018447D01*
X006191Y018495D01*
X006384Y018689D01*
X006384Y018495D01*
X006191Y018495D02*
X006191Y018689D01*
X006239Y018737D01*
X006336Y018737D01*
X006384Y018689D01*
X006089Y018689D02*
X005896Y018495D01*
X005944Y018447D01*
X006041Y018447D01*
X006089Y018495D01*
X006089Y018689D01*
X006041Y018737D01*
X005944Y018737D01*
X005896Y018689D01*
X005896Y018495D01*
X005795Y018447D02*
X005601Y018447D01*
X005698Y018447D02*
X005698Y018737D01*
X005601Y018640D01*
X006448Y019631D02*
X006545Y019631D01*
X006593Y019679D01*
X006694Y019679D02*
X006742Y019631D01*
X006839Y019631D01*
X006888Y019679D01*
X006888Y019872D01*
X006839Y019921D01*
X006742Y019921D01*
X006694Y019872D01*
X006694Y019824D01*
X006742Y019776D01*
X006888Y019776D01*
X006593Y019872D02*
X006545Y019921D01*
X006448Y019921D01*
X006399Y019872D01*
X006399Y019679D01*
X006448Y019631D01*
X003524Y018588D02*
X003379Y018492D01*
X003524Y018395D01*
X003379Y018395D02*
X003379Y018685D01*
X003278Y018637D02*
X003084Y018443D01*
X003133Y018395D01*
X003229Y018395D01*
X003278Y018443D01*
X003278Y018637D01*
X003229Y018685D01*
X003133Y018685D01*
X003084Y018637D01*
X003084Y018443D01*
X002983Y018443D02*
X002935Y018395D01*
X002838Y018395D01*
X002790Y018443D01*
X002983Y018637D01*
X002983Y018443D01*
X002790Y018443D02*
X002790Y018637D01*
X002838Y018685D01*
X002935Y018685D01*
X002983Y018637D01*
X002688Y018395D02*
X002495Y018395D01*
X002592Y018395D02*
X002592Y018685D01*
X002495Y018588D01*
X002595Y019695D02*
X002595Y019985D01*
X002740Y019985D01*
X002788Y019937D01*
X002788Y019840D01*
X002740Y019792D01*
X002595Y019792D01*
X002692Y019792D02*
X002788Y019695D01*
X002890Y019840D02*
X003083Y019840D01*
X003035Y019695D02*
X003035Y019985D01*
X002890Y019840D01*
X002884Y022844D02*
X002932Y022892D01*
X002932Y023134D01*
X002884Y023134D02*
X002980Y023134D01*
X003003Y023215D02*
X003100Y023215D01*
X003148Y023263D01*
X003249Y023215D02*
X003443Y023215D01*
X003346Y023215D02*
X003346Y023505D01*
X003249Y023408D01*
X003148Y023457D02*
X003100Y023505D01*
X003003Y023505D01*
X002955Y023457D01*
X002955Y023263D01*
X003003Y023215D01*
X003178Y023134D02*
X003178Y022844D01*
X003081Y022844D02*
X003275Y022844D01*
X003081Y023037D02*
X003178Y023134D01*
X003544Y023215D02*
X003738Y023215D01*
X003641Y023215D02*
X003641Y023505D01*
X003544Y023408D01*
X002884Y022844D02*
X002835Y022844D01*
X002787Y022892D01*
X005476Y023416D02*
X005669Y023610D01*
X005669Y023658D01*
X005621Y023707D01*
X005524Y023707D01*
X005476Y023658D01*
X005476Y023416D02*
X005669Y023416D01*
X005770Y023416D02*
X005964Y023610D01*
X005964Y023658D01*
X005915Y023707D01*
X005819Y023707D01*
X005770Y023658D01*
X005770Y023416D02*
X005964Y023416D01*
X006065Y023465D02*
X006258Y023658D01*
X006258Y023465D01*
X006210Y023416D01*
X006113Y023416D01*
X006065Y023465D01*
X006065Y023658D01*
X006113Y023707D01*
X006210Y023707D01*
X006258Y023658D01*
X006360Y023610D02*
X006360Y023465D01*
X006408Y023416D01*
X006553Y023416D01*
X006553Y023610D01*
X006654Y023561D02*
X006751Y023561D01*
X006654Y023416D02*
X006654Y023707D01*
X006848Y023707D01*
X006694Y024223D02*
X006694Y024513D01*
X006888Y024513D01*
X006791Y024368D02*
X006694Y024368D01*
X006593Y024368D02*
X006593Y024223D01*
X006593Y024368D02*
X006545Y024417D01*
X006399Y024417D01*
X006399Y024223D01*
X006298Y024271D02*
X006298Y024465D01*
X006105Y024271D01*
X006153Y024223D01*
X006250Y024223D01*
X006298Y024271D01*
X006105Y024271D02*
X006105Y024465D01*
X006153Y024513D01*
X006250Y024513D01*
X006298Y024465D01*
X006339Y024731D02*
X006242Y024731D01*
X006194Y024779D01*
X006388Y024972D01*
X006388Y024779D01*
X006339Y024731D01*
X006194Y024779D02*
X006194Y024972D01*
X006242Y025021D01*
X006339Y025021D01*
X006388Y024972D01*
X006093Y024731D02*
X005899Y024731D01*
X005996Y024731D02*
X005996Y025021D01*
X005899Y024924D01*
X005798Y024972D02*
X005750Y025021D01*
X005653Y025021D01*
X005605Y024972D01*
X005605Y024779D01*
X005653Y024731D01*
X005750Y024731D01*
X005798Y024779D01*
X005858Y024513D02*
X005955Y024513D01*
X006004Y024465D01*
X005810Y024271D01*
X005858Y024223D01*
X005955Y024223D01*
X006004Y024271D01*
X006004Y024465D01*
X005858Y024513D02*
X005810Y024465D01*
X005810Y024271D01*
X005709Y024223D02*
X005515Y024223D01*
X005612Y024223D02*
X005612Y024513D01*
X005515Y024417D01*
X007395Y024337D02*
X007443Y024385D01*
X007540Y024385D01*
X007588Y024337D01*
X007588Y024288D01*
X007395Y024095D01*
X007588Y024095D01*
X007690Y024143D02*
X007883Y024337D01*
X007883Y024143D01*
X007835Y024095D01*
X007738Y024095D01*
X007690Y024143D01*
X007690Y024337D01*
X007738Y024385D01*
X007835Y024385D01*
X007883Y024337D01*
X007984Y024288D02*
X008081Y024385D01*
X008081Y024095D01*
X007984Y024095D02*
X008178Y024095D01*
X008279Y024240D02*
X008472Y024240D01*
X008574Y024143D02*
X008622Y024143D01*
X008622Y024095D01*
X008574Y024095D01*
X008574Y024143D01*
X008721Y024143D02*
X008914Y024337D01*
X008914Y024143D01*
X008866Y024095D01*
X008769Y024095D01*
X008721Y024143D01*
X008721Y024337D01*
X008769Y024385D01*
X008866Y024385D01*
X008914Y024337D01*
X009016Y024385D02*
X009209Y024385D01*
X009209Y024337D01*
X009016Y024143D01*
X009016Y024095D01*
X009310Y024095D02*
X009359Y024095D01*
X009359Y024143D01*
X009310Y024143D01*
X009310Y024095D01*
X009458Y024143D02*
X009506Y024095D01*
X009603Y024095D01*
X009651Y024143D01*
X009651Y024192D01*
X009603Y024240D01*
X009554Y024240D01*
X009603Y024240D02*
X009651Y024288D01*
X009651Y024337D01*
X009603Y024385D01*
X009506Y024385D01*
X009458Y024337D01*
X009507Y024575D02*
X009507Y024768D01*
X009507Y024672D02*
X009603Y024768D01*
X009652Y024768D01*
X009752Y024720D02*
X009752Y024623D01*
X009801Y024575D01*
X009946Y024575D01*
X009946Y024527D02*
X009946Y024768D01*
X009801Y024768D01*
X009752Y024720D01*
X009849Y024478D02*
X009897Y024478D01*
X009946Y024527D01*
X010047Y024575D02*
X010047Y024768D01*
X010047Y024672D02*
X010144Y024768D01*
X010192Y024768D01*
X010341Y024768D02*
X010438Y024768D01*
X010486Y024720D01*
X010486Y024575D01*
X010341Y024575D01*
X010292Y024623D01*
X010341Y024672D01*
X010486Y024672D01*
X010587Y024768D02*
X010587Y024478D01*
X010587Y024575D02*
X010732Y024575D01*
X010781Y024623D01*
X010781Y024720D01*
X010732Y024768D01*
X010587Y024768D01*
X010882Y024720D02*
X010930Y024768D01*
X011027Y024768D01*
X011075Y024720D01*
X011075Y024575D01*
X011176Y024575D02*
X011225Y024575D01*
X011225Y024623D01*
X011176Y024623D01*
X011176Y024575D01*
X011324Y024623D02*
X011372Y024575D01*
X011517Y024575D01*
X011618Y024623D02*
X011667Y024575D01*
X011763Y024575D01*
X011812Y024623D01*
X011812Y024720D01*
X011763Y024768D01*
X011667Y024768D01*
X011618Y024720D01*
X011618Y024623D01*
X011517Y024768D02*
X011372Y024768D01*
X011324Y024720D01*
X011324Y024623D01*
X011372Y025055D02*
X011324Y025103D01*
X011517Y025297D01*
X011517Y025103D01*
X011469Y025055D01*
X011372Y025055D01*
X011324Y025103D02*
X011324Y025297D01*
X011372Y025345D01*
X011469Y025345D01*
X011517Y025297D01*
X011618Y025200D02*
X011667Y025248D01*
X011812Y025248D01*
X011812Y025345D02*
X011812Y025055D01*
X011667Y025055D01*
X011618Y025103D01*
X011618Y025200D01*
X011225Y025103D02*
X011225Y025055D01*
X011176Y025055D01*
X011176Y025103D01*
X011225Y025103D01*
X011075Y025055D02*
X010882Y025055D01*
X011075Y025248D01*
X011075Y025297D01*
X011027Y025345D01*
X010930Y025345D01*
X010882Y025297D01*
X010781Y025248D02*
X010684Y025055D01*
X010587Y025248D01*
X010191Y025248D02*
X010046Y025248D01*
X009998Y025200D01*
X009998Y025103D01*
X010046Y025055D01*
X010191Y025055D01*
X010191Y025345D01*
X009850Y025345D02*
X009850Y025055D01*
X009898Y025055D02*
X009801Y025055D01*
X009700Y025152D02*
X009507Y025152D01*
X009507Y025200D02*
X009555Y025248D01*
X009652Y025248D01*
X009700Y025200D01*
X009700Y025152D01*
X009652Y025055D02*
X009555Y025055D01*
X009507Y025103D01*
X009507Y025200D01*
X009359Y025248D02*
X009359Y025055D01*
X009407Y025055D02*
X009310Y025055D01*
X009209Y025055D02*
X009209Y025200D01*
X009161Y025248D01*
X009064Y025248D01*
X009016Y025200D01*
X008914Y025248D02*
X008769Y025248D01*
X008721Y025200D01*
X008769Y025152D01*
X008866Y025152D01*
X008914Y025103D01*
X008866Y025055D01*
X008721Y025055D01*
X008621Y025248D02*
X008572Y025248D01*
X008475Y025152D01*
X008475Y025248D02*
X008475Y025055D01*
X008374Y025055D02*
X008374Y025200D01*
X008326Y025248D01*
X008229Y025248D01*
X008229Y025152D02*
X008374Y025152D01*
X008374Y025055D02*
X008229Y025055D01*
X008181Y025103D01*
X008229Y025152D01*
X008081Y025055D02*
X007984Y025055D01*
X008033Y025055D02*
X008033Y025345D01*
X007984Y025345D01*
X007883Y025200D02*
X007835Y025248D01*
X007738Y025248D01*
X007690Y025200D01*
X007690Y025103D01*
X007738Y025055D01*
X007835Y025055D01*
X007883Y025103D01*
X007883Y025200D01*
X007588Y025200D02*
X007540Y025152D01*
X007395Y025152D01*
X007395Y025055D02*
X007395Y025345D01*
X007540Y025345D01*
X007588Y025297D01*
X007588Y025200D01*
X007588Y024768D02*
X007588Y024623D01*
X007540Y024575D01*
X007492Y024623D01*
X007443Y024575D01*
X007395Y024623D01*
X007395Y024768D01*
X007690Y024768D02*
X007690Y024623D01*
X007738Y024575D01*
X007786Y024623D01*
X007835Y024575D01*
X007883Y024623D01*
X007883Y024768D01*
X007984Y024768D02*
X007984Y024623D01*
X008033Y024575D01*
X008081Y024623D01*
X008129Y024575D01*
X008178Y024623D01*
X008178Y024768D01*
X008279Y024623D02*
X008327Y024623D01*
X008327Y024575D01*
X008279Y024575D01*
X008279Y024623D01*
X008426Y024575D02*
X008571Y024575D01*
X008620Y024623D01*
X008620Y024720D01*
X008571Y024768D01*
X008426Y024768D01*
X008426Y024478D01*
X008424Y024385D02*
X008279Y024240D01*
X008424Y024095D02*
X008424Y024385D01*
X008721Y024623D02*
X008769Y024575D01*
X008866Y024575D01*
X008914Y024623D01*
X008914Y024720D01*
X008866Y024768D01*
X008769Y024768D01*
X008721Y024720D01*
X008721Y024623D01*
X009016Y024575D02*
X009112Y024575D01*
X009064Y024575D02*
X009064Y024865D01*
X009016Y024865D01*
X009016Y025055D02*
X009016Y025345D01*
X009310Y025248D02*
X009359Y025248D01*
X009359Y025345D02*
X009359Y025394D01*
X009801Y025345D02*
X009850Y025345D01*
X009357Y024768D02*
X009406Y024720D01*
X009406Y024575D01*
X009260Y024575D01*
X009212Y024623D01*
X009260Y024672D01*
X009406Y024672D01*
X009357Y024768D02*
X009260Y024768D01*
X009752Y024337D02*
X009801Y024385D01*
X009897Y024385D01*
X009946Y024337D01*
X009752Y024143D01*
X009801Y024095D01*
X009897Y024095D01*
X009946Y024143D01*
X009946Y024337D01*
X009752Y024337D02*
X009752Y024143D01*
X010882Y024575D02*
X010882Y024865D01*
X011913Y024623D02*
X011961Y024623D01*
X011961Y024575D01*
X011913Y024575D01*
X011913Y024623D01*
X012060Y024623D02*
X012109Y024575D01*
X012254Y024575D01*
X012254Y024768D01*
X012355Y024672D02*
X012500Y024768D01*
X012355Y024672D02*
X012500Y024575D01*
X012355Y024575D02*
X012355Y024865D01*
X012060Y024768D02*
X012060Y024623D01*
X010333Y026595D02*
X010188Y026740D01*
X010140Y026692D02*
X010333Y026885D01*
X010333Y027045D02*
X010333Y027335D01*
X010434Y027238D02*
X010531Y027335D01*
X010531Y027045D01*
X010434Y027045D02*
X010628Y027045D01*
X010333Y027045D02*
X010140Y027335D01*
X010140Y027045D01*
X010038Y027045D02*
X009942Y027142D01*
X009990Y027142D02*
X009845Y027142D01*
X009845Y027045D02*
X009845Y027335D01*
X009990Y027335D01*
X010038Y027287D01*
X010038Y027190D01*
X009990Y027142D01*
X009942Y026885D02*
X009942Y026595D01*
X010038Y026595D02*
X009845Y026595D01*
X009845Y026788D02*
X009942Y026885D01*
X010140Y026885D02*
X010140Y026595D01*
X010323Y027645D02*
X010517Y027645D01*
X010565Y027693D01*
X010565Y027790D01*
X010517Y027838D01*
X010517Y027940D02*
X010565Y027988D01*
X010565Y028085D01*
X010517Y028133D01*
X010468Y028133D01*
X010420Y028085D01*
X010420Y027940D01*
X010517Y027940D01*
X010420Y027940D02*
X010323Y028036D01*
X010275Y028133D01*
X010323Y027838D02*
X010275Y027790D01*
X010275Y027693D01*
X010323Y027645D01*
X010675Y027742D02*
X010965Y027742D01*
X010965Y027838D02*
X010965Y027645D01*
X010772Y027645D02*
X010675Y027742D01*
X010723Y027940D02*
X010675Y027988D01*
X010675Y028085D01*
X010723Y028133D01*
X010917Y027940D01*
X010965Y027988D01*
X010965Y028085D01*
X010917Y028133D01*
X010723Y028133D01*
X010723Y028234D02*
X010675Y028283D01*
X010675Y028379D01*
X010723Y028428D01*
X010917Y028234D01*
X010965Y028283D01*
X010965Y028379D01*
X010917Y028428D01*
X010723Y028428D01*
X010772Y028529D02*
X010772Y028674D01*
X010820Y028722D01*
X010965Y028722D01*
X010965Y028824D02*
X010675Y028824D01*
X010675Y029017D01*
X010820Y028920D02*
X010820Y028824D01*
X010772Y028529D02*
X010965Y028529D01*
X010917Y028234D02*
X010723Y028234D01*
X010723Y027940D02*
X010917Y027940D01*
X008712Y030093D02*
X008712Y030287D01*
X008663Y030335D01*
X008518Y030335D01*
X008518Y030045D01*
X008663Y030045D01*
X008712Y030093D01*
X008417Y030045D02*
X008224Y030045D01*
X008224Y030335D01*
X008417Y030335D01*
X008320Y030190D02*
X008224Y030190D01*
X008122Y030045D02*
X007929Y030045D01*
X007929Y030335D01*
X007828Y029997D02*
X007634Y029997D01*
X007533Y030045D02*
X007340Y030335D01*
X007238Y030335D02*
X007045Y030335D01*
X007142Y030335D02*
X007142Y030045D01*
X007340Y030045D02*
X007533Y030335D01*
X007634Y030997D02*
X007828Y030997D01*
X007929Y031045D02*
X008122Y031045D01*
X008224Y031045D02*
X008417Y031045D01*
X008518Y031045D02*
X008663Y031045D01*
X008712Y031093D01*
X008712Y031287D01*
X008663Y031335D01*
X008518Y031335D01*
X008518Y031045D01*
X008320Y031190D02*
X008224Y031190D01*
X008224Y031335D02*
X008224Y031045D01*
X008224Y031335D02*
X008417Y031335D01*
X007929Y031335D02*
X007929Y031045D01*
X007533Y031045D02*
X007340Y031335D01*
X007238Y031287D02*
X007238Y031190D01*
X007190Y031142D01*
X007045Y031142D01*
X007142Y031142D02*
X007238Y031045D01*
X007340Y031045D02*
X007533Y031335D01*
X007238Y031287D02*
X007190Y031335D01*
X007045Y031335D01*
X007045Y031045D01*
X007151Y029307D02*
X007296Y029307D01*
X007345Y029259D01*
X007345Y029162D01*
X007296Y029114D01*
X007151Y029114D01*
X007151Y029017D02*
X007151Y029307D01*
X007446Y029307D02*
X007446Y029017D01*
X007543Y029114D01*
X007639Y029017D01*
X007639Y029307D01*
X007741Y029307D02*
X007886Y029307D01*
X007934Y029259D01*
X007934Y029162D01*
X007886Y029114D01*
X007741Y029114D01*
X007837Y029114D02*
X007934Y029017D01*
X007741Y029017D02*
X007741Y029307D01*
X016495Y024185D02*
X016495Y023895D01*
X016495Y023992D02*
X016640Y023992D01*
X016688Y024040D01*
X016688Y024137D01*
X016640Y024185D01*
X016495Y024185D01*
X016592Y023992D02*
X016688Y023895D01*
X016790Y023895D02*
X016983Y023895D01*
X016886Y023895D02*
X016886Y024185D01*
X016790Y024088D01*
X016790Y023785D02*
X016790Y023495D01*
X016790Y023592D02*
X016935Y023688D01*
X016790Y023592D02*
X016935Y023495D01*
X016688Y023495D02*
X016495Y023495D01*
X016592Y023495D02*
X016592Y023785D01*
X016495Y023688D01*
X015792Y021985D02*
X015792Y021695D01*
X015888Y021695D02*
X015695Y021695D01*
X015695Y021888D02*
X015792Y021985D01*
X020375Y024995D02*
X020375Y025140D01*
X020423Y025188D01*
X020520Y025188D01*
X020568Y025140D01*
X020568Y024995D01*
X020568Y025092D02*
X020665Y025188D01*
X020665Y025290D02*
X020472Y025483D01*
X020423Y025483D01*
X020375Y025435D01*
X020375Y025338D01*
X020423Y025290D01*
X020665Y025290D02*
X020665Y025483D01*
X020795Y025549D02*
X021085Y025549D01*
X020988Y025549D02*
X020892Y025695D01*
X020988Y025549D02*
X021085Y025695D01*
X021037Y025448D02*
X021085Y025400D01*
X021085Y025303D01*
X021037Y025255D01*
X020843Y025448D01*
X021037Y025448D01*
X021037Y025255D02*
X020843Y025255D01*
X020795Y025303D01*
X020795Y025400D01*
X020843Y025448D01*
X021085Y025154D02*
X021085Y024960D01*
X021085Y025057D02*
X020795Y025057D01*
X020892Y024960D01*
X020665Y024995D02*
X020375Y024995D01*
X020623Y028845D02*
X020817Y028845D01*
X020865Y028893D01*
X020865Y028990D01*
X020817Y029038D01*
X020865Y029140D02*
X020865Y029333D01*
X020865Y029236D02*
X020575Y029236D01*
X020672Y029140D01*
X020623Y029038D02*
X020575Y028990D01*
X020575Y028893D01*
X020623Y028845D01*
X020975Y028942D02*
X021265Y028942D01*
X021265Y029038D02*
X021265Y028845D01*
X021072Y028845D02*
X020975Y028942D01*
X021023Y029140D02*
X020975Y029188D01*
X020975Y029285D01*
X021023Y029333D01*
X021217Y029140D01*
X021265Y029188D01*
X021265Y029285D01*
X021217Y029333D01*
X021023Y029333D01*
X021023Y029434D02*
X020975Y029483D01*
X020975Y029579D01*
X021023Y029628D01*
X021217Y029434D01*
X021265Y029483D01*
X021265Y029579D01*
X021217Y029628D01*
X021023Y029628D01*
X021072Y029729D02*
X021072Y029874D01*
X021120Y029922D01*
X021265Y029922D01*
X021265Y030024D02*
X020975Y030024D01*
X020975Y030217D01*
X021120Y030120D02*
X021120Y030024D01*
X021072Y029729D02*
X021265Y029729D01*
X021217Y029434D02*
X021023Y029434D01*
X020865Y029483D02*
X020817Y029434D01*
X020865Y029483D02*
X020865Y029579D01*
X020817Y029628D01*
X020768Y029628D01*
X020720Y029579D01*
X020720Y029531D01*
X020720Y029579D02*
X020672Y029628D01*
X020623Y029628D01*
X020575Y029579D01*
X020575Y029483D01*
X020623Y029434D01*
X021023Y029140D02*
X021217Y029140D01*
X018715Y031495D02*
X018522Y031495D01*
X018425Y031592D01*
X018522Y031688D01*
X018715Y031688D01*
X018763Y031790D02*
X018763Y031983D01*
X018667Y032084D02*
X018715Y032133D01*
X018715Y032229D01*
X018667Y032278D01*
X018618Y032278D01*
X018570Y032229D01*
X018570Y032133D01*
X018522Y032084D01*
X018473Y032084D01*
X018425Y032133D01*
X018425Y032229D01*
X018473Y032278D01*
X018425Y032379D02*
X018425Y032572D01*
X018425Y032476D02*
X018715Y032476D01*
X018715Y032674D02*
X018425Y032674D01*
X018425Y032819D01*
X018473Y032867D01*
X018570Y032867D01*
X018618Y032819D01*
X018618Y032674D01*
X018570Y031688D02*
X018570Y031495D01*
X020795Y032195D02*
X020988Y032195D01*
X020892Y032195D02*
X020892Y032485D01*
X020795Y032388D01*
X020795Y032645D02*
X020795Y032935D01*
X020940Y032935D01*
X020988Y032887D01*
X020988Y032790D01*
X020940Y032742D01*
X020795Y032742D01*
X020892Y032742D02*
X020988Y032645D01*
X021090Y032693D02*
X021138Y032645D01*
X021235Y032645D01*
X021283Y032693D01*
X021283Y032742D01*
X021235Y032790D01*
X021090Y032790D01*
X021090Y032693D01*
X021090Y032790D02*
X021186Y032887D01*
X021283Y032935D01*
X021090Y032485D02*
X021090Y032195D01*
X021090Y032292D02*
X021235Y032388D01*
X021090Y032292D02*
X021235Y032195D01*
X026695Y028937D02*
X026695Y028743D01*
X026743Y028695D01*
X026840Y028695D01*
X026888Y028743D01*
X026990Y028840D02*
X027183Y028840D01*
X027135Y028695D02*
X027135Y028985D01*
X026990Y028840D01*
X026888Y028937D02*
X026840Y028985D01*
X026743Y028985D01*
X026695Y028937D01*
X026792Y028485D02*
X026792Y028195D01*
X026888Y028195D02*
X026695Y028195D01*
X026695Y028388D02*
X026792Y028485D01*
X026990Y028437D02*
X027038Y028485D01*
X027135Y028485D01*
X027183Y028437D01*
X026990Y028243D01*
X027038Y028195D01*
X027135Y028195D01*
X027183Y028243D01*
X027183Y028437D01*
X027284Y028437D02*
X027333Y028485D01*
X027429Y028485D01*
X027478Y028437D01*
X027284Y028243D01*
X027333Y028195D01*
X027429Y028195D01*
X027478Y028243D01*
X027478Y028437D01*
X027579Y028388D02*
X027579Y028243D01*
X027627Y028195D01*
X027772Y028195D01*
X027772Y028388D01*
X027874Y028340D02*
X027970Y028340D01*
X027874Y028195D02*
X027874Y028485D01*
X028067Y028485D01*
X027284Y028437D02*
X027284Y028243D01*
X026990Y028243D02*
X026990Y028437D01*
X029475Y028693D02*
X029523Y028645D01*
X029717Y028645D01*
X029765Y028693D01*
X029765Y028790D01*
X029717Y028838D01*
X029765Y028940D02*
X029765Y029133D01*
X029765Y029036D02*
X029475Y029036D01*
X029572Y028940D01*
X029523Y028838D02*
X029475Y028790D01*
X029475Y028693D01*
X029875Y028742D02*
X030165Y028742D01*
X030165Y028838D02*
X030165Y028645D01*
X029972Y028645D02*
X029875Y028742D01*
X029923Y028940D02*
X029875Y028988D01*
X029875Y029085D01*
X029923Y029133D01*
X030117Y028940D01*
X030165Y028988D01*
X030165Y029085D01*
X030117Y029133D01*
X029923Y029133D01*
X029923Y029234D02*
X029875Y029283D01*
X029875Y029379D01*
X029923Y029428D01*
X030117Y029234D01*
X030165Y029283D01*
X030165Y029379D01*
X030117Y029428D01*
X029923Y029428D01*
X029972Y029529D02*
X029972Y029674D01*
X030020Y029722D01*
X030165Y029722D01*
X030165Y029824D02*
X029875Y029824D01*
X029875Y030017D01*
X030020Y029920D02*
X030020Y029824D01*
X029972Y029529D02*
X030165Y029529D01*
X030117Y029234D02*
X029923Y029234D01*
X029765Y029379D02*
X029475Y029379D01*
X029620Y029234D01*
X029620Y029428D01*
X029923Y028940D02*
X030117Y028940D01*
X027772Y031372D02*
X027772Y031517D01*
X027724Y031565D01*
X027676Y031565D01*
X027627Y031517D01*
X027627Y031372D01*
X027772Y031372D02*
X027482Y031372D01*
X027482Y031517D01*
X027531Y031565D01*
X027579Y031565D01*
X027627Y031517D01*
X027821Y031666D02*
X027821Y031860D01*
X027724Y031961D02*
X027772Y032009D01*
X027772Y032106D01*
X027724Y032155D01*
X027676Y032155D01*
X027627Y032106D01*
X027627Y032009D01*
X027579Y031961D01*
X027531Y031961D01*
X027482Y032009D01*
X027482Y032106D01*
X027531Y032155D01*
X027482Y032256D02*
X027482Y032449D01*
X027482Y032352D02*
X027772Y032352D01*
X027772Y032550D02*
X027482Y032550D01*
X027482Y032695D01*
X027531Y032744D01*
X027627Y032744D01*
X027676Y032695D01*
X027676Y032550D01*
X030145Y032592D02*
X030290Y032592D01*
X030338Y032640D01*
X030338Y032737D01*
X030290Y032785D01*
X030145Y032785D01*
X030145Y032495D01*
X030242Y032592D02*
X030338Y032495D01*
X030440Y032495D02*
X030633Y032495D01*
X030536Y032495D02*
X030536Y032785D01*
X030440Y032688D01*
X030734Y032688D02*
X030831Y032785D01*
X030831Y032495D01*
X030734Y032495D02*
X030928Y032495D01*
X030633Y032385D02*
X030440Y032192D01*
X030488Y032240D02*
X030633Y032095D01*
X030440Y032095D02*
X030440Y032385D01*
X030242Y032385D02*
X030242Y032095D01*
X030338Y032095D02*
X030145Y032095D01*
X030145Y032288D02*
X030242Y032385D01*
X034160Y028916D02*
X034209Y028964D01*
X034305Y028964D01*
X034354Y028916D01*
X034455Y028916D02*
X034503Y028964D01*
X034600Y028964D01*
X034649Y028916D01*
X034649Y028868D01*
X034600Y028819D01*
X034649Y028771D01*
X034649Y028723D01*
X034600Y028674D01*
X034503Y028674D01*
X034455Y028723D01*
X034354Y028723D02*
X034305Y028674D01*
X034209Y028674D01*
X034160Y028723D01*
X034160Y028916D01*
X034552Y028819D02*
X034600Y028819D01*
X034510Y028488D02*
X034558Y028440D01*
X034365Y028247D01*
X034413Y028198D01*
X034510Y028198D01*
X034558Y028247D01*
X034558Y028440D01*
X034510Y028488D02*
X034413Y028488D01*
X034365Y028440D01*
X034365Y028247D01*
X034264Y028198D02*
X034070Y028198D01*
X034167Y028198D02*
X034167Y028488D01*
X034070Y028392D01*
X034659Y028440D02*
X034708Y028488D01*
X034805Y028488D01*
X034853Y028440D01*
X034659Y028247D01*
X034708Y028198D01*
X034805Y028198D01*
X034853Y028247D01*
X034853Y028440D01*
X034954Y028392D02*
X034954Y028247D01*
X035002Y028198D01*
X035148Y028198D01*
X035148Y028392D01*
X035249Y028343D02*
X035346Y028343D01*
X035249Y028198D02*
X035249Y028488D01*
X035442Y028488D01*
X034659Y028440D02*
X034659Y028247D01*
X036543Y031422D02*
X036737Y031422D01*
X036785Y031470D01*
X036785Y031567D01*
X036737Y031615D01*
X036833Y031716D02*
X036833Y031910D01*
X036737Y032011D02*
X036785Y032059D01*
X036785Y032156D01*
X036737Y032205D01*
X036688Y032205D01*
X036640Y032156D01*
X036640Y032059D01*
X036592Y032011D01*
X036543Y032011D01*
X036495Y032059D01*
X036495Y032156D01*
X036543Y032205D01*
X036495Y032306D02*
X036495Y032499D01*
X036495Y032402D02*
X036785Y032402D01*
X036785Y032600D02*
X036495Y032600D01*
X036495Y032745D01*
X036543Y032794D01*
X036640Y032794D01*
X036688Y032745D01*
X036688Y032600D01*
X036543Y031615D02*
X036495Y031567D01*
X036495Y031470D01*
X036543Y031422D01*
X038695Y032195D02*
X038888Y032195D01*
X038792Y032195D02*
X038792Y032485D01*
X038695Y032388D01*
X038695Y032595D02*
X038695Y032885D01*
X038840Y032885D01*
X038888Y032837D01*
X038888Y032740D01*
X038840Y032692D01*
X038695Y032692D01*
X038792Y032692D02*
X038888Y032595D01*
X038990Y032643D02*
X039038Y032595D01*
X039135Y032595D01*
X039183Y032643D01*
X039183Y032692D01*
X039135Y032740D01*
X039086Y032740D01*
X039135Y032740D02*
X039183Y032788D01*
X039183Y032837D01*
X039135Y032885D01*
X039038Y032885D01*
X038990Y032837D01*
X038990Y032485D02*
X038990Y032195D01*
X038990Y032292D02*
X039183Y032485D01*
X039038Y032340D02*
X039183Y032195D01*
X038617Y025878D02*
X038665Y025829D01*
X038665Y025733D01*
X038617Y025684D01*
X038568Y025684D01*
X038520Y025733D01*
X038520Y025829D01*
X038568Y025878D01*
X038617Y025878D01*
X038520Y025829D02*
X038472Y025878D01*
X038423Y025878D01*
X038375Y025829D01*
X038375Y025733D01*
X038423Y025684D01*
X038472Y025684D01*
X038520Y025733D01*
X038665Y025583D02*
X038665Y025390D01*
X038665Y025486D02*
X038375Y025486D01*
X038472Y025390D01*
X038520Y025288D02*
X038568Y025240D01*
X038568Y025095D01*
X038568Y025192D02*
X038665Y025288D01*
X038520Y025288D02*
X038423Y025288D01*
X038375Y025240D01*
X038375Y025095D01*
X038665Y025095D01*
X038795Y025157D02*
X038892Y025060D01*
X038795Y025157D02*
X039085Y025157D01*
X039085Y025060D02*
X039085Y025254D01*
X039037Y025355D02*
X038843Y025548D01*
X039037Y025548D01*
X039085Y025500D01*
X039085Y025403D01*
X039037Y025355D01*
X038843Y025355D01*
X038795Y025403D01*
X038795Y025500D01*
X038843Y025548D01*
X038795Y025649D02*
X039085Y025649D01*
X038988Y025649D02*
X038892Y025795D01*
X038988Y025649D02*
X039085Y025795D01*
X034956Y024223D02*
X034763Y024223D01*
X034763Y024078D01*
X034860Y024126D01*
X034908Y024126D01*
X034956Y024078D01*
X034956Y023981D01*
X034908Y023933D01*
X034811Y023933D01*
X034763Y023981D01*
X034662Y023933D02*
X034565Y024029D01*
X034613Y024029D02*
X034468Y024029D01*
X034468Y023933D02*
X034468Y024223D01*
X034613Y024223D01*
X034662Y024174D01*
X034662Y024078D01*
X034613Y024029D01*
X034592Y023785D02*
X034592Y023495D01*
X034688Y023495D02*
X034495Y023495D01*
X034495Y023688D02*
X034592Y023785D01*
X034790Y023785D02*
X034790Y023495D01*
X034790Y023592D02*
X034935Y023688D01*
X034790Y023592D02*
X034935Y023495D01*
X030085Y024960D02*
X030085Y025154D01*
X030085Y025057D02*
X029795Y025057D01*
X029892Y024960D01*
X029665Y024995D02*
X029375Y024995D01*
X029375Y025140D01*
X029423Y025188D01*
X029520Y025188D01*
X029568Y025140D01*
X029568Y024995D01*
X029568Y025092D02*
X029665Y025188D01*
X029665Y025290D02*
X029665Y025483D01*
X029665Y025386D02*
X029375Y025386D01*
X029472Y025290D01*
X029472Y025584D02*
X029520Y025633D01*
X029520Y025778D01*
X029617Y025778D02*
X029423Y025778D01*
X029375Y025729D01*
X029375Y025633D01*
X029423Y025584D01*
X029472Y025584D01*
X029617Y025584D02*
X029665Y025633D01*
X029665Y025729D01*
X029617Y025778D01*
X029892Y025695D02*
X029988Y025549D01*
X030085Y025695D01*
X030085Y025549D02*
X029795Y025549D01*
X029843Y025448D02*
X030037Y025255D01*
X030085Y025303D01*
X030085Y025400D01*
X030037Y025448D01*
X029843Y025448D01*
X029795Y025400D01*
X029795Y025303D01*
X029843Y025255D01*
X030037Y025255D01*
X025983Y024137D02*
X025983Y024088D01*
X025935Y024040D01*
X025838Y024040D01*
X025790Y024088D01*
X025790Y024137D01*
X025838Y024185D01*
X025935Y024185D01*
X025983Y024137D01*
X025935Y024040D02*
X025983Y023992D01*
X025983Y023943D01*
X025935Y023895D01*
X025838Y023895D01*
X025790Y023943D01*
X025790Y023992D01*
X025838Y024040D01*
X025688Y024040D02*
X025640Y023992D01*
X025495Y023992D01*
X025592Y023992D02*
X025688Y023895D01*
X025688Y024040D02*
X025688Y024137D01*
X025640Y024185D01*
X025495Y024185D01*
X025495Y023895D01*
X025592Y023785D02*
X025592Y023495D01*
X025688Y023495D02*
X025495Y023495D01*
X025495Y023688D02*
X025592Y023785D01*
X025790Y023785D02*
X025790Y023495D01*
X025790Y023592D02*
X025935Y023688D01*
X025790Y023592D02*
X025935Y023495D01*
X015129Y006885D02*
X015178Y006837D01*
X015178Y006788D01*
X015129Y006740D01*
X015178Y006692D01*
X015178Y006643D01*
X015129Y006595D01*
X015033Y006595D01*
X014984Y006643D01*
X014883Y006595D02*
X014690Y006595D01*
X014786Y006595D02*
X014786Y006885D01*
X014690Y006788D01*
X014588Y006740D02*
X014540Y006692D01*
X014395Y006692D01*
X014492Y006692D02*
X014588Y006595D01*
X014588Y006740D02*
X014588Y006837D01*
X014540Y006885D01*
X014395Y006885D01*
X014395Y006595D01*
X014984Y006837D02*
X015033Y006885D01*
X015129Y006885D01*
X015129Y006740D02*
X015081Y006740D01*
X014835Y005785D02*
X014738Y005785D01*
X014690Y005737D01*
X014690Y005543D01*
X014883Y005737D01*
X014883Y005543D01*
X014835Y005495D01*
X014738Y005495D01*
X014690Y005543D01*
X014588Y005495D02*
X014395Y005495D01*
X014492Y005495D02*
X014492Y005785D01*
X014395Y005688D01*
X014835Y005785D02*
X014883Y005737D01*
X013178Y006643D02*
X013178Y006692D01*
X013129Y006740D01*
X012984Y006740D01*
X012984Y006643D01*
X013033Y006595D01*
X013129Y006595D01*
X013178Y006643D01*
X013081Y006837D02*
X012984Y006740D01*
X012883Y006788D02*
X012883Y006837D01*
X012835Y006885D01*
X012738Y006885D01*
X012690Y006837D01*
X012588Y006837D02*
X012588Y006740D01*
X012540Y006692D01*
X012395Y006692D01*
X012492Y006692D02*
X012588Y006595D01*
X012690Y006595D02*
X012883Y006788D01*
X012883Y006595D02*
X012690Y006595D01*
X012588Y006837D02*
X012540Y006885D01*
X012395Y006885D01*
X012395Y006595D01*
X013081Y006837D02*
X013178Y006885D01*
X012735Y005785D02*
X012638Y005785D01*
X012590Y005737D01*
X012590Y005543D01*
X012783Y005737D01*
X012783Y005543D01*
X012735Y005495D01*
X012638Y005495D01*
X012590Y005543D01*
X012488Y005495D02*
X012295Y005495D01*
X012392Y005495D02*
X012392Y005785D01*
X012295Y005688D01*
X012735Y005785D02*
X012783Y005737D01*
X011885Y004882D02*
X011788Y004882D01*
X011740Y004833D01*
X011639Y004833D02*
X011590Y004882D01*
X011445Y004882D01*
X011445Y004592D01*
X011590Y004592D01*
X011639Y004640D01*
X011639Y004833D01*
X011885Y004882D02*
X011933Y004833D01*
X011933Y004785D01*
X011740Y004592D01*
X011933Y004592D01*
X011936Y003885D02*
X011936Y003595D01*
X011840Y003595D02*
X012033Y003595D01*
X012134Y003595D02*
X012328Y003788D01*
X012328Y003837D01*
X012279Y003885D01*
X012183Y003885D01*
X012134Y003837D01*
X011936Y003885D02*
X011840Y003788D01*
X011738Y003740D02*
X011690Y003692D01*
X011545Y003692D01*
X011642Y003692D02*
X011738Y003595D01*
X011738Y003740D02*
X011738Y003837D01*
X011690Y003885D01*
X011545Y003885D01*
X011545Y003595D01*
X011642Y003485D02*
X011642Y003195D01*
X011738Y003195D02*
X011545Y003195D01*
X011545Y003388D02*
X011642Y003485D01*
X011840Y003485D02*
X011840Y003195D01*
X011840Y003292D02*
X012033Y003485D01*
X012134Y003595D02*
X012328Y003595D01*
X012033Y003195D02*
X011888Y003340D01*
X011806Y002515D02*
X011806Y002225D01*
X011902Y002322D01*
X011999Y002225D01*
X011999Y002515D01*
X012100Y002515D02*
X012245Y002515D01*
X012294Y002467D01*
X012294Y002370D01*
X012245Y002322D01*
X012100Y002322D01*
X012100Y002225D02*
X012100Y002515D01*
X012197Y002322D02*
X012294Y002225D01*
X012716Y002265D02*
X012716Y001975D01*
X012716Y002072D02*
X012862Y002072D01*
X012910Y002120D01*
X012910Y002217D01*
X012862Y002265D01*
X012716Y002265D01*
X013011Y002265D02*
X013011Y001975D01*
X013108Y002072D01*
X013205Y001975D01*
X013205Y002265D01*
X013306Y002265D02*
X013451Y002265D01*
X013499Y002217D01*
X013499Y002120D01*
X013451Y002072D01*
X013306Y002072D01*
X013402Y002072D02*
X013499Y001975D01*
X013600Y001975D02*
X013794Y001975D01*
X013697Y001975D02*
X013697Y002265D01*
X013600Y002168D01*
X013306Y002265D02*
X013306Y001975D01*
X011705Y002370D02*
X011656Y002322D01*
X011511Y002322D01*
X011511Y002225D02*
X011511Y002515D01*
X011656Y002515D01*
X011705Y002467D01*
X011705Y002370D01*
X011410Y002177D02*
X011216Y002177D01*
X011115Y002273D02*
X011115Y002467D01*
X011067Y002515D01*
X010922Y002515D01*
X010922Y002225D01*
X011067Y002225D01*
X011115Y002273D01*
X010821Y002225D02*
X010724Y002322D01*
X010772Y002322D02*
X010627Y002322D01*
X010627Y002225D02*
X010627Y002515D01*
X010772Y002515D01*
X010821Y002467D01*
X010821Y002370D01*
X010772Y002322D01*
X010526Y002370D02*
X010332Y002370D01*
X010332Y002418D02*
X010429Y002515D01*
X010526Y002418D01*
X010526Y002225D01*
X010332Y002225D02*
X010332Y002418D01*
X010231Y002467D02*
X010231Y002273D01*
X010183Y002225D01*
X010086Y002225D01*
X010038Y002273D01*
X010038Y002467D01*
X010086Y002515D01*
X010183Y002515D01*
X010231Y002467D01*
X009937Y002467D02*
X009937Y002418D01*
X009888Y002370D01*
X009743Y002370D01*
X009743Y002225D02*
X009888Y002225D01*
X009937Y002273D01*
X009937Y002322D01*
X009888Y002370D01*
X009937Y002467D02*
X009888Y002515D01*
X009743Y002515D01*
X009743Y002225D01*
X009642Y002177D02*
X009448Y002177D01*
X009347Y002225D02*
X009347Y002515D01*
X009154Y002515D02*
X009154Y002225D01*
X009053Y002273D02*
X009053Y002467D01*
X009004Y002515D01*
X008908Y002515D01*
X008859Y002467D01*
X008859Y002273D01*
X008908Y002225D01*
X009004Y002225D01*
X009053Y002273D01*
X009154Y002515D02*
X009347Y002225D01*
X003137Y009910D02*
X003137Y010104D01*
X003137Y010007D02*
X002847Y010007D01*
X002943Y009910D01*
X002895Y010205D02*
X002847Y010253D01*
X002847Y010350D01*
X002895Y010398D01*
X003089Y010205D01*
X003137Y010253D01*
X003137Y010350D01*
X003089Y010398D01*
X002895Y010398D01*
X002943Y010499D02*
X002943Y010645D01*
X002992Y010693D01*
X003137Y010693D01*
X003137Y010794D02*
X002847Y010794D01*
X002847Y010988D01*
X002992Y010891D02*
X002992Y010794D01*
X002943Y010499D02*
X003137Y010499D01*
X003089Y010205D02*
X002895Y010205D01*
X002888Y011199D02*
X003081Y011199D01*
X003129Y011248D01*
X003129Y011345D01*
X003081Y011393D01*
X003081Y011494D02*
X003033Y011494D01*
X002984Y011542D01*
X002984Y011639D01*
X003033Y011688D01*
X003081Y011688D01*
X003129Y011639D01*
X003129Y011542D01*
X003081Y011494D01*
X002984Y011542D02*
X002936Y011494D01*
X002888Y011494D01*
X002839Y011542D01*
X002839Y011639D01*
X002888Y011688D01*
X002936Y011688D01*
X002984Y011639D01*
X002888Y011393D02*
X002839Y011345D01*
X002839Y011248D01*
X002888Y011199D01*
X002745Y014277D02*
X002842Y014374D01*
X002745Y014471D01*
X003035Y014471D01*
X003035Y014572D02*
X002745Y014572D01*
X002745Y014717D01*
X002793Y014765D01*
X002890Y014765D01*
X002938Y014717D01*
X002938Y014572D01*
X003035Y014866D02*
X002842Y015060D01*
X002793Y015060D01*
X002745Y015012D01*
X002745Y014915D01*
X002793Y014866D01*
X003035Y014866D02*
X003035Y015060D01*
X002987Y015161D02*
X003035Y015209D01*
X003035Y015306D01*
X002987Y015355D01*
X002938Y015355D01*
X002890Y015306D01*
X002890Y015258D01*
X002890Y015306D02*
X002842Y015355D01*
X002793Y015355D01*
X002745Y015306D01*
X002745Y015209D01*
X002793Y015161D01*
X002793Y015456D02*
X002745Y015504D01*
X002745Y015601D01*
X002793Y015649D01*
X002987Y015456D01*
X003035Y015504D01*
X003035Y015601D01*
X002987Y015649D01*
X002793Y015649D01*
X002745Y015750D02*
X002745Y015944D01*
X002793Y015944D01*
X002987Y015750D01*
X003035Y015750D01*
X002987Y015456D02*
X002793Y015456D01*
X002745Y014277D02*
X003035Y014277D01*
X022669Y002943D02*
X022916Y002943D01*
X022792Y002820D02*
X022792Y003067D01*
D12*
X020017Y006510D02*
X020164Y006804D01*
X019870Y006804D02*
X020017Y006510D01*
X019704Y006583D02*
X019704Y006730D01*
X019630Y006804D01*
X019557Y006804D01*
X019410Y006730D01*
X019410Y006950D01*
X019704Y006950D01*
X019704Y006583D02*
X019630Y006510D01*
X019483Y006510D01*
X019410Y006583D01*
X014350Y002630D02*
X013923Y002630D01*
X014136Y002844D02*
X014136Y002417D01*
X009566Y003387D02*
X009316Y003137D01*
X007816Y003137D01*
X007566Y003387D01*
X007566Y003887D01*
X007816Y004137D01*
X009316Y004137D01*
X009566Y003887D01*
X009566Y003387D01*
X009316Y004137D02*
X009566Y004387D01*
X009566Y004887D01*
X009316Y005137D01*
X007816Y005137D01*
X007566Y005387D01*
X007566Y005887D01*
X007816Y006137D01*
X009316Y006137D01*
X009566Y005887D01*
X009566Y005387D01*
X009316Y005137D01*
X009316Y006137D02*
X009566Y006387D01*
X009566Y006887D01*
X009316Y007137D01*
X007816Y007137D01*
X007566Y007387D01*
X007566Y007887D01*
X007816Y008137D01*
X009316Y008137D01*
X009566Y007887D01*
X009566Y007387D01*
X009316Y007137D01*
X009316Y008137D02*
X009566Y008387D01*
X009566Y008887D01*
X009316Y009137D01*
X007816Y009137D01*
X007566Y009387D01*
X007566Y009887D01*
X007816Y010137D01*
X009316Y010137D01*
X009566Y009887D01*
X009566Y009387D01*
X009316Y009137D01*
X009316Y010137D02*
X009566Y010387D01*
X009566Y010887D01*
X009316Y011137D01*
X007816Y011137D01*
X007566Y011387D01*
X007566Y011887D01*
X007816Y012137D01*
X009316Y012137D01*
X009566Y011887D01*
X009566Y011387D01*
X009316Y011137D01*
X009316Y012137D02*
X009566Y012387D01*
X009566Y012887D01*
X009316Y013137D01*
X007816Y013137D01*
X007566Y013387D01*
X007566Y013887D01*
X007816Y014137D01*
X009316Y014137D01*
X009566Y013887D01*
X009566Y013387D01*
X009316Y013137D01*
X009316Y014137D02*
X009566Y014387D01*
X009566Y014887D01*
X009316Y015137D01*
X007816Y015137D01*
X007566Y015387D01*
X007566Y015887D01*
X007816Y016137D01*
X009316Y016137D01*
X009566Y015887D01*
X009566Y015387D01*
X009316Y015137D01*
X009316Y016137D02*
X009566Y016387D01*
X009566Y016887D01*
X009316Y017137D01*
X007816Y017137D01*
X007566Y016887D01*
X007566Y016387D01*
X007816Y016137D01*
X007816Y017137D02*
X007566Y017387D01*
X007566Y017887D01*
X007816Y018137D01*
X009316Y018137D01*
X009566Y017887D01*
X009566Y017387D01*
X009316Y017137D01*
X009316Y018137D02*
X009566Y018387D01*
X009566Y018887D01*
X009316Y019137D01*
X007816Y019137D01*
X007566Y018887D01*
X007566Y018387D01*
X007816Y018137D01*
X007816Y019137D02*
X007566Y019387D01*
X007566Y019887D01*
X007816Y020137D01*
X009316Y020137D01*
X009566Y019887D01*
X009566Y019387D01*
X009316Y019137D01*
X009316Y020137D02*
X009566Y020387D01*
X009566Y020887D01*
X009316Y021137D01*
X007816Y021137D01*
X007566Y020887D01*
X007566Y020387D01*
X007816Y020137D01*
X007816Y021137D02*
X007566Y021387D01*
X007566Y021887D01*
X007816Y022137D01*
X009316Y022137D01*
X009566Y021887D01*
X009566Y021387D01*
X009316Y021137D01*
X009316Y022137D02*
X009566Y022387D01*
X009566Y022887D01*
X009316Y023137D01*
X007816Y023137D01*
X007566Y022887D01*
X007566Y022387D01*
X007816Y022137D01*
X012230Y025330D02*
X020130Y025330D01*
X020130Y031030D01*
X012230Y031030D01*
X012230Y028680D01*
X011930Y029180D02*
X012180Y029430D01*
X012180Y029930D01*
X011930Y030180D01*
X012180Y030430D01*
X012180Y030930D01*
X011930Y031180D01*
X011430Y031180D01*
X011180Y030930D01*
X010930Y031180D01*
X010430Y031180D01*
X010180Y030930D01*
X009930Y031180D01*
X009430Y031180D01*
X009180Y030930D01*
X009180Y030430D01*
X009430Y030180D01*
X009930Y030180D01*
X010180Y030430D01*
X010430Y030180D01*
X010930Y030180D01*
X011180Y030430D01*
X011430Y030180D01*
X011930Y030180D01*
X011430Y030180D01*
X011180Y029930D01*
X010930Y030180D01*
X010430Y030180D01*
X010180Y029930D01*
X009930Y030180D01*
X009430Y030180D01*
X009180Y029930D01*
X009180Y029430D01*
X009430Y029180D01*
X009930Y029180D01*
X010180Y029430D01*
X010430Y029180D01*
X010930Y029180D01*
X011180Y029430D01*
X011430Y029180D01*
X011930Y029180D01*
X012230Y028680D02*
X012274Y028678D01*
X012317Y028672D01*
X012359Y028663D01*
X012401Y028650D01*
X012441Y028633D01*
X012480Y028613D01*
X012517Y028590D01*
X012551Y028563D01*
X012584Y028534D01*
X012613Y028501D01*
X012640Y028467D01*
X012663Y028430D01*
X012683Y028391D01*
X012700Y028351D01*
X012713Y028309D01*
X012722Y028267D01*
X012728Y028224D01*
X012730Y028180D01*
X012728Y028136D01*
X012722Y028093D01*
X012713Y028051D01*
X012700Y028009D01*
X012683Y027969D01*
X012663Y027930D01*
X012640Y027893D01*
X012613Y027859D01*
X012584Y027826D01*
X012551Y027797D01*
X012517Y027770D01*
X012480Y027747D01*
X012441Y027727D01*
X012401Y027710D01*
X012359Y027697D01*
X012317Y027688D01*
X012274Y027682D01*
X012230Y027680D01*
X012230Y025330D01*
X008736Y028417D02*
X008736Y028844D01*
X008523Y028630D02*
X008950Y028630D01*
X006950Y029430D02*
X006523Y029430D01*
X006580Y029680D02*
X006680Y029780D01*
X006680Y030580D01*
X006580Y030680D01*
X006680Y030780D01*
X006680Y031580D01*
X006580Y031680D01*
X005780Y031680D01*
X005680Y031580D01*
X005680Y030780D01*
X005780Y030680D01*
X005680Y030580D01*
X005680Y029780D01*
X005780Y029680D01*
X006580Y029680D01*
X006736Y029644D02*
X006736Y029217D01*
X006736Y030517D02*
X006736Y030944D01*
X006523Y030730D02*
X006950Y030730D01*
X008523Y031730D02*
X008950Y031730D01*
X008736Y031517D02*
X008736Y031944D01*
X017823Y032730D02*
X018250Y032730D01*
X018036Y032517D02*
X018036Y032944D01*
X021230Y031030D02*
X029130Y031030D01*
X029130Y025330D01*
X021230Y025330D01*
X021230Y027680D01*
X021274Y027682D01*
X021317Y027688D01*
X021359Y027697D01*
X021401Y027710D01*
X021441Y027727D01*
X021480Y027747D01*
X021517Y027770D01*
X021551Y027797D01*
X021584Y027826D01*
X021613Y027859D01*
X021640Y027893D01*
X021663Y027930D01*
X021683Y027969D01*
X021700Y028009D01*
X021713Y028051D01*
X021722Y028093D01*
X021728Y028136D01*
X021730Y028180D01*
X021728Y028224D01*
X021722Y028267D01*
X021713Y028309D01*
X021700Y028351D01*
X021683Y028391D01*
X021663Y028430D01*
X021640Y028467D01*
X021613Y028501D01*
X021584Y028534D01*
X021551Y028563D01*
X021517Y028590D01*
X021480Y028613D01*
X021441Y028633D01*
X021401Y028650D01*
X021359Y028663D01*
X021317Y028672D01*
X021274Y028678D01*
X021230Y028680D01*
X021230Y031030D01*
X028523Y032730D02*
X028950Y032730D01*
X028736Y032517D02*
X028736Y032944D01*
X030230Y031030D02*
X038130Y031030D01*
X038130Y025330D01*
X030230Y025330D01*
X030230Y027680D01*
X030274Y027682D01*
X030317Y027688D01*
X030359Y027697D01*
X030401Y027710D01*
X030441Y027727D01*
X030480Y027747D01*
X030517Y027770D01*
X030551Y027797D01*
X030584Y027826D01*
X030613Y027859D01*
X030640Y027893D01*
X030663Y027930D01*
X030683Y027969D01*
X030700Y028009D01*
X030713Y028051D01*
X030722Y028093D01*
X030728Y028136D01*
X030730Y028180D01*
X030728Y028224D01*
X030722Y028267D01*
X030713Y028309D01*
X030700Y028351D01*
X030683Y028391D01*
X030663Y028430D01*
X030640Y028467D01*
X030613Y028501D01*
X030584Y028534D01*
X030551Y028563D01*
X030517Y028590D01*
X030480Y028613D01*
X030441Y028633D01*
X030401Y028650D01*
X030359Y028663D01*
X030317Y028672D01*
X030274Y028678D01*
X030230Y028680D01*
X030230Y031030D01*
X035923Y032730D02*
X036350Y032730D01*
X036136Y032517D02*
X036136Y032944D01*
X038680Y030930D02*
X038930Y031180D01*
X040430Y031180D01*
X040680Y030930D01*
X040680Y030430D01*
X040430Y030180D01*
X038930Y030180D01*
X038680Y030430D01*
X038680Y030930D01*
X038930Y030180D02*
X038680Y029930D01*
X038680Y029430D01*
X038930Y029180D01*
X040430Y029180D01*
X040680Y029430D01*
X040680Y029930D01*
X040430Y030180D01*
X040430Y029180D02*
X040680Y028930D01*
X040680Y028430D01*
X040430Y028180D01*
X038930Y028180D01*
X038680Y028430D01*
X038680Y028930D01*
X038930Y029180D01*
X020024Y019477D02*
X020024Y019404D01*
X019951Y019330D01*
X020024Y019257D01*
X020024Y019183D01*
X019951Y019110D01*
X019804Y019110D01*
X019731Y019183D01*
X019878Y019330D02*
X019951Y019330D01*
X020024Y019477D02*
X019951Y019550D01*
X019804Y019550D01*
X019731Y019477D01*
X019564Y019404D02*
X019417Y019110D01*
X019270Y019404D01*
X019104Y019404D02*
X019030Y019330D01*
X019104Y019257D01*
X019104Y019183D01*
X019030Y019110D01*
X018883Y019110D01*
X018810Y019183D01*
X018957Y019330D02*
X019030Y019330D01*
X019104Y019404D02*
X019104Y019477D01*
X019030Y019550D01*
X018883Y019550D01*
X018810Y019477D01*
X029310Y011977D02*
X029383Y012050D01*
X029530Y012050D01*
X029604Y011977D01*
X029604Y011904D01*
X029530Y011830D01*
X029604Y011757D01*
X029604Y011683D01*
X029530Y011610D01*
X029383Y011610D01*
X029310Y011683D01*
X029457Y011830D02*
X029530Y011830D01*
X029770Y011904D02*
X029917Y011610D01*
X030064Y011904D01*
X030231Y011977D02*
X030304Y012050D01*
X030451Y012050D01*
X030524Y011977D01*
X030524Y011904D01*
X030451Y011830D01*
X030524Y011757D01*
X030524Y011683D01*
X030451Y011610D01*
X030304Y011610D01*
X030231Y011683D01*
X030378Y011830D02*
X030451Y011830D01*
X030451Y008650D02*
X030524Y008577D01*
X030524Y008504D01*
X030451Y008430D01*
X030524Y008357D01*
X030524Y008283D01*
X030451Y008210D01*
X030304Y008210D01*
X030231Y008283D01*
X030378Y008430D02*
X030451Y008430D01*
X030451Y008650D02*
X030304Y008650D01*
X030231Y008577D01*
X030064Y008504D02*
X029917Y008210D01*
X029770Y008504D01*
X029604Y008504D02*
X029530Y008430D01*
X029604Y008357D01*
X029604Y008283D01*
X029530Y008210D01*
X029383Y008210D01*
X029310Y008283D01*
X029457Y008430D02*
X029530Y008430D01*
X029604Y008504D02*
X029604Y008577D01*
X029530Y008650D01*
X029383Y008650D01*
X029310Y008577D01*
X007816Y008137D02*
X007566Y008387D01*
X007566Y008887D01*
X007816Y009137D01*
X007816Y010137D02*
X007566Y010387D01*
X007566Y010887D01*
X007816Y011137D01*
X007816Y012137D02*
X007566Y012387D01*
X007566Y012887D01*
X007816Y013137D01*
X007816Y014137D02*
X007566Y014387D01*
X007566Y014887D01*
X007816Y015137D01*
X007816Y007137D02*
X007566Y006887D01*
X007566Y006387D01*
X007816Y006137D01*
X007816Y005137D02*
X007566Y004887D01*
X007566Y004387D01*
X007816Y004137D01*
X006680Y003080D02*
X006680Y002280D01*
X006580Y002180D01*
X005780Y002180D01*
X005680Y002280D01*
X005580Y002180D01*
X004780Y002180D01*
X004680Y002280D01*
X004680Y003080D01*
X004780Y003180D01*
X005580Y003180D01*
X005680Y003080D01*
X005780Y003180D01*
X006580Y003180D01*
X006680Y003080D01*
D13*
X009713Y003151D02*
X009713Y003458D01*
X009713Y003305D02*
X010173Y003305D01*
X010173Y003612D02*
X009713Y003612D01*
X009713Y003919D01*
X009713Y004072D02*
X009713Y004379D01*
X009713Y004225D02*
X010173Y004225D01*
X010096Y004532D02*
X009789Y004839D01*
X010096Y004839D01*
X010173Y004763D01*
X010173Y004609D01*
X010096Y004532D01*
X009789Y004532D01*
X009713Y004609D01*
X009713Y004763D01*
X009789Y004839D01*
X009866Y004993D02*
X009713Y005146D01*
X010173Y005146D01*
X010173Y004993D02*
X010173Y005300D01*
X009943Y005453D02*
X009943Y005760D01*
X009789Y005914D02*
X009713Y005990D01*
X009713Y006144D01*
X009789Y006220D01*
X009866Y006220D01*
X010173Y005914D01*
X010173Y006220D01*
X010173Y006374D02*
X010096Y006374D01*
X010096Y006451D01*
X010173Y006451D01*
X010173Y006374D01*
X009943Y006604D02*
X009943Y006911D01*
X010173Y006834D02*
X009713Y006834D01*
X009943Y006604D01*
X009943Y003765D02*
X009943Y003612D01*
X005182Y007649D02*
X004493Y009863D01*
X004296Y009814D02*
X004985Y007599D01*
X003686Y009233D02*
X003716Y009292D01*
X003749Y009349D01*
X003786Y009405D01*
X003825Y009458D01*
X003868Y009509D01*
X003913Y009557D01*
X003961Y009603D01*
X004012Y009645D01*
X004065Y009685D01*
X004120Y009722D01*
X004177Y009756D01*
X004236Y009787D01*
X004296Y009814D01*
X005792Y008229D02*
X005762Y008170D01*
X005729Y008113D01*
X005692Y008057D01*
X005653Y008004D01*
X005610Y007953D01*
X005565Y007905D01*
X005517Y007859D01*
X005466Y007817D01*
X005413Y007777D01*
X005358Y007740D01*
X005301Y007706D01*
X005242Y007675D01*
X005182Y007648D01*
X004985Y007599D02*
X004920Y007587D01*
X004856Y007579D01*
X004790Y007574D01*
X004725Y007573D01*
X004660Y007576D01*
X004595Y007582D01*
X004530Y007592D01*
X004466Y007606D01*
X004403Y007623D01*
X004341Y007643D01*
X004280Y007668D01*
X004221Y007695D01*
X004164Y007726D01*
X004108Y007760D01*
X004054Y007797D01*
X004002Y007837D01*
X003953Y007880D01*
X003906Y007926D01*
X003862Y007974D01*
X003821Y008025D01*
X003783Y008078D01*
X003747Y008133D01*
X003715Y008190D01*
X004493Y009863D02*
X004558Y009875D01*
X004622Y009883D01*
X004688Y009888D01*
X004753Y009889D01*
X004818Y009886D01*
X004883Y009880D01*
X004948Y009870D01*
X005012Y009856D01*
X005075Y009839D01*
X005137Y009819D01*
X005198Y009794D01*
X005257Y009767D01*
X005314Y009736D01*
X005370Y009702D01*
X005424Y009665D01*
X005476Y009625D01*
X005525Y009582D01*
X005572Y009536D01*
X005616Y009488D01*
X005657Y009437D01*
X005695Y009384D01*
X005731Y009329D01*
X005763Y009272D01*
X019048Y007612D02*
X019202Y007612D01*
X019125Y007612D02*
X019125Y007152D01*
X019048Y007152D02*
X019202Y007152D01*
X019355Y007228D02*
X019432Y007152D01*
X019586Y007152D01*
X019662Y007228D01*
X019816Y007228D02*
X019892Y007152D01*
X020046Y007152D01*
X020123Y007228D01*
X020123Y007382D01*
X020046Y007459D01*
X019969Y007459D01*
X019816Y007382D01*
X019816Y007612D01*
X020123Y007612D01*
X019662Y007535D02*
X019586Y007612D01*
X019432Y007612D01*
X019355Y007535D01*
X019355Y007228D01*
X020129Y004874D02*
X020436Y004874D01*
X020436Y004797D01*
X020129Y004490D01*
X020129Y004413D01*
X020589Y004644D02*
X020896Y004644D01*
X021050Y004644D02*
X021203Y004720D01*
X021280Y004720D01*
X021357Y004644D01*
X021357Y004490D01*
X021280Y004413D01*
X021126Y004413D01*
X021050Y004490D01*
X021050Y004644D02*
X021050Y004874D01*
X021357Y004874D01*
X021510Y004644D02*
X021817Y004644D01*
X021970Y004720D02*
X022124Y004874D01*
X022124Y004413D01*
X022277Y004413D02*
X021970Y004413D01*
X021740Y004413D02*
X021740Y004874D01*
X021510Y004644D01*
X020819Y004413D02*
X020819Y004874D01*
X020589Y004644D01*
X022431Y004567D02*
X022661Y004567D01*
X022738Y004644D01*
X022738Y004797D01*
X022661Y004874D01*
X022431Y004874D01*
X022431Y004413D01*
X022891Y004413D02*
X023045Y004567D01*
X023198Y004413D01*
X023198Y004874D01*
X022891Y004874D02*
X022891Y004413D01*
X029424Y008848D02*
X029577Y008848D01*
X029501Y008848D02*
X029501Y009309D01*
X029577Y009309D02*
X029424Y009309D01*
X029731Y009232D02*
X029731Y008925D01*
X029808Y008848D01*
X029961Y008848D01*
X030038Y008925D01*
X030191Y009079D02*
X030498Y009079D01*
X030421Y009309D02*
X030191Y009079D01*
X030038Y009232D02*
X029961Y009309D01*
X029808Y009309D01*
X029731Y009232D01*
X030421Y009309D02*
X030421Y008848D01*
X030598Y010037D02*
X030598Y010113D01*
X030905Y010420D01*
X030905Y010497D01*
X030598Y010497D01*
X031059Y010267D02*
X031366Y010267D01*
X031519Y010267D02*
X031673Y010344D01*
X031749Y010344D01*
X031826Y010267D01*
X031826Y010113D01*
X031749Y010037D01*
X031596Y010037D01*
X031519Y010113D01*
X031519Y010267D02*
X031519Y010497D01*
X031826Y010497D01*
X031980Y010267D02*
X032287Y010267D01*
X032440Y010344D02*
X032593Y010497D01*
X032593Y010037D01*
X032440Y010037D02*
X032747Y010037D01*
X032900Y010037D02*
X032900Y010497D01*
X033131Y010497D01*
X033207Y010420D01*
X033207Y010267D01*
X033131Y010190D01*
X032900Y010190D01*
X033361Y010037D02*
X033514Y010190D01*
X033668Y010037D01*
X033668Y010497D01*
X033361Y010497D02*
X033361Y010037D01*
X032210Y010037D02*
X032210Y010497D01*
X031980Y010267D01*
X031289Y010037D02*
X031289Y010497D01*
X031059Y010267D01*
X030421Y012248D02*
X030268Y012248D01*
X030191Y012325D01*
X030038Y012325D02*
X029961Y012248D01*
X029808Y012248D01*
X029731Y012325D01*
X029731Y012632D01*
X029808Y012709D01*
X029961Y012709D01*
X030038Y012632D01*
X030191Y012632D02*
X030268Y012709D01*
X030421Y012709D01*
X030498Y012632D01*
X030498Y012555D01*
X030421Y012479D01*
X030498Y012402D01*
X030498Y012325D01*
X030421Y012248D01*
X030421Y012479D02*
X030345Y012479D01*
X029577Y012709D02*
X029424Y012709D01*
X029501Y012709D02*
X029501Y012248D01*
X029577Y012248D02*
X029424Y012248D01*
X023298Y017013D02*
X023298Y017474D01*
X022991Y017474D02*
X022991Y017013D01*
X023145Y017167D01*
X023298Y017013D01*
X022838Y017244D02*
X022761Y017167D01*
X022531Y017167D01*
X022531Y017013D02*
X022531Y017474D01*
X022761Y017474D01*
X022838Y017397D01*
X022838Y017244D01*
X022377Y017013D02*
X022070Y017013D01*
X022224Y017013D02*
X022224Y017474D01*
X022070Y017320D01*
X021917Y017244D02*
X021610Y017244D01*
X021840Y017474D01*
X021840Y017013D01*
X021457Y017090D02*
X021380Y017013D01*
X021226Y017013D01*
X021150Y017090D01*
X021150Y017244D02*
X021303Y017320D01*
X021380Y017320D01*
X021457Y017244D01*
X021457Y017090D01*
X021150Y017244D02*
X021150Y017474D01*
X021457Y017474D01*
X020996Y017244D02*
X020689Y017244D01*
X020919Y017474D01*
X020919Y017013D01*
X020536Y017397D02*
X020229Y017090D01*
X020229Y017013D01*
X020536Y017397D02*
X020536Y017474D01*
X020229Y017474D01*
X019998Y019748D02*
X019691Y019748D01*
X019998Y020055D01*
X019998Y020132D01*
X019921Y020209D01*
X019768Y020209D01*
X019691Y020132D01*
X019538Y020132D02*
X019461Y020209D01*
X019308Y020209D01*
X019231Y020132D01*
X019231Y019825D01*
X019308Y019748D01*
X019461Y019748D01*
X019538Y019825D01*
X019077Y019748D02*
X018924Y019748D01*
X019001Y019748D02*
X019001Y020209D01*
X019077Y020209D02*
X018924Y020209D01*
X021600Y023900D02*
X021600Y024220D01*
X021707Y024114D01*
X021814Y024220D01*
X021814Y023900D01*
X021931Y023953D02*
X021985Y023900D01*
X022092Y023900D01*
X022145Y023953D01*
X022145Y024007D01*
X022092Y024060D01*
X021985Y024060D01*
X021931Y024114D01*
X021931Y024167D01*
X021985Y024220D01*
X022092Y024220D01*
X022145Y024167D01*
X022594Y024114D02*
X022701Y024220D01*
X022701Y023900D01*
X022594Y023900D02*
X022808Y023900D01*
X023589Y023900D02*
X023802Y024114D01*
X023802Y024167D01*
X023749Y024220D01*
X023642Y024220D01*
X023589Y024167D01*
X023589Y023900D02*
X023802Y023900D01*
X024583Y023953D02*
X024637Y023900D01*
X024743Y023900D01*
X024797Y023953D01*
X024797Y024007D01*
X024743Y024060D01*
X024690Y024060D01*
X024743Y024060D02*
X024797Y024114D01*
X024797Y024167D01*
X024743Y024220D01*
X024637Y024220D01*
X024583Y024167D01*
X030600Y024220D02*
X030600Y023900D01*
X030814Y023900D02*
X030814Y024220D01*
X030707Y024114D01*
X030600Y024220D01*
X030931Y024167D02*
X030931Y024114D01*
X030985Y024060D01*
X031092Y024060D01*
X031145Y024007D01*
X031145Y023953D01*
X031092Y023900D01*
X030985Y023900D01*
X030931Y023953D01*
X030931Y024167D02*
X030985Y024220D01*
X031092Y024220D01*
X031145Y024167D01*
X031594Y024114D02*
X031701Y024220D01*
X031701Y023900D01*
X031594Y023900D02*
X031808Y023900D01*
X032589Y023900D02*
X032802Y024114D01*
X032802Y024167D01*
X032749Y024220D01*
X032642Y024220D01*
X032589Y024167D01*
X032589Y023900D02*
X032802Y023900D01*
X033583Y023953D02*
X033637Y023900D01*
X033743Y023900D01*
X033797Y023953D01*
X033797Y024007D01*
X033743Y024060D01*
X033690Y024060D01*
X033743Y024060D02*
X033797Y024114D01*
X033797Y024167D01*
X033743Y024220D01*
X033637Y024220D01*
X033583Y024167D01*
X016565Y028480D02*
X016379Y028480D01*
X016379Y028200D01*
X016271Y028200D02*
X016271Y028387D01*
X016379Y028340D02*
X016472Y028340D01*
X016271Y028200D02*
X016131Y028200D01*
X016084Y028247D01*
X016084Y028387D01*
X015976Y028434D02*
X015789Y028247D01*
X015836Y028200D01*
X015929Y028200D01*
X015976Y028247D01*
X015976Y028434D01*
X015929Y028480D01*
X015836Y028480D01*
X015789Y028434D01*
X015789Y028247D01*
X015681Y028247D02*
X015635Y028200D01*
X015541Y028200D01*
X015495Y028247D01*
X015681Y028434D01*
X015681Y028247D01*
X015495Y028247D02*
X015495Y028434D01*
X015541Y028480D01*
X015635Y028480D01*
X015681Y028434D01*
X015681Y028700D02*
X015495Y028700D01*
X015588Y028700D02*
X015588Y028980D01*
X015495Y028887D01*
X015387Y028934D02*
X015340Y028980D01*
X015247Y028980D01*
X015200Y028934D01*
X015200Y028747D01*
X015247Y028700D01*
X015340Y028700D01*
X015387Y028747D01*
X015293Y028480D02*
X015200Y028387D01*
X015293Y028480D02*
X015293Y028200D01*
X015200Y028200D02*
X015387Y028200D01*
X015637Y024220D02*
X015743Y024220D01*
X015797Y024167D01*
X015797Y024114D01*
X015743Y024060D01*
X015797Y024007D01*
X015797Y023953D01*
X015743Y023900D01*
X015637Y023900D01*
X015583Y023953D01*
X015690Y024060D02*
X015743Y024060D01*
X015637Y024220D02*
X015583Y024167D01*
X014802Y024167D02*
X014749Y024220D01*
X014642Y024220D01*
X014589Y024167D01*
X014802Y024167D02*
X014802Y024114D01*
X014589Y023900D01*
X014802Y023900D01*
X013808Y023900D02*
X013594Y023900D01*
X013701Y023900D02*
X013701Y024220D01*
X013594Y024114D01*
X013145Y024167D02*
X013092Y024220D01*
X012985Y024220D01*
X012931Y024167D01*
X012931Y024114D01*
X012985Y024060D01*
X013092Y024060D01*
X013145Y024007D01*
X013145Y023953D01*
X013092Y023900D01*
X012985Y023900D01*
X012931Y023953D01*
X012814Y023900D02*
X012814Y024220D01*
X012707Y024114D01*
X012600Y024220D01*
X012600Y023900D01*
X009654Y026767D02*
X009654Y027593D01*
X007706Y027593D02*
X007706Y026767D01*
X007698Y032082D02*
X007698Y032363D01*
X007605Y032269D01*
X007497Y032316D02*
X007450Y032363D01*
X007310Y032363D01*
X007310Y032082D01*
X007450Y032082D01*
X007497Y032129D01*
X007497Y032316D01*
X007605Y032082D02*
X007792Y032082D01*
X007899Y032129D02*
X007946Y032082D01*
X008040Y032082D01*
X008086Y032129D01*
X008086Y032176D01*
X008040Y032222D01*
X007993Y032222D01*
X008040Y032222D02*
X008086Y032269D01*
X008086Y032316D01*
X008040Y032363D01*
X007946Y032363D01*
X007899Y032316D01*
X030629Y006474D02*
X030936Y006474D01*
X030936Y006397D01*
X030629Y006090D01*
X030629Y006013D01*
X031089Y006244D02*
X031319Y006474D01*
X031319Y006013D01*
X031396Y006244D02*
X031089Y006244D01*
X031550Y006244D02*
X031703Y006320D01*
X031780Y006320D01*
X031857Y006244D01*
X031857Y006090D01*
X031780Y006013D01*
X031626Y006013D01*
X031550Y006090D01*
X031550Y006244D02*
X031550Y006474D01*
X031857Y006474D01*
X032010Y006244D02*
X032317Y006244D01*
X032470Y006320D02*
X032624Y006474D01*
X032624Y006013D01*
X032777Y006013D02*
X032470Y006013D01*
X032240Y006013D02*
X032240Y006474D01*
X032010Y006244D01*
X032931Y006167D02*
X033161Y006167D01*
X033238Y006244D01*
X033238Y006397D01*
X033161Y006474D01*
X032931Y006474D01*
X032931Y006013D01*
X033391Y006013D02*
X033391Y006474D01*
X033698Y006474D02*
X033698Y006013D01*
X033545Y006167D01*
X033391Y006013D01*
D14*
X027780Y012540D02*
X027340Y012834D01*
X027780Y013127D01*
X027340Y013421D02*
X027340Y012540D01*
X027006Y012540D02*
X027006Y013127D01*
X026419Y013127D02*
X026419Y012687D01*
X026566Y012540D01*
X027006Y012540D01*
X026106Y012540D02*
X025959Y012540D01*
X025959Y012687D01*
X026106Y012687D01*
X026106Y012540D01*
X025625Y012687D02*
X025625Y012980D01*
X025478Y013127D01*
X025185Y013127D01*
X025038Y012980D01*
X025038Y012687D01*
X025185Y012540D01*
X025478Y012540D01*
X025625Y012687D01*
X024704Y012540D02*
X024264Y012540D01*
X024117Y012687D01*
X024117Y012980D01*
X024264Y013127D01*
X024704Y013127D01*
X023804Y012687D02*
X023804Y012540D01*
X023657Y012540D01*
X023657Y012687D01*
X023804Y012687D01*
X023323Y012540D02*
X023323Y012980D01*
X023176Y013127D01*
X022883Y013127D01*
X022736Y012980D01*
X022402Y012980D02*
X022402Y012687D01*
X022256Y012540D01*
X021815Y012540D01*
X021815Y012246D02*
X021815Y013127D01*
X022256Y013127D01*
X022402Y012980D01*
X022736Y012540D02*
X022736Y013421D01*
X022883Y014040D02*
X022736Y014187D01*
X022736Y014480D01*
X022883Y014627D01*
X023323Y014627D01*
X023657Y014480D02*
X023804Y014627D01*
X024097Y014627D01*
X024244Y014480D01*
X024244Y014334D01*
X023657Y014334D01*
X023657Y014480D02*
X023657Y014187D01*
X023804Y014040D01*
X024097Y014040D01*
X023323Y014040D02*
X022883Y014040D01*
X022409Y014627D02*
X022262Y014627D01*
X021969Y014334D01*
X021969Y014627D02*
X021969Y014040D01*
X021635Y014040D02*
X021635Y014627D01*
X021635Y014040D02*
X021195Y014040D01*
X021048Y014187D01*
X021048Y014627D01*
X020714Y014480D02*
X020714Y014187D01*
X020567Y014040D01*
X020274Y014040D01*
X020127Y014187D01*
X020127Y014480D01*
X020274Y014627D01*
X020567Y014627D01*
X020714Y014480D01*
X019793Y014627D02*
X019353Y014627D01*
X019206Y014480D01*
X019353Y014334D01*
X019647Y014334D01*
X019793Y014187D01*
X019647Y014040D01*
X019206Y014040D01*
X019353Y013127D02*
X019206Y012980D01*
X019206Y012687D01*
X019353Y012540D01*
X019793Y012540D01*
X019793Y012393D02*
X019793Y013127D01*
X019353Y013127D01*
X018879Y013127D02*
X018733Y013127D01*
X018439Y012834D01*
X018439Y013127D02*
X018439Y012540D01*
X018105Y012540D02*
X017665Y012540D01*
X017518Y012687D01*
X017665Y012834D01*
X018105Y012834D01*
X018105Y012980D02*
X018105Y012540D01*
X018432Y011921D02*
X018726Y011921D01*
X018873Y011774D01*
X018873Y011627D01*
X018726Y011480D01*
X018873Y011334D01*
X018873Y011187D01*
X018726Y011040D01*
X018432Y011040D01*
X018286Y011187D01*
X017972Y011187D02*
X017972Y011040D01*
X017825Y011040D01*
X017825Y011187D01*
X017972Y011187D01*
X018286Y011774D02*
X018432Y011921D01*
X018579Y011480D02*
X018726Y011480D01*
X019206Y011187D02*
X019353Y011040D01*
X019647Y011040D01*
X019793Y011187D01*
X019793Y011774D01*
X019206Y011187D01*
X019206Y011774D01*
X019353Y011921D01*
X019647Y011921D01*
X019793Y011774D01*
X019647Y012246D02*
X019793Y012393D01*
X019647Y012246D02*
X019500Y012246D01*
X020127Y012540D02*
X020127Y013127D01*
X020127Y012834D02*
X020421Y013127D01*
X020567Y013127D01*
X021041Y013127D02*
X021335Y013127D01*
X021482Y012980D01*
X021482Y012540D01*
X021041Y012540D01*
X020894Y012687D01*
X021041Y012834D01*
X021482Y012834D01*
X022109Y015540D02*
X022402Y016127D01*
X022736Y016274D02*
X022883Y016421D01*
X023176Y016421D01*
X023323Y016274D01*
X023323Y016127D01*
X022736Y015540D01*
X023323Y015540D01*
X023657Y015540D02*
X023804Y015540D01*
X023804Y015687D01*
X023657Y015687D01*
X023657Y015540D01*
X024117Y015687D02*
X024704Y016274D01*
X024704Y015687D01*
X024558Y015540D01*
X024264Y015540D01*
X024117Y015687D01*
X024117Y016274D01*
X024264Y016421D01*
X024558Y016421D01*
X024704Y016274D01*
X025038Y015980D02*
X025185Y016127D01*
X025625Y016127D01*
X025625Y016421D02*
X025625Y015540D01*
X025185Y015540D01*
X025038Y015687D01*
X025038Y015980D01*
X025645Y014627D02*
X025939Y014627D01*
X026085Y014480D01*
X026085Y014040D01*
X025645Y014040D01*
X025498Y014187D01*
X025645Y014334D01*
X026085Y014334D01*
X026419Y014334D02*
X026713Y014627D01*
X026859Y014627D01*
X027186Y014627D02*
X027480Y014627D01*
X027333Y014774D02*
X027333Y014187D01*
X027480Y014040D01*
X026419Y014040D02*
X026419Y014627D01*
X028721Y014627D02*
X028721Y013746D01*
X028721Y014040D02*
X029161Y014040D01*
X029308Y014187D01*
X029308Y014480D01*
X029161Y014627D01*
X028721Y014627D01*
X029642Y014627D02*
X029642Y014040D01*
X029642Y014334D02*
X029935Y014627D01*
X030082Y014627D01*
X030409Y014480D02*
X030409Y014187D01*
X030556Y014040D01*
X030850Y014040D01*
X030996Y014187D01*
X030996Y014480D01*
X030850Y014627D01*
X030556Y014627D01*
X030409Y014480D01*
X031330Y013746D02*
X031477Y013746D01*
X031624Y013893D01*
X031624Y014627D01*
X031624Y014921D02*
X031624Y015068D01*
X032091Y014627D02*
X032384Y014627D01*
X032531Y014480D01*
X032531Y014334D01*
X031944Y014334D01*
X031944Y014480D02*
X032091Y014627D01*
X031944Y014480D02*
X031944Y014187D01*
X032091Y014040D01*
X032384Y014040D01*
X032865Y014187D02*
X032865Y014480D01*
X033011Y014627D01*
X033452Y014627D01*
X033785Y014627D02*
X034079Y014627D01*
X033932Y014774D02*
X033932Y014187D01*
X034079Y014040D01*
X034399Y014040D02*
X034546Y014040D01*
X034546Y014187D01*
X034399Y014187D01*
X034399Y014040D01*
X033452Y014040D02*
X033011Y014040D01*
X032865Y014187D01*
X022109Y015540D02*
X021815Y016127D01*
X020561Y016127D02*
X020120Y016127D01*
X019974Y015980D01*
X019974Y015687D01*
X020120Y015540D01*
X020561Y015540D01*
X020561Y016421D01*
X019507Y016421D02*
X019507Y015540D01*
X019653Y015540D02*
X019360Y015540D01*
X019026Y015834D02*
X018439Y015834D01*
X018439Y015980D02*
X018586Y016127D01*
X018879Y016127D01*
X019026Y015980D01*
X019026Y015834D01*
X018879Y015540D02*
X018586Y015540D01*
X018439Y015687D01*
X018439Y015980D01*
X017972Y016127D02*
X017972Y015540D01*
X017825Y015540D02*
X018119Y015540D01*
X017491Y015540D02*
X017491Y015980D01*
X017345Y016127D01*
X017051Y016127D01*
X016904Y015980D01*
X016571Y016127D02*
X016130Y016127D01*
X015984Y015980D01*
X016130Y015834D01*
X016424Y015834D01*
X016571Y015687D01*
X016424Y015540D01*
X015984Y015540D01*
X015657Y016127D02*
X015510Y016127D01*
X015216Y015834D01*
X015216Y016127D02*
X015216Y015540D01*
X014883Y015540D02*
X014442Y015540D01*
X014295Y015687D01*
X014442Y015834D01*
X014883Y015834D01*
X014883Y015980D02*
X014883Y015540D01*
X014883Y015980D02*
X014736Y016127D01*
X014442Y016127D01*
X013828Y016421D02*
X013828Y015540D01*
X013682Y015540D02*
X013975Y015540D01*
X013348Y015687D02*
X013348Y015980D01*
X013201Y016127D01*
X012908Y016127D01*
X012761Y015980D01*
X012761Y015687D01*
X012908Y015540D01*
X013201Y015540D01*
X013348Y015687D01*
X013682Y016421D02*
X013828Y016421D01*
X012427Y016274D02*
X012427Y015980D01*
X012280Y015834D01*
X011840Y015834D01*
X011840Y015540D02*
X011840Y016421D01*
X012280Y016421D01*
X012427Y016274D01*
X012134Y014921D02*
X012427Y014627D01*
X012427Y014040D01*
X012761Y014040D02*
X012761Y014627D01*
X013201Y014627D01*
X013348Y014480D01*
X013348Y014040D01*
X012427Y014480D02*
X011840Y014480D01*
X011840Y014627D02*
X012134Y014921D01*
X011840Y014627D02*
X011840Y014040D01*
X011840Y013127D02*
X011840Y012687D01*
X011987Y012540D01*
X012134Y012687D01*
X012280Y012540D01*
X012427Y012687D01*
X012427Y013127D01*
X012761Y013127D02*
X012761Y012687D01*
X012908Y012540D01*
X013054Y012687D01*
X013201Y012540D01*
X013348Y012687D01*
X013348Y013127D01*
X013682Y013127D02*
X013682Y012687D01*
X013828Y012540D01*
X013975Y012687D01*
X014122Y012540D01*
X014269Y012687D01*
X014269Y013127D01*
X014602Y012687D02*
X014749Y012687D01*
X014749Y012540D01*
X014602Y012540D01*
X014602Y012687D01*
X015063Y012540D02*
X015503Y012540D01*
X015650Y012687D01*
X015650Y012980D01*
X015503Y013127D01*
X015063Y013127D01*
X015063Y012246D01*
X015043Y011921D02*
X014602Y011480D01*
X015190Y011480D01*
X015523Y011187D02*
X015523Y011040D01*
X015670Y011040D01*
X015670Y011187D01*
X015523Y011187D01*
X015984Y011187D02*
X015984Y011774D01*
X016130Y011921D01*
X016424Y011921D01*
X016571Y011774D01*
X015984Y011187D01*
X016130Y011040D01*
X016424Y011040D01*
X016571Y011187D01*
X016571Y011774D01*
X016904Y011921D02*
X017491Y011921D01*
X017491Y011774D01*
X016904Y011187D01*
X016904Y011040D01*
X016904Y012540D02*
X017198Y012540D01*
X017051Y012540D02*
X017051Y013421D01*
X016904Y013421D01*
X016571Y012980D02*
X016424Y013127D01*
X016130Y013127D01*
X015984Y012980D01*
X015984Y012687D01*
X016130Y012540D01*
X016424Y012540D01*
X016571Y012687D01*
X016571Y012980D01*
X017665Y013127D02*
X017959Y013127D01*
X018105Y012980D01*
X017952Y014040D02*
X017952Y014480D01*
X017805Y014627D01*
X017365Y014627D01*
X017365Y014040D01*
X017031Y014334D02*
X016444Y014334D01*
X016444Y014480D02*
X016591Y014627D01*
X016884Y014627D01*
X017031Y014480D01*
X017031Y014334D01*
X016884Y014040D02*
X016591Y014040D01*
X016444Y014187D01*
X016444Y014480D01*
X016110Y014480D02*
X016110Y014187D01*
X015964Y014040D01*
X015523Y014040D01*
X015523Y013746D02*
X015523Y014627D01*
X015964Y014627D01*
X016110Y014480D01*
X015190Y014480D02*
X015190Y014187D01*
X015043Y014040D01*
X014749Y014040D01*
X014602Y014187D01*
X014602Y014480D01*
X014749Y014627D01*
X015043Y014627D01*
X015190Y014480D01*
X016904Y015540D02*
X016904Y016421D01*
X017825Y016127D02*
X017972Y016127D01*
X017972Y016421D02*
X017972Y016568D01*
X019360Y016421D02*
X019507Y016421D01*
X015043Y011921D02*
X015043Y011040D01*
X014269Y011040D02*
X013682Y011040D01*
X013975Y011040D02*
X013975Y011921D01*
X013682Y011627D01*
X013348Y011774D02*
X013348Y011187D01*
X013201Y011040D01*
X012908Y011040D01*
X012761Y011187D01*
X013348Y011774D01*
X013201Y011921D01*
X012908Y011921D01*
X012761Y011774D01*
X012761Y011187D01*
X012427Y011040D02*
X011840Y011040D01*
X012427Y011627D01*
X012427Y011774D01*
X012280Y011921D01*
X011987Y011921D01*
X011840Y011774D01*
D15*
X009855Y008377D02*
X009855Y008077D01*
X009855Y008227D02*
X010305Y008227D01*
X010080Y007767D02*
X010080Y007617D01*
X010305Y007617D02*
X009855Y007617D01*
X009855Y007917D01*
X009855Y007456D02*
X009855Y007156D01*
X009855Y007306D02*
X010305Y007306D01*
X014680Y003180D02*
X020680Y003180D01*
X020680Y002180D01*
X014680Y002180D01*
X014680Y003180D01*
X021680Y003180D02*
X021680Y002180D01*
X029680Y002180D01*
X029680Y003180D01*
X021680Y003180D01*
X030680Y003180D02*
X030680Y002180D01*
X038680Y002180D01*
X038680Y003180D01*
X030680Y003180D01*
X036696Y002747D02*
X036696Y023613D01*
X007168Y023613D01*
X007168Y002747D01*
X036696Y002747D01*
X038680Y004180D02*
X040680Y004180D01*
X040680Y022180D01*
X038680Y022180D01*
X038680Y004180D01*
X036680Y021180D02*
X028680Y021180D01*
X028680Y022180D01*
X036680Y022180D01*
X036680Y021180D01*
X027680Y021180D02*
X019680Y021180D01*
X019680Y022180D01*
X027680Y022180D01*
X027680Y021180D01*
X019180Y021180D02*
X011180Y021180D01*
X011180Y022180D01*
X019180Y022180D01*
X019180Y021180D01*
X012545Y029455D02*
X012245Y029455D01*
X012395Y029455D02*
X012395Y029905D01*
X012245Y029755D01*
X012245Y030455D02*
X012545Y030455D01*
X012395Y030455D02*
X012395Y030905D01*
X012245Y030755D01*
X006696Y028912D02*
X006696Y025369D01*
X000948Y025369D01*
X000948Y028912D01*
X006696Y028912D01*
X005019Y026019D02*
X005019Y023263D01*
X002814Y023263D01*
X002814Y026019D01*
X002263Y026019D01*
X002263Y023263D01*
X002814Y023263D01*
X002814Y026019D02*
X005019Y026019D01*
X004656Y032348D02*
X004356Y032348D01*
X004656Y032648D01*
X004656Y032723D01*
X004581Y032798D01*
X004431Y032798D01*
X004356Y032723D01*
X004196Y032723D02*
X004121Y032798D01*
X003971Y032798D01*
X003896Y032723D01*
X003896Y032648D01*
X003971Y032573D01*
X004121Y032573D01*
X004196Y032498D01*
X004196Y032423D01*
X004121Y032348D01*
X003971Y032348D01*
X003896Y032423D01*
D16*
X007621Y031916D03*
X007621Y031444D03*
X007739Y030916D03*
X007739Y030444D03*
X007739Y029916D03*
X007739Y029444D03*
X007621Y028916D03*
X007621Y028444D03*
X013121Y002916D03*
X013121Y002444D03*
D17*
X013121Y002680D03*
X007621Y028680D03*
X007739Y029680D03*
X007739Y030680D03*
X007621Y031680D03*
X019180Y032121D03*
X028180Y032121D03*
X037180Y032121D03*
D18*
X036180Y031930D02*
X036180Y031430D01*
X035930Y031180D01*
X035430Y031180D01*
X035180Y031430D01*
X034930Y031180D01*
X034430Y031180D01*
X034180Y031430D01*
X033930Y031180D01*
X033430Y031180D01*
X033180Y031430D01*
X032930Y031180D01*
X032430Y031180D01*
X032180Y031430D01*
X032180Y031930D01*
X032430Y032180D01*
X032930Y032180D01*
X033180Y031930D01*
X033430Y032180D01*
X033930Y032180D01*
X034180Y031930D01*
X034430Y032180D01*
X034930Y032180D01*
X035180Y031930D01*
X035430Y032180D01*
X035930Y032180D01*
X036180Y031930D01*
X037219Y030719D02*
X037219Y028278D01*
X031274Y028278D01*
X031274Y030719D01*
X037219Y030719D01*
X037219Y028278D02*
X037219Y027963D01*
X031274Y027963D01*
X031274Y028278D01*
X031381Y028113D02*
X031381Y028625D01*
X031735Y028979D01*
X033979Y028979D01*
X033979Y028113D01*
X033979Y027247D02*
X033979Y026381D01*
X031735Y026381D01*
X031381Y026735D01*
X031381Y027247D01*
X031519Y028054D02*
X031542Y028119D01*
X031568Y028182D01*
X031598Y028243D01*
X031632Y028303D01*
X031668Y028361D01*
X031708Y028417D01*
X031751Y028470D01*
X031797Y028521D01*
X031846Y028569D01*
X031897Y028614D01*
X031951Y028657D01*
X032007Y028696D01*
X032065Y028732D01*
X032126Y028765D01*
X032188Y028794D01*
X032251Y028820D01*
X032316Y028842D01*
X032382Y028861D01*
X032449Y028875D01*
X032516Y028886D01*
X032585Y028893D01*
X032653Y028897D01*
X032722Y028896D01*
X032790Y028892D01*
X032858Y028883D01*
X032925Y028871D01*
X032992Y028856D01*
X033058Y028836D01*
X033122Y028813D01*
X033185Y028786D01*
X033247Y028755D01*
X033306Y028722D01*
X033364Y028685D01*
X033419Y028644D01*
X033472Y028601D01*
X033523Y028555D01*
X033571Y028506D01*
X033616Y028454D01*
X033658Y028400D01*
X033697Y028344D01*
X033733Y028285D01*
X033765Y028225D01*
X033794Y028163D01*
X033820Y028099D01*
X033841Y028034D01*
X033841Y027306D02*
X033818Y027241D01*
X033792Y027178D01*
X033762Y027117D01*
X033728Y027057D01*
X033692Y026999D01*
X033652Y026943D01*
X033609Y026890D01*
X033563Y026839D01*
X033514Y026791D01*
X033463Y026746D01*
X033409Y026703D01*
X033353Y026664D01*
X033295Y026628D01*
X033234Y026595D01*
X033172Y026566D01*
X033109Y026540D01*
X033044Y026518D01*
X032978Y026499D01*
X032911Y026485D01*
X032844Y026474D01*
X032775Y026467D01*
X032707Y026463D01*
X032638Y026464D01*
X032570Y026468D01*
X032502Y026477D01*
X032435Y026489D01*
X032368Y026504D01*
X032302Y026524D01*
X032238Y026547D01*
X032175Y026574D01*
X032113Y026605D01*
X032054Y026638D01*
X031996Y026675D01*
X031941Y026716D01*
X031888Y026759D01*
X031837Y026805D01*
X031789Y026854D01*
X031744Y026906D01*
X031702Y026960D01*
X031663Y027016D01*
X031627Y027075D01*
X031595Y027135D01*
X031566Y027197D01*
X031540Y027261D01*
X031519Y027326D01*
X031380Y025105D02*
X031363Y025103D01*
X031346Y025099D01*
X031330Y025092D01*
X031316Y025082D01*
X031303Y025069D01*
X031293Y025055D01*
X031286Y025039D01*
X031282Y025022D01*
X031280Y025005D01*
X031280Y024355D01*
X031282Y024338D01*
X031286Y024321D01*
X031293Y024305D01*
X031303Y024291D01*
X031316Y024278D01*
X031330Y024268D01*
X031346Y024261D01*
X031363Y024257D01*
X031380Y024255D01*
X031980Y024255D02*
X031997Y024257D01*
X032014Y024261D01*
X032030Y024268D01*
X032044Y024278D01*
X032057Y024291D01*
X032067Y024305D01*
X032074Y024321D01*
X032078Y024338D01*
X032080Y024355D01*
X032080Y025005D01*
X032078Y025022D01*
X032074Y025039D01*
X032067Y025055D01*
X032057Y025069D01*
X032044Y025082D01*
X032030Y025092D01*
X032014Y025099D01*
X031997Y025103D01*
X031980Y025105D01*
X032280Y025005D02*
X032280Y024355D01*
X032282Y024338D01*
X032286Y024321D01*
X032293Y024305D01*
X032303Y024291D01*
X032316Y024278D01*
X032330Y024268D01*
X032346Y024261D01*
X032363Y024257D01*
X032380Y024255D01*
X032980Y024255D02*
X032997Y024257D01*
X033014Y024261D01*
X033030Y024268D01*
X033044Y024278D01*
X033057Y024291D01*
X033067Y024305D01*
X033074Y024321D01*
X033078Y024338D01*
X033080Y024355D01*
X033080Y025005D01*
X033078Y025022D01*
X033074Y025039D01*
X033067Y025055D01*
X033057Y025069D01*
X033044Y025082D01*
X033030Y025092D01*
X033014Y025099D01*
X032997Y025103D01*
X032980Y025105D01*
X033286Y024995D02*
X033286Y024365D01*
X033287Y024365D02*
X033293Y024347D01*
X033302Y024329D01*
X033314Y024314D01*
X033330Y024302D01*
X033347Y024293D01*
X033366Y024287D01*
X033385Y024285D01*
X033405Y024287D01*
X033955Y024287D02*
X033973Y024285D01*
X033990Y024286D01*
X034007Y024290D01*
X034023Y024297D01*
X034038Y024307D01*
X034050Y024319D01*
X034060Y024333D01*
X034068Y024349D01*
X034073Y024365D01*
X034074Y024365D02*
X034074Y024995D01*
X034073Y024995D02*
X034068Y025011D01*
X034060Y025027D01*
X034050Y025041D01*
X034038Y025053D01*
X034023Y025063D01*
X034007Y025070D01*
X033990Y025074D01*
X033973Y025075D01*
X033955Y025073D01*
X033405Y025073D02*
X033385Y025075D01*
X033366Y025073D01*
X033347Y025067D01*
X033330Y025058D01*
X033314Y025046D01*
X033302Y025031D01*
X033293Y025013D01*
X033287Y024995D01*
X032380Y025105D02*
X032363Y025103D01*
X032346Y025099D01*
X032330Y025092D01*
X032316Y025082D01*
X032303Y025069D01*
X032293Y025055D01*
X032286Y025039D01*
X032282Y025022D01*
X032280Y025005D01*
X028219Y027963D02*
X028219Y028278D01*
X022274Y028278D01*
X022274Y030719D01*
X028219Y030719D01*
X028219Y028278D01*
X028219Y027963D02*
X022274Y027963D01*
X022274Y028278D01*
X023881Y028113D02*
X023881Y028625D01*
X024235Y028979D01*
X026479Y028979D01*
X026479Y028113D01*
X026479Y027247D02*
X026479Y026381D01*
X024235Y026381D01*
X023881Y026735D01*
X023881Y027247D01*
X024019Y028054D02*
X024042Y028119D01*
X024068Y028182D01*
X024098Y028243D01*
X024132Y028303D01*
X024168Y028361D01*
X024208Y028417D01*
X024251Y028470D01*
X024297Y028521D01*
X024346Y028569D01*
X024397Y028614D01*
X024451Y028657D01*
X024507Y028696D01*
X024565Y028732D01*
X024626Y028765D01*
X024688Y028794D01*
X024751Y028820D01*
X024816Y028842D01*
X024882Y028861D01*
X024949Y028875D01*
X025016Y028886D01*
X025085Y028893D01*
X025153Y028897D01*
X025222Y028896D01*
X025290Y028892D01*
X025358Y028883D01*
X025425Y028871D01*
X025492Y028856D01*
X025558Y028836D01*
X025622Y028813D01*
X025685Y028786D01*
X025747Y028755D01*
X025806Y028722D01*
X025864Y028685D01*
X025919Y028644D01*
X025972Y028601D01*
X026023Y028555D01*
X026071Y028506D01*
X026116Y028454D01*
X026158Y028400D01*
X026197Y028344D01*
X026233Y028285D01*
X026265Y028225D01*
X026294Y028163D01*
X026320Y028099D01*
X026341Y028034D01*
X026341Y027306D02*
X026318Y027241D01*
X026292Y027178D01*
X026262Y027117D01*
X026228Y027057D01*
X026192Y026999D01*
X026152Y026943D01*
X026109Y026890D01*
X026063Y026839D01*
X026014Y026791D01*
X025963Y026746D01*
X025909Y026703D01*
X025853Y026664D01*
X025795Y026628D01*
X025734Y026595D01*
X025672Y026566D01*
X025609Y026540D01*
X025544Y026518D01*
X025478Y026499D01*
X025411Y026485D01*
X025344Y026474D01*
X025275Y026467D01*
X025207Y026463D01*
X025138Y026464D01*
X025070Y026468D01*
X025002Y026477D01*
X024935Y026489D01*
X024868Y026504D01*
X024802Y026524D01*
X024738Y026547D01*
X024675Y026574D01*
X024613Y026605D01*
X024554Y026638D01*
X024496Y026675D01*
X024441Y026716D01*
X024388Y026759D01*
X024337Y026805D01*
X024289Y026854D01*
X024244Y026906D01*
X024202Y026960D01*
X024163Y027016D01*
X024127Y027075D01*
X024095Y027135D01*
X024066Y027197D01*
X024040Y027261D01*
X024019Y027326D01*
X023980Y025105D02*
X023997Y025103D01*
X024014Y025099D01*
X024030Y025092D01*
X024044Y025082D01*
X024057Y025069D01*
X024067Y025055D01*
X024074Y025039D01*
X024078Y025022D01*
X024080Y025005D01*
X024080Y024355D01*
X024078Y024338D01*
X024074Y024321D01*
X024067Y024305D01*
X024057Y024291D01*
X024044Y024278D01*
X024030Y024268D01*
X024014Y024261D01*
X023997Y024257D01*
X023980Y024255D01*
X024286Y024365D02*
X024286Y024995D01*
X024287Y024995D02*
X024293Y025013D01*
X024302Y025031D01*
X024314Y025046D01*
X024330Y025058D01*
X024347Y025067D01*
X024366Y025073D01*
X024385Y025075D01*
X024405Y025073D01*
X024955Y025073D02*
X024973Y025075D01*
X024990Y025074D01*
X025007Y025070D01*
X025023Y025063D01*
X025038Y025053D01*
X025050Y025041D01*
X025060Y025027D01*
X025068Y025011D01*
X025073Y024995D01*
X025074Y024995D02*
X025074Y024365D01*
X025073Y024365D02*
X025068Y024349D01*
X025060Y024333D01*
X025050Y024319D01*
X025038Y024307D01*
X025023Y024297D01*
X025007Y024290D01*
X024990Y024286D01*
X024973Y024285D01*
X024955Y024287D01*
X024405Y024287D02*
X024385Y024285D01*
X024366Y024287D01*
X024347Y024293D01*
X024330Y024302D01*
X024314Y024314D01*
X024302Y024329D01*
X024293Y024347D01*
X024287Y024365D01*
X023380Y024255D02*
X023363Y024257D01*
X023346Y024261D01*
X023330Y024268D01*
X023316Y024278D01*
X023303Y024291D01*
X023293Y024305D01*
X023286Y024321D01*
X023282Y024338D01*
X023280Y024355D01*
X023280Y025005D01*
X023282Y025022D01*
X023286Y025039D01*
X023293Y025055D01*
X023303Y025069D01*
X023316Y025082D01*
X023330Y025092D01*
X023346Y025099D01*
X023363Y025103D01*
X023380Y025105D01*
X023080Y025005D02*
X023080Y024355D01*
X023078Y024338D01*
X023074Y024321D01*
X023067Y024305D01*
X023057Y024291D01*
X023044Y024278D01*
X023030Y024268D01*
X023014Y024261D01*
X022997Y024257D01*
X022980Y024255D01*
X022380Y024255D02*
X022363Y024257D01*
X022346Y024261D01*
X022330Y024268D01*
X022316Y024278D01*
X022303Y024291D01*
X022293Y024305D01*
X022286Y024321D01*
X022282Y024338D01*
X022280Y024355D01*
X022280Y025005D01*
X022282Y025022D01*
X022286Y025039D01*
X022293Y025055D01*
X022303Y025069D01*
X022316Y025082D01*
X022330Y025092D01*
X022346Y025099D01*
X022363Y025103D01*
X022380Y025105D01*
X022980Y025105D02*
X022997Y025103D01*
X023014Y025099D01*
X023030Y025092D01*
X023044Y025082D01*
X023057Y025069D01*
X023067Y025055D01*
X023074Y025039D01*
X023078Y025022D01*
X023080Y025005D01*
X019219Y027963D02*
X013274Y027963D01*
X013274Y028278D01*
X019219Y028278D01*
X019219Y027963D01*
X019219Y028278D02*
X019219Y030719D01*
X013274Y030719D01*
X013274Y028278D01*
X012519Y028054D02*
X012542Y028119D01*
X012568Y028182D01*
X012598Y028243D01*
X012632Y028303D01*
X012668Y028361D01*
X012708Y028417D01*
X012751Y028470D01*
X012797Y028521D01*
X012846Y028569D01*
X012897Y028614D01*
X012951Y028657D01*
X013007Y028696D01*
X013065Y028732D01*
X013126Y028765D01*
X013188Y028794D01*
X013251Y028820D01*
X013316Y028842D01*
X013382Y028861D01*
X013449Y028875D01*
X013516Y028886D01*
X013585Y028893D01*
X013653Y028897D01*
X013722Y028896D01*
X013790Y028892D01*
X013858Y028883D01*
X013925Y028871D01*
X013992Y028856D01*
X014058Y028836D01*
X014122Y028813D01*
X014185Y028786D01*
X014247Y028755D01*
X014306Y028722D01*
X014364Y028685D01*
X014419Y028644D01*
X014472Y028601D01*
X014523Y028555D01*
X014571Y028506D01*
X014616Y028454D01*
X014658Y028400D01*
X014697Y028344D01*
X014733Y028285D01*
X014765Y028225D01*
X014794Y028163D01*
X014820Y028099D01*
X014841Y028034D01*
X014979Y028113D02*
X014979Y028979D01*
X012735Y028979D01*
X012381Y028625D01*
X012381Y028113D01*
X012381Y027247D02*
X012381Y026735D01*
X012735Y026381D01*
X014979Y026381D01*
X014979Y027247D01*
X014841Y027306D02*
X014818Y027241D01*
X014792Y027178D01*
X014762Y027117D01*
X014728Y027057D01*
X014692Y026999D01*
X014652Y026943D01*
X014609Y026890D01*
X014563Y026839D01*
X014514Y026791D01*
X014463Y026746D01*
X014409Y026703D01*
X014353Y026664D01*
X014295Y026628D01*
X014234Y026595D01*
X014172Y026566D01*
X014109Y026540D01*
X014044Y026518D01*
X013978Y026499D01*
X013911Y026485D01*
X013844Y026474D01*
X013775Y026467D01*
X013707Y026463D01*
X013638Y026464D01*
X013570Y026468D01*
X013502Y026477D01*
X013435Y026489D01*
X013368Y026504D01*
X013302Y026524D01*
X013238Y026547D01*
X013175Y026574D01*
X013113Y026605D01*
X013054Y026638D01*
X012996Y026675D01*
X012941Y026716D01*
X012888Y026759D01*
X012837Y026805D01*
X012789Y026854D01*
X012744Y026906D01*
X012702Y026960D01*
X012663Y027016D01*
X012627Y027075D01*
X012595Y027135D01*
X012566Y027197D01*
X012540Y027261D01*
X012519Y027326D01*
X013280Y025005D02*
X013280Y024355D01*
X013282Y024338D01*
X013286Y024321D01*
X013293Y024305D01*
X013303Y024291D01*
X013316Y024278D01*
X013330Y024268D01*
X013346Y024261D01*
X013363Y024257D01*
X013380Y024255D01*
X013980Y024255D02*
X013997Y024257D01*
X014014Y024261D01*
X014030Y024268D01*
X014044Y024278D01*
X014057Y024291D01*
X014067Y024305D01*
X014074Y024321D01*
X014078Y024338D01*
X014080Y024355D01*
X014080Y025005D01*
X014078Y025022D01*
X014074Y025039D01*
X014067Y025055D01*
X014057Y025069D01*
X014044Y025082D01*
X014030Y025092D01*
X014014Y025099D01*
X013997Y025103D01*
X013980Y025105D01*
X014280Y025005D02*
X014280Y024355D01*
X014282Y024338D01*
X014286Y024321D01*
X014293Y024305D01*
X014303Y024291D01*
X014316Y024278D01*
X014330Y024268D01*
X014346Y024261D01*
X014363Y024257D01*
X014380Y024255D01*
X014980Y024255D02*
X014997Y024257D01*
X015014Y024261D01*
X015030Y024268D01*
X015044Y024278D01*
X015057Y024291D01*
X015067Y024305D01*
X015074Y024321D01*
X015078Y024338D01*
X015080Y024355D01*
X015080Y025005D01*
X015078Y025022D01*
X015074Y025039D01*
X015067Y025055D01*
X015057Y025069D01*
X015044Y025082D01*
X015030Y025092D01*
X015014Y025099D01*
X014997Y025103D01*
X014980Y025105D01*
X015286Y024995D02*
X015286Y024365D01*
X015287Y024365D02*
X015293Y024347D01*
X015302Y024329D01*
X015314Y024314D01*
X015330Y024302D01*
X015347Y024293D01*
X015366Y024287D01*
X015385Y024285D01*
X015405Y024287D01*
X015955Y024287D02*
X015973Y024285D01*
X015990Y024286D01*
X016007Y024290D01*
X016023Y024297D01*
X016038Y024307D01*
X016050Y024319D01*
X016060Y024333D01*
X016068Y024349D01*
X016073Y024365D01*
X016074Y024365D02*
X016074Y024995D01*
X016073Y024995D02*
X016068Y025011D01*
X016060Y025027D01*
X016050Y025041D01*
X016038Y025053D01*
X016023Y025063D01*
X016007Y025070D01*
X015990Y025074D01*
X015973Y025075D01*
X015955Y025073D01*
X015405Y025073D02*
X015385Y025075D01*
X015366Y025073D01*
X015347Y025067D01*
X015330Y025058D01*
X015314Y025046D01*
X015302Y025031D01*
X015293Y025013D01*
X015287Y024995D01*
X014380Y025105D02*
X014363Y025103D01*
X014346Y025099D01*
X014330Y025092D01*
X014316Y025082D01*
X014303Y025069D01*
X014293Y025055D01*
X014286Y025039D01*
X014282Y025022D01*
X014280Y025005D01*
X013380Y025105D02*
X013363Y025103D01*
X013346Y025099D01*
X013330Y025092D01*
X013316Y025082D01*
X013303Y025069D01*
X013293Y025055D01*
X013286Y025039D01*
X013282Y025022D01*
X013280Y025005D01*
X006385Y023097D02*
X006385Y021877D01*
X006385Y021011D02*
X006385Y019790D01*
X003432Y019790D01*
X003078Y020145D01*
X003078Y021011D01*
X003078Y021877D02*
X003078Y022743D01*
X003432Y023097D01*
X006385Y023097D01*
X006208Y021031D02*
X006184Y020957D01*
X006157Y020884D01*
X006126Y020812D01*
X006092Y020742D01*
X006054Y020674D01*
X006013Y020608D01*
X005969Y020544D01*
X005921Y020483D01*
X005870Y020424D01*
X005817Y020368D01*
X005760Y020314D01*
X005701Y020263D01*
X005640Y020216D01*
X005576Y020171D01*
X005510Y020130D01*
X005442Y020092D01*
X005372Y020058D01*
X005301Y020028D01*
X005228Y020000D01*
X005153Y019977D01*
X005078Y019958D01*
X005002Y019942D01*
X004925Y019930D01*
X004848Y019922D01*
X004770Y019918D01*
X004692Y019918D01*
X004614Y019922D01*
X004537Y019930D01*
X004460Y019942D01*
X004384Y019958D01*
X004309Y019977D01*
X004234Y020000D01*
X004161Y020028D01*
X004090Y020058D01*
X004020Y020092D01*
X003952Y020130D01*
X003886Y020171D01*
X003822Y020216D01*
X003761Y020263D01*
X003702Y020314D01*
X003645Y020368D01*
X003592Y020424D01*
X003541Y020483D01*
X003493Y020544D01*
X003449Y020608D01*
X003408Y020674D01*
X003370Y020742D01*
X003336Y020812D01*
X003305Y020884D01*
X003278Y020957D01*
X003254Y021031D01*
X003254Y021857D02*
X003278Y021931D01*
X003305Y022004D01*
X003336Y022076D01*
X003370Y022146D01*
X003408Y022214D01*
X003449Y022280D01*
X003493Y022344D01*
X003541Y022405D01*
X003592Y022464D01*
X003645Y022520D01*
X003702Y022574D01*
X003761Y022625D01*
X003822Y022672D01*
X003886Y022717D01*
X003952Y022758D01*
X004020Y022796D01*
X004090Y022830D01*
X004161Y022860D01*
X004234Y022888D01*
X004309Y022911D01*
X004384Y022930D01*
X004460Y022946D01*
X004537Y022958D01*
X004614Y022966D01*
X004692Y022970D01*
X004770Y022970D01*
X004848Y022966D01*
X004925Y022958D01*
X005002Y022946D01*
X005078Y022930D01*
X005153Y022911D01*
X005228Y022888D01*
X005301Y022860D01*
X005372Y022830D01*
X005442Y022796D01*
X005510Y022758D01*
X005576Y022717D01*
X005640Y022672D01*
X005701Y022625D01*
X005760Y022574D01*
X005817Y022520D01*
X005870Y022464D01*
X005921Y022405D01*
X005969Y022344D01*
X006013Y022280D01*
X006054Y022214D01*
X006092Y022146D01*
X006126Y022076D01*
X006157Y022004D01*
X006184Y021931D01*
X006208Y021857D01*
X004573Y029480D02*
X003780Y029480D01*
X002980Y029830D02*
X002980Y031530D01*
X003780Y031880D02*
X004585Y031880D01*
X005380Y031530D02*
X005380Y029830D01*
X003480Y030680D02*
X003482Y030732D01*
X003488Y030784D01*
X003498Y030836D01*
X003511Y030886D01*
X003528Y030936D01*
X003549Y030984D01*
X003574Y031030D01*
X003602Y031074D01*
X003633Y031116D01*
X003667Y031156D01*
X003704Y031193D01*
X003744Y031227D01*
X003786Y031258D01*
X003830Y031286D01*
X003876Y031311D01*
X003924Y031332D01*
X003974Y031349D01*
X004024Y031362D01*
X004076Y031372D01*
X004128Y031378D01*
X004180Y031380D01*
X004232Y031378D01*
X004284Y031372D01*
X004336Y031362D01*
X004386Y031349D01*
X004436Y031332D01*
X004484Y031311D01*
X004530Y031286D01*
X004574Y031258D01*
X004616Y031227D01*
X004656Y031193D01*
X004693Y031156D01*
X004727Y031116D01*
X004758Y031074D01*
X004786Y031030D01*
X004811Y030984D01*
X004832Y030936D01*
X004849Y030886D01*
X004862Y030836D01*
X004872Y030784D01*
X004878Y030732D01*
X004880Y030680D01*
X004878Y030628D01*
X004872Y030576D01*
X004862Y030524D01*
X004849Y030474D01*
X004832Y030424D01*
X004811Y030376D01*
X004786Y030330D01*
X004758Y030286D01*
X004727Y030244D01*
X004693Y030204D01*
X004656Y030167D01*
X004616Y030133D01*
X004574Y030102D01*
X004530Y030074D01*
X004484Y030049D01*
X004436Y030028D01*
X004386Y030011D01*
X004336Y029998D01*
X004284Y029988D01*
X004232Y029982D01*
X004180Y029980D01*
X004128Y029982D01*
X004076Y029988D01*
X004024Y029998D01*
X003974Y030011D01*
X003924Y030028D01*
X003876Y030049D01*
X003830Y030074D01*
X003786Y030102D01*
X003744Y030133D01*
X003704Y030167D01*
X003667Y030204D01*
X003633Y030244D01*
X003602Y030286D01*
X003574Y030330D01*
X003549Y030376D01*
X003528Y030424D01*
X003511Y030474D01*
X003498Y030524D01*
X003488Y030576D01*
X003482Y030628D01*
X003480Y030680D01*
X014180Y031430D02*
X014430Y031180D01*
X014930Y031180D01*
X015180Y031430D01*
X015430Y031180D01*
X015930Y031180D01*
X016180Y031430D01*
X016430Y031180D01*
X016930Y031180D01*
X017180Y031430D01*
X017430Y031180D01*
X017930Y031180D01*
X018180Y031430D01*
X018180Y031930D01*
X017930Y032180D01*
X017430Y032180D01*
X017180Y031930D01*
X016930Y032180D01*
X016430Y032180D01*
X016180Y031930D01*
X015930Y032180D01*
X015430Y032180D01*
X015180Y031930D01*
X014930Y032180D01*
X014430Y032180D01*
X014180Y031930D01*
X014180Y031430D01*
X023180Y031430D02*
X023430Y031180D01*
X023930Y031180D01*
X024180Y031430D01*
X024430Y031180D01*
X024930Y031180D01*
X025180Y031430D01*
X025430Y031180D01*
X025930Y031180D01*
X026180Y031430D01*
X026430Y031180D01*
X026930Y031180D01*
X027180Y031430D01*
X027180Y031930D01*
X026930Y032180D01*
X026430Y032180D01*
X026180Y031930D01*
X025930Y032180D01*
X025430Y032180D01*
X025180Y031930D01*
X024930Y032180D01*
X024430Y032180D01*
X024180Y031930D01*
X023930Y032180D01*
X023430Y032180D01*
X023180Y031930D01*
X023180Y031430D01*
X022526Y020395D02*
X020834Y020395D01*
X020834Y017715D01*
X022526Y017715D01*
X022526Y020395D01*
X031334Y013395D02*
X033026Y013395D01*
X033026Y010715D01*
X031334Y010715D01*
X031334Y013395D01*
X031334Y009395D02*
X033026Y009395D01*
X033026Y006715D01*
X031334Y006715D01*
X031334Y009395D01*
X022526Y007645D02*
X022526Y004965D01*
X020834Y004965D01*
X020834Y007645D01*
X022526Y007645D01*
X006334Y006479D02*
X006334Y005613D01*
X006334Y006479D02*
X005979Y006834D01*
X003026Y006834D01*
X003026Y005613D01*
X003026Y004747D02*
X003026Y003526D01*
X005979Y003526D01*
X006334Y003881D01*
X006334Y004747D01*
X006157Y005593D02*
X006133Y005667D01*
X006106Y005740D01*
X006075Y005812D01*
X006041Y005882D01*
X006003Y005950D01*
X005962Y006016D01*
X005918Y006080D01*
X005870Y006141D01*
X005819Y006200D01*
X005766Y006256D01*
X005709Y006310D01*
X005650Y006361D01*
X005589Y006408D01*
X005525Y006453D01*
X005459Y006494D01*
X005391Y006532D01*
X005321Y006566D01*
X005250Y006596D01*
X005177Y006624D01*
X005102Y006647D01*
X005027Y006666D01*
X004951Y006682D01*
X004874Y006694D01*
X004797Y006702D01*
X004719Y006706D01*
X004641Y006706D01*
X004563Y006702D01*
X004486Y006694D01*
X004409Y006682D01*
X004333Y006666D01*
X004258Y006647D01*
X004183Y006624D01*
X004110Y006596D01*
X004039Y006566D01*
X003969Y006532D01*
X003901Y006494D01*
X003835Y006453D01*
X003771Y006408D01*
X003710Y006361D01*
X003651Y006310D01*
X003594Y006256D01*
X003541Y006200D01*
X003490Y006141D01*
X003442Y006080D01*
X003398Y006016D01*
X003357Y005950D01*
X003319Y005882D01*
X003285Y005812D01*
X003254Y005740D01*
X003227Y005667D01*
X003203Y005593D01*
X003203Y004767D02*
X003227Y004693D01*
X003254Y004620D01*
X003285Y004548D01*
X003319Y004478D01*
X003357Y004410D01*
X003398Y004344D01*
X003442Y004280D01*
X003490Y004219D01*
X003541Y004160D01*
X003594Y004104D01*
X003651Y004050D01*
X003710Y003999D01*
X003771Y003952D01*
X003835Y003907D01*
X003901Y003866D01*
X003969Y003828D01*
X004039Y003794D01*
X004110Y003764D01*
X004183Y003736D01*
X004258Y003713D01*
X004333Y003694D01*
X004409Y003678D01*
X004486Y003666D01*
X004563Y003658D01*
X004641Y003654D01*
X004719Y003654D01*
X004797Y003658D01*
X004874Y003666D01*
X004951Y003678D01*
X005027Y003694D01*
X005102Y003713D01*
X005177Y003736D01*
X005250Y003764D01*
X005321Y003794D01*
X005391Y003828D01*
X005459Y003866D01*
X005525Y003907D01*
X005589Y003952D01*
X005650Y003999D01*
X005709Y004050D01*
X005766Y004104D01*
X005819Y004160D01*
X005870Y004219D01*
X005918Y004280D01*
X005962Y004344D01*
X006003Y004410D01*
X006041Y004478D01*
X006075Y004548D01*
X006106Y004620D01*
X006133Y004693D01*
X006157Y004767D01*
X006176Y007294D02*
X003302Y007294D01*
X003302Y008200D01*
X003302Y009263D02*
X003302Y010168D01*
X006176Y010168D01*
X006176Y009263D01*
X006176Y008200D02*
X006176Y007294D01*
D19*
X012700Y026190D02*
X012920Y026190D01*
X012920Y026337D01*
X012920Y026411D02*
X012700Y026411D01*
X012920Y026558D01*
X012700Y026558D01*
X012700Y026337D02*
X012700Y026190D01*
X012810Y026190D02*
X012810Y026263D01*
X013700Y026190D02*
X013773Y026263D01*
X013700Y026337D01*
X013920Y026337D01*
X013883Y026411D02*
X013920Y026448D01*
X013920Y026521D01*
X013883Y026558D01*
X013847Y026558D01*
X013810Y026521D01*
X013810Y026448D01*
X013773Y026411D01*
X013737Y026411D01*
X013700Y026448D01*
X013700Y026521D01*
X013737Y026558D01*
X013773Y026632D02*
X013700Y026705D01*
X013920Y026705D01*
X013920Y026632D02*
X013920Y026779D01*
X013920Y026190D02*
X013700Y026190D01*
X014700Y026190D02*
X014773Y026263D01*
X014700Y026337D01*
X014920Y026337D01*
X014883Y026411D02*
X014920Y026448D01*
X014920Y026521D01*
X014883Y026558D01*
X014847Y026558D01*
X014810Y026521D01*
X014810Y026448D01*
X014773Y026411D01*
X014737Y026411D01*
X014700Y026448D01*
X014700Y026521D01*
X014737Y026558D01*
X014737Y026632D02*
X014700Y026669D01*
X014700Y026742D01*
X014737Y026779D01*
X014773Y026779D01*
X014920Y026632D01*
X014920Y026779D01*
X014920Y026190D02*
X014700Y026190D01*
X015700Y026190D02*
X015773Y026263D01*
X015700Y026337D01*
X015920Y026337D01*
X015883Y026411D02*
X015920Y026448D01*
X015920Y026521D01*
X015883Y026558D01*
X015847Y026558D01*
X015810Y026521D01*
X015810Y026448D01*
X015773Y026411D01*
X015737Y026411D01*
X015700Y026448D01*
X015700Y026521D01*
X015737Y026558D01*
X015737Y026632D02*
X015700Y026669D01*
X015700Y026742D01*
X015737Y026779D01*
X015773Y026779D01*
X015810Y026742D01*
X015847Y026779D01*
X015883Y026779D01*
X015920Y026742D01*
X015920Y026669D01*
X015883Y026632D01*
X015810Y026705D02*
X015810Y026742D01*
X015920Y026190D02*
X015700Y026190D01*
X016700Y026190D02*
X016700Y026300D01*
X016737Y026337D01*
X016810Y026337D01*
X016847Y026300D01*
X016847Y026190D01*
X016920Y026190D02*
X016700Y026190D01*
X016847Y026263D02*
X016920Y026337D01*
X016883Y026411D02*
X016920Y026448D01*
X016920Y026521D01*
X016883Y026558D01*
X016847Y026558D01*
X016810Y026521D01*
X016810Y026448D01*
X016773Y026411D01*
X016737Y026411D01*
X016700Y026448D01*
X016700Y026521D01*
X016737Y026558D01*
X016700Y026632D02*
X016700Y026779D01*
X016700Y026705D02*
X016920Y026705D01*
X017700Y026742D02*
X017737Y026779D01*
X017810Y026779D01*
X017847Y026742D01*
X017847Y026632D01*
X017920Y026632D02*
X017700Y026632D01*
X017700Y026742D01*
X017920Y026558D02*
X017920Y026411D01*
X017700Y026411D01*
X017737Y026337D02*
X017700Y026300D01*
X017700Y026227D01*
X017737Y026190D01*
X017773Y026190D01*
X017810Y026227D01*
X017810Y026300D01*
X017847Y026337D01*
X017883Y026337D01*
X017920Y026300D01*
X017920Y026227D01*
X017883Y026190D01*
X018700Y026227D02*
X018737Y026190D01*
X018773Y026190D01*
X018810Y026227D01*
X018810Y026300D01*
X018847Y026337D01*
X018883Y026337D01*
X018920Y026300D01*
X018920Y026227D01*
X018883Y026190D01*
X018700Y026227D02*
X018700Y026300D01*
X018737Y026337D01*
X018700Y026411D02*
X018700Y026558D01*
X018700Y026484D02*
X018920Y026484D01*
X018920Y026632D02*
X018920Y026779D01*
X018920Y026853D02*
X018700Y026853D01*
X018700Y026963D01*
X018737Y027000D01*
X018810Y027000D01*
X018847Y026963D01*
X018847Y026853D01*
X018810Y026705D02*
X018810Y026632D01*
X018700Y026632D02*
X018920Y026632D01*
X018700Y026632D02*
X018700Y026779D01*
X019700Y026668D02*
X019737Y026705D01*
X019810Y026705D01*
X019847Y026668D01*
X019847Y026558D01*
X019920Y026558D02*
X019700Y026558D01*
X019700Y026668D01*
X019847Y026632D02*
X019920Y026705D01*
X019920Y026484D02*
X019920Y026411D01*
X019920Y026448D02*
X019700Y026448D01*
X019700Y026484D02*
X019700Y026411D01*
X019737Y026337D02*
X019700Y026300D01*
X019700Y026190D01*
X019920Y026190D01*
X019920Y026300D01*
X019883Y026337D01*
X019737Y026337D01*
X021700Y026337D02*
X021700Y026190D01*
X021920Y026190D01*
X021920Y026337D01*
X021920Y026411D02*
X021700Y026411D01*
X021920Y026558D01*
X021700Y026558D01*
X021810Y026263D02*
X021810Y026190D01*
X022700Y026190D02*
X022773Y026263D01*
X022700Y026337D01*
X022920Y026337D01*
X022883Y026411D02*
X022920Y026448D01*
X022920Y026521D01*
X022883Y026558D01*
X022847Y026558D01*
X022810Y026521D01*
X022810Y026448D01*
X022773Y026411D01*
X022737Y026411D01*
X022700Y026448D01*
X022700Y026521D01*
X022737Y026558D01*
X022773Y026632D02*
X022700Y026705D01*
X022920Y026705D01*
X022920Y026632D02*
X022920Y026779D01*
X022920Y026190D02*
X022700Y026190D01*
X023700Y026190D02*
X023773Y026263D01*
X023700Y026337D01*
X023920Y026337D01*
X023883Y026411D02*
X023920Y026448D01*
X023920Y026521D01*
X023883Y026558D01*
X023847Y026558D01*
X023810Y026521D01*
X023810Y026448D01*
X023773Y026411D01*
X023737Y026411D01*
X023700Y026448D01*
X023700Y026521D01*
X023737Y026558D01*
X023737Y026632D02*
X023700Y026669D01*
X023700Y026742D01*
X023737Y026779D01*
X023773Y026779D01*
X023920Y026632D01*
X023920Y026779D01*
X023920Y026190D02*
X023700Y026190D01*
X024700Y026190D02*
X024773Y026263D01*
X024700Y026337D01*
X024920Y026337D01*
X024883Y026411D02*
X024920Y026448D01*
X024920Y026521D01*
X024883Y026558D01*
X024847Y026558D01*
X024810Y026521D01*
X024810Y026448D01*
X024773Y026411D01*
X024737Y026411D01*
X024700Y026448D01*
X024700Y026521D01*
X024737Y026558D01*
X024737Y026632D02*
X024700Y026669D01*
X024700Y026742D01*
X024737Y026779D01*
X024773Y026779D01*
X024810Y026742D01*
X024847Y026779D01*
X024883Y026779D01*
X024920Y026742D01*
X024920Y026669D01*
X024883Y026632D01*
X024810Y026705D02*
X024810Y026742D01*
X024920Y026190D02*
X024700Y026190D01*
X025700Y026190D02*
X025700Y026300D01*
X025737Y026337D01*
X025810Y026337D01*
X025847Y026300D01*
X025847Y026190D01*
X025920Y026190D02*
X025700Y026190D01*
X025847Y026263D02*
X025920Y026337D01*
X025883Y026411D02*
X025920Y026448D01*
X025920Y026521D01*
X025883Y026558D01*
X025847Y026558D01*
X025810Y026521D01*
X025810Y026448D01*
X025773Y026411D01*
X025737Y026411D01*
X025700Y026448D01*
X025700Y026521D01*
X025737Y026558D01*
X025700Y026632D02*
X025700Y026779D01*
X025700Y026705D02*
X025920Y026705D01*
X026700Y026742D02*
X026737Y026779D01*
X026810Y026779D01*
X026847Y026742D01*
X026847Y026632D01*
X026920Y026632D02*
X026700Y026632D01*
X026700Y026742D01*
X026920Y026558D02*
X026920Y026411D01*
X026700Y026411D01*
X026737Y026337D02*
X026700Y026300D01*
X026700Y026227D01*
X026737Y026190D01*
X026773Y026190D01*
X026810Y026227D01*
X026810Y026300D01*
X026847Y026337D01*
X026883Y026337D01*
X026920Y026300D01*
X026920Y026227D01*
X026883Y026190D01*
X027700Y026227D02*
X027737Y026190D01*
X027773Y026190D01*
X027810Y026227D01*
X027810Y026300D01*
X027847Y026337D01*
X027883Y026337D01*
X027920Y026300D01*
X027920Y026227D01*
X027883Y026190D01*
X027700Y026227D02*
X027700Y026300D01*
X027737Y026337D01*
X027700Y026411D02*
X027700Y026558D01*
X027700Y026484D02*
X027920Y026484D01*
X027920Y026632D02*
X027920Y026779D01*
X027920Y026853D02*
X027700Y026853D01*
X027700Y026963D01*
X027737Y027000D01*
X027810Y027000D01*
X027847Y026963D01*
X027847Y026853D01*
X027810Y026705D02*
X027810Y026632D01*
X027700Y026632D02*
X027920Y026632D01*
X027700Y026632D02*
X027700Y026779D01*
X028700Y026668D02*
X028737Y026705D01*
X028810Y026705D01*
X028847Y026668D01*
X028847Y026558D01*
X028920Y026558D02*
X028700Y026558D01*
X028700Y026668D01*
X028847Y026632D02*
X028920Y026705D01*
X028920Y026484D02*
X028920Y026411D01*
X028920Y026448D02*
X028700Y026448D01*
X028700Y026484D02*
X028700Y026411D01*
X028737Y026337D02*
X028700Y026300D01*
X028700Y026190D01*
X028920Y026190D01*
X028920Y026300D01*
X028883Y026337D01*
X028737Y026337D01*
X030700Y026337D02*
X030700Y026190D01*
X030920Y026190D01*
X030920Y026337D01*
X030920Y026411D02*
X030700Y026411D01*
X030920Y026558D01*
X030700Y026558D01*
X030810Y026263D02*
X030810Y026190D01*
X031700Y026190D02*
X031773Y026263D01*
X031700Y026337D01*
X031920Y026337D01*
X031883Y026411D02*
X031920Y026448D01*
X031920Y026521D01*
X031883Y026558D01*
X031847Y026558D01*
X031810Y026521D01*
X031810Y026448D01*
X031773Y026411D01*
X031737Y026411D01*
X031700Y026448D01*
X031700Y026521D01*
X031737Y026558D01*
X031773Y026632D02*
X031700Y026705D01*
X031920Y026705D01*
X031920Y026632D02*
X031920Y026779D01*
X031920Y026190D02*
X031700Y026190D01*
X032700Y026190D02*
X032773Y026263D01*
X032700Y026337D01*
X032920Y026337D01*
X032883Y026411D02*
X032920Y026448D01*
X032920Y026521D01*
X032883Y026558D01*
X032847Y026558D01*
X032810Y026521D01*
X032810Y026448D01*
X032773Y026411D01*
X032737Y026411D01*
X032700Y026448D01*
X032700Y026521D01*
X032737Y026558D01*
X032737Y026632D02*
X032700Y026669D01*
X032700Y026742D01*
X032737Y026779D01*
X032773Y026779D01*
X032920Y026632D01*
X032920Y026779D01*
X032920Y026190D02*
X032700Y026190D01*
X033700Y026190D02*
X033773Y026263D01*
X033700Y026337D01*
X033920Y026337D01*
X033883Y026411D02*
X033920Y026448D01*
X033920Y026521D01*
X033883Y026558D01*
X033847Y026558D01*
X033810Y026521D01*
X033810Y026448D01*
X033773Y026411D01*
X033737Y026411D01*
X033700Y026448D01*
X033700Y026521D01*
X033737Y026558D01*
X033737Y026632D02*
X033700Y026669D01*
X033700Y026742D01*
X033737Y026779D01*
X033773Y026779D01*
X033810Y026742D01*
X033847Y026779D01*
X033883Y026779D01*
X033920Y026742D01*
X033920Y026669D01*
X033883Y026632D01*
X033810Y026705D02*
X033810Y026742D01*
X033920Y026190D02*
X033700Y026190D01*
X034700Y026190D02*
X034700Y026300D01*
X034737Y026337D01*
X034810Y026337D01*
X034847Y026300D01*
X034847Y026190D01*
X034920Y026190D02*
X034700Y026190D01*
X034847Y026263D02*
X034920Y026337D01*
X034883Y026411D02*
X034920Y026448D01*
X034920Y026521D01*
X034883Y026558D01*
X034847Y026558D01*
X034810Y026521D01*
X034810Y026448D01*
X034773Y026411D01*
X034737Y026411D01*
X034700Y026448D01*
X034700Y026521D01*
X034737Y026558D01*
X034700Y026632D02*
X034700Y026779D01*
X034700Y026705D02*
X034920Y026705D01*
X035700Y026742D02*
X035737Y026779D01*
X035810Y026779D01*
X035847Y026742D01*
X035847Y026632D01*
X035920Y026632D02*
X035700Y026632D01*
X035700Y026742D01*
X035920Y026558D02*
X035920Y026411D01*
X035700Y026411D01*
X035737Y026337D02*
X035700Y026300D01*
X035700Y026227D01*
X035737Y026190D01*
X035773Y026190D01*
X035810Y026227D01*
X035810Y026300D01*
X035847Y026337D01*
X035883Y026337D01*
X035920Y026300D01*
X035920Y026227D01*
X035883Y026190D01*
X036700Y026227D02*
X036737Y026190D01*
X036773Y026190D01*
X036810Y026227D01*
X036810Y026300D01*
X036847Y026337D01*
X036883Y026337D01*
X036920Y026300D01*
X036920Y026227D01*
X036883Y026190D01*
X036700Y026227D02*
X036700Y026300D01*
X036737Y026337D01*
X036700Y026411D02*
X036700Y026558D01*
X036700Y026484D02*
X036920Y026484D01*
X036920Y026632D02*
X036700Y026632D01*
X036700Y026779D01*
X036700Y026853D02*
X036700Y026963D01*
X036737Y027000D01*
X036810Y027000D01*
X036847Y026963D01*
X036847Y026853D01*
X036920Y026853D02*
X036700Y026853D01*
X036810Y026705D02*
X036810Y026632D01*
X036920Y026632D02*
X036920Y026779D01*
X037700Y026668D02*
X037737Y026705D01*
X037810Y026705D01*
X037847Y026668D01*
X037847Y026558D01*
X037920Y026558D02*
X037700Y026558D01*
X037700Y026668D01*
X037847Y026632D02*
X037920Y026705D01*
X037920Y026484D02*
X037920Y026411D01*
X037920Y026448D02*
X037700Y026448D01*
X037700Y026484D02*
X037700Y026411D01*
X037737Y026337D02*
X037700Y026300D01*
X037700Y026190D01*
X037920Y026190D01*
X037920Y026300D01*
X037883Y026337D01*
X037737Y026337D01*
X037623Y029527D02*
X037660Y029564D01*
X037660Y029637D01*
X037623Y029674D01*
X037550Y029674D01*
X037550Y029600D01*
X037477Y029527D02*
X037623Y029527D01*
X037477Y029527D02*
X037440Y029564D01*
X037440Y029637D01*
X037477Y029674D01*
X037440Y029748D02*
X037660Y029895D01*
X037440Y029895D01*
X037440Y029969D02*
X037440Y030079D01*
X037477Y030116D01*
X037623Y030116D01*
X037660Y030079D01*
X037660Y029969D01*
X037440Y029969D01*
X037440Y029748D02*
X037660Y029748D01*
X036660Y029748D02*
X036660Y029858D01*
X036623Y029895D01*
X036477Y029895D01*
X036440Y029858D01*
X036440Y029748D01*
X036660Y029748D01*
X036587Y029674D02*
X036440Y029674D01*
X036587Y029674D02*
X036660Y029600D01*
X036587Y029527D01*
X036440Y029527D01*
X036440Y029969D02*
X036440Y030079D01*
X036477Y030116D01*
X036623Y030116D01*
X036660Y030079D01*
X036660Y029969D01*
X036440Y029969D01*
X035660Y029969D02*
X035660Y030079D01*
X035623Y030116D01*
X035587Y030116D01*
X035550Y030079D01*
X035550Y029969D01*
X035660Y029969D02*
X035440Y029969D01*
X035440Y030079D01*
X035477Y030116D01*
X035513Y030116D01*
X035550Y030079D01*
X035660Y029895D02*
X035660Y029748D01*
X035660Y029821D02*
X035440Y029821D01*
X035513Y029748D01*
X034660Y029748D02*
X034660Y029895D01*
X034660Y029821D02*
X034440Y029821D01*
X034513Y029748D01*
X034513Y029969D02*
X034440Y030042D01*
X034513Y030116D01*
X034660Y030116D01*
X034550Y030116D02*
X034550Y029969D01*
X034513Y029969D02*
X034660Y029969D01*
X033660Y029969D02*
X033513Y029969D01*
X033440Y030042D01*
X033513Y030116D01*
X033660Y030116D01*
X033550Y030116D02*
X033550Y029969D01*
X033513Y029895D02*
X033477Y029895D01*
X033440Y029858D01*
X033440Y029785D01*
X033477Y029748D01*
X033513Y029895D02*
X033660Y029748D01*
X033660Y029895D01*
X032660Y029895D02*
X032660Y029748D01*
X032513Y029895D01*
X032477Y029895D01*
X032440Y029858D01*
X032440Y029785D01*
X032477Y029748D01*
X032440Y029969D02*
X032440Y030079D01*
X032477Y030116D01*
X032513Y030116D01*
X032550Y030079D01*
X032550Y029969D01*
X032660Y029969D02*
X032440Y029969D01*
X032550Y030079D02*
X032587Y030116D01*
X032623Y030116D01*
X032660Y030079D01*
X032660Y029969D01*
X031660Y029969D02*
X031660Y030079D01*
X031623Y030116D01*
X031477Y030116D01*
X031440Y030079D01*
X031440Y029969D01*
X031660Y029969D01*
X031660Y029895D02*
X031440Y029895D01*
X031440Y029748D02*
X031660Y029895D01*
X031660Y029748D02*
X031440Y029748D01*
X031477Y029674D02*
X031440Y029637D01*
X031440Y029564D01*
X031477Y029527D01*
X031623Y029527D01*
X031660Y029564D01*
X031660Y029637D01*
X031623Y029674D01*
X031550Y029674D01*
X031550Y029600D01*
X030660Y029601D02*
X030513Y029601D01*
X030513Y029637D01*
X030550Y029674D01*
X030513Y029711D01*
X030550Y029747D01*
X030660Y029747D01*
X030660Y029674D02*
X030550Y029674D01*
X030550Y029822D02*
X030623Y029822D01*
X030660Y029858D01*
X030660Y029932D01*
X030623Y029968D01*
X030550Y029968D01*
X030513Y029932D01*
X030513Y029858D01*
X030550Y029822D01*
X030513Y030043D02*
X030513Y030116D01*
X030477Y030079D02*
X030623Y030079D01*
X030660Y030116D01*
X030587Y029526D02*
X030440Y029526D01*
X030440Y029380D02*
X030587Y029380D01*
X030660Y029453D01*
X030587Y029526D01*
X028660Y029564D02*
X028660Y029637D01*
X028623Y029674D01*
X028550Y029674D01*
X028550Y029600D01*
X028623Y029527D02*
X028660Y029564D01*
X028623Y029527D02*
X028477Y029527D01*
X028440Y029564D01*
X028440Y029637D01*
X028477Y029674D01*
X028440Y029748D02*
X028660Y029895D01*
X028440Y029895D01*
X028440Y029969D02*
X028440Y030079D01*
X028477Y030116D01*
X028623Y030116D01*
X028660Y030079D01*
X028660Y029969D01*
X028440Y029969D01*
X028440Y029748D02*
X028660Y029748D01*
X027660Y029748D02*
X027660Y029858D01*
X027623Y029895D01*
X027477Y029895D01*
X027440Y029858D01*
X027440Y029748D01*
X027660Y029748D01*
X027587Y029674D02*
X027440Y029674D01*
X027587Y029674D02*
X027660Y029600D01*
X027587Y029527D01*
X027440Y029527D01*
X027440Y029969D02*
X027440Y030079D01*
X027477Y030116D01*
X027623Y030116D01*
X027660Y030079D01*
X027660Y029969D01*
X027440Y029969D01*
X026660Y029969D02*
X026660Y030079D01*
X026623Y030116D01*
X026587Y030116D01*
X026550Y030079D01*
X026550Y029969D01*
X026660Y029969D02*
X026440Y029969D01*
X026440Y030079D01*
X026477Y030116D01*
X026513Y030116D01*
X026550Y030079D01*
X026660Y029895D02*
X026660Y029748D01*
X026660Y029821D02*
X026440Y029821D01*
X026513Y029748D01*
X025660Y029748D02*
X025660Y029895D01*
X025660Y029821D02*
X025440Y029821D01*
X025513Y029748D01*
X025513Y029969D02*
X025440Y030042D01*
X025513Y030116D01*
X025660Y030116D01*
X025550Y030116D02*
X025550Y029969D01*
X025513Y029969D02*
X025660Y029969D01*
X024660Y029969D02*
X024513Y029969D01*
X024440Y030042D01*
X024513Y030116D01*
X024660Y030116D01*
X024550Y030116D02*
X024550Y029969D01*
X024513Y029895D02*
X024477Y029895D01*
X024440Y029858D01*
X024440Y029785D01*
X024477Y029748D01*
X024513Y029895D02*
X024660Y029748D01*
X024660Y029895D01*
X023660Y029895D02*
X023660Y029748D01*
X023513Y029895D01*
X023477Y029895D01*
X023440Y029858D01*
X023440Y029785D01*
X023477Y029748D01*
X023440Y029969D02*
X023440Y030079D01*
X023477Y030116D01*
X023513Y030116D01*
X023550Y030079D01*
X023550Y029969D01*
X023660Y029969D02*
X023660Y030079D01*
X023623Y030116D01*
X023587Y030116D01*
X023550Y030079D01*
X023660Y029969D02*
X023440Y029969D01*
X022660Y029969D02*
X022660Y030079D01*
X022623Y030116D01*
X022477Y030116D01*
X022440Y030079D01*
X022440Y029969D01*
X022660Y029969D01*
X022660Y029895D02*
X022440Y029895D01*
X022440Y029748D02*
X022660Y029895D01*
X022660Y029748D02*
X022440Y029748D01*
X022477Y029674D02*
X022440Y029637D01*
X022440Y029564D01*
X022477Y029527D01*
X022623Y029527D01*
X022660Y029564D01*
X022660Y029637D01*
X022623Y029674D01*
X022550Y029674D01*
X022550Y029600D01*
X021660Y029601D02*
X021513Y029601D01*
X021513Y029637D01*
X021550Y029674D01*
X021513Y029711D01*
X021550Y029747D01*
X021660Y029747D01*
X021660Y029674D02*
X021550Y029674D01*
X021550Y029822D02*
X021623Y029822D01*
X021660Y029858D01*
X021660Y029932D01*
X021623Y029968D01*
X021550Y029968D01*
X021513Y029932D01*
X021513Y029858D01*
X021550Y029822D01*
X021513Y030043D02*
X021513Y030116D01*
X021477Y030079D02*
X021623Y030079D01*
X021660Y030116D01*
X021587Y029526D02*
X021440Y029526D01*
X021440Y029380D02*
X021587Y029380D01*
X021660Y029453D01*
X021587Y029526D01*
X019660Y029564D02*
X019660Y029637D01*
X019623Y029674D01*
X019550Y029674D01*
X019550Y029600D01*
X019623Y029527D02*
X019660Y029564D01*
X019623Y029527D02*
X019477Y029527D01*
X019440Y029564D01*
X019440Y029637D01*
X019477Y029674D01*
X019440Y029748D02*
X019660Y029895D01*
X019440Y029895D01*
X019440Y029969D02*
X019440Y030079D01*
X019477Y030116D01*
X019623Y030116D01*
X019660Y030079D01*
X019660Y029969D01*
X019440Y029969D01*
X019440Y029748D02*
X019660Y029748D01*
X018660Y029748D02*
X018660Y029858D01*
X018623Y029895D01*
X018477Y029895D01*
X018440Y029858D01*
X018440Y029748D01*
X018660Y029748D01*
X018587Y029674D02*
X018660Y029600D01*
X018587Y029527D01*
X018440Y029527D01*
X018440Y029674D02*
X018587Y029674D01*
X018660Y029969D02*
X018440Y029969D01*
X018440Y030079D01*
X018477Y030116D01*
X018623Y030116D01*
X018660Y030079D01*
X018660Y029969D01*
X017660Y029969D02*
X017660Y030079D01*
X017623Y030116D01*
X017587Y030116D01*
X017550Y030079D01*
X017550Y029969D01*
X017660Y029969D02*
X017440Y029969D01*
X017440Y030079D01*
X017477Y030116D01*
X017513Y030116D01*
X017550Y030079D01*
X017660Y029895D02*
X017660Y029748D01*
X017660Y029821D02*
X017440Y029821D01*
X017513Y029748D01*
X016660Y029748D02*
X016660Y029895D01*
X016660Y029821D02*
X016440Y029821D01*
X016513Y029748D01*
X016513Y029969D02*
X016440Y030042D01*
X016513Y030116D01*
X016660Y030116D01*
X016550Y030116D02*
X016550Y029969D01*
X016513Y029969D02*
X016660Y029969D01*
X015660Y029969D02*
X015513Y029969D01*
X015440Y030042D01*
X015513Y030116D01*
X015660Y030116D01*
X015550Y030116D02*
X015550Y029969D01*
X015513Y029895D02*
X015477Y029895D01*
X015440Y029858D01*
X015440Y029785D01*
X015477Y029748D01*
X015513Y029895D02*
X015660Y029748D01*
X015660Y029895D01*
X014660Y029895D02*
X014660Y029748D01*
X014513Y029895D01*
X014477Y029895D01*
X014440Y029858D01*
X014440Y029785D01*
X014477Y029748D01*
X014440Y029969D02*
X014440Y030079D01*
X014477Y030116D01*
X014513Y030116D01*
X014550Y030079D01*
X014550Y029969D01*
X014660Y029969D02*
X014660Y030079D01*
X014623Y030116D01*
X014587Y030116D01*
X014550Y030079D01*
X014660Y029969D02*
X014440Y029969D01*
X013660Y029969D02*
X013660Y030079D01*
X013623Y030116D01*
X013477Y030116D01*
X013440Y030079D01*
X013440Y029969D01*
X013660Y029969D01*
X013660Y029895D02*
X013440Y029895D01*
X013440Y029748D02*
X013660Y029895D01*
X013660Y029748D02*
X013440Y029748D01*
X013477Y029674D02*
X013440Y029637D01*
X013440Y029564D01*
X013477Y029527D01*
X013623Y029527D01*
X013660Y029564D01*
X013660Y029637D01*
X013623Y029674D01*
X013550Y029674D01*
X013550Y029600D01*
X012660Y029601D02*
X012513Y029601D01*
X012513Y029637D01*
X012550Y029674D01*
X012513Y029711D01*
X012550Y029747D01*
X012660Y029747D01*
X012660Y029674D02*
X012550Y029674D01*
X012550Y029822D02*
X012623Y029822D01*
X012660Y029858D01*
X012660Y029932D01*
X012623Y029968D01*
X012550Y029968D01*
X012513Y029932D01*
X012513Y029858D01*
X012550Y029822D01*
X012513Y030043D02*
X012513Y030116D01*
X012477Y030079D02*
X012623Y030079D01*
X012660Y030116D01*
X012587Y029526D02*
X012440Y029526D01*
X012440Y029380D02*
X012587Y029380D01*
X012660Y029453D01*
X012587Y029526D01*
D20*
X018944Y032121D03*
X019416Y032121D03*
X027944Y032121D03*
X028416Y032121D03*
X036944Y032121D03*
X037416Y032121D03*
D21*
X004198Y009322D03*
D22*
X021168Y007320D03*
X032692Y007040D03*
X032692Y011040D03*
X022192Y018040D03*
D23*
X013495Y004680D02*
X012924Y005054D01*
X012924Y004306D01*
X013495Y004680D01*
X006366Y010461D02*
X006366Y010688D01*
X006366Y010461D02*
X004594Y010461D01*
X004594Y010688D01*
X004594Y011899D02*
X006366Y011899D01*
X006366Y011672D01*
X004594Y011672D02*
X004595Y011785D01*
X004594Y011898D01*
D24*
X005923Y011771D03*
X005923Y010589D03*
D25*
X013515Y004680D03*
M02*
