G75*
%MOIN*%
%OFA0B0*%
%FSLAX25Y25*%
%IPPOS*%
%LPD*%
%AMOC8*
5,1,8,0,0,1.08239X$1,22.5*
%
%ADD10C,0.01600*%
%ADD11R,0.04724X0.04724*%
%ADD12R,0.05118X0.05906*%
%ADD13R,0.05906X0.05118*%
%ADD14R,0.13780X0.06299*%
%ADD15R,0.02953X0.04331*%
%ADD16R,0.08661X0.02362*%
%ADD17R,0.10000X0.20000*%
%ADD18R,0.06299X0.05118*%
%ADD19R,0.05118X0.06299*%
%ADD20R,0.15748X0.06299*%
%ADD21R,0.06299X0.08661*%
%ADD22R,0.03543X0.01378*%
%ADD23R,0.07087X0.06693*%
%ADD24R,0.07874X0.07874*%
D10*
X0021800Y0024674D02*
X0029674Y0016800D01*
X0407627Y0016800D01*
X0415501Y0024674D01*
X0415501Y0323887D01*
X0407627Y0331761D01*
X0029674Y0331761D01*
X0021800Y0323887D01*
X0022001Y0323887D02*
X0022001Y0024674D01*
D11*
X0127666Y0026800D03*
X0135934Y0026800D03*
X0080934Y0286800D03*
X0072666Y0286800D03*
X0072666Y0296800D03*
X0080934Y0296800D03*
X0080934Y0306800D03*
X0072666Y0306800D03*
X0072666Y0316800D03*
X0080934Y0316800D03*
X0191800Y0317666D03*
X0191800Y0325934D03*
X0281800Y0325934D03*
X0281800Y0317666D03*
X0371800Y0317666D03*
X0371800Y0325934D03*
D12*
X0355540Y0246800D03*
X0348060Y0246800D03*
X0265540Y0246800D03*
X0258060Y0246800D03*
X0175540Y0246800D03*
X0168060Y0246800D03*
X0035146Y0191800D03*
X0028454Y0191800D03*
X0128454Y0061800D03*
X0135146Y0061800D03*
X0148454Y0061800D03*
X0155146Y0061800D03*
X0135540Y0034800D03*
X0128060Y0034800D03*
D13*
X0061800Y0128454D03*
X0061800Y0135146D03*
X0051800Y0135146D03*
X0051800Y0128454D03*
X0066800Y0168454D03*
X0066800Y0175146D03*
X0113800Y0279454D03*
X0113800Y0286146D03*
X0201800Y0318060D03*
X0201800Y0325540D03*
X0216800Y0295146D03*
X0216800Y0288454D03*
X0206800Y0270540D03*
X0206800Y0263060D03*
X0296800Y0263060D03*
X0296800Y0270540D03*
X0306800Y0288454D03*
X0306800Y0295146D03*
X0296800Y0318060D03*
X0296800Y0325540D03*
X0381800Y0325540D03*
X0381800Y0318060D03*
X0386800Y0270540D03*
X0386800Y0263060D03*
D14*
X0337430Y0276800D03*
X0316170Y0276800D03*
X0262430Y0276800D03*
X0241170Y0276800D03*
X0147430Y0276800D03*
X0126170Y0276800D03*
D15*
X0094300Y0276013D03*
X0089300Y0276013D03*
X0084300Y0276013D03*
X0079300Y0276013D03*
X0079300Y0267587D03*
X0084300Y0267587D03*
X0089300Y0267587D03*
X0094300Y0267587D03*
D16*
X0057036Y0159300D03*
X0057036Y0154300D03*
X0057036Y0149300D03*
X0057036Y0144300D03*
X0036564Y0144300D03*
X0036564Y0149300D03*
X0036564Y0154300D03*
X0036564Y0159300D03*
D17*
X0046800Y0151800D03*
D18*
X0066800Y0150737D03*
X0066800Y0142863D03*
X0035800Y0115737D03*
X0035800Y0107863D03*
D19*
X0032863Y0026800D03*
X0040737Y0026800D03*
X0057863Y0191800D03*
X0065737Y0191800D03*
X0065737Y0236800D03*
X0057863Y0236800D03*
D20*
X0059320Y0214438D03*
X0035304Y0214438D03*
X0034792Y0051800D03*
X0058808Y0051800D03*
D21*
X0059989Y0087312D03*
X0034792Y0087312D03*
D22*
X0205284Y0074477D03*
X0205284Y0071918D03*
X0205284Y0069359D03*
X0205284Y0066800D03*
X0205284Y0064241D03*
X0205284Y0061682D03*
X0205284Y0059123D03*
X0205284Y0056741D03*
X0205284Y0054182D03*
X0205284Y0051623D03*
X0228316Y0051623D03*
X0228316Y0054182D03*
X0228316Y0056741D03*
X0228316Y0059123D03*
X0228316Y0061682D03*
X0228316Y0064241D03*
X0228316Y0066800D03*
X0228316Y0069359D03*
X0228316Y0071918D03*
X0228316Y0074477D03*
X0310284Y0074241D03*
X0310284Y0076800D03*
X0310284Y0079359D03*
X0310284Y0081918D03*
X0310284Y0084477D03*
X0310284Y0086859D03*
X0310284Y0089418D03*
X0310284Y0091977D03*
X0310284Y0109123D03*
X0310284Y0111682D03*
X0310284Y0114241D03*
X0310284Y0116800D03*
X0310284Y0119359D03*
X0310284Y0121918D03*
X0310284Y0124477D03*
X0310284Y0126859D03*
X0310284Y0129418D03*
X0310284Y0131977D03*
X0333316Y0131977D03*
X0333316Y0129418D03*
X0333316Y0126859D03*
X0333316Y0124477D03*
X0333316Y0121918D03*
X0333316Y0119359D03*
X0333316Y0116800D03*
X0333316Y0114241D03*
X0333316Y0111682D03*
X0333316Y0109123D03*
X0333316Y0091977D03*
X0333316Y0089418D03*
X0333316Y0086859D03*
X0333316Y0084477D03*
X0333316Y0081918D03*
X0333316Y0079359D03*
X0333316Y0076800D03*
X0333316Y0074241D03*
X0333316Y0071682D03*
X0333316Y0069123D03*
X0310284Y0069123D03*
X0310284Y0071682D03*
X0228316Y0179123D03*
X0228316Y0181682D03*
X0228316Y0184241D03*
X0228316Y0186800D03*
X0228316Y0189359D03*
X0228316Y0191918D03*
X0228316Y0194477D03*
X0228316Y0196859D03*
X0228316Y0199418D03*
X0228316Y0201977D03*
X0205284Y0201977D03*
X0205284Y0199418D03*
X0205284Y0196859D03*
X0205284Y0194477D03*
X0205284Y0191918D03*
X0205284Y0189359D03*
X0205284Y0186800D03*
X0205284Y0184241D03*
X0205284Y0181682D03*
X0205284Y0179123D03*
D23*
X0139871Y0046800D03*
X0123729Y0046800D03*
D24*
X0062674Y0111800D03*
X0046926Y0111800D03*
M02*
