G75*
%MOIN*%
%OFA0B0*%
%FSLAX24Y24*%
%IPPOS*%
%LPD*%
%AMOC8*
5,1,8,0,0,1.08239X$1,22.5*
%
%ADD10C,0.0160*%
%ADD11C,0.0634*%
%ADD12C,0.0740*%
%ADD13C,0.0594*%
%ADD14C,0.0640*%
%ADD15C,0.1930*%
%ADD16C,0.0600*%
%ADD17R,0.0840X0.0840*%
%ADD18C,0.0840*%
%ADD19C,0.0900*%
%ADD20C,0.0780*%
%ADD21OC8,0.0640*%
D10*
X002145Y001680D02*
X039940Y001680D01*
X040727Y002467D01*
X040727Y032389D01*
X039940Y033176D01*
X002145Y033176D01*
X001357Y032389D01*
X001357Y002467D01*
X002145Y001680D01*
D11*
X014357Y002680D03*
X015357Y002680D03*
X016357Y002680D03*
X017357Y002680D03*
X018357Y002680D03*
X019357Y002680D03*
X021357Y002680D03*
X022357Y002680D03*
X023357Y002680D03*
X024357Y002680D03*
X025357Y002680D03*
X026357Y002680D03*
X027357Y002680D03*
X028357Y002680D03*
X030357Y002680D03*
X031357Y002680D03*
X032357Y002680D03*
X033357Y002680D03*
X034357Y002680D03*
X035357Y002680D03*
X036357Y002680D03*
X037357Y002680D03*
X038357Y004680D03*
X039357Y004680D03*
X039357Y005680D03*
X038357Y005680D03*
X038357Y006680D03*
X039357Y006680D03*
X039357Y007680D03*
X038357Y007680D03*
X038357Y008680D03*
X039357Y008680D03*
X039357Y009680D03*
X038357Y009680D03*
X038357Y010680D03*
X038357Y011680D03*
X039357Y011680D03*
X039357Y010680D03*
X039357Y012680D03*
X038357Y012680D03*
X038357Y013680D03*
X039357Y013680D03*
X039357Y014680D03*
X038357Y014680D03*
X038357Y015680D03*
X039357Y015680D03*
X039357Y016680D03*
X038357Y016680D03*
X038357Y017680D03*
X039357Y017680D03*
X039357Y018680D03*
X038357Y018680D03*
X038357Y019680D03*
X039357Y019680D03*
X039357Y020680D03*
X038357Y020680D03*
X038357Y021680D03*
X039357Y021680D03*
X035357Y021680D03*
X034357Y021680D03*
X033357Y021680D03*
X032357Y021680D03*
X031357Y021680D03*
X030357Y021680D03*
X029357Y021680D03*
X028357Y021680D03*
X026357Y021680D03*
X025357Y021680D03*
X024357Y021680D03*
X023357Y021680D03*
X022357Y021680D03*
X021357Y021680D03*
X020357Y021680D03*
X019357Y021680D03*
X017757Y021680D03*
X016757Y021680D03*
X015757Y021680D03*
X014757Y021680D03*
X013757Y021680D03*
X012757Y021680D03*
X011757Y021680D03*
X010757Y021680D03*
D12*
X013857Y031680D03*
X014857Y031680D03*
X015857Y031680D03*
X016857Y031680D03*
X022857Y031680D03*
X023857Y031680D03*
X024857Y031680D03*
X025857Y031680D03*
X031857Y031680D03*
X032857Y031680D03*
X033857Y031680D03*
X034857Y031680D03*
D13*
X034857Y030680D03*
X033857Y030680D03*
X032857Y030680D03*
X031857Y030680D03*
X030857Y030680D03*
X029857Y030680D03*
X027857Y030680D03*
X026857Y030680D03*
X025857Y030680D03*
X024857Y030680D03*
X023857Y030680D03*
X022857Y030680D03*
X021857Y030680D03*
X020857Y030680D03*
X018857Y030680D03*
X017857Y030680D03*
X016857Y030680D03*
X015857Y030680D03*
X014857Y030680D03*
X013857Y030680D03*
X012857Y030680D03*
X011857Y030680D03*
X011857Y025680D03*
X012857Y025680D03*
X013857Y025680D03*
X014857Y025680D03*
X015857Y025680D03*
X016857Y025680D03*
X017857Y025680D03*
X018857Y025680D03*
X020857Y025680D03*
X021857Y025680D03*
X022857Y025680D03*
X023857Y025680D03*
X024857Y025680D03*
X025857Y025680D03*
X026857Y025680D03*
X027857Y025680D03*
X029857Y025680D03*
X030857Y025680D03*
X031857Y025680D03*
X032857Y025680D03*
X033857Y025680D03*
X034857Y025680D03*
X035857Y025680D03*
X036857Y025680D03*
X036857Y030680D03*
X035857Y030680D03*
D14*
X010857Y030680D03*
X009857Y030680D03*
X008857Y030680D03*
X008857Y031680D03*
X009857Y031680D03*
X010857Y031680D03*
D15*
X005515Y027219D03*
X004334Y025369D03*
X003192Y027219D03*
D16*
X005077Y030180D02*
X005637Y030180D01*
X005637Y031180D02*
X005077Y031180D01*
X005357Y002960D02*
X005357Y002400D01*
X004357Y002400D02*
X004357Y002960D01*
D17*
X013357Y029380D03*
X022357Y029380D03*
X031357Y029380D03*
D18*
X032735Y029380D03*
X034113Y029380D03*
X035491Y029380D03*
X026491Y029380D03*
X025113Y029380D03*
X023735Y029380D03*
X017491Y029380D03*
X016113Y029380D03*
X014735Y029380D03*
D19*
X002857Y025349D03*
X002857Y023971D03*
D20*
X002467Y029400D03*
X004247Y029400D03*
X004247Y031960D03*
X002467Y031960D03*
D21*
X007243Y022637D03*
X008243Y022637D03*
X008243Y021637D03*
X007243Y021637D03*
X007243Y020637D03*
X008243Y020637D03*
X008243Y019637D03*
X007243Y019637D03*
X007243Y018637D03*
X008243Y018637D03*
X008243Y017637D03*
X007243Y017637D03*
X007243Y016637D03*
X008243Y016637D03*
X008243Y015637D03*
X007243Y015637D03*
X007243Y014637D03*
X008243Y014637D03*
X008243Y013637D03*
X007243Y013637D03*
X007243Y012637D03*
X008243Y012637D03*
X008243Y011637D03*
X007243Y011637D03*
X007243Y010637D03*
X008243Y010637D03*
X008243Y009637D03*
X007243Y009637D03*
X007243Y008637D03*
X008243Y008637D03*
X008243Y007637D03*
X007243Y007637D03*
X007243Y006637D03*
X008243Y006637D03*
X008243Y005637D03*
X007243Y005637D03*
X007243Y004637D03*
X008243Y004637D03*
X008243Y003637D03*
X007243Y003637D03*
X038357Y028680D03*
X039357Y028680D03*
X039357Y029680D03*
X038357Y029680D03*
X038357Y030680D03*
X039357Y030680D03*
M02*
