%
M48
M72
T01C0.0120
T02C0.0160
T03C0.0236
T04C0.0354
T05C0.0360
T06C0.0394
T07C0.0400
T08C0.0472
T09C0.1181
%
T01
X9857Y8930
X10357Y8930
X11357Y7430
X13107Y8430
X13607Y8930
X12607Y10430
X10107Y11430
X9107Y12180
X8857Y13930
X8857Y16930
X9857Y18180
X9607Y18430
X10357Y17680
X12857Y18180
X12857Y20680
X9107Y19930
X6857Y20180
X4357Y18430
X5107Y17680
X6107Y25180
X9357Y25180
X11857Y26430
X9357Y28430
X9357Y31680
X16107Y27180
X19357Y28930
X21357Y26430
X26857Y21430
X23857Y19180
X22607Y19180
X22607Y20180
X21357Y19930
X20857Y20180
X21357Y19430
X20357Y18680
X20107Y19180
X20607Y18180
X21257Y17780
X21107Y17180
X22607Y17430
X23257Y17780
X23757Y16780
X25257Y16780
X25257Y17780
X28607Y17930
X33357Y16180
X33607Y13930
X30607Y12680
X29607Y12430
X30857Y11180
X30607Y7680
X29607Y7430
X30857Y6680
X36107Y6180
X37607Y7680
X26107Y12180
X24857Y12680
X22257Y13780
X21107Y12930
X20107Y9680
X20107Y7180
X21607Y6930
X21607Y6430
X18357Y6680
X15857Y7180
X15357Y6180
X16857Y9180
X17357Y15680
X17357Y16180
X16857Y17180
X16857Y17680
X17857Y18180
X27857Y31680
X37357Y27180
X38107Y23680
X38107Y23180
X38107Y22680
X38107Y19180
T02
X28557Y13580
X28557Y12380
X30557Y9680
X31557Y9180
X33357Y9180
X33357Y6680
X15857Y4480
X14857Y4480
X13857Y3480
X10857Y3080
X10357Y4680
X5857Y8780
X4157Y8380
X4157Y7380
X4157Y6380
X4157Y9380
X2857Y12180
X3657Y12380
X3657Y12880
X3657Y13380
X3657Y13880
X3657Y14380
X3657Y14380
X3657Y14880
X3657Y15380
X3657Y15880
X3657Y16380
X3657Y16880
X3657Y17380
X3157Y17380
X2657Y17380
X2657Y17880
X3157Y17880
X3657Y17880
X4157Y17880
X4157Y17380
X4157Y16880
X4157Y16380
X4157Y15880
X4157Y15380
X4157Y14880
X4157Y14380
X5957Y13680
X5457Y12180
X5957Y16280
X5757Y18180
X4457Y19180
X2857Y16480
T03
X3857Y20680
X4357Y22680
X10357Y23180
X14957Y27680
X18357Y27180
X16357Y23680
X24457Y25080
X26857Y27680
X27857Y27680
X30357Y32180
X34157Y27680
X33457Y25180
X37957Y20180
X39857Y22680
X38857Y32180
X21357Y32180
X17557Y32580
X6157Y32580
X5957Y28680
T04
X11857Y30680
X12857Y30680
X13857Y30680
X14857Y30680
X15857Y30680
X16857Y30680
X17857Y30680
X18857Y30680
X20857Y30680
X21857Y30680
X22857Y30680
X23857Y30680
X24857Y30680
X25857Y30680
X26857Y30680
X27857Y30680
X29857Y30680
X30857Y30680
X31857Y30680
X32857Y30680
X33857Y30680
X34857Y30680
X35857Y30680
X36857Y30680
X36857Y25680
X35857Y25680
X34857Y25680
X33857Y25680
X32857Y25680
X31857Y25680
X30857Y25680
X29857Y25680
X27857Y25680
X26857Y25680
X25857Y25680
X24857Y25680
X23857Y25680
X22857Y25680
X21857Y25680
X20857Y25680
X18857Y25680
X17857Y25680
X16857Y25680
X15857Y25680
X14857Y25680
X13857Y25680
X12857Y25680
X11857Y25680
T05
X4357Y2680
X5357Y2680
X5357Y30180
X5357Y31180
T06
X2857Y25349
X2857Y23971
X10757Y21680
X11757Y21680
X12757Y21680
X13757Y21680
X14757Y21680
X15757Y21680
X16757Y21680
X17757Y21680
X19357Y21680
X20357Y21680
X21357Y21680
X22357Y21680
X23357Y21680
X24357Y21680
X25357Y21680
X26357Y21680
X28357Y21680
X29357Y21680
X30357Y21680
X31357Y21680
X32357Y21680
X33357Y21680
X34357Y21680
X35357Y21680
X38357Y21680
X39357Y21680
X39357Y20680
X38357Y20680
X38357Y19680
X39357Y19680
X39357Y18680
X38357Y18680
X38357Y17680
X39357Y17680
X39357Y16680
X38357Y16680
X38357Y15680
X39357Y15680
X39357Y14680
X38357Y14680
X38357Y13680
X39357Y13680
X39357Y12680
X38357Y12680
X38357Y11680
X38357Y10680
X39357Y10680
X39357Y11680
X39357Y9680
X38357Y9680
X38357Y8680
X39357Y8680
X39357Y7680
X38357Y7680
X38357Y6680
X39357Y6680
X39357Y5680
X38357Y5680
X38357Y4680
X39357Y4680
X37357Y2680
X36357Y2680
X35357Y2680
X34357Y2680
X33357Y2680
X32357Y2680
X31357Y2680
X30357Y2680
X28357Y2680
X27357Y2680
X26357Y2680
X25357Y2680
X24357Y2680
X23357Y2680
X22357Y2680
X21357Y2680
X19357Y2680
X18357Y2680
X17357Y2680
X16357Y2680
X15357Y2680
X14357Y2680
T07
X8243Y3637
X7243Y3637
X7243Y4637
X8243Y4637
X8243Y5637
X7243Y5637
X7243Y6637
X8243Y6637
X8243Y7637
X7243Y7637
X7243Y8637
X8243Y8637
X8243Y9637
X8243Y10637
X7243Y10637
X7243Y9637
X7243Y11637
X8243Y11637
X8243Y12637
X7243Y12637
X7243Y13637
X8243Y13637
X8243Y14637
X7243Y14637
X7243Y15637
X8243Y15637
X8243Y16637
X7243Y16637
X7243Y17637
X8243Y17637
X8243Y18637
X7243Y18637
X7243Y19637
X8243Y19637
X8243Y20637
X8243Y21637
X7243Y21637
X7243Y20637
X7243Y22637
X8243Y22637
X4247Y29400
X2467Y29400
X2467Y31960
X4247Y31960
X8857Y31680
X9857Y31680
X9857Y30680
X8857Y30680
X10857Y30680
X10857Y31680
X13857Y31680
X14857Y31680
X15857Y31680
X16857Y31680
X22857Y31680
X23857Y31680
X24857Y31680
X25857Y31680
X31857Y31680
X32857Y31680
X33857Y31680
X34857Y31680
X38357Y30680
X39357Y30680
X39357Y29680
X38357Y29680
X38357Y28680
X39357Y28680
T08
X35491Y29680
X34113Y29680
X32735Y29680
X31357Y29680
X26491Y29680
X25113Y29680
X23735Y29680
X22357Y29680
X17491Y29680
X16113Y29680
X14735Y29680
X13357Y29680
T09
X5515Y27219
X4334Y25369
X3192Y27219
M30
